<svg id="Layer_1" data-name="Layer 1" xmlns="http://www.w3.org/2000/svg" viewBox="0 0 700 700"><defs><style>.cls-1{fill:#120c0c;}.cls-2{fill:#feae63;}.cls-3{fill:#c4e7f9;}.cls-4{fill:#99abcc;}.cls-5{fill:none;stroke:#000;stroke-linecap:round;stroke-linejoin:round;stroke-width:2.3px;}</style></defs><title>Yoga_poses_2020_color</title><path class="cls-1" d="M542.7,245.1l-.25,1.39s-10.09,2.6-12.37,3c-4.52.85-5.27,4.28-8.79,7.06s-7.62,2.73-9.73,1.68c0,0-3-5.25-6.09-.26a8.18,8.18,0,0,0-.42,1.86h0l-.14,0s-6.19,1.1-7.5,5.26c-.19.61-.39,1.22-.61,1.85h0c-2.8,4.75-6.41,2-8.16-5.62-1.95-8.45,2.84-18.24,2.84-18.24A27.77,27.77,0,0,1,502.9,230.6a19.71,19.71,0,0,1,4.33-1.9c.92-.19,1.82-.35,2.7-.47C525.12,226.07,533.53,233.93,542.7,245.1Z"/><path class="cls-2" d="M505,259.86h0a8.18,8.18,0,0,1,.42-1.86c3.13-5,6.09.26,6.09.26,2.11,1.05,6.22,1.1,9.73-1.68s4.27-6.21,8.79-7.06c2.28-.43,12.37-3,12.37-3l-.33,1.82s.38,8.94-1.75,13.93c-1.68,3.92-3.17,4.06-2.36,7.27l.38,6-5.07-.91-4.7,8.95c0,.94-1.17,7.9-10.54,2.16,0,0-1.91-2.29-5,.79-2.27,2.28-3.72,3.44-7,6.87a27.84,27.84,0,0,0-6.67,11.23l-1.12-.32a16.26,16.26,0,0,0-.13-9.14c-2.3-7.47-7.68-13.9-15.65-13.57,8.24-1.11,12-8.14,14.21-14.6.22-.63.42-1.24.61-1.85,1.31-4.16,7.5-5.26,7.5-5.26Zm29.8,5.07c.63-1.29.68-2.56.12-2.83s-1.52.55-2.15,1.84-.69,2.57-.13,2.84S534.21,266.23,534.84,264.93Z"/><path d="M535,262.1c.56.27.51,1.54-.12,2.83s-1.6,2.12-2.16,1.85-.5-1.54.13-2.84S534.4,261.82,535,262.1Z"/><path class="cls-2" d="M502.53,376.5a1.19,1.19,0,0,1-1.19,1.11h0l-10.57-.35a68.29,68.29,0,0,1-9-.6,6.51,6.51,0,0,1-3-1.39l-.67-.55a6.43,6.43,0,0,0-2.13-1.17c-3.5-1.59-14.88-6.48-24.65-12.41-5.54-3.37-10.56-7.07-13.35-10.69,0,0-5.37-5.55-7.47-7.36s-.71-8.46,4.88-14.61c0,0,9.47-11.49,19.16-21.27h0c0-7.67,9.47-15.81,10.06-16.32l0,0a98.35,98.35,0,0,1,9.16-6.51,19.64,19.64,0,0,1,8.82-2.8c8-.33,13.35,6.1,15.65,13.57a16.26,16.26,0,0,1,.13,9.14,16.06,16.06,0,0,1-8.08,10l-.22.11a93.59,93.59,0,0,0-9.21,5.36s-4.49,3.59-9,6.91c-1.48,1.08-3,2.15-4.28,3-5.32,3.6-14.47,9.26-14.47,9.26l-.26.22c1.09,1.22,2.83,3.33,5.4,6.88a50.65,50.65,0,0,0,8.68,8.7c4.17,3.42,7.91,5.85,7.91,5.85l8.69,5.46a5.17,5.17,0,0,0,1.9.65c3.11.4,12.41,1.59,14,1.6l17.93,3.58a1.47,1.47,0,0,1-.08,2.92l-3.53.28h-.44a1.27,1.27,0,0,1-1.25,1.29Z"/><path class="cls-1" d="M509.83,227.56l.1.67c-.88.12-1.78.28-2.7.47a19.71,19.71,0,0,0-4.33,1.9l0-.1c-8.29,3.4-11.32-4.26-10.36-7.69,1.33-4.81,9-10.29,14.82-5.45S509.83,227.56,509.83,227.56Z"/><path class="cls-2" d="M499.48,304.58l-3.05,15.2c-9.72,17.17-24.06,7.23-24.55,6.89,4.48-3.32,9-6.91,9-6.91a93.59,93.59,0,0,1,9.21-5.36l.22-.11a16.06,16.06,0,0,0,8.08-10Z"/><path class="cls-3" d="M496.43,319.78l-1.32,6.59c-1.58,6.3-2.68,13.88-4.83,17.66-5.16,9.06-15.26,7-17,7.92-2.23,1.2-6.3,2.82-6.3,2.82a50.65,50.65,0,0,1-8.68-8.7c-2.57-3.55-4.31-5.66-5.4-6.88l.26-.22s9.15-5.66,14.47-9.26c1.32-.89,2.8-2,4.28-3C472.37,327,486.71,337,496.43,319.78Z"/><path class="cls-3" d="M456,297.61c2.15-1.68,5.37-4.25,8.59-6.73-.59.51-10.06,8.65-10.06,16.32h0c-9.69,9.78-19.16,21.27-19.16,21.27-5.59,6.15-7,12.79-4.88,14.61s7.47,7.36,7.47,7.36c2.79,3.62,7.81,7.32,13.35,10.69l0,0L431.65,364a56.94,56.94,0,0,1-8,.84l0-.7s.74-17.14-.87-24.4-7.38-16.52-7.38-16.52a27.09,27.09,0,0,0,4.41-.51c4-.68,10.63-1.62,14.86-5.93A198.42,198.42,0,0,1,456,297.61Z"/><path class="cls-4" d="M423.62,364.1l0,.7c-9.89.45-21.42-.75-29.66-1.12a46.34,46.34,0,0,0-9,.45c-20.58,3.09-74.72,4.16-93.87-.34a83.9,83.9,0,0,0-22.9-2c-14.53.65-35.69.2-49.31.33-5-12.56,0-16.66.4-17,12.21-1.57,31.42-4.91,41.15-6.2,13.11-1.74,29.58,6.65,44.42,1.44s36.36-8.39,46-10,24.74-12.33,37.24-12.33A49.23,49.23,0,0,1,406,322c2.27,1,6,1.33,9.38,1.19,0,0,5.77,9.26,7.38,16.52S423.62,364.1,423.62,364.1Z"/><path class="cls-2" d="M219.27,345.12c-.43.33-5.35,4.43-.4,17a105.48,105.48,0,0,0-11.67.5c-9.64,1.42-21.28,3.72-28.22,3.4s-13.42,0-13.42,0-2.53,2.05-5.21,1.75-2.22-2.7-1.27-3a6.39,6.39,0,0,0,2-1.58,10.62,10.62,0,0,1,6-6.63c5.06-2.37,8.85-4,14.22-8.69s7.1-7.26,11.21-9.31,9.94,7.26,17.21,7.42A77.2,77.2,0,0,0,219.27,345.12Z"/><path class="cls-5" d="M502.5,376.5h0l9.51-.09a1.26,1.26,0,0,0,.17-2.51l-10.9-1.53"/><path class="cls-5" d="M415.37,323.18s5.77,9.26,7.38,16.52.87,24.4.87,24.4"/><path class="cls-5" d="M219.3,345.1l0,0c-.43.33-5.35,4.43-.4,17"/><path class="cls-5" d="M513.73,375.11l3.53-.28a1.47,1.47,0,0,0,.08-2.92l-17.93-3.58c-1.55,0-10.85-1.2-14-1.6a5.17,5.17,0,0,1-1.9-.65l-8.69-5.46s-3.74-2.43-7.91-5.85a50.65,50.65,0,0,1-8.68-8.7c-2.57-3.55-4.31-5.66-5.4-6.88a13,13,0,0,0-1.55-1.55"/><path class="cls-5" d="M454.51,307.2a98.13,98.13,0,0,1,12.43-11"/><path class="cls-5" d="M493.36,373.13l8.27,2.14a1.19,1.19,0,0,1,.9,1.2v0a1.19,1.19,0,0,1-1.19,1.11h0l-10.57-.35a68.29,68.29,0,0,1-9-.6,6.51,6.51,0,0,1-3-1.39l-.67-.55a6.43,6.43,0,0,0-2.13-1.17c-3.5-1.59-14.88-6.48-24.65-12.41-5.54-3.37-10.56-7.07-13.35-10.69,0,0-5.37-5.55-7.47-7.36s-.71-8.46,4.88-14.61c0,0,9.47-11.49,19.16-21.27"/><path class="cls-5" d="M464.57,290.88c-.59.51-10.06,8.65-10.06,16.32h0"/><path class="cls-5" d="M496.43,319.78c-9.72,17.17-24.06,7.23-24.55,6.89h0"/><path class="cls-5" d="M419.78,322.67c4-.68,10.63-1.62,14.86-5.93A198.42,198.42,0,0,1,456,297.61c2.15-1.68,5.37-4.25,8.59-6.73l0,0a98.35,98.35,0,0,1,9.16-6.51,19.64,19.64,0,0,1,8.82-2.8c8-.33,13.35,6.1,15.65,13.57a16.26,16.26,0,0,1,.13,9.14,16.06,16.06,0,0,1-8.08,10l-.22.11a93.59,93.59,0,0,0-9.21,5.36s-4.49,3.59-9,6.91c-1.48,1.08-3,2.15-4.28,3-5.32,3.6-14.47,9.26-14.47,9.26"/><path class="cls-5" d="M451.27,361.17,431.65,364a56.94,56.94,0,0,1-8,.84c-9.89.45-21.42-.75-29.66-1.12a46.34,46.34,0,0,0-9,.45c-20.58,3.09-74.72,4.16-93.87-.34a83.9,83.9,0,0,0-22.9-2c-14.53.65-35.69.2-49.31.33a105.48,105.48,0,0,0-11.67.5c-9.64,1.42-21.28,3.72-28.22,3.4s-13.42,0-13.42,0-2.53,2.05-5.21,1.75-2.22-2.7-1.27-3a6.39,6.39,0,0,0,2-1.58,10.62,10.62,0,0,1,6-6.63c5.06-2.37,8.85-4,14.22-8.69s7.1-7.26,11.21-9.31,9.94,7.26,17.21,7.42a77.2,77.2,0,0,0,9.5-.84c12.21-1.57,31.42-4.91,41.15-6.2,13.11-1.74,29.58,6.65,44.42,1.44s36.36-8.39,46-10,24.74-12.33,37.24-12.33A49.23,49.23,0,0,1,406,322c2.27,1,6,1.33,9.38,1.19a27.09,27.09,0,0,0,4.41-.51"/><path class="cls-5" d="M491.45,243.08A27.77,27.77,0,0,1,502.9,230.6a19.71,19.71,0,0,1,4.33-1.9c.92-.19,1.82-.35,2.7-.47,15.19-2.16,23.6,5.7,32.77,16.87l-.25,1.39-.33,1.82s.38,8.94-1.75,13.93c-1.68,3.92-3.17,4.06-2.36,7.27l.38,6-5.07-.91-4.7,8.95c0,.94-1.17,7.9-10.54,2.16,0,0-1.91-2.29-5,.79-2.27,2.28-3.72,3.44-7,6.87a27.84,27.84,0,0,0-6.67,11.23l-3.05,15.2-1.32,6.59c-1.58,6.3-2.68,13.88-4.83,17.66-5.16,9.06-15.26,7-17,7.92-2.23,1.2-6.3,2.82-6.3,2.82"/><path class="cls-5" d="M511.56,258.26s-3-5.25-6.09-.26a8.18,8.18,0,0,0-.42,1.86h0a8,8,0,0,0,2.5,7.07s2.68,1.79,2.56-2.15"/><path class="cls-5" d="M507.92,271.93s-1.39,5.17,2.57,7.83"/><path class="cls-5" d="M542.45,246.49s-10.09,2.6-12.37,3c-4.52.85-5.27,4.28-8.79,7.06s-7.62,2.73-9.73,1.68"/><path class="cls-5" d="M496.77,266.94c-2.8,4.75-6.41,2-8.16-5.62-1.95-8.45,2.84-18.24,2.84-18.24"/><path class="cls-5" d="M509.83,227.56s3.29-5.35-2.52-10.2-13.49.64-14.82,5.45c-1,3.43,2.07,11.09,10.36,7.69"/><path class="cls-5" d="M504.9,259.84s-6.19,1.1-7.5,5.26c-.19.61-.39,1.22-.61,1.85-2.24,6.46-6,13.49-14.21,14.6"/></svg>