<svg id="Layer_1" data-name="Layer 1" xmlns="http://www.w3.org/2000/svg" viewBox="0 0 700 700"><defs><style>.cls-1{fill:#feae63;}.cls-2{fill:#392328;}.cls-3{fill:#c4e7f9;}.cls-4{fill:#99abcc;}.cls-5,.cls-6{fill:none;stroke:#000;stroke-linecap:round;stroke-linejoin:round;}.cls-5{stroke-width:2.3px;}.cls-6{stroke-width:2.22px;}</style></defs><title>Yoga_poses_2020_color</title><path class="cls-1" d="M446.3,338.39l-.09.56-1.15,1c-3.08,2.72-11.79,10.41-19.27,17.18-34.38-12.54-16.33-45-16.33-45,3.74-.78,9.52-1.79,12.73-1.39,0,0,13.14.87,20.39,3.9l1.11.43c6.19,2.19,6.92-1.19,15.53,1.62,9.1,3,10,5.86,24.64,6.77,6.07.37,9.26.46,11.57.36,3.25-.13,4.77-.63,10.08-1.18,9.1-.94,29.18,2.45,39.7,3.5a112.53,112.53,0,0,0,20.39,0l2.59-8.2a7.24,7.24,0,0,1,1.13-2.19c1.61-2.13,5.29-7.38,5.17-10.83a2.12,2.12,0,0,1,1.29-2,2.11,2.11,0,0,1,2.86,1.2,7.24,7.24,0,0,1,0,5.62c-1.73,3.45-5.18,12.08,6,9,10.41-2.94,12.6-5.32,18.73-6.52a1.77,1.77,0,0,1,1,3.39l3.91-1.4a1.77,1.77,0,0,1,2.22,1.09l0,.07a1.76,1.76,0,0,1-.94,2.2l-1.06.47.34.77.41.95a1.78,1.78,0,0,1-.85,2.28l-5.27,2.61.18.36.6,1.13a1.77,1.77,0,0,1-.71,2.38c-2.6,1.42-8.09,4.35-12.91,6.53-6.59,3-11.3,4.87-21.34,3.77s-39.86,7.53-60.41,5.49c-14.7-1.46-23.3-.19-31.72,0a63.2,63.2,0,0,1-10.33-.49C457.59,342.63,451.76,340,446.3,338.39Z"/><path class="cls-2" d="M495.41,323.06l0,.76c-2.31.1-5.5,0-11.57-.36-14.6-.91-15.54-3.8-24.64-6.77-8.61-2.81-9.34.57-15.53-1.62l.17-.49c0-12.16,14.1-18.51,14.1-18.51a25.94,25.94,0,0,1,17.29-1.18l.05,0a23.09,23.09,0,0,1,5,1.93c.63.35,1.23.7,1.8,1.06C492.82,304.54,495.13,312.56,495.41,323.06Z"/><path class="cls-2" d="M487.28,287.9c1.22,7.47-4.78,9.36-4.78,9.36l-.39.64c-.57-.36-1.17-.71-1.8-1.06a23.09,23.09,0,0,0-5-1.93l-.05,0c-8.42-2.88-5.69-10.62-2.73-12.59C476.67,279.54,486.07,280.44,487.28,287.9Z"/><path class="cls-1" d="M476.77,344.31v.78a5.84,5.84,0,0,0-1,1.46l-3.63,4.77-3.23-4L459.54,351c-.61.72-6.07,5.21-9.38-5.27,0,0-.42-5.26-5.06-4.92l0-.84,1.15-1,.09-.56c5.46,1.56,11.29,4.24,20.14,5.43A63.2,63.2,0,0,0,476.77,344.31Z"/><path class="cls-1" d="M463.82,459.21a1.66,1.66,0,0,1-.29,3.29h-.09l-20.86-1.16-1.1,0a2.09,2.09,0,0,0,0-.25,2.46,2.46,0,0,0-1.25-2.16L432,454.17l10.63,1.21Z"/><path class="cls-1" d="M433.56,461.06H421.15s-2.93-.87-5-15.72-2.93-18.62-3.35-43.73c0,0,.42-5.23-4.39-15.69s-4.82-11.29-4.82-11.29l-.09-1.65c5.35-.34,7.91-2.07,11-5.26,1.35-1.4,4.11-4,7.47-7.07l.27.29s3.46,20.38,5,31.36,2.83,6.91,1.57,23.23-3.13,34.51-1.57,36.4l1.57,1.88,3.17.36,8.29,4.73a2.46,2.46,0,0,1,1.25,2.16,2.09,2.09,0,0,1,0,.25,2.5,2.5,0,0,1-.72,1.5,2.44,2.44,0,0,1-1.75.73h-.64a2.46,2.46,0,0,1-1.27-.36Z"/><path class="cls-3" d="M425.79,357.14c-1.34,1.21-2.65,2.39-3.87,3.51-3.36,3.08-6.12,5.67-7.47,7.07-3.06,3.19-5.62,4.92-11,5.26a57.22,57.22,0,0,1-9.7-.42,83,83,0,0,0-15.52-.21l-4.81.35c-6.07.42-10.66-1-23.64-1.42a92.9,92.9,0,0,0-9.85.23v0a48.68,48.68,0,0,0-3.43-43.57,43.24,43.24,0,0,0,11.63-1.43c12.86-4.48,27.89-8.65,57.72-13.56,0,0,1.47-.37,3.58-.8C409.46,312.13,391.41,344.6,425.79,357.14Z"/><path class="cls-4" d="M324.22,373.59c.07,9.61.1,22.56-.14,31-.42,14.75-2,59-17.05,60l-16.82.31a22.61,22.61,0,0,1-5.32-.53,139.87,139.87,0,0,1-26.66-9.06C246.68,450,232,443.62,221.4,440.78a25.65,25.65,0,0,1,3.09-18.93c9.21,1.83,18.54,3.24,23.23,3.4,9.1.32,17.3,0,41.3,11.59,0,0-3.76-17.82-6.43-26.63-2.8-9.23-4.13-21.64-4.85-32.41-.64-9.51-.82-17.76-1.11-21.39-.41-5-.18-15.31,6.22-22.81,3.54-4.16,9-7.45,17.27-8.45,0,0,14.44-1.57,26.05,1.46a42.53,42.53,0,0,0,10.36,1.31A48.68,48.68,0,0,1,340,371.49v0A107.1,107.1,0,0,0,325,373.58Z"/><path class="cls-4" d="M282.55,333.33l.3.27c-6.4,7.5-6.63,17.84-6.22,22.81.29,3.63.47,11.88,1.11,21.39l-.84.05s-58.37-4-86.61-21.44c0,0-5.33-2.68-21-5.83-10.68-2.15-26.65-7.48-39.88-9.58-3-10.52,1.31-16.61,1.31-16.61v-.18a107.34,107.34,0,0,0,17.53-.63s10.67-1.57,26,1.57,21.34,10,33.89,10.67S230.57,334,245,334.27,282.55,333.33,282.55,333.33Z"/><path class="cls-1" d="M224.49,421.85a25.65,25.65,0,0,0-3.09,18.93c-5.54-1.48-10-2-12.28-.94-6.75,3.14-15.06,13.81-12.87,15.7,1.24,1.06,3.67,1.52,5.56,1.72a2.73,2.73,0,0,1,2.44,2.87,2.77,2.77,0,0,1-.82,1.79,2.72,2.72,0,0,1-1.8.77l-9,.35s-7.43.5-8.74-4.37c-1.46-5.43,3.92-17.41,3.14-24.63-.7-6.44-2-9.63.37-16.71a4.74,4.74,0,0,1,4.33-3.23,28.32,28.32,0,0,1,11.14,2.21C207.32,418.06,215.86,420.13,224.49,421.85Z"/><path class="cls-1" d="M130.71,324.21v.18s-4.32,6.09-1.31,16.61c-6.2-1-11.81-1.26-16-.16,0,0-5,1.15-8.79,8.47-4.11,8-6,11.93-5.65,13.81.19,1.13,2.3,3.28,4,4.81a3.09,3.09,0,0,1,.44,4l0,0a3.07,3.07,0,0,1-4.41.66l-4.78-3.74a2.82,2.82,0,0,0-.36-.24c-1-.58-6.25-4.19-4.54-15.29,1.88-12.24,2.51-16,.94-23.22a24.35,24.35,0,0,1-.47-6.64,7.06,7.06,0,0,1,8-6.56,37.57,37.57,0,0,1,7.73,1.94A77.73,77.73,0,0,0,130.71,324.21Z"/><path class="cls-5" d="M482.5,297.26s6-1.89,4.78-9.36-10.61-8.36-14.76-5.6c-3,2-5.69,9.71,2.73,12.59"/><path class="cls-5" d="M476.92,345l-.14.14a5.84,5.84,0,0,0-1,1.46l-3.63,4.77-3.23-4L459.54,351c-.61.72-6.07,5.21-9.38-5.27,0,0-.42-5.26-5.06-4.92H445"/><path class="cls-5" d="M443.86,314.58c0-12.16,14.1-18.51,14.1-18.51a25.94,25.94,0,0,1,17.29-1.18l.05,0a23.09,23.09,0,0,1,5,1.93c.63.35,1.23.7,1.8,1.06,10.71,6.64,13,14.66,13.3,25.16"/><path class="cls-6" d="M422.19,360.94s3.46,20.38,5,31.36,2.83,6.91,1.57,23.23-3.13,34.51-1.57,36.4l1.57,1.88,3.17.36,10.63,1.21,21.24,3.83a1.66,1.66,0,0,1-.29,3.29h-.09l-20.86-1.16"/><path class="cls-6" d="M432,454.17l8.29,4.73a2.46,2.46,0,0,1,1.25,2.16,2.09,2.09,0,0,1,0,.25,2.5,2.5,0,0,1-.72,1.5,2.44,2.44,0,0,1-1.75.73h-.64a2.46,2.46,0,0,1-1.27-.36l-3.54-2.12-3.68-2.21"/><path class="cls-6" d="M433.56,461.06H421.15s-2.93-.87-5-15.72-2.93-18.62-3.35-43.73c0,0,.42-5.23-4.39-15.69s-4.82-11.29-4.82-11.29"/><path class="cls-6" d="M446.21,339l-1.15,1c-3.08,2.72-11.79,10.41-19.27,17.18-1.34,1.21-2.65,2.39-3.87,3.51-3.36,3.08-6.12,5.67-7.47,7.07-3.06,3.19-5.62,4.92-11,5.26a57.22,57.22,0,0,1-9.7-.42,83,83,0,0,0-15.52-.21l-4.81.35c-6.07.42-10.66-1-23.64-1.42a92.9,92.9,0,0,0-9.85.23A107.1,107.1,0,0,0,325,373.58"/><path class="cls-6" d="M603.26,325l.6,1.13a1.77,1.77,0,0,1-.71,2.38c-2.6,1.42-8.09,4.35-12.91,6.53-6.59,3-11.3,4.87-21.34,3.77s-39.86,7.53-60.41,5.49c-14.7-1.46-23.3-.19-31.72,0a63.2,63.2,0,0,1-10.33-.49c-8.85-1.19-14.68-3.87-20.14-5.43a26.74,26.74,0,0,0-7.47-1.19"/><path class="cls-6" d="M324.08,360.94s.08,5.36.14,12.65c.07,9.61.1,22.56-.14,31-.42,14.75-2,59-17.05,60l-16.82.31a22.61,22.61,0,0,1-5.32-.53,139.87,139.87,0,0,1-26.66-9.06C246.68,450,232,443.62,221.4,440.78c-5.54-1.48-10-2-12.28-.94-6.75,3.14-15.06,13.81-12.87,15.7,1.24,1.06,3.67,1.52,5.56,1.72a2.73,2.73,0,0,1,2.44,2.87,2.77,2.77,0,0,1-.82,1.79,2.72,2.72,0,0,1-1.8.77l-9,.35s-7.43.5-8.74-4.37c-1.46-5.43,3.92-17.41,3.14-24.63-.7-6.44-2-9.63.37-16.71a4.74,4.74,0,0,1,4.33-3.23,28.32,28.32,0,0,1,11.14,2.21c4.48,1.75,13,3.82,21.65,5.54,9.21,1.83,18.54,3.24,23.23,3.4,9.1.32,17.3,0,41.3,11.59,0,0-3.76-17.82-6.43-26.63-2.8-9.23-4.13-21.64-4.85-32.41-.64-9.51-.82-17.76-1.11-21.39-.41-5-.18-15.31,6.22-22.81,3.54-4.16,9-7.45,17.27-8.45,0,0,14.44-1.57,26.05,1.46a42.53,42.53,0,0,0,10.36,1.31,43.24,43.24,0,0,0,11.63-1.43c12.86-4.48,27.89-8.65,57.72-13.56,0,0,1.47-.37,3.58-.8,3.74-.78,9.52-1.79,12.73-1.39,0,0,13.14.87,20.39,3.9l1.11.43c6.19,2.19,6.92-1.19,15.53,1.62,9.1,3,10,5.86,24.64,6.77,6.07.37,9.26.46,11.57.36,3.25-.13,4.77-.63,10.08-1.18,9.1-.94,29.18,2.45,39.7,3.5a112.53,112.53,0,0,0,20.39,0l2.59-8.2a7.24,7.24,0,0,1,1.13-2.19c1.61-2.13,5.29-7.38,5.17-10.83a2.12,2.12,0,0,1,1.29-2,2.11,2.11,0,0,1,2.86,1.2,7.24,7.24,0,0,1,0,5.62c-1.73,3.45-5.18,12.08,6,9,10.41-2.94,12.6-5.32,18.73-6.52a1.77,1.77,0,0,1,1,3.39l-13.17,5.06"/><path class="cls-6" d="M276.9,377.85s-58.37-4-86.61-21.44c0,0-5.33-2.68-21-5.83-10.68-2.15-26.65-7.48-39.88-9.58-6.2-1-11.81-1.26-16-.16,0,0-5,1.15-8.79,8.47-4.11,8-6,11.93-5.65,13.81.19,1.13,2.3,3.28,4,4.81a3.09,3.09,0,0,1,.44,4l0,0a3.07,3.07,0,0,1-4.41.66l-4.78-3.74a2.82,2.82,0,0,0-.36-.24c-1-.58-6.25-4.19-4.54-15.29,1.88-12.24,2.51-16,.94-23.22a24.35,24.35,0,0,1-.47-6.64,7.06,7.06,0,0,1,8-6.56,37.57,37.57,0,0,1,7.73,1.94,77.73,77.73,0,0,0,25.23,5.3,107.34,107.34,0,0,0,17.53-.63s10.67-1.57,26,1.57,21.34,10,33.89,10.67S230.57,334,245,334.27s37.55-.94,37.55-.94"/><path class="cls-6" d="M590.18,331l12.9-6.38,5.27-2.61a1.78,1.78,0,0,0,.85-2.28l-.41-.95"/><path class="cls-6" d="M591.75,325.46l16.7-7.44,1.06-.47a1.76,1.76,0,0,0,.94-2.2l0-.07a1.77,1.77,0,0,0-2.22-1.09l-3.91,1.4"/><path class="cls-6" d="M409.46,312.13s-18,32.47,16.33,45"/><path class="cls-6" d="M336.53,327.92A48.68,48.68,0,0,1,340,371.49"/><path class="cls-6" d="M130.7,324.39s-4.32,6.09-1.31,16.61"/><path class="cls-6" d="M224.49,421.85a25.65,25.65,0,0,0-3.09,18.93"/></svg>