<svg id="Layer_1" data-name="Layer 1" xmlns="http://www.w3.org/2000/svg" viewBox="0 0 700 700"><defs><style>.cls-1{fill:#feae63;}.cls-2{fill:#99abcc;}.cls-3{fill:#c4e7f9;}.cls-4{fill:#120c0c;}.cls-5{fill:none;stroke:#000;stroke-linecap:round;stroke-linejoin:round;stroke-width:2.3px;}</style></defs><title>Yoga_poses_2020_color</title><path class="cls-1" d="M438.16,444.91l1.2-3.59a7.7,7.7,0,0,1,7.32-5.27,7.61,7.61,0,0,1,3.09.65l7.58,3.3a7.83,7.83,0,0,0,2.18.59l24.28,2.87,2.87.21h5.24a2.13,2.13,0,0,1,1.52.63,2.11,2.11,0,0,1,.63,1.51,2.15,2.15,0,0,1-2.15,2.15h1.51a2.07,2.07,0,0,1,1.47.61,2,2,0,0,1,.61,1.47,2.09,2.09,0,0,1-2.08,2.09h1.67a5,5,0,0,0,2.21,6.64v.54a2.21,2.21,0,0,1-2.21,2.21h-8.42l8.68.88a2.83,2.83,0,0,1,2.54,2.81,3.11,3.11,0,0,1,0,.43,2.83,2.83,0,0,1-3.06,2.4l-7.42-.69h-6.76l-23.87-3.17-2.42-.36-6-.91-7.51-1.3C447,452.81,438.16,444.91,438.16,444.91Z"/><path class="cls-1" d="M450.78,471.27l3,1a2.63,2.63,0,0,1-.71,5.17,2.53,2.53,0,0,1-.71-.1l-6.61-1.84a5,5,0,0,0-1.39-.19h-2.85a5,5,0,0,1-1-.1l-4.38-.88-19.88-3a134.83,134.83,0,0,1,24.6-9.74l7.51,1.3,6,.91v0l.78.21a1.89,1.89,0,0,1,1.26,2.57,1.88,1.88,0,0,1-2.15,1.13l-.05,0c-.28-.1-1.61-.51-2.26-.71l-.25-.08.25.08,2,.65a.9.9,0,0,0,.28.08,2.19,2.19,0,0,1,1.43,2.05,2,2,0,0,1-.1.64,2.15,2.15,0,0,1-2.68,1.44Z"/><path class="cls-1" d="M407.68,338.75c3.67-2.79,7.75-5.78,11.63-7.35,0,0,2-1.32-2.41-8.56s-6.15-11-6.15-11l-1.22-.2c2.38-6.75,6.26-14,6.71-18.89a40.17,40.17,0,0,1,.76-4.7h0c-.07-.43-2.32-14.1-2.75-23.81-.41-9.26-6.41-16.89-7.16-17.81,4.4,4.77,12,15.21,15.29,20s6.14,12.51,7.46,19.76l7.24,24.36,8.1,21a6.94,6.94,0,0,1,.46,2.47v2.94a6.84,6.84,0,0,1-4.76,6.52h0a7.26,7.26,0,0,0-1.31.58,251.16,251.16,0,0,1-31.86,15.28,100.14,100.14,0,0,1-13.17,4.12L386,365.85s-7.21,3.85-12,6.2a10.38,10.38,0,0,1-4.55,1h-8.2l-.45-.17c1-2.68,1.62-5.72,2.77-9.16,1.25-3.74,3.74-11.75,6.11-19.66l.78.24,8.28,5.33a5.92,5.92,0,0,0,1.06.55,6,6,0,0,0,2.08.38,5.78,5.78,0,0,0,1.7-.25c3.93-1.19,12.8-4,16.41-6A79,79,0,0,0,407.68,338.75Z"/><path class="cls-2" d="M361.36,427l-.2-.12a78,78,0,0,1-8.87-13.65A21.07,21.07,0,0,1,350,404c0-.15,0-.3,0-.45V384.51l-.31-.37a55.15,55.15,0,0,1,4.89-3.66s10.22-.32,22.61-1.55,13.7-7.29,33.31-13.63c0,0,13,17.14,14.17,30.5.87,10.15,2.55,25.12-.47,34.26a10.35,10.35,0,0,1-6.94,6.62c-1.92.57-4.68,2.47-7.41,8.18v.31c5.48.07,11.16,0,16.09,0,5.42-.07,9.92-.18,12.23-.24,0,0,8.83,7.9,2.64,16.7a134.83,134.83,0,0,0-24.6,9.74q-3,1.51-6,3.29c-15.64,9.12-28.46,15-39.81,15S346.65,488,346,474.31a53.57,53.57,0,0,1,.05-5.94c.61-9.5,3.64-19.35,8.38-29,1.21-2.47,2.53-4.94,3.95-7.38C359.4,430.2,360.4,428.54,361.36,427Z"/><path class="cls-1" d="M425.93,444.86v.29c-4.93.06-10.61.09-16.09,0v-.31c2.73-5.71,5.49-7.61,7.41-8.18l2.71,1.18a7.15,7.15,0,0,1,3.12,2.64Z"/><path class="cls-1" d="M396.17,242.59s6.46-1,10.85,3.75l.08.09c.75.92,6.75,8.55,7.16,17.81.43,9.71,2.68,23.38,2.75,23.81h0a40.21,40.21,0,0,1-9.32,9.54c-3.9,2.67-7.92,3.73-12.08,2.84,0,0-2.84-42.79-24.13-37.31a24.84,24.84,0,0,0-10.92,6.21l-.27-.28s-.66-3.29,1.75-7.68,2-10.76,1.36-25.12a102.4,102.4,0,0,0-3.59-21.58c3.37,7.42,9.23,15.78,20.4,15.5,10.11-.26,15.61-9.21,18.42-16.6a48,48,0,0,0-3,16.85C395.73,235.35,396,239.65,396.17,242.59Z"/><path class="cls-3" d="M417,288.07a40.17,40.17,0,0,0-.76,4.7c-.45,4.91-4.33,12.14-6.71,18.89a26.33,26.33,0,0,0-1.85,9c.22,8.18,0,17.75,0,18.11a79,79,0,0,1-7.78,5.59c-3.61,2-12.48,4.82-16.41,6a5.78,5.78,0,0,1-1.7.25,6,6,0,0,1-2.08-.38,5.92,5.92,0,0,1-1.06-.55l-8.28-5.33-.78-.24c2.18-7.23,4.25-14.39,5.18-18.13.72-2.87,1.59-6.13,2.42-9.39,17.18-2.22,18.41-16.13,18.41-16.13,4.16.89,8.18-.17,12.08-2.84A40.21,40.21,0,0,0,417,288.07Z"/><path class="cls-3" d="M407.68,359.32l2.82,6c-19.61,6.34-20.93,12.4-33.31,13.63s-22.61,1.55-22.61,1.55a14.38,14.38,0,0,0,6.13-7.56l.45.17h8.2a10.38,10.38,0,0,0,4.55-1c4.83-2.35,12-6.2,12-6.2l8.56-2.41A100.14,100.14,0,0,0,407.68,359.32Z"/><path class="cls-1" d="M398.87,213a.36.36,0,0,1,0,.07,53.07,53.07,0,0,0,2-7h0c.82-1,2.93-1.14,3.31,2.36,0,0-.24,5.42-3.15,8.1C401.05,216.46,397.19,218.16,398.87,213Z"/><path class="cls-4" d="M388.17,172.51c20.12,7.46,13.12,31.36,13.12,31.36s-.12.8-.41,2.13a53.07,53.07,0,0,1-2,7c-.07.19-.14.37-.22.56-2.81,7.39-8.31,16.34-18.42,16.6-11.17.28-17-8.08-20.4-15.5-1.44-3.19-2.43-6.21-3.18-8.28-.08-.24-.16-.45-.24-.66,0,0-5-19,4.5-28C372.42,166.94,388.17,172.51,388.17,172.51Zm-9.61,31c5.72-.15,10.51-5.9,10.36-11.62a10.36,10.36,0,1,0-20.72.55C368.35,198.11,372.84,203.61,378.56,203.46Z"/><path class="cls-1" d="M348.31,307.2c-3.44-2-3.29-9-3.29-9h0a209.19,209.19,0,0,1,8.6-19.45,32.19,32.19,0,0,1,6.94-9.37,24.84,24.84,0,0,1,10.92-6.21c21.29-5.48,24.13,37.31,24.13,37.31s-1.23,13.91-18.41,16.13c-.83,3.26-1.7,6.52-2.42,9.39-.93,3.74-3,10.9-5.18,18.13-2.37,7.91-4.86,15.92-6.11,19.66-1.15,3.44-1.74,6.48-2.77,9.16a14.38,14.38,0,0,1-6.13,7.56,55.15,55.15,0,0,0-4.89,3.66c-7.53,6.15-18.45,16.53-23.15,19.9-5.74,4.13-26.55,16.75-27.45,17.3l0,0c-3.81,1.29-7.46,2.63-10.61,4h0l-5,1.32a5,5,0,0,0-1.18.48l-3,1.75a4.77,4.77,0,0,0-1.9,2.05l-1.14,2.38h0a25.88,25.88,0,0,0-4.9,5.34h-.87a1.66,1.66,0,0,1-1.66-1.66V430.6a3.51,3.51,0,0,1,.25-1.28l5-8.92a4.13,4.13,0,0,1,1.73-1.66l11.05-5.48s8.12-5.71,13.6-10.1A197.68,197.68,0,0,0,326.92,376a51.38,51.38,0,0,1,13.25-12.44A6,6,0,0,0,343,359l1-11.1c.36-3.91,1-9.88,1.66-16.49C346.54,323.4,347.51,314.52,348.31,307.2Z"/><path class="cls-4" d="M388.92,191.84c.15,5.72-4.64,11.47-10.36,11.62s-10.21-5.35-10.36-11.07a10.36,10.36,0,1,1,20.72-.55Z"/><path class="cls-2" d="M354.43,439.34c-4.74,9.68-7.77,19.53-8.38,29l-.7,0s-48.06,2-58.81,0-15.8-18.43-16.68-23.26a8.51,8.51,0,0,1,1.43-6.37,25.88,25.88,0,0,1,4.9-5.34h0c1.54-1.33,3.36-2.75,5.51-4.3a37.5,37.5,0,0,1,6.74-3.67c3.15-1.4,6.8-2.74,10.61-4l0,0c10.1-3.41,21.37-6.51,27.83-9.62A110.93,110.93,0,0,1,350,404h0a21.07,21.07,0,0,0,2.28,9.17,78,78,0,0,0,8.87,13.65l.2.12c-1,1.56-2,3.22-3,5C357,434.4,355.64,436.87,354.43,439.34Z"/><path class="cls-1" d="M359.8,214.69c.86,3.52-2.48,1.84-2.48,1.84-2.91-3.19-3.71-8.17-3.71-8.17.37-3.5,1.61-2.72,2.44-1.74l.57-.21C357.37,208.48,358.36,211.5,359.8,214.69Z"/><path class="cls-3" d="M348.31,307.2c-.8,7.32-1.77,16.2-2.61,24.16l-1.22-.13c-6.15-6.08-4.83-20.9-2-27.05.9-1.94,1.67-3.87,2.51-6h0S344.87,305.16,348.31,307.2Z"/><path class="cls-5" d="M401.29,203.87s7-23.9-13.12-31.36c0,0-15.75-5.57-27.29,5.26-9.54,9-4.5,28-4.5,28"/><path class="cls-5" d="M359.8,214.69a102.4,102.4,0,0,1,3.59,21.58c.6,14.36,1.06,20.73-1.36,25.12s-1.75,7.68-1.75,7.68"/><path class="cls-5" d="M356.05,206.62c-.83-1-2.07-1.76-2.44,1.74,0,0,.8,5,3.71,8.17,0,0,3.34,1.68,2.48-1.84"/><path class="cls-5" d="M398.62,213.59c-2.81,7.39-8.31,16.34-18.42,16.6-11.17.28-17-8.08-20.4-15.5-1.44-3.19-2.43-6.21-3.18-8.28-.08-.24-.16-.45-.24-.66"/><path class="cls-5" d="M401.29,203.87s-.12.8-.41,2.13a53.07,53.07,0,0,1-2,7"/><path class="cls-5" d="M368.2,192.39a10.36,10.36,0,1,1,20.72-.55c.15,5.72-4.64,11.47-10.36,11.62S368.35,198.11,368.2,192.39Z"/><path class="cls-5" d="M398.88,212.94v0a.36.36,0,0,1,0,.07c-.07.19-.14.37-.22.56a48,48,0,0,0-3,16.85c.12,4.91.36,9.21.56,12.15.17,2.59.32,4.13.32,4.13"/><path class="cls-5" d="M400.89,206c.82-1,2.93-1.14,3.31,2.36,0,0-.24,5.42-3.15,8.1,0,0-3.86,1.7-2.18-3.5"/><path class="cls-5" d="M407.1,246.43c4.4,4.77,12,15.21,15.29,20s6.14,12.51,7.46,19.76l7.24,24.36,8.1,21a6.94,6.94,0,0,1,.46,2.47v2.94a6.84,6.84,0,0,1-4.76,6.52h0a7.26,7.26,0,0,0-1.31.58,251.16,251.16,0,0,1-31.86,15.28,100.14,100.14,0,0,1-13.17,4.12L386,365.85s-7.21,3.85-12,6.2a10.38,10.38,0,0,1-4.55,1h-8.2"/><path class="cls-5" d="M396.17,242.59s6.46-1,10.85,3.75"/><path class="cls-5" d="M370.37,344.34l8.28,5.33a5.92,5.92,0,0,0,1.06.55,6,6,0,0,0,2.08.38,5.78,5.78,0,0,0,1.7-.25c3.93-1.19,12.8-4,16.41-6a79,79,0,0,0,7.78-5.59c3.67-2.79,7.75-5.78,11.63-7.35,0,0,2-1.32-2.41-8.56s-6.15-11-6.15-11"/><path class="cls-5" d="M417,288.07a40.17,40.17,0,0,0-.76,4.7c-.45,4.91-4.33,12.14-6.71,18.89a26.33,26.33,0,0,0-1.85,9c.22,8.18,0,17.75,0,18.11h0"/><path class="cls-5" d="M420.85,275.65a90.59,90.59,0,0,0-3.84,12.4"/><path class="cls-5" d="M407,246.34l.08.09c.75.92,6.75,8.55,7.16,17.81.43,9.71,2.68,23.38,2.75,23.81h0a40.21,40.21,0,0,1-9.32,9.54c-3.9,2.67-7.92,3.73-12.08,2.84,0,0-2.84-42.79-24.13-37.31a24.84,24.84,0,0,0-10.92,6.21,32.19,32.19,0,0,0-6.94,9.37,209.19,209.19,0,0,0-8.6,19.45c-.84,2.14-1.61,4.07-2.51,6-2.85,6.15-4.17,21,2,27.05"/><path class="cls-5" d="M350,291.89s-.73,6.53-1.69,15.31c-.8,7.32-1.77,16.2-2.61,24.16-.69,6.61-1.3,12.58-1.66,16.49L343,359a6,6,0,0,1-2.84,4.56A51.38,51.38,0,0,0,326.92,376a197.68,197.68,0,0,1-26.56,27.21c-5.48,4.39-13.6,10.1-13.6,10.1l-11.05,5.48A4.13,4.13,0,0,0,274,420.4l-5,8.92a3.51,3.51,0,0,0-.25,1.28v6.45a1.66,1.66,0,0,0,1.66,1.66h.87"/><path class="cls-5" d="M350,384.51v19.08c0,.15,0,.3,0,.45a21.07,21.07,0,0,0,2.28,9.17,78,78,0,0,0,8.87,13.65"/><path class="cls-5" d="M276.19,433.37a25.88,25.88,0,0,0-4.9,5.34,8.51,8.51,0,0,0-1.43,6.37c.88,4.83,5.92,21.29,16.68,23.26s58.81,0,58.81,0"/><path class="cls-5" d="M299.06,421.36c-3.81,1.29-7.46,2.63-10.61,4a37.5,37.5,0,0,0-6.74,3.67c-2.15,1.55-4,3-5.51,4.3"/><path class="cls-5" d="M350,404a110.93,110.93,0,0,0-23.08,7.68c-6.46,3.11-17.73,6.21-27.83,9.62"/><path class="cls-5" d="M297.51,444.86a122,122,0,0,0,11.87-5.49c3.71-2.19,23.46-4.39,32.68-2.74l12.37,2.71"/><path class="cls-5" d="M278,422.69l-3.62,5.43a4.24,4.24,0,0,0-.52,1.07l-1.12,3.35a4.48,4.48,0,0,0-.23,1.41v2.68"/><path class="cls-5" d="M276.19,433.37h0l1.14-2.38a4.77,4.77,0,0,1,1.9-2.05l3-1.75a5,5,0,0,1,1.18-.48l5-1.32"/><path class="cls-5" d="M299.06,421.36l0,0c.9-.55,21.71-13.17,27.45-17.3,4.7-3.37,15.62-13.75,23.15-19.9a55.15,55.15,0,0,1,4.89-3.66,14.38,14.38,0,0,0,6.13-7.56c1-2.68,1.62-5.72,2.77-9.16,1.25-3.74,3.74-11.75,6.11-19.66,2.18-7.23,4.25-14.39,5.18-18.13.72-2.87,1.59-6.13,2.42-9.39,1.42-5.61,2.74-11.23,3-14.94"/><path class="cls-5" d="M395.6,300.45s-1.23,13.91-18.41,16.13"/><path class="cls-5" d="M345,298.17s-.15,7,3.29,9"/><path class="cls-5" d="M403.4,266.24s1.78,23.42,4.28,31.37"/><path class="cls-5" d="M419.31,331.4a30.55,30.55,0,0,1,5.36-.92"/><path class="cls-5" d="M407.68,359.32l2.82,6s13,17.14,14.17,30.5c.87,10.15,2.55,25.12-.47,34.26a10.35,10.35,0,0,1-6.94,6.62c-1.92.57-4.68,2.47-7.41,8.18"/><path class="cls-5" d="M377.9,459s5.89-14.93,21.53-14.14c3.18.16,6.75.25,10.41.31,5.48.07,11.16,0,16.09,0,5.42-.07,9.92-.18,12.23-.24a12.81,12.81,0,0,0,3.25-.51l1.52-.43a13,13,0,0,1,8.6.48l1,.41"/><path class="cls-5" d="M354.58,380.48s10.22-.32,22.61-1.55,13.7-7.29,33.31-13.63"/><path class="cls-5" d="M489.89,448h2a2.15,2.15,0,0,0,2.15-2.15,2.11,2.11,0,0,0-.63-1.51,2.13,2.13,0,0,0-1.52-.63h-5.24l-2.87-.21-24.28-2.87a7.83,7.83,0,0,1-2.18-.59l-7.58-3.3a7.61,7.61,0,0,0-3.09-.65,7.7,7.7,0,0,0-7.32,5.27l-1.2,3.59s8.83,7.9,2.64,16.7a134.83,134.83,0,0,0-24.6,9.74q-3,1.51-6,3.29c-15.64,9.12-28.46,15-39.81,15S346.65,488,346,474.31a53.57,53.57,0,0,1,.05-5.94c.61-9.5,3.64-19.35,8.38-29,1.21-2.47,2.53-4.94,3.95-7.38,1-1.76,2-3.42,3-5A158.14,158.14,0,0,1,373,410.13s7.16-10.54,26.39-8"/><path class="cls-5" d="M487.88,452.13h5.55a2.09,2.09,0,0,0,2.08-2.09,2,2,0,0,0-.61-1.47,2.07,2.07,0,0,0-1.47-.61h-1.51"/><path class="cls-5" d="M487.16,456.55h7.94a2.21,2.21,0,0,0,0-4.42h-1.67"/><path class="cls-5" d="M440.8,461.61l7.51,1.3,6,.91,2.42.36,23.87,3.17h6.76l7.42.69a2.83,2.83,0,0,0,3.06-2.4,3.11,3.11,0,0,0,0-.43,2.83,2.83,0,0,0-2.54-2.81l-8.68-.88h8.42a2.21,2.21,0,0,0,2.21-2.21v-.54a2.21,2.21,0,0,0-2.21-2.22"/><path class="cls-5" d="M417.26,436.68l2.71,1.18a7.15,7.15,0,0,1,3.12,2.64l2.84,4.36"/><path class="cls-5" d="M442.09,465.17l2.3.43a4.65,4.65,0,0,1,3.45,2.8l.09.22a4.67,4.67,0,0,0,2.85,2.65l3,1a2.63,2.63,0,0,1-.71,5.17,2.53,2.53,0,0,1-.71-.1l-6.61-1.84a5,5,0,0,0-1.39-.19h-2.85a5,5,0,0,1-1-.1l-4.38-.88-19.88-3h0"/><path class="cls-5" d="M451.57,466.92h0l.06,0,.25.08,2,.65a.9.9,0,0,0,.28.08,1.88,1.88,0,0,0,2.15-1.13,1.89,1.89,0,0,0-1.26-2.57l-.78-.21"/><path class="cls-5" d="M450.78,471.27l2.1.62a2.15,2.15,0,0,0,2.68-1.44,2,2,0,0,0,.1-.64,2.19,2.19,0,0,0-1.43-2.05l-.05,0c-.28-.1-1.61-.51-2.26-.71l-.25-.08"/></svg>