<svg id="Layer_1" data-name="Layer 1" xmlns="http://www.w3.org/2000/svg" viewBox="0 0 700 700"><defs><style>.cls-1{fill:#feae63;}.cls-2{fill:#99abcc;}.cls-3{fill:#c4e7f9;}.cls-4{fill:#170607;}.cls-5,.cls-6{fill:none;stroke:#000;stroke-linecap:round;stroke-linejoin:round;}.cls-5{stroke-width:2.3px;}.cls-6{stroke-width:2.38px;}</style></defs><title>Yoga_poses_2020_color</title><path class="cls-1" d="M342,336.72v.07s-1.08,20.24-20.78,18.06c-15.72-1.73-21.94-16.52-21.94-16.52h0c-.52-10.16.45-17.74.28-24.54.95-13.52,22.85-6.24,22.85-6.24,1.83-.34,3.77-.63,5.76-.85a56.37,56.37,0,0,1,6.09-.35c11.13,0,15.51,3,23.6,2s26.3-3.37,35.4-2c0,0,4.72-8.43,10.11-16.52s11.13-23.6,13.83-31.69c1-2.93,2-5.63,2.9-7.89,1-2.42,1.79-4.33,2.3-5.46a6,6,0,0,0,.53-2.46v-5.08a6.05,6.05,0,0,0-1.24-3.66l-1.76-2.3-1-1.33a5,5,0,0,1-.6-1l-2.31-5.4a2.4,2.4,0,0,1,.14-2.18,2.41,2.41,0,0,1,4.27.27l.24.54a2.46,2.46,0,0,0,.76,1l4.54,3.41a4.13,4.13,0,0,0,5.56-.57l1.2-1.36a6.81,6.81,0,0,1,3.31-2.06,6.88,6.88,0,0,0,3-1.75l2.88-2.88a1.92,1.92,0,0,0,.56-1.36v-1a1.93,1.93,0,0,1,3.84-.26l.25,1.83.8.58a3.08,3.08,0,0,1,1.25,2.47v1l1.07.53a2.21,2.21,0,0,1,1.22,2v1.49l1.16,1.71a2.32,2.32,0,0,1,.22,2.18l-1.12,2.77a4.68,4.68,0,0,1-.69,1.16l-1.15,1.4-3.93,4.79-6.42,7a17.54,17.54,0,0,0-2.33,3.18l0,0a18.71,18.71,0,0,0-2.15,5.53c-2.6,12.22-9.53,43.38-14,51.46-4,7.21-4.24,8.68-4.86,10.86a9.14,9.14,0,0,1-3.65,5.05,9,9,0,0,1-3,1.34l-9.4,2.3-14.87,4.64-11.87,3.68c-5.11,1.58-12.26,2.24-18.88,2.46C349.43,336.84,345.2,336.8,342,336.72Z"/><path class="cls-1" d="M449.31,234.36A6.38,6.38,0,0,1,447.4,244a7.56,7.56,0,0,1-1.28.5,27.9,27.9,0,0,0-9.49,4.79,17.54,17.54,0,0,1,2.33-3.18l6.42-7Z"/><path class="cls-1" d="M436.21,189.65a11.09,11.09,0,0,1,.29-4.48,1.63,1.63,0,0,1,3.2.46c-.05,2.78.06,6.6.06,6.6l2.72-3.17a1.41,1.41,0,0,1,1.06-.49,1.38,1.38,0,0,1,1,.48,1.4,1.4,0,0,1,.24,1.45l-1.52,3.69a4,4,0,0,0-.17,2.53c.52,2,.51,2.61-.34,7.31a90.53,90.53,0,0,0-.9,13.88L439,220.79a6.88,6.88,0,0,1-3,1.75,6.81,6.81,0,0,0-3.31,2.06l-1.2,1.36a4.13,4.13,0,0,1-5.56.57l-4.54-3.41c-.14-3.73,5.64-19.22,5.64-19.22A30.78,30.78,0,0,0,429.19,193a4,4,0,0,0-.86-3.16,30.37,30.37,0,0,1-2.92-4.37,1.89,1.89,0,0,1,3.15-2.07l3.61,4.64a36.24,36.24,0,0,1-.94-4.46,1.63,1.63,0,0,1,1.32-1.83l.11,0a1.64,1.64,0,0,1,1.89,1.22C435.15,185.54,436.09,189.21,436.21,189.65Z"/><path class="cls-2" d="M345.36,414.51a82,82,0,0,1,5.07-17.07c.88-2.16,1.78-4.27,2.68-6.32h0a378.59,378.59,0,0,1,20.82-40,101.13,101.13,0,0,0,6.27-13.92,17.11,17.11,0,0,1,4-6.18l.48-.47,14.87-4.64,9.4-2.3a9,9,0,0,0,3-1.34,9.14,9.14,0,0,0,3.65-5.05c.62-2.18.86-3.65,4.86-10.86,4.49-8.08,11.42-39.24,14-51.46L427.38,297c-4.83,27.52-9.74,34.07-18.68,48.9s-7.93,20.49-12.58,40.71-3.11,31.67-6.25,44.25-10.79,39.56-37.95,40.91-33.08-13-33.53-25.62a138.62,138.62,0,0,0-2.08-15.9c.39,0,9.21-.13,16-6,5.34-4.64,12.35-9.41,12.78-9.71Z"/><path class="cls-1" d="M429.19,193A30.78,30.78,0,0,1,427,203.9c1.05-4.26-2.8-7.3-2.8-7.3l-4-2.92a1.8,1.8,0,0,1-.23-2.71,4.14,4.14,0,0,1,5.33-.55Z"/><path class="cls-1" d="M422.91,237.25v5.08a6,6,0,0,1-.53,2.46c-.51,1.13-1.34,3-2.3,5.46l-.23-.09L417.69,249a34.88,34.88,0,0,0,1.55-7.67c.48-5.23.61-9.95.61-9.95l.06,0,1.76,2.3A6.05,6.05,0,0,1,422.91,237.25Z"/><path class="cls-2" d="M419.85,250.16l.23.09c-.91,2.26-1.92,5-2.9,7.89-2.7,8.09-8.43,23.6-13.83,31.69,8.83-24.08,12.62-35,14.34-40.88Z"/><path class="cls-3" d="M345.09,414.51c-.43.3-7.44,5.07-12.78,9.71-6.79,5.9-15.61,6-16,6-3.09-17.86-8.77-43.32-11.45-55.41-3.7-16.7-4.44-25.2-4.44-25.2a113.12,113.12,0,0,1-1.16-11.31h0s6.22,14.79,21.94,16.52C340.91,357,342,336.79,342,336.79v-.07c3.21.08,7.44.12,11.92,0v.11s4.53,7.4,1.08,26.58a138.09,138.09,0,0,0-1.88,27.74h0c-.9,2.05-1.8,4.16-2.68,6.32a82,82,0,0,0-5.07,17.07Z"/><path class="cls-1" d="M292.08,276.36a8.74,8.74,0,0,1-1.52-1.35c-3-5.5,3.4-5.56,3.4-5.56,2.07-1.43,4.24-5.24,3.46-10s-3.6-7.2-2.06-11.86c.78-2.35,3.56-13.13,3.56-13.13l1.53,1.25s8.55,4.26,12.11,8.83c2.81,3.6,2.17,5.07,5.59,6l5.79,2.73-3.48,4.27,5.94,9c.88.47,6.78,5.18-3.42,11,0,0-4.33,2.52-4.67,5.52-.55,4.74,0,10,4.84,17.34l5,6.3h0c-2,.22-3.93.51-5.76.85,0,0-21.9-7.28-22.85,6.24a33.09,33.09,0,0,0-7.35-21.05c2.57-1,2.64-3.89.69-8-2.41-5.48-.89-8.29-.89-8.29Zm20.76-22.25c.54-.39.27-1.71-.61-3s-2.05-2-2.59-1.59-.27,1.72.61,3S312.29,254.49,312.84,254.11Z"/><path d="M312.23,251.14c.88,1.26,1.15,2.58.61,3s-1.7-.33-2.59-1.59-1.16-2.58-.61-3S311.34,249.88,312.23,251.14Z"/><path class="cls-4" d="M292.19,292.74c-1.51.61-3.89.57-7.23-.25-9-2.21-15.59-12.08-15.59-12.08a29.73,29.73,0,0,1-5.75-17.16,21.32,21.32,0,0,1,.47-5c.3-1,.61-1.89,1-2.77,5.82-15.31,17.52-19.1,32.7-21.91l1.17,1s-2.78,10.78-3.56,13.13c-1.54,4.66,1.28,7.14,2.06,11.86S296,268,294,269.45c0,0-6.43.06-3.4,5.56a8.74,8.74,0,0,0,1.52,1.35l-.09.13s-1.52,2.81.89,8.29C294.83,288.85,294.76,291.72,292.19,292.74Z"/><path class="cls-4" d="M264.37,255.2l.68.25c-.35.88-.66,1.81-1,2.77a21.32,21.32,0,0,0-.47,5h-.11c-1.11,9.5-9.84,8.38-12.55,5.71-3.8-3.73-5-13.75,2.57-16.67S264.37,255.2,264.37,255.2Z"/><path class="cls-5" d="M292.17,292.71l0,0a33.09,33.09,0,0,1,7.35,21.05c.17,6.8-.8,14.38-.28,24.54a113.12,113.12,0,0,0,1.16,11.31s.74,8.5,4.44,25.2c2.68,12.09,8.36,37.55,11.45,55.41a138.62,138.62,0,0,1,2.08,15.9c.45,12.58,6.38,27,33.53,25.62s34.8-28.32,37.95-40.91,1.61-24,6.25-44.25,3.64-25.87,12.58-40.71,13.85-21.38,18.68-48.9l7.07-42.11"/><path class="cls-5" d="M294,269.45s-6.43.06-3.4,5.56a8.74,8.74,0,0,0,1.52,1.35,8.56,8.56,0,0,0,7.91,1.33s3.06-1.58-.7-3.5"/><path class="cls-5" d="M304.86,279.92s4.11,4,8.65,1.64"/><path class="cls-5" d="M298.92,234.49s-2.78,10.78-3.56,13.13c-1.54,4.66,1.28,7.14,2.06,11.86S296,268,294,269.45"/><path class="cls-5" d="M264.37,255.2s-3.31-5.84-10.84-2.91S247.16,265.23,251,269c2.71,2.67,11.44,3.79,12.55-5.71"/><path class="cls-5" d="M292,276.49s-1.52,2.81.89,8.29c1.95,4.07,1.88,6.94-.69,8-1.51.61-3.89.57-7.23-.25-9-2.21-15.59-12.08-15.59-12.08"/><path class="cls-5" d="M269.37,280.41a29.73,29.73,0,0,1-5.75-17.16,21.32,21.32,0,0,1,.47-5c.3-1,.61-1.89,1-2.77,5.82-15.31,17.52-19.1,32.7-21.91l1.17,1,1.53,1.25s8.55,4.26,12.11,8.83c2.81,3.6,2.17,5.07,5.59,6l5.79,2.73-3.48,4.27,5.94,9c.88.47,6.78,5.18-3.42,11,0,0-4.33,2.52-4.67,5.52-.55,4.74,0,10,4.84,17.34l5,6.3"/><path class="cls-5" d="M436.63,249.33a17.54,17.54,0,0,1,2.33-3.18l6.42-7,3.93-4.79,1.15-1.4a4.68,4.68,0,0,0,.69-1.16l1.12-2.77a2.32,2.32,0,0,0-.22-2.18l-1.16-1.71"/><path class="cls-5" d="M336.15,336.47s2.3.15,5.84.25c3.21.08,7.44.12,11.92,0,6.62-.22,13.77-.88,18.88-2.46l11.87-3.68,14.87-4.64,9.4-2.3a9,9,0,0,0,3-1.34,9.14,9.14,0,0,0,3.65-5.05c.62-2.18.86-3.65,4.86-10.86,4.49-8.08,11.42-39.24,14-51.46a18.71,18.71,0,0,1,2.15-5.53"/><path class="cls-6" d="M445.83,227.46l2.35-3.61a2.71,2.71,0,0,0,.42-1.43v-2.26a3.08,3.08,0,0,0-1.25-2.47l-.8-.58"/><path class="cls-5" d="M310.85,310.39a96,96,0,0,1,11.54-2.84c1.83-.34,3.77-.63,5.76-.85a56.37,56.37,0,0,1,6.09-.35c11.13,0,15.51,3,23.6,2s26.3-3.37,35.4-2c0,0,4.72-8.43,10.11-16.52s11.13-23.6,13.83-31.69c1-2.93,2-5.63,2.9-7.89,1-2.42,1.79-4.33,2.3-5.46a6,6,0,0,0,.53-2.46v-5.08a6.05,6.05,0,0,0-1.24-3.66l-1.76-2.3-1-1.33a5,5,0,0,1-.6-1l-2.31-5.4a2.4,2.4,0,0,1,.14-2.18,2.41,2.41,0,0,1,4.27.27l.24.54a2.46,2.46,0,0,0,.76,1l4.54,3.41a4.13,4.13,0,0,0,5.56-.57l1.2-1.36a6.81,6.81,0,0,1,3.31-2.06,6.88,6.88,0,0,0,3-1.75l2.88-2.88a1.92,1.92,0,0,0,.56-1.36v-1a1.93,1.93,0,0,1,3.84-.26l.25,1.83a5,5,0,0,1-.64,3.12l-3.11,5.37"/><path class="cls-6" d="M448.6,230.66l1.81-3.52a4.5,4.5,0,0,0,.48-2v-1.49a2.21,2.21,0,0,0-1.22-2l-1.07-.53"/><path class="cls-5" d="M419.85,231.33s-.13,4.72-.61,9.95a34.88,34.88,0,0,1-1.55,7.67c-1.72,5.9-5.51,16.8-14.34,40.88"/><path class="cls-5" d="M436.22,189.7s0,0,0,0c-.12-.44-1.06-4.11-1.66-6.66a1.64,1.64,0,0,0-1.89-1.22l-.11,0a1.63,1.63,0,0,0-1.32,1.83,36.24,36.24,0,0,0,.94,4.46l-3.61-4.64a1.89,1.89,0,0,0-3.15,2.07,30.37,30.37,0,0,0,2.92,4.37,4,4,0,0,1,.86,3.16l-3.81-2.62a4.14,4.14,0,0,0-5.33.55,1.8,1.8,0,0,0,.23,2.71l4,2.92s3.85,3,2.8,7.3c0,0-5.78,15.49-5.64,19.22"/><path class="cls-5" d="M441.9,217.91a90.53,90.53,0,0,1,.9-13.88c.85-4.7.86-5.31.34-7.31a4,4,0,0,1,.17-2.53l1.52-3.69a1.4,1.4,0,0,0-.24-1.45,1.38,1.38,0,0,0-1-.48,1.41,1.41,0,0,0-1.06.49l-2.72,3.17s-.11-3.82-.06-6.6a1.63,1.63,0,0,0-3.2-.46,11.09,11.09,0,0,0-.29,4.48"/><path class="cls-5" d="M429.19,193A30.78,30.78,0,0,1,427,203.9"/><path class="cls-5" d="M353.91,336.79s4.53,7.4,1.08,26.58a138.09,138.09,0,0,0-1.88,27.74"/><path class="cls-5" d="M436.59,249.37h0l0,0a27.9,27.9,0,0,1,9.49-4.79,7.56,7.56,0,0,0,1.28-.5,6.38,6.38,0,0,0,1.91-9.68"/><line class="cls-5" x1="417.69" y1="248.95" x2="419.85" y2="250.16"/><path class="cls-5" d="M345,428.44s-1.19-4.86.38-13.93a82,82,0,0,1,5.07-17.07c.88-2.16,1.78-4.27,2.68-6.32h0a378.59,378.59,0,0,1,20.82-40,101.13,101.13,0,0,0,6.27-13.92,17.11,17.11,0,0,1,4-6.18l.48-.47"/><path class="cls-5" d="M316.3,430.25h0c.39,0,9.21-.13,16-6,5.34-4.64,12.35-9.41,12.78-9.71h0"/><path class="cls-5" d="M342,336.79s-1.08,20.24-20.78,18.06c-15.72-1.73-21.94-16.52-21.94-16.52"/><path class="cls-5" d="M322.39,307.55s-21.9-7.28-22.85,6.24v0"/></svg>