<svg id="Layer_1" data-name="Layer 1" xmlns="http://www.w3.org/2000/svg" viewBox="0 0 700 700"><defs><style>.cls-1{fill:#feae63;}.cls-2{fill:#99abcc;}.cls-3{fill:#c4e7f9;}.cls-4{fill:#392328;}.cls-5{fill:none;stroke:#000;stroke-linecap:round;stroke-linejoin:round;stroke-width:2.3px;}</style></defs><title>Yoga_poses_2020_color</title><path class="cls-1" d="M510.93,246.31c9.77,5.86,12.81,13.25,11.29,18.46s-.52,17.07-.08,20.55,9.86,16.07-7.95,18.24c-4.64.56-9.51,3-14.57,6.66-.94-11.17-11.21-15.16-11.21-15.16,5.65-4.66,9.94-8.82,11-11.05,2.6-5.43,4.78-14.25,8.25-22.93,2.46-6.16-1.07-10.57-3.34-12.62a2.58,2.58,0,0,1-.53-3.22h0a2.56,2.56,0,0,1,3.47-.95Z"/><path class="cls-2" d="M331.47,396.57a146.22,146.22,0,0,1,17.65-12.27c16-9.28,45.94-32.09,45.94-32.09h23.71a11,11,0,0,0,2.07-.2l18.72-3.71a1.79,1.79,0,0,0,1.43-1.75v-1.83l0-.24,5.12-.67a2,2,0,0,0,1.75-2l-.06-.75,1.52-.12a1.79,1.79,0,0,0,1.64-1.78v-.32a1.78,1.78,0,0,0-1.78-1.78l-3,.05h0a1.78,1.78,0,0,0,0-3.55l-16-.88,0-.57s17.31-10.31,31.21-18.13a207.44,207.44,0,0,0,27-18.91s10.27,4,11.21,15.16h0c-14.37,10.27-30.24,29.75-46.47,40.68-21.93,14.77-32.57,9.77-49.3,32.58s-9.34,10-33.23,41.92-29.75,26.71-49.74,27.15-23.24-5.65-26.28-11.73c-1.66-3.32-5.72-8.73-9.88-14,0,0,17.49-30.61,40.95-36.55,3,3.43,5.37,5.79,5.37,5.79Z"/><path class="cls-1" d="M261,360.72l0,.32c-2.61,4.49-14.71,10.43-14.71,10.43-5.86-6.48-11.88-12.53-15-21-4.05-10.8-5.47-11.91-3.35-20.79l.09,0s7.22-10,25.63-3.41h0a48.14,48.14,0,0,1,21.7,5.51,33.1,33.1,0,0,0,3.57,1.63,83.05,83.05,0,0,0,18.21,4.31c13.8,1.91,28.93,1.87,35.78.46,11.08-2.28,40,2.15,52.34,1,12.18-1.11,13.43-1.88,24.82-9.75a3,3,0,0,1,1.28-.51c2.48-.38,11.14-1.77,15.64-3.53a1.94,1.94,0,0,1,.66-.13,1.83,1.83,0,0,1,.92,3.39l-5.74,3.44v.13l7.39.41,16,.88a1.78,1.78,0,0,1,0,3.55h0l3-.05a1.78,1.78,0,0,1,1.78,1.78v.32a1.79,1.79,0,0,1-1.64,1.78l-1.52.12.06.75a2,2,0,0,1-1.75,2l-5.12.67,0,.24v1.83a1.79,1.79,0,0,1-1.43,1.75L420.84,352a11,11,0,0,1-2.07.2h-26c-47.23,8.15-63.52,7.82-63.52,7.82a123.21,123.21,0,0,0-23.77-1.4c-4.86.17-10.15.61-16,1.4C279.61,361.36,268.5,361.14,261,360.72Z"/><path class="cls-3" d="M314.1,373.88c2.41,5.38,7.57,11.81,11.57,16.36-23.46,5.94-40.95,36.55-40.95,36.55-3.45-4.41-7-8.76-9.23-11.81-5-6.73-14.55-23.89-21.94-34.53a89.69,89.69,0,0,0-7.32-9s12.1-5.94,14.71-10.43l0-.32c7.54.42,18.65.64,28.54-.69,5.83-.79,11.12-1.23,16-1.4h0A85.77,85.77,0,0,1,314.1,373.88Z"/><path class="cls-3" d="M297.11,337.33l-.06.41a83.05,83.05,0,0,1-18.21-4.31h0s4.77,1,5.88-2.72l.22-.44C290.64,333.07,295.4,335.67,297.11,337.33Z"/><path class="cls-1" d="M253,310.48l2.69,6a1.61,1.61,0,0,0,.82.9c3.31,1.55,17.57,7.58,28.4,12.89l-.22.44c-1.11,3.72-5.88,2.72-5.88,2.72h0a33.1,33.1,0,0,1-3.57-1.63,48.14,48.14,0,0,0-21.7-5.51h0c-18.41-6.57-25.63,3.41-25.63,3.41l-.09,0c.26-1.12.58-2.35,1-3.75C233,310.29,226,295.54,226,295.54h0a6.21,6.21,0,0,0,4.29.34c3.94-1.56,3.11-6.82,3.11-6.82.2-3.57,1.19-4.39,1.19-4.39l.13-.06a8.13,8.13,0,0,1-.69-1.79c-.18-5.88,5.2-3.18,5.2-3.18,2.34-.3,5.77-2.55,7.14-6.82s.08-7.53,3.36-10.76c1.65-1.63,8.58-9.41,8.58-9.41l.74,1.69s5.3,7.2,6.31,12.53c.8,4.2-.36,5.15,2.1,7.36l3.66,4.75L266.4,281l1.1,10c.53.77,3.44,7.21-7.54,7.67,0,0-5.3-1-6.1,3.74Zm8.5-35.56c.61-.08,1-1.31.75-2.73s-.86-2.51-1.47-2.43-1,1.31-.76,2.74S260.91,275,261.53,274.92Z"/><path d="M262.28,272.19c.2,1.42-.14,2.65-.75,2.73s-1.28-1-1.48-2.42.14-2.65.76-2.74S262.09,270.76,262.28,272.19Z"/><path class="cls-4" d="M257.75,251.34l.57,1.3s-6.93,7.78-8.58,9.41c-3.28,3.23-2,6.49-3.36,10.76s-4.8,6.52-7.14,6.82c0,0-5.38-2.7-5.2,3.18a8.13,8.13,0,0,0,.69,1.79l-.13.06s-1,.82-1.19,4.39c0,0,.83,5.26-3.11,6.82a6.21,6.21,0,0,1-4.29-.34,8.68,8.68,0,0,1-2.87-1.84,34.43,34.43,0,0,1-9.06-15.44,25.88,25.88,0,0,1,3.38-17l0,0a23.34,23.34,0,0,1,3.17-4.34c.41-.42.82-.83,1.23-1.22C233.45,244.68,243.61,247.1,257.75,251.34Z"/><path class="cls-4" d="M221.64,254.87l.25.78c-.41.39-.82.8-1.23,1.22a23.34,23.34,0,0,0-3.17,4.34l0,0c-5,7.37-11.75,2.72-12.87-.65-1.57-4.73,1.75-13.57,9.27-12.79S221.64,254.87,221.64,254.87Z"/><path class="cls-5" d="M239.24,279.63s-5.38-2.7-5.2,3.18a8.13,8.13,0,0,0,.69,1.79,8,8,0,0,0,6,4.47s3.23,0,.92-3.21"/><path class="cls-5" d="M243.85,293s1.72,5.07,6.5,5.07"/><path class="cls-5" d="M258.32,252.64s-6.93,7.78-8.58,9.41c-3.28,3.23-2,6.49-3.36,10.76s-4.8,6.52-7.14,6.82"/><path class="cls-5" d="M221.64,254.87s-.26-6.28-7.78-7.06-10.84,8.06-9.27,12.79c1.12,3.37,7.88,8,12.87.65"/><path class="cls-5" d="M234.6,284.66s-1,.82-1.19,4.39c0,0,.83,5.26-3.11,6.82a6.21,6.21,0,0,1-4.29-.34,8.68,8.68,0,0,1-2.87-1.84,34.43,34.43,0,0,1-9.06-15.44,25.88,25.88,0,0,1,3.38-17l0,0a23.34,23.34,0,0,1,3.17-4.34c.41-.42.82-.83,1.23-1.22,11.56-11,21.72-8.55,35.86-4.31l.57,1.3.74,1.69s5.3,7.2,6.31,12.53c.8,4.2-.36,5.15,2.1,7.36l3.66,4.75L266.4,281l1.1,10c.53.77,3.44,7.21-7.54,7.67,0,0-5.3-1-6.1,3.74l-.83,8v0"/><path class="cls-5" d="M249.35,302.26l3.68,8.22,2.69,6a1.61,1.61,0,0,0,.82.9c3.31,1.55,17.57,7.58,28.4,12.89,5.7,2.81,10.46,5.41,12.17,7.07"/><path class="cls-5" d="M499.62,310.22c5.06-3.62,9.93-6.1,14.57-6.66,17.81-2.17,8.38-14.77,7.95-18.24s-1.44-15.34.08-20.55-1.52-12.6-11.29-18.46l-3.66-2a2.56,2.56,0,0,0-3.47.95h0a2.58,2.58,0,0,0,.53,3.22c2.27,2,5.8,6.46,3.34,12.62-3.47,8.68-5.65,17.5-8.25,22.93-1.07,2.23-5.36,6.39-11,11.05a207.44,207.44,0,0,1-27,18.91c-13.9,7.82-31.21,18.13-31.21,18.13"/><path class="cls-5" d="M226,295.54s7,14.75,2.78,30.39c-.38,1.4-.7,2.63-1,3.75-2.12,8.88-.7,10,3.35,20.79,3.17,8.47,9.19,14.52,15,21a89.69,89.69,0,0,1,7.32,9c7.39,10.64,16.94,27.8,21.94,34.53,2.27,3,5.78,7.4,9.23,11.81,4.16,5.31,8.22,10.72,9.88,14,3,6.08,6.3,12.16,26.28,11.73s25.85,4.77,49.74-27.15,16.51-19.12,33.23-41.92,27.37-17.81,49.3-32.58c16.23-10.93,32.1-30.41,46.47-40.68"/><path class="cls-5" d="M252,360s3.55.39,8.93.69c7.54.42,18.65.64,28.54-.69,5.83-.79,11.12-1.23,16-1.4a123.21,123.21,0,0,1,23.77,1.4s16.29.33,63.52-7.82h26a11,11,0,0,0,2.07-.2l18.72-3.71a1.79,1.79,0,0,0,1.43-1.75v-1.83"/><path class="cls-5" d="M425.35,346.51l15.61-2,5.12-.67a2,2,0,0,0,1.75-2"/><path class="cls-5" d="M427.63,342.6l20.14-1.54,1.52-.12a1.79,1.79,0,0,0,1.64-1.78v-.32a1.78,1.78,0,0,0-1.78-1.78l-3,.05h-.47"/><path class="cls-5" d="M427.63,337.55l18.47-.45a1.78,1.78,0,0,0,0-3.55l-16-.88-7.39-.41-2.52-.14a11.71,11.71,0,0,0-3.68.38l-2.26.6"/><path class="cls-5" d="M253.55,326.29a39.58,39.58,0,0,0-6.08.29"/><path class="cls-5" d="M422.75,332.13l5.74-3.44a1.83,1.83,0,0,0-.92-3.39,1.94,1.94,0,0,0-.66.13c-4.5,1.76-13.16,3.15-15.64,3.53a3,3,0,0,0-1.28.51c-11.39,7.87-12.64,8.64-24.82,9.75-12.38,1.13-41.26-3.3-52.34-1-6.85,1.41-22,1.45-35.78-.46a83.05,83.05,0,0,1-18.21-4.31,33.1,33.1,0,0,1-3.57-1.63,48.14,48.14,0,0,0-21.7-5.51"/><path class="cls-5" d="M305.48,358.64a85.77,85.77,0,0,1,8.62,15.24c2.41,5.38,7.57,11.81,11.57,16.36,3,3.43,5.37,5.79,5.37,5.79"/><path class="cls-5" d="M320,406.62s4.54-4.48,11.51-10.05a146.22,146.22,0,0,1,17.65-12.27c16-9.28,45.94-32.09,45.94-32.09"/><path class="cls-5" d="M284.72,426.79s17.49-30.61,40.95-36.55"/><path class="cls-5" d="M246.23,371.47s12.1-5.94,14.71-10.43"/><path class="cls-5" d="M278.84,333.42s4.77,1,5.88-2.72"/><path class="cls-5" d="M227.92,329.7s7.22-10,25.63-3.41h0"/><path class="cls-5" d="M488.41,295.06s10.27,4,11.21,15.16h0"/><line class="cls-5" x1="256.54" y1="317.37" x2="247.1" y2="319.79"/></svg>