<svg id="Layer_1" data-name="Layer 1" xmlns="http://www.w3.org/2000/svg" viewBox="0 0 700 700"><defs><style>.cls-1{fill:#feae63;}.cls-2{fill:#99abcc;}.cls-3{fill:#c4e7f9;}.cls-4{fill:#170607;}.cls-5{fill:none;stroke:#000;stroke-linecap:round;stroke-linejoin:round;stroke-width:2.3px;}</style></defs><title>Yoga_poses_2020_color</title><path class="cls-1" d="M334.15,269.79l-.22,0c.72,3.64-.87,2.3-.87,2.3-2.6-3-2.51-8-2.51-8,.44-3.22,1.56-2.47,2.3-1.54l.47-.05.69,6.1C334,268.94,334.08,269.34,334.15,269.79Z"/><path class="cls-2" d="M391,438.87a58.29,58.29,0,0,1,8.4-2.74c12.59-3,21.14.38,28.51,5.23,8.9,5.86,9.12,13.9,7.6,17.38s-5.1,12.65-11.08,14.11C419.82,474,410.13,475,402.09,475c-6.47,0-28.2-10.45-40.36-16-2.93-1.33-5.3-2.37-6.77-2.92s-2.76-1.08-4.16-1.7c-5.52-11.09,4.95-16.14,4.95-16.14l2.9.46c6.52,1.09,20.5-3,28-1.08,1.65.43,3.11.82,4.42,1.2Z"/><path class="cls-1" d="M390.69,349c-1.33-8.22-6.19-15.6-6.19-15.6a102.66,102.66,0,0,1,0-15.22,113.26,113.26,0,0,1,3-15.28c2,.52,3.73,1,4.8,1.4,4.13,1.52,14.12,6.52,14.33,16.51s-.21,15.91-4.34,24.46-9.7,20-12.74,23.47c.54-4.83,1.32-9.41,1.45-15.35A23.91,23.91,0,0,0,390.69,349Z"/><path class="cls-1" d="M395.65,429.37a1.47,1.47,0,0,0,2.49,0h5.09a2.72,2.72,0,0,1,2.72,2.55c0,.1,0,.2,0,.3,0,1.28-.57,2.09-2.44,2.57l-4.09,1.34a58.29,58.29,0,0,0-8.4,2.74h0c-1.31-.38-2.77-.77-4.42-1.2-7.45-2-21.43,2.17-28,1.08l-2.9-.46c-1.67-.26-3.37-.5-4.95-.73l4.12-1.74a5.69,5.69,0,0,1,2.91-.42l7.54.86a5.74,5.74,0,0,0,2.33-.21c3-.91,11.64-4.9,15.17-9.3V428a1.23,1.23,0,0,0,1,1.21l.19,0a1.23,1.23,0,0,0,1.21-1.07l.43-3.33a3.45,3.45,0,0,1,.95-1.9,8.26,8.26,0,0,1,5-.39l.61,1.41a4.42,4.42,0,0,0,.32.61Z"/><path class="cls-1" d="M402,425.21a2.18,2.18,0,0,1-1.82,2.13l-.38,0a2.21,2.21,0,0,1-2.1-1.56l.65,2.37a1.31,1.31,0,0,1,.05.39,1.47,1.47,0,0,1-.23.8h0a1.47,1.47,0,0,1-2.49,0l-3-4.77a4.42,4.42,0,0,1-.32-.61l-.61-1.41-.74-1.69a1.16,1.16,0,0,0-1.88-.35L386.69,423a3.45,3.45,0,0,0-.95,1.9l-.43,3.33a1.23,1.23,0,0,1-1.21,1.07l-.19,0a1.23,1.23,0,0,1-1-1.21v-4.49a3.52,3.52,0,0,1,.72-2.14l4.17-5.46a15.12,15.12,0,0,0,.81-3.46,115.1,115.1,0,0,0,.74-13.66l5.61,3.07a4.51,4.51,0,0,1,1.29,1.05l1.88,2.22a4.71,4.71,0,0,0,.73.68l3.35,2.54a4.55,4.55,0,0,1,1.23,1.42l.94,1.7a5.08,5.08,0,0,1,.64,2.21l.32,5.43v6a1.54,1.54,0,0,1-1.29,1.52l-.23,0A1.55,1.55,0,0,1,402,425.21Z"/><path class="cls-3" d="M319.74,388.72a107.77,107.77,0,0,0,.46-16.88c-.06-1-.13-1.86-.21-2.59-.69-6.07-3.69-6.73-3.69-16.72s9.53-17.38,9.53-17.38,30,12.82,58.67-1.74c0,0,4.86,7.38,6.19,15.6a23.91,23.91,0,0,1,.33,4.39c-.13,5.94-.91,10.52-1.45,15.35a71.54,71.54,0,0,0-.51,10.06c.11,4.74.33,12.63.25,20a115.1,115.1,0,0,1-.74,13.66c-44.23,11.85-70.68-.88-70.68-.88l-.2-8.46a22.38,22.38,0,0,1,.61-5.94A64.42,64.42,0,0,0,319.74,388.72Z"/><path class="cls-2" d="M388.57,412.49a15.12,15.12,0,0,1-.81,3.46l-4.17,5.46a3.52,3.52,0,0,0-.72,2.14v3.2c-3.53,4.4-12.15,8.39-15.17,9.3a5.74,5.74,0,0,1-2.33.21l-7.54-.86a5.69,5.69,0,0,0-2.91.42l-4.12,1.74-4.73-.64s2.53-7.51-4.61-10.76-10.42.34-13.86.87a23.55,23.55,0,0,1-15.46-4,6.11,6.11,0,0,1-1.45-1.42l-.95-1.28s4.21-5.7,3.85-7.87l1,6.1.61,2.7a1.36,1.36,0,0,0,2.69-.3v-9.38S344.34,424.34,388.57,412.49Z"/><path class="cls-1" d="M387.52,302.91a113.26,113.26,0,0,0-3,15.28,102.66,102.66,0,0,0,0,15.22c-28.67,14.56-58.67,1.74-58.67,1.74-2.6-6.41-3.59-22.71-3.62-23.19,7.41-2.14,14.52-6.77,16.3-8.9,3.72-4.46,3-8.27,2.72-14.61l.59-.19c2.61,2.07,6.7,3.8,13.07,3.68,0,0,6.65,0,11.43-3.61l.21.28c-.24,6.34,1.68,10.28,7.36,11.14C373.89,299.75,381.77,301.43,387.52,302.91Z"/><path class="cls-1" d="M377.14,264s.31,5-2.16,8.12c0,0-1.53,1.41-1-2.26l-.32-.05c.05-.32.08-.63.11-.93l.36-5.89.33,0C375.12,262,376.48,260.31,377.14,264Z"/><path class="cls-4" d="M333.11,260.66c-.1.69-.12,1.1-.12,1.1s-5.19-15.66,3.83-23.69a21.11,21.11,0,0,1,6.87-4.09c8-3,16.51-1.17,19.4-.39.66.18,1,.3,1,.3,18.37,7.37,10.33,27.24,10.33,27.24a5.68,5.68,0,0,0-.12-.78,43.9,43.9,0,0,0-2.12-6.65c-3.78-9.81-17.33-9.83-17.33-9.83C336.88,244,333.66,256.79,333.11,260.66Z"/><path class="cls-1" d="M374.33,260.35l-.17,2.66-.36,5.89c0,.3-.06.61-.11.93-.56,4-2.37,9.09-2.91,11.59a11.38,11.38,0,0,1-4.46,6.91c-4.78,3.6-11.43,3.61-11.43,3.61-6.37.12-10.46-1.61-13.07-3.68a12.31,12.31,0,0,1-4.41-6.54c-.83-3.06-2.72-8.79-3.26-11.93-.07-.45-.12-.85-.14-1.18l-.69-6.1-.21-1.85c.55-3.87,3.77-16.66,21.77-16.79,0,0,13.55,0,17.33,9.83A43.9,43.9,0,0,1,374.33,260.35Zm-11.24,6.21a2.32,2.32,0,1,0-2-2.28A2.16,2.16,0,0,0,363.09,266.56ZM345,266.31a2.32,2.32,0,1,0-2-2.28A2.15,2.15,0,0,0,345,266.31Z"/><path d="M365.06,264.25a2,2,0,1,1-2-2.28A2.16,2.16,0,0,1,365.06,264.25Z"/><path class="cls-4" d="M364.22,233.57l-1.13,0c-2.89-.78-11.4-2.6-19.4.39l-.16-.41c0-5.35,4.63-9.7,10.34-9.7S364.22,228.22,364.22,233.57Z"/><path class="cls-2" d="M324.09,441.83a73.51,73.51,0,0,0,8.94,4.31c4.63,1.78,11.32,5.47,17.77,8.29,1.4.62,2.8,1.2,4.16,1.7s3.84,1.59,6.77,2.92c0,0-21,5.33-27.68,8.37A88.3,88.3,0,0,1,301.1,475c-14.34.43-27.15,0-31.06-6.74s-8.25-14.55,0-22.15c6-5.56,13.59-10.14,23.41-11.32a45,45,0,0,1,11.77.18,48.55,48.55,0,0,1,15.84,5.06S322.26,440.8,324.09,441.83Z"/><path class="cls-1" d="M324.09,441.83c-1.83-1-3-1.77-3-1.77A48.55,48.55,0,0,0,305.22,435a45,45,0,0,0-11.77-.18l0-.3-2-.83a1.38,1.38,0,0,1-.86-1.28,1.34,1.34,0,0,1,0-.2,1.39,1.39,0,0,1,1.76-1.15l-1.54-.43a2.06,2.06,0,0,1-1.5-2,2,2,0,0,1,.06-.48,2,2,0,0,1,2-1.58h3.37L290,424.51a2,2,0,0,1-1.19-1.82,2.07,2.07,0,0,1,0-.35,2,2,0,0,1,2.47-1.59l1.64.42a3.54,3.54,0,0,1,.76.3l2,1.1a3.29,3.29,0,0,0,4.43-1.2l.06-.1a1.65,1.65,0,0,0,2.31-.1l3.34-3.57.24.23,1.13.53a6.64,6.64,0,0,1,2.46,2l.95,1.28a6.11,6.11,0,0,0,1.45,1.42,23.55,23.55,0,0,0,15.46,4c3.44-.53,6.73-4.13,13.86-.87s4.61,10.76,4.61,10.76l4.73.64c1.58.23,3.28.47,4.95.73,0,0-10.47,5-4.95,16.14-6.45-2.82-13.14-6.51-17.77-8.29A73.51,73.51,0,0,1,324.09,441.83Z"/><path d="M346.94,264a2,2,0,1,1-2-2.28A2.15,2.15,0,0,1,346.94,264Z"/><path class="cls-1" d="M316.3,352.53c0,10,3,10.65,3.69,16.72.08.73.15,1.6.21,2.59l-11.47-23.91c-8.78-18.25-4.94-25.09-4.94-25.09,3-6.62,14.92-10.08,14.92-10.08a31.51,31.51,0,0,0,3.5-.8c0,.48,1,16.78,3.62,23.19C325.83,335.15,316.3,342.54,316.3,352.53Z"/><path class="cls-1" d="M300,419.08l-.25.34a1.85,1.85,0,0,1-1.52.79h-.14a1.88,1.88,0,0,1-1.72-2.08l.16-1.29,1-2.54a1.49,1.49,0,0,1-1.37.89,1.55,1.55,0,0,1-.66-.15,1.49,1.49,0,0,1-.75-1.84l1.39-3.89,3.47-5.45a19.09,19.09,0,0,1,5.9-5.9,14.27,14.27,0,0,0,1.19-.85l3.21-2.58a14.2,14.2,0,0,1,1.73-1.17l8.08-4.63a64.42,64.42,0,0,1-1.44,8.49,22.38,22.38,0,0,0-.61,5.94l.2,8.46V421a1.36,1.36,0,0,1-2.69.3l-.61-2.7-1-6.1-.35-2.17a.85.85,0,0,0-1.53-.36l-4.57,6.33-1.23,1.31-3.34,3.57a1.65,1.65,0,0,1-2.55-2.09Z"/><path class="cls-5" d="M341.23,288.45c.24,6.34,1,10.15-2.72,14.61-1.78,2.13-8.89,6.76-16.3,8.9a31.51,31.51,0,0,1-3.5.8s-11.89,3.46-14.92,10.08c0,0-3.84,6.84,4.94,25.09l11.47,23.91v0"/><path class="cls-5" d="M366.53,288.61c-.24,6.34,1.68,10.28,7.36,11.14,0,0,7.88,1.68,13.63,3.16,2,.52,3.73,1,4.8,1.4,4.13,1.52,14.12,6.52,14.33,16.51s-.21,15.91-4.34,24.46-9.7,20-12.74,23.47"/><path class="cls-5" d="M343.53,233.57c0-5.35,4.63-9.7,10.34-9.7s10.35,4.35,10.35,9.7"/><path class="cls-5" d="M333.11,260.66c.55-3.87,3.77-16.66,21.77-16.79,0,0,13.55,0,17.33,9.83a43.9,43.9,0,0,1,2.12,6.65,5.68,5.68,0,0,1,.12.78s8-19.87-10.33-27.24c0,0-.37-.12-1-.3-2.89-.78-11.4-2.6-19.4.39a21.11,21.11,0,0,0-6.87,4.09c-9,8-3.83,23.69-3.83,23.69S333,261.35,333.11,260.66Z"/><path class="cls-5" d="M374.49,263c.63-1.06,2-2.72,2.65,1,0,0,.31,5-2.16,8.12,0,0-1.53,1.41-1-2.26"/><path class="cls-5" d="M332.85,262.56c-.74-.93-1.86-1.68-2.3,1.54,0,0-.09,5,2.51,8,0,0,1.59,1.34.87-2.3"/><path class="cls-5" d="M333,259.77l.1.89.21,1.85.69,6.1c0,.33.07.73.14,1.18.54,3.14,2.43,8.87,3.26,11.93a12.31,12.31,0,0,0,4.41,6.54c2.61,2.07,6.7,3.8,13.07,3.68,0,0,6.65,0,11.43-3.61a11.38,11.38,0,0,0,4.46-6.91c.54-2.5,2.35-7.6,2.91-11.59.05-.32.08-.63.11-.93l.36-5.89.17-2.66.07-1.2"/><path class="cls-5" d="M355.58,272a4.32,4.32,0,0,1-4.44-.13"/><polyline class="cls-5" points="348.85 279.38 349.79 279.76 352.75 278.89 353.86 279.57 355.09 278.92 357.74 279.87 358.6 279.64"/><line class="cls-5" x1="352.67" y1="284.31" x2="355.23" y2="284.35"/><path class="cls-5" d="M322.21,312h0c0,.48,1,16.78,3.62,23.19,0,0,30,12.82,58.67-1.74a102.66,102.66,0,0,1,0-15.22,113.26,113.26,0,0,1,3-15.28"/><line class="cls-5" x1="396.88" y1="422.9" x2="394.6" y2="415.73"/><path class="cls-5" d="M398.15,429.37a1.47,1.47,0,0,0,.23-.8,1.31,1.31,0,0,0-.05-.39l-.65-2.37"/><path class="cls-5" d="M384.5,333.41s4.86,7.38,6.19,15.6a23.91,23.91,0,0,1,.33,4.39c-.13,5.94-.91,10.52-1.45,15.35a71.54,71.54,0,0,0-.51,10.06c.11,4.74.33,12.63.25,20a115.1,115.1,0,0,1-.74,13.66,15.12,15.12,0,0,1-.81,3.46l-4.17,5.46a3.52,3.52,0,0,0-.72,2.14V428a1.23,1.23,0,0,0,1,1.21l.19,0a1.23,1.23,0,0,0,1.21-1.07l.43-3.33a3.45,3.45,0,0,1,.95-1.9l2.37-2.43a1.16,1.16,0,0,1,1.88.35l.74,1.69.61,1.41a4.42,4.42,0,0,0,.32.61l3,4.77a1.47,1.47,0,0,0,2.49,0"/><path class="cls-5" d="M392.1,331s1.85,10.38-1.41,18"/><path class="cls-5" d="M313.66,336.77a36,36,0,0,0,2.64,15.76"/><path class="cls-5" d="M391,438.87c4.58,1.3,7.32,2.37,10.19,4.23a24.24,24.24,0,0,0,8.69,3"/><path class="cls-5" d="M343.45,436.58l2.62.34,4.73.64c1.58.23,3.28.47,4.95.73l2.9.46c6.52,1.09,20.5-3,28-1.08,1.65.43,3.11.82,4.42,1.2"/><path class="cls-5" d="M361.73,459.05s-21,5.33-27.68,8.37A88.3,88.3,0,0,1,301.1,475c-14.34.43-27.15,0-31.06-6.74s-8.25-14.55,0-22.15c6-5.56,13.59-10.14,23.41-11.32a45,45,0,0,1,11.77.18,48.55,48.55,0,0,1,15.84,5.06s1.2.74,3,1.77a73.51,73.51,0,0,0,8.94,4.31c4.63,1.78,11.32,5.47,17.77,8.29,1.4.62,2.8,1.2,4.16,1.7s3.84,1.59,6.77,2.92c12.16,5.53,33.89,16,40.36,16,8,0,17.73-1,22.37-2.18,6-1.46,9.56-10.64,11.08-14.11s1.3-11.52-7.6-17.38c-7.37-4.85-15.92-8.21-28.51-5.23a58.29,58.29,0,0,0-8.4,2.74h0"/><path class="cls-5" d="M346.07,436.92s2.53-7.51-4.61-10.76-10.42.34-13.86.87a23.55,23.55,0,0,1-15.46-4,6.11,6.11,0,0,1-1.45-1.42l-.95-1.28a6.64,6.64,0,0,0-2.46-2l-1.13-.53"/><polyline class="cls-5" points="301.58 416.89 303.54 414.14 307.68 407.92"/><path class="cls-5" d="M325.83,335.15s-9.53,7.39-9.53,17.38,3,10.65,3.69,16.72c.08.73.15,1.6.21,2.59a107.77,107.77,0,0,1-.46,16.88,64.42,64.42,0,0,1-1.44,8.49,22.38,22.38,0,0,0-.61,5.94l.2,8.46V421a1.36,1.36,0,0,1-2.69.3l-.61-2.7-1-6.1-.35-2.17a.85.85,0,0,0-1.53-.36l-4.57,6.33-1.23,1.31-3.34,3.57a1.65,1.65,0,0,1-2.55-2.09"/><path class="cls-5" d="M297.55,414.29l-1,2.54-.16,1.29a1.88,1.88,0,0,0,1.72,2.08h.14a1.85,1.85,0,0,0,1.52-.79l.25-.34,1.56-2.19"/><polyline class="cls-5" points="303.92 404.77 298.39 412.14 297.91 413.37"/><path class="cls-5" d="M319.75,388.72h0l-8.08,4.63a14.2,14.2,0,0,0-1.73,1.17l-3.21,2.58a14.27,14.27,0,0,1-1.19.85,19.09,19.09,0,0,0-5.9,5.9l-3.47,5.45-1.39,3.89a1.49,1.49,0,0,0,.75,1.84,1.55,1.55,0,0,0,.66.15,1.49,1.49,0,0,0,1.37-.89l0-.05.34-.87"/><path class="cls-5" d="M300.26,421.27l-.06.1a3.29,3.29,0,0,1-4.43,1.2l-2-1.1a3.54,3.54,0,0,0-.76-.3l-1.64-.42a2,2,0,0,0-2.47,1.59,2.07,2.07,0,0,0,0,.35,2,2,0,0,0,1.19,1.82l4.64,2.08,1.7,1.41"/><line class="cls-5" x1="292.42" y1="431.09" x2="294.68" y2="431.72"/><path class="cls-5" d="M294.68,426.59h-3.37a2,2,0,0,0-2,1.58,2,2,0,0,0-.06.48,2.06,2.06,0,0,0,1.5,2l1.54.43"/><path class="cls-5" d="M292.87,431.21l-.45-.12-.12,0a1.39,1.39,0,0,0-1.76,1.15,1.34,1.34,0,0,0,0,.2,1.38,1.38,0,0,0,.86,1.28l2,.83"/><path class="cls-5" d="M324.11,441.83h0c-.45-.08-8.2-1.3-14.52,1.7-6.52,3.1-9.42,4.56-9.42,4.56"/><path class="cls-5" d="M350.8,437.56l4.12-1.74a5.69,5.69,0,0,1,2.91-.42l7.54.86a5.74,5.74,0,0,0,2.33-.21c3-.91,11.64-4.9,15.17-9.3"/><path class="cls-5" d="M399.81,414.86l1.75,4.19a5.59,5.59,0,0,1,.42,2.14v4a2.18,2.18,0,0,1-1.82,2.13l-.38,0a2.21,2.21,0,0,1-2.1-1.56.08.08,0,0,1,0-.05l-.78-2.86"/><path class="cls-5" d="M402,425.21a1.55,1.55,0,0,0,1.8,1.52l.23,0a1.54,1.54,0,0,0,1.29-1.52v-6l-.32-5.43a5.08,5.08,0,0,0-.64-2.21l-.94-1.7a4.55,4.55,0,0,0-1.23-1.42l-3.35-2.54a4.71,4.71,0,0,1-.73-.68L396.21,403a4.51,4.51,0,0,0-1.29-1.05l-5.61-3.07"/><line class="cls-5" x1="395.65" y1="429.37" x2="392.21" y2="432.67"/><path class="cls-5" d="M386.69,423a8.26,8.26,0,0,1,5-.39"/><path class="cls-5" d="M398.14,429.37h5.09a2.72,2.72,0,0,1,2.72,2.55c0,.1,0,.2,0,.3,0,1.28-.57,2.09-2.44,2.57l-4.09,1.34"/><path class="cls-5" d="M309.74,420.36s4.21-5.7,3.85-7.87"/><path class="cls-5" d="M355.75,438.29s-10.47,5-4.95,16.14"/><path class="cls-5" d="M317.89,411.61s26.45,12.73,70.68.88"/></svg>