<svg id="Layer_1" data-name="Layer 1" xmlns="http://www.w3.org/2000/svg" viewBox="0 0 700 700"><defs><style>.cls-1{fill:#120c0c;}.cls-2{fill:#feae63;}.cls-3{fill:#99abcc;}.cls-4{fill:#c4e7f9;}.cls-5{fill:none;stroke:#000;stroke-linecap:round;stroke-linejoin:round;stroke-width:2.3px;}</style></defs><title>Yoga_poses_2020_color</title><path class="cls-1" d="M525.36,251.69c2.41,4.36,3.81,10.61-2.44,13.94a11.1,11.1,0,0,1-13.06-1.26,10.69,10.69,0,0,1-2.31-2.84c-2.41-4.35,1-9.7,5.9-12.42,2.81-1.55,5.51-1.91,7.76-1.12A7.63,7.63,0,0,1,525.36,251.69Z"/><path class="cls-1" d="M517.05,229.12c3.63,5.42,6.61,12.08,5.71,18.75l-1.55.12c-2.25-.79-5-.43-7.76,1.12-4.92,2.72-8.31,8.07-5.9,12.42a10.69,10.69,0,0,0,2.31,2.84l-.07.08c-18.22,10.82-24.16,6.57-29,4.81L480,269l-.09,0-.52-.16c-7.79-2.55-6.75-6.67-6.75-6.67.08-4.37.66-8.17,4.51-10.28a13.06,13.06,0,0,0,6.33-9.11s5.4-1.95,4.14-4.93c0,0,3.23-1.09,2.22-6.2C488.48,225,495,220.84,495,220.84S509.2,217.39,517.05,229.12Z"/><path class="cls-2" d="M511.05,444.81c.46.81.62,1.8-1,2.12a10.15,10.15,0,0,1-5.36-.44h-.08a4.67,4.67,0,0,1-.21,1.1,8.93,8.93,0,0,1-6-.66l0,0,.57.63a.84.84,0,0,1-.44,1.37,9,9,0,0,1-4.61-.44c-6.93,1.57-21.55-1.37-28.75-1.37s-12.77.72-15.71-4.19c-2.37-3.94,1.41-10.25,1.44-24.49h.2s9.76,6,20.34-2.31l.2,0a28.69,28.69,0,0,0,2.91,9.65,8.09,8.09,0,0,0,2.59,2.8l2.94,1.95a23.6,23.6,0,0,0,4.26,2.07l11.76,3.87s10.21,2.91,14.1,3.14c1.1.07,1.93.11,2.54.13a1.42,1.42,0,0,1,1.36,1.54c-.13,1.49-.67,3.54-2.69,3.35Z"/><path class="cls-2" d="M464.81,269.19c-.87,3.3-1.81,7.54-1.69,10.05s.69,5.19.88,8.52l-.33,0H442.92c-16.94-15-15.85-48-15.85-48,7.39-4.94,18-7.72,18-7.72a38.54,38.54,0,0,1,3,3.42,22.42,22.42,0,0,0,5.75,4.61l1.6-.31a4.93,4.93,0,0,1,2.15-5.58,78,78,0,0,0,7.52-5.13c3.19-2.63,10-5,13.08-4.78l6.15-3a15.18,15.18,0,0,1,9.64-.65l1,.26s-6.5,4.16-5.19,10.75c1,5.11-2.22,6.2-2.22,6.2,1.26,3-4.14,4.93-4.14,4.93a13.06,13.06,0,0,1-6.33,9.11c-3.85,2.11-4.43,5.91-4.51,10.28,0,0-1,4.12,6.75,6.67-8.43-2.52-14.26.48-14.26.48Z"/><path class="cls-3" d="M387.14,300.6c11.41-.91,26.28-.51,39.48.43,12.37.88,23.27,2.23,28.45,3.43a38.84,38.84,0,0,1,6.11,1.89h0c8.19,3.36,10.89,8.88,10.89,17.1,0,10,.65,23.32.65,33.32s-2.53,22.89-1.72,52.05a61.23,61.23,0,0,0,.61,7.29l-.2,0c-10.58,8.32-20.34,2.31-20.34,2.31h-.2a90.74,90.74,0,0,0-.8-12c-2-15-6-25-8-42a38.25,38.25,0,0,1,2.9-20.22,2,2,0,0,0,.1-.21,27.55,27.55,0,0,1,4-6.57,44.45,44.45,0,0,0-26,3s-2-2-8-5-16-4-23-8c-5.83-3.33-13.75-8.06-16.23-9.54a2.76,2.76,0,0,1-1.12-1.29l-6.82-16.19a6.6,6.6,0,0,0-2.66-3.08l-5.52-3.31.35-.59s5.14-8.74,9.53-15.9c0,0,14.25,4.5,17.5,22.53Z"/><path class="cls-2" d="M464,287.76a33.39,33.39,0,0,1-.89,10.16l-1.93,8.43a38.84,38.84,0,0,0-6.11-1.89c-5.18-1.2-16.08-2.55-28.45-3.43,4.59-10.92,16.3-13.25,16.3-13.25h20.75Z"/><path class="cls-2" d="M449.07,337.46a27.55,27.55,0,0,0-4,6.57,2,2,0,0,1-.1.21c-3.88,8.56-12.05,13.25-14.62,14.55a9,9,0,0,0-1.61,1.06l-1.21,1a8.87,8.87,0,0,1-7,1.94l-.3-.05c-5.32-.54-5.87-1.08-11.73-4.56-3.68-2.17-10.16-5.67-15.69-9a72.86,72.86,0,0,1-8.09-5.36c-4-3.31-14-10.23-17.42-12.57a16.21,16.21,0,0,1-2.18-1.79l-.26-.25a16.65,16.65,0,0,0-6.63-4,16.51,16.51,0,0,1-3.34-1.46l-7.22-4.17.73-1a7.78,7.78,0,0,1,4.38-2.91l1.42-.36a7.85,7.85,0,0,1,6.94,1.59l6.71,5.59a2.75,2.75,0,0,0,3.93-3.81l-5.39-6.93a9.64,9.64,0,0,1-.58-.84l-5.74-9.57-2.33-2.33a2.28,2.28,0,0,0-1.61-.67h-3.78a2.28,2.28,0,0,1-.62-4.47l4.39-1.25a2.27,2.27,0,0,1,1.8.23l1.8,1.08,5.52,3.31a6.6,6.6,0,0,1,2.66,3.08l6.82,16.19a2.76,2.76,0,0,0,1.12,1.29c2.48,1.48,10.4,6.21,16.23,9.54,7,4,17,5,23,8s8,5,8,5A44.45,44.45,0,0,1,449.07,337.46Z"/><path class="cls-2" d="M352.19,272.64c2.4-5,4.86-10,7.22-14.67h0c5.5-10.89,10.44-19.85,12.65-21.5,1.76-1.31,4.72-3.25,6.76-4.57a37.92,37.92,0,0,0,3.46-2.45,55.5,55.5,0,0,1,16.78-9c20-7,29-5,34,0,3.72,3.72,8.54,8,12,11.58,0,0-10.61,2.78-18,7.72,0,0-7.39,1.57-18.9,0l-.29-.48c-1.29.76-2.57,1.49-3.81,2.18a92.27,92.27,0,0,1-13.5,6.18,7.61,7.61,0,0,0-3.93,3.18c-3.42,5.55-9.11,14.46-12.57,19.64-1.13,1.7-2.74,4.28-4.47,7.1-4.39,7.16-9.53,15.9-9.53,15.9l-.35.59-1.8-1.08a2.27,2.27,0,0,0-1.8-.23L351.73,294a2.28,2.28,0,0,0,.62,4.47h3.78a2.28,2.28,0,0,1,1.61.67l2.33,2.33,5.74,9.57a9.64,9.64,0,0,0,.58.84l5.39,6.93a2.75,2.75,0,0,1-3.93,3.81L361.14,317a7.85,7.85,0,0,0-6.94-1.59l-1.42.36a7.78,7.78,0,0,0-4.38,2.91l-.73,1a8.2,8.2,0,0,0-1,1.73l-5.9,14.33a2.18,2.18,0,0,1-2,1.35,2.31,2.31,0,0,1-.52-.06,2.19,2.19,0,0,1-1.58-2.7l3.93-14.13a2.07,2.07,0,0,0,.07-.49,1.89,1.89,0,0,0-1.29-1.79,1.87,1.87,0,0,0-2.11.68L326.16,334a2.17,2.17,0,0,1-2.74.67l-.05,0a2.18,2.18,0,0,1-.79-3.23l.52-.72,10.18-14.1a1.14,1.14,0,0,0-1.79-1.42l-10.91,12.58a2.15,2.15,0,0,1-3.29-2.76l.76-.93L328,311.79a1.85,1.85,0,0,0,.43-1.19,1.9,1.9,0,0,0-2.42-1.83L314.59,312a1.74,1.74,0,0,1-.45.06,1.64,1.64,0,0,1-.58-3.18l12.16-4.56a15.25,15.25,0,0,0,4.3-2.48l3.05-2.5,4-3.27,1.08-.88a3.56,3.56,0,0,1,2.12-.8l1.91-.07a1.87,1.87,0,0,0,1.62-2.65l.28-.15,1.67-2.82a2,2,0,0,0,.29-1.05,2.07,2.07,0,0,0-1.29-1.92,2,2,0,0,0-.79-.16l2.11-.14C348,281.44,350.05,277.07,352.19,272.64Z"/><path class="cls-4" d="M442.92,287.78s-11.71,2.33-16.3,13.25c-13.2-.94-28.07-1.34-39.48-.43l0-.51c-3.25-18-17.5-22.53-17.5-22.53,1.73-2.82,3.34-5.4,4.47-7.1,3.46-5.18,9.15-14.09,12.57-19.64a7.61,7.61,0,0,1,3.93-3.18,92.27,92.27,0,0,0,13.5-6.18c1.24-.69,2.52-1.42,3.81-2.18l.29.48c11.51,1.57,18.9,0,18.9,0S426,272.79,442.92,287.78Z"/><path class="cls-3" d="M384.72,343.86a72.86,72.86,0,0,0,8.09,5.36s-42.19,6-64.13-12.64a20.29,20.29,0,0,1-2.52-2.62l11.11-15.38a1.87,1.87,0,0,1,2.11-.68,1.89,1.89,0,0,1,1.29,1.79,2.07,2.07,0,0,1-.07.49l-3.93,14.13a2.19,2.19,0,0,0,1.58,2.7,2.31,2.31,0,0,0,.52.06,2.18,2.18,0,0,0,2-1.35l5.9-14.33a8.2,8.2,0,0,1,1-1.73l7.22,4.17a16.51,16.51,0,0,0,3.34,1.46,16.65,16.65,0,0,1,6.63,4l.26.25a16.21,16.21,0,0,0,2.18,1.79C370.7,333.63,380.69,340.55,384.72,343.86Z"/><path class="cls-4" d="M359.41,258c-2.36,4.67-4.82,9.71-7.22,14.67a65.7,65.7,0,0,1-17.12-5.39C345.74,263.42,358.92,258.16,359.41,258Z"/><path class="cls-3" d="M318.05,324l-.76.93a2.15,2.15,0,0,0,3.29,2.76,26.39,26.39,0,0,0,2.52,2.94l-.52.72a2.18,2.18,0,0,0,.79,3.23l.05,0a2.17,2.17,0,0,0,2.74-.67,20.29,20.29,0,0,0,2.52,2.62s-15.64,2.17-25.41,9.56-44.31,25-50.17,30.45-17.6,10.2-23.68,14.11-13.25,13.47-22.37,18.9l-29.4,17.57-7.31,4.37-4.42,2.21a6.35,6.35,0,0,1-9.06-4.13,15.59,15.59,0,0,1,0-6.12,126.47,126.47,0,0,0,10-10.86c3.47-4.56,21.94-28.24,40.18-40.18s25-17.81,34.1-26.06S273.51,311,280.9,302.92s12.59-11.89,18.46-17.46,18.89-12.52,30-16.21c1.75-.58,3.7-1.27,5.74-2a65.7,65.7,0,0,0,17.12,5.39c-2.14,4.43-4.22,8.8-6.12,12.82l-2.11.14a2.07,2.07,0,0,0-1.85,1.14l-1.95,3.89v.17a3.57,3.57,0,0,0-1.53,1l-2.41,2.62a1.92,1.92,0,0,0-1.14-.37,2.14,2.14,0,0,0-.5.06,2,2,0,0,0-1.52,1.94v3.34l-3.05,2.5a15.25,15.25,0,0,1-4.3,2.48l-12.16,4.56a1.64,1.64,0,0,0,.58,3.18,1.74,1.74,0,0,0,.45-.06L326,308.77a1.9,1.9,0,0,1,2.42,1.83,1.85,1.85,0,0,1-.43,1.19Z"/><path class="cls-2" d="M346,287.68a2,2,0,0,1-.29,1.05l-1.67,2.82-.28.15a1.87,1.87,0,0,0-1.69-1.07h-.85a3.6,3.6,0,0,0-1.09.17v-.17l1.95-3.89A2.07,2.07,0,0,1,344,285.6a2,2,0,0,1,.79.16A2.07,2.07,0,0,1,346,287.68Z"/><path class="cls-2" d="M343.8,291.7a1.87,1.87,0,0,1-1.62,2.65l-1.91.07a3.56,3.56,0,0,0-2.12.8l-1.08.88V296a2,2,0,0,0-.84-1.63l2.41-2.62a3.55,3.55,0,0,1,2.62-1.15h.85A1.87,1.87,0,0,1,343.8,291.7Z"/><path class="cls-2" d="M337.07,296v.07l-4,3.27V296a2,2,0,0,1,1.52-1.94,2.14,2.14,0,0,1,.5-.06,1.92,1.92,0,0,1,1.14.37A2,2,0,0,1,337.07,296Z"/><path class="cls-3" d="M333.5,315.88a1.15,1.15,0,0,1-.22.68l-10.18,14.1a26.39,26.39,0,0,1-2.52-2.94l10.91-12.58a1.14,1.14,0,0,1,2,.74Z"/><path class="cls-2" d="M190.33,429.58c.32,1.47,1.14,4.4-2.77,5.65s-3.91,2.66-7,3c-1.66.18-4.83.64-7.4,1a24.32,24.32,0,0,0-7.53,2.42l-1.4.72a35,35,0,0,0-4.58,2.79L157.1,447a15.59,15.59,0,0,1-9.11,2.94h0a5,5,0,0,1-4.85-6.09l.4-1.73a5,5,0,0,1,.81-1.78l4.2-5.86a12.27,12.27,0,0,0,1-1.73l1.27-2.55a12.85,12.85,0,0,1,2.75-3.67l3.29-3a15.59,15.59,0,0,0,0,6.12,6.35,6.35,0,0,0,9.06,4.13l4.42-2.21,7.31-4.37.46.78a16.32,16.32,0,0,0,7.49,1.79l2.16-1.29a1.72,1.72,0,0,1,2.56,1.09Z"/><path class="cls-5" d="M476.6,240s-3,6.34,6.83,2.7c0,0,5.4-1.95,4.14-4.93a3.22,3.22,0,0,0-3.59-1.85"/><path class="cls-5" d="M495,220.84s-6.5,4.16-5.19,10.75c1,5.11-2.22,6.2-2.22,6.2"/><path class="cls-5" d="M522.76,247.87c.9-6.67-2.08-13.33-5.71-18.75-7.85-11.73-22.07-8.28-22.07-8.28"/><path class="cls-5" d="M479.86,268.94l-.52-.16c-8.43-2.52-14.26.48-14.26.48"/><path class="cls-5" d="M509.79,264.45c-18.22,10.82-24.16,6.57-29,4.81L480,269"/><path class="cls-5" d="M483.43,242.72a13.06,13.06,0,0,1-6.33,9.11c-3.85,2.11-4.43,5.91-4.51,10.28,0,0-1,4.12,6.75,6.67l.52.16.09,0"/><path class="cls-5" d="M455.42,239.76a4.93,4.93,0,0,1,2.15-5.58,78,78,0,0,0,7.52-5.13c3.19-2.63,10-5,13.08-4.78l6.15-3a15.18,15.18,0,0,1,9.64-.65l1,.26"/><path class="cls-5" d="M521.21,248a7.63,7.63,0,0,1,4.15,3.7c2.41,4.36,3.81,10.61-2.44,13.94a11.1,11.1,0,0,1-13.06-1.26,10.69,10.69,0,0,1-2.31-2.84c-2.41-4.35,1-9.7,5.9-12.42C516.26,247.56,519,247.2,521.21,248Z"/><path class="cls-5" d="M359.41,258c-2.36,4.67-4.82,9.71-7.22,14.67-2.14,4.43-4.22,8.8-6.12,12.82"/><path class="cls-5" d="M462.07,244.46a84.12,84.12,0,0,1-8.25-4.39,22.42,22.42,0,0,1-5.75-4.61,38.54,38.54,0,0,0-3-3.42c-3.46-3.59-8.28-7.86-12-11.58-5-5-14-7-34,0a55.5,55.5,0,0,0-16.78,9,37.92,37.92,0,0,1-3.46,2.45c-2,1.32-5,3.26-6.76,4.57-2.21,1.65-7.15,10.61-12.65,21.5"/><path class="cls-5" d="M360.07,293.46s5.14-8.74,9.53-15.9c1.73-2.82,3.34-5.4,4.47-7.1,3.46-5.18,9.15-14.09,12.57-19.64a7.61,7.61,0,0,1,3.93-3.18,92.27,92.27,0,0,0,13.5-6.18c1.24-.69,2.52-1.42,3.81-2.18,8.07-4.75,16.6-10.78,19.19-16.82"/><path class="cls-5" d="M498.39,446.93a8.93,8.93,0,0,0,6,.66,4.67,4.67,0,0,0,.21-1.1,2,2,0,0,0-.65-1.83,30.32,30.32,0,0,0-4.85-2.28"/><path class="cls-5" d="M504.71,446.49a10.15,10.15,0,0,0,5.36.44c1.6-.32,1.44-1.31,1-2.12a4.58,4.58,0,0,0-.35-.54,2.26,2.26,0,0,0-1.24-.82l-4.82-1.22"/><path class="cls-5" d="M461.18,306.35a38.84,38.84,0,0,0-6.11-1.89c-5.18-1.2-16.08-2.55-28.45-3.43-13.2-.94-28.07-1.34-39.48-.43a66.63,66.63,0,0,0-12.07,1.86"/><path class="cls-5" d="M511.38,444.62c2,.19,2.56-1.86,2.69-3.35a1.42,1.42,0,0,0-1.36-1.54c-.61,0-1.44-.06-2.54-.13-3.89-.23-14.1-3.14-14.1-3.14l-11.76-3.87a23.6,23.6,0,0,1-4.26-2.07l-2.94-1.95a8.09,8.09,0,0,1-2.59-2.8,28.69,28.69,0,0,1-2.91-9.65,61.23,61.23,0,0,1-.61-7.29c-.81-29.16,1.72-42.05,1.72-52.05s-.65-23.32-.65-33.32c0-8.22-2.7-13.74-10.89-17.1"/><path class="cls-5" d="M451.07,418.46s9.76,6,20.34-2.31"/><path class="cls-5" d="M333.07,299.37V296a2,2,0,0,1,1.52-1.94,2.14,2.14,0,0,1,.5-.06,1.92,1.92,0,0,1,1.14.37,2,2,0,0,1,.84,1.63v.07"/><path class="cls-5" d="M445,344.24a38.25,38.25,0,0,0-2.9,20.22c2,17,6,27,8,42a90.74,90.74,0,0,1,.8,12c0,14.24-3.81,20.55-1.44,24.49,2.94,4.91,8.52,4.19,15.71,4.19s21.82,2.94,28.75,1.37a9,9,0,0,0,4.61.44.84.84,0,0,0,.44-1.37l-.57-.63-1.57-1.72a1.51,1.51,0,0,0-1-.48l-2.43-.24"/><path class="cls-5" d="M336.23,294.4l2.41-2.62a3.55,3.55,0,0,1,2.62-1.15h.85a1.87,1.87,0,0,1,1.69,1.07,1.87,1.87,0,0,1-1.62,2.65l-1.91.07a3.56,3.56,0,0,0-2.12.8l-1.08.88-4,3.27-3.05,2.5a15.25,15.25,0,0,1-4.3,2.48l-12.16,4.56a1.64,1.64,0,0,0,.58,3.18,1.74,1.74,0,0,0,.45-.06L326,308.77a1.9,1.9,0,0,1,2.42,1.83,1.85,1.85,0,0,1-.43,1.19L318.05,324l-.76.93a2.15,2.15,0,0,0,3.29,2.76l10.91-12.58a1.14,1.14,0,0,1,1.79,1.42l-10.18,14.1-.52.72a2.18,2.18,0,0,0,.79,3.23l.05,0a2.17,2.17,0,0,0,2.74-.67l11.11-15.38a1.87,1.87,0,0,1,2.11-.68,1.89,1.89,0,0,1,1.29,1.79,2.07,2.07,0,0,1-.07.49l-3.93,14.13a2.19,2.19,0,0,0,1.58,2.7,2.31,2.31,0,0,0,.52.06,2.18,2.18,0,0,0,2-1.35l5.9-14.33a8.2,8.2,0,0,1,1-1.73l.73-1a7.78,7.78,0,0,1,4.38-2.91l1.42-.36a7.85,7.85,0,0,1,6.94,1.59l6.71,5.59a2.75,2.75,0,0,0,3.93-3.81l-5.39-6.93a9.64,9.64,0,0,1-.58-.84l-5.74-9.57-2.33-2.33a2.28,2.28,0,0,0-1.61-.67h-3.78a2.28,2.28,0,0,1-.62-4.47l4.39-1.25a2.27,2.27,0,0,1,1.8.23l1.8,1.08,5.52,3.31a6.6,6.6,0,0,1,2.66,3.08l6.82,16.19a2.76,2.76,0,0,0,1.12,1.29c2.48,1.48,10.4,6.21,16.23,9.54,7,4,17,5,23,8s8,5,8,5a44.45,44.45,0,0,1,26-3,27.55,27.55,0,0,0-4,6.57"/><path class="cls-5" d="M340.16,290.63l1.95-3.89A2.07,2.07,0,0,1,344,285.6a2,2,0,0,1,.79.16,2.07,2.07,0,0,1,1.29,1.92,2,2,0,0,1-.29,1.05l-1.67,2.82"/><path class="cls-5" d="M347.67,319.66l7.22,4.17a16.51,16.51,0,0,0,3.34,1.46,16.65,16.65,0,0,1,6.63,4l.26.25a16.21,16.21,0,0,0,2.18,1.79c3.4,2.34,13.39,9.26,17.42,12.57a72.86,72.86,0,0,0,8.09,5.36c5.53,3.3,12,6.8,15.69,9,5.86,3.48,6.41,4,11.73,4.56l.3.05a8.87,8.87,0,0,0,7-1.94l1.21-1a9,9,0,0,1,1.61-1.06c2.57-1.3,10.74-6,14.62-14.55a2,2,0,0,0,.1-.21"/><path class="cls-5" d="M392.81,349.22s-42.19,6-64.13-12.64c0,0-15.64,2.17-25.41,9.56s-44.31,25-50.17,30.45-17.6,10.2-23.68,14.11-13.25,13.47-22.37,18.9l-29.4,17.57-7.31,4.37-4.42,2.21a6.35,6.35,0,0,1-9.06-4.13,15.59,15.59,0,0,1,0-6.12,126.47,126.47,0,0,0,10-10.86c3.47-4.56,21.94-28.24,40.18-40.18s25-17.81,34.1-26.06S273.51,311,280.9,302.92s12.59-11.89,18.46-17.46,18.89-12.52,30-16.21c1.75-.58,3.7-1.27,5.74-2,10.67-3.83,23.85-9.09,24.34-9.28h0"/><path class="cls-5" d="M335.07,267.25a65.7,65.7,0,0,0,17.12,5.39h0"/><path class="cls-5" d="M369.6,277.56s14.25,4.5,17.5,22.53"/><path class="cls-5" d="M314.33,315a30.55,30.55,0,0,0,3.72,9"/><path class="cls-5" d="M320.58,327.72a26.39,26.39,0,0,0,2.52,2.94"/><path class="cls-5" d="M326.16,334a20.29,20.29,0,0,0,2.52,2.62"/><path class="cls-5" d="M287.41,306.17s9.89,23.45,30,21.66"/><path class="cls-5" d="M156.88,423.5l-3.29,3a12.85,12.85,0,0,0-2.75,3.67l-1.27,2.55a12.27,12.27,0,0,1-1,1.73l-4.2,5.86a5,5,0,0,0-.81,1.78l-.4,1.73a5,5,0,0,0,4.85,6.09h0A15.59,15.59,0,0,0,157.1,447l2.54-1.84a35,35,0,0,1,4.58-2.79l1.4-.72a24.32,24.32,0,0,1,7.53-2.42c2.57-.38,5.74-.84,7.4-1,3.1-.32,3.1-1.73,7-3s3.09-4.18,2.77-5.65v0a1.72,1.72,0,0,0-2.56-1.09l-2.16,1.29a16.32,16.32,0,0,1-7.49-1.79"/><path class="cls-5" d="M466.16,264.45s-.65,2.06-1.35,4.74c-.87,3.3-1.81,7.54-1.69,10.05s.69,5.19.88,8.52a33.39,33.39,0,0,1-.89,10.16l-1.93,8.43h0"/><path class="cls-5" d="M445.07,232s-10.61,2.78-18,7.72c0,0-7.39,1.57-18.9,0"/><path class="cls-5" d="M427.07,239.76s-1.09,33,15.85,48h20.75"/><path class="cls-5" d="M442.92,287.78s-11.71,2.33-16.3,13.25"/></svg>