<svg id="Layer_1" data-name="Layer 1" xmlns="http://www.w3.org/2000/svg" viewBox="0 0 700 700"><defs><style>.cls-1{fill:#feae63;}.cls-2{fill:#c4e7f9;}.cls-3{fill:#392328;}.cls-4{fill:#99abcc;}.cls-5{fill:none;stroke:#000;stroke-linecap:round;stroke-linejoin:round;stroke-width:2.3px;}</style></defs><title>Yoga_poses_2020_color</title><path class="cls-1" d="M389.83,291l-4,3.23-1.15-.24q.68-3.19,1.12-6.08Z"/><path class="cls-1" d="M389.48,303.65c.72.61,5.2,6.07-5.27,9.38,0,0-5.65,1-6.06,5.77-.56,6.48-4.92,13.06-4.92,13.06.43-4.66.52-5.67.52-5.67A155.59,155.59,0,0,0,384.66,294l1.15.24Z"/><path class="cls-1" d="M296.77,220.76l17.48-4.58a3.87,3.87,0,0,1,2.33.12c2.9,1.11,10.57,4.2,15.13,7.72,5.7,4.4,29.81,13.36,37,18.41S383,253.18,385.3,255.29s1.47,4.08,1.14,7.33c-.19,2,1.65,10.43-.66,25.3q-.45,2.88-1.12,6.08a155.59,155.59,0,0,1-10.91,32.19s-.09,1-.52,5.67c-.16,1.76-.37,4.05-.63,7-.75,8.26-1.75,7.86-2,13,0,0-2.9,13.57-8.44,17.48l-.06.47c-33.22-4.11-25.23-41-25.23-41a54.59,54.59,0,0,1,10.32-7.51s.45-1.27,1.21-3.32c2.13-5.67,6.73-17.28,11.23-24.43,6.13-9.72,7.53-22.75,7.53-22.75s-.85-1.24-2.55-3.32a121.41,121.41,0,0,0-37.93-30.23,4.06,4.06,0,0,0-2.74-.33l-5.69,1.31a6.74,6.74,0,0,1-2.72.08l-12.11-2.1,1.39-1.65a2.93,2.93,0,0,0,.33-3.34l-1.27-2.26a3.15,3.15,0,0,0-1.95-1.49l-6.45-1.62-3.93-1,.85-2.62a2.61,2.61,0,0,1,3.05-1.75l1.33.3Z"/><path class="cls-1" d="M370.59,358.41c.12,3.85.43,7.82.22,11.74h-.22a53.55,53.55,0,0,1-8.5-.33l.06-.47c5.54-3.91,8.44-17.48,8.44-17.48C370.51,353.41,370.5,355.46,370.59,358.41Z"/><path class="cls-2" d="M370.59,370.14h.22c-.48,9-3.75,17.83-18.74,24.42-21.5,9.45-17.77,10.75-46.44,10.75-10.06,0-19.82.16-28.57.24,18.86-10.06,9.16-33.37,5.62-38.68a51.71,51.71,0,0,0,32.9-16.29c9-9.64,15.53-16.69,21.28-21.81,0,0-8,36.92,25.23,41A53.55,53.55,0,0,0,370.59,370.14Z"/><path class="cls-3" d="M367.15,270.77s-1.4,13-7.53,22.75c-4.5,7.15-9.1,18.76-11.23,24.43l-1.05-.22a34.39,34.39,0,0,1-12.77-12.54,25.9,25.9,0,0,1-1.15-17.35,23.09,23.09,0,0,1,1.93-5c.35-.62.7-1.22,1.06-1.79,7.11-11.41,16.15-13.26,27.69-13.31l.5-.28C366.3,269.53,367.15,270.77,367.15,270.77Z"/><path class="cls-3" d="M335.77,280.64l.64.4c-.36.57-.71,1.17-1.06,1.79a23.09,23.09,0,0,0-1.93,5h0c-2.87,8.48-10.64,5.75-12.61,2.78-2.75-4.16-1.85-13.56,5.62-14.77S335.77,280.64,335.77,280.64Z"/><path class="cls-1" d="M305.13,231.19a2.93,2.93,0,0,1-.33,3.34l-1.39,1.65c-2.7,3.19-6.75,8.06-9,11.13-3.59,4.89-7.17,7.5-9.13,16.62s-9.44,5-13.35,3.8c-3.54-1.09-3.08-3.85-14.57,8-2.39-10.82-11.5-17-11.5-17,8.15-6.19,13.36-11.72,20.85-16.94s23.93-17.16,28.75-16l6.45,1.62a3.15,3.15,0,0,1,1.95,1.49Z"/><path class="cls-4" d="M282.68,366.88c3.54,5.31,13.24,28.62-5.62,38.68-16.19.15-28.94,0-33.8-1.87-7.5-2.93-43.66-32.25-59.3-60.6s-17.26-34.68-5.21-43.24,16.62-9.88,26.06-15.41,32.91-19.54,41.05-25.73c0,0,9.11,6.16,11.5,17q-1.78,1.85-4,4.2c-15.64,16.62-24.11,33.91-46.59,35.2A186.36,186.36,0,0,0,228,332.88a129.77,129.77,0,0,1,13.87,11.71,2,2,0,0,0,1.84.54l.15,0A32.09,32.09,0,0,1,276.38,358l5.9,8.29C282.4,366.48,282.54,366.66,282.68,366.88Z"/><path class="cls-5" d="M355.76,300.4a2.42,2.42,0,0,0-1.05,2.15"/><path class="cls-5" d="M365.47,279c-.29.55-.53,1-.7,1.28a7.59,7.59,0,0,0-1.1,4.28"/><path class="cls-5" d="M335.77,280.64s-1.88-6-9.35-4.79-8.37,10.61-5.62,14.77c2,3,9.74,5.7,12.61-2.78"/><path class="cls-5" d="M385.78,287.92l4.05,3.09-4,3.23,3.67,9.41c.72.61,5.2,6.07-5.27,9.38,0,0-5.65,1-6.06,5.77-.56,6.48-4.92,13.06-4.92,13.06"/><path class="cls-5" d="M347.34,317.73a34.39,34.39,0,0,1-12.77-12.54,25.9,25.9,0,0,1-1.15-17.35,23.09,23.09,0,0,1,1.93-5c.35-.62.7-1.22,1.06-1.79,7.11-11.41,16.15-13.26,27.69-13.31"/><line class="cls-5" x1="296.77" y1="220.76" x2="301.9" y2="221.9"/><path class="cls-5" d="M282.28,366.32l-5.9-8.29a32.09,32.09,0,0,0-32.57-12.93l-.15,0a2,2,0,0,1-1.84-.54A129.77,129.77,0,0,0,228,332.88a186.36,186.36,0,0,1-21.18-17.79c22.48-1.29,30.95-18.58,46.59-35.2q2.22-2.36,4-4.2c11.49-11.81,11-9.05,14.57-8,3.91,1.2,11.4,5.32,13.35-3.8s5.54-11.73,9.13-16.62c2.25-3.07,6.3-7.94,9-11.13l1.39-1.65a2.93,2.93,0,0,0,.33-3.34l-1.27-2.26a3.15,3.15,0,0,0-1.95-1.49l-6.45-1.62-3.93-1,.85-2.62a2.61,2.61,0,0,1,3.05-1.75l1.33.3"/><path class="cls-5" d="M303.41,236.18l12.11,2.1a6.74,6.74,0,0,0,2.72-.08l5.69-1.31a4.06,4.06,0,0,1,2.74.33,121.41,121.41,0,0,1,37.93,30.23c1.7,2.08,2.55,3.32,2.55,3.32s-1.4,13-7.53,22.75c-4.5,7.15-9.1,18.76-11.23,24.43-.76,2.05-1.21,3.32-1.21,3.32a54.59,54.59,0,0,0-10.32,7.51c-5.75,5.12-12.24,12.17-21.28,21.81a51.71,51.71,0,0,1-32.9,16.29"/><path class="cls-5" d="M296.76,220.76h0l17.48-4.58a3.87,3.87,0,0,1,2.33.12c2.9,1.11,10.57,4.2,15.13,7.72,5.7,4.4,29.81,13.36,37,18.41S383,253.18,385.3,255.29s1.47,4.08,1.14,7.33c-.19,2,1.65,10.43-.66,25.3q-.45,2.88-1.12,6.08a155.59,155.59,0,0,1-10.91,32.19s-.09,1-.52,5.67c-.16,1.76-.37,4.05-.63,7-.75,8.26-1.75,7.86-2,13-.08,1.55-.09,3.6,0,6.55.12,3.85.43,7.82.22,11.74-.48,9-3.75,17.83-18.74,24.42-21.5,9.45-17.77,10.75-46.44,10.75-10.06,0-19.82.16-28.57.24-16.19.15-28.94,0-33.8-1.87-7.5-2.93-43.66-32.25-59.3-60.6s-17.26-34.68-5.21-43.24,16.62-9.88,26.06-15.41,32.91-19.54,41.05-25.73,13.36-11.72,20.85-16.94,23.93-17.16,28.75-16"/><path class="cls-5" d="M370.59,351.86s-2.9,13.57-8.44,17.48"/><path class="cls-5" d="M336.86,328.78s-8,36.92,25.23,41a53.55,53.55,0,0,0,8.5.33"/><path class="cls-5" d="M282.28,366.32c.12.16.26.34.4.56,3.54,5.31,13.24,28.62-5.62,38.68"/><path class="cls-5" d="M245.86,258.71s9.11,6.16,11.5,17"/></svg>