<svg id="Layer_1" data-name="Layer 1" xmlns="http://www.w3.org/2000/svg" viewBox="0 0 700 700"><defs><style>.cls-1{fill:#feae63;}.cls-2{fill:#99abcc;}.cls-3{fill:#c4e7f9;}.cls-4{fill:#392328;}.cls-5,.cls-6{fill:none;stroke:#000;stroke-linecap:round;stroke-linejoin:round;}.cls-5{stroke-width:2.3px;}.cls-6{stroke-width:2.3px;}</style></defs><title>Yoga_poses_2020_color</title><path class="cls-1" d="M527.84,445.55v.08a2.84,2.84,0,0,1-2.84,2.83h-7.85a32.2,32.2,0,0,1-7.51-.89,24.06,24.06,0,0,0-5.85-.69c-6.68,0-22.81-.35-29.87-.35-8.47,0-10.43-3.91-6.84-16.26,1-3.42,1.41-8.27,1.49-14,0,0,10.14,1.09,18.71-1.3,1.83,10.52,5.8,11.76,8.63,13,4.4,1.91,10.75,6.71,20.36,11.21a55.86,55.86,0,0,0,9.39,3.68A2.85,2.85,0,0,1,527.84,445.55Z"/><path class="cls-2" d="M473.9,328.61a10.41,10.41,0,0,0-1.41,1.95c-5.77,7.46-16.62,16.19-21.7,18.89-5.54,2.93-28.12,13.52-28.12,13.52-16.23,8.47-7.6,9.47-25.36,18.43s-38.49,5.49-46.8,5.65c-1.38,0-3.49,1-6,2.54C332.74,375.11,327,348.31,327,348.31c8.5-4.35,15.39-6.41,24.78-9,10.79-2.94,33.51-10.76,33.51-10.76,24.11-15,60.27-21.5,80.15-28S500,299,500.63,306.44s2.61,18.57-2.28,30-11.56,50.83-11.56,50.83c-.88,13.15-.52,21.85.49,27.69-8.57,2.39-18.71,1.3-18.71,1.3.22-15.08-1.82-36.45-1.82-55.06,0-18.36,3.65-27.11,5.74-30.61Q473.27,329.57,473.9,328.61Z"/><path class="cls-1" d="M434,431.16v1.14a1.22,1.22,0,0,1-1,1.21l-.9.15h0l-7.7,1.31-.25,0a1.47,1.47,0,0,1-.35-2.89l2-.5,6.64-1.63h0A1.23,1.23,0,0,1,434,431.16Z"/><path class="cls-1" d="M432.57,433.88a1.42,1.42,0,0,1,.82,1.47l0,.32a1.41,1.41,0,0,1-1.2,1.23l-.33.05a1.07,1.07,0,0,0-.69-.35l-6.82-.72h-.15l0-.88.25,0,7.7-1.31h0Z"/><path class="cls-1" d="M433.05,427.23A2,2,0,0,1,433,429l-.52,1-6.64,1.63-.33-1.36a1.65,1.65,0,0,0,.8-.38l4.65-4h.18a2,2,0,0,1,1.87,1.24Z"/><path class="cls-1" d="M431.82,437a1.09,1.09,0,0,1,.24,1.07l-.43,1.34a1.09,1.09,0,0,1-1.31.73l-.93-.23-5.54-1.39a1.32,1.32,0,0,1,.31-2.6h.15l6.82.72A1.07,1.07,0,0,1,431.82,437Z"/><path class="cls-1" d="M431.37,423.52a1.35,1.35,0,0,1,0,2l-.38.33h0l-4.65,4a1.68,1.68,0,0,1-2.29-.09,1.68,1.68,0,0,1,0-2.35l4.63-4.67a1.43,1.43,0,0,1,.44-.3,1.37,1.37,0,0,1,1.43.26Z"/><path class="cls-1" d="M307.64,420.67h0a189.44,189.44,0,0,0,22.91,3.52c10.22.81,13.67,2,18.67,2.11s27.42,2.41,27.42,2.41,16,1.47,25.57.71l3.65-.47a2.17,2.17,0,0,0,1.89-2.15v-3a1.64,1.64,0,0,1,.78-1.39l5.55-3.43a1.64,1.64,0,0,1,2,.2l.77.72-2.06,3.59,8.06.32a2.11,2.11,0,0,0,1.44-2.49l1.07-.89a1.25,1.25,0,0,1,1.63,0l2.05,1.87,0,.1a1.43,1.43,0,0,0-.44.3L424,427.42a1.68,1.68,0,0,0,0,2.35,1.65,1.65,0,0,0,1.49.47l.33,1.36-2,.5a1.47,1.47,0,0,0,.35,2.89l0,.88a1.32,1.32,0,0,0-.31,2.6l5.54,1.39-.35,1.38-.27.93a1.55,1.55,0,0,1-1.5,1.13H411.34a18.86,18.86,0,0,1-4.42-.57c-4.68-1.13-9.87-.87-23.41-.48-15.47.43-39.75-1.75-47.08-.44s-44.63-.65-66.78-1.31c-14.56-.43-17.59-3.32-19-5.9l0-.05c-.21-.38-.4-.75-.58-1.11-2.48-6.22,1.21-21.21,3.33-28.72v0c.77-2.7,1.33-4.43,1.33-4.43v0c.36-.48,8.05-10.57,17.91-3.89S306.88,420.14,307.64,420.67Z"/><path class="cls-1" d="M424.29,421.34a2.11,2.11,0,0,1-1.44,2.49l-8.06-.32,2.06-3.59-.77-.72H420a1.44,1.44,0,0,1,.62.13,4,4,0,0,0,2,.37,1.16,1.16,0,0,1,1.22.71Z"/><path class="cls-3" d="M327,348.31s5.73,26.8,17.46,41.28c-12.62,7.71-36.13,30.43-36.8,31.09h0c-.76-.53-25.12-17.58-35.06-24.31s-17.55,3.41-17.91,3.89c4.89-21.16,17.26-25.07,30.94-29.95s27-14,37.47-19.88C324.44,349.66,325.74,349,327,348.31Z"/><path class="cls-1" d="M219.28,423.65a8.19,8.19,0,0,1-1.9.28c-5.78-1.14-1.94-5.78-1.94-5.78.23-2.35-1.21-6.2-5.06-8.49s-7.32-1.76-9.73-5.67c-1.22-2-7.27-10.46-7.27-10.46l1.82-.35s8.21-3.55,13.63-3.35c4.26.15,4.93,1.5,7.64-.41l5.44-2.5,1,5.07,10,1.17c.88-.34,7.81-1.74,5.8,9.07,0,0-.28,3.44,7,3.61,6.63.15,7.52-.93,7.62-1.12-2.12,7.51-5.81,22.5-3.33,28.72a4.87,4.87,0,0,0-1.84-2.24c-3.91-2.3-16,0-16,0-1.68-2.71-6.42-3.19-6.42-3.19-4,.35-6-3.42-6.35-4.11Zm-3.46-28.28c.06-.62-1.06-1.22-2.49-1.35s-2.64.28-2.69.9,1.06,1.23,2.49,1.35S215.77,396,215.82,395.37Z"/><path class="cls-4" d="M219.35,423.9c.34.69,2.39,4.46,6.35,4.11,0,0,4.74.48,6.42,3.19a3.88,3.88,0,0,1,.58,2.37c-.3,4.82-4.54,4.72-10.34,4.9-4.39.13-9.55-.14-12.25.1a63,63,0,0,1-11.37-.13c-7.16-.67-9.35-5.66-9.35-5.66-.49-.76-.95-1.52-1.37-2.27a32.17,32.17,0,0,1-2.93-6.95c-2.94-10.36,1-19.42,6.91-29.77l1.38-.26s6.05,8.48,7.27,10.46c2.41,3.91,5.88,3.39,9.73,5.67s5.29,6.14,5.06,8.49c0,0-3.84,4.64,1.94,5.78a8.19,8.19,0,0,0,1.9-.28Z"/><path d="M213.33,394c1.43.13,2.55.73,2.49,1.35s-1.25,1-2.69.9-2.55-.73-2.49-1.35S211.89,393.9,213.33,394Z"/><path class="cls-4" d="M188,430.53c3.52,8.24-4.76,7.1-9.76,6.8s-8.2-5.18-3.45-11.06,10.17-2.67,10.17-2.67l.15,0a32.17,32.17,0,0,0,2.93,6.95Z"/><path class="cls-5" d="M215.44,418.15s-3.84,4.64,1.94,5.78a8.19,8.19,0,0,0,1.9-.28,8,8,0,0,0,5.69-4.86s.72-3.14-2.92-1.61"/><path class="cls-5" d="M229.51,416.65s5.33-.55,6.39-5.21"/><path class="cls-5" d="M193.38,393.53s6.05,8.48,7.27,10.46c2.41,3.91,5.88,3.39,9.73,5.67s5.29,6.14,5.06,8.49"/><path class="cls-5" d="M184.94,423.6s-5.41-3.21-10.17,2.67-1.53,10.76,3.45,11.06,13.28,1.44,9.76-6.8"/><path class="cls-6" d="M253.33,404.7h0"/><path class="cls-5" d="M219.3,423.8l0,.1c.34.69,2.39,4.46,6.35,4.11,0,0,4.74.48,6.42,3.19a3.88,3.88,0,0,1,.58,2.37c-.3,4.82-4.54,4.72-10.34,4.9-4.39.13-9.55-.14-12.25.1a63,63,0,0,1-11.37-.13c-7.16-.67-9.35-5.66-9.35-5.66-.49-.76-.95-1.52-1.37-2.27a32.17,32.17,0,0,1-2.93-6.95c-2.94-10.36,1-19.42,6.91-29.77l1.38-.26,1.82-.35s8.21-3.55,13.63-3.35c4.26.15,4.93,1.5,7.64-.41l5.44-2.5,1,5.07,10,1.17c.88-.34,7.81-1.74,5.8,9.07,0,0-.28,3.44,7,3.61,6.63.15,7.52-.93,7.62-1.12"/><path class="cls-5" d="M250.6,434.6c1.46,2.58,4.49,5.47,19,5.9,22.15.66,59.45,2.61,66.78,1.31s31.61.87,47.08.44c13.54-.39,18.73-.65,23.41.48a18.86,18.86,0,0,0,4.42.57h15.93a1.55,1.55,0,0,0,1.5-1.13l.27-.93"/><path class="cls-5" d="M232.12,431.2s12.12-2.3,16,0a4.87,4.87,0,0,1,1.84,2.24c.18.36.37.73.58,1.11"/><path class="cls-5" d="M424.16,435.87a1.32,1.32,0,0,0-.31,2.6l5.54,1.39.93.23a1.09,1.09,0,0,0,1.31-.73l.43-1.34a1.09,1.09,0,0,0-.24-1.07,1.07,1.07,0,0,0-.69-.35l-6.82-.72Z"/><path class="cls-5" d="M432.09,433.66l.9-.15a1.22,1.22,0,0,0,1-1.21v-1.14a1.23,1.23,0,0,0-1.52-1.2h0l-6.64,1.63-2,.5a1.47,1.47,0,0,0,.35,2.89l.25,0,7.7-1.31"/><path class="cls-5" d="M431,425.85l.38-.33a1.35,1.35,0,0,0,0-2l-.86-.81a1.37,1.37,0,0,0-1.43-.26,1.43,1.43,0,0,0-.44.3L424,427.42a1.68,1.68,0,0,0,0,2.35,1.68,1.68,0,0,0,2.29.09l4.65-4"/><path class="cls-6" d="M307.64,420.67c-4.46-.91-9.13-2-14-3.13a86,86,0,0,0-19.12-2.61"/><path class="cls-6" d="M429,422.35,427,420.48a1.25,1.25,0,0,0-1.63,0l-1.07.89a2.11,2.11,0,0,1-1.44,2.49l-8.06-.32,2.06-3.59-.77-.72a1.64,1.64,0,0,0-2-.2l-5.55,3.43a1.64,1.64,0,0,0-.78,1.39v3a2.17,2.17,0,0,1-1.89,2.15l-3.65.47c-9.55.76-25.57-.71-25.57-.71s-22.43-2.32-27.42-2.41-8.45-1.3-18.67-2.11a189.44,189.44,0,0,1-22.91-3.52"/><path class="cls-5" d="M416.08,419.2H420a1.44,1.44,0,0,1,.62.13,4,4,0,0,0,2,.37,1.16,1.16,0,0,1,1.22.71l.4.93"/><path class="cls-5" d="M430.94,425.85h.18a2,2,0,0,1,1.87,1.24l.06.14A2,2,0,0,1,433,429l-.52,1"/><path class="cls-5" d="M432.08,433.66h0l.48.22a1.42,1.42,0,0,1,.82,1.47l0,.32a1.41,1.41,0,0,1-1.2,1.23l-.33.05-.15,0"/><path class="cls-6" d="M254.66,400.27v0c.36-.48,8.05-10.57,17.91-3.89s34.3,23.78,35.06,24.31h0c.67-.66,24.18-23.38,36.8-31.09,2.55-1.57,4.66-2.51,6-2.54,8.31-.16,29.05,3.3,46.8-5.65s9.13-10,25.36-18.43c0,0,22.58-10.59,28.12-13.52,5.08-2.7,15.93-11.43,21.7-18.89q.78-1,1.41-1.95"/><path class="cls-6" d="M473.92,328.59s0,0,0,0a10.41,10.41,0,0,0-1.41,1.95c-2.09,3.5-5.74,12.25-5.74,30.61,0,18.61,2,40,1.82,55.06-.08,5.77-.5,10.62-1.49,14-3.59,12.35-1.63,16.26,6.84,16.26,7.06,0,23.19.37,29.87.35a24.06,24.06,0,0,1,5.85.69,32.2,32.2,0,0,0,7.51.89H525a2.84,2.84,0,0,0,2.84-2.83v-.08a2.85,2.85,0,0,0-2.18-2.75,55.86,55.86,0,0,1-9.39-3.68c-9.61-4.5-16-9.3-20.36-11.21-2.83-1.22-6.8-2.46-8.63-13-1-5.84-1.37-14.54-.49-27.69,0,0,6.68-39.42,11.56-50.83s2.93-22.48,2.28-30-15.31-12.38-35.18-5.86-56,13-80.15,28c0,0-22.72,7.82-33.51,10.76-9.39,2.55-16.28,4.61-24.78,9-1.27.65-2.57,1.35-3.93,2.11-10.43,5.87-23.79,15-37.47,19.88s-26.05,8.79-30.94,29.95"/><path class="cls-6" d="M254.66,400.27s-.56,1.73-1.33,4.43v0c-2.12,7.51-5.81,22.5-3.33,28.72a6.44,6.44,0,0,0,.58,1.11l0,.05"/><path class="cls-5" d="M468.57,416.23s10.14,1.09,18.71-1.3"/><path class="cls-5" d="M327,348.31s5.73,26.8,17.46,41.28"/></svg>