<svg id="Layer_1" data-name="Layer 1" xmlns="http://www.w3.org/2000/svg" viewBox="0 0 700 700"><defs><style>.cls-1{fill:#99abcc;}.cls-2{fill:#feae63;}.cls-3{fill:#c4e7f9;}.cls-4{fill:#392328;}.cls-5{fill:none;stroke:#000;stroke-linecap:round;stroke-linejoin:round;stroke-width:2.3px;}</style></defs><title>Yoga_poses_2020_color</title><path class="cls-1" d="M372.91,404c1.56-7.91,4.88-14.92,7.29-21.61l.19.07s61.65-2.47,76.09.83,7.42,25.15,6.18,26.8-6.8,8-17.52,10.31-14,5.36-37.53,4.74-37.54-3-39.39-2a70.8,70.8,0,0,1,3.15-14.94A37.32,37.32,0,0,0,372.91,404Z"/><path class="cls-2" d="M363.08,400.31l-.27-.26c.63-4.07,1.27-16.69,1.27-16.69s.56-4.54,1.17-9.62c.23-1.91.47-3.9.69-5.75.32-2.78.6-5.24.75-6.68.48-4.73,1.18-31.66,1.24-33.92a20.61,20.61,0,0,0,.83-2.48,63.79,63.79,0,0,0,1.35-7.81.17.17,0,0,0,0-.07c.41-5.2-2.22-13.43-8.06-19.77V274.12l.26-.92a88.45,88.45,0,0,0,9.61,2.25s8.95,0,12,6.65c0,0,2.85,8.91,2.29,31.15s-1.12,34-1.26,39.72-1,9.23-2.09,19.16a45.69,45.69,0,0,1-2.64,10.27c-2.41,6.69-5.73,13.7-7.29,21.61a37.32,37.32,0,0,1-1.54,4.2,70.8,70.8,0,0,0-3.15,14.94,2.83,2.83,0,0,1-1.53,2.31c-2,1-5.48,2.87-7.62,4.26a3.4,3.4,0,0,1-2,.56l-1.38,0-1.16-.2a3,3,0,0,1-1.68.49l-5-.14-1.94-.24a1.82,1.82,0,0,0,.56-.09l.23-.08c3-1.57.1-5.41.1-5.41,3.28,1.9,6.7,2.69,6.91-3.8a14.88,14.88,0,0,0-.06-2l.47,0,2-2.19.47-2.83s-.78-3.29-3.76-2.19c-.47.17-1,.38-1.48.59-2.69,1.15-5.58,2.7-5.58,2.7a9,9,0,0,1-1.78,2.05,6.46,6.46,0,0,1-5.58,1.56s-1.24-.52-1.24-1.36c0-.45.38-1,1.55-1.62a7.59,7.59,0,0,0,3.63-4.3,2.07,2.07,0,0,1,1-1.19l.64-.34c2.13-1.15,6-3.27,7.14-4.05,1.56-1.1,7.21-4.55,9.72-3.29A27.15,27.15,0,0,0,363.08,400.31Z"/><path class="cls-3" d="M367.93,327.39c-1.32,3.29-3.2,6.18-3.71,9.05-1.41,8.11-3.7,20.28-1.76,24,.69,1.32,2,4.29,3.4,7.56h.08c-.22,1.85-.46,3.84-.69,5.75l-.17,0c-6.68.71-22.86,2.32-33.46,2.47-10.23.15-22.85-1.72-28.85-2.67l-.33,0c-.35-2.89-.72-5.94-1-8.41h.06c.72-1.88,1.36-3.43,1.81-4.29,1.94-3.7,1.57-15.63.16-23.74-.54-3.08-2.26-6.35-3.65-9.89a36.48,36.48,0,0,1-1.18-3.48,49.72,49.72,0,0,1-1.13-6.09v0c0-6.17,3.81-12.87,9.79-20.36,16.31,8.67,34.19,10.34,54.76,0,5.84,6.34,8.47,14.57,8.06,19.77a.17.17,0,0,1,0,.07,63.79,63.79,0,0,1-1.35,7.81A20.61,20.61,0,0,1,367.93,327.39Z"/><path class="cls-1" d="M365.25,373.74c-.61,5.08-1.17,9.62-1.17,9.62s-.64,12.62-1.27,16.69l.27.26a27.15,27.15,0,0,1-2.19,2c-2.51-1.26-8.16,2.19-9.72,3.29-1.12.78-5,2.9-7.14,4.05l0-.05a8,8,0,0,0-5.14-1.37c-3,.26-4,2.7-4,6.63,0,1,0,1.72.06,2.33a9.7,9.7,0,0,1-.24,4,18.54,18.54,0,0,0-.42,4.36h-.54a18.63,18.63,0,0,0-.42-4.37,9.67,9.67,0,0,1-.24-4c0-.61.06-1.37.06-2.34,0-3.93-1-6.37-4-6.63a8.33,8.33,0,0,0-5,1l-.21.39c-2.12-1.15-6-3.27-7.13-4.05-1.57-1.1-7.22-4.55-9.72-3.29a25.68,25.68,0,0,1-2.31-2.15l.13-.13c-.63-4.07-1.27-16.69-1.27-16.69s-.58-4.65-1.19-9.8l.33,0c6,1,18.62,2.82,28.85,2.67,10.6-.15,26.78-1.76,33.46-2.47Z"/><path class="cls-2" d="M362.32,273.2l-.26.92v23.14c-20.57,10.34-38.45,8.67-54.76,0l-1.17-23.51-.19-.66a80,80,0,0,0,12.87-4.71c3.74-2.12,3-8.27,2.72-14.62l.59-.19c2.61,2.07,6.7,3.81,13.07,3.69,0,0,6.65,0,11.43-3.61l.21.28c-.24,6.34-1,12.5,2.73,14.62A77,77,0,0,0,362.32,273.2Z"/><path class="cls-2" d="M357.45,229.33s.31,5-2.17,8.13c0,0-1.53,1.41-1-2.26l-.33,0c.05-.32.08-.64.11-.94l.36-5.88.33,0C355.43,227.28,356.78,225.62,357.45,229.33Z"/><path class="cls-2" d="M356.65,413.77l-.47,2.83-2,2.19-.47,0c-.19-1.83-.78-2.68-1.39-3.05l0,0a4.92,4.92,0,0,1-.8-3.46l0-.11c.51-.21,1-.42,1.48-.59C355.87,410.48,356.65,413.77,356.65,413.77Z"/><path class="cls-4" d="M313.41,226c-.1.69-.12,1.1-.12,1.1s-5.19-15.66,3.83-23.69A21.11,21.11,0,0,1,324,199.3c8-3,16.51-1.17,19.4-.39.66.18,1,.3,1,.3,18.37,7.36,10.33,27.24,10.33,27.24a5.68,5.68,0,0,0-.12-.78,43.9,43.9,0,0,0-2.12-6.65c-3.78-9.81-17.33-9.83-17.33-9.83C317.18,209.31,314,222.11,313.41,226Z"/><path class="cls-2" d="M354.63,225.67l-.17,2.66-.36,5.88c0,.3-.06.62-.11.94-.55,4-2.37,9.09-2.91,11.58a11.41,11.41,0,0,1-4.46,6.92c-4.78,3.6-11.43,3.61-11.43,3.61-6.37.12-10.46-1.62-13.07-3.69a12.31,12.31,0,0,1-4.41-6.54c-.83-3.06-2.72-8.78-3.26-11.92a8.46,8.46,0,0,1-.14-1.18l-.69-6.1-.21-1.85c.55-3.87,3.77-16.67,21.77-16.79,0,0,13.55,0,17.33,9.83A43.9,43.9,0,0,1,354.63,225.67Zm-11.24,6.21a2.32,2.32,0,1,0-2-2.28A2.16,2.16,0,0,0,343.39,231.88Zm-18.11-.25a2.32,2.32,0,1,0-2-2.28A2.15,2.15,0,0,0,325.28,231.63Z"/><path class="cls-2" d="M346.85,417.29l-2.8-.37a9,9,0,0,0,1.78-2.05s2.89-1.55,5.58-2.7l0,.11a4.92,4.92,0,0,0,.8,3.46l0,0c.61.37,1.2,1.22,1.39,3.05a14.88,14.88,0,0,1,.06,2c-.21,6.49-3.63,5.7-6.91,3.8S345.62,418.68,346.85,417.29Z"/><path class="cls-2" d="M340.66,429h0c0,.49-.1,2.25-1.6,2.27s-2.07-.45-2.23-1.15a1.23,1.23,0,0,1-1.09.89c-1.09-.11-1.47-2.81-1.47-5.42a18.54,18.54,0,0,1,.42-4.36,9.7,9.7,0,0,0,.24-4l2.32-.09c0,.84,1.24,1.36,1.24,1.36a6.46,6.46,0,0,0,5.58-1.56l2.8.37c-1.23,1.39-3.18,5.45,0,7.28,0,0,2.87,3.84-.1,5.41l-.23.08a1.81,1.81,0,0,1-1.93-.53l0,0a2.3,2.3,0,0,1-2.18,1.74C341.09,431.35,340.73,430.46,340.66,429Z"/><path d="M345.36,229.57a2,2,0,1,1-2-2.28A2.16,2.16,0,0,1,345.36,229.57Z"/><path class="cls-4" d="M344.52,198.89l-1.13,0c-2.89-.78-11.4-2.6-19.4.39l-.16-.41c0-5.36,4.63-9.7,10.34-9.7S344.52,193.53,344.52,198.89Z"/><path class="cls-2" d="M344,409.62l0,.05-.64.34a2.07,2.07,0,0,0-1,1.19,7.59,7.59,0,0,1-3.63,4.3c-1.17.61-1.55,1.17-1.55,1.62l-2.32.09c0-.61-.06-1.36-.06-2.33,0-3.93,1-6.37,4-6.63A8,8,0,0,1,344,409.62Z"/><path class="cls-2" d="M327.31,429c-.08,1.44-.43,2.33-1.7,2.27a2.29,2.29,0,0,1-2.18-1.74l0,0a1.83,1.83,0,0,1-1.93.53l-.23-.08a3.61,3.61,0,0,1-.64-.45c-1.86-1.75.54-5,.54-5,3.29-1.9,1-6.22-.17-7.43l1.79-1.4a7,7,0,0,0,6.74,2.74s1.23-.52,1.23-1.35l2.32.09a9.67,9.67,0,0,0,.24,4,18.63,18.63,0,0,1,.42,4.37c0,2.61-.38,5.3-1.47,5.41a1.22,1.22,0,0,1-1.09-.91c-.14.71-.68,1.19-2.23,1.17s-1.6-1.78-1.6-2.27Z"/><path class="cls-2" d="M333.11,414.88c0,1,0,1.73-.06,2.34l-2.32-.09c0-.46-.37-1-1.55-1.63a7.59,7.59,0,0,1-3.63-4.3,2.07,2.07,0,0,0-1-1.19l-.64-.34.21-.39a8.33,8.33,0,0,1,5-1C332.07,408.51,333.11,411,333.11,414.88Z"/><path class="cls-2" d="M304.77,400.18a25.68,25.68,0,0,0,2.31,2.15c2.5-1.26,8.15,2.19,9.72,3.29,1.12.78,5,2.9,7.13,4.05l.64.34a2.07,2.07,0,0,1,1,1.19,7.59,7.59,0,0,0,3.63,4.3c1.18.61,1.55,1.17,1.55,1.63,0,.83-1.23,1.35-1.23,1.35a7,7,0,0,1-6.74-2.74,6.52,6.52,0,0,1-.63-.87s-2.67-1.43-5.26-2.56c-.62-.27-1.23-.52-1.8-.73-3-1.1-3.76,2.19-3.76,2.19l.47,2.83,2,2.19.47,0a14.88,14.88,0,0,0-.06,2c.22,6.49,3.63,5.7,6.91,3.8,0,0-2.4,3.21-.54,5l-.51.86-5,.14a2.92,2.92,0,0,1-1.67-.49l-1.17.2-1.37,0a3.41,3.41,0,0,1-2-.56c-2.14-1.39-5.65-3.25-7.62-4.26a2.85,2.85,0,0,1-1.53-2.31,71.54,71.54,0,0,0-3.14-14.94,37.32,37.32,0,0,1-1.54-4.2c-1.57-7.92-4.89-14.93-7.3-21.62a46.26,46.26,0,0,1-2.63-10.26c-1.12-9.93-2-13.43-2.1-19.16s-.7-17.49-1.26-39.72,2.29-31.15,2.29-31.15c3-6.61,12-6.65,12-6.65a86.27,86.27,0,0,0,9.91-2.36l.19.66,1.17,23.51c-6,7.49-9.78,14.19-9.79,20.36v0a49.72,49.72,0,0,0,1.13,6.09,36.48,36.48,0,0,0,1.18,3.48l0,0s.74,29.13,1.23,34.07c.09.92.24,2.26.43,3.84.28,2.47.65,5.52,1,8.41.61,5.15,1.19,9.8,1.19,9.8s.64,12.62,1.27,16.69Z"/><path d="M327.24,229.32a2,2,0,1,1-2-2.28A2.15,2.15,0,0,1,327.24,229.32Z"/><path class="cls-2" d="M315.8,415.68l-.06-.15a5.6,5.6,0,0,0,1-3l.09-.2c2.59,1.13,5.26,2.56,5.26,2.56a6.52,6.52,0,0,0,.63.87l-1.79,1.4c1.21,1.21,3.46,5.53.17,7.43s-6.69,2.69-6.91-3.8a14.88,14.88,0,0,1,.06-2C314.5,416.86,315.15,416,315.8,415.68Z"/><path class="cls-2" d="M316.87,412.31l-.09.2a5.6,5.6,0,0,1-1,3l.06.15c-.65.34-1.3,1.18-1.51,3.13l-.47,0-2-2.19-.47-2.83s.78-3.29,3.76-2.19C315.64,411.79,316.25,412,316.87,412.31Z"/><path class="cls-2" d="M314.45,235.11l-.22,0c.72,3.64-.87,2.3-.87,2.3-2.6-3-2.51-8-2.51-8,.44-3.22,1.56-2.47,2.3-1.54l.47,0,.69,6.1A8.46,8.46,0,0,0,314.45,235.11Z"/><path class="cls-1" d="M299.74,423.15h0c-1.85-1-15.88,1.38-39.38,2s-26.81-2.47-37.53-4.74-16.29-8.66-17.53-10.31-8.25-23.51,6.19-26.8,76.08-.83,76.08-.83l.22-.08c2.41,6.69,5.73,13.7,7.3,21.62a37.32,37.32,0,0,0,1.54,4.2A71.54,71.54,0,0,1,299.74,423.15Z"/><path class="cls-5" d="M321.53,253.76c.24,6.35,1,12.5-2.72,14.62a80,80,0,0,1-12.87,4.71,86.27,86.27,0,0,1-9.91,2.36s-8.94,0-12,6.65c0,0-2.85,8.91-2.29,31.15s1.12,34,1.26,39.72,1,9.23,2.1,19.16a46.26,46.26,0,0,0,2.63,10.26c2.41,6.69,5.73,13.7,7.3,21.62a37.32,37.32,0,0,0,1.54,4.2,71.54,71.54,0,0,1,3.14,14.94,2.85,2.85,0,0,0,1.53,2.31c2,1,5.48,2.87,7.62,4.26a3.41,3.41,0,0,0,2,.56l1.37,0"/><path class="cls-5" d="M303.67,382.47c5.4,1.92,12.58,6.38,18.13,16.72"/><path class="cls-5" d="M297.51,317.65a49.72,49.72,0,0,0,1.13,6.09,36.48,36.48,0,0,0,1.18,3.48c1.39,3.54,3.11,6.81,3.65,9.89,1.41,8.11,1.78,20-.16,23.74-.45.86-1.09,2.41-1.81,4.29"/><path class="cls-5" d="M293.77,302.2a36.27,36.27,0,0,0,2.12,7.58,34.43,34.43,0,0,1,1.62,7.84"/><path class="cls-5" d="M364.13,381.81c-9.57,2.66-15.54,9.81-18.2,13.73"/><path class="cls-5" d="M370.11,317.1a63.79,63.79,0,0,1-1.35,7.81,20.61,20.61,0,0,1-.83,2.48c-1.32,3.29-3.2,6.18-3.71,9.05-1.41,8.11-3.7,20.28-1.76,24,.69,1.32,2,4.29,3.4,7.56"/><path class="cls-5" d="M373.92,301.54a36.48,36.48,0,0,1-2.12,7.58,33.15,33.15,0,0,0-1.68,7.91"/><path class="cls-5" d="M302.77,373.52c6,1,18.62,2.82,28.85,2.67,10.6-.15,26.78-1.76,33.46-2.47"/><path class="cls-5" d="M320.09,430.39l-5,.14a2.92,2.92,0,0,1-1.67-.49c-2.65-1.79-8.48-5.61-8.48-5.61"/><path class="cls-5" d="M318.59,427.69s-2.73.51-4.14-.43c-1.13-.75-6.76-5.17-6.76-5.17"/><path class="cls-5" d="M313.82,418.79l-2-2.19-.47-2.83s.78-3.29,3.76-2.19c.57.21,1.18.46,1.8.73,2.59,1.13,5.26,2.56,5.26,2.56a6.52,6.52,0,0,0,.63.87,7,7,0,0,0,6.74,2.74s1.23-.52,1.23-1.35c0-.46-.37-1-1.55-1.63a7.59,7.59,0,0,1-3.63-4.3,2.07,2.07,0,0,0-1-1.19l-.64-.34c-2.12-1.15-6-3.27-7.13-4.05-1.57-1.1-7.22-4.55-9.72-3.29a25.68,25.68,0,0,1-2.31-2.15,18.42,18.42,0,0,1-2.55-3.18"/><path class="cls-5" d="M304.9,400.05c-.63-4.07-1.27-16.69-1.27-16.69s-.58-4.65-1.19-9.8c-.35-2.89-.72-5.94-1-8.41-.19-1.58-.34-2.92-.43-3.84-.49-4.94-1.23-34.07-1.23-34.07"/><path class="cls-5" d="M362.81,400.05c.63-4.07,1.27-16.69,1.27-16.69s.56-4.54,1.17-9.62c.23-1.91.47-3.9.69-5.75.32-2.78.6-5.24.75-6.68.48-4.73,1.18-31.66,1.24-33.92v-.15"/><path class="cls-5" d="M317.34,415.58a2,2,0,0,0-1.54.1c-.65.34-1.3,1.18-1.51,3.13a14.88,14.88,0,0,0-.06,2c.22,6.49,3.63,5.7,6.91,3.8s1-6.22-.17-7.43"/><path class="cls-5" d="M324.14,409.28a8.33,8.33,0,0,1,5-1c3,.26,4,2.7,4,6.63,0,1,0,1.73-.06,2.34a9.67,9.67,0,0,0,.24,4,18.63,18.63,0,0,1,.42,4.37c0,2.61-.38,5.3-1.47,5.41a1.22,1.22,0,0,1-1.09-.91,1.12,1.12,0,0,1,0-.32v-2"/><path class="cls-5" d="M321.14,424.57s-2.4,3.21-.54,5a3.61,3.61,0,0,0,.64.45l.23.08a1.83,1.83,0,0,0,1.93-.53,1.77,1.77,0,0,0,.4-.69,13.58,13.58,0,0,0,.5-2.09"/><path class="cls-5" d="M323.43,429.55a2.29,2.29,0,0,0,2.18,1.74c1.27.06,1.62-.83,1.7-2.27,0-.63,0-1.38,0-2.2"/><path class="cls-5" d="M327.32,428.9V429c0,.49.1,2.25,1.6,2.27s2.09-.46,2.23-1.17a3.28,3.28,0,0,0,0-1"/><path class="cls-5" d="M346.83,253.93c-.24,6.34-1,12.5,2.73,14.62a77,77,0,0,0,12.76,4.65,88.45,88.45,0,0,0,9.61,2.25s8.95,0,12,6.65c0,0,2.85,8.91,2.29,31.15s-1.12,34-1.26,39.72-1,9.23-2.09,19.16a45.69,45.69,0,0,1-2.64,10.27c-2.41,6.69-5.73,13.7-7.29,21.61a37.32,37.32,0,0,1-1.54,4.2,70.8,70.8,0,0,0-3.15,14.94,2.83,2.83,0,0,1-1.53,2.31c-2,1-5.48,2.87-7.62,4.26a3.4,3.4,0,0,1-2,.56l-1.38,0"/><path class="cls-5" d="M347.87,430.39l5,.14a3,3,0,0,0,1.68-.49c2.64-1.79,8.47-5.61,8.47-5.61"/><path class="cls-5" d="M349.37,427.69s2.74.51,4.15-.43c1.12-.75,6.75-5.17,6.75-5.17"/><path class="cls-5" d="M354.14,418.79l2-2.19.47-2.83s-.78-3.29-3.76-2.19c-.47.17-1,.38-1.48.59-2.69,1.15-5.58,2.7-5.58,2.7a9,9,0,0,1-1.78,2.05,6.46,6.46,0,0,1-5.58,1.56s-1.24-.52-1.24-1.36c0-.45.38-1,1.55-1.62a7.59,7.59,0,0,0,3.63-4.3,2.07,2.07,0,0,1,1-1.19l.64-.34c2.13-1.15,6-3.27,7.14-4.05,1.56-1.1,7.21-4.55,9.72-3.29a27.15,27.15,0,0,0,2.19-2,19.71,19.71,0,0,0,2.67-3.31"/><path class="cls-5" d="M352.28,415.76c.61.37,1.2,1.22,1.39,3.05a14.88,14.88,0,0,1,.06,2c-.21,6.49-3.63,5.7-6.91,3.8s-1.2-5.89,0-7.28l.14-.15"/><path class="cls-5" d="M350.62,415.58a2,2,0,0,1,1.64.16"/><path class="cls-5" d="M344,409.62a8,8,0,0,0-5.14-1.37c-3,.26-4,2.7-4,6.63,0,1,0,1.72.06,2.33a9.7,9.7,0,0,1-.24,4,18.54,18.54,0,0,0-.42,4.36c0,2.61.38,5.31,1.47,5.42a1.23,1.23,0,0,0,1.09-.89,1.27,1.27,0,0,0,.05-.34v-2"/><path class="cls-5" d="M346.82,424.57s2.87,3.84-.1,5.41l-.23.08a1.81,1.81,0,0,1-1.93-.53,1.77,1.77,0,0,1-.4-.69,13.57,13.57,0,0,1-.49-2.09"/><path class="cls-5" d="M344.54,429.55a2.3,2.3,0,0,1-2.18,1.74c-1.27.06-1.63-.83-1.7-2.27,0-.64,0-1.38,0-2.2"/><path class="cls-5" d="M340.64,428.9V429c0,.49-.1,2.25-1.6,2.27s-2.07-.45-2.23-1.15a3.41,3.41,0,0,1,0-1"/><path class="cls-5" d="M380.39,382.47s61.65-2.47,76.09.83,7.42,25.15,6.18,26.8-6.8,8-17.52,10.31-14,5.36-37.53,4.74-37.54-3-39.39-2"/><path class="cls-5" d="M372.91,404s8.51.24,11.4.11c4.53-.21,12.41-6.62,20.41-7.42,10.31-1,31.34-.21,31.34-.21"/><path class="cls-5" d="M287.54,382.47s-61.65-2.47-76.08.83-7.42,25.15-6.19,26.8,6.81,8,17.53,10.31,14,5.36,37.53,4.74,37.53-3,39.38-2"/><path class="cls-5" d="M295,404s-8.51.24-11.4.11c-4.54-.21-12.41-6.62-20.42-7.42-10.31-1-31.34-.21-31.34-.21"/><path class="cls-5" d="M316.78,412.51a5.6,5.6,0,0,1-1,3"/><path class="cls-5" d="M351.46,412.28a4.92,4.92,0,0,0,.8,3.46l0,0"/><path class="cls-5" d="M323.83,198.89c0-5.36,4.63-9.7,10.34-9.7s10.35,4.34,10.35,9.7"/><path class="cls-5" d="M313.41,226c.55-3.87,3.77-16.67,21.77-16.79,0,0,13.55,0,17.33,9.83a43.9,43.9,0,0,1,2.12,6.65,5.68,5.68,0,0,1,.12.78s8-19.88-10.33-27.24c0,0-.37-.12-1-.3-2.89-.78-11.4-2.6-19.4.39a21.11,21.11,0,0,0-6.87,4.09c-9,8-3.83,23.69-3.83,23.69S313.31,226.67,313.41,226Z"/><path class="cls-5" d="M354.79,228.35c.64-1.07,2-2.73,2.66,1,0,0,.31,5-2.17,8.13,0,0-1.53,1.41-1-2.26"/><path class="cls-5" d="M313.15,227.88c-.74-.93-1.86-1.68-2.3,1.54,0,0-.09,5,2.51,8,0,0,1.59,1.34.87-2.3"/><path class="cls-5" d="M313.31,225.09l.1.89.21,1.85.69,6.1a8.46,8.46,0,0,0,.14,1.18c.54,3.14,2.43,8.86,3.26,11.92a12.31,12.31,0,0,0,4.41,6.54c2.61,2.07,6.7,3.81,13.07,3.69,0,0,6.65,0,11.43-3.61a11.41,11.41,0,0,0,4.46-6.92c.54-2.49,2.36-7.58,2.91-11.58.05-.32.08-.64.11-.94l.36-5.88.17-2.66.07-1.2"/><path class="cls-5" d="M335.88,237.27a4.29,4.29,0,0,1-4.44-.12"/><polyline class="cls-5" points="329.15 244.7 330.09 245.08 333.05 244.21 334.16 244.89 335.39 244.24 338.04 245.18 338.9 244.96"/><line class="cls-5" x1="332.97" y1="249.63" x2="335.53" y2="249.67"/><path class="cls-5" d="M297.51,317.65v0c0-6.17,3.81-12.87,9.79-20.36,16.31,8.67,34.19,10.34,54.76,0,5.84,6.34,8.47,14.57,8.06,19.77a.17.17,0,0,1,0,.07,8.92,8.92,0,0,1-.14,1.07"/><line class="cls-5" x1="307.3" y1="297.26" x2="306.13" y2="273.75"/><line class="cls-5" x1="362.06" y1="297.26" x2="362.06" y2="274.12"/></svg>