<svg id="Layer_1" data-name="Layer 1" xmlns="http://www.w3.org/2000/svg" viewBox="0 0 700 700"><defs><style>.cls-1{fill:#99abcc;}.cls-2{fill:#feae63;}.cls-3{fill:#c4e7f9;}.cls-4{fill:#120c0c;}.cls-5{fill:none;stroke:#000;stroke-linecap:round;stroke-linejoin:round;stroke-width:2.3px;}</style></defs><title>Yoga_poses_2020_color</title><path class="cls-1" d="M476.86,356.19c8.47,4.24,12.06,18.68,8.69,23a83.13,83.13,0,0,1-20,18.36c-10,6.51-32.36,14.91-48,19.26l-1,.3h0l-1.18-3.56h0l3.5-1.21c20.82-7.11,38.27-18.57,45-23.29a5.9,5.9,0,0,0,2.4-6c-1.45-7-5.59-15.79-10.89-24.2C455.34,358.81,468.39,352,476.86,356.19Z"/><path class="cls-2" d="M356.87,429.68l-2.52.58a2.54,2.54,0,0,1-1,0,2.48,2.48,0,0,1-2.08-2,2.28,2.28,0,0,1,0-.45,2.43,2.43,0,0,1,.22-1,2.49,2.49,0,0,1,1.62-1.41l18-4.93-16.45,1.77a2.32,2.32,0,0,1-2.55-2.11c0-.06,0-.12,0-.18A2.31,2.31,0,0,1,354,417.7l2.49-.51L372.19,414l-15-2.85h0a2.57,2.57,0,0,1,.44-5.1l15.4-.19a26.1,26.1,0,0,0,5.21-.61l2.56-.57a25.76,25.76,0,0,1,4-.56l8.05-.48a25.48,25.48,0,0,0,10.09-2.75h0c.54-.26,1.06-.56,1.58-.87,9.37-5.66,28.05-17.45,34.65-25.26l-.2-.19c-.8-.78-4-3.88-7.86-8-5.47-5.82-12.37-13.72-16.12-20.15-4.71-8.08-10.35-12.92-15.53-14.18a4.66,4.66,0,0,0-5.61,3.63L382,327.16l-.31-.05A114.24,114.24,0,0,0,383.19,315q.09-1.69.06-3.54a100.1,100.1,0,0,0-4.36-26.21l2.63-6.44a31.83,31.83,0,0,1,6.73,2.85,124.39,124.39,0,0,1,28.67,23.79c8.14,9.12,11.73,22.15,24.11,34.86a114.76,114.76,0,0,1,14.31,18.47c5.3,8.41,9.44,17.22,10.89,24.2a5.9,5.9,0,0,1-2.4,6c-6.69,4.72-24.14,16.18-45,23.29l-3.5,1.21h0c-23.09,8.11-22.09,10.33-32.66,13.44l-24.57,7.19a2.38,2.38,0,0,1-2.91-1.48,2.21,2.21,0,0,1-.14-.8A2.29,2.29,0,0,1,356.87,429.68Z"/><path class="cls-1" d="M438.94,374.54l.2.19c-6.6,7.81-25.28,19.6-34.65,25.26-.52.31-1,.61-1.58.87,17.12-20.79,35.82-26.13,35.82-26.13Z"/><path class="cls-1" d="M303.92,379.91a62.28,62.28,0,0,0,3-6.82s50.93,10.52,86.61,0a44.79,44.79,0,0,0,2.29,6.82c9.82-4.2,22.39-9.22,35.24-13.4,3.89,4.15,7.06,7.25,7.86,8l-.21.19s-18.7,5.34-35.82,26.13h0a25.48,25.48,0,0,1-10.09,2.75l-8.05.48a25.76,25.76,0,0,0-4,.56l-2.56.57a26.1,26.1,0,0,1-5.21.61l-15.4.19a2.57,2.57,0,0,0-.44,5.1h-2.6a2.82,2.82,0,0,0-2.78,2.35,2.59,2.59,0,0,0,0,.48,2.82,2.82,0,0,0,2.29,2.77l2.45.46s-5.68-.8-5.68,5.69H349c0-6.49-5.68-5.69-5.68-5.69l2.45-.46a2.82,2.82,0,0,0,2.29-2.77,2.59,2.59,0,0,0,0-.48,2.81,2.81,0,0,0-2.78-2.35h-2.63a2.55,2.55,0,0,0,2.1-2.52v-.1a2.58,2.58,0,0,0-2.54-2.48l-15.4-.19a26.1,26.1,0,0,1-5.21-.61l-2.56-.57a25.76,25.76,0,0,0-4-.56l-8.05-.48A25.52,25.52,0,0,1,295.27,400c-17.33-22.22-34.65-25.26-34.65-25.26s3.55-3.4,8.06-8.22C281.53,370.69,294.1,375.71,303.92,379.91Z"/><path class="cls-2" d="M416.55,417.12h0c-14.13,4.09-26.41,11.25-39.53,17.05a25,25,0,0,1-7,1.91c-6.14.74-17.05,1.08-16.57-5.8a2.54,2.54,0,0,0,1,0l2.52-.58a2.29,2.29,0,0,0-1.78,2.23,2.21,2.21,0,0,0,.14.8,2.38,2.38,0,0,0,2.91,1.48L382.71,427c10.57-3.11,9.57-5.33,32.66-13.44Z"/><path class="cls-3" d="M336,362.63A31.25,31.25,0,0,0,366.48,361c6.56-4.17,12.69-11.47,13.28-24.23.53-2.32,1.26-5.83,1.91-9.64l.31.05,11.84,8.65a109.35,109.35,0,0,0-2.1,17.45,71.33,71.33,0,0,0,1.83,19.83c-35.68,10.52-86.61,0-86.61,0a53.16,53.16,0,0,0,3.44-21.35,47.94,47.94,0,0,0-4-17.06l10.4-7.52.42-.13c.83,3.78,1.81,7.18,2.58,9.72.59,12.76,6.71,20.06,13.28,24.23A31.33,31.33,0,0,0,336,362.63Z"/><path class="cls-2" d="M383.25,311.49q0,1.85-.06,3.54a114.24,114.24,0,0,1-1.52,12.08c-.65,3.81-1.38,7.32-1.91,9.64.56-12.12-1.53-20.93-4.82-27.32l1.73-.19S379.89,307.77,383.25,311.49Z"/><path class="cls-3" d="M381.52,278.84l-2.63,6.44c-20.87-7.23-39.8-5.81-60-.56l-2.31-5.33c10.37-3.68,25.48-4.37,30.8-4.51h5C357.42,275,371.26,275.64,381.52,278.84Z"/><path class="cls-4" d="M374.94,309.43c3.29,6.39,5.38,15.2,4.82,27.32-.59,12.76-6.72,20.06-13.28,24.23a31.08,31.08,0,0,1-33.39,0c-6.57-4.17-12.69-11.47-13.28-24.23-.54-11.68,1.37-20.28,4.46-26.61a30.86,30.86,0,0,1,18.37-16.25,22.65,22.65,0,0,1,14.28,0A30.85,30.85,0,0,1,374.94,309.43Zm-11.85,14.24A13.31,13.31,0,1,0,349.78,337,13.31,13.31,0,0,0,363.09,323.67Z"/><path class="cls-2" d="M378.89,285.28a100.1,100.1,0,0,1,4.36,26.21c-3.36-3.72-6.58-2.25-6.58-2.25l-1.73.19a30.85,30.85,0,0,0-18-15.54,22.65,22.65,0,0,0-14.28,0,30.86,30.86,0,0,0-18.37,16.25l-1.37-.9s-3.61-1.64-7.17,2.94l-.33.42c-.07-8.88,1.79-22.34,3.49-27.88C339.09,279.47,358,278.05,378.89,285.28Z"/><path class="cls-2" d="M372.19,414l-15.73,3.21-2.45-.46a2.82,2.82,0,0,1-2.29-2.77,2.59,2.59,0,0,1,0-.48,2.82,2.82,0,0,1,2.78-2.35h2.63Z"/><path class="cls-2" d="M371.13,420.48l-18,4.93a2.49,2.49,0,0,0-1.62,1.41l-.2-.09a16.8,16.8,0,0,1-.52-3.85c0-6.49,5.68-5.69,5.68-5.69l-2.49.51a2.31,2.31,0,0,0-1.85,2.26c0,.06,0,.12,0,.18a2.32,2.32,0,0,0,2.55,2.11Z"/><path class="cls-4" d="M349.78,310.37a13.31,13.31,0,1,1-13.3,13.3A13.31,13.31,0,0,1,349.78,310.37Z"/><path class="cls-2" d="M349,422.88a16.8,16.8,0,0,1-.52,3.85l-.22.1a2.52,2.52,0,0,0-1.63-1.42l-18-4.93,16.45,1.77h.25a2.3,2.3,0,0,0,.46-4.56l-2.46-.5h0S349,416.39,349,422.88Z"/><path class="cls-2" d="M342.89,429.68a2.29,2.29,0,0,1,1.64,3,2.38,2.38,0,0,1-2.24,1.58,2.59,2.59,0,0,1-.67-.1L317.05,427c-10.63-3.13-9.56-5.35-33.06-13.58h0l-3.1-1.07c-20.82-7.11-38.27-18.57-45-23.29a5.9,5.9,0,0,1-2.4-6c1.45-7,5.59-15.79,10.89-24.2a114.76,114.76,0,0,1,14.31-18.47c12.38-12.71,16-25.74,24.11-34.86a124.39,124.39,0,0,1,28.67-23.79,29.76,29.76,0,0,1,5.07-2.3l2.31,5.33c-1.7,5.54-3.56,19-3.49,27.88,0,.86,0,1.67.07,2.43a77.41,77.41,0,0,0,1.76,12l-.42.13-10.4,7.52a4.7,4.7,0,0,0-5-2.72c-5.48.8-11.59,5.73-16.65,14.4-3.75,6.43-10.65,14.33-16.12,20.15-4.51,4.82-8.06,8.22-8.06,8.22,6.6,7.81,25.28,19.6,34.65,25.26a25.52,25.52,0,0,0,11.67,3.63l8.05.48a25.76,25.76,0,0,1,4,.56l2.56.57a26.1,26.1,0,0,0,5.21.61l15.4.19a2.58,2.58,0,0,1,2.54,2.48v.1a2.55,2.55,0,0,1-2.1,2.52L327.57,414l15.76,3.22,2.46.5a2.3,2.3,0,0,1-.46,4.56h-.25l-16.45-1.77,18,4.93a2.52,2.52,0,0,1,1.8,2.86,2.45,2.45,0,0,1-1.41,1.81,2.35,2.35,0,0,1-1,.24,2.76,2.76,0,0,1-.57-.06Z"/><path class="cls-2" d="M348,413.48a2.59,2.59,0,0,1,0,.48,2.82,2.82,0,0,1-2.29,2.77l-2.45.46h0L327.57,414l15.05-2.85h2.63A2.81,2.81,0,0,1,348,413.48Z"/><path class="cls-2" d="M346,430.32a2.35,2.35,0,0,0,1-.24c-.61,6.22-10.07,6.5-16.17,6a26.34,26.34,0,0,1-8.72-2.24c-11.9-5.36-22.46-10.82-38.76-16.16l.61-4.29c23.5,8.23,22.43,10.45,33.06,13.58l24.57,7.19a2.59,2.59,0,0,0,.67.1,2.38,2.38,0,0,0,2.24-1.58,2.29,2.29,0,0,0-1.64-3l2.52.58A2.76,2.76,0,0,0,346,430.32Z"/><path class="cls-2" d="M322.9,309.24l1.37.9c-3.09,6.33-5,14.93-4.46,26.61-.77-2.54-1.75-5.94-2.58-9.72a77.41,77.41,0,0,1-1.76-12c0-.76-.07-1.57-.07-2.43l.33-.42C319.29,307.6,322.9,309.24,322.9,309.24Z"/><path class="cls-1" d="M284,413.41h0l-.61,4.29c-18.37-6-39.2-13.63-49.19-20.14a83.13,83.13,0,0,1-20-18.36c-3.37-4.34.22-18.78,8.69-23s21.52,2.62,21.52,2.62c-5.3,8.41-9.44,17.22-10.89,24.2a5.9,5.9,0,0,0,2.4,6c6.69,4.72,24.14,16.18,45,23.29Z"/><path class="cls-1" d="M295.27,400c-9.37-5.66-28-17.45-34.65-25.26C260.62,374.73,277.94,377.77,295.27,400Z"/><path class="cls-5" d="M347,430.08c-.61,6.22-10.07,6.5-16.17,6a26.34,26.34,0,0,1-8.72-2.24c-11.9-5.36-22.46-10.82-38.76-16.16-18.37-6-39.2-13.63-49.19-20.14a83.13,83.13,0,0,1-20-18.36c-3.37-4.34.22-18.78,8.69-23s21.52,2.62,21.52,2.62"/><path class="cls-5" d="M323,388.55s-7.69-3.76-19.12-8.64c-9.82-4.2-22.39-9.22-35.24-13.4"/><path class="cls-5" d="M353.4,430.29c-.48,6.88,10.43,6.54,16.57,5.8a25,25,0,0,0,7-1.91c13.12-5.8,25.4-13,39.53-17.05l1-.3c15.64-4.35,38-12.75,48-19.26a83.13,83.13,0,0,0,20-18.36c3.37-4.34-.22-18.78-8.69-23s-21.52,2.62-21.52,2.62"/><path class="cls-5" d="M376.72,388.55s7.69-3.76,19.12-8.64c9.82-4.2,22.39-9.22,35.24-13.4"/><path class="cls-5" d="M319.81,336.75c-.77-2.54-1.75-5.94-2.58-9.72a77.41,77.41,0,0,1-1.76-12c0-.76-.07-1.57-.07-2.43-.07-8.88,1.79-22.34,3.49-27.88,20.2-5.25,39.13-6.67,60,.56a100.1,100.1,0,0,1,4.36,26.21q0,1.85-.06,3.54a114.24,114.24,0,0,1-1.52,12.08c-.65,3.81-1.38,7.32-1.91,9.64"/><path class="cls-5" d="M402.91,400.86c.54-.26,1.06-.56,1.58-.87,9.37-5.66,28.05-17.45,34.65-25.26l-.2-.19c-.8-.78-4-3.88-7.86-8-5.47-5.82-12.37-13.72-16.12-20.15-4.71-8.08-10.35-12.92-15.53-14.18a4.66,4.66,0,0,0-5.61,3.63,109.35,109.35,0,0,0-2.1,17.45,71.33,71.33,0,0,0,1.83,19.83,44.79,44.79,0,0,0,2.29,6.82"/><path class="cls-5" d="M357.14,411.13a2.57,2.57,0,0,1,.44-5.1l15.4-.19a26.1,26.1,0,0,0,5.21-.61l2.56-.57a25.76,25.76,0,0,1,4-.56l8.05-.48a25.48,25.48,0,0,0,10.09-2.75"/><path class="cls-5" d="M372.63,426l-15.76,3.66-2.52.58a2.54,2.54,0,0,1-1,0,2.48,2.48,0,0,1-2.08-2,2.28,2.28,0,0,1,0-.45,2.43,2.43,0,0,1,.22-1,2.49,2.49,0,0,1,1.62-1.41l18-4.93-16.45,1.77a2.32,2.32,0,0,1-2.55-2.11c0-.06,0-.12,0-.18A2.31,2.31,0,0,1,354,417.7l2.49-.51L372.19,414l-15-2.85"/><path class="cls-5" d="M415.37,413.56c-23.09,8.11-22.09,10.33-32.66,13.44l-24.57,7.19a2.38,2.38,0,0,1-2.91-1.48,2.21,2.21,0,0,1-.14-.8,2.29,2.29,0,0,1,1.78-2.23"/><path class="cls-5" d="M284,413.41l-3.1-1.07c-20.82-7.11-38.27-18.57-45-23.29a5.9,5.9,0,0,1-2.4-6c1.45-7,5.59-15.79,10.89-24.2a114.76,114.76,0,0,1,14.31-18.47c12.38-12.71,16-25.74,24.11-34.86a124.39,124.39,0,0,1,28.67-23.79,29.76,29.76,0,0,1,5.07-2.3c10.37-3.68,25.48-4.37,30.8-4.51h5c5,.13,18.88.76,29.14,4a31.83,31.83,0,0,1,6.73,2.85,124.39,124.39,0,0,1,28.67,23.79c8.14,9.12,11.73,22.15,24.11,34.86a114.76,114.76,0,0,1,14.31,18.47c5.3,8.41,9.44,17.22,10.89,24.2a5.9,5.9,0,0,1-2.4,6c-6.69,4.72-24.14,16.18-45,23.29l-3.5,1.21"/><path class="cls-5" d="M342.89,429.68a2.29,2.29,0,0,1,1.64,3,2.38,2.38,0,0,1-2.24,1.58,2.59,2.59,0,0,1-.67-.1L317.05,427c-10.63-3.13-9.56-5.35-33.06-13.58"/><path class="cls-5" d="M303.92,379.91a62.28,62.28,0,0,0,3-6.82,53.16,53.16,0,0,0,3.44-21.35,47.94,47.94,0,0,0-4-17.06,4.7,4.7,0,0,0-5-2.72c-5.48.8-11.59,5.73-16.65,14.4-3.75,6.43-10.65,14.33-16.12,20.15-4.51,4.82-8.06,8.22-8.06,8.22,6.6,7.81,25.28,19.6,34.65,25.26a25.52,25.52,0,0,0,11.67,3.63l8.05.48a25.76,25.76,0,0,1,4,.56l2.56.57a26.1,26.1,0,0,0,5.21.61l15.4.19a2.58,2.58,0,0,1,2.54,2.48v.1a2.55,2.55,0,0,1-2.1,2.52L327.57,414l15.76,3.22,2.46.5a2.3,2.3,0,0,1-.46,4.56h-.25l-16.45-1.77,18,4.93a2.52,2.52,0,0,1,1.8,2.86,2.45,2.45,0,0,1-1.41,1.81,2.35,2.35,0,0,1-1,.24,2.76,2.76,0,0,1-.57-.06l-2.52-.58L327.13,426"/><line class="cls-5" x1="378.89" y1="285.28" x2="381.52" y2="278.84"/><line class="cls-5" x1="318.89" y1="284.72" x2="316.58" y2="279.39"/><line class="cls-5" x1="316.81" y1="327.16" x2="306.41" y2="334.68"/><line class="cls-5" x1="381.98" y1="327.16" x2="393.82" y2="335.81"/><path class="cls-5" d="M376.67,309.24s3.22-1.47,6.58,2.25c.19.21.39.44.58.69A180.94,180.94,0,0,0,398,328"/><path class="cls-5" d="M322.9,309.24s-3.61-1.64-7.17,2.94l-.33.42A189,189,0,0,1,301.49,328"/><path class="cls-5" d="M306.94,373.09s50.93,10.52,86.61,0"/><path class="cls-5" d="M260.62,374.73s17.32,3,34.65,25.26"/><polyline class="cls-5" points="283.38 417.71 283.99 413.42 283.99 413.41"/><path class="cls-5" d="M438.73,374.73s-18.7,5.34-35.82,26.13h0"/><polyline class="cls-5" points="416.55 417.12 415.37 413.56 415.37 413.55"/><path class="cls-5" d="M319.81,336.75c.59,12.76,6.71,20.06,13.28,24.23a31.08,31.08,0,0,0,33.39,0c6.56-4.17,12.69-11.47,13.28-24.23.56-12.12-1.53-20.93-4.82-27.32a30.85,30.85,0,0,0-18-15.54,22.65,22.65,0,0,0-14.28,0,30.86,30.86,0,0,0-18.37,16.25C321.18,316.47,319.27,325.07,319.81,336.75Z"/><path class="cls-5" d="M363.09,323.67a13.31,13.31,0,1,1-13.31-13.3A13.31,13.31,0,0,1,363.09,323.67Z"/><path class="cls-5" d="M313.51,354.58s4.07,7.59,14.77,8.45a28.38,28.38,0,0,0,7.74-.4"/><path class="cls-5" d="M383.88,354.58s-4.07,7.59-14.77,8.45a28.23,28.23,0,0,1-6-.13"/><path class="cls-5" d="M342.62,411.13h2.63a2.81,2.81,0,0,1,2.78,2.35,2.59,2.59,0,0,1,0,.48,2.82,2.82,0,0,1-2.29,2.77l-2.45.46s5.68-.8,5.68,5.69a16.8,16.8,0,0,1-.52,3.85"/><path class="cls-5" d="M357.17,411.13h-2.63a2.82,2.82,0,0,0-2.78,2.35,2.59,2.59,0,0,0,0,.48,2.82,2.82,0,0,0,2.29,2.77l2.45.46s-5.68-.8-5.68,5.69a16.8,16.8,0,0,0,.52,3.85"/></svg>