<svg id="Layer_1" data-name="Layer 1" xmlns="http://www.w3.org/2000/svg" viewBox="0 0 700 700"><defs><style>.cls-1{fill:#99abcc;}.cls-2{fill:#c4e7f9;}.cls-3{fill:#feae63;}.cls-4{fill:#392328;}.cls-5{fill:none;stroke:#000;stroke-linecap:round;stroke-linejoin:round;stroke-width:2.3px;}</style></defs><title>Yoga_poses_2020_color</title><path class="cls-1" d="M403.42,441.79l.32-.67a127.55,127.55,0,0,0-1.41-16.18c-1-7-.44-21.76-.65-28.91s-1.68-15.33-4.2-16.8-8.82-9.66-9.45-19.53,7.56-20.59,3.15-29.83a18.73,18.73,0,0,0-1.71-2.87c.4-.23,9.26-5.3,14.63-7a70.25,70.25,0,0,1,22.2-2.67,35.53,35.53,0,0,1,7.74,1.34l.24-.1c5.84,13.58,8.09,27.42,8.94,37.5.93,10.9,6.27,29.23,2.32,50.8a273.47,273.47,0,0,1-14.38,50.11c-3.48,8.35-1.86,11.14-19.25,11.37s-21.11,1.62-33.41,1.85c-11.21.22-37.47-1.12-46.58-1v-.88c-3.33-5.37-1-19.94-1-19.94l-.05-.34c3.11-.45,7-1.07,10.53-1.73,7.33-1.36,27.7-6.9,35.79-7.49C377.15,438.78,393.71,437.38,403.42,441.79Z"/><path class="cls-2" d="M434.28,318.53l-.24.1a35.53,35.53,0,0,0-7.74-1.34A70.25,70.25,0,0,0,404.1,320c-5.37,1.74-14.23,6.81-14.63,7-5.46-7.68-16.58-12.91-22-14.78-5-1.74-16-2.76-23.19-2,0,0-1.61-10.73-6.39-18.44-4.56-7.35-13.81-9.66-20.06-10.37l0-.16c1.57-7.06,2.84-14.23,2.84-14.23,7.66-5.44,14.1-9.57,19.48-10.27,9.66-1.26,18.87,3.68,26.76,4.15,0,0,11.79.52,15.28,2.49,4.56,2.57,13.72,13,19.29,16.53s24.35,20.65,31.31,35.26Q433.58,316.87,434.28,318.53Z"/><path class="cls-3" d="M327.1,316.24c1.33,10.22,3.71,35.45,4.56,41.89.91,7-.61,13.73-1.22,24.41s-2.75,43.31-3.05,47.28c-.26,3.34.35,7.34-3.11,11.44a16.88,16.88,0,0,1-2.38,2.28,9.31,9.31,0,0,1-4.44,2.06l-5.39,2.76-3.57,3.23a2.78,2.78,0,0,1-3.76-4l1.19-1.56-.12-.1-14.33,8a1.85,1.85,0,0,1-2.36-.48,1.82,1.82,0,0,1-.4-1.14,1.87,1.87,0,0,1,.72-1.47L295,446.4l6.9-6.28a16.08,16.08,0,0,1,3.72-4.58c2.05-1.47,10.57-7.06,11-11.77,0,0,1.32-8.1-.27-21.18,0,0-1.64-24.39-1.18-35.82,0,0-3.19-11.83-6.56-23.56-.79-2.74-1.59-5.47-2.35-8-.87-2.88-1.69-5.57-2.43-7.85-.87-2.7-1.61-4.82-2.14-6-2.66-6-5.71-9.09-5.46-19.84,0-1.63.15-3.44.35-5.46a19.86,19.86,0,0,1,1.94-7.08c4.12-8.09,12.89-7.75,12.89-7.75a42.06,42.06,0,0,1,6.34.26c6.25.71,15.5,3,20.06,10.37,4.78,7.71,6.39,18.44,6.39,18.44a21.64,21.64,0,0,0-3.9.72,96.15,96.15,0,0,0-13,5.25Z"/><path class="cls-3" d="M279.66,462.48a3.7,3.7,0,0,1,.71-3.19,10.12,10.12,0,0,1,2.28-2.42,71.92,71.92,0,0,1,6.47-3.51,1.85,1.85,0,0,0,2.36.48l14.33-8,.12.1-1.19,1.56a2.78,2.78,0,0,0,3.76,4l3.57-3.23,5.39-2.76a9.31,9.31,0,0,0,4.44-2.06,16.88,16.88,0,0,0,2.38-2.28l.38.07s1.36.17.85,3.41a34.72,34.72,0,0,0-.51,4.09s2.45-.32,5.83-.83l.05.34s-2.3,14.57,1,19.94v.88c-.88,0-1.6,0-2.13.08-6,.46-28.07.46-32.25-1.16-3.83-1.49-10.79-1.92-16.35-.57a2.71,2.71,0,0,1-2.61-.73l-1.35-1.49a1.34,1.34,0,0,1,.56-2.17Z"/><path class="cls-3" d="M320.66,267s-1.27,7.17-2.84,14.23l0,.16a42.06,42.06,0,0,0-6.34-.26s-8.77-.34-12.89,7.75h0s.8-5.35,9.68-12.76c1.13-.94,2.38-1.91,3.78-2.91C315.05,271.07,317.94,269,320.66,267Z"/><path class="cls-4" d="M290.83,340l-.31-1c.91-.29,1.84-.63,2.79-1a20.51,20.51,0,0,0,3.93-2.63l.06.08c3.78-2.4,6.76-1.85,8.74-.26l.27-.08c.76,2.58,1.56,5.31,2.35,8l-.29.08c-1.72,4.53-7.43,9.18-13.14,5.93S290.45,341.38,290.83,340Z"/><path class="cls-3" d="M295.6,301.45c-.44,4.34-5.5,5.54-5.5,5.54H290a8.27,8.27,0,0,1-.08,1.9c-2.2,5.46-6,.82-6,.82-2.26-.67-6.31,0-9.28,3.37s-3.11,6.87-7.4,8.5c-2.17.83-11.65,5.17-11.65,5.17v-1.85s-1.95-8.73-.73-14c1-4.16,2.4-4.57,1-7.58l-1.44-5.82h5.16l3-9.63c-.18-.93-.25-8,10-4,0,0,6.33,1.86,10.77-1.59,0,0,7-5.69,13.41-6s11.31-.38,11.31-.38l.18.21c-8.88,7.41-9.68,12.76-9.68,12.76h0a19.86,19.86,0,0,0-1.94,7.08c-.2,2-.32,3.83-.35,5.46Zm-33.69,6.43c.39-1.39.22-2.64-.38-2.81s-1.4.81-1.79,2.19-.22,2.65.38,2.82S261.52,309.26,261.91,307.88Z"/><path class="cls-4" d="M303.88,327.31h0a27.21,27.21,0,0,1-6.61,8.1,20.51,20.51,0,0,1-3.93,2.63c-.95.38-1.88.72-2.79,1-14.45,4.68-24.07-1.57-35-10.89v-1.41s9.48-4.34,11.65-5.17c4.29-1.63,4.42-5.14,7.4-8.5s7-4,9.28-3.37c0,0,3.84,4.64,6-.82A8.27,8.27,0,0,0,290,307h.15s5.06-1.2,5.5-5.54h.68c-.25,10.75,2.8,13.85,5.46,19.84C302.27,322.49,303,324.61,303.88,327.31Z"/><path class="cls-3" d="M279.66,462.48l-1.87.64a1.34,1.34,0,0,0-.56,2.17l1.35,1.49a2.79,2.79,0,0,0,.42.35l0,.18-5.73-.11-.6-1.06a1.67,1.67,0,0,1,.46-2.19,6.13,6.13,0,0,1,3.08-1.17Z"/><path d="M261.53,305.07c.6.17.77,1.42.38,2.81s-1.19,2.37-1.79,2.2-.77-1.43-.38-2.82S260.93,304.9,261.53,305.07Z"/><path class="cls-5" d="M283.83,309.72s3.84,4.64,6-.82A8.27,8.27,0,0,0,290,307a8,8,0,0,0-3.7-6.53s-2.95-1.28-2.13,2.58"/><path class="cls-5" d="M285,295.62s.45-5.34-3.92-7.25"/><path class="cls-5" d="M255.5,326.76s9.48-4.34,11.65-5.17c4.29-1.63,4.42-5.14,7.4-8.5s7-4,9.28-3.37"/><path class="cls-5" d="M331.66,297.43s-6.1,8.54-4.88,16.47c.1.65.21,1.43.32,2.34,1.33,10.22,3.71,35.45,4.56,41.89.91,7-.61,13.73-1.22,24.41s-2.75,43.31-3.05,47.28c-.26,3.34.35,7.34-3.11,11.44a16.88,16.88,0,0,1-2.38,2.28,9.31,9.31,0,0,1-4.44,2.06l-5.39,2.76-3.57,3.23a2.78,2.78,0,0,1-3.76-4l1.19-1.56h0l.87-1.15,7.89-6.14"/><path class="cls-5" d="M306,335.24c-2-1.59-5-2.14-8.74.26"/><path class="cls-5" d="M291,339.63s-.05.14-.12.39c-.38,1.36-1.16,6,4.4,9.2s11.42-1.4,13.14-5.93"/><path class="cls-5" d="M303.85,327.32a27.21,27.21,0,0,1-6.61,8.1,20.51,20.51,0,0,1-3.93,2.63c-.95.38-1.88.72-2.79,1-14.45,4.68-24.07-1.57-35-10.89v-3.26s-1.95-8.73-.73-14c1-4.16,2.4-4.57,1-7.58l-1.44-5.82h5.16l3-9.63c-.18-.93-.25-8,10-4,0,0,6.33,1.86,10.77-1.59,0,0,7-5.69,13.41-6s11.31-.38,11.31-.38"/><path class="cls-5" d="M292.53,296.59a15.49,15.49,0,0,0,3.07,4.86c-.44,4.34-5.5,5.54-5.5,5.54"/><path class="cls-5" d="M324.66,441.33s1.36.17.85,3.41a34.72,34.72,0,0,0-.51,4.09s2.45-.32,5.83-.83c3.11-.45,7-1.07,10.53-1.73,7.33-1.36,27.7-6.9,35.79-7.49,0,0,16.56-1.4,26.27,3a15,15,0,0,1,4.06,2.61"/><path class="cls-5" d="M327.32,316.21a96.15,96.15,0,0,1,13-5.25,21.64,21.64,0,0,1,3.9-.72c7.19-.78,18.15.24,23.19,2,5.45,1.87,16.57,7.1,22,14.78a18.73,18.73,0,0,1,1.71,2.87c4.41,9.24-3.78,19.95-3.15,29.83s6.93,18.06,9.45,19.53,4,9.66,4.2,16.8-.33,21.94.65,28.91a127.55,127.55,0,0,1,1.41,16.18"/><path class="cls-5" d="M289.12,453.36a71.92,71.92,0,0,0-6.47,3.51,10.12,10.12,0,0,0-2.28,2.42,3.7,3.7,0,0,0-.71,3.19l-1.87.64a1.34,1.34,0,0,0-.56,2.17l1.35,1.49a2.71,2.71,0,0,0,2.61.73c5.56-1.35,12.52-.92,16.35.57,4.18,1.62,26.21,1.62,32.25,1.16.53,0,1.25-.07,2.13-.08,9.11-.12,35.37,1.22,46.58,1,12.3-.23,16-1.62,33.41-1.85s15.77-3,19.25-11.37a273.47,273.47,0,0,0,14.38-50.11c3.95-21.57-1.39-39.9-2.32-50.8-.85-10.08-3.1-23.92-8.94-37.5q-.7-1.66-1.5-3.33c-7-14.61-25.75-31.78-31.31-35.26s-14.73-14-19.29-16.53c-3.49-2-15.28-2.49-15.28-2.49-7.89-.47-17.1-5.41-26.76-4.15-5.38.7-11.82,4.83-19.48,10.27-2.72,1.93-5.61,4-8.65,6.2-1.4,1-2.65,2-3.78,2.91-8.88,7.41-9.68,12.76-9.68,12.76"/><path class="cls-5" d="M279,467.31l-5.73-.11-.6-1.06a1.67,1.67,0,0,1,.46-2.19,6.13,6.13,0,0,1,3.08-1.17l3.47-.3a12.21,12.21,0,0,0,2.92-1.91"/><path class="cls-5" d="M389.46,327h0c.4-.23,9.26-5.3,14.63-7a70.25,70.25,0,0,1,22.2-2.67,35.53,35.53,0,0,1,7.74,1.34"/><path class="cls-5" d="M305.81,445.88l-14.33,8a1.85,1.85,0,0,1-2.36-.48,1.82,1.82,0,0,1-.4-1.14,1.87,1.87,0,0,1,.72-1.47L295,446.4l6.9-6.28a16.08,16.08,0,0,1,3.72-4.58c2.05-1.47,10.57-7.06,11-11.77,0,0,1.32-8.1-.27-21.18,0,0-1.64-24.39-1.18-35.82,0,0-3.19-11.83-6.56-23.56-.79-2.74-1.59-5.47-2.35-8-.87-2.88-1.69-5.57-2.43-7.85-.87-2.7-1.61-4.82-2.14-6-2.66-6-5.71-9.09-5.46-19.84,0-1.63.15-3.44.35-5.46a19.86,19.86,0,0,1,1.94-7.08c4.12-8.09,12.89-7.75,12.89-7.75a42.06,42.06,0,0,1,6.34.26c6.25.71,15.5,3,20.06,10.37,4.78,7.71,6.39,18.44,6.39,18.44"/><path class="cls-5" d="M330.88,448.34s-2.3,14.57,1,19.94"/><path class="cls-5" d="M280.24,459.21s-4.22.48-5.37,3.64"/><path class="cls-5" d="M320.66,267s-1.27,7.17-2.84,14.23"/></svg>