<svg id="Layer_1" data-name="Layer 1" xmlns="http://www.w3.org/2000/svg" viewBox="0 0 700 700"><defs><style>.cls-1{fill:#392328;}.cls-2{fill:#feae63;}.cls-3{fill:#c4e7f9;}.cls-4{fill:#99abcc;}.cls-5{fill:none;stroke:#000;stroke-linecap:round;stroke-linejoin:round;stroke-width:2.3px;}</style></defs><title>Yoga_poses_2020_color</title><path class="cls-1" d="M490.91,332.12c2.69,4.2,1.64,13.58-5.84,14.67s-9.28-4.93-9.28-4.93l-.63-.4c.37-.57.73-1.16,1.09-1.78a23.33,23.33,0,0,0,2-5C481.27,326.26,489,329.12,490.91,332.12Z"/><path class="cls-1" d="M477.38,317.34a25.93,25.93,0,0,1,.88,17.36,23.33,23.33,0,0,1-2,5c-.36.62-.72,1.21-1.09,1.78-8.46,13.18-18.86,13.32-33.5,12.69l-.87-1.11s4.8-9.25,6-11.24c2.38-3.93.33-6.77.61-11.25s3.06-7.5,5.25-8.37c0,0,5.88,1.3,4.26-4.36a8.71,8.71,0,0,0-1.1-1.55l.11-.1s.75-1,.06-4.55c0,0-2.09-4.9,1.35-7.37,1.53-1.11,4.88-1.17,7.48.35A34.5,34.5,0,0,1,477.38,317.34Z"/><path class="cls-2" d="M434.93,299c1.91,4.91,2.63,11.59-.31,21.22a62.83,62.83,0,0,0-2.3,12l-.12,0c-.55.23-.6,1.43-.11,2.71-.21,3.08-.27,6.21-.21,9.34.24,15.9,3.19,31.88,2.74,41.71-.68,15,1.52,45.62,1.52,45.62,3.42,2.54,14.44,3.2,18,3.86s19.59,1.88,19.59,1.88l-.63,1.74c2.34.16,4.1.25,4.1.25v.4a2.06,2.06,0,0,1-2.06,2.06H469.7l0,.26c2.23.34,4,.56,4,.56l-.47.71a2.1,2.1,0,0,1-1.74.93H463s-.18,1.64-1.45,1.64-7.66-.36-12-2.37c0,0-18.4.55-20.59-1.64s-7.23-6.54-11.13-34.71c0,0-5.57-22.6-5.36-29.34s-2.6-32.84-3.69-40.74c-.73-5.33.21-18.59.91-26.69l-.62,0s-11.37-13.31-4.85-37.2c0,0,3.48-10,11.29-10A60.51,60.51,0,0,1,429.84,269h0C450.75,287.59,434.93,299,434.93,299Z"/><path class="cls-2" d="M455.81,316.27a8.71,8.71,0,0,1,1.1,1.55c1.62,5.66-4.26,4.36-4.26,4.36-2.19.87-5,3.9-5.25,8.37s1.77,7.32-.61,11.25c-1.2,2-6,11.24-6,11.24l-1.14-1.46a51.4,51.4,0,0,1-7.13-7.32h-.64c-.06-3.13,0-6.26.21-9.34a.69.69,0,0,0,.05.13c.54,1.33,1.45,2.22,2,2s.61-1.51.06-2.84-1.33-2.1-1.91-2a62.83,62.83,0,0,1,2.3-12c2.94-9.63,2.22-16.31.31-21.22,0,0,15.82-11.36-5.08-29.92,9.23,5.44,13,12.39,16,20,4.23,10.7,11.43,15.25,11.43,15.25-3.44,2.47-1.35,7.37-1.35,7.37.69,3.51-.06,4.55-.06,4.55Z"/><path d="M434.23,334.21c.55,1.33.52,2.6-.06,2.84s-1.49-.66-2-2a.69.69,0,0,1-.05-.13c.06-.92.14-1.83.23-2.74C432.9,332.11,433.73,333,434.23,334.21Z"/><path d="M432.2,332.22l.12,0c-.09.91-.17,1.82-.23,2.74C431.6,333.65,431.65,332.45,432.2,332.22Z"/><path class="cls-3" d="M409,310.35l-10.06,3c-16.07,5.9-23-10.24-23-10.24-13.62,0-27.05,8.17-35,16.44-.09-.23-3.44-7.7-12.1-17.64a61.9,61.9,0,0,1-11.95-21.09,174.14,174.14,0,0,1,16.69-9c51-24.76,81.92-8.68,81.92-8.68-7.81,0-11.29,10-11.29,10C397.62,297,409,310.35,409,310.35Z"/><path class="cls-4" d="M328.77,301.92c8.66,9.94,12,17.41,12.1,17.64-4.5,4.66-7.27,9.35-7.36,12.63-.27,9.08,2.43,35.65-2.35,71.27s-16.09,36.63-16.09,36.63c-23.46,1.3-71.73-2.79-71.73-2.79a71.76,71.76,0,0,0-14.77-.68l0-.68c-1-4.26,0-16.41,0-16.41l-.08-.46c15.16-2.79,50.12-8.49,69.47-5.95,0,0-8.88-26.16-9.32-56.14-.17-12.16-8.25-29.1-.87-48.39,4.1-10.71,17.76-20.85,29.1-27.76A61.9,61.9,0,0,0,328.77,301.92Z"/><path class="cls-2" d="M173.44,438.07l0,.05-5.81-.15a1.41,1.41,0,0,1-1.37-1.6,4.08,4.08,0,0,1,3.46-3.64c2.19-.44,3.13.25,3.13.25a14,14,0,0,1,6.42-3.22c3.87-.77,13.61-8,15.46-10.4s7.59-11.43,13.78-9.19,4.63,11.49,12.6,10.31c0,0,2.77-.57,7.35-1.41l.08.46s-1,12.15,0,16.41l0,.68c-8.39.56-13.43,2.74-23.16,2.5-14.27-.34-21.9-1.46-27-.62A9.69,9.69,0,0,1,173.44,438.07Z"/><path class="cls-5" d="M452.65,322.18s5.88,1.3,4.26-4.36a8.71,8.71,0,0,0-1.1-1.55,8,8,0,0,0-6.94-2.87s-3.12.8-.1,3.34"/><path class="cls-5" d="M444.9,310.35s-2.92-4.49-7.55-3.32"/><path class="cls-5" d="M440.79,353s4.8-9.25,6-11.24c2.38-3.93.33-6.77.61-11.25s3.06-7.5,5.25-8.37"/><path class="cls-5" d="M475.79,341.86s1.8,6,9.28,4.93,8.53-10.47,5.84-14.67c-1.91-3-9.64-5.86-12.65,2.58"/><path class="cls-5" d="M455.92,316.17s.75-1,.06-4.55c0,0-2.09-4.9,1.35-7.37,1.53-1.11,4.88-1.17,7.48.35a34.5,34.5,0,0,1,12.57,12.74,25.93,25.93,0,0,1,.88,17.36,23.33,23.33,0,0,1-2,5c-.36.62-.72,1.21-1.09,1.78-8.46,13.18-18.86,13.32-33.5,12.69l-.87-1.11-1.14-1.46a51.4,51.4,0,0,1-7.13-7.32"/><path class="cls-5" d="M451.66,439.51s3.09,1.46,4.92,2.55a32,32,0,0,0,6.37,2.19s-.18,1.64-1.45,1.64-7.66-.36-12-2.37c0,0-18.4.55-20.59-1.64s-7.23-6.54-11.13-34.71c0,0-5.57-22.6-5.36-29.34s-2.6-32.84-3.69-40.74c-.73-5.33.21-18.59.91-26.69.33-3.92.61-6.63.61-6.63"/><path class="cls-5" d="M463,444.25h8.54a2.1,2.1,0,0,0,1.74-.93l.47-.71s-1.81-.22-4-.56c-1.84-.29-4-.67-5.61-1.08-3.65-.91-5.65-1.64-5.65-1.64"/><path class="cls-5" d="M469.7,441.79h5.41a2.06,2.06,0,0,0,2.06-2.06v-.4s-1.76-.09-4.1-.25c-3.38-.23-8-.59-10.12-1"/><path class="cls-5" d="M473.07,439.08l.63-1.74s-16.06-1.22-19.59-1.88-14.55-1.32-18-3.86c0,0-2.2-30.63-1.52-45.62.45-9.83-2.5-25.81-2.74-41.71-.06-3.13,0-6.26.21-9.34.06-.92.14-1.83.23-2.74a62.83,62.83,0,0,1,2.3-12c2.94-9.63,2.22-16.31.31-21.22a24.59,24.59,0,0,0-1-2.25"/><path class="cls-5" d="M173.56,435a2.51,2.51,0,0,0-3,1.32,7.77,7.77,0,0,0,2.84,1.76,9.69,9.69,0,0,0,5,.43c5.06-.84,12.69.28,27,.62,9.73.24,14.77-1.94,23.16-2.5a71.76,71.76,0,0,1,14.77.68s48.27,4.09,71.73,2.79c0,0,11.31-1,16.09-36.63s2.08-62.19,2.35-71.27c.09-3.28,2.86-8,7.36-12.63,8-8.27,21.42-16.44,35-16.44,0,0,6.95,16.14,23,10.24l10.06-3s-11.37-13.31-4.85-37.2c0,0,3.48-10,11.29-10,0,0-30.93-16.08-81.92,8.68a174.14,174.14,0,0,0-16.69,9c-11.34,6.91-25,17.05-29.1,27.76-7.38,19.29.7,36.23.87,48.39.44,30,9.32,56.14,9.32,56.14-19.35-2.54-54.31,3.16-69.47,5.95-4.58.84-7.35,1.41-7.35,1.41-8,1.18-6.41-8.07-12.6-10.31s-11.93,6.82-13.78,9.19-11.59,9.63-15.46,10.4a14,14,0,0,0-6.42,3.22s-.94-.69-3.13-.25a4.08,4.08,0,0,0-3.46,3.64,1.41,1.41,0,0,0,1.37,1.6l5.81.15"/><path class="cls-5" d="M228.52,419.53s-1,12.15,0,16.41"/><path class="cls-5" d="M429.84,269a60.51,60.51,0,0,0-14.41-5.86"/><path class="cls-5" d="M457.33,304.25s-7.2-4.55-11.43-15.25c-3-7.58-6.82-14.53-16-20"/><path class="cls-5" d="M434.93,299s15.82-11.36-5.08-29.92h0"/><path class="cls-5" d="M340.88,319.57h0c-.09-.23-3.44-7.7-12.1-17.64a61.9,61.9,0,0,1-11.95-21.09"/></svg>