<svg id="Layer_1" data-name="Layer 1" xmlns="http://www.w3.org/2000/svg" viewBox="0 0 700 700"><defs><style>.cls-1{fill:#feae63;}.cls-2{fill:#99abcc;}.cls-3{fill:#392328;}.cls-4{fill:#c4e7f9;}.cls-5{fill:none;stroke:#000;stroke-linecap:round;stroke-linejoin:round;stroke-width:2.3px;}</style></defs><title>Yoga_poses_2020_color</title><path class="cls-1" d="M475.48,371.72a25.12,25.12,0,0,1,.17,16c-3.26,10.64-13.68,11.95-15.2,19.33s-1,12.74-5.87,16.66l0,.18L440,421c-8.5-5.15-13-4.23-13-4.23s1.94-10.27-1.08-17.49c6.15-.13,11.33-.87,19.09-5.74,11.08-7,17.65-7.87,22-14.22a21.93,21.93,0,0,0,3.81-8.2,1.77,1.77,0,0,1,1.73-1.49A3.14,3.14,0,0,1,475.48,371.72Z"/><path class="cls-1" d="M316,369.64C290.87,358.26,304.76,334,304.76,334c.31,0,33.59.05,39.92,21.75,2,8.64,3.54,23.67,6.3,30.91a89.54,89.54,0,0,0,4.74,10.15c3.37,6.28,6.68,11.15,6.68,11.15,6,.17,13.67,2.12,21.65,2.77,7.1.58,28.1,2.19,32.67,2.54a6.46,6.46,0,0,1,1.73.38l8.51,3.1,9.87,3.6L440,421l14.56,2.9,4.69.94a1.53,1.53,0,0,1-.3,3H449.7v.48a1.52,1.52,0,0,1-1.64,1.51l-27-2a6.45,6.45,0,0,1-3.58-1.4,6.57,6.57,0,0,0-4.19-1.43c-1.31,0-3.18.13-5.72.4-5.95.66-42.6,2.29-48.79,2.29s-13.36-.33-15-4a27.48,27.48,0,0,0-2.3-3.81c-2.85-4.17-7.74-10.6-13.67-20.53a89.89,89.89,0,0,1-6-12.76c-1.57-4-3-8-4.2-11.76C317,373,316.48,371.26,316,369.64Z"/><path class="cls-2" d="M425.88,399.29c3,7.22,1.08,17.49,1.08,17.49l-8.51-3.1a6.46,6.46,0,0,0-1.73-.38c-4.57-.35-25.57-2-32.67-2.54-8-.65-15.62-2.6-21.65-2.77,0,0-3.31-4.87-6.68-11.15l3-.63,4,1.21a55.49,55.49,0,0,0,5.59.86l1.74.63,1.32.48s35,.36,45.82,0C420.47,399.29,423.27,399.34,425.88,399.29Z"/><path class="cls-3" d="M401.91,353.7c4.51,2.13,8.61,10.63,2.85,15.53s-10.48.75-10.48.75h-.67c0-.88,0-1.8,0-2.74a20.31,20.31,0,0,0-1.13-4.58l.1,0C390.63,353.86,398.69,352.17,401.91,353.7Z"/><path class="cls-3" d="M393.6,367.23c0,.94,0,1.86,0,2.74-.46,15.33-9.64,22.29-22.2,29.42l-1.32-.48s-.85-10.38-.89-12.7c-.07-4.6-3.32-5.92-5.46-9.86s-1.4-8,0-9.88c0,0,5.68-2,1.3-6a8.24,8.24,0,0,0-1.77-.73l.05-.14s.68-5.33-3.32-7.05a38.61,38.61,0,0,1-6.23-3.62c-1.18-1.08-1.65-2-1.57-2.74.24-2.49,6.39-3.3,12.42-2.89a38,38,0,0,1,17.5,5.89,27.73,27.73,0,0,1,10.36,13.42A20.31,20.31,0,0,1,393.6,367.23Z"/><path class="cls-1" d="M363.26,359.78a8.24,8.24,0,0,1,1.77.73c4.38,3.94-1.3,6-1.3,6-1.39,1.9-2.13,5.94,0,9.88s5.39,5.26,5.46,9.86c0,2.32.89,12.7.89,12.7l-1.74-.63a55.49,55.49,0,0,1-5.59-.86l-4-1.21-3,.63A89.54,89.54,0,0,1,351,386.69c-2.76-7.24-4.3-22.27-6.3-30.91-6.33-21.7-39.61-21.75-39.92-21.75,0,0-2.92-4.5-1.32-8l0-.57c5.57.14,12.13,1.25,20.71,3.75,8,2.34,15.74,10.12,15.74,10.12,5.89,5.94,6.95,5.48,12.2,6.92h.08c-.08.76.39,1.66,1.57,2.74a38.61,38.61,0,0,0,6.23,3.62c4,1.72,3.32,7.05,3.32,7.05Zm-3,31.67c.06-.62-1.06-1.23-2.5-1.35s-2.63.28-2.69.9,1.07,1.22,2.5,1.35S360.25,392.07,360.3,391.45Z"/><path d="M357.8,390.1c1.44.12,2.56.73,2.5,1.35s-1.26,1-2.69.9-2.55-.73-2.5-1.35S356.37,390,357.8,390.1Z"/><path class="cls-2" d="M300.06,383.78c8.64.44,15.75,1.24,21.6,2.91l.16-.06a89.89,89.89,0,0,0,6,12.76c5.93,9.93,10.82,16.36,13.67,20.53l-.15.1a146.29,146.29,0,0,0-19.92-1.33c-15,0-43,4-56,4s-49,5-61-7-7-42,13-53l5.12-2.84s11.88,4.84,21.88,9.84a31.62,31.62,0,0,1,13.83,13.11C275.14,383.26,288.88,383.22,300.06,383.78Z"/><path class="cls-4" d="M316,369.64c.49,1.62,1,3.38,1.63,5.23,0,0-9.12,8.11-17.56,8.91-11.18-.56-24.92-.52-41.78-1a31.62,31.62,0,0,0-13.83-13.11c-10-5-21.88-9.84-21.88-9.84,18.82-10.51,39.85-23,52.4-27.49,10.75-3.89,17.84-7.17,28.49-6.92l0,.57c-1.6,3.52,1.32,8,1.32,8S290.87,358.26,316,369.64Z"/><path class="cls-5" d="M244.45,382.69h10l3.83.11c16.86.46,30.6.42,41.78,1,8.64.44,15.75,1.24,21.6,2.91"/><path class="cls-5" d="M352.11,346.23c-5.25-1.44-6.31-1-12.2-6.92,0,0-7.75-7.78-15.74-10.12-8.58-2.5-15.14-3.61-20.71-3.75-10.65-.25-17.74,3-28.49,6.92-12.55,4.53-33.58,17-52.4,27.49l-5.12,2.84c-20,11-25,41-13,53s48,7,61,7,41-4,56-4A146.29,146.29,0,0,1,341.37,420"/><path class="cls-5" d="M258.28,382.81h0a31.62,31.62,0,0,0-13.83-13.11c-10-5-21.88-9.84-21.88-9.84"/><path class="cls-5" d="M363.73,366.47s5.68-2,1.3-6a8.24,8.24,0,0,0-1.77-.73,8,8,0,0,0-7.39,1.26s-2.22,2.34,1.69,2.88"/><path class="cls-5" d="M370.09,398.91s-.85-10.38-.89-12.7c-.07-4.6-3.32-5.92-5.46-9.86s-1.4-8,0-9.88"/><path class="cls-5" d="M382.11,349.23a38,38,0,0,0-17.5-5.89c-6-.41-12.18.4-12.42,2.89-.08.76.39,1.66,1.57,2.74a38.61,38.61,0,0,0,6.23,3.62c4,1.72,3.32,7.05,3.32,7.05"/><path class="cls-5" d="M394.28,370s4.72,4.16,10.48-.75,1.66-13.4-2.85-15.53c-3.22-1.53-11.28.16-9.34,8.91"/><path class="cls-5" d="M382.11,349.23a27.73,27.73,0,0,1,10.36,13.42,20.31,20.31,0,0,1,1.13,4.58c0,.94,0,1.86,0,2.74-.46,15.33-9.64,22.29-22.2,29.42l-1.32-.48-1.74-.63a55.49,55.49,0,0,1-5.59-.86l-4-1.21-3,.63"/><path class="cls-5" d="M313.19,359.64s1,4.14,2.8,10c.49,1.62,1,3.38,1.63,5.23,1.21,3.74,2.63,7.8,4.2,11.76a89.89,89.89,0,0,0,6,12.76c5.93,9.93,10.82,16.36,13.67,20.53a27.48,27.48,0,0,1,2.3,3.81c1.62,3.65,8.79,4,15,4s42.84-1.63,48.79-2.29c2.54-.27,4.41-.37,5.72-.4a6.57,6.57,0,0,1,4.19,1.43,6.45,6.45,0,0,0,3.58,1.4l27,2a1.52,1.52,0,0,0,1.64-1.51v-.71a1.53,1.53,0,0,0-1.22-1.49l-11.81-2.42"/><path class="cls-5" d="M317.62,374.87s-9.12,8.11-17.56,8.91H300"/><path class="cls-5" d="M352.93,365.84s-4,.59-5.59,3.8"/><path class="cls-5" d="M371.41,399.39s35,.36,45.82,0c3.24-.1,6-.05,8.65-.1,6.15-.13,11.33-.87,19.09-5.74,11.08-7,17.65-7.87,22-14.22a21.93,21.93,0,0,0,3.81-8.2,1.77,1.77,0,0,1,1.73-1.49,3.14,3.14,0,0,1,3,2.08,25.12,25.12,0,0,1,.17,16c-3.26,10.64-13.68,11.95-15.2,19.33s-1,12.74-5.87,16.66"/><path class="cls-5" d="M316,369.64C290.87,358.26,304.76,334,304.76,334s-2.92-4.5-1.32-8"/><path class="cls-5" d="M304.76,334c.31,0,33.59.05,39.92,21.75,2,8.64,3.54,23.67,6.3,30.91a89.54,89.54,0,0,0,4.74,10.15c3.37,6.28,6.68,11.15,6.68,11.15,6,.17,13.67,2.12,21.65,2.77,7.1.58,28.1,2.19,32.67,2.54a6.46,6.46,0,0,1,1.73.38l8.51,3.1,9.87,3.6L440,421l14.56,2.9,4.69.94a1.53,1.53,0,0,1-.3,3H449.7"/><path class="cls-5" d="M440,421c-8.5-5.15-13-4.23-13-4.23s1.94-10.27-1.08-17.49"/></svg>