<svg id="Layer_1" data-name="Layer 1" xmlns="http://www.w3.org/2000/svg" viewBox="0 0 700 700"><defs><style>.cls-1{fill:#392328;}.cls-2{fill:#feae63;}.cls-3{fill:#99abcc;}.cls-4{fill:#c4e7f9;}.cls-5{fill:none;stroke:#000;stroke-linecap:round;stroke-linejoin:round;stroke-width:2.3px;}</style></defs><title>Yoga_poses_2020_color</title><path class="cls-1" d="M426,285c3.26-.36,10.66,5.62,5.64,12.18-4.78,6.26-11.61,4.68-14.33.16A24.64,24.64,0,0,0,426,285Z"/><path class="cls-1" d="M427.47,274.36A34.56,34.56,0,0,1,426,285a24.64,24.64,0,0,1-8.69,12.34,37.89,37.89,0,0,1-10.21,5.45,18,18,0,0,1-13,0c-1.91-.82-1.14-3.73,0-4.57a12.53,12.53,0,0,1,4.9-2.35c.19,0,.38,0,.56-.09a9.12,9.12,0,0,0,2.52-.82c4.88-2.33,3.65-7.63,3.65-7.63-1-6.14,7.43-16.6,7.43-16.6,8-12.67-4.47-21.2-5.07-21.6a10.8,10.8,0,0,1,3.69.64C427.47,257,427.47,274.36,427.47,274.36Z"/><path class="cls-2" d="M398.93,295.84a12.53,12.53,0,0,0-4.9,2.35s-11.74,4.23-18.86,13.46a10.43,10.43,0,0,0-2.23,6.83l-22.1,12.65s-7.22-.46-9.28-3.92c5.27-4.77,17.94-15.89,26.47-20.65a2,2,0,0,0-1.9-3.52l-.64-.83-.1-.12h0l1.12-.85a1.55,1.55,0,0,0-1.4-2.72l-21,6.5-10.29,1.87s-2.54-7.76-2-11.95l26.69-17.14c2.28,2.07,4.18,3.64,5.08,4.53l5.93-2.72c-5.83-7.16-.06-11.37-.06-11.37,5.6-4.46,13.22-12.49,17.66-13.32s5.83-3.39,8-3.91,3.57-.8,3.57-.8a33.49,33.49,0,0,1,9.3-1.11h0c.6.4,13,8.93,5.07,21.6,0,0-8.43,10.46-7.43,16.6,0,0,1.23,5.3-3.65,7.63a9.12,9.12,0,0,1-2.52.82A5.43,5.43,0,0,0,398.93,295.84Zm-2.15-28.79c1.77-.9,2.94-2.15,2.61-2.79s-2-.4-3.79.51-2.94,2.15-2.62,2.79S395,268,396.78,267.05Zm-5.86-8.44c1.37-.71,2.29-1.69,2-2.18s-1.57-.32-2.95.39-2.29,1.69-2,2.18S389.54,259.32,390.92,258.61Z"/><path d="M399.39,264.26c.33.64-.84,1.89-2.61,2.79s-3.47,1.14-3.8.51.85-1.88,2.62-2.79S399.07,263.63,399.39,264.26Z"/><path d="M393,256.43c.26.49-.66,1.47-2,2.18s-2.71.88-3,.39.66-1.47,2-2.18S392.7,255.94,393,256.43Z"/><path class="cls-2" d="M349.31,349.66s-3.62-.09-6.92-.34c3.06-2.07,8.45-18.19,8.45-18.19l22.1-12.65a17.52,17.52,0,0,0,3.63,9.83c5.38,7.16,3.75,16.45-1.95,23.94s-8.83,10.43-12.32,15.48c-1.81,2.63-4.31,7.82-8.24,14.15a108.85,108.85,0,0,1-12.43,16.59,8.23,8.23,0,0,1-6.07,2.65H332a4.68,4.68,0,0,1-4.62-4.09c-.44-3.61-1.1-9.37-1.76-16.27-.31-3.28-.36-8.64-.24-14.82.09-5.32.3-11.25.55-16.95.33-7.71.73-15,1-19.89a9.53,9.53,0,0,1,5-7.88l4.12-2.19h0l30-16a2,2,0,0,1,2.73.87,2,2,0,0,1-.83,2.65c-8.53,4.76-21.2,15.88-26.47,20.65a9.4,9.4,0,0,0-3,5.45l-.28,1.67A71.54,71.54,0,0,0,339,349a134.93,134.93,0,0,0,2.87,14.92S346.53,355.17,349.31,349.66Z"/><path class="cls-2" d="M313.51,276.43c-1.14.12-2.33.25-3.56.4a29.28,29.28,0,0,1-11.19-.44c1,1.59,2,3.17,3,4.66a79.94,79.94,0,0,0,5.58,7.75c3.27,3.68,11.07,12.17,15.23,16.68a7.31,7.31,0,0,0,6.67,2.24l4.61-.84L344.14,305l21-6.5a1.55,1.55,0,0,1,1.4,2.72l-1.12.85h0l.1.12.64.83-30,16h0l-5.87,1.68a10,10,0,0,1-8.92-1.75L310,310.06c-8.09-5.2-16.31-12.83-23.33-20-8.85-9-15.83-17.28-18.37-19.09-4.56-3.26-2.77-6.72-2.77-6.72,8.14-12.91,37.79-9.08,43.33-8.92s18.9-1.3,26.23-1.14,11.07,8.31,11.07,8.31c2.84,6.07,8.24,11.52,12.39,15.29l-26.69,17.14s-21-8.93-26.86-15l8.56-3.46Z"/><path class="cls-3" d="M354.06,381.88s10.46,3.44,7,14.35S345.16,436.81,335,452.11c-5.94,9-10.42,20.76-12.7,27.44l-.27-.09s-14.94,1.17-20.53-4c1.2-3.64,2.33-7.13,3.25-10,3.69-11.73,3.38-22.55,6.14-32.91,2.6-9.77,17.75-31.44,17.75-31.44l-.75-.06.15-2.05a4.63,4.63,0,0,0,3.89,2.11h3.59a8.23,8.23,0,0,0,6.07-2.65A108.85,108.85,0,0,0,354.06,381.88Z"/><path class="cls-2" d="M347.78,510.59l4,1.56a1.21,1.21,0,0,1,.77,1.12v.37a1.4,1.4,0,0,1-.06.41,1.63,1.63,0,0,1-1.51,1.24l-4.14.2h0a1.56,1.56,0,0,1-1.55,1.34h-.89a5.35,5.35,0,0,1-2.38-.57l-1-.49a1.42,1.42,0,0,0-.63-.15,1.49,1.49,0,0,0-.82.25,2.4,2.4,0,0,1-1.38.4l-40.15-1.13a5.56,5.56,0,0,1-5.39-5.67c.06-3.52.29-7.85,1-10.12.95-3.1,4.64-14,7.88-23.86,5.59,5.14,20.53,4,20.53,4l.27.09c-1.08,3.18-1.66,5.2-1.66,5.2-2.19,10.56,13.9,15.32,23.42,19.32a52,52,0,0,0,13.44,3.83,2.33,2.33,0,0,1,1.48.79,2.37,2.37,0,0,1,.59,1.57,2.46,2.46,0,0,1-2.47,2.47l-.13-.05a1.82,1.82,0,0,0,.13-.7v-.28a1.2,1.2,0,0,0-.83-1.14l-7.55-2.49Z"/><path class="cls-2" d="M357.14,511.7V512a1.82,1.82,0,0,1-.13.7,2.07,2.07,0,0,1-2,1.39h-2.48l-.06,0a1.4,1.4,0,0,0,.06-.41v-.37a1.21,1.21,0,0,0-.77-1.12l-4-1.56,1-2.52,7.55,2.49A1.2,1.2,0,0,1,357.14,511.7Z"/><path class="cls-4" d="M350.84,331.13s-5.39,16.12-8.45,18.19c-1.26-.08-2.47-.19-3.42-.33h0a71.54,71.54,0,0,1-.67-14.66l.28-1.67a9.4,9.4,0,0,1,3-5.45C343.62,330.67,350.84,331.13,350.84,331.13Z"/><path class="cls-4" d="M336.06,319l-4.12,2.19a9.53,9.53,0,0,0-5,7.88c-.28,4.88-.68,12.18-1,19.89h0a27,27,0,0,1-6.75-2.62,9.84,9.84,0,0,0-4-1.27c-4.2-.34-13.71-.41-27.57,3.65,0,0-16-10-24.34-14s-16.95-12.9-19.06-16.22c9.35-6.94,18.5-12.7,23.41-15.73,12.38-7.63,19-12.69,19-12.69h0c7,7.17,15.24,14.8,23.33,20l11.32,8.9a10,10,0,0,0,8.92,1.75Z"/><path class="cls-4" d="M333.85,306.88l-4.61.84a7.31,7.31,0,0,1-6.67-2.24c-4.16-4.51-12-13-15.23-16.68a79.94,79.94,0,0,1-5.58-7.75h0L305,279.9c5.87,6.1,26.86,15,26.86,15C331.31,299.12,333.85,306.88,333.85,306.88Z"/><path class="cls-3" d="M285.64,349.44c18.73,6.3,39.65,16.5,39.65,16.5h.06c-.12,6.18-.07,11.54.24,14.82.66,6.9,1.32,12.66,1.76,16.27a4.64,4.64,0,0,0,.73,2l-.15,2.05c-6-.43-46.28-3.55-77.38-9.87-33.66-6.85-37.36-21.18-36.06-38.45.79-10.42,15.47-23.69,29.7-34.25,2.11,3.32,10.7,12.21,19.06,16.22s24.34,14,24.34,14l-1.91.58Z"/><path class="cls-5" d="M417.27,297.31c2.72,4.52,9.55,6.1,14.33-.16,5-6.56-2.38-12.54-5.64-12.18"/><path class="cls-5" d="M392.15,261.24a4,4,0,0,1-3.65,1l-5.62.35,1.46,4.62"/><path class="cls-5" d="M400.94,288.8s5.7,2.3,1.07,6.13a9.12,9.12,0,0,1-2.52.82c-.18,0-.37.06-.56.09A8,8,0,0,1,392.7,294s-2.16-2.47,1.84-2.86"/><path class="cls-5" d="M402,294.93c4.88-2.33,3.65-7.63,3.65-7.63-1-6.14,7.43-16.6,7.43-16.6,8-12.67-4.47-21.2-5.07-21.6"/><path class="cls-5" d="M399.49,295.75a5.43,5.43,0,0,0-.56.09,12.53,12.53,0,0,0-4.9,2.35c-1.14.84-1.91,3.75,0,4.57a18,18,0,0,0,13,0,37.89,37.89,0,0,0,10.21-5.45A24.64,24.64,0,0,0,426,285a34.56,34.56,0,0,0,1.51-10.61s0-17.33-15.76-24.62a10.8,10.8,0,0,0-3.69-.64h0a33.49,33.49,0,0,0-9.3,1.11s-1.37.28-3.57.8-3.59,3.07-8,3.91-12.06,8.86-17.66,13.32c0,0-5.77,4.21.06,11.37l-5.93,2.72c-.9-.89-2.8-2.46-5.08-4.53-4.15-3.77-9.55-9.22-12.39-15.29,0,0-3.74-8.15-11.07-8.31s-20.69,1.3-26.23,1.14-35.19-4-43.33,8.92c0,0-1.79,3.46,2.77,6.72,2.54,1.81,9.52,10.09,18.37,19.09,7,7.17,15.24,14.8,23.33,20l11.32,8.9a10,10,0,0,0,8.92,1.75l5.87-1.68"/><path class="cls-5" d="M387.08,287.54s-6,1.1-8.63-3.64"/><path class="cls-5" d="M371,302.76s8.31-2.1,16.48-5"/><path class="cls-5" d="M394,298.19s-11.74,4.23-18.86,13.46a10.43,10.43,0,0,0-2.23,6.83,17.52,17.52,0,0,0,3.63,9.83c5.38,7.16,3.75,16.45-1.95,23.94s-8.83,10.43-12.32,15.48c-1.81,2.63-4.31,7.82-8.24,14.15a108.85,108.85,0,0,1-12.43,16.59,8.23,8.23,0,0,1-6.07,2.65H332a4.68,4.68,0,0,1-4.62-4.09c-.44-3.61-1.1-9.37-1.76-16.27-.31-3.28-.36-8.64-.24-14.82.09-5.32.3-11.25.55-16.95.33-7.71.73-15,1-19.89a9.53,9.53,0,0,1,5-7.88l4.12-2.19h0l30-16a2,2,0,0,1,2.73.87,2,2,0,0,1-.83,2.65c-8.53,4.76-21.2,15.88-26.47,20.65a9.4,9.4,0,0,0-3,5.45l-.28,1.67A71.54,71.54,0,0,0,339,349a134.93,134.93,0,0,0,2.87,14.92,43.18,43.18,0,0,0,1.51,5c2,4.89,3.91,10.56,3.91,10.56"/><path class="cls-5" d="M341.83,363.91s4.7-8.74,7.48-14.25a.41.41,0,0,0,.05-.09,2.57,2.57,0,0,0-.69-3.17"/><path class="cls-5" d="M349.31,349.66s-3.62-.09-6.92-.34c-1.26-.08-2.47-.19-3.42-.33"/><path class="cls-5" d="M325.89,349a27,27,0,0,1-6.75-2.62,9.84,9.84,0,0,0-4-1.27c-4.2-.34-13.71-.41-27.57,3.65l-1.91.58"/><path class="cls-5" d="M366.13,303l-.64-.83-.1-.12a2.1,2.1,0,0,0-2.35-.55l-15.46,6.24"/><path class="cls-5" d="M320.05,283.9a16.53,16.53,0,0,0,3.81-4.92,2.3,2.3,0,0,0-2.26-3.08c-1.72.06-4.63.2-8.09.53-1.14.12-2.33.25-3.56.4a29.28,29.28,0,0,1-11.19-.44"/><path class="cls-5" d="M290.24,262.5s4.13,7,8.52,13.89c1,1.59,2,3.17,3,4.66a79.94,79.94,0,0,0,5.58,7.75c3.27,3.68,11.07,12.17,15.23,16.68a7.31,7.31,0,0,0,6.67,2.24l4.61-.84L344.14,305l21-6.5a1.55,1.55,0,0,1,1.4,2.72l-1.12.85"/><path class="cls-5" d="M286.61,290.07s-6.63,5.06-19,12.69c-4.91,3-14.06,8.79-23.41,15.73-14.23,10.56-28.91,23.83-29.7,34.25-1.3,17.27,2.4,31.6,36.06,38.45,31.1,6.32,71.42,9.44,77.38,9.87l.75.06s-15.15,21.67-17.75,31.44c-2.76,10.36-2.45,21.18-6.14,32.91-.92,2.89-2.05,6.38-3.25,10-3.24,9.85-6.93,20.76-7.88,23.86-.7,2.27-.93,6.6-1,10.12a5.56,5.56,0,0,0,5.39,5.67l40.15,1.13a2.4,2.4,0,0,0,1.38-.4,1.49,1.49,0,0,1,.82-.25,1.42,1.42,0,0,1,.63.15l1,.49a5.35,5.35,0,0,0,2.38.57h.89a1.56,1.56,0,0,0,1.55-1.34,1.79,1.79,0,0,0,0-.23,1.21,1.21,0,0,0-.64-1.06l-2.88-1.56"/><path class="cls-5" d="M346.19,510l1.59.62,4,1.56a1.21,1.21,0,0,1,.77,1.12v.37a1.4,1.4,0,0,1-.06.41,1.63,1.63,0,0,1-1.51,1.24l-4.14.2"/><path class="cls-5" d="M348.76,508.07l7.55,2.49a1.2,1.2,0,0,1,.83,1.14V512a1.82,1.82,0,0,1-.13.7,2.07,2.07,0,0,1-2,1.39h-2.48"/><path class="cls-5" d="M357.14,512.73a2.46,2.46,0,0,0,2.47-2.47,2.37,2.37,0,0,0-.59-1.57,2.33,2.33,0,0,0-1.48-.79,52,52,0,0,1-13.44-3.83c-9.52-4-25.61-8.76-23.42-19.32,0,0,.58-2,1.66-5.2,2.28-6.68,6.76-18.47,12.7-27.44,10.12-15.3,22.64-45,26.06-55.88s-7-14.35-7-14.35"/><path class="cls-5" d="M325.29,365.94s-20.92-10.2-39.65-16.5A103.38,103.38,0,0,0,268.41,345"/><path class="cls-5" d="M287.59,348.75s-16-10-24.34-14-16.95-12.9-19.06-16.22"/><path class="cls-5" d="M322.07,479.46s-14.94,1.17-20.53-4"/><path class="cls-5" d="M372.94,318.48l-22.1,12.65s-7.22-.46-9.28-3.92"/><path class="cls-5" d="M333.85,306.88s-2.54-7.76-2-11.95l26.69-17.14"/><path class="cls-5" d="M331.81,294.93s-21-8.93-26.86-15l-3.18,1.15"/><line class="cls-5" x1="304.95" y1="279.9" x2="313.51" y2="276.44"/><path class="cls-5" d="M350.84,331.13s-5.39,16.12-8.45,18.19h0"/></svg>