<svg id="Layer_1" data-name="Layer 1" xmlns="http://www.w3.org/2000/svg" viewBox="0 0 700 700"><defs><style>.cls-1{fill:#feae63;}.cls-2{fill:#99abcc;}.cls-3{fill:#392328;}.cls-4{fill:#c4e7f9;}.cls-5{fill:none;stroke:#000;stroke-linecap:round;stroke-linejoin:round;stroke-width:2.3px;}</style></defs><title>Yoga_poses_2020_color</title><path class="cls-1" d="M366.26,303.93h0s1.12,6.9,0,18.86a29,29,0,0,1-.65,4c-1.67,7-6.59,14.43-20,12.9-22.55-2.56-10.49-32.61-10.08-33.6v0a165.13,165.13,0,0,1,17.79-23.85,81.27,81.27,0,0,1,8.52-8,74.32,74.32,0,0,0,13.23-13.87,182.24,182.24,0,0,0,10.48-15.54,36.37,36.37,0,0,0,3.88-8.32c2.56-9.78,6.42-16.74,16.72-37.08,0,0,5.15-13.13,5.66-16a6.78,6.78,0,0,0-1.51-3.9c-1.61-2.24-4.81-7.29-5-8.65s-2.08-5.12-3.2-6.56-4-4.65-4-4.65.72-2.72,4.09-1.28,4.16,4,5.44,6.25,2.4,3.52,4.16-.24,2.73-5.29,2.81-7.37.8-16.58,2.64-17.94a1.81,1.81,0,0,1,3,1.68c-.24,1.45-1.2,14.26-1.2,15.86s2.17,1.44,3.29-2.08,5.84-14.26,7.84-15,2.57,1,1.93,2.57-3.21,7.84-4,9.44-2.64,5.37-2.48,6.09,1.44.08,4.08-4,5.05-9.85,7.37-8.65.24,4.32-1.6,6.88-5.77,8.81-6.25,10.33.64,2.09,2.89.4,6.08-4.8,7.76-4.8,1.92,1.92-.4,3.68-6.08,4.89-7.52,6.17-1.53,7-3,10.17-3.36,5.36-5.28,12.09c0,0-7.68,32.15-9.3,39.19s-4.61,15.45-8.68,19.52a37.52,37.52,0,0,0-4.42,6.07c-3.64,5.81-7.85,13.75-11,18.38C386.62,278.5,372.81,292.75,366.26,303.93Z"/><path class="cls-1" d="M402.11,279.72l1.63,5.77-5.16.16-2.73,9.73c.18.82.44,6.49-6.8,5.16l-5.86-.78s-6.21,5.2-8.05,9.56a88.62,88.62,0,0,0-2.44,21.44,19,19,0,0,1-7.08-4,29,29,0,0,0,.65-4c1.12-12,0-18.86,0-18.86h0c6.55-11.18,20.36-25.43,24.07-30.84,3.18-4.63,7.39-12.57,11-18.38l.26.16.11,3.26s2.22,8.66,1.18,14C402.09,276.3,400.65,276.75,402.11,279.72Zm-4.05-3.82c.35-1.39.14-2.65-.47-2.8s-1.37.86-1.72,2.26-.14,2.65.47,2.8S397.71,277.3,398.06,275.9Z"/><path d="M397.59,273.1c.61.15.82,1.41.47,2.8s-1.12,2.41-1.72,2.26-.82-1.41-.47-2.8S397,273,397.59,273.1Z"/><path class="cls-2" d="M319.55,407.25c12.09,4.05,30.39,10.51,40.16,15.39,15.18,7.59,34.85,19.78,36,27.64s-1.57,13.55-5.91,21.68-6.05,14.71-17.09,30.09C362.37,516.43,359,525.16,359,525.16a53.55,53.55,0,0,0-3.13,7.87l-.45,0s-10.86-.49-17.77-3.06l-.55-.21c2.32-6,7.23-19,8.67-25,1.9-8,4.46-26,23.82-44.78,0,0-7.67-3.15-10.75-3.6-14-2.06-18.42-1.66-34.64-4.23s-43.65-15.34-49.31-20.75-18.88-22.42,5.58-45.07c2.55-2.36,4.82-4.48,6.85-6.41,19,2,25.85,9.35,28.81,12.13a111,111,0,0,0,9.31,7.18l.45.45a93.07,93.07,0,0,0-6.27,7.27Z"/><path class="cls-1" d="M385.48,553.8a1.26,1.26,0,0,1,1.2,1.4c-.14,1.31-.65,3.1-2.44,2.9l-.35,0a5.39,5.39,0,0,0-.72-.93l-4.85-1.33.58-2.81c1.29.23,2.86.46,4.36.58Z"/><path class="cls-3" d="M385.45,244.72l.11.06a182.24,182.24,0,0,1-10.48,15.54,74.32,74.32,0,0,1-13.23,13.87,81.27,81.27,0,0,0-8.52,8c-5.11-6.7-2.26-18.66-2.26-18.66a27.71,27.71,0,0,1,9-14.92,14.48,14.48,0,0,0,2.13-1.62h0c.39-.26,8.15-5.28,19.79-3.19A23.16,23.16,0,0,1,385.45,244.72Z"/><path class="cls-1" d="M383.89,558.13c.44.75.66,1.71-.84,2a8.91,8.91,0,0,1-4.74-.48h-.06a1.79,1.79,0,0,0-.56-1.62,13,13,0,0,0-2.15-1.19l2.78-1,4.85,1.33A5.39,5.39,0,0,1,383.89,558.13Z"/><path class="cls-1" d="M372.69,560l.49.56a.74.74,0,0,1-.41,1.21,8,8,0,0,1-4.07-.47c-6.16,1.27-21.47-1.6-27.84-1.72s-11.32.42-13.84-4,6.46-17.17,8.88-22.63c0,0,.48-1.22,1.24-3.18l.55.21c6.91,2.57,17.77,3.06,17.77,3.06l.45,0a9.64,9.64,0,0,0-.37,2.08c-.11,2.61,0,11.8,16.3,16.34l4.2,1.06s1.2.27,2.86.55l-.58,2.81-2.78,1a13,13,0,0,1,2.15,1.19,1.79,1.79,0,0,1,.56,1.62,4.08,4.08,0,0,1-.22,1,7.88,7.88,0,0,1-5.32-.68Z"/><path class="cls-4" d="M372.7,330.76c.29,10.84,3.57,22.32-4.84,31.8s-9.75,13.28-15.72,17.62c-5,3.65-15.19,8-26.21,19.48l-.45-.45a111,111,0,0,1-9.31-7.18c-3-2.78-9.79-10.17-28.81-12.13,17.5-16.6,17.8-19.41,31.22-44.31,5.52-10.27,11.14-20.32,16.95-29.49-.41,1-12.47,31,10.08,33.6,13.42,1.53,18.34-5.93,20-12.9A19,19,0,0,0,372.7,330.76Z"/><path class="cls-3" d="M364,237.21c3.33,3.55.75,7.44-1.84,9.8h0a23.28,23.28,0,0,0-2.13,1.62l-.44.25c-7.4,5-12-1.82-11.74-5.38a10.51,10.51,0,0,1,5.95-8.42A8.92,8.92,0,0,1,364,237.21Z"/><path class="cls-5" d="M377,291.57a6.24,6.24,0,0,0,3.43,3.6"/><path class="cls-5" d="M362.18,247a14.48,14.48,0,0,1-2.13,1.62l-.44.25"/><path class="cls-5" d="M359.61,248.89c-7.4,5-12-1.82-11.74-5.38a10.51,10.51,0,0,1,5.95-8.42A8.92,8.92,0,0,1,364,237.21c3.33,3.55.75,7.44-1.84,9.8"/><path class="cls-5" d="M401.62,254.87l.11,3.26s2.22,8.66,1.18,14c-.82,4.19-2.26,4.64-.8,7.61l1.63,5.77-5.16.16-2.73,9.73c.18.82.44,6.49-6.8,5.16l-5.86-.78s-6.21,5.2-8.05,9.56a88.62,88.62,0,0,0-2.44,21.44c.29,10.84,3.57,22.32-4.84,31.8s-9.75,13.28-15.72,17.62c-5,3.65-15.19,8-26.21,19.48a93.07,93.07,0,0,0-6.27,7.27"/><path class="cls-5" d="M353.4,282.31l-.07-.09c-5.11-6.7-2.26-18.66-2.26-18.66a27.71,27.71,0,0,1,9-14.92,23.28,23.28,0,0,1,2.13-1.62h0c.39-.26,8.15-5.28,19.79-3.19a23.16,23.16,0,0,1,3.46.9"/><path class="cls-5" d="M335.54,306.07a165.13,165.13,0,0,1,17.79-23.85,81.27,81.27,0,0,1,8.52-8,74.32,74.32,0,0,0,13.23-13.87,182.24,182.24,0,0,0,10.48-15.54,36.37,36.37,0,0,0,3.88-8.32c2.56-9.78,6.42-16.74,16.72-37.08,0,0,5.15-13.13,5.66-16a6.78,6.78,0,0,0-1.51-3.9c-1.61-2.24-4.81-7.29-5-8.65s-2.08-5.12-3.2-6.56-4-4.65-4-4.65.72-2.72,4.09-1.28,4.16,4,5.44,6.25,2.4,3.52,4.16-.24,2.73-5.29,2.81-7.37.8-16.58,2.64-17.94a1.81,1.81,0,0,1,3,1.68c-.24,1.45-1.2,14.26-1.2,15.86s2.17,1.44,3.29-2.08,5.84-14.26,7.84-15,2.57,1,1.93,2.57-3.21,7.84-4,9.44-2.64,5.37-2.48,6.09,1.44.08,4.08-4,5.05-9.85,7.37-8.65.24,4.32-1.6,6.88-5.77,8.81-6.25,10.33.64,2.09,2.89.4,6.08-4.8,7.76-4.8,1.92,1.92-.4,3.68-6.08,4.89-7.52,6.17-1.53,7-3,10.17-3.36,5.36-5.28,12.09c0,0-7.68,32.15-9.3,39.19s-4.61,15.45-8.68,19.52a37.52,37.52,0,0,0-4.42,6.07c-3.64,5.81-7.85,13.75-11,18.38-3.71,5.41-17.52,19.66-24.07,30.84a27.82,27.82,0,0,0-3.22,7.36"/><path class="cls-5" d="M368.33,557.7l2.15.25a1.32,1.32,0,0,1,.85.45l1.36,1.55.49.56a.74.74,0,0,1-.41,1.21,8,8,0,0,1-4.07-.47c-6.16,1.27-21.47-1.6-27.84-1.72s-11.32.42-13.84-4,6.46-17.17,8.88-22.63c0,0,.48-1.22,1.24-3.18,2.32-6,7.23-19,8.67-25,1.9-8,4.46-26,23.82-44.78,0,0-7.67-3.15-10.75-3.6-14-2.06-18.42-1.66-34.64-4.23s-43.65-15.34-49.31-20.75-18.88-22.42,5.58-45.07c2.55-2.36,4.82-4.48,6.85-6.41,17.5-16.6,17.8-19.41,31.22-44.31,5.52-10.27,11.14-20.32,16.95-29.49"/><path class="cls-5" d="M372.71,559.93a7.88,7.88,0,0,0,5.32.68,4.08,4.08,0,0,0,.22-1,1.79,1.79,0,0,0-.56-1.62,13,13,0,0,0-2.15-1.19c-1.08-.5-2.1-.91-2.1-.91"/><path class="cls-5" d="M378.31,559.64a8.91,8.91,0,0,0,4.74.48c1.5-.28,1.28-1.24.84-2a5.39,5.39,0,0,0-.72-.93l-4.85-1.33"/><path class="cls-5" d="M307.67,403.39c.39.09,5.18,1.6,11.88,3.86,12.09,4.05,30.39,10.51,40.16,15.39,15.18,7.59,34.85,19.78,36,27.64s-1.57,13.55-5.91,21.68-6.05,14.71-17.09,30.09C362.37,516.43,359,525.16,359,525.16a53.55,53.55,0,0,0-3.13,7.87,9.64,9.64,0,0,0-.37,2.08c-.11,2.61,0,11.8,16.3,16.34l4.2,1.06s1.2.27,2.86.55c1.29.23,2.86.46,4.36.58l2.22.16a1.26,1.26,0,0,1,1.2,1.4c-.14,1.31-.65,3.1-2.44,2.9"/><path class="cls-5" d="M355.46,533s-10.86-.49-17.77-3.06"/><path class="cls-5" d="M335.54,306.07v0c-.41,1-12.47,31,10.08,33.6,13.42,1.53,18.34-5.93,20-12.9a29,29,0,0,0,.65-4c1.12-12,0-18.86,0-18.86"/><path class="cls-5" d="M325.48,399.21a111,111,0,0,1-9.31-7.18c-3-2.78-9.79-10.17-28.81-12.13"/><path class="cls-5" d="M372.7,330.76a19,19,0,0,1-7.08-4"/></svg>