<svg id="Layer_1" data-name="Layer 1" xmlns="http://www.w3.org/2000/svg" viewBox="0 0 700 700"><defs><style>.cls-1{fill:#392328;}.cls-2{fill:#feae63;}.cls-3{fill:#c4e7f9;}.cls-4{fill:#99abcc;}.cls-5{fill:none;stroke:#000;stroke-linecap:round;stroke-linejoin:round;stroke-width:2.3px;}</style></defs><title>Yoga_poses_2020_color</title><path class="cls-1" d="M564,333l-.82,1.14s-10.23-2-12.47-2.58c-4.44-1.17-6.6,1.6-11,2.6s-8.06-.81-9.51-2.67c0,0-.42-6-5.39-2.86a8.57,8.57,0,0,0-1.18,1.5l-.12-.08s-1.21-.43-4.38,1.23c0,0-4.11,3.38-7.45.79-1.49-1.15-2.51-4.35-1.78-7.27a34.37,34.37,0,0,1,8.67-15.66,25.91,25.91,0,0,1,16.4-5.76,23.35,23.35,0,0,1,5.35.52q1,.25,2,.54C557.38,308.82,560.45,318.75,564,333Z"/><path class="cls-2" d="M523.64,330.11a8.57,8.57,0,0,1,1.18-1.5c5-3.15,5.39,2.86,5.39,2.86,1.45,1.86,5.14,3.66,9.51,2.67s6.53-3.77,11-2.6c2.24.59,12.47,2.58,12.47,2.58l-1.08,1.51s-3.5,8.22-7.56,11.81c-3.21,2.83-4.62,2.31-5.27,5.56L547,358.56l-4.19-3-8.08,6.06c-.4.85-4.46,6.63-10.45-2.58,0,0-1.85-5.06-6.32-3.34-5.42,2.08-15,.69-15,.69a5.17,5.17,0,0,0,.92-1.16,15.72,15.72,0,0,0,2.23-6.76c.3-7.93-7-14.05-7-14.05s-5.1-4.87-23-4.32c0,0-5.72.12-11.6.56,14.21-4.19,27.28-1.34,32.75.28a19.51,19.51,0,0,1,3.48,1.33,11.57,11.57,0,0,0,10.89-.22c3.34,2.59,7.45-.79,7.45-.79,3.17-1.66,4.38-1.23,4.38-1.23Zm24.72,17.39c1.13-.9,1.72-2,1.33-2.51s-1.61-.15-2.74.75-1.72,2-1.33,2.5S547.24,348.4,548.36,347.5Z"/><path d="M549.69,345c.39.49-.2,1.61-1.33,2.51s-2.35,1.23-2.74.74.21-1.61,1.33-2.5S549.31,344.51,549.69,345Z"/><path class="cls-1" d="M544.66,293.41c3.16,6.87-2.11,10.3-2.11,10.3l-.21.71q-1-.29-2-.54a23.35,23.35,0,0,0-5.35-.52c-8.94-.5-8.39-8.72-6.05-11.4C532.2,288.19,541.5,286.54,544.66,293.41Z"/><path class="cls-2" d="M463.05,411.31a1.28,1.28,0,0,1-1.34,1.18l-11.37-.59s-12.47.6-14.82-.65c-1.06-.56-2.57-4.3-2.66-8.24a135.39,135.39,0,0,0-4-13.38c-.67-1.92-1.41-4.38-2.18-7.19a291.4,291.4,0,0,1-6.71-32c-1.35-9.63-1.88-11.69.94-13a25.44,25.44,0,0,1,3.31-1.12c6.57-2,22-3.45,34.21-5,1.91-.24,4.05-.44,6.18-.6,5.88-.44,11.6-.56,11.6-.56,17.89-.55,23,4.32,23,4.32s7.26,6.12,7,14.05a15.72,15.72,0,0,1-2.23,6.76,5.17,5.17,0,0,1-.92,1.16c-1.55,1.5-4,2.17-6.57,2.37a41.94,41.94,0,0,1-11.92-1.21,53.79,53.79,0,0,0-9.82-1.16l-6.28-.24c-10.4-.37-27.54-.92-27.54-.92-.35,4.75-1,12.17-1,12.17a129.81,129.81,0,0,0,.93,17.21c1.06,8.9,3,17.32,6.1,17.54,0,0,11,1.26,13,1.3,1.1,0,3.13.11,4.74.19l0,.63,9.4,1.56-.48,2.89a1.34,1.34,0,0,1,1.14,1.33,1.36,1.36,0,0,1-1.36,1.36Z"/><path class="cls-2" d="M496.4,358.76l0,.3-.11.12c-1.32,1.25-14.19,13.31-21.65,6.64-6.39-5.71-6.29-9.36-6.29-9.36v-.31l6.28.24a53.79,53.79,0,0,1,9.82,1.16A41.94,41.94,0,0,0,496.4,358.76Z"/><path class="cls-3" d="M496.31,359.18c-1.06,1.14-9.65,10.39-11.83,13.83-2.32,3.67-7.93,12.37-15.27,12.37s-25.63-1.16-28.37-.78h-.08a129.81,129.81,0,0,1-.93-17.21s.66-7.42,1-12.17c0,0,17.14.55,27.54.92v.31s-.1,3.65,6.29,9.36C482.12,372.49,495,360.43,496.31,359.18Z"/><path class="cls-2" d="M480.44,408.24v0a1.6,1.6,0,0,1-1.49,1.56l-3.8.22h-.49a1.34,1.34,0,0,0-1.14-1.33l.48-2.89,5.09.84A1.6,1.6,0,0,1,480.44,408.24Z"/><path class="cls-3" d="M419.93,350.42a291.4,291.4,0,0,0,6.71,32c-5.17-.17-32.28-5.05-42.47-6.65,2.43-9.2,4.36-27.14,5-31s4.78-7,4.78-7a52.48,52.48,0,0,0,10.15,2c2.13,0,16.79-2.36,16.79-2.36C418.05,338.73,418.58,340.79,419.93,350.42Z"/><path class="cls-4" d="M393.93,337.76s-4.16,3.13-4.78,7-2.55,21.82-5,31c-1.23-.19-2.22-.34-2.89-.42-6.19-.77-10.63-.58-18.36,0A123.09,123.09,0,0,0,348,377.5c-23.11,5.33-52.17,3-64,2.07s-14.49-.2-25.51-2.71-18-3.09-23.38-3.09-17.41.79-29.18,0c-13.41-.91-29.94.46-29.94.46-4.34-5.79-2.63-15.4-2.63-15.4,11-2.4,29.29-10.95,47.44-10.95,6.19,0,44.83,4.26,52,4.06s20.48-6.57,34.4-8.89,18.74-4.25,37.49-11.79,32.27-2.51,38.46,1.88A36.75,36.75,0,0,0,393.93,337.76Z"/><path class="cls-2" d="M157,406.74c-.25,1.12-2.87.1-2.87.1-.13,1.87-4,1.24-4,1.24-.26,1.14-3.93.21-3.93.21-.95.37-1.58.69-6.08-2.39-5.44-3.72-4.31-9.72-3-15.71s-.8-17.59-.52-21.45-.5-8.71,10.56-8.49,22.39-.82,22.39-.82a25.86,25.86,0,0,0,3.87-.6s-1.71,9.61,2.63,15.4c-13,1.19-16.91,9.44-16.91,9.44-.67.67-3.17,5.8-4.74,7.63-1.75,2-3.23,4.9-3,6.76.4,2.94,7.1,4.62,7.1,4.62a2.21,2.21,0,0,1,1.89,2.45C160.18,407.26,157,406.74,157,406.74Z"/><path class="cls-5" d="M530.21,331.47s-.42-6-5.39-2.86a8.57,8.57,0,0,0-1.18,1.5,8,8,0,0,0-.78,7.46s1.65,2.77,3.23-.85"/><path class="cls-5" d="M521.05,342.25s-3.48,4.07-1,8.17"/><path class="cls-5" d="M563.16,334.12s-10.23-2-12.47-2.58c-4.44-1.17-6.6,1.6-11,2.6s-8.06-.81-9.51-2.67"/><path class="cls-5" d="M542.55,303.71s5.27-3.43,2.11-10.3-12.46-5.22-15.73-1.45c-2.34,2.68-2.89,10.9,6.05,11.4"/><path class="cls-5" d="M523.52,330s-1.21-.43-4.38,1.23c0,0-4.11,3.38-7.45.79-1.49-1.15-2.51-4.35-1.78-7.27a34.37,34.37,0,0,1,8.67-15.66,25.91,25.91,0,0,1,16.4-5.76,23.35,23.35,0,0,1,5.35.52q1,.25,2,.54c15,4.4,18.11,14.33,21.64,28.56l-.82,1.14-1.08,1.51s-3.5,8.22-7.56,11.81c-3.21,2.83-4.62,2.31-5.27,5.56L547,358.56l-4.19-3-8.08,6.06c-.4.85-4.46,6.63-10.45-2.58,0,0-1.85-5.06-6.32-3.34-5.42,2.08-15,.69-15,.69"/><path class="cls-5" d="M463,411.31h0l10.25.1a1.36,1.36,0,0,0,1.36-1.36,1.34,1.34,0,0,0-1.14-1.33l-11.69-1.88"/><path class="cls-5" d="M475.15,410l3.8-.22a1.6,1.6,0,0,0,1.49-1.56v0a1.6,1.6,0,0,0-1.35-1.57l-5.09-.84-9.4-1.56"/><path class="cls-5" d="M478.67,405.83,467,403.75l-2.39-.11c-1.61-.08-3.64-.16-4.74-.19-2,0-13-1.3-13-1.3-3.07-.22-5-8.64-6.1-17.54a129.81,129.81,0,0,1-.93-17.21s.66-7.42,1-12.17c.06-.89.12-1.68.15-2.32"/><path class="cls-5" d="M146.17,408.29s3.67.93,3.93-.21a2.48,2.48,0,0,0-1.76-2.81"/><path class="cls-5" d="M150.1,408.08s3.89.63,4-1.24a2.22,2.22,0,0,0-1.8-2.27"/><path class="cls-5" d="M154.12,406.84s2.62,1,2.87-.1a2,2,0,0,0-.76-1.9"/><path class="cls-5" d="M157,406.74s3.19.52,3.43-1.61a2.21,2.21,0,0,0-1.89-2.45s-6.7-1.68-7.1-4.62c-.25-1.86,1.23-4.72,3-6.76,1.57-1.83,4.07-7,4.74-7.63,0,0,3.92-8.25,16.91-9.44,0,0,16.53-1.37,29.94-.46,11.77.79,23.77,0,29.18,0s12.37.58,23.38,3.09,13.73,1.74,25.51,2.71,40.85,3.26,64-2.07a123.09,123.09,0,0,1,14.89-2.13c7.73-.58,12.17-.77,18.36,0,.67.08,1.66.23,2.89.42,10.19,1.6,37.3,6.48,42.47,6.65"/><path class="cls-5" d="M440.84,355.23s17.14.55,27.54.92l6.28.24a53.79,53.79,0,0,1,9.82,1.16,41.94,41.94,0,0,0,11.92,1.21c2.59-.2,5-.87,6.57-2.37a5.17,5.17,0,0,0,.92-1.16,15.72,15.72,0,0,0,2.23-6.76c.3-7.93-7-14.05-7-14.05s-5.1-4.87-23-4.32c0,0-5.72.12-11.6.56-2.13.16-4.27.36-6.18.6-12.21,1.58-27.64,3.08-34.21,5a25.44,25.44,0,0,0-3.31,1.12c-2.82,1.32-2.29,3.38-.94,13a291.4,291.4,0,0,0,6.71,32c.77,2.81,1.51,5.27,2.18,7.19a135.39,135.39,0,0,1,4,13.38c.09,3.94,1.6,7.68,2.66,8.24,2.35,1.25,14.82.65,14.82.65l11.37.59a1.28,1.28,0,0,0,1.34-1.18v-.11a1.28,1.28,0,0,0-.93-1.23l-8.87-2.47"/><path class="cls-5" d="M496.42,359.06l-.11.12c-1.32,1.25-14.19,13.31-21.65,6.64-6.39-5.71-6.29-9.36-6.29-9.36"/><path class="cls-5" d="M440.84,384.6c2.74-.38,21,.78,28.37.78s13-8.7,15.27-12.37c2.18-3.44,10.77-12.69,11.83-13.83"/><path class="cls-5" d="M420.87,337.41s-14.66,2.36-16.79,2.36a52.48,52.48,0,0,1-10.15-2,36.75,36.75,0,0,1-10.72-4.62c-6.19-4.39-19.71-9.43-38.46-1.88s-23.58,9.47-37.49,11.79-27.25,8.7-34.4,8.89-45.8-4.06-52-4.06c-18.15,0-36.45,8.55-47.44,10.95a25.86,25.86,0,0,1-3.87.6s-11.33,1.05-22.39.82-10.29,4.63-10.56,8.49,1.86,15.45.52,21.45-2.48,12,3,15.71c4.5,3.08,5.13,2.76,6.08,2.39a2.84,2.84,0,0,0-.75-2.51"/><path class="cls-5" d="M511.69,332.05a11.57,11.57,0,0,1-10.89.22,19.51,19.51,0,0,0-3.48-1.33c-5.47-1.62-18.54-4.47-32.75-.28"/><path class="cls-5" d="M393.93,337.76s-4.16,3.13-4.78,7-2.55,21.82-5,31h0"/><path class="cls-5" d="M173.43,358.83s-1.71,9.61,2.63,15.4"/></svg>