<svg id="Layer_1" data-name="Layer 1" xmlns="http://www.w3.org/2000/svg" viewBox="0 0 700 700"><defs><style>.cls-1{fill:#feae63;}.cls-2{fill:#392328;}.cls-3{fill:#c4e7f9;}.cls-4{fill:#99abcc;}.cls-5{fill:none;stroke:#000;stroke-linecap:round;stroke-linejoin:round;stroke-width:2.3px;}</style></defs><title>Yoga_poses_2020_color</title><path class="cls-1" d="M517.92,529l2.64.09a1.66,1.66,0,0,1-.06,3.31h-2.61a1.86,1.86,0,0,0-1.48-1.5l-12-2.35Z"/><path class="cls-1" d="M351.78,468.18a19.2,19.2,0,0,1,5.83,2.71,28.39,28.39,0,0,1,3.72,4.12c4.57,5.71,11.13,15.09,15,17.9,4.23,3,13.95,9,20.42,13.34,1.49,1,2.81,1.92,3.85,2.7,5.54,4.16,16.29,2.36,25.57,3.83s22.64,3.91,39.1,4.07h4a9,9,0,0,1,3,.51,134,134,0,0,0,14.54,4.22l29.11,5a2.4,2.4,0,0,1,2,2.37l-13.52-.44,12,2.35a1.88,1.88,0,0,1-.52,3.71l-11.49-1-.27.18a1.55,1.55,0,0,1-1.57,2.39l-14-2.73c-3.8-.36-9.43-.49-13.83-.88a9.93,9.93,0,0,1-5.67-3s-33,2.26-47,1.61c-8.17-.38-13.24-.29-16-.15a9.79,9.79,0,0,1-5.49-1.36,46.41,46.41,0,0,0-5.84-3c-.76-.29-4.81-2.42-10.46-5.64-1.94-1.1-4.08-2.34-6.33-3.66-11.4-6.72-25.88-15.88-34.52-23.38a47.69,47.69,0,0,1-4.45-4.32s-1-1-2.25-2.13v1.25c-1,0-38.82.38-36-26.2,0,0,1.22-19.89,14-19.17A106.42,106.42,0,0,1,333,449.74c9.71,4.13,18.83,18.14,18.83,18.14Z"/><path class="cls-2" d="M409.3,483.94c4.22,2.66,7.27,11.59,1,15.76s-10.5-.51-10.5-.51l-.58,0a35.92,35.92,0,0,0-.25-7.78C398.26,482.74,406.32,482.06,409.3,483.94Z"/><path class="cls-2" d="M398.93,491.38a35.92,35.92,0,0,1,.25,7.78,24.23,24.23,0,0,1-1.52,6.79l-.87.3c-6.47-4.35-16.19-10.3-20.42-13.34-3.91-2.81-10.47-12.19-15-17.9l.9-.27c.53-1.8,3.14-3.91,6.13-4.3a34.37,34.37,0,0,1,17.74,2.36,26.54,26.54,0,0,1,12.8,18.34Z"/><path class="cls-2" d="M384.31,521c-1.38,1-2.36,1.72-3.87,2.79l-1.37-.35s-.59-3.25-1.09-6.1C380.23,518.65,382.37,519.89,384.31,521Z"/><path class="cls-1" d="M379.07,523.43l-1.79-.45s-8.94-.26-13.76-2.74c-3.8-2-3.84-3.45-7.09-2.87l-6,0,1.27-5L343.11,507c-.93-.06-7.8-1.73-1.41-10.67a7.27,7.27,0,0,0,1.61-2.22l.15-.17c8.64,7.5,23.12,16.66,34.52,23.38C378.48,520.18,379.07,523.43,379.07,523.43Zm-15-8.57c.31-.54-.45-1.57-1.69-2.29s-2.51-.86-2.82-.32.44,1.56,1.69,2.28S363.73,515.4,364,514.86Z"/><path d="M362.35,512.57c1.24.72,2,1.75,1.69,2.29s-1.58.39-2.82-.33-2-1.74-1.69-2.28S361.1,511.85,362.35,512.57Z"/><path class="cls-3" d="M336.76,488.75h0c-6,2.07-23,6.35-23.48,6.48a34.18,34.18,0,0,0-4.1-1.11c-12.6-2.68-53.65-14.44-67.77-15.08a33.38,33.38,0,0,0-4.75.15l0-.17s-9.13-12.56-14.34-17.12-13.91-6.74-13.91-6.74c15.52-9.57,36.47-9.64,60.61-13,20.18-2.83,34.93-1.34,45.68,1.24-12.75-.72-14,19.17-14,19.17C297.94,489.13,335.76,488.76,336.76,488.75Z"/><path class="cls-4" d="M313.3,495.23c9.39,3.17,12.42,9.36,10.88,18.32-1.14,6.71-6.64,11.28-10.24,13.62a13.84,13.84,0,0,1-5.95,2.12l-26.81,3c-8.75.17-33.14,0-46.57.32v-.54c-3.68-5.41-1.85-14.57-1.85-14.57l.05-.47a89.06,89.06,0,0,1-26-6.11c-15-6.35-24.32-17.47-16.62-34.26,4.69-10.23,10.85-16.93,18.23-21.48,0,0,8.7,2.18,13.91,6.74S236.66,479,236.66,479l0,.17a33.38,33.38,0,0,1,4.75-.15c14.12.64,55.17,12.4,67.77,15.08A34.18,34.18,0,0,1,313.3,495.23Z"/><path class="cls-1" d="M234.6,532.05v.54a69.6,69.6,0,0,0-8.6.55c-7,1.47-30-.12-30-.12-6.62-1-12.85-1.44-12.85-1.44s-2.64,1.69-5.18,1.11-1.83-2.82-.88-3a6.12,6.12,0,0,0,2.13-1.29,10.25,10.25,0,0,1,6.46-5.7c5.09-1.73,8.89-2.83,14.54-6.79,2.83-2,4.72-3.52,6.43-4.77l.11-.22a89.06,89.06,0,0,0,26,6.11l-.05.47S230.92,526.64,234.6,532.05Z"/><path class="cls-5" d="M372.17,488.75c.14-.91-.32-1.83-1.95-3"/><path class="cls-5" d="M379.07,523.43s-.59-3.25-1.09-6.1"/><path class="cls-5" d="M399.76,499.19s4.19,4.69,10.5.51,3.26-13.1-1-15.76c-3-1.88-11-1.2-10.37,7.44a2.64,2.64,0,0,0,0,.28"/><path class="cls-5" d="M384.31,521c-1.38,1-2.36,1.72-3.87,2.79l-1.37-.35-1.79-.45s-8.94-.26-13.76-2.74c-3.8-2-3.84-3.45-7.09-2.87l-6,0,1.27-5L343.11,507c-.93-.06-7.8-1.73-1.41-10.67a7.27,7.27,0,0,0,1.61-2.22"/><path class="cls-5" d="M362.23,474.74c.53-1.8,3.14-3.91,6.13-4.3a34.37,34.37,0,0,1,17.74,2.36,26.54,26.54,0,0,1,12.8,18.34l0,.24a35.92,35.92,0,0,1,.25,7.78,24.23,24.23,0,0,1-1.52,6.79"/><path class="cls-5" d="M333,484.76a17.53,17.53,0,0,1,3.72,2.74c1.24,1.12,2.25,2.13,2.25,2.13a47.69,47.69,0,0,0,4.45,4.32c8.64,7.5,23.12,16.66,34.52,23.38,2.25,1.32,4.39,2.56,6.33,3.66,5.65,3.22,9.7,5.35,10.46,5.64a46.41,46.41,0,0,1,5.84,3A9.79,9.79,0,0,0,406.1,531c2.8-.14,7.87-.23,16,.15,14,.65,47-1.61,47-1.61a9.93,9.93,0,0,0,5.67,3c4.4.39,10,.52,13.83.88l14,2.73a1.55,1.55,0,0,0,1.57-2.39,1.57,1.57,0,0,0-.7-.57l-12.55-5"/><path class="cls-5" d="M345.39,466.66a51.81,51.81,0,0,1,6.39,1.52,19.2,19.2,0,0,1,5.83,2.71,28.39,28.39,0,0,1,3.72,4.12c4.57,5.71,11.13,15.09,15,17.9,4.23,3,13.95,9,20.42,13.34,1.49,1,2.81,1.92,3.85,2.7,5.54,4.16,16.29,2.36,25.57,3.83s22.64,3.91,39.1,4.07h4a9,9,0,0,1,3,.51,134,134,0,0,0,14.54,4.22l29.11,5a2.4,2.4,0,0,1,2,2.37h0"/><path class="cls-5" d="M504.4,533.63l11.49,1a1.88,1.88,0,0,0,.52-3.71l-12-2.35L496.26,527"/><path class="cls-5" d="M517.92,532.38h2.58a1.66,1.66,0,0,0,.06-3.31l-2.64-.09-13.52-.44"/><path class="cls-5" d="M351.87,467.88s-9.12-14-18.83-18.14a106.42,106.42,0,0,0-18.34-6.36c-10.75-2.58-25.5-4.07-45.68-1.24-24.14,3.38-45.09,3.45-60.61,13-7.38,4.55-13.54,11.25-18.23,21.48-7.7,16.79,1.67,27.91,16.62,34.26a89.06,89.06,0,0,0,26,6.11,103.84,103.84,0,0,0,19.06.06c29.75-2.82,45,.41,45,.41a33.94,33.94,0,0,0,6.73,1.11"/><path class="cls-5" d="M208.41,455.16s8.7,2.18,13.91,6.74S236.66,479,236.66,479"/><path class="cls-5" d="M232.75,517.48s-1.83,9.16,1.85,14.57"/><line class="cls-5" x1="222.54" y1="516.42" x2="219.06" y2="520.76"/><path class="cls-5" d="M313.29,495.23h0c.49-.13,17.49-4.41,23.48-6.48h0c-1,0-38.82.38-36-26.2,0,0,1.22-19.89,14-19.17"/><path class="cls-5" d="M206.69,511.12c-1.71,1.25-3.6,2.79-6.43,4.77-5.65,4-9.45,5.06-14.54,6.79a10.25,10.25,0,0,0-6.46,5.7,6.12,6.12,0,0,1-2.13,1.29c-.95.2-1.66,2.44.88,3s5.18-1.11,5.18-1.11S189.42,532,196,533c0,0,23,1.59,30,.12a69.6,69.6,0,0,1,8.6-.55c13.43-.36,37.82-.15,46.57-.32l26.81-3a13.84,13.84,0,0,0,5.95-2.12c3.6-2.34,9.1-6.91,10.24-13.62,1.54-9-1.49-15.15-10.88-18.32a34.18,34.18,0,0,0-4.1-1.11c-12.6-2.68-53.65-14.44-67.77-15.08a33.38,33.38,0,0,0-4.75.15,42.18,42.18,0,0,0-8.93,1.82"/></svg>