<svg id="Layer_1" data-name="Layer 1" xmlns="http://www.w3.org/2000/svg" viewBox="0 0 700 700"><defs><style>.cls-1{fill:#120c0c;}.cls-2{fill:#feae63;}.cls-3{fill:#99abcc;}.cls-4{fill:#c4e7f9;}.cls-5{fill:none;stroke:#000;stroke-linecap:round;stroke-linejoin:round;stroke-width:2.3px;}</style></defs><title>Yoga_poses_2020_color</title><path class="cls-1" d="M528.16,323.48c5,.63,11.48,7.44,7.53,13.89s-9.73,4-9.73,4l-.65.2c-.24-.85-.53-1.71-.85-2.6a20.23,20.23,0,0,0-2.5-4l.08-.06C517.49,327.14,524.63,323,528.16,323.48Z"/><path class="cls-1" d="M525.31,341.53c4.33,14.71-2.23,24.17-12,34.86l-1.41-.05s-4-9.61-4.78-11.8c-1.5-4.35-5-4.6-8.25-7.68s-3.81-7.14-3.08-9.38c0,0,4.77-3.69-.62-6.07a8,8,0,0,0-1.9-.14v-.16s-2-6-6.29-6.65c-2-.49-3.18-1.3-3.69-2.26-1.12-2.13,1.17-5,6.16-7,8.08-3.15,18.46.17,18.46.17a27.74,27.74,0,0,1,14,9.53,20.23,20.23,0,0,1,2.5,4C524.78,339.82,525.07,340.68,525.31,341.53Z"/><path class="cls-2" d="M493.31,341.27a8,8,0,0,1,1.9.14c5.39,2.38.62,6.07.62,6.07-.73,2.24-.18,6.31,3.08,9.38s6.75,3.33,8.25,7.68c.75,2.19,4.78,11.8,4.78,11.8l-1.85-.06s-8.78,1.67-14,.28c-4.12-1.09-4.48-2.55-7.54-1.29l-5.86,1.25.17-5.16L473.3,368c-.89.14-7.44,0-4.13-9a10.08,10.08,0,0,1,.71-1.53c.55-.94,1.6-3.4-1.67-4.57-.36-.13-.84-.43-2-.82,3.1-3.35,5.65-7.9,7.28-14.33a32.93,32.93,0,0,0-.61-14.76h0c.43,1,.78,1.76,1.06,2.35a12,12,0,0,0,9.38,6.82c.51,1,1.72,1.77,3.69,2.26,4.3.69,6.29,6.65,6.29,6.65Zm2.11,29.92c.19-.6-.77-1.43-2.14-1.87s-2.63-.31-2.82.29.76,1.43,2.14,1.86S495.23,371.78,495.42,371.19Z"/><path d="M493.28,369.32c1.37.44,2.33,1.27,2.14,1.87s-1.45.72-2.82.28-2.33-1.27-2.14-1.86S491.91,368.89,493.28,369.32Z"/><path class="cls-2" d="M300,370.08l2.24,2a1.35,1.35,0,0,0,.92.35l8.53-.16A3.77,3.77,0,0,0,314,371a.6.6,0,0,0-.33-1l-9.84-2a2,2,0,0,1,.62-4c3.26.37,9.24,1,12,1a31.89,31.89,0,0,1,8.08.59,10.67,10.67,0,0,1,5.11,2.8c3.74,3.74,7.31,3.74,12.83,3.56,2.5-.08,9.49-1.14,16.7-2.39,8.74-1.5,17.81-3.26,19.67-3.85,2.16-.68,3.8-1.29,5.91-1.87,1.21-.33,2.56-.65,4.25-1,4.63-.89,13.55-3.57,32.84-11.7,6.24-2.63,10.79-6.08,13.72-9.85a19.34,19.34,0,0,0,3.45-6.6,34.24,34.24,0,0,1-3.39-9.85c-1.14-8.25-2.09-25.47,14.68-27.83l.5-.75c13.53,8.54,19.39,20.72,22.06,26.66h0a32.93,32.93,0,0,1,.61,14.76c-1.63,6.43-4.18,11-7.28,14.33a29.12,29.12,0,0,1-9.61,6.72,63.91,63.91,0,0,1-6.06,2.32c-10.16,3.38-9.09,2.14-16.76,7.13-6.53,4.25-30.4,11.22-37.32,13.19h0l-1.88.53-4.82,1.07c-9.09,2.5-51.16,1.07-51.16,1.07h-3.91a18.91,18.91,0,0,1-3.9-.4,19.8,19.8,0,0,0-3.91-.4l-.84,0-16.29.73a6.86,6.86,0,0,1-2.16-.24L299,381.48a3.34,3.34,0,0,1-1.92-1.43l-3-4.78a1.75,1.75,0,0,1,.71-2.5l.15-.07a1.67,1.67,0,0,1,.62-.12,1.77,1.77,0,0,1,1.52.88l1.22,2.1,0-2.09h0l1.25-3.81.46.41Z"/><path class="cls-3" d="M456.59,358.85c0,.38.65,10.09-5.67,15.69s-6.63,5.52-16.43,6.06-29.91,1.61-38,.89c6.92-2,30.79-8.94,37.32-13.19,7.67-5,6.6-3.75,16.76-7.13A63.91,63.91,0,0,0,456.59,358.85Z"/><path class="cls-4" d="M450.83,296.37l-.5.75c-16.77,2.36-15.82,19.58-14.68,27.83A34.24,34.24,0,0,0,439,334.8a19.34,19.34,0,0,1-3.45,6.6l0,0a177,177,0,0,0-49.74-16.57h0C381,316.73,381,310,375.54,301.08c-3.62-5.93-12.51-9.53-12.51-9.53,19.65-5.75,27.57-5.87,56.51-4.39C433,287.86,443.14,291.53,450.83,296.37Z"/><path class="cls-3" d="M385.82,324.81a177,177,0,0,1,49.74,16.57l0,0c-2.93,3.77-7.48,7.22-13.72,9.85-19.29,8.13-28.21,10.81-32.84,11.7-1.69.33-3,.65-4.25,1-7.14.18-20.21-2.74-24.82-3.83l-1.67-.4c-3.62-1.25-7.2-2.61-10.62-4.09h0q-2.93-1.26-5.66-2.64c-11.71-5.88-20.42-13.26-20.42-21.92,0-12.39,5.43-28.24,32.36-36.71,3.32-1.05,6.32-2,9.09-2.78,0,0,8.89,3.6,12.51,9.53C381,310,381,316.73,385.82,324.8Z"/><path class="cls-3" d="M360,360.1c4.61,1.09,17.68,4,24.82,3.83-2.11.58-3.75,1.19-5.91,1.87-1.86.59-10.93,2.35-19.67,3.85a13.1,13.1,0,0,1,.76-9.54Z"/><path class="cls-2" d="M358.58,360.51l1.38-.4a13.1,13.1,0,0,0-.76,9.54C352,370.9,345,372,342.5,372c-5.52.18-9.09.18-12.83-3.56a10.67,10.67,0,0,0-5.11-2.8c.2-.11,2.48-1.31,7.56-6.84C337.45,353,342,353,342,353q2.73,1.38,5.66,2.64h0l2.68,2.73A8.32,8.32,0,0,0,358.58,360.51Z"/><path class="cls-2" d="M300.55,366.31a2,2,0,0,1-.09.59l-.91,2.76-1.25,3.81h0l0-4.4a1.72,1.72,0,0,0-1.72-1.71l.35-1.48a1.88,1.88,0,0,1,3.7.43Z"/><path class="cls-2" d="M298.27,373.47l0,2.09-1.22-2.1a1.77,1.77,0,0,0-1.52-.88,1.67,1.67,0,0,0-.62.12l-.15.07h0v-3.68a1.72,1.72,0,0,1,3.44,0Z"/><path class="cls-5" d="M495.83,347.48s4.77-3.69-.62-6.07a8.68,8.68,0,0,0-8.54,3.34s-1.38,2.91,2.51,2.22"/><path class="cls-5" d="M481.78,345.85s-5.32-.63-7.38,3.68"/><path class="cls-5" d="M511.94,376.34s-4-9.61-4.78-11.8c-1.5-4.35-5-4.6-8.25-7.68s-3.81-7.14-3.08-9.38"/><path class="cls-5" d="M526,341.33s5.78,2.48,9.73-4-2.58-13.26-7.53-13.89c-3.53-.45-10.67,3.66-6.12,11.37"/><path class="cls-5" d="M493.31,341.11s-2-6-6.29-6.65c-2-.49-3.18-1.3-3.69-2.26-1.12-2.13,1.17-5,6.16-7,8.08-3.15,18.46.17,18.46.17"/><path class="cls-5" d="M466.2,352.13c1.17.39,1.65.69,2,.82,3.27,1.17,2.22,3.63,1.67,4.57a10.08,10.08,0,0,0-.71,1.53c-3.31,9,3.24,9.1,4.13,9l9.53,3.35-.17,5.16,5.86-1.25c3.06-1.26,3.42.2,7.54,1.29,5.25,1.39,14-.28,14-.28l1.85.06,1.41.05c9.73-10.69,16.29-20.15,12-34.86-.24-.85-.53-1.71-.85-2.6a20.23,20.23,0,0,0-2.5-4,27.74,27.74,0,0,0-14-9.53"/><path class="cls-5" d="M347.67,355.61c3.42,1.48,7,2.84,10.62,4.09l1.67.4c4.61,1.09,17.68,4,24.82,3.83"/><path class="cls-5" d="M483.33,332.2a12,12,0,0,1-9.38-6.82c-.28-.59-.63-1.39-1.06-2.35-2.67-5.94-8.53-18.12-22.06-26.66-7.69-4.84-17.84-8.51-31.29-9.21-28.94-1.48-36.86-1.36-56.51,4.39-2.77.81-5.77,1.73-9.09,2.78C327,302.8,321.58,318.65,321.58,331c0,8.66,8.71,16,20.42,21.92q2.73,1.38,5.66,2.64"/><path class="cls-5" d="M363,291.55s8.89,3.6,12.51,9.53C381,310,381,316.73,385.82,324.8"/><path class="cls-5" d="M364.61,322.5a138.74,138.74,0,0,1,21.21,2.31,177,177,0,0,1,49.74,16.57"/><line class="cls-5" x1="300.01" y1="370.07" x2="299.55" y2="369.66"/><path class="cls-5" d="M439.68,330.38a15.75,15.75,0,0,1-.64,4.42,19.34,19.34,0,0,1-3.45,6.6c-2.93,3.77-7.48,7.22-13.72,9.85-19.29,8.13-28.21,10.81-32.84,11.7-1.69.33-3,.65-4.25,1-2.11.58-3.75,1.19-5.91,1.87-1.86.59-10.93,2.35-19.67,3.85C352,370.9,345,372,342.5,372c-5.52.18-9.09.18-12.83-3.56a10.67,10.67,0,0,0-5.11-2.8,31.89,31.89,0,0,0-8.08-.59c-2.78,0-8.76-.62-12-1a2,2,0,0,0-.62,4l9.84,2a.6.6,0,0,1,.33,1,3.77,3.77,0,0,1-2.31,1.26l-8.53.16a1.35,1.35,0,0,1-.92-.35l-2.24-2"/><path class="cls-5" d="M450.33,297.12c-16.77,2.36-15.82,19.58-14.68,27.83A34.24,34.24,0,0,0,439,334.8"/><path class="cls-5" d="M396.44,381.49l-1.88.53-4.82,1.07c-9.09,2.5-51.16,1.07-51.16,1.07h-3.91a18.91,18.91,0,0,1-3.9-.4,19.8,19.8,0,0,0-3.91-.4l-.84,0-16.29.73a6.86,6.86,0,0,1-2.16-.24L299,381.48a3.34,3.34,0,0,1-1.92-1.43l-3-4.78a1.75,1.75,0,0,1,.71-2.5l.15-.07a1.67,1.67,0,0,1,.62-.12,1.77,1.77,0,0,1,1.52.88l1.22,2.1v0a3.31,3.31,0,0,0,2.09,1.56l4.73,1.13"/><path class="cls-5" d="M472.87,323a32.93,32.93,0,0,1,.61,14.76c-1.63,6.43-4.18,11-7.28,14.33a29.12,29.12,0,0,1-9.61,6.72,63.91,63.91,0,0,1-6.06,2.32c-10.16,3.38-9.09,2.14-16.76,7.13-6.53,4.25-30.4,11.22-37.32,13.19"/><path class="cls-5" d="M456.59,358.84h0c0,.38.65,10.09-5.67,15.69s-6.63,5.52-16.43,6.06-29.91,1.61-38,.89h0"/><path class="cls-5" d="M359.2,369.65a13.1,13.1,0,0,1,.76-9.54l-1.38.4a8.32,8.32,0,0,1-8.23-2.17l-2.68-2.73h0"/><path class="cls-5" d="M342,353s-4.55.08-9.88,5.88c-5.08,5.53-7.36,6.73-7.56,6.84h0"/><path class="cls-5" d="M294.78,372.76v-3.68a1.72,1.72,0,0,1,3.44,0l0,4.4,0,2.09"/><path class="cls-5" d="M296.5,367.36l.35-1.48a1.88,1.88,0,0,1,3.7.43,2,2,0,0,1-.09.59l-.91,2.76-1.25,3.81"/><polyline class="cls-5" points="300.01 370.07 300.01 370.08 300.85 374.28"/></svg>