<svg id="Layer_1" data-name="Layer 1" xmlns="http://www.w3.org/2000/svg" viewBox="0 0 700 700"><defs><style>.cls-1{fill:#feae63;}.cls-2{fill:#c4e7f9;}.cls-3{fill:#231f20;}.cls-4{fill:#120c0c;}.cls-5{fill:#99abcc;}.cls-6{fill:none;stroke:#000;stroke-linecap:round;stroke-linejoin:round;stroke-width:2.3px;}</style></defs><title>Yoga_poses_2020_color</title><path class="cls-1" d="M554.87,406.86v.1a1.58,1.58,0,0,1-1.56,1.48l-3.81.06-.48,0v-.06a1.35,1.35,0,0,0-1.08-1.32l.61-2.86,5,1.07A1.57,1.57,0,0,1,554.87,406.86Z"/><path class="cls-1" d="M482.76,308.13c-1,8.46.5,18.37-.09,26.45-.72,9.85,0,14.9,0,14.9a54.58,54.58,0,0,1,4.24,5l.75,1a55.08,55.08,0,0,1,5.35,8.91c6.27,13,20.74,32.43,25.59,33,0,0,14,3.76,16,3.9,1.09.07,3.1.25,4.7.4l0,.62,9.32,2-.61,2.86a1.35,1.35,0,0,1,1.08,1.32v.06a1.36,1.36,0,0,1-1.43,1.3l-10.24-.56a1.27,1.27,0,0,1-1.39,1.11l-11.33-1.1s-10.18,0-12.47-1.37c0,0-22.69-16.68-32.14-29.06-3-4-5.51-7.44-7.57-10.42-4.36-6.29-6.93-10.46-9.38-13A8.46,8.46,0,0,1,462,354c-1.91-3.05-.14-6-4.13-21.14a161.41,161.41,0,0,1-3.52-18.06h0c-2.61-18.67-2.94-42.95,8.8-51a13.45,13.45,0,0,1,4.71-2,14.72,14.72,0,0,1,10.29,1.58c5.6,3.12,13.15,10.64,17,28.8.11.52.22,1,.32,1.58a8,8,0,0,1-.28,4.09c-1.45,4.23-4.8,8.26-11.79,10.35Z"/><path class="cls-1" d="M486.81,221.57v-.11c.13-.1,6.29-.88,9.84-8.35a4.52,4.52,0,0,1,2-2.05,25.73,25.73,0,0,0,8.54-7l.45,1.78s3.95,7.87,4,13.22c.08,4.18-1.23,4.93.8,7.46l2.76,5.22L510.28,233l-.65,9.9c.42.84,2.16,7.61-8.58,6.19,0,0-7.19-1.94-6.38,21.42,1.86,8.59,3.87,17,8.14,23,0,0-6.16,1.13-7.54-1.27l-.1,0c-3.87-18.16-11.42-25.68-17-28.8a14.72,14.72,0,0,0-10.29-1.58l-.22-.62c7.82-8.79,3.45-20.91,3.45-20.91h0c.15.13.3.24.45.35a2.6,2.6,0,0,0,3.82-.85,19.82,19.82,0,0,0,2-5.71c.52-2.89.93-5.38,3.13-7.81A7.44,7.44,0,0,1,482,225l2.19-1.41C484.94,222,485.89,221.52,486.81,221.57Zm20.94,2.08c.05-1.41-.41-2.58-1-2.6s-1.15,1.12-1.19,2.53.41,2.58,1,2.6S507.71,225.07,507.75,223.65Z"/><path class="cls-2" d="M508.49,304a22.67,22.67,0,0,1-6.6,23.22s-2.24,1-3.23,9.52c-1.28,11-11.74,17.71-11.74,17.71h0a54.58,54.58,0,0,0-4.24-5s-.72-5.05,0-14.9c.59-8.08-.91-18,.09-26.45l.66.08c7-2.09,10.34-6.12,11.79-10.35a8,8,0,0,0,.28-4.09c-.1-.54-.21-1.06-.32-1.58l.1,0c1.38,2.4,7.54,1.27,7.54,1.27a65.34,65.34,0,0,1,3.48,5.53A24.43,24.43,0,0,1,508.49,304Z"/><path class="cls-3" d="M506.72,221.05c.62,0,1.08,1.19,1,2.6s-.58,2.55-1.19,2.53-1.08-1.18-1-2.6S506.11,221,506.72,221.05Z"/><path class="cls-4" d="M506.82,202.66l.34,1.36a25.73,25.73,0,0,1-8.54,7,4.52,4.52,0,0,0-2,2.05c-3.55,7.47-9.71,8.25-9.84,8.35v.11c-.92,0-1.87.42-2.6,2L482,225a7.44,7.44,0,0,0-1.49,1.25c-2.2,2.43-2.61,4.92-3.13,7.81a19.82,19.82,0,0,1-2,5.71,2.6,2.6,0,0,1-3.82.85c-.15-.11-.3-.22-.45-.35a27.38,27.38,0,0,1-7-8.74s-3.85-7.95-3.05-16.27a18.89,18.89,0,0,1,2.09-7.17h0a17.43,17.43,0,0,1,5.22-5.9C482.12,192.21,493.36,196,506.82,202.66Z"/><path class="cls-2" d="M472.45,368.38l-.14.1c-1.38,3.26-3.56,5.22-6.36,7.11l-.11-.16a32.2,32.2,0,0,0-4.5-20.95L462,354a8.46,8.46,0,0,0,1.07,1.34C465.52,357.92,468.09,362.09,472.45,368.38Z"/><path class="cls-5" d="M465.84,375.43l.11.16c-2,1.36-4.34,2.68-6.92,4.43-6.8,4.59-16.49,8-35.19,17.68s-46.93,3.35-67.5,4.71-43-6.29-59-3.4c-12.36,2.23-42.65-.58-60.55-1.25v-.17c-5.32-13.5.66-18.16,1.2-18.54h0c13.15-1.68,33.83-5.28,44.31-6.67,14.11-1.87,31.85,7.16,47.83,1.55s39.15-10,49.52-11.73,22-13.41,32-19.45,20.91-.43,29.67-4.34c10.33,4.34,16.41,10.25,19.95,16.08A32.2,32.2,0,0,1,465.84,375.43Z"/><path class="cls-4" d="M453.52,198.72c3.26-1.43,11.78.69,9.6,9.36h0a18.89,18.89,0,0,0-2.09,7.17l-.36,0s-4.84,4-10.46-1.06S449,200.72,453.52,198.72Z"/><path class="cls-2" d="M462,354l-.66.47c-3.54-5.83-9.62-11.74-19.95-16.08,8.64-3.86,12.84-23,13-23.59a161.41,161.41,0,0,0,3.52,18.06C461.86,348,460.09,351,462,354Z"/><path class="cls-1" d="M236.81,397.59v.17a75.93,75.93,0,0,0-11.78.12c-10.37,1.53-22.9,4-30.38,3.66s-14.45,0-14.45,0-2.72,2.21-5.61,1.88-2.38-2.9-1.36-3.24a6.88,6.88,0,0,0,2.21-1.7,11.45,11.45,0,0,1,6.46-7.14c5.44-2.55,9.52-4.25,15.3-9.35s7.65-7.82,12.07-10,10.71,7.82,18.53,8a83.83,83.83,0,0,0,10.22-.9C237.47,379.43,231.49,384.09,236.81,397.59Z"/><path class="cls-6" d="M537.34,409.22h0l10.24.56a1.36,1.36,0,0,0,1.43-1.3v-.06a1.35,1.35,0,0,0-1.08-1.32l-11.6-2.4"/><path class="cls-6" d="M549.5,408.5l3.81-.06a1.58,1.58,0,0,0,1.56-1.48v-.1a1.57,1.57,0,0,0-1.28-1.55l-5-1.07-9.32-2"/><path class="cls-6" d="M553.21,404.45l-11.53-2.6-2.41-.22c-1.6-.15-3.61-.33-4.7-.4-2-.14-16-3.9-16-3.9-4.85-.56-19.32-20-25.59-33a55.08,55.08,0,0,0-5.35-8.91l-.75-1a54.58,54.58,0,0,0-4.24-5s-.72-5.05,0-14.9c.59-8.08-.91-18,.09-26.45a30.17,30.17,0,0,1,1.06-5.35l2.82-9.33"/><path class="cls-6" d="M490.82,240.49s1.32,5.2,6.08,5.58"/><path class="cls-6" d="M489.82,223.2a5.28,5.28,0,0,0-3-1.63c-.92,0-1.87.42-2.6,2a7.4,7.4,0,0,0-.29.73s-.76,5.4,4,8.1c0,0,3,1.11,2-2.64"/><path class="cls-6" d="M507.17,204h0a25.73,25.73,0,0,1-8.54,7,4.52,4.52,0,0,0-2,2.05c-3.55,7.47-9.71,8.25-9.84,8.35"/><path class="cls-6" d="M471.09,240.28s4.37,12.12-3.45,20.91"/><path class="cls-6" d="M463.12,208.08a17.43,17.43,0,0,1,5.22-5.9c13.78-10,25-6.22,38.48.48l.34,1.36.45,1.78s3.95,7.87,4,13.22c.08,4.18-1.23,4.93.8,7.46l2.76,5.22L510.28,233l-.65,9.9c.42.84,2.16,7.61-8.58,6.19,0,0-7.19-1.94-6.38,21.42,1.86,8.59,3.87,17,8.14,23a65.34,65.34,0,0,1,3.48,5.53,24.43,24.43,0,0,1,2.2,5,22.67,22.67,0,0,1-6.6,23.22s-2.24,1-3.23,9.52c-1.28,11-11.74,17.71-11.74,17.71"/><path class="cls-6" d="M484.21,223.59,482,225a7.44,7.44,0,0,0-1.49,1.25c-2.2,2.43-2.61,4.92-3.13,7.81a19.82,19.82,0,0,1-2,5.71,2.6,2.6,0,0,1-3.82.85c-.15-.11-.3-.22-.45-.35a27.38,27.38,0,0,1-7-8.74s-3.85-7.95-3.05-16.27a18.89,18.89,0,0,1,2.09-7.17"/><path class="cls-6" d="M238,379c13.15-1.68,33.83-5.28,44.31-6.67,14.11-1.87,31.85,7.16,47.83,1.55s39.15-10,49.52-11.73,22-13.41,32-19.45,20.91-.43,29.67-4.34,12.84-23,13-23.59"/><path class="cls-6" d="M472.31,368.48c-1.38,3.26-3.56,5.22-6.36,7.11-2,1.36-4.34,2.68-6.92,4.43-6.8,4.59-16.49,8-35.19,17.68s-46.93,3.35-67.5,4.71-43-6.29-59-3.4c-12.36,2.23-42.65-.58-60.55-1.25a75.93,75.93,0,0,0-11.78.12c-10.37,1.53-22.9,4-30.38,3.66s-14.45,0-14.45,0-2.72,2.21-5.61,1.88-2.38-2.9-1.36-3.24a6.88,6.88,0,0,0,2.21-1.7,11.45,11.45,0,0,1,6.46-7.14c5.44-2.55,9.52-4.25,15.3-9.35s7.65-7.82,12.07-10,10.71,7.82,18.53,8a83.83,83.83,0,0,0,10.22-.9"/><path class="cls-6" d="M465.84,375.43a32.2,32.2,0,0,0-4.5-20.95c-3.54-5.83-9.62-11.74-19.95-16.08"/><path class="cls-6" d="M238.05,379l0,0h0c-.54.38-6.52,5-1.2,18.54"/><path class="cls-6" d="M483.42,308.21c7-2.09,10.34-6.12,11.79-10.35a8,8,0,0,0,.28-4.09c-.1-.54-.21-1.06-.32-1.58-3.87-18.16-11.42-25.68-17-28.8a14.72,14.72,0,0,0-10.29-1.58,13.45,13.45,0,0,0-4.71,2c-11.74,8-11.41,32.29-8.8,51h0a161.41,161.41,0,0,0,3.52,18.06c4,15.1,2.22,18.09,4.13,21.14a8.46,8.46,0,0,0,1.07,1.34c2.45,2.57,5,6.74,9.38,13,2.06,3,4.53,6.43,7.57,10.42,9.45,12.38,32.14,29.06,32.14,29.06,2.29,1.35,12.47,1.37,12.47,1.37l11.33,1.1a1.27,1.27,0,0,0,1.39-1.11,0,0,0,0,0,0,0,.76.76,0,0,0,0-.15,1.28,1.28,0,0,0-.88-1.2L527.74,405"/><path class="cls-6" d="M502.81,293.44s-6.16,1.13-7.54-1.27"/><path class="cls-6" d="M460.67,215.22s-4.84,4-10.46-1.06-1.26-13.44,3.31-15.44c3.26-1.43,11.78.69,9.6,9.36h0"/></svg>