<svg id="Layer_1" data-name="Layer 1" xmlns="http://www.w3.org/2000/svg" viewBox="0 0 700 700"><defs><style>.cls-1{fill:#feae63;}.cls-2{fill:#99abcc;}.cls-3{fill:#c4e7f9;}.cls-4{fill:#120c0c;}.cls-5{fill:none;stroke:#000;stroke-linecap:round;stroke-linejoin:round;stroke-width:2.3px;}</style></defs><title>Yoga_poses_2020_color</title><path class="cls-1" d="M441,470.46h0v.44a1.6,1.6,0,0,1-1.7,1.59c-3.07-.22-9.49-.59-12.48-.16-4,.57-11.61,4.44-21.35,5a53.85,53.85,0,0,0-12.72,2l0-.09c6.45-5.54-5.81-16-6.11-16.26,0,0,0,0,0,0h0c2.13,0,3.07-2.79,3.4-6.37l.17,0s1.4-1.82,5-1.54,4,1.49,6,2.73a19.25,19.25,0,0,0,11.17,2.43s7.6-.14,12-2.86,6.16-2,9.6-.58,4.45,1.22,7.88,2.29c.9.29,2.59,2.26,4,3.83a2.75,2.75,0,0,1-2.05,4.59l1.05.61v1a1.35,1.35,0,0,1-1.4,1.35Z"/><path class="cls-1" d="M395,380.75l.05-.07s-5.54-8.8-6.52-16-5-19.92-5-19.92c-2-10.5-11.67-19.93-11.67-19.93a99.13,99.13,0,0,1,.18-22.86l.23-.73a61.46,61.46,0,0,0,8.31,2.11,58.56,58.56,0,0,1,6.28,1.06c2.61.65,3.59,2,9,6.84s7.5,17.6,10.1,27.21,1.31,9.12,5.38,24.24,4.4,32.77,3.58,36.68-3.74,8.63-10.1,6.35-30.43-17.17-30.43-17.17a137.45,137.45,0,0,1,1.54-14.6l.8-2.79c.23.12,7.75,3.73,12.58,5.89A28.19,28.19,0,0,1,395,380.75Z"/><path class="cls-2" d="M354.14,459.8a27.5,27.5,0,0,1,13.93-2.56,16,16,0,0,1,10.85,5.64,70.69,70.69,0,0,0,7.67.16s0,0,0,0c.3.25,12.56,10.72,6.11,16.26l0,.09a75.38,75.38,0,0,0-9.78,3.84c-7.88,3.58-17.9,9.93-40,9.74-17.19-.14-14.18-1.72-21.78-4.58,0,0-14-4.3-18.34-15.91l-1.51-.1c4.48-1.07,7.56-1.57,16-8.89,10.44-9,18.12-10.34,22.73-14.44,0,0,5.32,2.36,7.78,3.59S352.4,456.12,354.14,459.8Z"/><path class="cls-2" d="M340.33,412.15c11.7-.42,31.31-1.94,36.16-3.56l.4-.17c3.59,8.64,9.75,18.79,12.31,32.65,0,0,1.39,9.11.79,15.59-.33,3.58-1.27,6.37-3.4,6.37h0a70.69,70.69,0,0,1-7.67-.16,16,16,0,0,0-10.85-5.64,27.5,27.5,0,0,0-13.93,2.56c-1.74-3.68-3.78-5.93-6.24-7.16s-7.78-3.59-7.78-3.59c-4.61,4.1-12.29,5.43-22.73,14.44-8.48,7.32-11.56,7.82-16,8.89-1,.25-2.14.54-3.41.94-4.86,1.55-9.93,5.63-15.1,8.25l-.08-.64c-9.94-5.55-6.71-14.56-6.71-14.56l-.06-.12c5.58-2.75,13.53-10,18.31-20.09,3-6.33,6.1-10.3,10-13.22,3.47-2.57,7.59-4.32,12.9-6.13a41,41,0,0,0,8.33-5.95c2.84-2.84,5.44-7.9,12.26-8.64Z"/><path class="cls-3" d="M376.72,371.2l-.8,2.79a137.45,137.45,0,0,0-1.54,14.6c-.23,4-.3,7.46-.23,9.37a30.5,30.5,0,0,0,2.74,10.46l-.4.17c-4.85,1.62-24.46,3.14-36.16,3.56a17.09,17.09,0,0,0-2.51.07l-1.35,0c-10.22.15-22.85-1.72-28.84-2.67l-.54-.06c2.3-21.18.37-34.82-3.92-48.88,0,0-1.05-3.29-2.44-7.74.66-8.82,13-30.41,13-30.41s26.39,13,58.14,2.37c0,0,9.63,9.43,11.67,19.93C382.12,351.83,378.36,365.37,376.72,371.2Z"/><path class="cls-1" d="M372.3,301.27l-.23.73a99.13,99.13,0,0,0-.18,22.86c-31.75,10.66-58.14-2.37-58.14-2.37.22-7.38,1.8-20.49,1.8-20.49l.27-.42a3.26,3.26,0,0,0,1.6.42,3,3,0,0,0,1.61-.43l.76-.49c7.59-5.23,8.85-15.42,8.63-21.39,2.6,2.14,6.73,4,13.25,3.83a22.1,22.1,0,0,0,10.77-3.13c-.24,6.33.53,12.46,4.26,14.57A108.58,108.58,0,0,0,372.3,301.27Z"/><path class="cls-1" d="M363.92,255.6s.31,5-2.16,8.12c0,0-1.54,1.41-1-2.25l-.32-.05c0-.32.08-.64.11-.94l.36-5.89.32,0C361.9,253.55,363.26,251.89,363.92,255.6Z"/><path class="cls-4" d="M319.89,252.2c-.11.72-.13,1.14-.13,1.14s-5.19-15.66,3.84-23.69a21.49,21.49,0,0,1,6.85-4.09c8-3,16.52-1.17,19.41-.39.66.18,1,.3,1,.3,18.37,7.37,10.34,27.25,10.34,27.25a5.68,5.68,0,0,0-.12-.78,45.15,45.15,0,0,0-2.12-6.66c-3.78-9.81-17.33-9.82-17.33-9.82C323.72,235.58,320.46,248.28,319.89,252.2Z"/><path class="cls-1" d="M352.44,280.39a22.1,22.1,0,0,1-10.77,3.13c-6.52.13-10.65-1.69-13.25-3.83a12.28,12.28,0,0,1-4.23-6.39c-.83-3.06-2.72-8.77-3.26-11.92a8.58,8.58,0,0,1-.14-1.19l-.69-6.1-.21-1.89c.57-3.92,3.83-16.62,21.77-16.74,0,0,13.55,0,17.33,9.82a45.15,45.15,0,0,1,2.12,6.66l-.17,2.65-.36,5.89c0,.3-.06.62-.11.94-.56,4-2.37,9.08-2.91,11.58A11.55,11.55,0,0,1,352.44,280.39Zm-2.57-22.25a2.32,2.32,0,1,0-2-2.28A2.15,2.15,0,0,0,349.87,258.14Zm-18.12-.24a2.33,2.33,0,1,0-2-2.29A2.16,2.16,0,0,0,331.75,257.9Z"/><path d="M351.83,255.83a2,2,0,1,1-2-2.28A2.15,2.15,0,0,1,351.83,255.83Z"/><path class="cls-4" d="M351,225.16h-1.13c-2.89-.78-11.41-2.59-19.41.39l-.15-.4c0-5.36,4.63-9.7,10.35-9.7S351,219.8,351,225.16Z"/><path class="cls-2" d="M336.47,412.25l1.35,0c-6.82.74-9.42,5.8-12.26,8.64a41,41,0,0,1-8.33,5.95c-5.31,1.81-9.43,3.56-12.9,6.13l-.8-.47c1.66-8.6,2.83-16.16,3.56-23l.54.06C313.62,410.53,326.25,412.4,336.47,412.25Z"/><path d="M333.72,255.59a2,2,0,1,1-2-2.29A2.16,2.16,0,0,1,333.72,255.59Z"/><path class="cls-1" d="M297.88,261.32c1.65,7.71,3.39,18.34,4.15,22.21,1,5,1.3,4.3,5.86,8.33a37.29,37.29,0,0,1,6.79,8.59,3.16,3.16,0,0,0,1.14,1.13l-.27.42s-1.58,13.11-1.8,20.49c0,0-12.36,21.59-13,30.41-2.27-7.3-5.45-17.7-6.36-21.74-1.47-6.52-5.91-13.31-8.09-22.75-1.95-8.45-6.08-26.45-7.39-35.57s-.81-21.34,0-30.86,2.77-11.82,6.85-14.91,8.3-2.34,10.42,1.08,9.29,14.39,12.67,18.46,8.79,12,8.79,12a10.94,10.94,0,0,0,2.22,5.06s1.59,1.34.87-2.29l.22,0c.54,3.15,2.43,8.86,3.26,11.92a12.28,12.28,0,0,0,4.23,6.39c.22,6-1,16.16-8.63,21.39,0,0-1.87-5.92-1.51-8.37s2.6-5.11,0-9.18-10.39-13.31-13.32-16.4A46.57,46.57,0,0,0,297.88,261.32Z"/><path class="cls-1" d="M320.93,261.38l-.22,0c.72,3.63-.87,2.29-.87,2.29a10.94,10.94,0,0,1-2.22-5.06,15.48,15.48,0,0,1-.29-3c.43-3.23,1.56-2.48,2.29-1.55l.48,0,.69,6.1A8.58,8.58,0,0,0,320.93,261.38Z"/><path class="cls-1" d="M239.93,479l-1.74.59a1.29,1.29,0,0,1-.43.07,1.32,1.32,0,0,1-.69-2.46,2.75,2.75,0,0,1-3.36-4.22c1.3-1.56,3.45-3.66,5.81-4.2,3.87-.89,7.14-3.87,8.93-4.17a4.86,4.86,0,0,1,1.61.05,8.14,8.14,0,0,1,3.34,1.46,8.32,8.32,0,0,0,4.88,1.77c4.46-.2,9.52.59,14.88-.6a13.15,13.15,0,0,0,2.83-1.05l.06.12s-3.23,9,6.71,14.56l.08.64a21.65,21.65,0,0,1-6.1,2.19c-7.27,1.23-18-2.46-20.78-3s-9.22-.1-9.22-.1l-4.22.69a2.06,2.06,0,0,1-2.12-1Z"/><path class="cls-5" d="M386.59,463c2.13,0,3.07-2.79,3.4-6.37.6-6.48-.79-15.59-.79-15.59-2.56-13.86-8.72-24-12.31-32.65A30.5,30.5,0,0,1,374.15,398c-.07-1.91,0-5.39.23-9.37a137.45,137.45,0,0,1,1.54-14.6l.8-2.79c1.64-5.83,5.4-19.37,6.84-26.41a30.1,30.1,0,0,0,.56-3.53,27.82,27.82,0,0,0-1.3-9.94"/><path class="cls-5" d="M307.63,409.58c6,.95,18.62,2.82,28.84,2.67l1.35,0,2.51-.07c11.7-.42,31.31-1.94,36.16-3.56"/><path class="cls-5" d="M237.07,477.21a1.32,1.32,0,0,0,.69,2.46,1.29,1.29,0,0,0,.43-.07l1.74-.59,2.91-1"/><path class="cls-5" d="M383.32,436.34c-20.54-16.68-32.45-23.23-42-24.12-.34,0-.68-.06-1-.07a17.09,17.09,0,0,0-2.51.07c-6.82.74-9.42,5.8-12.26,8.64a41,41,0,0,1-8.33,5.95c-5.31,1.81-9.43,3.56-12.9,6.13-3.93,2.92-7,6.89-10,13.22-4.78,10-12.73,17.34-18.31,20.09a13.15,13.15,0,0,1-2.83,1.05c-5.36,1.19-10.42.4-14.88.6a8.32,8.32,0,0,1-4.88-1.77,8.14,8.14,0,0,0-3.34-1.46,4.86,4.86,0,0,0-1.61-.05c-1.79.3-5.06,3.28-8.93,4.17-2.36.54-4.51,2.64-5.81,4.2a2.74,2.74,0,0,0-.09,3.42,2.75,2.75,0,0,0,3.45.8l.08,0,.12-.06,4.33-2.37"/><path class="cls-5" d="M386.6,463c.8,0,1.64-.07,2.49-.13a9,9,0,0,0,2.55-.6,7.69,7.69,0,0,1,2.84-.62,4.72,4.72,0,0,1,2.67,1"/><path class="cls-5" d="M240.4,480.38a2.06,2.06,0,0,0,2.12,1l4.22-.69s6.45-.41,9.22.1,13.51,4.2,20.78,3a21.65,21.65,0,0,0,6.1-2.19c5.17-2.62,10.24-6.7,15.1-8.25,1.27-.4,2.38-.69,3.41-.94,4.48-1.07,7.56-1.57,16-8.89,10.44-9,18.12-10.34,22.73-14.44,0,0,5.32,2.36,7.78,3.59s4.5,3.48,6.24,7.16a27.5,27.5,0,0,1,13.93-2.56,16,16,0,0,1,10.85,5.64,70.69,70.69,0,0,0,7.67.16"/><path class="cls-5" d="M390.16,456.68s1.4-1.82,5-1.54,4,1.49,6,2.73a19.25,19.25,0,0,0,11.17,2.43s7.6-.14,12-2.86,6.16-2,9.6-.58,4.45,1.22,7.88,2.29c.9.29,2.59,2.26,4,3.83a2.75,2.75,0,0,1-2.05,4.59,2.88,2.88,0,0,1-1-.18l-5-1.93"/><path class="cls-5" d="M438,470.33l3,.13,2.47.1a1.35,1.35,0,0,0,1.4-1.35v-1"/><path class="cls-5" d="M441,470.47v.44a1.6,1.6,0,0,1-1.7,1.59c-3.07-.22-9.49-.59-12.48-.16-4,.57-11.61,4.44-21.35,5a53.85,53.85,0,0,0-12.72,2,75.38,75.38,0,0,0-9.78,3.84c-7.88,3.58-17.9,9.93-40,9.74-17.19-.14-14.18-1.72-21.78-4.58,0,0-14-4.3-18.34-15.91"/><path class="cls-5" d="M354.14,459.8a8.7,8.7,0,0,0-1,6.66"/><path class="cls-5" d="M386.59,463h0s0,0,0,0c.3.25,12.56,10.72,6.11,16.26"/><path class="cls-5" d="M276.05,466.37s-3.23,9,6.71,14.56"/><path class="cls-5" d="M330.3,225.16c0-5.36,4.63-9.7,10.35-9.7S351,219.8,351,225.16"/><path class="cls-5" d="M319.89,252.2c.57-3.92,3.83-16.62,21.77-16.74,0,0,13.55,0,17.33,9.82a45.15,45.15,0,0,1,2.12,6.66,5.68,5.68,0,0,1,.12.78s8-19.88-10.34-27.25c0,0-.37-.12-1-.3-2.89-.78-11.41-2.59-19.41.39a21.49,21.49,0,0,0-6.85,4.09c-9,8-3.84,23.69-3.84,23.69S319.78,252.92,319.89,252.2Z"/><path class="cls-5" d="M361.26,254.61c.64-1.06,2-2.72,2.66,1,0,0,.31,5-2.16,8.12,0,0-1.54,1.41-1-2.25"/><path class="cls-5" d="M319.62,254.14c-.73-.93-1.86-1.68-2.29,1.55a15.48,15.48,0,0,0,.29,3,10.94,10.94,0,0,0,2.22,5.06s1.59,1.34.87-2.29"/><path class="cls-5" d="M319.79,251.35l.1.85.21,1.89.69,6.1a8.58,8.58,0,0,0,.14,1.19c.54,3.15,2.43,8.86,3.26,11.92a12.28,12.28,0,0,0,4.23,6.39c2.6,2.14,6.73,4,13.25,3.83a22.1,22.1,0,0,0,10.77-3.13,11.55,11.55,0,0,0,5.12-7.39c.54-2.5,2.35-7.59,2.91-11.58,0-.32.08-.64.11-.94l.36-5.89.17-2.65.07-1.2"/><path class="cls-5" d="M342.36,263.54a4.29,4.29,0,0,1-4.44-.13"/><polyline class="cls-5" points="335.63 270.96 336.56 271.34 339.52 270.47 340.63 271.16 341.86 270.5 344.51 271.45 345.38 271.22"/><line class="cls-5" x1="339.45" y1="275.9" x2="342.01" y2="275.93"/><path class="cls-5" d="M328.42,279.69c.22,6-1,16.16-8.63,21.39l-.76.49a3,3,0,0,1-1.61.43,3.26,3.26,0,0,1-1.6-.42,3.16,3.16,0,0,1-1.14-1.13,37.29,37.29,0,0,0-6.79-8.59c-4.56-4-4.89-3.34-5.86-8.33-.76-3.87-2.5-14.5-4.15-22.21-.49-2.23-.95-4.21-1.39-5.72-2-6.71-2.12-6.71-3.1-10.45"/><path class="cls-5" d="M372.07,302a99.13,99.13,0,0,0-.18,22.86s9.63,9.43,11.67,19.93c0,0,4,12.75,5,19.92s6.52,16,6.52,16"/><path class="cls-5" d="M319.79,301.08s-1.87-5.92-1.51-8.37,2.6-5.11,0-9.18-10.39-13.31-13.32-16.4a46.57,46.57,0,0,0-7.08-5.81"/><path class="cls-5" d="M317.62,258.65s-5.4-8-8.79-12-10.55-15-12.67-18.46-6.35-4.18-10.42-1.08-6,5.39-6.85,14.91-1.3,21.74,0,30.86,5.44,27.12,7.39,35.57c2.18,9.44,6.62,16.23,8.09,22.75.91,4,4.09,14.44,6.36,21.74,1.39,4.45,2.44,7.74,2.44,7.74,4.29,14.06,6.22,27.7,3.92,48.88-.73,6.79-1.9,14.35-3.56,23"/><path class="cls-5" d="M376.71,371.2h0c.23.12,7.75,3.73,12.58,5.89a28.19,28.19,0,0,1,5.69,3.66,56.83,56.83,0,0,1,4.77,4.32"/><path class="cls-5" d="M374.38,388.59s24.08,14.89,30.43,17.17,9.29-2.44,10.1-6.35.49-21.55-3.58-36.68-2.77-14.63-5.38-24.24-4.72-22.32-10.1-27.21-6.35-6.19-9-6.84a58.56,58.56,0,0,0-6.28-1.06,61.46,61.46,0,0,1-8.31-2.11A108.58,108.58,0,0,1,356.7,295c-3.73-2.11-4.5-8.24-4.26-14.57v0"/><path class="cls-5" d="M315.55,302s-1.58,13.11-1.8,20.49c0,0-12.36,21.59-13,30.41"/><path class="cls-5" d="M313.75,322.49s26.39,13,58.14,2.37"/><path class="cls-5" d="M300.73,325.77s-.82-11-1.35-15.59,1.35-12,1.35-12"/></svg>