<svg id="Layer_1" data-name="Layer 1" xmlns="http://www.w3.org/2000/svg" viewBox="0 0 700 700"><defs><style>.cls-1{fill:#feae63;}.cls-2{fill:#99abcc;}.cls-3{fill:#c4e7f9;}.cls-4{fill:#392328;}.cls-5,.cls-6,.cls-7{fill:none;stroke:#000;stroke-linecap:round;stroke-linejoin:round;}.cls-5{stroke-width:2.3px;}.cls-6{stroke-width:2.22px;}.cls-7{stroke-width:2.21px;}</style></defs><title>Yoga_poses_2020_color</title><path class="cls-1" d="M456.69,455.25l1.05.61v1a1.35,1.35,0,0,1-1.4,1.35l-2.47-.1h0v.44a1.6,1.6,0,0,1-1.7,1.59c-3.07-.22-9.49-.59-12.48-.16-4,.57-11.61,4.44-21.35,5a53.85,53.85,0,0,0-12.72,2l0-.09c6.45-5.54-5.81-16-6.11-16.26,0,0,0,0,0,0h0c2.13,0,3.07-2.79,3.4-6.37l.17,0s1.4-1.82,5-1.54,4,1.49,6,2.73A19.25,19.25,0,0,0,425.21,448s7.6-.14,12-2.86,6.16-2,9.6-.58,4.45,1.22,7.88,2.29c.9.29,2.59,2.26,4,3.83a2.75,2.75,0,0,1-2.05,4.59Z"/><path class="cls-2" d="M367,447.48A27.5,27.5,0,0,1,381,444.92a16,16,0,0,1,10.85,5.64,70.69,70.69,0,0,0,7.67.16s0,0,0,0c.3.25,12.56,10.72,6.11,16.26l0,.09a75.38,75.38,0,0,0-9.78,3.84c-7.88,3.58-17.9,9.93-40,9.74-17.19-.14-14.18-1.72-21.78-4.58,0,0-14-4.3-18.34-15.91l-1.51-.1c4.48-1.07,7.56-1.57,16-8.89,10.44-9,18.12-10.34,22.73-14.44,0,0,5.32,2.36,7.78,3.59S365.28,443.8,367,447.48Z"/><path class="cls-2" d="M353.21,399.83c11.7-.42,31.31-1.94,36.16-3.56l.4-.17c3.59,8.64,9.75,18.79,12.31,32.65,0,0,1.39,9.11.79,15.59-.33,3.58-1.27,6.37-3.4,6.37h0a70.69,70.69,0,0,1-7.67-.16A16,16,0,0,0,381,444.92,27.5,27.5,0,0,0,367,447.48c-1.74-3.68-3.78-5.93-6.24-7.16s-7.78-3.59-7.78-3.59c-4.61,4.1-12.29,5.43-22.73,14.44-8.48,7.32-11.56,7.82-16,8.89-1,.25-2.14.54-3.41.94-4.86,1.55-9.93,5.63-15.1,8.25l-.08-.64c-9.94-5.55-6.71-14.56-6.71-14.56l-.06-.12c5.58-2.75,13.53-10,18.31-20.09,3-6.33,6.1-10.3,10-13.22,3.47-2.57,7.59-4.32,12.9-6.13a41,41,0,0,0,8.33-5.95c2.84-2.84,5.44-7.9,12.26-8.64Z"/><path class="cls-1" d="M378.49,306.83l-.11-.25a110.09,110.09,0,0,0-2-11h0a78.06,78.06,0,0,0,13.23,3.62s9.37.61,11.41,5.49.16,13.21-1.73,18.56c-.82,2.32-1.37,4.39-2.91,6.08-2,2.2-5.71,3.76-13.86,4.47C368,335,363,334.87,352.47,331.59c0,0-1.19-.31-3-.59h0c-.93-.16-2-.3-3.19-.39-2.43-.2-5.65-3-6.73-8.69a21.24,21.24,0,0,1-.37-3.74c-.11-6.79,1.36-28.76,2.4-40.11.22-2.33.42-4.22.58-5.43.76-5.63,2.43-12.87,3-15.58l.12,0c1.92,9.41,3.89,21.44,5,26.75,1.64,8.06,4.64,11.47,7.23,19.8a72.42,72.42,0,0,0,3.25,8.46,59.44,59.44,0,0,0,3,5.87,37.63,37.63,0,0,1,5.24-5.75,21.62,21.62,0,0,1,6.37-4.08C376.59,307.62,377.67,307.18,378.49,306.83Z"/><path class="cls-1" d="M396.43,329.31l0,0c-1.59,3.86-1.58,10.36-2.84,15.73l-.49-.12c-3.5-1.32-10-9.18-10.57-11.18C390.72,333.07,394.41,331.51,396.43,329.31Z"/><path class="cls-3" d="M393.63,345.08c-.05.25-.12.5-.18.75-1.15,4.35-4,12.26-4.65,15.84a149.82,149.82,0,0,0-1.77,24,30.5,30.5,0,0,0,2.74,10.46l-.4.17c-4.85,1.62-24.46,3.14-36.16,3.56a17.09,17.09,0,0,0-2.51.07l-1.35,0c-10.22.15-22.85-1.72-28.84-2.67l-.45-.05c2.18-18.7.74-27.36-.31-33.41-.7-4.05-3.47-8.46-4.82-13.37a66.12,66.12,0,0,1-1.41-8.12l.7-.1c1.42-.95,8.91-6.66,13.46-12.86L349.49,331h0c1.78.28,3,.59,3,.59,10.51,3.28,15.55,3.45,30.1,2.19.58,2,7.07,9.86,10.57,11.18Z"/><path class="cls-1" d="M348.4,193.82l0-2.28v0a1.52,1.52,0,0,1,3-.05l.62,17.1h0l0-8.95a1.68,1.68,0,0,1,3.36-.06l.48,13.38s.17.34.42.94a23.84,23.84,0,0,1,1.76,8.06,19.3,19.3,0,0,1-.14,3,66.77,66.77,0,0,1-2.23,10.46,3.47,3.47,0,0,1-1.3,1.82,1.59,1.59,0,0,0-.58,1.83c.38,1.07,1,2.85,2,5.17.84,2,1.91,4.5,3.24,7.26a2.52,2.52,0,0,0-.48,1.51l2,2.28a1.34,1.34,0,0,0,.35,0c1.14,2.2,2.41,4.55,3.84,7a63.73,63.73,0,0,1,3.43,6.87,155.68,155.68,0,0,1,8.23,26.48,110.09,110.09,0,0,1,2,11l.11.25c-.82.35-1.9.79-3.11,1.25a21.62,21.62,0,0,0-6.37,4.08l0,0c-4,3.28-8.13-.15-8.13-.15l-.12.05a72.42,72.42,0,0,1-3.25-8.46c-2.59-8.33-5.59-11.74-7.23-19.8-1.08-5.31-3.05-17.34-5-26.75-.35-1.68-.69-3.28-1-4.74a1.22,1.22,0,0,0-.06-.26,50,50,0,0,0-1.72-6.19,30.24,30.24,0,0,1-1.36-9.77c0-.11,0-.23,0-.34a133.21,133.21,0,0,1,1.13-13.37c.54-4.31,1.06-7.78,1.06-7.78l1.39-15.43a1.34,1.34,0,0,1,1.34-1.23h.18l.05-2.31a1.82,1.82,0,0,1,1.68-1.78Z"/><path class="cls-1" d="M374.31,252.85s.31,5-2.16,8.13c0,0-1.54,1.4-1-2.26l-.15,0c.06-.37.1-.72.13-1.07l.45-5.77h0C372.29,250.8,373.65,249.14,374.31,252.85Z"/><path class="cls-1" d="M371.63,251.09l0,.06-.06.71-.45,5.77c0,.35-.07.7-.13,1.07a91.78,91.78,0,0,1-2.6,10.27l-.27.12a63.73,63.73,0,0,0-3.43-6.87c-1.43-2.43-2.7-4.78-3.84-7A2.23,2.23,0,0,0,362.5,253a2.15,2.15,0,0,0-2-2.28,1.87,1.87,0,0,0-1.48.8c-1.33-2.76-2.4-5.22-3.24-7.26l.4-.22s2.3-2.13,2.61-9h.08c3.69.91,7.64,2.9,9.43,7.16,2.18,5.19,1.29,10.13,2.94,9.2A4.25,4.25,0,0,0,371.63,251.09Z"/><path class="cls-4" d="M361.52,222.89c16.21,6.58,15.19,24.49,10.11,28.2a4.25,4.25,0,0,1-.39.25c-1.65.93-.76-4-2.94-9.2-1.79-4.26-5.74-6.25-9.43-7.16h-.08c0-.23,0-.47,0-.71.17-7.48-.91-9.31-.91-9.31a19.3,19.3,0,0,0,.14-3h.15c1.33.25,2.11.48,2.11.48C360.72,222.57,361.12,222.72,361.52,222.89Z"/><path class="cls-1" d="M369,312.14l0,0a37.63,37.63,0,0,0-5.24,5.75,59.44,59.44,0,0,1-3-5.87l.12-.05S365,315.42,369,312.14Z"/><path d="M362.5,253a2.23,2.23,0,0,1-1.61,2.27c-.67-1.3-1.3-2.56-1.87-3.75a1.87,1.87,0,0,1,1.48-.8A2.15,2.15,0,0,1,362.5,253Z"/><path class="cls-4" d="M356.32,213.86a9.59,9.59,0,0,1,5.2,9h0c-.4-.17-.8-.32-1.22-.47,0,0-.78-.23-2.11-.48H358a23.84,23.84,0,0,0-1.76-8.06Z"/><path d="M360.89,255.24a1.34,1.34,0,0,1-.35,0l-2-2.28a2.52,2.52,0,0,1,.48-1.51C359.59,252.68,360.22,253.94,360.89,255.24Z"/><path class="cls-1" d="M357.9,225s1.08,1.83.91,9.31c0,.24,0,.48,0,.71-.31,6.91-2.61,9-2.61,9l-.4.22c-1-2.32-1.61-4.1-2-5.17a1.59,1.59,0,0,1,.58-1.83,3.47,3.47,0,0,0,1.3-1.82A66.77,66.77,0,0,0,357.9,225Z"/><path class="cls-2" d="M349.35,399.93l1.35,0c-6.82.74-9.42,5.8-12.26,8.64a41,41,0,0,1-8.33,5.95c-5.31,1.81-9.43,3.56-12.9,6.13l-.8-.47c1.74-9,2.9-16.56,3.65-22.94l.45.05C326.5,398.21,339.13,400.08,349.35,399.93Z"/><path class="cls-1" d="M349.49,331l-21.81-1.65a20.74,20.74,0,0,0,3.06-5.57l-.06-.54c4.27-.52,8.86-1.31,8.86-1.31h0c1.08,5.68,4.3,8.49,6.73,8.69C347.47,330.7,348.56,330.84,349.49,331Z"/><path class="cls-1" d="M345.29,257l-.12,0c-.56,2.71-2.23,9.95-3,15.58-.16,1.21-.36,3.1-.58,5.43l-1-.1c-.46-.29-.88-.58-1.28-.89a12.4,12.4,0,0,1-4.52-6.63c-.79-2.92-2.55-8.26-3.18-11.48a12.36,12.36,0,0,1-.22-1.63l-.55-5.47c2,.69-1.2-11.1,10.14-15.8h.16a30.24,30.24,0,0,0,1.36,9.77A50,50,0,0,1,344.2,252a2,2,0,0,0-1.9-1.57,2.32,2.32,0,1,0,2,2.28,3.42,3.42,0,0,0,0-.45C344.6,253.75,344.94,255.35,345.29,257Z"/><path d="M344.3,252.74a2,2,0,1,1-2-2.28,2,2,0,0,1,1.9,1.57,1.22,1.22,0,0,1,.06.26A3.42,3.42,0,0,1,344.3,252.74Z"/><path class="cls-4" d="M330.05,251h0c-1.88-3.57-3.7-16.61,3.66-23.74a19.69,19.69,0,0,1,8.32-4.9l.22,0a133.21,133.21,0,0,0-1.13,13.37c0,.11,0,.23,0,.34H341c-11.34,4.7-8.17,16.49-10.14,15.8h0A1.84,1.84,0,0,1,330.05,251Z"/><path class="cls-1" d="M330.68,323.24l.06.54a20.74,20.74,0,0,1-3.06,5.57c-4.55,6.2-12,11.91-13.46,12.86l-.7.1a24.89,24.89,0,0,0-1.35-5.83,58.16,58.16,0,0,1-2.95-7.6c-1.82-7-2.64-9.19-2.64-9.19-2.32-6.42-2.64-14.33-2-17.62.74-3.88,8.53-6.18,8.53-6.18a39.08,39.08,0,0,1,14.49-1.52,17.57,17.57,0,0,0,7.41-2.25c3.75-2.12,4.51-8.28,4.27-14.62l0-.42c.4.31.82.6,1.28.89l1,.1c-1,11.35-2.51,33.32-2.4,40.11a21.24,21.24,0,0,0,.37,3.74h0S335,322.72,330.68,323.24Z"/><path class="cls-1" d="M331.59,259l-.12,0c.55,3.67-1,2.25-1,2.25-2.46-3.13-2.13-8.13-2.13-8.13.41-2.28,1.08-2.53,1.68-2.14h0a1.84,1.84,0,0,0,.76.89h0l.55,5.47A12.36,12.36,0,0,0,331.59,259Z"/><path class="cls-1" d="M250,464.89a2.75,2.75,0,0,1-3.36-4.22c1.3-1.56,3.45-3.66,5.81-4.2,3.87-.89,7.14-3.87,8.93-4.17a4.86,4.86,0,0,1,1.61.05,8.14,8.14,0,0,1,3.34,1.46,8.32,8.32,0,0,0,4.88,1.77c4.46-.2,9.52.59,14.88-.6a13.15,13.15,0,0,0,2.83-1.05l.06.12s-3.23,9,6.71,14.56l.08.64a21.65,21.65,0,0,1-6.1,2.19c-7.27,1.23-18-2.46-20.78-3s-9.22-.1-9.22-.1l-4.22.69a2.06,2.06,0,0,1-2.12-1l-.47-1.37-1.74.59a1.29,1.29,0,0,1-.43.07,1.32,1.32,0,0,1-.69-2.46Z"/><path class="cls-5" d="M371.65,251.86c.64-1.06,2-2.72,2.66,1,0,0,.31,5-2.16,8.13,0,0-1.54,1.4-1-2.26"/><path class="cls-6" d="M330,251c-.6-.39-1.27-.14-1.68,2.14,0,0-.33,5,2.13,8.13,0,0,1.53,1.42,1-2.25"/><path class="cls-5" d="M330.72,251.68a2.81,2.81,0,0,0-.67-.7"/><path class="cls-5" d="M339.27,277.5c.24,6.34-.52,12.5-4.27,14.62a17.57,17.57,0,0,1-7.41,2.25,39.08,39.08,0,0,0-14.49,1.52s-7.79,2.3-8.53,6.18c-.63,3.29-.31,11.2,2,17.62,0,0,.82,2.18,2.64,9.19a58.16,58.16,0,0,0,2.95,7.6,24.89,24.89,0,0,1,1.35,5.83,66.12,66.12,0,0,0,1.41,8.12c1.35,4.91,4.12,9.32,4.82,13.37,1.05,6.05,2.49,14.71.31,33.41-.75,6.38-1.91,13.93-3.65,22.94"/><path class="cls-5" d="M382.57,333.78c.58,2,7.07,9.86,10.57,11.18"/><path class="cls-5" d="M396.47,329.35c-1.59,3.86-1.58,10.36-2.84,15.73-.05.25-.12.5-.18.75-1.15,4.35-4,12.26-4.65,15.84a149.82,149.82,0,0,0-1.77,24,30.5,30.5,0,0,0,2.74,10.46c3.59,8.64,9.75,18.79,12.31,32.65,0,0,1.39,9.11.79,15.59-.33,3.58-1.27,6.37-3.4,6.37"/><path class="cls-5" d="M320.51,397.26c6,.95,18.62,2.82,28.84,2.67l1.35,0,2.51-.07c11.7-.42,31.31-1.94,36.16-3.56"/><path class="cls-5" d="M250,464.89a1.32,1.32,0,0,0,.69,2.46,1.29,1.29,0,0,0,.43-.07l1.74-.59,2.91-1"/><path class="cls-5" d="M396.2,424c-20.54-16.68-32.45-23.23-42-24.12-.34,0-.68-.06-1-.07a17.09,17.09,0,0,0-2.51.07c-6.82.74-9.42,5.8-12.26,8.64a41,41,0,0,1-8.33,5.95c-5.31,1.81-9.43,3.56-12.9,6.13-3.93,2.92-7,6.89-10,13.22-4.78,10.05-12.73,17.34-18.31,20.09A13.15,13.15,0,0,1,286,455c-5.36,1.19-10.42.4-14.88.6a8.32,8.32,0,0,1-4.88-1.77,8.14,8.14,0,0,0-3.34-1.46,4.86,4.86,0,0,0-1.61-.05c-1.79.3-5.06,3.28-8.93,4.17-2.36.54-4.51,2.64-5.81,4.2a2.74,2.74,0,0,0-.09,3.42,2.75,2.75,0,0,0,3.45.8l.08,0,.12-.06,4.33-2.37"/><path class="cls-5" d="M399.48,450.72c.8,0,1.64-.07,2.49-.13a9,9,0,0,0,2.55-.6,7.69,7.69,0,0,1,2.84-.62,4.72,4.72,0,0,1,2.67,1"/><path class="cls-5" d="M253.28,468.06a2.06,2.06,0,0,0,2.12,1l4.22-.69s6.45-.41,9.22.1,13.51,4.2,20.78,3a21.65,21.65,0,0,0,6.1-2.19c5.17-2.62,10.24-6.7,15.1-8.25,1.27-.4,2.38-.69,3.41-.94,4.48-1.07,7.56-1.57,16-8.89,10.44-9,18.12-10.34,22.73-14.44,0,0,5.32,2.36,7.78,3.59s4.5,3.48,6.24,7.16A27.5,27.5,0,0,1,381,444.92a16,16,0,0,1,10.85,5.64,70.69,70.69,0,0,0,7.67.16"/><path class="cls-5" d="M403,444.36s1.4-1.82,5-1.54,4,1.49,6,2.73A19.25,19.25,0,0,0,425.21,448s7.6-.14,12-2.86,6.16-2,9.6-.58,4.45,1.22,7.88,2.29c.9.29,2.59,2.26,4,3.83a2.75,2.75,0,0,1-2.05,4.59,2.88,2.88,0,0,1-1-.18l-5-1.93"/><path class="cls-5" d="M450.86,458l3,.13,2.47.1a1.35,1.35,0,0,0,1.4-1.35v-1"/><path class="cls-5" d="M453.87,458.15v.44a1.6,1.6,0,0,1-1.7,1.59c-3.07-.22-9.49-.59-12.48-.16-4,.57-11.61,4.44-21.35,5a53.85,53.85,0,0,0-12.72,2,75.38,75.38,0,0,0-9.78,3.84c-7.88,3.58-17.9,9.93-40,9.74-17.19-.14-14.18-1.72-21.78-4.58,0,0-14-4.3-18.34-15.91"/><path class="cls-5" d="M367,447.48a8.7,8.7,0,0,0-1,6.66"/><path class="cls-5" d="M399.47,450.71h0s0,0,0,0c.3.25,12.56,10.72,6.11,16.26"/><path class="cls-5" d="M288.93,454.05s-3.23,9,6.71,14.56"/><path class="cls-5" d="M314.72,324.06s8.2-.1,13-.5c.93-.08,1.95-.19,3-.32,4.27-.52,8.86-1.31,8.86-1.31"/><path class="cls-5" d="M330.74,323.78a20.74,20.74,0,0,1-3.06,5.57c-4.55,6.2-12,11.91-13.46,12.86"/><path class="cls-5" d="M380,306.17l-1.53.66c-.82.35-1.9.79-3.11,1.25a21.62,21.62,0,0,0-6.37,4.08,37.63,37.63,0,0,0-5.24,5.75,59.44,59.44,0,0,1-3-5.87,72.42,72.42,0,0,1-3.25-8.46c-2.59-8.33-5.59-11.74-7.23-19.8-1.08-5.31-3.05-17.34-5-26.75-.35-1.68-.69-3.28-1-4.74a1.22,1.22,0,0,0-.06-.26,50,50,0,0,0-1.72-6.19,30.24,30.24,0,0,1-1.36-9.77c0-.11,0-.23,0-.34a133.21,133.21,0,0,1,1.13-13.37c.54-4.31,1.06-7.78,1.06-7.78l1.39-15.43a1.34,1.34,0,0,1,1.34-1.23"/><path class="cls-5" d="M345.89,211.57l.32-13.65.05-2.31a1.82,1.82,0,0,1,1.68-1.78"/><path class="cls-5" d="M378.38,306.58a110.09,110.09,0,0,0-2-11,155.68,155.68,0,0,0-8.23-26.48,63.73,63.73,0,0,0-3.43-6.87c-1.43-2.43-2.7-4.78-3.84-7-.67-1.3-1.3-2.56-1.87-3.75-1.33-2.76-2.4-5.22-3.24-7.26-1-2.32-1.61-4.1-2-5.17a1.59,1.59,0,0,1,.58-1.83,3.47,3.47,0,0,0,1.3-1.82A66.77,66.77,0,0,0,357.9,225a19.3,19.3,0,0,0,.14-3,23.84,23.84,0,0,0-1.76-8.06c-.25-.6-.42-.94-.42-.94l-.48-13.38a1.68,1.68,0,0,0-3.36.06l0,8.95v.07"/><path class="cls-5" d="M352,208.57l-.62-17.1a1.52,1.52,0,0,0-3,.05v0l0,2.28.22,16.93"/><path class="cls-5" d="M360.86,312s4.17,3.43,8.13.15"/><path class="cls-5" d="M349.49,331c-.93-.16-2-.3-3.19-.39-2.43-.2-5.65-3-6.73-8.69a21.24,21.24,0,0,1-.37-3.74c-.11-6.79,1.36-28.76,2.4-40.11.22-2.33.42-4.22.58-5.43.76-5.63,2.43-12.87,3-15.58"/><path class="cls-5" d="M376.43,295.56a78.06,78.06,0,0,0,13.23,3.62s9.37.61,11.41,5.49.16,13.21-1.73,18.56c-.82,2.32-1.37,4.39-2.91,6.08-2,2.2-5.71,3.76-13.86,4.47C368,335,363,334.87,352.47,331.59c0,0-1.19-.31-3-.59"/><path class="cls-5" d="M356.32,213.86a9.59,9.59,0,0,1,5.2,9"/><path class="cls-5" d="M340.88,222.31a9.23,9.23,0,0,1,1.89-5.58"/><path class="cls-6" d="M342,222.33a19.69,19.69,0,0,0-8.32,4.9c-7.36,7.13-5.54,20.17-3.66,23.74h0a1.84,1.84,0,0,0,.76.89h0c2,.69-1.2-11.1,10.14-15.8"/><path class="cls-5" d="M356.18,244s2.3-2.13,2.61-9c0-.23,0-.47,0-.71.17-7.48-.91-9.31-.91-9.31"/><path class="cls-7" d="M358.87,235c3.69.91,7.64,2.9,9.43,7.16,2.18,5.19,1.29,10.13,2.94,9.2a4.25,4.25,0,0,0,.39-.25c5.08-3.71,6.1-21.62-10.11-28.2-.4-.17-.8-.32-1.22-.47,0,0-.78-.23-2.11-.48"/><path class="cls-5" d="M368.43,269A91.78,91.78,0,0,0,371,258.7c.06-.37.1-.72.13-1.07l.45-5.77.06-.71"/><path class="cls-5" d="M330.72,250.92l.1,1,.55,5.47a12.36,12.36,0,0,0,.22,1.63c.63,3.22,2.39,8.56,3.18,11.48a12.4,12.4,0,0,0,4.52,6.63c.4.31.82.6,1.28.89"/><polyline class="cls-5" points="327.68 329.35 349.49 331 349.5 331"/></svg>