<svg id="Layer_1" data-name="Layer 1" xmlns="http://www.w3.org/2000/svg" viewBox="0 0 700 700"><defs><style>.cls-1{fill:#feae63;}.cls-2{fill:#392328;}.cls-3{fill:#c4e7f9;}.cls-4{fill:#99abcc;}.cls-5{fill:none;stroke:#000;stroke-linecap:round;stroke-linejoin:round;stroke-width:2.3px;}</style></defs><title>Yoga_poses_2020_color</title><path class="cls-1" d="M424.42,266.59a8.27,8.27,0,0,1-.61-1.8c.06-5.89,5.33-3,5.33-3,2.34-.2,5.87-2.32,7.41-6.53s.39-7.52,3.79-10.61c1.72-1.56,9-9.06,9-9.06l.68,1.73s5,7.41,5.79,12.78c.63,4.22-.57,5.12,1.8,7.43l3.46,4.9-4.8,1.88.68,10.08c.5.79,3.14,7.35-7.84,7.36,0,0-5.25-1.2-6.25,3.49-1.2,5.67-18,26.77-18,26.77l-1.53.25c-.13-.28-.26-.55-.4-.82,1.54-11.84-3.74-22-14.16-23.06v-.09c7.82-5,5.86-11.45,5.86-11.45h0a6.64,6.64,0,0,0,4.91.82c4-1.4,3.39-6.68,3.39-6.68.34-3.56,1.36-4.34,1.36-4.34ZM451.59,258c.62-.06,1-1.27.87-2.7s-.76-2.54-1.38-2.48-1,1.27-.86,2.7S451,258.08,451.59,258Z"/><path class="cls-1" d="M394.3,337.13c-16.75-11.72-15.17-32.91-15.17-32.91l-.62-.65c11.27-10.77,20.82-15.13,28.16-15.25a17.78,17.78,0,0,1,2.09.09c10.42,1,15.7,11.22,14.16,23.06.14.27.27.54.4.82a30.43,30.43,0,0,1,3.05,13.11c0,12.71-5.54,11.08-6.19,34.21s3.58,33.23,0,48.54-1.81,48.54-1.81,48.54c3.42,2.53,14.44,3.19,18,3.86s19.6,1.87,19.6,1.87l-.64,1.75c2.34.16,4.1.25,4.1.25v.4a2.06,2.06,0,0,1-2.06,2.06h-5.41l0,.25c2.23.35,4.05.57,4.05.57l-.48.7a2.07,2.07,0,0,1-1.74.94h-8.53S445,471,443.73,471s-7.66-.37-12-2.37c0,0-18.4.54-20.59-1.64s-7.22-6.54-11.13-34.71c0,0-1.31-21.5-1.31-29,0-6.6-.45-18.95-2-35.46-.21-2.22-.43-4.52-.68-6.89C395,351.26,394.52,343,394.3,337.13Z"/><path d="M452.46,255.32c.14,1.43-.25,2.64-.87,2.7s-1.23-1-1.37-2.48.24-2.64.86-2.7S452.32,253.89,452.46,255.32Z"/><path class="cls-2" d="M448.78,234.31l.51,1.31s-7.23,7.5-9,9.06c-3.4,3.09-2.25,6.41-3.79,10.61s-5.07,6.33-7.41,6.53c0,0-5.27-2.92-5.33,3a8.27,8.27,0,0,0,.61,1.8l-.13.07s-1,.78-1.36,4.34c0,0,.61,5.28-3.39,6.68a6.64,6.64,0,0,1-4.91-.82,8.33,8.33,0,0,1-2.16-1.65,34.45,34.45,0,0,1-8.42-15.79,25.84,25.84,0,0,1,4.11-16.89,23.52,23.52,0,0,1,3.34-4.21c.61-.57,1.21-1.11,1.81-1.62C425.07,226.74,435,229.57,448.78,234.31Z"/><path class="cls-2" d="M412.56,236.37l.75.33c-.6.51-1.2,1.05-1.81,1.62a23.52,23.52,0,0,0-3.34,4.21h0c-5.28,7.23-11.88,2.3-12.86-1.13-1.38-4.79,2.3-13.48,9.78-12.4S412.56,236.37,412.56,236.37Z"/><path class="cls-3" d="M396.68,367.8l-.68.06a15.42,15.42,0,0,1-10-2.6c-36.94,8.61-58.88,3.82-71.27,0l2.65-.59c-1.84-13.09,1.18-13.49,1.5-27.5s1.64-16.45,1.64-16.45c12.68,5.8,31.64,9.74,55.38-14.5q1.33-1.37,2.64-2.61l.62.65s-1.58,21.19,15.17,32.91c.22,5.87.7,14.13,1.7,23.78C396.25,363.28,396.47,365.58,396.68,367.8Z"/><path class="cls-4" d="M320.49,320.68s-1.31,2.45-1.64,16.45-3.34,14.41-1.5,27.5l-2.65.59c-7.2-2.24-11.18-4.17-13-3,2.17,94.26-17.38,100-17.38,100-23.46,1.3-77.73-3.8-77.73-3.8a71.76,71.76,0,0,0-14.77-.68l0-.68c-1-4.26,0-16.41,0-16.41l-.06-.34c16.15-2.74,54.84-8.64,74.46-6.07a87.73,87.73,0,0,0-2.28-27.15c-3.59-13.68-7.17-38.44-3.59-68.41s39-29,50.41-23.13C313.37,317,316.64,318.92,320.49,320.68Z"/><path class="cls-1" d="M136.7,459.29l0,0-5.81-.16a1.41,1.41,0,0,1-1.38-1.59,4.09,4.09,0,0,1,3.46-3.65c2.19-.44,3.13.25,3.13.25A14.1,14.1,0,0,1,142.5,451c3.88-.76,13.62-8,15.46-10.4s7.59-11.43,13.78-9.19,4.63,11.49,12.6,10.32c0,0,2.77-.52,7.37-1.3l.06.34s-1,12.15,0,16.41l0,.68c-8.39.56-13.42,2.74-23.15,2.51-14.28-.35-21.91-1.47-27-.62A9.68,9.68,0,0,1,136.7,459.29Z"/><path class="cls-5" d="M429.14,261.82s-5.27-2.92-5.33,3a8.27,8.27,0,0,0,.61,1.8,8,8,0,0,0,5.83,4.72s3.22.13,1.05-3.17"/><path class="cls-5" d="M433.19,275.38s1.52,5.13,6.29,5.32"/><path class="cls-5" d="M449.29,235.62s-7.23,7.5-9,9.06c-3.4,3.09-2.25,6.41-3.79,10.61s-5.07,6.33-7.41,6.53"/><path class="cls-5" d="M412.56,236.37s0-6.29-7.49-7.38-11.16,7.61-9.78,12.4c1,3.43,7.58,8.36,12.86,1.13"/><path class="cls-5" d="M424.29,266.66s-1,.78-1.36,4.34c0,0,.61,5.28-3.39,6.68a6.64,6.64,0,0,1-4.91-.82,8.33,8.33,0,0,1-2.16-1.65,34.45,34.45,0,0,1-8.42-15.79,25.84,25.84,0,0,1,4.11-16.89,23.52,23.52,0,0,1,3.34-4.21c.61-.57,1.21-1.11,1.81-1.62,11.76-10,21.72-7.13,35.47-2.39l.51,1.31.68,1.73s5,7.41,5.79,12.78c.63,4.22-.57,5.12,1.8,7.43l3.46,4.9-4.8,1.88.68,10.08c.5.79,3.14,7.35-7.84,7.36,0,0-5.25-1.2-6.25,3.49-1.2,5.67-18,26.77-18,26.77"/><path class="cls-5" d="M433.89,464.6s3.1,1.46,4.92,2.55a32.72,32.72,0,0,0,6.38,2.19S445,471,443.73,471s-7.66-.37-12-2.37c0,0-18.4.54-20.59-1.64s-7.22-6.54-11.13-34.71c0,0-1.31-21.5-1.31-29,0-6.6-.45-18.95-2-35.46-.21-2.22-.43-4.52-.68-6.89-1-9.65-1.48-17.91-1.7-23.78s-.19-9.45-.19-9.45"/><path class="cls-5" d="M445.19,469.34h8.53a2.07,2.07,0,0,0,1.74-.94l.48-.7s-1.82-.22-4.05-.57c-1.84-.29-4-.66-5.61-1.07-3.65-.92-5.65-1.64-5.65-1.64"/><path class="cls-5" d="M451.93,466.88h5.41a2.06,2.06,0,0,0,2.06-2.06v-.4s-1.76-.09-4.1-.25c-3.38-.23-8-.6-10.11-1"/><path class="cls-5" d="M455.3,464.17l.64-1.75s-16.07-1.21-19.6-1.87-14.55-1.33-18-3.86c0,0-1.78-33.23,1.81-48.54s-.66-25.41,0-48.54,6.19-21.5,6.19-34.21a30.43,30.43,0,0,0-3.05-13.11c-.13-.28-.26-.55-.4-.82a31.12,31.12,0,0,0-5-7.25"/><path class="cls-5" d="M136.81,456.19a2.52,2.52,0,0,0-3,1.33,7.85,7.85,0,0,0,2.85,1.77,9.68,9.68,0,0,0,5,.42c5.06-.85,12.69.27,27,.62,9.73.23,14.76-1.95,23.15-2.51a71.76,71.76,0,0,1,14.77.68s54.27,5.1,77.73,3.8c0,0,19.55-5.78,17.38-100,1.82-1.21,5.8.72,13,3,12.39,3.86,34.33,8.65,71.27,0a15.42,15.42,0,0,0,10,2.6"/><path class="cls-5" d="M136.68,459.33l-5.81-.16a1.41,1.41,0,0,1-1.38-1.59,4.09,4.09,0,0,1,3.46-3.65c2.19-.44,3.13.25,3.13.25A14.1,14.1,0,0,1,142.5,451c3.88-.76,13.62-8,15.46-10.4s7.59-11.43,13.78-9.19,4.63,11.49,12.6,10.32c0,0,2.77-.52,7.37-1.3,16.15-2.74,54.84-8.64,74.46-6.07a87.73,87.73,0,0,0-2.28-27.15c-3.59-13.68-7.17-38.44-3.59-68.41s39-29,50.41-23.13c2.66,1.36,5.93,3.29,9.78,5.05,12.68,5.8,31.64,9.74,55.38-14.5q1.33-1.37,2.64-2.61c11.27-10.77,20.82-15.13,28.16-15.25a17.78,17.78,0,0,1,2.09.09c10.42,1,15.7,11.22,14.16,23.06v0"/><path class="cls-5" d="M191.77,440.73s-1,12.15,0,16.41"/><path class="cls-5" d="M379.13,304.22s-1.58,21.19,15.17,32.91"/><path class="cls-5" d="M320.49,320.68s-1.31,2.45-1.64,16.45-3.34,14.41-1.5,27.5"/><path class="cls-5" d="M414.63,276.87s2,6.41-5.86,11.45"/></svg>