<svg id="Layer_1" data-name="Layer 1" xmlns="http://www.w3.org/2000/svg" viewBox="0 0 700 700"><defs><style>.cls-1{fill:#feae63;}.cls-2{fill:#99abcc;}.cls-3{fill:#c4e7f9;}.cls-4{fill:#120c0c;}.cls-5{fill:none;stroke:#000;stroke-linecap:round;stroke-linejoin:round;stroke-width:2.3px;}</style></defs><title>Yoga_poses_2020_color</title><path class="cls-1" d="M493.83,506.72a3,3,0,0,1,0,.42,2.54,2.54,0,0,1-2.52,2.15h-7.14s-1.66,0-9.52,0-6-1.06-12.43-1.27-16.36,1.46-20.92,1.25-8.49.83-8.9-5,1.24-4.56,1.86-17.6c.09-1.95.11-4.2.06-6.63h0s10,3.32,18.93-.8h0c1.65,8.07,6.29,12.37,7.89,13s18,8.18,24.07,11a10.51,10.51,0,0,0,4.75,1l1.26,0A2.53,2.53,0,0,1,493.83,506.72Z"/><path class="cls-2" d="M307.65,443.63l-.58-.49c-6.91-15.35,14.2-31.85,14.2-31.85a34.67,34.67,0,0,0,8.61-9.65l.1.07c.39-.13,10.43-3.57,27.49.77,13.51,3.44,18.92,2.2,20.52,1.37.51-.26.64-.49.52-.51s50.79-19.12,63.42-18.08,13.08,8.28,14.95,16.15,1.34,8.38-.21,21.09c-2,16.7-3.37,36.07-4,49.12a30.11,30.11,0,0,0,.56,7.65h0c-8.91,4.12-18.93.8-18.93.8h0c-.25-13.83-2.56-33.81-5-41.17-2.9-8.66,0-20.75,0-20.75-7.59,3.08-26.3,13.26-38.51,22.37S362,452.35,362,452.35a53.85,53.85,0,0,1-7.12,5.42c-5.9,4.2-13.49,11.49-28.58,26.87-13,13.27-42.33,22.48-49.79,25.27s-13.82,2.49-20.34,2.64-7.27-2.81-16.9-2.35-22.83.78-35.26.47a137.41,137.41,0,0,0-21.16.62c-5-6.1-1.47-18-1.47-18l-.07-.25c4.59-1.25,10.31-3.42,20.14-5.66,21.87-5,24.63-4.22,44.58-2.68s20.26-3.76,29.86-11.43,15.19-10.92,25.47-23.26A48.57,48.57,0,0,1,307.65,443.63Z"/><path class="cls-3" d="M384.37,344.24c0,2.83-1.51,6.74-2.71,9.39a13.29,13.29,0,0,0-1.18,6.39c1,15.5-.63,31.71-2.49,43.83-1.6.83-7,2.07-20.52-1.37-17.06-4.34-27.1-.9-27.49-.77l-.1-.07a32.72,32.72,0,0,0,4.67-20.92,46.26,46.26,0,0,0-.73-5.76c-1.93-8.12-7.77-33.14-9.91-47.73,5.12,23.33,41.53,16.77,39.16-1.74a51.34,51.34,0,0,0-6.59-19.07l1.29-.47,19.51,21.27S384.37,335,384.37,344.24Z"/><path class="cls-1" d="M371.31,261.32l3.45,4.9-4.8,1.87.67,10.08c.5.8,3.14,7.36-7.85,7.36,0,0-3.61.34-3,5.1s-2,15.32-2,15.32l-1.29.47a52.49,52.49,0,0,0-8.8-11.52,50.36,50.36,0,0,1,1.49-7c2.8-9.79,3.62-26.2,3.82-38.13h0c1.68-1.52,9.68-10,10.07-10.42l.67,1.72s5,7.41,5.78,12.78C370.14,258.1,368.94,259,371.31,261.32Zm-6,.45c.62-.06,1-1.27.87-2.7s-.75-2.54-1.37-2.48-1,1.27-.87,2.7S364.72,261.83,365.34,261.77Z"/><path d="M366.21,259.07c.14,1.43-.25,2.64-.87,2.7s-1.23-1-1.37-2.48.25-2.64.87-2.7S366.07,257.64,366.21,259.07Z"/><path class="cls-1" d="M347.68,294.9a52.49,52.49,0,0,1,8.8,11.52,51.34,51.34,0,0,1,6.59,19.07c2.37,18.51-34,25.07-39.16,1.74a.28.28,0,0,0,0-.09,70.87,70.87,0,0,1-.76-7.47c-.32-12.76-.49-24,.64-31.74a45,45,0,0,1,2-7.55c2.4-7.08,6.13-15.36,7.67-21.2,1.48-5.6,1.42-15.4.89-23.66-.23-3.7-.56-7.09-.89-9.66-1.05-8.3-.62-33.56-.89-45.68V167a5.79,5.79,0,0,0-2.36-4.2l-5.28-4.5L315.61,147a1.89,1.89,0,0,1-.43-1.19,1.87,1.87,0,0,1,2.31-1.8l2,.48a5.93,5.93,0,0,1,2.94,1.75l4.19,4.57a1,1,0,0,0,1.63-.4l1.93-7.12a17.55,17.55,0,0,0,.6-3.94l.5-13.72a1.87,1.87,0,0,1,3.74.06l.06,12.49a1.11,1.11,0,0,0,1.11,1.1,1.07,1.07,0,0,0,.25,0,1.12,1.12,0,0,0,.84-1l1.51-15.08a2,2,0,0,1,2-1.78h.2a2,2,0,0,1,1.77,2.22l-1.87,14.65a.66.66,0,0,0,0,.14,1.2,1.2,0,0,0,.89,1.15,1.17,1.17,0,0,0,1.41-.79L347,126.36a1.6,1.6,0,0,1,1.53-1.12,1.6,1.6,0,0,1,1.55,2l-3.5,13.87a1.5,1.5,0,0,0,0,.29,1.19,1.19,0,0,0,.36.87,1.2,1.2,0,0,0,1.71,0l5.85-6.13a1.71,1.71,0,0,1,1.25-.53,1.73,1.73,0,0,1,1.3,2.86l-6.29,7.23a12.27,12.27,0,0,0-3,8.34l.09,3.61v.24a8.71,8.71,0,0,1-.89,3.82,8.81,8.81,0,0,0-.86,3,30.71,30.71,0,0,0,.4,6.42l6.68,54.25a7.88,7.88,0,0,1,.05,1l-.23,8.9v.12c0,.9.16,6.75,0,14.5-.2,11.93-1,28.34-3.82,38.13A50.36,50.36,0,0,0,347.68,294.9Z"/><path class="cls-4" d="M362.55,238.06l.52,1.32c-.39.4-8.39,8.9-10.07,10.42h0c.14-7.75,0-13.6,0-14.5h.46C356.37,236,359.4,237,362.55,238.06Z"/><path class="cls-4" d="M334.34,235.52c.53,8.26.59,18.06-.89,23.66-1.54,5.84-5.27,14.12-7.67,21.2l-.86-.23c-6.1-6.17-7.12-17-7.12-17A27.77,27.77,0,0,1,321,246.49a20,20,0,0,1,2.7-3.88c.64-.6,1.3-1.18,2-1.74A33.56,33.56,0,0,1,334.34,235.52Z"/><path class="cls-4" d="M325.37,240.28l.33.59c-.66.56-1.32,1.14-2,1.74a20,20,0,0,0-2.7,3.88l-.09-.05c-5.29,7.22-11.88,2.28-12.86-1.15-1.37-4.79,2.31-13.48,9.8-12.39S325.37,240.28,325.37,240.28Z"/><path class="cls-1" d="M117.56,505.62a1.94,1.94,0,0,1,1.47-1.73l2.86-.73c0-1.07,2.26-4.38,9.44-6a64.51,64.51,0,0,0,13.44-4.77L155.94,486a5.54,5.54,0,0,1,7.38,1.71l.77,1.14a11.94,11.94,0,0,0,9.39,5.35,25,25,0,0,0,7.78-1.08l.07.25s-3.54,11.86,1.47,18c-7.92.62-24.59,1.4-24.59,1.4-5.42-.06-15.88-.61-19.39-1.41l-9.29-2.1a12.63,12.63,0,0,0-5.57,1.27,2.67,2.67,0,0,1-1.37.38h-5.23a2.64,2.64,0,0,1-2.45-1.67l-.09-.23c-.41-2.07,2.73-3.31,2.73-3.31Z"/><path class="cls-5" d="M311,441.32a18.34,18.34,0,0,0-3.37,2.31,48.57,48.57,0,0,0-6.34,6.42c-10.28,12.34-15.88,15.58-25.47,23.26s-9.9,13-29.86,11.43-22.71-2.3-44.58,2.68c-9.83,2.24-15.55,4.41-20.14,5.66a25,25,0,0,1-7.78,1.08,11.94,11.94,0,0,1-9.39-5.35l-.77-1.14a5.54,5.54,0,0,0-7.38-1.71l-11.17,6.45a64.51,64.51,0,0,1-13.44,4.77c-7.18,1.6-9.4,4.91-9.44,6l-2.86.73a1.94,1.94,0,0,0-1.47,1.73A1.82,1.82,0,0,0,118,507a3,3,0,0,0,2.48,1,9.53,9.53,0,0,0,5-1.24"/><path class="cls-5" d="M117.55,505.62s-3.14,1.24-2.73,3.31l.09.23a2.64,2.64,0,0,0,2.45,1.67h5.23a2.67,2.67,0,0,0,1.37-.38,12.63,12.63,0,0,1,5.57-1.27l9.29,2.1c3.51.8,14,1.35,19.39,1.41,0,0,16.67-.78,24.59-1.4a137.41,137.41,0,0,1,21.16-.62c12.43.31,25.63,0,35.26-.47s10.37,2.51,16.9,2.35,12.89.16,20.34-2.64,36.79-12,49.79-25.27c15.09-15.38,22.68-22.67,28.58-26.87a53.85,53.85,0,0,0,7.12-5.42,47.34,47.34,0,0,0,8.57-10"/><path class="cls-5" d="M362,452.35s16.58-2.72,28.8-11.83,30.92-19.29,38.51-22.37c7-2.85,9.85-7.44,9.85-7.44"/><path class="cls-5" d="M429.26,418.15s-2.9,12.09,0,20.75c2.47,7.36,4.78,27.34,5,41.17,0,2.43,0,4.68-.06,6.63-.62,13-2.27,11.8-1.86,17.6s4.35,4.76,8.9,5,14.5-1.46,20.92-1.25,4.56,1.29,12.43,1.27,9.52,0,9.52,0h7.14a2.54,2.54,0,0,0,2.52-2.15,3,3,0,0,0,0-.42,2.53,2.53,0,0,0-2.62-2.53l-1.26,0a10.51,10.51,0,0,1-4.75-1c-6.07-2.79-22.4-10.3-24.07-11s-6.24-5-7.89-13a30.11,30.11,0,0,1-.56-7.65c.62-13.05,1.95-32.42,4-49.12,1.55-12.71,2.07-13.22.21-21.09s-2.32-15.12-14.95-16.15-63.42,18.08-63.42,18.08"/><path class="cls-5" d="M434.3,480.07s10,3.32,18.93-.8"/><path class="cls-5" d="M181.33,493.33s-3.54,11.86,1.47,18"/><path class="cls-5" d="M330,401.72h0c.39-.13,10.43-3.57,27.49.77,13.51,3.44,18.92,2.2,20.52,1.37.51-.26.64-.49.52-.51"/><path class="cls-5" d="M350.6,283.74a6,6,0,0,0,2.61.7"/><path class="cls-5" d="M363.07,239.37h0c-.39.4-8.39,8.9-10.07,10.42"/><path class="cls-5" d="M325.37,240.28s0-6.29-7.48-7.38-11.17,7.6-9.8,12.39c1,3.43,7.57,8.37,12.86,1.15"/><path class="cls-5" d="M353.43,235.29c2.94.71,6,1.68,9.12,2.77l.52,1.32.67,1.72s5,7.41,5.78,12.78c.62,4.22-.58,5.13,1.79,7.44l3.45,4.9-4.8,1.87.67,10.08c.5.8,3.14,7.36-7.85,7.36,0,0-3.61.34-3,5.1s-2,15.32-2,15.32l19.51,21.27s7.09,7.75,7.09,17c0,2.83-1.51,6.74-2.71,9.39a13.29,13.29,0,0,0-1.18,6.39c1,15.5-.63,31.71-2.49,43.83-1.77,11.51-3.71,19.33-3.71,19.33"/><path class="cls-5" d="M317.8,263.12A27.77,27.77,0,0,1,321,246.49a20,20,0,0,1,2.7-3.88c.64-.6,1.3-1.18,2-1.74a33.56,33.56,0,0,1,8.64-5.35"/><path class="cls-5" d="M324.92,280.15c-6.1-6.17-7.12-17-7.12-17"/><path class="cls-5" d="M346.47,171.06l6.68,54.25a7.88,7.88,0,0,1,.05,1l-.23,8.9v.12c0,.9.16,6.75,0,14.5-.2,11.93-1,28.34-3.82,38.13a50.36,50.36,0,0,0-1.49,7c-1.73,12.42,2.39,19.51,2.39,19.51"/><path class="cls-5" d="M323.9,327.14c-.06-.19-.09-.38-.13-.57"/><path class="cls-5" d="M347.68,294.9a52.49,52.49,0,0,1,8.8,11.52,51.34,51.34,0,0,1,6.59,19.07c2.37,18.51-34,25.07-39.16,1.74"/><path class="cls-5" d="M343.91,230l1.95.5a3.52,3.52,0,0,0,3.7-1.29"/><path class="cls-5" d="M346.47,171.06a30.71,30.71,0,0,1-.4-6.42,8.81,8.81,0,0,1,.86-3,8.71,8.71,0,0,0,.89-3.82v-.24l-.09-3.61a12.27,12.27,0,0,1,3-8.34l6.29-7.23a1.73,1.73,0,0,0-1.3-2.86,1.71,1.71,0,0,0-1.25.53l-5.85,6.13a1.2,1.2,0,0,1-1.71,0,1.19,1.19,0,0,1-.36-.87,1.5,1.5,0,0,1,0-.29l3.5-13.87a1.6,1.6,0,0,0-3.08-.87l-3.88,12.48a1.17,1.17,0,0,1-1.41.79,1.2,1.2,0,0,1-.89-1.15.66.66,0,0,1,0-.14l1.87-14.65a2,2,0,0,0-1.77-2.22h-.2a2,2,0,0,0-2,1.78l-1.51,15.08a1.12,1.12,0,0,1-.84,1,1.07,1.07,0,0,1-.25,0,1.11,1.11,0,0,1-1.11-1.1L335,125.72a1.87,1.87,0,0,0-3.74-.06l-.5,13.72a17.55,17.55,0,0,1-.6,3.94l-1.93,7.12a1,1,0,0,1-1.63.4l-4.19-4.57a5.93,5.93,0,0,0-2.94-1.75l-2-.48a1.87,1.87,0,0,0-2.31,1.8,1.89,1.89,0,0,0,.43,1.19l9.31,11.31,5.28,4.5a5.79,5.79,0,0,1,2.36,4.2v13.14c.27,12.12-.16,37.38.89,45.68.33,2.57.66,6,.89,9.66.53,8.26.59,18.06-.89,23.66-1.54,5.84-5.27,14.12-7.67,21.2a45,45,0,0,0-2,7.55c-1.13,7.77-1,19-.64,31.74a70.87,70.87,0,0,0,.76,7.47.28.28,0,0,1,0,.09c2.14,14.59,8,39.61,9.91,47.73a46.26,46.26,0,0,1,.73,5.76,32.72,32.72,0,0,1-4.67,20.92,34.67,34.67,0,0,1-8.61,9.65s-21.11,16.5-14.2,31.85"/></svg>