<svg id="Layer_1" data-name="Layer 1" xmlns="http://www.w3.org/2000/svg" viewBox="0 0 700 700"><defs><style>.cls-1{fill:#feae63;}.cls-2{fill:#99abcc;}.cls-3{fill:#c4e7f9;}.cls-4{fill:#120c0c;}.cls-5{fill:none;stroke:#000;stroke-linecap:round;stroke-linejoin:round;stroke-width:2.3px;}</style></defs><title>Yoga_poses_2020_color</title><path class="cls-1" d="M535,531.64a3,3,0,0,1,0,.42,2.54,2.54,0,0,1-2.51,2.15H515.74c-7.87,0-6-1.05-12.43-1.26S487,534.4,482.4,534.2s-8.49.82-8.91-5,1.24-4.56,1.87-17.61c.09-1.95.11-4.19.06-6.62,0,0,10,3.32,18.94-.8l.6-.14c2,8.15,5.69,12.51,7.29,13.16s18,8.18,24.07,11a10.64,10.64,0,0,0,4.75,1l1.26,0A2.53,2.53,0,0,1,535,531.64Z"/><path class="cls-2" d="M469.35,449.7h-.25a33.49,33.49,0,0,0-9.35,8.9c-4.13,5.87-23.89,25-28.89,28.24S416,496.16,416,496.16a85.32,85.32,0,0,0,5.94-8.23s8-13.46,11.29-20.19a88.88,88.88,0,0,0,4.52-11.41,164.8,164.8,0,0,0,4.79-19.44c.64-3.34,1.23-6.14,1.73-8.61h0l.68.14c18.68-17.37,34.43-18.24,34.43-18.24,11.84,1,13,7.4,14.61,14.69a14.89,14.89,0,0,1,.36,3c0,2.38.05,7.06,0,10.43-.11,4.69,1.32,9,.91,17.34s-2,33.27-1.47,40.92a46.68,46.68,0,0,0,1.16,7.52l-.6.14c-8.92,4.12-18.94.8-18.94.8-.25-13.83-2.57-33.82-5-41.17C468.88,459.32,468.94,453.88,469.35,449.7Z"/><path class="cls-3" d="M445,407.14c1.86,8.1,1.09,12.53-.68,21.14h0c-.5,2.47-1.09,5.27-1.73,8.61a164.8,164.8,0,0,1-4.79,19.44h0s-5.37,2.61-16.45,0-27.55-13.48-27.55-13.48A45.74,45.74,0,0,0,395.57,412c-4.56-15.64-8.07-22.81-13.64-32.91s-3.69-25.37-3.69-25.37l.18-.11a24.17,24.17,0,0,1,3.51,10.93c1.16,10.8,8.63,14.61,8.63,14.61s18.61,8.55,29.9-1.52c11.1-9.91-12.12-29.26-12.86-29.87a156.21,156.21,0,0,1,21.53,15.84c10.21,9.28,8.9,13.1,9.77,18.1S442.59,396.71,445,407.14Z"/><path class="cls-2" d="M366.88,482.69c-.79-2-.82-5.28,2.3-10.49,6.19-10.33,14-13.59,20.2-21.73a36.55,36.55,0,0,0,4.38-7.62s16.47,10.88,27.55,13.48,16.45,0,16.45,0h0a88.88,88.88,0,0,1-4.52,11.41C430,474.47,422,487.93,422,487.93a85.32,85.32,0,0,1-5.94,8.23c-5.84,7-10.35,8.46-22.73,16.86-19.69,13.35-56.76,23.25-56.76,23.25-8.45,2.14-30.4,5.57-36.92,5.72s-9.73-3.77-19.81-4.86c-9.59-1-22.29-1.23-34.72-1.54a135.87,135.87,0,0,0-21.16.63c-5-6.1-1.47-18-1.47-18l-.07-.25c4.59-1.25,10.31-3.42,20.14-5.66,21.87-5,30.12-3.76,50-1.39,16.41,1.95,22.18-3.47,41.5-12.67C334,498.29,361.45,485.73,366.88,482.69Z"/><path class="cls-1" d="M289.12,249.66a2.63,2.63,0,0,0,2.43-1.9l1-3.3,2.49-2.4a2.36,2.36,0,0,0,.71-1.68,2.23,2.23,0,0,0-.24-1l.38-.2a1.9,1.9,0,0,0,3.65-.61l.56-8.1a2,2,0,0,0-.24-1.06l.5-.2a2.59,2.59,0,0,1,3.09.93l-2.2,3.18a1.63,1.63,0,0,0-.28.74l-.49,3.81a1.68,1.68,0,0,0,3.28.67l.9-3.21a2,2,0,0,1,.16-.4l.94-1.6,1.1.64a1.72,1.72,0,0,0-.21.82,1.76,1.76,0,0,0,.77,1.46,1.72,1.72,0,0,0,1.94,0l.13.18.56,3.71,1,6.87a8.12,8.12,0,0,0,2,4.29,8.43,8.43,0,0,0,1.58,1.34c4.9,3.15,28.72,18.53,31.05,20.28,2.61,2,7.82,5.65,10.65,8,2.29,1.94,3.44,4.46,7.75,9.62,1,1.2,2.16,2.53,3.54,4,7.39,8,22.81,31.74,25.63,38.69,2.26,5.57,9,10.86,11.57,12.74.64.47,1,.73,1,.73s.62.36,1.69,1h0c.74.61,24,20,12.86,29.87-11.29,10.07-29.9,1.52-29.9,1.52s-7.47-3.81-8.63-14.61a24.17,24.17,0,0,0-3.51-10.93,48,48,0,0,0-4-5.36,17.54,17.54,0,0,1-2.38-3.95c-2.75-6-4-14.55-5.58-18.21-2-4.56-5.28-7.38-8.11-11.51-2.1-3.06-5.63-9.61-9.72-14.46a24,24,0,0,0-4.4-4.22c-5.86-4.12-13-9.77-23.24-21.93s-20-15.21-20-15.21l-8.14-1.73a4.09,4.09,0,0,1-2.91-2.37l-1.69-3.85a.8.8,0,0,1-.07-.34.83.83,0,0,1,.83-.83Z"/><path class="cls-1" d="M404.86,346c-2.58-1.88-9.31-7.17-11.57-12.74-2.82-7-18.24-30.69-25.63-38.69-1.38-1.5-2.55-2.83-3.54-4l.52-.09c3,0,8.05.22,11.37,1.57,4,1.61,4.13,3.1,7.32,2.23l6-.49-.82,5.09,9,4.54c.94,0,7.92,1,2.35,10.5,0,0-4.21,5.74-3,7.69C396.85,321.61,401.44,329.88,404.86,346Zm-24.17-46.38c.26-.56-.58-1.51-1.88-2.12s-2.58-.64-2.84-.07.58,1.51,1.88,2.12S380.43,300.22,380.69,299.65Z"/><path d="M378.81,297.53c1.3.61,2.14,1.56,1.88,2.12s-1.53.54-2.84-.07-2.14-1.56-1.88-2.12S377.5,296.93,378.81,297.53Z"/><path class="cls-4" d="M372,344.33l-.3.14c-7.11.24-14-3.17-14-3.17A27.75,27.75,0,0,1,345,330.07a19.82,19.82,0,0,1-2-4.3c-.21-.92-.38-1.82-.52-2.69-1.54-9.66,1-16.63,5.95-22.84l.11-.09c4.09,4.85,7.62,11.4,9.72,14.46,2.83,4.13,6.08,6.95,8.11,11.51C368.05,329.78,369.26,338.29,372,344.33Z"/><path class="cls-4" d="M344.94,330.12c3.54,8.22-4.06,11.39-7.51,10.5-4.83-1.26-10.44-8.84-5.7-14.73s10.15-2.7,10.15-2.7l.66-.11c.14.87.31,1.77.52,2.69a19.82,19.82,0,0,0,2,4.3Z"/><path class="cls-1" d="M309.32,236.24a1.72,1.72,0,0,1-1.94,0,1.76,1.76,0,0,1-.77-1.46,1.72,1.72,0,0,1,.21-.82,1.32,1.32,0,0,1,.16-.25l.78-1a3,3,0,0,1,4.83,3.49l-2.58,3.9-.56-3.71Z"/><path class="cls-1" d="M305.69,229.65a1.68,1.68,0,0,1,.79,2.39l-.76,1.29-.94,1.6a2,2,0,0,0-.16.4l-.9,3.21a1.68,1.68,0,0,1-3.28-.67l.49-3.81a1.63,1.63,0,0,1,.28-.74l2.2-3.18a1.66,1.66,0,0,1,2-.59Z"/><path class="cls-1" d="M299.82,229.41a2,2,0,0,1,.24,1.06l-.56,8.1a1.9,1.9,0,0,1-3.65.61,1.85,1.85,0,0,1-.15-.74v-8.1a1.9,1.9,0,0,1,1.9-1.9h.55A1.9,1.9,0,0,1,299.82,229.41Z"/><path class="cls-1" d="M295.85,239.18l-.38.2a1.19,1.19,0,0,0-.13-.25,2.34,2.34,0,0,0-.84-.79L290.75,233l5-2.64v8.1A1.85,1.85,0,0,0,295.85,239.18Z"/><path class="cls-1" d="M294.5,238.34a2.34,2.34,0,0,1,.84.79,1.19,1.19,0,0,1,.13.25,2.23,2.23,0,0,1,.24,1,2.36,2.36,0,0,1-.71,1.68l-2.49,2.4-1,3.3a2.63,2.63,0,0,1-2.43,1.9l-1-5.88a3.93,3.93,0,0,1,1.76-3.94l2.21-1.42A2.32,2.32,0,0,1,294.5,238.34Z"/><path class="cls-1" d="M290.75,233l3.75,5.36a2.32,2.32,0,0,0-2.38.08l-2.21,1.42-8-12.89a1.92,1.92,0,0,1-.28-1,1.89,1.89,0,0,1,3.44-1.08Z"/><path class="cls-1" d="M158.69,530.55a1.94,1.94,0,0,1,1.46-1.74l2.86-.72c0-1.07,2.26-4.39,9.44-6a65.17,65.17,0,0,0,13.44-4.77l11.17-6.46a5.55,5.55,0,0,1,7.38,1.71l.77,1.15a12,12,0,0,0,9.39,5.35,25,25,0,0,0,7.78-1.08l.07.25s-3.54,11.86,1.47,18c-7.92.62-24.59,1.4-24.59,1.4-5.41-.06-15.88-.62-19.39-1.42l-9.28-2.1a13.29,13.29,0,0,0-4.36.74,16.13,16.13,0,0,1-5.23.92h-2.59a2.65,2.65,0,0,1-2.45-1.67l-.09-.23c-.41-2.07,2.73-3.31,2.73-3.31Z"/><path class="cls-5" d="M166.52,531.71a9.65,9.65,0,0,1-5,1.24,2.92,2.92,0,0,1-2.47-1.06,1.74,1.74,0,0,1-.4-1.34,1.94,1.94,0,0,1,1.46-1.74l2.86-.72c0-1.07,2.26-4.39,9.44-6a65.17,65.17,0,0,0,13.44-4.77l11.17-6.46a5.55,5.55,0,0,1,7.38,1.71l.77,1.15a12,12,0,0,0,9.39,5.35,25,25,0,0,0,7.78-1.08c4.59-1.25,10.31-3.42,20.14-5.66,21.87-5,30.12-3.76,50-1.39,16.41,1.95,22.18-3.47,41.5-12.67,0,0,27.44-12.56,32.87-15.6"/><path class="cls-5" d="M407.58,347.78c-1.07-.66-1.69-1-1.69-1s-.39-.26-1-.73c-2.58-1.88-9.31-7.17-11.57-12.74-2.82-7-18.24-30.69-25.63-38.69-1.38-1.5-2.55-2.83-3.54-4-4.31-5.16-5.46-7.68-7.75-9.62-2.83-2.39-8-6.08-10.65-8-2.33-1.75-26.15-17.13-31.05-20.28a8.43,8.43,0,0,1-1.58-1.34,8.12,8.12,0,0,1-2-4.29l-1-6.87-.56-3.71"/><path class="cls-5" d="M158.67,530.55s-3.14,1.24-2.73,3.31l.09.23a2.65,2.65,0,0,0,2.45,1.67h2.59a16.13,16.13,0,0,0,5.23-.92,13.29,13.29,0,0,1,4.36-.74l9.28,2.1c3.51.8,14,1.36,19.39,1.42,0,0,16.67-.78,24.59-1.4a135.87,135.87,0,0,1,21.16-.63c12.43.31,25.13.51,34.72,1.54,10.08,1.09,13.29,5,19.81,4.86s28.47-3.58,36.92-5.72c0,0,37.07-9.9,56.76-23.25,12.38-8.4,16.89-9.85,22.73-16.86a85.32,85.32,0,0,0,5.94-8.23s8-13.46,11.29-20.19a88.88,88.88,0,0,0,4.52-11.41,164.8,164.8,0,0,0,4.79-19.44c.64-3.34,1.23-6.14,1.73-8.61h0c1.77-8.61,2.54-13,.68-21.14-2.39-10.43-5.21-20.42-6.08-25.41s.44-8.82-9.77-18.1a156.21,156.21,0,0,0-21.53-15.84"/><path class="cls-5" d="M470.39,443.08a52.54,52.54,0,0,0-1,6.62c-.41,4.18-.47,9.62,1,14.13,2.46,7.35,4.78,27.34,5,41.17.05,2.43,0,4.67-.06,6.62-.63,13-2.28,11.81-1.87,17.61s4.35,4.76,8.91,5,14.49-1.46,20.91-1.25,4.56,1.28,12.43,1.26h16.67a2.54,2.54,0,0,0,2.51-2.15,3,3,0,0,0,0-.42,2.53,2.53,0,0,0-2.62-2.53l-1.26,0a10.64,10.64,0,0,1-4.75-1c-6.07-2.79-22.4-10.3-24.07-11s-5.32-5-7.29-13.16a46.68,46.68,0,0,1-1.16-7.52c-.55-7.65,1.06-32.55,1.47-40.92s-1-12.65-.91-17.34c.07-3.37,0-8,0-10.43a14.89,14.89,0,0,0-.36-3c-1.63-7.29-2.77-13.72-14.61-14.69,0,0-15.75.87-34.43,18.24"/><path class="cls-5" d="M475.42,505s10,3.32,18.94-.8"/><path class="cls-5" d="M222.45,518.26s-3.54,11.86,1.47,18"/><path class="cls-5" d="M369.18,485.33a5,5,0,0,1-2.3-2.64c-.79-2-.82-5.28,2.3-10.49,6.19-10.33,14-13.59,20.2-21.73a36.55,36.55,0,0,0,4.38-7.62A45.74,45.74,0,0,0,395.57,412c-4.56-15.64-8.07-22.81-13.64-32.91s-3.69-25.37-3.69-25.37"/><path class="cls-5" d="M416,496.16s9.85-6.05,14.84-9.31,24.76-22.37,28.89-28.24a33.49,33.49,0,0,1,9.35-8.9"/><path class="cls-5" d="M292.51,244.46l-1,3.3a2.63,2.63,0,0,1-2.43,1.9H289a.83.83,0,0,0-.83.83.8.8,0,0,0,.07.34l1.69,3.85a4.09,4.09,0,0,0,2.91,2.37l8.14,1.73s9.78,3,20,15.21,17.38,17.81,23.24,21.93a24,24,0,0,1,4.4,4.22c4.09,4.85,7.62,11.4,9.72,14.46,2.83,4.13,6.08,6.95,8.11,11.51,1.62,3.66,2.83,12.17,5.58,18.21a17.54,17.54,0,0,0,2.38,3.95,48,48,0,0,1,4,5.36,24.17,24.17,0,0,1,3.51,10.93c1.16,10.8,8.63,14.61,8.63,14.61s18.61,8.55,29.9-1.52c11.1-9.91-12.12-29.26-12.86-29.87h0"/><path class="cls-5" d="M289.12,249.67h0l-1-5.88a3.93,3.93,0,0,1,1.76-3.94l2.21-1.42a2.32,2.32,0,0,1,2.38-.08,2.34,2.34,0,0,1,.84.79,1.19,1.19,0,0,1,.13.25,2.23,2.23,0,0,1,.24,1,2.36,2.36,0,0,1-.71,1.68l-2.49,2.4h-2.25"/><path class="cls-5" d="M295.71,230.34v8.1a1.85,1.85,0,0,0,.15.74,1.9,1.9,0,0,0,3.65-.61l.56-8.1a2,2,0,0,0-.24-1.06,1.9,1.9,0,0,0-1.66-1h-.55A1.9,1.9,0,0,0,295.71,230.34Z"/><path class="cls-5" d="M305.72,233.33l.76-1.29a1.68,1.68,0,0,0-.79-2.39l-.25-.1a1.66,1.66,0,0,0-2,.59l-2.2,3.18a1.63,1.63,0,0,0-.28.74l-.49,3.81a1.68,1.68,0,0,0,3.28.67l.9-3.21a2,2,0,0,1,.16-.4Z"/><path class="cls-5" d="M309.51,236.1a1.33,1.33,0,0,1-.19.14,1.72,1.72,0,0,1-1.94,0,1.76,1.76,0,0,1-.77-1.46,1.72,1.72,0,0,1,.21-.82,1.32,1.32,0,0,1,.16-.25l.78-1a3,3,0,0,1,4.83,3.49l-2.58,3.9"/><path class="cls-5" d="M294.51,238.36v0L290.75,233l-5.68-8.11a1.89,1.89,0,0,0-3.44,1.08,1.92,1.92,0,0,0,.28,1l8,12.89"/><line class="cls-5" x1="290.75" y1="232.98" x2="295.71" y2="230.34"/><path class="cls-5" d="M299.82,229.41l.5-.2a2.59,2.59,0,0,1,3.09.93"/><path class="cls-5" d="M393.76,442.85s16.47,10.88,27.55,13.48,16.45,0,16.45,0"/><path class="cls-5" d="M388.17,323a6.26,6.26,0,0,0,4.36-2.79"/><path class="cls-5" d="M341.88,323.19s-5.41-3.2-10.15,2.7.87,13.47,5.7,14.73c3.45.89,11.05-2.28,7.51-10.5"/><path class="cls-5" d="M364.64,290.48c3,0,8.05.22,11.37,1.57,4,1.61,4.13,3.1,7.32,2.23l6-.49-.82,5.09,9,4.54c.94,0,7.92,1,2.35,10.5,0,0-4.21,5.74-3,7.69,0,0,4.59,8.27,8,24.42"/><path class="cls-5" d="M371.71,344.47c-7.11.24-14-3.17-14-3.17A27.75,27.75,0,0,1,345,330.07a19.82,19.82,0,0,1-2-4.3c-.21-.92-.38-1.82-.52-2.69-1.54-9.66,1-16.63,5.95-22.84"/></svg>