<svg id="Layer_1" data-name="Layer 1" xmlns="http://www.w3.org/2000/svg" viewBox="0 0 700 700"><defs><style>.cls-1{fill:#392328;}.cls-2{fill:#feae63;}.cls-3{fill:#c4e7f9;}.cls-4{fill:#99abcc;}.cls-5{fill:none;stroke:#000;stroke-linecap:round;stroke-linejoin:round;stroke-width:2.3px;}</style></defs><title>Yoga_poses_2020_color</title><path class="cls-1" d="M465.11,293.71c5.13-1.7,14.71,1.9,13.87,10.06s-7.66,8.44-7.66,8.44l-.59.44c-.62-.7-1.3-1.39-2-2.09a21.55,21.55,0,0,0-4.32-2.75l.05-.11C456.39,302.29,461.44,294.93,465.11,293.71Z"/><path class="cls-1" d="M470.73,312.65c11.18,12.38,9.19,24.72,4.68,39.75L474,353s-8.45-7.51-10.21-9.3c-3.5-3.55-7-2.15-11.67-3.64s-7.07-5.21-7.4-7.74c0,0,2.93-5.84-3.45-5.65a9.54,9.54,0,0,0-1.9.73l-.1-.12s-3.39-4.5-7.89-3.05c-4.59.17-5.36-1.85-4.94-4a13.56,13.56,0,0,1,2.2-4.57A26.79,26.79,0,0,1,446.23,305a30,30,0,0,1,18.17,2.77,21.55,21.55,0,0,1,4.32,2.75C469.43,311.26,470.11,312,470.73,312.65Z"/><path class="cls-2" d="M439.38,327.41a9.54,9.54,0,0,1,1.9-.73c6.38-.19,3.45,5.65,3.45,5.65.33,2.53,2.78,6.25,7.4,7.74s8.17.09,11.67,3.64C465.56,345.5,474,353,474,353l-1.84.81s-7.81,5.74-13.59,6.84c-4.55.87-5.58-.39-8,2.28l-5.15,4-2.25-5.12L432.31,363c-.84.57-7.83,3.72-8.32-8.18,0,0-.91-5.4-2.83-6.78a45.59,45.59,0,0,1-8.41-4l-.87-.1c3.35-5.18,6.49-11.78,10.15-17.26a18.45,18.45,0,0,0,2.69-6.76l1.73.36c-.42,2.11.35,4.13,4.94,4,4.5-1.45,7.89,3.05,7.89,3.05Zm13.42,29.9c1.55-.21,2.73-.93,2.63-1.6s-1.42-1-3-.82-2.73.93-2.63,1.6S451.26,357.53,452.8,357.31Z"/><path d="M455.43,355.71c.1.67-1.08,1.39-2.63,1.6s-2.87-.15-3-.82,1.08-1.38,2.63-1.6S455.34,355,455.43,355.71Z"/><path class="cls-2" d="M355.3,469.84,363,471l6.76,2.42c2,1.84.17,3.18-1.67,3.18a19.54,19.54,0,0,1-4.68-.93s-10.28-1.85-12.84-2.25l-.07.09,3.44,2.58a.73.73,0,0,1-.57,1.27,29.07,29.07,0,0,1-8.91-3.55l-.34-.09-.16.62s-8.95.27-13-.92c-3.82-1.13-5.29-2.67-6.06-5.39-.64-2.25-.62-5.47,1.71-15S333,419.24,343,400.53a40.9,40.9,0,0,0,1.79-6.52c.38-2.67,2-4.34,4.06-7.35s14.87-26.48,17.54-29.28l0-.38c5.35-.56,7-1.16,8.93-2.75a21.41,21.41,0,0,0,4.54-5.23,64.44,64.44,0,0,0,3.61-6.35c1.21-2.67,0-10.25-6.76-20.4,1.39-32,7.16-35.4,18.63-36.36a14.27,14.27,0,0,1,5.08.65c6.17,1.8,12.37,6.53,12.37,6.53s5.77,7.86,9.28,12c2.49,2.9,3.8,9,2.69,14.88a18.45,18.45,0,0,1-2.69,6.76c-3.66,5.48-6.8,12.08-10.15,17.26a39,39,0,0,1-2.88,4c-4.52,5.34-15.54,11.27-20.72,19s-14.9,23.75-19.94,28.63c-4.83,4.69-5.83,11.91-7.67,16.59S350.16,431.94,347,439s-7.18,18.88-6.84,20.88.56,4.12,4.63,4.51c3.49.33,6.51,2.15,10.92,2.68Z"/><path class="cls-2" d="M401.8,276.65a103.07,103.07,0,0,1,10.95,16.44s-6.2-4.73-12.37-6.53C398.39,281.57,401.8,276.65,401.8,276.65Z"/><path class="cls-3" d="M401.8,276.65s-3.41,4.92-1.42,9.91a14.27,14.27,0,0,0-5.08-.65c-11.47,1-17.24,4.38-18.63,36.36q-1.11-1.68-2.43-3.45c-6.86-9.19-25.07-32.75-39.45-47.62,0,0,4.53-12.69,2.53-22s-7.7-19.3-7.7-19.3h0c1.4.3,2.49.57,3.19.76C338.13,232.05,376.68,245.67,401.8,276.65Z"/><path class="cls-4" d="M334.79,271.2c14.38,14.87,32.59,38.43,39.45,47.62q1.32,1.77,2.43,3.45c6.73,10.15,8,17.73,6.76,20.4a64.44,64.44,0,0,1-3.61,6.35,21.41,21.41,0,0,1-4.54,5.23c-1.95,1.59-3.58,2.19-8.93,2.75-1.18.13-2.55.25-4.14.38-11.69,1-2.17-.46-21.72-1.13s-21.55-2.84-36.59-3.24c-9.58-.25-20,.26-26.23.65l0-.65c-5.45-12.36,0-21.69,0-21.69h0c7.33.05,20.18-.26,25.81-1.57,6.73-1.57,17.95-5.49,17.95-5.49a27.91,27.91,0,0,1,5.73-1.13s-22.05-8.47-40.76-33.37-23.23-33.75-9.53-51.13c12.15-15.4,41.89-11.11,52.79-8.78h0s5.69,9.94,7.7,19.3S334.79,271.2,334.79,271.2Z"/><path class="cls-2" d="M381.09,472.35s.34,2.69-4,2.53l-7.35-1.51L363,471l-7.67-1.11.41-2.81c3.21.37,9.84.83,9.84.83s7,2,8.69,2.17S381.09,472.35,381.09,472.35Z"/><path class="cls-2" d="M225.86,359.11l-.93-1.73c-3.37,0-6.28-.95-5.61-2.55s7-1.82,7-1.82l2.47-2.18c3.59-3.59,11-7,18.4-15s8.3-10.82,14.8-11.6,6.51,6.83,12.12,7c.92,0,2.14.05,3.57.05h0s-5.45,9.33,0,21.69l0,.65c-3.57.24-5.81.43-5.81.43-11.78,1.05-16.62,4.56-23.55,6.08s-13.78,4.56-16,5-4.37,3.23-5.41,3.61a24.05,24.05,0,0,0-5.68,3.49s-3.81-.32-2-4.07c1.67-.16,3.68-.13,4.59-.8a15.33,15.33,0,0,1,1.73-1L224.21,364l-.08,0a5.27,5.27,0,0,1-3.13.41c-.32-.06-.67-.13-1-.22-1.1-.29-2.12-.75-2.12-1.48,0-1.61,2.24-2.41,4.49-2.57A10.66,10.66,0,0,0,225.86,359.11Z"/><path class="cls-2" d="M224.21,364l1.33,2.41a15.33,15.33,0,0,0-1.73,1c-.91.67-2.92.64-4.59.8s-2.45-3.67.78-4c.33.09.68.16,1,.22a5.27,5.27,0,0,0,3.13-.41Z"/><path class="cls-5" d="M444.73,332.33s2.93-5.84-3.45-5.65a9.54,9.54,0,0,0-1.9.73A8.7,8.7,0,0,0,434.5,334s0,3.5,3.48,1"/><path class="cls-5" d="M430.23,337.32s-5.5,1.87-5.5,7.05"/><path class="cls-5" d="M474,353s-8.45-7.51-10.21-9.3c-3.5-3.55-7-2.15-11.67-3.64s-7.07-5.21-7.4-7.74"/><path class="cls-5" d="M471.32,312.21s6.81-.28,7.66-8.44-8.74-11.76-13.87-10.06c-3.67,1.22-8.72,8.58-.66,14"/><path class="cls-5" d="M412.75,344a45.59,45.59,0,0,0,8.41,4c1.92,1.38,2.83,6.78,2.83,6.78.49,11.9,7.48,8.75,8.32,8.18l10.89-1.19,2.25,5.12,5.15-4c2.4-2.67,3.43-1.41,8-2.28,5.78-1.1,13.59-6.84,13.59-6.84L474,353l1.4-.61c4.51-15,6.5-27.37-4.68-39.75-.62-.7-1.3-1.39-2-2.09a21.55,21.55,0,0,0-4.32-2.75A30,30,0,0,0,446.23,305a26.79,26.79,0,0,0-17.58,10.67,13.56,13.56,0,0,0-2.2,4.57c-.42,2.11.35,4.13,4.94,4"/><path class="cls-5" d="M439.28,327.29s-3.39-4.5-7.89-3.05"/><path class="cls-5" d="M345.78,470.24,348.5,472l2,1.47,3.44,2.58a.73.73,0,0,1-.57,1.27,29.07,29.07,0,0,1-8.91-3.55l-.34-.09-5.27-1.32"/><path class="cls-5" d="M358.18,338.68s-3.55-3.22-7.42-7.42c-3.3-3.58-12.72-9.14-23.64-8.14a27.91,27.91,0,0,0-5.73,1.13s-11.22,3.92-17.95,5.49c-5.63,1.31-18.48,1.62-25.81,1.57-1.43,0-2.65,0-3.57-.05-5.61-.18-5.61-7.78-12.12-7s-7.4,3.58-14.8,11.6-14.81,11.39-18.4,15L226.27,353s-6.28.21-7,1.82,2.24,2.59,5.61,2.55"/><path class="cls-5" d="M227.66,358.13a19.81,19.81,0,0,1-1.8,1,10.66,10.66,0,0,1-3.49,1.1c-2.25.16-4.49,1-4.49,2.57,0,.73,1,1.19,2.12,1.48.33.09.68.16,1,.22a5.27,5.27,0,0,0,3.13-.41l.08,0,2.16-1.2"/><path class="cls-5" d="M226.37,366l-.83.42a15.33,15.33,0,0,0-1.73,1c-.91.67-2.92.64-4.59.8s-2.45-3.67.78-4"/><path class="cls-5" d="M219.22,368.23c-1.77,3.75,2,4.07,2,4.07a24.05,24.05,0,0,1,5.68-3.49c1-.38,3.23-3.13,5.41-3.61s9-3.51,16-5,11.77-5,23.55-6.08c0,0,2.24-.19,5.81-.43,6.27-.39,16.65-.9,26.23-.65,15,.4,17,2.57,36.59,3.24s10,2.09,21.72,1.13c1.59-.13,3-.25,4.14-.38,5.35-.56,7-1.16,8.93-2.75a21.41,21.41,0,0,0,4.54-5.23,64.44,64.44,0,0,0,3.61-6.35c1.21-2.67,0-10.25-6.76-20.4q-1.11-1.68-2.43-3.45c-6.86-9.19-25.07-32.75-39.45-47.62A93,93,0,0,0,323.62,261s-2.17-2.5-7.86-7.85"/><path class="cls-5" d="M369.73,473.37c2,1.84.17,3.18-1.67,3.18a19.54,19.54,0,0,1-4.68-.93s-10.28-1.85-12.84-2.25"/><path class="cls-5" d="M327.12,323.12s-22.05-8.47-40.76-33.37-23.23-33.75-9.53-51.13c12.15-15.4,41.89-11.11,52.79-8.78,1.4.3,2.49.57,3.19.76,5.32,1.45,43.87,15.07,69,46a103.07,103.07,0,0,1,10.95,16.44s5.77,7.86,9.28,12c2.49,2.9,3.8,9,2.69,14.88a18.45,18.45,0,0,1-2.69,6.76c-3.66,5.48-6.8,12.08-10.15,17.26a39,39,0,0,1-2.88,4c-4.52,5.34-15.54,11.27-20.72,19s-14.9,23.75-19.94,28.63c-4.83,4.69-5.83,11.91-7.67,16.59S350.16,431.94,347,439s-7.18,18.88-6.84,20.88.56,4.12,4.63,4.51c3.49.33,6.51,2.15,10.92,2.68,3.21.37,9.84.83,9.84.83s7,2,8.69,2.17,6.85,2.32,6.85,2.32.34,2.69-4,2.53l-7.35-1.51L363,471l-7.67-1.11-.44-.06"/><path class="cls-5" d="M343.93,474.29s-8.95.27-13-.92c-3.82-1.13-5.29-2.67-6.06-5.39-.64-2.25-.62-5.47,1.71-15S333,419.24,343,400.53a40.9,40.9,0,0,0,1.79-6.52c.38-2.67,2-4.34,4.06-7.35s14.87-26.48,17.54-29.28"/><path class="cls-5" d="M382.26,319.16c2,2.67,2.18,7.62,0,13.17"/><path class="cls-5" d="M412.75,293.09s-6.2-4.73-12.37-6.53a14.27,14.27,0,0,0-5.08-.65c-11.47,1-17.24,4.38-18.63,36.36"/><path class="cls-5" d="M334.79,271.2s4.53-12.69,2.53-22-7.7-19.3-7.7-19.3"/><path class="cls-5" d="M277.63,331.32s-5.45,9.33,0,21.69"/><path class="cls-5" d="M401.8,276.65s-3.41,4.92-1.42,9.91"/></svg>