<svg id="Layer_1" data-name="Layer 1" xmlns="http://www.w3.org/2000/svg" viewBox="0 0 700 700"><defs><style>.cls-1{fill:#feae63;}.cls-2{fill:#c4e7f9;}.cls-3{fill:#392328;}.cls-4{fill:#99abcc;}.cls-5{fill:none;stroke:#000;stroke-linecap:round;stroke-linejoin:round;stroke-width:2.3px;}</style></defs><title>Yoga_poses_2020_color</title><path class="cls-1" d="M226.91,171.66l-.74-4a1.71,1.71,0,0,1,1-1.87l.92-.38a1.73,1.73,0,0,1,1.34,0l1.3.57a1.2,1.2,0,0,1,.68,1.42,2.74,2.74,0,0,1-2.37,2l-1.37.15A13.62,13.62,0,0,0,226.91,171.66Z"/><path class="cls-1" d="M228.1,165.36l-.2-2.5a1.42,1.42,0,0,1,1.41-1.53h2.11a2.07,2.07,0,0,1,.8,4l-1.48.62-1.3-.57A1.73,1.73,0,0,0,228.1,165.36Z"/><path class="cls-1" d="M477.57,127.52c1.51,1.56-1.5,2.79-4.23,4s-5.74,2.76-7.53,3.6-5.66,7.68-9.48,10.46c0,0-4.23,11.06-5.29,18.45s-6.68,27.94-8.07,34-2.16,7.13-3,8.69c0,0-13.17,39-23.38,51.6a30.91,30.91,0,0,0-7,17.66c-2.17-3.5-3.87-5.72-3.87-5.72-6.58-6.88-8.16-15.38-8.44-21.71l8.44-13.44h0c4.71-2.42,4.08-5.37,3.14-7l.31,0c4.56-5.7,16.6-29.71,16.6-29.71,4-12.53,11-29.44,14.19-37s3.86-17.84,3.86-17.84-.17-3.32-1.16-4.48-2-5.65-2.22-8.55-4.8-9.06-5.44-9.41,4.07-1.25,6.06,1.78,3.72,6,3.72,6a6.83,6.83,0,0,0,6.23-2.28c3-3.08,6.76-19.7,9.81-18.59s-.7,6.15-2.93,14.47a.76.76,0,0,0,0,.21.84.84,0,0,0,1.55.45c1.71-2.83,8.66-14,10.63-13.21,2.22.88-.82,4.69-7,14a.93.93,0,0,0-.16.5.89.89,0,0,0,1.48.66c1.23-1.12,4-3.69,6.27-5.81,2.95-2.8,4.83-4.8,6-3.71,1.6,1.45-5.51,7.28-10.24,12.22a1.56,1.56,0,0,0,1.19,2.64,5.72,5.72,0,0,0,.66-.07C471.3,129.87,476.06,126,477.57,127.52Z"/><path class="cls-2" d="M414.87,285.84c2.77,6.27,4.79,13.46,3.51,19.66-2.41,11.73-7.38,7.38-13.47,25.63-4.37,13.12-24.89,30.43-48.15,37.56l-.18-.58s2.57-23,1.31-31.88c-.68-4.84-4.67-14.88-10.31-19,0,0,16.93-.67,14-27.8,16,10.86,39.64-9.23,39.64-9.23C411.6,293.88,414.87,285.84,414.87,285.84Z"/><path class="cls-1" d="M374.68,229.48a8.65,8.65,0,0,1-1.14-1.53c-1.74-5.62,4.17-4.46,4.17-4.46,2.17-.92,4.87-4,5.05-8.49s-1.94-7.28.35-11.26c1.16-2,5.74-11.37,5.74-11.37L390,193.8s7,5.53,9.44,10.39c1.89,3.82,1,5.05,4,6.53l4.8,3.59-4,3.26L408,227a5.15,5.15,0,0,1,.93,1.19c.94,1.63,1.57,4.58-3.14,7h0a20.07,20.07,0,0,1-3,1.21s-5.32,2.83-5.33,4.18-.28,4.4-.12,8c.28,6.33,1.86,14.83,8.44,21.71,0,0,1.7,2.22,3.87,5.72h0a80.7,80.7,0,0,1,5.22,9.8s-3.27,8-13.69-5.64a36.39,36.39,0,0,0-17.9-19.44,88.66,88.66,0,0,0-6-7.07c0-2.55.73-7.75-1.77-13.36a20.63,20.63,0,0,0-1.64-3c-2.41-3.64.75-7.76.75-7.76ZM397.91,213c.57-.24.57-1.52,0-2.84s-1.5-2.18-2.07-1.93-.57,1.51,0,2.83S397.34,213.23,397.91,213Z"/><path d="M395.84,211c-.57-1.32-.57-2.59,0-2.83s1.5.62,2.07,1.93.57,2.6,0,2.84S396.41,212.36,395.84,211Z"/><path class="cls-3" d="M388,191.28l.89,1.09s-4.58,9.36-5.74,11.37c-2.29,4-.18,6.78-.35,11.26s-2.88,7.57-5.05,8.49c0,0-5.91-1.16-4.17,4.46a8.65,8.65,0,0,0,1.14,1.53l-.11.1s-3.16,4.12-.75,7.76a20.63,20.63,0,0,1,1.64,3c1,5.75-2.51,6.31-10.35,2.58a15.11,15.11,0,0,1-1.43-.77c-6.92-4.2-10.59-13.24-10.59-13.24a27.75,27.75,0,0,1-2-16.83,19.74,19.74,0,0,1,1.38-4.52c.45-.82.92-1.61,1.4-2.35C362.07,192.26,373.51,191,388,191.28Z"/><path class="cls-1" d="M363.13,572.29a2.72,2.72,0,0,1,2.06,4.5l-.33.3c-2.34,1.9-6.22.83-7.88.72s-7.54,1-16-2.25-17.81-1.25-23.26.64c-5.26,1.82-11.7.21-11.7.21s-4.14-.22-2.53-11.72c0,0,1.18-8.45,1.51-19.4a54.07,54.07,0,0,0,17.53-2.35l.22,0c.57,6.89,1.64,11.8,3.45,12.65,3.66,1.73,24.17,14.13,30.71,14.76a53.06,53.06,0,0,0,5.52,1.9C362.62,572.26,362.87,572.28,363.13,572.29Z"/><path class="cls-4" d="M357.89,336.23c1.26,8.86-1.31,31.88-1.31,31.88l.18.58a75.75,75.75,0,0,1-10.22,2.4,59.89,59.89,0,0,1-17.46.44,79.91,79.91,0,0,1-27.44-8.43c-13.85-7.2-23.69-17.29-38.34-25.46C240.72,325.05,229,309.84,226,305.06s-5.22-12.39-3-23.35c1.82-9.18,3.33-48.44,3.78-69.64a25.56,25.56,0,0,1,18.08.74h0c1.55,16,6.68,36.89,5,51-1.74,14.77-3,22.15-3,22.15s41,21.29,49.81,25.2,16.16-.44,23.79,0,11.54,1.3,27.18,6.08C353.22,321.35,357.21,331.39,357.89,336.23Z"/><path class="cls-3" d="M353.26,204.84l.58.36c-.48.74-.95,1.53-1.4,2.35a19.74,19.74,0,0,0-1.38,4.52l-.1,0c-2.82,8.51-10.61,5.83-12.59,2.87-2.78-4.14-1.95-13.54,5.5-14.8S353.26,204.84,353.26,204.84Z"/><path class="cls-4" d="M346.54,371.09l.17,1a219.25,219.25,0,0,1-14.34,49.73s-3.78,8.38-5.08,14.46-1.74,9.43-3.91,15.51,1.18,15,.3,31.78c0,0-2.69,38.63-1,59.35l-.22,0A54.07,54.07,0,0,1,305,545.29c.35-11.69-.26-26.21-4.31-36.33-7-17.37-3-45.44-2.17-56.3s2.17-45.51,3-60.28a277,277,0,0,0,0-29.07l.11-.21a79.91,79.91,0,0,0,27.44,8.43A59.89,59.89,0,0,0,346.54,371.09Z"/><path class="cls-1" d="M244.19,157.36c-.63-3.64-3.17-6-6.13-7.55l.17-.32,5.83,1a3,3,0,0,1,2.11,1.53l8.45,16c2.17,4.12,33.23,22.8,41.26,28.88s12.82,9.12,20.64,14.55,21.72,20.35,32.58,25.38c4.81,2.23,9.36,3.68,14.13,6.17a52.07,52.07,0,0,1,14,10.69,88.66,88.66,0,0,1,6,7.07,36.39,36.39,0,0,1,17.9,19.44s-23.6,20.09-39.64,9.23c-2.13-19.56-15.91-24.09-29-36-12.8-11.6-30.11-33-41-40.44s-37.36-31.33-37.36-31.33l-4.65-1.61-.1.06-.9-1.49C243.18,169.91,245.93,167.36,244.19,157.36Z"/><path class="cls-1" d="M226.91,171.66a13.62,13.62,0,0,1,.77-2.12l1.37-.15a2.74,2.74,0,0,0,2.37-2,1.2,1.2,0,0,0-.68-1.42l1.48-.62a2.07,2.07,0,0,0-.8-4h-2.11a1.39,1.39,0,0,0-.67.17l-.09-.17V157.9a1.36,1.36,0,0,1,1.36-1.36h.78c-.12-1.39-1.17-3.5-2.71-6a2.26,2.26,0,0,1,2.46-3.15,26.35,26.35,0,0,1,7.62,2.42c3,1.54,5.5,3.91,6.13,7.55,1.74,10-1,12.55,4.34,21.3l.9,1.49c5.12,8.74,5.91,13.92-3.07,16.32,0,0-2.85-.26-1.73,14.12.06.72.12,1.46.19,2.21h0a25.56,25.56,0,0,0-18.08-.74c.08-4.12.13-7.56.13-10C226.82,188.85,225.06,178.38,226.91,171.66Z"/><path class="cls-5" d="M377.71,223.49s-5.91-1.16-4.17,4.46a8.65,8.65,0,0,0,1.14,1.53,8,8,0,0,0,7,2.7s3.1-.87,0-3.34"/><path class="cls-5" d="M385.72,235.14s3,4.43,7.62,3.14"/><path class="cls-5" d="M388.85,192.37s-4.58,9.36-5.74,11.37c-2.29,4-.18,6.78-.35,11.26s-2.88,7.57-5.05,8.49"/><path class="cls-5" d="M375.46,240.33c1,5.75-2.51,6.31-10.35,2.58a15.11,15.11,0,0,1-1.43-.77c-6.92-4.2-10.59-13.24-10.59-13.24"/><path class="cls-5" d="M353.26,204.84s-1.93-6-9.39-4.72-8.28,10.66-5.5,14.8c2,3,9.77,5.64,12.59-2.87"/><path class="cls-5" d="M374.57,229.58s-3.16,4.12-.75,7.76a20.63,20.63,0,0,1,1.64,3c2.5,5.61,1.76,10.81,1.77,13.36"/><path class="cls-5" d="M300.66,509c-7-17.37-3-45.44-2.17-56.3s2.17-45.51,3-60.28a277,277,0,0,0,0-29.07"/><path class="cls-5" d="M346.71,372.09a219.25,219.25,0,0,1-14.34,49.73s-3.78,8.38-5.08,14.46-1.74,9.43-3.91,15.51,1.18,15,.3,31.78"/><path class="cls-5" d="M230.69,156.54c-.12-1.39-1.17-3.5-2.71-6a2.26,2.26,0,0,1,2.46-3.15,26.35,26.35,0,0,1,7.62,2.42c3,1.54,5.5,3.91,6.13,7.55,1.74,10-1,12.55,4.34,21.3l.9,1.49c5.12,8.74,5.91,13.92-3.07,16.32,0,0-2.85-.26-1.73,14.12.06.72.12,1.46.19,2.21,1.55,16,6.68,36.89,5,51-1.74,14.77-3,22.15-3,22.15s41,21.29,49.81,25.2,16.16-.44,23.79,0,11.54,1.3,27.18,6.08c0,0,16.93-.67,14-27.8-2.13-19.56-15.91-24.09-29-36-12.8-11.6-30.11-33-41-40.44s-37.36-31.33-37.36-31.33l-4.65-1.61"/><path class="cls-5" d="M238.23,149.49l5.83,1a3,3,0,0,1,2.11,1.53l8.45,16c2.17,4.12,33.23,22.8,41.26,28.88s12.82,9.12,20.64,14.55,21.72,20.35,32.58,25.38c4.81,2.23,9.36,3.68,14.13,6.17a52.07,52.07,0,0,1,14,10.69,88.66,88.66,0,0,1,6,7.07,36.39,36.39,0,0,1,17.9,19.44"/><path class="cls-5" d="M414.87,285.84s-3.27,8-13.69-5.64c0,0-23.6,20.09-39.64,9.23"/><line class="cls-5" x1="405.78" y1="235.16" x2="397.34" y2="248.6"/><line class="cls-5" x1="405.8" y1="235.14" x2="405.79" y2="235.15"/><path class="cls-5" d="M409.65,276a30.91,30.91,0,0,1,7-17.66c10.21-12.6,23.38-51.6,23.38-51.6.79-1.56,1.55-2.61,3-8.69s7-26.61,8.07-34,5.29-18.45,5.29-18.45c3.82-2.78,7.69-9.62,9.48-10.46s4.81-2.36,7.53-3.6,5.74-2.48,4.23-4-6.27,2.35-9.26,2.81a5.72,5.72,0,0,1-.66.07,1.56,1.56,0,0,1-1.19-2.64c4.73-4.94,11.84-10.77,10.24-12.22-1.2-1.09-3.08.91-6,3.71-2.24,2.12-5,4.69-6.27,5.81a.89.89,0,0,1-1.48-.66.93.93,0,0,1,.16-.5c6.21-9.29,9.25-13.1,7-14-2-.78-8.92,10.38-10.63,13.21a.84.84,0,0,1-1.55-.45.76.76,0,0,1,0-.21c2.23-8.32,5.9-13.38,2.93-14.47s-6.84,15.51-9.81,18.59a6.83,6.83,0,0,1-6.23,2.28s-1.72-3-3.72-6-6.7-2.12-6.06-1.78,5.23,6.52,5.44,9.41,1.23,7.38,2.22,8.55,1.16,4.48,1.16,4.48-.68,10.27-3.86,17.84-10.23,24.49-14.19,37c0,0-12,24-16.6,29.71"/><path class="cls-5" d="M356.58,368.11s2.57-23,1.31-31.88c-.68-4.84-4.67-14.88-10.31-19"/><path class="cls-5" d="M226.68,212.07h0a25.56,25.56,0,0,1,18.08.74"/><path class="cls-5" d="M226.91,171.66l-.74-4a1.71,1.71,0,0,1,1-1.87l.92-.38a1.73,1.73,0,0,1,1.34,0l1.3.57a1.2,1.2,0,0,1,.68,1.42,2.74,2.74,0,0,1-2.37,2l-1.37.15a13.62,13.62,0,0,0-.77,2.12c-1.85,6.72-.09,17.19-.09,30.45,0,2.4,0,5.84-.13,10-.45,21.2-2,60.46-3.78,69.64-2.18,11,0,18.58,3,23.35s14.77,20,37.35,32.58c14.65,8.17,24.49,18.26,38.34,25.46a79.91,79.91,0,0,0,27.44,8.43,59.89,59.89,0,0,0,17.46-.44,75.75,75.75,0,0,0,10.22-2.4c23.26-7.13,43.78-24.44,48.15-37.56,6.09-18.25,11.06-13.9,13.47-25.63,1.28-6.2-.74-13.39-3.51-19.66a80.7,80.7,0,0,0-5.22-9.8h0c-2.17-3.5-3.87-5.72-3.87-5.72-6.58-6.88-8.16-15.38-8.44-21.71-.16-3.65.12-6.58.12-8s5.33-4.18,5.33-4.18a20.07,20.07,0,0,0,3-1.21h0c4.71-2.42,4.08-5.37,3.14-7A5.15,5.15,0,0,0,408,227l-3.75-9.39,4-3.26-4.8-3.59c-3-1.48-2.1-2.71-4-6.53-2.41-4.86-9.44-10.39-9.44-10.39l-1.17-1.43-.89-1.09c-14.45-.29-25.89,1-34.12,13.92-.48.74-.95,1.53-1.4,2.35a19.74,19.74,0,0,0-1.38,4.52,27.75,27.75,0,0,0,2,16.83"/><path class="cls-5" d="M228.1,165.36l-.2-2.5a1.42,1.42,0,0,1,1.41-1.53h2.11a2.07,2.07,0,0,1,.8,4l-1.48.62"/><path class="cls-5" d="M228.55,161.33V157.9a1.36,1.36,0,0,1,1.36-1.36h1.78l2.12.75a1.61,1.61,0,0,1-.55,3.13,1.58,1.58,0,0,1-.56-.1l-.67-.26"/><path class="cls-5" d="M323.68,483.57s-2.69,38.63-1,59.35c.57,6.89,1.64,11.8,3.45,12.65,3.66,1.73,24.17,14.13,30.71,14.76a53.06,53.06,0,0,0,5.52,1.9c.22,0,.47,0,.73.06a2.72,2.72,0,0,1,2.06,4.5l-.33.3c-2.34,1.9-6.22.83-7.88.72s-7.54,1-16-2.25-17.81-1.25-23.26.64c-5.26,1.82-11.7.21-11.7.21s-4.14-.22-2.53-11.72c0,0,1.18-8.45,1.51-19.4.35-11.69-.26-26.21-4.31-36.33"/><path class="cls-5" d="M305,545.29a54.07,54.07,0,0,0,17.53-2.35"/></svg>