<svg id="Layer_1" data-name="Layer 1" xmlns="http://www.w3.org/2000/svg" viewBox="0 0 700 700"><defs><style>.cls-1{fill:#feae63;}.cls-2{fill:#392328;}.cls-3{fill:#99abcc;}.cls-4{fill:#c4e7f9;}.cls-5{fill:none;stroke:#000;stroke-linecap:round;stroke-linejoin:round;stroke-width:2.3px;}</style></defs><title>Yoga_poses_2020_color</title><path class="cls-1" d="M494.09,407.43c-2.16-1-23.69,3.07-23.69,3.07a49.45,49.45,0,0,1-6.13-1.78c-3.75-1.62-16.61-1.05-21.09-1.79-1.57-.26-6.13-1.32-11.5-2.58,0,0-1.23-1.59-7.93-9.6s-10.36-34.5-10.36-34.5a110.13,110.13,0,0,0,7.73-17.68c2.91,7.81,8.05,4.22,8.69,3.58l2.62-.78L436,363.23l6.87,21.58a3.69,3.69,0,0,0,2.69,2.48c5.49,1.23,20,5.2,25.19,6.63a23,23,0,0,0,3.86.71L493,396.45a7.35,7.35,0,0,1,2.17.54l23.4,9.72a10.3,10.3,0,0,0,2.73.73l5.9.76a11.08,11.08,0,0,1,2.05.47l2.38.64,7.3,2a1.44,1.44,0,0,1,1,1.34,1.32,1.32,0,0,1-.06.39,1.41,1.41,0,0,1-1.59,1l-9.06-.61-7.89-.7h-4.48a1.76,1.76,0,0,1,.06.46,2.06,2.06,0,0,1-2.78,1.91l-3.61-1.39a22.61,22.61,0,0,0-8-1.49,9.58,9.58,0,0,1-8-4.24l-.35-.53Z"/><path class="cls-1" d="M365.07,355.42h0s-10.33-1.06-13.89-18.11a24.49,24.49,0,0,1,.39-12.64s28.46-12.94,37.78.7a16,16,0,0,1,2.06,3.46h0c1.77,3.85,3.49,10.7-.14,19.47h0c.49,2.38.91,4.78,1.31,7.1,1.25,7.28,2.2,13.71,3.69,16.08a14.89,14.89,0,0,1,.74,1.33c3.57,6.89,10.34,26.12,10.34,26.12,1.69,0,14.41,3.06,24.34,5.4,5.37,1.26,9.93,2.32,11.5,2.58,4.48.74,17.34.17,21.09,1.79a49.45,49.45,0,0,0,6.13,1.78c7.36,1.83,18.14,4,18.14,4l15.8,3.66,12.54,5a1.75,1.75,0,0,1,1.09,1.61,1.34,1.34,0,0,1,0,.2,1.73,1.73,0,0,1-1.72,1.53h-.92a1.75,1.75,0,0,0-1.13-1.63l-6.14-2.28-1,2.59a1.68,1.68,0,0,1,1.24,1.62,1.47,1.47,0,0,1,0,.36,1.67,1.67,0,0,1-1.92,1.3l-17.2-2.9.52.22a2,2,0,0,1,1.23,1.86,2,2,0,0,1-.23.93,2,2,0,0,1-2.35,1l-9.49-2.79L468.73,426a12.16,12.16,0,0,1-2.83-.52,4.74,4.74,0,0,1-2.61-1.76c-.89-1.52-3.61-2.34-5.35-2.08l-7.68,1.14a23.11,23.11,0,0,1-4.32.25c-10-.39-35.46-2.69-46.64-3.73a9.4,9.4,0,0,1-7.64-5.4l-.38-.82a8.86,8.86,0,0,0-1-1.62q-1.69-2.31-3.39-4.85a168.73,168.73,0,0,1-14.66-27.17A84.92,84.92,0,0,1,367,363.23,71.94,71.94,0,0,0,365.07,355.42Z"/><path class="cls-1" d="M515.32,426.48a2.11,2.11,0,0,1,0,.25,1.4,1.4,0,0,1-1.59,1.18l-5.42-.77a1.47,1.47,0,0,0,0-.36,1.68,1.68,0,0,0-1.24-1.62l1-2.59,6.14,2.28A1.75,1.75,0,0,1,515.32,426.48Z"/><path class="cls-2" d="M458.09,290.58c13,10,13.26,22.28,11.58,37.63l-1.24.85s-9.52-5.77-11.55-7.19c-4-2.81-7.21-.83-12-1.44s-7.78-3.78-8.55-6.18c0,0,1.8-6.18-4.35-4.85a8.93,8.93,0,0,0-1.73,1.07l-.1-.13s-2.25-2.26-8.18-1.53c-3.42.53-5.82.13-6.86-1.32s-.69-4.34,1.75-8.48c4.7-8,16.05-11.46,16.05-11.46A29.66,29.66,0,0,1,451,287a21.43,21.43,0,0,1,4.68,1.89Q457,289.71,458.09,290.58Z"/><path class="cls-1" d="M367.61,309.58v-.07c1.52-.3,3.06-.59,4.63-.87,17.09-3,27.64.54,33.15,1.7s9.77-2.85,9.77-2.85c1,1.45,3.44,1.85,6.86,1.32,5.93-.73,8.18,1.53,8.18,1.53l.1.13A8.93,8.93,0,0,1,432,309.4c6.15-1.33,4.35,4.85,4.35,4.85.77,2.4,3.81,5.57,8.55,6.18s7.93-1.37,12,1.44c2,1.42,11.55,7.19,11.55,7.19l-1.64,1.11s-6.54,7-11.94,9.06c-4.25,1.65-5.48.61-7.32,3.63l-4.28,4.76-3.1-4.56-7.72,2.31-2.62.78c-.64.64-5.78,4.23-8.69-3.58a110.13,110.13,0,0,1-7.73,17.68c-.57,1-1.16,2-1.78,2.95-14.66.79-19-7.78-19-7.78-.4-2.32-.82-4.72-1.31-7.1h0c3.63-8.77,1.91-15.62.14-19.47h0a16,16,0,0,0-2.06-3.46c-9.32-13.64-37.78-.7-37.78-.7C355.11,313.57,366.76,309.84,367.61,309.58ZM448.66,337c1.46-.48,2.47-1.39,2.26-2s-1.56-.75-3-.26-2.47,1.39-2.26,2S447.2,337.5,448.66,337Z"/><path class="cls-2" d="M464.44,280.47c.64,8-5.91,9.54-5.91,9.54l-.44.57q-1.12-.87-2.37-1.71A21.43,21.43,0,0,0,451,287l0-.1c-8.78-3.8-5.19-11.84-1.86-13.67C453.88,270.64,463.8,272.42,464.44,280.47Z"/><path d="M450.92,335c.21.63-.8,1.54-2.26,2s-2.81.37-3-.26.8-1.54,2.26-2S450.71,334.36,450.92,335Z"/><path class="cls-3" d="M413.69,387.87c.76,4.89-6.35,11.08-6.35,11.08s-6.77-19.23-10.34-26.12h0a27.3,27.3,0,0,1,6.72-1.1,10.14,10.14,0,0,1,2.69.29c3.1.83,4.77,4.67,5.1,6.81S412.93,383,413.69,387.87Z"/><path class="cls-4" d="M392.57,355.42s4.38,8.57,19,7.78c-2.35,3.66-5,6.8-7.88,8.38v.15a27.3,27.3,0,0,0-6.72,1.1h0a14.89,14.89,0,0,0-.74-1.33C394.77,369.13,393.82,362.7,392.57,355.42Z"/><path class="cls-3" d="M386.93,406.59h0s-46.64,4.31-55.54,3.83a51.14,51.14,0,0,0-6.09.06v-.06a16.72,16.72,0,0,0-5.19-14.23,57.2,57.2,0,0,0,6.5-1.58c6.3-2,33.43-12.93,44.94-14.88l.73-.31A168.73,168.73,0,0,0,386.93,406.59Z"/><path class="cls-4" d="M372.27,379.42l-.73.31-3.46-1.48a36,36,0,0,0-14.51-2.89l-22.1.25a25,25,0,0,0-7.2,1.15s-16.63-5.18-17.22-34.06c-.31-15.24-14.92-19.31-14.92-19.31a82.85,82.85,0,0,1,19.6-4.12c23.46-1.91,38.65-6.42,55.87-9.76v.07c-.85.26-12.5,4-16.05,15.09a24.49,24.49,0,0,0-.39,12.64c3.56,17.05,13.89,18.11,13.89,18.11h0a71.94,71.94,0,0,1,1.93,7.81A84.92,84.92,0,0,0,372.27,379.42Z"/><path class="cls-3" d="M320.1,396.19a39.16,39.16,0,0,1-4.67.59L307.65,398c-2.41-1.12-5.17-1.55-7.33-2.93a18.48,18.48,0,0,0-2.8-1.46c4-1.34,12.61-7.79,18.65-12.55a25.29,25.29,0,0,1,15.3-5.42l22.1-.25a36,36,0,0,1,14.51,2.89l3.46,1.48c-11.51,1.95-38.64,12.92-44.94,14.88A57.2,57.2,0,0,1,320.1,396.19Z"/><path class="cls-1" d="M320.1,396.19a16.72,16.72,0,0,1,5.19,14.23v.06a59,59,0,0,0-10.85,1.72c2.63-3.19-.59-6.91-2.72-10.64a7.67,7.67,0,0,0-.9-1.28,5.09,5.09,0,0,0-1.33-1.23,10.31,10.31,0,0,0-1.84-1.08l7.78-1.19A39.16,39.16,0,0,0,320.1,396.19Z"/><path class="cls-3" d="M293.41,392.42a100.91,100.91,0,0,1-4.79,13.73c-2.43,5.6-4.89,9.73-6.43,11.09-5.72,5-13.2,3.67-22.31,3.94s-29-11.29-34.83-13.56a17.84,17.84,0,0,0-4.11-1c-6.71-11.42,1.84-17.23,1.84-17.23,5.52.37,11.34-2.41,11.34-2.41,14.71-5.39,22.21-.23,22.53,0-.13-.29-2.49-5.63-2-27,.38-16.53,18-30,37.48-36.51,0,0,14.61,4.07,14.92,19.31.59,28.88,17.22,34.06,17.22,34.06a25.22,25.22,0,0,0-8.1,4.27c-6,4.76-14.65,11.21-18.65,12.55A16.1,16.1,0,0,0,293.41,392.42Z"/><path class="cls-1" d="M309.49,399.05a8,8,0,0,1,2.23,2.51c2.13,3.73,5.35,7.45,2.72,10.64a8.83,8.83,0,0,1-2.72,2.06,15.65,15.65,0,0,1-5.9,3.93,9.8,9.8,0,0,1-12.39-5.76l-.71-1.79A7.71,7.71,0,0,0,291,408l-2.36-1.81a100.91,100.91,0,0,0,4.79-13.73,16.1,16.1,0,0,1,4.11,1.16,18.48,18.48,0,0,1,2.8,1.46c2.16,1.38,4.92,1.81,7.33,2.93A10.31,10.31,0,0,1,309.49,399.05Z"/><path class="cls-1" d="M220.94,406.58a23,23,0,0,0-7.86.32,25.6,25.6,0,0,1-8.16.59c-3.81-.49-19.45-.45-21.63-.59s-12.51.82-17.95.54-7.76-.4-7.76-3.12,5.44-13.88,10.75-16.06,6.39-1.9,12.51-1.76,16.74.4,16.74.4,8.16-1.36,12.78-1.9,6.24,1.94,6.24,1.94a9.89,9.89,0,0,0,6.18,2.41S214.23,395.16,220.94,406.58Z"/><path class="cls-5" d="M436.37,314.25s1.8-6.18-4.35-4.85a8.93,8.93,0,0,0-1.73,1.07,8.57,8.57,0,0,0-3.54,7.19s.63,3.38,3.55.34"/><path class="cls-5" d="M423.21,321.68s-5,2.8-4.06,7.81"/><path class="cls-5" d="M468.43,329.06s-9.52-5.77-11.55-7.19c-4-2.81-7.21-.83-12-1.44s-7.78-3.78-8.55-6.18"/><path class="cls-5" d="M458.53,290s6.55-1.49,5.91-9.54-10.56-9.83-15.23-7.26c-3.33,1.83-6.92,9.87,1.86,13.67"/><path class="cls-5" d="M430.19,310.34s-2.25-2.26-8.18-1.53c-3.42.53-5.82.13-6.86-1.32s-.69-4.34,1.75-8.48c4.7-8,16.05-11.46,16.05-11.46"/><path class="cls-5" d="M433,287.55A29.66,29.66,0,0,1,451,287a21.43,21.43,0,0,1,4.68,1.89q1.25.84,2.37,1.71c13,10,13.26,22.28,11.58,37.63l-1.24.85-1.64,1.11s-6.54,7-11.94,9.06c-4.25,1.65-5.48.61-7.32,3.63l-4.28,4.76-3.1-4.56-7.72,2.31-2.62.78c-.64.64-5.78,4.23-8.69-3.58a23.71,23.71,0,0,1-.83-2.85,15.38,15.38,0,0,0-1.15-3c-.64-1.23-5-.72-9.61-.57-8.42.28-9.59,1.19-12.52,5.67"/><path class="cls-5" d="M256.66,386.94h0c-.32-.22-7.82-5.38-22.53,0,0,0-5.82,2.78-11.34,2.41a9.89,9.89,0,0,1-6.18-2.41s-1.61-2.49-6.24-1.94-12.78,1.9-12.78,1.9-10.61-.27-16.74-.4-7.21-.41-12.51,1.76-10.75,13.33-10.75,16.06,2.31,2.85,7.76,3.12,15.78-.68,17.95-.54,17.82.1,21.63.59a25.6,25.6,0,0,0,8.16-.59,23,23,0,0,1,7.86-.32,17.84,17.84,0,0,1,4.11,1c5.85,2.27,25.71,13.84,34.83,13.56s16.59,1.09,22.31-3.94c1.54-1.36,4-5.49,6.43-11.09a100.91,100.91,0,0,0,4.79-13.73c3.8-14,4.76-30.25-4.69-38.3,0,0-9.66-6.26-14.56-6.8"/><path class="cls-5" d="M415.15,307.49s-4.27,4-9.77,2.85-16.06-4.72-33.15-1.7c-1.57.28-3.11.57-4.63.87-17.22,3.34-32.41,7.85-55.87,9.76a82.85,82.85,0,0,0-19.6,4.12c-19.53,6.55-37.1,20-37.48,36.51-.49,21.4,1.87,26.74,2,27"/><path class="cls-5" d="M205.79,389.9s3.63-.89,5.59-.23,10,.23,10,.23"/><path class="cls-5" d="M222.78,389.35s-8.55,5.81-1.84,17.23h0"/><path class="cls-5" d="M293.41,392.42a16.1,16.1,0,0,1,4.11,1.16,18.48,18.48,0,0,1,2.8,1.46c2.16,1.38,4.92,1.81,7.33,2.93a10.31,10.31,0,0,1,1.84,1.08,8,8,0,0,1,2.23,2.51c2.13,3.73,5.35,7.45,2.72,10.64a8.83,8.83,0,0,1-2.72,2.06,15.65,15.65,0,0,1-5.9,3.93,9.8,9.8,0,0,1-12.39-5.76l-.71-1.79A7.71,7.71,0,0,0,291,408l-2.36-1.81"/><path class="cls-5" d="M314.44,412.2a59,59,0,0,1,10.85-1.72,51.14,51.14,0,0,1,6.09-.06c8.9.48,55.54-3.83,55.54-3.83"/><path class="cls-5" d="M307.64,398h0l7.78-1.19a39.16,39.16,0,0,0,4.67-.59,57.2,57.2,0,0,0,6.5-1.58c6.3-2,33.43-12.93,44.94-14.88"/><path class="cls-5" d="M320.09,396.19h0a16.72,16.72,0,0,1,5.19,14.23"/><path class="cls-5" d="M292.13,323.39s14.61,4.07,14.92,19.31c.59,28.88,17.22,34.06,17.22,34.06"/><line class="cls-5" x1="489.16" y1="425.54" x2="481.67" y2="422.41"/><path class="cls-5" d="M359.83,344.22s2.77,3.31,5.24,11.2a71.94,71.94,0,0,1,1.93,7.81,84.92,84.92,0,0,0,5.27,16.19,168.73,168.73,0,0,0,14.66,27.17q1.69,2.54,3.39,4.85a8.86,8.86,0,0,1,1,1.62l.38.82a9.4,9.4,0,0,0,7.64,5.4c11.18,1,36.68,3.34,46.64,3.73a23.11,23.11,0,0,0,4.32-.25l7.68-1.14c1.74-.26,4.46.56,5.35,2.08a4.74,4.74,0,0,0,2.61,1.76,12.16,12.16,0,0,0,2.83.52l10.12.77,9.49,2.79a2,2,0,0,0,2.35-1,2,2,0,0,0,.23-.93,2,2,0,0,0-1.23-1.86l-.52-.22"/><path class="cls-5" d="M489.16,425.54h0l17.2,2.9a1.67,1.67,0,0,0,1.92-1.3,1.47,1.47,0,0,0,0-.36,1.68,1.68,0,0,0-1.24-1.62L488.19,420"/><path class="cls-5" d="M508.29,427.14l5.42.77a1.4,1.4,0,0,0,1.59-1.18,2.11,2.11,0,0,0,0-.25,1.75,1.75,0,0,0-1.13-1.63l-6.14-2.28L501.17,420l-11.81-2.91"/><path class="cls-5" d="M391.26,348.31c-1.33-6.53-3.08-12.94-5.8-17.12"/><path class="cls-5" d="M515.5,426.48h.74A1.73,1.73,0,0,0,518,425a1.34,1.34,0,0,0,0-.2,1.75,1.75,0,0,0-1.09-1.61l-12.54-5-15.8-3.66s-10.78-2.18-18.14-4a49.45,49.45,0,0,1-6.13-1.78c-3.75-1.62-16.61-1.05-21.09-1.79-1.57-.26-6.13-1.32-11.5-2.58C421.75,402,409,399,407.34,399c0,0-6.77-19.23-10.34-26.12a14.89,14.89,0,0,0-.74-1.33c-1.49-2.37-2.44-8.8-3.69-16.08-.4-2.32-.82-4.72-1.31-7.1"/><path class="cls-5" d="M407.34,399s7.11-6.19,6.35-11.08-1.84-6.89-2.17-9-2-6-5.1-6.81a10.14,10.14,0,0,0-2.69-.29,27.3,27.3,0,0,0-6.72,1.1"/><path class="cls-5" d="M413.39,360.25s3.66,26.49,10.36,34.5,7.93,9.6,7.93,9.6"/><path class="cls-5" d="M470.4,410.5s21.53-4.11,23.69-3.07"/><path class="cls-5" d="M492,404.35l2.06,3.08h0l.35.53a9.58,9.58,0,0,0,8,4.24,22.61,22.61,0,0,1,8,1.49l3.61,1.39a2.06,2.06,0,0,0,2.78-1.91,1.76,1.76,0,0,0-.06-.46,2,2,0,0,0-1.28-1.47l-3.69-1.35a15.09,15.09,0,0,1-4.54-2.64l-3.45-2.9"/><path class="cls-5" d="M516.85,412.7h4.42l7.89.7,9.06.61a1.41,1.41,0,0,0,1.59-1,1.32,1.32,0,0,0,.06-.39,1.44,1.44,0,0,0-1-1.34l-7.3-2-2.38-.64a11.08,11.08,0,0,0-2.05-.47l-5.9-.76a10.3,10.3,0,0,1-2.73-.73L495.14,397a7.35,7.35,0,0,0-2.17-.54l-18.38-1.82a23,23,0,0,1-3.86-.71c-5.19-1.43-19.7-5.4-25.19-6.63a3.69,3.69,0,0,1-2.69-2.48L436,363.23l-3.55-17.86"/><path class="cls-5" d="M531.6,409.31l9.22.19a1.6,1.6,0,0,1,1.55,1.21,1.83,1.83,0,0,1,0,.4,1.59,1.59,0,0,1-1.23,1.55l-1.38.34"/><path class="cls-5" d="M421.12,342.57a110.13,110.13,0,0,1-7.73,17.68c-.57,1-1.16,2-1.78,2.95-2.35,3.66-5,6.8-7.88,8.38"/><path class="cls-5" d="M367.66,309.57h-.05c-.85.26-12.5,4-16.05,15.09a24.49,24.49,0,0,0-.39,12.64c3.56,17.05,13.89,18.11,13.89,18.11"/><path class="cls-5" d="M391.4,328.84c1.77,3.85,3.49,10.7-.14,19.47h0"/><path class="cls-5" d="M351.56,324.67s28.46-12.94,37.78.7a16,16,0,0,1,2.06,3.46"/><path class="cls-5" d="M392.57,355.42s4.38,8.57,19,7.78"/><path class="cls-5" d="M399.94,321.68s-8.14,2-8.54,7.15h0"/><path class="cls-5" d="M297.52,393.58c4-1.34,12.61-7.79,18.65-12.55a25.29,25.29,0,0,1,15.3-5.42l22.1-.25a36,36,0,0,1,14.51,2.89l3.46,1.48"/><path class="cls-5" d="M301.08,404.35c-.68-4.33,2.39-5.4,2.39-5.4s3.38-1.52,6,.1a5.09,5.09,0,0,1,1.33,1.23"/><path class="cls-5" d="M311.72,414.26s-3.27-1-4.08-6l-1.74-1.65"/></svg>