<svg id="Layer_1" data-name="Layer 1" xmlns="http://www.w3.org/2000/svg" viewBox="0 0 700 700"><defs><style>.cls-1{fill:#feae63;}.cls-2{fill:#392328;}.cls-3{fill:#c4e7f9;}.cls-4{fill:#99abcc;}.cls-5{fill:none;stroke:#000;stroke-linecap:round;stroke-linejoin:round;stroke-width:2.3px;}</style></defs><title>Yoga_poses_2020_color</title><path class="cls-1" d="M512.54,435a1.29,1.29,0,0,1-.77-.94,2.76,2.76,0,0,1-.06-.57,1.51,1.51,0,0,1,.66-1.26,1.62,1.62,0,0,1,.83-.28l2.8-.08c1.34-.06,2.16.57,2.1,1.7s-2.48,4.88-2.63,5.12l-2.24-.36a1,1,0,0,0-.45,0l0,0c.6-2.24-.26-3.24-.26-3.24Z"/><path class="cls-1" d="M516.62,427.9a1.37,1.37,0,0,1-.52,2l-3.91,2.06-.28.15a3.15,3.15,0,0,1-3.58-1,2.37,2.37,0,0,1,.4-3.3l.17-.1,4.2-2.5a1.53,1.53,0,0,1,2.09.5Z"/><path class="cls-1" d="M515.47,438.71l.49.09a.92.92,0,0,1,.75,1.06l-.33,1.87a.66.66,0,0,1-.78.53l-2.69-.51a1.21,1.21,0,0,1-.58-.28,1.26,1.26,0,0,1-.4-1.2l.26-1.2a1,1,0,0,1,.59-.68,1,1,0,0,1,.45,0Z"/><path class="cls-1" d="M412.87,394.11a51.34,51.34,0,0,1,4.32,7.65c4.82,10.64,6,11.71,19.67,23.43l4,3.45a4.63,4.63,0,0,0,2.57,1.09c1.16.1,3.1.21,6.17.21l1,0c7.5.3,31.22,3.25,38.47,1.31a18.94,18.94,0,0,1,3.73-8.25,17.64,17.64,0,0,1,5.42-5.11,4.52,4.52,0,0,1,1.86-.72,53.2,53.2,0,0,0,7.05-1.41.76.76,0,0,1,1,.62,5.19,5.19,0,0,1-.1,2.16,2.64,2.64,0,0,1-1.57,1.73c-2.66,1.09-3.21.7-4.52,1.58a7.84,7.84,0,0,0-1.14.91l.14.15s.75,1.85,4.36,1.18l.85-.16A7.08,7.08,0,0,1,506,425c-.4,1.25.17,2.84,1.42,2.72a2.25,2.25,0,0,0,1.19-.68l.34.58-.17.1a2.37,2.37,0,0,0-.4,3.3,3.15,3.15,0,0,0,3.58,1l.28-.15.18.34a1.51,1.51,0,0,0-.66,1.26,2.76,2.76,0,0,0,.06.57,1.29,1.29,0,0,0,.77.94l0,.1s.86,1,.26,3.24l0,0a1,1,0,0,0-.59.68l-.26,1.2a1.26,1.26,0,0,0,.4,1.2l-.32.43a2.09,2.09,0,0,1-1.78,1.44c-1.79,0-10.61.77-13.8.64s-2.94.38-7.29.25-8.94,1.67-14.82,1.92-14.45.9-24.42,2.17-13.8,1.54-15.72-.25a56.08,56.08,0,0,0-4.34-3.58c-2.44-1.7-4.78-3.45-7-5.22a158,158,0,0,1-15.67-14.2,192,192,0,0,1-20-24.55,24.68,24.68,0,0,0-3.28-3.43,70.15,70.15,0,0,0-7.07-5.39s-16.85-23.93,2.12-36.82c17.81-12.08,21.25-7.64,21.74-6.69h0c7.18,14.4,9.18,31.74,9.18,31.74.44,2.86-.19,5.08.41,8.07A18.23,18.23,0,0,0,412.87,394.11Z"/><path class="cls-1" d="M506.19,424l-.85.16c-3.61.67-4.36-1.18-4.36-1.18l-.14-.15a7.84,7.84,0,0,1,1.14-.91c1.31-.88,1.86-.49,4.52-1.58a2.64,2.64,0,0,0,1.57-1.73L510,420.5a2.15,2.15,0,0,1,.6,2l-.51,2.55a10.36,10.36,0,0,1-1.53,2,2.25,2.25,0,0,1-1.19.68c-1.25.12-1.82-1.47-1.42-2.72A7.08,7.08,0,0,0,506.19,424Z"/><path class="cls-2" d="M450.53,419.62a10.54,10.54,0,0,1,.12,10.32v0l-1,0c-3.07,0-5-.11-6.17-.21a4.63,4.63,0,0,1-2.57-1.09l-4-3.45,0,0a23.31,23.31,0,0,0,.89-3l.1,0C440.91,413.73,448.62,416.61,450.53,419.62Z"/><path class="cls-2" d="M436.18,405.26a27.77,27.77,0,0,1,1.59,16.88,23.31,23.31,0,0,1-.89,3l0,0c-13.7-11.72-14.85-12.79-19.67-23.43a51.34,51.34,0,0,0-4.32-7.65,18.23,18.23,0,0,1-2.61-6.12h0c1.92,4.29,7,1.3,14.67,4S436.18,405.26,436.18,405.26Z"/><path class="cls-2" d="M422.82,439.27l-.1.12c-6.45,2.78-13.91,2.95-22.39,2.55l-.86-1.11s4.83-9.23,6-11.21a7.65,7.65,0,0,0,1.18-4.11l.46-.44A158,158,0,0,0,422.82,439.27Z"/><path class="cls-1" d="M407.15,425.07l-.46.44a7.65,7.65,0,0,1-1.18,4.11c-1.21,2-6,11.21-6,11.21l-1.14-1.47s-6.88-5.7-9.15-10.63c-1.79-3.87-.9-5.08-3.82-6.63l-4.7-3.72,4.08-3.16-3.49-9.48c-.63-.55-4.16-5,2.48-8.16l.14-.49a24.68,24.68,0,0,1,3.28,3.43A192,192,0,0,0,407.15,425.07Zm-14.25-.26c.58-.23.61-1.5.08-2.84s-1.45-2.22-2-2-.61,1.5-.08,2.84S392.33,425.05,392.9,424.81Z"/><path class="cls-3" d="M400.67,348.18h0c-.49-.95-3.93-5.39-21.74,6.69-19,12.89-2.12,36.82-2.12,36.82s-13.55,1-17.64-9.45-3.83-10.74-11.25-24-7.67-22.24-7.92-33c-.21-8.77-3.66-21.29-8.41-26.7l.05-.05s22.27-15.66,28.53-23.31l.74-.48a116.31,116.31,0,0,1,10.54,19.45c4.06,10.13,20,37.06,28.09,51.83C399.93,346.7,400.31,347.44,400.67,348.18Z"/><path d="M393,422c.53,1.34.5,2.61-.08,2.84s-1.48-.66-2-2-.5-2.61.08-2.84S392.44,420.64,393,422Z"/><path class="cls-4" d="M360.9,274.7l-.74.48c-6.26,7.65-28.53,23.31-28.53,23.31l-.05.05a7.8,7.8,0,0,0-3.35-2.44c-6.39-2-15.08,13.55-23.52,23.52s-28.32,25.62-40.07,35.08-14.83,9.46-18.66,14.06-9.52,16.55-16.93,25-16.19,23.57-16.19,23.57a53.47,53.47,0,0,0-3,7.93h-.44s-9.34-.32-16.3-2.75h-.61c3.23-9.06,10.24-31.36,15.31-43.78,5.79-14.19,26.64-23.75,36.77-42.86s31.86-47.49,41.7-63.13S303.1,249.26,326,249C340.05,248.79,352.47,262.08,360.9,274.7Z"/><path class="cls-1" d="M239.81,443.91a1.28,1.28,0,0,1,1.23,1.38c-.12,1.32-.6,3.11-2.39,2.95l-.35.05a5.5,5.5,0,0,0-.74-.93l-4.87-1.24.43-2.83c1.3.2,2.92.41,4.46.5Z"/><path class="cls-1" d="M238.3,448.29c.45.73.68,1.68-.8,2a9,9,0,0,1-4.75-.39h-.07a1.78,1.78,0,0,0-.58-1.62,13,13,0,0,0-2.18-1.14l2.77-1,4.87,1.24A5.5,5.5,0,0,1,238.3,448.29Z"/><path class="cls-1" d="M229.92,447.13a13,13,0,0,1,2.18,1.14,1.78,1.78,0,0,1,.58,1.62,3.81,3.81,0,0,1-.19,1,7.91,7.91,0,0,1-5.33-.59l0,0,.51.56a.73.73,0,0,1-.39,1.21,8,8,0,0,1-4.08-.39c-6.14,1.39-20-1.21-26.33-1.21s-11.31.63-13.92-3.71,6.16-15.76,8.47-21.26c.29-.69.67-1.71,1.13-3h.61c7,2.43,16.3,2.75,16.3,2.75h.44a10,10,0,0,0-.33,2.08c-.06,2.62.19,10.27,16.58,14.5l4.23,1s1.15.24,2.77.48l-.43,2.83Z"/><path class="cls-5" d="M399.47,440.83s4.83-9.23,6-11.21a7.65,7.65,0,0,0,1.18-4.11"/><path class="cls-5" d="M412.87,394.11a18.23,18.23,0,0,1-2.61-6.12c-.6-3,0-5.21-.41-8.07,0,0-2-17.34-9.18-31.74-.36-.74-.74-1.48-1.14-2.2-8.11-14.77-24-41.7-28.09-51.83A116.31,116.31,0,0,0,360.9,274.7C352.47,262.08,340.05,248.79,326,249c-22.88.29-29.83,8.11-39.68,23.75s-31.56,44-41.7,63.13-31,28.67-36.77,42.86c-5.07,12.42-12.08,34.72-15.31,43.78-.46,1.3-.84,2.32-1.13,3-2.31,5.5-11.07,16.91-8.47,21.26s7.54,3.71,13.92,3.71,20.19,2.6,26.33,1.21a8,8,0,0,0,4.08.39.73.73,0,0,0,.39-1.21l-.51-.56-1.38-1.52a1.3,1.3,0,0,0-.86-.43l-2.15-.21"/><path class="cls-5" d="M227.16,450.28a7.91,7.91,0,0,0,5.33.59,3.81,3.81,0,0,0,.19-1,1.78,1.78,0,0,0-.58-1.62,13,13,0,0,0-2.18-1.14c-1.08-.49-2.11-.88-2.11-.88"/><path class="cls-5" d="M232.75,449.89a9,9,0,0,0,4.75.39c1.48-.31,1.25-1.26.8-2a5.5,5.5,0,0,0-.74-.93l-4.87-1.24"/><path class="cls-5" d="M238.65,448.24c1.79.16,2.27-1.63,2.39-2.95a1.28,1.28,0,0,0-1.23-1.38l-2.23-.12c-1.54-.09-3.16-.3-4.46-.5-1.62-.24-2.77-.48-2.77-.48l-4.23-1c-16.39-4.23-16.64-11.88-16.58-14.5a10,10,0,0,1,.33-2.08,53.47,53.47,0,0,1,3-7.93s8.78-15.14,16.19-23.57,13.09-20.39,16.93-25,6.9-4.6,18.66-14.06,31.64-25.11,40.07-35.08,17.13-25.56,23.52-23.52a7.8,7.8,0,0,1,3.35,2.44c4.75,5.41,8.2,17.93,8.41,26.7.25,10.74.51,19.69,7.92,33s7.16,13.55,11.25,24,17.64,9.45,17.64,9.45-16.85-23.93,2.12-36.82c17.81-12.08,21.25-7.64,21.74-6.69a1.37,1.37,0,0,1,.07.16"/><path class="cls-5" d="M450.65,429.94a10.54,10.54,0,0,0-.12-10.32c-1.91-3-9.62-5.89-12.66,2.54"/><path class="cls-5" d="M376.8,391.7a70.15,70.15,0,0,1,7.07,5.39,24.68,24.68,0,0,1,3.28,3.43,192,192,0,0,0,20,24.55,158,158,0,0,0,15.67,14.2c2.24,1.77,4.58,3.52,7,5.22a56.08,56.08,0,0,1,4.34,3.58c1.92,1.79,5.76,1.53,15.72.25s18.54-1.91,24.42-2.17,10.48-2,14.82-1.92,4.09-.38,7.29-.25,12-.64,13.8-.64A2.09,2.09,0,0,0,512,441.9"/><path class="cls-5" d="M403,383.34a49.61,49.61,0,0,1,9.84,10.77,51.34,51.34,0,0,1,4.32,7.65c4.82,10.64,6,11.71,19.67,23.43l4,3.45a4.63,4.63,0,0,0,2.57,1.09c1.16.1,3.1.21,6.17.21l1,0c7.5.3,31.22,3.25,38.47,1.31a18.94,18.94,0,0,1,3.73-8.25,17.64,17.64,0,0,1,5.42-5.11,4.52,4.52,0,0,1,1.86-.72,53.2,53.2,0,0,0,7.05-1.41.76.76,0,0,1,1,.62,5.19,5.19,0,0,1-.1,2.16,2.64,2.64,0,0,1-1.57,1.73c-2.66,1.09-3.21.7-4.52,1.58a7.84,7.84,0,0,0-1.14.91,9.37,9.37,0,0,0-1,1.14"/><path class="cls-5" d="M512.33,441.47a1.21,1.21,0,0,0,.58.28l2.69.51a.66.66,0,0,0,.78-.53l.33-1.87a.92.92,0,0,0-.75-1.06l-.49-.09-2.24-.36a1,1,0,0,0-.45,0,1,1,0,0,0-.59.68l-.26,1.2A1.26,1.26,0,0,0,512.33,441.47Z"/><path class="cls-5" d="M515.46,438.72h0c.15-.24,2.58-4,2.63-5.12s-.76-1.76-2.1-1.7l-2.8.08a1.62,1.62,0,0,0-.83.28,1.51,1.51,0,0,0-.66,1.26,2.76,2.76,0,0,0,.06.57,1.29,1.29,0,0,0,.77.94,1.34,1.34,0,0,0,.63.12l1.53-.07"/><path class="cls-5" d="M506.4,421.55a21.29,21.29,0,0,1-.21,2.4A7.08,7.08,0,0,1,506,425c-.4,1.25.17,2.84,1.42,2.72a2.25,2.25,0,0,0,1.19-.68,10.36,10.36,0,0,0,1.53-2l.51-2.55a2.15,2.15,0,0,0-.6-2l-1.93-1.94"/><path class="cls-5" d="M512.49,435.12s.86,1,.26,3.24"/><path class="cls-5" d="M508.9,427.64l4.2-2.5a1.53,1.53,0,0,1,2.09.5l1.43,2.26a1.37,1.37,0,0,1-.52,2l-3.91,2.06-.28.15a3.15,3.15,0,0,1-3.58-1,2.37,2.37,0,0,1,.4-3.3Z"/><path class="cls-5" d="M436.88,425.17a23.31,23.31,0,0,0,.89-3,27.77,27.77,0,0,0-1.59-16.88S432.63,394.7,425,392s-12.75.28-14.67-4"/><path class="cls-5" d="M383.73,397.58c-6.64,3.16-3.11,7.61-2.48,8.16l3.49,9.48-4.08,3.16,4.7,3.72c2.92,1.55,2,2.76,3.82,6.63,2.27,4.93,9.15,10.63,9.15,10.63l1.14,1.47.86,1.11c8.48.4,15.94.23,22.39-2.55"/><path class="cls-5" d="M331.63,298.49s22.27-15.66,28.53-23.31"/><path class="cls-5" d="M209.43,425.24s-9.34-.32-16.3-2.75"/><path class="cls-5" d="M501,422.93s.75,1.85,4.36,1.18"/></svg>