<svg id="Layer_1" data-name="Layer 1" xmlns="http://www.w3.org/2000/svg" viewBox="0 0 700 700"><defs><style>.cls-1{fill:#feae63;}.cls-2{fill:#392328;}.cls-3{fill:#c4e7f9;}.cls-4{fill:#99abcc;}.cls-5{fill:none;stroke:#000;stroke-linecap:round;stroke-linejoin:round;stroke-width:2.3px;}</style></defs><title>Yoga_poses_2020_color</title><path class="cls-1" d="M393,363.45s-2.11-.54-5.38-1.43h0s-11.43-6.61-14.12-11.11-8.91-18.16,3.93-28.73,20.92.21,24.24,2.49a20.32,20.32,0,0,1,5.79,5.31c2,2.84,3.77,7.1,4.39,13.87a10.06,10.06,0,0,0,2.19,5.35c1.12,1.41,2.59,3.33,4.06,5.49a53.69,53.69,0,0,1,3.76,6.34c1.23,2.51,2.06,4.7,2.94,6.77a29.88,29.88,0,0,0,5.33,8.69c.8.9,1.71,1.84,2.77,2.83,6.27,5.86,7.56,9.41,15.74,15.59h0c1.4,1.06,3,2.2,4.88,3.44,12.76,8.46,12.76,12,29.94,25.28s18.66,12.76,23.57,14,7,2,9.08,2.46a47.81,47.81,0,0,0,8.66,1.22,65.37,65.37,0,0,1,11.22,2.1c2.08.58,1.1,1.74,1,1.88l2.23.81s.73,2.14-1.72,1.81a48.54,48.54,0,0,1-5.77-1.32l-5.4-.74s5.77,1.72,6.5,2.06,1.11,2-.61,1.87-3.19-.61-6.63-1.23c-3.11-.55-7.5-1.27-8.29-1.4l-.57.36c.6.74,1.22,1.49,1.68,2,1.23,1.44.24,2.37-.86,2.3s-3.25-2.67-4.23-3.29l-1.2-.72-.08.13-7.4.52c-8.64.05-7.14-1.56-11.57-5.36-6.35-5.47-22.6-10.36-36.1-18.84s-17.35-14.6-21.12-17.66c-1.53-1.24-3.64-2.8-5.88-4.49a78.73,78.73,0,0,1-9.19-7.76c-1.2-1.28-2.88-2.89-4.83-4.81a3.25,3.25,0,0,0-1.11-2.39c-.93-1-2-1.5-2.52-1.19A133.6,133.6,0,0,1,400,372c-.93-1.25-1.93-2.52-3-3.8C395.71,366.63,394.34,365,393,363.45Z"/><path class="cls-2" d="M468.63,358.71s2.55,4.78-1.62,7.47c-3.68,2.39-7,2.19-9.22,1.06a3.68,3.68,0,0,1-1.29-1.13c-5.94-8.22-3.56-12.63.93-13.29C461.47,352.24,465.58,353.62,468.63,358.71Z"/><path class="cls-2" d="M456.91,374.38s1.71,17.35-8.3,20.52h0c-8.18-6.18-9.47-9.73-15.74-15.59-1.06-1-2-1.93-2.77-2.83l.17-.15c1.63-.07,3.58-.72,2.2-4.61a7,7,0,0,0-7.53-4l-.17.07c-.88-2.07-1.71-4.26-2.94-6.77a53.69,53.69,0,0,0-3.76-6.34c-.88-2.79,1.92-3.88,3.71-4.28,2.75-.14,6.29-2.55,12.11-2.71,8.13-.23,15.24,8.36,15.24,8.36A27.33,27.33,0,0,1,456.91,374.38Z"/><path class="cls-1" d="M432.46,371.72c1.38,3.89-.57,4.54-2.2,4.61l-.17.15a29.88,29.88,0,0,1-5.33-8.69l.17-.07A7,7,0,0,1,432.46,371.72Z"/><path class="cls-1" d="M429.91,402.11v1h-1.1L426,401.46s-8.47-2.86-12.36-6.64c-3.06-3-2.66-4.42-5.94-4.82L402,388.21l2.67-4.41L398,376.21c-.74-.28-5.2-2.9-1.29-7.73l.3-.24c1.05,1.28,2.05,2.55,3,3.8A133.6,133.6,0,0,0,412.26,386l-.08.05c-.46.43,0,1.63.95,2.68s2.15,1.56,2.6,1.14a.59.59,0,0,0,.16-.29c1.95,1.92,3.63,3.53,4.83,4.81A78.73,78.73,0,0,0,429.91,402.11Z"/><path class="cls-1" d="M418.75,349.21a3.74,3.74,0,0,0,3,1.19c-1.79.4-4.59,1.49-3.71,4.28-1.47-2.16-2.94-4.08-4.06-5.49a10.06,10.06,0,0,1-2.19-5.35c-.62-6.77-2.39-11-4.39-13.87l1.12-.79A37,37,0,0,1,414,339.62C416.14,346.76,418.75,349.21,418.75,349.21Z"/><path d="M414.78,387.15a3.25,3.25,0,0,1,1.11,2.39c-1.13-1.09-2.35-2.29-3.63-3.58C412.76,385.65,413.85,386.16,414.78,387.15Z"/><path d="M415.89,389.54a.59.59,0,0,1-.16.29c-.45.42-1.62-.09-2.6-1.14s-1.41-2.25-.95-2.68l.08-.05C413.54,387.25,414.76,388.45,415.89,389.54Z"/><path class="cls-3" d="M408.54,329.18l-1.12.79a20.32,20.32,0,0,0-5.79-5.31c-3.32-2.28-11.39-13.05-24.24-2.49s-6.63,24.24-3.93,28.73S387.58,362,387.58,362h0c-8.18-2.21-23.61-6.55-31.31-9.81-10.78-4.56-6.84-9.32-15.13-18.85a174.06,174.06,0,0,1-15.31-21.24,30,30,0,0,0-2.53-4.28,60.13,60.13,0,0,0,14.83-36.2c8.76,6,20,11.69,33.86,19.19,21.08,11.39,28.56,28.05,31.62,32C405,324.55,406.79,326.7,408.54,329.18Z"/><path class="cls-4" d="M338.13,271.64a60.13,60.13,0,0,1-14.83,36.2c-5.28-7.45-11.78-8.56-13.4-5.82-1.88,3.2-5.09,10-22.25,26s-26.5,22.85-30.38,28.49c-1.46,2.12-2.62,2.95-6.89,6.73s-8.87,4.93-13.22,12.73-17.25,21.92-24.26,28.82c-4.17,4.11-9.66,12.1-13.11,18.2h0S191,424,183,415.36c7.77-12.82,12.52-24,18-34.09,7.48-13.77,26.69-28.39,28.56-31.45s5.27-6.12,7.48-11.56,12.07-26.18,18-34.34a160.1,160.1,0,0,0,16-26.35c4.25-9.18,6.29-17.34,14.79-23.29s31.11-3.4,40.63,7.31A64.43,64.43,0,0,0,338.13,271.64Z"/><path class="cls-1" d="M225.25,447.51c-.66,1.57-4,.74-4,.74h0a2.37,2.37,0,0,1,0,.74c-.25,1.07-3.94.8-3.94.8-.41,1.53-7.07.61-7.07.61l-2.72-.1c-5.1.51-16-1-21.29-2.22s-27.33,1.19-13-18c3.82-5.13,7-10,9.88-14.7,8,8.66,16.82,7.66,16.82,7.66h0c-2.35,4.13-3.76,7.39-3.19,8a40.8,40.8,0,0,0,9.19,6.24c2.22.82,8.87,2.71,11.42,3.86s5,1.2,6.1,1.72c2.09,1,4.32,1.89,4.32,1.89a2.06,2.06,0,0,1,.94.36,1.66,1.66,0,0,1,.62,1.69C229,448.66,225.25,447.51,225.25,447.51Z"/><path class="cls-5" d="M430.26,376.33c1.63-.07,3.58-.72,2.2-4.61a7,7,0,0,0-7.53-4"/><path class="cls-5" d="M457.79,367.24a3.68,3.68,0,0,1-1.29-1.13c-5.94-8.22-3.56-12.63.93-13.29,4-.58,8.15.8,11.2,5.89,0,0,2.55,4.78-1.62,7.47C463.33,368.57,460,368.37,457.79,367.24Z"/><path class="cls-5" d="M214,446.53c2.32,1.49,3.62,1.72,3.21,3.26s-7.07.61-7.07.61l-2.72-.1c-5.1.51-16-1-21.29-2.22s-27.33,1.19-13-18c3.82-5.13,7-10,9.88-14.7,7.77-12.82,12.52-24,18-34.09,7.48-13.77,26.69-28.39,28.56-31.45s5.27-6.12,7.48-11.56,12.07-26.18,18-34.34a160.1,160.1,0,0,0,16-26.35c4.25-9.18,6.29-17.34,14.79-23.29s31.11-3.4,40.63,7.31a64.43,64.43,0,0,0,11.7,10.05c8.76,6,20,11.69,33.86,19.19,21.08,11.39,28.56,28.05,31.62,32,1.38,1.76,3.18,3.91,4.93,6.39A37,37,0,0,1,414,339.62c2.18,7.14,4.79,9.59,4.79,9.59a3.74,3.74,0,0,0,3,1.19c2.75-.14,6.29-2.55,12.11-2.71,8.13-.23,15.24,8.36,15.24,8.36a27.33,27.33,0,0,1,7.79,18.33s1.71,17.35-8.3,20.52"/><path class="cls-5" d="M396.72,368.48c-3.91,4.83.55,7.45,1.29,7.73l6.66,7.59L402,388.21l5.72,1.79c3.28.4,2.88,1.85,5.94,4.82,3.89,3.78,12.36,6.64,12.36,6.64l2.79,1.69"/><path class="cls-5" d="M217.21,449.79s3.69.27,3.94-.8a2.37,2.37,0,0,0,0-.74,2.4,2.4,0,0,0-.71-1.64c-.41-.33-2.55-1.4-2.55-1.4"/><path class="cls-5" d="M221.21,448.25s3.38.83,4-.74-.95-2.28-2.05-2.63l-2-.65"/><path class="cls-5" d="M225.25,447.51s3.7,1.15,3.94-.74a1.66,1.66,0,0,0-.62-1.69,2.06,2.06,0,0,0-.94-.36s-2.23-.9-4.32-1.89c-1.11-.52-3.54-.57-6.1-1.72s-9.2-3-11.42-3.86A40.8,40.8,0,0,1,196.6,431c-.57-.6.84-3.86,3.19-8,3.45-6.1,8.94-14.09,13.11-18.2,7-6.9,19.9-21,24.26-28.82s9-8.95,13.22-12.73,5.43-4.61,6.89-6.73c3.88-5.64,13.22-12.48,30.38-28.49S308,305.22,309.9,302c1.62-2.74,8.12-1.63,13.4,5.82a30,30,0,0,1,2.53,4.28,174.06,174.06,0,0,0,15.31,21.24c8.29,9.53,4.35,14.29,15.13,18.85,7.7,3.26,23.13,7.6,31.31,9.81,3.27.89,5.38,1.43,5.38,1.43"/><path class="cls-5" d="M338.13,271.64a60.13,60.13,0,0,1-14.83,36.2"/><path class="cls-5" d="M228.84,445c.15-1.75-.05-2.45-1.86-2.16a12.13,12.13,0,0,1-3.67,0"/><path class="cls-5" d="M199.78,423S191,424,183,415.36"/><path class="cls-5" d="M379.75,349.85c.51.17,6.88,6.38,13.21,13.6,1.38,1.56,2.75,3.18,4.06,4.79,1.05,1.28,2.05,2.55,3,3.8A133.6,133.6,0,0,0,412.26,386c1.28,1.29,2.5,2.49,3.63,3.58,1.95,1.92,3.63,3.53,4.83,4.81a78.73,78.73,0,0,0,9.19,7.76c2.24,1.69,4.35,3.25,5.88,4.49,3.77,3.06,7.63,9.18,21.12,17.66s29.75,13.37,36.1,18.84c4.43,3.8,2.93,5.41,11.57,5.36l7.4-.52"/><path class="cls-5" d="M509.09,446.08l3,1.73,1.2.72c1,.62,3.12,3.22,4.23,3.29s2.09-.86.86-2.3c-.46-.54-1.08-1.29-1.68-2-1-1.22-1.94-2.39-1.94-2.39"/><path class="cls-5" d="M517.11,447.11l.13,0c.79.13,5.18.85,8.29,1.4,3.44.62,4.91,1.11,6.63,1.23s1.35-1.54.61-1.87-6.5-2.06-6.5-2.06l-3.68-.73"/><path class="cls-5" d="M522,442.64s7,.32,8.15.32c.92,0,3.2,1,6.81,2.31l2.23.81s.73,2.14-1.72,1.81a48.54,48.54,0,0,1-5.77-1.32l-5.4-.74"/><path class="cls-5" d="M536.92,445.28h0c.13-.14,1.11-1.3-1-1.88a65.37,65.37,0,0,0-11.22-2.1,47.81,47.81,0,0,1-8.66-1.22c-2.09-.5-4.17-1.23-9.08-2.46s-6.38-.74-23.57-14-17.18-16.82-29.94-25.28c-1.87-1.24-3.48-2.38-4.88-3.44h0c-8.18-6.18-9.47-9.73-15.74-15.59-1.06-1-2-1.93-2.77-2.83a29.88,29.88,0,0,1-5.33-8.69c-.88-2.07-1.71-4.26-2.94-6.77a53.69,53.69,0,0,0-3.76-6.34c-1.47-2.16-2.94-4.08-4.06-5.49a10.06,10.06,0,0,1-2.19-5.35c-.62-6.77-2.39-11-4.39-13.87a20.32,20.32,0,0,0-5.79-5.31c-3.32-2.28-11.39-13.05-24.24-2.49s-6.63,24.24-3.93,28.73S387.58,362,387.58,362"/><path class="cls-5" d="M423.15,350.17a11.12,11.12,0,0,0-1.38.23c-1.79.4-4.59,1.49-3.71,4.28"/><polyline class="cls-5" points="428.81 403.15 429.91 403.15 430.1 403.15"/></svg>