<svg id="Layer_1" data-name="Layer 1" xmlns="http://www.w3.org/2000/svg" viewBox="0 0 700 700"><defs><style>.cls-1{fill:#feae63;}.cls-2{fill:#99abcc;}.cls-3{fill:#c4e7f9;}.cls-4{fill:#120c0c;}.cls-5{fill:none;stroke:#000;stroke-linecap:round;stroke-linejoin:round;stroke-width:2.3px;}</style></defs><title>Yoga_poses_2020_color</title><path class="cls-1" d="M546.39,400.42l.7-.27c3.42,1.63,6.68,1.79,6.85,9.12s-10.92,4.56-15.64,6.19-5.7,1.14-10.92,1.09a97.48,97.48,0,0,0-12.09.72h0c-5.78-3.31-3.21-15.17-3.21-15.17,6.35.49,13.2-2,13.2-2a4.42,4.42,0,0,0,4-4.34,2,2,0,1,0,1.58-3.21v-.17l-2.46.17h-.12a1.91,1.91,0,1,1,.1-3.82l3.57.21H532a1.32,1.32,0,0,0,.24-2.63l-2.84-.5h0a2.65,2.65,0,0,1-1.49.84l-3,.55a2.92,2.92,0,0,1-.5.05,2.7,2.7,0,0,1-1.17-5.14l2.87-1.38a5.66,5.66,0,0,1,2.41-.55,5.53,5.53,0,0,1,2.39.54,5.26,5.26,0,0,0,1.44.46,37.65,37.65,0,0,1,8,1.66c4.57,1.47,3.1,6.19,3.91,10.75A39.4,39.4,0,0,0,546.39,400.42ZM534.9,398a1.77,1.77,0,1,0-1.77,1.77A1.77,1.77,0,0,0,534.9,398Z"/><circle class="cls-1" cx="533.13" cy="397.99" r="1.77"/><path class="cls-1" d="M529.26,395.81a2,2,0,1,1,1.58.77A2,2,0,0,1,529.26,395.81Z"/><path class="cls-2" d="M512.07,402.1s-2.57,11.86,3.21,15.17c-3.37.39-7,1-10.7,1.77-9,2-36,3.63-43.37,3.63-10.34,0-25.54-5.58-38.24-6.07S405,419,405,419a113.57,113.57,0,0,0-7.21-12.49,31.62,31.62,0,0,0,10.58.53,3,3,0,0,0,1.24,2.45l3.53,2.59a2.86,2.86,0,0,0,4.2-.91,2.91,2.91,0,0,0,.36-1.39,2.87,2.87,0,0,0-1.19-2.33v-3.25a4.73,4.73,0,0,0-2.45-4.16l-5-2.75-8.47-5.87L397.79,390c.55,0,19.81-.11,31.69,1.33,12.06,1.47,17.43,6.68,24.27,6.64s21.18-.61,29,.75S505.72,401.62,512.07,402.1Z"/><path class="cls-2" d="M376.29,372.63c-.91,2.28-1.6,4-1.6,4a23.24,23.24,0,0,1-1.22-2.72,76.11,76.11,0,0,0-8.21-15.82A35.49,35.49,0,0,0,360,351.9a30.72,30.72,0,0,0-8.69-7l.14-.28,10.39-.56a4.44,4.44,0,0,1,.72-1.88c7.6-8.2,17.52-24,17.52-24,18-27.15,25.92-31.71,31.35-33.45s10,4.13,13,6.08a9.64,9.64,0,0,1,3.9,4.34,71.67,71.67,0,0,1,0,12.6c-.65,5.87-2.39,5.87-6.3,15.42s-18,33.45-24.54,44.53a83.94,83.94,0,0,0-5.08,10A29.05,29.05,0,0,0,376.29,372.63Z"/><path class="cls-1" d="M387.62,423.47l-.92-.72a27.72,27.72,0,0,1-4.4-4.19c-3-3.86-8.26-10.16-11.08-11s-7.82-.94-9.34-3.62a0,0,0,0,0,0,0c-.09-.37-1.24-4.8,0-8.64,1.3-4,4.13-18.56,1.74-25.29s-8.22-12.38-8.22-12.38,2.33-4.29,9.86.47a76.11,76.11,0,0,1,8.21,15.82,23.24,23.24,0,0,0,1.22,2.72c2.22,4.29,6.58,10.3,14.34,18.66a89.18,89.18,0,0,1,8.75,11.3A113.57,113.57,0,0,1,405,419c1.14,21.83-1.71,58-1.33,60.1s7.75,4.78,7.75,4.78c3.59,1.69,9,2.74,12.14,3.42a1.13,1.13,0,0,1,.89,1.11,1,1,0,0,1-.08.42,1.13,1.13,0,0,1-1.15.72l-9.86-.85h0l1.86,2.48a1.17,1.17,0,0,1,.34.83,1.19,1.19,0,0,1-1.19,1.2,2.9,2.9,0,0,1-2.13-.92l-6-7.33,3.07,6.56a1.16,1.16,0,0,1-1,1.69,3.12,3.12,0,0,1-2.45-1.2l-4.15-5.37.7,5a1.21,1.21,0,0,1,0,.19v.08a1.38,1.38,0,0,1-1.38,1.31,2.66,2.66,0,0,1-2.33-1.38l-2-3.63c-.51-.92-2-.9-5.38-.89l-6.51.18-.08,0-1.24,2.16a1.8,1.8,0,0,1-3.36-.89,1.75,1.75,0,0,1,.21-.85l.57-1.09a1.48,1.48,0,0,0,.17-.5l.16-1.16a1.55,1.55,0,0,1,1.22-1.3l3.54-1.31a17.53,17.53,0,0,0,3.14-.85,5.74,5.74,0,0,0,2.73-4.36,86.76,86.76,0,0,0,.53-16.37s-2.21-14.77-2.65-18.89-2.17-18.46-2.17-18.46Z"/><path class="cls-1" d="M408.36,407.08a31.62,31.62,0,0,1-10.58-.53,89.18,89.18,0,0,0-8.75-11.3c-7.76-8.36-12.12-14.37-14.34-18.66,0,0,.69-1.68,1.6-4a29.05,29.05,0,0,1,16.13,5.2c-.71,1.69-1.24,3.14-1.63,4.32A4.46,4.46,0,0,0,393,387.5l4.81,2.52h0l2.75,1.44,8.47,5.87,4,4.33a3.44,3.44,0,0,1,.81,1.53l.08.36a6.76,6.76,0,0,0,2.64,3.94,2.87,2.87,0,0,1,1.19,2.33,2.91,2.91,0,0,1-.36,1.39,2.86,2.86,0,0,1-4.2.91l-3.53-2.59A3,3,0,0,1,408.36,407.08Z"/><path class="cls-1" d="M416.5,404.24v3.25a6.76,6.76,0,0,1-2.64-3.94l-.08-.36a3.44,3.44,0,0,0-.81-1.53l-4-4.33,5,2.75A4.73,4.73,0,0,1,416.5,404.24Z"/><path class="cls-2" d="M338.42,410.21a16.19,16.19,0,0,0,5.11-2.74h0c11.85.81,18.34-3.57,18.34-3.57,1.52,2.68,6.52,2.75,9.34,3.62s8,7.17,11.08,11a27.72,27.72,0,0,0,4.4,4.19c-22.43,7.82-42.41,6.07-54.47.86s-10.72-16-10.72-16l0,0a16.89,16.89,0,0,0,10.58,3.63A18.68,18.68,0,0,0,338.42,410.21Z"/><path class="cls-1" d="M361.87,403.89a0,0,0,0,1,0,0s-6.49,4.38-18.34,3.57h0a16,16,0,0,0,5.49-8.83c.65-2.47,2.37-7.57,2.91-11.58l.32.05c-.56,3.67,1,2.26,1,2.26,2.47-3.13,2.16-8.13,2.16-8.13-.35-2-.9-2.43-1.43-2.26l-1.26-.62s6.71-16.58-6.12-25.06c5.48-.2,8.83,4.28,8.83,4.28s5.83,5.65,8.22,12.38-.44,21.28-1.74,25.29C360.63,399.09,361.78,403.52,361.87,403.89Z"/><path class="cls-3" d="M360,351.9a35.49,35.49,0,0,1,5.29,6.15c-7.53-4.76-9.86-.47-9.86-.47s-3.35-4.48-8.83-4.28h0a23.25,23.25,0,0,0-4.2-2.18l-.16,0a8.64,8.64,0,0,0,.12-1.51,10.52,10.52,0,0,0-2.05-6.26l5.24.19a12.57,12.57,0,0,1,5.77,1.43A30.72,30.72,0,0,1,360,351.9Z"/><path class="cls-1" d="M352.22,383.29l.18-3.05.33,0A2.92,2.92,0,0,1,354,379c.53-.17,1.08.28,1.43,2.26,0,0,.31,5-2.16,8.13,0,0-1.53,1.41-1-2.26l-.32-.05c0-.32.08-.64.11-.94Z"/><path class="cls-4" d="M352.4,380.24l-.18,3.05a8,8,0,0,0-4.23-7c-3.87-2.4-9.83.38-15.76.46-4.3.06-7.13-3-13.48-.46s-6.5,9.58-6.5,9.58l-.66-5.87s0-.08-.07-.23c-.63-2-4.86-17,3.54-24.44A23.52,23.52,0,0,1,318.6,353l.06,0a12.19,12.19,0,0,1,2.85-1.08c1.26,3.43,5.65,3.17,10.58,3.17,5.29,0,9.38.29,10.11-4l.16,0a23.25,23.25,0,0,1,4.2,2.18h0c12.83,8.48,6.12,25.06,6.12,25.06L354,379a2.92,2.92,0,0,0-1.22,1.28Z"/><path class="cls-1" d="M352.22,383.29l-.18,2.83c0,.3-.07.62-.11.94-.54,4-2.26,9.11-2.91,11.58a15.73,15.73,0,0,1-10.6,11.57,18.68,18.68,0,0,1-6.29,1,16.89,16.89,0,0,1-10.58-3.63,20.74,20.74,0,0,1-5.9-8.6c-.83-3.05-2.72-8.78-3.26-11.92-.07-.45-.12-.85-.14-1.18,0,0,.16-7.1,6.5-9.58s9.18.52,13.48.46c5.93-.08,11.89-2.86,15.76-.46A8,8,0,0,1,352.22,383.29Z"/><path class="cls-4" d="M340.27,343.32a10.52,10.52,0,0,1,2.05,6.26,8.64,8.64,0,0,1-.12,1.51c-.73,4.27-4.82,4-10.11,4-4.93,0-9.32.26-10.58-3.17a6.77,6.77,0,0,1-.36-2.32,10.59,10.59,0,0,1,19.12-6.26Z"/><path class="cls-1" d="M315.65,398.94a20.74,20.74,0,0,0,5.9,8.6l0,0A18.72,18.72,0,0,1,308.79,406s-9.76-13.94-12.28-23.45c-3.29-12.38-.38-20.09-.25-20.41h0a26.93,26.93,0,0,1,13.83-6.33c2.67-.38,7.87-2.54,8.51-2.8a23.52,23.52,0,0,0-3.54,2.29c-8.4,7.48-4.17,22.42-3.54,24.44l-.43.05c-.74-.93-1.86-1.68-2.3,1.54,0,0-.1,5,2.51,8,0,0,1.59,1.34.87-2.3l.22,0C312.93,390.16,314.82,395.89,315.65,398.94Z"/><path class="cls-1" d="M312.39,387l-.22,0c.72,3.64-.87,2.3-.87,2.3-2.61-3-2.51-8-2.51-8,.44-3.22,1.56-2.47,2.3-1.54l.43-.05c0,.15.07.23.07.23l.66,5.87C312.27,386.17,312.32,386.57,312.39,387Z"/><path class="cls-1" d="M269.35,422.15l.66.76c-1.09,10.61-4.13,26.32-5.87,30.89s-2.48,23.45-2.48,23.45c0,2.32.14,4.52,1.6,5.38a17.53,17.53,0,0,0,3.14.85l3.54,1.31a1.53,1.53,0,0,1,1.21,1.29l.17,1.17a1.48,1.48,0,0,0,.17.5l.57,1.09a1.74,1.74,0,0,1,.21.84,1.8,1.8,0,0,1-3.36.9l-1.24-2.16-.08.05-6.51-.18c-3.34,0-4.87,0-5.38.89l-2,3.62a2.65,2.65,0,0,1-2.33,1.39,1.38,1.38,0,0,1-1.38-1.31v-.08a1.21,1.21,0,0,1,0-.19l.7-5L246.57,493a3.12,3.12,0,0,1-2.45,1.2,1.16,1.16,0,0,1-1-1.69l3.07-6.56-6,7.33a2.9,2.9,0,0,1-2.13.92,1.19,1.19,0,0,1-1.19-1.2,1.17,1.17,0,0,1,.34-.83l1.86-2.48h0l-9.86.85a1.13,1.13,0,0,1-1.15-.72,1,1,0,0,1-.08-.42,1.13,1.13,0,0,1,.89-1.11c3.11-.69,8.55-1.73,12.14-3.42,0,0,1.88-.66,3.72-1.38a5.4,5.4,0,0,0,3.43-5v-2.28c.87-5.65.44-3.48,1.52-23.24s1.52-27.59,2.39-29.54a39.21,39.21,0,0,0,1.45-4.46,17.29,17.29,0,0,1,2.42-5.16l.5-.76c6.76-11,8.92-13.54,11.92-15.9s4.13-8.69,7.6-11.27a92.43,92.43,0,0,0,7.29-6.48,24.32,24.32,0,0,0,4-5c1.67-2.79,3.14-5.07,4.43-6.94a27.1,27.1,0,0,1,4.67-5.23c-.13.32-3,8,.25,20.41C299,392.07,308.79,406,308.79,406s-12.07-1.3-18.15,0-11.08,8.91-15.64,11.81A49.21,49.21,0,0,0,269.35,422.15Z"/><path class="cls-5" d="M346.57,353.3c12.83,8.48,6.12,25.06,6.12,25.06"/><path class="cls-5" d="M342.36,351.12a23.25,23.25,0,0,1,4.2,2.18"/><path class="cls-5" d="M318.66,353a12.19,12.19,0,0,1,2.85-1.08"/><path class="cls-5" d="M311.59,380s0-.08-.07-.23c-.63-2-4.86-17,3.54-24.44A23.52,23.52,0,0,1,318.6,353"/><path class="cls-5" d="M352.73,380.26A2.92,2.92,0,0,1,354,379c.53-.17,1.08.28,1.43,2.26,0,0,.31,5-2.16,8.13,0,0-1.53,1.41-1-2.26"/><path class="cls-5" d="M311.09,379.79c-.74-.93-1.86-1.68-2.3,1.54,0,0-.1,5,2.51,8,0,0,1.59,1.34.87-2.3"/><path class="cls-5" d="M311.59,380l.66,5.87c0,.33.07.73.14,1.18.54,3.14,2.43,8.87,3.26,11.92a20.74,20.74,0,0,0,5.9,8.6,16.89,16.89,0,0,0,10.58,3.63,18.68,18.68,0,0,0,6.29-1A15.73,15.73,0,0,0,349,398.64c.65-2.47,2.37-7.57,2.91-11.58,0-.32.08-.64.11-.94l.18-2.83.18-3.05.06-.91"/><path class="cls-5" d="M335.23,403.91a4.29,4.29,0,0,1-4.44,0"/><path class="cls-5" d="M312.25,385.84s.16-7.1,6.5-9.58,9.18.52,13.48.46c5.93-.08,11.89-2.86,15.76-.46a8,8,0,0,1,4.23,7c0,.25,0,.49,0,.72"/><path class="cls-5" d="M340.27,343.32a10.52,10.52,0,0,1,2.05,6.26,8.64,8.64,0,0,1-.12,1.51c-.73,4.27-4.82,4-10.11,4-4.93,0-9.32.26-10.58-3.17a6.77,6.77,0,0,1-.36-2.32,10.59,10.59,0,0,1,19.12-6.26Z"/><path class="cls-5" d="M338.42,393.7s3.67,1.09,6-.24"/><path class="cls-5" d="M320.12,393.56s3.65,1.16,6-.13"/><path class="cls-5" d="M384.74,487.53l6.51-.18c3.34,0,4.87,0,5.38.89l2,3.63a2.66,2.66,0,0,0,2.33,1.38,1.38,1.38,0,0,0,1.38-1.31v-.08a1.21,1.21,0,0,0,0-.19l-.7-5,4.15,5.37a3.12,3.12,0,0,0,2.45,1.2,1.16,1.16,0,0,0,1-1.69L406.18,485l6,7.33a2.9,2.9,0,0,0,2.13.92,1.19,1.19,0,0,0,1.19-1.2,1.17,1.17,0,0,0-.34-.83l-1.86-2.48-2.52-3.36"/><path class="cls-5" d="M385.38,486.22l-.72,1.26-1.24,2.16a1.8,1.8,0,0,1-3.36-.89,1.75,1.75,0,0,1,.21-.85l.57-1.09a1.48,1.48,0,0,0,.17-.5l.16-1.16a1.55,1.55,0,0,1,1.22-1.3l3.54-1.31a17.53,17.53,0,0,0,3.14-.85,5.74,5.74,0,0,0,2.73-4.36,86.76,86.76,0,0,0,.53-16.37s-2.21-14.77-2.65-18.89-2.17-18.46-2.17-18.46"/><line class="cls-5" x1="401.61" y1="486.68" x2="401.22" y2="485.24"/><path class="cls-5" d="M361.87,403.89c-1.52-2.68-4.46-6.56-7.43-6.56"/><path class="cls-5" d="M392.49,426.86s-2.31-1.44-4.87-3.39l-.92-.72a27.72,27.72,0,0,1-4.4-4.19c-3-3.86-8.26-10.16-11.08-11s-7.82-.94-9.34-3.62"/><path class="cls-5" d="M296.26,362.14a26.93,26.93,0,0,1,13.83-6.33c2.67-.38,7.87-2.54,8.51-2.8l.06,0"/><path class="cls-5" d="M239,489.68l-9.86.85a1.13,1.13,0,0,1-1.15-.72,1,1,0,0,1-.08-.42,1.13,1.13,0,0,1,.89-1.11c3.11-.69,8.55-1.73,12.14-3.42,0,0,1.88-.66,3.72-1.38a5.4,5.4,0,0,0,3.43-5v-2.28c.87-5.65.44-3.48,1.52-23.24s1.52-27.59,2.39-29.54a39.21,39.21,0,0,0,1.45-4.46,17.29,17.29,0,0,1,2.42-5.16l.5-.76c6.76-11,8.92-13.54,11.92-15.9s4.13-8.69,7.6-11.27a92.43,92.43,0,0,0,7.29-6.48,24.32,24.32,0,0,0,4-5c1.67-2.79,3.14-5.07,4.43-6.94a27.1,27.1,0,0,1,4.67-5.23"/><path class="cls-5" d="M267.59,488.47l-6.51-.18c-3.34,0-4.87,0-5.38.89l-2,3.62a2.65,2.65,0,0,1-2.33,1.39,1.38,1.38,0,0,1-1.38-1.31v-.08a1.21,1.21,0,0,1,0-.19l.7-5L246.57,493a3.12,3.12,0,0,1-2.45,1.2,1.16,1.16,0,0,1-1-1.69l3.07-6.56-6,7.33a2.9,2.9,0,0,1-2.13.92,1.19,1.19,0,0,1-1.19-1.2,1.17,1.17,0,0,1,.34-.83l1.86-2.48,2.52-3.36"/><path class="cls-5" d="M267,487.16l.72,1.26,1.24,2.16a1.8,1.8,0,0,0,3.36-.9,1.74,1.74,0,0,0-.21-.84l-.57-1.09a1.48,1.48,0,0,1-.17-.5l-.17-1.17a1.53,1.53,0,0,0-1.21-1.29l-3.54-1.31a17.53,17.53,0,0,1-3.14-.85c-1.46-.86-1.6-3.06-1.6-5.38,0,0,.75-18.89,2.48-23.45s4.78-20.28,5.87-30.89"/><line class="cls-5" x1="250.72" y1="487.62" x2="251.11" y2="486.18"/><path class="cls-5" d="M343.54,407.48c11.85.81,18.34-3.57,18.34-3.57a0,0,0,0,0,0,0c-.09-.37-1.24-4.8,0-8.64,1.3-4,4.13-18.56,1.74-25.29s-8.22-12.38-8.22-12.38-3.35-4.48-8.83-4.28h0"/><path class="cls-5" d="M355.4,357.58s2.33-4.29,9.86.47h0"/><path class="cls-5" d="M374.69,376.59s.69-1.68,1.6-4c1.27-3.2,3-7.61,3.76-10.27,1.38-4.56,3.55-21.72,13.32-38.66,0,0,5.87-10.86,11.52-15.86"/><path class="cls-5" d="M397.78,390,393,387.5a4.46,4.46,0,0,1-2.18-5.35c.39-1.18.92-2.63,1.63-4.32a83.94,83.94,0,0,1,5.08-10c6.52-11.08,20.63-35,24.54-44.53s5.65-9.55,6.3-15.42a71.67,71.67,0,0,0,0-12.6,9.64,9.64,0,0,0-3.9-4.34c-3.05-1.95-7.61-7.82-13-6.08s-13.39,6.3-31.35,33.45c0,0-9.92,15.75-17.52,24a4.44,4.44,0,0,0-.72,1.88,14.4,14.4,0,0,0,.72,7"/><path class="cls-5" d="M406.41,403.91l1,1a3,3,0,0,1,.93,2.18,3,3,0,0,0,1.24,2.45l3.53,2.59a2.86,2.86,0,0,0,4.2-.91,2.91,2.91,0,0,0,.36-1.39,2.87,2.87,0,0,0-1.19-2.33,6.76,6.76,0,0,1-2.64-3.94l-.08-.36a3.44,3.44,0,0,0-.81-1.53l-4-4.33-8.47-5.87L397.79,390"/><line class="cls-5" x1="361.81" y1="344.1" x2="351.42" y2="344.66"/><path class="cls-5" d="M413.35,488.74l9.86.85a1.13,1.13,0,0,0,1.15-.72,1,1,0,0,0,.08-.42,1.13,1.13,0,0,0-.89-1.11c-3.11-.68-8.55-1.73-12.14-3.42,0,0-7.38-2.79-7.75-4.78s2.47-38.27,1.33-60.1a113.57,113.57,0,0,0-7.21-12.49,89.18,89.18,0,0,0-8.75-11.3c-7.76-8.36-12.12-14.37-14.34-18.66a23.24,23.24,0,0,1-1.22-2.72,76.11,76.11,0,0,0-8.21-15.82A35.49,35.49,0,0,0,360,351.9a30.72,30.72,0,0,0-8.69-7,12.57,12.57,0,0,0-5.77-1.43l-5.24-.19h0"/><path class="cls-5" d="M392.42,377.83a29.05,29.05,0,0,0-16.13-5.2"/><path class="cls-5" d="M409,397.33l5,2.75a4.73,4.73,0,0,1,2.45,4.16v3.25"/><path class="cls-5" d="M397.78,406.55a31.62,31.62,0,0,0,10.58.53"/><path class="cls-5" d="M515.29,417.27a97.48,97.48,0,0,1,12.09-.72c5.22.05,6.19.54,10.92-1.09s15.8,1.14,15.64-6.19-3.43-7.49-6.85-9.12"/><path class="cls-5" d="M405,419s5.27-2.93,18-2.44,27.9,6.09,38.24,6.07c7.34,0,34.41-1.67,43.37-3.63,3.69-.8,7.33-1.38,10.7-1.77"/><path class="cls-5" d="M548.07,404.38s-.8-1.69-1.68-4a39.4,39.4,0,0,1-2.07-6.79c-.81-4.56.66-9.28-3.91-10.75a37.65,37.65,0,0,0-8-1.66,5.26,5.26,0,0,1-1.44-.46,5.53,5.53,0,0,0-2.39-.54,5.66,5.66,0,0,0-2.41.55l-2.87,1.38a2.7,2.7,0,0,0,1.17,5.14,2.92,2.92,0,0,0,.5-.05l3-.55a2.65,2.65,0,0,0,1.49-.84,2.56,2.56,0,0,0,.72-1.68l0-1"/><path class="cls-5" d="M529.39,385.86l2.84.5A1.32,1.32,0,0,1,532,389h-.07l-3.57-.21a1.91,1.91,0,1,0-.1,3.82h.12l2.46-.17,1.77-.13"/><path class="cls-5" d="M530.84,392.6a2,2,0,1,1-2,2A2,2,0,0,1,530.84,392.6Z"/><circle class="cls-5" cx="533.13" cy="397.99" r="1.77"/><path class="cls-5" d="M539.06,403.54h-1.31a2.85,2.85,0,0,1-2.31-1.19l-.62-.87a1.73,1.73,0,0,1,.42-2.42l.06,0a1.48,1.48,0,0,1,2.24.6v0l.3.8,1.22.33"/><path class="cls-5" d="M529.26,395.79v0a4.42,4.42,0,0,1-4,4.34s-6.85,2.44-13.2,2-21.5-2-29.32-3.36-22.15-.78-29-.75-12.21-5.17-24.27-6.64c-11.88-1.44-31.14-1.33-31.69-1.33h0"/><path class="cls-5" d="M512.07,402.1s-2.57,11.86,3.21,15.17h0"/><path class="cls-5" d="M265.66,425.56s1.53-1.55,3.69-3.41a49.21,49.21,0,0,1,5.65-4.33c4.56-2.9,9.56-10.5,15.64-11.81s18.15,0,18.15,0a18.72,18.72,0,0,0,12.72,1.57s-1.33,10.81,10.72,16,32,7,54.47-.86"/><path class="cls-5" d="M296.26,362.14h0c-.13.32-3,8,.25,20.41C299,392.07,308.79,406,308.79,406"/><path class="cls-5" d="M338.42,410.21s-4.32,2.73-5.41,6.54"/></svg>