<svg id="Layer_1" data-name="Layer 1" xmlns="http://www.w3.org/2000/svg" viewBox="0 0 700 700"><defs><style>.cls-1{fill:#feae63;}.cls-2{fill:#99abcc;}.cls-3{fill:#c4e7f9;}.cls-4{fill:#170607;}.cls-5{fill:none;stroke:#000;stroke-linecap:round;stroke-linejoin:round;stroke-width:2.3px;}</style></defs><title>Yoga_poses_2020_color</title><path class="cls-1" d="M556,383.43l.41.15a2.54,2.54,0,0,1,1.57,1.71l1,3.64c1.83,2.49,3.37,7.64,3,12.4a207.72,207.72,0,0,0,.44,23.81c.43,4.34,2.17,12.61-4.56,13.26s-12.6-5-18.47-7.82a81.52,81.52,0,0,0-8.76-3.45c-4.86-12.13,3.12-14.95,3.12-14.95a8.94,8.94,0,0,0,5.67,0c3-1,2.58-10.85,2.58-10.85l-1.13-7.59a11.56,11.56,0,0,1-.09-2.35l.22-3.26a8.29,8.29,0,0,0-.54-3.52c-.63-1.63-1.45-3.17-.85-4.86.53-1.47,3.69-2.17,5,0a9.91,9.91,0,0,1,.81,1.72,3.47,3.47,0,0,0,.2.62c-.06-.2-.13-.41-.2-.62a1.91,1.91,0,0,1,1-2.36A1.8,1.8,0,0,1,547,379a1.89,1.89,0,0,1,1.81,1.36l.52,1.76a1.79,1.79,0,0,1,3.42-1l.67,2.53a1.19,1.19,0,0,1,1.21-1.6h.05a1.22,1.22,0,0,1,1.2,1Z"/><path class="cls-2" d="M454.6,365.29h0a8.74,8.74,0,0,1,6.25,1.64c2,1.48,4.81,3.51,8.17,5.74,4.84,3.21,10.23,4.34,16.42,7a51.54,51.54,0,0,1,7.69,4c1.14.73,2.51,1.66,4.07,2.76,11.52,8.09,32.72,24.68,36.55,25.76,0,0-8,2.82-3.12,14.95-5.47-1.87-12.56-4-21.64-6.76-15-4.56-25-11.08-32.8-16.51-6.6-4.58-7.94-6.22-12.37-7.28-.82-.19-1.75-.37-2.83-.54-6.95-1.09-22.59-8.47-22.59-8.47h-9.34A17.06,17.06,0,0,1,423,380a88.78,88.78,0,0,0-3.83-8.08c-1.74-3.36-3.67-6.92-5.29-10.16-.71-1.42-1.57-3.1-2.48-4.84,0,0,3.79-5.78,9.57-6.24a9.08,9.08,0,0,1,2.9.22C431.24,352.61,449.38,364,454.6,365.29Z"/><path class="cls-1" d="M518.06,377.49l2.72-.58a.93.93,0,0,1,1.1.62.9.9,0,0,1,0,.28.93.93,0,0,1-.6.87l-8.59,2L525,379.2a1.33,1.33,0,0,1,1.48.87,1.23,1.23,0,0,1,.07.42,1.31,1.31,0,0,1-1,1.28L513.67,384h6.08l4.85-.64h.14A1.32,1.32,0,0,1,525,386a9.24,9.24,0,0,0-2.67.9,5.42,5.42,0,0,1-2.06.7l-6.38.64h-3.31a15,15,0,0,1-4.55-.72l-1.92-.62a13,13,0,0,0-4.79-.61l-2.1.14c-1.56-1.1-2.93-2-4.07-2.76a51.54,51.54,0,0,0-7.69-4l7.41-1.57a7.9,7.9,0,0,1,1.27-.17l6.13-.33,7.82-.87,8.05-.88a1.71,1.71,0,0,1,1.86,1.34Z"/><path class="cls-1" d="M463.83,396.58v.77c-2.82,2.17-11.08,5.64-18.24,7.72s-6.08,7.7-17.81,9.41-18.46-4.35-18.46-4.35S413,406.68,413,396s-.22-10.86,0-18.46a6.85,6.85,0,0,1,1.52-4.68c1.83-1.91,4.64-1,4.64-1A88.78,88.78,0,0,1,423,380a17.06,17.06,0,0,0,6.08,7.6h9.34S454.05,395,461,396C462.08,396.21,463,396.39,463.83,396.58Z"/><path class="cls-3" d="M413.87,361.73c1.62,3.24,3.55,6.8,5.29,10.16,0,0-2.81-.9-4.64,1l-.29-.23a80.94,80.94,0,0,0-24.82-5.75L389,367a10.59,10.59,0,0,0-20.19-.49c-13,.65-25.81,5.76-25.81,5.76l-.45.05a4.86,4.86,0,0,0-4.47-.84c1.74-3.37,3.67-6.92,5.29-10.16.71-1.43,1.57-3.11,2.48-4.84,1.22-2.34,2.51-4.79,3.62-6.87a15.5,15.5,0,0,1,10.71-8c10.16-2,26.51-2.19,36.61-.22a15.54,15.54,0,0,1,10.7,8c1.17,2.2,2.6,4.9,3.94,7.46C412.3,358.63,413.16,360.31,413.87,361.73Z"/><path class="cls-1" d="M414.23,372.67l.29.23a6.85,6.85,0,0,0-1.52,4.68c-.22,7.6,0,7.82,0,18.46s-3.69,14.09-3.69,14.09H399.7V410a1,1,0,0,0,.57-.27c2.47-3.12,2.16-8.12,2.16-8.12-.35-2-.9-2.43-1.43-2.26l-1.26-.62s8-19.88-10.33-27.25l-.16,0a8.52,8.52,0,0,0,.12-1.5A10.67,10.67,0,0,0,389,367l.45-.12A80.94,80.94,0,0,1,414.23,372.67Z"/><path class="cls-2" d="M421,350.65c-5.78.46-9.57,6.24-9.57,6.24-1.34-2.56-2.77-5.26-3.94-7.46a15.54,15.54,0,0,0-10.7-8c-10.1-2-26.45-1.75-36.61.22a15.5,15.5,0,0,0-10.71,8c-1.11,2.08-2.4,4.53-3.62,6.87,0,0-3.79-5.77-9.57-6.24,4.78-9.34,17.73-15.2,23.17-16.72a36.86,36.86,0,0,1,11.79-1.35s9.68,1.47,14.7.67a32.49,32.49,0,0,1,11.89,1.05C403.22,335.45,416.18,341.31,421,350.65Z"/><path class="cls-1" d="M399.26,403.86v-.06l.19-3.16.33,0a2.89,2.89,0,0,1,1.22-1.27c.53-.17,1.08.28,1.43,2.26,0,0,.31,5-2.16,8.12a1,1,0,0,1-.57.27c-.37,0-.72-.45-.4-2.52l-.32,0c0-.33.08-.64.11-1Z"/><path class="cls-4" d="M399.45,400.64l-.19,3.16a8,8,0,0,0-4.22-7.14c-3.87-2.39-9.83.39-15.76.47-4.3.06-7.13-3-13.48-.47s-6.5,9.58-6.5,9.58l-.66-5.87s0-.08-.07-.23c-.63-2-4.86-16.95,3.54-24.44,0,0,3.38-2.72,6.45-3.39,1.26,3.43,5.65,3.17,10.58,3.17,5.29,0,9.39.29,10.11-4l.16,0c18.36,7.37,10.33,27.25,10.33,27.25l1.26.62a2.89,2.89,0,0,0-1.22,1.27Z"/><path class="cls-1" d="M399.26,403.8v.06l-.17,2.67c0,.31-.06.62-.11,1-.54,4-2.26,9.1-2.91,11.57-3.46,13.33-16.89,12.53-16.89,12.53-9.61-.3-14-6.06-16.48-12.23-.83-3.06-2.72-8.77-3.26-11.92a8.58,8.58,0,0,1-.14-1.19s.16-7.09,6.5-9.58,9.18.53,13.48.47c5.93-.08,11.89-2.86,15.76-.47A8,8,0,0,1,399.26,403.8Zm-10.94,12.61a2.33,2.33,0,1,0-2-2.29A2.16,2.16,0,0,0,388.32,416.41Zm-18.12-.25a2.32,2.32,0,1,0-2-2.28A2.15,2.15,0,0,0,370.2,416.16Z"/><path d="M390.28,414.1a2,2,0,1,1-2-2.29A2.16,2.16,0,0,1,390.28,414.1Z"/><path class="cls-4" d="M389.37,370a8.52,8.52,0,0,1-.12,1.5c-.72,4.28-4.82,4-10.11,4-4.93,0-9.32.26-10.58-3.17a6.77,6.77,0,0,1-.36-2.32,10.59,10.59,0,1,1,21.17,0Z"/><path d="M372.16,413.85a2,2,0,1,1-2-2.28A2.15,2.15,0,0,1,372.16,413.85Z"/><path class="cls-1" d="M368.77,366.55a10.61,10.61,0,0,0-.57,3.44,6.77,6.77,0,0,0,.36,2.32c-3.07.67-6.45,3.39-6.45,3.39-8.4,7.49-4.17,22.42-3.54,24.44l-.43.05c-.74-.93-1.86-1.68-2.3,1.55,0,0-.1,5,2.51,8H347.89s-3.69-3.45-3.69-14.09.21-10.85,0-18.46c-.07-2.53-.78-4-1.69-4.85l.45-.05S355.74,367.2,368.77,366.55Z"/><path class="cls-1" d="M359.44,407.43l-.22,0c.72,3.63-.87,2.29-.87,2.29-2.61-3-2.51-8-2.51-8,.44-3.23,1.56-2.48,2.3-1.55l.43-.05c0,.15.07.23.07.23l.66,5.87A8.58,8.58,0,0,0,359.44,407.43Z"/><path class="cls-1" d="M344.2,395.67c0,10.64,3.69,14.09,3.69,14.09s-6.73,6.06-18.46,4.35-10.64-7.34-17.81-9.41c-6.95-2-14.91-5.33-18-7.51l-.24-1c.81-.19,1.72-.36,2.79-.53,6.95-1.08,22.59-8.46,22.59-8.46h9.33a17.18,17.18,0,0,0,6.09-7.61c.92-2.33,2.3-5.13,3.82-8.08h0a4.86,4.86,0,0,1,4.47.84c.91.85,1.62,2.32,1.69,4.85C344.41,384.82,344.2,385,344.2,395.67Z"/><path class="cls-2" d="M302.6,364.92c5.22-1.32,23.35-12.68,30.74-14.42a9.08,9.08,0,0,1,2.9-.22c5.78.47,9.57,6.24,9.57,6.24-.91,1.73-1.77,3.41-2.48,4.84-1.62,3.24-3.55,6.79-5.29,10.16h0c-1.52,3-2.9,5.75-3.82,8.08a17.18,17.18,0,0,1-6.09,7.61h-9.33s-15.64,7.38-22.59,8.46c-1.07.17-2,.34-2.79.53-4.47,1.06-5.8,2.7-12.42,7.3-7.82,5.43-17.81,11.94-32.79,16.5-9.08,2.76-16.16,4.89-21.64,6.76,4.86-12.13-3.12-14.95-3.12-14.95,3.82-1.08,25-17.67,36.54-25.76,1.56-1.09,2.93-2,4.07-2.75a51.17,51.17,0,0,1,7.7-4c6.19-2.64,11.58-3.76,16.41-7,3.37-2.24,6.19-4.27,8.17-5.74a8.67,8.67,0,0,1,6.26-1.65Z"/><path class="cls-1" d="M239.14,377.12l.07-.33a1.7,1.7,0,0,1,1.86-1.34l8,.89,7.83.86,6.12.33a7.87,7.87,0,0,1,1.28.17l7.41,1.58a51.17,51.17,0,0,0-7.7,4c-1.14.72-2.51,1.66-4.07,2.75l-2.1-.13a12.77,12.77,0,0,0-4.79.6l-1.91.62a15,15,0,0,1-4.56.72h-3.31l-6.37-.64a5.4,5.4,0,0,1-2.06-.69,9,9,0,0,0-2.68-.91,1.32,1.32,0,0,1,.25-2.61h.14l4.86.64h6.08l-11.9-2.26a1.31,1.31,0,0,1-1-1.28,1.23,1.23,0,0,1,.07-.42,1.32,1.32,0,0,1,1.47-.87l12.32,1.49-8.59-2a.92.92,0,0,1-.61-.87.86.86,0,0,1,0-.28,1,1,0,0,1,1.11-.62Z"/><path class="cls-1" d="M211.69,381.35a10.62,10.62,0,0,1,.89-2c1.3-2.18,4.47-1.48,5,0,.6,1.68-.21,3.22-.84,4.85a8.16,8.16,0,0,0-.55,3.52l.23,3.26a10.86,10.86,0,0,1-.1,2.35L215.18,401s-.43,9.82,2.58,10.85a9,9,0,0,0,5.68,0s8,2.82,3.12,14.95a84,84,0,0,0-8.77,3.45c-5.86,2.82-11.73,8.47-18.46,7.82s-5-8.92-4.56-13.26A207.81,207.81,0,0,0,195.2,401c-.32-4.75,1.21-9.91,3-12.4l1-3.63a2.51,2.51,0,0,1,1.57-1.72l.4-.15.12-.42a1.22,1.22,0,0,1,1.19-1h0a1.2,1.2,0,0,1,1.27,1.39l.61-2.32a1.79,1.79,0,0,1,3.44,1l.5-1.71a1.9,1.9,0,0,1,1.81-1.35,1.8,1.8,0,0,1,.64.11C211.93,379.15,212,380.41,211.69,381.35Z"/><path class="cls-5" d="M389.41,371.52c18.36,7.37,10.33,27.25,10.33,27.25"/><path class="cls-5" d="M358.64,400.37s0-.08-.07-.23c-.63-2-4.86-16.95,3.54-24.44,0,0,3.38-2.72,6.45-3.39"/><path class="cls-5" d="M399.78,400.66a2.89,2.89,0,0,1,1.22-1.27c.53-.17,1.08.28,1.43,2.26,0,0,.31,5-2.16,8.12a1,1,0,0,1-.57.27c-.37,0-.72-.45-.4-2.52"/><path class="cls-5" d="M358.14,400.19c-.74-.93-1.86-1.68-2.3,1.55,0,0-.1,5,2.51,8,0,0,1.59,1.34.87-2.29"/><polyline class="cls-5" points="399.26 403.8 399.45 400.64 399.51 399.73"/><path class="cls-5" d="M358.64,400.37l.66,5.87a8.58,8.58,0,0,0,.14,1.19c.54,3.15,2.43,8.86,3.26,11.92,2.47,6.17,6.87,11.93,16.48,12.23,0,0,13.43.8,16.89-12.53.65-2.47,2.37-7.57,2.91-11.57,0-.33.08-.64.11-1l.17-2.67"/><path class="cls-5" d="M380.87,424.9a4.32,4.32,0,0,1-4.44-.13"/><path class="cls-5" d="M359.3,406.24s.16-7.09,6.5-9.58,9.18.53,13.48.47c5.93-.08,11.89-2.86,15.76-.47a8,8,0,0,1,4.22,7.14v.06c0,.19,0,.37,0,.55"/><path class="cls-5" d="M389,367a10.67,10.67,0,0,1,.41,2.95,8.52,8.52,0,0,1-.12,1.5c-.72,4.28-4.82,4-10.11,4-4.93,0-9.32.26-10.58-3.17a6.77,6.77,0,0,1-.36-2.32A10.59,10.59,0,0,1,389,367Z"/><path class="cls-5" d="M293.37,397l.28.21c3.06,2.18,11,5.5,18,7.51,7.17,2.07,6.08,7.7,17.81,9.41s18.46-4.35,18.46-4.35h10.46"/><path class="cls-5" d="M203,386.05l.74-2.8c0-.06,0-.13.05-.2h0l.61-2.32a1.79,1.79,0,0,1,3.44,1"/><path class="cls-5" d="M199.87,387.86l1.31-4.8.12-.42a1.22,1.22,0,0,1,1.19-1h0a1.2,1.2,0,0,1,1.27,1.39"/><path class="cls-5" d="M338,371.52c1.74-3.37,3.67-6.92,5.29-10.16.71-1.43,1.57-3.11,2.48-4.84,1.22-2.34,2.51-4.79,3.62-6.87a15.5,15.5,0,0,1,10.71-8c10.16-2,26.51-2.19,36.61-.22a15.54,15.54,0,0,1,10.7,8c1.17,2.2,2.6,4.9,3.94,7.46.91,1.74,1.77,3.42,2.48,4.84,1.62,3.24,3.55,6.8,5.29,10.16A88.78,88.78,0,0,1,423,380a17.06,17.06,0,0,0,6.08,7.6h9.34S454.05,395,461,396c1.08.17,2,.35,2.83.54,4.43,1.06,5.77,2.7,12.37,7.28C484,409.29,494,415.81,509,420.37c9.08,2.76,16.17,4.89,21.64,6.76a81.52,81.52,0,0,1,8.76,3.45c5.87,2.82,11.73,8.47,18.47,7.82s5-8.92,4.56-13.26a207.72,207.72,0,0,1-.44-23.81c.33-4.76-1.21-9.91-3-12.4l-1-3.64a2.54,2.54,0,0,0-1.57-1.71l-.41-.15"/><path class="cls-5" d="M201.18,383.06l-.4.15a2.51,2.51,0,0,0-1.57,1.72l-1,3.63c-1.83,2.49-3.36,7.65-3,12.4a207.81,207.81,0,0,1-.43,23.81c-.44,4.34-2.17,12.61,4.56,13.26s12.6-5,18.46-7.82a84,84,0,0,1,8.77-3.45c5.48-1.87,12.56-4,21.64-6.76,15-4.56,25-11.07,32.79-16.5,6.62-4.6,7.95-6.24,12.42-7.3.81-.19,1.72-.36,2.79-.53,6.95-1.08,22.59-8.46,22.59-8.46h9.33a17.18,17.18,0,0,0,6.09-7.61c.92-2.33,2.3-5.13,3.82-8.08"/><path class="cls-5" d="M345.81,356.52s-3.79-5.77-9.57-6.24a9.08,9.08,0,0,0-2.9.22c-7.39,1.74-25.52,13.1-30.74,14.42"/><path class="cls-5" d="M347.89,409.76s-3.69-3.45-3.69-14.09.21-10.85,0-18.46c-.07-2.53-.78-4-1.69-4.85a4.86,4.86,0,0,0-4.47-.84h0"/><path class="cls-5" d="M343,372.31s12.78-5.11,25.81-5.76"/><path class="cls-5" d="M211.69,381.35a10.62,10.62,0,0,1,.89-2c1.3-2.18,4.47-1.48,5,0,.6,1.68-.21,3.22-.84,4.85a8.16,8.16,0,0,0-.55,3.52l.23,3.26a10.86,10.86,0,0,1-.1,2.35L215.18,401s-.43,9.82,2.58,10.85a9,9,0,0,0,5.68,0c3.82-1.08,25-17.67,36.54-25.76,1.56-1.09,2.93-2,4.07-2.75a51.17,51.17,0,0,1,7.7-4c6.19-2.64,11.58-3.76,16.41-7,3.37-2.24,6.19-4.27,8.17-5.74a8.67,8.67,0,0,1,6.26-1.65h0a7.39,7.39,0,0,1,.82.14l3.42.75"/><path class="cls-5" d="M210.94,387.39l.12-3.23a13.1,13.1,0,0,1,.56-2.61"/><path class="cls-5" d="M211.56,381.72a.85.85,0,0,0,.06-.17,1.18,1.18,0,0,0,.07-.2c.28-.94.24-2.2-.88-2.6a1.8,1.8,0,0,0-.64-.11,1.9,1.9,0,0,0-1.81,1.35l-.5,1.71-.17.58-.73,3.77"/><path class="cls-5" d="M223.44,411.81s8,2.82,3.12,14.95"/><path class="cls-5" d="M246.3,378.63l-7.16-1.51-2.72-.58a1,1,0,0,0-1.11.62.86.86,0,0,0,0,.28.92.92,0,0,0,.61.87l8.59,2-12.32-1.49a1.32,1.32,0,0,0-1.47.87,1.23,1.23,0,0,0-.07.42,1.31,1.31,0,0,0,1,1.28l11.9,2.26"/><path class="cls-5" d="M239.12,377.2l0-.08.07-.33a1.7,1.7,0,0,1,1.86-1.34l8,.89,7.83.86,6.12.33a7.87,7.87,0,0,1,1.28.17l7.41,1.58"/><path class="cls-5" d="M260,386.05l-2.1-.13a12.77,12.77,0,0,0-4.79.6l-1.91.62a15,15,0,0,1-4.56.72h-3.31l-6.37-.64a5.4,5.4,0,0,1-2.06-.69,9,9,0,0,0-2.68-.91,1.32,1.32,0,0,1,.25-2.61h.14l4.86.64h6.08"/><path class="cls-5" d="M463.82,397.35c-2.82,2.17-11.08,5.64-18.24,7.72s-6.08,7.7-17.81,9.41-18.46-4.35-18.46-4.35H398.85"/><path class="cls-5" d="M554.17,386.42l-.73-2.8-.67-2.53a1.79,1.79,0,0,0-3.42,1"/><path class="cls-5" d="M557.32,388.23l-1.31-4.8-.11-.42a1.22,1.22,0,0,0-1.2-1h-.05a1.19,1.19,0,0,0-1.21,1.6"/><path class="cls-5" d="M336.24,350.28c4.78-9.34,17.73-15.2,23.17-16.72a36.86,36.86,0,0,1,11.79-1.35s9.68,1.47,14.7.67a32.49,32.49,0,0,1,11.89,1.05c5.43,1.52,18.39,7.38,23.17,16.72"/><path class="cls-5" d="M411.39,356.89s3.79-5.78,9.57-6.24a9.08,9.08,0,0,1,2.9.22c7.38,1.74,25.52,13.1,30.74,14.42"/><path class="cls-5" d="M409.31,410.13S413,406.68,413,396s-.22-10.86,0-18.46a6.85,6.85,0,0,1,1.52-4.68c1.83-1.91,4.64-1,4.64-1"/><path class="cls-5" d="M414.23,372.67a80.94,80.94,0,0,0-24.82-5.75"/><path class="cls-5" d="M546.25,387.76l-.11-3.23a12.79,12.79,0,0,0-.51-2.44c-.06-.2-.13-.41-.2-.62a9.91,9.91,0,0,0-.81-1.72c-1.31-2.17-4.47-1.47-5,0-.6,1.69.22,3.23.85,4.86a8.29,8.29,0,0,1,.54,3.52l-.22,3.26a11.56,11.56,0,0,0,.09,2.35l1.13,7.59s.43,9.82-2.58,10.85a8.94,8.94,0,0,1-5.67,0c-3.83-1.08-25-17.67-36.55-25.76-1.56-1.1-2.93-2-4.07-2.76a51.54,51.54,0,0,0-7.69-4c-6.19-2.63-11.58-3.76-16.42-7-3.36-2.23-6.19-4.26-8.17-5.74a8.74,8.74,0,0,0-6.25-1.64h0a8,8,0,0,0-.83.14l-3.41.75"/><path class="cls-5" d="M545.63,382.09a3.47,3.47,0,0,1-.2-.62,1.91,1.91,0,0,1,1-2.36A1.8,1.8,0,0,1,547,379a1.89,1.89,0,0,1,1.81,1.36l.52,1.76.15.53.74,3.77"/><path class="cls-5" d="M533.76,412.18s-8,2.82-3.12,14.95"/><path class="cls-5" d="M510.9,379l7.16-1.51,2.72-.58a.93.93,0,0,1,1.1.62.9.9,0,0,1,0,.28.93.93,0,0,1-.6.87l-8.59,2L525,379.2a1.33,1.33,0,0,1,1.48.87,1.23,1.23,0,0,1,.07.42,1.31,1.31,0,0,1-1,1.28L513.67,384"/><path class="cls-5" d="M518.08,377.57l0-.08-.07-.33a1.71,1.71,0,0,0-1.86-1.34l-8.05.88-7.82.87-6.13.33a7.9,7.9,0,0,0-1.27.17l-7.41,1.57"/><path class="cls-5" d="M497.21,386.42l2.1-.14a13,13,0,0,1,4.79.61l1.92.62a15,15,0,0,0,4.55.72h3.31l6.38-.64a5.42,5.42,0,0,0,2.06-.7A9.24,9.24,0,0,1,525,386a1.32,1.32,0,0,0-.25-2.61h-.14l-4.85.64h-6.08"/></svg>