<svg id="Layer_1" data-name="Layer 1" xmlns="http://www.w3.org/2000/svg" viewBox="0 0 700 700"><defs><style>.cls-1{fill:#feae63;}.cls-2{fill:#99abcc;}.cls-3{fill:#c4e7f9;}.cls-4{fill:#392328;}.cls-5{fill:none;stroke:#000;stroke-linecap:round;stroke-linejoin:round;stroke-width:2.3px;}</style></defs><title>Yoga_poses_2020_color</title><path class="cls-1" d="M572,500.13a2.48,2.48,0,0,1,.59,1.56,2.59,2.59,0,0,1-2.37,2.59c-5.4.44-12,.05-19.42-.36s-10.93-3.47-22.58-1.08a39,39,0,0,1-10.22.8c-10.9-.67-8.92-5.4-8.35-8.24.67-3.34,1.06-13.52,1.06-13.52a39.66,39.66,0,0,0-.52-7.42c1,.12,12.47,1.34,20.24-3.08h0c3,8.36,6.31,13,9.44,14.87,4.58,2.72,23.3,11.29,30.72,13A2.61,2.61,0,0,1,572,500.13Z"/><path class="cls-2" d="M415,461c-65.54,41.82-93.5,47-108.2,46.12s-24-2.22-38.73-3.56c-8.88-.81-24.52-3-38.75-3.91h0c-3.56-7.23-.64-19.06-.64-19.06,17.26-2,38.95-6.53,53.64-3.73,18.7,3.56,29.38,2.67,36.06,0,5.61-2.24,36.07-24,45.7-30.93a6.45,6.45,0,0,0,2.71-4.78c.39-6,4.82-17.73,13.25-23.72,5.18-3.69,9-7.9,11.22-14.69,0,0,9,4.41,20.19,10.28,13.92,7.27,32.55,2.74,33.09,2.6h0a55,55,0,0,0-.45-7.59h0c11.29-.12,30.34-1.17,41.56-6.56a20.69,20.69,0,0,0,10.18-7.23l3.62-4.79,6.54-5.6a1.76,1.76,0,0,0,.07-2.61,1.74,1.74,0,0,0-1.22-.49l.76-1.06a1.73,1.73,0,0,0,.73.17l1.35.37,4.09,4.79a17.17,17.17,0,0,1,3.7,7.57l4.71,22.77a75.16,75.16,0,0,1,1.22,8c2.16,22.46,5.43,37.91,9.07,48h0c-7.77,4.42-19.23,3.2-20.24,3.08-3.33-20.34-20.59-41.89-19-63.6-13,14.22-30.45,25.93-41.85,34.25-7.24,5.28-19.06,10.44-24.36,12.52A100.76,100.76,0,0,1,415,461Z"/><path class="cls-1" d="M507.58,377.3a1.57,1.57,0,0,1,.31.95,1.63,1.63,0,0,1-.36,1,1.61,1.61,0,0,1-1.24.58,1.73,1.73,0,0,1-.73-.17l-.22-.14-3.27-2.42a1.48,1.48,0,0,0,.23-1.75l-3.65-6.65a1.41,1.41,0,0,0-.76-.66l-2-.78,4.49,1a1.66,1.66,0,0,1,1,.62Z"/><path class="cls-1" d="M420.88,315.69c4.13,1.21,6.66,5.09,8.17,8.72,0,.06.05.11.07.17a31.74,31.74,0,0,1,1.95,7s.63,3.93,1.56,9.39c1.38,8.06,3.41,19.48,5.06,26.51.27,1.17.56,2.3.86,3.37a68.31,68.31,0,0,0,3.37,9.39c3.08,6.89,6.07,10.11,6.07,10.11h25.29l1.28-7a4.34,4.34,0,0,1,.55-1.44l1-1.67.84-1.4a4.31,4.31,0,0,1,1.62-1.55,10.76,10.76,0,0,0,4.41-2.42,1.7,1.7,0,0,1,1.14,2.33l3.29-5.63.89-1.53a2,2,0,0,1,.34,0l5.92,1.24a1.5,1.5,0,0,1,.83.5l.42.5-3.54,8.9,5.27-6.87,2.31,2.72-3.57,9.27,7.5-5.26a1.76,1.76,0,0,1,2.23.17,1.76,1.76,0,0,1-.07,2.61l-6.54,5.6-3.62,4.79a20.69,20.69,0,0,1-10.18,7.23c-11.22,5.39-30.27,6.44-41.56,6.56-2.55,0-4.71,0-6.29,0a4.8,4.8,0,0,1-4.19-2.65,4.84,4.84,0,0,0-.68-1l-5.36-6.66c-8.86-10.27-16.23-32-20-44.88-1.79-6-2.79-10.12-2.79-10.12l-2.88.11a108.82,108.82,0,0,1,.09-13.38c1.78-15.86,16.25-14.09,16.25-14.09A9.88,9.88,0,0,1,420.88,315.69Z"/><path class="cls-2" d="M505.56,379.68l-.76,1.06a1.73,1.73,0,0,0-1,.32l-7.5,5.26,3.57-9.27a1.5,1.5,0,0,0,1.14.53,1.45,1.45,0,0,0,1.07-.46l3.27,2.42Z"/><path class="cls-1" d="M488.31,370a1,1,0,0,0-.29,0l-1.21.55a2.31,2.31,0,0,0-2.55-1.11l-6.7,2.54-.75-1.11,7.12-4.82a5.19,5.19,0,0,1,2.9-.89h2.89a5.38,5.38,0,0,1,1.9.36l4.29,1.69,2,.78a1.41,1.41,0,0,1,.76.66l3.65,6.65a1.48,1.48,0,0,1-.23,1.75,1.45,1.45,0,0,1-1.07.46,1.5,1.5,0,0,1-1.14-.53l-2.31-2.72-1.73-2-.42-.5a1.5,1.5,0,0,0-.83-.5l-5.92-1.24A2,2,0,0,0,488.31,370Z"/><path class="cls-1" d="M477.56,372.05l6.7-2.54a2.31,2.31,0,0,1,2.55,1.11l.61.94-3.29,5.63a1.7,1.7,0,0,0-1.14-2.33,10.76,10.76,0,0,1-4.41,2.42,4.31,4.31,0,0,0-1.62,1.55l-.84,1.4h0l-21,10.11H448s-3-3.22-6.07-10.11l34.19-8.81.7-.47Z"/><path class="cls-1" d="M409.31,269.71a9.27,9.27,0,0,1-.29-2c1.24-6.16,6.19-2.05,6.19-2.05,2.5.25,6.62-1.27,9.07-5.37s1.91-7.82,6.1-10.38c2.11-1.3,11.2-7.72,11.2-7.72l.37,1.94s3.76,8.78,3.53,14.57c-.18,4.55-1.62,5.26.4,8.16l2.66,5.82-5.42,1-1.29,10.71c.37.94,1.83,8.34-9.7,6.16,0,0-4.93-.86-7.13,1.2A17.55,17.55,0,0,0,420,302a11.07,11.07,0,0,0-.11,1.63,69.57,69.57,0,0,0,1,12,9.88,9.88,0,0,0-2.72-.38s-14.47-1.77-16.25,14.09a108.82,108.82,0,0,0-.09,13.38c.06,1.7.15,3.58.28,5.62a20.48,20.48,0,0,1-13.64,4.39c-1.5-9-2.5-18.89-1.46-26.35,2.45-17.58,11.83-23,12.94-44,2,0,3.56-2.12,4.53-5.84,1.71-5.73,4.68-6.89,4.68-6.89ZM441,263.48c.14-1.53-.29-2.82-1-2.88s-1.31,1.13-1.45,2.66.28,2.82.95,2.88S440.84,265,441,263.48Z"/><path class="cls-3" d="M444.05,408a55,55,0,0,1,.45,7.59h0c-.54.14-19.17,4.67-33.09-2.6-11.21-5.87-20.19-10.28-20.19-10.28,1.62-4.86,2.45-11.05,2.46-19.33a54.59,54.59,0,0,0-1.6-13.28c-1-4.2-2.47-10.49-3.61-17.34a20.48,20.48,0,0,0,13.64-4.39c1.44,3.3,2.7,3.77,5.39,4.39,3.81,12.86,11.18,34.61,20,44.88l5.36,6.66a4.84,4.84,0,0,1,.68,1,4.8,4.8,0,0,0,4.19,2.65c1.58,0,3.74.05,6.29,0Z"/><path class="cls-3" d="M438.48,344.64c3.93,7.59,4.27,10.07,4.22,13.82-.14,9.17-4.15,12.37-4.15,12.37-.3-1.07-.59-2.2-.86-3.37C436,360.43,434,349,432.63,341l4.84,1.72C437.82,343.36,438.15,344,438.48,344.64Z"/><path class="cls-4" d="M441.3,240.69l.28,1.49s-9.09,6.42-11.2,7.72c-4.19,2.56-3.64,6.27-6.1,10.38s-6.57,5.62-9.07,5.37c0,0-4.95-4.11-6.19,2.05a9.27,9.27,0,0,0,.29,2l-.16,0s-3,1.16-4.68,6.89c-1,3.72-2.49,5.83-4.53,5.84-1.78,0-3.95-1.57-6.49-5.06-5.45-7.51-4.09-19.3-4.09-19.3a29.69,29.69,0,0,1,6.7-16.82,21.78,21.78,0,0,1,3.61-3.53q1.17-.75,2.31-1.38C416.42,228.31,427.84,233,441.3,240.69Z"/><path d="M440,260.6c.66.06,1.09,1.35,1,2.88s-.79,2.72-1.45,2.66-1.09-1.35-.95-2.88S439.36,260.54,440,260.6Z"/><path class="cls-1" d="M437.47,342.67,432.63,341c-.93-5.46-1.56-9.39-1.56-9.39a31.74,31.74,0,0,0-1.95-7C432.47,332.53,435.24,338.3,437.47,342.67Z"/><path class="cls-1" d="M404.7,342.67s1,4.08,2.79,10.12c-2.69-.62-3.95-1.09-5.39-4.39-.13-2-.22-3.92-.28-5.62Z"/><path class="cls-4" d="M401.83,235.65l.15.74q-1.14.63-2.31,1.38a21.78,21.78,0,0,0-3.61,3.53l-.08-.06c-7,6.53-12.93,0-13.28-3.75-.48-5.31,5.11-13.7,12.74-11.07S401.83,235.65,401.83,235.65Z"/><path class="cls-1" d="M229.27,499.65h0c-9.3-.61-18-.66-23.8.57-14.69,3.11-36.95,1.78-36.95,1.78l-11.71.69a1.26,1.26,0,0,1-1.31-1,2.94,2.94,0,0,1-.08-.72,3.22,3.22,0,0,1,2.77-3.19l5-.71c5.78-1.78,21.37-12.46,24-15.58s12.46-16.47,17.8-9.35a32.69,32.69,0,0,0,9.16,8.54,5.51,5.51,0,0,0,3,.79c3.47-.08,7.34-.43,11.47-.92C228.63,480.59,225.71,492.42,229.27,499.65Z"/><path class="cls-5" d="M415,461c-65.54,41.82-93.5,47-108.2,46.12s-24-2.22-38.73-3.56c-8.88-.81-24.52-3-38.75-3.91-9.3-.61-18-.66-23.8.57-14.69,3.11-36.95,1.78-36.95,1.78l-11.71.69a1.26,1.26,0,0,1-1.31-1,2.94,2.94,0,0,1-.08-.72,3.22,3.22,0,0,1,2.77-3.19l5-.71c5.78-1.78,21.37-12.46,24-15.58s12.46-16.47,17.8-9.35a32.69,32.69,0,0,0,9.16,8.54,5.51,5.51,0,0,0,3,.79c3.47-.08,7.34-.43,11.47-.92,17.26-2,38.95-6.53,53.64-3.73,18.7,3.56,29.38,2.67,36.06,0,5.61-2.24,36.07-24,45.7-30.93a6.45,6.45,0,0,0,2.71-4.78c.39-6,4.82-17.73,13.25-23.72,5.18-3.69,9-7.9,11.22-14.69,1.62-4.86,2.45-11.05,2.46-19.33a54.59,54.59,0,0,0-1.6-13.28c-1-4.2-2.47-10.49-3.61-17.34-1.5-9-2.5-18.89-1.46-26.35,2.45-17.58,11.83-23,12.94-44"/><path class="cls-5" d="M491.22,410.86c-13,14.22-30.45,25.93-41.85,34.25-7.24,5.28-19.06,10.44-24.36,12.52A100.76,100.76,0,0,1,415,461h0c-9.92,2.73-16.89,2.55-21.75.65-16.15-6.3-8.85-31.54-8.85-31.54"/><path class="cls-5" d="M491.22,410.86c-1.63,21.71,15.63,43.26,19,63.6a39.66,39.66,0,0,1,.52,7.42s-.39,10.18-1.06,13.52c-.57,2.84-2.55,7.57,8.35,8.24a39,39,0,0,0,10.22-.8c11.65-2.39,15.27.69,22.58,1.08s14,.8,19.42.36a2.59,2.59,0,0,0,2.37-2.59,2.48,2.48,0,0,0-.59-1.56,2.61,2.61,0,0,0-1.4-.9c-7.42-1.69-26.14-10.26-30.72-13-3.13-1.86-6.42-6.51-9.44-14.87-3.64-10.07-6.91-25.52-9.07-48a75.16,75.16,0,0,0-1.22-8l-4.71-22.77a17.17,17.17,0,0,0-3.7-7.57l-4.09-4.79"/><path class="cls-5" d="M510.11,474.45h.07c1,.12,12.47,1.34,20.24-3.08"/><path class="cls-5" d="M228.63,480.59s-2.92,11.83.64,19.06"/><path class="cls-5" d="M370.19,446.81s8,11.8,23,14.85"/><path class="cls-5" d="M404.7,342.67s1,4.08,2.79,10.12c3.81,12.86,11.18,34.61,20,44.88l5.36,6.66a4.84,4.84,0,0,1,.68,1,4.8,4.8,0,0,0,4.19,2.65c1.58,0,3.74.05,6.29,0,11.29-.12,30.34-1.17,41.56-6.56a20.69,20.69,0,0,0,10.18-7.23l3.62-4.79,6.54-5.6a1.76,1.76,0,0,0,.07-2.61,1.76,1.76,0,0,0-2.23-.17l-7.5,5.26,3.57-9.27"/><polyline class="cls-5" points="497.55 374.33 492.28 381.2 495.82 372.3"/><line class="cls-5" x1="489.12" y1="378.31" x2="492.28" y2="371.41"/><line class="cls-5" x1="455.13" y1="390.33" x2="476.11" y2="380.22"/><path class="cls-5" d="M438.55,370.83s4-3.2,4.15-12.37c.05-3.75-.29-6.23-4.22-13.82-.33-.62-.66-1.28-1-2-2.23-4.37-5-10.14-8.35-18.09"/><path class="cls-5" d="M444.49,415.62a49.3,49.3,0,0,1-1.4,11.88"/><path class="cls-5" d="M444.05,408a55,55,0,0,1,.45,7.59"/><path class="cls-5" d="M415.21,265.65s-4.95-4.11-6.19,2.05a9.27,9.27,0,0,0,.29,2,8.57,8.57,0,0,0,5.17,6.12s3.36.77,1.74-3.12"/><path class="cls-5" d="M416.76,280.68s.57,5.7,5.54,6.84"/><path class="cls-5" d="M441.58,242.18s-9.09,6.42-11.2,7.72c-4.19,2.56-3.64,6.27-6.1,10.38s-6.57,5.62-9.07,5.37"/><path class="cls-5" d="M401.83,235.65s1.25-6.59-6.39-9.23-13.22,5.76-12.74,11.07c.35,3.78,6.29,10.28,13.28,3.75"/><path class="cls-5" d="M409.15,269.75s-3,1.16-4.68,6.89c-1,3.72-2.49,5.83-4.53,5.84-1.78,0-3.95-1.57-6.49-5.06-5.45-7.51-4.09-19.3-4.09-19.3"/><path class="cls-5" d="M389.36,258.12a29.69,29.69,0,0,1,6.7-16.82,21.78,21.78,0,0,1,3.61-3.53q1.17-.75,2.31-1.38c14.44-8.08,25.86-3.4,39.32,4.3l.28,1.49.37,1.94s3.76,8.78,3.53,14.57c-.18,4.55-1.62,5.26.4,8.16l2.66,5.82-5.42,1-1.29,10.71c.37.94,1.83,8.34-9.7,6.16,0,0-4.93-.86-7.13,1.2A17.55,17.55,0,0,0,420,302a11.07,11.07,0,0,0-.11,1.63,69.57,69.57,0,0,0,1,12h0"/><path class="cls-5" d="M441.92,380.22l34.19-8.81.7-.47,7.12-4.82a5.19,5.19,0,0,1,2.9-.89h2.89a5.38,5.38,0,0,1,1.9.36l4.29,1.69,2,.78a1.41,1.41,0,0,1,.76.66l3.65,6.65a1.48,1.48,0,0,1-.23,1.75,1.45,1.45,0,0,1-1.07.46,1.5,1.5,0,0,1-1.14-.53l-2.31-2.72-1.73-2-.42-.5a1.5,1.5,0,0,0-.83-.5l-5.92-1.24a2,2,0,0,0-.34,0,1,1,0,0,0-.29,0l-1.21.55"/><path class="cls-5" d="M474.49,374.14l3.07-2.09,6.7-2.54a2.31,2.31,0,0,1,2.55,1.11l.61.94"/><path class="cls-5" d="M473.28,390.33l1.28-7a4.34,4.34,0,0,1,.55-1.44l1-1.67.84-1.4a4.31,4.31,0,0,1,1.62-1.55,10.76,10.76,0,0,0,4.41-2.42,1.7,1.7,0,0,1,1.14,2.33"/><polyline class="cls-5" points="479.06 381.2 484.13 377.19 487.42 371.56 488.31 370.03 488.33 370"/><path class="cls-5" d="M502.07,377.12l3.27,2.42.22.14a1.73,1.73,0,0,0,.73.17,1.61,1.61,0,0,0,1.24-.58,1.63,1.63,0,0,0,.36-1,1.57,1.57,0,0,0-.31-.95l-6.23-8.43a1.66,1.66,0,0,0-1-.62l-4.49-1"/><path class="cls-5" d="M391.21,402.74s9,4.41,20.19,10.28c13.92,7.27,32.55,2.74,33.09,2.6h0"/><line class="cls-5" x1="432.63" y1="340.95" x2="437.47" y2="342.67"/><path class="cls-5" d="M388.46,352.79a20.48,20.48,0,0,0,13.64-4.39c-.13-2-.22-3.92-.28-5.62a108.82,108.82,0,0,1,.09-13.38c1.78-15.86,16.25-14.09,16.25-14.09a9.88,9.88,0,0,1,2.72.38c4.13,1.21,6.66,5.09,8.17,8.72,0,.06.05.11.07.17a31.74,31.74,0,0,1,1.95,7s.63,3.93,1.56,9.39c1.38,8.06,3.41,19.48,5.06,26.51.27,1.17.56,2.3.86,3.37a68.31,68.31,0,0,0,3.37,9.39c3.08,6.89,6.07,10.11,6.07,10.11h30.27"/><path class="cls-5" d="M402.1,348.4c1.44,3.3,2.7,3.77,5.39,4.39"/></svg>