<svg id="Layer_1" data-name="Layer 1" xmlns="http://www.w3.org/2000/svg" viewBox="0 0 700 700"><defs><style>.cls-1{fill:#feae63;}.cls-2{fill:#99abcc;}.cls-3{fill:#c4e7f9;}.cls-4{fill:#392328;}.cls-5{fill:none;stroke:#000;stroke-linecap:round;stroke-linejoin:round;stroke-width:2.3px;}</style></defs><title>Yoga_poses_2020_color</title><path class="cls-1" d="M579.26,377.25s5.22,4.57,3.59,8.48-6.52,7.16-5.87,17.59a67,67,0,0,1-.36,12.4,5.45,5.45,0,0,1-5.9,4.74L559,419.39c-4.15-.26-11.93-.4-21.07-.58l0-.77c-5.57-7.08,0-18.89,0-18.89l0-.25c15.62,1.65,18.79-1.77,21.71-4.54,3.25-3.1,7.82-9.29,10.75-10.91s2.6-6.52,2.6-6.52l-.25-7.08a1.3,1.3,0,0,1,2-1.15,8.5,8.5,0,0,1,3.15,4Z"/><path class="cls-2" d="M538,398.9l0,.25S532.41,411,538,418l0,.77c-21.27-.42-49.9-1-57.19-3.76-10.43-3.91-16.08-3-34.75-2.61-8,.19-19.85-.34-38.72-1l-.36,0c-.22-1.24-.44-2-.44-2-.83-6.86-1.82-20.28-2.54-33.21l.67,0c5.87.33,28.35,3.64,40.73,5.27s16.95,1.3,24.11,4.89a45.08,45.08,0,0,0,14.34,4.23c13.35-.32,27.36,4.24,48.21,7.5C534.2,398.45,536.19,398.71,538,398.9Z"/><path class="cls-1" d="M418,438.31a1.47,1.47,0,0,1-1.07,2.73l-10.26-3.6-2.82-2.88,1.17-2.14c.26.14.54.27.83.41C411.51,435.49,416.14,437.51,418,438.31Z"/><path class="cls-1" d="M401.21,429.41a10.72,10.72,0,0,0,3.81,3l-1.17,2.14,2.82,2.88,4.37,4.47a1.64,1.64,0,0,1,.46,1.13,1.61,1.61,0,0,1-1.62,1.62,4,4,0,0,1-2.89-1.23l-7.33-7.67,3.31,6.61a1.61,1.61,0,0,1,.17.71,1.58,1.58,0,0,1-1.58,1.58,4.2,4.2,0,0,1-3.32-1.62l-5.64-7.28,1,6.77a2.17,2.17,0,0,1,0,.36,1.87,1.87,0,0,1-1.87,1.77,3.58,3.58,0,0,1-3.16-1.87l-4-7.25a50.21,50.21,0,0,1-5.32,2.93c-3,1.45-7.2,1.95-9.16-.82a2,2,0,0,1,0-2.2,2,2,0,0,1,1.65-.89h2.08a2,2,0,0,0,1.19-.39l4.25-3.19,7.16-4.78s-1.15-1.08-.86-4.61a15.07,15.07,0,0,1,2.24-6.69s-.37-1.43-.89-4a189.54,189.54,0,0,1-3.42-30.92v-7.46c0-.36,0-.73,0-1.1a1.93,1.93,0,0,0,0-.24l-5.3-16.94a50.89,50.89,0,0,1,7.32-29.71,39.17,39.17,0,0,1,5.41,2.78c6.52,4.2,12.38,8.46,12.06,19.54-.16,5.39.29,17.2,1,29.45.72,12.93,1.71,26.35,2.54,33.21,0,0,.22.75.44,2,.68,3.86,1.36,12.46-4.56,17.89Z"/><path class="cls-2" d="M386.9,410.86h0c-9.49-.38-32.56-1.23-35.5-1.36-.92,0-1.83,0-2.75,0-3.3.15-24.12.92-35.33,1.36h0a189.54,189.54,0,0,0,3.42-30.92v-8.8a2.36,2.36,0,0,0,0,.28A16.63,16.63,0,0,0,329,385s6.08,7.48,20.35,7.48,22.51-6.37,22.51-6.37l-.05-.31a14.33,14.33,0,0,0,11.66-13.27v7.46A189.54,189.54,0,0,0,386.9,410.86Z"/><path class="cls-3" d="M383.48,371.14v1.34a14.33,14.33,0,0,1-11.66,13.27,12.78,12.78,0,0,1-2,.24,69.76,69.76,0,0,1-9.09-.18c-8.65-1.07-14.35-.84-22.39-.27a57.46,57.46,0,0,1-6-.05A17.17,17.17,0,0,1,329,385a16.63,16.63,0,0,1-12.25-13.53,2.36,2.36,0,0,1,0-.28l5.86-17.81c19,22.77,37.61,24.4,55.6.87Z"/><path class="cls-1" d="M372.7,319.91a122.48,122.48,0,0,1,12.8,4.58,50.89,50.89,0,0,0-7.32,29.71c-18,23.53-36.56,21.9-55.6-.87a45.11,45.11,0,0,0-7.88-28.84,122.48,122.48,0,0,1,12.8-4.58l.31-.15a8.87,8.87,0,0,0,1.25,2s1.59,1.34.87-2.29l.22,0c.54,3.15,2.43,8.86,3.26,11.92,2.47,6.17,6.87,11.93,16.48,12.22,0,0,13.43.81,16.89-12.52.64-2.47,2.37-7.58,2.91-11.58l.32.05c-.57,3.66,1,2.25,1,2.25a8.11,8.11,0,0,0,.93-1.5Z"/><path class="cls-1" d="M373.14,313.62a15.24,15.24,0,0,1-1.23,6.62,8.11,8.11,0,0,1-.93,1.5s-1.54,1.41-1-2.25l-.32-.05c.05-.32.08-.64.11-.94l.36-5.89.32,0C371.12,311.57,372.48,309.91,373.14,313.62Z"/><path class="cls-3" d="M371.82,385.75l.05.31s-8.24,6.37-22.51,6.37S329,385,329,385a17.17,17.17,0,0,0,3.37.54,57.46,57.46,0,0,0,6,.05c8-.57,13.74-.8,22.39.27a69.76,69.76,0,0,0,9.09.18A12.78,12.78,0,0,0,371.82,385.75Z"/><path class="cls-4" d="M329.14,310.54c-.12.52-.16.82-.16.82s-5.19-15.66,3.84-23.69a21.49,21.49,0,0,1,6.85-4.09c8-3,16.52-1.17,19.41-.39.66.18,1,.3,1,.3,18.37,7.37,10.34,27.25,10.34,27.25l-.15-.32c-.39-.81-1.54-3.12-3.33-6.18-3-5.08-9.33-8.77-16.67-8.76C333.71,295.51,329.88,307.29,329.14,310.54Z"/><path class="cls-1" d="M370.3,310.42l-.14,2.19-.36,5.89c0,.3-.06.62-.11.94-.54,4-2.27,9.11-2.91,11.58-3.46,13.33-16.89,12.52-16.89,12.52-9.61-.29-14-6.05-16.48-12.22-.83-3.06-2.72-8.77-3.26-11.92a8.58,8.58,0,0,1-.14-1.19l-.69-6.1-.18-1.57c.74-3.25,4.57-15,21.16-15.06,7.34,0,13.7,3.68,16.67,8.76C368.76,307.3,369.91,309.61,370.3,310.42Zm-11.21,9.74a2.32,2.32,0,1,0-2-2.28A2.15,2.15,0,0,0,359.09,320.16ZM341,319.91a2.32,2.32,0,1,0-2-2.28A2.15,2.15,0,0,0,341,319.91Z"/><path d="M361.05,317.85a2,2,0,1,1-2-2.28A2.15,2.15,0,0,1,361.05,317.85Z"/><path class="cls-4" d="M360.21,283.18h-1.13c-2.89-.78-11.41-2.59-19.41.39l-.15-.4c0-5.36,4.63-9.7,10.35-9.7S360.21,277.82,360.21,283.18Z"/><path d="M342.94,317.6a2,2,0,1,1-2-2.28A2.15,2.15,0,0,1,342.94,317.6Z"/><path class="cls-1" d="M312.41,414.9a15.07,15.07,0,0,1,2.24,6.69c.29,3.53-.86,4.61-.86,4.61L321,431l4.25,3.19a2,2,0,0,0,1.19.39h2.08a2,2,0,0,1,1.65.89,2,2,0,0,1,0,2.2c-2,2.77-6.17,2.27-9.16.82a50.21,50.21,0,0,1-5.32-2.93l-4,7.25a3.58,3.58,0,0,1-3.16,1.87,1.87,1.87,0,0,1-1.87-1.77,2.17,2.17,0,0,1,0-.36l1-6.77L302,443a4.2,4.2,0,0,1-3.32,1.62,1.58,1.58,0,0,1-1.58-1.58,1.61,1.61,0,0,1,.17-.71l3.31-6.61-7.33,7.67a4,4,0,0,1-2.89,1.23A1.61,1.61,0,0,1,288.7,443a1.64,1.64,0,0,1,.46-1.13l4.37-4.47L283.27,441a1.41,1.41,0,0,1-.49.09,1.47,1.47,0,0,1-.58-2.82c1.86-.8,6.49-2.82,12.15-5.48a13.2,13.2,0,0,0,4.17-2.84l-.7-.64c-5.87-5.38-5.25-13.87-4.58-17.78.23-1.31.46-2.1.46-2.1.82-6.79,1.8-20,2.52-32.84.71-12.38,1.17-24.38,1-29.82-.32-11.08,5.54-15.34,12.06-19.54a39.17,39.17,0,0,1,5.41-2.78,45.11,45.11,0,0,1,7.88,28.84l-5.86,17.81v8.8a189.54,189.54,0,0,1-3.42,30.92C312.78,413.47,312.41,414.9,312.41,414.9Z"/><path class="cls-1" d="M330.15,319.4l-.22,0c.72,3.63-.87,2.29-.87,2.29a8.87,8.87,0,0,1-1.25-2,15.55,15.55,0,0,1-1.26-6.05c.43-3.23,1.56-2.48,2.29-1.55l.48-.05.69,6.1A8.58,8.58,0,0,0,330.15,319.4Z"/><path class="cls-2" d="M296.06,376.62h.16c-.72,12.82-1.7,26.05-2.52,32.84,0,0-.23.79-.46,2.1-17.29.58-31.85,1-39.22.87-18.68-.43-24.33-1.3-34.75,2.61-7.3,2.74-35.93,3.34-57.2,3.76l0-.77c5.57-7.08,0-18.89,0-18.89l0-.25c1.82-.19,3.81-.45,6-.79,20.85-3.26,34.86-7.82,48.21-7.5a45.08,45.08,0,0,0,14.34-4.23c7.17-3.59,11.73-3.26,24.11-4.89S290.19,377,296.06,376.62Z"/><path class="cls-1" d="M162.05,399.15s5.57,11.81,0,18.89l0,.77c-9.13.18-16.91.32-21.07.58l-11.69,1.07a5.43,5.43,0,0,1-5.89-4.74,66,66,0,0,1-.37-12.4c.65-10.43-4.24-13.68-5.87-17.59s3.59-8.48,3.59-8.48l1.3-4.56a8.5,8.5,0,0,1,3.15-4,1.3,1.3,0,0,1,2,1.15l-.25,7.08s-.33,4.89,2.6,6.52,7.5,7.81,10.76,10.91c2.91,2.77,6.09,6.19,21.7,4.54Z"/><path class="cls-5" d="M162.05,399.15s5.57,11.81,0,18.89"/><path class="cls-5" d="M293.24,411.57c-17.29.58-31.85,1-39.22.87-18.68-.43-24.33-1.3-34.75,2.61-7.3,2.74-35.93,3.34-57.2,3.76-9.13.18-16.91.32-21.07.58l-11.69,1.07a5.43,5.43,0,0,1-5.89-4.74,66,66,0,0,1-.37-12.4c.65-10.43-4.24-13.68-5.87-17.59s3.59-8.48,3.59-8.48l1.3-4.56a8.5,8.5,0,0,1,3.15-4,1.3,1.3,0,0,1,2,1.15l-.25,7.08s-.33,4.89,2.6,6.52,7.5,7.81,10.76,10.91c2.91,2.77,6.09,6.19,21.7,4.54,1.82-.19,3.81-.45,6-.79,20.85-3.26,34.86-7.82,48.21-7.5a45.08,45.08,0,0,0,14.34-4.23c7.17-3.59,11.73-3.26,24.11-4.89s35.52-4.54,41.39-4.87"/><path class="cls-5" d="M386.89,410.86c-9.49-.38-32.56-1.23-35.5-1.36-.92,0-1.83,0-2.75,0-3.3.15-24.12.92-35.33,1.36"/><path class="cls-5" d="M404.63,376.22c5.87.33,28.35,3.64,40.73,5.27s16.95,1.3,24.11,4.89a45.08,45.08,0,0,0,14.34,4.23c13.35-.32,27.36,4.24,48.21,7.5,2.18.34,4.17.6,6,.79,15.62,1.65,18.79-1.77,21.71-4.54,3.25-3.1,7.82-9.29,10.75-10.91s2.6-6.52,2.6-6.52l-.25-7.08a1.3,1.3,0,0,1,2-1.15,8.5,8.5,0,0,1,3.15,4l1.3,4.56s5.22,4.57,3.59,8.48-6.52,7.16-5.87,17.59a67,67,0,0,1-.36,12.4,5.45,5.45,0,0,1-5.9,4.74L559,419.39c-4.15-.26-11.93-.4-21.07-.58-21.27-.42-49.9-1-57.19-3.76-10.43-3.91-16.08-3-34.75-2.61-8,.19-19.85-.34-38.72-1"/><path class="cls-5" d="M538,399.15S532.41,411,538,418"/><path class="cls-5" d="M327.5,319.91a122.48,122.48,0,0,0-12.8,4.58,39.17,39.17,0,0,0-5.41,2.78c-6.52,4.2-12.38,8.46-12.06,19.54.16,5.44-.3,17.44-1,29.82-.72,12.82-1.7,26.05-2.52,32.84,0,0-.23.79-.46,2.1-.67,3.91-1.29,12.4,4.58,17.78"/><path class="cls-5" d="M314.7,324.49a45.11,45.11,0,0,1,7.88,28.84l-5.86,17.81a2.36,2.36,0,0,0,0,.28A16.63,16.63,0,0,0,329,385a17.17,17.17,0,0,0,3.37.54,57.46,57.46,0,0,0,6,.05c8-.57,13.74-.8,22.39.27a69.76,69.76,0,0,0,9.09.18,12.78,12.78,0,0,0,2-.24,14.33,14.33,0,0,0,11.66-13.27c0-.36,0-.73,0-1.1a1.93,1.93,0,0,0,0-.24l-5.3-16.94a50.89,50.89,0,0,1,7.32-29.71"/><path class="cls-5" d="M299.56,425.66s1.14,1.94-1,4.33a13.2,13.2,0,0,1-4.17,2.84c-5.66,2.66-10.29,4.68-12.15,5.48a1.47,1.47,0,0,0,.58,2.82,1.41,1.41,0,0,0,.49-.09l10.26-3.6"/><path class="cls-5" d="M296.35,434.56l-2.82,2.88-4.37,4.47a1.64,1.64,0,0,0-.46,1.13,1.61,1.61,0,0,0,1.62,1.62,4,4,0,0,0,2.89-1.23l7.33-7.67-3.31,6.61a1.61,1.61,0,0,0-.17.71,1.58,1.58,0,0,0,1.58,1.58A4.2,4.2,0,0,0,302,443l5.64-7.28-1,6.77a2.17,2.17,0,0,0,0,.36,1.87,1.87,0,0,0,1.87,1.77,3.58,3.58,0,0,0,3.16-1.87l4-7.25a50.21,50.21,0,0,0,5.32,2.93c3,1.45,7.2,1.95,9.16-.82a2,2,0,0,0,0-2.2,2,2,0,0,0-1.65-.89h-2.08a2,2,0,0,1-1.19-.39L321,431l-7.16-4.78-2.28-1.52"/><path class="cls-5" d="M313.79,426.2s1.15-1.08.86-4.61a15.07,15.07,0,0,0-2.24-6.69,16.55,16.55,0,0,0-3.12-3.67l-1.21-1.06"/><path class="cls-5" d="M312.41,414.9s.37-1.43.89-4a189.54,189.54,0,0,0,3.42-30.92V359.58"/><path class="cls-5" d="M372.7,319.91a122.48,122.48,0,0,1,12.8,4.58,39.17,39.17,0,0,1,5.41,2.78c6.52,4.2,12.38,8.46,12.06,19.54-.16,5.39.29,17.2,1,29.45.72,12.93,1.71,26.35,2.54,33.21,0,0,.22.75.44,2,.68,3.86,1.36,12.46-4.56,17.89"/><path class="cls-5" d="M400.64,425.66a3.5,3.5,0,0,0,.57,3.75,10.72,10.72,0,0,0,3.81,3c.26.14.54.27.83.41,5.66,2.66,10.29,4.68,12.15,5.48a1.47,1.47,0,0,1-1.07,2.73l-10.26-3.6"/><path class="cls-5" d="M403.85,434.56l2.82,2.88,4.37,4.47a1.64,1.64,0,0,1,.46,1.13,1.61,1.61,0,0,1-1.62,1.62,4,4,0,0,1-2.89-1.23l-7.33-7.67,3.31,6.61a1.61,1.61,0,0,1,.17.71,1.58,1.58,0,0,1-1.58,1.58,4.2,4.2,0,0,1-3.32-1.62l-5.64-7.28,1,6.77a2.17,2.17,0,0,1,0,.36,1.87,1.87,0,0,1-1.87,1.77,3.58,3.58,0,0,1-3.16-1.87l-4-7.25a50.21,50.21,0,0,1-5.32,2.93c-3,1.45-7.2,1.95-9.16-.82a2,2,0,0,1,0-2.2,2,2,0,0,1,1.65-.89h2.08a2,2,0,0,0,1.19-.39l4.25-3.19,7.16-4.78,2.28-1.52"/><path class="cls-5" d="M386.41,426.2s-1.15-1.08-.86-4.61a15.07,15.07,0,0,1,2.24-6.69,16.55,16.55,0,0,1,3.12-3.67l1.21-1.06"/><path class="cls-5" d="M387.79,414.9s-.37-1.43-.89-4a189.54,189.54,0,0,1-3.42-30.92v-21"/><path class="cls-5" d="M322.58,353.33c19,22.77,37.61,24.4,55.6.87"/><path class="cls-5" d="M329,385s6.08,7.48,20.35,7.48,22.51-6.37,22.51-6.37"/><line class="cls-5" x1="351.58" y1="366.74" x2="351.58" y2="370.96"/><path class="cls-5" d="M339.52,283.18c0-5.36,4.63-9.7,10.35-9.7s10.34,4.34,10.34,9.7"/><path class="cls-5" d="M329.14,310.54c.74-3.25,4.57-15,21.16-15.06,7.34,0,13.7,3.68,16.67,8.76,1.79,3.06,2.94,5.37,3.33,6.18l.15.32s8-19.88-10.34-27.25c0,0-.37-.12-1-.3-2.89-.78-11.41-2.59-19.41.39a21.49,21.49,0,0,0-6.85,4.09c-9,8-3.84,23.69-3.84,23.69S329,311.06,329.14,310.54Z"/><path class="cls-5" d="M370.48,312.63c.64-1.06,2-2.72,2.66,1a15.24,15.24,0,0,1-1.23,6.62,8.11,8.11,0,0,1-.93,1.5s-1.54,1.41-1-2.25"/><path class="cls-5" d="M328.84,312.16c-.73-.93-1.86-1.68-2.29,1.55a15.55,15.55,0,0,0,1.26,6.05,8.87,8.87,0,0,0,1.25,2s1.59,1.34.87-2.29"/><path class="cls-5" d="M329,309.37l.13,1.17.18,1.57.69,6.1a8.58,8.58,0,0,0,.14,1.19c.54,3.15,2.43,8.86,3.26,11.92,2.47,6.17,6.87,11.93,16.48,12.22,0,0,13.43.81,16.89-12.52.64-2.47,2.37-7.58,2.91-11.58.05-.32.08-.64.11-.94l.36-5.89.14-2.19.1-1.67"/><path class="cls-5" d="M351.58,326.56a4.32,4.32,0,0,1-4.44-.13"/><polyline class="cls-5" points="344.85 332.98 345.79 333.36 348.75 332.49 349.86 333.18 351.08 332.52 353.74 333.47 354.6 333.24"/></svg>