<svg id="Layer_1" data-name="Layer 1" xmlns="http://www.w3.org/2000/svg" viewBox="0 0 700 700"><defs><style>.cls-1{fill:#99abcc;}.cls-2{fill:#feae63;}.cls-3{fill:#c4e7f9;}.cls-4{fill:#392328;}.cls-5{fill:none;stroke:#000;stroke-linecap:round;stroke-linejoin:round;stroke-width:2.3px;}</style></defs><title>Yoga_poses_2020_color</title><path class="cls-1" d="M363,444.66l-.12-.24c-1-17.2-22.25-67-22.25-67,.27-.72.54-1.47.79-2.23C353.67,382.1,385,404.76,400.93,429s.82,26.3-8.6,33.18c-3.06,2.23-10.78,6.26-20.22,11.44-12.46,6.85-27.93,15.71-39.6,25.11-9.07-5.53-11.39-16.23-11.39-16.23h0c4.52-3.82,9.32-8.24,13.84-12.92,2.61-2.7,5.13-5.49,7.44-8.29A63.7,63.7,0,0,1,363,444.66Z"/><path class="cls-2" d="M366.22,147.61a8.73,8.73,0,0,1,1.89,5.72,12.35,12.35,0,0,0,2.18,7.27c2.36,3.31,5.53,7.85,6.36,9.44,1.38,2.61,1.22,7.66,1.22,7.66s8.54,19.29,14.92,35.49c3.4,8.62,6.18,16.36,6.75,19.87,1.63,10.1-5.33,15.47-19.68,21.71-15,6.52-32.84,9.54-40.49,13.77a73.49,73.49,0,0,0-6.64-4c3.25-1.4,7.73-3.24,11.58-4.49,7-2.28,16.13-4.24,31.77-19.55,0,0,1.3-3.91,0-12.05a78.48,78.48,0,0,1-.74-8.24c-.36-7.5-.35-15.89-1.55-19.13-5.33-14.46-12.05-19.83-12.38-29.93A52.66,52.66,0,0,0,360,159.6a6.93,6.93,0,0,1,.09-3.91l4-12.13.42-.16C365.51,145.79,366.22,147.61,366.22,147.61Z"/><path class="cls-2" d="M371.47,117.39l0-.9a.25.25,0,0,0,0-.12Zm8.39,11.54,1.41-8.94a1.77,1.77,0,0,1,1.74-1.48,1.66,1.66,0,0,1,.62.11,1.78,1.78,0,0,1,1.1,2.06c-2,8.93-1.49,18.81.36,32.58,2,14.55,0,15.21,3,29.32s5.1,30.44,5.1,30.44l-.44.17c-6.38-16.2-14.92-35.49-14.92-35.49s.16-5-1.22-7.66c-.83-1.59-4-6.13-6.36-9.44a12.35,12.35,0,0,1-2.18-7.27,8.73,8.73,0,0,0-1.89-5.72s-.71-1.82-1.68-4.21c-1.27-3.14-3-7.26-4-9.45a2,2,0,0,1,.73-2.58,1.94,1.94,0,0,1,2.78.6c2.71,3.86,4.69,7.08,5.29,8.1l-1.47-23.38a1.8,1.8,0,0,1,1.46-1.88,1.84,1.84,0,0,1,.33,0,1.79,1.79,0,0,1,1.78,1.56c-.08-1.71-.11-3-.1-3.84a1.6,1.6,0,0,1,1.61-1.59,1.67,1.67,0,0,1,1.59,1.85c0,.95,0,1.89,0,2.81v-.83a1.47,1.47,0,0,1,2.94-.1A66,66,0,0,0,379.86,128.93Z"/><path class="cls-2" d="M314.82,241.46c1.71-1.25,4.82-3.46,8.17-5.48,4-2.41,8.33-4.57,11.06-4.57,6.19,0,11.73,2.6,15.64,1.63s18.8-10.52,25.65-12.8a78.48,78.48,0,0,0,.74,8.24c1.3,8.14,0,12.05,0,12.05-15.64,15.31-24.76,17.27-31.77,19.55-3.85,1.25-8.33,3.09-11.58,4.49,0,0,4,17.89-16.74,21.43-20.36,3.47-22.64-8.37-22.72-8.84h0c-.62-7.84-.31-15.55-.51-23.12q0-1.36,0-2.67c3.51-16.74,21.71-10.48,21.71-10.48Z"/><path class="cls-1" d="M372.11,473.66h0c-1.8,6.18-13.22,14.49-15.47,20.56s-15.07,31.32-28,47.3q-1.94,2.4-3.43,4.62c-10,.37-18.2-6.21-18.2-6.21a37.53,37.53,0,0,1,3.41-6.09c5.32-7.69,7-18.62,7-18.62,2.93-5.48,8.38-11.06,15.09-16.46C344.18,489.37,359.65,480.51,372.11,473.66Z"/><path class="cls-1" d="M362.85,444.42l.12.24a63.7,63.7,0,0,0-20.58,16.66c-2.31,2.8-4.83,5.59-7.44,8.29h0c0-4.25-11.18-17.81-20.08-29s-7.37-14-18.73-29.74-12.59-29.34-12.59-29.34c-1.16-12.22,7.29-24.32,13-36.23h0c.55-.06,18.51-1.93,29,3.26a62.43,62.43,0,0,0,20.32,6l.21,0a125.42,125.42,0,0,1-4.75,20.64c-.25.76-.52,1.51-.79,2.23C340.6,377.45,361.82,427.22,362.85,444.42Z"/><path class="cls-2" d="M353.87,582.72a2.72,2.72,0,0,1,.6,1.71,2.75,2.75,0,0,1-1.83,2.58c-4.71,1.67-14.8,1.67-18.85,1.67-4.7,0-16.37-2.23-26-1.82a74.67,74.67,0,0,1-13.17-.62,4.07,4.07,0,0,1-3.53-4c0-3.52.26-8.85,2-11.19,2.66-3.64,9.14-15.68,9.14-15.68a1.73,1.73,0,0,0,2.31-1.9l-.6-3.46a42.18,42.18,0,0,1,3.14-10.09s8.21,6.58,18.2,6.21c-9,13.28-7,21.46-5.17,23.1,2.05,1.82,8.8,4.25,17.6,7.89a93.06,93.06,0,0,0,14.64,4.62A2.76,2.76,0,0,1,353.87,582.72Z"/><path class="cls-3" d="M353,282.56c4.1,9.71-5.9,18.21-4.58,25.89.92,5.4.74,26.49-2.31,46.13l-.21,0a62.43,62.43,0,0,1-20.32-6c-10.53-5.19-28.49-3.32-29-3.26,3.37-7,5.81-14,4.78-20.82-1.41-9.48-3.07-22.76-6.12-34.9a74.91,74.91,0,0,1-2-12.38c.08.47,2.36,12.31,22.72,8.84,20.75-3.54,16.74-21.43,16.74-21.43a73.49,73.49,0,0,1,6.64,4C344.34,271.89,350.68,277,353,282.56Z"/><path class="cls-2" d="M307.75,200.57a8.57,8.57,0,0,1-.18-1.9C309,193,313.45,197,313.45,197c2.33.34,6.24-.89,8.72-4.63s2.13-7.22,6.15-9.44c2-1.12,10.82-6.73,10.82-6.73l.26,1.84s3.13,8.37,2.66,13.77c-.37,4.25-1.75,4.86,0,7.65l2.23,5.57-5.11.71-1.68,10c.31.89,1.35,7.88-9.34,5.34,0,0-6.5-.53-6.72.81l.47,6.77c.2,2.89-1.51,6,1.06,7.34-3.35,2-6.46,4.23-8.17,5.48l-.35-.58s-18.2-6.26-21.71,10.48a47.68,47.68,0,0,1,3.35-16.94c3.66-13.12,3.26-19.95,3.26-19.95,3.4-.85,3.56-7.64,3.56-7.64-.17-4.35,4.68-6.24,4.68-6.24Zm29.89-4.45c.2-1.43-.14-2.65-.76-2.74s-1.28,1-1.47,2.43.14,2.65.76,2.73S337.45,197.54,337.64,196.12Z"/><path class="cls-4" d="M338.94,174.83l.2,1.39s-8.78,5.61-10.82,6.73c-4,2.22-3.67,5.71-6.15,9.44s-6.39,5-8.72,4.63c0,0-4.45-4.06-5.88,1.65a8.57,8.57,0,0,0,.18,1.9l-.14,0s-4.85,1.89-4.68,6.24c0,0-.16,6.79-3.56,7.64-1.86.46-6.78-7.4-6.78-7.4-4.77-7.25-3-18.22-3-18.22a27.77,27.77,0,0,1,7-15.43,19.88,19.88,0,0,1,3.53-3.15c.81-.47,1.61-.89,2.4-1.28C316.3,162.21,326.75,167.06,338.94,174.83Z"/><path d="M336.88,193.38c.62.09,1,1.31.76,2.74s-.85,2.51-1.47,2.42-1-1.31-.76-2.73S336.26,193.3,336.88,193.38Z"/><path class="cls-2" d="M321.12,482.54s2.32,10.7,11.39,16.23c-6.71,5.4-12.16,11-15.09,16.46,0,0-1.64,10.93-7,18.62a37.53,37.53,0,0,0-3.41,6.09A42.18,42.18,0,0,0,303.91,550l.6,3.46a1.73,1.73,0,0,1-2.31,1.9,5.37,5.37,0,0,1-3.82-4.55V546s-2.66-1.42-2.25-6.88,4.91-11.74,3.48-18.82S290,515,289.79,504.71s7.78-7.89,12.89-9.31c2.76-.76,10.1-5.79,18.43-12.87Z"/><path class="cls-4" d="M302.25,168.39l.29.6c-.79.39-1.59.81-2.4,1.28a19.88,19.88,0,0,0-3.53,3.15l-.08-.07c-6.82,5.8-12.08-.53-12.24-4.09-.23-5,5.37-12.58,12.39-9.79S302.25,168.39,302.25,168.39Z"/><path class="cls-5" d="M313.45,197s-4.45-4.06-5.88,1.65a8.57,8.57,0,0,0,.18,1.9,8,8,0,0,0,4.57,5.94s3.11.87,1.76-2.84"/><path class="cls-5" d="M314.24,211.14s.29,5.35,4.88,6.65"/><path class="cls-5" d="M339.14,176.22s-8.78,5.61-10.82,6.73c-4,2.22-3.67,5.71-6.15,9.44s-6.39,5-8.72,4.63"/><path class="cls-5" d="M302.25,168.39s1.46-6.12-5.57-8.92-12.62,4.81-12.39,9.79c.16,3.56,5.42,9.89,12.24,4.09"/><path class="cls-5" d="M289.61,188.85a27.77,27.77,0,0,1,7-15.43,19.88,19.88,0,0,1,3.53-3.15c.81-.47,1.61-.89,2.4-1.28,13.76-6.78,24.21-1.93,36.4,5.84l.2,1.39.26,1.84s3.13,8.37,2.66,13.77c-.37,4.25-1.75,4.86,0,7.65l2.23,5.57-5.11.71-1.68,10c.31.89,1.35,7.88-9.34,5.34,0,0-6.5-.53-6.72.81l.47,6.77c.2,2.89-1.51,6,1.06,7.34h0"/><path class="cls-5" d="M289.61,188.85s-1.79,11,3,18.22c0,0,4.92,7.86,6.78,7.4,3.4-.85,3.56-7.64,3.56-7.64-.17-4.35,4.68-6.24,4.68-6.24"/><path class="cls-5" d="M296.56,345.26c-5.73,11.91-14.18,24-13,36.23,0,0,1.23,13.56,12.59,29.34s9.83,18.51,18.73,29.74,20.08,24.79,20.08,29"/><path class="cls-5" d="M293.27,277.16a74.91,74.91,0,0,0,2,12.38c3,12.14,4.71,25.42,6.12,34.9,1,6.86-1.41,13.81-4.78,20.82"/><path class="cls-5" d="M299.37,214.47s.4,6.83-3.26,19.95a47.68,47.68,0,0,0-3.35,16.94q0,1.3,0,2.67c.2,7.57-.11,15.28.51,23.12"/><path class="cls-5" d="M328.18,266.59s1.86-.86,4.55-2c3.25-1.4,7.73-3.24,11.58-4.49,7-2.28,16.13-4.24,31.77-19.55,0,0,1.3-3.91,0-12.05a78.48,78.48,0,0,1-.74-8.24c-.36-7.5-.35-15.89-1.55-19.13-5.33-14.46-12.05-19.83-12.38-29.93A52.66,52.66,0,0,0,360,159.6a6.93,6.93,0,0,1,.09-3.91l4-12.13"/><path class="cls-5" d="M313.45,242.48s.51-.39,1.37-1c1.71-1.25,4.82-3.46,8.17-5.48,4-2.41,8.33-4.57,11.06-4.57,6.19,0,11.73,2.6,15.64,1.63s18.8-10.52,25.65-12.8"/><path class="cls-5" d="M361.9,161.57l.82-7a19.74,19.74,0,0,0,.34-5.51,1.81,1.81,0,0,1,1.78-2.1,1.78,1.78,0,0,1,1.38.65,8.73,8.73,0,0,1,1.89,5.72,12.35,12.35,0,0,0,2.18,7.27c2.36,3.31,5.53,7.85,6.36,9.44,1.38,2.61,1.22,7.66,1.22,7.66s8.54,19.29,14.92,35.49c3.4,8.62,6.18,16.36,6.75,19.87,1.63,10.1-5.33,15.47-19.68,21.71-15,6.52-32.84,9.54-40.49,13.77"/><path class="cls-5" d="M366.22,147.61s-.71-1.82-1.68-4.21c-1.27-3.14-3-7.26-4-9.45a2,2,0,0,1,.73-2.58,1.94,1.94,0,0,1,2.78.6c2.71,3.86,4.69,7.08,5.29,8.1"/><path class="cls-5" d="M371.41,116.37a.25.25,0,0,1,0,.12l0,.9"/><path class="cls-5" d="M369.42,141.76l-.11-1.69-1.47-23.38a1.8,1.8,0,0,1,1.46-1.88,1.84,1.84,0,0,1,.33,0,1.79,1.79,0,0,1,1.78,1.56"/><path class="cls-5" d="M380.17,129.93s-.12-.35-.31-1a66,66,0,0,1-2.44-14.29,1.47,1.47,0,0,0-2.94.1v.83"/><path class="cls-5" d="M393.23,213s-2.06-16.32-5.1-30.44-1.09-14.77-3-29.32c-1.85-13.77-2.34-23.65-.36-32.58a1.78,1.78,0,0,0-1.1-2.06,1.66,1.66,0,0,0-.62-.11,1.77,1.77,0,0,0-1.74,1.48l-1.41,8.94"/><path class="cls-5" d="M377.12,132.57a65.45,65.45,0,0,1-2.64-17c0-.92,0-1.86,0-2.81a1.67,1.67,0,0,0-1.59-1.85,1.6,1.6,0,0,0-1.61,1.59c0,.83,0,2.13.1,3.84v0l.06,1c0,.12,0,.23,0,.34.22,3.73.65,8.93,1.39,15.17"/><path class="cls-5" d="M371,441.62a37.61,37.61,0,0,0-8,3,63.7,63.7,0,0,0-20.58,16.66c-2.31,2.8-4.83,5.59-7.44,8.29-4.52,4.68-9.32,9.1-13.84,12.92-8.33,7.08-15.67,12.11-18.43,12.87-5.11,1.42-13.1-1-12.89,9.31s8.39,8.5,9.82,15.58-3.07,13.35-3.48,18.82,2.25,6.88,2.25,6.88v4.85a5.37,5.37,0,0,0,3.82,4.55,1.73,1.73,0,0,0,2.31-1.9l-.6-3.46a42.18,42.18,0,0,1,3.14-10.09,37.53,37.53,0,0,1,3.41-6.09c5.32-7.69,7-18.62,7-18.62,2.93-5.48,8.38-11.06,15.09-16.46,11.67-9.4,27.14-18.26,39.6-25.11,9.44-5.18,17.16-9.21,20.22-11.44,9.42-6.88,24.57-8.9,8.6-33.18s-47.26-46.94-59.54-53.82"/><path class="cls-5" d="M362.85,444.42c-1-17.2-22.25-67-22.25-67,.27-.72.54-1.47.79-2.23a125.42,125.42,0,0,0,4.75-20.64c3.05-19.64,3.23-40.73,2.31-46.13-1.32-7.68,8.68-16.18,4.58-25.89-2.35-5.57-8.69-10.67-13.66-14a73.49,73.49,0,0,0-6.64-4s4,17.89-16.74,21.43c-20.36,3.47-22.64-8.37-22.72-8.84h0"/><path class="cls-5" d="M302.2,555.39s-6.48,12-9.14,15.68c-1.7,2.34-2,7.67-2,11.19a4.07,4.07,0,0,0,3.53,4,74.67,74.67,0,0,0,13.17.62c9.62-.41,21.29,1.82,26,1.82,4,0,14.14,0,18.85-1.67a2.75,2.75,0,0,0,1.83-2.58,2.72,2.72,0,0,0-.6-1.71,2.76,2.76,0,0,0-1.55-1,93.06,93.06,0,0,1-14.64-4.62c-8.8-3.64-15.55-6.07-17.6-7.89-1.84-1.64-3.85-9.82,5.17-23.1q1.5-2.22,3.43-4.62c12.89-16,25.71-41.23,28-47.3s13.67-14.38,15.47-20.56"/><path class="cls-5" d="M307.05,539.94s8.21,6.58,18.2,6.21"/><path class="cls-5" d="M321.12,482.54s2.32,10.7,11.39,16.23"/><path class="cls-5" d="M314.47,240.88s-18.2-6.26-21.71,10.48"/><path class="cls-5" d="M296.56,345.26h0c.55-.06,18.51-1.93,29,3.26a62.43,62.43,0,0,0,20.32,6"/></svg>