<svg id="Layer_1" data-name="Layer 1" xmlns="http://www.w3.org/2000/svg" viewBox="0 0 700 700"><defs><style>.cls-1{fill:#feae63;}.cls-2{fill:#99abcc;}.cls-3{fill:#c4e7f9;}.cls-4{fill:#392328;}.cls-5{fill:none;stroke:#000;stroke-linecap:round;stroke-linejoin:round;stroke-width:2.3px;}</style></defs><title>Yoga_poses_2020_color</title><path class="cls-1" d="M337,347.38c-15,10.67-25.86,6.87-25.86,6.87h0a202.7,202.7,0,0,1,.32-22.24h0c3.72-30.45,27.33-27.86,27.33-27.86,10.26.65,18.9,12.05,23,21.83.31.75.65,1.51,1,2.26,4,8.17,10.88,16.26,17.59,24.66.68.85,1.36,1.7,2,2.56,7.93,10.1,14.71,13.85,20.08,17.59s27.71,23.46,31.61,26.88c2.88,2.54,11.65,8.4,16,11.28a23.94,23.94,0,0,1,4.8,4.13,147.44,147.44,0,0,1,14.81,19.27,4.52,4.52,0,0,1,.53,3.55l-3.5,13.26a3.86,3.86,0,0,1-.93,1.69l-4.2,4.43-.05.13a5.49,5.49,0,0,1-2.12,2.74l-1.59,1.08a2,2,0,0,1-1.11.34,2,2,0,0,1-1.53-3.22l1.55-1.9,0,0a5.67,5.67,0,0,0,.89-1.54l.87-2.28a5.55,5.55,0,0,0,.36-2l.89-8.1-3.64,9.63a1.57,1.57,0,0,1-1.48,1,1.58,1.58,0,0,1-1.57-1.86c.46-2.6,1.86-10.63,2.13-13.35.33-3.25-.49-5.86-6.35-8.3a11.67,11.67,0,0,1-3.33-2.07,9.12,9.12,0,0,1-2.51-3.77,5.77,5.77,0,0,0-2.11-2.76l-1.17-.85C391.71,398.79,390.9,391,382.38,385.6c-.87-.55-2-1.37-3.37-2.39h0c-11.81-8.93-39.42-33.6-39.42-33.6Z"/><path class="cls-2" d="M305.14,422.79h0c2.43-6.21,4.45-10.48,5.94-14.52l.63.23s42.14,5.8,70,1.51h0c2,9.83,4.86,14.3,7.71,18.24,12.19-1.46,21-2.85,33.1-3.76,14.33-1.09,23.06,3.36,23.06,3.36a11.67,11.67,0,0,0,3.33,2.07c5.86,2.44,6.68,5,6.35,8.3-.27,2.72-1.67,10.75-2.13,13.35a1.58,1.58,0,0,0,1.57,1.86,1.57,1.57,0,0,0,1.48-1l3.64-9.63-.89,8.1a5.55,5.55,0,0,1-.36,2l-.87,2.28a5.67,5.67,0,0,1-.89,1.54l0,0c-.61.65-8.83,9.09-25.35,12.29-6.4,1.24-15.12,1.13-24,.39a340.32,340.32,0,0,1-39.38-6c-9.46-1.89-13.12-2-17.83-2.88,0,0,3.22,5.74-1.09,13.21-2.67-.22-6.1-.65-10.45-1.41-11.24-2-53.92,5.54-72.65,0s-34.21-15-35.84-23.47.49-21.34,16.78-23.94C257.65,423.13,286.66,422.81,305.14,422.79Zm41.75,37a20.68,20.68,0,0,1,3.29-14.41c-2.23.19-4.19.33-5.63.43a5.9,5.9,0,0,1-4.25-1.37c-5.89-5.1-11.27-4.47-14.45-1.29a32,32,0,0,1-8.21,5.62c7.73,3.76,9,4.93,21.24,8.77C342.21,458.59,344.75,459.29,346.89,459.79Z"/><path class="cls-1" d="M407.36,469.39s-26.24,3.19-33.73,4.17-14.82-.49-16.78,0c-1.19.3-3.55.48-7.79.12,4.31-7.47,1.09-13.21,1.09-13.21,4.71.86,8.37,1,17.83,2.88A340.32,340.32,0,0,0,407.36,469.39Z"/><path class="cls-1" d="M343.18,268.4a8.88,8.88,0,0,1-.15-2c1.61-6.07,6.3-1.67,6.3-1.67,2.49.4,6.69-.86,9.39-4.82s2.37-7.68,6.7-10c2.19-1.17,11.65-7,11.65-7l.25,2s3.23,9,2.65,14.75c-.46,4.54-1.94,5.16-.09,8.17l2.3,6-5.47.69-1.93,10.61c.31,1,1.32,8.44-10.06,5.57,0,0-4.87-1.16-7.19.76-4.09,3.4-5.29,8.31-5.74,10.81a6.51,6.51,0,0,0,2,5.55c3.35,2.91,5.81,7,17.06,17.91-2.1,2.92-8.05,2.59-8.05,2.59-.37-.75-.71-1.51-1-2.26-4.07-9.78-12.71-21.18-23-21.83,0,0-23.61-2.59-27.33,27.86h0c.38-5.24.85-8.15.85-8.15,1.66-9.6,8.42-18.46,10.56-21.14,3.92-4.9,6.91-12.05,8.09-22.54l.14-.31c3,1.94,5.33,0,6.89-4.81,2.05-5.62,5.08-6.6,5.08-6.6Zm32-4.28c.23-1.52-.12-2.84-.78-2.94s-1.38,1.05-1.61,2.57.12,2.84.78,2.94S375,265.63,375.19,264.12Z"/><path class="cls-3" d="M381.69,410h0c-27.83,4.29-70-1.51-70-1.51l-.63-.23c3-8.16,3.86-15.38,1.46-35.69-.78-6.63-1.22-12.78-1.43-18.32h0s10.89,3.8,25.86-6.87l2.58,2.22S367.2,374.27,379,383.2h0C379.43,395.19,380.39,403.7,381.69,410Z"/><path class="cls-3" d="M370.81,325.65c14.43,14,9.54,27.25,9.54,27.25-6.71-8.4-13.61-16.49-17.59-24.66C362.76,328.24,368.71,328.57,370.81,325.65Z"/><path class="cls-4" d="M376.88,241.39l.19,1.5s-9.46,5.86-11.65,7c-4.33,2.31-4,6-6.7,10s-6.9,5.22-9.39,4.82c0,0-4.69-4.4-6.3,1.67a8.88,8.88,0,0,0,.15,2l-.14.06s-3,1-5.08,6.6c-1.56,4.78-3.91,6.75-6.89,4.81a15.38,15.38,0,0,1-4.16-4.7c-5-7.82-2.92-19.51-2.92-19.51a29.67,29.67,0,0,1,7.7-16.38A21.46,21.46,0,0,1,335.5,236c.88-.49,1.74-.94,2.59-1.34C352.89,227.59,364,232.93,376.88,241.39Z"/><path d="M374.41,261.18c.66.1,1,1.42.78,2.94s-.95,2.67-1.61,2.57-1-1.42-.78-2.94S373.75,261.08,374.41,261.18Z"/><path class="cls-1" d="M350.18,445.38a20.68,20.68,0,0,0-3.29,14.41c-2.14-.5-4.68-1.2-8-2.25-12.25-3.84-13.51-5-21.24-8.77a32,32,0,0,0,8.21-5.62c3.18-3.18,8.56-3.81,14.45,1.29a5.9,5.9,0,0,0,4.25,1.37C346,445.71,348,445.57,350.18,445.38Z"/><path class="cls-4" d="M337.79,234l.3.64c-.85.4-1.71.85-2.59,1.34a21.46,21.46,0,0,0-3.81,3.31l-.08-.07c-7.37,6.1-12.91-.74-13-4.55-.16-5.32,5.92-13.36,13.39-10.27S337.79,234,337.79,234Z"/><path class="cls-5" d="M317.59,448.8l.05,0a32,32,0,0,0,8.21-5.62c3.18-3.18,8.56-3.81,14.45,1.29a5.9,5.9,0,0,0,4.25,1.37c1.44-.1,3.4-.24,5.63-.43,6.17-.51,14.5-1.34,20.19-2.44,10.1-2,28-12.89,52.13-8.56"/><path class="cls-5" d="M407.36,469.39s-26.24,3.19-33.73,4.17-14.82-.49-16.78,0c-1.19.3-3.55.48-7.79.12-2.67-.22-6.1-.65-10.45-1.41-11.24-2-53.92,5.54-72.65,0s-34.21-15-35.84-23.47.49-21.34,16.78-23.94c10.75-1.73,39.76-2.05,58.24-2.07,9.52,0,16.24,0,16.24,0"/><path class="cls-5" d="M330.93,280.18c-1.18,10.49-4.17,17.64-8.09,22.54-2.14,2.68-8.9,11.54-10.56,21.14,0,0-.47,2.91-.85,8.15a202.7,202.7,0,0,0-.32,22.24c.21,5.54.65,11.69,1.43,18.32,2.4,20.31,1.56,27.53-1.46,35.69-1.49,4-3.51,8.31-5.94,14.52"/><path class="cls-5" d="M379,383.21c1.35,1,2.5,1.84,3.37,2.39,8.52,5.37,9.33,13.19,57.39,34.86l1.17.85a5.77,5.77,0,0,1,2.11,2.76,9.12,9.12,0,0,0,2.51,3.77,11.67,11.67,0,0,0,3.33,2.07c5.86,2.44,6.68,5,6.35,8.3-.27,2.72-1.67,10.75-2.13,13.35a1.58,1.58,0,0,0,1.57,1.86,1.57,1.57,0,0,0,1.48-1l3.64-9.63,1.14-9.4"/><path class="cls-5" d="M330.14,341.45l6.87,5.93,2.58,2.22S367.2,374.27,379,383.2"/><path class="cls-5" d="M456.75,456.71l-1.55,1.9a2,2,0,0,0,2.64,2.88l1.59-1.08a5.49,5.49,0,0,0,2.12-2.74l.05-.13,2.9-8.2a5.29,5.29,0,0,0,.27-1.11l1.71-11.79"/><path class="cls-5" d="M459.8,442.77l-.89,8.1a5.55,5.55,0,0,1-.36,2l-.87,2.28a5.67,5.67,0,0,1-.89,1.54"/><path class="cls-5" d="M461.6,457.54l4.2-4.43a3.86,3.86,0,0,0,.93-1.69l3.5-13.26a4.52,4.52,0,0,0-.53-3.55,147.44,147.44,0,0,0-14.81-19.27,23.94,23.94,0,0,0-4.8-4.13c-4.37-2.88-13.14-8.74-16-11.28-3.9-3.42-26.23-23.13-31.61-26.88s-12.15-7.49-20.08-17.59c-.67-.86-1.35-1.71-2-2.56-6.71-8.4-13.61-16.49-17.59-24.66-.37-.75-.71-1.51-1-2.26-4.07-9.78-12.71-21.18-23-21.83,0,0-23.61-2.59-27.33,27.86"/><path class="cls-5" d="M266.55,436.64s24.33.22,41.71,7.82c4.06,1.78,7,3.16,9.38,4.31,7.73,3.76,9,4.93,21.24,8.77,3.33,1,5.87,1.75,8,2.25,1.18.28,2.25.5,3.26.68,4.71.86,8.37,1,17.83,2.88a340.32,340.32,0,0,0,39.38,6c8.92.74,17.64.85,24-.39,16.52-3.2,24.74-11.64,25.35-12.29l0,0"/><path class="cls-5" d="M350.15,460.47s3.22,5.74-1.09,13.21h0"/><path class="cls-5" d="M350.18,445.38a20.68,20.68,0,0,0-3.29,14.41"/><path class="cls-5" d="M445.56,427.84s-8.73-4.45-23.06-3.36c-12.14.91-20.91,2.3-33.1,3.76-2.21.27-4.54.53-7,.8"/><path class="cls-5" d="M389.4,428.24c-2.85-3.94-5.69-8.41-7.71-18.24-1.3-6.3-2.26-14.81-2.68-26.79h0"/><path class="cls-5" d="M362.76,328.24s5.95.33,8.05-2.59"/><path class="cls-5" d="M311.15,354.25s10.89,3.8,25.86-6.87"/><path class="cls-5" d="M349.33,264.73s-4.69-4.4-6.3,1.67a8.88,8.88,0,0,0,.15,2,8.62,8.62,0,0,0,4.82,6.45s3.3,1,1.91-3"/><path class="cls-5" d="M350,279.83s.23,5.72,5.12,7.16"/><path class="cls-5" d="M377.07,242.89s-9.46,5.86-11.65,7c-4.33,2.31-4,6-6.7,10s-6.9,5.22-9.39,4.82"/><path class="cls-5" d="M337.79,234s1.64-6.52-5.82-9.6-13.55,5-13.39,10.27c.12,3.81,5.66,10.65,13,4.55"/><path class="cls-5" d="M343,268.46s-3,1-5.08,6.6c-1.56,4.78-3.91,6.75-6.89,4.81a15.38,15.38,0,0,1-4.16-4.7c-5-7.82-2.92-19.51-2.92-19.51"/><path class="cls-5" d="M380.35,352.9s4.89-13.23-9.54-27.25c-11.25-10.92-13.71-15-17.06-17.91a6.51,6.51,0,0,1-2-5.55c.45-2.5,1.65-7.41,5.74-10.81,2.32-1.92,7.19-.76,7.19-.76,11.38,2.87,10.37-4.61,10.06-5.57l1.93-10.61,5.47-.69-2.3-6c-1.85-3-.37-3.63.09-8.17.58-5.76-2.65-14.75-2.65-14.75l-.25-2-.19-1.5c-12.91-8.46-24-13.8-38.79-6.76-.85.4-1.71.85-2.59,1.34a21.46,21.46,0,0,0-3.81,3.31,29.67,29.67,0,0,0-7.7,16.38"/><path class="cls-5" d="M311.71,408.49s42.14,5.8,70,1.51"/><path class="cls-5" d="M358.63,366.31s-2.59,3.22-9.43,5.28"/></svg>