<svg id="Layer_1" data-name="Layer 1" xmlns="http://www.w3.org/2000/svg" viewBox="0 0 700 700"><defs><style>.cls-1{fill:#feae63;}.cls-2{fill:#99abcc;}.cls-3{fill:#c4e7f9;}.cls-4{fill:#392328;}.cls-5{fill:none;stroke:#000;stroke-linecap:round;stroke-linejoin:round;stroke-width:2.3px;}</style></defs><title>Yoga_poses_2020_color</title><path class="cls-1" d="M454.69,443.35l-.46.6a1.4,1.4,0,0,1-1.9.16l-.2-.14a1.45,1.45,0,0,1-.44-1.76c1.75-3.87,3.32-10,2.84-13.59-.53-3.88-3.7-8.46-3.7-8.46v5.11l1.06,3.18c.17,6.34-3,6-3,6a11.51,11.51,0,0,0-.19-1.33,18.86,18.86,0,0,0-3.16-6.78s.18-9.52.35-12.34,2.47-3.17,4.41-7.05a11.2,11.2,0,0,0,.87-2.52l-.52-.12q-2.06-1.24-3.73-2.35c-12.21-8.06-10-11.11-13.72-17.57-4.05-7.05-11.28-18.51-15.33-29.79A184.08,184.08,0,0,1,411.52,332a36.48,36.48,0,0,1-2.12,7.58c-1,2.54-2.12,5.66-3.13,9,0-6.9-2.61-11.93-5.32-20.27a98.38,98.38,0,0,1,.18-22.85l.24-.74a60,60,0,0,0,8.3,2.12s8.49,1.31,10.31,3.59a56.33,56.33,0,0,1,10.93,24.37c2,12.53,9.12,26.2,11.85,32.81s8,11.62,12.3,18.68,3.42,8.66,4.79,10,5.46,3.42,6.38,7.29-.15,3.66,5.24,16.41a5.34,5.34,0,0,1,.29,3.28c-.24,1-.56,2.42-.9,4a26.49,26.49,0,0,0-2.58,4.54,38.56,38.56,0,0,1-2.78,6.05,35,35,0,0,1-5.33,7.34l-1.38-.23c-.46.75-.89,1.44-1.26,2a2.23,2.23,0,0,1-3.12.66,2.25,2.25,0,0,1-.66-3.06l.48-.63a.57.57,0,0,0,.13-.14Z"/><path class="cls-1" d="M468.28,431.8a26.49,26.49,0,0,1,2.58-4.54c-1.12,5.05-2.56,11.79-2.81,13.26a2.45,2.45,0,0,1-2.33-2.55l-.22-.12A38.56,38.56,0,0,0,468.28,431.8Z"/><path class="cls-2" d="M332.11,411.09s1.26-3.79,2.78-8.15l.25.09s19.05,3.41,32.69,3.21,36.5-2.81,36.5-2.81l.49-.16c1.43,4.09,2.58,7.56,2.58,7.56a101.35,101.35,0,0,0,25.38-6.65A34.59,34.59,0,0,1,446.87,402l.05-.08q1.68,1.11,3.73,2.35l.52.12a11.2,11.2,0,0,1-.87,2.52c-1.94,3.88-4.23,4.23-4.41,7.05s-.35,12.34-.35,12.34a18.86,18.86,0,0,1,3.16,6.78l-.39.08a29.86,29.86,0,0,1-13.93,8.68l-1.06.05a6.48,6.48,0,0,0-1.33-.35c-2.54-.39-11.1,3-11.1,3s-19.49,4.71-25.77,4c-2-.22-5.6-.89-9.77-1.81l-.17.75-4.15,15,0,.18c-1.29-.13-2.43-.28-3.36-.45-5-.91-24.21-2.75-38.84-4.17-7-.7-13-1.29-15.84-1.65a71.23,71.23,0,0,1-12.54-3.08c-1.3-.43-2.6-.88-3.88-1.34l-.52-.19c-1.85-.67-3.65-1.37-5.36-2.05-7.19-2.88-12.72-5.57-12.72-5.57h-.9l.2-.13.19-.14a1.45,1.45,0,0,0,.45-1.76c-1.75-3.87-3.33-10-2.84-13.59.52-3.88,3.7-8.46,3.7-8.46v5.11l-1.06,3.18c-.18,6.34,3,6,3,6,.35-4.23,3.35-8.11,3.35-8.11s-.18-9.52-.36-12.34c-.11-1.76-1-2.56-2.2-3.86l.67-.09C292.6,410.19,314.74,412.6,332.11,411.09Z"/><path class="cls-1" d="M438.75,461.44l-.1.69A1.83,1.83,0,0,1,436.7,464l-5.27-.32s-10.76-1.8-18.38-.9c-6.66.79-23.08.89-32,0l0-.18,4.15-15,.17-.75c4.17.92,7.76,1.59,9.77,1.81,6.28.68,25.77-4,25.77-4s8.56-3.41,11.1-3a6.48,6.48,0,0,1,1.33.35,16.47,16.47,0,0,0,3.71,1.69,10.89,10.89,0,0,1,3.11,1.4l2.62,1.69A2.86,2.86,0,0,1,441.2,452H441l-5.08-.4,6.76,2.7a1.56,1.56,0,0,1,1,1.57,1.59,1.59,0,0,1-1.57,1.47H442l-5.26-.45,3.43,1.79a1.54,1.54,0,0,1-.72,2.91Z"/><path class="cls-3" d="M406.27,348.59h0a164.8,164.8,0,0,0-4.45,18.32c-1.41,8.11-3.7,20.28-1.76,24,1,2,3.09,7.61,4.76,12.37l-.49.16s-22.86,2.61-36.5,2.81S335.14,403,335.14,403l-.25-.09c1.65-4.72,3.62-10.11,4.63-12,1.94-3.7-.36-15.87-1.77-24a166.52,166.52,0,0,0-4.55-18.68h0c0-5.52,4.49-15.25,5.61-20.55,0,0,20.33,15.32,62.14.64C403.66,336.66,406.27,341.69,406.27,348.59Z"/><path class="cls-1" d="M401.37,304.73l-.24.74a98.38,98.38,0,0,0-.18,22.85c-41.81,14.68-62.14-.64-62.14-.64a151.18,151.18,0,0,0-.6-22.21l-.21-.67a108.43,108.43,0,0,0,15.82-6.37c3.75-2.12,4.51-8.28,4.27-14.62l.08-.11c2.62,1.89,6.59,3.4,12.55,3.29a22,22,0,0,0,10.77-3.14c-.24,6.33.53,12.46,4.26,14.58A108.22,108.22,0,0,0,401.37,304.73Z"/><path class="cls-1" d="M393,259.07s.31,5-2.17,8.12c0,0-1.53,1.41-1-2.26l-.33-.05c.05-.32.08-.63.11-.93l.36-5.89.33,0C391,257,392.31,255.36,393,259.07Z"/><path class="cls-4" d="M349,255.68c-.11.71-.13,1.13-.13,1.13s-5.19-15.66,3.83-23.69a21.11,21.11,0,0,1,6.87-4.09c8-3,16.51-1.17,19.4-.39.66.18,1,.3,1,.3,18.37,7.37,10.33,27.24,10.33,27.24a5.94,5.94,0,0,0-.12-.78,43.9,43.9,0,0,0-2.12-6.65c-3.78-9.81-17.32-9.83-17.32-9.83C352.77,239.05,349.52,251.76,349,255.68Z"/><path class="cls-1" d="M381.49,283.85A22,22,0,0,1,370.72,287c-6,.11-9.93-1.4-12.55-3.29a12.47,12.47,0,0,1-4.93-6.93c-.82-3.06-2.72-8.79-3.26-11.93-.07-.45-.12-.85-.14-1.18l-.68-6.1-.21-1.88c.57-3.92,3.82-16.63,21.77-16.76,0,0,13.54,0,17.32,9.83a43.9,43.9,0,0,1,2.12,6.65l-.17,2.66-.36,5.89c0,.3-.06.61-.11.93-.55,4-2.36,9.09-2.91,11.59A11.51,11.51,0,0,1,381.49,283.85Zm-2.57-22.24a2.32,2.32,0,1,0-2-2.28A2.16,2.16,0,0,0,378.92,261.61Zm-18.11-.25a2.32,2.32,0,1,0-2-2.28A2.15,2.15,0,0,0,360.81,261.36Z"/><path d="M380.89,259.3a2,2,0,1,1-2-2.28A2.16,2.16,0,0,1,380.89,259.3Z"/><path class="cls-4" d="M380.05,228.62l-1.13,0c-2.89-.78-11.4-2.6-19.4.39l-.16-.41c0-5.35,4.63-9.7,10.34-9.7S380.05,223.27,380.05,228.62Z"/><path d="M362.77,259.05a2,2,0,1,1-2-2.28A2.15,2.15,0,0,1,362.77,259.05Z"/><path class="cls-1" d="M350,264.84l-.22,0c.72,3.64-.87,2.3-.87,2.3-2.6-3-2.51-8-2.51-8,.44-3.22,1.56-2.47,2.3-1.54l.48-.05.68,6.1C349.86,264,349.91,264.39,350,264.84Z"/><path class="cls-1" d="M288.4,404.42a11.74,11.74,0,0,0,.88,2.52,13.84,13.84,0,0,0,2.2,3.19c1.16,1.3,2.09,2.1,2.2,3.86.18,2.82.36,12.34.36,12.34s-3,3.88-3.35,8.11c0,0-3.18.35-3-6l1.06-3.18v-5.11s-3.18,4.58-3.7,8.46c-.49,3.54,1.09,9.72,2.84,13.59a1.45,1.45,0,0,1-.45,1.76l-.19.14-.2.13a1.4,1.4,0,0,1-1.76-.36l-.35-.45.28.38a.46.46,0,0,0,.07.07l.53.7a2.28,2.28,0,0,1,.35,1.19,2.24,2.24,0,0,1-4.12,1.21c-.37-.58-.8-1.27-1.26-2l-1.39.23a35.69,35.69,0,0,1-5.33-7.34,38.17,38.17,0,0,1-2.77-6.05,26.37,26.37,0,0,0-2.58-4.53h0c-.33-1.54-.65-2.93-.89-4a5.34,5.34,0,0,1,.29-3.28c5.38-12.75,4.37-12.68,5.24-16.41s5-5.92,6.38-7.29.46-3,4.78-10,9.57-12.07,12.31-18.68,9.79-20.28,11.84-32.81,9.12-22.09,10.94-24.37,10.31-3.59,10.31-3.59A60.79,60.79,0,0,0,338,304.8l.21.67a151.18,151.18,0,0,1,.6,22.21c-1.12,5.3-5.6,15-5.61,20.55-1-3.2-2-6.18-3-8.63a36.73,36.73,0,0,1-2.11-7.58,184.08,184.08,0,0,1-6.35,22.57c-4,11.28-11.28,22.74-15.33,29.79s-1.06,10-17.46,19.92Z"/><path class="cls-1" d="M305,459.42a1.63,1.63,0,0,1-1.78-.84l-.54-1,.1-.56a1.56,1.56,0,0,0,1.22,0l6.32-2.62.1-1A71.23,71.23,0,0,0,323,456.47c2.83.36,8.81.95,15.84,1.65l0,.25a74.47,74.47,0,0,1-15.17.83c-1.76,0-8.94,1.41-11.41,1.76-1.57.23-3.66.4-5,.5a1.82,1.82,0,0,1-1.78-1l-.41-.87Z"/><path class="cls-1" d="M310.43,453.39l-.1,1L304,457a1.56,1.56,0,0,1-1.22,0,1.5,1.5,0,0,1-.76-.71l-.18-.42a1.42,1.42,0,0,1,.73-1.88l3.89-1.7.08-.23C307.83,452.51,309.13,453,310.43,453.39Z"/><path class="cls-1" d="M306,451.86l-3.74,1.59a1.51,1.51,0,0,1-.71.17,1.58,1.58,0,0,1-1.39-.83c-.58-.92-.82-2.35,0-2.74l.48-.23h0C302.38,450.49,304.18,451.19,306,451.86Z"/><path class="cls-1" d="M271.3,431.8a38.17,38.17,0,0,0,2.77,6.05l-.22.12a2.44,2.44,0,0,1-2.32,2.55c-.25-1.47-1.69-8.2-2.81-13.25A26.37,26.37,0,0,1,271.3,431.8Z"/><path class="cls-5" d="M359.36,228.62c0-5.35,4.63-9.7,10.34-9.7s10.35,4.35,10.35,9.7"/><path class="cls-5" d="M349,255.68c.57-3.92,3.82-16.63,21.77-16.76,0,0,13.54,0,17.32,9.83a43.9,43.9,0,0,1,2.12,6.65,5.94,5.94,0,0,1,.12.78s8-19.87-10.33-27.24c0,0-.37-.12-1-.3-2.89-.78-11.4-2.6-19.4.39a21.11,21.11,0,0,0-6.87,4.09c-9,8-3.83,23.69-3.83,23.69S348.84,256.39,349,255.68Z"/><path class="cls-5" d="M390.32,258.08c.64-1.06,2-2.72,2.66,1,0,0,.31,5-2.17,8.12,0,0-1.53,1.41-1-2.26"/><path class="cls-5" d="M348.68,257.61c-.74-.93-1.86-1.68-2.3,1.54,0,0-.09,5,2.51,8,0,0,1.59,1.34.87-2.3"/><path class="cls-5" d="M348.85,254.82l.1.86.21,1.88.68,6.1c0,.33.07.73.14,1.18.54,3.14,2.44,8.87,3.26,11.93a12.47,12.47,0,0,0,4.93,6.93c2.62,1.89,6.59,3.4,12.55,3.29a22,22,0,0,0,10.77-3.14,11.51,11.51,0,0,0,5.12-7.38c.55-2.5,2.36-7.59,2.91-11.59.05-.32.08-.63.11-.93l.36-5.89.17-2.66.07-1.2"/><path class="cls-5" d="M371.41,267a4.3,4.3,0,0,1-4.43-.13"/><polyline class="cls-5" points="364.68 274.43 365.62 274.81 368.58 273.94 369.69 274.62 370.92 273.97 373.57 274.92 374.43 274.69"/><line class="cls-5" x1="368.51" y1="279.36" x2="371.06" y2="279.4"/><path class="cls-5" d="M268.72,427.27c1.12,5.05,2.56,11.78,2.81,13.25a2.44,2.44,0,0,0,2.32-2.55"/><path class="cls-5" d="M358.09,283.81c.24,6.34-.52,12.5-4.27,14.62A108.43,108.43,0,0,1,338,304.8a60.79,60.79,0,0,1-8.09,2.05s-8.49,1.31-10.31,3.59-8.89,11.84-10.94,24.37-9.11,26.2-11.84,32.81-8,11.62-12.31,18.68-3.41,8.66-4.78,10-5.47,3.42-6.38,7.29.14,3.66-5.24,16.41a5.34,5.34,0,0,0-.29,3.28c.24,1,.56,2.42.89,4"/><path class="cls-5" d="M333.2,348.24a166.52,166.52,0,0,1,4.55,18.68c1.41,8.11,3.71,20.28,1.77,24-1,1.93-3,7.32-4.63,12-1.52,4.36-2.78,8.15-2.78,8.15s15.71-.84,25.89,18.15"/><path class="cls-5" d="M288.92,404.3c16.4-9.88,13.4-12.87,17.46-19.92s11.28-18.51,15.33-29.79A184.08,184.08,0,0,0,328.06,332a36.73,36.73,0,0,0,2.11,7.58c1,2.45,2.05,5.43,3,8.63"/><path class="cls-5" d="M284.88,443.35a45.16,45.16,0,0,1-4.26-6.65c-.71-1.94-.69-7.55-1.92-9.84"/><path class="cls-5" d="M288,397.07a24.78,24.78,0,0,0,.36,7.35,11.74,11.74,0,0,0,.88,2.52,13.84,13.84,0,0,0,2.2,3.19c1.16,1.3,2.09,2.1,2.2,3.86.18,2.82.36,12.34.36,12.34s-3,3.88-3.35,8.11c0,0-3.18.35-3-6l1.06-3.18v-5.11s-3.18,4.58-3.7,8.46c-.49,3.54,1.09,9.72,2.84,13.59a1.45,1.45,0,0,1-.45,1.76l-.19.14-.2.13a1.4,1.4,0,0,1-1.76-.36.46.46,0,0,1-.07-.07l-.28-.38"/><path class="cls-5" d="M272.18,425.8a35.9,35.9,0,0,1,3.36,8.58c.73,2.76,3.27,7.31,5.25,10.58.46.75.89,1.44,1.26,2a2.24,2.24,0,0,0,4.12-1.21,2.28,2.28,0,0,0-.35-1.19l-.53-.7-.35-.45-.06-.08"/><path class="cls-5" d="M268.71,427.26h0a26.37,26.37,0,0,1,2.58,4.53,38.17,38.17,0,0,0,2.77,6.05,35.69,35.69,0,0,0,5.33,7.34"/><path class="cls-5" d="M381.49,283.81v0c-.24,6.33.53,12.46,4.26,14.58a108.22,108.22,0,0,0,15.62,6.3,60,60,0,0,0,8.3,2.12s8.49,1.31,10.31,3.59a56.33,56.33,0,0,1,10.93,24.37c2,12.53,9.12,26.2,11.85,32.81s8,11.62,12.3,18.68,3.42,8.66,4.79,10,5.46,3.42,6.38,7.29-.15,3.66,5.24,16.41a5.34,5.34,0,0,1,.29,3.28c-.24,1-.56,2.42-.9,4-1.12,5.05-2.56,11.79-2.81,13.26a2.45,2.45,0,0,1-2.33-2.55"/><path class="cls-5" d="M451.53,397.07a24.78,24.78,0,0,1-.36,7.35,11.2,11.2,0,0,1-.87,2.52c-1.94,3.88-4.23,4.23-4.41,7.05s-.35,12.34-.35,12.34a18.86,18.86,0,0,1,3.16,6.78,11.51,11.51,0,0,1,.19,1.33s3.17.35,3-6l-1.06-3.18v-5.11s3.17,4.58,3.7,8.46c.48,3.54-1.09,9.72-2.84,13.59a1.45,1.45,0,0,0,.44,1.76l.2.14a1.4,1.4,0,0,0,1.9-.16.57.57,0,0,0,.13-.14l.33-.46A45.34,45.34,0,0,0,459,436.7c.7-1.94.68-7.55,1.92-9.84"/><path class="cls-5" d="M467.4,425.8a35.9,35.9,0,0,0-3.36,8.58c-.74,2.76-3.27,7.31-5.25,10.58-.46.75-.89,1.44-1.26,2a2.23,2.23,0,0,1-3.12.66,2.25,2.25,0,0,1-.66-3.06l.48-.63.46-.6"/><path class="cls-5" d="M470.86,427.26a26.49,26.49,0,0,0-2.58,4.54,38.56,38.56,0,0,1-2.78,6.05,35,35,0,0,1-5.33,7.34"/><path class="cls-5" d="M292.15,410c.45.15,22.59,2.56,40,1"/><path class="cls-5" d="M300.06,415.15c5.09,1.76,4.76,4.79,4.76,4.79,38.54,5.6,49.75,16.58,56,19.72,4.27,2.13,15.68,5.2,24.51,7.15,4.17.92,7.76,1.59,9.77,1.81,6.28.68,25.77-4,25.77-4s8.56-3.41,11.1-3a6.48,6.48,0,0,1,1.33.35,16.47,16.47,0,0,0,3.71,1.69,10.89,10.89,0,0,1,3.11,1.4l2.62,1.69A2.86,2.86,0,0,1,441.2,452H441l-5.08-.4,6.76,2.7a1.56,1.56,0,0,1,1,1.57,1.59,1.59,0,0,1-1.57,1.47H442l-5.26-.45,3.43,1.79a1.54,1.54,0,0,1-.72,2.91l-.65-.1-3.37-.49"/><path class="cls-5" d="M288,444.24s5.53,2.69,12.72,5.57c1.71.68,3.51,1.38,5.36,2.05l.52.19c1.28.46,2.58.91,3.88,1.34A71.23,71.23,0,0,0,323,456.47c2.83.36,8.81.95,15.84,1.65,14.63,1.42,33.84,3.26,38.84,4.17.93.17,2.07.32,3.36.45,9,.89,25.38.79,32,0,7.62-.9,18.38.9,18.38.9l5.27.32a1.83,1.83,0,0,0,1.95-1.83"/><path class="cls-5" d="M406.27,348.6a164.8,164.8,0,0,0-4.45,18.32c-1.41,8.11-3.7,20.28-1.76,24,1,2,3.09,7.61,4.76,12.37,1.43,4.09,2.58,7.56,2.58,7.56-13.75.28-22,9.94-25.26,14.76"/><path class="cls-5" d="M450.65,404.3q-2.06-1.24-3.73-2.35c-12.21-8.06-10-11.11-13.72-17.57-4.05-7.05-11.28-18.51-15.33-29.79A184.08,184.08,0,0,1,411.52,332a36.48,36.48,0,0,1-2.12,7.58c-1,2.54-2.12,5.66-3.13,9"/><path class="cls-5" d="M407.4,410.83a101.35,101.35,0,0,0,25.38-6.65A34.59,34.59,0,0,1,446.87,402"/><path class="cls-5" d="M436.69,411.11a17.94,17.94,0,0,0-5.38,0,68.81,68.81,0,0,0-11.65,2.31c-10.11,2.79-53.43,24-58.82,26.28"/><line class="cls-5" x1="385.18" y1="447.56" x2="381.03" y2="462.56"/><path class="cls-5" d="M300.67,449.82l-.48.23c-.82.39-.58,1.82,0,2.74a1.58,1.58,0,0,0,1.39.83,1.51,1.51,0,0,0,.71-.17l3.74-1.59"/><path class="cls-5" d="M310.33,454.38,304,457a1.56,1.56,0,0,1-1.22,0,1.5,1.5,0,0,1-.76-.71l-.18-.42a1.42,1.42,0,0,1,.73-1.88l3.89-1.7"/><path class="cls-5" d="M302.69,457.55l.54,1a1.63,1.63,0,0,0,1.78.84l.16,0,7-2.18"/><path class="cls-5" d="M305,459.55l.41.87a1.82,1.82,0,0,0,1.78,1c1.32-.1,3.41-.27,5-.5,2.47-.35,9.65-1.76,11.41-1.76a74.47,74.47,0,0,0,15.17-.83"/><path class="cls-5" d="M335.14,403s19.05,3.41,32.69,3.21,36.5-2.81,36.5-2.81"/><path class="cls-5" d="M434.38,441.87a29.86,29.86,0,0,0,13.93-8.68"/><line class="cls-5" x1="304.82" y1="419.94" x2="299.02" y2="419.31"/><path class="cls-5" d="M431.28,411.11l0,0c.25-.37,2.37-3.37,5.52-4.05"/><path class="cls-5" d="M338.81,327.68c-1.12,5.3-5.6,15-5.61,20.55h0"/><path class="cls-5" d="M338.81,327.68s20.33,15.32,62.14.64"/><path class="cls-5" d="M401.13,305.47a98.38,98.38,0,0,0-.18,22.85c2.71,8.34,5.32,13.37,5.32,20.27h0"/><path class="cls-5" d="M338.21,305.47a151.18,151.18,0,0,1,.6,22.21"/></svg>