<svg id="Layer_1" data-name="Layer 1" xmlns="http://www.w3.org/2000/svg" viewBox="0 0 700 700"><defs><style>.cls-1{fill:#99abcc;}.cls-2{fill:#feae63;}.cls-3{fill:#c4e7f9;}.cls-4{fill:#170607;}.cls-5{fill:none;stroke:#000;stroke-linecap:round;stroke-linejoin:round;stroke-width:2.3px;}</style></defs><title>Yoga_poses_2020_color</title><path class="cls-1" d="M448.48,428.18a104.87,104.87,0,0,0,17-7.46A34.14,34.14,0,0,1,478.25,417a9.07,9.07,0,0,1,2.27.06c2.64.4,8.48,1.81,10.9,6.74,7.8,15.92-1.28,21.06-9.14,28.08-7.95,6.46-13.93,8.68-13.93,8.68l-1.07.05a6,6,0,0,0-1.32-.35c-2.55-.39-11.1,3-11.1,3s-19.5,4.71-25.77,4c-2-.22-5.62-.89-9.79-1.82l-.16.76-4.14,15,0,.18c-1.29-.13-2.44-.28-3.37-.45-5-.91-24.21-2.75-38.83-4.19-7-.69-13-1.29-15.84-1.64A70.81,70.81,0,0,1,344.4,472c-1.31-.43-2.61-.88-3.89-1.34l-.52-.19c-1.84-.67-3.64-1.36-5.34-2.05-5.64-2.25-10.26-4.39-12-5.22l-.74-.35c-11.23-4.73-13.53-13-13-20a28.35,28.35,0,0,1,2.77-10c2.62-5.18,14.42-4.21,14.42-4.21s1.58.21,4,.44c7.23.67,22.95,1.75,36,.61a11.18,11.18,0,0,1,1.39,0v0a19.68,19.68,0,0,0,.89-4.65s19.85,1,33.44-.19c22.77-1.93,36.66-12.52,37.51-13.18,5.23,9,9.17,16,9.17,16Z"/><path class="cls-2" d="M472.71,480.1l-.1.68a1.84,1.84,0,0,1-1.95,1.84l-5.27-.33s-10.76-1.79-18.38-.9c-6.65.79-23.06.89-32,0l0-.18,4.14-15,.16-.76c4.17.93,7.78,1.6,9.79,1.82,6.27.67,25.77-4,25.77-4s8.55-3.4,11.1-3a6,6,0,0,1,1.32.35,16.11,16.11,0,0,0,3.71,1.68,11.25,11.25,0,0,1,3.12,1.41l2.61,1.68a2.86,2.86,0,0,1-1.54,5.27H475l-5.08-.4,6.76,2.7a1.58,1.58,0,0,1-.59,3h-.13l-5.26-.46,3.43,1.79a1.54,1.54,0,0,1-.72,2.91Z"/><path class="cls-3" d="M439.3,411.72c-.85.66-14.74,11.25-37.51,13.18-13.59,1.15-33.44.19-33.44.19a6.44,6.44,0,0,0-.18-1.79c-2.12-8.12-7.06-12.7-13-14-3.13-.67-10.61-2.55-16.93-3.83-9.33-5.34-6.85-19-6.85-19,29.83-10.76,24.4-45.29,24.4-45.29a151.61,151.61,0,0,1,18.23-.63c10.39.58,14.17.09,14.72,0a145.79,145.79,0,0,1,9.84,11.75c14.77,19.71,17.38,20.35,27.37,36.75C430.33,396.33,435.21,404.66,439.3,411.72Z"/><path class="cls-2" d="M219.42,223l-3.48-2.43a2.27,2.27,0,0,1,1.3-4.13,2.34,2.34,0,0,1,.85.17C224,219,240.42,225.79,240.5,226s11.67,4.23,15.57,5.59a10.19,10.19,0,0,1,2.38,1.19l3.66,2.44a20.19,20.19,0,0,0,2.06,1.21c5.32,2.75,31.56,14.51,40.32,24.14,1.66,1.84,1.12,1.08,8.74,6.15s23.74,17.55,35.18,30.41,12.84,18.75,18.71,24.33a139.41,139.41,0,0,1,21.61,19.18c-.55.08-4.33.57-14.72,0a151.61,151.61,0,0,0-18.23.63s-11.06-6.1-18.79-7.37h0c1.16-1.26,1.21-3.22.95-4.94a11.52,11.52,0,0,0-2-4.89c-3.64-5.18-2.88-6-7-12-4.44-6.52-13.8-16.62-18.94-21.83s-11.08-16-11.08-16-9.17-5.78-19.29-12.38c-8.09-5.28-17-14.13-25.14-20.08a19.79,19.79,0,0,0-8.33-3.54l-.46-.08a19.78,19.78,0,0,1-6-2.08L220.05,225.5a1.73,1.73,0,0,1-.63-2.49Z"/><path class="cls-2" d="M339,478.07a1.63,1.63,0,0,1-1.78-.84l-.54-1,.11-.56a1.54,1.54,0,0,0,1.21,0l6.32-2.63.11-1a70.81,70.81,0,0,0,12.54,3.08c2.83.35,8.81.95,15.84,1.64l0,.27a74.88,74.88,0,0,1-15.17.82c-1.76,0-8.93,1.41-11.4,1.77-1.58.22-3.67.4-5,.5a1.83,1.83,0,0,1-1.78-1l-.41-.88Z"/><path class="cls-2" d="M355.78,341.24s5.43,34.53-24.4,45.29c-7.28-3.69-17.32-12.29-17.32-12.29.71-1.56,1.4-3,2-4.32,1-2.19-1.34-5.94-2.41-7.64-2.09-3.31-5.59-6-11.38-9.89l.22-.32a7.74,7.74,0,0,0,2.09-1.17s.88-.94.49-1.74l.41-.07s8.13,2,10.87-.79l10.4-10.19a11.51,11.51,0,0,0,2.11-3.33h0l4.65.38a4.51,4.51,0,0,0,3.43-1.3h0C344.72,335.14,355.78,341.24,355.78,341.24Z"/><path class="cls-2" d="M344.4,472l-.11,1L338,475.66a1.54,1.54,0,0,1-1.21,0,1.58,1.58,0,0,1-.77-.72l-.18-.42a1.44,1.44,0,0,1,.74-1.88l3.88-1.7.08-.23C341.79,471.16,343.09,471.61,344.4,472Z"/><path class="cls-2" d="M340,470.51l-3.73,1.6a1.65,1.65,0,0,1-.71.17,1.56,1.56,0,0,1-1.39-.83c-.59-.92-.83-2.36,0-2.75l.48-.22v0C336.35,469.15,338.15,469.84,340,470.51Z"/><path class="cls-2" d="M331.38,404.37c.66,3.29.14,13.82-1.28,24.76-2.41-.23-3.88-.4-4-.44s-11.8-1-14.42,4.21a28.35,28.35,0,0,0-2.77,10l-.73-.06c.72-9.24,2.92-26.72.46-38.61-2.28-11,1.76-22,5.41-30,0,0,10,8.6,17.32,12.29,0,0-2.48,13.64,6.85,19C335.62,405,333.21,404.56,331.38,404.37Z"/><path class="cls-2" d="M305.1,349.16c.39.8-.49,1.74-.49,1.74a7.74,7.74,0,0,1-2.09,1.17,7.6,7.6,0,0,1-3.57.39,8.7,8.7,0,0,1-3.09-1c-2.85-2.52-1.31-4.24,0-5.1,1.39-7.41-8.87-18.51-8.87-18.51-5.54-8.1-2.73-16.24,1.1-19.41a.54.54,0,0,0,.22-.38s2.5-1.3,12,1.58c0,0,1.28.31,3.32.86s3.27,3,7.4,3.9,11,8.68,16.14,13a6.34,6.34,0,0,1,1.71,7.32,11.51,11.51,0,0,1-2.11,3.33l-10.4,10.19c-2.74,2.82-10.87.79-10.87.79Zm3.16-31.35c.35-.48-.29-1.52-1.41-2.31s-2.32-1-2.66-.55.29,1.53,1.42,2.32S307.92,318.3,308.26,317.81Zm-3.61,11.06c.37-.53-.32-1.67-1.55-2.53s-2.53-1.13-2.9-.6.32,1.67,1.55,2.53S304.28,329.4,304.65,328.87Z"/><path class="cls-2" d="M216.79,471.12l-1-.11H204a1.75,1.75,0,0,1-.08-3.49c4.1-.18,15.41-2.14,19.44-2.53s16.84-2.29,22.25-3.66a18.45,18.45,0,0,1,4.62-.58h11.15c5.87,0,23.79-3.26,30.79-4.72a96.41,96.41,0,0,1,15-1.66l.89-10.42c0-.35.05-.71.08-1.08l.73.06c-.54,6.93,1.76,15.23,13,20l.74.35-.74,1.75a75.83,75.83,0,0,1-5.09,6.63,4.31,4.31,0,0,1-3.28,1.51H283.08l-31.08-2a10,10,0,0,0-3.88.52l-2.72.93a10,10,0,0,1-3.25.54H218.71a1.93,1.93,0,0,1-1.93-1.93A.19.19,0,0,1,216.79,471.12Z"/><path d="M306.85,315.5c1.12.79,1.76,1.83,1.41,2.31s-1.53.25-2.65-.54-1.77-1.83-1.42-2.32S305.72,314.71,306.85,315.5Z"/><path d="M303.1,326.34c1.23.86,1.92,2,1.55,2.53s-1.68.26-2.9-.6-1.93-2-1.55-2.53S301.87,325.48,303.1,326.34Z"/><path class="cls-4" d="M287,327.88s10.26,11.1,8.87,18.51c-1.3.86-2.84,2.58,0,5.1a8.7,8.7,0,0,0,3.09,1c-11.62,2-19.11-1.32-23.9-5.9a28.85,28.85,0,0,1-7.69-13.88c-.16-.69-.27-1.25-.32-1.63a31.92,31.92,0,0,1,.13-6c2.84-16.76,11.62-18.82,17.88-18.53,1.86.08,3.29.87,3.25,1.53a.54.54,0,0,1-.22.38C284.25,311.64,281.44,319.78,287,327.88Z"/><path class="cls-4" d="M275.05,346.56l-.88,1.05c-3.34,2.11-8.47,2.3-11.73-2.93s.25-9.55,3.83-11.83l1.09-.17A28.85,28.85,0,0,0,275.05,346.56Z"/><path class="cls-5" d="M366.07,429.74a11.18,11.18,0,0,1,1.39,0c4.07.3,16.16,2.54,24.51,18.11"/><path class="cls-5" d="M366.07,429.74c-13,1.14-28.74.06-36-.61-2.41-.23-3.88-.4-4-.44s-11.8-1-14.42,4.21a28.35,28.35,0,0,0-2.77,10c-.54,6.93,1.76,15.23,13,20l.74.35c1.74.83,6.36,3,12,5.22,1.7.69,3.5,1.38,5.34,2.05l.52.19c1.28.46,2.58.91,3.89,1.34a70.81,70.81,0,0,0,12.54,3.08c2.83.35,8.81.95,15.84,1.64,14.62,1.44,33.84,3.28,38.83,4.19.93.17,2.08.32,3.37.45,9,.88,25.38.78,32,0,7.62-.89,18.38.9,18.38.9l5.27.33a1.84,1.84,0,0,0,1.95-1.84"/><path class="cls-5" d="M334,433.8c5.09,1.76,4.77,4.8,4.77,4.8,38.54,5.6,49.74,16.58,56,19.71,4.27,2.13,15.66,5.2,24.5,7.15,4.17.93,7.78,1.6,9.79,1.82,6.27.67,25.77-4,25.77-4s8.55-3.4,11.1-3a6,6,0,0,1,1.32.35,16.11,16.11,0,0,0,3.71,1.68,11.25,11.25,0,0,1,3.12,1.41l2.61,1.68a2.86,2.86,0,0,1-1.54,5.27H475l-5.08-.4,6.76,2.7a1.58,1.58,0,0,1-.59,3h-.13l-5.26-.46,3.43,1.79a1.54,1.54,0,0,1-.72,2.91l-.65-.09-3.37-.49"/><path class="cls-5" d="M417.07,444c6-6.68,9.7-10.15,24-13.6,0,0,2.91-.64,7.42-2.17a104.87,104.87,0,0,0,17-7.46A34.14,34.14,0,0,1,478.25,417a9.07,9.07,0,0,1,2.27.06c2.64.4,8.48,1.81,10.9,6.74,7.8,15.92-1.28,21.06-9.14,28.08-7.95,6.46-13.93,8.68-13.93,8.68"/><path class="cls-5" d="M470.65,429.77a17.94,17.94,0,0,0-5.38,0A68.81,68.81,0,0,0,453.62,432c-10.11,2.79-53.43,24-58.82,26.27"/><line class="cls-5" x1="419.14" y1="466.22" x2="415" y2="481.22"/><path class="cls-5" d="M334.64,468.48l-.48.22c-.83.39-.59,1.83,0,2.75a1.56,1.56,0,0,0,1.39.83,1.65,1.65,0,0,0,.71-.17l3.73-1.6"/><path class="cls-5" d="M344.29,473,338,475.66a1.54,1.54,0,0,1-1.21,0,1.58,1.58,0,0,1-.77-.72l-.18-.42a1.44,1.44,0,0,1,.74-1.88l3.88-1.7"/><path class="cls-5" d="M336.65,476.21l.54,1a1.63,1.63,0,0,0,1.78.84.45.45,0,0,0,.16,0l7.05-2.19"/><path class="cls-5" d="M339,478.2l.41.88a1.83,1.83,0,0,0,1.78,1c1.32-.1,3.41-.28,5-.5,2.47-.36,9.64-1.77,11.4-1.77a74.88,74.88,0,0,0,15.17-.82"/><path class="cls-5" d="M368.35,425.09s19.85,1,33.44-.19c22.77-1.93,36.66-12.52,37.51-13.18l0,0"/><line class="cls-5" x1="338.79" y1="438.6" x2="332.98" y2="437.96"/><path class="cls-5" d="M465.24,429.77l0,0c.25-.37,2.37-3.38,5.53-4.06"/><path class="cls-5" d="M266.27,332.85c-3.58,2.28-7.08,6.6-3.83,11.83s8.39,5,11.73,2.93"/><path class="cls-5" d="M305.71,320.73a3.77,3.77,0,0,0,3.39,1.09l5.25.5-1.5,4.28"/><path class="cls-5" d="M288.3,308.09s2.5-1.3,12,1.58c0,0,1.28.31,3.32.86s3.27,3,7.4,3.9,11,8.68,16.14,13a6.34,6.34,0,0,1,1.71,7.32,11.51,11.51,0,0,1-2.11,3.33l-10.4,10.19c-2.74,2.82-10.87.79-10.87.79"/><path class="cls-5" d="M299,352.46c-11.62,2-19.11-1.32-23.9-5.9a28.85,28.85,0,0,1-7.69-13.88c-.16-.69-.27-1.25-.32-1.63a31.92,31.92,0,0,1,.13-6c2.84-16.76,11.62-18.82,17.88-18.53,1.86.08,3.29.87,3.25,1.53a.54.54,0,0,1-.22.38c-3.83,3.17-6.64,11.31-1.1,19.41,0,0,10.26,11.1,8.87,18.51"/><path class="cls-5" d="M297,345.77a6.47,6.47,0,0,0-1.19.62c-1.3.86-2.84,2.58,0,5.1a8.7,8.7,0,0,0,3.09,1,7.6,7.6,0,0,0,3.57-.39,7.74,7.74,0,0,0,2.09-1.17s.88-.94.49-1.74c-.22-.44-.81-.83-2.13-1"/><path class="cls-5" d="M302.27,352.37l0,0c5.79,3.87,9.29,6.58,11.38,9.89,1.07,1.7,3.45,5.45,2.41,7.64-.63,1.32-1.32,2.76-2,4.32-3.65,8-7.69,19-5.41,30,2.46,11.89.26,29.37-.46,38.61,0,.37-.06.73-.08,1.08l-.89,10.42a96.41,96.41,0,0,0-15,1.66c-7,1.46-24.92,4.72-30.79,4.72H250.26a18.45,18.45,0,0,0-4.62.58c-5.41,1.37-18.24,3.27-22.25,3.66s-15.34,2.35-19.44,2.53A1.75,1.75,0,0,0,204,471H215.8"/><line class="cls-5" x1="334.66" y1="345.88" x2="328.09" y2="336.6"/><line class="cls-5" x1="311.53" y1="355.14" x2="332.3" y2="357.91"/><path class="cls-5" d="M239.09,229.26l-17.58-6.91a1.75,1.75,0,0,0-2.09.65h0a1.73,1.73,0,0,0,.63,2.49l19.67,10.58a19.78,19.78,0,0,0,6,2.08l.46.08a19.79,19.79,0,0,1,8.33,3.54c8.1,5.95,17,14.8,25.14,20.08,10.12,6.6,19.29,12.38,19.29,12.38s5.94,10.75,11.08,16S324.53,305.51,329,312c4.09,6,3.33,6.82,7,12a11.52,11.52,0,0,1,2,4.89c.26,1.72.21,3.68-.95,4.94a4.51,4.51,0,0,1-3.43,1.3l-4.65-.38"/><path class="cls-5" d="M329.68,404.26a16.18,16.18,0,0,1,1.7.11c1.83.19,4.24.61,6.85,1.14,6.32,1.28,13.8,3.16,16.93,3.83,5.95,1.26,10.89,5.84,13,14a6.44,6.44,0,0,1,.18,1.79,19.68,19.68,0,0,1-.89,4.65"/><path class="cls-5" d="M330.1,429.13c1.42-10.94,1.94-21.47,1.28-24.76"/><path class="cls-5" d="M331.38,386.53c29.83-10.76,24.4-45.29,24.4-45.29s-11.06-6.1-18.79-7.37"/><path class="cls-5" d="M314.06,374.24s10,8.6,17.32,12.29c0,0-2.48,13.64,6.85,19"/><path class="cls-5" d="M219.42,223l-3.48-2.43a2.27,2.27,0,0,1,1.3-4.13,2.34,2.34,0,0,1,.85.17C224,219,240.42,225.79,240.5,226s11.67,4.23,15.57,5.59a10.19,10.19,0,0,1,2.38,1.19l3.66,2.44a20.19,20.19,0,0,0,2.06,1.21c5.32,2.75,31.56,14.51,40.32,24.14,1.66,1.84,1.12,1.08,8.74,6.15s23.74,17.55,35.18,30.41,12.84,18.75,18.71,24.33a139.41,139.41,0,0,1,21.61,19.18,145.79,145.79,0,0,1,9.84,11.75c14.77,19.71,17.38,20.35,27.37,36.75,4.39,7.21,9.27,15.54,13.36,22.6,5.23,9,9.17,16,9.17,16"/><path class="cls-5" d="M234.05,468.25l-15.46,1a1.91,1.91,0,0,0-1.8,1.85.19.19,0,0,0,0,.08,1.93,1.93,0,0,0,1.93,1.93h23.44a10,10,0,0,0,3.25-.54l2.72-.93a10,10,0,0,1,3.88-.52l31.08,2h30.46a4.31,4.31,0,0,0,3.28-1.51,75.83,75.83,0,0,0,5.09-6.63"/><path class="cls-5" d="M355.78,341.24a151.61,151.61,0,0,1,18.23-.63c10.39.58,14.17.09,14.72,0h.07"/></svg>