<svg id="Layer_1" data-name="Layer 1" xmlns="http://www.w3.org/2000/svg" viewBox="0 0 700 700"><defs><style>.cls-1{fill:#feae63;}.cls-2{fill:#99abcc;}.cls-3{fill:#c4e7f9;}.cls-4{fill:#120c0c;}.cls-5{fill:none;stroke:#000;stroke-linecap:round;stroke-linejoin:round;stroke-width:2.3px;}</style></defs><title>Yoga_poses_2020_color</title><path class="cls-1" d="M490,471.82a1.41,1.41,0,0,1-.22,2.8,1.24,1.24,0,0,1-.27,0l-3.23-.62a1,1,0,0,0-1.22.77l-.1.39,1.1.5a1.22,1.22,0,0,1-.15,2.43,1,1,0,0,1-.24,0l-2.13-.43-1,1.19a2.67,2.67,0,0,1-2.07,1H480a7.06,7.06,0,0,0-1.21.1l-3.7.66a11.77,11.77,0,0,0,1.54-5.7c.33-4.17-2.79-4.63-2.79-4.63l-.16,0c.26-1,.51-2.17.74-3.37a12.51,12.51,0,0,0,4-2.89,8.12,8.12,0,0,1,4.93-2.76,6.86,6.86,0,0,1,2.95.23,7.76,7.76,0,0,0,1.8.28l2,.06a1.68,1.68,0,0,0,.5-.07,4.23,4.23,0,0,1,3.52.41l2.18,1.31a2.71,2.71,0,0,1,1,3.55,2.68,2.68,0,0,1-2.4,1.47,2.76,2.76,0,0,1-.57-.06l-4.91-1.07-.37,1,3.54.94a1.52,1.52,0,0,1-.14,3l-.24,0Z"/><path class="cls-1" d="M484,419.1a1.51,1.51,0,0,1,.07,2.15l-4.46,4.68a7.08,7.08,0,0,1-.76.68l-2.64,2a6.47,6.47,0,0,1-1.72.92l-6.42,2.24,5.74-5.87a1.72,1.72,0,0,0,.48-.91h0l4.67-3.39,3-2.54a1.49,1.49,0,0,1,1-.35A1.5,1.5,0,0,1,484,419.1Z"/><path class="cls-2" d="M473.84,470.2s3.12.46,2.79,4.63a11.77,11.77,0,0,1-1.54,5.7,3.55,3.55,0,0,1-1.61,1.35c-1.4.57-5.18.31-6.6.18a2.11,2.11,0,0,0,2.05-2.1,2.19,2.19,0,0,0,0-.36l.35-.09a2.91,2.91,0,0,0,1.22.26,3,3,0,0,0,2-5.24c.38-1.2.8-2.68,1.21-4.37Z"/><path class="cls-2" d="M384.73,447.41a17.63,17.63,0,0,0,1.58,5.26l.13.42a83.92,83.92,0,0,1,10.61-2.74c17-3.4,44.57-11.71,44.57-11.71v-.08a15.17,15.17,0,0,0,5.45-.34l14.83-3.63s4.08,0,8,5.65,5.86,5,5.86,13.46a69.6,69.6,0,0,1-1.34,13.09c-.23,1.2-.48,2.33-.74,3.37-.41,1.69-.83,3.17-1.21,4.37l-2-1.75a9,9,0,0,0-6-2.27h-.2a8.5,8.5,0,0,1-1.59-.1l-2.41-.36a14,14,0,0,0-2.05-.16,13.37,13.37,0,0,0-6.63,1.76c-2.6-1.32-3.29-5.07-3.29-5.07-2.71,1.21-7,3.61-12,6.47-4.78,2.74-10.21,5.92-15.51,8.84-2.36,1.31-4.7,2.57-6.95,3.72-14.72,7.54-41.22,5.15-63.6,5S327,474,328.69,465.92s2-13.62,3.32-23.92c.23-1.85.43-3.24.61-4.4,0,0,8.89-3.1,15.76-3.77s28.83,3.26,34.54,1.88l.42,0A93.75,93.75,0,0,0,384.73,447.41Z"/><path class="cls-1" d="M467.4,418l-6.67,5.34a2.29,2.29,0,0,0-.53,3l.26.43a1.35,1.35,0,0,0,1.53.6l4.8-1.39a1.39,1.39,0,0,0,.56-.33l2.06-2.07a1.27,1.27,0,0,0,.39-.92v-1.83a1.31,1.31,0,0,0-.42-1Zm-118.61-47.7C341.13,372.56,337,369,337,369c-.43-7-4.4-37.71,13.17-43.59,0,0,4.48-1.58,8,1a44,44,0,0,1,11,12,45.9,45.9,0,0,1,6.07,14.77c1,6.29,3.6,15.4,3.6,15.4a253.51,253.51,0,0,0,10.78,27.9h0c.51,1.11,1,2.09,1.37,2.94a9,9,0,0,0,4.89,4.56c2.8,1.08,7.67,3.45,15.23,8.66,10.28,7.09,23.29,12.11,28.76,14.06a4.85,4.85,0,0,0,4.69-.81l1.43-1.17a15.21,15.21,0,0,1,3.1-2l3.37-1.62c.39-.19.77-.39,1.15-.61l11.71-6.9a2.36,2.36,0,0,1,3,.46,2.32,2.32,0,0,1,.59,1.35h.09l3.69,1.94a1.84,1.84,0,0,1,1,1.4l.7,5.54a1.84,1.84,0,0,1,0,.62h0a1.72,1.72,0,0,1-.48.91l-5.74,5.87-1.18,1.2a2.5,2.5,0,0,1-1.26.72l-3.7.91-14.83,3.63a15.17,15.17,0,0,1-5.45.34,13,13,0,0,1-1.5-.24l-5.2-1.12c-5.09-1.06-9.74-2.16-14.09-3.37a122.08,122.08,0,0,1-27.19-11,59.07,59.07,0,0,0-9.07-4.12c-4.28-1.55-5.67-1.85-9.6-8.69-5.86-10.21-21.5-30-24.1-35.84A34.63,34.63,0,0,0,348.79,370.32Z"/><path class="cls-1" d="M460.41,485.06a2,2,0,0,1,1.75,2,1.93,1.93,0,0,1,0,.24,2.05,2.05,0,0,1-2,1.82h-1.68l-1.39,0a1.93,1.93,0,0,1-1.47,1.58l-.11,0a12,12,0,0,1-3,.34l-5.26-.08a11.43,11.43,0,0,1-3-.2l-9.58-1.89-4-.5a13.23,13.23,0,0,1-9.76-6.42l0-.08c5.3-2.92,10.73-6.1,15.51-8.84l5.57.61a16,16,0,0,0,9.69-2,13.37,13.37,0,0,1,6.63-1.76,14,14,0,0,1,2.05.16l2.41.36a8.5,8.5,0,0,0,1.59.1h.2a9,9,0,0,1,6,2.27l2,1.75a3,3,0,0,1-2,5.24,2.91,2.91,0,0,1-1.22-.26l-.35.09a2.19,2.19,0,0,1,0,.36,2.11,2.11,0,0,1-2.05,2.1h0l-.43,0h-.09l-1.86-.42a1.62,1.62,0,0,0-.48-.17l-3-.63,3.49.8a2,2,0,0,1,1.16,1.83,2,2,0,0,1-.12.68,2,2,0,0,1-2.22,1.36Z"/><path class="cls-2" d="M448.32,466.58s.69,3.75,3.29,5.07a16,16,0,0,1-9.69,2l-5.57-.61C441.33,470.19,445.61,467.79,448.32,466.58Z"/><path class="cls-2" d="M441.63,438.56v.08S414,447,397.05,450.35a83.92,83.92,0,0,0-10.61,2.74l-.13-.42a17.63,17.63,0,0,1-1.58-5.26c2.25-.9,30.18-12,36.11-13.58,4.35,1.21,9,2.31,14.09,3.37l5.2,1.12A13,13,0,0,0,441.63,438.56Z"/><path class="cls-3" d="M391.74,370c.69,6.16-1.81,13.09-1.82,16.41,0,5.81-.31,9.86-.33,10.1a253.51,253.51,0,0,1-10.78-27.9s-2.58-9.11-3.6-15.4c0,0,7.46,9.24,12.44,6A20,20,0,0,1,391.74,370Z"/><path class="cls-1" d="M350.43,288.33a8.15,8.15,0,0,1-.22-1.9c1.3-5.74,5.84-1.77,5.84-1.77,2.33.29,6.22-1,8.62-4.81s2-7.27,5.95-9.57c2-1.16,10.67-7,10.67-7l.3,1.83s3.31,8.3,3,13.71c-.28,4.26-1.64,4.89.19,7.65l2.34,5.51-5.09.83-1.46,10c.32.89,1.51,7.85-9.23,5.54,0,0-2.07-1.11-3.69,2.92a39.12,39.12,0,0,0-1.94,14.35c.28,2.92.28,6,4.36,12.23l-.88.58a44,44,0,0,0-11-12c-3.49-2.61-8-1-8-1C332.64,331.27,336.61,362,337,369s-5,7.31-5,7.31l-.15,0c-.62-3.56-1.21-7.77-1.72-13.07-2.4-25,6.51-36.3,6.51-36.3,7.6-9.23,8.42-21.64,8.32-29.21,0-.69,0-1.33,0-1.93-.15-4.36,5.33-7.45,5.33-7.45Zm29.79-5.09c.16-1.43-.2-2.65-.82-2.72s-1.26,1-1.42,2.46.2,2.65.82,2.72S380.05,284.67,380.22,283.24Z"/><path class="cls-1" d="M387.65,359.26c-5,3.21-12.44-6-12.44-6a45.9,45.9,0,0,0-6.07-14.77l.88-.58a84.13,84.13,0,0,0,6.63,8.59C381.88,352.53,385.35,356.13,387.65,359.26Z"/><path class="cls-3" d="M384.58,418.74a70.51,70.51,0,0,1-1.13,9.78,38,38,0,0,0-.11,7.16l-.42,0c-5.71,1.38-27.67-2.55-34.54-1.88s-15.76,3.77-15.76,3.77c.84-5.33,1.34-6.05,2.7-25.22,1.3-18.42-1.16-22.78-3.43-36.06l.15,0s5.44-.34,5-7.31c0,0,4.09,3.58,11.75,1.34a34.63,34.63,0,0,1,2.09,3.89c2.6,5.86,18.24,25.63,24.1,35.84C378.91,416.89,380.3,417.19,384.58,418.74Z"/><path class="cls-4" d="M381.07,261.93l.22,1.39s-8.66,5.8-10.67,7c-4,2.3-3.55,5.78-5.95,9.57s-6.29,5.1-8.62,4.81c0,0-4.54-4-5.84,1.77a8.15,8.15,0,0,0,.22,1.9l-.14,0s-5.48,3.09-5.33,7.45c0,.6,0,1.24,0,1.93h0c-1.07,5.41-5.39,4-9.56-2.59C330.76,287.82,332,277,332,277a27.76,27.76,0,0,1,6.67-15.57,20,20,0,0,1,3.46-3.23c.71-.43,1.41-.82,2.1-1.19C358,249.73,368.63,254.38,381.07,261.93Z"/><path d="M379.4,280.52c.62.07,1,1.29.82,2.72s-.8,2.53-1.42,2.46-1-1.29-.82-2.72S378.78,280.45,379.4,280.52Z"/><path class="cls-4" d="M344.24,256.27l0,.74c-.69.37-1.39.76-2.1,1.19a20,20,0,0,0-3.46,3.23l-.08-.07c-6.69,5.94-12.09-.28-12.33-3.83-.33-5,5.1-12.7,12.19-10S344.24,256.27,344.24,256.27Z"/><path class="cls-5" d="M356.05,284.66s-4.54-4-5.84,1.77a8.15,8.15,0,0,0,.22,1.9,8,8,0,0,0,4.7,5.84s3.12.8,1.69-2.88"/><path class="cls-5" d="M357.14,298.76s.4,5.35,5,6.54"/><path class="cls-5" d="M381.29,263.32s-8.66,5.8-10.67,7c-4,2.3-3.55,5.78-5.95,9.57s-6.29,5.1-8.62,4.81"/><path class="cls-5" d="M345,297.74c-1.07,5.41-5.39,4-9.56-2.59C330.76,287.82,332,277,332,277"/><path class="cls-5" d="M344.24,256.27s1.33-6.15-5.75-8.79-12.52,5.07-12.19,10c.24,3.55,5.64,9.77,12.33,3.83"/><path class="cls-5" d="M350.29,288.36s-5.48,3.09-5.33,7.45c0,.6,0,1.24,0,1.93.1,7.57-.72,20-8.32,29.21,0,0-8.91,11.27-6.51,36.3.51,5.3,1.1,9.51,1.72,13.07,2.27,13.28,4.73,17.64,3.43,36.06-1.36,19.17-1.86,19.89-2.7,25.22-.18,1.16-.38,2.55-.61,4.4-1.29,10.3-1.66,15.82-3.32,23.92s-.79,24.47,21.6,24.66,48.88,2.57,63.6-5c2.25-1.15,4.59-2.41,6.95-3.72,5.3-2.92,10.73-6.1,15.51-8.84,5-2.86,9.26-5.26,12-6.47a8.53,8.53,0,0,1,2.55-.84c3.5-.19,7.55-2.4,8.28-4.05"/><path class="cls-5" d="M384.58,418.74a70.51,70.51,0,0,1-1.13,9.78,38,38,0,0,0-.11,7.16,93.75,93.75,0,0,0,1.39,11.73,17.63,17.63,0,0,0,1.58,5.26"/><path class="cls-5" d="M378.08,457.68s1.06-2.12,8.36-4.59a83.92,83.92,0,0,1,10.61-2.74c17-3.4,44.57-11.71,44.57-11.71"/><path class="cls-5" d="M461.91,434.59s4.08,0,8,5.65,5.86,5,5.86,13.46a69.6,69.6,0,0,1-1.34,13.09c-.23,1.2-.48,2.33-.74,3.37-.41,1.69-.83,3.17-1.21,4.37"/><path class="cls-5" d="M420.84,481.89l0,.08a13.23,13.23,0,0,0,9.76,6.42l4,.5,9.58,1.89a11.43,11.43,0,0,0,3,.2l5.26.08a12,12,0,0,0,3-.34l.11,0a2,2,0,0,0,1.27-2.81,1.47,1.47,0,0,0-1.31-.79,1.44,1.44,0,0,0-.77.21l-.77.47"/><path class="cls-5" d="M436.35,473.05l5.57.61a16,16,0,0,0,9.69-2,13.37,13.37,0,0,1,6.63-1.76,14,14,0,0,1,2.05.16l2.41.36a8.5,8.5,0,0,0,1.59.1h.2a9,9,0,0,1,6,2.27l2,1.75a3,3,0,0,1-2,5.24,2.91,2.91,0,0,1-1.22-.26"/><path class="cls-5" d="M466.86,482.06l-.43,0"/><path class="cls-5" d="M473.84,470.2s3.12.46,2.79,4.63a11.77,11.77,0,0,1-1.54,5.7,3.55,3.55,0,0,1-1.61,1.35c-1.4.57-5.18.31-6.6.18"/><path class="cls-5" d="M486.42,471.23l3.62.59a1.41,1.41,0,0,1-.22,2.8,1.24,1.24,0,0,1-.27,0l-3.23-.62a1,1,0,0,0-1.22.77l-.1.39,1.1.5a1.22,1.22,0,0,1-.15,2.43,1,1,0,0,1-.24,0l-2.13-.43-1,1.19a2.67,2.67,0,0,1-2.07,1H480a7.06,7.06,0,0,0-1.21.1l-3.7.66"/><path class="cls-5" d="M474.42,466.79a12.51,12.51,0,0,0,4-2.89,8.12,8.12,0,0,1,4.93-2.76,6.86,6.86,0,0,1,2.95.23,7.76,7.76,0,0,0,1.8.28l2,.06a1.68,1.68,0,0,0,.5-.07,4.23,4.23,0,0,1,3.52.41l2.18,1.31a2.71,2.71,0,0,1,1,3.55,2.68,2.68,0,0,1-2.4,1.47,2.76,2.76,0,0,1-.57-.06l-4.91-1.07-.37,1,3.54.94a1.52,1.52,0,0,1-.14,3l-.24,0-2.15-.35"/><path class="cls-5" d="M464.48,481.59l1.86.42h.09a1.26,1.26,0,0,0,.43,0h0a2.11,2.11,0,0,0,2.05-2.1,2.19,2.19,0,0,0,0-.36,2.12,2.12,0,0,0-1.69-1.72l-2.8-.53a3.51,3.51,0,0,1-2.4-1.7l0,0"/><path class="cls-5" d="M464.48,481.59a1.62,1.62,0,0,0-.48-.17l-3-.63Z"/><path class="cls-5" d="M457.09,484.59l3.3.46h0l2.89.4a2,2,0,0,0,2.22-1.36,2,2,0,0,0,.12-.68,2,2,0,0,0-1.16-1.83"/><path class="cls-5" d="M458.43,489.14h1.68a2.05,2.05,0,0,0,2-1.82,1.93,1.93,0,0,0,0-.24,2,2,0,0,0-1.75-2"/><path class="cls-5" d="M448.32,466.58s.69,3.75,3.29,5.07"/><path class="cls-5" d="M474.28,425a1.84,1.84,0,0,0,0-.62l-.7-5.54a1.84,1.84,0,0,0-1-1.4l-3.69-1.94"/><path class="cls-5" d="M342,361a84.75,84.75,0,0,1,6.82,9.36,34.63,34.63,0,0,1,2.09,3.89c2.6,5.86,18.24,25.63,24.1,35.84,3.93,6.84,5.32,7.14,9.6,8.69a59.07,59.07,0,0,1,9.07,4.12,122.08,122.08,0,0,0,27.19,11c4.35,1.21,9,2.31,14.09,3.37l5.2,1.12a13,13,0,0,0,1.5.24,15.17,15.17,0,0,0,5.45-.34l14.83-3.63,3.7-.91a2.5,2.5,0,0,0,1.26-.72l1.18-1.2,5.74-5.87a1.72,1.72,0,0,0,.48-.91"/><path class="cls-5" d="M467.4,418l-6.67,5.34a2.29,2.29,0,0,0-.53,3l.26.43a1.35,1.35,0,0,0,1.53.6l4.8-1.39a1.39,1.39,0,0,0,.56-.33l2.06-2.07a1.27,1.27,0,0,0,.39-.92v-1.83a1.31,1.31,0,0,0-.42-1Z"/><path class="cls-5" d="M389.59,396.54c.51,1.11,1,2.09,1.37,2.94a9,9,0,0,0,4.89,4.56c2.8,1.08,7.67,3.45,15.23,8.66,10.28,7.09,23.29,12.11,28.76,14.06a4.85,4.85,0,0,0,4.69-.81l1.43-1.17a15.21,15.21,0,0,1,3.1-2l3.37-1.62c.39-.19.77-.39,1.15-.61l11.71-6.9a2.36,2.36,0,0,1,3,.46,2.32,2.32,0,0,1,.59,1.35.9.9,0,0,1,0,.23,2.37,2.37,0,0,1-.89,1.84l-.57.46"/><path class="cls-5" d="M375.21,353.23c1,6.29,3.6,15.4,3.6,15.4a253.51,253.51,0,0,0,10.78,27.9"/><path class="cls-5" d="M468.05,431.76l6.42-2.24a6.47,6.47,0,0,0,1.72-.92l2.64-2a7.08,7.08,0,0,0,.76-.68l4.46-4.68a1.51,1.51,0,0,0-1.1-2.55,1.49,1.49,0,0,0-1,.35l-3,2.54L474.28,425h0"/><path class="cls-5" d="M389.59,396.54h0c0-.24.3-4.29.33-10.1,0-3.32,2.51-10.25,1.82-16.41a20,20,0,0,0-4.09-10.76c-2.3-3.13-5.77-6.73-11-12.79a84.13,84.13,0,0,1-6.63-8.59c-4.08-6.23-4.08-9.31-4.36-12.23a39.12,39.12,0,0,1,1.94-14.35c1.62-4,3.69-2.92,3.69-2.92,10.74,2.31,9.55-4.65,9.23-5.54l1.46-10,5.09-.83-2.34-5.51c-1.83-2.76-.47-3.39-.19-7.65.36-5.41-3-13.71-3-13.71l-.3-1.83-.22-1.39c-12.44-7.55-23.05-12.2-36.8-4.92-.69.37-1.39.76-2.1,1.19a20,20,0,0,0-3.46,3.23A27.76,27.76,0,0,0,332,277"/><path class="cls-5" d="M332,376.29s5.44-.34,5-7.31-4.4-37.71,13.17-43.59c0,0,4.48-1.58,8,1a44,44,0,0,1,11,12,45.9,45.9,0,0,1,6.07,14.77"/><path class="cls-5" d="M375.21,353.23s7.46,9.24,12.44,6"/><path class="cls-5" d="M384.58,447.47l.15-.06c2.25-.9,30.18-12,36.11-13.58"/><path class="cls-5" d="M332.62,437.6s8.89-3.1,15.76-3.77,28.83,3.26,34.54,1.88"/><path class="cls-5" d="M337,369s4.09,3.58,11.75,1.34"/></svg>