<svg id="Layer_1" data-name="Layer 1" xmlns="http://www.w3.org/2000/svg" viewBox="0 0 700 700"><defs><style>.cls-1{fill:#feae63;}.cls-2{fill:#99abcc;}.cls-3{fill:#c4e7f9;}.cls-4{fill:#120c0c;}.cls-5{fill:none;stroke:#000;stroke-linecap:round;stroke-linejoin:round;stroke-width:2.3px;}</style></defs><title>Yoga_poses_2020_color</title><path class="cls-1" d="M520.36,323.28c1.3-1,3.74-1.18,5.66-1.16a26.46,26.46,0,0,1,2.79.18,2.94,2.94,0,0,0,2.27-1,4.21,4.21,0,0,0,1-3.66s0-.05,0-.07l.17-.05c2.84-1.32,4.89,1.91,5.87,5.16a21.08,21.08,0,0,0,5.53,9.1c2.85,2.84,7.35,10.56,1,14.16s-12.64-3.11-17.93-2.28a17.21,17.21,0,0,1-10.91-1.47,27.63,27.63,0,0,0-6.66-1.67,5.39,5.39,0,0,0,1.89-2,21.48,21.48,0,0,1,3.42-4l.87-.75a16.05,16.05,0,0,1-3.17-2.65c-2.35-2.68-1.72-5.38-.63-6.28a3,3,0,0,1,4.11.3l1.84,1.95a2.4,2.4,0,0,1-.46-1.21l0-.18a2.41,2.41,0,0,1,.76-2,2.37,2.37,0,0,1,1.61-.64,2.22,2.22,0,0,1,.51.06Zm6.15.54a2.06,2.06,0,1,0-1.37,2.57A2.06,2.06,0,0,0,526.51,323.82Z"/><path class="cls-1" d="M519,314.92a2.38,2.38,0,1,1-2.38-3.72l-.18-.51a4.19,4.19,0,0,1-4.51-2.13,6.47,6.47,0,0,1-.94-2.68c-.29-2.37,2.34-4,6.09-3.9,4.3.1,6.23,4.17,6.23,4.17a22.45,22.45,0,0,0,3.57,5.57c1.57,1.61,4.61,3.15,5.24,5.88,0,0,0,0,0,.07a4.21,4.21,0,0,1-1,3.66,2.94,2.94,0,0,1-2.27,1,26.46,26.46,0,0,0-2.79-.18l0-1.17a2.28,2.28,0,0,0,.63-.09,2.18,2.18,0,1,0-2.58-3.09l-1-.13a2.07,2.07,0,0,0-2.26-3.2,2.14,2.14,0,0,0-.86.51Z"/><path class="cls-1" d="M528.12,318.14a2.18,2.18,0,0,1-1.45,2.72,2.28,2.28,0,0,1-.63.09,2.2,2.2,0,0,1-2.1-1.55,2.18,2.18,0,0,1,.15-1.63,2.2,2.2,0,0,1,1.31-1.09A2.17,2.17,0,0,1,528.12,318.14Z"/><path class="cls-1" d="M526.51,323.82a2.06,2.06,0,1,1-2.57-1.38A2.06,2.06,0,0,1,526.51,323.82Z"/><path class="cls-1" d="M526,321l0,1.17c-1.92,0-4.36.18-5.66,1.16l-.41-.08a2.22,2.22,0,0,0-.51-.06,2.37,2.37,0,0,0-1.61.64,2.41,2.41,0,0,0-.76,2l0,.18a2.4,2.4,0,0,0,.46,1.21l-1.84-1.95a3,3,0,0,0-4.11-.3c-1.09.9-1.72,3.6.63,6.28a16.05,16.05,0,0,0,3.17,2.65l-.87.75a21.48,21.48,0,0,0-3.42,4,5.39,5.39,0,0,1-1.89,2,4.74,4.74,0,0,1-3.22.67,11,11,0,0,1-1.63-.4s-1.31-1.39-10.33,3.95a34,34,0,0,1-8.18-13.69,27,27,0,0,0,7-3c2.26-1.88,3.3-3.38,6.43-4.93a8.79,8.79,0,0,0,2.49-1.88l1.77-1.89a8.75,8.75,0,0,1,1.06-1c1.39-1.05,5.73-5.32,7-9.65l.34-.21a4.19,4.19,0,0,0,4.51,2.13l.18.51a2.38,2.38,0,1,0,2.38,3.72l1,0a2.07,2.07,0,0,0,2.06,3.44,2.05,2.05,0,0,0,1.06-.75l1,.13a2.18,2.18,0,0,0-.15,1.63A2.2,2.2,0,0,0,526,321Z"/><path class="cls-1" d="M523.43,315.82a2.06,2.06,0,0,1-3.95,1.2A2.08,2.08,0,0,1,520,315a2.14,2.14,0,0,1,.86-.51A2.06,2.06,0,0,1,523.43,315.82Z"/><path class="cls-2" d="M485.73,318.21l13.53,4.94c-3.13,1.55-4.17,3.05-6.43,4.93a27,27,0,0,1-7,3,91.37,91.37,0,0,1-17.72,3.4c-11,1.16-17.89,3.27-24.42,3.27-4.68,0-7.66-2.51-15.68-2.61,0,0-11.72-7.81-15.29-11.4S404,315.92,393.2,315c-6.27-.57-14.7-3.8-20.65-6.4l-2.2-1c1.25-9.33-3.53-11.19-3.53-11.19,1.42-.12,3.19-.32,5.53-.66,11.41-1.62,23.13-3.58,38.77,2.29S429.2,308.1,435,309.41,456.41,308.45,485.73,318.21Z"/><path class="cls-2" d="M494,344.77c-.88.52-1.84,1.1-2.87,1.76-6.43,4.09-21.95,10.23-21.95,10.23-13,6.12-22.06,4.78-32,4.15-2-.14-4.1-.24-6.25-.24a41.19,41.19,0,0,0-9.85.91c-5.78,1.42-10,4.73-18.39,11.63-12.38,10.15-28.23,9.61-35.57,7.65s-15.86-7.65-15.86-7.65a12.2,12.2,0,0,0,.51-2.3l-.08-.08a22.87,22.87,0,0,0,6.2-11.3l1,.05c10-1,13.9-6.95,15.72-10.24a15.15,15.15,0,0,0,.85-1.8c1.24-3.06,1.57-5.45,9-8.19a19.37,19.37,0,0,1,11.73-.63,20.59,20.59,0,0,0,8.09,0l11.42-2.31A59.44,59.44,0,0,1,428,335.14c8,.1,11,2.61,15.68,2.61,6.53,0,13.39-2.11,24.42-3.27a91.37,91.37,0,0,0,17.72-3.4A34,34,0,0,0,494,344.77Z"/><path class="cls-1" d="M441.36,405.45l1.85,2.47a1.18,1.18,0,0,1,.34.84,1.19,1.19,0,0,1-1.2,1.19,3,3,0,0,1-2.13-.91l-6-7.33,3.07,6.55a1.17,1.17,0,0,1-1,1.69,3.08,3.08,0,0,1-2.45-1.2l-4.16-5.37.71,5a2.44,2.44,0,0,1,0,.27A1.38,1.38,0,0,1,429,410a2.65,2.65,0,0,1-2.33-1.38l-2-3.62c-.5-.93-2-.9-5.37-.9,0,0-1.43,0-6.51.19l-.09-.05-1.23,2.15a1.8,1.8,0,0,1-3.37-.89,1.75,1.75,0,0,1,.21-.85l.58-1.08A1.52,1.52,0,0,0,409,403l.17-1.16a1.53,1.53,0,0,1,1.22-1.29l5.91-1.73a5.68,5.68,0,0,0,1.73-.66c1.46-.86,4.21-2.74,4.62-4.95.56-3.05.68-9.21.68-15.55,0,0-1.3-14.83-2.12-15.81l-.07-.28a41.19,41.19,0,0,1,9.85-.91c2.15,0,4.21.1,6.25.24l-.06.95c-1.8,15.81-2.46,31.94-2.12,34,.42,2.56,4.34,4.76,4.34,4.76,3.6,1.7,9,2.74,12.15,3.43a1.13,1.13,0,0,1,.89,1.1,1,1,0,0,1-.08.42,1.14,1.14,0,0,1-1.16.72Z"/><path class="cls-1" d="M428,335.14a59.44,59.44,0,0,0-12.34,1.31l-11.42,2.31a20.59,20.59,0,0,1-8.09,0,19.37,19.37,0,0,0-11.73.63c-7.41,2.74-7.74,5.13-9,8.19a9.46,9.46,0,0,1-6.8-3.16s-4-11.19-4-19.82l.66-7.82a45.51,45.51,0,0,1,7.22-8.19c5.95,2.6,14.38,5.83,20.65,6.4,10.76,1,16,5.21,19.55,8.79S428,335.14,428,335.14Z"/><path class="cls-3" d="M375.48,347.54a15.15,15.15,0,0,1-.85,1.8c-1.82,3.29-5.71,9.26-15.72,10.24l-1-.05a30.61,30.61,0,0,0,.71-4.54c.07-.8.12-1.59.15-2.36h.09s8.06-5.43,9.77-8.25A9.46,9.46,0,0,0,375.48,347.54Z"/><path class="cls-3" d="M370.35,307.57l2.2,1a45.51,45.51,0,0,0-7.22,8.19s-11.87-4.89-29.63-3.91-30.61,12.5-30.61,12.5a26.43,26.43,0,0,0-5-7.12c3.83-3.65,9.42-8.27,15.69-11.08,11.62-5.22,24.68-6.84,36.07-9.12,9.05-1.82,9.47-1.16,15-1.63C366.82,296.38,371.6,298.24,370.35,307.57Z"/><path class="cls-1" d="M365.33,316.74l-.66,7.82c0,8.63,4,19.82,4,19.82-1.71,2.82-9.77,8.25-9.77,8.25h-.09c1.12-22.7-10.22-30.55-17.45-33.25a18.55,18.55,0,0,0-11.64-.43c-7.68,2.24-20.13,9.66-19.91,34.26,0,1,.05,1.87.13,2.75,0,0-.62.17-1.64.38,0,0,1.66-17.69-2.2-28.91,0,0-.37-.86-1-2.1,0,0,12.86-11.52,30.61-12.5S365.33,316.74,365.33,316.74Z"/><path class="cls-4" d="M341.37,319.38c7.23,2.7,18.57,10.55,17.45,33.25,0,.77-.08,1.56-.15,2.36a30.61,30.61,0,0,1-.71,4.54,22.87,22.87,0,0,1-6.2,11.3,24,24,0,0,1-4.64,3.52,25.51,25.51,0,0,1-27.22-1,23.3,23.3,0,0,1-4.09-3.56,21.58,21.58,0,0,1-4.28-7A25.94,25.94,0,0,1,310,356c-.08-.88-.12-1.8-.13-2.75-.22-24.6,12.23-32,19.91-34.26A18.55,18.55,0,0,1,341.37,319.38Zm4.11,24.46a10.85,10.85,0,1,0-11.24,10.44A10.84,10.84,0,0,0,345.48,343.84Z"/><path class="cls-1" d="M351.76,370.83l.08.08a12.2,12.2,0,0,1-.51,2.3,9.29,9.29,0,0,1-7.15,6.37L339,380.71a1.46,1.46,0,0,0-.9.61l-1.84,2.75a3.23,3.23,0,0,1-2.68,1.44l-.32,0a3.21,3.21,0,0,1-2.64-2l-1-2.41a1.46,1.46,0,0,0-.92-.83l-6.14-1.9c-6.25-1.75-6.81-8.56-6.81-8.56l0,0a23.3,23.3,0,0,0,4.09,3.56,25.51,25.51,0,0,0,27.22,1A24,24,0,0,0,351.76,370.83Z"/><path class="cls-4" d="M335.05,332.6a10.85,10.85,0,1,1-11.25,10.45A10.84,10.84,0,0,1,335.05,332.6Z"/><path class="cls-3" d="M310,356a25.94,25.94,0,0,0,1.58,6.88c-2.83-.65-6.44-6-6.44-6,1.25-.15,2.37-.36,3.22-.53C309.33,356.13,310,356,310,356Z"/><path class="cls-1" d="M271,402.52l-.09.05c-5.08-.16-6.51-.18-6.51-.18-3.33,0-4.87,0-5.37.89l-2,3.62a2.65,2.65,0,0,1-2.33,1.38,1.38,1.38,0,0,1-1.38-1.3,2.44,2.44,0,0,1,0-.27l.71-5-4.16,5.36a3.09,3.09,0,0,1-2.45,1.2,1.17,1.17,0,0,1-1-1.68L249.5,400l-6,7.33a3,3,0,0,1-2.13.91,1.19,1.19,0,0,1-1.2-1.19,1.21,1.21,0,0,1,.34-.84l1.86-2.47-9.86.84a1.12,1.12,0,0,1-1.16-.71,1,1,0,0,1-.08-.42,1.14,1.14,0,0,1,.89-1.11c3.11-.69,8.55-1.73,12.15-3.42,0,0,3.92-2.2,4.34-4.77.34-2.06-3-20.28-5.28-40.47,0,0-1.63-16,1.3-23.14,0,0,4.24-4.23,16.62-6.19s18.81,1.31,23.09,1.63a15.76,15.76,0,0,0,4.15-.34,17.15,17.15,0,0,0,9.06-4.95c.72-.75,1.56-1.6,2.52-2.52a26.43,26.43,0,0,1,5,7.12c.65,1.24,1,2.1,1,2.1,3.86,11.22,2.2,28.91,2.2,28.91-.85.17-2,.38-3.22.53-3.08.37-7,.44-9.69-.91-5.15-2.57-13.94-7.14-17.85-7.95-2.3-.48-7.89-1.13-12.08-1.58a25.85,25.85,0,0,1-4.28-.81h0c-.06,4.74-2.16,24.2-2.16,24.2-.71,8,1.44,18.68,2,21.72.41,2.22,3.16,4.09,4.62,4.95a5.7,5.7,0,0,0,1.73.67l5.91,1.72a1.54,1.54,0,0,1,1.22,1.29l.17,1.16a1.52,1.52,0,0,0,.16.51l.58,1.08a1.75,1.75,0,0,1,.21.85,1.8,1.8,0,0,1-3.37.89Z"/><path class="cls-5" d="M351.76,370.83a24,24,0,0,1-4.64,3.52,25.51,25.51,0,0,1-27.22-1,23.3,23.3,0,0,1-4.09-3.56,21.58,21.58,0,0,1-4.28-7A25.94,25.94,0,0,1,310,356c-.08-.88-.12-1.8-.13-2.75-.22-24.6,12.23-32,19.91-34.26a18.55,18.55,0,0,1,11.64.43c7.23,2.7,18.57,10.55,17.45,33.25,0,.77-.08,1.56-.15,2.36a30.61,30.61,0,0,1-.71,4.54A22.87,22.87,0,0,1,351.76,370.83Z"/><path class="cls-5" d="M323.8,343.05a10.85,10.85,0,1,0,11.25-10.45A10.83,10.83,0,0,0,323.8,343.05Z"/><path class="cls-5" d="M315.77,369.83s.56,6.81,6.81,8.56l6.14,1.9a1.46,1.46,0,0,1,.92.83l1,2.41a3.21,3.21,0,0,0,2.64,2l.32,0a3.23,3.23,0,0,0,2.68-1.44l1.84-2.75a1.46,1.46,0,0,1,.9-.61l5.15-1.13a9.29,9.29,0,0,0,7.15-6.37,12.2,12.2,0,0,0,.51-2.3"/><path class="cls-5" d="M242.34,403.78l-9.86.84a1.12,1.12,0,0,1-1.16-.71,1,1,0,0,1-.08-.42,1.14,1.14,0,0,1,.89-1.11c3.11-.69,8.55-1.73,12.15-3.42,0,0,3.92-2.2,4.34-4.77.34-2.06-3-20.28-5.28-40.47,0,0-1.63-16,1.3-23.14,0,0,4.24-4.23,16.62-6.19s18.81,1.31,23.09,1.63a15.76,15.76,0,0,0,4.15-.34,17.15,17.15,0,0,0,9.06-4.95c.72-.75,1.56-1.6,2.52-2.52,3.83-3.65,9.42-8.27,15.69-11.08,11.62-5.22,24.68-6.84,36.07-9.12,9.05-1.82,9.47-1.16,15-1.63,1.42-.12,3.19-.32,5.53-.66,11.41-1.62,23.13-3.58,38.77,2.29S429.2,308.1,435,309.41s21.43-1,50.75,8.8l13.53,4.94"/><path class="cls-5" d="M270.94,402.57c-5.08-.16-6.51-.18-6.51-.18-3.33,0-4.87,0-5.37.89l-2,3.62a2.65,2.65,0,0,1-2.33,1.38,1.38,1.38,0,0,1-1.38-1.3,2.44,2.44,0,0,1,0-.27l.71-5-4.16,5.36a3.09,3.09,0,0,1-2.45,1.2,1.17,1.17,0,0,1-1-1.68L249.5,400l-6,7.33a3,3,0,0,1-2.13.91,1.19,1.19,0,0,1-1.2-1.19,1.21,1.21,0,0,1,.34-.84l1.86-2.47,2.52-3.36"/><path class="cls-5" d="M270.31,401.25l.72,1.27,1.23,2.15a1.8,1.8,0,0,0,3.37-.89,1.75,1.75,0,0,0-.21-.85l-.58-1.08a1.52,1.52,0,0,1-.16-.51l-.17-1.16a1.54,1.54,0,0,0-1.22-1.29l-5.91-1.72a5.7,5.7,0,0,1-1.73-.67c-1.46-.86-4.21-2.73-4.62-4.95-.56-3-2.71-13.74-2-21.72,0,0,2.1-19.46,2.16-24.2"/><line class="cls-5" x1="254.08" y1="401.72" x2="254.47" y2="400.28"/><path class="cls-5" d="M441.36,405.45l9.85.84a1.14,1.14,0,0,0,1.16-.72,1,1,0,0,0,.08-.42,1.13,1.13,0,0,0-.89-1.1c-3.11-.69-8.55-1.73-12.15-3.43,0,0-3.92-2.2-4.34-4.76-.34-2.06.32-18.19,2.12-34"/><path class="cls-5" d="M412.75,404.24c5.08-.16,6.51-.19,6.51-.19,3.33,0,4.87,0,5.37.9l2,3.62A2.65,2.65,0,0,0,429,410a1.38,1.38,0,0,0,1.38-1.31,2.44,2.44,0,0,0,0-.27l-.71-5,4.16,5.37a3.08,3.08,0,0,0,2.45,1.2,1.17,1.17,0,0,0,1-1.69l-3.07-6.55,6,7.33a3,3,0,0,0,2.13.91,1.19,1.19,0,0,0,1.2-1.19,1.18,1.18,0,0,0-.34-.84l-1.85-2.47h0l-2.52-3.37"/><path class="cls-5" d="M413.38,402.92l-.72,1.27-1.23,2.15a1.8,1.8,0,0,1-3.37-.89,1.75,1.75,0,0,1,.21-.85l.58-1.08A1.52,1.52,0,0,0,409,403l.17-1.16a1.53,1.53,0,0,1,1.22-1.29l5.91-1.73a5.68,5.68,0,0,0,1.73-.66c1.46-.86,4.21-2.74,4.62-4.95.56-3.05.68-9.21.68-15.55,0,0-1.3-14.83-2.12-15.81"/><line class="cls-5" x1="429.61" y1="403.38" x2="429.22" y2="401.95"/><path class="cls-5" d="M428,335.14s-11.72-7.81-15.29-11.4S404,315.92,393.2,315c-6.27-.57-14.7-3.8-20.65-6.4l-2.2-1c-3-1.38-5-2.4-5-2.4"/><path class="cls-5" d="M366.82,296.38s4.78,1.86,3.53,11.19"/><path class="cls-5" d="M310,356s-.62.17-1.64.38c-.85.17-2,.38-3.22.53-3.08.37-7,.44-9.69-.91-5.15-2.57-13.94-7.14-17.85-7.95-2.3-.48-7.89-1.13-12.08-1.58a25.85,25.85,0,0,1-4.28-.81,27.5,27.5,0,0,1-5.65-2.18"/><path class="cls-5" d="M358.91,352.63s8.06-5.43,9.77-8.25a9.46,9.46,0,0,0,6.8,3.16"/><path class="cls-5" d="M305.09,356.87s3.61,5.32,6.44,6"/><path class="cls-5" d="M308.31,356.34s1.66-17.69-2.2-28.91c0,0-.37-.86-1-2.1a26.43,26.43,0,0,0-5-7.12"/><path class="cls-5" d="M368.68,344.38s-4-11.19-4-19.82l.66-7.82a45.51,45.51,0,0,1,7.22-8.19"/><path class="cls-5" d="M305.09,325.33s12.86-11.52,30.61-12.5,29.63,3.91,29.63,3.91"/><path class="cls-5" d="M351.33,373.21s8.53,5.7,15.86,7.65,23.19,2.5,35.57-7.65c8.41-6.9,12.61-10.21,18.39-11.63a41.19,41.19,0,0,1,9.85-.91c2.15,0,4.21.1,6.25.24,9.91.63,19,2,32-4.15,0,0,15.52-6.14,21.95-10.23,1-.66,2-1.24,2.87-1.76,9-5.34,10.33-3.95,10.33-3.95a11,11,0,0,0,1.63.4,4.74,4.74,0,0,0,3.22-.67,5.39,5.39,0,0,0,1.89-2,21.48,21.48,0,0,1,3.42-4"/><path class="cls-5" d="M511.58,308.77c-1.27,4.33-5.61,8.6-7,9.65a8.75,8.75,0,0,0-1.06,1l-1.77,1.89a8.79,8.79,0,0,1-2.49,1.88c-3.13,1.55-4.17,3.05-6.43,4.93a27,27,0,0,1-7,3,91.37,91.37,0,0,1-17.72,3.4c-11,1.16-17.89,3.27-24.42,3.27-4.68,0-7.66-2.51-15.68-2.61a59.44,59.44,0,0,0-12.34,1.31l-11.42,2.31a20.59,20.59,0,0,1-8.09,0,19.37,19.37,0,0,0-11.73.63c-7.41,2.74-7.74,5.13-9,8.19a15.15,15.15,0,0,1-.85,1.8c-1.82,3.29-5.71,9.26-15.72,10.24"/><path class="cls-5" d="M509.22,340.55a27.63,27.63,0,0,1,6.66,1.67,17.21,17.21,0,0,0,10.91,1.47c5.29-.83,11.63,5.88,17.93,2.28s1.81-11.32-1-14.16a21.08,21.08,0,0,1-5.53-9.1c-1-3.25-3-6.48-5.87-5.16"/><path class="cls-5" d="M517.55,327.13l-1.84-1.95a3,3,0,0,0-4.11-.3c-1.09.9-1.72,3.6.63,6.28a16.05,16.05,0,0,0,3.17,2.65c.37.24.74.47,1.08.67a19.92,19.92,0,0,1,3.74,2.92,18.11,18.11,0,0,0,3.61,2.61,6.6,6.6,0,0,0,5,.7,5.05,5.05,0,0,0,3.14-2.38"/><path class="cls-5" d="M524,331.08l-5.73-3.3a2.39,2.39,0,0,1-1.19-1.86l0-.18a2.41,2.41,0,0,1,.76-2,2.37,2.37,0,0,1,1.61-.64,2.22,2.22,0,0,1,.51.06l.41.08a2.38,2.38,0,0,1,1.79,1.65,2.94,2.94,0,0,0,1.61,1.82l1.72.78"/><path class="cls-5" d="M519,306.07c.86,1.25.31,3-1.93,4.35a2.5,2.5,0,0,1-.63.27,4.19,4.19,0,0,1-4.51-2.13,6.47,6.47,0,0,1-.94-2.68c-.29-2.37,2.34-4,6.09-3.9,4.3.1,6.23,4.17,6.23,4.17a22.45,22.45,0,0,0,3.57,5.57c1.57,1.61,4.61,3.15,5.24,5.88,0,0,0,0,0,.07a4.21,4.21,0,0,1-1,3.66,2.94,2.94,0,0,1-2.27,1,26.46,26.46,0,0,0-2.79-.18c-1.92,0-4.36.18-5.66,1.16"/><path class="cls-5" d="M517.6,311.22a2.37,2.37,0,0,0-1,0,2.38,2.38,0,1,0,2.38,3.72,2.61,2.61,0,0,0,.17-.28,5.62,5.62,0,0,1,.78-1.2l1-1.07"/><path class="cls-5" d="M520,315a2.14,2.14,0,0,1,.86-.51,2.06,2.06,0,1,1-.86.51Z"/><path class="cls-5" d="M526.51,323.82a2.06,2.06,0,1,1-2.57-1.38A2.06,2.06,0,0,1,526.51,323.82Z"/><path class="cls-5" d="M524.09,317.77a2.2,2.2,0,0,1,1.31-1.09,2.18,2.18,0,0,1,1.27,4.18,2.28,2.28,0,0,1-.63.09,2.2,2.2,0,0,1-2.1-1.55A2.18,2.18,0,0,1,524.09,317.77Z"/><line class="cls-5" x1="526.51" y1="323.82" x2="528.72" y2="325.31"/><path class="cls-5" d="M485.86,331.08A34,34,0,0,0,494,344.77"/></svg>