<svg id="Layer_1" data-name="Layer 1" xmlns="http://www.w3.org/2000/svg" viewBox="0 0 700 700"><defs><style>.cls-1{fill:#120c0c;}.cls-2{fill:#feae63;}.cls-3{fill:#c4e7f9;}.cls-4{fill:#99abcc;}.cls-5{fill:none;stroke:#000;stroke-linecap:round;stroke-linejoin:round;stroke-width:2.3px;}</style></defs><title>Yoga_poses_2020_color</title><path class="cls-1" d="M580.94,435.38l-.61,1.38s-11.13.18-13.6.06c-4.9-.25-6.54,3.13-10.89,5.14s-8.6.93-10.53-.68c0,0-1.76-6.19-6.26-1.8a8.91,8.91,0,0,0-.9,1.82l-.15-.05s-1-1.49-4.38.61a7.68,7.68,0,0,1-6.27.93,6.8,6.8,0,0,1-4.15-3.46.18.18,0,0,0-.05-.08,1.76,1.76,0,0,0-.09-.2.75.75,0,0,0-.07-.12.09.09,0,0,0,0-.06,14.41,14.41,0,0,1-1.17-5.16c-.34-5.08,6.42-13.22,6.42-13.22a29.65,29.65,0,0,1,15-10.11,21.57,21.57,0,0,1,5-.89c1,0,2,.09,2.92.18C567.43,411.22,574.2,421.49,580.94,435.38Z"/><path class="cls-2" d="M538.15,441.3a8.91,8.91,0,0,1,.9-1.82c4.5-4.39,6.26,1.8,6.26,1.8,1.93,1.61,6.19,2.68,10.53.68s6-5.39,10.89-5.14c2.47.12,13.6-.06,13.6-.06l-.79,1.81s-1.84,9.37-5.3,14c-2.72,3.66-4.31,3.44-4.26,7l-1.1,6.31-5-2.22-7.11,8.12c-.22,1-3.19,7.93-11.48-.38,0,0-3.59-3.49-6.57-3-4.71.73-14.62,3.45-25.65,1.77a33.45,33.45,0,0,0-14.9,4.19l-2.21-.24-1.27-.95c10.57-4.93,19.49-7.08,24.34-11.93s7.91-14.42,4.21-21.87a6.8,6.8,0,0,0,4.15,3.46,7.68,7.68,0,0,0,6.27-.93c3.34-2.1,4.38-.61,4.38-.61ZM567.83,454c1-1.18,1.35-2.49.83-2.91s-1.72.19-2.7,1.38-1.35,2.49-.83,2.91S566.85,455.2,567.83,454Z"/><path d="M568.66,451.1c.52.42.14,1.73-.83,2.91s-2.19,1.81-2.7,1.38-.14-1.72.83-2.91S568.15,450.68,568.66,451.1Z"/><path class="cls-1" d="M551.11,397.74c4.82,6.48.07,11.22.07,11.22l-.06.71c-.94-.09-1.91-.15-2.92-.18a21.57,21.57,0,0,0-5,.89l0-.11c-9.46,1.46-10.7-7.25-8.85-10.58C536.94,395,546.28,391.26,551.11,397.74Z"/><path class="cls-2" d="M469.06,433.77c-.08.62-.18,1.25-.3,1.91-1.73,9.82-.63,9.32,1.32,20.48s5.62,13.12,5.62,13.12a19.09,19.09,0,0,0,6.18,2.35c4.28,1,9.28,1.68,11.48,2.1.57.11,1.46.23,2.56.35l2.21.24c6,.62,14.83,1.28,14.83,1.28l-.64,1.75c2.34.16,4.1.25,4.1.25v.4a2.06,2.06,0,0,1-2.06,2.06h-7c2.88.49,5.57.82,5.57.82l-.47.7a2.07,2.07,0,0,1-1.74.93h-8.54s-.18,1.64-1.46,1.64-7.65-.36-12-2.36c0,0-20,.45-22.2-1.73,0,0-.52-.65-1.34-1.87a53.82,53.82,0,0,1-5-9.5c-2.94-7.16-10.27-20.05-11.9-31.93-1.05-7.7-2-14.18-2.75-18.27a19.48,19.48,0,0,0-1.15-4.37c-1-1.79-1-6.68,4.72-8.14s12.54.28,23,4.46,10.1,2.71,19.87,8.08,12.41,5.7,17.37,7.49,9.76,5.48,13.64,12.86a.09.09,0,0,1,0,.06c0,.11.11.21.16.32a.18.18,0,0,1,.05.08c3.7,7.45.78,16.88-4.21,21.87s-13.77,7-24.34,11.93l-2.34-1.76a3,3,0,0,0-2.14-.6l-3.81.39c-15.84-11.35-13.58-33.25-13.58-33.25a30.91,30.91,0,0,1-3.71-4.14Z"/><path class="cls-3" d="M486.36,471.16l-4.48.47a19.09,19.09,0,0,1-6.18-2.35s-3.67-2-5.62-13.12-3.05-10.66-1.32-20.48c.12-.66.22-1.29.3-1.91h0a30.91,30.91,0,0,0,3.71,4.14S470.52,459.81,486.36,471.16Z"/><path class="cls-3" d="M460.19,468.69a53.82,53.82,0,0,0,5,9.5S453.7,476,447,475.42c0,0-11.4.4-15-3s-7.33-10.24-11.23-14.32-14-14-16.46-17.43a72.84,72.84,0,0,0-9-9s19-8.69,28.86-32.17l1.35,2.74c3.09,6.19,20.05,16.26,20.05,16.26.78,4.09,1.7,10.57,2.75,18.27C449.92,448.64,457.25,461.53,460.19,468.69Z"/><path class="cls-4" d="M386.66,425.75c-5.57,5.2-17.78,15.66-17.78,15.66C359,449,335,463.81,324.41,469.26s-23.29,9-28.1,9-6.76-.24-11.07-2.93-23.87-9.94-31.28-11.72-27.45-8.15-34.53-11.17c-3.78-1.6-9.12-2.33-13.91-2.63-3.58-8.2,2.1-20,2.1-20,10.51,1.52,23.64,3,36.89,3.82,27.37,1.63,36,7.49,41.21,10.43s6.52,2.28,6.52,2.28c14-4.08,30.3-30.34,37-38.12,5.13-6,22.31-22.16,36.65-34.37s30-5.7,39.58,0c8.42,5,15.08,18.23,18.69,25.6-9.82,23.48-28.86,32.17-28.86,32.17-3.43-3-6.74-5.48-7.91-5.48Z"/><path class="cls-2" d="M176.6,478.39a1.4,1.4,0,0,1-1.25.78h-1.87a2.28,2.28,0,0,1-1.82-.9l-2.88-4.42h0l-.65-2.56a32.45,32.45,0,0,1-.09,3.52,2.6,2.6,0,0,1-1,1.6,2.25,2.25,0,0,1-2.92,0,2.19,2.19,0,0,1-.58-2.43l.25-.64L163,473c-1.46-1.79-4.15-5.21-.89-15.88,2.39-7.84,3.91-12.87,3.91-17.76s-.33-9.28,2.77-15.15,13,.17,17.26,1.63c2.19.76,10.4,2.38,21.59,4,0,0-5.68,11.8-2.1,20a98.73,98.73,0,0,0-9.88-.13c-4.07.16-8.79,4.15-13.76,8.79s-6.52,5.95-6.44,8.8c.07,2.39,2.88,4,3.8,4.45a1.72,1.72,0,0,0,.54.18l2.57.45a1.9,1.9,0,0,1,1.59,1.87,1,1,0,0,1,0,.17,3.5,3.5,0,0,1-3.49,3.22h-.11l-.32,0a1.68,1.68,0,0,1-.24.29,2,2,0,0,1-1.35.56h-1.67Z"/><path class="cls-2" d="M169.48,476.62a2,2,0,0,1-1.51,2.49,2,2,0,0,1-.48.06,2,2,0,0,1-1.9-1.3l-.28-.72,0-.23a2.15,2.15,0,0,0,1.7-.52,2.6,2.6,0,0,0,1-1.6,32.45,32.45,0,0,0,.09-3.52l.65,2.56h0Z"/><path class="cls-5" d="M545.31,441.28s-1.76-6.19-6.26-1.8a8.91,8.91,0,0,0-.9,1.82,8.6,8.6,0,0,0,.83,8s2.33,2.53,3.19-1.6"/><path class="cls-5" d="M538.12,454.56s-2.74,5,.72,8.78"/><path class="cls-5" d="M580.33,436.76s-11.13.18-13.6.06c-4.9-.25-6.54,3.13-10.89,5.14s-8.6.93-10.53-.68"/><path class="cls-5" d="M551.18,409s4.75-4.74-.07-11.22-14.17-2.71-16.76,1.95c-1.85,3.33-.61,12,8.85,10.58"/><path class="cls-5" d="M523,438.87a14.41,14.41,0,0,1-1.17-5.16c-.34-5.08,6.42-13.22,6.42-13.22"/><path class="cls-5" d="M523.15,439.25c0-.11-.11-.21-.16-.32"/><path class="cls-5" d="M538,441.25s-1-1.49-4.38.61a7.68,7.68,0,0,1-6.27.93,6.8,6.8,0,0,1-4.15-3.46"/><path class="cls-5" d="M528.21,420.49a29.65,29.65,0,0,1,15-10.11,21.57,21.57,0,0,1,5-.89c1,0,2,.09,2.92.18,16.31,1.55,23.08,11.82,29.82,25.71l-.61,1.38-.79,1.81s-1.84,9.37-5.3,14c-2.72,3.66-4.31,3.44-4.26,7l-1.1,6.31-5-2.22-7.11,8.12c-.22,1-3.19,7.93-11.48-.38,0,0-3.59-3.49-6.57-3-4.71.73-14.62,3.45-25.65,1.77a33.45,33.45,0,0,0-14.9,4.19"/><path class="cls-5" d="M490.91,477.78s3.1,1.46,4.92,2.55a32.48,32.48,0,0,0,6.38,2.18s-.18,1.64-1.46,1.64-7.65-.36-12-2.36c0,0-20,.45-22.2-1.73,0,0-.52-.65-1.34-1.87a53.82,53.82,0,0,1-5-9.5c-2.94-7.16-10.27-20.05-11.9-31.93-1.05-7.7-2-14.18-2.75-18.27a19.48,19.48,0,0,0-1.15-4.37c-1-1.79-1-6.68,4.72-8.14s12.54.28,23,4.46,10.1,2.71,19.87,8.08,12.41,5.7,17.37,7.49,9.76,5.48,13.64,12.86a.09.09,0,0,1,0,.06.75.75,0,0,1,.07.12,1.76,1.76,0,0,1,.09.2.18.18,0,0,1,.05.08c3.7,7.45.78,16.88-4.21,21.87s-13.77,7-24.34,11.93q-.64.28-1.29.6"/><path class="cls-5" d="M507.37,480.06c-1.42-.24-2.87-.52-4.07-.82-3.64-.92-5.65-1.64-5.65-1.64"/><path class="cls-5" d="M502.21,482.51h8.54a2.07,2.07,0,0,0,1.74-.93l.47-.7s-2.69-.33-5.57-.82"/><path class="cls-5" d="M507.37,480.06h7a2.06,2.06,0,0,0,2.06-2.06v-.4s-1.76-.09-4.1-.25c-3.38-.23-8-.6-10.11-1"/><path class="cls-5" d="M512.32,477.35l.64-1.75s-8.82-.66-14.83-1.28l-2.21-.24c-1.1-.12-2-.24-2.56-.35-2.2-.42-7.2-1.06-11.48-2.1a19.09,19.09,0,0,1-6.18-2.35s-3.67-2-5.62-13.12-3.05-10.66-1.32-20.48c.12-.66.22-1.29.3-1.91,1.21-8.6-.3-13.28-.3-13.28"/><path class="cls-5" d="M481.88,471.63l4.48-.47,3.81-.39a3,3,0,0,1,2.14.6l2.34,1.76,1.27.95"/><path class="cls-5" d="M469.07,433.77a30.91,30.91,0,0,0,3.71,4.14,27.63,27.63,0,0,0,4.18,3.25c4.73,2.94,6.77,9,11.94,11.41a26,26,0,0,1,4.52,2"/><path class="cls-5" d="M472.78,437.91s-2.26,21.9,13.58,33.25h0"/><path class="cls-5" d="M465.19,478.19S453.7,476,447,475.42c0,0-11.4.4-15-3s-7.33-10.24-11.23-14.32-14-14-16.46-17.43a72.84,72.84,0,0,0-9-9c-3.43-3-6.74-5.48-7.91-5.48"/><path class="cls-5" d="M445.54,418.49s-17-10.07-20.05-16.26l-1.35-2.74c-3.61-7.37-10.27-20.61-18.69-25.6-9.61-5.7-25.25-12.22-39.58,0s-31.52,28.38-36.65,34.37c-6.68,7.78-23,34-37,38.12,0,0-1.3.65-6.52-2.28s-13.84-8.8-41.21-10.43c-13.25-.79-26.38-2.3-36.89-3.82-11.19-1.62-19.4-3.24-21.59-4-4.23-1.46-14.17-7.49-17.26-1.63S166,434.48,166,439.37s-1.52,9.92-3.91,17.76c-3.26,10.67-.57,14.09.89,15.88"/><path class="cls-5" d="M168.12,471.28a32.45,32.45,0,0,1-.09,3.52,2.6,2.6,0,0,1-1,1.6,2.25,2.25,0,0,1-2.92,0,2.19,2.19,0,0,1-.58-2.43l.25-.64.29-.75"/><path class="cls-5" d="M168.1,470.48s0,.31,0,.78"/><path class="cls-5" d="M168.78,473.85l.7,2.77a2,2,0,0,1-1.51,2.49,2,2,0,0,1-.48.06,2,2,0,0,1-1.9-1.3l-.28-.72"/><polyline class="cls-5" points="168.11 471.22 168.12 471.26 168.12 471.28 168.77 473.84"/><path class="cls-5" d="M168.77,473.84h0l2.88,4.42a2.28,2.28,0,0,0,1.82.9h1.87a1.4,1.4,0,0,0,1.25-.78,1.32,1.32,0,0,0,.15-.62,1.38,1.38,0,0,0-.84-1.27l-1.44-.61s-2.2-.84-2.6-4.18"/><path class="cls-5" d="M174.94,471.22s.5,2.19,4.3,3.61a1.81,1.81,0,0,1,1.09,1.72,1.93,1.93,0,0,1-.32,1.07,1.68,1.68,0,0,1-.24.29,2,2,0,0,1-1.35.56h-1.67"/><path class="cls-5" d="M180.33,477.65h.11a3.5,3.5,0,0,0,3.49-3.22,1,1,0,0,0,0-.17,1.9,1.9,0,0,0-1.59-1.87l-2.57-.45a1.72,1.72,0,0,1-.54-.18c-.92-.46-3.73-2.06-3.8-4.45-.08-2.85,1.47-4.16,6.44-8.8s9.69-8.63,13.76-8.79a98.73,98.73,0,0,1,9.88.13c4.79.3,10.13,1,13.91,2.63,7.08,3,27.12,9.39,34.53,11.17s27,9,31.28,11.72,6.27,3,11.07,2.93,17.51-3.58,28.1-9S359,449,368.88,441.41c0,0,12.21-10.46,17.78-15.66l.52-.49a12.45,12.45,0,0,1,3.47-2.31,16.64,16.64,0,0,0,5.36-3.89"/><path class="cls-5" d="M395.28,431.66s19-8.69,28.86-32.17"/><path class="cls-5" d="M207.62,429.85s-5.68,11.8-2.1,20"/></svg>