<svg id="Layer_1" data-name="Layer 1" xmlns="http://www.w3.org/2000/svg" viewBox="0 0 700 700"><defs><style>.cls-1{fill:#feae63;}.cls-2{fill:#99abcc;}.cls-3{fill:#c4e7f9;}.cls-4{fill:#170607;}.cls-5{fill:none;stroke:#000;stroke-linecap:round;stroke-linejoin:round;stroke-width:2.3px;}</style></defs><title>Yoga_poses_2020_color</title><path class="cls-1" d="M455.49,365c1.69-.63,4.43.07,6.32.71,1.2.41,2.05.79,2.05.79a2.9,2.9,0,0,0,2.45-.27,4.19,4.19,0,0,0,2.07-3.2V363h.18c3.1-.44,4.13,3.24,4.13,6.63A21.18,21.18,0,0,0,475.34,380c1.92,3.53,4,12.23-3.09,13.85s-11.2-6.63-16.51-7.37a17.13,17.13,0,0,1-10-4.57,27.83,27.83,0,0,0-5.89-3.51h0A5.35,5.35,0,0,0,442.2,377a21.56,21.56,0,0,1,4.45-2.87l1.05-.47a15.25,15.25,0,0,1-2.27-3.45c-1.48-3.24-.09-5.65,1.22-6.19a3,3,0,0,1,3.84,1.47l1.2,2.4a2.36,2.36,0,0,1-.09-1.29l0-.17a2.38,2.38,0,0,1,2.34-1.9,2.45,2.45,0,0,1,1.15.29Zm5.74,2.29a2.07,2.07,0,1,0-2.07,2.06A2.07,2.07,0,0,0,461.23,367.33Z"/><path class="cls-1" d="M455.36,352.38l0-.53a4.19,4.19,0,0,1-3.72-3.36,6.32,6.32,0,0,1-.12-2.83c.41-2.35,3.39-3.14,6.95-2,4.09,1.34,4.76,5.8,4.76,5.8a22.59,22.59,0,0,0,1.8,6.36c1.05,2,3.51,4.35,3.32,7.15v.07a4.19,4.19,0,0,1-2.07,3.2,2.9,2.9,0,0,1-2.45.27s-.85-.38-2.05-.79l.17-1.22h.25a2.19,2.19,0,0,0,0-4.37,2.1,2.1,0,0,0-1.22.38l-1.32-.05a2.11,2.11,0,0,0,.9-1.72,2.06,2.06,0,0,0-2.06-2.06,2.17,2.17,0,0,0-.81.16l-1.45,0a2.38,2.38,0,1,1-.91-4.46Z"/><path class="cls-1" d="M462.23,360.17a2.19,2.19,0,0,1,0,4.37H462a2.2,2.2,0,0,1-1.94-2.18,2.15,2.15,0,0,1,1-1.8A2.1,2.1,0,0,1,462.23,360.17Z"/><path class="cls-1" d="M462,364.53l-.17,1.22c-1.89-.64-4.63-1.34-6.32-.71l-.37-.21a2.45,2.45,0,0,0-1.15-.29,2.38,2.38,0,0,0-2.34,1.9l0,.17a2.36,2.36,0,0,0,.09,1.29l-1.2-2.4a3,3,0,0,0-3.84-1.47c-1.31.54-2.7,3-1.22,6.19a15.25,15.25,0,0,0,2.27,3.45l-1.05.47A21.56,21.56,0,0,0,442.2,377a5.35,5.35,0,0,1-2.37,1.33,4.73,4.73,0,0,1-3.28-.29,10.47,10.47,0,0,1-1.44-.86s.13-1.6-9.85,1.3c-5.05-5.28-4.24-14.72-4.24-14.72l0-.43a16.18,16.18,0,0,0,6.76-1.68c2.7-1.14,4.14-2.28,7.58-2.86a8.64,8.64,0,0,0,2.93-1.08l2.24-1.3a8.46,8.46,0,0,1,1.29-.61c1.63-.6,7-3.43,9.5-7.21l.38-.11a4.19,4.19,0,0,0,3.72,3.36l0,.53a2.37,2.37,0,1,0,.91,4.46l1.45,0a2.07,2.07,0,0,0,.81,4,2.09,2.09,0,0,0,1.16-.35l1.32.05a2.15,2.15,0,0,0-1,1.8A2.2,2.2,0,0,0,462,364.53Z"/><path class="cls-1" d="M459.16,365.27a2.06,2.06,0,1,1-2.06,2.06A2.07,2.07,0,0,1,459.16,365.27Z"/><path class="cls-1" d="M458.53,356.72a2.06,2.06,0,0,1,2.06,2.06,2,2,0,0,1-2.06,2.07,2.07,2.07,0,0,1-.81-4A2.17,2.17,0,0,1,458.53,356.72Z"/><path class="cls-2" d="M321,312.65c12.46,1.25,14,1.12,20.82,2.83a80.42,80.42,0,0,1,13.86,5.21A27.67,27.67,0,0,0,362,323.2a28.93,28.93,0,0,1,4.28,1.5l4.62,2.06a27.61,27.61,0,0,0,6.89,2.05c4.46.7,12.51,2.26,18.6,5.06,8.89,4.08,39,24.93,39,24.93-3.44.58-4.88,1.72-7.58,2.86a16.18,16.18,0,0,1-6.76,1.68c-3.35.17-8.56-.16-17.43-1.52-10.41-1.61-15.14-1.87-18.9-1.84h0a27.64,27.64,0,0,0-10-7.32,12.28,12.28,0,0,0-2.22-.65l-.08,0a13.51,13.51,0,0,0-2.38-.22h-5.82c-9.16-2.45-17.47-5.2-22.27-8.4-2.88-1.92-6.25-3.2-10.07-4.95l-.07,0c-.55-.27-1.09-.53-1.61-.76h0a58.78,58.78,0,0,1-6.54-3.67c-7.37-4.81-22.42-10-22.42-10-1.13-3.56-2.25-1.8-2.76-.66.27-1.13,1.93-9-1.31-15.88l.95-.47S310.25,305.35,321,312.65Z"/><path class="cls-2" d="M425.26,378.49c-.95.27-2,.59-3.12.95-13.13,4.16-40.84,6.88-54.93,5.92a56.94,56.94,0,0,0-6.23-.14c-5.26.22-8.78,1.5-15.32,4.18-4.35,1.78-10.05,4.2-18.5,7.33-25.46,9.45-41.32,6.89-48.68.48,22.74-7,26.1-6.72,31.87-15.53,3-4.64,4.47-9.11,6.33-12.41,1.65-3,3.66-5,7.44-5.37,8-.8,13.94.48,27.87-6.89a7.66,7.66,0,0,1,7.53,0,32.73,32.73,0,0,0,4.64,1.52,50.6,50.6,0,0,0,10.89,1.53c4.2.14,6.6-.07,9.61-.08,3.76,0,8.49.23,18.9,1.84,8.87,1.36,14.08,1.69,17.43,1.52l0,.43S420.21,373.21,425.26,378.49Z"/><path class="cls-1" d="M372.2,420.94a1.24,1.24,0,0,1-.08.41,1.15,1.15,0,0,1-1.16.72l-9.86-.85-2.52-3.36.58-1.46c3.6,1.69,9,2.73,12.15,3.42A1.14,1.14,0,0,1,372.2,420.94Z"/><path class="cls-1" d="M330.11,337.61h0c.55.27,1.08.52,1.61.76l.07,0c3.82,1.75,7.19,3,10.07,4.95,4.8,3.2,13.11,5.95,22.27,8.4v6.76h0a32.73,32.73,0,0,1-4.64-1.52,7.66,7.66,0,0,0-7.53,0c-13.93,7.37-19.86,6.09-27.87,6.89-3.78.38-5.79,2.4-7.44,5.37a16.82,16.82,0,0,0-8.4-4.41c-2.61-10.78-5.63-17.66-9.9-27h-.05a43,43,0,0,0,.39-6.64h.11c.17,2.34,1.23,1.08,1.23,1.08,2-3.42,1.09-8.34,1.09-8.34s15.05,5.2,22.42,10A58.78,58.78,0,0,0,330.11,337.61Z"/><path class="cls-1" d="M332.41,420l-1.23,2.16a1.81,1.81,0,0,1-1.57.9,1.79,1.79,0,0,1-1.8-1.8,1.74,1.74,0,0,1,.21-.84l.58-1.09a1.46,1.46,0,0,0,.16-.5l.17-1.17a1.54,1.54,0,0,1,1.21-1.29l5.91-1.72a5.66,5.66,0,0,0,1.74-.67c1.46-.85,4.2-2.73,4.61-4.95.56-3,2.22-14.38,3.26-19.59,6.54-2.68,10.06-4,15.32-4.18-4.44,13.85-6.5,24.35-6.16,26.41.41,2.57,4.34,4.77,4.34,4.77l-.58,1.46,2.52,3.36L363,423.7a1.18,1.18,0,0,1,.35.83,1.2,1.2,0,0,1-1.2,1.2,2.92,2.92,0,0,1-2.13-.92l-6-7.33L357,424a1.17,1.17,0,0,1-1.05,1.69,3.1,3.1,0,0,1-2.44-1.2l-4.16-5.37.7,5a.88.88,0,0,1,0,.16s0,.07,0,.11a1.38,1.38,0,0,1-1.38,1.31,2.65,2.65,0,0,1-2.33-1.39l-2-3.62c-.51-.92-2-.9-5.38-.89l-6.51.18Z"/><path class="cls-3" d="M316.68,369.27c-1.86,3.3-3.29,7.77-6.33,12.41-5.77,8.81-9.13,8.49-31.87,15.53s-34-11.53-35.45-14.73c0,0,2.93,4.32,12.54,0l7.69-3.69s7.05,7.21,25.31,2.81,19.71-16.74,19.71-16.74A16.82,16.82,0,0,1,316.68,369.27Z"/><path class="cls-1" d="M308.28,364.86s-1.46,12.33-19.71,16.74-25.31-2.81-25.31-2.81-4.52-15.78-6.42-23.19C253.39,342.18,245,335.33,245,335.33l10.13-3.88a12.2,12.2,0,0,0,3.26,6.22s1.37.87.87-1.34h0c.61,2.75,3.67,9.06,5,12.31a16.48,16.48,0,0,0,17.86,9s12.9-1.55,15.19-13.62c.26-1.41.67-3.7,1-6.16h.05C302.65,347.2,305.67,354.08,308.28,364.86Z"/><path class="cls-1" d="M298.83,331.19h-.11l-.58-8.44c.08.22.15.44.22.66l0-.12v0c.51-1.14,1.63-2.9,2.76.66,0,0,1,4.92-1.09,8.34C300.06,332.27,299,333.53,298.83,331.19Z"/><path class="cls-1" d="M298.72,331.19a43,43,0,0,1-.39,6.64c-.3,2.46-.71,4.75-1,6.16-2.29,12.07-15.19,13.62-15.19,13.62a16.48,16.48,0,0,1-17.86-9c-1.36-3.25-4.42-9.56-5-12.31a2.21,2.21,0,0,1,0-.25l-2-7.91c-.21-1.46-1.42-14,18.38-16.74,11.95-1.68,19,1.19,22.48,11.33Zm-10.75.38a2.32,2.32,0,1,0-2.27-2A2.16,2.16,0,0,0,288,331.57Zm-18,2.35a2.32,2.32,0,1,0-2.28-2A2.17,2.17,0,0,0,270,333.92Z"/><path class="cls-4" d="M257.28,328.16a.54.54,0,0,1,0,.11.33.33,0,0,1-.06-.12c-.74-1.49-6.6-14.14.82-22.72a21.43,21.43,0,0,1,6.25-4.94c6.83-3.63,14.6-3.41,18.21-3,1.3.13,2.06.28,2.06.28,6.85,1.76,10.56,5.53,12.51,9.66,3.24,6.88,1.58,14.75,1.31,15.88v0l0,.12c-.07-.22-.14-.44-.22-.66-3.49-10.14-10.53-13-22.48-11.33C255.86,314.15,257.07,326.7,257.28,328.16Z"/><path d="M289.62,329a2,2,0,1,1-2.28-2A2.16,2.16,0,0,1,289.62,329Z"/><path class="cls-4" d="M284.63,297.41l-2.12,0c-3.61-.37-11.38-.59-18.21,3l-.18-.39c-.7-5.31,3.33-10.22,9-11S283.93,292.1,284.63,297.41Z"/><path d="M271.66,331.37a2,2,0,1,1-2.28-2A2.17,2.17,0,0,1,271.66,331.37Z"/><path class="cls-1" d="M225.31,420.11l-4.15,5.37a3.09,3.09,0,0,1-2.45,1.2,1.17,1.17,0,0,1-1.17-1.17,1.06,1.06,0,0,1,.13-.52l3.07-6.56-6,7.34a2.93,2.93,0,0,1-2.13.91,1.2,1.2,0,0,1-.85-2l1.85-2.47-9.86.84a1.15,1.15,0,0,1-1.16-.72,1.24,1.24,0,0,1-.08-.41,1.13,1.13,0,0,1,.9-1.11c3.11-.69,8.55-1.74,12.14-3.43,0,0,3.93-2.2,4.35-4.76.33-2.06-2.73-17.62-7.16-31.47,0,0-3.89-12.9-3.89-22.83v-4.5a7.73,7.73,0,0,1,2.63-5.81l1.38-1.21a7.71,7.71,0,0,1,2.93-1.6c1.68-.49,4.25-1.2,5.87-1.48a42.64,42.64,0,0,1,6.88-.31h0l4.21-2.8a21.65,21.65,0,0,1,4.31-2.21l7.94-3s8.42,6.85,11.87,20.27c1.9,7.41,6.42,23.19,6.42,23.19l-7.69,3.69c-9.61,4.32-12.54,0-12.54,0-1.48-3.2-6.8-10.14-6.8-10.14a20.75,20.75,0,0,0-4.43-1.2c-1.13-.18-2.22-.39-3.25-.62l0,.19s.72,21.78,1.76,27,1.44,9.21,2,12.26c.41,2.21,3.15,4.09,4.61,4.95a5.74,5.74,0,0,0,1.74.66l5.91,1.73a1.52,1.52,0,0,1,1.21,1.29l.17,1.16a1.54,1.54,0,0,0,.17.51l.57,1.08a1.75,1.75,0,0,1,.21.85,1.8,1.8,0,0,1-3.36.89l-1.23-2.15-.09.05c-5.09-.16-6.51-.19-6.51-.19-3.34,0-4.87,0-5.38.9l-2,3.62a2.66,2.66,0,0,1-2.33,1.38,1.38,1.38,0,0,1-1.38-1.31v-.08a1.21,1.21,0,0,1,0-.19Z"/><path class="cls-1" d="M259.23,336.33c.5,2.21-.87,1.34-.87,1.34a12.2,12.2,0,0,1-3.26-6.22,12.77,12.77,0,0,1-.26-1.41c0-3.25,1.22-2.66,2.07-1.83l.32-.06a.33.33,0,0,0,.06.12.54.54,0,0,0,0-.11l2,7.91a2.21,2.21,0,0,0,0,.25Z"/><path class="cls-5" d="M213.57,422.18l-9.86.84a1.15,1.15,0,0,1-1.16-.72,1.24,1.24,0,0,1-.08-.41,1.13,1.13,0,0,1,.9-1.11c3.11-.69,8.55-1.74,12.14-3.43,0,0,3.93-2.2,4.35-4.76.33-2.06-2.73-17.62-7.16-31.47,0,0-3.89-12.9-3.89-22.83v-4.5a7.73,7.73,0,0,1,2.63-5.81l1.38-1.21a7.71,7.71,0,0,1,2.93-1.6c1.68-.49,4.25-1.2,5.87-1.48a42.64,42.64,0,0,1,6.88-.31"/><path class="cls-5" d="M242.18,421c-5.09-.16-6.51-.19-6.51-.19-3.34,0-4.87,0-5.38.9l-2,3.62a2.66,2.66,0,0,1-2.33,1.38,1.38,1.38,0,0,1-1.38-1.31v-.08a1.21,1.21,0,0,1,0-.19l.7-5-4.15,5.37a3.09,3.09,0,0,1-2.45,1.2,1.17,1.17,0,0,1-1.17-1.17,1.06,1.06,0,0,1,.13-.52l3.07-6.56-6,7.34a2.93,2.93,0,0,1-2.13.91,1.2,1.2,0,0,1-.85-2l1.85-2.47,2.53-3.37"/><path class="cls-5" d="M241.54,419.65l.73,1.27,1.23,2.15a1.8,1.8,0,0,0,3.36-.89,1.75,1.75,0,0,0-.21-.85l-.57-1.08a1.54,1.54,0,0,1-.17-.51l-.17-1.16a1.52,1.52,0,0,0-1.21-1.29l-5.91-1.73a5.74,5.74,0,0,1-1.74-.66c-1.46-.86-4.2-2.74-4.61-4.95-.56-3.05-1-7.05-2-12.26s-1.76-27-1.76-27"/><line class="cls-5" x1="225.31" y1="420.11" x2="225.7" y2="418.68"/><path class="cls-5" d="M214.89,364.86a39.68,39.68,0,0,0,13.66,5.66c1,.23,2.12.44,3.25.62a20.75,20.75,0,0,1,4.43,1.2l3.33,1.33"/><path class="cls-5" d="M230.22,367.08,225,364a10.59,10.59,0,0,1-5.13-7.43c0-.22-.05-.44-.07-.67a9.1,9.1,0,0,1,0-.91,10.8,10.8,0,0,1,4.83-9l3.88-2.58h0l4.21-2.8a21.65,21.65,0,0,1,4.31-2.21l7.94-3,10.13-3.88"/><path class="cls-5" d="M236.23,372.34s5.32,6.94,6.8,10.14,12.7,21.78,35.45,14.73,26.1-6.72,31.87-15.53c3-4.64,4.47-9.11,6.33-12.41,1.65-3,3.66-5,7.44-5.37,8-.8,13.94.48,27.87-6.89a7.66,7.66,0,0,1,7.53,0,32.73,32.73,0,0,0,4.64,1.52,50.6,50.6,0,0,0,10.89,1.53c4.2.14,6.6-.07,9.61-.08,3.76,0,8.49.23,18.9,1.84,8.87,1.36,14.08,1.69,17.43,1.52a16.18,16.18,0,0,0,6.76-1.68c2.7-1.14,4.14-2.28,7.58-2.86a8.64,8.64,0,0,0,2.93-1.08l2.24-1.3a8.46,8.46,0,0,1,1.29-.61c1.63-.6,7-3.43,9.5-7.21"/><path class="cls-5" d="M331.82,338.41c3.82,1.75,7.19,3,10.07,4.95,4.8,3.2,13.11,5.95,22.27,8.4v6.76"/><path class="cls-5" d="M330.14,337.62c.55.27,1.08.52,1.61.76"/><path class="cls-5" d="M301.15,323.93s15.05,5.2,22.42,10a58.78,58.78,0,0,0,6.54,3.67"/><path class="cls-5" d="M446.65,374.14A21.56,21.56,0,0,0,442.2,377a5.35,5.35,0,0,1-2.37,1.33,4.73,4.73,0,0,1-3.28-.29,10.47,10.47,0,0,1-1.44-.86s.13-1.6-9.85,1.3c-.95.27-2,.59-3.12.95-13.13,4.16-40.84,6.88-54.93,5.92a56.94,56.94,0,0,0-6.23-.14c-5.26.22-8.78,1.5-15.32,4.18-4.35,1.78-10.05,4.2-18.5,7.33-25.46,9.45-41.32,6.89-48.68.48"/><path class="cls-5" d="M372.44,352a12.28,12.28,0,0,1,2.22.65,27.64,27.64,0,0,1,10,7.32"/><path class="cls-5" d="M364.16,351.76H370a13.51,13.51,0,0,1,2.38.22"/><path class="cls-5" d="M243,382.48s2.93,4.32,12.54,0l7.69-3.69s7.05,7.21,25.31,2.81,19.71-16.74,19.71-16.74a16.82,16.82,0,0,1,8.4,4.41"/><path class="cls-5" d="M439.83,378.35a27.83,27.83,0,0,1,5.89,3.51,17.13,17.13,0,0,0,10,4.57c5.31.74,9.43,9,16.51,7.37s5-10.32,3.09-13.85a21.18,21.18,0,0,1-2.65-10.32c0-3.39-1-7.07-4.13-6.63"/><path class="cls-5" d="M451.69,367.9l-1.2-2.4a3,3,0,0,0-3.84-1.47c-1.31.54-2.7,3-1.22,6.19a15.25,15.25,0,0,0,2.27,3.45c.28.34.57.67.84,1a20.49,20.49,0,0,1,2.73,3.87,18.25,18.25,0,0,0,2.71,3.55,6.56,6.56,0,0,0,4.56,2.11,5.09,5.09,0,0,0,3.69-1.37"/><path class="cls-5" d="M456.73,373.55l-4.53-4.81a2.43,2.43,0,0,1-.51-.84,2.36,2.36,0,0,1-.09-1.29l0-.17a2.38,2.38,0,0,1,2.34-1.9,2.45,2.45,0,0,1,1.15.29l.37.21a2.37,2.37,0,0,1,1.24,2.09,2.93,2.93,0,0,0,1,2.21l1.42,1.24"/><path class="cls-5" d="M459.16,348.16c.47,1.45-.58,3-3.1,3.61a3.07,3.07,0,0,1-.67.08,4.19,4.19,0,0,1-3.72-3.36,6.32,6.32,0,0,1-.12-2.83c.41-2.35,3.39-3.14,6.95-2,4.09,1.34,4.76,5.8,4.76,5.8a22.59,22.59,0,0,0,1.8,6.36c1.05,2,3.51,4.35,3.32,7.15v.07a4.19,4.19,0,0,1-2.07,3.2,2.9,2.9,0,0,1-2.45.27s-.85-.38-2.05-.79c-1.89-.64-4.63-1.34-6.32-.71"/><path class="cls-5" d="M456.34,352.69a2.34,2.34,0,0,0-1-.31,2.38,2.38,0,1,0,1.48,4,6,6,0,0,1,1.09-.92l1.23-.75"/><path class="cls-5" d="M457.72,356.88a2.17,2.17,0,0,1,.81-.16,2.06,2.06,0,0,1,2.06,2.06,2,2,0,0,1-2.06,2.07,2.07,2.07,0,0,1-.81-4Z"/><path class="cls-5" d="M461.23,367.33a2.07,2.07,0,1,1-2.07-2.06A2.07,2.07,0,0,1,461.23,367.33Z"/><path class="cls-5" d="M461,360.55a2.1,2.1,0,0,1,1.22-.38,2.19,2.19,0,0,1,0,4.37H462a2.2,2.2,0,0,1-1.94-2.18A2.15,2.15,0,0,1,461,360.55Z"/><path class="cls-5" d="M421,363.77s-.81,9.44,4.24,14.72"/><line class="cls-5" x1="461.23" y1="367.33" x2="462.9" y2="369.39"/><path class="cls-5" d="M435.33,358.8s-30.09-20.85-39-24.93c-6.09-2.8-14.14-4.36-18.6-5.06a27.61,27.61,0,0,1-6.89-2.05l-4.62-2.06a28.93,28.93,0,0,0-4.28-1.5,27.67,27.67,0,0,1-6.33-2.51,80.42,80.42,0,0,0-13.86-5.21c-6.8-1.71-8.36-1.58-20.82-2.83a44.64,44.64,0,0,0-11.88-.68"/><polyline class="cls-5" points="372.44 352 372.36 351.98 361.17 348.6"/><path class="cls-5" d="M263.26,378.79s-4.52-15.78-6.42-23.19C253.39,342.18,245,335.33,245,335.33"/><path class="cls-5" d="M308.28,364.86c-2.61-10.78-5.63-17.66-9.9-27"/><path class="cls-5" d="M309.07,351.23s1.7,7.28,7.61,8.74"/><path class="cls-5" d="M264.12,300.1c-.7-5.31,3.33-10.22,9-11s10.82,3,11.52,8.27"/><path class="cls-5" d="M257.29,328.27a.54.54,0,0,0,0-.11c-.21-1.46-1.42-14,18.38-16.74,11.95-1.68,19,1.19,22.48,11.33.08.22.15.44.22.66"/><path class="cls-5" d="M298.39,323.27c.27-1.13,1.93-9-1.31-15.88-1.95-4.13-5.66-7.9-12.51-9.66,0,0-.76-.15-2.06-.28-3.61-.37-11.38-.59-18.21,3a21.43,21.43,0,0,0-6.25,4.94c-7.42,8.58-1.56,21.23-.82,22.72a.33.33,0,0,0,.06.12v0"/><path class="cls-5" d="M298.36,323.41l0-.12"/><path class="cls-5" d="M298.38,323.3h0v0c.51-1.14,1.63-2.9,2.76.66,0,0,1,4.92-1.09,8.34,0,0-1.06,1.26-1.23-1.08a8.15,8.15,0,0,1,0-1"/><path class="cls-5" d="M256.91,328.21c-.85-.83-2.06-1.42-2.07,1.83a12.77,12.77,0,0,0,.26,1.41,12.2,12.2,0,0,0,3.26,6.22s1.37.87.87-1.34a9,9,0,0,0-.3-1.05"/><path class="cls-5" d="M257.1,327.44l.18.72,2,7.91a2.21,2.21,0,0,0,0,.25c.61,2.75,3.67,9.06,5,12.31a16.48,16.48,0,0,0,17.86,9s12.9-1.55,15.19-13.62c.26-1.41.67-3.7,1-6.16a43,43,0,0,0,.39-6.64l-.58-8.44-.09-1.3"/><path class="cls-5" d="M281.49,339.9a4.3,4.3,0,0,1-4.42.45"/><polyline class="cls-5" points="275.78 348.13 276.76 348.39 279.58 347.14 280.77 347.68 281.9 346.87 284.66 347.46 285.48 347.12"/><path class="cls-5" d="M298,306.92s12.22-1.57,22.92,5.73"/><path class="cls-5" d="M309.49,341.32s2.72-11.7,20.62-3.71h0c.52.23,1.06.49,1.61.76l.07,0"/><path class="cls-5" d="M361.1,421.22l9.86.85a1.15,1.15,0,0,0,1.16-.72,1.24,1.24,0,0,0,.08-.41,1.14,1.14,0,0,0-.89-1.12c-3.12-.69-8.55-1.73-12.15-3.42,0,0-3.93-2.2-4.34-4.77-.34-2.06,1.72-12.56,6.16-26.41"/><path class="cls-5" d="M332.49,420l6.51-.18c3.34,0,4.87,0,5.38.89l2,3.62a2.65,2.65,0,0,0,2.33,1.39,1.38,1.38,0,0,0,1.38-1.31s0-.07,0-.11a.88.88,0,0,0,0-.16l-.7-5,4.16,5.37a3.1,3.1,0,0,0,2.44,1.2A1.17,1.17,0,0,0,357,424l-3.08-6.56,6,7.33a2.92,2.92,0,0,0,2.13.92,1.2,1.2,0,0,0,1.2-1.2,1.18,1.18,0,0,0-.35-.83l-1.85-2.48-2.52-3.36"/><path class="cls-5" d="M333.13,418.7l-.72,1.26-1.23,2.16a1.81,1.81,0,0,1-1.57.9,1.79,1.79,0,0,1-1.8-1.8,1.74,1.74,0,0,1,.21-.84l.58-1.09a1.46,1.46,0,0,0,.16-.5l.17-1.17a1.54,1.54,0,0,1,1.21-1.29l5.91-1.72a5.66,5.66,0,0,0,1.74-.67c1.46-.85,4.2-2.73,4.61-4.95.56-3,2.22-14.38,3.26-19.59"/><line class="cls-5" x1="349.36" y1="419.16" x2="348.97" y2="417.72"/></svg>