<svg id="Layer_1" data-name="Layer 1" xmlns="http://www.w3.org/2000/svg" viewBox="0 0 700 700"><defs><style>.cls-1{fill:#99abcc;}.cls-2{fill:#c4e7f9;}.cls-3{fill:#feae63;}.cls-4{fill:#120c0c;}.cls-5{fill:none;stroke:#000;stroke-linecap:round;stroke-linejoin:round;stroke-width:2.3px;}</style></defs><title>Yoga_poses_2020_color</title><path class="cls-1" d="M383.34,410.07h0a107.85,107.85,0,0,1-7.44-16.49s-16.23-30.3-24.36-31.22a15.73,15.73,0,0,0-5.37.29c-5.14,1.11-10.75,4.21-28.47,4.91-12.47.49-27.77-.42-40-.7-2.12-7.19-3-17.39-3-17.39,1.21-.2,2.47-.44,3.79-.72,15-3.21,38.88-9.65,45.92-10.57,3.08-.4,6.6-1.07,9.59-1.7,3.86-.81,6.82-1.55,6.82-1.55A46.76,46.76,0,0,1,354.64,332c8.76-.26,11.92,3.83,13.87,5.57,2.76,2.44,8.88,7,21.43,18.06,8.19,7.18,23.4,26.48,33,39a22.06,22.06,0,0,1,15.85,1.72,88.52,88.52,0,0,0,15,6c2.8,8.16,4.44,13.79,4.44,16.33,0,4.29,1.17,35.31-24.18,41-21.73,4.9-23.13-2.37-42.41-5.12a92.2,92.2,0,0,1-2-11A182.31,182.31,0,0,0,383.34,410.07Z"/><path class="cls-2" d="M453.76,402.34a88.52,88.52,0,0,1-15-6,22.06,22.06,0,0,0-15.85-1.72c-9.6-12.55-24.81-31.85-33-39,0,0,20.87-12.46,17.66-29.4a68.05,68.05,0,0,1,9.58,6.13c6.74,5.21,21,26.87,29.39,49.9C449.4,390,451.85,396.77,453.76,402.34Z"/><path class="cls-3" d="M407.6,326.22c3.21,16.94-17.66,29.4-17.66,29.4-12.55-11-18.67-15.62-21.43-18.06-1.95-1.74-5.11-5.83-13.87-5.57,0,0,6.29-7.79,15.46-11.69a24.75,24.75,0,0,1,12.19-2.05A69.3,69.3,0,0,1,407.6,326.22Z"/><path class="cls-3" d="M378.18,452.76c-2.85-7.56-5.88-15.43-7.81-21.21-3.11-9.34-4.56-14-5.47-17.93-.43-1.85-.74-3.56-1-5.52-1-6.19-10.76-23.79-13.86-33.24s-3.83-12.22-3.83-12.22a15.73,15.73,0,0,1,5.37-.29c8.13.92,24.36,31.22,24.36,31.22a107.85,107.85,0,0,0,7.44,16.49h0a182.31,182.31,0,0,1,6.25,33.54,92.2,92.2,0,0,0,2,11c2.1,9.19,5,19.66,5,19.66,2.7,10.07-1.8,12.4-1.8,12.4-2.19,2.19-22.19,1.73-22.19,1.73-4.38,2-10.75,2.37-12,2.37s-1.46-1.64-1.46-1.64h-8.53a2.11,2.11,0,0,1-1.75-.93l-.47-.71s2.7-.33,5.57-.82h-7a2.05,2.05,0,0,1-2.06-2.05v-.41s1.76-.09,4.1-.25l-.64-1.74S364.49,481,368,480.3s14.25-1.9,17.66-4.44C385.68,472.85,382.09,463.1,378.18,452.76Z"/><path class="cls-4" d="M375.87,276.76c.4,3.39-3.42,10-10.48,6.52a24.43,24.43,0,0,0-5-3c-.88-.33-1.74-.62-2.58-.88l.19-.65s-2.42-5.8,4.07-9.69S375.3,271.8,375.87,276.76Z"/><path class="cls-4" d="M365.39,283.28a26.89,26.89,0,0,1,9.79,13.91,24.67,24.67,0,0,1-.82,15.4c-1.71,3.76-2.21,5.68-4.65,6.83a11.63,11.63,0,0,1-2.58.8c-6.14-.07-9.25-8.8-9.25-8.8h-.15a8.34,8.34,0,0,0-.13-1.9c-2.32-5.41-6.06-.69-6.06-.69-2.24.72-6.31.12-9.35-3.17s-3.26-6.79-7.59-8.33c-2.19-.77-11.75-4.9-11.75-4.9h0l0-1.41c10.8-9.62,20.32-16.09,35-11.6.84.26,1.7.55,2.58.88A24.43,24.43,0,0,1,365.39,283.28Z"/><path class="cls-1" d="M370.37,431.55c1.93,5.78,5,13.65,7.81,21.21-.56-.09-22-3.66-38.43-7.2,0,0-12.06-.29-29,3.6s-52.78-3.91-62.55-7c-2.5-8.74.32-17.53.32-17.53h0a177.2,177.2,0,0,0,22.81.75c14-.65,28.67-.65,35.84-.65s7.44-3.26,14.8-4.23,12.89-.83,15.5-1.23,27.43-5.63,27.43-5.63C365.81,417.58,367.26,422.21,370.37,431.55Z"/><path class="cls-3" d="M357.73,311.42h.15s3.11,8.73,9.25,8.8a11.63,11.63,0,0,0,2.58-.8l.39.88c-9.17,3.9-15.46,11.69-15.46,11.69a46.76,46.76,0,0,0-13.79,2.93s-3,.74-6.82,1.55l0-.36c-3.31-.78-3.32-4.32-3.21-5l-3.26-9.56-5.15.11,1.3-5.84c1.3-3.05-.16-3.42-1.21-7.56-1.33-5.26.43-14,.43-14l-.05-1.85h0s9.56,4.13,11.75,4.9c4.33,1.54,4.54,5.05,7.59,8.33s7.11,3.89,9.35,3.17c0,0,3.74-4.72,6.06.69A8.34,8.34,0,0,1,357.73,311.42ZM329.36,314c.59-.18.73-1.45.31-2.82s-1.25-2.34-1.84-2.16-.74,1.45-.32,2.82S328.76,314.16,329.36,314Z"/><path d="M329.67,311.16c.42,1.37.28,2.64-.31,2.82s-1.42-.78-1.85-2.16-.28-2.64.32-2.82S329.25,309.78,329.67,311.16Z"/><path class="cls-3" d="M210.5,358.51l-1.81,1.8a1.76,1.76,0,0,1-3-1.29,1.81,1.81,0,0,1,.35-1l.65-.87-1.32,1.62a1.85,1.85,0,0,1-2.79.09,1.9,1.9,0,0,1-.49-1.26h0a1.84,1.84,0,0,1,.5-1.25l.76-.8a2.31,2.31,0,0,1,1.1-.66l6.86-1.89,4.38-1.2a4.62,4.62,0,0,1,.74-.15c2.27-.24,14.38-1.49,26.25-1.59s19.43,1.6,32-.54c0,0,.84,10.2,3,17.39-10.88-.24-19.34,0-21.21,2.2l-4.5,6.57a5.58,5.58,0,0,1-7.35,1.7,46.4,46.4,0,0,1-6.82-4.87c-9.18-7.65-16.84-9.09-22-10.21l-2.3-.81a1.82,1.82,0,0,0-1.13,0,1.87,1.87,0,0,1-.56.09,1.75,1.75,0,0,1-1.42-.73l0,0A1.74,1.74,0,0,1,210.5,358.51Z"/><path class="cls-3" d="M248.52,424.61h0s-2.82,8.79-.32,17.53c-9.77-3.1-19.55-10.92-30.62-2.78,0,0-6.15,8.47-15.46-6.51,0,0-6.05-6.52-11.91-8.47s-6.84-5.14-6.84-5.14h-5.09a2.28,2.28,0,0,1-.42-4.53l11.07-2a12,12,0,0,1,3.88-.09c4.49.64,15.42,2.22,18.53,3,3.95,1,13.4,4.89,19.59,6.51A131.16,131.16,0,0,0,248.52,424.61Z"/><path class="cls-3" d="M211.34,352.94l-6.86,1.89a2.31,2.31,0,0,0-1.1.66l-.76.8a1.84,1.84,0,0,0-.5,1.25l-1.88-.25a2.77,2.77,0,0,1-2.19-2.36l0-.24a1.73,1.73,0,0,1,1.79-1.95l3.21.13Z"/><path class="cls-5" d="M351.54,308.83s3.74-4.72,6.06.69a8.34,8.34,0,0,1,.13,1.9,8,8,0,0,1-3.56,6.6s-2.92,1.35-2.19-2.52"/><path class="cls-5" d="M353,322.9s.58,5.33-3.75,7.34"/><path class="cls-5" d="M322.85,292.43s9.56,4.13,11.75,4.9c4.33,1.54,4.54,5.05,7.59,8.33s7.11,3.89,9.35,3.17"/><path class="cls-5" d="M358,278.77s-2.42-5.8,4.07-9.69,13.23,2.72,13.8,7.68c.4,3.39-3.42,10-10.48,6.52a10,10,0,0,1-.95-.52"/><path class="cls-5" d="M357.88,311.42s3.11,8.73,9.25,8.8a11.63,11.63,0,0,0,2.58-.8c2.44-1.15,2.94-3.07,4.65-6.83a24.67,24.67,0,0,0,.82-15.4,26.89,26.89,0,0,0-9.79-13.91,24.43,24.43,0,0,0-5-3c-.88-.33-1.74-.62-2.58-.88-14.68-4.49-24.2,2-35,11.6l0,1.41.05,1.85s-1.76,8.76-.43,14c1.05,4.14,2.51,4.51,1.21,7.56l-1.3,5.84,5.15-.11,3.26,9.56c-.11.64-.1,4.18,3.21,5"/><path class="cls-5" d="M354.64,332s6.29-7.79,15.46-11.69a24.75,24.75,0,0,1,12.19-2.05,69.3,69.3,0,0,1,25.31,8,68.05,68.05,0,0,1,9.58,6.13c6.74,5.21,21,26.87,29.39,49.9,2.83,7.76,5.28,14.52,7.19,20.09,2.8,8.16,4.44,13.79,4.44,16.33,0,4.29,1.17,35.31-24.18,41-21.73,4.9-23.13-2.37-42.41-5.12"/><path class="cls-5" d="M383.34,410.06a107.85,107.85,0,0,1-7.44-16.49s-16.23-30.3-24.36-31.22a15.73,15.73,0,0,0-5.37.29c-5.14,1.11-10.75,4.21-28.47,4.91-12.47.49-27.77-.42-40-.7-10.88-.24-19.34,0-21.21,2.2l-4.5,6.57a5.58,5.58,0,0,1-7.35,1.7,46.4,46.4,0,0,1-6.82-4.87c-9.18-7.65-16.84-9.09-22-10.21l-2.3-.81a1.82,1.82,0,0,0-1.13,0,1.87,1.87,0,0,1-.56.09,1.75,1.75,0,0,1-1.42-.73l0,0a1.74,1.74,0,0,1,.17-2.23,2.37,2.37,0,0,1,1.5-.72l2.81-.25"/><path class="cls-5" d="M434.94,451.73s-18.37,7.35-36.12-17.14a212.81,212.81,0,0,1-15.48-24.52"/><path class="cls-5" d="M206.76,357.05l.28-.38a1.18,1.18,0,0,1,.64-.43l2.46-.65"/><path class="cls-5" d="M210.5,358.51l-1.81,1.8a1.76,1.76,0,0,1-3-1.29,1.81,1.81,0,0,1,.35-1l.65-.87"/><path class="cls-5" d="M206.76,357.05l0,.05-1.32,1.62a1.85,1.85,0,0,1-2.79.09,1.9,1.9,0,0,1-.49-1.26h0a1.84,1.84,0,0,1,.5-1.25l.76-.8a2.31,2.31,0,0,1,1.1-.66l6.86-1.89,4.38-1.2a4.62,4.62,0,0,1,.74-.15c2.27-.24,14.38-1.49,26.25-1.59s19.43,1.6,32-.54c1.21-.2,2.47-.44,3.79-.72,15-3.21,38.88-9.65,45.92-10.57,3.08-.4,6.6-1.07,9.59-1.7,3.86-.81,6.82-1.55,6.82-1.55A46.76,46.76,0,0,1,354.64,332c8.76-.26,11.92,3.83,13.87,5.57,2.76,2.44,8.88,7,21.43,18.06,8.19,7.18,23.4,26.48,33,39,5.11,6.7,8.63,11.47,8.63,11.47"/><path class="cls-5" d="M202.12,357.54l-1.88-.25a2.77,2.77,0,0,1-2.19-2.36l0-.24a1.73,1.73,0,0,1,1.79-1.95l3.21.13,8.32.07"/><path class="cls-5" d="M274.73,349.46s.84,10.2,3,17.39h0"/><path class="cls-5" d="M422.94,394.65a22.06,22.06,0,0,1,15.85,1.72,88.52,88.52,0,0,0,15,6"/><path class="cls-5" d="M378.19,452.76h0c-.56-.09-22-3.66-38.43-7.2,0,0-12.06-.29-29,3.6s-52.78-3.91-62.55-7-19.55-10.92-30.62-2.78c0,0-6.15,8.47-15.46-6.51,0,0-6.05-6.52-11.91-8.47s-6.84-5.14-6.84-5.14h-5.09a2.28,2.28,0,0,1-.42-4.53l11.07-2a12,12,0,0,1,3.88-.09c4.49.64,15.42,2.22,18.53,3,3.95,1,13.4,4.89,19.59,6.51a131.16,131.16,0,0,0,17.59,2.51,177.2,177.2,0,0,0,22.81.75c14-.65,28.67-.65,35.84-.65s7.44-3.26,14.8-4.23,12.89-.83,15.5-1.23,27.43-5.63,27.43-5.63"/><path class="cls-5" d="M248.52,424.62s-2.82,8.79-.32,17.53"/><path class="cls-5" d="M389.94,355.62s20.87-12.46,17.66-29.4"/><path class="cls-5" d="M370.47,484.36s-3.1,1.45-4.92,2.55a32.48,32.48,0,0,1-6.38,2.18s.19,1.64,1.46,1.64,7.65-.36,12-2.37c0,0,20,.46,22.19-1.73,0,0,4.5-2.33,1.8-12.4,0,0-2.94-10.47-5-19.66a92.2,92.2,0,0,1-2-11,182.31,182.31,0,0,0-6.25-33.54h0"/><path class="cls-5" d="M354,486.63c1.42-.24,2.87-.52,4.07-.82,3.64-.91,5.65-1.64,5.65-1.64"/><path class="cls-5" d="M359.17,489.09h-8.53a2.11,2.11,0,0,1-1.75-.93l-.47-.71s2.7-.33,5.57-.82"/><path class="cls-5" d="M354,486.63h-7a2.05,2.05,0,0,1-2.06-2.05v-.41s1.76-.09,4.1-.25c3.38-.22,8-.59,10.11-1"/><path class="cls-5" d="M349.06,483.92l-.64-1.74S364.49,481,368,480.3s14.25-1.9,17.66-4.44c0-3-3.59-12.76-7.5-23.1-2.85-7.56-5.88-15.43-7.81-21.21-3.11-9.34-4.56-14-5.47-17.93-.43-1.85-.74-3.56-1-5.52-1-6.19-10.76-23.79-13.86-33.24s-3.83-12.22-3.83-12.22"/></svg>