<svg id="Layer_1" data-name="Layer 1" xmlns="http://www.w3.org/2000/svg" viewBox="0 0 700 700"><defs><style>.cls-1{fill:#392328;}.cls-2{fill:#feae63;}.cls-3{fill:#99abcc;}.cls-4{fill:#c4e7f9;}.cls-5{fill:none;stroke:#000;stroke-linecap:round;stroke-linejoin:round;stroke-width:2.3px;}</style></defs><title>Yoga_poses_2020_color</title><path class="cls-1" d="M540.59,326.11c11.22,10.78,5.65,27.24,5.65,27.24a25.94,25.94,0,0,1-2.58,4.85A28.74,28.74,0,0,1,529.12,369a37.61,37.61,0,0,1-10.87,2.09c-5.73.2-9.83-1.88-14.15-3.8l0-.09s5-2.64,9-2l.51.11a9.16,9.16,0,0,0,2.65.07c5.38-.55,6-6,6-6,1.35-7,12.58-13.13,12.58-13.13,14.44-5.72,2.77-21.84,2.4-22.33C540,325,540.59,326.11,540.59,326.11Z"/><path class="cls-1" d="M544.54,358.82c3.2.75,6.8,8.17-.13,12.66-6.61,4.28-11.09,2.42-13-2.19l-2.25-.29a28.74,28.74,0,0,0,14.54-10.8Z"/><path class="cls-2" d="M545.84,544.44a5.33,5.33,0,0,1-5.33,5.33h-1.08a19.65,19.65,0,0,1-4.65-.55l-.1,0a8.58,8.58,0,0,0-2.52-.22l-6.14.38h0a1.43,1.43,0,0,0,.45-1.05,1.59,1.59,0,0,0-1.32-1.57c-16.93-2.93-30.12-4.11-30.12-4.11-7-.25-7.79-13.73-7.55-26.27,0-.66,0-1.36,0-2.08,7.12,1,17.22,0,17.6,0h0c1.51,13.56,7.75,16.16,7.75,16.16l20.71,10.28a11.17,11.17,0,0,0,3.91,1.19l6.79.78A1.77,1.77,0,0,1,545.84,544.44Z"/><path class="cls-2" d="M513.1,365.23c-4-.67-9,2-9,2l0,.09-2-.86a6.5,6.5,0,0,0-6.36.85c-.35.26-.71.55-1.1.88l.1.12s1.28,10.94,1.61,14.52l-28,4.8s-17.49-18.8-16.69-39.17l27.4-15c.95,3.39,2.6,5.45,3.52,7.37l8.23-.72c-3.09-8.71,3.77-10.73,3.77-10.73,6.77-2.32,16.64-7.32,21.1-6.61s6.63-1.23,8.87-1,3.63.44,3.63.44a32.35,32.35,0,0,1,9.06,1.81h0c.37.49,12,16.61-2.4,22.33,0,0-11.23,6.1-12.58,13.13,0,0-.62,5.41-6,6a9.16,9.16,0,0,1-2.65-.07Zm7.6-27.83c2-.26,3.5-1,3.4-1.75s-1.76-1.06-3.74-.8-3.49,1-3.4,1.75S518.73,337.66,520.7,337.4ZM518,327.47c1.54-.2,2.73-.81,2.65-1.36s-1.37-.83-2.91-.62-2.73.81-2.65,1.36S516.49,327.68,518,327.47Z"/><path class="cls-2" d="M469,442.49c.95-11.42,1.95-22.94,2.26-24.83.65-3.91,0-16-10.47-13.35.82-9.13,7.55-16.71,7.55-16.71l28-4.8c.32,3.59,1.42,14.17,1.42,14.17a98.31,98.31,0,0,1-.14,12c-.82,9.85-3.57,14.69-7.47,25.91C485,449.92,486,473.7,486,473.7c1.37,6.17,1.64,27.65,1.46,40.57,0,.72,0,1.42,0,2.08-.24,12.54.55,26,7.55,26.27,0,0,13.19,1.18,30.12,4.11a1.59,1.59,0,0,1,1.32,1.57,1.49,1.49,0,0,1-1.47,1.47.91.91,0,0,1,.37.74.93.93,0,0,1-.93.93h-.1l-17.42-1.17a2.16,2.16,0,0,1-2.22,3.51c-3-.9-5.64-1.79-7.26-2.23-2-.52-16.7,2.93-17.3-1.77l-.07-2.25,0-1.32-2-9.47-11.88-55.68a24.85,24.85,0,0,1,0-10.27c.16-.76.33-1.53.5-2.24a24.24,24.24,0,0,0,.62-3.86C467.54,460.65,468.26,451.6,469,442.49Z"/><path d="M524.1,335.65c.1.71-1.43,1.49-3.4,1.75s-3.65-.1-3.74-.8,1.43-1.49,3.4-1.75S524,335,524.1,335.65Z"/><path d="M520.67,326.11c.08.55-1.11,1.16-2.65,1.36s-2.84-.07-2.91-.62,1.11-1.16,2.65-1.36S520.6,325.56,520.67,326.11Z"/><path class="cls-3" d="M510.84,448.91c.42,11.42-5.46,36.29-6,57.11a60.19,60.19,0,0,0,.3,8.25c-.38,0-10.48,1-17.6,0,.18-12.92-.09-34.4-1.46-40.57,0,0-1.08-23.78,4.13-38.77,3.9-11.22,6.65-16.06,7.47-25.91,7,.38,10,1.93,10,1.93C517.05,413.38,510.41,437.5,510.84,448.91Z"/><path class="cls-2" d="M480.66,147.23a6.43,6.43,0,0,1,.42-2.46c.41-.38,2.11-.09,2.68,3.61s-.31,17.28.23,19.42a10.86,10.86,0,0,0,2.61,4,19.66,19.66,0,0,0,1.2-6c.05-3,1.06-5.1,3-4.92s.67,6.39.36,9-.73,4-.85,6.67a7.33,7.33,0,0,1-1.86,4.43c-5.45,6.19-6.49,8.6-7.4,17,0,0-4.76,31.1-6.22,38.6-1.73,8.85-4.39,13.62-3.35,23.54s.39,24.93,3,33,5.31,21,4.09,30.87a23.66,23.66,0,0,0,.49,9.42l-27.4,15s-18-1-23.1-12.31c3.87-1.88,6.22-2.72,6.22-2.72,17.27-8.35,18.25-16.73,18.57-20s-1.3-50.5-2-57.66a35.42,35.42,0,0,1,1-13.69c.54-2.21,12.42-37.79,12.42-37.79,1.44-10.93,4.22-22.26,2.59-25.46-2.68-5.23-1.4-13.85-1.52-15.31s-1.46-6.43-1.75-8.09-.91-4.37,1.12-4.46,3.32,10.08,3.88,11.94,1.55.26,1.35-3.46-.07-6.59-.08-10.45,1.64-3.79,1.64-3.79,1.68-.57,1.73,6.42-.13,9.09,1.16,9,.92-6.21,1.24-11.25.47-6.33,2.43-6.42,2,4.32,2,4.32Z"/><path class="cls-3" d="M416.67,415.69c6-5.29,11.38-6.91,14.68-7.37a12.31,12.31,0,0,1,4.76.26c16.95,4.43,24.69-4.27,24.69-4.27,10.47-2.66,11.12,9.44,10.47,13.35-.31,1.89-1.31,13.41-2.26,24.83-.48.14-16.56,4.87-25.54,8.3s-38.66,6.51-63.85-1.74c0,0-16.51-8.26-74.72,25.63A149.88,149.88,0,0,1,271,492.92c-19.55,7.39-24.76,9.56-32.58,14.77-5.91,3.94-29.73,14.88-41,20C190,526,186.12,514.24,186,513.8h0c34.83-31.59,43.07-30.69,52.46-34.71,10-4.28,25.19-10.05,54.3-36.11s45.17-37.79,48.83-41.7c3.32-3.55,9.05-11,17.22-16.28l.32.5a18.64,18.64,0,0,1,11.17,5.22c6.28,5.9,10.47,13.93,18.46,17.16C406,414.84,416.67,415.69,416.67,415.69Z"/><path class="cls-4" d="M468.35,387.6s-6.73,7.58-7.55,16.71c0,0-7.74,8.7-24.69,4.27a12.31,12.31,0,0,0-4.76-.26c-3.3.46-8.67,2.08-14.68,7.37,0,0-10.66-.85-27.93-7.82-8-3.23-12.18-11.26-18.46-17.16a18.64,18.64,0,0,0-11.17-5.22l-.32-.5q1.26-.81,2.58-1.53c9.56-5.22,31.71-21.16,31.71-21.16a125.1,125.1,0,0,1,35.48-26.18c5.07,11.32,23.1,12.31,23.1,12.31C450.86,368.8,468.35,387.6,468.35,387.6Z"/><path class="cls-2" d="M177.07,555.18s-.43,1.69-2.82,1.69-2.53-1.69-2.53-1.69a3.84,3.84,0,0,1-2.68,1.69c-1.55,0-2-1.69-2-1.69a4.9,4.9,0,0,1-3,1.12c-1.41-.14-1.69-2.25-1.69-2.25s-3.8.71-5.21-.56c-1-.88-6-3-7.18-5.83a6.19,6.19,0,0,1-.42-4.82,13.75,13.75,0,0,1,1.24-3.06,11.72,11.72,0,0,1,3.89-4.06c2.68-1.76,8.33-5.54,10.29-7.61s9-2.83,13.9-7.82q3.69-3.46,7-6.49c.14.44,4,12.19,11.44,13.89-3.66,1.66-6,2.7-6,2.7-9.12,5.54-18.73,8.18-14.1,13.88a21,21,0,0,1,2.7,3.3,26.39,26.39,0,0,0,3.24,4.79c1,1,.85,4.09-2.53,4.23S177.07,555.18,177.07,555.18Z"/><path class="cls-5" d="M494.75,368.28s1.28,10.94,1.61,14.52S497.78,397,497.78,397a98.31,98.31,0,0,1-.14,12c-.82,9.85-3.57,14.69-7.47,25.91C485,449.92,486,473.7,486,473.7c1.37,6.17,1.64,27.65,1.46,40.57,0,.72,0,1.42,0,2.08-.24,12.54.55,26,7.55,26.27,0,0,13.19,1.18,30.12,4.11a1.59,1.59,0,0,1,1.32,1.57,1.49,1.49,0,0,1-1.47,1.47"/><path class="cls-5" d="M537.24,324c2.71,1.05,3.35,2.12,3.35,2.12,11.22,10.78,5.65,27.24,5.65,27.24a25.94,25.94,0,0,1-2.58,4.85A28.74,28.74,0,0,1,529.12,369a37.61,37.61,0,0,1-10.87,2.09c-5.73.2-9.83-1.88-14.15-3.8l-2-.86a6.5,6.5,0,0,0-6.36.85c-.35.26-.71.55-1.1.88a34,34,0,0,0-5.41,5.73"/><path class="cls-5" d="M486.6,171.77a19.66,19.66,0,0,0,1.2-6c.05-3,1.06-5.1,3-4.92s.67,6.39.36,9-.73,4-.85,6.67a7.33,7.33,0,0,1-1.86,4.43c-5.45,6.19-6.49,8.6-7.4,17,0,0-4.76,31.1-6.22,38.6-1.73,8.85-4.39,13.62-3.35,23.54s.39,24.93,3,33,5.31,21,4.09,30.87a23.66,23.66,0,0,0,.49,9.42c.95,3.39,2.6,5.45,3.52,7.37l8.23-.72c-3.09-8.71,3.77-10.73,3.77-10.73,6.77-2.32,16.64-7.32,21.1-6.61s6.63-1.23,8.87-1,3.63.44,3.63.44a32.35,32.35,0,0,1,9.06,1.81"/><path class="cls-5" d="M487.37,172.55s-.32-.3-.77-.77h0a10.86,10.86,0,0,1-2.61-4c-.54-2.14.34-15.72-.23-19.42s-2.27-4-2.68-3.61a6.43,6.43,0,0,0-.42,2.46c-.32,4.17-.34,12.27-.67,13.58"/><path class="cls-5" d="M531.37,369.29c2,4.61,6.43,6.47,13,2.19,6.93-4.49,3.33-11.91.13-12.66"/><path class="cls-5" d="M518.3,330.37a4,4,0,0,1-3.79-.25l-5.4-1.56-.19,4.84"/><path class="cls-5" d="M513.1,365.23a7.94,7.94,0,0,1-5.3-3.82s-1.2-3.06,2.7-2.08"/><path class="cls-5" d="M517.31,359.28s4.59,4.08-1,6.13a9.16,9.16,0,0,1-2.65-.07"/><path class="cls-5" d="M516.26,365.41c5.38-.55,6-6,6-6,1.35-7,12.58-13.13,12.58-13.13,14.44-5.72,2.77-21.84,2.4-22.33h0"/><path class="cls-5" d="M504.14,367.2s5-2.64,9-2l.51.11"/><path class="cls-5" d="M504.68,353.43s-6-1-6.9-6.33"/><path class="cls-5" d="M476.05,359.94s14.38,1.11,23.05,1.14"/><path class="cls-5" d="M507.94,546.2l16.7,3.41a.82.82,0,0,1,.34.16h0a.91.91,0,0,1,.37.74.93.93,0,0,1-.93.93h-.1l-17.42-1.17"/><path class="cls-5" d="M497.52,546.2s4.28,1.86,8.55,3.49a2.24,2.24,0,0,1,.83.57h0a2.16,2.16,0,0,1-2.22,3.51c-3-.9-5.64-1.79-7.26-2.23-2-.52-16.7,2.93-17.3-1.77l-.07-2.25,0-1.32-2-9.47-11.88-55.68a24.85,24.85,0,0,1,0-10.27c.16-.76.33-1.53.5-2.24a24.24,24.24,0,0,0,.62-3.86c.32-4,1-13.08,1.79-22.19.95-11.42,1.95-22.94,2.26-24.83.65-3.91,0-16-10.47-13.35,0,0-7.74,8.7-24.69,4.27a12.31,12.31,0,0,0-4.76-.26c-3.3.46-8.67,2.08-14.68,7.37a47.05,47.05,0,0,0-5.34,5.56s-7.39,7.82-13.47,12.16"/><path class="cls-5" d="M176.22,550s-1.41,2,.85,5.21"/><line class="cls-5" x1="170.87" y1="550.81" x2="171.72" y2="555.18"/><path class="cls-5" d="M166.79,550c0,.56.28,5.21.28,5.21"/><line class="cls-5" x1="163.12" y1="549.54" x2="162.42" y2="554.05"/><path class="cls-5" d="M186,513.79c34.83-31.59,43.07-30.69,52.46-34.71,10-4.28,25.19-10.05,54.3-36.11s45.17-37.79,48.83-41.7c3.32-3.55,9.05-11,17.22-16.28q1.26-.81,2.58-1.53c9.56-5.22,31.71-21.16,31.71-21.16a125.1,125.1,0,0,1,35.48-26.18c3.87-1.88,6.22-2.72,6.22-2.72,17.27-8.35,18.25-16.73,18.57-20s-1.3-50.5-2-57.66a35.42,35.42,0,0,1,1-13.69c.54-2.21,12.42-37.79,12.42-37.79,1.44-10.93,4.22-22.26,2.59-25.46-2.68-5.23-1.4-13.85-1.52-15.31s-1.46-6.43-1.75-8.09-.91-4.37,1.12-4.46,3.32,10.08,3.88,11.94,1.55.26,1.35-3.46-.07-6.59-.08-10.45,1.64-3.79,1.64-3.79,1.68-.57,1.73,6.42-.13,9.09,1.16,9,.92-6.21,1.24-11.25.47-6.33,2.43-6.42,2,4.32,2,4.32"/><path class="cls-5" d="M469,442.49h0c-.48.14-16.56,4.87-25.54,8.3s-38.66,6.51-63.85-1.74c0,0-16.51-8.26-74.72,25.63A149.88,149.88,0,0,1,271,492.92c-19.55,7.39-24.76,9.56-32.58,14.77-5.91,3.94-29.73,14.88-41,20-3.66,1.66-6,2.7-6,2.7-9.12,5.54-18.73,8.18-14.1,13.88a21,21,0,0,1,2.7,3.3,26.39,26.39,0,0,0,3.24,4.79c1,1,.85,4.09-2.53,4.23s-3.66-1.41-3.66-1.41-.43,1.69-2.82,1.69-2.53-1.69-2.53-1.69a3.84,3.84,0,0,1-2.68,1.69c-1.55,0-2-1.69-2-1.69a4.9,4.9,0,0,1-3,1.12c-1.41-.14-1.69-2.25-1.69-2.25s-3.8.71-5.21-.56c-1-.88-6-3-7.18-5.83a6.19,6.19,0,0,1-.42-4.82,13.75,13.75,0,0,1,1.24-3.06,11.72,11.72,0,0,1,3.89-4.06c2.68-1.76,8.33-5.54,10.29-7.61s9-2.83,13.9-7.82q3.69-3.46,7-6.49"/><path class="cls-5" d="M186,513.79h0c.14.44,4,12.19,11.44,13.89"/><path class="cls-5" d="M416.67,415.69s-10.66-.85-27.93-7.82c-8-3.23-12.18-11.26-18.46-17.16a18.64,18.64,0,0,0-11.17-5.22"/><path class="cls-5" d="M477.93,536.74c-1.58,5.5-1.83,10.1,2.13,10.78"/><path class="cls-5" d="M505.11,514.27c1.51,13.56,7.75,16.16,7.75,16.16l20.71,10.28a11.17,11.17,0,0,0,3.91,1.19l6.79.78a1.77,1.77,0,0,1,1.57,1.76,5.33,5.33,0,0,1-5.33,5.33h-1.08a19.65,19.65,0,0,1-4.65-.55l-.1,0a8.58,8.58,0,0,0-2.52-.22l-6.14.38"/><path class="cls-5" d="M497.64,409c7,.38,10,1.93,10,1.93,9.38,2.43,2.74,26.55,3.17,38s-5.46,36.29-6,57.11a60.19,60.19,0,0,0,.3,8.25"/><path class="cls-5" d="M496.36,382.8l-28,4.8s-6.73,7.58-7.55,16.71"/><path class="cls-5" d="M479.06,333.4l-27.4,15c-.8,20.37,16.69,39.17,16.69,39.17"/><path class="cls-5" d="M451.66,348.43s-18-1-23.1-12.31"/><path class="cls-5" d="M505.11,514.27h0c-.38,0-10.48,1-17.6,0"/></svg>