<svg id="Layer_1" data-name="Layer 1" xmlns="http://www.w3.org/2000/svg" viewBox="0 0 700 700"><defs><style>.cls-1{fill:#feae63;}.cls-2{fill:#c4e7f9;}.cls-3{fill:#99abcc;}.cls-4{fill:#392328;}.cls-5{fill:none;stroke:#000;stroke-linecap:round;stroke-linejoin:round;stroke-width:2.3px;}</style></defs><title>Yoga_poses_2020_color</title><path class="cls-1" d="M592.94,175.11h0s4.35-.73,4.62,1.21-1,2.32-5.86,3.57a70.7,70.7,0,0,0-9.32,2.63.3.3,0,0,0,.13.58l7.4-.43c7-.76,6.63.78,6.63.78s.37,1.35-3.42,2c-3.07.57-7.54,1.6-11.09,2.23a.29.29,0,0,0,0,.58c3.68.34,9.86,1.06,10.08,2.61.28,2-2.48,1.91-4.17,1.93s-6.82-.38-8.28-.23-9.45,1.47-15.33,1.35a71.16,71.16,0,0,0-17.54,1.78S516.33,212,493.73,213.61a44.64,44.64,0,0,0-9.32,1.65l-2.22.65c-4.34,1.31-3.91.65-8.25,2.17s-29.32,8.43-44.74,8.43c-7.25,0-13.15.15-17.82,1.13a14,14,0,0,0-11.07,14.05c0,1.91.07,4.15.07,6.6,0-6.9-6.5-15.72-9.2-24a99,99,0,0,1,.18-22.85l.07-.8a23.37,23.37,0,0,0,5.54-.17c12.48-1.89,22.22-1.75,29.84-.38,8.47,1.52,22.59.21,30-.44s13.68,2.61,23.68-1.3,34.75-7.17,38.87-7.6,23.69-6.6,23.69-6.6c8.08-2.45,10.25-3.92,15.32-10.42a7.34,7.34,0,0,1,4-2.65c2.6-.61,3.85-1.29,6.4-2.07s8.42-3.2,9-1.32-1.31,3.25-4.28,3.86a20,20,0,0,0-5.71,2.3,9.58,9.58,0,0,0,4.39,1.82c2.2.14,15.39-3.24,19.13-3.37s4.34,1.5,4,2A6.65,6.65,0,0,1,592.94,175.11Z"/><path class="cls-2" d="M400.38,248.33c0,9.92-.47,23.15-2.68,31.44,0,0-1.09,3.16-1.25,11.71-45.58,16-68.56-.43-68.56-.43-.5-7.22-2.71-25-8.16-39.35,0-5.52,8.19-22.79,9.32-28.09,0,0,20.32,15.32,62.13.65,2.7,8.31,9.18,17.13,9.2,24Z"/><path class="cls-3" d="M398.36,319.51c3.91,30.3-10.43,86-20.53,112.4,0,0-3.26,8.8-3.26,11.08a69.58,69.58,0,0,1-1.63,14c-1.3,5.54,5.87,20.85-18.24,67.76,0,0-.59,1.55-1.37,3.88a17.58,17.58,0,0,1-12.72-1.38s1.71-26.93,1.06-32.8,6.19-24.76,6.19-28-.33-24.11,1-31.61,1-47.24.65-55.38-6.84-21.5-10.1-23.13-31.93-4.56-80.47-31.28-66.14-18.24-81.78-31.93c-7.37-6.45-18.65-15.43-29.94-23.44l.32-.46c12.44-7.89,11.24-17.54,11.24-17.54a204,204,0,0,0,21.32,10.17c34.53,14.33,34.2,18.24,42.35,18.89s15,2.94,26.71,7.5c10.24,4,52,11.44,67.45,14.35a9.58,9.58,0,0,0,11.4-9.54v-.25c0-.48-.05-1.07-.1-1.75,0,0,23,16.45,68.56.43A194.68,194.68,0,0,0,398.36,319.51Z"/><path class="cls-1" d="M391.43,200.61l-.07.8a99,99,0,0,0-.18,22.85c-41.81,14.67-62.13-.65-62.13-.65a141.79,141.79,0,0,0-.59-21.55l-1.3-.1a49.4,49.4,0,0,1,11.25-2.66C349.81,198,345,180,345,180c2.55,2.33,6.81,4.44,13.81,4.31,0,0,7.85,0,12.62-4.63h0c-1.48,9.37-.48,13.21,2.34,15.6,1.85,1.56,9.34,3.58,14.32,4.8A20.62,20.62,0,0,0,391.43,200.61Z"/><path class="cls-4" d="M337.06,153c-.11.72-.13,1.14-.13,1.14s-5.19-15.66,3.83-23.69a21.21,21.21,0,0,1,6.87-4.09c8-3,16.51-1.18,19.4-.4.66.18,1,.3,1,.3,18.37,7.37,10.33,27.25,10.33,27.25a5.68,5.68,0,0,0-.12-.78,44.62,44.62,0,0,0-2.11-6.65c-3.79-9.82-17.33-9.83-17.33-9.83C340.89,136.35,337.63,149.06,337.06,153Z"/><path class="cls-1" d="M378.27,152.71l-.17,2.66-.36,5.88c0,.3-.06.62-.11.94-.55,4-2.36,9.08-2.9,11.58a11.22,11.22,0,0,1-3.27,5.9c-4.77,4.61-12.62,4.63-12.62,4.63-7,.13-11.26-2-13.81-4.31a12.09,12.09,0,0,1-3.68-5.92c-.82-3.06-2.71-8.78-3.26-11.92-.07-.45-.12-.85-.14-1.18l-.68-6.1-.21-1.89c.57-3.92,3.83-16.63,21.77-16.75,0,0,13.54,0,17.33,9.83A44.62,44.62,0,0,1,378.27,152.71ZM367,158.92a2.32,2.32,0,1,0-2-2.28A2.15,2.15,0,0,0,367,158.92Zm-18.12-.25a2.32,2.32,0,1,0-2-2.28A2.15,2.15,0,0,0,348.92,158.67Z"/><path d="M369,156.61a2,2,0,1,1-2-2.28A2.15,2.15,0,0,1,369,156.61Z"/><path class="cls-4" d="M368.16,125.93H367c-2.89-.78-11.4-2.59-19.4.4l-.16-.41c0-5.36,4.63-9.7,10.34-9.7S368.16,120.57,368.16,125.93Z"/><path class="cls-1" d="M346.82,580.49l-.84.34c.6,1.74-.32,3.69-4.26,3.58-7.29-.2-6.38-4.46-6.38-4.46s.1-7.4.1-11-2.13-8-2.23-11.25,1.62-5.47,1.62-7.19-.1-6.29,1.52-8.82,4.26-14.39,4.26-14.39a17.58,17.58,0,0,0,12.72,1.38c-1.55,4.59-3.84,12.22-3.84,17a14.11,14.11,0,0,1-.65,8.8s1.3,6.52,4.23,9.77a78.36,78.36,0,0,1,7.39,10.34,2.77,2.77,0,0,1-.55,3.48l-.25.23-.48,0a1.88,1.88,0,0,1-.92,1.78l-2.72.94a2,2,0,0,1-.34.73,2.18,2.18,0,0,1-1.7.83l-2.47.1h0a1.94,1.94,0,0,1-3.46-.31Z"/><path d="M350.88,156.36a2,2,0,1,1-2-2.28A2.15,2.15,0,0,1,350.88,156.36Z"/><path class="cls-1" d="M146.52,198.26l-.06-.86a2.84,2.84,0,0,0-2.6-2.65l-2.17-.18a3.34,3.34,0,0,0-1.18.11l-4.16,1.12a2.17,2.17,0,0,0-1.6,2.09l-.3,0c.19-2.9.34-4.76.34-4.76l.1-1.28a12.88,12.88,0,0,1-3.15-.64,9.11,9.11,0,0,1-2.9-1.58,8.09,8.09,0,0,1-1.52-1.63,2.43,2.43,0,0,1-.12-2.6,2.4,2.4,0,0,1,3.43-.78c3.08,2.35,10.42,1.45,13,1.06a9.38,9.38,0,0,1,1.91-.11l8.2.39c3.91,0,5.54,2.28,12.7,3.26S185,198,205.49,199s26.71,6.19,30.62,6.05,15.31-.84,28-.18,17.92-.66,17.92-.66c21.83-6.51,28-3.91,36.16-2a14.57,14.57,0,0,0,9-.27l1.3.1a141.79,141.79,0,0,1,.59,21.55c-1.13,5.3-9.32,22.57-9.32,28.09-3.07-8.1-7.18-15.11-12.6-18.52-12.38-7.82-1.3,7.49-61.9-9.77l-4.95-1.28a44.28,44.28,0,0,0-11.91-1.36,77.14,77.14,0,0,1-23.21-2.9c-13.68-4.24-33.55-15.64-44.63-15,0,0-9.15,4.91-16.31,4.91L139,202l3.83-3.17a3.66,3.66,0,0,1,2.66-.81A3.73,3.73,0,0,1,146.52,198.26Z"/><path class="cls-1" d="M158.76,251.68s1.2,9.65-11.24,17.54l-.32.46c-12.68-9-25.37-16.71-32.61-18.26-13.68-2.93-10.1-13.35-4.88-21.17s7.81-18.57,8.79-24.76,2.93-15.42,2.93-15.42l.43-.58a2.25,2.25,0,0,0,1.63.53l5.35-.41-4.5.93a2.42,2.42,0,0,0,.49,4.79l.27,0,4.45-.5a2.42,2.42,0,0,0,2.15-2.57l-.06-.76.1-.29a12.88,12.88,0,0,0,3.15.64l-.1,1.28s-.15,1.86-.34,4.76c-.63,9.18-1.72,28.74,0,32.7S141.56,242.07,158.76,251.68Z"/><path class="cls-1" d="M146.46,197.4l.06.86a3.73,3.73,0,0,0-1-.23,3.66,3.66,0,0,0-2.66.81L139,202l-2.11-.16a2.29,2.29,0,0,1-2.1-2.18l-.07-1.69v-.09a2.17,2.17,0,0,1,1.6-2.09l4.16-1.12a3.34,3.34,0,0,1,1.18-.11l2.17.18A2.84,2.84,0,0,1,146.46,197.4Z"/><path class="cls-1" d="M131.74,191.19l-.1.29.06.76a2.42,2.42,0,0,1-2.15,2.57l-4.45.5-.27,0a2.42,2.42,0,0,1-.49-4.79l4.5-.93A9.11,9.11,0,0,0,131.74,191.19Z"/><path class="cls-1" d="M128.84,189.61l-5.35.41a2.25,2.25,0,0,1-2.39-1.88v0a2.24,2.24,0,0,1,2.1-2.61l3.87-.2.14.09a2.43,2.43,0,0,0,.12,2.6A8.09,8.09,0,0,0,128.84,189.61Z"/><path class="cls-5" d="M347.47,125.93c0-5.36,4.63-9.7,10.34-9.7s10.35,4.34,10.35,9.7"/><path class="cls-5" d="M337.06,153c.57-3.92,3.83-16.63,21.77-16.75,0,0,13.54,0,17.33,9.83a44.62,44.62,0,0,1,2.11,6.65,5.68,5.68,0,0,1,.12.78s8-19.88-10.33-27.25c0,0-.37-.12-1-.3-2.89-.78-11.4-2.59-19.4.4a21.21,21.21,0,0,0-6.87,4.09c-9,8-3.83,23.69-3.83,23.69S337,153.7,337.06,153Z"/><path class="cls-5" d="M378.43,155.39c.64-1.07,2-2.73,2.66,1,0,0,.31,5-2.16,8.13,0,0-1.54,1.41-1-2.26"/><path class="cls-5" d="M336.79,154.92c-.74-.93-1.86-1.68-2.29,1.54,0,0-.1,5,2.5,8,0,0,1.6,1.34.87-2.3"/><path class="cls-5" d="M337,152.12l.1.86.21,1.89L338,161c0,.33.07.73.14,1.18.55,3.14,2.44,8.86,3.26,11.92A12.09,12.09,0,0,0,345,180c2.55,2.33,6.81,4.44,13.81,4.31,0,0,7.85,0,12.62-4.63a11.22,11.22,0,0,0,3.27-5.9c.54-2.5,2.35-7.58,2.9-11.58.05-.32.08-.64.11-.94l.36-5.88.17-2.66.07-1.2"/><path class="cls-5" d="M359.53,164.31a4.29,4.29,0,0,1-4.44-.12"/><polyline class="cls-5" points="352.79 171.73 353.74 172.11 356.69 171.24 357.8 171.93 359.03 171.28 361.68 172.22 362.54 172"/><line class="cls-5" x1="356.62" y1="176.67" x2="359.17" y2="176.71"/><path class="cls-5" d="M567.71,173.82a20,20,0,0,1,5.71-2.3c3-.61,4.82-2,4.28-3.86s-6.4.53-9,1.32-3.8,1.46-6.4,2.07a7.34,7.34,0,0,0-4,2.65c-5.07,6.5-7.24,8-15.32,10.42,0,0-19.56,6.16-23.69,6.6s-28.88,3.69-38.87,7.6-16.29.65-23.68,1.3-21.5,2-30,.44c-7.62-1.37-17.36-1.51-29.84.38a23.37,23.37,0,0,1-5.54.17,20.62,20.62,0,0,1-3.3-.53c-5-1.22-12.47-3.24-14.32-4.8-2.82-2.39-3.82-6.23-2.34-15.6"/><path class="cls-5" d="M567.71,173.82a9.58,9.58,0,0,0,4.39,1.82c2.2.14,15.39-3.24,19.13-3.37s4.34,1.5,4,2a6.65,6.65,0,0,1-2.34.86c-4.05,1.09-12,2.6-13.22,3.17"/><path class="cls-5" d="M400.38,248.33c0,9.92-.47,23.15-2.68,31.44,0,0-1.09,3.16-1.25,11.71a194.68,194.68,0,0,0,1.91,28c3.91,30.3-10.43,86-20.53,112.4,0,0-3.26,8.8-3.26,11.08a69.58,69.58,0,0,1-1.63,14c-1.3,5.54,5.87,20.85-18.24,67.76,0,0-.59,1.55-1.37,3.88-1.55,4.59-3.84,12.22-3.84,17a14.11,14.11,0,0,1-.65,8.8s1.3,6.52,4.23,9.77a78.36,78.36,0,0,1,7.39,10.34,2.77,2.77,0,0,1-.55,3.48l-.25.23"/><path class="cls-5" d="M592.94,175.12s4.35-.73,4.62,1.21-1,2.32-5.86,3.57a70.7,70.7,0,0,0-9.32,2.63.3.3,0,0,0,.13.58l7.4-.43c7-.76,6.63.78,6.63.78s.37,1.35-3.42,2c-3.07.57-7.54,1.6-11.09,2.23a.29.29,0,0,0,0,.58c3.68.34,9.86,1.06,10.08,2.61.28,2-2.48,1.91-4.17,1.93s-6.82-.38-8.28-.23-9.45,1.47-15.33,1.35a71.16,71.16,0,0,0-17.54,1.78S516.33,212,493.73,213.61a44.64,44.64,0,0,0-9.32,1.65l-2.22.65c-4.34,1.31-3.91.65-8.25,2.17s-29.32,8.43-44.74,8.43c-7.25,0-13.15.15-17.82,1.13a14,14,0,0,0-11.07,14.05c0,1.91.07,4.15.07,6.6"/><path class="cls-5" d="M413.34,212.65S400.13,219.89,399,230.9"/><path class="cls-5" d="M121.43,190.07s-2,9.23-2.93,15.42-3.58,16.94-8.79,24.76-8.8,18.24,4.88,21.17c7.24,1.55,19.93,9.3,32.61,18.26,11.29,8,22.57,17,29.94,23.44,15.64,13.69,33.23,5.22,81.78,31.93s77.21,29.65,80.47,31.28,9.77,15,10.1,23.13.65,47.89-.65,55.38-1,28.35-1,31.61-6.84,22.15-6.19,28-1.06,32.8-1.06,32.8-2.64,11.86-4.26,14.39-1.52,7.09-1.52,8.82-1.72,3.95-1.62,7.19,2.23,7.6,2.23,11.25-.1,11-.1,11-.91,4.26,6.38,4.46c3.94.11,4.86-1.84,4.26-3.58a3.91,3.91,0,0,0-4-2.6l-1.66.12"/><path class="cls-5" d="M346,578.33l.86,2.16.74,1.84a1.94,1.94,0,0,0,3.46.31,1.89,1.89,0,0,0,.19-1.7l-1.58-4.38"/><path class="cls-5" d="M352.67,574.78l2.63,4.42a2.24,2.24,0,0,1,.24,1.79,2,2,0,0,1-.34.73,2.18,2.18,0,0,1-1.7.83l-2.47.1"/><path class="cls-5" d="M355.91,572.86l3,4.53a1.82,1.82,0,0,1,.3.88,1.88,1.88,0,0,1-.92,1.78l-2.72.94"/><path class="cls-5" d="M134.79,193.11s-.15,1.86-.34,4.76c-.63,9.18-1.72,28.74,0,32.7s7.09,11.5,24.29,21.11a204,204,0,0,0,21.32,10.17c34.53,14.33,34.2,18.24,42.35,18.89s15,2.94,26.71,7.5c10.24,4,52,11.44,67.45,14.35a9.58,9.58,0,0,0,11.4-9.54v-.25c0-.48-.05-1.07-.1-1.75-.5-7.22-2.71-25-8.16-39.35-3.07-8.1-7.18-15.11-12.6-18.52-12.38-7.82-1.3,7.49-61.9-9.77l-4.95-1.28a44.28,44.28,0,0,0-11.91-1.36,77.14,77.14,0,0,1-23.21-2.9c-13.68-4.24-33.55-15.64-44.63-15,0,0-9.15,4.91-16.31,4.91L139,202l3.83-3.17a3.66,3.66,0,0,1,2.66-.81,3.73,3.73,0,0,1,1,.23,4,4,0,0,1,2,1.64.8.8,0,0,1-.17,1L145,203.75"/><path class="cls-5" d="M345,180s4.78,18-6.62,19.31A49.4,49.4,0,0,0,327.16,202a14.57,14.57,0,0,1-9,.27c-8.14-2-14.33-4.56-36.16,2,0,0-5.21,1.31-17.92.66s-24.11,0-28,.18S226,200,205.49,199s-31.93-8.8-39.1-9.77-8.79-3.26-12.7-3.26l-8.2-.39a9.38,9.38,0,0,0-1.91.11c-2.53.39-9.87,1.29-13-1.06a2.4,2.4,0,0,0-3.43.78,2.43,2.43,0,0,0,.12,2.6,8.09,8.09,0,0,0,1.52,1.63,9.11,9.11,0,0,0,2.9,1.58,12.88,12.88,0,0,0,3.15.64,18.31,18.31,0,0,0,3.38,0l4.88-.54"/><path class="cls-5" d="M139,202l-2.11-.16a2.29,2.29,0,0,1-2.1-2.18l-.07-1.69v-.09a2.17,2.17,0,0,1,1.6-2.09l4.16-1.12a3.34,3.34,0,0,1,1.18-.11l2.17.18a2.84,2.84,0,0,1,2.6,2.65l.06.86h0"/><path class="cls-5" d="M127.06,185.29l-3.87.2a2.24,2.24,0,0,0-2.1,2.61v0a2.25,2.25,0,0,0,2.39,1.88l5.35-.41-4.5.93a2.42,2.42,0,0,0,.49,4.79l.27,0,4.45-.5a2.42,2.42,0,0,0,2.15-2.57l-.06-.76"/><path class="cls-5" d="M307.22,220.87s8.13,2.13,12.09,11.78"/><path class="cls-5" d="M158.76,251.68s1.2,9.65-11.24,17.54"/><path class="cls-5" d="M340.61,527.26a17.58,17.58,0,0,0,12.72,1.38"/><path class="cls-5" d="M329.05,223.61c-1.13,5.3-9.32,22.57-9.32,28.09"/><path class="cls-5" d="M329.05,223.61s20.32,15.32,62.13.65"/><path class="cls-5" d="M391.36,201.41a99,99,0,0,0-.18,22.85c2.7,8.31,9.18,17.13,9.2,24v0"/><path class="cls-5" d="M328.46,202.06a141.79,141.79,0,0,1,.59,21.55"/><path class="cls-5" d="M327.89,291.05s23,16.45,68.56.43"/></svg>