<svg id="Layer_1" data-name="Layer 1" xmlns="http://www.w3.org/2000/svg" viewBox="0 0 700 700"><defs><style>.cls-1{fill:#feae63;}.cls-2{fill:#392328;}.cls-3{fill:#c4e7f9;}.cls-4{fill:#99abcc;}.cls-5{fill:none;stroke:#000;stroke-linecap:round;stroke-linejoin:round;stroke-width:2.3px;}</style></defs><title>Yoga_poses_2020_color</title><path class="cls-1" d="M401.29,370h.07a29.15,29.15,0,0,1,12.5,6.38c9.13,6.39,31.83,16.19,38.65,18.76l.88.33c5.43,1.93,19.55,2.2,25.41,2.41s20.64,5,27.15,5.64,27.37,2.64,27.37,2.64l22.46,3.15a8.72,8.72,0,0,1,1.43.24l18.93,5.25a1.38,1.38,0,0,1,.19,2.6l-.44-.1a1.21,1.21,0,0,0-.95-1.17L570.26,415l-.49,2a1.1,1.1,0,0,1,.87,1.08,1.19,1.19,0,0,1-.1.46,1.12,1.12,0,0,1-1.1.65l-11.63-1-.32,0a1.15,1.15,0,0,1,.32.79,1.13,1.13,0,0,1-1.12,1.13h-.15c-3.63-.48-14.3-1.81-22.4-2.14a7.72,7.72,0,0,1-2.91-.7,7.86,7.86,0,0,0-3.27-.71l-.54,0c-7.92.53-47,2.8-61.62,2.9a8.65,8.65,0,0,1-3-.51c-1.58-.56-4-1.42-4.87-1.69s-9.83.22-26.92-5.16c-1.82-.57-3.73-1.22-5.74-1.93a219.69,219.69,0,0,1-29.11-13l-.16-.08c-.48-.27-1-.54-1.5-.8,0,0-14-.45-22.42-.39-1.36-.33-27.45-7-16.45-31.14,0,0,8.91-18.9,24.65-11.61l.07,0c.41.22.82.43,1.21.61s.83.38,1.22.53c0,0,15.78,5.28,18.54,15.24Z"/><path class="cls-1" d="M574.94,416.1a1.21,1.21,0,0,1,.95,1.17,1.35,1.35,0,0,1-1.35,1.35h-3.9l-.1-.05a1.19,1.19,0,0,0,.1-.46,1.1,1.1,0,0,0-.87-1.08l.49-2Z"/><path class="cls-2" d="M443,362.63c11.07,8.93,11.88,19.46,10.42,32.37l-.93.11c-6.82-2.57-29.52-12.37-38.65-18.76a29.15,29.15,0,0,0-12.5-6.38l2.92-.32c4.85-7.2,15.27-10.39,15.27-10.39a27.7,27.7,0,0,1,16.94-.15,20.18,20.18,0,0,1,4.34,1.87Q442,361.79,443,362.63Z"/><path class="cls-2" d="M449.17,353.3c.43,7.55-5.73,8.81-5.73,8.81l-.42.52q-1-.84-2.19-1.65a20.18,20.18,0,0,0-4.34-1.87l0-.1c-8.13-3.74-4.61-11.18-1.45-12.83C439.5,343.88,448.75,345.75,449.17,353.3Z"/><path class="cls-1" d="M431,412.21l-.08.26-3,3.23-2.8-4.34.17-1.08C427.3,411,429.21,411.64,431,412.21Z"/><path class="cls-1" d="M425.29,410.28l-.17,1.08L415.38,414c-.68.65-6.58,4.55-8.78-6.22,0,0-.3-5-10.42-10.57A219.69,219.69,0,0,0,425.29,410.28Z"/><path class="cls-3" d="M380.3,353.23c-15.74-7.29-24.65,11.61-24.65,11.61-11,24.12,15.09,30.81,16.45,31.14-2,0-3.61,0-4.72.14-5.86.43-18,4.77-28.67-2S325,381,319,378.13s-13-12.25-17.38-20.26-13.92-27.29-15.68-35.11a17.34,17.34,0,0,1,2.22-3.1c5.17-5,5.83-13.26,6.46-20.5a47.33,47.33,0,0,1,3.63-13.78c16,10.21,27.67,25.6,38.12,33.41C352.38,330.79,369.84,347.61,380.3,353.23Z"/><path class="cls-4" d="M285.89,322.76a19.85,19.85,0,0,0-2.78,11c.43,8.47,4.56,69.72.87,80.36s-5.21,11.51-11.08,11.51-19.76,1.31-26.28.87c-5.1-.34-36.68-4.29-55.29-5.45l0-.44c-3.15-6.61-.64-18.62-.64-18.62,16.38-2.42,47.74-4.67,62.55-.47,0,0,.52-7.16-3.83-25.62s-11.07-41.92-10.2-63.86,11.51-41.48,38.66-35.4a63.14,63.14,0,0,1,20.3,8.72,47.33,47.33,0,0,0-3.63,13.78c-.63,7.24-1.29,15.51-6.46,20.5A17.34,17.34,0,0,0,285.89,322.76Z"/><path class="cls-1" d="M191.36,420.63l0,.44a86.16,86.16,0,0,0-11.6-.19c-10.86,1.08-20.86,5.86-27.59,6.73-5.49.71-21.56,1.56-28,1.85a2.12,2.12,0,0,1-.33-4.23l3.35-.61a2,2,0,0,0,.87-.3c2.24-1.38,13.29-8.23,15.24-10.18,2.17-2.17,5-6.95,6.51-12.38s8.26-9.34,13.9-4.78,8.47,8.26,23.24,5.65c1.16-.2,2.44-.41,3.83-.62C190.72,402,188.21,414,191.36,420.63Z"/><path class="cls-5" d="M422.19,381a2.49,2.49,0,0,0-2.46-1.45"/><path class="cls-5" d="M404.28,369.65c4.85-7.2,15.27-10.39,15.27-10.39"/><path class="cls-5" d="M443.44,362.11s6.16-1.26,5.73-8.81-9.67-9.42-14.1-7.12c-3.16,1.65-6.68,9.09,1.45,12.83"/><path class="cls-5" d="M396,397.17l-1.5-.8c-2.18-1.17-4.42-2.42-6.72-3.73"/><path class="cls-5" d="M543.93,413.56,557,418a1.31,1.31,0,0,1,.45.28,1.15,1.15,0,0,1,.32.79,1.13,1.13,0,0,1-1.12,1.13h-.15c-3.63-.48-14.3-1.81-22.4-2.14a7.72,7.72,0,0,1-2.91-.7,7.86,7.86,0,0,0-3.27-.71l-.54,0c-7.92.53-47,2.8-61.62,2.9a8.65,8.65,0,0,1-3-.51c-1.58-.56-4-1.42-4.87-1.69s-9.83.22-26.92-5.16c-1.82-.57-3.73-1.22-5.74-1.93a219.69,219.69,0,0,1-29.11-13"/><path class="cls-5" d="M557.81,418.27l11.63,1a1.12,1.12,0,0,0,1.1-.65,1.19,1.19,0,0,0,.1-.46,1.1,1.1,0,0,0-.87-1.08l-16.42-3.73"/><path class="cls-5" d="M557.52,411.91,570.26,415l4.68,1.12a1.21,1.21,0,0,1,.95,1.17,1.35,1.35,0,0,1-1.35,1.35h-3.9"/><path class="cls-5" d="M576.33,417.37a1.38,1.38,0,0,0-.19-2.6l-18.93-5.25a8.72,8.72,0,0,0-1.43-.24l-22.46-3.15s-20.85-2-27.37-2.64-21.28-5.42-27.15-5.64-20-.48-25.41-2.41l-.88-.33c-6.82-2.57-29.52-12.37-38.65-18.76a29.15,29.15,0,0,0-12.5-6.38h-.07a19.42,19.42,0,0,0-2.2-.31"/><path class="cls-5" d="M394.52,396.37s-14-.45-22.42-.39c-2,0-3.61,0-4.72.14-5.86.43-18,4.77-28.67-2S325,381,319,378.13s-13-12.25-17.38-20.26-13.92-27.29-15.68-35.11v0"/><path class="cls-5" d="M380.37,353.27c.4.18.8.39,1.21.61l.11.06"/><path class="cls-5" d="M372.16,396h-.06c-1.36-.33-27.45-7-16.45-31.14,0,0,8.91-18.9,24.65-11.61"/><path class="cls-5" d="M431,412.47l-3,3.23-2.8-4.34L415.38,414c-.68.65-6.58,4.55-8.78-6.22,0,0-.3-5-10.42-10.57l-.16-.08c-.48-.27-1-.54-1.5-.8"/><path class="cls-5" d="M419.55,359.26a27.7,27.7,0,0,1,16.94-.15,20.18,20.18,0,0,1,4.34,1.87q1.16.81,2.19,1.65c11.07,8.93,11.88,19.46,10.42,32.37"/><path class="cls-5" d="M298.2,285.38a47.33,47.33,0,0,0-3.63,13.78c-.63,7.24-1.29,15.51-6.46,20.5a17.34,17.34,0,0,0-2.22,3.1,19.85,19.85,0,0,0-2.78,11c.43,8.47,4.56,69.72.87,80.36s-5.21,11.51-11.08,11.51-19.76,1.31-26.28.87c-5.1-.34-36.68-4.29-55.29-5.45a86.16,86.16,0,0,0-11.6-.19c-10.86,1.08-20.86,5.86-27.59,6.73-5.49.71-21.56,1.56-28,1.85a2.12,2.12,0,0,1-.33-4.23l3.35-.61a2,2,0,0,0,.87-.3c2.24-1.38,13.29-8.23,15.24-10.18,2.17-2.17,5-6.95,6.51-12.38s8.26-9.34,13.9-4.78,8.47,8.26,23.24,5.65c1.16-.2,2.44-.41,3.83-.62,16.38-2.42,47.74-4.67,62.55-.47,0,0,.52-7.16-3.83-25.62s-11.07-41.92-10.2-63.86,11.51-41.48,38.66-35.4a63.14,63.14,0,0,1,20.3,8.72c16,10.21,27.67,25.6,38.12,33.41,16.06,12,33.52,28.82,44,34.44l.07,0c.41.22.82.43,1.21.61s.83.38,1.22.53c0,0,15.78,5.28,18.54,15.24"/><path class="cls-5" d="M190.72,402s-2.51,12,.64,18.62"/></svg>