<svg id="Layer_1" data-name="Layer 1" xmlns="http://www.w3.org/2000/svg" viewBox="0 0 700 700"><defs><style>.cls-1{fill:#feae63;}.cls-2{fill:#99abcc;}.cls-3{fill:#170607;}.cls-4{fill:#c4e7f9;}.cls-5{fill:none;stroke:#000;stroke-linecap:round;stroke-linejoin:round;stroke-width:2.3px;}</style></defs><title>Yoga_poses_2020_color</title><path class="cls-1" d="M461.22,235.32a4.47,4.47,0,0,1,3.39-.39,3.84,3.84,0,0,1,.51.19l.76.35a2,2,0,0,1,.85.73,1.9,1.9,0,0,1,.32,1.07,2,2,0,0,1-1.43,1.9,2.48,2.48,0,0,0-1.79,2.38,2.72,2.72,0,0,0,.08.63l.1.39a7.27,7.27,0,0,1-.31,4,18.56,18.56,0,0,1-.86,1.73c-3.87,6.79-8.67,7.23-10.79,21-1.41,9.16-7.72,8.93-15.8,7.79-4-.57-9.53,2.46-14,5.65-4-8.9-9.74-12.54-9.74-12.54a108,108,0,0,0,16.19-13.34c14.91-14.91,16.16-13.56,24-20.88l5.34-4.76a7.83,7.83,0,0,1,1.5-1.06l2.14-1.18a4.84,4.84,0,0,1,3.4-.48l3.39.81a2.17,2.17,0,0,1,.88,3.82l-.43.13A1.74,1.74,0,0,0,468,232a1.43,1.43,0,0,0-.34-.14l-2.24-.68a4.07,4.07,0,0,0-3.25.39L460,233.17Z"/><path class="cls-1" d="M468.88,233.27c0,.08,0,.15,0,.23a1.74,1.74,0,0,1-.55,1.27L467.05,236l-.32.21a2,2,0,0,0-.85-.73l-.76-.35a3.84,3.84,0,0,0-.51-.19,4.47,4.47,0,0,0-3.39.39l-1.2-2.15,2.12-1.65a4.07,4.07,0,0,1,3.25-.39l2.24.68a1.43,1.43,0,0,1,.34.14A1.74,1.74,0,0,1,468.88,233.27Z"/><path class="cls-2" d="M263.16,374.8a149.62,149.62,0,0,1,28.47-31.43c7.21-5.83,12.86-10.77,17.51-14.72,6.59-5.61,11.18-9.24,15.4-10.68,5.87-2,16.34-6.94,20-8.71l1.32-.64c16.29-7.94,18.56-10.63,32.74-18.73l2.2-1.25c13-7.36,22.84-12.45,31.67-18.43,0,0,5.72,3.64,9.74,12.54a79,79,0,0,0-8,6.52c-37,37.1-37.93,38.24-56.64,45.67l-4.32,1.71c-20.2,8-24.35,17.21-34.38,27.73a75.37,75.37,0,0,0-9.51,12.41c-2.71,4.37-5.82,9.31-7.24,11.23-2.76,3.74-3.88,6.68-7.15,17.1-.36,1.14-.74,2.43-1.15,3.84l-15.15,16.2c-19.55,18.73-33.23,7.49-40.89-.82-5.45-5.9-8.67-20.63-8.31-35.56,0,0,9.39-14.48,21.34-14Z"/><path class="cls-1" d="M344,292.72a8.78,8.78,0,0,1-.4-2c.88-6.22,6.06-2.4,6.06-2.4,2.51.11,6.53-1.64,8.75-5.88s1.47-7.91,5.5-10.71c2-1.41,10.75-8.34,10.75-8.34l.47,1.92s4.26,8.55,4.36,14.34c.07,4.56-1.33,5.35.86,8.13l.48.85-2.2,1.25c-14.18,8.1-16.45,10.79-32.74,18.73l-1.32.64a19.17,19.17,0,0,0-10.63-6.74l.1-.38c2.9.77,5.36-.85,6.2-4.45,1.28-5.06,3.61-4.92,3.61-4.92Zm31.26-8c.05-1.53-.44-2.8-1.11-2.82s-1.25,1.21-1.3,2.74.45,2.8,1.12,2.82S375.2,286.24,375.25,284.7Z"/><path d="M374.14,281.88c.67,0,1.16,1.29,1.11,2.82s-.63,2.76-1.29,2.74-1.17-1.28-1.12-2.82S373.48,281.86,374.14,281.88Z"/><path class="cls-3" d="M374.29,261.94l.36,1.46s-8.71,6.93-10.75,8.34c-4,2.8-3.27,6.47-5.5,10.71s-6.24,6-8.75,5.88c0,0-5.18-3.82-6.06,2.4a8.78,8.78,0,0,0,.4,2l-.15,0s-2.33-.14-3.61,4.92c-.84,3.6-3.3,5.22-6.2,4.45a9.57,9.57,0,0,1-4.16-2.58c-6.61-6.5-6.46-17.28-6.46-17.28a29.58,29.58,0,0,1,5.74-17.16,21.59,21.59,0,0,1,3.4-3.74c.81-.59,1.62-1.13,2.42-1.64C348.84,251,360.47,255,374.29,261.94Z"/><path class="cls-1" d="M293.86,409c.41-1.41.79-2.7,1.15-3.84,3.27-10.42,4.39-13.36,7.15-17.1,1.42-1.92,4.53-6.86,7.24-11.23a75.37,75.37,0,0,1,9.51-12.41c10-10.52,14.18-19.71,34.38-27.73l4.32-1.71c-2.32,8.23-7.73,16.12-12,20.73s-9,10.7-15.09,21.26a147.46,147.46,0,0,0-10.09,21.85l-2.67,8.62c-.89,3.12-10.85,22.89-10.85,22.89-6.43,12.47-13,21.33-11.76,25.47.51,1.71,3,3.16,4.68,3.71,3.77,1.2,10.56,3.32,12,3.49,1.09.13,3.1.4,4.7.62l-.09.62,9.21,2.41-.74,2.83a1.36,1.36,0,0,1,1,1.31s0,.08,0,.12v0a1.35,1.35,0,0,1-1.49,1.21l-10.2-1a1.27,1.27,0,0,1-1.44,1.05L300.44,470a49.25,49.25,0,0,0-9.4-.48c-3.71.19-8.6.75-9.9-1.94-2-4.2.52-9.55,2.35-17.84C285.67,439.9,290.51,420.46,293.86,409Z"/><path class="cls-1" d="M344.56,309.26c-3.68,1.77-14.15,6.72-20,8.71-4.22,1.44-8.81,5.07-15.4,10.68-11.09-7-7-13.41-7-13.41s21-14.23,30.39-13l.39.06,1,.19A19.17,19.17,0,0,1,344.56,309.26Z"/><path class="cls-3" d="M334.59,259.15l.38.59c-.8.51-1.61,1.05-2.42,1.64a21.59,21.59,0,0,0-3.4,3.74l-.09-.07c-6.6,6.92-12.9.77-13.46-3-.79-5.27,4.31-14,12.09-11.77S334.59,259.15,334.59,259.15Z"/><path class="cls-1" d="M331.84,469.45a1.09,1.09,0,0,1,0,.18,1.57,1.57,0,0,1-1.62,1.4l-3.81-.12-.48,0v0s0-.08,0-.12a1.36,1.36,0,0,0-1-1.31l.74-2.83,5,1.31A1.59,1.59,0,0,1,331.84,469.45Z"/><path class="cls-1" d="M332.57,302.27c-9.42-1.26-30.39,13-30.39,13a77.07,77.07,0,0,1-8.38-6.57,43.31,43.31,0,0,1,6.41-1.29c12.22-1.46,14.17-3.09,26.1-5.05A19.4,19.4,0,0,1,332.57,302.27Z"/><path class="cls-4" d="M302.18,315.24s-4.13,6.42,7,13.41c-4.65,4-10.3,8.89-17.51,14.72a149.62,149.62,0,0,0-28.47,31.43H250.85c-11.95-.5-21.34,14-21.34,14a80.45,80.45,0,0,1,2.28-17.7c4.89-19.23,11.24-25.25,25.25-39.59,11.69-12,25.43-19.73,36.76-22.82A77.07,77.07,0,0,0,302.18,315.24Z"/><path class="cls-5" d="M349.65,288.33s-5.18-3.82-6.06,2.4a8.78,8.78,0,0,0,.4,2,8.57,8.57,0,0,0,5.51,5.82s3.39.58,1.55-3.22"/><path class="cls-5" d="M374.65,263.4s-8.71,6.93-10.75,8.34c-4,2.8-3.27,6.47-5.5,10.71s-6.24,6-8.75,5.88"/><path class="cls-5" d="M334.59,259.15s.87-6.66-6.9-8.86-12.88,6.5-12.09,11.77c.56,3.76,6.86,9.91,13.46,3"/><path class="cls-5" d="M343.84,292.77s-2.33-.14-3.61,4.92c-.84,3.6-3.3,5.22-6.2,4.45a9.57,9.57,0,0,1-4.16-2.58c-6.61-6.5-6.46-17.28-6.46-17.28"/><path class="cls-5" d="M323.41,282.28a29.58,29.58,0,0,1,5.74-17.16,21.59,21.59,0,0,1,3.4-3.74c.81-.59,1.62-1.13,2.42-1.64,13.87-8.71,25.5-4.7,39.32,2.2l.36,1.46.47,1.92s4.26,8.55,4.36,14.34c.07,4.56-1.33,5.35.86,8.13"/><path class="cls-5" d="M330.3,467l-11.4-3.13-2.38-.33c-1.6-.22-3.61-.49-4.7-.62-1.42-.17-8.21-2.29-12-3.49-1.7-.55-4.17-2-4.68-3.71-1.23-4.14,5.33-13,11.76-25.47,0,0,10-19.77,10.85-22.89l2.67-8.62a147.46,147.46,0,0,1,10.09-21.85c6.12-10.56,10.83-16.65,15.09-21.26s9.67-12.5,12-20.73"/><path class="cls-5" d="M314.21,471.07h0l10.2,1a1.35,1.35,0,0,0,1.49-1.21v0s0-.08,0-.12a1.36,1.36,0,0,0-1-1.31l-11.47-2.93"/><path class="cls-5" d="M326.4,470.91l3.81.12a1.57,1.57,0,0,0,1.62-1.4,1.09,1.09,0,0,0,0-.18,1.59,1.59,0,0,0-1.21-1.53l-5-1.31-9.21-2.41"/><path class="cls-5" d="M460,233.17l2.12-1.65a4.07,4.07,0,0,1,3.25-.39l2.24.68a1.43,1.43,0,0,1,.34.14,1.74,1.74,0,0,1,.91,1.32c0,.08,0,.15,0,.23a1.74,1.74,0,0,1-.55,1.27L467.05,236"/><path class="cls-5" d="M412.49,270.21s5.72,3.64,9.74,12.54"/><path class="cls-5" d="M332.57,302.27a19.4,19.4,0,0,0-6.26.06c-11.93,2-13.88,3.59-26.1,5.05a43.31,43.31,0,0,0-6.41,1.29c-11.33,3.09-25.07,10.86-36.76,22.82-14,14.34-20.36,20.36-25.25,39.59a80.45,80.45,0,0,0-2.28,17.7c-.36,14.93,2.86,29.66,8.31,35.56,7.66,8.31,21.34,19.55,40.89.82L293.86,409l.1-.11"/><path class="cls-5" d="M344.56,309.26a19.17,19.17,0,0,0-10.63-6.74l-1-.19"/><path class="cls-5" d="M458.75,237.11l1.82-1.37c.21-.15.43-.29.65-.42a4.47,4.47,0,0,1,3.39-.39,3.84,3.84,0,0,1,.51.19l.76.35a2,2,0,0,1,.85.73,1.9,1.9,0,0,1,.32,1.07,2,2,0,0,1-1.43,1.9,2.48,2.48,0,0,0-1.79,2.38,2.72,2.72,0,0,0,.08.63l.1.39a7.27,7.27,0,0,1-.31,4,18.56,18.56,0,0,1-.86,1.73c-3.87,6.79-8.67,7.23-10.79,21-1.41,9.16-7.72,8.93-15.8,7.79-4-.57-9.53,2.46-14,5.65a79,79,0,0,0-8,6.52c-37,37.1-37.93,38.24-56.64,45.67l-4.32,1.71c-20.2,8-24.35,17.21-34.38,27.73a75.37,75.37,0,0,0-9.51,12.41c-2.71,4.37-5.82,9.31-7.24,11.23-2.76,3.74-3.88,6.68-7.15,17.1-.36,1.14-.74,2.43-1.15,3.84-3.35,11.5-8.19,30.94-10.37,40.82-1.83,8.29-4.38,13.64-2.35,17.84,1.3,2.69,6.19,2.13,9.9,1.94a49.25,49.25,0,0,1,9.4.48l12.35,2.08a1.27,1.27,0,0,0,1.44-1.05v0a1.34,1.34,0,0,0,0-.2,1.28,1.28,0,0,0-.82-1.2l-8.6-3.27"/><path class="cls-5" d="M250.85,395.84a153.53,153.53,0,0,1,12.31-21,149.62,149.62,0,0,1,28.47-31.43c7.21-5.83,12.86-10.77,17.51-14.72,6.59-5.61,11.18-9.24,15.4-10.68,5.87-2,16.34-6.94,20-8.71l1.32-.64c16.29-7.94,18.56-10.63,32.74-18.73l2.2-1.25c13-7.36,22.84-12.45,31.67-18.43a108,108,0,0,0,16.19-13.34c14.91-14.91,16.16-13.56,24-20.88l5.34-4.76a7.83,7.83,0,0,1,1.5-1.06l2.14-1.18a4.84,4.84,0,0,1,3.4-.48l3.39.81a2.17,2.17,0,0,1,.88,3.82"/><path class="cls-5" d="M309.14,328.65c-11.09-7-7-13.41-7-13.41a77.07,77.07,0,0,1-8.38-6.57"/><path class="cls-5" d="M229.51,388.78s9.39-14.48,21.34-14h12.31"/><path class="cls-5" d="M302.18,315.24s21-14.23,30.39-13l.39.06"/></svg>