<svg id="Layer_1" data-name="Layer 1" xmlns="http://www.w3.org/2000/svg" viewBox="0 0 700 700"><defs><style>.cls-1{fill:#feae63;}.cls-2{fill:#120c0c;}.cls-3{fill:#99abcc;}.cls-4{fill:#c4e7f9;}.cls-5{fill:none;stroke:#000;stroke-linecap:round;stroke-linejoin:round;stroke-width:2.3px;}</style></defs><title>Yoga_poses_2020_color</title><path class="cls-1" d="M456.62,424.85a4.52,4.52,0,0,1,.95,4.26l-.1.34a1.78,1.78,0,0,1-1.7,1.29h-.15a1.76,1.76,0,0,1-1.47-1l-.41-.86h0a1.77,1.77,0,0,0,.79-1,1.68,1.68,0,0,0,.07-.5,1.87,1.87,0,0,0-.25-.92l-1-1.65,1.8-1.58Z"/><path class="cls-2" d="M437.31,263.13c-.15-.5-1.65-6.1,4.8-9.32,6.77-3.38,13,3.72,13.18,8.7.14,3.44-4.53,9.47-11.42,5.19l-.07-.05a39.62,39.62,0,0,0-3.3-2.27,19.61,19.61,0,0,0-3.41-1.69Z"/><path class="cls-1" d="M450,423.52a2.15,2.15,0,0,1-.79,3.57,2,2,0,0,1-.7.12h-.46a2.15,2.15,0,0,1-1.62-.74,12.43,12.43,0,0,0-3.41-2.76c-1.26-.69-3.16-1.74-5.72-3.18a65.43,65.43,0,0,0-19.39-7.82,22.94,22.94,0,0,1-6.83-2.61,6.4,6.4,0,0,1-2.88-6.68l1.4-7.16c.28-1.75-2.09-5-6.12-9.58a27,27,0,0,0,15.41-9c4.89,6.84,14.17,16.28,14.17,16.28l9.12,10.92,7,11.4,5,5.87.9,1-1.8,1.58L451,422.49Z"/><path class="cls-1" d="M454.59,427.33a1.68,1.68,0,0,1-.07.5,1.77,1.77,0,0,1-.79,1,1.72,1.72,0,0,1-1.18.25l-1.2-.17a1.77,1.77,0,0,1-1.13-.63l-1-1.21a2.15,2.15,0,0,0,.79-3.57l1-1,2.35,2.27,1,1.65A1.87,1.87,0,0,1,454.59,427.33Z"/><path class="cls-2" d="M443.8,267.65l.07.05c11.19,8.66,11.55,19.9,10.41,33.62l-1.13.82h0c-.29-.28-5.69-5.25-12.66-5.08-9.47.23-10.73-5.76-11-7.11l-.09,0c-.23-1-1.07-1.92-3.24-1.94a3.35,3.35,0,0,0-1.17.2,7.85,7.85,0,0,0-1.56.7,26.56,26.56,0,0,1-10.51.34s-7.39-.87-6.56-6.07q.07-.46.18-.93a27.76,27.76,0,0,1,5.13-10s11.59-13.95,25.43-8.57a19.61,19.61,0,0,1,3.41,1.69A39.62,39.62,0,0,1,443.8,267.65Z"/><path class="cls-1" d="M429.39,290l.09,0c.27,1.35,1.53,7.34,11,7.11,7-.17,12.37,4.8,12.66,5.08l-1.49,1.07s-5.86,6.58-10.8,8.63c-3.86,1.62-5,.68-6.64,3.5l-3.83,4.49-3-4.1-9.44,3c-.63.7-6.28,4.82-8.93-5.69a5.42,5.42,0,0,0-.42-.74,6.15,6.15,0,0,0-4.76-2.7l-2.27,0h-.51c0-1.52,0-3.15.07-5,.44-7.08-1.79-9.85-1.79-9.85a32.61,32.61,0,0,0-2.88-3.47l-.24-.25c-3.65-3.82-10.4-9.47-19.72-11.24,3.44.49,6.41,1.07,8.58,1.55a27,27,0,0,1,5.86,2c4.05,2,7.88,2.26,15.58-1.13q-.11.47-.18.93c-.83,5.2,6.56,6.07,6.56,6.07a26.56,26.56,0,0,0,10.51-.34,7.85,7.85,0,0,1,1.56-.7,3.35,3.35,0,0,1,1.17-.2C428.32,288.05,429.16,288.94,429.39,290Zm5.72,20c1.33-.48,2.24-1.34,2-1.92s-1.46-.65-2.79-.17-2.24,1.34-2,1.91S433.77,310.42,435.11,309.94Z"/><path d="M437.14,308c.21.58-.7,1.44-2,1.92s-2.59.4-2.8-.18.71-1.43,2-1.91S436.93,307.44,437.14,308Z"/><path class="cls-3" d="M315.09,339.38c14.3-16.25,32.81-24.45,44.37-29.13l3.4-1.36c13.2-5.26,21,3.31,23.95,7.22s5.86,8,5.86,8c1,1.69,2,3.57,3,5.58,8.53,16.51,18.85,41.91,23.21,48a27,27,0,0,1-15.41,9c-5.38-6.07-13.7-14.36-22.55-24.14-2.25-2.48-4.14-4.78-5.73-6.88-9.34-12.38-8.26-18.2-8.26-18.2a130,130,0,0,1-14.68,17.1s-8.95,8.63-9.44,12.86c-.21,1.76-.46,3.29-.82,4.95h0c-2.9,5.52-11.19,10.7-19.68,15.53s-23.94,9.07-34.17-3.09-6.95-28.57-1.93-37.84c1.08-2,2.07-3.89,3-5.65h0a17.39,17.39,0,0,1,11.88-3.85A72.65,72.65,0,0,1,315.09,339.38Z"/><path class="cls-1" d="M399.35,294.77s2.23,2.77,1.79,9.85c-.11,1.85-.1,3.48-.07,5,.12,5.78.42,10.13-5.38,20.05-1-2-2.05-3.89-3-5.58,0,0-2.93-4.07-5.86-8s-10.75-12.48-23.95-7.22l-3.4,1.36a62.4,62.4,0,0,1-1.43-18s26.25-13.51,38.2-1.19l.24.25A32.61,32.61,0,0,1,399.35,294.77Z"/><path class="cls-1" d="M376.51,279.81c9.32,1.77,16.07,7.42,19.72,11.24-12-12.32-38.2,1.19-38.2,1.19s-5.21-6.45-1.89-13.07a76.59,76.59,0,0,1,16,.11h.05q2.17.23,4.17.51Z"/><path class="cls-1" d="M378.47,427.89a1.73,1.73,0,0,1-.34,3.45l-1.87-.14a1.83,1.83,0,0,0,.29-1,1.78,1.78,0,0,0-1.41-1.74c-1.73-.37-4.73-1.05-7.12-1.83Z"/><path class="cls-1" d="M376.55,430.21a1.83,1.83,0,0,1-.29,1h0a1.76,1.76,0,0,1-1.51.79,57.85,57.85,0,0,1-9.24-1.14,6.9,6.9,0,0,0-1.44-.14h-1.2a1.62,1.62,0,0,0-1.21-1.55l-7.26-2,.39-2.7,4.76.68,6.77,1.07a5.46,5.46,0,0,1,1.38.28l.3.1h0c2.39.78,5.39,1.46,7.12,1.83A1.78,1.78,0,0,1,376.55,430.21Z"/><path class="cls-1" d="M354.12,431s-8.24,1.09-13.41.44c-5.59-.7-7.17.65-5.87-17.43s3.1-26.39,4.89-32.9c1-3.81,1.76-6.4,2.28-8.74.36-1.66.61-3.19.82-4.95.49-4.23,9.44-12.86,9.44-12.86A130,130,0,0,0,367,337.46s-1.08,5.82,8.26,18.2l-.37.28s-3.75,4.24-6.85,8.14-6.92,8.07-6.59,13-5.46,15.31-7.74,20a71,71,0,0,0-4.48,13c-.81,3.18-2,8-2.12,10.51s6.68,3.67,6.68,3.67l1,.15-.39,2.7,7.26,2a1.62,1.62,0,0,1,1.21,1.55v0a1.63,1.63,0,0,1-1.71,1.64A31.85,31.85,0,0,1,354.12,431Z"/><path class="cls-4" d="M358,292.24a62.4,62.4,0,0,0,1.43,18c-11.56,4.68-30.07,12.88-44.37,29.13a72.65,72.65,0,0,0-14-1.92,17.39,17.39,0,0,0-11.88,3.85c3.27-6.39,5.25-10.86,5.25-10.86,11.89-31.93,40.39-46.92,56.85-50.5a47.86,47.86,0,0,1,4.84-.78C352.82,285.79,358,292.24,358,292.24Z"/><path class="cls-5" d="M443.8,267.65c-.22-.13-.44-.28-.66-.44"/><path class="cls-5" d="M437.32,263.17v0c-.15-.5-1.65-6.1,4.8-9.32,6.77-3.38,13,3.72,13.18,8.7.14,3.44-4.53,9.47-11.42,5.19"/><path class="cls-5" d="M414.23,299.67s-4.59,2.75-3.58,7.42"/><path class="cls-5" d="M428.9,293.11a5.62,5.62,0,0,0,.49-3.14c-.23-1-1.07-1.92-3.24-1.94a3.35,3.35,0,0,0-1.17.2,7.85,7.85,0,0,0-1.56.7,7.62,7.62,0,0,0-3.79,5.82s.07,3.18,3.18.85"/><path class="cls-5" d="M453.14,302.14c-.29-.28-5.69-5.25-12.66-5.08-9.47.23-10.73-5.76-11-7.11a.94.94,0,0,0-.06-.27"/><path class="cls-5" d="M423.42,288.93a26.56,26.56,0,0,1-10.51.34s-7.39-.87-6.56-6.07q.07-.46.18-.93a27.76,27.76,0,0,1,5.13-10s11.59-13.95,25.43-8.57a19.61,19.61,0,0,1,3.41,1.69,39.62,39.62,0,0,1,3.3,2.27l.07.05c11.19,8.66,11.55,19.9,10.41,33.62l-1.13.82h0l-1.49,1.07s-5.86,6.58-10.8,8.63c-3.86,1.62-5,.68-6.64,3.5l-3.83,4.49-3-4.1-9.44,3c-.63.7-6.28,4.82-8.93-5.69a5.42,5.42,0,0,0-.42-.74,6.15,6.15,0,0,0-4.76-2.7l-2.27,0"/><path class="cls-5" d="M289.19,341.32c-.9,1.76-1.89,3.66-3,5.65-5,9.27-8.31,25.68,1.93,37.84s25.67,7.92,34.17,3.09,16.78-10,19.68-15.53"/><path class="cls-5" d="M372.18,279.28a76.59,76.59,0,0,0-16-.11,47.86,47.86,0,0,0-4.84.78c-16.46,3.58-45,18.57-56.85,50.5,0,0-2,4.47-5.25,10.86"/><path class="cls-5" d="M376.4,279.79q-2-.29-4.17-.51"/><path class="cls-5" d="M406.53,282.27c-7.7,3.39-11.53,3.08-15.58,1.13a27,27,0,0,0-5.86-2c-2.17-.48-5.14-1.06-8.58-1.55"/><path class="cls-5" d="M396.23,291.05c-3.65-3.82-10.4-9.47-19.72-11.24l-.11,0a30.86,30.86,0,0,0-4.17-.51h-.05"/><path class="cls-5" d="M395.69,329.67c5.8-9.92,5.5-14.27,5.38-20.05,0-1.52,0-3.15.07-5,.44-7.08-1.79-9.85-1.79-9.85a32.61,32.61,0,0,0-2.88-3.47"/><path class="cls-5" d="M370.84,330.45s-.59,2.22-3.89,7a130,130,0,0,1-14.68,17.1s-8.95,8.63-9.44,12.86c-.21,1.76-.46,3.29-.82,4.95-.52,2.34-1.23,4.93-2.28,8.74-1.79,6.51-3.58,14.82-4.89,32.9s.28,16.73,5.87,17.43c5.17.65,13.41-.44,13.41-.44"/><path class="cls-5" d="M350,429.49a38.42,38.42,0,0,0,4.12,1.51,31.85,31.85,0,0,0,7,1.38,1.63,1.63,0,0,0,1.71-1.64v0a1.62,1.62,0,0,0-1.21-1.55l-7.26-2"/><path class="cls-5" d="M368,426.64l-.3-.1a5.46,5.46,0,0,0-1.38-.28l-6.77-1.07-4.76-.68-1-.15s-6.76-1.14-6.68-3.67,1.31-7.33,2.12-10.51a71,71,0,0,1,4.48-13c2.28-4.72,8.06-15.07,7.74-20s3.5-9.13,6.59-13,6.85-8.14,6.85-8.14"/><path class="cls-5" d="M376.26,431.2a1.83,1.83,0,0,0,.29-1,1.78,1.78,0,0,0-1.41-1.74c-1.73-.37-4.73-1.05-7.12-1.83"/><path class="cls-5" d="M362.86,430.71h1.2a6.9,6.9,0,0,1,1.44.14,57.85,57.85,0,0,0,9.24,1.14,1.76,1.76,0,0,0,1.51-.79"/><path class="cls-5" d="M376.25,431.2h0l1.87.14a1.73,1.73,0,0,0,.34-3.45L368,426.64h0"/><path class="cls-5" d="M367,337.46s-1.08,5.82,8.26,18.2c1.59,2.1,3.48,4.4,5.73,6.88,8.85,9.78,17.17,18.07,22.55,24.14,4,4.54,6.4,7.83,6.12,9.58l-1.4,7.16a6.4,6.4,0,0,0,2.88,6.68,22.94,22.94,0,0,0,6.83,2.61,65.43,65.43,0,0,1,19.39,7.82c2.56,1.44,4.46,2.49,5.72,3.18a12.43,12.43,0,0,1,3.41,2.76,2.15,2.15,0,0,0,1.62.74h.46a2,2,0,0,0,.7-.12,2.15,2.15,0,0,0,.79-3.57,2.25,2.25,0,0,0-.47-.34l-2.79-1.51"/><path class="cls-5" d="M449.21,427.08h0l1,1.21a1.77,1.77,0,0,0,1.13.63l1.2.17a1.72,1.72,0,0,0,1.18-.25,1.77,1.77,0,0,0,.79-1,1.68,1.68,0,0,0,.07-.5,1.87,1.87,0,0,0-.25-.92l-1-1.65L451,422.49l-.34-.33"/><path class="cls-5" d="M453.74,428.86l.41.86a1.76,1.76,0,0,0,1.47,1h.15a1.78,1.78,0,0,0,1.7-1.29l.1-.34a4.52,4.52,0,0,0-.95-4.26l-1.47-1.67-.9-1-5-5.87-7-11.4L433.07,394s-9.28-9.44-14.17-16.28c-4.36-6.11-14.68-31.51-23.21-48-1-2-2.05-3.89-3-5.58,0,0-2.93-4.07-5.86-8s-10.75-12.48-23.95-7.22l-3.4,1.36c-11.56,4.68-30.07,12.88-44.37,29.13a79.51,79.51,0,0,0-8.59,11.75l-6.19,10.43"/><path class="cls-5" d="M403.49,386.68a27,27,0,0,0,15.41-9"/><path class="cls-5" d="M289.19,341.32h0a17.39,17.39,0,0,1,11.88-3.85,72.65,72.65,0,0,1,14,1.92"/><path class="cls-5" d="M359.46,310.25a62.4,62.4,0,0,1-1.43-18s-5.21-6.45-1.89-13.07h0"/><path class="cls-5" d="M358,292.24s26.25-13.51,38.2-1.19l.24.25"/></svg>