<svg id="Layer_1" data-name="Layer 1" xmlns="http://www.w3.org/2000/svg" viewBox="0 0 700 700"><defs><style>.cls-1{fill:#feae63;}.cls-2{fill:#99abcc;}.cls-3{fill:#c4e7f9;}.cls-4{fill:#392328;}.cls-5{fill:none;stroke:#000;stroke-linecap:round;stroke-linejoin:round;stroke-width:2.3px;}</style></defs><title>Yoga_poses_2020_color</title><path class="cls-1" d="M461.59,438.85a4.17,4.17,0,0,0-1.76,1.45,20.59,20.59,0,0,0-2.77,7,3.13,3.13,0,0,0,0,1.46l.11.4a3.07,3.07,0,0,1-2.22,3.75l-.33.08a3,3,0,0,1-2-.16,3.06,3.06,0,0,1-1.84-2.8,3,3,0,0,1,.15-.93l.43-1.36c0-.1.05-.19.07-.29.28-1.3,2.22-10.83.4-12.45s-7.16-5.21-8-11.29c0,0-13.68-19-17.38-23.29s-11.63-12.78-13.74-20.27c-2.21-7.83-11.28-18.51-15.34-29.79a184.65,184.65,0,0,1-6.34-22.56,36.48,36.48,0,0,1-2.12,7.58,51.57,51.57,0,0,0-2.57,9h0c0-6.9-2.61-11.94-5.32-20.27a99.13,99.13,0,0,1,.18-22.86l.14-.59a61.53,61.53,0,0,0,7.87,2s8.49,1.31,10.31,3.59a56.39,56.39,0,0,1,10.93,24.38c2.05,12.53,12.12,26.2,14.85,32.8,0,0,2.7,3.85,7.05,9.28s10,25.63,15,33.88,6.08,9.12,7.82,12.81,13.25,14.34,13.25,14.34,8.21,10.49,11.56,12.88a1.49,1.49,0,0,1,.6,1.22,1.52,1.52,0,0,1-1.52,1.52,1.46,1.46,0,0,1-.81-.24,99.14,99.14,0,0,1-12-9.52A4.27,4.27,0,0,0,461.59,438.85Z"/><path class="cls-1" d="M469.26,443.68a1.58,1.58,0,0,1-2.52,1.9l-5.15-6.73a4.27,4.27,0,0,1,4.62.72Z"/><path class="cls-1" d="M422.58,453.09c-1.72,1.1-2.7.74-3.38.06a8.23,8.23,0,0,1-1.3-3,2,2,0,0,0,2.27.35,1.81,1.81,0,0,0,1.18-2.41,1.72,1.72,0,0,0-2.27-.9,1.84,1.84,0,0,0,.25-.09,1.77,1.77,0,1,0-2.58-.84,1.78,1.78,0,0,0,2.31.94,1.25,1.25,0,0,0-.25.09,2.07,2.07,0,0,0-1.3,1.3l-.06-.3s-12.89-5.37-16.15-5.37-5.21,1.95-8.15,1.95-5.53-1.95-15-.32c-1.33.23-3.3.63-5.75,1.12l-.07-.35A22.48,22.48,0,0,0,373,428c4.63.44,8.48.72,10.16.84a5.81,5.81,0,0,0,1.76-.15l9-2.18a6,6,0,0,1,1.84-.14c.92.08,2.46.2,4.28.33,4.37.33,10.38.73,13.48.73,5.21,0,12.59-.81,13.57,3.42s2.08,15.8-1.77,19.87A14.87,14.87,0,0,1,422.58,453.09Zm-.67.27a1.8,1.8,0,0,0,1.17-2.41c-.43-1-1.39-1-2.43-.57s-1.76,1.1-1.33,2.14A1.86,1.86,0,0,0,421.91,453.36Zm-2.17-11.77a2,2,0,1,0-2,2A2,2,0,0,0,419.74,441.59Z"/><path class="cls-1" d="M423.08,451a1.8,1.8,0,0,1-1.17,2.41,1.86,1.86,0,0,1-2.59-.84c-.43-1,.29-1.71,1.33-2.14S422.65,449.91,423.08,451Z"/><path class="cls-2" d="M422.58,453.09V461c-.4,11.33-20.7,15.19-30.74,16-8,.61-60.85-.74-86-1.44V475a27.35,27.35,0,0,1-.26-15.34l-.1-.87c4.91-.48,18.56-2.15,23.25-2.93,5.21-.87,25-6.8,25-6.8,7.36-1.12,13.92-2.42,18.66-3.37,2.45-.49,4.42-.89,5.75-1.12,9.45-1.63,12.05.32,15,.32s4.89-1.95,8.15-1.95,16.15,5.37,16.15,5.37l.06.3a1.52,1.52,0,0,0,.08,1.06,1.77,1.77,0,0,0,.31.5,8.23,8.23,0,0,0,1.3,3C419.88,453.83,420.86,454.19,422.58,453.09Z"/><path class="cls-1" d="M421.35,448.11a1.81,1.81,0,0,1-1.18,2.41,2,2,0,0,1-2.27-.35c-.18-.65-.31-1.23-.39-1.56a2.07,2.07,0,0,1,1.3-1.3,1.25,1.25,0,0,1,.25-.09h0A1.72,1.72,0,0,1,421.35,448.11Z"/><path class="cls-1" d="M420.51,444.72a1.8,1.8,0,0,1-1.18,2.4,1.84,1.84,0,0,1-.25.09h0a1.78,1.78,0,1,1,1.45-2.5Z"/><path class="cls-1" d="M417.71,439.56a2,2,0,1,1-2,2A2,2,0,0,1,417.71,439.56Z"/><path class="cls-2" d="M373,428c-8.24-.81-19-2.13-24.39-4-9.52-3.25-21.17-3.21-33.37-4.88a105.2,105.2,0,0,1-14.49-3.48,55.78,55.78,0,0,0,10-17.41l1.44.55s22.06,3.41,35.69,3.21,38.44-3.4,38.44-3.4l1.27-.39a58.1,58.1,0,0,0,7.75,15.49,24,24,0,0,1,4.57,12.1c0,.3,0,.6.05.9-1.82-.13-3.36-.25-4.28-.33a6,6,0,0,0-1.84.14l-9,2.18a5.81,5.81,0,0,1-1.76.15C381.46,428.75,377.61,428.47,373,428Z"/><path class="cls-3" d="M387.62,398.24l-1.27.39s-24.8,3.2-38.44,3.4-35.69-3.21-35.69-3.21l-1.44-.55c5.44-14.46,6-29.91,5.06-35.56-.93-5.33-1.75-12.35-3.06-18.57l.51-.11c0-5.52,4.48-15.27,5.61-20.57,0,0,20.32,15.32,62.13.65,2.71,8.33,5.32,13.37,5.32,20.27h0c-1.28,6.16-2.1,13.06-3,18.32C382.41,368.24,382.69,383.7,387.62,398.24Z"/><path class="cls-1" d="M381.35,300.66l-.14.59a99.13,99.13,0,0,0-.18,22.86c-41.81,14.67-62.13-.65-62.13-.65a152.07,152.07,0,0,0-.61-22.21l-.21-.66a108.4,108.4,0,0,0,15.83-6.38c3.74-2.11,4.5-8.27,4.26-14.61l.09-.12c2.62,1.9,6.59,3.41,12.55,3.3a22.56,22.56,0,0,0,10-2.67l.19.33c-.14,6,.72,11.75,4.29,13.77A107.83,107.83,0,0,0,381.35,300.66Z"/><path class="cls-1" d="M373.06,254.85s.31,5-2.16,8.13c0,0-1.54,1.4-1-2.26l-.32-.05c0-.32.08-.64.11-.94l.36-5.89.32,0C371,252.8,372.4,251.14,373.06,254.85Z"/><path class="cls-2" d="M353.76,449.06s-19.79,5.93-25,6.8c-4.69.78-18.34,2.45-23.25,2.93l-1.3.11c-1.83.13-3.27-.21-5.46-.16-2.64-1.7-25.62-16.68-27.77-25.64-2.28-9.52,2.61-19.81,10.1-21.11,4.57-.79,11.95,1.46,19.65,3.69a105.2,105.2,0,0,0,14.49,3.48c12.2,1.67,23.85,1.63,33.37,4.88,5.42,1.86,16.15,3.18,24.39,4a22.48,22.48,0,0,1-.63,17.31l.07.35C367.68,446.64,361.12,447.94,353.76,449.06Z"/><path class="cls-4" d="M329,251.45c-.11.72-.13,1.14-.13,1.14s-5.18-15.65,3.84-23.68a21.35,21.35,0,0,1,6.86-4.09c8-3,16.51-1.18,19.4-.4.66.18,1,.3,1,.3C378.4,232.09,370.37,252,370.37,252a5.68,5.68,0,0,0-.12-.78,45.15,45.15,0,0,0-2.12-6.66c-3.78-9.81-17.33-9.82-17.33-9.82C332.86,234.83,329.6,247.53,329,251.45Z"/><path class="cls-1" d="M370.25,251.19l-.17,2.65-.36,5.89c0,.3-.07.62-.11.94-.56,4-2.37,9.08-2.91,11.58a11.7,11.7,0,0,1-5.88,7.86,22.56,22.56,0,0,1-10,2.67c-6,.11-9.93-1.4-12.55-3.3a12.47,12.47,0,0,1-4.93-6.93c-.83-3.06-2.72-8.77-3.26-11.92-.07-.45-.12-.86-.14-1.19l-.69-6.09-.21-1.9c.57-3.92,3.83-16.62,21.77-16.74,0,0,13.55,0,17.33,9.82A45.15,45.15,0,0,1,370.25,251.19ZM359,257.39a2.32,2.32,0,1,0-2-2.28A2.15,2.15,0,0,0,359,257.39Zm-18.12-.24a2.32,2.32,0,1,0-2-2.28A2.16,2.16,0,0,0,340.89,257.15Z"/><path d="M361,255.09a2,2,0,1,1-2-2.29A2.15,2.15,0,0,1,361,255.09Z"/><path class="cls-4" d="M360.13,224.41H359c-2.89-.78-11.4-2.59-19.4.4l-.16-.41c0-5.36,4.63-9.7,10.35-9.7S360.13,219.05,360.13,224.41Z"/><path d="M342.86,254.84a2,2,0,1,1-2-2.28A2.16,2.16,0,0,1,342.86,254.84Z"/><path class="cls-1" d="M330.07,260.63l-.22,0c.72,3.63-.87,2.29-.87,2.29-2.61-3-2.51-8-2.51-8,.44-3.22,1.56-2.48,2.29-1.54l.48-.05.69,6.09C330,259.77,330,260.18,330.07,260.63Z"/><path class="cls-1" d="M237.62,438.85a4.28,4.28,0,0,0-4.62.72,98.34,98.34,0,0,1-12,9.52,1.46,1.46,0,0,1-.81.24,1.52,1.52,0,0,1-1.52-1.52,1.49,1.49,0,0,1,.6-1.22c3.36-2.39,11.56-12.88,11.56-12.88s11.51-10.64,13.25-14.34,2.82-4.56,7.82-12.81,10.64-28.45,15-33.88,7-9.28,7-9.28c2.74-6.6,12.8-20.27,14.85-32.8a56.39,56.39,0,0,1,10.93-24.38c1.83-2.28,10.32-3.59,10.32-3.59a60.55,60.55,0,0,0,8.08-2l.21.66a152.07,152.07,0,0,1,.61,22.21c-1.13,5.3-5.61,15.05-5.61,20.57l-.51.11a50,50,0,0,0-2.52-8.75,37.17,37.17,0,0,1-2.12-7.58,184.65,184.65,0,0,1-6.34,22.56c-4.06,11.28-13.13,22-15.34,29.79-2.11,7.49-10,16-13.74,20.27s-17.38,23.29-17.38,23.29c-.86,6.08-6.08,9.55-8,11.29s.12,11.15.4,12.45c0,.1,0,.19.08.29l.43,1.36a2.89,2.89,0,0,1,.14.92,3,3,0,0,1-3.8,3l-.33-.08a3.07,3.07,0,0,1-2.22-3.75l.11-.4a3,3,0,0,0,0-1.46,20.5,20.5,0,0,0-2.77-7A4.17,4.17,0,0,0,237.62,438.85Z"/><path class="cls-1" d="M275.45,480a2.44,2.44,0,0,0-4.06-2.65c-.65,1-.15,2.06,1,2.79S274.8,481,275.45,480Zm23.3-21.24c2.19-.05,3.63.29,5.46.16l1.3-.11.1.87a27.35,27.35,0,0,0,.26,15.34v.47l-12.6-.36c-7-.23-15.49,3.72-17.41,4.67l-.09.19c-3,6.08-5.65,2.39-8.47,1.74s-2.61-5.65-2.61-5.65c-.21-14.12,3-16.29,5-16.51s5.86-1.08,8.47-1.52,8.9,3,15,1.52A24.35,24.35,0,0,1,298.75,458.74Zm-22.4,16.75a2.44,2.44,0,1,0-3.21.48A2.29,2.29,0,0,0,276.35,475.49ZM273,482.55c.5-.75.09-1.54-.76-2.09s-1.81-.67-2.3.09a1.84,1.84,0,0,0,3.06,2Z"/><path class="cls-1" d="M275.5,472.37a2.17,2.17,0,1,1-3.21.47A2.29,2.29,0,0,1,275.5,472.37Z"/><path class="cls-1" d="M274.6,476.85a2.3,2.3,0,0,1,.85,3.13c-.65,1-2,.87-3.08.14s-1.63-1.79-1-2.79A2.31,2.31,0,0,1,274.6,476.85Z"/><path class="cls-1" d="M272.24,480.46c.85.55,1.26,1.34.76,2.09a1.84,1.84,0,0,1-3.06-2C270.43,479.79,271.4,479.91,272.24,480.46Z"/><path class="cls-1" d="M237.62,438.85l-5.15,6.73a1.58,1.58,0,0,1-2.52-1.9l3.05-4.11A4.28,4.28,0,0,1,237.62,438.85Z"/><path class="cls-5" d="M339.44,224.41c0-5.36,4.63-9.7,10.35-9.7s10.34,4.34,10.34,9.7"/><path class="cls-5" d="M329,251.45c.57-3.92,3.83-16.62,21.77-16.74,0,0,13.55,0,17.33,9.82a45.15,45.15,0,0,1,2.12,6.66,5.68,5.68,0,0,1,.12.78s8-19.88-10.34-27.25c0,0-.37-.12-1-.3-2.89-.78-11.4-2.59-19.4.4a21.35,21.35,0,0,0-6.86,4.09c-9,8-3.84,23.68-3.84,23.68S328.92,252.17,329,251.45Z"/><path class="cls-5" d="M370.4,253.86c.64-1.06,2-2.72,2.66,1,0,0,.31,5-2.16,8.13,0,0-1.54,1.4-1-2.26"/><path class="cls-5" d="M328.76,253.4c-.73-.94-1.85-1.68-2.29,1.54,0,0-.1,5,2.51,8,0,0,1.59,1.34.87-2.29"/><path class="cls-5" d="M328.93,250.6l.1.85.21,1.9.69,6.09c0,.33.07.74.14,1.19.54,3.15,2.43,8.86,3.26,11.92a12.47,12.47,0,0,0,4.93,6.93c2.62,1.9,6.59,3.41,12.55,3.3a22.56,22.56,0,0,0,10-2.67,11.7,11.7,0,0,0,5.88-7.86c.54-2.5,2.35-7.58,2.91-11.58,0-.32.08-.64.11-.94l.36-5.89.17-2.65.07-1.2"/><path class="cls-5" d="M351.5,262.79a4.29,4.29,0,0,1-4.44-.13"/><polyline class="cls-5" points="344.76 270.21 345.7 270.59 348.67 269.72 349.77 270.41 351 269.75 353.65 270.7 354.51 270.47"/><line class="cls-5" x1="348.59" y1="275.15" x2="351.15" y2="275.18"/><path class="cls-5" d="M338.17,279.6c.24,6.34-.52,12.5-4.26,14.61a108.4,108.4,0,0,1-15.83,6.38,60.55,60.55,0,0,1-8.08,2s-8.49,1.31-10.32,3.59a56.39,56.39,0,0,0-10.93,24.38c-2.05,12.53-12.11,26.2-14.85,32.8,0,0-2.7,3.85-7,9.28s-10,25.63-15,33.88-6.08,9.12-7.82,12.81-13.25,14.34-13.25,14.34-8.2,10.49-11.56,12.88a1.49,1.49,0,0,0-.6,1.22,1.52,1.52,0,0,0,1.52,1.52,1.46,1.46,0,0,0,.81-.24,98.34,98.34,0,0,0,12-9.52,4.28,4.28,0,0,1,4.62-.72,4.17,4.17,0,0,1,1.76,1.45,20.5,20.5,0,0,1,2.77,7,3,3,0,0,1,0,1.46l-.11.4a3.07,3.07,0,0,0,2.22,3.75l.33.08a3,3,0,0,0,3.8-3,2.89,2.89,0,0,0-.14-.92l-.43-1.36c0-.1-.06-.19-.08-.29-.28-1.3-2.22-10.83-.4-12.45s7.17-5.21,8-11.29c0,0,13.69-19,17.38-23.29s11.63-12.78,13.74-20.27c2.21-7.83,11.28-18.51,15.34-29.79a184.65,184.65,0,0,0,6.34-22.56,37.17,37.17,0,0,0,2.12,7.58,50,50,0,0,1,2.52,8.75c1.31,6.22,2.13,13.24,3.06,18.57,1,5.65.38,21.1-5.06,35.56a55.78,55.78,0,0,1-10,17.41"/><path class="cls-5" d="M312.22,398.82s22.06,3.41,35.69,3.21,38.44-3.4,38.44-3.4"/><path class="cls-5" d="M318.9,323.46c-1.13,5.3-5.61,15.05-5.61,20.57"/><path class="cls-5" d="M318.9,323.46s20.32,15.32,62.13.65"/><path class="cls-5" d="M381.21,301.25a99.13,99.13,0,0,0-.18,22.86c2.71,8.33,5.32,13.37,5.32,20.27"/><path class="cls-5" d="M318.29,301.25a152.07,152.07,0,0,1,.61,22.21"/><path class="cls-5" d="M233,439.57,230,443.68a1.58,1.58,0,0,0,2.52,1.9l5.15-6.73h0"/><path class="cls-5" d="M361,280.44c-.14,6,.72,11.75,4.29,13.77a107.83,107.83,0,0,0,16.05,6.45,61.53,61.53,0,0,0,7.87,2s8.49,1.31,10.31,3.59a56.39,56.39,0,0,1,10.93,24.38c2.05,12.53,12.12,26.2,14.85,32.8,0,0,2.7,3.85,7.05,9.28s10,25.63,15,33.88,6.08,9.12,7.82,12.81,13.25,14.34,13.25,14.34,8.21,10.49,11.56,12.88a1.49,1.49,0,0,1,.6,1.22,1.52,1.52,0,0,1-1.52,1.52,1.46,1.46,0,0,1-.81-.24,99.14,99.14,0,0,1-12-9.52,4.27,4.27,0,0,0-4.62-.72,4.17,4.17,0,0,0-1.76,1.45,20.59,20.59,0,0,0-2.77,7,3.13,3.13,0,0,0,0,1.46l.11.4a3.07,3.07,0,0,1-2.22,3.75l-.33.08a3,3,0,0,1-2-.16,3.06,3.06,0,0,1-1.84-2.8,3,3,0,0,1,.15-.93l.43-1.36c0-.1.05-.19.07-.29.28-1.3,2.22-10.83.4-12.45s-7.16-5.21-8-11.29c0,0-13.68-19-17.38-23.29s-11.63-12.78-13.74-20.27c-2.21-7.83-11.28-18.51-15.34-29.79a184.65,184.65,0,0,1-6.34-22.56,36.48,36.48,0,0,1-2.12,7.58,51.57,51.57,0,0,0-2.57,9c-1.28,6.16-2.1,13.06-3,18.32-1,5.53-.68,21,4.25,35.53a58.1,58.1,0,0,0,7.75,15.49,24,24,0,0,1,4.57,12.1c0,.3,0,.6.05.9"/><path class="cls-5" d="M466.21,439.57l3.05,4.11a1.58,1.58,0,0,1-2.52,1.9l-5.15-6.73h0"/><path class="cls-5" d="M288.9,443.92c4.89,0,16.62,4.56,16.62,4.56,12.81,4.59,32.37,3,48.24.58,7.36-1.12,13.92-2.42,18.66-3.37,2.45-.49,4.42-.89,5.75-1.12,9.45-1.63,12.05.32,15,.32s4.89-1.95,8.15-1.95,16.15,5.37,16.15,5.37l.06.3c.08.33.21.91.39,1.56a8.23,8.23,0,0,0,1.3,3c.68.68,1.66,1,3.38-.06a14.87,14.87,0,0,0,2.69-2.34c3.85-4.07,2.74-15.63,1.77-19.87s-8.36-3.42-13.57-3.42c-3.1,0-9.11-.4-13.48-.73-1.82-.13-3.36-.25-4.28-.33a6,6,0,0,0-1.84.14l-9,2.18a5.81,5.81,0,0,1-1.76.15c-1.68-.12-5.53-.4-10.16-.84-8.24-.81-19-2.13-24.39-4-9.52-3.25-21.17-3.21-33.37-4.88a105.2,105.2,0,0,1-14.49-3.48c-7.7-2.23-15.08-4.48-19.65-3.69-7.49,1.3-12.38,11.59-10.1,21.11,2.15,9,25.13,23.94,27.77,25.64l.25.16"/><path class="cls-5" d="M353.76,449.06s-19.79,5.93-25,6.8c-4.69.78-18.34,2.45-23.25,2.93l-1.3.11c-1.83.13-3.27-.21-5.46-.16a24.35,24.35,0,0,0-5.61.81c-6.09,1.52-12.38-1.95-15-1.52s-6.52,1.31-8.47,1.52-5.21,2.39-5,16.51c0,0-.21,5,2.61,5.65s5.43,4.34,8.47-1.74l.09-.19c2.9-5.94.58-8.38.58-8.38"/><path class="cls-5" d="M272.07,465.85s.22,7.17,7.82,5.22-3.48-8.47-3.48-8.47"/><path class="cls-5" d="M420.41,436.53s-3.26,3.48-7.38,2-.38-7.44,3.25-7.61,2.18-.21,2.18-.21"/><path class="cls-5" d="M373,428h0a22.48,22.48,0,0,1-.63,17.31"/><path class="cls-5" d="M276.35,475.49a2.44,2.44,0,1,1-.85-3.12A2.3,2.3,0,0,1,276.35,475.49Z"/><path class="cls-5" d="M275.45,480c-.65,1-2,.87-3.08.14s-1.63-1.79-1-2.79a2.44,2.44,0,0,1,4.06,2.65Z"/><path class="cls-5" d="M273,482.55a1.84,1.84,0,0,1-3.06-2c.49-.76,1.46-.64,2.3-.09S273.5,481.8,273,482.55Z"/><path class="cls-5" d="M275.45,480l.4-.2c1.92-.95,10.38-4.9,17.41-4.67l12.6.36c25.13.7,78,2,86,1.44,10-.77,30.34-4.63,30.74-16V453"/><path class="cls-5" d="M305.61,459.66a27.35,27.35,0,0,0,.26,15.34"/><path class="cls-5" d="M419.74,441.59a2,2,0,1,1-2-2A2,2,0,0,1,419.74,441.59Z"/><path class="cls-5" d="M419.06,447.22a1.78,1.78,0,1,1,1.45-2.5,1.8,1.8,0,0,1-1.18,2.4,1.84,1.84,0,0,1-.25.09"/><path class="cls-5" d="M419.08,447.21a1.72,1.72,0,0,1,2.27.9,1.81,1.81,0,0,1-1.18,2.41,2,2,0,0,1-2.27-.35,1.77,1.77,0,0,1-.31-.5,1.52,1.52,0,0,1-.08-1.06,2.07,2.07,0,0,1,1.3-1.3,1.25,1.25,0,0,1,.25-.09Z"/><path class="cls-5" d="M423.08,451a1.8,1.8,0,0,1-1.17,2.41,1.86,1.86,0,0,1-2.59-.84c-.43-1,.29-1.71,1.33-2.14S422.65,449.91,423.08,451Z"/></svg>