<svg id="Layer_1" data-name="Layer 1" xmlns="http://www.w3.org/2000/svg" viewBox="0 0 700 700"><defs><style>.cls-1{fill:#feae63;}.cls-2{fill:#120c0c;}.cls-3{fill:#99abcc;}.cls-4{fill:#c4e7f9;}.cls-5{fill:none;stroke:#000;stroke-linecap:round;stroke-linejoin:round;stroke-width:2.3px;}</style></defs><title>Yoga_poses_2020_color</title><path class="cls-1" d="M483.68,356.58a2.94,2.94,0,0,1-2.13,2.83l-2,.58a3.16,3.16,0,0,1-.81.11h-.38v-.26a2.08,2.08,0,0,0,1.84-1s0,0,0,0a2.48,2.48,0,0,0-.05-2.51l-2.43-4,4.1,1.58A2.93,2.93,0,0,1,483.68,356.58Z"/><path class="cls-1" d="M478.33,359.84v.26h-.24a11.23,11.23,0,0,0-4.28.85l-.8.33a13.44,13.44,0,0,1-5.17,1c-4.77,0-15,.83-17.71,8.25-3.59,9.77-10.9,15.29-16.94,10.1-6.68-5.74-5.64-13.8-19-14.45-4.6-13,3.72-17.23,4.09-17.41h0a89.71,89.71,0,0,0,10.62,1.56c2.8.24,5.17.41,7.19.52,11.61.66,11.64-.52,16.63-.52,4.72,0,13,.47,16.09.65l-.09,1.72,2.44,1.4a2.66,2.66,0,0,1,1.2,2.23,2.73,2.73,0,0,1-.6,1.7l1.33.44a2.62,2.62,0,0,0,.82.14,2.58,2.58,0,0,0,2.25-1.33,2.72,2.72,0,0,0,.32-1.2,2.36,2.36,0,0,0-.55-1.49l-3-3.54a8.79,8.79,0,0,1,3.21.6l1.59.61,2.43,4a2.48,2.48,0,0,1,.05,2.51s0,0,0,0A2.08,2.08,0,0,1,478.33,359.84Z"/><path class="cls-1" d="M475.94,354.59a2.36,2.36,0,0,1,.55,1.49,2.72,2.72,0,0,1-.32,1.2,2.58,2.58,0,0,1-2.25,1.33,2.62,2.62,0,0,1-.82-.14l-1.33-.44a2.73,2.73,0,0,0,.6-1.7,2.66,2.66,0,0,0-1.2-2.23l-2.44-1.4.09-1.72,1.18.07h2.9Z"/><path class="cls-1" d="M457.33,338.8l-.36.78a11.25,11.25,0,0,1-5.54,2.28,29.87,29.87,0,0,0-8.39,1.41c-4.7,1.41-6.94,7.58-6.94,7.58-2-.11-4.39-.28-7.19-.52a89.71,89.71,0,0,1-10.62-1.56h0c-2.23-.45-4.37-1-6.42-1.54h0c4.55-8.37,0-14.31,0-14.31a96.4,96.4,0,0,0,22.86-.21c4.8-.65,9.89-.88,12.12-1a10.62,10.62,0,0,1,2.25.17l7.77,1.42a10.68,10.68,0,0,1,2.48.78l2.16,1a2.1,2.1,0,0,1,1.21,1.89,2.13,2.13,0,0,1-.26,1,2.07,2.07,0,0,1-2,1.06Z"/><path class="cls-2" d="M421,252.68a28.24,28.24,0,0,1,6.05-.63c17,0,21.81,10.92,27.78,24.71l-.61,1.25c-.23-.06-7.42-2-13.56,1.51-8,4.54-12,.22-13-1l-.07.06c-.68-.86-1.85-1.32-3.84-.27a3.51,3.51,0,0,0-.94.72,9,9,0,0,0-1.05,1.37,26.6,26.6,0,0,1-9.1,5.25s-6.93,2.73-8.65-2.25a14.75,14.75,0,0,1-.49-1.76,28.6,28.6,0,0,1,0-10.39S406.05,256,421,252.68Z"/><path class="cls-1" d="M427.57,278.59l.07-.06c1,1.21,5,5.53,13,1C446.76,276,454,278,454.18,278l-.81,1.66s-2.06,8.57-5.45,12.7c-2.64,3.25-4.11,3-4.2,6.23l-1.26,5.76-4.57-2.21L431,309.3c-.22.91-3.26,7.21-10.55-.81,0,0-.28-.16-.72-.45-1.85-1.22-4.58-2.73-13-1.82,0,0-11.87,1.27-17.77,4.51.78-3.15.48-5.72.27-10.33-.41-8.65-4.68-13.31-4.68-13.31-11.84-12.76-38.44.93-38.44.93s-4.21-11.07-.87-17.69a90.81,90.81,0,0,1,27.3,5.4c11.42,4.24,24.5,11.72,31,5.92a14.75,14.75,0,0,0,.49,1.76c1.72,5,8.65,2.25,8.65,2.25a26.6,26.6,0,0,0,9.1-5.25,9,9,0,0,1,1.05-1.37,3.51,3.51,0,0,1,.94-.72C425.72,277.27,426.89,277.73,427.57,278.59ZM442,293.41c1-1.05,1.35-2.24.89-2.65s-1.59.11-2.54,1.16-1.35,2.24-.89,2.65S441,294.46,442,293.41Z"/><path d="M442.85,290.76c.46.41.06,1.6-.89,2.65s-2.09,1.57-2.54,1.16-.06-1.6.89-2.65S442.39,290.35,442.85,290.76Z"/><path class="cls-2" d="M434.58,241c2.19,2.81,1.38,11-7.57,11.09a28.24,28.24,0,0,0-6.05.63,8.25,8.25,0,0,1-2.16-11.06C422.46,235,431.5,237,434.58,241Z"/><path class="cls-3" d="M296.7,308.72c2.3.17,4.69.45,7.15.88,18.5,3.24,32.65,7.79,42.24,10.57l3,.84c9.52,2.6,9.17,6.51,22.22,11.73s9.55,2.94,16.83,5.7c4.91,1.87,13.12,5.87,23.75,8.79,2.05.56,4.19,1.09,6.42,1.54-.37.18-8.69,4.43-4.09,17.41-13.36-.65-33.77,3.33-44.2-3.19-7.43-4.65-14.27-9.28-20.22-11.42a17.62,17.62,0,0,0-6.72-1.24c-2.64.12-8.63.75-15.76,1.53-12.48,1.36-28.47,3.15-36.15,3.36-12.05.32-39.09,0-45-19.23s5.22-32.57,22.16-43.33c2.53-1.61,4.79-3,6.85-4.31h0S289.22,295.14,296.7,308.72Z"/><path class="cls-3" d="M411.86,332.91s4.55,5.94,0,14.31h0c-10.63-2.92-18.84-6.92-23.75-8.79-7.28-2.76-3.79-.49-16.83-5.7A27.54,27.54,0,0,0,381.53,325c2.64.16,19.13,6.55,28.76,7.71Z"/><path class="cls-1" d="M388.94,310.73c-.73,2.93-2.4,6.36-5.92,12.4,0,0-.53.77-1.49,1.9a27.54,27.54,0,0,1-10.25,7.71c-13-5.22-12.7-9.13-22.22-11.73l-3-.84c1.21-.38,3-2.35,4.8-4.62a49.32,49.32,0,0,1-4.8-27.53s26.6-13.69,38.44-.93c0,0,4.27,4.66,4.68,13.31C389.42,305,389.72,307.58,388.94,310.73Z"/><path class="cls-1" d="M353.53,425.68a1.73,1.73,0,0,1-.2,3.45h-.14l-1.88-.14a1.75,1.75,0,0,0,.3-1,1.78,1.78,0,0,0-1.41-1.74c-1.73-.36-4.73-1.05-7.12-1.82Z"/><path class="cls-1" d="M337.92,428.49v0a1.63,1.63,0,0,1-1.71,1.64,33.68,33.68,0,0,1-8.6-1.91h0a117.28,117.28,0,0,1-11.86.49c-5.62-.2-7.21-.25-5.84-17,1.48-18.07,3.09-26.39,4.88-32.91s2.61-9.45,3.1-13.68,9.45-12.87,9.45-12.87l0-.48c7.13-.78,13.12-1.41,15.76-1.53a17.62,17.62,0,0,1,6.72,1.24l-.19.53s-3.43,3.86-6.52,7.77-5.38,7.42-6.19,12.34c-.79,4.71-5.87,17-8.15,21.73s-3.66,10.85-4.48,14-2,7-2.12,9.52,6.68,3.67,6.68,3.67l5.8.84,8.15,2.33.3.1h0c2.39.77,5.39,1.46,7.12,1.82a1.78,1.78,0,0,1,1.41,1.74,1.75,1.75,0,0,1-.3,1,1.78,1.78,0,0,1-1.51.8,57.81,57.81,0,0,1-9.24-1.15,7.64,7.64,0,0,0-1.44-.14Z"/><path class="cls-4" d="M350.89,315.55c-1.77,2.27-3.59,4.24-4.8,4.62-9.59-2.78-23.74-7.33-42.24-10.57-2.46-.43-4.85-.71-7.15-.88-7.48-13.58-21.5-20.36-21.5-20.36h0c11.72-7.23,16.87-9.56,27.68-12.62,8.54-2.41,24.36-6.28,42.35-5.4-3.34,6.62.87,17.69.87,17.69A49.32,49.32,0,0,0,350.89,315.55Z"/><path class="cls-5" d="M421,252.69h0a8.25,8.25,0,0,1-2.16-11.06c3.66-6.62,12.7-4.58,15.78-.66,2.19,2.81,1.38,11-7.57,11.09"/><path class="cls-5" d="M418.85,293.93s-3.11,4.36-.33,8.24"/><path class="cls-5" d="M428.55,281.5a5.77,5.77,0,0,0-1-2.91c-.68-.86-1.85-1.32-3.84-.27a3.51,3.51,0,0,0-.94.72,9,9,0,0,0-1.05,1.37,7.62,7.62,0,0,0-.59,6.91s1.56,2.77,3.21-.75"/><path class="cls-5" d="M454.19,278h0c-.23-.06-7.42-2-13.56,1.51-8,4.54-12,.22-13-1a1.64,1.64,0,0,0-.26-.3"/><path class="cls-5" d="M421.74,280.41a26.6,26.6,0,0,1-9.1,5.25s-6.93,2.73-8.65-2.25a14.75,14.75,0,0,1-.49-1.76,28.6,28.6,0,0,1,0-10.39S406.05,256,421,252.68a28.24,28.24,0,0,1,6.05-.63c17,0,21.81,10.92,27.78,24.71l-.61,1.25-.81,1.66s-2.06,8.57-5.45,12.7c-2.64,3.25-4.11,3-4.2,6.23l-1.26,5.76-4.57-2.21L431,309.3c-.22.91-3.26,7.21-10.55-.81,0,0-.28-.16-.72-.45-1.85-1.22-4.58-2.73-13-1.82,0,0-11.87,1.27-17.77,4.51h0"/><path class="cls-5" d="M327.34,352.34s-9,8.63-9.45,12.87-1.3,7.16-3.1,13.68-3.4,14.84-4.88,32.91c-1.37,16.71.22,16.76,5.84,17a117.28,117.28,0,0,0,11.86-.49"/><path class="cls-5" d="M325.06,427.27s1,.44,2.55,1a33.68,33.68,0,0,0,8.6,1.91,1.63,1.63,0,0,0,1.71-1.64v0a1.65,1.65,0,0,0-1.21-1.55L329.45,425"/><path class="cls-5" d="M343.05,424.43l-.3-.1L334.6,422l-5.8-.84s-6.76-1.14-6.68-3.67,1.31-6.35,2.12-9.52,2.2-9.31,4.48-14,7.36-17,8.15-21.73c.81-4.92,3.09-8.43,6.19-12.34s6.52-7.77,6.52-7.77"/><path class="cls-5" d="M337.92,428.49h1.2a7.64,7.64,0,0,1,1.44.14,57.81,57.81,0,0,0,9.24,1.15,1.78,1.78,0,0,0,1.51-.8,1.75,1.75,0,0,0,.3-1,1.78,1.78,0,0,0-1.41-1.74c-1.73-.36-4.73-1.05-7.12-1.82"/><path class="cls-5" d="M343.05,424.43h0l10.45,1.25a1.73,1.73,0,0,1-.2,3.45h-.14l-1.88-.14"/><path class="cls-5" d="M350.89,315.55a49.32,49.32,0,0,1-4.8-27.53s-4.21-11.07-.87-17.69h0"/><path class="cls-5" d="M346.09,288s26.6-13.69,38.44-.93c0,0,4.27,4.66,4.68,13.31.21,4.61.51,7.18-.27,10.33-.73,2.93-2.4,6.36-5.92,12.4,0,0-.53.77-1.49,1.9a27.54,27.54,0,0,1-10.25,7.71"/><path class="cls-5" d="M418.29,348.77a89.71,89.71,0,0,0,10.62,1.56c2.8.24,5.17.41,7.19.52,11.61.66,11.64-.52,16.63-.52,4.72,0,13,.47,16.09.65l1.18.07h2.9a8.79,8.79,0,0,1,3.21.6l1.59.61,4.1,1.58a2.93,2.93,0,0,1,1.88,2.74,2.94,2.94,0,0,1-2.13,2.83l-2,.58a3.16,3.16,0,0,1-.81.11h-.62a11.23,11.23,0,0,0-4.28.85l-.8.33a13.44,13.44,0,0,1-5.17,1c-4.77,0-15,.83-17.71,8.25-3.59,9.77-10.9,15.29-16.94,10.1-6.68-5.74-5.64-13.8-19-14.45S380.42,369.51,370,363c-7.43-4.65-14.27-9.28-20.22-11.42a17.62,17.62,0,0,0-6.72-1.24c-2.64.12-8.63.75-15.76,1.53-12.48,1.36-28.47,3.15-36.15,3.36-12.05.32-39.09,0-45-19.23s5.22-32.57,22.16-43.33c2.53-1.61,4.79-3,6.85-4.31,11.72-7.23,16.87-9.56,27.68-12.62,8.54-2.41,24.36-6.28,42.35-5.4a90.81,90.81,0,0,1,27.3,5.4c11.42,4.24,24.5,11.72,31,5.92"/><path class="cls-5" d="M267.69,312.51s12.11-5,29-3.79c2.3.17,4.69.45,7.15.88,18.5,3.24,32.65,7.79,42.24,10.57l3,.84c9.52,2.6,9.17,6.51,22.22,11.73s9.55,2.94,16.83,5.7c4.91,1.87,13.12,5.87,23.75,8.79,2.05.56,4.19,1.09,6.42,1.54"/><path class="cls-5" d="M275.2,288.36s14,6.78,21.5,20.36"/><path class="cls-5" d="M356.46,307.49s-2.73,4.42-5.57,8.06c-1.77,2.27-3.59,4.24-4.8,4.62"/><path class="cls-5" d="M462.4,358.47l.62.6a3.18,3.18,0,0,0,3.3.66,1.93,1.93,0,0,0,1.26-1.81,1.89,1.89,0,0,0-.06-.47,2.05,2.05,0,0,0-.47-.87l-.85-.89a2.64,2.64,0,0,0-1.86-.82l-1.94,0"/><path class="cls-5" d="M468.73,352.7l2.44,1.4a2.66,2.66,0,0,1,1.2,2.23,2.73,2.73,0,0,1-.6,1.7l-.11.12a2.7,2.7,0,0,1-1.76.84l-2.32.16"/><path class="cls-5" d="M472.9,351.05l3,3.54a2.36,2.36,0,0,1,.55,1.49,2.72,2.72,0,0,1-.32,1.2,2.58,2.58,0,0,1-2.25,1.33,2.62,2.62,0,0,1-.82-.14l-1.33-.44h0"/><path class="cls-5" d="M477.7,352.26l2.43,4a2.48,2.48,0,0,1,.05,2.51s0,0,0,0a2.08,2.08,0,0,1-1.84,1,2.35,2.35,0,0,1-1.15-.3l-.33-.18"/><path class="cls-5" d="M436.1,350.85s2.24-6.17,6.94-7.58a29.87,29.87,0,0,1,8.39-1.41,11.25,11.25,0,0,0,5.54-2.28l.36-.78.4-.85"/><path class="cls-5" d="M457.33,338.8l3.15.24a2.07,2.07,0,0,0,2-1.06,2.13,2.13,0,0,0,.26-1,2.1,2.1,0,0,0-1.21-1.89l-2.16-1a10.68,10.68,0,0,0-2.48-.78l-7.77-1.42a10.62,10.62,0,0,0-2.25-.17c-2.23.08-7.32.31-12.12,1a96.4,96.4,0,0,1-22.86.21l-1.57-.17c-9.63-1.16-26.12-7.55-28.76-7.71"/><path class="cls-5" d="M418.29,348.77h0c-.37.18-8.69,4.43-4.09,17.41"/><path class="cls-5" d="M411.86,332.91s4.55,5.94,0,14.31"/></svg>