<svg id="Layer_1" data-name="Layer 1" xmlns="http://www.w3.org/2000/svg" viewBox="0 0 700 700"><defs><style>.cls-1{fill:#feae63;}.cls-2{fill:#99abcc;}.cls-3{fill:#c4e7f9;}.cls-4{fill:#392328;}.cls-5{fill:#231f20;}.cls-6{fill:none;stroke:#000;stroke-linecap:round;stroke-linejoin:round;stroke-width:2.3px;}</style></defs><title>Yoga_poses_2020_color</title><path class="cls-1" d="M559.7,369.46a1.82,1.82,0,0,1,.06.46,1.69,1.69,0,0,1-.66,1.34l-2.33,1.95s0,0,0,0a9.12,9.12,0,0,0-1.93.78l-1.34-2.27s.26-.28.69-.69a23.92,23.92,0,0,1,3-2.5,1.68,1.68,0,0,1,1.86,0A1.63,1.63,0,0,1,559.7,369.46Z"/><path class="cls-1" d="M554.83,374a9.12,9.12,0,0,1,1.93-.78s0,0,0,0a9.58,9.58,0,0,1,2.51-.34s1.86,2.83-1.73,5c0,0,.69,4-6.48,6.92s-12.92,3.58-17.7,9.88a10,10,0,0,1-13,2.93c-1.63-1-3.8-4.45-11.3-4.34-2.34,0-5.61.31-9.18.7l-.05-.48c5.21-8.8.62-19,.62-19s12.45-.57,20.9-2.26a96.06,96.06,0,0,1,19-.19s5.64,0,7.7-3.56a19.11,19.11,0,0,0,1-2l1.78.59a5,5,0,0,0-.26.58l2,1.54,1.68,1.85c-.43.41-.69.69-.69.69Z"/><path class="cls-1" d="M558.62,366.59l.39,1.93a1.68,1.68,0,0,0-1.86,0,23.92,23.92,0,0,0-3,2.5l-1.68-1.85a20.24,20.24,0,0,1,3.52-3.46,1.68,1.68,0,0,1,1.83-.11h0A1.56,1.56,0,0,1,558.62,366.59Z"/><path class="cls-1" d="M557.22,363.71l.63,1.91a1.68,1.68,0,0,0-1.83.11,20.24,20.24,0,0,0-3.52,3.46l-2-1.54a5,5,0,0,1,.26-.58,8.87,8.87,0,0,1,3.24-3.58,6.64,6.64,0,0,1,1.26-.59A1.65,1.65,0,0,1,557.22,363.71Z"/><path class="cls-1" d="M553.62,362.9l.38.59a8.87,8.87,0,0,0-3.24,3.58l-1.78-.59a18.69,18.69,0,0,0,1.45-5l.87.05A3,3,0,0,1,553.62,362.9Z"/><path class="cls-2" d="M500.43,374.46s4.59,10.2-.62,19l.05.48c-7.84.87-17.15,2.35-21.33,3.32-6.09,1.41-38.57,1.63-50-3s-21.5-2.61-31.5-.87-33.76,4-41.9,3.8H354a1.73,1.73,0,0,0-1.22-1.07l-3.35-.78L330.94,391s-23.78-5.35-25.95-5.68c-1.27-.19-6-.38-9.68-.5a48.86,48.86,0,0,1-9.78-1.32c-2.19-.52-4.88-1.18-7.58-1.88a32.06,32.06,0,0,0-3.66-8.36l.16-.09s16.63-10.88,25.61-19.66c4.41-4.32,11.2-12.68,11.2-12.68,2.87,3.32,6,7.06,8.11,9.52a6,6,0,0,0,5.68,2c10.08-1.79,40.81-6,68.43,3.11,33.61,11.08,26.85,9.58,33.61,11.08s9.39,3.94,16.53,4.13S494.85,374.83,500.43,374.46Z"/><path class="cls-1" d="M354.12,397.72a1.74,1.74,0,0,1-1.65,1.8l-2.29.13-.31-.11a1.4,1.4,0,0,0,.25-.9,1.45,1.45,0,0,0-1.16-1.33l.47-2,3.35.78a1.77,1.77,0,0,1,1.34,1.63Z"/><path class="cls-1" d="M350.12,398.64a1.4,1.4,0,0,1-.25.9,1.43,1.43,0,0,1-1.31.64l-11.37-.86-.25.17a1.43,1.43,0,0,0-.64-.52l-7.18-2.87,1.06-2.64L349,397.31A1.45,1.45,0,0,1,350.12,398.64Z"/><path class="cls-1" d="M195.13,353.69l-.23.08a15.41,15.41,0,0,1-4.4-16.09c3.92-10.15,11.72-17.19,19.79-17.72a14.48,14.48,0,0,1,5.32.63c9.65,3,12.76,26.11,12.84,26.71h0c1.34,1.44,2.67,2.82,3.89,4,.46.45,1,1,1.62,1.68,5.38,5.77,15.77,18.44,19.32,22.78a3.93,3.93,0,0,0,3,1.47,46.21,46.21,0,0,1,13.27,2c2.37.77,5.37,1.6,8.36,2.38,2.7.7,5.39,1.36,7.58,1.88a48.86,48.86,0,0,0,9.78,1.32c3.7.12,8.41.31,9.68.5,2.17.33,25.95,5.68,25.95,5.68l18.49,4.32-.47,2-18.78-3.85-1.06,2.64L336.3,399a1.43,1.43,0,0,1,.64.52,1.37,1.37,0,0,1,.25.79,1.42,1.42,0,0,1-1.76,1.37l-8.59-2.15a6.74,6.74,0,0,0-1.48-.19l-11.19-.13a8.66,8.66,0,0,1-4.18-1.12l-.34-.19a8.66,8.66,0,0,0-4.15-1.12c-5.26-.08-15.47.57-23.7.29-7.19-.24-23.21-.92-31.17-1.26a17.94,17.94,0,0,1-7.85-2.23c-4.86-2.66-12.52-5.81-20.27-12.15-9.78-8-16.78-13.68-23.46-21a19.54,19.54,0,0,1-3.62-5.9C195.33,354.23,195.22,354,195.13,353.69Z"/><path class="cls-3" d="M311.26,340.82s-6.79,8.36-11.2,12.68c-9,8.78-25.61,19.66-25.61,19.66l-.16.09c-3.92-6.72-10.3-14.42-16.53-17.14-9.23-4-23.8-3.11-23.8-3.11-.61-.66-1.16-1.23-1.62-1.68-1.22-1.19-2.55-2.57-3.89-4h0c-.08-.6-3.19-23.71-12.84-26.71a14.48,14.48,0,0,0-5.32-.63v0c3.59-5.44-1.1-12.95-1.1-12.95,6.11-5.17,14-9.82,21.89-9.13C244,299,242.53,300.29,254,302s12.9,3.38,27.92,12.76,20.22,16,24.72,20.84C307.84,336.9,309.49,338.78,311.26,340.82Z"/><path class="cls-1" d="M167.67,363.92h0c-1.16,1.33-2.21,1.5-3.08,1.18l0,.1c-.16.06-6.27-1-11.84,5.13a4.55,4.55,0,0,1-2.47,1.39A25.79,25.79,0,0,0,140,376l.08-1.83s-1.48-8.68,0-13.82c1.14-4,2.6-4.36,1.4-7.37l-1.12-5.8,5.07.23,3.5-9.29c-.14-.79.07-6.09,6.43-4.67a23.67,23.67,0,0,0,14.91-1.27,92.31,92.31,0,0,1,16.67-6.7,33.9,33.9,0,0,0,13.14-9.2,74.7,74.7,0,0,1,9.1-9.27s4.69,7.51,1.1,12.95v0c-8.07.53-15.87,7.57-19.79,17.72a15.41,15.41,0,0,0,4.4,16.09l.23-.08c.09.27.2.54.3.8l-.29.12c-5.21-.7-7.7,1.5-7.7,1.5a23,23,0,0,0-1.91-3.67,3.59,3.59,0,0,0-5.67-.39,18.4,18.4,0,0,0-2.64,3.83c-1.33,2.6-2.44,4.85-5.2,6.53a7.31,7.31,0,0,1-1.86.8Zm-20.41-6.19c.46-1.34.35-2.59-.23-2.79s-1.42.73-1.88,2.08-.35,2.59.23,2.78S146.8,359.07,147.26,357.73Z"/><path class="cls-4" d="M198.82,382c3.9,6.48-1.47,9.47-7.24,9.42-3.56,0-11.73-.14-7.11-7.81a20.24,20.24,0,0,0,3.43-6.28S194.93,375.54,198.82,382Z"/><path class="cls-4" d="M189.23,362.19a35.53,35.53,0,0,1-1.33,15.16,20.24,20.24,0,0,1-3.43,6.28,17.13,17.13,0,0,1-7.85,5.39c-16.09,5.53-25.75-1.33-36.68-11.64L140,376h0a25.79,25.79,0,0,1,10.22-4.25,4.55,4.55,0,0,0,2.47-1.39c5.57-6.11,11.68-5.07,11.84-5.13l0-.1c.87.32,1.92.15,3.08-1.18h0l2.49-.71a7.31,7.31,0,0,0,1.86-.8c2.76-1.68,3.87-3.93,5.2-6.53a18.4,18.4,0,0,1,2.64-3.83,3.59,3.59,0,0,1,5.67.39,23,23,0,0,1,1.91,3.67A29.52,29.52,0,0,1,189.23,362.19Z"/><path class="cls-5" d="M147,354.94c.58.2.69,1.45.23,2.79s-1.3,2.27-1.88,2.07-.68-1.44-.23-2.78S146.45,354.75,147,354.94Z"/><path class="cls-6" d="M166.25,345.83s.25-5.36-4.2-7.1"/><path class="cls-6" d="M167.67,363.92c.15-.18.32-.38.48-.61,0,0,2.3-4.95-1.47-8.92,0,0-2.53-1.93-2.65,2"/><path class="cls-6" d="M162.18,362.66a5.33,5.33,0,0,0,2.4,2.44c.87.32,1.92.15,3.08-1.18"/><path class="cls-6" d="M140,376a25.79,25.79,0,0,1,10.22-4.25,4.55,4.55,0,0,0,2.47-1.39c5.57-6.11,11.68-5.07,11.84-5.13"/><path class="cls-6" d="M187.9,377.35s7-1.81,10.92,4.67-1.47,9.47-7.24,9.42c-3.56,0-11.73-.14-7.11-7.81"/><path class="cls-6" d="M167.66,363.92h0l2.49-.71a7.31,7.31,0,0,0,1.86-.8c2.76-1.68,3.87-3.93,5.2-6.53a18.4,18.4,0,0,1,2.64-3.83,3.59,3.59,0,0,1,5.67.39,23,23,0,0,1,1.91,3.67,29.52,29.52,0,0,1,1.79,6.08,35.53,35.53,0,0,1-1.33,15.16,20.24,20.24,0,0,1-3.43,6.28,17.13,17.13,0,0,1-7.85,5.39c-16.09,5.53-25.75-1.33-36.68-11.64L140,376h0l.08-1.83s-1.48-8.68,0-13.82c1.14-4,2.6-4.36,1.4-7.37l-1.12-5.8,5.07.23,3.5-9.29c-.14-.79.07-6.09,6.43-4.67a23.67,23.67,0,0,0,14.91-1.27,92.31,92.31,0,0,1,16.67-6.7,33.9,33.9,0,0,0,13.14-9.2,74.7,74.7,0,0,1,9.1-9.27c6.11-5.17,14-9.82,21.89-9.13C244,299,242.53,300.29,254,302s12.9,3.38,27.92,12.76,20.22,16,24.72,20.84c1.22,1.32,2.87,3.2,4.64,5.24,2.87,3.32,6,7.06,8.11,9.52a6,6,0,0,0,5.68,2c10.08-1.79,40.81-6,68.43,3.11,33.61,11.08,26.85,9.58,33.61,11.08s9.39,3.94,16.53,4.13,51.23,4.13,56.81,3.76c0,0,12.45-.57,20.9-2.26a96.06,96.06,0,0,1,19-.19s5.64,0,7.7-3.56a19.11,19.11,0,0,0,1-2,18.69,18.69,0,0,0,1.45-5l.87.05a3,3,0,0,1,2.32,1.35"/><path class="cls-6" d="M550.5,367.65a5,5,0,0,1,.26-.58,8.87,8.87,0,0,1,3.24-3.58,6.64,6.64,0,0,1,1.26-.59,1.65,1.65,0,0,1,2,.81l.63,1.91"/><path class="cls-6" d="M552.5,369.19a20.24,20.24,0,0,1,3.52-3.46,1.68,1.68,0,0,1,1.83-.11h0a1.56,1.56,0,0,1,.77,1l.39,1.93"/><path class="cls-6" d="M553.49,371.73s.26-.28.69-.69a23.92,23.92,0,0,1,3-2.5,1.68,1.68,0,0,1,1.86,0,1.63,1.63,0,0,1,.69.94,1.82,1.82,0,0,1,.06.46,1.69,1.69,0,0,1-.66,1.34l-2.33,1.95"/><path class="cls-6" d="M554.49,374.21l.34-.21a9.12,9.12,0,0,1,1.93-.78s0,0,0,0a9.58,9.58,0,0,1,2.51-.34s1.86,2.83-1.73,5c0,0,.69,4-6.48,6.92s-12.92,3.58-17.7,9.88a10,10,0,0,1-13,2.93c-1.63-1-3.8-4.45-11.3-4.34-2.34,0-5.61.31-9.18.7-7.84.87-17.15,2.35-21.33,3.32-6.09,1.41-38.57,1.63-50-3s-21.5-2.61-31.5-.87-33.76,4-41.9,3.8"/><path class="cls-6" d="M187.44,356.11s2.49-2.2,7.7-1.5"/><path class="cls-6" d="M180.64,341s0,6.45,2.62,9.9"/><path class="cls-6" d="M193.35,341a33.58,33.58,0,0,0,1.78,12.68c.09.27.2.54.3.8a19.54,19.54,0,0,0,3.62,5.9c6.68,7.33,13.68,13,23.46,21,7.75,6.34,15.41,9.49,20.27,12.15a17.94,17.94,0,0,0,7.85,2.23c8,.34,24,1,31.17,1.26,8.23.28,18.44-.37,23.7-.29a8.66,8.66,0,0,1,4.15,1.12l.34.19a8.66,8.66,0,0,0,4.18,1.12l11.19.13a6.74,6.74,0,0,1,1.48.19l8.59,2.15a1.42,1.42,0,0,0,1.76-1.37,1.37,1.37,0,0,0-.25-.79,1.43,1.43,0,0,0-.64-.52l-7.18-2.87-1.71-.69"/><path class="cls-6" d="M337.19,399.32l11.37.86a1.43,1.43,0,0,0,1.31-.64,1.4,1.4,0,0,0,.25-.9,1.45,1.45,0,0,0-1.16-1.33l-18.78-3.85"/><path class="cls-6" d="M228.45,347.3c-4.65-5-9.36-10.53-9.36-10.53"/><path class="cls-6" d="M350.18,399.65l2.29-.13a1.74,1.74,0,0,0,.31-3.43l-3.35-.78L330.94,391s-23.78-5.35-25.95-5.68c-1.27-.19-6-.38-9.68-.5a48.86,48.86,0,0,1-9.78-1.32c-2.19-.52-4.88-1.18-7.58-1.88-3-.78-6-1.61-8.36-2.38a46.21,46.21,0,0,0-13.27-2,3.93,3.93,0,0,1-3-1.47c-3.55-4.34-13.94-17-19.32-22.78-.61-.66-1.16-1.23-1.62-1.68-1.22-1.19-2.55-2.57-3.89-4"/><path class="cls-6" d="M234,353s14.57-.91,23.8,3.11c6.23,2.72,12.61,10.42,16.53,17.14a32.06,32.06,0,0,1,3.66,8.36"/><path class="cls-6" d="M311.26,340.82s-6.79,8.36-11.2,12.68c-9,8.78-25.61,19.66-25.61,19.66"/><path class="cls-6" d="M500.43,374.46s4.59,10.2-.62,19"/><path class="cls-6" d="M228.45,347.31h0c-.08-.6-3.19-23.71-12.84-26.71a14.48,14.48,0,0,0-5.32-.63c-8.07.53-15.87,7.57-19.79,17.72a15.41,15.41,0,0,0,4.4,16.09"/><path class="cls-6" d="M209.19,307s4.69,7.51,1.1,12.95"/></svg>