<svg id="Layer_1" data-name="Layer 1" xmlns="http://www.w3.org/2000/svg" viewBox="0 0 700 700"><defs><style>.cls-1{fill:#feae63;}.cls-2{fill:#99abcc;}.cls-3{fill:#c4e7f9;}.cls-4{fill:#120c0c;}.cls-5{fill:none;stroke:#000;stroke-linecap:round;stroke-linejoin:round;stroke-width:2.3px;}</style></defs><title>Yoga_poses_2020_color</title><path class="cls-1" d="M548.78,277.74a1.38,1.38,0,0,1-1.12,2.52l.83.34a1.46,1.46,0,0,1,.93,1.36v0a1.51,1.51,0,0,1-1.5,1.47c-.27,0-.46.12-.46.43,0,1-1.79,3.26-1.79,3.26-3.58,4.56-5.7,8-7,20.2s-8.8,8.47-13.85,11.24c-1.15.62-2.76,2.45-4.62,5-8.65-9.21-13.13-9.44-13.43-9.45,6.33-9.35,13.31-25.07,17.07-28.14a70.6,70.6,0,0,0,7.33-7.14,12.8,12.8,0,0,1,2.54-2.16c1.52-1,3.53-2.49,4.64-3.34a12.43,12.43,0,0,1,1.8-1.14l.8-.41a6.69,6.69,0,0,0,1.76-1.33l1.18-1.25a1.63,1.63,0,0,1,1.2-.53,1.59,1.59,0,0,1,.43.06,1.65,1.65,0,0,1,1.19,1.31l.09.52a4.44,4.44,0,0,1-.87,3.5h1.29a1.72,1.72,0,0,1,.93.28l.56.35a1.38,1.38,0,0,1,.55,1.61Z"/><path class="cls-2" d="M520.2,323.61c-6.37,8.73-15.71,25.94-19.49,32.62-4.88,8.63-25.08,23.29-34.21,27.2s-10.42,6.84-17.59,18.41-13.36,12.86-30,36.16S400,459.5,378.7,459.18c-19.26-.3-19.94-7.75-27.42-15.74.19-.52,6.63-17.13,10.16-24.5A95.25,95.25,0,0,1,370,404.81c4.23,2.66,8.22,5.2,10.76,6.82a3.2,3.2,0,0,0,4.34-.88c7.67-10.76,33.58-28.93,36.27-30.5,2.93-1.71,17.11-9.61,20.69-12.13s9-6.68,12.62-7.58,11.49-4.56,15.72-8.47,25.74-26,32.83-33.39a35.5,35.5,0,0,0,3.52-4.52h0C507.07,314.17,511.55,314.4,520.2,323.61Z"/><path class="cls-1" d="M384.57,298.76c2.75-1.81,5-3.44,6.82-4.88C388.05,296.18,384.94,298.48,384.57,298.76ZM296,394c.23.37,5.73,9.67,3.17,18.85-2.61,9.38-9.94,9.7-19.55,10.68-9.24-.33-15.09-2.71-18-4.25a3.37,3.37,0,0,0-2.1-1.33h0c-6.73-10-1.31-17.7-1.31-17.7h.2a15.21,15.21,0,0,1,1.36-6.84,26.44,26.44,0,0,1,7.78-9.61c13.58-11.15,14.37-9.27,28.67-22.47s10.74-12.87,16.8-17.74c10.67-8.58,3.63-4.19,41.3-27.41,0,0,8.65-5.23,10.19-11.72s2.27-8.69,8.22-12.06,8.18-2.56,8.65-1.8l.47,1.35,6.34-4c4.28-2.67,5.88-1.23,3.43,1-2,1.82-6.54,5.14-8.17,6.32,2.34-1.62,10.88-7.52,13-7.93,1.84-.35.5,2.12-5.07,6.52,4.11-2.81,8.58-5.63,8.78-4.68.23,1.11-3,4.46-6.91,7.74-3.24,2.18-6.91,5-7.27,5.3a66.69,66.69,0,0,0,7.27-5.3c2.54-1.71,4.81-3,5-2.34.42,1.56-7.23,9.06-11.86,12.5s-10.34,7.78-14,10.08-31.77,28.07-43.51,36.1a11.54,11.54,0,0,0-1.4,1.13,33.34,33.34,0,0,0-2.78,3c-.94,1.26-2.83,1.73-4.72,3.3-1,.87-4.61,6.58-8.3,12.43-3.06,4.83-6.2,9.75-8,12.09C301.43,388,298.61,390.82,296,394Z"/><path class="cls-3" d="M370,404.81a95.25,95.25,0,0,0-8.57,14.13c-3.53,7.37-10,24-10.16,24.5-.82-.87-1.71-1.73-2.71-2.6-10.26-8.88-34.37-12.61-43.5-14s-11.56-2.84-25.41-3.33c9.61-1,16.94-1.3,19.55-10.68,2.56-9.18-2.94-18.48-3.17-18.85,2.57-3.15,5.39-6,7.63-8.8,1.84-2.34,5-7.26,8-12.09a6.52,6.52,0,0,1,3.89,4.53,3.29,3.29,0,0,0,3,2.47c3.85.23,10.39.7,14.36,1.88,5.21,1.55,19.38,12.14,19.38,12.14C354.75,395.3,362.73,400.23,370,404.81Z"/><path class="cls-4" d="M275.44,444.35c4.79,5.85,2.62,12.68-2.35,13-8.13.6-13.86-1.32-10.39-9.58a23.78,23.78,0,0,0,2.29-6.13l.27.06S270.65,438.5,275.44,444.35Z"/><path class="cls-4" d="M265.56,429.18a36.42,36.42,0,0,1-.57,12.5,23.78,23.78,0,0,1-2.29,6.13A17.22,17.22,0,0,1,253,456c-16.09,5.53-25.75-1.33-36.68-11.65l.07-1.4a25.88,25.88,0,0,1,10.22-4.25,4.51,4.51,0,0,0,2.47-1.39c5.57-6.12,11.69-5.07,11.84-5.13l0-.1c.86.32,1.92.15,3.08-1.18h0l2.49-.71a7.07,7.07,0,0,0,1.87-.81c2.76-1.68,3.87-3.92,5.19-6.52a18.79,18.79,0,0,1,2.64-3.83,3.54,3.54,0,0,1,3.42-1.13,15,15,0,0,0,2.1,1.33.9.9,0,0,1,.15.19A28.14,28.14,0,0,1,265.56,429.18Z"/><path class="cls-1" d="M244,430.92h0c-1.16,1.33-2.22,1.5-3.08,1.18l0,.1c-.15.06-6.27-1-11.84,5.13a4.51,4.51,0,0,1-2.47,1.39A25.88,25.88,0,0,0,216.34,443l.09-1.83s-1.49-8.69,0-13.82c1.14-4,2.61-4.36,1.4-7.38l-1.12-5.79,5.07.23,3.5-9.29c-.13-.79.08-6.09,6.43-4.68a23.73,23.73,0,0,0,14.91-1.26c2.12-.95,7.42-4.26,13.23-5.79a15.21,15.21,0,0,0-1.36,6.84h-.2s-5.42,7.66,1.31,17.7h0a3.54,3.54,0,0,0-3.42,1.13,18.79,18.79,0,0,0-2.64,3.83c-1.32,2.6-2.43,4.84-5.19,6.52a7.07,7.07,0,0,1-1.87.81Zm-20.41-6.19c.46-1.34.36-2.59-.23-2.79s-1.42.73-1.87,2.07-.36,2.59.23,2.79S223.14,426.07,223.59,424.73Z"/><path d="M223.36,421.94c.59.2.69,1.45.23,2.79s-1.29,2.27-1.87,2.07-.69-1.45-.23-2.79S222.78,421.74,223.36,421.94Z"/><path class="cls-5" d="M242.58,412.82s.25-5.35-4.19-7.09"/><path class="cls-5" d="M244,430.92c.16-.18.32-.38.49-.61,0,0,2.29-4.95-1.48-8.92,0,0-2.52-1.93-2.65,2"/><path class="cls-5" d="M238.51,429.66a5.38,5.38,0,0,0,2.4,2.44c.86.32,1.92.15,3.08-1.18"/><path class="cls-5" d="M216.33,443h0a25.88,25.88,0,0,1,10.22-4.25,4.51,4.51,0,0,0,2.47-1.39c5.57-6.12,11.69-5.07,11.84-5.13"/><path class="cls-5" d="M265.26,441.74s5.39-3.24,10.18,2.61,2.62,12.68-2.35,13c-8.13.6-13.86-1.32-10.39-9.58"/><path class="cls-5" d="M244,430.92h0l2.49-.71a7.07,7.07,0,0,0,1.87-.81c2.76-1.68,3.87-3.92,5.19-6.52a18.79,18.79,0,0,1,2.64-3.83,3.54,3.54,0,0,1,3.42-1.13,3.37,3.37,0,0,1,2.1,1.33.9.9,0,0,1,.15.19,28.14,28.14,0,0,1,3.7,9.74,36.42,36.42,0,0,1-.57,12.5,23.78,23.78,0,0,1-2.29,6.13A17.22,17.22,0,0,1,253,456c-16.09,5.53-25.75-1.33-36.68-11.65l.07-1.4.09-1.83s-1.49-8.69,0-13.82c1.14-4,2.61-4.36,1.4-7.38l-1.12-5.79,5.07.23,3.5-9.29c-.13-.79.08-6.09,6.43-4.68a23.73,23.73,0,0,0,14.91-1.26c2.12-.95,7.42-4.26,13.23-5.79"/><path class="cls-5" d="M547.35,280.14a2.08,2.08,0,0,0-.78-.15h-1.71"/><path class="cls-5" d="M258.28,400.21s-5.42,7.66,1.31,17.7h0a15,15,0,0,0,2.1,1.33c2.86,1.54,8.71,3.92,18,4.25,13.85.49,16.29,1.93,25.41,3.33s33.24,5.13,43.5,14c1,.87,1.89,1.73,2.71,2.6,7.48,8,8.16,15.44,27.42,15.74,21.34.32,23.62,2.11,40.24-21.18s22.8-24.6,30-36.16,8.47-14.5,17.59-18.41,29.33-18.57,34.21-27.2c3.78-6.68,13.12-23.89,19.49-32.62,1.86-2.56,3.47-4.39,4.62-5,5-2.77,12.54,1,13.85-11.24s3.42-15.64,7-20.2c0,0,1.79-2.28,1.79-3.26,0-.31.19-.42.46-.43a1.51,1.51,0,0,0,1.5-1.47v0a1.46,1.46,0,0,0-.93-1.36l-.83-.34"/><path class="cls-5" d="M386,302.21c.36-.28,4-3.12,7.27-5.3,2.54-1.71,4.81-3,5-2.34.42,1.56-7.23,9.06-11.86,12.5s-10.34,7.78-14,10.08-31.77,28.07-43.51,36.1a11.54,11.54,0,0,0-1.4,1.13,33.34,33.34,0,0,0-2.78,3c-.94,1.26-2.83,1.73-4.72,3.3-1,.87-4.61,6.58-8.3,12.43-3.06,4.83-6.2,9.75-8,12.09-2.24,2.85-5.06,5.65-7.63,8.8a34.26,34.26,0,0,0-5.41,8.64"/><path class="cls-5" d="M391.43,293.85c4.11-2.81,8.58-5.63,8.78-4.68.23,1.11-3,4.46-6.91,7.74a66.69,66.69,0,0,1-7.27,5.3l0,0"/><path class="cls-5" d="M384.57,298.76c.37-.28,3.48-2.58,6.82-4.88"/><path class="cls-5" d="M391.39,293.88c-1.81,1.44-4.07,3.07-6.82,4.88l0,0"/><path class="cls-5" d="M391.39,293.88h0l0,0"/><path class="cls-5" d="M382.92,295.69l.05,0a.28.28,0,0,1,.08-.06l.15-.11.32-.23c2.34-1.62,10.88-7.52,13-7.93,1.84-.35.5,2.12-5.07,6.52"/><path class="cls-5" d="M374.16,296.75l7.76-4.85,6.34-4c4.28-2.67,5.88-1.23,3.43,1-2,1.82-6.54,5.14-8.17,6.32"/><path class="cls-5" d="M259.59,404.81a11.22,11.22,0,0,1-1.11-4.61,15.21,15.21,0,0,1,1.36-6.84,26.44,26.44,0,0,1,7.78-9.61c13.58-11.15,14.37-9.27,28.67-22.47s10.74-12.87,16.8-17.74c10.67-8.58,3.63-4.19,41.3-27.41,0,0,8.65-5.23,10.19-11.72s2.27-8.69,8.22-12.06,8.18-2.56,8.65-1.8"/><path class="cls-5" d="M548.78,277.74a1.38,1.38,0,0,1-1.12,2.52l-.31-.12L547,280"/><line class="cls-5" x1="543.45" y1="277.13" x2="547.53" y2="277.13"/><path class="cls-5" d="M540.68,275.23l2.74-1a2.43,2.43,0,0,1,.76-.13h3a1.72,1.72,0,0,1,.93.28l.56.35a1.38,1.38,0,0,1,.55,1.61l-.48,1.39-1.25-.61"/><path class="cls-5" d="M506.76,314.16a35.5,35.5,0,0,1-3.52,4.52c-7.09,7.41-28.59,29.48-32.83,33.39s-12.13,7.58-15.72,8.47-9,5-12.62,7.58-17.76,10.42-20.69,12.13c-2.69,1.57-28.6,19.74-36.27,30.5a3.2,3.2,0,0,1-4.34.88c-2.54-1.62-6.53-4.16-10.76-6.82-7.28-4.58-15.26-9.51-17.7-10.71,0,0-14.17-10.59-19.38-12.14-4-1.18-10.51-1.65-14.36-1.88a3.29,3.29,0,0,1-3-2.47,6.52,6.52,0,0,0-3.89-4.53"/><path class="cls-5" d="M545.93,274.11a4.44,4.44,0,0,0,.87-3.5l-.09-.52a1.65,1.65,0,0,0-1.19-1.31,1.59,1.59,0,0,0-.43-.06,1.63,1.63,0,0,0-1.2.53l-1.18,1.25a6.69,6.69,0,0,1-1.76,1.33l-.8.41a12.43,12.43,0,0,0-1.8,1.14c-1.11.85-3.12,2.35-4.64,3.34a12.8,12.8,0,0,0-2.54,2.16,70.6,70.6,0,0,1-7.33,7.14c-3.76,3.07-10.74,18.79-17.07,28.14"/><path class="cls-5" d="M370,404.81a95.25,95.25,0,0,0-8.57,14.13c-3.53,7.37-10,24-10.16,24.5h0"/><path class="cls-5" d="M506.76,314.16h0c.3,0,4.78.24,13.43,9.45"/><path class="cls-5" d="M296,394h0c.23.37,5.73,9.67,3.17,18.85-2.61,9.38-9.94,9.7-19.55,10.68"/></svg>