<svg id="Layer_1" data-name="Layer 1" xmlns="http://www.w3.org/2000/svg" viewBox="0 0 700 700"><defs><style>.cls-1{fill:#120c0c;}.cls-2{fill:#feae63;}.cls-3{fill:#99abcc;}.cls-4{fill:#c4e7f9;}.cls-5{fill:none;stroke:#000;stroke-linecap:round;stroke-linejoin:round;stroke-width:2.3px;}</style></defs><title>Yoga_poses_2020_color</title><path class="cls-1" d="M448.49,328.21c4.43,2.3,8.2,11,2.26,15.63s-10.5.36-10.5.36l-.67,0c.07-.88.1-1.8.1-2.74a20.32,20.32,0,0,0-1-4.63l.1,0C437.21,328,445.33,326.57,448.49,328.21Z"/><path class="cls-2" d="M443.72,430.36a2.71,2.71,0,0,1,.67,1.79,2.75,2.75,0,0,1-2.74,2.75l-2.49.21-3.59-.14-3.43-.56a3.15,3.15,0,0,0-.44,0h-.94A28,28,0,0,1,420,432.25l-1.8-.74a23.47,23.47,0,0,0-14.82,1.74s-12.33,3-16-.87,3-8.25-2.39-16.72a29.67,29.67,0,0,0-4.21-4.78s8.9-5.44,12.78-11c6.15,6.55,12.3,11.82,15.88,13.54,1.67.79,5.31,2,7.52,3.13a29.2,29.2,0,0,1,3.59,2.09l10.49,7.18.22.13,5.06,2.82a2.81,2.81,0,0,0,.94.31l4.77.36A2.71,2.71,0,0,1,443.72,430.36Z"/><path class="cls-1" d="M439.68,341.42c0,.94,0,1.86-.1,2.74-1,15.3-10.46,21.9-23.28,28.57L415,372.2s-.46-10.41-.41-12.73c.11-4.59-3.09-6-5.08-10.06s-1.1-8,.36-9.87c0,0,5.75-1.81,1.52-5.9a8.62,8.62,0,0,0-1.73-.8l0-.14s.2-6.28-3.6-8.42c-1.68-1.14-2.53-2.31-2.67-3.39h0c-.31-2.39,2.84-4.33,8.2-4.43,8.68-.17,17.26,6.54,17.26,6.54a27.75,27.75,0,0,1,9.85,13.79A20.32,20.32,0,0,1,439.68,341.42Z"/><path class="cls-2" d="M409.65,332.84a8.62,8.62,0,0,1,1.73.8c4.23,4.09-1.52,5.9-1.52,5.9-1.46,1.85-2.36,5.86-.36,9.87s5.19,5.47,5.08,10.06c-.05,2.32.41,12.73.41,12.73l-1.71-.7S404.46,370,400,366.91c-3.5-2.45-3.33-4-6.63-3.82l-5.93-.85,1.94-4.78L381.61,351c-.88-.18-7-2.58-.77-9.84A10.29,10.29,0,0,1,382,340c.84-.69,2.68-2.64,0-4.87-.29-.24-2.93-2.88-3.93-3.69a62.74,62.74,0,0,1,4.19-6h0s13.79-2.89,14.32-18.66c.16,1.94.23,3.48.33,4.49a12,12,0,0,0,6.44,9.65h0c.14,1.08,1,2.25,2.67,3.39,3.8,2.14,3.6,8.42,3.6,8.42Zm-8.38,28.81c.38-.49-.23-1.61-1.36-2.49s-2.37-1.2-2.75-.71.23,1.61,1.36,2.49S400.89,362.14,401.27,361.65Z"/><path d="M399.91,359.16c1.13.88,1.74,2,1.36,2.49s-1.61.17-2.75-.71-1.74-2-1.36-2.49S398.77,358.27,399.91,359.16Z"/><path class="cls-2" d="M264.73,447.67l-1.35.08h-1.83A1.75,1.75,0,0,1,259.8,446v-.47a1.75,1.75,0,0,1,1.44-1.72,22.08,22.08,0,0,0,12.41-7.46c2.6-3.26,8.63-14.83,8.63-14.83l4.72-6.84c5.54-9.94,23.95-41.05,26.72-44.31l2-2.38c2.53-2.94,5.29-6.11,5.29-6.11,3.74-2.79,8.63-9.75,8.63-9.75a138.94,138.94,0,0,1,12.73-16.27c7.26-7.88,12.73-11.59,15.95-15a10.38,10.38,0,0,0,1.34-1.76c3.08-5,1.26-11.09,1.26-11.09a34,34,0,0,1,.22-10.41c1.63-7.42,6.56-23.41,14.52-23.86a6.27,6.27,0,0,1,2.38.32,16.67,16.67,0,0,1,10.15,6.19c.57.9,1.09,1.81,1.58,2.7a59.76,59.76,0,0,1,6.83,23.81c-.53,15.77-14.32,18.66-14.32,18.66h0a62.74,62.74,0,0,0-4.19,6c-.5.82-1,1.7-1.52,2.62-3.75,6.85-16.46,12.38-16.46,12.38a25.93,25.93,0,0,0-6.19,5.42c-2.76,3.17-5.2,6.82-8.14,10a85.12,85.12,0,0,0-6.6,8.27,77.72,77.72,0,0,0-5.46,8.86c-2.6,5.05-15.47,16.29-25.08,26.71a75.92,75.92,0,0,0-11.29,15.17,5.1,5.1,0,0,0-.52,3.34c.54,2.74.08,6.55.08,10.81,0,3.9,4.67,6.1,6.79,6.9a2,2,0,0,1-1,3.77c-7.26-1-7.45-4.64-10.68-7.57-3.58-3.26-9,1.14-9,1.14A37.79,37.79,0,0,1,266.93,449a1.75,1.75,0,0,1-2.2-1.32Z"/><path class="cls-3" d="M393.58,399.88c-3.88,5.56-12.78,11-12.78,11-10.69-10.37-35.2-27.74-38.14-31.06-3.42-3.84-3.45-9.48-3.45-9.67a85.12,85.12,0,0,1,6.6-8.27c2.94-3.21,5.38-6.86,8.14-10a151,151,0,0,0,9.73,11.59c4.86,5.12,13.1,15.67,21.33,26.4C387.68,393.31,390.63,396.74,393.58,399.88Z"/><path class="cls-2" d="M388.23,280.24a16.67,16.67,0,0,0-10.15-6.19,6.27,6.27,0,0,0-2.38-.32v0c-3-4.46,0-7.41,0-7.41A55.06,55.06,0,0,1,388.23,280.24Z"/><path class="cls-4" d="M375.7,273.71v0c-8,.45-12.89,16.44-14.52,23.86A34,34,0,0,0,361,308s1.82,6.08-1.26,11.09c-2.55-4-11.61-6.17-18.45-9.42S335.06,297.5,329,295.55s-16.28-2.9-16.28-2.9a50.29,50.29,0,0,0,.46-10.4,79.09,79.09,0,0,1,0-10.38c0-18.89-7.48-25.49-7.71-25.69,17.12-.61,32.15,1.16,53.68,10.38a71.17,71.17,0,0,1,16.57,9.74S372.69,269.25,375.7,273.71Z"/><path class="cls-3" d="M312.16,293.2c6.41,6.36,13.18,13.85,17.4,20.78,9.77,16,12.7,21.58,12.85,21.88a138.94,138.94,0,0,0-12.73,16.27s-4.89,7-8.63,9.75c0,0-2.76,3.17-5.29,6.11,0,0-5.85-1.64-10.32-2.5s-34-12.22-45.64-17.62a100.85,100.85,0,0,0-9.8-4c-.9-12.29,5.58-16.95,5.58-16.95a35,35,0,0,0,20,3.61A46.93,46.93,0,0,1,302,335.91c-1.62-1.14-3.27-2.2-4.92-3.21-8.63-5.25-12.54-8.43-19.71-13.31s-12.87-15.15-20-23.3-8.8-22.64,1-35.35a34,34,0,0,1,24.37-13c8.33-.7,15.72-1.34,22.75-1.59.23.2,7.71,6.8,7.71,25.69a79.09,79.09,0,0,0,0,10.38,50.29,50.29,0,0,1-.46,10.4Z"/><path class="cls-2" d="M250.13,323a19.8,19.8,0,0,0,5.45,3.91s-6.48,4.66-5.58,16.95a157.92,157.92,0,0,0-16.16-4.32c-7.12-1.74-20.94-7.77-22.63-8.51l-.36-.12-2.29-.54a2.05,2.05,0,0,1-1.24-.84l-2-2.81a2.11,2.11,0,0,1-.38-1.21v-.16a2.1,2.1,0,0,1,2.1-2.11,2.14,2.14,0,0,1,1.29.44l.47.36a2.13,2.13,0,0,0,1.58.41L220.6,323c11.29-.56,12.59-7.47,21.28-9.64S248.83,321.4,250.13,323Z"/><path class="cls-5" d="M409.86,339.54s5.75-1.81,1.52-5.9a8.62,8.62,0,0,0-1.73-.8,8,8,0,0,0-7.44,1s-2.31,2.25,1.58,2.95"/><path class="cls-5" d="M397.24,333.16s-4.77-2.44-8.19.89"/><path class="cls-5" d="M415,372.2s-.46-10.41-.41-12.73c.11-4.59-3.09-6-5.08-10.06s-1.1-8,.36-9.87"/><path class="cls-5" d="M440.25,344.2s4.56,4.33,10.5-.36,2.17-13.33-2.26-15.63c-3.16-1.64-11.28-.26-9.67,8.55"/><path class="cls-5" d="M403.41,320.89c-.31-2.39,2.84-4.33,8.2-4.43,8.68-.17,17.26,6.54,17.26,6.54"/><path class="cls-5" d="M409.69,332.7s.2-6.28-3.6-8.42c-1.68-1.14-2.53-2.31-2.67-3.39"/><path class="cls-5" d="M378.08,331.4l0,0c1,.81,3.64,3.45,3.93,3.69,2.66,2.23.82,4.18,0,4.87a10.29,10.29,0,0,0-1.19,1.19c-6.21,7.26-.11,9.66.77,9.84l7.79,6.44-1.94,4.78,5.93.85c3.3-.13,3.13,1.37,6.63,3.82,4.44,3.12,13.26,4.59,13.26,4.59l1.71.7,1.31.53c12.82-6.67,22.25-13.27,23.28-28.57.07-.88.1-1.8.1-2.74a20.32,20.32,0,0,0-1-4.63A27.75,27.75,0,0,0,428.87,323"/><path class="cls-5" d="M302.08,335.94c6.81,4.77,13,10.56,15.87,17"/><path class="cls-5" d="M403.42,320.89h0a12,12,0,0,1-6.44-9.65c-.1-1-.17-2.55-.33-4.49a59.76,59.76,0,0,0-6.83-23.81c-.49-.89-1-1.8-1.58-2.7A55.06,55.06,0,0,0,375.7,266.3a71.17,71.17,0,0,0-16.57-9.74c-21.53-9.22-36.56-11-53.68-10.38-7,.25-14.42.89-22.75,1.59a34,34,0,0,0-24.37,13c-9.77,12.71-8.14,27.21-1,35.35s12.86,18.41,20,23.3,11.08,8.06,19.71,13.31c1.65,1,3.3,2.07,4.92,3.21"/><path class="cls-5" d="M305.44,246.17h0c.23.2,7.71,6.8,7.71,25.69a79.09,79.09,0,0,0,0,10.38,50.29,50.29,0,0,1-.46,10.4"/><path class="cls-5" d="M263.38,447.75h-1.83A1.75,1.75,0,0,1,259.8,446v-.47a1.75,1.75,0,0,1,1.44-1.72,22.08,22.08,0,0,0,12.41-7.46c2.6-3.26,8.63-14.83,8.63-14.83l4.72-6.84c5.54-9.94,23.95-41.05,26.72-44.31l2-2.38c2.53-2.94,5.29-6.11,5.29-6.11,3.74-2.79,8.63-9.75,8.63-9.75a138.94,138.94,0,0,1,12.73-16.27c7.26-7.88,12.73-11.59,15.95-15a10.38,10.38,0,0,0,1.34-1.76c3.08-5,1.26-11.09,1.26-11.09a34,34,0,0,1,.22-10.41c1.63-7.42,6.56-23.41,14.52-23.86a6.27,6.27,0,0,1,2.38.32,16.67,16.67,0,0,1,10.15,6.19,14.41,14.41,0,0,1,1.58,2.7"/><path class="cls-5" d="M295.15,277.85s8.17,6.6,17,15.35c6.41,6.36,13.18,13.85,17.4,20.78,9.77,16,12.7,21.58,12.85,21.88h0"/><path class="cls-5" d="M278.7,435s-5.28,8.35-12.77,10.6a1.75,1.75,0,0,0-1.24,1.67,1.37,1.37,0,0,0,0,.36,1.75,1.75,0,0,0,2.2,1.32,37.79,37.79,0,0,0,16.16-9.71s5.38-4.4,9-1.14c3.23,2.93,3.42,6.52,10.68,7.57a2,2,0,0,0,1-3.77c-2.12-.8-6.79-3-6.79-6.9,0-4.26.46-8.07-.08-10.81a5.1,5.1,0,0,1,.52-3.34,75.92,75.92,0,0,1,11.29-15.17c9.61-10.42,22.48-21.66,25.08-26.71a77.72,77.72,0,0,1,5.46-8.86,85.12,85.12,0,0,1,6.6-8.27c2.94-3.21,5.38-6.86,8.14-10a25.93,25.93,0,0,1,6.19-5.42s12.71-5.53,16.46-12.38c.51-.92,1-1.8,1.52-2.62a62.74,62.74,0,0,1,4.19-6c1.24-1.55,2.05-2.4,2.05-2.4"/><path class="cls-5" d="M312.7,292.65s10.19.94,16.28,2.9,5.43,10.86,12.27,14.12,15.9,5.4,18.45,9.42"/><path class="cls-5" d="M315.76,368s-5.85-1.64-10.32-2.5-34-12.22-45.64-17.62a100.85,100.85,0,0,0-9.8-4,157.92,157.92,0,0,0-16.16-4.32c-7.12-1.74-20.94-7.77-22.63-8.51l-.36-.12-2.29-.54a2.05,2.05,0,0,1-1.24-.84l-2-2.81a2.11,2.11,0,0,1-.38-1.21v-.16a2.1,2.1,0,0,1,2.1-2.11,2.14,2.14,0,0,1,1.29.44l.47.36a2.13,2.13,0,0,0,1.58.41L220.6,323c11.29-.56,12.59-7.47,21.28-9.64s7,8,8.25,9.64a19.8,19.8,0,0,0,5.45,3.91,35,35,0,0,0,20,3.61A46.93,46.93,0,0,1,302,335.91l.06,0"/><path class="cls-5" d="M255.58,326.91s-6.48,4.66-5.58,16.95"/><path class="cls-5" d="M339.21,370.15c0,.19,0,5.83,3.45,9.67,2.94,3.32,27.45,20.69,38.14,31.06a29.67,29.67,0,0,1,4.21,4.78c5.43,8.47-1.3,12.81,2.39,16.72s16,.87,16,.87a23.47,23.47,0,0,1,14.82-1.74l1.8.74a28,28,0,0,0,10.72,2.13h.94a3.15,3.15,0,0,1,.44,0l3.43.56,3.59.14,2.49-.21a2.75,2.75,0,0,0,2.74-2.75,2.75,2.75,0,0,0-2.34-2.71l-4.77-.36a2.81,2.81,0,0,1-.94-.31L431.28,426l-.22-.13-10.49-7.18a29.2,29.2,0,0,0-3.59-2.09c-2.21-1.09-5.85-2.34-7.52-3.13-3.58-1.72-9.73-7-15.88-13.54-2.95-3.14-5.9-6.57-8.57-10-8.23-10.73-16.47-21.28-21.33-26.4A151,151,0,0,1,354,351.85"/><path class="cls-5" d="M380.8,410.88s8.9-5.44,12.78-11l.07-.09"/><path class="cls-5" d="M375.7,266.3s-3,2.95,0,7.41"/><path class="cls-5" d="M382.32,325.41s13.79-2.89,14.32-18.66"/></svg>