<svg id="Layer_1" data-name="Layer 1" xmlns="http://www.w3.org/2000/svg" viewBox="0 0 700 700"><defs><style>.cls-1{fill:#120c0c;}.cls-2{fill:#feae63;}.cls-3{fill:#c4e7f9;}.cls-4{fill:#99abcc;}.cls-5{fill:none;stroke:#000;stroke-linecap:round;stroke-linejoin:round;stroke-width:2.3px;}</style></defs><title>Yoga_poses_2020_color</title><path class="cls-1" d="M533.07,383.85c5.14-1.4,14.37,2.65,13.1,10.63s-8,7.89-8,7.89l-.74.23c-.54-.67-1.12-1.33-1.73-2a21.19,21.19,0,0,0-4.1-2.94l0-.09C524,391.82,529.4,384.85,533.07,383.85Z"/><path class="cls-1" d="M491.75,407.46c.24-1.61,1.47-3.64,3.86-6.11,6.44-6.66,18.29-7.37,18.29-7.37a29.61,29.61,0,0,1,17.72,3.68,21.19,21.19,0,0,1,4.1,2.94c.61.67,1.19,1.33,1.73,2,10.5,12.84,7.88,24.91,2.61,39.52l-1.41.53s-7.9-7.84-9.54-9.7c-3.25-3.68-6.81-2.49-11.28-4.2s-6.68-5.5-6.87-8c0,0,3.2-5.59-3.09-5.74a8.91,8.91,0,0,0-1.93.63l-.07-.14s-1.65-2.73-7.59-3.42C493.77,411.7,491.33,410.2,491.75,407.46Z"/><path class="cls-2" d="M505.94,415.63a8.91,8.91,0,0,1,1.93-.63c6.29.15,3.09,5.74,3.09,5.74.19,2.51,2.4,6.3,6.87,8s8,.52,11.28,4.2c1.64,1.86,9.54,9.7,9.54,9.7l-1.85.69s-8,5.23-13.73,6c-4.52.6-5.47-.69-8,1.81l-5.28,3.62-1.93-5.16-10.78.59c-.86.52-7.9,3.25-7.75-8.49,0,0,0-5-2.41-6.82-3.82-2.86-13.81-4-21.43-10.4a36.15,36.15,0,0,0,4-4.56,50.58,50.58,0,0,0,3.56-5.38s16.1,5.82,10.6-27.81c3.65,14.66,1.26,21.52,8.05,20.71-.42,2.74,2,4.24,6.53,4.61,5.94.69,7.59,3.42,7.59,3.42Zm11.63,30.11c1.53-.13,2.73-.77,2.67-1.43s-1.34-1.1-2.87-1-2.73.77-2.67,1.44S516,445.87,517.57,445.74Z"/><path d="M520.24,444.31c.06.66-1.14,1.3-2.67,1.43s-2.82-.3-2.87-1,1.14-1.31,2.67-1.44S520.18,443.64,520.24,444.31Z"/><path class="cls-2" d="M473.1,414.56a50.58,50.58,0,0,1-3.56,5.38,36.15,36.15,0,0,1-4,4.56c-5.53,5.29-11.11,7.1-14.39,8.79-4.07,2.12-8,8.31-8,8.31l-.81.16a4.13,4.13,0,0,0-.86-1.06l-.34-.3a5.09,5.09,0,0,0-2.84-1.27,5.09,5.09,0,0,1-2.73-1.17L432,434.9a7.13,7.13,0,0,0-3.63-1.64,68.8,68.8,0,0,1-8.8-1.81l.17-.6s2.7-3.27,6.77-7.58c1.37-1.44,2.9-3,4.52-4.6,2.12-2.08,4.42-4.22,6.79-6.23,2.13-1.8,4-3.5,5.58-5.05h0c-.15-.65-6.66-29.29,8.1-36.8s26.9.19,30.7,10.74a.78.78,0,0,1,0,.14c.59,1.87,1.08,3.63,1.49,5.29C489.2,420.38,473.1,414.56,473.1,414.56Z"/><path class="cls-3" d="M467.36,351.91c7.9,11.64,12.26,21.44,14.8,29.41-3.8-10.55-15.84-18.31-30.7-10.74s-8.25,36.15-8.1,36.8h0c-1.6,1.55-3.45,3.25-5.58,5.05-2.37,2-4.67,4.15-6.79,6.23a37.35,37.35,0,0,1-10.47-11.28l0,0a30.29,30.29,0,0,1-2.89-6.52c-3.45-11.37-2-26.38-8.5-38.76-2.84-5.42-5.1-9.35-8.36-13.08l1.16-.79s2.47-4,6.06-15.11,13.24-22.65,21.44-28.75c1.33,1.07,2.79,2.22,4.4,3.45,10.21,7.82,16.66,17,23.2,27.09C461.33,341.59,467.36,351.91,467.36,351.91Z"/><path class="cls-2" d="M446.87,530.61c2.34.16,4.1.25,4.1.25v.4a2.06,2.06,0,0,1-2.06,2.06H443.5l0,.26c2.24.34,4.05.56,4.05.56l-.48.71a2.08,2.08,0,0,1-1.74.93h-8.53s-.19,1.64-1.46,1.64-7.66-.37-12-2.37c0,0-20,.46-22.19-1.73s-2.81-12.81-2.56-19.71c0,0,.06-16.13,0-21.35s2.82-21.17,3.14-27-1.1-5.83,6.39-13.65h0a24.87,24.87,0,0,0,5.17,3.22,15.58,15.58,0,0,0,7.34,0c2.69-.78,7.91-5.06,10.8-7.42a3.59,3.59,0,0,1,3.94-.42l1.43.73a4.2,4.2,0,0,0,1.94.47l0,.63s-7.49,8.14-10.28,11.4a21.38,21.38,0,0,0-3.56,5.21c-1.07,3.21-2.5,8.38-3.2,10.94a28.7,28.7,0,0,1-1,3.09c-6.63,16.95-13.9,41.26-10.58,43.72s14.44,3.2,18,3.86,19.6,1.87,19.6,1.87Zm-11-79.58a2.23,2.23,0,1,0-3,1A2.24,2.24,0,0,0,435.83,451Zm-4.2,2.51a2.23,2.23,0,1,0-3,1A2.23,2.23,0,0,0,431.63,453.54ZM427,455.85a2,2,0,1,0-2.65.9A2,2,0,0,0,427,455.85Zm-3.82,2a2,2,0,1,0-2.66.9A2,2,0,0,0,423.19,457.83Z"/><path class="cls-2" d="M409.11,426.23l1.58.87c1.41.79,2.91,1.63,4.36,2.53a18.93,18.93,0,0,0,4.48,1.82,68.8,68.8,0,0,0,8.8,1.81A7.13,7.13,0,0,1,432,434.9l3.61,3.06a5.09,5.09,0,0,0,2.73,1.17,5.09,5.09,0,0,1,2.84,1.27l.34.3a4.13,4.13,0,0,1,.86,1.06,4.27,4.27,0,0,1-5.65,5.91l-1.43-.73a3.59,3.59,0,0,0-3.94.42c-2.89,2.36-8.11,6.64-10.8,7.42a15.58,15.58,0,0,1-7.34,0,24.87,24.87,0,0,1-5.17-3.22c-7-5.34-14.76-14.54-18.72-17.13-5-3.25-10.64-8.47-7.39-15.07a5,5,0,0,1,5.91-3l.18-.87a37.13,37.13,0,0,0,2.8-3.07h0c.5-.2,18.15-7.14,18.31,13.8Z"/><path class="cls-2" d="M434.81,448a2.24,2.24,0,1,1-3,1A2.24,2.24,0,0,1,434.81,448Z"/><path class="cls-2" d="M430.61,450.55a2.23,2.23,0,1,1-3,1A2.23,2.23,0,0,1,430.61,450.55Z"/><path class="cls-4" d="M431,418.67c-1.62,1.59-3.15,3.16-4.52,4.6,0,0-11.87,1.93-15.78,3.83l-1.58-.87h0c-.16-20.94-17.81-14-18.31-13.8,2.56-3.09,4.79-6.44,4.79-6.44a17.67,17.67,0,0,1,5.55-4.69c9.73-5,18.9,5.54,19.36,6.08l0,0A37.35,37.35,0,0,0,431,418.67Z"/><path class="cls-2" d="M426.11,453.2a2,2,0,1,1-2.65.9A2,2,0,0,1,426.11,453.2Z"/><path class="cls-2" d="M422.29,455.18a2,2,0,1,1-2.66.9A2,2,0,0,1,422.29,455.18Z"/><path class="cls-4" d="M354.58,322.78c-12.56-8.15-34.69-22.53-43.48-28.44-12.6-8.47-16.29-14.11-25.41-22.8s-4.56-8.69-21.51-24.76S242.47,227,231,216.81c0,0-1.26-7.35,9.65-18.19a273.73,273.73,0,0,1,25.76,13c16.29,9.78,29.53,29.32,34.75,33.45s6.51,6.3,14.33,9.77,27.59,13.25,41.27,18.9,9.56,5.43,22.8,4.56a46.72,46.72,0,0,1,34.76,12.38,196.93,196.93,0,0,0,15.14,13.71c-8.2,6.1-17.86,17.68-21.44,28.75s-6.06,15.11-6.06,15.11l-1.16.79c3.26,3.73,5.52,7.66,8.36,13.08,6.52,12.38,5.05,27.39,8.5,38.76a30.29,30.29,0,0,0,2.89,6.52c-.46-.54-9.63-11.05-19.36-6.08v-.44a127.66,127.66,0,0,0-11.41-11.05c-6.19-5.21-7.82-6.51-22.15-27.73s-13.36-38.73-13.36-38.73Z"/><path class="cls-2" d="M156.24,179.88a1.9,1.9,0,0,1-.39-1.15,2.09,2.09,0,0,1,.1-.59,1.88,1.88,0,0,1,2.09-1.26l2.43.4,3.14.14h0a.85.85,0,0,0,.82-.61.83.83,0,0,0-.74-1l.28-2.87h.13a.83.83,0,0,0,.39-1.57l-1.4-.74-1.81-.95a1.51,1.51,0,0,1-.8-1.34,1.55,1.55,0,0,1,.31-.93,1.53,1.53,0,0,1,1.85-.44l2.73,1.3a.85.85,0,0,0,.38.09.94.94,0,0,0,.78-.43.9.9,0,0,0-.25-1.21l-1.74-1.25a1.8,1.8,0,0,1,1.83-3.09l4,2a19.83,19.83,0,0,0,4.87.88c2.33.15,5,2.76,9.63,4.42a50.29,50.29,0,0,0,18.88,2.68c7.39-.22,9.13,5.21,9.56,9.56a8.48,8.48,0,0,0,1,3.2,10.24,10.24,0,0,0,5.17,4.49c3.56,1.47,11.89,4.94,21.06,9.09-10.91,10.84-9.65,18.19-9.65,18.19a190.66,190.66,0,0,0-15.28-12.19A46.82,46.82,0,0,0,202.39,198c-4.8-1.87-6.2-1.89-10.55-4.13-2.68-1.38-10.65-5.37-14.26-7a11.71,11.71,0,0,0-4-1l-9.7-.72a11,11,0,0,0-2.57.09L153,186.58h-.2a1.34,1.34,0,0,1-1.29-1,4.09,4.09,0,0,1-.16-1.15,4.16,4.16,0,0,1,1.14-2.86A6.59,6.59,0,0,1,156.24,179.88Z"/><path class="cls-2" d="M164,172.9l-.28,2.87-3-.23-2.56-.93a1.48,1.48,0,0,1-1-1.41,1.67,1.67,0,0,1,.06-.44,1.51,1.51,0,0,1,1.9-1l2.24.73,1.22.18Z"/><path class="cls-5" d="M425.46,531s3.1,1.46,4.92,2.55a32,32,0,0,0,6.38,2.19s-.19,1.64-1.46,1.64-7.66-.37-12-2.37c0,0-20,.46-22.19-1.73s-2.81-12.81-2.56-19.71c0,0,.06-16.13,0-21.35s2.82-21.17,3.14-27-1.1-5.83,6.39-13.65"/><path class="cls-5" d="M436.76,535.78h8.53a2.08,2.08,0,0,0,1.74-.93l.48-.71s-1.81-.22-4.05-.56c-1.84-.29-4-.67-5.61-1.08-3.65-.91-5.65-1.64-5.65-1.64"/><path class="cls-5" d="M443.5,533.32h5.41a2.06,2.06,0,0,0,2.06-2.06v-.4s-1.76-.09-4.1-.25c-3.38-.23-8-.6-10.11-1"/><path class="cls-5" d="M446.87,530.61l.64-1.75s-16.07-1.21-19.6-1.87-14.55-1.32-18-3.86,3.95-26.77,10.58-43.72a28.7,28.7,0,0,0,1-3.09c.7-2.56,2.13-7.73,3.2-10.94a21.38,21.38,0,0,1,3.56-5.21c2.79-3.26,10.28-11.4,10.28-11.4"/><path class="cls-5" d="M511,420.74s3.2-5.59-3.09-5.74a8.91,8.91,0,0,0-1.93.63,8.57,8.57,0,0,0-5.13,6.16s-.18,3.44,3.38,1.16"/><path class="cls-5" d="M496.43,424.87s-5.51,1.55-5.78,6.64"/><path class="cls-5" d="M538.65,442.65s-7.9-7.84-9.54-9.7c-3.25-3.68-6.81-2.49-11.28-4.2s-6.68-5.5-6.87-8"/><path class="cls-5" d="M538.19,402.37s6.71.08,8-7.89-8-12-13.1-10.63c-3.67,1-9,8-1.4,13.72"/><path class="cls-5" d="M505.87,415.49s-1.65-2.73-7.59-3.42c-4.51-.37-6.95-1.87-6.53-4.61.24-1.61,1.47-3.64,3.86-6.11,6.44-6.66,18.29-7.37,18.29-7.37"/><path class="cls-5" d="M513.9,394a29.61,29.61,0,0,1,17.72,3.68,21.19,21.19,0,0,1,4.1,2.94c.61.67,1.19,1.33,1.73,2,10.5,12.84,7.88,24.91,2.61,39.52l-1.41.53-1.85.69s-8,5.23-13.73,6c-4.52.6-5.47-.69-8,1.81l-5.28,3.62-1.93-5.16-10.78.59c-.86.52-7.9,3.25-7.75-8.49,0,0,0-5-2.41-6.82-3.82-2.86-13.81-4-21.43-10.4"/><path class="cls-5" d="M443.15,441.6s3.91-6.19,8-8.31c3.28-1.69,8.86-3.5,14.39-8.79a36.15,36.15,0,0,0,4-4.56,50.58,50.58,0,0,0,3.56-5.38c2.85-5.05,2.47-7.17,2.47-7.17"/><path class="cls-5" d="M443.36,407.39c-1.6,1.55-3.45,3.25-5.58,5.05-2.37,2-4.67,4.15-6.79,6.23-1.62,1.59-3.15,3.16-4.52,4.6-4.07,4.31-6.77,7.58-6.77,7.58"/><path class="cls-5" d="M451.46,398.27a65.87,65.87,0,0,1-8.1,9.11"/><path class="cls-5" d="M473.1,414.56s16.1,5.82,10.6-27.81"/><path class="cls-5" d="M420.5,407.37a30.29,30.29,0,0,1-2.89-6.52c-3.45-11.37-2-26.38-8.5-38.76-2.84-5.42-5.1-9.35-8.36-13.08-4.2-4.79-10.07-9.23-21.07-16"/><path class="cls-5" d="M431,418.67a37.35,37.35,0,0,1-10.47-11.28"/><path class="cls-5" d="M354.21,323.34s-1,17.52,13.36,38.73,16,22.52,22.15,27.73a127.66,127.66,0,0,1,11.41,11.05"/><path class="cls-5" d="M426.47,423.27s-11.87,1.93-15.78,3.83"/><path class="cls-5" d="M390.79,412.42a37.13,37.13,0,0,1-2.8,3.07"/><path class="cls-5" d="M420.52,407.39l0,0c-.46-.54-9.63-11.05-19.36-6.08a17.67,17.67,0,0,0-5.55,4.69s-2.23,3.35-4.79,6.44"/><path class="cls-5" d="M392.76,418.67a13.51,13.51,0,0,0-4.95-2.31,5,5,0,0,0-5.91,3c-3.25,6.6,2.39,11.82,7.39,15.07,4,2.59,11.76,11.79,18.72,17.13a24.87,24.87,0,0,0,5.17,3.22,15.58,15.58,0,0,0,7.34,0c2.69-.78,7.91-5.06,10.8-7.42a3.59,3.59,0,0,1,3.94-.42l1.43.73a4.2,4.2,0,0,0,1.94.47,4.26,4.26,0,0,0,3.68-2.11,4.25,4.25,0,0,0,0-4.27,4.13,4.13,0,0,0-.86-1.06l-.34-.3a5.09,5.09,0,0,0-2.84-1.27,5.09,5.09,0,0,1-2.73-1.17L432,434.9a7.13,7.13,0,0,0-3.63-1.64,68.8,68.8,0,0,1-8.8-1.81,18.93,18.93,0,0,1-4.48-1.82c-1.45-.9-2.95-1.74-4.36-2.53l-1.58-.87a36.74,36.74,0,0,1-4.86-3"/><path class="cls-5" d="M435.83,451a2.23,2.23,0,1,1-1-3A2.24,2.24,0,0,1,435.83,451Z"/><path class="cls-5" d="M431.63,453.54a2.23,2.23,0,1,1-1-3A2.23,2.23,0,0,1,431.63,453.54Z"/><path class="cls-5" d="M427,455.85a2,2,0,1,1-.9-2.65A2,2,0,0,1,427,455.85Z"/><path class="cls-5" d="M423.19,457.83a2,2,0,1,1-.9-2.65A2,2,0,0,1,423.19,457.83Z"/><path class="cls-5" d="M443.36,407.39h0c-.15-.65-6.66-29.29,8.1-36.8s26.9.19,30.7,10.74"/><path class="cls-5" d="M491.78,407.46h0c-6.79.81-4.4-6-8.05-20.71-.41-1.66-.9-3.42-1.49-5.29a.78.78,0,0,0,0-.14c-2.54-8-6.9-17.77-14.8-29.41,0,0-6-10.32-10.35-17-6.54-10.13-13-19.27-23.2-27.09-1.61-1.23-3.07-2.38-4.4-3.45a196.93,196.93,0,0,1-15.14-13.71,46.72,46.72,0,0,0-34.76-12.38c-13.24.87-9.12,1.09-22.8-4.56s-33.45-15.42-41.27-18.9-9.12-5.64-14.33-9.77-18.46-23.67-34.75-33.45a273.73,273.73,0,0,0-25.76-13c-9.17-4.15-17.5-7.62-21.06-9.09a10.24,10.24,0,0,1-5.17-4.49,8.48,8.48,0,0,1-1-3.2c-.43-4.35-2.17-9.78-9.56-9.56a50.29,50.29,0,0,1-18.88-2.68c-4.62-1.66-7.3-4.27-9.63-4.42a19.83,19.83,0,0,1-4.87-.88l-4-2a1.8,1.8,0,0,0-1.83,3.09l1.74,1.25a.9.9,0,0,1,.25,1.21.94.94,0,0,1-.78.43.85.85,0,0,1-.38-.09l-2.73-1.3a1.53,1.53,0,0,0-1.85.44,1.55,1.55,0,0,0-.31.93,1.51,1.51,0,0,0,.8,1.34l1.81.95,1.4.74a.83.83,0,0,1-.39,1.57H164l-1.43-.22-1.22-.18-2.24-.73a1.51,1.51,0,0,0-1.9,1,1.67,1.67,0,0,0-.06.44,1.48,1.48,0,0,0,1,1.41l2.56.93,3,.23a.83.83,0,0,1,.74,1,.85.85,0,0,1-.82.61h0l-3.14-.14-2.43-.4a1.88,1.88,0,0,0-2.09,1.26,2.09,2.09,0,0,0-.1.59,1.89,1.89,0,0,0,1.25,1.78l1.4.5a4.19,4.19,0,0,0,1.6.25l4.39-.18"/><line class="cls-5" x1="162.56" y1="172.68" x2="163.11" y2="170.6"/><path class="cls-5" d="M156.24,179.88a6.59,6.59,0,0,0-3.76,1.73,4.16,4.16,0,0,0-1.14,2.86,4.09,4.09,0,0,0,.16,1.15,1.34,1.34,0,0,0,1.29,1h.2l8.29-1.43a11,11,0,0,1,2.57-.09l9.7.72a11.71,11.71,0,0,1,4,1c3.61,1.67,11.58,5.66,14.26,7,4.35,2.24,5.75,2.26,10.55,4.13a46.82,46.82,0,0,1,13.28,6.63A190.66,190.66,0,0,1,231,216.81c11.52,10.2,16.29,13.9,33.23,30s12.38,16.07,21.51,24.76,12.81,14.33,25.41,22.8c8.79,5.91,30.92,20.29,43.48,28.44l9.08,5.88"/><path class="cls-5" d="M401.91,348.22s2.47-4,6.06-15.11,13.24-22.65,21.44-28.75"/><path class="cls-5" d="M390.79,412.42h0c.5-.2,18.15-7.14,18.31,13.8"/><path class="cls-5" d="M231,216.81s-1.26-7.35,9.65-18.19"/></svg>