<svg id="Layer_1" data-name="Layer 1" xmlns="http://www.w3.org/2000/svg" viewBox="0 0 700 700"><defs><style>.cls-1{fill:#feae63;}.cls-2{fill:#99abcc;}.cls-3{fill:#c4e7f9;}.cls-4{fill:#120c0c;}.cls-5{fill:none;stroke:#000;stroke-linecap:round;stroke-linejoin:round;stroke-width:2.3px;}</style></defs><title>Yoga_poses_2020_color</title><path class="cls-1" d="M548.83,403.59a10.29,10.29,0,0,1,.41,8.08c-2,6.07-3.52,11.55-2.15,20.94a61.3,61.3,0,0,1,.61,9.22s.43,7.74-4.53,8.19c-4.07.37-10.5-1.16-12.66-1.72a11.42,11.42,0,0,0-1.63-.31,95.73,95.73,0,0,0-16.59-.11,52.62,52.62,0,0,0,0-19.1c8.37-1.2,13.11-3.3,14.75-5.28,2.31-2.81,6.7-11,9.75-13.54s4-7.93,4-7.93l.33-5.74v-.12a2.35,2.35,0,0,0-.23-1,2.26,2.26,0,0,1,.88-3l.5-.29a2.82,2.82,0,0,1,3.59.62,7.53,7.53,0,0,1,1.75,4.51l.1,2.51A9.75,9.75,0,0,0,548.83,403.59Z"/><path class="cls-2" d="M269.22,389.35s29.18,7.12,61.08-2.86c.55,2.74,1,6.4,1.33,9.05a4.5,4.5,0,0,0,3.72,3.92,642.32,642.32,0,0,1,64.19,14.11c7.64,2,18.67,2.44,23.67,2.8s9.61,4.8,13.17,5.74,8,2.07,12.2,1.95c8.17-.24,35.15,6,51.38,5.66a106.33,106.33,0,0,0,12.33-.94,52.62,52.62,0,0,1,0,19.1c-11.8.71-25.85,2.55-38.21,3.72-20.55,2-31.32-2.54-40.52-3.13a188.16,188.16,0,0,1-18.79-1.76c-6.65-1-12.92-2.16-44.82-3.33a329,329,0,0,1-62-8c-5.54-1.37-16.18.4-16.18.4-14.7,1.45-19,3.11-33.13-3.75-16.26-7.89-30.82-33.06-30.82-33.06-1.34-10.49,0-15-3.52-20.55,1.42.22,3,.51,4.94.95,7.7,1.76,21.62,3.51,33.79,4.53l0,.43S265.16,384.63,269.22,389.35Z"/><path class="cls-1" d="M343.76,359.76l-.15-.35s-7.12-20.73-11.61-30.28c-.3-.64-.59-1.21-.88-1.71h0c-3.91-6.92-5.9-.88-5.9-.88l-.17,0a68.51,68.51,0,0,1-1.51-9.68,183.07,183.07,0,0,1-.44-22.72l.13-.52c2,.52,4.07,1,6,1.27,0,0,9.67.73,14.42,11.29s9.77,23,15.05,31.15,10.3,28,9,35.11-2.64,4-15.31,6.87c-5.49,1.26-14.1,2.68-23,3.81-11.62,1.49-23.68,2.46-29.78,1.87-10.2-1-8.12-15.75-8.62-26.12-.11-2.32-.12-5-.07-7.75.12-7,.61-14.53.65-17.24a1.16,1.16,0,0,1,1.1-1.14h.06a1.16,1.16,0,0,1,1.16,1.07c.32,4.44,3,20.56,3.75,23.06.61,2.19,1.38,10.24,1.73,14.06a2.15,2.15,0,0,0,2.23,2,141.06,141.06,0,0,0,15.12-1.51,36.21,36.21,0,0,0,7.94-2.68C330.73,366.08,338.06,362.14,343.76,359.76Z"/><path class="cls-1" d="M331.12,327.41h0c0,.2-.49,3.38-1.28,7.58l-.62-.12c-1.9-1.38-3.23-4.45-4.17-8.31l.17,0S327.21,320.49,331.12,327.41Z"/><path class="cls-3" d="M329.22,334.88l.62.12a112.78,112.78,0,0,1-3.77,15.14,94.14,94.14,0,0,0-1.44,18.6,36.21,36.21,0,0,1-7.94,2.68,141.06,141.06,0,0,1-15.12,1.51,2.15,2.15,0,0,1-2.23-2c-.35-3.82-1.12-11.87-1.73-14.06-.71-2.5-3.43-18.62-3.75-23.06a1.16,1.16,0,0,0-1.16-1.07h-.06a1.16,1.16,0,0,0-1.1,1.14c0,2.71-.53,10.19-.65,17.24h-.59c.07-7-.2-14.51-.24-17.24a1.16,1.16,0,0,0-1.1-1.14h-.06a1.16,1.16,0,0,0-1.16,1.07c-.31,4.44-3,20.56-3.74,23.06-.62,2.19-1.39,10.24-1.74,14.06a2.15,2.15,0,0,1-2.23,2,141.06,141.06,0,0,1-15.12-1.51,30.38,30.38,0,0,1-6.24-2s-1.27-18.84-4.53-27.9l-2.33-6.46.57-.21c1.9-1.38,3.23-4.45,4.17-8.31a68.14,68.14,0,0,0,1.51-9.64h.09c16.31,8.68,44.19,10.35,64.76,0l.63-.05a68.51,68.51,0,0,0,1.51,9.68C326,330.43,327.32,333.5,329.22,334.88Z"/><path class="cls-3" d="M329.36,383.16a15.69,15.69,0,0,1,.94,3.33c-31.9,10-61.08,2.86-61.08,2.86-4.06-4.72-6.19-5.05-6.19-5.05l0-.43a185.63,185.63,0,0,0,19.27.87c10.49-.36,6.86-13.75,7.7-26,.16-2.28.24-4.91.27-7.6h.59c-.05,2.75,0,5.43.07,7.75.5,10.37-1.58,25.14,8.62,26.12,6.1.59,18.16-.38,29.78-1.87Z"/><path class="cls-1" d="M323.54,316.89l-.63.05c-20.57,10.35-48.45,8.68-64.76,0h-.09a181.51,181.51,0,0,0,.44-22.76l-.13-.52c7.22-1.82,14.65-4.57,16.82-5.79,3.74-2.12,3-8.28,2.72-14.62l.59-.19c2.61,2.07,6.7,3.81,13.07,3.69,0,0,7,0,11.82-3.9l.3.4c-.24,6.34-1,12.5,2.73,14.62,2.17,1.22,9.59,4,16.81,5.79l-.13.52A183.07,183.07,0,0,0,323.54,316.89Z"/><path class="cls-1" d="M313.83,248.81s.31,5-2.17,8.12c0,0-1.53,1.41-1-2.25l-.33-.05c.05-.32.08-.64.11-.94l.36-5.89.33,0C311.81,246.76,313.16,245.1,313.83,248.81Z"/><path class="cls-4" d="M269.79,245.45c-.1.69-.12,1.1-.12,1.1s-5.19-15.66,3.83-23.69a21.24,21.24,0,0,1,6.86-4.09c8-3,16.52-1.17,19.41-.39.66.18,1,.3,1,.3,18.37,7.37,10.33,27.25,10.33,27.25a5.68,5.68,0,0,0-.12-.78,43.87,43.87,0,0,0-2.12-6.66c-3.78-9.81-17.33-9.82-17.33-9.82C273.56,228.79,270.35,241.57,269.79,245.45Z"/><path class="cls-1" d="M311,245.15l-.17,2.65-.36,5.89c0,.3-.06.62-.11.94-.55,4-2.37,9.08-2.91,11.58a11.47,11.47,0,0,1-4.07,6.63c-4.8,3.88-11.82,3.9-11.82,3.9-6.37.12-10.46-1.62-13.07-3.69a12.31,12.31,0,0,1-4.41-6.54c-.83-3.06-2.72-8.78-3.26-11.92a8.75,8.75,0,0,1-.14-1.19l-.69-6.1-.21-1.85c.56-3.88,3.77-16.66,21.77-16.78,0,0,13.55,0,17.33,9.82A43.87,43.87,0,0,1,311,245.15Zm-11.24,6.2a2.32,2.32,0,1,0-2-2.28A2.15,2.15,0,0,0,299.77,251.35Zm-18.11-.24a2.33,2.33,0,1,0-2-2.29A2.16,2.16,0,0,0,281.66,251.11Z"/><path d="M301.74,249a2,2,0,1,1-2-2.28A2.15,2.15,0,0,1,301.74,249Z"/><path class="cls-4" d="M300.9,218.37h-1.13c-2.89-.78-11.41-2.59-19.41.39l-.15-.4c0-5.36,4.63-9.7,10.34-9.7S300.9,213,300.9,218.37Z"/><path class="cls-1" d="M237.84,359.76c6.24,2.61,14.43,7.08,20.83,9.69a30.38,30.38,0,0,0,6.24,2A141.06,141.06,0,0,0,280,372.93a2.15,2.15,0,0,0,2.23-2c.35-3.82,1.12-11.87,1.74-14.06.7-2.5,3.43-18.62,3.74-23.06a1.16,1.16,0,0,1,1.16-1.07H289a1.16,1.16,0,0,1,1.1,1.14c0,2.73.31,10.2.24,17.24,0,2.69-.11,5.32-.27,7.6-.84,12.24,2.79,25.63-7.7,26a185.63,185.63,0,0,1-19.27-.87c-12.17-1-26.09-2.77-33.79-4.53-1.89-.44-3.52-.73-4.94-.95-8.12-1.24-9.25.15-10.37-5.92-1.19-6.41,2.76-23.11,7.42-32.34a26.84,26.84,0,0,1,1.56-2.77c5.28-8.18,10.29-20.59,15.05-31.15s14.42-11.29,14.42-11.29c1.89-.31,3.92-.75,6-1.27l.13.52a181.51,181.51,0,0,1-.44,22.76,68.14,68.14,0,0,1-1.51,9.64l-.16,0s-2.3-6.95-6.79,2.6S238,359.41,238,359.41Z"/><path d="M283.62,248.8a2,2,0,1,1-2-2.29A2.16,2.16,0,0,1,283.62,248.8Z"/><path class="cls-1" d="M270.83,254.59l-.22,0c.72,3.63-.87,2.29-.87,2.29-2.6-3-2.51-8-2.51-8,.44-3.23,1.56-2.48,2.3-1.55l.47,0,.69,6.1A8.75,8.75,0,0,0,270.83,254.59Z"/><path class="cls-1" d="M256.39,326.53l.16,0c-.94,3.86-2.27,6.93-4.17,8.31l-.57.21c-1.56-4.25-2.21-6-2.21-6C254.09,319.58,256.39,326.53,256.39,326.53Z"/><path class="cls-1" d="M190.91,458.69h0a2.71,2.71,0,0,1-1.92-.8,2.67,2.67,0,0,1-.8-1.92.42.42,0,0,1,.19-.35,75.21,75.21,0,0,1,9.79-5.54c3.85-1.59,9.74-3.18,15.59-8.16,3.85-3.29,7.57-2.54,5.63-10.23,0,0,6.45,2.09,14.41-4.55,2,7.2,3.62,12.07,4.2,13.81,1.1,3.31,3.14,10.33-3.22,11.79s-6.76.4-13.39,1.46-12.44,4.1-17.08,4.49a31.32,31.32,0,0,0-6.17,1.1,9,9,0,0,1-2.53.37h-2.38a2.55,2.55,0,0,1-1.81-.75A2.39,2.39,0,0,1,190.91,458.69Z"/><path class="cls-2" d="M228.41,402.67c1.64,9.65,3.62,18,5.38,24.47-8,6.64-14.41,4.55-14.41,4.55-1-4-3.52-10.18-8.3-20.37-14.06-29.92-18.14-50.55-17.91-58s4.08-12,12.69-15.41,15.52,2.25,15.52,2.25c-4.66,9.23-8.61,25.93-7.42,32.34,1.12,6.07,2.25,4.68,10.37,5.92,3.48,5.57,2.18,10.06,3.52,20.55C228,400.1,228.18,401.34,228.41,402.67Z"/><path class="cls-5" d="M280.21,218.37c0-5.36,4.63-9.7,10.34-9.7s10.35,4.34,10.35,9.7"/><path class="cls-5" d="M269.79,245.45c.56-3.88,3.77-16.66,21.77-16.78,0,0,13.55,0,17.33,9.82a43.87,43.87,0,0,1,2.12,6.66,5.68,5.68,0,0,1,.12.78s8-19.88-10.33-27.25c0,0-.37-.12-1-.3-2.89-.78-11.41-2.59-19.41.39a21.24,21.24,0,0,0-6.86,4.09c-9,8-3.83,23.69-3.83,23.69S269.69,246.14,269.79,245.45Z"/><path class="cls-5" d="M311.17,247.82c.64-1.06,2-2.72,2.66,1,0,0,.31,5-2.17,8.12,0,0-1.53,1.41-1-2.25"/><path class="cls-5" d="M269.53,247.35c-.74-.93-1.86-1.68-2.3,1.55,0,0-.09,5,2.51,8,0,0,1.59,1.34.87-2.29"/><path class="cls-5" d="M269.69,244.56l.1.89.21,1.85.69,6.1a8.75,8.75,0,0,0,.14,1.19c.54,3.14,2.43,8.86,3.26,11.92a12.31,12.31,0,0,0,4.41,6.54c2.61,2.07,6.7,3.81,13.07,3.69,0,0,7,0,11.82-3.9a11.47,11.47,0,0,0,4.07-6.63c.54-2.5,2.36-7.59,2.91-11.58.05-.32.08-.64.11-.94l.36-5.89.17-2.65.07-1.2"/><path class="cls-5" d="M292.26,256.75a4.29,4.29,0,0,1-4.44-.13"/><polyline class="cls-5" points="285.53 264.17 286.47 264.55 289.43 263.68 290.54 264.37 291.77 263.71 294.42 264.66 295.28 264.43"/><line class="cls-5" x1="289.35" y1="269.11" x2="291.91" y2="269.14"/><path class="cls-5" d="M219.38,431.69s6.45,2.09,14.41-4.55"/><path class="cls-5" d="M277.91,273.24c.24,6.34,1,12.5-2.72,14.62-2.17,1.22-9.6,4-16.82,5.79-2,.52-4.07,1-6,1.27,0,0-9.67.73-14.42,11.29s-9.77,23-15.05,31.15a26.84,26.84,0,0,0-1.56,2.77c-4.66,9.23-8.61,25.93-7.42,32.34,1.12,6.07,2.25,4.68,10.37,5.92,1.42.22,3,.51,4.94.95,7.7,1.76,21.62,3.51,33.79,4.53a185.63,185.63,0,0,0,19.27.87c10.49-.36,6.86-13.75,7.7-26,.16-2.28.24-4.91.27-7.6.07-7-.2-14.51-.24-17.24a1.16,1.16,0,0,0-1.1-1.14h-.06a1.16,1.16,0,0,0-1.16,1.07c-.31,4.44-3,20.56-3.74,23.06-.62,2.19-1.39,10.24-1.74,14.06a2.15,2.15,0,0,1-2.23,2,141.06,141.06,0,0,1-15.12-1.51,30.38,30.38,0,0,1-6.24-2c-6.4-2.61-14.59-7.08-20.83-9.69-3-1.27-5.57-2.09-7.25-2.07"/><path class="cls-5" d="M258.5,294.17a181.51,181.51,0,0,1-.44,22.76,68.14,68.14,0,0,1-1.51,9.64c-.94,3.86-2.27,6.93-4.17,8.31"/><path class="cls-5" d="M256.39,326.53s-2.3-6.95-6.79,2.6S238,359.41,238,359.41"/><path class="cls-5" d="M249.6,329.13s.65,1.71,2.21,6l2.33,6.46c3.26,9.06,4.53,27.9,4.53,27.9"/><path class="cls-5" d="M263,384.3s2.13.33,6.19,5.05c2.78,3.23,6.47,8.53,11,17.21"/><path class="cls-5" d="M221.38,340.13s-6.9-5.65-15.52-2.25-12.46,7.93-12.69,15.41,3.85,28.11,17.91,58c4.78,10.19,7.29,16.41,8.3,20.37,1.94,7.69-1.78,6.94-5.63,10.23-5.85,5-11.74,6.57-15.59,8.16a75.21,75.21,0,0,0-9.79,5.54.42.42,0,0,0-.19.35,2.67,2.67,0,0,0,.8,1.92,2.71,2.71,0,0,0,1.92.8"/><path class="cls-5" d="M200.86,452.74s-3.18.8-5,1.33c-1,.28-2.36.74-3.45,1.11a2.56,2.56,0,0,0-1.72,2.42,2.49,2.49,0,0,0,.25,1.09,2.39,2.39,0,0,0,.5.72,2.55,2.55,0,0,0,1.81.75h2.38a9,9,0,0,0,2.53-.37,31.32,31.32,0,0,1,6.17-1.1c4.64-.39,10.44-3.43,17.08-4.49s7,0,13.39-1.46,4.32-8.48,3.22-11.79c-.58-1.74-2.24-6.61-4.2-13.81-1.76-6.47-3.74-14.82-5.38-24.47-.23-1.33-.41-2.57-.56-3.73-1.34-10.49,0-15-3.52-20.55"/><path class="cls-5" d="M303.69,273.24c-.24,6.34-1,12.5,2.73,14.62,2.17,1.22,9.59,4,16.81,5.79,2,.52,4.07,1,6,1.27,0,0,9.67.73,14.42,11.29s9.77,23,15.05,31.15,10.3,28,9,35.11-2.64,4-15.31,6.87c-5.49,1.26-14.1,2.68-23,3.81-11.62,1.49-23.68,2.46-29.78,1.87-10.2-1-8.12-15.75-8.62-26.12-.11-2.32-.12-5-.07-7.75.12-7,.61-14.53.65-17.24a1.16,1.16,0,0,1,1.1-1.14h.06a1.16,1.16,0,0,1,1.16,1.07c.32,4.44,3,20.56,3.75,23.06.61,2.19,1.38,10.24,1.73,14.06a2.15,2.15,0,0,0,2.23,2,141.06,141.06,0,0,0,15.12-1.51,36.21,36.21,0,0,0,7.94-2.68c6.1-2.66,13.43-6.6,19.13-9,3-1.26,5.57-2.09,7.25-2.07"/><path class="cls-5" d="M323.1,294.17a183.07,183.07,0,0,0,.44,22.72,68.51,68.51,0,0,0,1.51,9.68c.94,3.86,2.27,6.93,4.17,8.31"/><path class="cls-5" d="M331.12,327.42c.29.5.58,1.07.88,1.71,4.49,9.55,11.61,30.28,11.61,30.28"/><path class="cls-5" d="M325.22,326.53s2-6,5.9.88"/><path class="cls-5" d="M227.85,398.94s14.56,25.17,30.82,33.06c14.15,6.86,18.43,5.2,33.13,3.75,0,0,10.64-1.77,16.18-.4a329,329,0,0,0,62,8c31.9,1.17,38.17,2.35,44.82,3.33a188.16,188.16,0,0,0,18.79,1.76c9.2.59,20,5.09,40.52,3.13,12.36-1.17,26.41-3,38.21-3.72a95.73,95.73,0,0,1,16.59.11,11.42,11.42,0,0,1,1.63.31c2.16.56,8.59,2.09,12.66,1.72,5-.45,4.53-8.19,4.53-8.19a61.3,61.3,0,0,0-.61-9.22c-1.37-9.39.2-14.87,2.15-20.94a10.29,10.29,0,0,0-.41-8.08,9.75,9.75,0,0,1-1.09-4.06l-.1-2.51a7.53,7.53,0,0,0-1.75-4.51,2.82,2.82,0,0,0-3.59-.62l-.5.29a2.26,2.26,0,0,0-.88,3,2.35,2.35,0,0,1,.23,1v.12l-.33,5.74s-1,5.37-4,7.93-7.44,10.73-9.75,13.54c-1.64,2-6.38,4.08-14.75,5.28a106.33,106.33,0,0,1-12.33.94c-16.23.36-43.21-5.9-51.38-5.66-4.16.12-8.51-1-12.2-1.95s-8.17-5.37-13.17-5.74-16-.76-23.67-2.8a642.32,642.32,0,0,0-64.19-14.11,4.5,4.5,0,0,1-3.72-3.92c-.31-2.65-.78-6.31-1.33-9.05a15.69,15.69,0,0,0-.94-3.33"/><path class="cls-5" d="M269.22,389.35s29.18,7.12,61.08-2.86"/><path class="cls-5" d="M258.15,316.94c16.31,8.68,44.19,10.35,64.76,0"/><path class="cls-5" d="M512.29,428.78a52.62,52.62,0,0,1,0,19.1"/><path class="cls-5" d="M331.12,327.41h0c0,.2-.49,3.38-1.28,7.58a112.78,112.78,0,0,1-3.77,15.14,94.14,94.14,0,0,0-1.44,18.6"/></svg>