<svg id="Layer_1" data-name="Layer 1" xmlns="http://www.w3.org/2000/svg" viewBox="0 0 700 700"><defs><style>.cls-1{fill:#feae63;}.cls-2{fill:#99abcc;}.cls-3{fill:#120c0c;}.cls-4{fill:#c4e7f9;}.cls-5{fill:none;stroke:#000;stroke-linecap:round;stroke-linejoin:round;stroke-width:2.3px;}</style></defs><title>Yoga_poses_2020_color</title><path class="cls-1" d="M602.93,325.37c.42,1.79.7,4.42-.62,6.26l-1.18,1.47a4.23,4.23,0,0,0-.7,3.95,4.12,4.12,0,0,1-.1,2.92c-.71,1.72-2.2,4-6.54,6.22l0,0a1.49,1.49,0,0,0-1.86,0l-.35.27a1.47,1.47,0,0,0-.57,1.16,1.5,1.5,0,0,0,.24.81.91.91,0,0,0,.11.16h0a1.63,1.63,0,0,0-2.21-.43l-1.39.89a1.63,1.63,0,0,0,0,2.74l-.63-.4a1.56,1.56,0,0,0-2.26.64l-.42.9a1.54,1.54,0,0,0,.29,1.73c-1.26,4.09-2.8,9.72-6.71,14.11-7.17,8-12.38,1.74-15.2,0-1.77-1.09-8.12-3.27-17-5,4.09-8.07,2.43-18.87,2.43-18.87v-.34a72.91,72.91,0,0,0,17.14-1c8.47-1.73,6.08-3,21.5-8.47a23.55,23.55,0,0,0,2.41-.74,16.06,16.06,0,0,0,5.63-3.17,13,13,0,0,0,2.86-5.81,2.63,2.63,0,0,1,2.54-2h0A2.61,2.61,0,0,1,602.93,325.37Z"/><path class="cls-1" d="M594,346.47a1.48,1.48,0,0,1-.33,2.11l-.36.25a1.49,1.49,0,0,1-2-.25.91.91,0,0,1-.11-.16,1.5,1.5,0,0,1-.24-.81,1.47,1.47,0,0,1,.57-1.16l.35-.27a1.49,1.49,0,0,1,1.86,0,1.84,1.84,0,0,1,.23.25Z"/><path class="cls-1" d="M591.36,348.65a1.59,1.59,0,0,1,.27.88,1.63,1.63,0,0,1-.44,1.11l-1,1.12a1.63,1.63,0,0,1-2.09.27l-.35-.24a1.63,1.63,0,0,1,0-2.74l1.39-.89a1.63,1.63,0,0,1,2.21.43Z"/><path class="cls-1" d="M588.07,352a1.57,1.57,0,0,1,.32,2.05l-.22.35a1.57,1.57,0,0,1-1.31.71h-1a1.56,1.56,0,0,1-1.41-2.21l.42-.9a1.56,1.56,0,0,1,2.26-.64l.63.4Z"/><path class="cls-1" d="M451.84,228.57c-8.28-7.67-18.44-19.9-20.54-23.13,9.14-.31,13,.65,15.15,1.65,2.77,1.31,14.27,6,32.36,12.6s47.67,28.14,52.92,32.81A153.6,153.6,0,0,0,544.41,263c2.62,1.75,3.06,2.91,4.52,5.83s9.62,16,12.1,19.83,10.5,23.18,12.25,27.26,2,5,5.68,7.14,10.34,11.3,10.34,11.3a23.55,23.55,0,0,1-2.41.74c-15.42,5.43-13,6.74-21.5,8.47l.93-5.52a15,15,0,0,0-2.54-11.15,6.83,6.83,0,0,1-.59-1c-1.51-3.22-9.48-20.16-12.13-23.79-2.94-4-9.78-15.64-14-23.52,0,0-8.23-6.41-11.6-8.05l-.27,0a21.87,21.87,0,0,0,0-6.9s.14-1.25-1.39-3.73a32.41,32.41,0,0,0-6.12-6.9s-1-1-2.63-2.55-4.54-1.32-7.67-4.57-14-5.23-20.81-7.47c0,0-6.69-2.52-9.48,6.28a35.65,35.65,0,0,1-7.36.19s-3.47-6-11.78-11.34A48.48,48.48,0,0,1,451.84,228.57Z"/><path class="cls-2" d="M548.24,344.87s1.66,10.8-2.43,18.87a139.18,139.18,0,0,0-18.23-2.36c-17.79-1.08-43.71,1.32-56.27-5.53-12.28-6.7-21.56-8.49-22-8.57.78-6.19,2.59-21.29,2.24-27.6a28.8,28.8,0,0,1,.31-6.1l3.82,1.11a61.38,61.38,0,0,1,8.25,7.16c5,5,12.38,6.95,23.68,10.43s26.8,8,41.5,10.28a169.05,169.05,0,0,0,19.11,2Z"/><path class="cls-3" d="M525.17,263.59a21.87,21.87,0,0,1,0,6.9c-1.79,11.33-11.95,18.23-11.95,18.23a26.43,26.43,0,0,1-5,2.32,28.24,28.24,0,0,1-16.41.31,37.69,37.69,0,0,1-11.6-5.38c-5.41-3.81-6.09-6.87-8.9-11.62,0,0,5.6.9,8.34,3.86a.24.24,0,0,1,.08.1l.25.27a8.88,8.88,0,0,0,2.07,1.66c4.62,2.81,8.38-1.13,8.38-1.13,5.32-4.79,18-2.88,18-2.88,15.19,4.22,15.39-16.37,15.39-16.37C525.31,262.34,525.17,263.59,525.17,263.59Z"/><path class="cls-1" d="M482.05,280.24a8.88,8.88,0,0,1-2.07-1.66,2.05,2.05,0,0,0-.25-.27.24.24,0,0,0-.08-.1c-2.74-3-8.34-3.86-8.34-3.86a14.78,14.78,0,0,0-10-2.68,6.29,6.29,0,0,0-3.08,1.09s-5.44-2.05-9.19,0a28.89,28.89,0,0,0-4.56,3.7c-14.17-33.17,6.17-47.13,7.32-47.89a48.48,48.48,0,0,0,6.09,4.93c8.31,5.37,11.78,11.34,11.78,11.34a35.65,35.65,0,0,0,7.36-.19c2.79-8.8,9.48-6.28,9.48-6.28,6.79,2.24,17.69,4.21,20.81,7.47s6,3,7.67,4.57,2.63,2.55,2.63,2.55a32.41,32.41,0,0,1,6.12,6.9s-.2,20.59-15.39,16.37c0,0-12.64-1.91-18,2.88C490.43,279.11,486.67,283.05,482.05,280.24Zm27.24-28.67c.27-.48-.6-1.5-2-2.26s-2.66-1-2.93-.51.6,1.49,1.94,2.25S509,252.05,509.29,251.57Zm-3,9.67c.35-.61-.77-1.91-2.5-2.89s-3.42-1.28-3.77-.66.77,1.91,2.5,2.89S505.92,261.86,506.27,261.24Z"/><path d="M507.34,249.31c1.35.76,2.22,1.78,2,2.26s-1.59.25-2.94-.52-2.22-1.77-1.94-2.25S506,248.54,507.34,249.31Z"/><path class="cls-3" d="M508.58,292.05c2.09,2.53.48,10.62-7.75,10-7.86-.57-10.3-4.76-9.07-9.61l.05-1.1a28.24,28.24,0,0,0,16.41-.31Z"/><path d="M503.77,258.35c1.73,1,2.85,2.28,2.5,2.89s-2,.33-3.77-.66-2.85-2.28-2.5-2.89S502,257.36,503.77,258.35Z"/><path class="cls-1" d="M483.81,431.05a.91.91,0,0,1,.31.69.93.93,0,0,1-.92.93h-.1l-17.59-1h0a4.84,4.84,0,0,0-1.1-.3,9.81,9.81,0,0,1-6.4-4.07l.32-3c5.15.57,14.24,1.7,24.87,3.52a2.45,2.45,0,0,1,2,2.41V431Z"/><path class="cls-1" d="M426,302.1c.88-5.17,1.44-9.54-1.8-12.17a76.93,76.93,0,0,0,20.32-13.47,28.89,28.89,0,0,1,4.56-3.7c3.75-2.05,9.19,0,9.19,0-2.77,1.94-2.78,5.75-2.78,5.82s3.69,7,1.09,17.43c-1.9,7.58-3.91,12.41-4.69,17.57a28.8,28.8,0,0,0-.31,6.1c.35,6.31-1.46,21.41-2.24,27.6C449.12,349,449,350,449,350s.21,7.69,1.3,12,0,15.2-1.3,25.62-2.18,30.41,0,34.1c0,0,1.36,1.73,4.8,2.08,0,0,1.66.15,4.54.47l-.32,3a9.81,9.81,0,0,0,6.4,4.07,4.84,4.84,0,0,1,1.1.3h0c2.83,1.12.93,4-1.11,3.92-2.26-.08-6.25-2.26-8.21-2.79-1.39-.37-8.6.82-13.67.18a5.75,5.75,0,0,1-4.94-5.21c-.77-8-5.68-30.72-5.82-37.23,0,0-1.27-18.06-1.21-26.2a40.07,40.07,0,0,0-1.14-7.11c-.46-1.29-1.55-10.15-2.36-17-.54-4.61-.94-8.34-.94-8.34s-1.78-14.09-1.15-22.34C425.16,306.92,425.61,304.43,426,302.1Z"/><path class="cls-4" d="M431.3,205.44c2.1,3.23,12.26,15.46,20.54,23.13-1.15.76-21.49,14.72-7.32,47.89a76.93,76.93,0,0,1-20.32,13.47s-11.93-1.29-16.71-8.68-13.68-5.33-20.41-2.67a70.29,70.29,0,0,0-7.38,3.76l-5.22,3c-14.55-10.69-23.68-40.13-26.07-47.27s-9.47-12.38-9.47-12.38c12.18-3.88,29.44-9,38.53-12.23,11.52-4.09,26.83-5.69,43.6-7.29C425.07,205.76,428.44,205.54,431.3,205.44Z"/><path class="cls-2" d="M374.48,285.31l5.22-3s15,2.06,28,9.71c12.67,7.44,18,9.91,18.29,10.05-.39,2.33-.84,4.82-1,7.38-.63,8.25,1.15,22.34,1.15,22.34s.4,3.73.94,8.34c0,0-28.95-4.62-35.63-6.58s-34.86-9.12-51.31-13.52S322,309.31,322,309.31s-1.31-1.95-9,1.63-13,6.84-21.83,12.05-18.25,12.87-28.67,23.3-15.31,13-20.2,15.47a87.49,87.49,0,0,0-12.54,7c-6.19,4.07-11.41,9.12-16.29,13S189.1,398.42,179,404.44A99.34,99.34,0,0,0,167.91,412c-9.22-4.11-8.11-8.62-8.11-8.62,3.65-3.06,17.5-18.52,24.49-27.85s22.75-23.33,24.79-24.49,6.12-3.94,9.91-6.27,10.21-11.37,14.73-14.44,16.18-19.53,29.45-40.82,21.87-22.89,31.35-33.82,25.22-23.48,36-27.27c2.27-.8,5.16-1.75,8.41-2.78,0,0,7.09,5.23,9.47,12.38S359.93,274.62,374.48,285.31Z"/><path class="cls-1" d="M138,437.88a1.91,1.91,0,0,1-.56,1.35,1.87,1.87,0,0,1-1.35.56,1.91,1.91,0,0,1-1.91-1.91v-.24H134a1.75,1.75,0,0,1-3.34-.74l-1,0a1.69,1.69,0,0,1-1.67-1.7,1.67,1.67,0,0,1,.21-.82l.5-.91-.05,0v-2.34a2.94,2.94,0,0,1,1-2.17c2.21-2,7.55-6.89,8.81-8.61,1.6-2.19,3.06-4.23,5.68-5.54s5.4-4.67,6.86-6.42,5.25-1.89,8.89-5c0,0-1.11,4.51,8.11,8.62a40.11,40.11,0,0,0-3.29,2.88c-3,3.92-4.54,5.41-8,7.13s-6.64,7.82-6.64,7.82l-.37,4.82a1.34,1.34,0,0,1-.46.91l-.84.76a1.34,1.34,0,0,0-.46,1,1.38,1.38,0,0,1-.41,1l-.81.79a4.44,4.44,0,0,1-3.12,1.28H140.4A2.44,2.44,0,0,1,138,438Z"/><path class="cls-5" d="M491.76,292.45c-1.23,4.85,1.21,9,9.07,9.61,8.23.61,9.84-7.48,7.75-10"/><path class="cls-5" d="M504.83,253.53a4,4,0,0,1-2.87-2.48l-3.37-4.51-3.07,3.75"/><path class="cls-5" d="M479.65,278.21a8,8,0,0,1-1.93-6.27s.89-3.17,3.41,0"/><path class="cls-5" d="M486.59,276s1.19,6-4.54,4.26a8.88,8.88,0,0,1-2.07-1.66l-.25-.27"/><path class="cls-5" d="M482.05,280.24c4.62,2.81,8.38-1.13,8.38-1.13,5.32-4.79,18-2.88,18-2.88,15.19,4.22,15.39-16.37,15.39-16.37"/><path class="cls-5" d="M471.31,274.35s5.6.9,8.34,3.86a.24.24,0,0,1,.08.1,2.05,2.05,0,0,1,.25.27"/><path class="cls-5" d="M480.05,263.7s-4.2-4.41-1.68-9.22"/><path class="cls-5" d="M453.29,251.6s10.8,9.57,17.69,14.83"/><path class="cls-5" d="M461.35,271.67a6.29,6.29,0,0,0-3.08,1.09c-2.77,1.94-2.78,5.75-2.78,5.82s3.69,7,1.09,17.43c-1.9,7.58-3.91,12.41-4.69,17.57a28.8,28.8,0,0,0-.31,6.1c.35,6.31-1.46,21.41-2.24,27.6C449.12,349,449,350,449,350s.21,7.69,1.3,12,0,15.2-1.3,25.62-2.18,30.41,0,34.1c0,0,1.36,1.73,4.8,2.08,0,0,1.66.15,4.54.47,5.15.57,14.24,1.7,24.87,3.52a2.45,2.45,0,0,1,2,2.41V431"/><path class="cls-5" d="M461.33,241.75c2,2,5.31,2.83,8.38,3.09a35.65,35.65,0,0,0,7.36-.19c2.79-8.8,9.48-6.28,9.48-6.28,6.79,2.24,17.69,4.21,20.81,7.47s6,3,7.67,4.57,2.63,2.55,2.63,2.55a32.41,32.41,0,0,1,6.12,6.9c1.53,2.48,1.39,3.73,1.39,3.73a21.87,21.87,0,0,1,0,6.9c-1.79,11.33-11.95,18.23-11.95,18.23a26.43,26.43,0,0,1-5,2.32,28.24,28.24,0,0,1-16.41.31,37.69,37.69,0,0,1-11.6-5.38c-5.41-3.81-6.09-6.87-8.9-11.62a14.78,14.78,0,0,0-10-2.68"/><path class="cls-5" d="M466.7,427.43l16.7,3.41a.85.85,0,0,1,.41.21.91.91,0,0,1,.31.69.93.93,0,0,1-.92.93h-.1l-17.59-1"/><path class="cls-5" d="M458,427.27a9.81,9.81,0,0,0,6.4,4.07,4.84,4.84,0,0,1,1.1.3h0c2.83,1.12.93,4-1.11,3.92-2.26-.08-6.25-2.26-8.21-2.79-1.39-.37-8.6.82-13.67.18a5.75,5.75,0,0,1-4.94-5.21c-.77-8-5.68-30.72-5.82-37.23,0,0-1.27-18.06-1.21-26.2a40.07,40.07,0,0,0-1.14-7.11c-.46-1.29-1.55-10.15-2.36-17-.54-4.61-.94-8.34-.94-8.34s-1.78-14.09-1.15-22.34c.2-2.56.65-5.05,1-7.38.88-5.17,1.44-9.54-1.8-12.17,0,0-11.93-1.29-16.71-8.68s-13.68-5.33-20.41-2.67a70.29,70.29,0,0,0-7.38,3.76l-5.22,3c-6.8,3.9-14.57,8.28-20.64,10.26"/><path class="cls-5" d="M379.7,282.34s15,2.06,28,9.71c12.67,7.44,18,9.91,18.29,10.05h0"/><path class="cls-5" d="M584.7,354.66c-1.26,4.09-2.8,9.72-6.71,14.11-7.17,8-12.38,1.74-15.2,0-1.77-1.09-8.12-3.27-17-5a139.18,139.18,0,0,0-18.23-2.36c-17.79-1.08-43.71,1.32-56.27-5.53-12.28-6.7-21.56-8.49-22-8.57h0"/><path class="cls-5" d="M451.89,313.58l3.82,1.11a61.38,61.38,0,0,1,8.25,7.16c5,5,12.38,6.95,23.68,10.43s26.8,8,41.5,10.28a169.05,169.05,0,0,0,19.11,2,72.91,72.91,0,0,0,17.14-1c8.47-1.73,6.08-3,21.5-8.47a23.55,23.55,0,0,0,2.41-.74,16.06,16.06,0,0,0,5.63-3.17,13,13,0,0,0,2.86-5.81,2.63,2.63,0,0,1,2.54-2h0a2.61,2.61,0,0,1,2.55,2c.42,1.79.7,4.42-.62,6.26l-1.18,1.47a4.23,4.23,0,0,0-.7,3.95,4.12,4.12,0,0,1-.1,2.92c-.71,1.72-2.2,4-6.54,6.22"/><path class="cls-5" d="M548.24,344.87s1.66,10.8-2.43,18.87"/><path class="cls-5" d="M587.72,351.79l-.63-.4a1.56,1.56,0,0,0-2.26.64l-.42.9a1.56,1.56,0,0,0,1.41,2.21h1a1.57,1.57,0,0,0,1.31-.71l.22-.35a1.57,1.57,0,0,0-.32-2.05"/><path class="cls-5" d="M587.72,351.79a1.63,1.63,0,0,1,0-2.74l1.39-.89a1.63,1.63,0,0,1,2.21.43l0,.06a1.59,1.59,0,0,1,.27.88,1.63,1.63,0,0,1-.44,1.11l-1,1.12a1.63,1.63,0,0,1-2.09.27Z"/><path class="cls-5" d="M591.33,348.58a.91.91,0,0,1-.11-.16,1.5,1.5,0,0,1-.24-.81,1.47,1.47,0,0,1,.57-1.16l.35-.27a1.49,1.49,0,0,1,1.86,0,1.84,1.84,0,0,1,.23.25h0a1.48,1.48,0,0,1-.33,2.11l-.36.25A1.49,1.49,0,0,1,591.33,348.58Z"/><path class="cls-5" d="M565.39,343.57l.93-5.52a15,15,0,0,0-2.54-11.15,6.83,6.83,0,0,1-.59-1c-1.51-3.22-9.48-20.16-12.13-23.79-2.94-4-9.78-15.64-14-23.52,0,0-8.23-6.41-11.6-8.05"/><path class="cls-5" d="M589.3,334.36s-6.69-9.11-10.34-11.3-3.93-3.06-5.68-7.14-9.77-23.47-12.25-27.26-10.64-16.92-12.1-19.83-1.9-4.08-4.52-5.83a153.6,153.6,0,0,1-12.68-10.5c-5.25-4.67-34.84-26.24-52.92-32.81s-29.59-11.29-32.36-12.6c-2.11-1-6-2-15.15-1.65-2.86.1-6.23.32-10.23.7-16.77,1.6-32.08,3.2-43.6,7.29-9.09,3.22-26.35,8.35-38.53,12.23-3.25,1-6.14,2-8.41,2.78-10.79,3.79-26.54,16.33-36,27.27s-18.08,12.53-31.35,33.82-24.93,37.76-29.45,40.82-10.94,12.1-14.73,14.44-7.87,5.1-9.91,6.27-17.79,15.16-24.79,24.49-20.84,24.79-24.49,27.85-7.43,3.2-8.89,5-4.23,5.11-6.86,6.42-4.08,3.35-5.68,5.54c-1.26,1.72-6.6,6.61-8.81,8.61a2.94,2.94,0,0,0-1,2.17v2.34"/><path class="cls-5" d="M130.62,429.85l-2,3.6-.5.91a1.67,1.67,0,0,0-.21.82,1.69,1.69,0,0,0,1.67,1.7l1,0"/><path class="cls-5" d="M137.46,431.4l-3.05,5a1.87,1.87,0,0,0-.28,1v.48a1.91,1.91,0,0,0,1.91,1.91,1.87,1.87,0,0,0,1.35-.56,1.91,1.91,0,0,0,.56-1.35"/><path class="cls-5" d="M134.13,430.51,131,434.85a1.74,1.74,0,0,0-.34,1v1a1.75,1.75,0,0,0,3.34.74"/><path class="cls-5" d="M142.69,431.56c-.14.18-.71,1.29-1.16,2.12a4.26,4.26,0,0,1-1.26,1.41l-1.6,1.14a2.45,2.45,0,0,0-.72,1.65V438a2.44,2.44,0,0,0,2.45,2.44h3.14a4.44,4.44,0,0,0,3.12-1.28l.81-.79a1.38,1.38,0,0,0,.41-1,1.34,1.34,0,0,1,.46-1l.84-.76a1.34,1.34,0,0,0,.46-.91l.37-4.82s3.21-6.11,6.64-7.82,4.95-3.21,8-7.13a40.11,40.11,0,0,1,3.29-2.88A99.34,99.34,0,0,1,179,404.44c10.1-6,29.65-18.73,34.54-22.64s10.1-9,16.29-13a87.49,87.49,0,0,1,12.54-7c4.89-2.44,9.77-5.05,20.2-15.47s19.87-18.08,28.67-23.3,14.17-8.47,21.83-12.05,9-1.63,9-1.63,1.62,6.35,18.08,10.75,44.63,11.57,51.31,13.52,35.63,6.58,35.63,6.58"/><path class="cls-5" d="M338.94,225.66s7.09,5.23,9.47,12.38,11.52,36.58,26.07,47.27"/><path class="cls-5" d="M469.71,244.84s-3.47-6-11.78-11.34a48.48,48.48,0,0,1-6.09-4.93c-8.28-7.67-18.44-19.9-20.54-23.13"/><path class="cls-5" d="M458.27,272.76s-5.44-2.05-9.19,0a28.89,28.89,0,0,0-4.56,3.7,76.93,76.93,0,0,1-20.32,13.47"/><path class="cls-5" d="M451.89,228.54l-.05,0c-1.15.76-21.49,14.72-7.32,47.89"/><line class="cls-5" x1="482.18" y1="238.04" x2="474.17" y2="229.55"/><path class="cls-5" d="M159.8,403.4s-1.11,4.51,8.11,8.62"/></svg>