<svg id="Layer_1" data-name="Layer 1" xmlns="http://www.w3.org/2000/svg" viewBox="0 0 700 700"><defs><style>.cls-1{fill:#120c0c;}.cls-2{fill:#feae63;}.cls-3{fill:#c4e7f9;}.cls-4{fill:#99abcc;}.cls-5{fill:none;stroke:#000;stroke-linecap:round;stroke-linejoin:round;stroke-width:2.3px;}</style></defs><title>Yoga_poses_2020_color</title><path class="cls-1" d="M523.19,414.32c5.14-1.4,14.37,2.65,13.1,10.63s-8,7.89-8,7.89l-.73.24c-.54-.67-1.12-1.33-1.73-2a21.19,21.19,0,0,0-4.1-2.94l0-.1C514.15,422.29,519.52,415.32,523.19,414.32Z"/><path class="cls-1" d="M481.86,437.94c.23-1.61,1.47-3.64,3.86-6.11,6.45-6.67,18.3-7.38,18.3-7.38a29.68,29.68,0,0,1,17.72,3.69,21.19,21.19,0,0,1,4.1,2.94c.61.67,1.19,1.33,1.73,2,10.5,12.83,7.88,24.91,2.61,39.51l-1.41.53s-7.9-7.84-9.54-9.7c-3.25-3.68-6.81-2.49-11.28-4.2s-6.68-5.5-6.87-8c0,0,3.2-5.59-3.09-5.74a8.91,8.91,0,0,0-1.93.63L496,446s-1.65-2.73-7.6-3.41C483.89,442.18,481.45,440.67,481.86,437.94Z"/><path class="cls-2" d="M496.06,446.1a8.91,8.91,0,0,1,1.93-.63c6.29.15,3.09,5.74,3.09,5.74.19,2.51,2.4,6.3,6.87,8s8,.52,11.28,4.2c1.64,1.86,9.54,9.7,9.54,9.7l-1.85.69s-8,5.24-13.73,6c-4.52.61-5.47-.69-8,1.81l-5.28,3.62L498,480.1l-10.77.58c-.86.53-7.9,3.25-7.75-8.48,0,0,0-5-2.42-6.82-3.81-2.87-13.79-4.06-21.41-10.4a37,37,0,0,0,4-4.57h0c.51-.31,18.87-11.75,13.83-37,7.94,18.52.09,25.54,8.36,24.56-.41,2.73,2,4.24,6.53,4.61,5.95.68,7.6,3.41,7.6,3.41Zm11.63,30.12c1.53-.13,2.72-.77,2.67-1.44s-1.34-1.09-2.88-1-2.72.78-2.67,1.44S506.16,476.35,507.69,476.22Z"/><path d="M510.36,474.78c.05.67-1.14,1.31-2.67,1.44s-2.82-.31-2.88-1,1.14-1.31,2.67-1.44S510.3,474.12,510.36,474.78Z"/><path class="cls-2" d="M450,547.09c2.33.15,4.09.24,4.09.24v.41a2.05,2.05,0,0,1-2.05,2h-7c2.88.49,5.57.82,5.57.82l-.47.71a2.1,2.1,0,0,1-1.74.93h-8.54s-.18,1.64-1.46,1.64-7.65-.36-12-2.37c0,0-20,.46-22.19-1.73s-2.33-12.42-4.94-23.18c0,0-4.07-20.19-5.21-28s-5.38-21.1-1.14-23.58l5.62-5.26c3,1.64,5.24,3,6.13,3.36,1.81.75,16.92,4.95,23.11-5.15,3.57-5.82,1.42-16.59-1-24.68a33,33,0,0,1,7.83-5.2,28.72,28.72,0,0,0,3.44-2.21l-.53-.42c-8.25-30,4.11-34.41,4.11-34.41,12.87-7.7,24.49-.86,29.85,8a.41.41,0,0,1,.05.09q1.15,2.22,2,4.26h0c5,25.27-13.32,36.71-13.83,37h0a37,37,0,0,1-4,4.57c-5.52,5.33-11.07,7.21-14.4,8.79-2.48,1.18-8.92,7-17.55,13.81s-9,8.47-9,8.47c-4.66,19.06-5,51.1-1.68,53.55s14.44,3.2,18,3.86,19.59,1.88,19.59,1.88l-.63,1.74Z"/><path class="cls-3" d="M460.48,392.57A99.06,99.06,0,0,1,471.43,409c-5.36-8.83-17-15.67-29.85-8,0,0-12.36,4.42-4.11,34.41l.53.42a28.72,28.72,0,0,1-3.44,2.21,33,33,0,0,0-7.83,5.2,103.9,103.9,0,0,0-3.79-10.45c-8-23-13.69-38.76-21.36-51.44,0,0,6.15-9.16,6.15-20.23a46.64,46.64,0,0,0-2.23-13.09c8.52,5.43,16.27,10.84,16.27,10.84C437.57,367.55,460.48,392.57,460.48,392.57Z"/><path class="cls-4" d="M401.58,381.4c7.67,12.68,13.33,28.47,21.36,51.44a103.9,103.9,0,0,1,3.79,10.45c2.46,8.09,4.61,18.86,1,24.68-6.19,10.1-21.3,5.9-23.11,5.15-.89-.38-3.12-1.72-6.13-3.36a87.67,87.67,0,0,0-11-5.21c-8.14-3.09-36.18-17.36-50.33-22,1-10.26,5.55-16.23,5.55-16.23,3,.47,5.79.88,8,1.24,7.71,1.29,15.91,3.45,28.46,4.95l.05-.39c-4.24-3.9-18-24.68-18-24.68a143.2,143.2,0,0,1-11.65-27.08l-.88.28s-21.53-6.23-33-9.36-35.4-19-42.35-21.29-8.25-3.6-12.81-5.77-6.74-7.17-13.69-9A202.71,202.71,0,0,1,216,324a97.6,97.6,0,0,0-20.84-6.22,21.82,21.82,0,0,1,2-17.12q3.56.36,7.75.75c37.58,3.47,42.36,7.6,52.57,12.38s18.24,8.47,30.84,10.86,35.18,9.12,43.65,10.57c5.87,1,12.76-1.33,16.44-2.86,2.27-.94,5.77-2.5,8.2-2.88,21.1-3.32,25.85,6.75,25.85,6.75a40.25,40.25,0,0,1,5.11,1.67c4.27,1.7,11.35,5.93,18,10.15a46.64,46.64,0,0,1,2.23,13.09C407.73,372.24,401.58,381.4,401.58,381.4Z"/><path class="cls-2" d="M277.66,433.24l-.54-.81a1.66,1.66,0,0,1,0-1.87,1.68,1.68,0,0,1,1.35-.69h.14l2.14.19.87-.65a3.27,3.27,0,0,1,0-.53,2.89,2.89,0,0,1,1.79-2.67l1.85-.76c4.88-2,6.84-1.8,16.45-10.92s15.64,2.77,18.57,6c2.2,2.45,13.36,4.35,22.49,5.76,0,0-4.57,6-5.55,16.23-9-2.94-30-4.08-35.19-3.14-3.11.56-9.05,2.63-13.32,4.21a24.76,24.76,0,0,1-10.55,1.44l-1.86-.16h-4.4a3,3,0,0,1-1.52-.41l-3.69-2.19a2.48,2.48,0,0,1-.58-3.8l1-1,.62-.28-.23-.5a1.53,1.53,0,0,1,.63-2,1.49,1.49,0,0,1,.78-.22,1.55,1.55,0,0,1,1.4.91l-.06-.12a1.6,1.6,0,0,1,2.81-1.53l.7,1.06a1.62,1.62,0,0,1,.5-2.26l.35-.21a1.61,1.61,0,0,1,1.68,0l1,.58A3.75,3.75,0,0,0,277.66,433.24Z"/><path class="cls-2" d="M197.12,300.69a21.82,21.82,0,0,0-2,17.12c-8-1.52-15.14-2-18.25-1.25-5.87,1.43-6.3,1.82-9.34,5.29a61.54,61.54,0,0,0-5.13,7.34,22.9,22.9,0,0,1-4.82,5.61l-4.27,3.59-.1.09L151.63,340a2.14,2.14,0,0,1-2.72.21,2.16,2.16,0,0,1-.8-2.52l.4-1.11a1.91,1.91,0,0,1,.3-.54l2.32-3.15a2.17,2.17,0,0,0,.27-2.06,6.09,6.09,0,0,1,.48-5.69c2.17-3,3-10.86,3.26-14.77s-2.18-6.73-1.09-13.25,5.65-5.86,10.64-3.47C169.32,295.83,167.62,297.67,197.12,300.69Z"/><path class="cls-5" d="M428.58,547.52s3.09,1.45,4.92,2.55a32.45,32.45,0,0,0,6.37,2.18s-.18,1.64-1.46,1.64-7.65-.36-12-2.37c0,0-20,.46-22.19-1.73s-2.33-12.42-4.94-23.18c0,0-4.07-20.19-5.21-28s-5.38-21.1-1.14-23.58l5.62-5.26h0"/><path class="cls-5" d="M445,549.79c-1.41-.24-2.86-.52-4.06-.82-3.65-.91-5.65-1.64-5.65-1.64"/><path class="cls-5" d="M439.87,552.25h8.54a2.1,2.1,0,0,0,1.74-.93l.47-.71s-2.69-.33-5.57-.82"/><path class="cls-5" d="M445,549.79h7a2.05,2.05,0,0,0,2.05-2v-.41s-1.76-.09-4.09-.24c-3.38-.23-8-.6-10.12-1"/><path class="cls-5" d="M459.67,450.4c6.67-8.95,6-12.53,6-12.53"/><path class="cls-5" d="M450,547.08l.63-1.74s-16.07-1.22-19.59-1.88-14.56-1.32-18-3.86-3-34.49,1.68-53.55c0,0,.32-1.63,9-8.47s15.07-12.63,17.55-13.81c3.33-1.58,8.88-3.46,14.4-8.79a37,37,0,0,0,4-4.57"/><path class="cls-5" d="M501.08,451.21s3.2-5.59-3.09-5.74a8.91,8.91,0,0,0-1.93.63,8.57,8.57,0,0,0-5.13,6.16s-.18,3.44,3.37,1.17"/><path class="cls-5" d="M486.55,455.34s-5.51,1.55-5.78,6.65"/><path class="cls-5" d="M528.77,473.12s-7.9-7.84-9.54-9.7c-3.25-3.68-6.81-2.49-11.28-4.2s-6.68-5.5-6.87-8"/><path class="cls-5" d="M528.3,432.84s6.72.09,8-7.89-8-12-13.1-10.63c-3.67,1-9,8-1.4,13.72"/><path class="cls-5" d="M496,446s-1.65-2.73-7.6-3.41c-4.5-.37-6.94-1.88-6.53-4.61.23-1.61,1.47-3.64,3.86-6.11,6.45-6.67,18.3-7.38,18.3-7.38"/><path class="cls-5" d="M504,424.45a29.68,29.68,0,0,1,17.72,3.69,21.19,21.19,0,0,1,4.1,2.94c.61.67,1.19,1.33,1.73,2,10.5,12.83,7.88,24.91,2.61,39.51l-1.41.53-1.85.69s-8,5.24-13.73,6c-4.52.61-5.47-.69-8,1.81l-5.28,3.62L498,480.1l-10.77.58c-.86.53-7.9,3.25-7.75-8.48,0,0,0-5-2.42-6.82-3.81-2.87-13.79-4.06-21.41-10.4h0"/><path class="cls-5" d="M267.07,437.55l-1,1a2.48,2.48,0,0,0,.58,3.8l3.69,2.19a3,3,0,0,0,1.52.41h4.4l1.86.16a24.76,24.76,0,0,0,10.55-1.44C293,442.05,298.9,440,302,439.42c5.21-.94,26.2.2,35.19,3.14,14.15,4.63,42.19,18.9,50.33,22a87.67,87.67,0,0,1,11,5.21c3,1.64,5.24,3,6.13,3.36,1.81.75,16.92,4.95,23.11-5.15,3.57-5.82,1.42-16.59-1-24.68a103.9,103.9,0,0,0-3.79-10.45c-8-23-13.69-38.76-21.36-51.44a85.94,85.94,0,0,0-14.05-17.66"/><path class="cls-5" d="M344.33,353.81s.32,10.84,5.23,26.56a143.2,143.2,0,0,0,11.65,27.08s13.78,20.78,18,24.68"/><path class="cls-5" d="M471.43,409c-5.36-8.83-17-15.67-29.85-8,0,0-12.36,4.42-4.11,34.41"/><path class="cls-5" d="M473.5,413.37a22.6,22.6,0,0,0-2-4.26"/><path class="cls-5" d="M473.5,413.37q-.87-2-2-4.26a.41.41,0,0,0-.05-.09,99.06,99.06,0,0,0-10.95-16.45s-22.91-25-38.71-33.65c0,0-7.75-5.41-16.27-10.84-6.62-4.22-13.7-8.45-18-10.15a40.25,40.25,0,0,0-5.11-1.67c-6.87-1.73-11.18-.72-11.18-.72"/><path class="cls-5" d="M481.9,437.94h0c-8.27,1-.42-6-8.36-24.56"/><path class="cls-5" d="M401.58,381.4s6.15-9.16,6.15-20.23a46.64,46.64,0,0,0-2.23-13.09"/><path class="cls-5" d="M382.42,336.26s-4.75-10.07-25.85-6.75c-2.43.38-5.93,1.94-8.2,2.88-3.68,1.53-10.57,3.86-16.44,2.86-8.47-1.45-31.06-8.18-43.65-10.57s-20.64-6.08-30.84-10.86-15-8.91-52.57-12.38q-4.2-.39-7.75-.75c-29.5-3-27.8-4.86-32.43-7.07-5-2.39-9.55-3-10.64,3.47s1.3,9.34,1.09,13.25-1.09,11.73-3.26,14.77a6.09,6.09,0,0,0-.48,5.69,2.17,2.17,0,0,1-.27,2.06L148.81,336a1.91,1.91,0,0,0-.3.54l-.4,1.11a2.16,2.16,0,0,0,.8,2.52,2.14,2.14,0,0,0,2.72-.21l1.57-1.49.1-.09,4.27-3.59a22.9,22.9,0,0,0,4.82-5.61,61.54,61.54,0,0,1,5.13-7.34c3-3.47,3.47-3.86,9.34-5.29,3.11-.76,10.27-.27,18.25,1.25A97.6,97.6,0,0,1,216,324a202.71,202.71,0,0,0,30.84,11.22c7,1.81,9.12,6.8,13.69,9s5.86,3.5,12.81,5.77,30.84,18.16,42.35,21.29,33,9.36,33,9.36"/><path class="cls-5" d="M197.12,300.69a21.82,21.82,0,0,0-2,17.12"/><path class="cls-5" d="M441.13,426.18s4.05,4.23-3.13,9.7a28.72,28.72,0,0,1-3.44,2.21,33,33,0,0,0-7.83,5.2"/><path class="cls-5" d="M270.49,436l.45,1a1.54,1.54,0,0,0,.55.66l3.32,2.2"/><path class="cls-5" d="M272.26,441.64l-3.19-2a1.59,1.59,0,0,1-.59-.67l-.79-1.72-.23-.5a1.53,1.53,0,0,1,.63-2,1.49,1.49,0,0,1,.78-.22,1.55,1.55,0,0,1,1.4.91"/><path class="cls-5" d="M270.49,436l-.22-.49-.06-.12a1.6,1.6,0,0,1,2.81-1.53l.7,1.06.11.18a4.75,4.75,0,0,0,.92,1,4.56,4.56,0,0,0,2.87,1h.77"/><path class="cls-5" d="M273.72,434.9a1.62,1.62,0,0,1,.5-2.26l.35-.21a1.61,1.61,0,0,1,1.68,0l1,.58a3.75,3.75,0,0,0,.44.24,5.91,5.91,0,0,0,2.11.57l1.56.12"/><path class="cls-5" d="M277.7,433.29l0-.05-.54-.81a1.66,1.66,0,0,1,0-1.87,1.68,1.68,0,0,1,1.35-.69h.14l2.14.19.87-.65a3.27,3.27,0,0,1,0-.53,2.89,2.89,0,0,1,1.79-2.67l1.85-.76c4.88-2,6.84-1.8,16.45-10.92s15.64,2.77,18.57,6c2.2,2.45,13.36,4.35,22.49,5.76,3,.47,5.79.88,8,1.24,7.71,1.29,15.91,3.45,28.46,4.95q2.65.32,5.59.59c15.8,1.47,27.46,15.31,27.46,15.31"/><path class="cls-5" d="M342.75,426.33s-4.57,6-5.55,16.23"/><path class="cls-5" d="M459.66,450.41h0c.51-.31,18.87-11.75,13.83-37h0"/></svg>