<svg id="Layer_1" data-name="Layer 1" xmlns="http://www.w3.org/2000/svg" viewBox="0 0 700 700"><defs><style>.cls-1{fill:#feae63;}.cls-2{fill:#99abcc;}.cls-3{fill:#120c0c;}.cls-4{fill:#c4e7f9;}.cls-5{fill:none;stroke:#000;stroke-linecap:round;stroke-linejoin:round;stroke-width:2.3px;}</style></defs><title>Yoga_poses_2020_color</title><path class="cls-1" d="M460.39,372.16c1.95,11.73,6.51,22.63,4.23,39-2.24,16.12-4.17,16.25-4.23,16.25a10.91,10.91,0,0,0-3.15,4.11,2.69,2.69,0,0,1-2.48,1.75,2.65,2.65,0,0,1-2.58-2.07,11.23,11.23,0,0,1,.39-6.16c1.63-4.67,1.95-7.13-1-13.88s-8.47-9.59-11.4-13.39-6.6-8.79,0-13.79c3.68-2.79,4.59-8.06,3.64-13.87,0,0,8.53,2.24,16-1.74C460,369.79,460.21,371.07,460.39,372.16Z"/><path class="cls-2" d="M376.33,322.14c-1.83,9.39-15.23,18.42-21.73,20.24s-11.16-1.62-17.66,4.27a8.58,8.58,0,0,0-2.31,3.35c-1.63-4.25-8.79-7.16-15.31-14.65S305,328.11,305,328.11c2.51-3.56,4.76-6.52,6.8-9.38,4.89-6.84,13.26-17.59,18.36-21.5,3.24-2.49,8.05-4.18,14.11-6.18,3.47-1.14,7.35-2.38,11.59-3.92,11.65-4.23,29.43-9.77,52.63-8.79s42.42,1.3,44.38,9.12,2.6,13.68,2.28,17.92a57.13,57.13,0,0,0,.08,14.66c.81,7.38,2.76,34.59,4.57,48.34-7.47,4-16,1.74-16,1.74a38,38,0,0,0-3.16-10c-4.24-9.06-17.59-33.16-8-53.13a60.84,60.84,0,0,0-17.27,5.53C397.19,322.14,376.33,322.14,376.33,322.14Z"/><path class="cls-1" d="M328,428.87l-1.59-.09a12.84,12.84,0,0,1-2.72-1.8c-4.38-3.71-6.36-9.75-6.36-9.75a31.91,31.91,0,0,1,11.24-31.06,28.38,28.38,0,0,1,15.15-3.73c2.1,3.91,4.38,7.55,6.31,10.7,3.72,6.09,5,8.73,5.21,14.34a16.47,16.47,0,0,0,.57,3.69,16.48,16.48,0,0,1-3.88,12.3,34.5,34.5,0,0,1-.18,3.66,41.6,41.6,0,0,1-3,12.93c-2.3,5.2-3.73,12.91-4.56,19s-1.64,12.67-2.12,17.15a33.39,33.39,0,0,1,12.86.59s21.41,5.66,29.93,6l8.53.36c4.21-.09,13.08-.09,15-.36a6.13,6.13,0,0,1,3.48,1.46,15.14,15.14,0,0,0,7.13,2.74c2.47.55,14.36,4.21,14.36,4.21.37,2.56-2.56,2.39-2.56,2.39,0,.9-1.46,1.45-1.46,1.45a28.34,28.34,0,0,1-7.87-.55c.64,1.19-.73,2.2-.73,2.2l-8.51-.73c-2-.19-5.85-.28-12.8-.19s-8.69-1.19-10.8-1.46-4.41-.34-4.41-.34-32.67,1.13-48.71,1.13c-3,.32-6.29,1.09-7-1.51a148.78,148.78,0,0,1-5.23-34.4C322.9,447,326.31,435.83,328,428.87Z"/><path class="cls-3" d="M395,400.84c13.1,8,14.58,19.41,14.56,33.86l-1.08.92s-9.44-4.42-11.47-5.54c-4-2.21-6.79,0-11.27-.14s-7.62-2.74-8.58-4.89c0,0,1.05-5.93-4.54-4.08a8.54,8.54,0,0,0-1.5,1.16l-.11-.1s-4.18-3.08-7.77-.61a6.68,6.68,0,0,1-3,1.23c-1.74-.3-2.12-2.19-1.59-5.15a31.37,31.37,0,0,1,1.07-4.1,23.23,23.23,0,0,1,11.62-12.86,27.84,27.84,0,0,1,16.78-2.35,20.28,20.28,0,0,1,4.55,1.3C393.49,399.93,394.29,400.38,395,400.84Z"/><path class="cls-1" d="M371.16,422.13a8.54,8.54,0,0,1,1.5-1.16c5.59-1.85,4.54,4.08,4.54,4.08,1,2.15,4.1,4.8,8.58,4.89s7.24-2.07,11.27.14c2,1.12,11.47,5.54,11.47,5.54l-1.41,1.19s-5.39,7.14-10.21,9.63c-3.79,2-5,1.12-6.45,4.11l-3.5,4.86-3.34-3.93-9.31,3.92c-.59.73-5.94,5.36-9.51-5a7.49,7.49,0,0,0-4.91-4.9c-4.06-1.37-9.45-2.55-11.12-5.41a41.6,41.6,0,0,0,3-12.93,34.5,34.5,0,0,0,.18-3.66,16.48,16.48,0,0,0,3.88-12.3,20.55,20.55,0,0,0,2.86,6.33c-.53,3-.15,4.85,1.59,5.15a6.68,6.68,0,0,0,3-1.23c3.59-2.47,7.77.61,7.77.61ZM390.92,445c1.31-.59,2.16-1.54,1.9-2.1s-1.53-.55-2.84.05-2.16,1.54-1.9,2.11S389.61,445.6,390.92,445Z"/><path class="cls-3" d="M399.93,390.79c1.41,7.43-4.54,9.47-4.54,9.47l-.35.58c-.75-.46-1.55-.91-2.38-1.35a20.28,20.28,0,0,0-4.55-1.3l0-.1c-8.55-2.65-6-10.49-3.1-12.53C389.12,382.7,398.53,383.36,399.93,390.79Z"/><path d="M392.82,442.9c.26.56-.59,1.51-1.9,2.1s-2.58.63-2.84.06.59-1.51,1.9-2.11S392.56,442.33,392.82,442.9Z"/><path class="cls-1" d="M350.67,148.56a4.5,4.5,0,0,1-1.78,5.32l-1.21.78a3.7,3.7,0,0,0-1.58,2.06c-.67,2.27-1.77,1.24-4.62,6.94-3.26,6.51-4.89,11.4-5.22,21.5s-6.84,7.82-12.05,7.49c-1.76-.11-4.35,3.37-7.28,8.51-6.64-9-14.55-9.16-14.55-9.16,6.84-8.79,8.8-8.79,15.81-19.55a52.19,52.19,0,0,1,16.44-16L344.3,150l4-2.28a1.63,1.63,0,0,1,.82-.22A1.66,1.66,0,0,1,350.67,148.56Z"/><path class="cls-4" d="M343.69,382.44a28.38,28.38,0,0,0-15.15,3.73,31.91,31.91,0,0,0-11.24,31.06s2,6,6.36,9.75l-.39.44s-23.17-1.1-26.1-14.82-6.52-24.8-10.75-33.27-1.31-16.29,6.51-31.27A169.12,169.12,0,0,1,305,328.11s7.78-.25,14.29,7.24S333,345.75,334.63,350c-2.28,6,2.11,14.27,4.14,21A63.26,63.26,0,0,0,343.69,382.44Z"/><path class="cls-2" d="M284.48,253.58c5.55,5.53,23.44,14.33,33.86,19.54s26,17.93,26,17.93c-6.06,2-10.87,3.69-14.11,6.18-5.1,3.91-13.47,14.66-18.36,21.5-22.16-6.51-44.64-41.37-48.22-47.24s-8.8-10.42-10.75-19.54,12-16.63,19.13-25.75,23.55-25.4,30.39-34.2c0,0,7.91.19,14.55,9.16-5.72,10-12.74,26.42-17.48,34.82C292.28,248.69,284.48,253.58,284.48,253.58Z"/><path class="cls-5" d="M377.2,425.05s1.05-5.93-4.54-4.08a8.54,8.54,0,0,0-1.5,1.16,8,8,0,0,0-2.58,7.06s.93,3.08,3.35,0"/><path class="cls-5" d="M365.69,433.28s-4.36,3.11-3,7.68"/><path class="cls-5" d="M408.52,435.62s-9.44-4.42-11.47-5.54c-4-2.21-6.79,0-11.27-.14s-7.62-2.74-8.58-4.89"/><path class="cls-5" d="M395.39,400.26s5.95-2,4.54-9.47-10.81-8.09-14.9-5.23c-2.92,2-5.45,9.88,3.1,12.53"/><path class="cls-5" d="M371.05,422s-4.18-3.08-7.77-.61a6.68,6.68,0,0,1-3,1.23c-1.74-.3-2.12-2.19-1.59-5.15a31.37,31.37,0,0,1,1.07-4.1,23.23,23.23,0,0,1,11.62-12.86,27.84,27.84,0,0,1,16.78-2.35,20.28,20.28,0,0,1,4.55,1.3c.83.44,1.63.89,2.38,1.35,13.1,8,14.58,19.41,14.56,33.86l-1.08.92-1.41,1.19s-5.39,7.14-10.21,9.63c-3.79,2-5,1.12-6.45,4.11l-3.5,4.86-3.34-3.93-9.31,3.92c-.59.73-5.94,5.36-9.51-5a7.49,7.49,0,0,0-4.91-4.9c-4.06-1.37-9.45-2.55-11.12-5.41"/><path class="cls-5" d="M326.38,428.78a12.84,12.84,0,0,1-2.72-1.8c-4.38-3.71-6.36-9.75-6.36-9.75a31.91,31.91,0,0,1,11.24-31.06,28.38,28.38,0,0,1,15.15-3.73"/><path class="cls-5" d="M419,487.07a15.14,15.14,0,0,1-7.13-2.74,6.13,6.13,0,0,0-3.48-1.46c-1.92.27-10.79.27-15,.36l-8.53-.36c-8.52-.37-29.93-6-29.93-6a33.39,33.39,0,0,0-12.86-.59c.48-4.48,1.3-11,2.12-17.15s2.26-13.84,4.56-19a41.6,41.6,0,0,0,3-12.93,34.5,34.5,0,0,0,.18-3.66,22.3,22.3,0,0,1,.88-6"/><path class="cls-5" d="M421.48,494.57a28.34,28.34,0,0,0,7.87.55s1.42-.55,1.46-1.45a1.3,1.3,0,0,0-.55-1s-8.41-1.37-10.42-1.92-5.58-.82-7-1.28"/><path class="cls-5" d="M430.81,493.67s2.93.17,2.56-2.39c0,0-11.89-3.66-14.36-4.21"/><path class="cls-5" d="M325.17,412.6s1.46,6.21,3.37,9.51c.62,1.07.23,3.43-.57,6.76-1.66,7-5.07,18.13-4.66,30.4a148.78,148.78,0,0,0,5.23,34.4c.69,2.6,3.94,1.83,7,1.51,16,0,48.71-1.13,48.71-1.13s2.31.07,4.41.34,3.85,1.56,10.8,1.46,10.79,0,12.8.19l8.51.73s1.37-1,.73-2.2c0,0-6.4-1.46-8-1.73a50.92,50.92,0,0,1-5.58-1.83"/><path class="cls-5" d="M351.9,423.47a16.48,16.48,0,0,0,3.88-12.3"/><path class="cls-5" d="M323.27,427.42s-23.17-1.1-26.1-14.82-6.52-24.8-10.75-33.27-1.31-16.29,6.51-31.27A169.12,169.12,0,0,1,305,328.11c2.51-3.56,4.76-6.52,6.8-9.38,4.89-6.84,13.26-17.59,18.36-21.5,3.24-2.49,8.05-4.18,14.11-6.18,3.47-1.14,7.35-2.38,11.59-3.92,11.65-4.23,29.43-9.77,52.63-8.79s42.42,1.3,44.38,9.12,2.6,13.68,2.28,17.92a57.13,57.13,0,0,0,.08,14.66c.81,7.38,2.76,34.59,4.57,48.34.19,1.41.38,2.69.56,3.78,1.95,11.73,6.51,22.63,4.23,39-2.24,16.12-4.17,16.25-4.23,16.25a10.91,10.91,0,0,0-3.15,4.11,2.69,2.69,0,0,1-2.48,1.75,2.65,2.65,0,0,1-2.58-2.07,11.23,11.23,0,0,1,.39-6.16c1.63-4.67,1.95-7.13-1-13.88s-8.47-9.59-11.4-13.39-6.6-8.79,0-13.79c3.68-2.79,4.59-8.06,3.64-13.87a38,38,0,0,0-3.16-10c-4.24-9.06-17.59-33.16-8-53.13a60.84,60.84,0,0,0-17.27,5.53c-18.24,9.6-39.1,9.6-39.1,9.6-1.83,9.39-15.23,18.42-21.73,20.24s-11.16-1.62-17.66,4.27a8.58,8.58,0,0,0-2.31,3.35c-2.28,6,2.11,14.27,4.14,21a63.26,63.26,0,0,0,4.92,11.43c2.1,3.91,4.38,7.55,6.31,10.7,3.72,6.09,5,8.73,5.21,14.34a16.47,16.47,0,0,0,.57,3.69,20.55,20.55,0,0,0,2.86,6.33"/><path class="cls-5" d="M368.5,319.39s4.62,2.87,7.83,2.75"/><path class="cls-5" d="M305,328.11s7.78-.25,14.29,7.24S333,345.75,334.63,350"/><path class="cls-5" d="M448.83,379.63l2.06,7.29a5.1,5.1,0,0,0,3.42,3.49l1.76.54"/><path class="cls-5" d="M344.3,291.05s-15.53-12.71-26-17.93-28.31-14-33.86-19.54-8.16-7.82-8.16-7.82"/><path class="cls-5" d="M284.48,253.58s7.8-4.89,15-17.6c4.74-8.4,11.76-24.78,17.48-34.82,2.93-5.14,5.52-8.62,7.28-8.51,5.21.33,11.73,2.61,12.05-7.49s2-15,5.22-21.5c2.85-5.7,3.95-4.67,4.62-6.94a3.7,3.7,0,0,1,1.58-2.06l1.21-.78a4.5,4.5,0,0,0,1.78-5.32,1.66,1.66,0,0,0-1.55-1.09,1.63,1.63,0,0,0-.82.22l-4,2.28-9.67,6.52a52.19,52.19,0,0,0-16.44,16c-7,10.76-9,10.76-15.81,19.55S279.16,217.07,272,226.2,250.91,242.82,252.86,252s7.17,13.68,10.75,19.54,26.06,40.73,48.22,47.24"/><path class="cls-5" d="M443.83,370.12s8.53,2.24,16-1.74h0"/><path class="cls-5" d="M302.38,192s7.91.19,14.55,9.16"/></svg>