<svg id="Layer_1" data-name="Layer 1" xmlns="http://www.w3.org/2000/svg" viewBox="0 0 700 700"><defs><style>.cls-1{fill:#feae63;}.cls-2{fill:#392328;}.cls-3{fill:#99abcc;}.cls-4{fill:#c4e7f9;}.cls-5{fill:none;stroke:#000;stroke-linecap:round;stroke-linejoin:round;stroke-width:2.3px;}</style></defs><title>Yoga_poses_2020_color</title><path class="cls-1" d="M346.61,546.71s5.93,1.37,12.33,3.11,27.25,2,31.51,1.65,8.46.91,12.66.82,13.09-.09,15-.37a6.08,6.08,0,0,1,3.47,1.47,15.24,15.24,0,0,0,7.14,2.74c2.47.55,14.36,4.21,14.36,4.21.36,2.56-2.56,2.39-2.56,2.39,0,.89-1.47,1.45-1.47,1.45a28.77,28.77,0,0,1-7.86-.55c.64,1.19-.74,2.2-.74,2.2s-6.49-.55-8.5-.74-5.86-.27-12.81-.18-8.69-1.19-10.79-1.46-4.41-.34-4.41-.34-21.21.65-30.77,2.71-31.81,1.3-36.2,1.3c0,0-2.33,1-1.81-12.41s1.29-41.52,6.46-56.44c2.07-6,.1-8.44-3.41-10.22l.27-.51a31.9,31.9,0,0,1,11.24-31.05c15.81-13,29.59,11.23,27.16,28.57-.87,1-1.59,1.69-2.17,2.26-2.54,2.51-2.67,2.24-3,6.25-.46,4.94-.9,10.34-3.2,15.55-.49,1.11-1.11,2.32-1.78,3.61-2.5,4.76-5.8,10.49-6.45,15.32C349.42,534.18,347.09,542.23,346.61,546.71Z"/><path class="cls-2" d="M410.39,468.9c5-.5,12.86,4.66,10.46,11.83s-8.58,6.06-8.58,6.06l-.68.17c-.41-.72-.85-1.44-1.33-2.18a19.92,19.92,0,0,0-3.34-3.34l.07-.08C400.82,474.87,406.85,469.26,410.39,468.9Z"/><path class="cls-2" d="M411.59,487c7.66,13.44,3.39,24.17-3.71,36.82l-1.39.27c-.3-.42-6.11-8.5-7.31-10.42-2.44-3.89-5.9-3.35-9.77-5.61s-5.32-6.11-5.11-8.46c0,0,3.81-4.66-2-5.77a8.49,8.49,0,0,0-1.86.27l-.06-.13s-2.15-4.73-6.49-4.32a6.68,6.68,0,0,1-3.26-.42,1.84,1.84,0,0,1-.74-1.63c.06-1.66,1.88-4,4.79-6.7a23.25,23.25,0,0,1,16.42-5.56,27.66,27.66,0,0,1,15.79,6.14,19.92,19.92,0,0,1,3.34,3.34C410.74,485.52,411.18,486.24,411.59,487Z"/><path class="cls-1" d="M380.47,494.06a8.49,8.49,0,0,1,1.86-.27c5.78,1.11,2,5.77,2,5.77-.21,2.35,1.24,6.19,5.11,8.46s7.33,1.72,9.77,5.61c1.2,1.92,7,10,7.31,10.42l-1.81.36s-8.18,3.6-13.6,3.43c-4.27-.13-4.95-1.47-7.64.45L378,530.83l-1-5.07-10-1.11c-.87.35-7.79,1.78-5.85-9a19.4,19.4,0,0,1-4.42-2.89c.67-1.29,1.29-2.5,1.78-3.61,2.3-5.21,2.74-10.61,3.2-15.55.37-4,.5-3.74,3-6.25l.8.22c1.77,1.83,4.13,0,4.13,0l.27,0a1.84,1.84,0,0,0,.74,1.63,6.68,6.68,0,0,0,3.26.42c4.34-.41,6.49,4.32,6.49,4.32Zm8.77,28.7c.05-.62-1.07-1.22-2.5-1.34s-2.64.29-2.69.92,1.07,1.22,2.5,1.33S389.19,523.38,389.24,522.76Z"/><path d="M386.74,521.42c1.43.12,2.55.72,2.5,1.34s-1.25,1-2.69.91-2.55-.71-2.5-1.33S385.3,521.31,386.74,521.42Z"/><path class="cls-3" d="M360.67,385.83c-1.56.69-20.06,8.19-46.13-12.09,3.76-15.57,8.32-24.82,6.7-35.48-1.81-11.89-5.6-34.08,3.19-83.21,0,0,1.29-15.51,3.88-23.53s3.27-12.84,4.56-37.66c1.2-23,2.4-28.47,3.18-39.85h0c12.77-4.52,19.37,0,19.37,0h0c.27,2.26.66,4.7,1.12,7.29,2.34,13,8.61,30.34,7.49,41.13s-8,29.89-8.13,38,2,36.17,4.2,46.75,3.28,33.28,5.42,38.27c0,0,12,16.06,10.22,31.22-1.2,9.95-9.11,19.22-14.6,29.15Z"/><path class="cls-4" d="M365.72,454.64s5.84,25.3,1.17,30.42c2.43-17.34-11.35-41.57-27.16-28.57a31.9,31.9,0,0,0-11.24,31.05l-.27.51c-5.23-2.65-13.9-3.75-17.55-12.79-4.83-11.91.62-11.78-7.24-37.74-3.52-11.6,6-38.94,9.84-58.07.4-2,.83-3.9,1.27-5.71,26.07,20.28,44.57,12.78,46.13,12.09l.49,0c-2.87,5.2-5.09,10.58-5.32,16.33C355.14,418.92,361.66,434.78,365.72,454.64Z"/><path class="cls-1" d="M339.76,88.34l.09,0c.74-.11,1.77-.23,2.25.72.81,1.63-1.22,3.41-1.22,3.41a11.65,11.65,0,0,1,4,9.26c-.31,5.91,9.84,16.23,9.84,16.23s5.13,6,7.58,8.15,3.05,8.14-2.65,10.58c-4.57,2-5.28,8.23-4.17,17.34h0s-6.6-4.52-19.37,0h0c.06-.89.12-1.83.18-2.81.78-13.45-5.11-11.83-4.86-33,0,0,.65-19.87.75-22.21s2.95-10.89,2.95-10.89,2.34-1.63,4,1.22a4.78,4.78,0,0,1,0,1.83C339,88.44,339.29,88.4,339.76,88.34Z"/><path class="cls-5" d="M384.3,499.56s3.81-4.66-2-5.77a8.49,8.49,0,0,0-1.86.27,8.07,8.07,0,0,0-5.71,4.91s-.69,3.15,2.94,1.6"/><path class="cls-5" d="M370.24,501.14s-5.32.59-6.36,5.25"/><path class="cls-5" d="M406.5,524.06h0c-.3-.42-6.11-8.5-7.31-10.42-2.44-3.89-5.9-3.35-9.77-5.61s-5.32-6.11-5.11-8.46"/><path class="cls-5" d="M412.27,486.79s6.19,1.11,8.58-6.06-5.5-12.33-10.46-11.83c-3.54.36-9.57,6-3.4,12.46"/><path class="cls-5" d="M380.41,493.93s-2.15-4.73-6.49-4.32a6.68,6.68,0,0,1-3.26-.42,1.84,1.84,0,0,1-.74-1.63c.06-1.66,1.88-4,4.79-6.7a23.25,23.25,0,0,1,16.42-5.56,27.66,27.66,0,0,1,15.79,6.14,19.92,19.92,0,0,1,3.34,3.34c.48.74.92,1.46,1.33,2.18,7.66,13.44,3.39,24.17-3.71,36.82l-1.39.27-1.81.36s-8.18,3.6-13.6,3.43c-4.27-.13-4.95-1.47-7.64.45L378,530.83l-1-5.07-10-1.11c-.87.35-7.79,1.78-5.85-9a19.4,19.4,0,0,1-4.42-2.89"/><path class="cls-5" d="M339.76,88.34c-.47.06-.8.1-.72-.22a4.78,4.78,0,0,0,0-1.83c-1.63-2.85-4-1.22-4-1.22s-2.85,8.55-2.95,10.89-.75,22.21-.75,22.21c-.25,21.2,5.64,19.58,4.86,33-.06,1-.12,1.92-.18,2.81-.78,11.38-2,16.84-3.18,39.85-1.29,24.82-2,29.65-4.56,37.66s-3.88,23.53-3.88,23.53c-8.79,49.13-5,71.32-3.19,83.21,1.62,10.66-2.94,19.91-6.7,35.48-.44,1.81-.87,3.71-1.27,5.71-3.87,19.13-13.36,46.47-9.84,58.07,7.86,26,2.41,25.83,7.24,37.74,3.65,9,12.32,10.14,17.55,12.79,3.51,1.78,5.48,4.24,3.41,10.22-5.17,14.92-5.94,43-6.46,56.44S327,567.12,327,567.12c4.39,0,26.63.77,36.2-1.3S394,563.11,394,563.11s2.3.06,4.41.34,3.84,1.55,10.79,1.46,10.8,0,12.81.18,8.5.74,8.5.74,1.38-1,.74-2.2c0,0-6.41-1.46-8-1.74a48.11,48.11,0,0,1-5.58-1.83"/><path class="cls-5" d="M428.73,556.13a15.24,15.24,0,0,1-7.14-2.74,6.08,6.08,0,0,0-3.47-1.47c-1.92.28-10.8.28-15,.37s-8.41-1.19-12.66-.82-25.11.09-31.51-1.65-12.33-3.11-12.33-3.11c.48-4.48,2.81-12.53,3.64-18.66.65-4.83,3.95-10.56,6.45-15.32.67-1.29,1.29-2.5,1.78-3.61,2.3-5.21,2.74-10.61,3.2-15.55.37-4,.5-3.74,3-6.25.58-.57,1.3-1.3,2.17-2.26,4.67-5.12-1.17-30.42-1.17-30.42-4.06-19.86-10.58-35.72-9.88-52.46.23-5.75,2.45-11.13,5.32-16.33,5.49-9.93,13.4-19.2,14.6-29.15,1.83-15.16-10.22-31.22-10.22-31.22-2.14-5-3.18-27.68-5.42-38.27s-4.3-38.6-4.2-46.75,7-27.24,8.13-38-5.15-28.1-7.49-41.13c-.46-2.59-.85-5-1.12-7.29-1.11-9.11-.4-15.38,4.17-17.34,5.7-2.44,5.09-8.45,2.65-10.58s-7.58-8.15-7.58-8.15-10.15-10.32-9.84-16.23a11.65,11.65,0,0,0-4-9.26s2-1.78,1.22-3.41c-.48-1-1.51-.83-2.25-.72"/><path class="cls-5" d="M431.2,563.63a28.77,28.77,0,0,0,7.86.55s1.43-.56,1.47-1.45a1.31,1.31,0,0,0-.55-1s-8.42-1.37-10.43-1.92-5.58-.82-7-1.28"/><path class="cls-5" d="M440.53,562.73s2.92.17,2.56-2.39c0,0-11.89-3.66-14.36-4.21"/><path class="cls-5" d="M346.61,546.71a31.51,31.51,0,0,1-2,6.89"/><path class="cls-5" d="M328.49,487.54a31.9,31.9,0,0,1,11.24-31.05c15.81-13,29.59,11.23,27.16,28.57"/><path class="cls-5" d="M360.78,385.78l-.11.05c-1.56.69-20.06,8.19-46.13-12.09l-.06-.05"/><path class="cls-5" d="M355.43,154s-6.6-4.52-19.37,0"/><path class="cls-5" d="M369.65,487.54s-2.36,1.83-4.13,0"/><path class="cls-5" d="M339.85,88.32l-.09,0A3.25,3.25,0,0,0,337.37,90"/></svg>