<svg id="Layer_1" data-name="Layer 1" xmlns="http://www.w3.org/2000/svg" viewBox="0 0 700 700"><defs><style>.cls-1{fill:#feae63;}.cls-2{fill:#392328;}.cls-3{fill:#c4e7f9;}.cls-4{fill:#99abcc;}.cls-5{fill:none;stroke:#000;stroke-linecap:round;stroke-linejoin:round;stroke-width:2.3px;}</style></defs><title>Yoga_poses_2020_color</title><path class="cls-1" d="M483,275.67c.3,1,.62,2.18,1,3.46s.62,2.33.85,3.42c2.1,10-.28,15.87-2,20.58-2,5.21-.22,15.52,0,24.1s.91,15.53.91,15.53c4.45,0,25.69,3.59,29.93,3.91s15.1-.65,18.46-.65,8-1.9,8-1.9l7.7-3.85a6,6,0,0,1,4.9-.21l2.71,1.07v.25c1.77-.1,3.76-.24,4.72-.35,2-.22,3.74,3.61,2.44,10.34a23.63,23.63,0,0,1-4.23,9.39,4.56,4.56,0,0,1-3.51,1.84c-2,.06-5.05.14-7.08.14-3.26,0-7-1.95-8.25-2.17s-3.48.87-6.14.87-7.55.65-7.55.65c-15.44,1.66-43.34,1.29-51.54,1.14a7.92,7.92,0,0,1-7.61-6.3c-.21-1-.42-2.08-.58-3.09-.43-2.82-10.58-26.25-8.9-44.74.72-7.86.22-13.17-.48-16.54l-.71.14s-11.52-3-15.75-19.11c-3.88-14.75,5-19.15,6.61-19.79l7.72-1.1c11.73-1.67,14.66-.29,22,2A13.2,13.2,0,0,0,478,255c12.57,7,5.05,20.63,5.05,20.63Z"/><path class="cls-2" d="M551.47,259l-1,1s-9.84-3.43-12-4.34c-4.23-1.8-6.76.64-11.23,1s-7.86-2-9-4c0,0,.45-6-4.92-3.61a9,9,0,0,0-3.33,5.26A21.66,21.66,0,0,1,499,256a5.48,5.48,0,0,1-4.45-3.33,5.38,5.38,0,0,1-.34-3C496,238.75,510,228.9,510,228.9a27.85,27.85,0,0,1,16.46-4,20.45,20.45,0,0,1,4.66.83c.88.35,1.71.72,2.51,1.11C547.4,233.44,550,244.65,551.47,259Z"/><path class="cls-1" d="M510,254.35a9,9,0,0,1,3.33-5.26c5.37-2.4,4.92,3.61,4.92,3.61,1.17,2,4.56,4.36,9,4s7-2.8,11.23-1c2.13.91,12,4.34,12,4.34l-1.28,1.34S544.56,269,540,272c-3.57,2.33-4.9,1.62-6,4.74l-3,5.19-3.71-3.58-8.87,4.84c-.52.79-5.37,5.93-10-4,0,0-1.83-3.13-5.89-.58s-17.74,4-17.74,4c-.23-1.09-.51-2.23-.85-3.42s-.69-2.43-1-3.46h0S490.53,262.05,478,255c7.21,1.41,16.55-2.34,16.55-2.34A5.48,5.48,0,0,0,499,256,21.66,21.66,0,0,0,510,254.35Zm23.91,16.81c1.24-.73,2-1.75,1.68-2.29s-1.58-.38-2.82.34-2,1.75-1.68,2.29S532.68,271.89,533.92,271.16Z"/><path d="M535.6,268.87c.32.54-.44,1.56-1.68,2.29s-2.5.88-2.82.34.44-1.56,1.68-2.29S535.29,268.33,535.6,268.87Z"/><path class="cls-2" d="M533.86,226.2l-.28.61c-.8-.39-1.63-.76-2.51-1.11a20.45,20.45,0,0,0-4.66-.83v-.1c-8.78-1.78-7-9.83-4.35-12.15,3.77-3.26,13.21-3.56,15.35,3.69S533.86,226.2,533.86,226.2Z"/><path class="cls-3" d="M440.23,273.59C444.46,289.71,456,292.7,456,292.7c-5.81,4.68-23,12.16-38.88,8.25-13-3.21-29.13-6.09-47.39-3.79.31-.74,7.43-18,.86-41.31l.08-.9c13.61,1.18,22.4.79,31.46.72,30.12-.25,33.72-.33,44.73-1.87C445.28,254.44,436.35,258.84,440.23,273.59Z"/><path class="cls-1" d="M172.81,367.81a2.4,2.4,0,0,1-2.41,2.4h-.89a1.24,1.24,0,0,0,0-.33,1.81,1.81,0,0,0-1.33-1.74l-8.95-3.71c3.17,1.09,9,1.05,11.9.95a1.59,1.59,0,0,1,1.64,1.59Z"/><path class="cls-4" d="M179.24,325.43a43.54,43.54,0,0,0-15.07,6.81l-.32-.46C153.79,320.42,153,315.07,153,315.07l-.2-.38,13.71-7.09c32.41-17.77,44.33-19.45,57.71-19.65A204.16,204.16,0,0,0,252,285.2c16.34-2.27,35.71-12.33,49.58-14.82s13.66-4.5,21.62-11.79c11-10,20.57-6.46,42.21-4.14,1.83.19,3.57.36,5.24.5l-.08.9c6.57,23.27-.55,40.57-.86,41.31a104.39,104.39,0,0,0-21.35,5s-16.72,8.92-27.37,11.07c-16.07,3.26-45,3.7-56.69,2.18-6.92-.9-9.56-1.52-13.68-2.39-7-1.48-19.55-.87-29.11,2.17S205.23,319.12,179.24,325.43Z"/><path class="cls-1" d="M164.66,369.5a2.2,2.2,0,0,0-1-1.82l-5-3.47c.17.08.36.15.55.22h0l8.95,3.71a1.81,1.81,0,0,1,1.33,1.74,1.24,1.24,0,0,1,0,.33,1.8,1.8,0,0,1-1.77,1.47h-5.26a2.19,2.19,0,0,0,2.18-2.18Z"/><path class="cls-1" d="M162.48,371.68H153c-3.34-.09-10-1.23-13.82-13.36-4.34-13.81-8.47-19-11.29-24.2s.65-8.91,6.95-10.86a125.83,125.83,0,0,0,14.51-6.77l3.45-1.79.2.38s.78,5.35,10.84,16.71l.32.46a27.65,27.65,0,0,0-4.07,3.44c-5.65,7.91-3.26,23.13-3,26.88.06.71.65,1.24,1.57,1.65l5,3.47a2.2,2.2,0,0,1,1,1.82,2.19,2.19,0,0,1-2.18,2.18Z"/><path class="cls-5" d="M518.26,252.7s.45-6-4.92-3.61a9,9,0,0,0-3.33,5.26,7.73,7.73,0,0,0,.1,3.33s1.23,3,3.32-.38"/><path class="cls-5" d="M507.65,262.05s-4,3.53-2.21,7.94"/><path class="cls-5" d="M550.49,260s-9.84-3.43-12-4.34c-4.23-1.8-6.76.64-11.23,1s-7.86-2-9-4"/><path class="cls-5" d="M533.86,226.2s5.71-2.63,3.56-9.89-11.58-6.95-15.35-3.69c-2.7,2.32-4.43,10.37,4.35,12.15"/><path class="cls-5" d="M369.7,297.18v0c.31-.74,7.43-18,.86-41.31"/><path class="cls-5" d="M455,287.6a15,15,0,0,1,1.69,5c.7,3.37,1.2,8.68.48,16.54-1.68,18.49,8.47,41.92,8.9,44.74.16,1,.37,2.1.58,3.09a7.92,7.92,0,0,0,7.61,6.3c8.2.15,36.1.52,51.54-1.14,0,0,4.89-.65,7.55-.65s4.83-1.08,6.14-.87,5,2.17,8.25,2.17c2,0,5.07-.08,7.08-.14a4.56,4.56,0,0,0,3.51-1.84,23.63,23.63,0,0,0,4.23-9.39c1.3-6.73-.49-10.56-2.44-10.34-1,.11-3,.25-4.72.35l-3.43.21"/><path class="cls-5" d="M555.39,341.13l-2.71-1.07a6,6,0,0,0-4.9.21l-7.7,3.85s-4.61,1.9-8,1.9-14.22,1-18.46.65-25.48-3.91-29.93-3.91c0,0-.69-6.95-.91-15.53s-2-18.89,0-24.1c1.76-4.71,4.14-10.56,2-20.58-.23-1.09-.51-2.23-.85-3.42s-.69-2.43-1-3.46L480.52,267"/><path class="cls-5" d="M510,254.35A21.66,21.66,0,0,1,499,256a5.48,5.48,0,0,1-4.45-3.33,5.38,5.38,0,0,1-.34-3C496,238.75,510,228.9,510,228.9a27.85,27.85,0,0,1,16.46-4,20.45,20.45,0,0,1,4.66.83c.88.35,1.71.72,2.51,1.11C547.4,233.44,550,244.65,551.47,259l-1,1-1.28,1.34S544.56,269,540,272c-3.57,2.33-4.9,1.62-6,4.74l-3,5.19-3.71-3.58-8.87,4.84c-.52.79-5.37,5.93-10-4,0,0-1.83-3.13-5.89-.58s-17.74,4-17.74,4"/><path class="cls-5" d="M483,275.67S490.53,262.05,478,255"/><path class="cls-5" d="M153,371.67c-3.34-.09-10-1.23-13.82-13.36-4.34-13.81-8.47-19-11.29-24.2s.65-8.91,6.95-10.86a125.83,125.83,0,0,0,14.51-6.77l3.45-1.79,13.71-7.09c32.41-17.77,44.33-19.45,57.71-19.65A204.16,204.16,0,0,0,252,285.2c16.34-2.27,35.71-12.33,49.58-14.82s13.66-4.5,21.62-11.79c11-10,20.57-6.46,42.21-4.14,1.83.19,3.57.36,5.24.5,13.61,1.18,22.4.79,31.46.72,30.12-.25,33.72-.33,44.73-1.87l7.72-1.1c11.73-1.67,14.66-.29,22,2A13.2,13.2,0,0,0,478,255c7.21,1.41,16.55-2.34,16.55-2.34"/><path class="cls-5" d="M151.14,365.84l3,3.43a1.48,1.48,0,0,1,.32,1.28,1.45,1.45,0,0,1-1.4,1.12"/><path class="cls-5" d="M159.26,364.43c-.19-.07-.38-.14-.55-.22-.92-.41-1.51-.94-1.57-1.65-.3-3.75-2.69-19,3-26.88a27.65,27.65,0,0,1,4.07-3.44,43.54,43.54,0,0,1,15.07-6.81c26-6.31,32.72-7.21,42.27-10.25s22.09-3.65,29.11-2.17c4.12.87,6.76,1.49,13.68,2.39,11.73,1.52,40.62,1.08,56.69-2.18,10.65-2.15,27.37-11.07,27.37-11.07a104.39,104.39,0,0,1,21.35-5c18.26-2.3,34.37.58,47.39,3.79,15.85,3.91,33.07-3.57,38.88-8.25,0,0-11.52-3-15.75-19.11-3.88-14.75,5-19.15,6.61-19.79l.23-.09"/><path class="cls-5" d="M169.55,370.21h.85a2.4,2.4,0,0,0,2.41-2.4V367a1.59,1.59,0,0,0-1.64-1.59c-2.85.1-8.73.14-11.9-.95"/><path class="cls-5" d="M153,371.67h5.49a1.6,1.6,0,0,0,.91-2.92l-3.55-2.45"/><path class="cls-5" d="M158.66,364.18l.05,0,5,3.47a2.2,2.2,0,0,1,1,1.82,2.19,2.19,0,0,1-2.18,2.18h-4"/><path class="cls-5" d="M162.48,371.68h5.26a1.8,1.8,0,0,0,1.77-1.47,1.24,1.24,0,0,0,0-.33,1.81,1.81,0,0,0-1.33-1.74l-8.95-3.71h0l-.6-.25"/><path class="cls-5" d="M153,315.07s.78,5.35,10.84,16.71"/></svg>