<svg id="Layer_1" data-name="Layer 1" xmlns="http://www.w3.org/2000/svg" viewBox="0 0 700 700"><defs><style>.cls-1{fill:#feae63;}.cls-2{fill:#99abcc;}.cls-3{fill:#c4e7f9;}.cls-4{fill:#392328;}.cls-5{fill:none;stroke:#000;stroke-linecap:round;stroke-linejoin:round;stroke-width:2.3px;}</style></defs><title>Yoga_poses_2020_color</title><path class="cls-1" d="M494.86,372.79c3.26,3.58,3.75,11.89,3.58,14s-1.79,3.26-5.37,2.61-2.93.49-7.5.49h-7.65l-.16.08a13.15,13.15,0,0,0-.66-1.23l-4.88-10.42s-3.42-4.72-7-4.56c0,0,13.36-2.12,15.64-2.61a17.81,17.81,0,0,1,5.38,0S491.6,369.21,494.86,372.79Z"/><path class="cls-2" d="M477.76,390a11.08,11.08,0,0,1,.65,7.95c-2.61,9.34-24.55,6.73-30,6.08S407,389.46,407,389.46l-.57,0a65.27,65.27,0,0,0,.05-8c-.62-7.16-.35-12.38-.35-20.52,0-6,.52-9.3.3-14.87h.15s21.05,13.25,27.13,15.64c3.35,1.32,13.23,6.92,21.42,11.68,6.69,3.89,12.25,7.22,12.25,7.22,2.68,1.34,7.26,4.08,9.77,8.19A13.15,13.15,0,0,1,477.76,390Z"/><path class="cls-2" d="M472.22,378.33l4.88,10.42c-2.51-4.11-7.09-6.85-9.77-8.19,0,0-5.56-3.33-12.25-7.22,3.71-2.71,7.53-1.36,10.13.43C468.8,373.61,472.22,378.33,472.22,378.33Z"/><path class="cls-1" d="M350.86,417l-.95-15.2a1.63,1.63,0,0,1,3.25-.21,41.34,41.34,0,0,0,1.11,5.76,16.34,16.34,0,0,1,1.63,3.8,20.7,20.7,0,0,0,2.56,5.15s10.49-.44,16.62-2.84c4.34-1.71,8-3.53,11.05-5.06l-.08-.16s-2.86-7.43-1.33-23.4c.09-1,.18-1.88.26-2.76,1.32-13.94,1.71-19.55,1.71-19.55-4-1.3-9.06-9.11-9.06-9.11,1.46-15.22-1.74-36.89-2-38.61a30.31,30.31,0,0,1,8.62,4.7c6.84,5.56,20.2,8.49,21.51,19.25.35,2.89.53,5.23.62,7.28.22,5.57-.3,8.91-.3,14.87,0,8.14-.27,13.36.35,20.52a65.27,65.27,0,0,1-.05,8c-.49,9.6-2.22,24-5.05,32a6.14,6.14,0,0,1-4.72,4c-8,1.42-28.7,5.13-31.58,6.18a31.12,31.12,0,0,1-8.76,1.3l-3,1.22a1.81,1.81,0,0,1-1.51-3.28l3.34-2-1.55.25a2.89,2.89,0,0,1-3.34-2.65c0-.07,0-.13,0-.2a2.87,2.87,0,0,1,1.23-2.35l3.45-2.44-1.95.09a2.5,2.5,0,0,1-2.61-2.69l.05-.57A2.45,2.45,0,0,1,350.86,417Z"/><path class="cls-2" d="M386.69,362.52s-.39,5.61-1.71,19.55L374.15,378l-.95-.06C384.28,371.8,386.69,362.52,386.69,362.52Z"/><path class="cls-3" d="M377.63,353.41s5.08,7.81,9.06,9.11c0,0-2.41,9.28-13.49,15.37-5.5,3-13.13,5.26-23.66,5.19-11,.08-18.87-2.38-24.41-5.62-10.43-6.09-12.73-14.94-12.73-14.94,4-1.3,9.05-9.11,9.05-9.11S331.51,368,349.18,368h.73C367.58,368,377.63,353.41,377.63,353.41Z"/><path class="cls-1" d="M363.32,322.4a15.94,15.94,0,0,0,2.42-4.69c.39-1.18,1-3,1.51-5h0a43,43,0,0,1,8.37,2.13c.26,1.72,3.46,23.39,2,38.61,0,0-10.05,14.55-27.72,14.55h-.73c-17.67,0-27.73-14.55-27.73-14.55-1.5-15.63,1.92-38.05,2-38.71h0a30.2,30.2,0,0,1,6.45-1.62l1-.05c.55,1.88,1.11,3.68,1.46,5a16.74,16.74,0,0,0,3.2,5.58h0a16.13,16.13,0,0,0,13.34,5.63S358.13,329.34,363.32,322.4Z"/><path class="cls-1" d="M368.87,305h-.09l.5-8.18c.05.21.09.44.13.66l0-.1h0c.64-1.06,2-2.7,2.65,1,0,0,.31,5-2.16,8.12C369.94,306.43,368.63,307.63,368.87,305Z"/><path class="cls-4" d="M369.28,296.76c-2.13-10.52-8.74-14.28-20.82-14.17-20.27.13-20.43,13.11-20.4,14.27v.08a1.94,1.94,0,0,0-.07-.19c-.58-1.75-4.62-14.9,3.79-22.39a21.49,21.49,0,0,1,6.85-4.09c8-3,16.53-1.17,19.42-.39.66.18,1,.3,1,.3,17.56,7.05,11,25.53,10.37,27.13h0l0,.1C369.37,297.2,369.33,297,369.28,296.76Z"/><path class="cls-1" d="M369.28,296.76l-.5,8.18,0,.25a45.29,45.29,0,0,1-1.51,7.48c-.55,2-1.12,3.86-1.51,5a15.94,15.94,0,0,1-2.42,4.69c-5.19,6.94-14.41,6.83-14.41,6.83a16.13,16.13,0,0,1-13.34-5.63h0a16.74,16.74,0,0,1-3.2-5.58c-.35-1.31-.91-3.11-1.46-5a55.09,55.09,0,0,1-1.91-7.7c0-.15,0-.29,0-.42l-.91-8c0-1.16.13-14.14,20.4-14.27C360.54,282.48,367.15,286.24,369.28,296.76Zm-11.23,7.41a2.32,2.32,0,1,0-2-2.28A2.16,2.16,0,0,0,358.05,304.17Zm-18.11,0a2.32,2.32,0,1,0-2-2.28A2.16,2.16,0,0,0,339.94,304.17Z"/><path d="M360,301.86a2,2,0,1,1-2-2.28A2.16,2.16,0,0,1,360,301.86Z"/><path class="cls-4" d="M359.18,269.87h-1.13c-2.89-.78-11.42-2.6-19.42.39l-.15-.4c0-5.36,4.64-9.7,10.35-9.7S359.18,264.51,359.18,269.87Z"/><path class="cls-1" d="M313,408.39c3,1.53,6.71,3.35,11.05,5.06,6.13,2.4,16.63,2.84,16.63,2.84a20.82,20.82,0,0,0,2.55-5.15,16.34,16.34,0,0,1,1.63-3.8,39.92,39.92,0,0,0,1.11-5.76,1.63,1.63,0,0,1,1.62-1.41,1.65,1.65,0,0,1,1.64,1.62l-.89,15.2a2.53,2.53,0,0,1,.51,1.32l0,.57a2.49,2.49,0,0,1-2.6,2.69l-1.95-.09,3.45,2.44a2.92,2.92,0,0,1,1.23,2.37c0,.06,0,.12,0,.18a2.89,2.89,0,0,1-3.34,2.65l-1.55-.25,3.34,2a1.81,1.81,0,0,1-1.51,3.28l-3.09-1.22a31.12,31.12,0,0,1-8.76-1.3c-2.88-1.05-23.54-4.76-31.58-6.18a6.16,6.16,0,0,1-4.72-4c-2.83-8-4.56-22.38-5.05-32a65.27,65.27,0,0,1-.05-8c.62-7.16.35-12.38.35-20.52,0-6-.52-9.3-.29-14.87.08-2,.27-4.39.62-7.28,1.3-10.76,14.66-13.69,21.5-19.25a29.93,29.93,0,0,1,8.64-4.8c-.1.66-3.52,23.08-2,38.71,0,0-5.08,7.81-9.05,9.11,0,0,.38,5.61,1.7,19.55.08.88.17,1.8.26,2.76,1.53,16-1.33,23.4-1.33,23.4Z"/><path d="M341.9,301.86a2,2,0,1,1-2-2.28A2.16,2.16,0,0,1,341.9,301.86Z"/><path class="cls-1" d="M329,305.32c.13,2-1.05,1.05-1.05,1.05-2.6-3-2.51-8-2.51-8,.44-3.23,1.56-2.48,2.3-1.55l.3-.05a1.94,1.94,0,0,1,.07.19v-.08l.91,8c0,.13,0,.27,0,.42Z"/><path class="cls-2" d="M325.13,377.46l-.2.49-10.83,4.12c-1.32-13.94-1.7-19.55-1.7-19.55S314.7,371.37,325.13,377.46Z"/><path class="cls-2" d="M293,360.9c0,8.14.27,13.36-.35,20.52a65.27,65.27,0,0,0,.05,8l-.57,0s-36.05,13.9-41.48,14.55-27.37,3.26-30-6.08a11.08,11.08,0,0,1,.65-7.95,13.15,13.15,0,0,1,.66-1.23c2.51-4.11,7.09-6.85,9.77-8.19,0,0,5.57-3.33,12.25-7.22,8.2-4.76,18.07-10.36,21.42-11.68,6.08-2.39,27.13-15.64,27.13-15.64h.16C292.48,351.6,293,354.94,293,360.9Z"/><path class="cls-2" d="M233.87,373.77c2.61-1.79,6.42-3.14,10.13-.43-6.68,3.89-12.25,7.22-12.25,7.22-2.68,1.34-7.26,4.08-9.77,8.19l4.88-10.42S230.29,373.61,233.87,373.77Z"/><path class="cls-1" d="M233.87,373.77c-3.58-.16-7,4.56-7,4.56L222,388.75a13.15,13.15,0,0,0-.66,1.23l-.16-.08h-7.65c-4.56,0-3.91-1.15-7.5-.49s-5.21-.49-5.37-2.61.32-10.43,3.58-14,8.64-1.63,8.64-1.63a17.74,17.74,0,0,1,5.37,0C220.51,371.65,233.87,373.77,233.87,373.77Z"/><path class="cls-5" d="M338.48,269.87c0-5.36,4.64-9.7,10.35-9.7s10.35,4.34,10.35,9.7"/><path class="cls-5" d="M369.45,297.31c.61-1.6,7.19-20.08-10.37-27.13,0,0-.37-.12-1-.3-2.89-.78-11.42-2.6-19.42.39a21.49,21.49,0,0,0-6.85,4.09c-8.41,7.49-4.37,20.64-3.79,22.39a1.94,1.94,0,0,1,.07.19v-.08c0-1.16.13-14.14,20.4-14.27,12.08-.11,18.69,3.65,20.82,14.17.05.21.09.44.13.66"/><path class="cls-5" d="M369.41,297.42l0-.1"/><path class="cls-5" d="M369.45,297.32h0c.64-1.06,2-2.7,2.65,1,0,0,.31,5-2.16,8.12,0,0-1.31,1.2-1.07-1.48,0-.23.05-.49.1-.77"/><path class="cls-5" d="M327.69,296.8c-.74-.93-1.86-1.68-2.3,1.55,0,0-.09,5,2.51,8,0,0,1.18,1,1.05-1.05a9.46,9.46,0,0,0-.18-1.24"/><path class="cls-5" d="M335.57,323.6a16.13,16.13,0,0,0,13.34,5.63s9.22.11,14.41-6.83a15.94,15.94,0,0,0,2.42-4.69c.39-1.18,1-3,1.51-5a45.29,45.29,0,0,0,1.51-7.48l0-.25.5-8.18.08-1.32"/><path class="cls-5" d="M328,296.06l.09.8.91,8c0,.13,0,.27,0,.42a55.09,55.09,0,0,0,1.91,7.7c.55,1.88,1.11,3.68,1.46,5a16.74,16.74,0,0,0,3.2,5.58"/><path class="cls-5" d="M350.54,311.59a4.32,4.32,0,0,1-4.44-.13"/><polyline class="cls-5" points="343.81 319.01 344.75 319.39 347.71 318.52 348.82 319.2 350.05 318.55 352.7 319.5 353.56 319.27"/><polyline class="cls-5" points="335.57 323.59 335.57 323.6 337 333.86"/><line class="cls-5" x1="363.32" y1="322.4" x2="362.74" y2="333.86"/><path class="cls-5" d="M323.47,314.7a29.93,29.93,0,0,0-8.64,4.8c-6.84,5.56-20.2,8.49-21.5,19.25-.35,2.89-.54,5.23-.62,7.28-.23,5.57.29,8.91.29,14.87,0,8.14.27,13.36-.35,20.52a65.27,65.27,0,0,0,.05,8c.49,9.6,2.22,24,5.05,32a6.16,6.16,0,0,0,4.72,4c8,1.42,28.7,5.13,31.58,6.18a31.12,31.12,0,0,0,8.76,1.3s3.16,3.37,3.27,5.1v.44a1.42,1.42,0,0,0,2.83,0l-.6-6"/><path class="cls-5" d="M329.92,313.07a30.2,30.2,0,0,0-6.45,1.62"/><path class="cls-5" d="M309.57,406.67l3.38,1.72c3,1.53,6.71,3.35,11.05,5.06,6.13,2.4,16.63,2.84,16.63,2.84a20.82,20.82,0,0,0,2.55-5.15,16.34,16.34,0,0,1,1.63-3.8,39.92,39.92,0,0,0,1.11-5.76,1.63,1.63,0,0,1,1.62-1.41,1.65,1.65,0,0,1,1.64,1.62l-.89,15.2"/><path class="cls-5" d="M313,408.23s2.86-7.43,1.33-23.4c-.09-1-.18-1.88-.26-2.76-1.32-13.94-1.7-19.55-1.7-19.55s2.3,8.85,12.73,14.94c5.54,3.24,13.39,5.7,24.41,5.62"/><line class="cls-5" x1="324.93" y1="377.95" x2="314.1" y2="382.07"/><path class="cls-5" d="M292.13,389.46s-36.05,13.9-41.48,14.55-27.37,3.26-30-6.08a11.08,11.08,0,0,1,.65-7.95,13.15,13.15,0,0,1,.66-1.23c2.51-4.11,7.09-6.85,9.77-8.19,0,0,5.57-3.33,12.25-7.22,8.2-4.76,18.07-10.36,21.42-11.68,6.08-2.39,27.13-15.64,27.13-15.64"/><path class="cls-5" d="M222,388.75l4.88-10.42s3.43-4.72,7-4.56c2.61-1.79,6.42-3.14,10.13-.43"/><path class="cls-5" d="M233.87,373.77s-13.36-2.12-15.64-2.61a17.74,17.74,0,0,0-5.37,0s-5.38-2-8.64,1.63-3.74,11.89-3.58,14,1.79,3.26,5.37,2.61,2.94.49,7.5.49h7.65"/><path class="cls-5" d="M342.81,432.9l3.09,1.22a1.81,1.81,0,0,0,1.51-3.28l-3.34-2,1.55.25a2.89,2.89,0,0,0,3.34-2.65c0-.06,0-.12,0-.18a2.92,2.92,0,0,0-1.23-2.37l-3.45-2.44,1.95.09a2.49,2.49,0,0,0,2.6-2.69l0-.57a2.53,2.53,0,0,0-.51-1.32l-2.37-3.11"/><path class="cls-5" d="M367.26,312.67a43,43,0,0,1,8.37,2.13,30.31,30.31,0,0,1,8.62,4.7c6.84,5.56,20.2,8.49,21.51,19.25.35,2.89.53,5.23.62,7.28.22,5.57-.3,8.91-.3,14.87,0,8.14-.27,13.36.35,20.52a65.27,65.27,0,0,1-.05,8c-.49,9.6-2.22,24-5.05,32a6.14,6.14,0,0,1-4.72,4c-8,1.42-28.7,5.13-31.58,6.18a31.12,31.12,0,0,1-8.76,1.3s-3.16,3.37-3.27,5.1v.44a1.41,1.41,0,0,1-2.82,0l.66-6"/><path class="cls-5" d="M389.51,406.67l-3.38,1.72c-3,1.53-6.71,3.35-11.05,5.06-6.13,2.4-16.62,2.84-16.62,2.84a20.7,20.7,0,0,1-2.56-5.15,16.34,16.34,0,0,0-1.63-3.8,41.34,41.34,0,0,1-1.11-5.76,1.63,1.63,0,0,0-3.25.21l.95,15.2"/><path class="cls-5" d="M386.05,408.23s-2.86-7.43-1.33-23.4c.09-1,.18-1.88.26-2.76,1.32-13.94,1.71-19.55,1.71-19.55s-2.41,9.28-13.49,15.37c-5.5,3-13.13,5.26-23.66,5.19"/><line class="cls-5" x1="374.15" y1="377.95" x2="384.98" y2="382.07"/><path class="cls-5" d="M407,389.46S443,403.36,448.43,404s27.37,3.26,30-6.08a11.08,11.08,0,0,0-.65-7.95,13.15,13.15,0,0,0-.66-1.23c-2.51-4.11-7.09-6.85-9.77-8.19,0,0-5.56-3.33-12.25-7.22-8.19-4.76-18.07-10.36-21.42-11.68-6.08-2.39-27.13-15.64-27.13-15.64"/><path class="cls-5" d="M477.1,388.75l-4.88-10.42s-3.42-4.72-7-4.56c-2.6-1.79-6.42-3.14-10.13-.43"/><path class="cls-5" d="M465.21,373.77s13.36-2.12,15.64-2.61a17.81,17.81,0,0,1,5.38,0s5.37-2,8.63,1.63,3.75,11.89,3.58,14-1.79,3.26-5.37,2.61-2.93.49-7.5.49h-7.65"/><path class="cls-5" d="M356.27,432.9l-3,1.22a1.81,1.81,0,0,1-1.51-3.28l3.34-2-1.55.25a2.89,2.89,0,0,1-3.34-2.65c0-.07,0-.13,0-.2a2.87,2.87,0,0,1,1.23-2.35l3.45-2.44-1.95.09a2.5,2.5,0,0,1-2.61-2.69l.05-.57a2.45,2.45,0,0,1,.51-1.32l2.37-3.11"/><path class="cls-5" d="M323.47,314.69h0c-.1.66-3.52,23.08-2,38.71,0,0-5.08,7.81-9.05,9.11"/><path class="cls-5" d="M375.61,314.69s0,0,0,.11c.26,1.72,3.46,23.39,2,38.61,0,0,5.08,7.81,9.06,9.11"/><path class="cls-5" d="M377.63,353.41S367.58,368,349.91,368h-.73c-17.67,0-27.73-14.55-27.73-14.55"/></svg>