<svg id="Layer_1" data-name="Layer 1" xmlns="http://www.w3.org/2000/svg" viewBox="0 0 700 700"><defs><style>.cls-1{fill:#feae63;}.cls-2{fill:#99abcc;}.cls-3{fill:#c4e7f9;}.cls-4{fill:#392328;}.cls-5{fill:none;stroke:#000;stroke-linecap:round;stroke-linejoin:round;stroke-width:2.3px;}</style></defs><title>Yoga_poses_2020_color</title><path class="cls-1" d="M449.49,474.71a2.61,2.61,0,0,1-.51.72,2.51,2.51,0,0,1-1.81.75h-2.38a9,9,0,0,1-2.53-.37,31.32,31.32,0,0,0-6.17-1.1c-4.64-.38-10.44-3.43-17.08-4.49s-7,0-13.39-1.45-4.32-8.48-3.22-11.79c.58-1.74,2.24-6.61,4.19-13.81h0s7.86,4.47,15,2.43c-3.17,10,.85,8.77,5,12.34,5.85,5,11.74,6.57,15.59,8.16a75.21,75.21,0,0,1,9.79,5.54.42.42,0,0,1,.19.35,2.76,2.76,0,0,1-.8,1.93A2.71,2.71,0,0,1,449.49,474.71Z"/><path class="cls-2" d="M447.22,369.32c.23,7.48-3.85,28.1-17.91,58a167.34,167.34,0,0,0-7.69,18.26c-7.16,2-15-2.43-15-2.43h0c1.75-6.46,3.74-14.81,5.39-24.47.22-1.32.4-2.56.55-3.72a0,0,0,0,0,0,0c1.34-10.49,0-15,3.52-20.54h0c8.12-1.23,9.25.16,10.37-5.91,1.19-6.42-2.76-23.11-7.42-32.34,0,0,6.9-5.66,15.52-2.26S447,361.84,447.22,369.32Z"/><path class="cls-1" d="M402.55,375.78l-.15-.35s-7.12-20.72-11.61-30.27-6.79-2.6-6.79-2.6l-.16,0a68.51,68.51,0,0,1-1.51-9.68,183.07,183.07,0,0,1-.44-22.72l.13-.53c2,.52,4.07,1,6,1.28,0,0,9.67.72,14.42,11.28s9.77,23,15.05,31.16a29.13,29.13,0,0,1,1.56,2.77c4.66,9.23,8.61,25.92,7.42,32.34-1.12,6.07-2.25,4.68-10.37,5.91h0c-1.42.21-3.05.51-4.94.94a302.27,302.27,0,0,1-34.07,5.05c-7.64.72-14.54,1-18.68.64-10.2-1-8.12-15.75-8.62-26.13-.11-2.31-.12-5-.07-7.74.12-7.06.61-14.54.65-17.25a1.16,1.16,0,0,1,1.1-1.14h.06a1.16,1.16,0,0,1,1.16,1.07c.31,4.44,3,20.56,3.74,23.06.62,2.19,1.39,10.25,1.74,14.07a2.14,2.14,0,0,0,2.23,2,141.06,141.06,0,0,0,15.12-1.51,16.3,16.3,0,0,0,1.88-.42C384,385.18,394.77,379,402.55,375.78Z"/><path class="cls-2" d="M328,405.37s23.27,6.33,42,1.39h0c3.82-4.82,6.21-6.05,7-6.35a302.27,302.27,0,0,0,34.07-5.05c1.89-.43,3.52-.73,4.94-.94-3.48,5.56-2.18,10.05-3.52,20.54a0,0,0,0,1,0,0c-.37.8-12.51,26.39-28.53,34.16-14.12,6.85-15.7,5.72-30.19,4.27a36.79,36.79,0,0,0-7.27,0c-14.71,1.45-17.21,2.59-31.36-4.27-16-7.77-28.16-33.36-28.53-34.16a0,0,0,0,1,0,0c-1.34-10.49,0-15-3.52-20.54,1.42.21,3.05.51,4.94.94,7.69,1.77,21.62,3.52,33.79,4.54l0,.42S324,400.66,328,405.37Z"/><path class="cls-1" d="M390.79,345.16s-.87,1.06-2.78,5.74c-1.9-1.38-3.23-4.44-4.17-8.3l.16,0S386.3,335.6,390.79,345.16Z"/><path class="cls-3" d="M388,350.9c-.56,1.36-1.2,3-1.94,5.09-3.26,9.06-8.71,31-8.71,31a16.3,16.3,0,0,1-1.88.42A141.06,141.06,0,0,1,360.36,389a2.14,2.14,0,0,1-2.23-2c-.35-3.82-1.12-11.88-1.74-14.07-.7-2.5-3.43-18.62-3.74-23.06a1.16,1.16,0,0,0-1.16-1.07h-.06a1.16,1.16,0,0,0-1.1,1.14c0,2.71-.53,10.19-.65,17.25h-.59c.07-7.05-.2-14.52-.24-17.25a1.16,1.16,0,0,0-1.1-1.14h-.06a1.16,1.16,0,0,0-1.16,1.07c-.32,4.44-3,20.56-3.75,23.06-.61,2.19-1.38,10.25-1.73,14.07a2.14,2.14,0,0,1-2.23,2,141.06,141.06,0,0,1-15.12-1.51,16.3,16.3,0,0,1-1.88-.42s-5.45-22-8.71-31c-.74-2.05-1.38-3.73-1.94-5.09,1.9-1.38,3.23-4.44,4.17-8.3a69.61,69.61,0,0,0,1.51-9.64h.09c16.31,8.67,44.19,10.34,64.76,0l.63-.05a68.51,68.51,0,0,0,1.51,9.68C384.78,346.46,386.11,349.52,388,350.9Z"/><path class="cls-1" d="M382.33,332.92l-.63.05c-20.57,10.34-48.45,8.67-64.76,0h-.09a181.51,181.51,0,0,0,.44-22.76l-.13-.53c7.22-1.82,14.64-4.56,16.81-5.79,3.75-2.12,3-8.28,2.73-14.62l.59-.19c2.61,2.07,6.7,3.81,13.07,3.69,0,0,7,0,11.82-3.9l.3.4c-.24,6.34-1,12.5,2.72,14.62,2.17,1.23,9.6,4,16.82,5.79l-.13.53A183.07,183.07,0,0,0,382.33,332.92Z"/><path class="cls-3" d="M377.05,400.41c-.81.3-3.2,1.53-7,6.35h0c-18.74,4.94-42-1.39-42-1.39-4.06-4.71-6.19-5.05-6.19-5.05l0-.42a188.5,188.5,0,0,0,19.27.87c10.49-.37,6.85-13.76,7.7-26,.16-2.28.24-4.9.27-7.59h.59c-.05,2.74,0,5.43.07,7.74.5,10.38-1.58,25.14,8.62,26.13C362.51,401.45,369.41,401.13,377.05,400.41Z"/><path class="cls-1" d="M372.61,264.83s.31,5-2.16,8.13c0,0-1.54,1.41-1-2.26l-.32-.05c0-.32.08-.64.11-.94l.36-5.88.33,0C370.59,262.78,372,261.12,372.61,264.83Z"/><path class="cls-4" d="M328.58,261.48c-.1.69-.12,1.1-.12,1.1s-5.19-15.66,3.83-23.69a21.35,21.35,0,0,1,6.86-4.09c8-3,16.52-1.18,19.41-.4.66.18,1,.3,1,.3C378,242.07,369.92,262,369.92,262a5.68,5.68,0,0,0-.12-.78,45.18,45.18,0,0,0-2.12-6.65c-3.78-9.81-17.33-9.83-17.33-9.83C332.35,244.81,329.13,257.61,328.58,261.48Z"/><path class="cls-1" d="M369.8,261.17l-.17,2.66-.36,5.88c0,.3-.07.62-.11.94-.56,4-2.37,9.08-2.91,11.58a11.47,11.47,0,0,1-4.07,6.63c-4.8,3.88-11.82,3.9-11.82,3.9-6.37.12-10.46-1.62-13.07-3.69a12.31,12.31,0,0,1-4.41-6.54c-.83-3.06-2.72-8.78-3.26-11.92-.07-.45-.12-.85-.14-1.18l-.69-6.1-.21-1.85c.55-3.87,3.77-16.67,21.77-16.79,0,0,13.55,0,17.33,9.83A45.18,45.18,0,0,1,369.8,261.17Zm-11.24,6.21a2.32,2.32,0,1,0-2-2.28A2.16,2.16,0,0,0,358.56,267.38Zm-18.11-.25a2.32,2.32,0,1,0-2-2.28A2.15,2.15,0,0,0,340.45,267.13Z"/><path d="M360.53,265.07a2,2,0,1,1-2-2.28A2.16,2.16,0,0,1,360.53,265.07Z"/><path class="cls-4" d="M359.69,234.39h-1.13c-2.89-.78-11.41-2.59-19.41.4l-.16-.41c0-5.36,4.64-9.7,10.35-9.7S359.69,229,359.69,234.39Z"/><path class="cls-1" d="M296.63,375.78c7.77,3.26,18.59,9.4,25.19,11.24a16.3,16.3,0,0,0,1.88.42A141.06,141.06,0,0,0,338.82,389a2.14,2.14,0,0,0,2.23-2c.35-3.82,1.12-11.88,1.73-14.07.71-2.5,3.43-18.62,3.75-23.06a1.16,1.16,0,0,1,1.16-1.07h.06a1.16,1.16,0,0,1,1.1,1.14c0,2.73.31,10.2.24,17.25,0,2.69-.11,5.31-.27,7.59-.85,12.24,2.79,25.63-7.7,26a188.5,188.5,0,0,1-19.27-.87c-12.17-1-26.1-2.77-33.79-4.54-1.89-.43-3.52-.73-4.94-.94h0c-8.12-1.23-9.25.16-10.37-5.91-1.19-6.42,2.76-23.11,7.42-32.34a29.13,29.13,0,0,1,1.56-2.77c5.28-8.19,10.29-20.6,15-31.16S311.2,311,311.2,311c1.89-.31,3.92-.76,6-1.28l.13.53a181.51,181.51,0,0,1-.44,22.76,69.61,69.61,0,0,1-1.51,9.64l-.16,0s-2.3-7-6.79,2.6-11.61,30.27-11.61,30.27Z"/><path d="M342.41,264.82a2,2,0,1,1-2-2.28A2.15,2.15,0,0,1,342.41,264.82Z"/><path class="cls-1" d="M329.62,270.61l-.22,0c.72,3.64-.87,2.3-.87,2.3-2.61-3-2.51-8-2.51-8,.44-3.22,1.56-2.47,2.3-1.54l.47-.05.69,6.1C329.5,269.76,329.55,270.16,329.62,270.61Z"/><path class="cls-1" d="M315.18,342.56l.16,0c-.94,3.86-2.27,6.92-4.17,8.3-1.91-4.68-2.78-5.74-2.78-5.74C312.88,335.6,315.18,342.56,315.18,342.56Z"/><path class="cls-1" d="M249.69,474.71a2.71,2.71,0,0,1-1.92-.79A2.76,2.76,0,0,1,247,472a.42.42,0,0,1,.19-.35A75.21,75.21,0,0,1,257,466.1c3.85-1.59,9.74-3.17,15.59-8.16,3.85-3.29,7.57-2.54,5.63-10.23,0,0,6.45,2.09,14.41-4.54h0c2,7.2,3.61,12.07,4.19,13.81,1.1,3.31,3.14,10.33-3.22,11.79s-6.76.39-13.4,1.45-12.43,4.11-17.07,4.49a31.32,31.32,0,0,0-6.17,1.1,9,9,0,0,1-2.53.37H252a2.51,2.51,0,0,1-1.81-.75A2.61,2.61,0,0,1,249.69,474.71Z"/><path class="cls-2" d="M292.59,443.17h0c-8,6.63-14.41,4.54-14.41,4.54-1-4-3.52-10.18-8.3-20.37-14.06-29.92-18.14-50.54-17.91-58s4.08-12,12.69-15.42,15.51,2.26,15.51,2.26h0c-4.66,9.23-8.61,25.92-7.42,32.34,1.12,6.07,2.25,4.68,10.37,5.91h0c3.48,5.56,2.18,10.05,3.52,20.54a0,0,0,0,0,0,0c.15,1.16.33,2.4.55,3.72C288.85,428.36,290.84,436.71,292.59,443.17Z"/><path class="cls-5" d="M339,234.39c0-5.36,4.64-9.7,10.35-9.7s10.35,4.34,10.35,9.7"/><path class="cls-5" d="M328.58,261.48c.55-3.87,3.77-16.67,21.77-16.79,0,0,13.55,0,17.33,9.83a45.18,45.18,0,0,1,2.12,6.65,5.68,5.68,0,0,1,.12.78s8-19.88-10.33-27.25c0,0-.37-.12-1-.3-2.89-.78-11.41-2.59-19.41.4a21.35,21.35,0,0,0-6.86,4.09c-9,8-3.83,23.69-3.83,23.69S328.48,262.17,328.58,261.48Z"/><path class="cls-5" d="M370,263.85c.63-1.07,2-2.73,2.65,1,0,0,.31,5-2.16,8.13,0,0-1.54,1.41-1-2.26"/><path class="cls-5" d="M328.32,263.38c-.74-.93-1.86-1.68-2.3,1.54,0,0-.1,5,2.51,8,0,0,1.59,1.34.87-2.3"/><path class="cls-5" d="M328.48,260.59l.1.89.21,1.85.69,6.1c0,.33.07.73.14,1.18.54,3.14,2.43,8.86,3.26,11.92a12.31,12.31,0,0,0,4.41,6.54c2.61,2.07,6.7,3.81,13.07,3.69,0,0,7,0,11.82-3.9a11.47,11.47,0,0,0,4.07-6.63c.54-2.5,2.35-7.58,2.91-11.58,0-.32.08-.64.11-.94l.36-5.88.17-2.66.07-1.2"/><path class="cls-5" d="M351.05,272.77a4.29,4.29,0,0,1-4.44-.12"/><polyline class="cls-5" points="344.32 280.19 345.26 280.57 348.22 279.71 349.33 280.39 350.56 279.74 353.21 280.68 354.07 280.46"/><line class="cls-5" x1="348.14" y1="285.13" x2="350.7" y2="285.17"/><path class="cls-5" d="M278.17,447.71s6.45,2.09,14.41-4.54"/><path class="cls-5" d="M283.12,394.42c1.42.21,3.05.51,4.94.94,7.69,1.77,21.62,3.52,33.79,4.54a188.5,188.5,0,0,0,19.27.87c10.49-.37,6.85-13.76,7.7-26,.16-2.28.24-4.9.27-7.59.07-7.05-.2-14.52-.24-17.25a1.16,1.16,0,0,0-1.1-1.14h-.06a1.16,1.16,0,0,0-1.16,1.07c-.32,4.44-3,20.56-3.75,23.06-.61,2.19-1.38,10.25-1.73,14.07a2.14,2.14,0,0,1-2.23,2,141.06,141.06,0,0,1-15.12-1.51,16.3,16.3,0,0,1-1.88-.42c-6.6-1.84-17.42-8-25.19-11.24-3-1.26-5.57-2.09-7.25-2.07"/><path class="cls-5" d="M336.7,289.26c.24,6.34,1,12.5-2.73,14.62-2.17,1.23-9.59,4-16.81,5.79-2,.52-4.07,1-6,1.28,0,0-9.67.72-14.42,11.28s-9.77,23-15,31.16a29.13,29.13,0,0,0-1.56,2.77c-4.66,9.23-8.61,25.92-7.42,32.34,1.12,6.07,2.25,4.68,10.37,5.91"/><path class="cls-5" d="M317.29,310.2a181.51,181.51,0,0,1-.44,22.76,69.61,69.61,0,0,1-1.51,9.64c-.94,3.86-2.27,6.92-4.17,8.3"/><path class="cls-5" d="M315.18,342.56s-2.3-7-6.79,2.6-11.61,30.27-11.61,30.27"/><path class="cls-5" d="M308.39,345.16s.87,1.06,2.78,5.74c.56,1.36,1.2,3,1.94,5.09,3.26,9.06,8.71,31,8.71,31"/><path class="cls-5" d="M321.82,400.32s2.13.34,6.19,5.05c2.78,3.24,6.46,8.54,11,17.21"/><path class="cls-5" d="M280.16,356.16s-6.89-5.66-15.51-2.26-12.46,7.94-12.69,15.42,3.85,28.1,17.91,58c4.78,10.19,7.29,16.41,8.3,20.37,1.94,7.69-1.78,6.94-5.63,10.23-5.85,5-11.74,6.57-15.59,8.16a75.21,75.21,0,0,0-9.79,5.54.42.42,0,0,0-.19.35,2.76,2.76,0,0,0,.8,1.93,2.71,2.71,0,0,0,1.92.79"/><path class="cls-5" d="M286.64,415c-1.34-10.49,0-15-3.52-20.54h0"/><path class="cls-5" d="M259.65,468.77s-3.18.79-5,1.32c-1,.28-2.35.74-3.44,1.12a2.54,2.54,0,0,0-1.72,2.41,2.52,2.52,0,0,0,.75,1.81,2.51,2.51,0,0,0,1.81.75h2.38a9,9,0,0,0,2.53-.37,31.32,31.32,0,0,1,6.17-1.1c4.64-.38,10.44-3.43,17.07-4.49s7,0,13.4-1.45,4.32-8.48,3.22-11.79c-.58-1.74-2.24-6.61-4.19-13.81-1.75-6.46-3.74-14.81-5.39-24.47-.22-1.32-.4-2.56-.55-3.72"/><path class="cls-5" d="M416.06,394.42c-1.42.21-3.05.51-4.94.94a302.27,302.27,0,0,1-34.07,5.05c-7.64.72-14.54,1-18.68.64-10.2-1-8.12-15.75-8.62-26.13-.11-2.31-.12-5-.07-7.74.12-7.06.61-14.54.65-17.25a1.16,1.16,0,0,1,1.1-1.14h.06a1.16,1.16,0,0,1,1.16,1.07c.31,4.44,3,20.56,3.74,23.06.62,2.19,1.39,10.25,1.74,14.07a2.14,2.14,0,0,0,2.23,2,141.06,141.06,0,0,0,15.12-1.51,16.3,16.3,0,0,0,1.88-.42c6.6-1.84,17.41-8,25.19-11.24,3-1.26,5.57-2.09,7.25-2.07"/><path class="cls-5" d="M362.48,289.26c-.24,6.34-1,12.5,2.72,14.62,2.17,1.23,9.6,4,16.82,5.79,2,.52,4.07,1,6,1.28,0,0,9.67.72,14.42,11.28s9.77,23,15.05,31.16a29.13,29.13,0,0,1,1.56,2.77c4.66,9.23,8.61,25.92,7.42,32.34-1.12,6.07-2.25,4.68-10.37,5.91"/><path class="cls-5" d="M381.89,310.2a183.07,183.07,0,0,0,.44,22.72,68.51,68.51,0,0,0,1.51,9.68c.94,3.86,2.27,6.92,4.17,8.3"/><path class="cls-5" d="M384,342.56s2.3-7,6.79,2.6,11.61,30.27,11.61,30.27"/><path class="cls-5" d="M390.79,345.16s-.87,1.06-2.78,5.74c-.56,1.36-1.2,3-1.94,5.09-3.26,9.06-8.71,31-8.71,31"/><path class="cls-5" d="M370,406.76a100.3,100.3,0,0,0-9.84,15.82"/><path class="cls-5" d="M377.36,400.32l-.31.09c-.81.3-3.2,1.53-7,6.35"/><path class="cls-5" d="M419,356.16s6.9-5.66,15.52-2.26,12.46,7.94,12.69,15.42-3.85,28.1-17.91,58a167.34,167.34,0,0,0-7.69,18.26c-3.17,10,.85,8.77,5,12.34,5.85,5,11.74,6.57,15.59,8.16a75.21,75.21,0,0,1,9.79,5.54.42.42,0,0,1,.19.35,2.76,2.76,0,0,1-.8,1.93,2.71,2.71,0,0,1-1.92.79"/><path class="cls-5" d="M412.54,415c1.34-10.49,0-15,3.52-20.54h0"/><path class="cls-5" d="M439.53,468.77s3.18.79,5,1.32c1,.28,2.35.74,3.44,1.12a2.54,2.54,0,0,1,1.72,2.41,2.52,2.52,0,0,1-.75,1.81,2.51,2.51,0,0,1-1.81.75h-2.38a9,9,0,0,1-2.53-.37,31.32,31.32,0,0,0-6.17-1.1c-4.64-.38-10.44-3.43-17.08-4.49s-7,0-13.39-1.45-4.32-8.48-3.22-11.79c.58-1.74,2.24-6.61,4.19-13.81,1.75-6.46,3.74-14.81,5.39-24.47.22-1.32.4-2.56.55-3.72"/><path class="cls-5" d="M412.54,415a0,0,0,0,1,0,0c-.37.8-12.51,26.39-28.53,34.16-14.12,6.85-15.7,5.72-30.19,4.27a36.79,36.79,0,0,0-7.27,0c-14.71,1.45-17.21,2.59-31.36-4.27-16-7.77-28.16-33.36-28.53-34.16a0,0,0,0,1,0,0"/><path class="cls-5" d="M328,405.37s23.27,6.33,42,1.39h0"/><path class="cls-5" d="M406.6,443.17s7.86,4.47,15,2.43"/><path class="cls-5" d="M316.94,333c16.31,8.67,44.19,10.34,64.76,0"/></svg>