<svg id="Layer_1" data-name="Layer 1" xmlns="http://www.w3.org/2000/svg" viewBox="0 0 700 700"><defs><style>.cls-1{fill:#feae63;}.cls-2{fill:#99abcc;}.cls-3{fill:#120c0c;}.cls-4{fill:#c4e7f9;}.cls-5{fill:none;stroke:#000;stroke-linecap:round;stroke-linejoin:round;stroke-width:2.3px;}</style></defs><title>Yoga_poses_2020_color</title><path class="cls-1" d="M508.3,564.73a3.15,3.15,0,0,1,0,6.26c-4.73.53-14.32,1.22-19.57-1-7.17-3-12.82-5.43-19.12-2.39s-17.16,5-18.89.43-2.18-11.29-11.08-15.42a90.08,90.08,0,0,0-9.05-3.45h0c9.84-8.24,8-17.39,8-17.39,10.65,4.13,26.94,8.47,34.54,14.77s21.5,14.34,26.93,16.29A39.77,39.77,0,0,0,508.3,564.73Z"/><path class="cls-2" d="M240.79,464.32a5.19,5.19,0,0,0-2.41,3.9c0,4.89-.33,19.55-2.93,32.26s-5.16,17.82-5,32.57c.21,15.59.33,20.05-5.56,27.85-4.16,5.5-6.42,6.69-15.55,6.36S199.28,557.82,198,550s-4.23-30.68-5.86-48.25-5.87-13.65-.65-77.18c0,0,.32-5.87,4.23-16,1.51-3.89,3.59-9.9,5.74-16.64l.76.24s6.53.77,21.52,6.63,52.78,10.43,52.78,10.43l.4-.11c1.16,4.39,4,11.47,6.44,19.65,0,0,8.47,5.54,18.57,12.71,9.15,6.49,30.88,18.07,44.09,31.58a46.24,46.24,0,0,0,9.14,7.37c1.94,1.17,4.19,2.58,6.39,4.05,7.3,4.9,7.38,6.95,15.12,11.81a38.92,38.92,0,0,0,5.32,5.43l1.55,5.08c1.3,3.9,3.29,5,4.77,5.31a1.65,1.65,0,0,0,1.93-1.64v-4.29a5.06,5.06,0,0,0-.17-1.28l-.08-.29.12,0,16,9.19a1.65,1.65,0,0,0,.8.21H407s20.84,13.63,31.48,17.75c0,0,1.88,9.15-8,17.39h0C421,546,409.27,543,405.29,542.76c-5.43-.36-22.37.5-47.13-21.65,0,0-12.6-7.82-22.8-12.16s-65.38-26.28-75.8-36.49c0,0-10.86-7.17-17.38-7.82Z"/><path class="cls-1" d="M382,501.75a38.92,38.92,0,0,1-5.32-5.43,11.69,11.69,0,0,1-1.44-2.36,23.25,23.25,0,0,1-1.46-7.82,37.26,37.26,0,0,0-6.19-8.14c-4.08-4.08-26.07-28.84-33.07-40.08s-7.5-16-10.26-21.33-14.34-28.84-16.78-45.94a19.28,19.28,0,0,0-10.73.87l5.51-22.21,14.15-20.4c.59.83,1.2,1.64,1.82,2.37,3.69,4.35,14.12,5.43,15,23.68s-.65,25,3.26,32.14,7.82,23,12.38,30.41S364.24,446,373.58,462.9c0,0,5,8,6.95,12s7,14.31,10.69,19.92a7.28,7.28,0,0,1,.66,1.23l1.31,3.16a3.83,3.83,0,0,0,1,1.14l13.72,10.82a1.61,1.61,0,0,1,.39,2.08A1.64,1.64,0,0,1,407,514h-.18a1.65,1.65,0,0,1-.8-.21l-16-9.19-.12,0,.08.29a5.06,5.06,0,0,1,.17,1.28v4.29a1.65,1.65,0,0,1-1.93,1.64c-1.48-.27-3.47-1.41-4.77-5.31Z"/><path class="cls-1" d="M381.18,138.9a1.69,1.69,0,0,1,2,2.62l-13.32,15.82a6.13,6.13,0,0,0-1.4,3.17l-.1.74-.05.39a5.43,5.43,0,0,1-1.74,3.3l-4.34,4a6,6,0,0,1-1.54,1,6.15,6.15,0,0,1-1.63.44l-1.12.12s-12.7,15-21.5,25.74-12.7,12.7-19.87,22.48-7.17,13-13.68,21.5-13,13.68-15.64,26.71S282.9,290,282.9,290l-22,12.66s-20.71,3.79-27.84,1a294.51,294.51,0,0,1,17.74-25.81c7.49-9.35,16-34.11,35.18-51.05,0,0,7.82-9.12,11.41-13.68s34.53-33.56,50.5-46.92l16-13,19.36-22.73a1.66,1.66,0,0,1,2.93,1.07,1.63,1.63,0,0,1-.33,1l-4.63,6.32Z"/><path class="cls-3" d="M359.39,288.26c3.28.12,8.25,6.69,2.33,12.44-5.66,5.49-10.41,4.54-13.22.39l-1.36-.4a28.34,28.34,0,0,0,11.27-12.87Z"/><path class="cls-3" d="M330.16,300.67a9.35,9.35,0,0,0,2.76-.45c5.18-1.58,4.73-7,4.73-7,0-7.15,9.79-15.32,9.79-15.32,13.25-8.55-2-22.38-2-22.38,2.86.51,3.7,1.44,3.7,1.44,13.1,8.39,10.84,25.62,10.84,25.62a26.33,26.33,0,0,1-1.58,5.25,28.34,28.34,0,0,1-11.27,12.87A37.6,37.6,0,0,1,336,305.41c-6.43,1.51-9.18,0-14.6-1.08,0,0,4.4-3.57,8.44-3.67Z"/><path class="cls-1" d="M329.82,300.66c-4,.1-8.44,3.67-8.44,3.67a14.79,14.79,0,0,0-8.61,5.67,11.31,11.31,0,0,0-1.53,10,69.23,69.23,0,0,0,5.14,8.92l-14.15,20.4a62,62,0,0,1-41.37-46.63l22-12.66,7.5.1c6.4-.32,12.63-9.83,12.63-9.83-4.72-7.93,1.61-11.26,1.61-11.26,6.19-3.58,14.9-10.41,19.42-10.58s6.26-2.5,8.51-2.69,3.65-.27,3.65-.27a32.2,32.2,0,0,1,9.23,0s15.24,13.83,2,22.38c0,0-9.83,8.17-9.79,15.32,0,0,.45,5.43-4.73,7a9.35,9.35,0,0,1-2.76.45Zm2-28.78c1.88-.63,3.22-1.7,3-2.37s-1.94-.7-3.82-.06-3.23,1.7-3,2.37S330,272.52,331.84,271.88Zm-4.56-9.21c1.47-.5,2.51-1.33,2.34-1.85s-1.52-.55-3-.05-2.51,1.33-2.33,1.85S325.81,263.17,327.28,262.67Z"/><path d="M334.83,269.51c.23.67-1.11,1.74-3,2.37s-3.6.62-3.83-.06,1.11-1.73,3-2.37S334.61,268.83,334.83,269.51Z"/><path d="M329.62,260.82c.17.52-.87,1.35-2.34,1.85s-2.8.48-3-.05.87-1.35,2.33-1.85S329.44,260.29,329.62,260.82Z"/><path class="cls-4" d="M302.23,349.31l-5.51,22.21a20.28,20.28,0,0,0-2.14.92c-6.84,3.42-15.64,8.8-17.11,14.5s-1.62,16.29-1,20.36c.09.55.22,1.16.4,1.85l-.4.11s-37.79-4.57-52.78-10.43-21.52-6.63-21.52-6.63l-.76-.24c3.42-10.77,7-23.41,8.6-32.23,2.6-14.33,9.77-30,14.33-40.39A142,142,0,0,1,233,303.67h0c7.13,2.8,27.84-1,27.84-1A62,62,0,0,0,302.23,349.31Z"/><path class="cls-5" d="M348.5,301.09c2.81,4.15,7.56,5.1,13.22-.39,5.92-5.75.95-12.32-2.33-12.44"/><path class="cls-5" d="M328.12,265.46a4.07,4.07,0,0,1-3.77.49l-5.61-.48.76,4.78"/><path class="cls-5" d="M332.77,294s5.29,3.12.15,6.22a9.35,9.35,0,0,1-2.76.45h-.34a8,8,0,0,1-6-2.72s-1.78-2.76,2.24-2.56"/><path class="cls-5" d="M332.92,300.22c5.18-1.58,4.73-7,4.73-7,0-7.15,9.79-15.32,9.79-15.32,13.25-8.55-2-22.38-2-22.38"/><path class="cls-5" d="M321.38,304.33s4.4-3.57,8.44-3.67h.49"/><path class="cls-5" d="M319.24,290.72s-6.09.21-8-4.86"/><path class="cls-5" d="M292.42,302.68s14.32-1.72,22.83-3.36"/><path class="cls-5" d="M386.72,494.61s2.18,6.2,3.25,10l.08.29a5.06,5.06,0,0,1,.17,1.28v4.29a1.65,1.65,0,0,1-1.93,1.64c-1.48-.27-3.47-1.41-4.77-5.31L382,501.75l-.73-2.41"/><path class="cls-5" d="M382,501.75a38.92,38.92,0,0,1-5.32-5.43,11.69,11.69,0,0,1-1.44-2.36,23.25,23.25,0,0,1-1.46-7.82,37.26,37.26,0,0,0-6.19-8.14c-4.08-4.08-26.07-28.84-33.07-40.08s-7.5-16-10.26-21.33-14.34-28.84-16.78-45.94a19.28,19.28,0,0,0-10.73.87,20.28,20.28,0,0,0-2.14.92c-6.84,3.42-15.64,8.8-17.11,14.5s-1.62,16.29-1,20.36c.09.55.22,1.16.4,1.85,1.16,4.39,4,11.47,6.44,19.65,0,0,8.47,5.54,18.57,12.71,9.15,6.49,30.88,18.07,44.09,31.58a46.24,46.24,0,0,0,9.14,7.37c1.94,1.17,4.19,2.58,6.39,4.05,7.3,4.9,7.38,6.95,15.12,11.81"/><path class="cls-5" d="M407,514s20.84,13.63,31.48,17.75,26.94,8.47,34.54,14.77,21.5,14.34,26.93,16.29a39.77,39.77,0,0,0,8.31,1.92,3.15,3.15,0,0,1,0,6.26c-4.73.53-14.32,1.22-19.57-1-7.17-3-12.82-5.43-19.12-2.39s-17.16,5-18.89.43-2.18-11.29-11.08-15.42a90.08,90.08,0,0,0-9.05-3.45C421,546,409.27,543,405.29,542.76c-5.43-.36-22.37.5-47.13-21.65,0,0-12.6-7.82-22.8-12.16s-65.38-26.28-75.8-36.49c0,0-10.86-7.17-17.38-7.82"/><path class="cls-5" d="M438.52,531.75s1.88,9.15-8,17.39"/><path class="cls-5" d="M233,303.67a294.51,294.51,0,0,1,17.74-25.81c7.49-9.35,16-34.11,35.18-51.05,0,0,7.82-9.12,11.41-13.68s34.53-33.56,50.5-46.92l16-13,19.36-22.73a1.66,1.66,0,0,1,2.93,1.07,1.63,1.63,0,0,1-.33,1l-4.63,6.32"/><path class="cls-5" d="M248.8,460.73a26,26,0,0,0-8,3.59,5.19,5.19,0,0,0-2.41,3.9c0,4.89-.33,19.55-2.93,32.26s-5.16,17.82-5,32.57c.21,15.59.33,20.05-5.56,27.85-4.16,5.5-6.42,6.69-15.55,6.36S199.28,557.82,198,550s-4.23-30.68-5.86-48.25-5.87-13.65-.65-77.18c0,0,.32-5.87,4.23-16,1.51-3.89,3.59-9.9,5.74-16.64,3.42-10.77,7-23.41,8.6-32.23,2.6-14.33,9.77-30,14.33-40.39A142,142,0,0,1,233,303.67"/><path class="cls-5" d="M370.61,149.93l10.08-10.7a1.76,1.76,0,0,1,.49-.33,1.69,1.69,0,0,1,2,2.62l-13.32,15.82a6.13,6.13,0,0,0-1.4,3.17l-.1.74-.05.39a5.43,5.43,0,0,1-1.74,3.3l-4.34,4a6,6,0,0,1-1.54,1,6.15,6.15,0,0,1-1.63.44l-1.12.12s-12.7,15-21.5,25.74-12.7,12.7-19.87,22.48-7.17,13-13.68,21.5-13,13.68-15.64,26.71S282.9,290,282.9,290l7.5.1c6.4-.32,12.63-9.83,12.63-9.83-4.72-7.93,1.61-11.26,1.61-11.26,6.19-3.58,14.9-10.41,19.42-10.58s6.26-2.5,8.51-2.69,3.65-.27,3.65-.27a32.2,32.2,0,0,1,9.23,0c2.86.51,3.7,1.44,3.7,1.44,13.1,8.39,10.84,25.62,10.84,25.62a26.33,26.33,0,0,1-1.58,5.25,28.34,28.34,0,0,1-11.27,12.87A37.6,37.6,0,0,1,336,305.41c-6.43,1.51-9.18,0-14.6-1.08a14.79,14.79,0,0,0-8.61,5.67,11.31,11.31,0,0,0-1.53,10,69.23,69.23,0,0,0,5.14,8.92c.59.83,1.2,1.64,1.82,2.37,3.69,4.35,14.12,5.43,15,23.68s-.65,25,3.26,32.14,7.82,23,12.38,30.41S364.24,446,373.58,462.9c0,0,5,8,6.95,12s7,14.31,10.69,19.92a7.28,7.28,0,0,1,.66,1.23l1.31,3.16a3.83,3.83,0,0,0,1,1.14l13.72,10.82a1.61,1.61,0,0,1,.39,2.08A1.64,1.64,0,0,1,407,514h-.18a1.65,1.65,0,0,1-.8-.21l-16-9.19"/><path class="cls-5" d="M360.69,169.89l.47,0a9.72,9.72,0,0,0,7.15-2.36l4.82-4.21.35-.31,3.73-3.08a2.34,2.34,0,0,0-3.09-3.51l-5.76,4.79"/><path class="cls-5" d="M276.5,409.26s-37.79-4.57-52.78-10.43-21.52-6.63-21.52-6.63"/><polyline class="cls-5" points="296.72 371.52 302.23 349.31 316.38 328.91"/><path class="cls-5" d="M282.9,290l-22,12.66s-20.71,3.79-27.84,1h0"/><path class="cls-5" d="M260.86,302.68a62,62,0,0,0,41.37,46.63"/></svg>