<svg id="Layer_1" data-name="Layer 1" xmlns="http://www.w3.org/2000/svg" viewBox="0 0 700 700"><defs><style>.cls-1{fill:#feae63;}.cls-2{fill:#99abcc;}.cls-3{fill:#c4e7f9;}.cls-4{fill:#392328;}.cls-5{fill:none;stroke:#000;stroke-linecap:round;stroke-linejoin:round;stroke-width:2.3px;}</style></defs><title>Yoga_poses_2020_color</title><path class="cls-1" d="M516,530.3h-4.73a17.49,17.49,0,0,1-6.73-1.34c-3.93-1.62-11.39-5.13-13.49-5a55.74,55.74,0,0,1-15.75-.44,5.49,5.49,0,0,1-4.54-5.84l.56-6.29a16.83,16.83,0,0,1,1.09-4.79,25,25,0,0,0,1.89-8.36c0-2-.41-9.35-.93-17.33a52.45,52.45,0,0,0,21.74,0c-.93,6.37-2.14,21,5.41,26.29,9.78,6.84,15.32,15.31,19.88,16.62,2,.57,3.71,1.09,5,1.48a3.58,3.58,0,0,1-1.06,7h-2.88a3.66,3.66,0,0,1-1.38-.28Z"/><path class="cls-1" d="M494.28,136.94H496a2,2,0,0,1,1.94,1.65l2.35,14.35a1.11,1.11,0,0,0,1.09.92,1.09,1.09,0,0,0,1.09-1.09v-.09l-.6-8.31a1.63,1.63,0,0,1,1.63-1.75,1.62,1.62,0,0,1,1.62,1.5l1.35,16.58v17.76L505,187.25s1.47,26.6-.16,38.23c-1.45,10.31-2.71,17.88-4,25.6a8.56,8.56,0,0,1-8.46,7.2h-3.76a8.42,8.42,0,0,0-1.42.12c-1.71.29-6.62,1.05-14,1.67a166.84,166.84,0,0,1-45.38-2.52l-3.44-.67a124.37,124.37,0,0,0-10,18.22c-1.71-6-6.13-12.54-12.41-19.37V231.59l.05-.51a6.93,6.93,0,0,0,.77,0c4.78,0,7.82-4.78,21.72-2.61s16.5,7.39,25.63,8.69,28.23,0,28.23,0,12.17-28.86,11.73-50.7l-12-9.34a5.44,5.44,0,0,1-1.53-1.93,24.21,24.21,0,0,0-6.64-8.32.71.71,0,0,1,0-1.13c1-.75,3.25-1.67,6.44.61l4.52,2.85a1.43,1.43,0,0,0,2.16-.86l1.57-6.16a11.91,11.91,0,0,0,.26-4.41l-2.13-16.21a1.72,1.72,0,0,1,1.19-1.87,1.88,1.88,0,0,1,.52-.08,1.73,1.73,0,0,1,1.67,1.28l3.61,13.44a1.27,1.27,0,0,0,2.5-.32.76.76,0,0,0,0-.15l-1.93-17.37a2,2,0,1,1,4-.4Z"/><path class="cls-2" d="M503.82,416.29s1,24.76-8.14,61.57c0,0-.25,1.16-.53,3a52.45,52.45,0,0,1-21.74,0c-.71-10.78-1.63-22.71-2-24.21-.66-2.6-5.87-21.66,1.79-36.16,0,0,1.95-5.37,1.14-8.8s-20-2.28-30.95-1.62c-9.95.59-38.28-7.79-62.34-16.44a20.33,20.33,0,0,0-13.72,0c-24.12,8.64-52.79,17-62.74,16.44-10.91-.66-30.13-1.8-30.95,1.62s1.14,8.8,1.14,8.8c7.66,14.5,2.45,33.56,1.79,36.16-.37,1.5-1.29,13.43-2,24.21a52.45,52.45,0,0,1-21.74,0c-.28-1.87-.53-3-.53-3-9.12-36.81-8.14-61.57-8.14-61.57l.65-17.15a15.33,15.33,0,0,1,7.83-12.8l14-7.85c30.62-17.26,49.19-16.61,62.88-20.52,8.22-2.35,12-9.53,13.3-20.82,0,0,35.3,5.2,62.34,0,1.33,11.29,5.08,18.47,13.31,20.82,13.68,3.91,32.25,3.26,62.87,20.52l14,7.85a15.33,15.33,0,0,1,7.83,12.8Z"/><path class="cls-3" d="M414.31,275.1h0c-4.27,9.45-8.45,21.65-9.2,34.32-.65,10.91-.83,20.22.05,27.72-27,5.2-62.34,0-62.34,0,.88-7.49.7-16.8.05-27.72-.7-11.89-4.42-23.36-8.4-32.53,1.42-6.36,6.68-13.67,12.67-21.17,16.31,8.68,34.18,10.34,54.76,0C408.18,262.56,412.6,269.06,414.31,275.1Z"/><path class="cls-1" d="M402,231.08l-.05.51v24.14c-20.58,10.34-38.45,8.68-54.76,0L346,232.23l-.12-1.13c4.87-.42,12.92-5.79,12.92-5.79,3.74-2.12,3-8.28,2.72-14.62l.59-.19c2.61,2.07,6.7,3.81,13.07,3.69,0,0,6.56,0,11.33-3.54l0,0c-.24,6.34-1,12.5,2.72,14.62C389.22,225.31,397.07,230.55,402,231.08Z"/><path class="cls-1" d="M397.4,186.26s.31,5-2.17,8.13c0,0-1.53,1.4-1-2.26l-.33,0c.05-.32.08-.64.11-.94l.36-5.89.33,0C395.38,184.21,396.73,182.55,397.4,186.26Z"/><path class="cls-4" d="M353.37,182.86c-.11.72-.13,1.14-.13,1.14s-5.19-15.65,3.83-23.68a21.21,21.21,0,0,1,6.87-4.09c8-3,16.51-1.18,19.4-.4.66.18,1,.3,1,.3,18.37,7.37,10.33,27.25,10.33,27.25a5.68,5.68,0,0,0-.12-.78,43.87,43.87,0,0,0-2.12-6.66c-3.78-9.81-17.33-9.82-17.33-9.82C357.19,166.24,353.94,178.94,353.37,182.86Z"/><path class="cls-1" d="M394.58,182.6l-.17,2.65-.36,5.89c0,.3-.06.62-.11.94-.55,4-2.37,9.08-2.91,11.58a11.38,11.38,0,0,1-4.56,7c-4.77,3.53-11.33,3.54-11.33,3.54-6.37.12-10.46-1.62-13.07-3.69a12.31,12.31,0,0,1-4.41-6.54c-.83-3.06-2.72-8.77-3.26-11.92-.07-.45-.12-.86-.14-1.19l-.68-6.09-.21-1.9c.57-3.92,3.82-16.62,21.76-16.74,0,0,13.55,0,17.33,9.82A43.87,43.87,0,0,1,394.58,182.6Zm-11.24,6.2a2.32,2.32,0,1,0-2-2.28A2.15,2.15,0,0,0,383.34,188.8Zm-18.11-.24a2.32,2.32,0,1,0-2-2.28A2.16,2.16,0,0,0,365.23,188.56Z"/><path d="M385.31,186.5a2,2,0,1,1-2-2.29A2.15,2.15,0,0,1,385.31,186.5Z"/><path class="cls-4" d="M384.47,155.82h-1.13c-2.89-.78-11.4-2.59-19.4.4l-.16-.41c0-5.36,4.63-9.7,10.34-9.7S384.47,150.46,384.47,155.82Z"/><path d="M367.19,186.25a2,2,0,1,1-2-2.28A2.16,2.16,0,0,1,367.19,186.25Z"/><path class="cls-1" d="M354.4,192l-.22,0c.72,3.64-.87,2.29-.87,2.29-2.6-3-2.51-8-2.51-8,.44-3.22,1.56-2.48,2.3-1.54l.48-.05.68,6.09C354.28,191.18,354.33,191.59,354.4,192Z"/><path class="cls-1" d="M253.71,136.94l.07-.8a2,2,0,1,1,4,.4l-1.93,17.37a.66.66,0,0,0,0,.14,1.27,1.27,0,0,0,2.5.33l3.62-13.44a1.71,1.71,0,0,1,1.66-1.28,1.88,1.88,0,0,1,.52.08,1.72,1.72,0,0,1,1.19,1.87l-2.13,16.21a11.91,11.91,0,0,0,.26,4.41l1.57,6.16a1.43,1.43,0,0,0,2.16.86l4.52-2.85c3.19-2.28,5.4-1.36,6.44-.61a.71.71,0,0,1,0,1.13,24.21,24.21,0,0,0-6.64,8.32,5.44,5.44,0,0,1-1.53,1.93l-12,9.34c-.43,21.84,11.73,50.7,11.73,50.7s19.11,1.3,28.23,0,11.73-6.52,25.63-8.69,16.94,2.61,21.72,2.61l.58,0,.12,1.13,1.18,23.5c-6,7.5-11.25,14.81-12.67,21.17a126.11,126.11,0,0,0-10.82-20l-3.44.67a166.84,166.84,0,0,1-45.38,2.52c-7.42-.62-12.33-1.38-14-1.67a8.42,8.42,0,0,0-1.42-.12h-3.76a8.56,8.56,0,0,1-8.46-7.2c-1.26-7.72-2.52-15.29-4-25.6-1.63-11.63-.16-38.23-.16-38.23l-1.47-8.79V160.7l1.35-16.58a1.62,1.62,0,0,1,1.62-1.5,1.63,1.63,0,0,1,1.63,1.75l-.6,8.31v.09a1.09,1.09,0,0,0,1.09,1.09,1.11,1.11,0,0,0,1.09-.92l2.35-14.35a2,2,0,0,1,1.94-1.65Z"/><path class="cls-1" d="M231.94,530.3,227.88,532a3.66,3.66,0,0,1-1.38.28h-2.87a3.58,3.58,0,0,1-1.07-7c1.27-.39,3-.91,5-1.48,4.56-1.31,10.1-9.78,19.88-16.62,7.55-5.29,6.34-19.92,5.41-26.29a52.45,52.45,0,0,0,21.74,0c-.52,8-.93,15.32-.93,17.33a25,25,0,0,0,1.89,8.36,16.83,16.83,0,0,1,1.09,4.79l.56,6.29a5.49,5.49,0,0,1-4.54,5.84,71,71,0,0,1-17.75.44c-2.1-.11-7.56,3.4-11.49,5a17.46,17.46,0,0,1-6.73,1.34Z"/><path class="cls-5" d="M361.48,210.69c.25,6.34,1,12.5-2.72,14.62,0,0-8.05,5.37-12.92,5.79l-.58,0c-4.78,0-7.82-4.78-21.72-2.61s-16.5,7.39-25.63,8.69-28.23,0-28.23,0-12.16-28.86-11.73-50.7l12-9.34a5.44,5.44,0,0,0,1.53-1.93,24.21,24.21,0,0,1,6.64-8.32.71.71,0,0,0,0-1.13c-1-.75-3.25-1.67-6.44.61l-4.52,2.85a1.43,1.43,0,0,1-2.16-.86l-1.57-6.16a11.91,11.91,0,0,1-.26-4.41l2.13-16.21a1.72,1.72,0,0,0-1.19-1.87,1.88,1.88,0,0,0-.52-.08,1.71,1.71,0,0,0-1.66,1.28l-3.62,13.44a1.27,1.27,0,0,1-2.5-.33.66.66,0,0,1,0-.14l1.93-17.37a2,2,0,1,0-4-.4l-.07.8-1.41,16.43"/><path class="cls-5" d="M363.78,155.82c0-5.36,4.63-9.7,10.34-9.7s10.35,4.34,10.35,9.7"/><path class="cls-5" d="M353.37,182.86c.57-3.92,3.82-16.62,21.76-16.74,0,0,13.55,0,17.33,9.82a43.87,43.87,0,0,1,2.12,6.66,5.68,5.68,0,0,1,.12.78s8-19.88-10.33-27.25c0,0-.37-.12-1-.3-2.89-.78-11.4-2.59-19.4.4a21.21,21.21,0,0,0-6.87,4.09c-9,8-3.83,23.68-3.83,23.68S353.26,183.58,353.37,182.86Z"/><path class="cls-5" d="M394.74,185.27c.64-1.06,2-2.72,2.66,1,0,0,.31,5-2.17,8.13,0,0-1.53,1.4-1-2.26"/><path class="cls-5" d="M353.1,184.81c-.74-.94-1.86-1.68-2.3,1.54,0,0-.09,5,2.51,8,0,0,1.59,1.35.87-2.29"/><path class="cls-5" d="M353.27,182l.1.85.21,1.9.68,6.09c0,.33.07.74.14,1.19.54,3.15,2.43,8.86,3.26,11.92a12.31,12.31,0,0,0,4.41,6.54c2.61,2.07,6.7,3.81,13.07,3.69,0,0,6.56,0,11.33-3.54a11.38,11.38,0,0,0,4.56-7c.54-2.5,2.36-7.58,2.91-11.58.05-.32.08-.64.11-.94l.36-5.89.17-2.65.07-1.2"/><path class="cls-5" d="M375.83,194.2a4.28,4.28,0,0,1-4.43-.13"/><polyline class="cls-5" points="369.1 201.62 370.04 202 373 201.13 374.11 201.82 375.34 201.16 377.99 202.11 378.85 201.88"/><line class="cls-5" x1="372.92" y1="206.56" x2="375.48" y2="206.59"/><path class="cls-5" d="M253.71,136.94H252a2,2,0,0,0-1.94,1.65l-2.35,14.35a1.11,1.11,0,0,1-1.09.92,1.09,1.09,0,0,1-1.09-1.09v-.09l.6-8.31a1.63,1.63,0,0,0-1.63-1.75,1.62,1.62,0,0,0-1.62,1.5l-1.35,16.58v17.76l1.47,8.79s-1.47,26.6.16,38.23c1.45,10.31,2.71,17.88,4,25.6a8.56,8.56,0,0,0,8.46,7.2h3.76a8.42,8.42,0,0,1,1.42.12c1.71.29,6.62,1.05,14,1.67a166.84,166.84,0,0,0,45.38-2.52l3.44-.67a126.11,126.11,0,0,1,10.82,20c4,9.17,7.7,20.64,8.4,32.53.65,10.92.83,20.23-.05,27.72-1.33,11.29-5.08,18.47-13.3,20.82-13.69,3.91-32.26,3.26-62.88,20.52l-14,7.85a15.33,15.33,0,0,0-7.83,12.8l-.65,17.15s-1,24.76,8.14,61.57c0,0,.25,1.16.53,3,.93,6.37,2.14,21-5.41,26.29-9.78,6.84-15.32,15.31-19.88,16.62-2,.57-3.71,1.09-5,1.48a3.58,3.58,0,0,0,1.07,7h2.87a3.66,3.66,0,0,0,1.38-.28l4.06-1.69L235,529"/><path class="cls-5" d="M252.83,480.89a52.45,52.45,0,0,0,21.74,0h0"/><path class="cls-5" d="M386.5,210.69c-.24,6.34-1,12.5,2.72,14.62,0,0,7.85,5.24,12.73,5.77a6.93,6.93,0,0,0,.77,0c4.78,0,7.82-4.78,21.72-2.61s16.5,7.39,25.63,8.69,28.23,0,28.23,0,12.17-28.86,11.73-50.7l-12-9.34a5.44,5.44,0,0,1-1.53-1.93,24.21,24.21,0,0,0-6.64-8.32.71.71,0,0,1,0-1.13c1-.75,3.25-1.67,6.44.61l4.52,2.85a1.43,1.43,0,0,0,2.16-.86l1.57-6.16a11.91,11.91,0,0,0,.26-4.41l-2.13-16.21a1.72,1.72,0,0,1,1.19-1.87,1.88,1.88,0,0,1,.52-.08,1.73,1.73,0,0,1,1.67,1.28l3.61,13.44a1.27,1.27,0,0,0,2.5-.32.76.76,0,0,0,0-.15l-1.93-17.37a2,2,0,1,1,4-.4l.07.8,1.4,16.43"/><path class="cls-5" d="M414.31,275.11c-4.27,9.45-8.45,21.65-9.2,34.32-.65,10.91-.83,20.22.05,27.72,1.33,11.29,5.08,18.47,13.31,20.82,13.68,3.91,32.25,3.26,62.87,20.52l14,7.85a15.33,15.33,0,0,1,7.83,12.8l.65,17.15s1,24.76-8.14,61.57c0,0-.25,1.16-.53,3-.93,6.37-2.14,21,5.41,26.29,9.78,6.84,15.32,15.31,19.88,16.62,2,.57,3.71,1.09,5,1.48a3.58,3.58,0,0,1-1.06,7h-2.88a3.66,3.66,0,0,1-1.38-.28L516,530.3l-3.1-1.29"/><path class="cls-5" d="M494.27,136.94H496a2,2,0,0,1,1.94,1.65l2.35,14.35a1.11,1.11,0,0,0,1.09.92,1.09,1.09,0,0,0,1.09-1.09v-.09l-.6-8.31a1.63,1.63,0,0,1,1.63-1.75,1.62,1.62,0,0,1,1.62,1.5l1.35,16.58v17.76L505,187.25s1.47,26.6-.16,38.23c-1.45,10.31-2.71,17.88-4,25.6a8.56,8.56,0,0,1-8.46,7.2h-3.76a8.42,8.42,0,0,0-1.42.12c-1.71.29-6.62,1.05-14,1.67a166.84,166.84,0,0,1-45.38-2.52l-3.44-.67a124.37,124.37,0,0,0-10,18.22"/><path class="cls-5" d="M516,530.3h-4.73a17.49,17.49,0,0,1-6.73-1.34c-3.93-1.62-11.39-5.13-13.49-5a55.74,55.74,0,0,1-15.75-.44,5.49,5.49,0,0,1-4.54-5.84l.56-6.29a16.83,16.83,0,0,1,1.09-4.79,25,25,0,0,0,1.89-8.36c0-2-.41-9.35-.93-17.33-.71-10.78-1.63-22.71-2-24.21-.66-2.6-5.87-21.66,1.79-36.16,0,0,1.95-5.37,1.14-8.8s-20-2.28-30.95-1.62c-9.95.59-38.28-7.79-62.34-16.44a20.33,20.33,0,0,0-13.72,0c-24.12,8.64-52.79,17-62.74,16.44-10.91-.66-30.13-1.8-30.95,1.62s1.14,8.8,1.14,8.8c7.66,14.5,2.45,33.56,1.79,36.16-.37,1.5-1.29,13.43-2,24.21-.52,8-.93,15.32-.93,17.33a25,25,0,0,0,1.89,8.36,16.83,16.83,0,0,1,1.09,4.79l.56,6.29a5.49,5.49,0,0,1-4.54,5.84,71,71,0,0,1-17.75.44c-2.1-.11-7.56,3.4-11.49,5a17.46,17.46,0,0,1-6.73,1.34h-4.73"/><path class="cls-5" d="M495.15,480.89a52.45,52.45,0,0,1-21.74,0h0"/><path class="cls-5" d="M334.47,276.9c1.42-6.36,6.68-13.67,12.67-21.17,16.31,8.68,34.18,10.34,54.76,0,6.28,6.83,10.7,13.33,12.41,19.37h0"/><line class="cls-5" x1="347.14" y1="255.73" x2="345.96" y2="232.23"/><line class="cls-5" x1="401.9" y1="255.73" x2="401.9" y2="231.59"/><path class="cls-5" d="M342.82,337.15s35.3,5.2,62.34,0"/></svg>