<svg id="Layer_1" data-name="Layer 1" xmlns="http://www.w3.org/2000/svg" viewBox="0 0 700 700"><defs><style>.cls-1{fill:#feae63;}.cls-2{fill:#99abcc;}.cls-3{fill:#c4e7f9;}.cls-4{fill:#392328;}.cls-5{fill:none;stroke:#000;stroke-linecap:round;stroke-linejoin:round;stroke-width:2.3px;}</style></defs><title>Yoga_poses_2020_color</title><path class="cls-1" d="M376.13,471.06a1.67,1.67,0,0,1-.13,2.42,1.53,1.53,0,0,1-2.16-.16l-.14-.16a1.69,1.69,0,0,1,0-2.44A1.67,1.67,0,0,1,376.13,471.06Z"/><path class="cls-1" d="M485.46,444.26a1.39,1.39,0,0,1,0,2.34c-4.11,2.74-7,2.4-11.32,1.75a79.48,79.48,0,0,1-13,0,65.94,65.94,0,0,0,14.76-9.19l.42.28A80.3,80.3,0,0,1,485.46,444.26Z"/><path class="cls-2" d="M426.34,413.2c2.46-.14,4.58-.29,6.13-.44,3.45-.33,8.58-.87,14.15-1.25,9.16-.62,19.52-.78,25.6,1.25C482,416,483.08,430.57,480,434.91a25,25,0,0,1-4.1,4.25,65.94,65.94,0,0,1-14.76,9.19,114.19,114.19,0,0,1-29.79,8.93c-8.34,1.4-14.27,2.63-18.69,3.71,3.24-13.88-8.23-15.6-8.23-15.6-6.18,2.48-11.85,3.77-16.52,3.21-8.39-1-12.5-5.36-15.64-3.44l-1.65-.61a111.76,111.76,0,0,0,22.17-29c.24-.44.48-.88.71-1.32l.75.24S414.32,413.9,426.34,413.2Z"/><path class="cls-1" d="M419.7,328.89c.92-3.19,1.89-6.78,2.78-11,2.19-10.38,3.23-28.32,3.51-33.85a4.63,4.63,0,0,0-.92-3l-7.22-9.72a1.63,1.63,0,0,1-.3-.79c-.35-3.57-1.26-4.87-1.26-7.38a20.27,20.27,0,0,0-1.05-5.43,1.53,1.53,0,0,1,.26-1.4,1.55,1.55,0,0,1,1.19-.57,1.46,1.46,0,0,1,.8.23,8.28,8.28,0,0,1,3.69,4.57c1,3.58,2.28,7.16,4.56,2.08,1.9-4.25-.28-17.37-1.05-21.6a1.57,1.57,0,0,1,1-1.77,1.67,1.67,0,0,1,.49-.08,1.58,1.58,0,0,1,1.54,1.22L431,254.48a1.28,1.28,0,0,0,2.53-.29v0l-.26-15.46a1.77,1.77,0,0,1,1.56-1.79h.21a1.78,1.78,0,0,1,1.77,1.65L438,256.17a.89.89,0,0,0,.75.82h.14a.9.9,0,0,0,.89-.8l1.42-13.44a1.67,1.67,0,0,1,3.33.18v.11l-1,15a2.06,2.06,0,0,0,1.09,2,2,2,0,0,0,2.42-.34l7.31-7.13a1.65,1.65,0,0,1,2.53,2.1l-8.28,11.25c-1.31,5-6.85,17.78-6.85,17.78s-1.95,5.54-2.93,24.11-1.95,31.6-4.89,42-7.16,10.1-12.38,9.78S409.45,355,409.45,355a51.35,51.35,0,0,1-8.15-6.05,42.77,42.77,0,0,1-11.72-17.24l-.47.17s-1.61,4.92-3.56,11.18l-.81-.25-10.26-14.09-2.16-27c4.1,1.12,11.7,3,17.58,3.29,8.47.44,12.6.22,20.85,12.38l3.48,7.6a41,41,0,0,0,4.78,3.7Z"/><path class="cls-2" d="M342.55,396.92c6.5-6,15.81-14.09,28.78-24.34l7.61-5.94,21.9-17.09.46-.61a51.35,51.35,0,0,0,8.15,6.05s6.84,4.23,12.05,4.56,9.45.65,12.38-9.78c0,0,4.57,4.24,6.85,18.9S446.59,411,446.59,411l0,.49c-5.57.38-10.7.92-14.15,1.25-1.55.15-3.67.3-6.13.44l-5.16-10A39.75,39.75,0,0,1,414.31,379c-4.9,7-11.49,18.17-20.77,35.28-.23.44-.47.88-.71,1.32a111.76,111.76,0,0,1-22.17,29,71.21,71.21,0,0,1-13.34,10.13c-29,14-38.58-8.64-43.49-25.9-2.17-7.64-2.34-16.94-1.78-26.06h0S315.4,394.87,342.55,396.92Z"/><path class="cls-1" d="M404.47,445.39s11.47,1.72,8.23,15.6h0c-12.06,2.95-13,4.85-21.06,6.28l-11,1.92-.28.05a2.09,2.09,0,0,0-.74-1.32,2,2,0,0,0-2.65,3l-.84.15a1.67,1.67,0,0,0-2.41-.34,1.69,1.69,0,0,0,0,2.44l.14.16-.57.14a1.59,1.59,0,0,0-2.21-.37,1.34,1.34,0,0,0-.46.77l-1.33-.29c-1.74-1.08-5-3.47-3.48-8.68s1.74-5,1.74-8.66a11.69,11.69,0,0,1,.08-1.32h0a19.21,19.21,0,0,1,2.08-6.18,7.49,7.49,0,0,1,2.61-3.57c3.14-1.92,7.25,2.43,15.64,3.44C392.62,449.16,398.29,447.87,404.47,445.39Z"/><path class="cls-3" d="M384.74,342.8l.81.25c-2.56,8.2-5.7,18.72-6.61,23.59l-7.61,5.94c-13,10.25-22.28,18.33-28.78,24.34-27.15-2.05-30.48,5.8-30.48,5.8h0c.7-11.28,2.51-22.28,3.06-29.49.46-6.16-1.19-15.4-3.05-23.43-.34-1.43-.67-2.81-1-4.14l1-.23,11.29-16.72s22.67,15,51.12,0Z"/><path class="cls-1" d="M380.36,469.25a2,2,0,0,1-.42,1.48,2,2,0,0,1-2.81.32l-.16-.14a2,2,0,0,1,2.65-3A2.09,2.09,0,0,1,380.36,469.25Z"/><path class="cls-1" d="M372.32,301.74l2.16,27c-28.45,15-51.12,0-51.12,0L326.63,302c11.95-1,7.24-13.69,7.24-13.69l.06-.22a10.06,10.06,0,0,0,5.28-.31l13.62-5.16c3.53-1.24,5.13-8.73,5.28-9.46-.1,1.39-1.69,24.55,11.27,27.7C369.38,300.9,370.51,301.24,372.32,301.74Z"/><path class="cls-1" d="M373.27,473.46a1.49,1.49,0,1,1-2.26,1.88,1.82,1.82,0,0,1-.41-1.48,1.34,1.34,0,0,1,.46-.77A1.59,1.59,0,0,1,373.27,473.46Z"/><path class="cls-4" d="M372.22,232.21c3.38,5.14,1,9.72-2.27,11.87l-1.31.4a29,29,0,0,0-10.48-13.68l1.72-.1C363.45,228.42,368.85,227.06,372.22,232.21Z"/><path class="cls-2" d="M370.66,444.55l1.65.61a7.49,7.49,0,0,0-2.61,3.57,19.21,19.21,0,0,0-2.08,6.18h0l-10.29-.23A71.21,71.21,0,0,0,370.66,444.55Z"/><path class="cls-4" d="M368.64,244.48c2.12,6.25,1.94,14.41-4.71,24.11a8.85,8.85,0,0,0,.42-3.21c-1.09-3.64-3.3-3-4.62-2.14-7.32-1.86-13.07-15.83-13.07-15.83-5-8.44-13.58-9.31-18.07-7.17a.5.5,0,0,1-.44,0c-.61-.24-.72-1.87,0-3.58,2.37-5.8,7.93-12.91,24.33-8.44a32.33,32.33,0,0,1,5.46,2.39l.24.16A29,29,0,0,1,368.64,244.48Z"/><path class="cls-1" d="M359.73,263.24c1.32-.82,3.53-1.5,4.62,2.14a8.85,8.85,0,0,1-.42,3.21s0,0,0,0a7.44,7.44,0,0,1-3.79,4.48s-1.14.37-1.72-.22l-.3.28a.28.28,0,0,1,0,.06c-.15.73-1.75,8.22-5.28,9.46l-13.62,5.16a10.06,10.06,0,0,1-5.28.31,6.35,6.35,0,0,1-4.56-4.43c-1.79-6.46-5.93-16-5-20.12s-.79-6.27-.44-8.36.62-3.37.62-3.37c1.39-9.84,3.62-11.57,3.62-11.57h0a.5.5,0,0,0,.44,0c4.49-2.14,13.05-1.27,18.07,7.17C346.66,247.41,352.41,261.38,359.73,263.24Zm-19.6.61c.64-.11.94-1.41.68-2.89s-1-2.58-1.65-2.46-.94,1.4-.67,2.88S339.49,264,340.13,263.85Zm-11.55-1.37c.59-.1.87-1.29.62-2.64s-.92-2.37-1.5-2.26-.87,1.29-.62,2.64S328,262.59,328.58,262.48Z"/><path d="M340.81,261c.26,1.48,0,2.78-.68,2.89s-1.38-1-1.64-2.47,0-2.77.67-2.88S340.54,259.49,340.81,261Z"/><path d="M329.2,259.84c.25,1.35,0,2.54-.62,2.64s-1.26-.9-1.5-2.26,0-2.53.62-2.64S329,258.49,329.2,259.84Z"/><path class="cls-1" d="M311.05,345.66c.34,1.33.67,2.71,1,4.14l-.28.06S300.77,380,299,385a150,150,0,0,1-8.25,18.46c-3.69,7.17-18.46,28.24-22.15,32.58s-8,12.81-11.51,16.29-20.64,2.17-20.64,2.17l-12.28,1.76-.22,0a1.65,1.65,0,0,1-1.58-1.18,1.62,1.62,0,0,1,.86-1.93l0-.08-8.12.27H215a1.92,1.92,0,0,1-.35-3.81c5.31-1,22.5-4,27.44-4.28,5.86-.33,8.14-2.93,8.14-2.93,7.17-7.82,17.27-42,24.44-54.08a121.59,121.59,0,0,0,12.05-26.39c2.61-7.5,5.22-20.53,5.22-25.74s2.28-19.55,7.16-26.71,14.34-3.91,19.22-5.22,8.27-2.12,8.27-2.12l-3.27,26.67-11.29,16.72Z"/><path class="cls-5" d="M359.88,230.7c3.57-2.28,9-3.64,12.34,1.51s1,9.72-2.27,11.87"/><path class="cls-5" d="M332.31,261.39a3.79,3.79,0,0,1-.45,3.53l-1.75,5,4.52.44"/><path class="cls-5" d="M328.15,240.28s-2.23,1.73-3.62,11.57c0,0-.26,1.29-.62,3.37s1.34,4.23.44,8.36,3.23,13.66,5,20.12a6.35,6.35,0,0,0,4.56,4.43,10.06,10.06,0,0,0,5.28-.31l13.62-5.16c3.53-1.24,5.13-8.73,5.28-9.46a.28.28,0,0,0,0-.06"/><path class="cls-5" d="M363.93,268.59c6.65-9.7,6.83-17.86,4.71-24.11a29,29,0,0,0-10.48-13.68l-.24-.16a32.33,32.33,0,0,0-5.46-2.39c-16.4-4.47-22,2.64-24.33,8.44-.7,1.71-.59,3.34,0,3.58a.5.5,0,0,0,.44,0c4.49-2.14,13.05-1.27,18.07,7.17,0,0,5.75,14,13.07,15.83"/><path class="cls-5" d="M358.67,264.06a6.47,6.47,0,0,1,1.06-.82c1.32-.82,3.53-1.5,4.62,2.14a8.85,8.85,0,0,1-.42,3.21s0,0,0,0a7.44,7.44,0,0,1-3.79,4.48s-1.14.37-1.72-.22c-.36-.36-.51-1.07-.08-2.42"/><path class="cls-5" d="M358.12,273.14a.28.28,0,0,1,0,.06c-.1,1.39-1.69,24.55,11.27,27.7,0,0,1.13.34,2.94.84,4.1,1.12,11.7,3,17.58,3.29,8.47.44,12.6.22,20.85,12.38l3.48,7.6a41,41,0,0,0,4.78,3.7"/><path class="cls-5" d="M333.87,288.35s4.71,12.74-7.24,13.69c0,0-3.38.82-8.27,2.12s-14.33-2-19.22,5.22S292,330.88,292,336.09s-2.61,18.24-5.22,25.74a121.59,121.59,0,0,1-12.05,26.39c-7.17,12-17.27,46.26-24.44,54.08,0,0-2.28,2.6-8.14,2.93-4.94.27-22.13,3.32-27.44,4.28a1.92,1.92,0,0,0,.35,3.81h.05l8.12-.27"/><path class="cls-5" d="M236.48,449.47,223.54,453a1.36,1.36,0,0,0-.28.11,1.62,1.62,0,0,0-.86,1.93,1.65,1.65,0,0,0,1.58,1.18l.22,0,12.28-1.76s17.16,1.3,20.64-2.17,7.81-12,11.51-16.29,18.46-25.41,22.15-32.58A150,150,0,0,0,299,385c1.74-5,12.75-35.1,12.75-35.1"/><path class="cls-5" d="M416,344.24c.43-4.71,2-9.27,3.73-15.35.92-3.19,1.89-6.78,2.78-11,2.19-10.38,3.23-28.32,3.51-33.85a4.63,4.63,0,0,0-.92-3l-7.22-9.72a1.63,1.63,0,0,1-.3-.79c-.35-3.57-1.26-4.87-1.26-7.38a20.27,20.27,0,0,0-1.05-5.43,1.53,1.53,0,0,1,.26-1.4,1.55,1.55,0,0,1,1.19-.57,1.46,1.46,0,0,1,.8.23,8.28,8.28,0,0,1,3.69,4.57c1,3.58,2.28,7.16,4.56,2.08,1.9-4.25-.28-17.37-1.05-21.6a1.57,1.57,0,0,1,1-1.77,1.67,1.67,0,0,1,.49-.08,1.58,1.58,0,0,1,1.54,1.22L431,254.48a1.28,1.28,0,0,0,2.53-.29v0l-.26-15.46a1.77,1.77,0,0,1,1.56-1.79h.21a1.78,1.78,0,0,1,1.77,1.65L438,256.17a.89.89,0,0,0,.75.82h.14a.9.9,0,0,0,.89-.8l1.42-13.44a1.67,1.67,0,0,1,3.33.18v.11l-1,15a2.06,2.06,0,0,0,1.09,2,2,2,0,0,0,2.42-.34l7.31-7.13a1.65,1.65,0,0,1,2.53,2.1l-8.28,11.25c-1.31,5-6.85,17.78-6.85,17.78s-1.95,5.54-2.93,24.11-1.95,31.6-4.89,42-7.16,10.1-12.38,9.78S409.45,355,409.45,355a51.35,51.35,0,0,1-8.15-6.05,42.77,42.77,0,0,1-11.72-17.24,23.16,23.16,0,0,1-1-3.72"/><path class="cls-5" d="M414.31,379a48.83,48.83,0,0,1,7.19-8.67"/><path class="cls-5" d="M307.62,333.39s1.66,5.27,3.43,12.27c.34,1.33.67,2.71,1,4.14,1.86,8,3.51,17.27,3.05,23.43-.55,7.21-2.36,18.21-3.06,29.49-.56,9.12-.39,18.42,1.78,26.06,4.91,17.26,14.5,39.91,43.49,25.9a71.21,71.21,0,0,0,13.34-10.13,111.76,111.76,0,0,0,22.17-29c.24-.44.48-.88.71-1.32,9.28-17.11,15.87-28.24,20.77-35.28"/><path class="cls-5" d="M329.29,410.37s3.43-4.37,13.26-13.45c6.5-6,15.81-14.09,28.78-24.34l7.61-5.94,21.9-17.09"/><path class="cls-5" d="M433.88,349.77s4.57,4.24,6.85,18.9S446.59,411,446.59,411"/><path class="cls-5" d="M414.31,379h0a39.75,39.75,0,0,0,6.87,24.22l5.16,10,.05.1"/><path class="cls-5" d="M412.7,461c-12.06,2.95-13,4.85-21.06,6.28l-11,1.92"/><path class="cls-5" d="M394.29,414.5s20-.6,32-1.3c2.46-.14,4.58-.29,6.13-.44,3.45-.33,8.58-.87,14.15-1.25,9.16-.62,19.52-.78,25.6,1.25C482,416,483.08,430.57,480,434.91a25,25,0,0,1-4.1,4.25,65.94,65.94,0,0,1-14.76,9.19,114.19,114.19,0,0,1-29.79,8.93c-8.34,1.4-14.27,2.63-18.69,3.71"/><path class="cls-5" d="M367.61,454.91a11.69,11.69,0,0,0-.08,1.32c0,3.66-.22,3.44-1.74,8.66s1.74,7.6,3.48,8.68"/><path class="cls-5" d="M459.4,421.66s-13.46-1.3-28.88,9.13c-8.79,5.94-17.86,11.32-26,14.6-6.18,2.48-11.85,3.77-16.52,3.21-8.39-1-12.5-5.36-15.64-3.44a7.49,7.49,0,0,0-2.61,3.57,19.21,19.21,0,0,0-2.08,6.18"/><polyline class="cls-5" points="357.32 454.68 367.61 454.91 367.62 454.91"/><path class="cls-5" d="M312.07,402.72s3.33-7.85,30.48-5.8"/><path class="cls-5" d="M389.11,331.87s-1.61,4.92-3.56,11.18c-2.56,8.2-5.7,18.72-6.61,23.59"/><polyline class="cls-5" points="312.07 345.43 323.36 328.71 326.63 302.04"/><polyline class="cls-5" points="372.32 301.74 374.48 328.71 384.74 342.8"/><path class="cls-5" d="M323.36,328.71s22.67,15,51.12,0"/><path class="cls-5" d="M461.18,448.35a79.48,79.48,0,0,0,13,0c4.33.65,7.21,1,11.32-1.75a1.39,1.39,0,0,0,0-2.34,80.3,80.3,0,0,0-9.1-4.82"/><path class="cls-5" d="M380.36,469.25a2,2,0,0,1-.42,1.48,2,2,0,0,1-2.81.32l-.16-.14a2,2,0,0,1,2.65-3A2.09,2.09,0,0,1,380.36,469.25Z"/><path class="cls-5" d="M373.84,473.32l-.14-.16a1.69,1.69,0,0,1,0-2.44,1.8,1.8,0,0,1,2.28,2.76A1.53,1.53,0,0,1,373.84,473.32Z"/><path class="cls-5" d="M373.27,473.46a1.49,1.49,0,1,1-2.26,1.88,1.82,1.82,0,0,1-.41-1.48,1.34,1.34,0,0,1,.46-.77A1.59,1.59,0,0,1,373.27,473.46Z"/><path class="cls-5" d="M376.38,452.72a5.92,5.92,0,0,0-2.93,4.24,3.66,3.66,0,0,1,1.14,3.75c-.37,2,1.38,5,4,5.58a3,3,0,0,0,3.51-2.62,14.18,14.18,0,0,0-1.64-7.53"/><path class="cls-5" d="M404.47,445.39s11.47,1.72,8.23,15.6h0"/></svg>