<svg id="Layer_1" data-name="Layer 1" xmlns="http://www.w3.org/2000/svg" viewBox="0 0 700 700"><defs><style>.cls-1{fill:#120c0c;}.cls-2{fill:#feae63;}.cls-3{fill:#c4e7f9;}.cls-4{fill:#99abcc;}.cls-5{fill:none;stroke:#000;stroke-linecap:round;stroke-linejoin:round;stroke-width:2.3px;}</style></defs><title>Yoga_poses_2020_color</title><path class="cls-1" d="M553.72,291.43l-1,1s-9.84-3.43-12-4.34c-4.23-1.8-6.76.64-11.23,1s-7.86-1.95-9-4c0,0,.45-6-4.92-3.6a8.68,8.68,0,0,0-1.39,1.32l-.11-.1a8.83,8.83,0,0,0-4.43-.24,6.91,6.91,0,0,0-3.75,2.4,11.22,11.22,0,0,1-4.22,3.23c-1.75.7-3,.81-3.75.46-2.52-1.13-.7-7.05,1.78-13.65,3-8.13,12.48-13.61,12.48-13.61a27.85,27.85,0,0,1,16.46-4,20.45,20.45,0,0,1,4.66.83c.88.35,1.71.72,2.51,1.11C549.65,265.84,552.28,277.05,553.72,291.43Z"/><path class="cls-2" d="M514.2,282.81a8.68,8.68,0,0,1,1.39-1.32c5.37-2.4,4.92,3.6,4.92,3.6,1.17,2.05,4.56,4.36,9,4s7-2.79,11.23-1c2.13.91,12,4.34,12,4.34l-1.28,1.34s-4.65,7.64-9.19,10.61c-3.57,2.33-4.9,1.62-6,4.74l-3,5.19-3.71-3.58-8.87,4.84c-.52.79-5.37,5.93-10-4.05,0,0-1.83-3.12-5.89-.57s-14.76,4.58-14.76,4.58l-1.13.14c-.22-1.8-.53-3.6-.92-5.38,0,0-4-18.46-21.37-20.64,6.81-1.38,10.88-.43,15.1.39s11.47,1.24,16.09-1.28l.1-.21c.79.35,2,.24,3.75-.46a11.22,11.22,0,0,0,4.22-3.23,6.91,6.91,0,0,1,3.75-2.4,8.83,8.83,0,0,1,4.43.24Zm22,20.75c1.24-.73,2-1.75,1.68-2.29s-1.58-.38-2.82.34-2,1.75-1.68,2.29S534.93,304.29,536.17,303.56Z"/><path class="cls-1" d="M539.67,248.71c2.15,7.26-3.56,9.89-3.56,9.89l-.28.61c-.8-.39-1.63-.76-2.51-1.11a20.45,20.45,0,0,0-4.66-.83v-.1c-8.78-1.78-7-9.83-4.35-12.16C528.09,241.76,537.53,241.46,539.67,248.71Z"/><path d="M537.85,301.27c.32.54-.44,1.56-1.68,2.29s-2.5.88-2.82.34.44-1.56,1.68-2.29S537.54,300.73,537.85,301.27Z"/><path class="cls-2" d="M460.74,341c-14.26-5.37-23.86-18.32-13.65-42.61,5.42-4.29,8.33-5.24,8.33-5.24a64.66,64.66,0,0,1,11.23-3.52C484.05,291.84,488,310.3,488,310.3c.39,1.78.7,3.58.92,5.38,1.09,8.41.37,16.72-2.36,21.81-3.3,6.17-3.22,21.91-3.84,29.6s-3.06,10.37-2.16,16.9a75.73,75.73,0,0,1,.32,12.78,28.2,28.2,0,0,1-.58,4.47l-2.59,16.83s-2.68,21.72-.8,25.12,10.28,3.22,10.28,3.22l9.55.59a8.26,8.26,0,0,1,2.16.17l14.82,3.07a1.28,1.28,0,0,1-.26,2.53l-2.65-.22a1.6,1.6,0,0,1-.26,3.17h-4.91l-.1,0a1.65,1.65,0,0,1,.1.58,1.89,1.89,0,0,1-2.18,1.87l-12.85-2a7.08,7.08,0,0,0-1.13-.08H474.58a7.79,7.79,0,0,1-6-2.83l-1.74-2.1a7.81,7.81,0,0,1-1.77-4.34c-.76-9.39-3.28-45.79-3-50.69.37-6.3-1.73-8.42-1.07-14.07.36-3.08-.61-10.73-1.09-19.41C459.51,355.52,459.44,347.62,460.74,341Z"/><path class="cls-3" d="M459.92,362.71h-.07c-2.91,2-7.38,2.75-11.73,3.07a57.71,57.71,0,0,0-15.83,3.51c-8.61,3.18-18.28,6.78-24,10.26,0,0-7.6-13.85-10.42-27.5-2.17-10.53-10.16-13.24-10.16-13.24,11-1.41,28.43-7.26,44.7-26a110.69,110.69,0,0,1,14.7-14.41c-10.21,24.29-.61,37.24,13.65,42.61C459.44,347.62,459.51,355.52,459.92,362.71Z"/><path class="cls-4" d="M397.85,352.05c2.82,13.65,10.42,27.5,10.42,27.5-7.87,4.77-12.88,3.81-19.55,7.39s-13.84,7.63-31.31,26.23-48.59,30.45-48.59,30.45c-7.46,2.8-13.83,2.49-20.35,2.64s-7.27-2.81-16.9-2.34-22.83.77-35.25.46a137.56,137.56,0,0,0-21.17.62c-5-6.09-1.47-17.95-1.47-17.95l-.07-.25c4.59-1.25,10.31-3.42,20.14-5.66,21.88-5,24.63-4.22,44.59-2.69s25.16-7,31.63-13.74c7.13-7.76,16.35-18.49,21.65-24.26,7.54-8.19,7.39-24.56,19.53-33.07s22.78-7.64,33.3-8.26c1-.06,2.08-.16,3.24-.31C387.69,338.81,395.68,341.52,397.85,352.05Z"/><path class="cls-2" d="M149.91,439.34a2,2,0,0,1,1.47-1.74l2.87-.72c0-1.08,2.25-4.39,9.43-6a64.9,64.9,0,0,0,13.44-4.77l11.17-6.46a5.56,5.56,0,0,1,7.39,1.71l.77,1.15a12,12,0,0,0,9.38,5.35,25,25,0,0,0,7.78-1.08l.07.25s-3.54,11.86,1.47,17.95c-7.92.62-24.58,1.41-24.58,1.41-5.42-.06-15.89-.62-19.4-1.42l-9.28-2.1a12.68,12.68,0,0,0-5.58,1.27,2.62,2.62,0,0,1-1.37.38h-5.23a2.62,2.62,0,0,1-2.44-1.66l-.09-.24C146.76,440.58,149.91,439.34,149.91,439.34Z"/><path class="cls-5" d="M520.51,285.09s.45-6-4.92-3.6a8.68,8.68,0,0,0-1.39,1.32,8,8,0,0,0-1.84,7.27s1.23,3,3.32-.38"/><path class="cls-5" d="M509.9,294.45s-4,3.53-2.21,7.94"/><path class="cls-5" d="M552.74,292.44s-9.84-3.43-12-4.34c-4.23-1.8-6.76.64-11.23,1s-7.86-1.95-9-4"/><path class="cls-5" d="M536.11,258.6s5.71-2.63,3.56-9.89-11.58-7-15.35-3.7c-2.7,2.33-4.43,10.38,4.35,12.16"/><path class="cls-5" d="M512.2,261.3a27.85,27.85,0,0,1,16.46-4,20.45,20.45,0,0,1,4.66.83c.88.35,1.71.72,2.51,1.11,13.82,6.63,16.45,17.84,17.89,32.22l-1,1-1.28,1.34s-4.65,7.64-9.19,10.61c-3.57,2.33-4.9,1.62-6,4.74l-3,5.19-3.71-3.58-8.87,4.84c-.52.79-5.37,5.93-10-4.05,0,0-1.83-3.12-5.89-.57s-14.76,4.58-14.76,4.58"/><path class="cls-5" d="M514.09,282.71a8.83,8.83,0,0,0-4.43-.24,6.91,6.91,0,0,0-3.75,2.4,11.22,11.22,0,0,1-4.22,3.23c-1.75.7-3,.81-3.75.46-2.52-1.13-.7-7.05,1.78-13.65,3-8.13,12.48-13.61,12.48-13.61"/><path class="cls-5" d="M460.74,321.05s2.86,5.43,0,20c-1.3,6.59-1.23,14.49-.82,21.68.48,8.68,1.45,16.33,1.09,19.41-.66,5.65,1.44,7.77,1.07,14.07-.3,4.9,2.22,41.3,3,50.69a7.81,7.81,0,0,0,1.77,4.34l1.74,2.1a7.79,7.79,0,0,0,6,2.83H489.5a7.08,7.08,0,0,1,1.13.08l12.85,2a1.89,1.89,0,0,0,2.18-1.87,1.65,1.65,0,0,0-.1-.58,1.87,1.87,0,0,0-1.34-1.26l-10.94-2.69"/><path class="cls-5" d="M505.66,455.72h4.91a1.6,1.6,0,0,0,.26-3.17l-12.62-2.1"/><path class="cls-5" d="M447.09,298.42c-10.21,24.29-.61,37.24,13.65,42.61"/><path class="cls-5" d="M510.83,452.55l2.65.22a1.28,1.28,0,0,0,.26-2.53l-14.82-3.07a8.26,8.26,0,0,0-2.16-.17l-9.55-.59s-8.41.18-10.28-3.22.8-25.12.8-25.12l2.59-16.83a28.2,28.2,0,0,0,.58-4.47,75.73,75.73,0,0,0-.32-12.78c-.9-6.53,1.54-9.21,2.16-16.9s.54-23.43,3.84-29.6c2.73-5.09,3.45-13.4,2.36-21.81-.22-1.8-.53-3.6-.92-5.38"/><path class="cls-5" d="M488,310.3s-4-18.46-21.37-20.64"/><path class="cls-5" d="M387.69,338.81s8,2.71,10.16,13.24c2.82,13.65,10.42,27.5,10.42,27.5"/><path class="cls-5" d="M157.76,440.49a9.58,9.58,0,0,1-5,1.24,2.94,2.94,0,0,1-2.48-1.05,1.83,1.83,0,0,1-.41-1.34,2,2,0,0,1,1.47-1.74l2.87-.72c0-1.08,2.25-4.39,9.43-6a64.9,64.9,0,0,0,13.44-4.77l11.17-6.46a5.56,5.56,0,0,1,7.39,1.71l.77,1.15a12,12,0,0,0,9.38,5.35,25,25,0,0,0,7.78-1.08c4.59-1.25,10.31-3.42,20.14-5.66,21.88-5,24.63-4.22,44.59-2.69s25.16-7,31.63-13.74c7.13-7.76,16.35-18.49,21.65-24.26,7.54-8.19,7.39-24.56,19.53-33.07s22.78-7.64,33.3-8.26c1-.06,2.08-.16,3.24-.31,11-1.41,28.43-7.26,44.7-26a110.69,110.69,0,0,1,14.7-14.41c5.42-4.29,8.33-5.24,8.33-5.24a64.66,64.66,0,0,1,11.23-3.52c6.81-1.38,10.88-.43,15.1.39s11.47,1.24,16.09-1.28"/><path class="cls-5" d="M149.91,439.34s-3.15,1.24-2.73,3.3l.09.24a2.62,2.62,0,0,0,2.44,1.66h5.23a2.62,2.62,0,0,0,1.37-.38,12.68,12.68,0,0,1,5.58-1.27l9.28,2.1c3.51.8,14,1.36,19.4,1.42,0,0,16.66-.79,24.58-1.41a137.56,137.56,0,0,1,21.17-.62c12.42.31,25.62,0,35.25-.46s10.38,2.5,16.9,2.34,12.89.16,20.35-2.64c0,0,31.12-11.84,48.59-30.45s24.63-22.65,31.31-26.23,11.68-2.62,19.55-7.39c5.74-3.48,15.41-7.08,24-10.26a57.71,57.71,0,0,1,15.83-3.51c4.35-.32,8.82-1,11.73-3.07"/><path class="cls-5" d="M213.68,427.05s-3.54,11.86,1.47,17.95"/></svg>