<svg id="Layer_1" data-name="Layer 1" xmlns="http://www.w3.org/2000/svg" viewBox="0 0 700 700"><defs><style>.cls-1{fill:#392328;}.cls-2{fill:#feae63;}.cls-3{fill:#c4e7f9;}.cls-4{fill:#99abcc;}.cls-5{fill:none;stroke:#000;stroke-linecap:round;stroke-linejoin:round;stroke-width:2.3px;}</style></defs><title>Yoga_poses_2020_color</title><path class="cls-1" d="M562.08,359.14c6.73,14-4.24,27.49-4.24,27.49A26.07,26.07,0,0,1,553,390.8a28.74,28.74,0,0,1-16,4.51,37.49,37.49,0,0,1-11.57-1.85c-5.44-1.81-8.56-5.2-11.94-8.5l.08-.08s5.61-.73,9.09,1.31a3.87,3.87,0,0,1,.43.27,9.23,9.23,0,0,0,2.46,1c5.23,1.36,7.71-3.49,7.71-3.49,3.72-6.11,16.37-7.9,16.37-7.9,15.76-.32,10.06-20.1,10.06-20.1C561.85,357.9,562.08,359.14,562.08,359.14Z"/><path class="cls-2" d="M522.65,386.19c-3.48-2-9.09-1.31-9.09-1.31l-.08.08q-.76-.76-1.56-1.5c-1.68-1.56-5.47-6.82-14.48-7.58-4.44-.38-7.6,4.67-8.91,7.31a14.82,14.82,0,0,0-1.17,4.26l-23.91-9.52c-7.17-27.68,15.68-42.71,15.68-42.71l21.45,6.23c-.13,4.91,1.8,8.72,2,11.13l8,2.2c.15-9.23,7.28-8.73,7.28-8.73,7.15.2,18.16-1,22.09,1.19s6.64,1.16,8.65,2.18,3.25,1.68,3.25,1.68a32.67,32.67,0,0,1,7.85,4.86s5.7,19.78-10.06,20.1c0,0-12.65,1.79-16.37,7.9,0,0-2.48,4.85-7.71,3.49a9.23,9.23,0,0,1-2.46-1A3.87,3.87,0,0,0,522.65,386.19Zm20.76-34c.13-.54-1-1.26-2.51-1.61s-2.83-.19-3,.35,1,1.26,2.51,1.61S543.29,352.71,543.41,352.17Zm-.12,10.14c.16-.7-1.28-1.62-3.22-2.06s-3.64-.25-3.8.45,1.28,1.61,3.22,2.06S543.13,363,543.29,362.31Z"/><path class="cls-1" d="M554.34,391.16c2.73,1.82,3.51,10-4.55,11.81-7.69,1.71-11.24-1.6-11.45-6.61L537,395.31a28.74,28.74,0,0,0,16-4.51Z"/><path d="M540.9,350.56c1.51.35,2.64,1.07,2.51,1.61s-1.44.7-3,.35-2.63-1.07-2.51-1.61S539.39,350.22,540.9,350.56Z"/><path d="M540.07,360.25c1.94.44,3.38,1.36,3.22,2.06s-1.86.89-3.8.45-3.38-1.37-3.22-2.06S538.13,359.8,540.07,360.25Z"/><path class="cls-2" d="M506.3,167.69a20.15,20.15,0,0,0,1.21-6c0-3,1.05-5.1,3-4.92s.67,6.39.37,9-.73,4-.85,6.68a7.33,7.33,0,0,1-1.86,4.43c-5.45,6.18-6.5,8.59-7.41,17,0,0-2.12,19.56,0,36.17s-.81,12.71-1.06,24.11-1.38,30,3.18,41.7,4.89,21.18,4.56,25.09-4.72,12.52-4.72,12.52a18.09,18.09,0,0,0-2.13,8l-21.45-6.23-18.29-21.46c14.66,1,15.64-8.47,15.64-8.47,0-9.77,4.23-53.43,4.23-53.43a17.81,17.81,0,0,1,0-7.82c.33-14.66,3.81-40.86,3.81-40.86,1.44-10.93,4.23-22.26,2.59-25.45-2.67-5.24-1.4-16.86-1.52-18.32s-1.45-6.42-1.75-8.09-.9-4.36,1.12-4.46,3.32,10.08,3.88,11.94,1.55.26,1.35-3.45-.07-6.6-.08-10.46,1.64-3.79,1.64-3.79,1.68-.57,1.73,6.42-.13,9.1,1.16,9,.93-6.21,1.24-11.25.47-6.32,2.43-6.42,2,4,2.05,4.3a6.56,6.56,0,0,1,.42-2.44c.41-.38,2.12-.09,2.69,3.61s-.32,17.29.23,19.43A10.84,10.84,0,0,0,506.3,167.69Z"/><path class="cls-2" d="M476,547.75a35,35,0,0,0,1,3.7,1.09,1.09,0,0,1,.07.3l.34,2.49a1.68,1.68,0,0,0,.52,1l1.14,1.06a1.7,1.7,0,0,1-.31,2.72,1.65,1.65,0,0,1-1.32.17l-2.41-.67a1.68,1.68,0,0,1-1.12-1l-2.19-5.29a1.53,1.53,0,0,0-.27-.44,23.94,23.94,0,0,1-2.62-3.8l-.16.09-1.83-.06-4.21-.13a1.36,1.36,0,0,0-1.2.64l-4.11,6.56a5.18,5.18,0,0,1-3.83,2.38c-.81.09-1.47-.79-1.47-1.61v-.12a1.45,1.45,0,0,1,.59-1c2.12-1.63,5-8.13,5.64-9.6a1.41,1.41,0,0,0,.11-.61l-.56-10.06c0-.08,0-.15,0-.23a3.82,3.82,0,0,1,.71-2.23,4,4,0,0,0,.7-2.45c-.28-5.34-1.78-19.68-2.56-36-.87-18,1.08-38.45,1.08-43.44s-2.82-12.82-1.52-33-.65-20.86-7.38-27.59l14.66-11.63,23.91,9.52c-.48,3.08-.84,7.86-1.43,16-1,13.27-3.87,20.74-5.66,24.49s-2.68,21.4-3.14,26.92c-.6,7.19-2.28,8-2.28,11.08s-1.3,20.52-1.66,26.71c0,.79-.06,2-.06,3.52,0,10.39.91,35.06.91,35.06,1.13.57,1.94,2.63,2.17,3.87a25.8,25.8,0,0,0,2.22,6.58c2,4.2,6.43,9.19,7.86,10.75a1.76,1.76,0,0,1-1.3,2.94h-1.07a1.76,1.76,0,0,1-1.28-.56C480.42,552.4,476,547.75,476,547.75Z"/><path class="cls-3" d="M460.84,313.76l18.29,21.46s-22.85,15-15.68,42.71l-14.66,11.63c-5.87-5.86-45.69-20.14-59.16-25.73,0,0,10-35.08,10.29-47.46s7.17-16.95,7.17-16.95c3,1.82,5.65,3.53,7.81,4.89C423.7,309.85,446.18,312.78,460.84,313.76Z"/><path class="cls-2" d="M466.81,548.05l-3.62,6.57a2.17,2.17,0,0,1-1.16,1,2.08,2.08,0,0,1-.73.13,2.17,2.17,0,0,1-2-1.4l3.32-6.42Z"/><path class="cls-2" d="M403.79,558.48a.63.63,0,0,1,.55.86,4.69,4.69,0,0,1-4.38,3.19c-3.91.08-5.91-.52-12.2-.08s-9.56-1-9.56-1c-8.69-3.6-13.9-.31-18.9-.1s-14.44,0-14.44,0c-8.47,0-5.21-5.91-4.24-10.79a137.61,137.61,0,0,0,2.55-21.79,39.62,39.62,0,0,0,18.09,0,18.75,18.75,0,0,0,12.9,16.6c3,.86,11.12,7.08,13.29,9,1.42,1.28,5.17,1.67,7.59,1.78a8.87,8.87,0,0,1,3.57.89A13.46,13.46,0,0,0,403.79,558.48Z"/><path class="cls-4" d="M407.09,299.42s-6.85,4.57-7.17,16.95-10.29,47.46-10.29,47.46a36.77,36.77,0,0,1-4.05-1.85c-5-3-8.47-.65-9.55,7.82s-3.7,26.28-5,31.92-2.82,17.6-3.47,25.42,0,15.85-1.74,21.28-2.61,19.55-2.61,27.15-3,41.7-1.95,53.21a39.62,39.62,0,0,1-18.09,0,114.57,114.57,0,0,0-1.24-22.48c-3.26-20.2-6.84-31.27-4.56-45.93s2.93-17.27,0-36.49-5.21-89.14-5.21-89.14c-6.66-11.83-32.46-22.14-32.46-22.14s-60.18-27.52-63.62-31.17-5.16-4.08-5.16-4.08c-6-2.15-19.13-1.51-26.44-3.87-4.76-1.55-19.06-7.24-30.21-10.39l.12-.43c-2.51-8.37,3.24-12.36,3.24-12.36l0-.44c9.42.69,20.19,1.32,20.19,1.32,46.34,1,50.07,19.61,104.66,23.16,27.36,2.28,42.35,9.77,48.87,11.08s15.36-.29,24.76.67C385.72,287.07,397.91,293.79,407.09,299.42Z"/><path class="cls-2" d="M177.66,249.86l0,.44s-5.75,4-3.24,12.36l-.12.43c-5.93-1.68-11-2.64-13.2-1.87-6.46,2.22-7.31.43-8.82,0a33.44,33.44,0,0,1-3.95-1.58l-12.91-4s-3.88-1-4.29-4.7c-.38-3.42.93-7.24,1-10.47l2.39,0a2.37,2.37,0,0,0,.49,1.7,2.33,2.33,0,0,0,3.66-2.88l1.36-.16.2-.18h.7s.15,1.12,5,4.46,5.53,1.34,7.74,1.33,6.16,3.07,10.77,3.89C166.21,249,171.66,249.43,177.66,249.86Z"/><path class="cls-2" d="M140.36,235.88a2.34,2.34,0,0,1-.18,3.09l-.2.18-1.36.16a2.36,2.36,0,0,0-2.22-.86l-.05-.32a2.32,2.32,0,0,1,.36-2.25,2.28,2.28,0,0,1,.38-.38A2.32,2.32,0,0,1,140.36,235.88Z"/><path class="cls-2" d="M138.62,239.31a2.33,2.33,0,0,1-3.66,2.88,2.37,2.37,0,0,1-.49-1.7,2.33,2.33,0,0,1,.88-1.57,2.32,2.32,0,0,1,3.27.39Z"/><path class="cls-2" d="M135.88,235.85l.83,0a2.32,2.32,0,0,0-.36,2.25l.05.32a2.37,2.37,0,0,0-1.05.47,2.33,2.33,0,0,0-.88,1.57l-2.39,0c0-.29,0-.57,0-.85C131.84,236.22,133.83,235.38,135.88,235.85Z"/><path class="cls-5" d="M538.34,396.36c.21,5,3.76,8.32,11.45,6.61,8.06-1.78,7.28-10,4.55-11.81"/><path class="cls-5" d="M539.7,355.33a4.05,4.05,0,0,1-3.46-1.55l-4.52-3.36-1.87,4.47"/><path class="cls-5" d="M522.65,386.19a8,8,0,0,1-3.64-5.45s-.06-3.29,3.26-1"/><path class="cls-5" d="M528.67,382.07s2.87,5.43-3.13,5.38a9.23,9.23,0,0,1-2.46-1"/><path class="cls-5" d="M525.54,387.45c5.23,1.36,7.71-3.49,7.71-3.49,3.72-6.11,16.37-7.9,16.37-7.9,15.76-.32,10.06-20.1,10.06-20.1"/><path class="cls-5" d="M513.56,384.88s5.61-.73,9.09,1.31a3.87,3.87,0,0,1,.43.27"/><path class="cls-5" d="M518.88,372.17s-5.29-3-4.25-8.34"/><path class="cls-5" d="M489.78,368.26s13.09,6.07,21.19,9.13"/><path class="cls-5" d="M500.36,143.14c-.32,4.17-.33,12.27-.67,13.58"/><path class="cls-5" d="M507.07,168.47s-.33-.3-.77-.78a10.84,10.84,0,0,1-2.6-4c-.55-2.14.34-15.72-.23-19.43s-2.28-4-2.69-3.61a6.56,6.56,0,0,0-.42,2.44"/><path class="cls-5" d="M500.36,143.14v0c0-.32-.17-4.39-2.05-4.3s-2.11,1.38-2.43,6.42.06,11.13-1.24,11.25-1.1-2-1.16-9-1.73-6.42-1.73-6.42-1.65-.07-1.64,3.79-.12,6.75.08,10.46-.79,5.31-1.35,3.45-1.85-12-3.88-11.94-1.41,2.79-1.12,4.46,1.64,6.63,1.75,8.09-1.15,13.08,1.52,18.32c1.64,3.19-1.15,14.52-2.59,25.45,0,0-3.48,26.2-3.81,40.86a17.81,17.81,0,0,0,0,7.82s-4.23,43.66-4.23,53.43c0,0-1,9.45-15.64,8.47s-37.14-3.91-45.94-9.45c-2.16-1.36-4.83-3.07-7.81-4.89-9.18-5.63-21.37-12.35-30.95-13.33-9.4-1-18.25.63-24.76-.67s-21.51-8.8-48.87-11.08c-54.59-3.55-58.32-22.15-104.66-23.16,0,0-10.77-.63-20.19-1.32-6-.43-11.45-.88-13.25-1.2-4.61-.82-8.55-3.91-10.77-3.89s-2.86,2-7.74-1.33-5-4.46-5-4.46"/><path class="cls-5" d="M135.88,235.85c-2-.47-4,.37-3.82,3.75,0,.28,0,.56,0,.85-.05,3.23-1.36,7.05-1,10.47.41,3.73,4.29,4.7,4.29,4.7l12.91,4a33.44,33.44,0,0,0,3.95,1.58c1.51.43,2.36,2.22,8.82,0,2.24-.77,7.27.19,13.2,1.87,11.15,3.15,25.45,8.84,30.21,10.39,7.31,2.36,20.42,1.72,26.44,3.87,0,0,1.72.43,5.16,4.08S299.7,312.6,299.7,312.6s25.8,10.31,32.46,22.14c0,0,2.27,69.92,5.21,89.14s2.28,21.83,0,36.49,1.3,25.73,4.56,45.93a114.57,114.57,0,0,1,1.24,22.48,137.61,137.61,0,0,1-2.55,21.79c-1,4.88-4.23,10.79,4.24,10.79,0,0,9.45.22,14.44,0s10.21-3.5,18.9.1c0,0,3.26,1.42,9.56,1s8.29.16,12.2.08a4.69,4.69,0,0,0,4.38-3.19.63.63,0,0,0-.55-.86,13.46,13.46,0,0,1-5.18-1.4,8.87,8.87,0,0,0-3.57-.89c-2.42-.11-6.17-.5-7.59-1.78-2.17-1.95-10.25-8.17-13.29-9a18.75,18.75,0,0,1-12.9-16.6c-1.09-11.51,1.95-45.61,1.95-53.21s.87-21.72,2.61-27.15,1.08-13.46,1.74-21.28,2.17-19.77,3.47-25.42,3.91-23.45,5-31.92,4.56-10.86,9.55-7.82a36.77,36.77,0,0,0,4.05,1.85c13.47,5.59,53.29,19.87,59.16,25.73,6.73,6.73,8.68,7.39,7.38,27.59s1.52,28,1.52,33-1.95,25.41-1.08,43.44c.78,16.29,2.28,30.63,2.56,36a4,4,0,0,1-.7,2.45,3.82,3.82,0,0,0-.71,2.23c0,.08,0,.15,0,.23l.56,10.06a1.41,1.41,0,0,1-.11.61c-.64,1.47-3.52,8-5.64,9.6a1.45,1.45,0,0,0-.59,1v.12c0,.82.66,1.7,1.47,1.61a5.18,5.18,0,0,0,3.83-2.38l4.11-6.56a1.36,1.36,0,0,1,1.2-.64l4.21.13,1.83.06"/><path class="cls-5" d="M136.12,250s-2.71-3.5,0-5.77,5.61-1.87,6.64.51-1.55,5.81-3.61,6.93"/><path class="cls-5" d="M136.4,238.45a2.37,2.37,0,0,0-1.05.47,2.33,2.33,0,0,0-.88,1.57,2.37,2.37,0,0,0,.49,1.7,2.33,2.33,0,0,0,3.66-2.88A2.36,2.36,0,0,0,136.4,238.45Z"/><path class="cls-5" d="M140,239.15l.2-.18a2.33,2.33,0,0,0-3.09-3.47,2.28,2.28,0,0,0-.38.38,2.32,2.32,0,0,0-.36,2.25"/><path class="cls-5" d="M177.63,250.3s-5.75,4-3.24,12.36"/><path class="cls-5" d="M466.81,541a13.82,13.82,0,0,0,2,7.07,23.94,23.94,0,0,0,2.62,3.8,1.53,1.53,0,0,1,.27.44l2.19,5.29a1.68,1.68,0,0,0,1.12,1l2.41.67a1.65,1.65,0,0,0,1.32-.17,1.7,1.7,0,0,0,.31-2.72l-1.14-1.06a1.68,1.68,0,0,1-.52-1l-.34-2.49a1.09,1.09,0,0,0-.07-.3,35,35,0,0,1-1-3.7,12.6,12.6,0,0,1-.27-4"/><path class="cls-5" d="M476,547.75s4.43,4.65,6.65,7a1.76,1.76,0,0,0,1.28.56H485a1.76,1.76,0,0,0,1.3-2.94c-1.43-1.56-5.82-6.55-7.86-10.75a25.8,25.8,0,0,1-2.22-6.58c-.23-1.24-1-3.3-2.17-3.87,0,0-.91-24.67-.91-35.06,0-1.52,0-2.73.06-3.52.36-6.19,1.66-23.62,1.66-26.71s1.68-3.89,2.28-11.08c.46-5.52,1.35-23.18,3.14-26.92s4.68-11.22,5.66-24.49c.59-8.11.95-12.89,1.43-16a14.82,14.82,0,0,1,1.17-4.26c1.31-2.64,4.47-7.69,8.91-7.31,9,.76,12.8,6,14.48,7.58q.8.74,1.56,1.5c3.38,3.3,6.5,6.69,11.94,8.5A37.49,37.49,0,0,0,537,395.31a28.74,28.74,0,0,0,16-4.51,26.07,26.07,0,0,0,4.87-4.17s11-13.47,4.24-27.49c0,0-.23-1.24-2.4-3.18a32.67,32.67,0,0,0-7.85-4.86s-1.24-.66-3.25-1.68-4.72,0-8.65-2.18-14.94-1-22.09-1.19c0,0-7.13-.5-7.28,8.73l-8-2.2c-.22-2.41-2.15-6.22-2-11.13a18.09,18.09,0,0,1,2.13-8s4.39-8.61,4.72-12.52,0-13.36-4.56-25.09-3.43-30.3-3.18-41.7,3.18-7.49,1.06-24.11,0-36.17,0-36.17c.91-8.39,2-10.8,7.41-17a7.33,7.33,0,0,0,1.86-4.43c.12-2.67.54-4,.85-6.68s1.58-8.86-.37-9-2.95,1.89-3,4.92a20.15,20.15,0,0,1-1.21,6"/><path class="cls-5" d="M457.26,391.16a30.22,30.22,0,0,1,8.47,12.26"/><path class="cls-5" d="M466.81,548.05l-3.62,6.57a2.17,2.17,0,0,1-1.16,1,2.08,2.08,0,0,1-.73.13,2.17,2.17,0,0,1-2-1.4l3.32-6.42"/><path class="cls-5" d="M361.26,528.78a39.62,39.62,0,0,1-18.09,0"/><path class="cls-5" d="M485.6,308.87s-2.14,11.73-12.47,10.76"/><path class="cls-5" d="M500.58,341.45l-21.45-6.23s-22.85,15-15.68,42.71l23.91,9.52h0"/><line class="cls-5" x1="479.13" y1="335.22" x2="460.84" y2="313.76"/><line class="cls-5" x1="463.45" y1="377.93" x2="448.79" y2="389.56"/><path class="cls-5" d="M407.09,299.42s-6.85,4.57-7.17,16.95-10.29,47.46-10.29,47.46"/></svg>