<svg id="Layer_1" data-name="Layer 1" xmlns="http://www.w3.org/2000/svg" viewBox="0 0 700 700"><defs><style>.cls-1{fill:#feae63;}.cls-2{fill:#99abcc;}.cls-3{fill:#c4e7f9;}.cls-4{fill:#120c0c;}.cls-5{fill:none;stroke:#000;stroke-linecap:round;stroke-linejoin:round;stroke-width:2.3px;}</style></defs><title>Yoga_poses_2020_color</title><path class="cls-1" d="M567.05,400.67a2.06,2.06,0,0,1-.83,3.81c-3.33.37-10.42,1.09-14.79,1.09a153.44,153.44,0,0,1-25.08-1.63,174.67,174.67,0,0,0-21.84-1.84,20.86,20.86,0,0,0,1.1-19.55c6.39.55,11.92.08,14.55-3l1.26-1.16a7.51,7.51,0,0,1,9.41-.64c1.75,1.23,4.26,4.31,6.63,7.55a21.6,21.6,0,0,0,6.94,6.13c3.71,2.07,9,4.76,13.22,5.71A32,32,0,0,1,567.05,400.67Z"/><path class="cls-2" d="M431.63,379.23l1.21.28s11.41-2.93,18.25-4.23,23.13,2.28,35.18,4.23c6,1,13.07,2.5,19.34,3a20.86,20.86,0,0,1-1.1,19.55,290.59,290.59,0,0,0-43.65,2.17s-16.29-.65-25.08-.33c-5.75.22-14.84.15-20.44.08a8.22,8.22,0,0,1-7.33-4.67c-4-8.33-11.76-27.13-13-49.35a316.78,316.78,0,0,1,.21-32.72c.31-8.57.11-13.57-3.14-16A69.05,69.05,0,0,1,379,292.83a12.93,12.93,0,0,0-6.8-3.06c-1.49-.19-3.33-.39-5.46-.57,0,0,4.6-14.22,7.79-20.13,6.41-11.89,10.28-21.29,10.28-21.29,9.93,2.41,13.76,3.58,23.6,6,13.36,3.26,33.88,16.29,32.25,43s-2,14.66-4.88,45.61C433.83,362.87,433.18,372.5,431.63,379.23Z"/><path class="cls-2" d="M392.12,301.32c3.25,2.39,3.45,7.39,3.14,16h0s-26.59,14.66-36.63,18.9-30.36,13.68-44,26.06S282.78,379,282.78,379l5.2-19.13c1.45-5.37,2.53-9.66,3.33-13.14,0,0,0,0,0,0,.45-.11,7.7-1.9,10.23-4.38s5.86-10.06,14.66-15.27,15.31-13.36,18.9-17.59,28.27-20.27,28.27-20.27V289c1.18.07,2.3.15,3.35.23,2.13.18,4,.38,5.46.57a12.93,12.93,0,0,1,6.8,3.06A69.05,69.05,0,0,0,392.12,301.32Z"/><path class="cls-3" d="M384.81,247.78s-3.87,9.4-10.28,21.29c-3.19,5.91-7.79,20.13-7.79,20.13-1.05-.08-2.17-.16-3.35-.23a144.79,144.79,0,0,0-16.88,0c-17.27,1-20.85-6.19-25.41-8.14s-15-1.71-15-1.71l-.42-.1c1.59-6.65,3-12.94,3.76-17.74.41-2.66.81-4.9,1.16-6.75,0,0,12.68,2.53,13.79-11.4a31.35,31.35,0,0,0-7.29-22.78c2.26,1.22,4.85,2.68,7.87,4.44,17.92,10.42,24.76,14.93,46.26,19.84C376.93,245.9,381.26,246.92,384.81,247.78Z"/><path class="cls-1" d="M263.6,402.66S252,414.86,248.45,415h-1.1a1.35,1.35,0,0,1-1.35-1.35h-3.54a1.51,1.51,0,0,1-.55-2.91c2.67-1.05,10.22-4.66,14-12.9l.4-1.78a6,6,0,0,1,2.11-3.39,52.79,52.79,0,0,0,10.52-11l1.56-5.43s1.53-8.47,2.63-20.22c.39-4.21.73-8.85.93-13.66,0,0,1.07-20.31,3.68-29,0,0,1.73-6.29,2.6-10.42s5-25.34,5-25.34c1.94-8.89-2.51-22.67-1.25-29.41.21-1.15.42-2.36.61-3.6.29-1.83.55-3.7.78-5.49,0,0-3.7-18,5.19-23A18.32,18.32,0,0,1,304,214.5c.66.19,1.33.4,2,.64l.13.05a76.14,76.14,0,0,1,11,5.13,31.35,31.35,0,0,1,7.29,22.78c-1.11,13.93-13.79,11.4-13.79,11.4-.35,1.85-.75,4.09-1.16,6.75-.75,4.8-2.17,11.09-3.76,17.74-2.2,9.23-4.72,19.12-6.23,26.57-2.61,12.81-.87,10-3.91,18.89-2.49,7.3-.61,6.43-4.26,22.26,0,0,0,0,0,0-.8,3.48-1.88,7.77-3.33,13.14L282.78,379l-2.56,9.43a7.06,7.06,0,0,1-1.86,3.2l-.7.68h0l-7.13,7L268.81,401s-3,9.89-5.16,13.27a1.56,1.56,0,0,1-2.89-.82,1.52,1.52,0,0,1,.1-.55A48.24,48.24,0,0,0,263.6,402.66Zm0-.05c.07-.54.12-1.07.15-1.6Z"/><path class="cls-1" d="M258.23,197.42c3.47,3.09,5.12,1.89,7.48,2.19a10.89,10.89,0,0,1,5.12,1.53s3.85,2.45,5.68-.78c.35.57,6.17,9.77,16.89,11.84A105.88,105.88,0,0,1,304,214.5a18.32,18.32,0,0,0-13.29,1.66c-8.89,4.94-5.19,23-5.19,23-.23,1.79-.49,3.66-.78,5.49L283,241.13c-.69-3.87-3-7.75-6.84-8.89s-11.75-7.34-11.75-7.34a6.13,6.13,0,0,0-5.52-.08,6.58,6.58,0,0,0-.69.39c-7.64,7.68-10.4,1.25-10.58.33l-6.55-7.45-4.66,2-1-5.82c.06-3.25-1.42-3-3.91-6.41-3.2-4.28-4.87-12.93-4.87-12.93l-.73-1.69c.21.14,7.15,4.48,14.21,4.8a25.53,25.53,0,0,0,12.32-3c.78-.89,2.09-1.31,4.27.14a8.8,8.8,0,0,1,1.54,2.24Zm-18.36,13c.48-.39.13-1.6-.77-2.69s-2-1.67-2.48-1.28-.13,1.59.77,2.69S239.4,210.84,239.87,210.45Z"/><path class="cls-1" d="M277.66,392.3v.44a6.94,6.94,0,0,1-1.74,4.59,4.85,4.85,0,0,0-1.23,3.67,21.11,21.11,0,0,0,.8,3.73c.16.61.49,2,.78,3.19a1.8,1.8,0,0,1-1.75,2.21h-.95a3,3,0,0,1-3-3v-7.77Z"/><path class="cls-4" d="M276.51,200.36c-1.83,3.23-5.68.78-5.68.78a10.89,10.89,0,0,0-5.12-1.53c-2.36-.3-4,.9-7.48-2.19h0a8.8,8.8,0,0,0-1.54-2.24c-2.18-1.45-3.49-1-4.27-.14a25.53,25.53,0,0,1-12.32,3c-7.06-.32-14-4.66-14.21-4.8h0l-.55-1.28c6.15-12.61,12.33-22,26.94-23.62h.07c1-.11,2.09-.19,3.2-.22a18.35,18.35,0,0,1,3.77.27c13.78,2.46,17.5,20.39,17.5,20.39C277.92,195.18,277.52,198.61,276.51,200.36Z"/><path class="cls-2" d="M257.47,364.57,273.16,356c-1.1,11.75-2.63,20.22-2.63,20.22L269,381.68s-12.64,2.9-24.57,6.49c-4-7.74-2.72-18.36-2.72-18.36A55.62,55.62,0,0,0,257.47,364.57Z"/><path class="cls-4" d="M260.06,157.36c4.09,6.36-.66,10.48-.66,10.48l-.1.55a18.35,18.35,0,0,0-3.77-.27c-1.11,0-2.18.11-3.2.22h-.07c-8.87.7-9.91-7.27-8-10.25C247,153.91,256,151,260.06,157.36Z"/><path class="cls-1" d="M241.68,369.81s-1.28,10.62,2.72,18.36c-6.83,2.06-13.43,4.33-17.29,6.43a7.31,7.31,0,0,1-3.49.87h-4.3A7.37,7.37,0,0,1,212,388.9a53.51,53.51,0,0,1,0-9.72A33.89,33.89,0,0,0,209,362a14.17,14.17,0,0,1-1.32-6v-3.22a4,4,0,0,1,1.11-2.77l.12-6.75a3.49,3.49,0,0,1,.38-1.52l.35-.7a2.61,2.61,0,0,1,3.11-1.33,2,2,0,0,1,1.33,2.37,15.47,15.47,0,0,0-.05,5.91s4.4,8.79,7,11.2,3.83,7.52,7.23,9.79C230.23,370.29,235.19,370.89,241.68,369.81Z"/><path d="M239.1,207.76c.9,1.09,1.25,2.3.77,2.69s-1.58-.19-2.48-1.28-1.25-2.3-.77-2.69S238.2,206.66,239.1,207.76Z"/><path class="cls-5" d="M259.4,167.84s4.75-4.12.66-10.48-13.06-3.45-15.77.73c-1.94,3-.9,10.95,8,10.25"/><path class="cls-5" d="M261.07,212.2s2.12,4.92-1.42,8.12"/><path class="cls-5" d="M258.23,197.42a7.77,7.77,0,0,1,.22,6.61s-1.68,2.69-3.17-.9"/><path class="cls-5" d="M251.32,197.88a5.81,5.81,0,0,1,1.09-2.85c.78-.89,2.09-1.31,4.27.14a8.8,8.8,0,0,1,1.54,2.24"/><path class="cls-5" d="M225.88,193.24c.21.14,7.15,4.48,14.21,4.8a25.53,25.53,0,0,0,12.32-3"/><path class="cls-5" d="M258.22,197.41h0c3.47,3.09,5.12,1.89,7.48,2.19a10.89,10.89,0,0,1,5.12,1.53s3.85,2.45,5.68-.78c1-1.75,1.41-5.18.29-11.58,0,0-3.72-17.93-17.5-20.39a18.35,18.35,0,0,0-3.77-.27c-1.11,0-2.18.11-3.2.22h-.07c-14.61,1.61-20.79,11-26.94,23.62l.55,1.28h0l.73,1.69s1.67,8.65,4.87,12.93c2.49,3.37,4,3.16,3.91,6.41l1,5.82,4.66-2,6.55,7.45c.18.92,2.94,7.35,10.58-.33a6.58,6.58,0,0,1,.69-.39,6.13,6.13,0,0,1,5.52.08s7.87,6.2,11.75,7.34,6.15,5,6.84,8.89l1.75,3.47"/><path class="cls-5" d="M263.6,402.66S252,414.86,248.45,415h-1.1a1.35,1.35,0,0,1-.28-2.67l.86-.19a1.3,1.3,0,0,0,.62-.31c1.57-1.43,9.47-8.8,10.65-13.93"/><path class="cls-5" d="M263.61,402.61c.07-.54.12-1.07.15-1.6Z"/><path class="cls-5" d="M263.61,402.61a.07.07,0,0,1,0,.05"/><path class="cls-5" d="M277.66,392.3l-7.13,7L268.81,401s-3,9.89-5.16,13.27a1.56,1.56,0,0,1-2.89-.82,1.52,1.52,0,0,1,.1-.55,48.24,48.24,0,0,0,2.74-10.25"/><path class="cls-5" d="M291.31,346.71c-.8,3.48-1.88,7.77-3.33,13.14L282.78,379l-2.56,9.43a7.06,7.06,0,0,1-1.86,3.2l-.7.68"/><path class="cls-5" d="M312.08,247.78s-.58,2.15-1.44,6.72c-.35,1.85-.75,4.09-1.16,6.75-.75,4.8-2.17,11.09-3.76,17.74-2.2,9.23-4.72,19.12-6.23,26.57-2.61,12.81-.87,10-3.91,18.89-2.49,7.3-.61,6.43-4.26,22.26"/><path class="cls-5" d="M246,413.67h-3.54a1.51,1.51,0,0,1-.55-2.91c2.67-1.05,10.22-4.66,14-12.9l.4-1.78a6,6,0,0,1,2.11-3.39,52.79,52.79,0,0,0,10.52-11l1.56-5.43s1.53-8.47,2.63-20.22c.39-4.21.73-8.85.93-13.66,0,0,1.07-20.31,3.68-29,0,0,1.73-6.29,2.6-10.42s5-25.34,5-25.34c1.94-8.89-2.51-22.67-1.25-29.41.21-1.15.42-2.36.61-3.6.29-1.83.55-3.7.78-5.49.68-5.32,1.11-9.83,1.11-9.83"/><path class="cls-5" d="M270.53,399.32v7.77a3,3,0,0,0,3,3h.95a1.8,1.8,0,0,0,1.75-2.21c-.29-1.21-.62-2.58-.78-3.19a21.11,21.11,0,0,1-.8-3.73,4.85,4.85,0,0,1,1.23-3.67,6.94,6.94,0,0,0,1.74-4.59v-.44h0"/><path class="cls-5" d="M269,381.68s-12.64,2.9-24.57,6.49c-6.83,2.06-13.43,4.33-17.29,6.43a7.31,7.31,0,0,1-3.49.87h-4.3A7.37,7.37,0,0,1,212,388.9a53.51,53.51,0,0,1,0-9.72A33.89,33.89,0,0,0,209,362a14.17,14.17,0,0,1-1.32-6v-3.22a4,4,0,0,1,1.11-2.77l.12-6.75a3.49,3.49,0,0,1,.38-1.52l.35-.7a2.61,2.61,0,0,1,3.11-1.33,2,2,0,0,1,1.33,2.37,15.47,15.47,0,0,0-.05,5.91s4.4,8.79,7,11.2,3.83,7.52,7.23,9.79c2,1.32,6.94,1.92,13.43.84a55.62,55.62,0,0,0,15.79-5.24L273.16,356"/><path class="cls-5" d="M241.68,369.81s-1.28,10.62,2.72,18.36h0"/><path class="cls-5" d="M306.14,215.19a76.14,76.14,0,0,1,11,5.13c2.26,1.22,4.85,2.68,7.87,4.44,17.92,10.42,24.76,14.93,46.26,19.84,5.66,1.3,10,2.32,13.54,3.18,9.93,2.41,13.76,3.58,23.6,6,13.36,3.26,33.88,16.29,32.25,43s-2,14.66-4.88,45.61c-1.95,20.5-2.6,30.13-4.15,36.86a36.34,36.34,0,0,1-3.35,9.08"/><path class="cls-5" d="M276.49,200.33l0,0c.35.57,6.17,9.77,16.89,11.84A105.88,105.88,0,0,1,304,214.5c.66.19,1.33.4,2,.64"/><path class="cls-5" d="M432.84,379.51s11.41-2.93,18.25-4.23,23.13,2.28,35.18,4.23c6,1,13.07,2.5,19.34,3s11.92.08,14.55-3l1.26-1.16a7.51,7.51,0,0,1,9.41-.64c1.75,1.23,4.26,4.31,6.63,7.55a21.6,21.6,0,0,0,6.94,6.13c3.71,2.07,9,4.76,13.22,5.71a32,32,0,0,1,9.43,3.57,2.06,2.06,0,0,1-.83,3.81c-3.33.37-10.42,1.09-14.79,1.09a153.44,153.44,0,0,1-25.08-1.63,174.67,174.67,0,0,0-21.84-1.84,290.59,290.59,0,0,0-43.65,2.17s-16.29-.65-25.08-.33c-5.75.22-14.84.15-20.44.08a8.22,8.22,0,0,1-7.33-4.67c-4-8.33-11.76-27.13-13-49.35a316.78,316.78,0,0,1,.21-32.72c.31-8.57.11-13.57-3.14-16A69.05,69.05,0,0,1,379,292.83a12.93,12.93,0,0,0-6.8-3.06c-1.49-.19-3.33-.39-5.46-.57-1.05-.08-2.17-.16-3.35-.23a144.79,144.79,0,0,0-16.88,0c-17.27,1-20.85-6.19-25.41-8.14s-15-1.71-15-1.71"/><path class="cls-5" d="M366.74,289.2s4.6-14.22,7.79-20.13c6.41-11.89,10.28-21.29,10.28-21.29"/><path class="cls-5" d="M282.78,379s18.12-4.36,31.8-16.74,34-21.82,44-26.06,36.63-18.9,36.63-18.9"/><path class="cls-5" d="M291.3,346.72h0s0,0,0,0c.45-.11,7.7-1.9,10.23-4.38s5.86-10.06,14.66-15.27,15.31-13.36,18.9-17.59,28.27-20.27,28.27-20.27"/><path class="cls-5" d="M505.61,382.55a20.86,20.86,0,0,1-1.1,19.55"/><path class="cls-5" d="M285.51,239.11s-3.7-18,5.19-23A18.32,18.32,0,0,1,304,214.5a12.77,12.77,0,0,1,2,.64l.13.05"/><path class="cls-5" d="M310.64,254.5s12.68,2.53,13.79-11.4a31.35,31.35,0,0,0-7.29-22.78"/></svg>