<svg id="Layer_1" data-name="Layer 1" xmlns="http://www.w3.org/2000/svg" viewBox="0 0 700 700"><defs><style>.cls-1{fill:#392328;}.cls-2{fill:#feae63;}.cls-3{fill:#c4e7f9;}.cls-4{fill:#99abcc;}.cls-5{fill:none;stroke:#000;stroke-linecap:round;stroke-linejoin:round;stroke-width:2.3px;}</style></defs><title>Yoga_poses_2020_color</title><path class="cls-1" d="M559.94,296.25l-.44,1.33s-10.37,1.11-12.68,1.21c-4.6.18-5.84,3.46-9.72,5.7s-7.94,1.6-9.87.25c0,0-2.17-5.62-6-1.14a8.59,8.59,0,0,0-.69,1.78l-.13,0s-6.29.19-8.19,4.12c-.29.61-.59,1.18-.89,1.72h0c-3.46,4.27-6.61,1-7.25-6.75-.7-8.65,5.46-17.64,5.46-17.64a27.66,27.66,0,0,1,13.15-10.68,20.48,20.48,0,0,1,4.56-1.25c.94-.06,1.85-.08,2.72-.08C545.3,274.85,552.49,283.86,559.94,296.25Z"/><path class="cls-2" d="M520.54,305.38a8.59,8.59,0,0,1,.69-1.78c3.83-4.48,6,1.14,6,1.14,1.93,1.35,6,2,9.87-.25s5.12-5.52,9.72-5.7c2.31-.1,12.68-1.21,12.68-1.21l-.59,1.76s-.93,8.89-3.76,13.52c-2.23,3.64-3.73,3.56-3.39,6.86l-.49,6-4.89-1.64-5.94,8.17c-.13.93-2.31,7.65-10.74.61,0,0-2.3-2.12-3.09-1,0,0-1.48,2-3.57,4.58-1,1.21-2.1,2.54-3.25,3.83l.43.39c.45,4.61,1.66,15.69,2.25,21.05a26.88,26.88,0,0,1,.15,3.59c-12.82,20.91-18.25-9.89-18.93-14.24,2.38-10.74-3.05-29.78-3.05-29.78a7,7,0,0,0,2.37-1,23.24,23.24,0,0,0,8.31-9.08h0c.3-.54.6-1.11.89-1.72,1.9-3.93,8.19-4.12,8.19-4.12Zm28.75,9.34c.81-1.18,1.05-2.43.53-2.78s-1.59.32-2.4,1.51-1,2.44-.53,2.79S548.48,315.91,549.29,314.72Z"/><path class="cls-2" d="M522.62,365.25a26.88,26.88,0,0,0-.15-3.59c-.59-5.36-1.8-16.44-2.25-21.05l-.43-.39c1.15-1.29,2.27-2.62,3.25-3.83h0l3.24,1.63a12.65,12.65,0,0,1,6,6.39A111.84,111.84,0,0,1,538.78,368a112.24,112.24,0,0,0,4.12,15.42c2.61,7.16,5,26.06,5,26.06s7,10,5,16.07l-1.95,4.35,7.17,6.86a1.69,1.69,0,0,1-1.17,2.91h-.38a1.72,1.72,0,0,1-1.1-.41l-6.91-6-.17,5.38a1.84,1.84,0,0,1-1.73,1.78h-.13a1.85,1.85,0,0,1-1.95-1.66l-.69-6.94-2.71,6.8a2.18,2.18,0,0,1-4.17-1.15l1-6.39-5.63,8.23a1.82,1.82,0,0,1-1.53.79h-.09a1.85,1.85,0,0,1-1.55-2.66l1.81-3.6-.07,0-5.05,1-5.16,2.5c-2.2.73-3.41-1-4-2.25a1,1,0,0,1,.54-1.35,24.57,24.57,0,0,0,4.07-2.26l4.53-1.38a29.37,29.37,0,0,0,7.09-3.89,24.72,24.72,0,0,1-1.09-7.87c.22-3.91-.76-4.67-1.19-6.85s-3-11.94-3.8-13.9-5.05-26.36-5.05-26.36c.2-1.08.35-2.07.48-2.93A22.88,22.88,0,0,0,522.62,365.25Z"/><path d="M549.82,311.94c.52.35.28,1.6-.53,2.78s-1.89,1.87-2.4,1.52-.28-1.6.53-2.79S549.31,311.58,549.82,311.94Z"/><path class="cls-1" d="M529,263.66c5,5.64,1,10.46,1,10.46v.67c-.87,0-1.78,0-2.72.08a20.48,20.48,0,0,0-4.56,1.25l0-.1c-8.69,2.15-10.58-5.87-9.14-9.13C515.52,262.34,523.92,258,529,263.66Z"/><path class="cls-3" d="M522.62,365.25a22.88,22.88,0,0,1-.25,3c-.13.86-.28,1.85-.48,2.93a70.3,70.3,0,0,1-3.7,13.45c-3.7,9.12-5.75,17.33-16.61,20.37s-35.78,28.16-69.88,26q-4.56-.29-8.69-.45s4.78-17.79,4.24-28.65c-.33-6.55-4.47-19-4.47-19a32.26,32.26,0,0,0,12.61.12,26.12,26.12,0,0,0,4.27-1.35c9.77-4,18-13.55,19.68-22.11a132.48,132.48,0,0,1,3.72-14c-2,8.2,23.09,15.29,35.1,12.49,3-.71,4.72-3.37,5.53-7C504.37,355.36,509.8,386.16,522.62,365.25Z"/><path class="cls-2" d="M437,378.77l-.94.83a2.53,2.53,0,0,1,0-3.59l0,0,.32-.26a2.31,2.31,0,0,0,.86-1.52l.64-4.85a2.32,2.32,0,0,0-.35-1.56l-3.9-5.43L435,366a2.54,2.54,0,0,1,.12,1.16l-.54,3.66-.29,1.93a2.35,2.35,0,0,1-.28.82l-1.21,2.12-.31.54a2.15,2.15,0,0,1-1.44-2,5.08,5.08,0,0,1,0-1.39l.17-5.4a3.42,3.42,0,0,0-.08-.84,3.23,3.23,0,0,0-.76-1.48l-2.23-2.5a3.41,3.41,0,0,0-1.45-.94,32.85,32.85,0,0,0-4.49-1.12,22.84,22.84,0,0,0-3.54-.32,8.43,8.43,0,0,1-3.69-.77,5.69,5.69,0,0,1-3.37-5.52s-3-24-3.15-28.35-.76-17.37,0-25,1-14.67,1.09-16.4,4.23-4,10.2-3.59,22.05,6.19,27,8.69,14.45,8.25,21.4,11.3,19.76,9.77,25.08,14.55c5.91,5.3,4.42,6.65,7.37,6,0,0,5.43,19,3.05,29.78-.81,3.6-2.48,6.26-5.53,7-12,2.8-37.07-4.29-35.1-12.49l.09-.31c1.14-3.58,2.17-6.49,2.7-8.32,1.14-3.91-1.14-10.59-7.82-15.8s-29-17.59-29-17.59-5.38,5.54-6.52,19.71-.49,17.75-.81,20.69,1.63,5.54,6.68,7.65,10.75,2.61,11.56,5.22a37.72,37.72,0,0,0,5.25,10,1,1,0,0,1,.14.9L443,375.36a1.1,1.1,0,0,1-.29.46l-3.34,3.06a1.06,1.06,0,0,1-.7.27h-.16l-1.35-.2Z"/><path class="cls-2" d="M437.54,367.8a2.32,2.32,0,0,1,.35,1.56l-.64,4.85a2.31,2.31,0,0,1-.86,1.52l-.32.26-.19-.24a1.33,1.33,0,0,0,.24-.53l-1.57-4.4.54-3.66A2.54,2.54,0,0,0,435,366l-1.33-3.63Z"/><path class="cls-2" d="M434.55,370.82l1.57,4.4a1.33,1.33,0,0,1-.24.53c-.35.47-1.19.94-3.11-.06l1.21-2.12a2.35,2.35,0,0,0,.28-.82Z"/><path class="cls-2" d="M431.14,366.62a3.42,3.42,0,0,1,.08.84l-.17,5.4a5.08,5.08,0,0,0,0,1.39c-1.53-1.05-4.37-6.16-4.37-6.16a3,3,0,0,0,.39-.27l.21.05c2.71.65,3.62-1.19,3.62-1.19Z"/><path class="cls-2" d="M431.14,366.62l-.27.06s-.91,1.84-3.62,1.19l-.21-.05a4.68,4.68,0,0,0,.75-.71l-6.3-3.7.72-2.83a32.85,32.85,0,0,1,4.49,1.12,3.41,3.41,0,0,1,1.45.94l2.23,2.5A3.23,3.23,0,0,1,431.14,366.62Z"/><path class="cls-2" d="M421.49,363.41l6.3,3.7a4.68,4.68,0,0,1-.75.71,3,3,0,0,1-.39.27,4.9,4.9,0,0,1-4.72.32s-4.13,3.47-13.25,10c0,0-3.7,3-5,5.86s-6.08,15.16-10.86,13.88c-3.33-.89-8.76-3.48-11.75-5a5.43,5.43,0,0,0-4.51-.14c-1.83.77-4.71,2-8.56,3.93h0c0-8.93-7.07-17.72-7.07-17.72l-.21-.5a80.2,80.2,0,0,0,11.69-6c11.51-7.38,37.14-12.16,42.57-13.25h0a8.43,8.43,0,0,0,3.69.77,22.84,22.84,0,0,1,3.54.32Z"/><path class="cls-4" d="M368,397c3.85-1.89,6.73-3.16,8.56-3.93a5.43,5.43,0,0,1,4.51.14c3,1.49,8.42,4.08,11.75,5,4.78,1.28,9.56-11.05,10.86-13.88s5-5.86,5-5.86a63.66,63.66,0,0,0,14.1,4.44s4.14,12.47,4.47,19c.54,10.86-4.24,28.65-4.24,28.65-28.15-1.15-42.28,1.75-59.29,3.93-18.68,2.39-84.49,3-87.53,1.52S265.33,426.4,266,418.15a6.8,6.8,0,0,1,.17-1.1c1.71-7.77,14.62-14.21,19.81-16.28,2.11-.85,8.51-2.7,16-4.78,11.83-3.26,26.4-7.06,31.32-8.25a189.9,189.9,0,0,0,27.41-9l.21.5S368,388,368,397Z"/><path class="cls-4" d="M291.39,396.43c5.65,0,10.6-.44,10.6-.44-7.52,2.08-13.92,3.93-16,4.78-5.19,2.07-18.1,8.51-19.81,16.28,0,0-20.59-1.29-27.54-2.16-5.09-.64-18.56-2.56-30.35-2.17-2.06-10.13.77-17.09.77-17.09,15.21-2.61,39-6.74,49.13-5.5C270.54,391.65,285.74,396.43,291.39,396.43Z"/><path class="cls-2" d="M209,395.63s-2.83,7-.77,17.09a52,52,0,0,0-11.78,1.52c-12.6,3.47-19.55,4.12-24.54,5.86s-16.51,4.35-16.51,4.35h-6.52a48.67,48.67,0,0,1-6.08-.22c-2.61-.22-5.65-1.3-3-3.91s4.78-1.76,4.78-1.76a65.55,65.55,0,0,0,11.59-7c5-4,8.82-8.14,9.26-10.75s4.13-12.81,9.34-11.29,6.51,3.27,8.25,4.13,4.78,5.42,17.38,3.47C202.68,396.72,205.64,396.21,209,395.63Z"/><path class="cls-5" d="M527.23,304.74s-2.17-5.62-6-1.14a8.59,8.59,0,0,0-.69,1.78,8,8,0,0,0,1.45,7.36s2.39,2.16,2.84-1.76"/><path class="cls-5" d="M521.64,317.74s-2.13,4.92,1.41,8.12"/><path class="cls-5" d="M559.5,297.58s-10.37,1.11-12.68,1.21c-4.6.18-5.84,3.46-9.72,5.7s-7.94,1.6-9.87.25"/><path class="cls-5" d="M511.32,311.19c-3.46,4.27-6.61,1-7.25-6.75-.7-8.65,5.46-17.64,5.46-17.64"/><path class="cls-5" d="M530,274.12s4-4.82-1-10.46-13.44-1.32-15.46,3.23c-1.44,3.26.45,11.28,9.14,9.13"/><path class="cls-5" d="M509.53,286.8a27.66,27.66,0,0,1,13.15-10.68,20.48,20.48,0,0,1,4.56-1.25c.94-.06,1.85-.08,2.72-.08,15.34.06,22.53,9.07,30,21.46l-.44,1.33-.59,1.76s-.93,8.89-3.76,13.52c-2.23,3.64-3.73,3.56-3.39,6.86l-.49,6-4.89-1.64-5.94,8.17c-.13.93-2.31,7.65-10.74.61,0,0-2.3-2.12-3.09-1,0,0-1.48,2-3.57,4.58-1,1.21-2.1,2.54-3.25,3.83a45.33,45.33,0,0,1-4.91,4.79"/><path class="cls-5" d="M537.91,426.18l-4.89-.05a29.37,29.37,0,0,1-7.09,3.89l-4.53,1.38a24.57,24.57,0,0,1-4.07,2.26,1,1,0,0,0-.54,1.35c.55,1.22,1.76,3,4,2.25l5.16-2.5,5.05-1"/><path class="cls-5" d="M533,429.88l-2,3.95-1.81,3.6a1.85,1.85,0,0,0,1.55,2.66h.09a1.82,1.82,0,0,0,1.53-.79l5.63-8.23-1,6.39a2.18,2.18,0,0,0,4.17,1.15l2.71-6.8.69,6.94a1.85,1.85,0,0,0,1.95,1.66h.13a1.84,1.84,0,0,0,1.73-1.78l.17-5.38,6.91,6a1.72,1.72,0,0,0,1.1.41h.38a1.69,1.69,0,0,0,1.17-2.91l-7.17-6.86,1.95-4.35c2-6.08-5-16.07-5-16.07s-2.39-18.9-5-26.06A112.24,112.24,0,0,1,538.78,368a111.84,111.84,0,0,0-6.54-23.56,12.65,12.65,0,0,0-6-6.39l-3.24-1.63"/><path class="cls-5" d="M533,426.13a24.72,24.72,0,0,1-1.09-7.87c.22-3.91-.76-4.67-1.19-6.85s-3-11.94-3.8-13.9-5.05-26.36-5.05-26.36"/><path class="cls-5" d="M547.9,409.46s-2.5-3.15-7.39-1"/><path class="cls-5" d="M417.36,364.07l4.13-.66,6.3,3.7a4.68,4.68,0,0,1-.75.71,3,3,0,0,1-.39.27,4.9,4.9,0,0,1-4.72.32s-4.13,3.47-13.25,10c0,0-3.7,3-5,5.86s-6.08,15.16-10.86,13.88c-3.33-.89-8.76-3.48-11.75-5a5.43,5.43,0,0,0-4.51-.14c-1.83.77-4.71,2-8.56,3.93-2.69,1.32-5.87,2.94-9.5,4.9C345.26,409,323.75,426,289.44,423.58"/><path class="cls-5" d="M463.15,345.18c1.14-3.58,2.17-6.49,2.7-8.32,1.14-3.91-1.14-10.59-7.82-15.8s-29-17.59-29-17.59-5.38,5.54-6.52,19.71-.49,17.75-.81,20.69,1.63,5.54,6.68,7.65,10.75,2.61,11.56,5.22a37.72,37.72,0,0,0,5.25,10,1,1,0,0,1,.14.9L443,375.36a1.1,1.1,0,0,1-.29.46l-3.34,3.06a1.06,1.06,0,0,1-.7.27h-.16l-1.35-.2"/><path class="cls-5" d="M408.68,378.4a63.66,63.66,0,0,0,14.1,4.44,32.26,32.26,0,0,0,12.61.12,26.12,26.12,0,0,0,4.27-1.35c9.77-4,18-13.55,19.68-22.11a132.48,132.48,0,0,1,3.72-14"/><path class="cls-5" d="M438,360.48l3.7,6.62a2.41,2.41,0,0,1,.25,1.62l-1.29,6.2a2.36,2.36,0,0,1-.75,1.28L437,378.77l-.94.83a2.53,2.53,0,0,1,0-3.59l0,0,.32-.26a2.31,2.31,0,0,0,.86-1.52l.64-4.85a2.32,2.32,0,0,0-.35-1.56l-3.9-5.43"/><path class="cls-5" d="M432.79,360.05l.85,2.32L435,366a2.54,2.54,0,0,1,.12,1.16l-.54,3.66-.29,1.93a2.35,2.35,0,0,1-.28.82l-1.21,2.12-.31.54a2.15,2.15,0,0,1-1.44-2,5.08,5.08,0,0,1,0-1.39l.17-5.4a3.42,3.42,0,0,0-.08-.84,3.23,3.23,0,0,0-.76-1.48l-2.23-2.5a3.41,3.41,0,0,0-1.45-.94,32.85,32.85,0,0,0-4.49-1.12,22.84,22.84,0,0,0-3.54-.32,8.43,8.43,0,0,1-3.69-.77,5.69,5.69,0,0,1-3.37-5.52s-3-24-3.15-28.35-.76-17.37,0-25,1-14.67,1.09-16.4,4.23-4,10.2-3.59,22.05,6.19,27,8.69,14.45,8.25,21.4,11.3,19.76,9.77,25.08,14.55c5.91,5.3,4.42,6.65,7.37,6a7,7,0,0,0,2.37-1,23.24,23.24,0,0,0,8.31-9.08h0c.3-.54.6-1.11.89-1.72,1.9-3.93,8.19-4.12,8.19-4.12"/><path class="cls-5" d="M430.87,366.68s-.91,1.84-3.62,1.19"/><path class="cls-5" d="M426.65,368.09s2.84,5.11,4.37,6.16"/><path class="cls-5" d="M434.55,370.82l1.57,4.4a1.33,1.33,0,0,1-.24.53c-.35.47-1.19.94-3.11-.06"/><path class="cls-5" d="M422.78,382.84s4.14,12.47,4.47,19c.54,10.86-4.24,28.65-4.24,28.65"/><path class="cls-5" d="M500.64,321.23s5.43,19,3.05,29.78c-.81,3.6-2.48,6.26-5.53,7-12,2.8-37.07-4.29-35.1-12.49l.09-.31"/><path class="cls-5" d="M520.22,340.61c.45,4.61,1.66,15.69,2.25,21.05a26.88,26.88,0,0,1,.15,3.59,22.88,22.88,0,0,1-.25,3c-.13.86-.28,1.85-.48,2.93a70.3,70.3,0,0,1-3.7,13.45c-3.7,9.12-5.75,17.33-16.61,20.37s-35.78,28.16-69.88,26q-4.56-.29-8.69-.45c-28.15-1.15-42.28,1.75-59.29,3.93-18.68,2.39-84.49,3-87.53,1.52S265.33,426.4,266,418.15a6.8,6.8,0,0,1,.17-1.1c1.71-7.77,14.62-14.21,19.81-16.28,2.11-.85,8.51-2.7,16-4.78,11.83-3.26,26.4-7.06,31.32-8.25a189.9,189.9,0,0,0,27.41-9,80.2,80.2,0,0,0,11.69-6c11.51-7.38,37.14-12.16,42.57-13.25"/><path class="cls-5" d="M503.61,350.51s0,.18.08.5c.68,4.35,6.11,35.15,18.93,14.24v0"/><path class="cls-5" d="M468.84,325.19s7.17,1.52,11.08,13.9"/><path class="cls-5" d="M266.15,417.05s-20.59-1.29-27.54-2.16c-5.09-.64-18.56-2.56-30.35-2.17a52,52,0,0,0-11.78,1.52c-12.6,3.47-19.55,4.12-24.54,5.86s-16.51,4.35-16.51,4.35h-6.52a48.67,48.67,0,0,1-6.08-.22c-2.61-.22-5.65-1.3-3-3.91s4.78-1.76,4.78-1.76a65.55,65.55,0,0,0,11.59-7c5-4,8.82-8.14,9.26-10.75s4.13-12.81,9.34-11.29,6.51,3.27,8.25,4.13,4.78,5.42,17.38,3.47c2.29-.36,5.25-.87,8.64-1.45,15.21-2.61,39-6.74,49.13-5.5,12.38,1.52,27.58,6.3,33.23,6.3S302,396,302,396"/><path class="cls-5" d="M209,395.63s-2.83,7-.77,17.09"/><path class="cls-5" d="M360.93,379.23S368,388,368,397"/></svg>