<svg id="Layer_1" data-name="Layer 1" xmlns="http://www.w3.org/2000/svg" viewBox="0 0 700 700"><defs><style>.cls-1{fill:#392328;}.cls-2{fill:#feae63;}.cls-3{fill:#c4e7f9;}.cls-4{fill:#99abcc;}.cls-5{fill:none;stroke:#000;stroke-linecap:round;stroke-linejoin:round;stroke-width:2.3px;}</style></defs><title>Yoga_poses_2020_color</title><path class="cls-1" d="M393.17,476.24c5,0,12.28,6,9.13,12.89s-9.19,5.1-9.19,5.1l-.61.26c-.35-.81-.73-1.63-1.16-2.47a20.14,20.14,0,0,0-3-3.69l.07-.07C383,481.15,389.6,476.22,393.17,476.24Z"/><path class="cls-1" d="M392.5,494.49c6.06,14.1.67,24.27-7.71,36l-1.41.12s-5.15-9.06-6.16-11.15c-2-4.13-5.51-4-9.11-6.63s-4.63-6.64-4.17-8.95c0,0,4.29-4.23-1.34-5.95a8.71,8.71,0,0,0-1.91.08l0-.15s-1.69-4.25-6-5c-11.77-2,.3-10.34.3-10.34,7.49-4.38,18.35-2,18.35-2a27.76,27.76,0,0,1,15.05,7.79,20.14,20.14,0,0,1,3,3.69C391.77,492.86,392.15,493.68,392.5,494.49Z"/><path class="cls-2" d="M360.69,498.06a8.71,8.71,0,0,1,1.91-.08c5.63,1.72,1.34,5.95,1.34,5.95-.46,2.31.57,6.29,4.17,8.95s7.11,2.5,9.11,6.63c1,2.09,6.16,11.15,6.16,11.15l-1.84.16s-8.52,2.7-13.9,1.95c-4.22-.59-4.75-2-7.64-.37l-5.67,1.94-.45-5.14L344,527c-.8.23-6.45.79-5.53-6.48a.08.08,0,0,1,0,0c.82-2.57,1.84-5.26,3.07-8.28,3.85-9.44,4.7-22.08,4.83-29.59h.05s7.13-2,10.83-11.27c-.1.41-.21.82-.33,1.24-.46,1.68-3.28,8.49-2,10,0,0-12.07,8.33-.3,10.34,4.3.74,6,5,6,5Zm5.67,29.46c.12-.61-.93-1.33-2.34-1.6s-2.66,0-2.77.62.93,1.33,2.34,1.6S366.25,528.13,366.36,527.52Z"/><path class="cls-2" d="M366.87,639.83c2.34.16,4.1.25,4.1.25v.4a2.06,2.06,0,0,1-2.06,2.06H363.5l0,.25c2.24.35,4.05.57,4.05.57l-.48.71a2.08,2.08,0,0,1-1.74.93h-8.53s-.19,1.64-1.46,1.64-7.65-.36-12-2.37c0,0-18.4.55-20.59-1.64s-5.24-10.28-5.24-17.51c0,0-2.09-49.24-1.41-58.08s-1.63-40.46-.14-52.36,4.9-25,4.56-29.34a11.41,11.41,0,0,0-2.08-4.77l0,0S307,449.14,325,439.09c10.1-5.67,28.17-5.29,31.8,7.29l.27-.07c1.94,7.58,3.31,13.24.25,25-3.7,9.25-10.83,11.27-10.83,11.27h-.05c-.13,7.51-1,20.15-4.83,29.59-1.23,3-2.25,5.71-3.07,8.28a.08.08,0,0,0,0,0c-3.08,9.59-3.52,17.54-2.48,34.86,1.33,22,1.05,18.41-1.59,31.13s-6.21,43.48-2.8,46,12.76,3,16.29,3.68,19.6,1.87,19.6,1.87Z"/><path d="M364,525.92c1.41.27,2.46,1,2.34,1.6s-1.35.89-2.77.62-2.46-1-2.34-1.6S362.6,525.65,364,525.92Z"/><path class="cls-3" d="M357,446.31l-.27.07c-3.63-12.58-21.7-13-31.8-7.29-17.94,10.05-6.55,41.45-6.55,41.45l0,0c-2.7-4.14-7.35-8.94-9.82-11.45-7.58-7.71-11.9-12.93-12.58-35.37-.77-25.26-2.38-26.86,1-39.1a162,162,0,0,0,4.41-26.75c17.39,3.69,46,0,46,0-4.09,14.5,2.84,38,7,66A116.35,116.35,0,0,0,357,446.31Z"/><path class="cls-4" d="M352.58,315.6c7.65,15.3,8.89,28.13-2.79,46.71a21.16,21.16,0,0,0-2.42,5.59s-28.58,3.69-46,0a224.69,224.69,0,0,0,.84-29c-.83-20.74-3.89-37.73,9-88.74,0,0,2-10.88,3.74-22.1s2.72-13.94,6.8-24.82,5.78-24.73,5.44-40.37c-.25-11.55-.5-33.05-2.53-48.31l.24,0c9.94-3,21.39,0,21.39,0h0c.8,9.33,2.79,26.67,6,45.28,4.3,25,2.26,30.85-2.84,50.23s.51,44.88-1,60.18S344.93,300.3,352.58,315.6Z"/><path class="cls-2" d="M307.29,55l1.12-.06s1.9-1.42,3.66-.34A3.84,3.84,0,0,1,314,57.26s1.26,1,6,2.35c8.06,2.35,7.62,7.32,12.3,13.47s9,7,14.36,10.4c0,0,7.62,4.83,5.27,8.79,0,0-6,11.68-6,15.76,0,1,.14,3.3.42,6.49h0s-11.45-3-21.39,0l-.24,0a59,59,0,0,0-2.91-13.15c-4.76-11.9-7.48-18.36-11.9-25.84s-5.78-10.2-10.2-10.2S297,62,297,62l.62-1.38c-1-.38-1.8-.81-1.8-1.27,0-1.46,2.05-2.05,2.05-2.05l1.36-.22a1.64,1.64,0,0,1,.48-1.1,1.62,1.62,0,0,1,1.56-.45l2.32,0s.14-1.13,2.49-.83A4.32,4.32,0,0,1,307.29,55Z"/><path class="cls-5" d="M363.94,503.93s4.29-4.23-1.34-5.95a8.71,8.71,0,0,0-1.91.08,8,8,0,0,0-6.17,4.26s-1,3.05,2.75,1.9"/><path class="cls-5" d="M349.79,504s-5.35,0-6.88,4.54"/><path class="cls-5" d="M383.38,530.66s-5.15-9.06-6.16-11.15c-2-4.13-5.51-4-9.11-6.63s-4.63-6.64-4.17-8.95"/><path class="cls-5" d="M373.33,480.54s-10.86-2.34-18.35,2c0,0-12.07,8.33-.3,10.34,4.3.74,6,5,6,5"/><path class="cls-5" d="M393.11,494.23s6,1.77,9.19-5.1-4.15-12.86-9.13-12.89c-3.57,0-10.16,4.91-4.72,12"/><path class="cls-5" d="M338.5,520.49a19.47,19.47,0,0,1,.67-3.08"/><path class="cls-5" d="M373.33,480.54a27.76,27.76,0,0,1,15.05,7.79,20.14,20.14,0,0,1,3,3.69c.43.84.81,1.66,1.16,2.47,6.06,14.1.67,24.27-7.71,36l-1.41.12-1.84.16s-8.52,2.7-13.9,1.95c-4.22-.59-4.75-2-7.64-.37l-5.67,1.94-.45-5.14L344,527c-.8.23-6.45.79-5.53-6.48"/><path class="cls-5" d="M345.46,640.26s3.1,1.46,4.92,2.55a32,32,0,0,0,6.38,2.19s-.19,1.64-1.46,1.64-7.65-.36-12-2.37c0,0-18.4.55-20.59-1.64s-5.24-10.28-5.24-17.51c0,0-2.09-49.24-1.41-58.08s-1.63-40.46-.14-52.36,4.9-25,4.56-29.34a11.41,11.41,0,0,0-2.08-4.77c-2.7-4.14-7.35-8.94-9.82-11.45-7.58-7.71-11.9-12.93-12.58-35.37-.77-25.26-2.38-26.86,1-39.1a162,162,0,0,0,4.41-26.75,224.69,224.69,0,0,0,.84-29c-.83-20.74-3.89-37.73,9-88.74,0,0,2-10.88,3.74-22.1s2.72-13.94,6.8-24.82,5.78-24.73,5.44-40.37c-.25-11.55-.5-33.05-2.53-48.31a59,59,0,0,0-2.91-13.15c-4.76-11.9-7.48-18.36-11.9-25.84s-5.78-10.2-10.2-10.2S297,62,297,62"/><path class="cls-5" d="M356.76,645h8.53a2.08,2.08,0,0,0,1.74-.93l.48-.71s-1.81-.22-4.05-.57c-1.84-.29-4-.65-5.61-1.07-3.64-.91-5.65-1.64-5.65-1.64"/><path class="cls-5" d="M363.5,642.54h5.41a2.06,2.06,0,0,0,2.06-2.06v-.4s-1.76-.09-4.1-.25c-3.38-.23-8-.6-10.11-1"/><path class="cls-5" d="M297.86,57.26s-2.05.59-2.05,2.05c0,.46.76.89,1.8,1.27a40.68,40.68,0,0,0,6,1.38"/><path class="cls-5" d="M304.9,60.78s-5.68-1.55-5.68-3.74a1.64,1.64,0,0,1,.48-1.1,1.62,1.62,0,0,1,1.56-.45c2,.32,4.81,2.87,4.81,2.87"/><path class="cls-5" d="M303.58,55.46s.14-1.13,2.49-.83a4.32,4.32,0,0,1,1.22.35,6.78,6.78,0,0,1,2.59,2.28"/><path class="cls-5" d="M308.41,54.92s1.9-1.42,3.66-.34A3.84,3.84,0,0,1,314,57.26s1.26,1,6,2.35c8.06,2.35,7.62,7.32,12.3,13.47s9,7,14.36,10.4c0,0,7.62,4.83,5.27,8.79,0,0-6,11.68-6,15.76,0,1,.14,3.3.42,6.49.8,9.33,2.79,26.67,6,45.28,4.3,25,2.26,30.85-2.84,50.23s.51,44.88-1,60.18-3.57,30.09,4.08,45.39,8.89,28.13-2.79,46.71a21.16,21.16,0,0,0-2.42,5.59c-4.09,14.5,2.84,38,7,66A116.35,116.35,0,0,0,357,446.31c1.94,7.58,3.31,13.24.25,25-.1.41-.21.82-.33,1.24-.46,1.68-3.28,8.49-2,10"/><path class="cls-5" d="M346.35,476.24s.12,2.51,0,6.38c-.13,7.51-1,20.15-4.83,29.59-1.23,3-2.25,5.71-3.07,8.28a.08.08,0,0,0,0,0c-3.08,9.59-3.52,17.54-2.48,34.86,1.33,22,1.05,18.41-1.59,31.13s-6.21,43.48-2.8,46,12.76,3,16.29,3.68,19.6,1.87,19.6,1.87l-.64,1.75"/><path class="cls-5" d="M318.41,480.54S307,449.14,325,439.09c10.1-5.67,28.17-5.29,31.8,7.29"/><path class="cls-5" d="M347.37,367.9s-28.58,3.69-46,0"/><path class="cls-5" d="M346.45,482.62s7.13-2,10.83-11.27"/><path class="cls-5" d="M346.35,114.52s-11.45-3-21.39,0"/></svg>