<svg id="Layer_1" data-name="Layer 1" xmlns="http://www.w3.org/2000/svg" viewBox="0 0 700 700"><defs><style>.cls-1{fill:#99abcc;}.cls-2{fill:#c4e7f9;}.cls-3{fill:#feae63;}.cls-4{fill:#392328;}.cls-5{fill:none;stroke:#000;stroke-linecap:round;stroke-linejoin:round;stroke-width:2.3px;}</style></defs><title>Yoga_poses_2020_color</title><path class="cls-1" d="M377.93,376l.54.25,34.32-1.31c37.47-2.6,42.68,2,56.36,12.58s8.15,27.17,1.31,42.41C464.58,443,445,441.12,433.6,440.33c-5.57-3-14.29-19.45-14.29-19.45-16-2.28-54.86-.07-75-22.68l-.7-.35c2.39-5.6,5.85-13.33,7.28-14.76l.71-.83,0,0a6.22,6.22,0,0,0,.52-.67,10.63,10.63,0,0,0,2-6.19V360.19c0-3-.46-7.78-1-12.77L360,321a103.94,103.94,0,0,0,1.65-17.44c11.74,3.26,20,1.31,20,1.31.81,14.93,2.1,31.18,3.07,39.74C386,355.68,381.41,368.32,377.93,376Z"/><path class="cls-2" d="M433.6,440.33c-1.87-.13-3.51-.23-4.84-.23-9.45,0-46.27-2.28-51.81-2.5-2.91-.11-18.52-.1-32.64-.07,0,0,9.37-12.28-4.64-28.94l-.78-.49a32.73,32.73,0,0,0,2.23-4.29s1.05-2.59,2.49-6l.7.35c20.14,22.61,59,20.4,75,22.68C419.31,420.88,428,437.31,433.6,440.33Z"/><path class="cls-3" d="M382.71,264.82a6,6,0,0,1,.13,4L381.52,273c-1,3-.65,16.76.18,31.93,0,0-8.3,2-20-1.31,0-13.07-3.44-17.75-3.44-17.75l-.79-.19a25.74,25.74,0,0,0,.52-2.91,68.38,68.38,0,0,1,2.41-10.06,1.84,1.84,0,0,0,.09-.57v-3.46a1.92,1.92,0,0,0-1.92-1.92h-1.12l-1-.06.07-1.28a1.6,1.6,0,0,0,0-.49l.34-.07,6.51-3.1a20.86,20.86,0,0,1,11.85-4.83,5.93,5.93,0,0,1,6,3.78Z"/><path class="cls-3" d="M338.89,408.1l.78.49c14,16.66,4.64,28.94,4.64,28.94-12.68,0-24.15.07-24.15.07-22.16-.65-20.88-11.73-24.79-14-.78-5.46,4.24-8.27,4.24-8.27l1.17-.14a37.73,37.73,0,0,1-.17-7.59,11.59,11.59,0,0,1,2.16-6.14h0c3.74-5.14,11.22-6.25,14.49-10.73,4.27-5.86,11.86-18.24,11.86-18.24.72-4.57-.72-9.78,1.67-22.59s2.39-17.81,3.26-33.23-1.05-18.9-1.05-18.9l-2.21-6.08-1.28-4.48a8.92,8.92,0,0,1-.36-2.57c0-2-.09-5.81-1.16-7.5l-.19-.87,3-.65.1-.26a4,4,0,0,0,1.4.26h2l.4,5.45c1.35-1.87,3.92-9.74,4.32-11a1.87,1.87,0,0,0,.08-.34l.6-4.74a1.91,1.91,0,0,1,1.91-1.68l2.72-.16,1.1-.82a1.91,1.91,0,0,1,1.15-.38h.84a1.93,1.93,0,0,1,1.82,1.3l.13.38,2.23-1.16a1.91,1.91,0,0,1,1.88,0l2,1.16a1.9,1.9,0,0,1,.92,1.29,1.6,1.6,0,0,1,0,.49l-.07,1.28,1,.06h1.12a1.92,1.92,0,0,1,1.92,1.92v3.46a1.84,1.84,0,0,1-.09.57A68.38,68.38,0,0,0,358,282.74a25.74,25.74,0,0,1-.52,2.91,64.59,64.59,0,0,1-4.28,12.41,30.57,30.57,0,0,0-2.58,6.84s1,19.22,1,25.08c0,3.39.87,10.6,1.61,17.44.54,5,1,9.79,1,12.77v15.18a10.63,10.63,0,0,1-2,6.19c-.16.23-.34.45-.52.67l0,0-.71.83c-1.43,1.43-4.89,9.16-7.28,14.76-1.44,3.37-2.49,6-2.49,6A32.73,32.73,0,0,1,338.89,408.1Z"/><path class="cls-3" d="M334.28,275.58h-2a4,4,0,0,1-1.4-.26l-.1.26-3,.65-3.83.83a1.55,1.55,0,0,1-.37,0A1.57,1.57,0,0,1,323,277a1.74,1.74,0,0,1-.19-3.14l2.57-1.42.76-2.81a2.53,2.53,0,0,1-.41-1.48c.06-1.18,1.12-2.13,2.33-2.82a11.58,11.58,0,0,1,5.76-1.45h5.27l.84.44a1.94,1.94,0,0,0-.21.67l-.6,4.74a1.87,1.87,0,0,1-.08.34c-.4,1.25-3,9.12-4.32,11Z"/><path class="cls-3" d="M326.1,269.6l-.76,2.81-5.75.83a2.8,2.8,0,0,0-1.59.81l-.31.46-.31-.21a3.65,3.65,0,0,1,2.24-4.37l5.21-1.85.86,0A2.53,2.53,0,0,0,326.1,269.6Z"/><path class="cls-3" d="M325.34,272.41l-2.57,1.42A1.74,1.74,0,0,0,323,277l-4,.53a2.28,2.28,0,0,1-1.86-.52,1,1,0,0,1-.15-1.33l.78-1.14.31-.46a2.8,2.8,0,0,1,1.59-.81Z"/><path class="cls-3" d="M266.51,416a8.19,8.19,0,0,1-1.9.28c-5.78-1.14-1.94-5.79-1.94-5.79.23-2.34-1.21-6.19-5.06-8.48s-7.32-1.76-9.74-5.67c-1.18-1.93-7-10-7.25-10.46l1.81-.35s8.21-3.56,13.63-3.36c4.26.16,4.93,1.51,7.64-.4l5.44-2.5,1,5.07,10,1.17c.88-.34,7.81-1.74,5.8,9.06,0,0-.77,4.2,7.45,6.44,6.13,1.66,9.16.49,9.38.4a11.59,11.59,0,0,0-2.16,6.14,37.73,37.73,0,0,0,.17,7.59l-1.17.14s-5,2.81-4.24,8.27c-3.91-2.3-16,0-16,0-1.68-2.71-6.42-3.19-6.42-3.19-4,.35-6-3.42-6.35-4.11Zm-3.46-28.28c.06-.62-1.06-1.22-2.49-1.35s-2.64.28-2.7.9,1.07,1.23,2.5,1.35S263,388.36,263.05,387.74Z"/><path class="cls-4" d="M266.58,416.27c.34.69,2.39,4.46,6.35,4.11,0,0,4.74.48,6.42,3.19a3.88,3.88,0,0,1,.58,2.37c-.3,4.81-4.54,4.72-10.34,4.9-4.39.13-9.55-.14-12.25.09a62.06,62.06,0,0,1-11.37-.12c-7.16-.68-9.35-5.66-9.35-5.66-.49-.76-1-1.52-1.37-2.27a32.5,32.5,0,0,1-2.94-7c-2.93-10.36,1-19.42,6.92-29.76l1.39-.26c.3.42,6.07,8.53,7.25,10.46,2.42,3.91,5.89,3.38,9.74,5.67s5.29,6.14,5.06,8.48c0,0-3.84,4.65,1.94,5.79a8.19,8.19,0,0,0,1.9-.28Z"/><path d="M260.56,386.39c1.43.13,2.55.73,2.49,1.35s-1.26,1-2.69.9-2.55-.73-2.5-1.35S259.12,386.27,260.56,386.39Z"/><path class="cls-4" d="M235.21,422.9c3.52,8.23-4.77,7.1-9.76,6.8s-8.2-5.18-3.45-11.07S232.17,416,232.17,416l.14,0a32.5,32.5,0,0,0,2.94,7Z"/><path class="cls-5" d="M262.67,410.51s-3.84,4.65,1.94,5.79a8.19,8.19,0,0,0,1.9-.28,8,8,0,0,0,5.69-4.86s.71-3.14-2.92-1.61"/><path class="cls-5" d="M276.74,409s5.32-.56,6.38-5.21"/><path class="cls-5" d="M240.61,385.89h0c.3.42,6.07,8.53,7.25,10.46,2.42,3.91,5.89,3.38,9.74,5.67s5.29,6.14,5.06,8.48"/><path class="cls-5" d="M232.17,416s-5.41-3.21-10.17,2.67-1.53,10.77,3.45,11.07,13.28,1.43,9.76-6.8"/><path class="cls-5" d="M266.53,416.17l.05.1c.34.69,2.39,4.46,6.35,4.11,0,0,4.74.48,6.42,3.19a3.88,3.88,0,0,1,.58,2.37c-.3,4.81-4.54,4.72-10.34,4.9-4.39.13-9.55-.14-12.25.09a62.06,62.06,0,0,1-11.37-.12c-7.16-.68-9.35-5.66-9.35-5.66-.49-.76-1-1.52-1.37-2.27a32.5,32.5,0,0,1-2.94-7c-2.93-10.36,1-19.42,6.92-29.76l1.39-.26,1.81-.35s8.21-3.56,13.63-3.36c4.26.16,4.93,1.51,7.64-.4l5.44-2.5,1,5.07,10,1.17c.88-.34,7.81-1.74,5.8,9.06,0,0-.77,4.2,7.45,6.44,6.13,1.66,9.16.49,9.38.4"/><path class="cls-5" d="M279.35,423.57s12.11-2.3,16,0,2.63,13.38,24.79,14c0,0,11.47-.05,24.15-.07,14.12,0,29.73,0,32.64.07,5.54.22,42.36,2.5,51.81,2.5,1.33,0,3,.1,4.84.23,11.39.79,31,2.69,36.86-10.4,6.84-15.24,12.38-31.79-1.31-42.41s-18.89-15.18-56.36-12.58l-34.32,1.31"/><path class="cls-5" d="M356.76,264.83l6.51-3.1a20.86,20.86,0,0,1,11.85-4.83,5.93,5.93,0,0,1,6,3.78l1.61,4.14a6,6,0,0,1,.13,4L381.52,273c-1,3-.65,16.76.18,31.93.81,14.93,2.1,31.18,3.07,39.74,1.25,11-3.36,23.68-6.84,31.36-2,4.34-3.58,7.09-3.58,7.09"/><path class="cls-5" d="M336.88,275.58H332.3a4,4,0,0,1-1.4-.26,3.83,3.83,0,0,1-1.21-.75l-.07-.07a1.47,1.47,0,0,1,0-2.19,4.27,4.27,0,0,1,2.78-1.11H333"/><path class="cls-5" d="M323,277l-4,.53a2.28,2.28,0,0,1-1.86-.52,1,1,0,0,1-.15-1.33l.78-1.14.31-.46a2.8,2.8,0,0,1,1.59-.81l5.75-.83-2.57,1.42A1.74,1.74,0,0,0,323,277a1.57,1.57,0,0,0,.65.13,1.55,1.55,0,0,0,.37,0l3.83-.83,3-.65"/><path class="cls-5" d="M317.38,274.3a3.65,3.65,0,0,1,2.24-4.37l5.21-1.85"/><path class="cls-5" d="M339.05,263.85h-5.27A11.58,11.58,0,0,0,328,265.3c-1.21.69-2.27,1.64-2.33,2.82a2.53,2.53,0,0,0,.41,1.48"/><path class="cls-5" d="M358.22,285.84s3.44,4.68,3.44,17.75A103.94,103.94,0,0,1,360,321l-6.86,26.39"/><path class="cls-5" d="M449,422.51a175.6,175.6,0,0,1-29.64-1.63c-16-2.28-54.86-.07-75-22.68"/><path class="cls-5" d="M419.31,420.88s8.72,16.43,14.29,19.45"/><path class="cls-5" d="M344.31,437.53s9.37-12.28-4.64-28.94"/><path class="cls-5" d="M299.61,415.3s-5,2.81-4.24,8.27"/><path class="cls-5" d="M351.63,382.23c.18-.22.36-.44.52-.67a10.63,10.63,0,0,0,2-6.19V360.19c0-3-.46-7.78-1-12.77-.74-6.84-1.61-14.05-1.61-17.44,0-5.86-1-25.08-1-25.08a30.57,30.57,0,0,1,2.58-6.84,64.59,64.59,0,0,0,4.28-12.41,25.74,25.74,0,0,0,.52-2.91,68.38,68.38,0,0,1,2.41-10.06,1.84,1.84,0,0,0,.09-.57v-3.46a1.92,1.92,0,0,0-1.92-1.92h-1.12"/><path class="cls-5" d="M326.33,423.57s7.9-7.83,12.56-15.47a32.73,32.73,0,0,0,2.23-4.29s1.05-2.59,2.49-6c2.39-5.6,5.85-13.33,7.28-14.76l.71-.83"/><path class="cls-5" d="M381.7,304.9s-8.3,2-20-1.31"/><path class="cls-5" d="M328,277.1c1.07,1.69,1.18,5.52,1.16,7.5a8.92,8.92,0,0,0,.36,2.57l1.28,4.48,2.21,6.08s1.92,3.48,1.05,18.9-.87,20.41-3.26,33.23-.95,18-1.67,22.59c0,0-7.59,12.38-11.86,18.24-3.27,4.48-10.75,5.59-14.49,10.73h0a11.59,11.59,0,0,0-2.16,6.14,37.73,37.73,0,0,0,.17,7.59,19,19,0,0,0,2,6.76"/><path class="cls-5" d="M343.53,381s5.06,4.41,8.07,1.29l0,0a6.22,6.22,0,0,0,.52-.67"/><path class="cls-5" d="M353.93,280.68l2-7.07a2.07,2.07,0,0,0,.07-.41l.38-6.53.07-1.28a1.6,1.6,0,0,0,0-.49,1.9,1.9,0,0,0-.92-1.29l-2-1.16a1.91,1.91,0,0,0-1.88,0l-2.23,1.16"/><path class="cls-5" d="M349,278.43l1.74-9.86a1.91,1.91,0,0,0-.07-.95l-1.36-4-.13-.38a1.93,1.93,0,0,0-1.82-1.3h-.84a1.91,1.91,0,0,0-1.15.38l-1.1.82"/><path class="cls-5" d="M342.18,278.84l2.73-7.45a1.85,1.85,0,0,0,.07-1.09l-1.25-5.53a1.92,1.92,0,0,0-1.87-1.49h-.27a1.91,1.91,0,0,0-1.91,1.68l-.6,4.74a1.87,1.87,0,0,1-.08.34c-.4,1.25-3,9.12-4.32,11l-.4-5.45"/></svg>