<svg id="Layer_1" data-name="Layer 1" xmlns="http://www.w3.org/2000/svg" viewBox="0 0 700 700"><defs><style>.cls-1{fill:#392328;}.cls-2{fill:#feae63;}.cls-3{fill:#99abcc;}.cls-4{fill:#c4e7f9;}.cls-5{fill:none;stroke:#000;stroke-linecap:round;stroke-linejoin:round;stroke-width:2.3px;}</style></defs><title>Yoga_poses_2020_color</title><path class="cls-1" d="M394.33,553.85c3.77,7.35.6,9.5-3.64,10a8.86,8.86,0,0,1-3-.37c-.87-.21-1.64-.47-2-.59h0a4.71,4.71,0,0,0-.08-1.24,36,36,0,0,1-.54-5.81,1.14,1.14,0,0,0-1.4-1.19,3,3,0,0,0-1.43.83l-.6-.87a13.54,13.54,0,0,0,3.48-4C386.45,548.19,390.56,546.5,394.33,553.85Z"/><path class="cls-2" d="M392.2,579.49a2,2,0,0,1-1.08,2.17,3,3,0,0,1-1.47.2c-2-.16-1.64-2.82-.83-3.38s3.06-2.81,3.06-2.81S392.12,578.16,392.2,579.49Z"/><path class="cls-2" d="M328,515.84c-11.63-26.41,5.67-54,29.42-38.52,6.26,4.09,10.79,12.85,10.79,12.85,0,1.5.05,3.07.06,4.72.07,8-1.57,12.47-3.67,15.53s-4.44,4.6-6.14,6.92C355,522.05,354.77,529,354.77,529c-.62,4.21-1.69,9.66-13.73,19.55a31.45,31.45,0,0,0-9.34,13.31c-2.33,5.88-3.32,11.87-5.26,16.61l.74.3a52,52,0,0,1,10.54.89,43.25,43.25,0,0,0,6.1.61h23s2.87.22,3.28-2.24,2.76-5.47,5-7.55,4.92-3.6,5.33-5.92c.3-1.75-.26-6.91,1.79-9a3,3,0,0,1,1.43-.83,1.14,1.14,0,0,1,1.4,1.19,36,36,0,0,0,.54,5.81,4.71,4.71,0,0,1,.08,1.24,4.89,4.89,0,0,1-.05.66c-.11.78-.32,2.42-.49,3.82l.55.06,1.34.5.79,1.33s1.13,2.62,3,2c0,0,2.6,3,1.1,4.41,0,0-2.26,2.25-3.06,2.81s-1.21,3.22.83,3.38c0,0-1.45,2.12-2.48,2.41a39.39,39.39,0,0,0-5.69,3.4c-1.08.73-2.18,1.49-3.16,2.2-3.24,2.36-7.22,1.63-12.39,1.77s-19.32,2.22-29.35,2.51-22.41.59-28.31,1-6.47-4.43-6.94-9c-.56-5.58-.59-28.32,22.42-61.65C323.75,524.54,327.73,519.67,328,515.84Z"/><path class="cls-2" d="M391.12,581.66v1.51a2.64,2.64,0,0,1-.67,1.75l-2.58,2.88a2.12,2.12,0,0,1-1.91.69l-4.34-.62-.14-.2a39.39,39.39,0,0,1,5.69-3.4c1-.29,2.48-2.41,2.48-2.41A3,3,0,0,0,391.12,581.66Z"/><path class="cls-2" d="M390.3,567.27s2.32,3.33.48,4-3-2-3-2L387,568l-1.34-.5-.55-.06c.17-1.4.38-3,.49-3.82a4.89,4.89,0,0,0,.05-.66h0c.36.12,1.13.38,2,.59l0,.11Z"/><path class="cls-1" d="M381.62,554.64l.6.87c-2.05,2.14-1.49,7.3-1.79,9-.41,2.32-3.08,3.84-5.33,5.92s-4.61,5.09-5,7.55-3.28,2.24-3.28,2.24h-23l0-.78a20,20,0,0,1,5.11-4c6-3.66,8.9-10.66,9-10.78v-.1c.91-.07,1.79-.65,2.31-2.31l1.4-1.34c2.52-3,4.65-6.56,4-9.71,0,0-1.45-6.74,2.65-9.07l.3-.73a3,3,0,0,0,.71.26C379.24,544.68,381.62,554.64,381.62,554.64Z"/><path class="cls-3" d="M369.48,362.75c8.91,17.5,6.6,28.07,4.95,31.37-1,2-4.57,8.2-7.18,12.72,0,0-6.65-7.64-21.83-8.36S322,399.75,322,399.75s-.66-16.41-1.28-26.32-5.29-17-4.51-43,4.2-47.37,4.51-55.73.83-11.46,4.28-22.92S327,236.57,328,212.11c.55-13.5.61-23.6.23-32.44h0c12.6-4.59,19.22-1.17,19.22-1.17,1.3,11.17,5.61,25.75,9.11,38.95,5.94,22.45-4.29,35.66-4.62,43.92s-2.65,17.5,1.65,31.37,5.94,30.38,6.27,39.63S360.56,345.25,369.48,362.75Z"/><path class="cls-2" d="M358,564.56v.1c-.12.12-3,7.12-9,10.78a20,20,0,0,0-5.11,4l0,.78a43.25,43.25,0,0,1-6.1-.61l0-.17c-1.45-2.58-3.3-6.36-3.73-9.43-.58-4.1.59-5-1.7-7.23l-.56-1-.06,0A31.45,31.45,0,0,1,341,548.55c12-9.89,13.11-15.34,13.73-19.55,0,0,.25-7,3.72-11.66,1.7-2.32,4.13-4,6.14-6.92h0c-1.37,13.73-1.2,22,.32,26.36a7.51,7.51,0,0,0,3.64,4.62l-.3.73c-4.1,2.33-2.65,9.07-2.65,9.07.68,3.15-1.45,6.72-4,9.71l-1.4,1.34C359.76,563.91,358.88,564.49,358,564.56Zm-19.39,2.9c.6-.06,1-1.23.86-2.62s-.72-2.47-1.32-2.42-1,1.23-.86,2.62S338,567.51,338.58,567.46Z"/><path class="cls-4" d="M363.78,459.05c3.53,10.54,4.25,18.31,4.46,31.12,0,0-4.53-8.76-10.79-12.85-23.75-15.5-41.05,12.11-29.42,38.52,0,0-12.87-8.5-15.72-10.62s-9.63-8.47-7.66-20.52,3.28-14.66,3.07-22.77,0-12.48,7.22-27.8,6.13-22.77,7-34.38c0,0,8.29-2,23.47-1.27s21.83,8.36,21.83,8.36l-3,5.08C357.55,428.29,359.85,447.27,363.78,459.05Z"/><path class="cls-2" d="M323.06,114.42l2.72-.78a8.63,8.63,0,0,1-.95-2.44c-.19-1-.34-2.54-.42-3.54-.05-.61-.08-1-.08-1s3.33-1.8,3.75,1c0,0,.58,3.76,1.66,4.82-.24-1.33-.65-4.82,1.88-4.8,3,0,2,5.83,2,5.83,2.39,2.29,4.16,2.71,7.39,12.7s5.31,13.64,7.29,15.31,5,4.61,5,4.61c5.28,6.6,5.28,8.58-2.83,15.52-3.34,2.86-3.9,9-3,16.86,0,0-6.62-3.42-19.22,1.17h0c-.3-7.19-.88-13.54-1.71-20.2-1.86-14.86,0-19.64-.32-29.86,0,0,.32-4.61-1.9-7.52s-3.09-4.3-4.65-4.49c-2.69-.32-5.72-.78-3.28-5.67l1.85-.54c-.31-.78-.48-1.55-.12-1.86.84-.71,3.3-.59,3.3-.59a13.8,13.8,0,0,0,.47,3.52A6,6,0,0,0,323.06,114.42Z"/><path d="M339.44,564.84c.12,1.39-.26,2.56-.86,2.62s-1.2-1-1.32-2.42.25-2.56.86-2.62S339.31,563.45,339.44,564.84Z"/><path class="cls-2" d="M324.83,111.2a8.63,8.63,0,0,0,.95,2.44l-2.72.78a6,6,0,0,1-1.16-2,13.8,13.8,0,0,1-.47-3.52c0-.6,0-1,0-1,1.08-.06,2.91-.25,2.91-.25h.08C324.49,108.66,324.64,110.18,324.83,111.2Z"/><path class="cls-5" d="M381.62,554.64s-2.38-10-12.31-13a3,3,0,0,1-.71-.26,7.51,7.51,0,0,1-3.64-4.62c-1.52-4.39-1.69-12.63-.32-26.36"/><path class="cls-5" d="M331.76,561.88l.56,1c2.29,2.26,1.12,3.13,1.7,7.23.43,3.07,2.28,6.85,3.73,9.43"/><path class="cls-5" d="M360.27,562.26h0l1.4-1.34c2.52-3,4.65-6.56,4-9.71,0,0-1.45-6.74,2.65-9.07"/><path class="cls-5" d="M354.83,563.32a5.26,5.26,0,0,0,3.14,1.24c.91-.07,1.79-.65,2.31-2.31.07-.23.13-.47.19-.74,0,0,.08-5.37-4.9-7.43,0,0-3-.73-1.6,2.82"/><path class="cls-5" d="M353.55,549.65s-.4-4.34-3.93-5.9"/><path class="cls-5" d="M385.68,562.92c.36.12,1.13.38,2,.59a8.86,8.86,0,0,0,3,.37c4.24-.53,7.41-2.68,3.64-10s-7.88-5.66-9.23-3.2a13.54,13.54,0,0,1-3.48,4"/><path class="cls-5" d="M325,581.52a20.07,20.07,0,0,0,1.49-3c1.94-4.74,2.93-10.73,5.26-16.61A31.45,31.45,0,0,1,341,548.55c12-9.89,13.11-15.34,13.73-19.55,0,0,.25-7,3.72-11.66,1.7-2.32,4.13-4,6.14-6.92s3.74-7.51,3.67-15.53c0-1.65,0-3.22-.06-4.72-.21-12.81-.93-20.58-4.46-31.12-3.93-11.78-6.23-30.76.5-47.13l3-5.08c2.61-4.52,6.17-10.71,7.18-12.72,1.65-3.3,4-13.87-4.95-31.37s-9.25-21.13-9.58-30.38-2-25.76-6.27-39.63-2-23.12-1.65-31.37,10.56-21.47,4.62-43.92c-3.5-13.2-7.81-27.78-9.11-38.95-.92-7.84-.36-14,3-16.86,8.11-6.94,8.11-8.92,2.83-15.52,0,0-3-2.94-5-4.61s-4.06-5.31-7.29-15.31-5-10.41-7.39-12.7c0,0,1-5.82-2-5.83-2.53,0-2.12,3.47-1.88,4.8.06.32.11.51.11.51"/><path class="cls-5" d="M327.18,578.77a52,52,0,0,1,10.54.89,43.25,43.25,0,0,0,6.1.61h23s2.87.22,3.28-2.24,2.76-5.47,5-7.55,4.92-3.6,5.33-5.92c.3-1.75-.26-6.91,1.79-9a3,3,0,0,1,1.43-.83,1.14,1.14,0,0,1,1.4,1.19,36,36,0,0,0,.54,5.81,4.71,4.71,0,0,1,.08,1.24,4.89,4.89,0,0,1-.05.66c-.11.78-.32,2.42-.49,3.82-.11.93-.2,1.75-.25,2.17"/><path class="cls-5" d="M343.84,579.49a20,20,0,0,1,5.11-4c6-3.66,8.9-10.66,9-10.78"/><path class="cls-5" d="M387.65,563.62l2.65,3.65s2.32,3.33.48,4-3-2-3-2L387,568l-1.34-.5"/><path class="cls-5" d="M391.88,575.67s.24,2.49.32,3.82a2,2,0,0,1-1.08,2.17,3,3,0,0,1-1.47.2c-2-.16-1.64-2.82-.83-3.38S391.88,575.67,391.88,575.67Z"/><path class="cls-5" d="M389.65,581.86s-1.45,2.12-2.48,2.41a39.39,39.39,0,0,0-5.69,3.4c-1.08.73-2.18,1.49-3.16,2.2-3.24,2.36-7.22,1.63-12.39,1.77s-19.32,2.22-29.35,2.51-22.41.59-28.31,1-6.47-4.43-6.94-9c-.56-5.58-.59-28.32,22.42-61.65,0,0,4-4.87,4.28-8.7s1.62-10.62,1.62-10.62"/><path class="cls-5" d="M328,515.84s-12.87-8.5-15.72-10.62-9.63-8.47-7.66-20.52,3.28-14.66,3.07-22.77,0-12.48,7.22-27.8,6.13-22.77,7-34.38c0,0-.66-16.41-1.28-26.32s-5.29-17-4.51-43,4.2-47.37,4.51-55.73.83-11.46,4.28-22.92S327,236.57,328,212.11c.55-13.5.61-23.6.23-32.44-.3-7.19-.88-13.54-1.71-20.2-1.86-14.86,0-19.64-.32-29.86,0,0,.32-4.61-1.9-7.52s-3.09-4.3-4.65-4.49c-2.69-.32-5.72-.78-3.28-5.67"/><path class="cls-5" d="M326.26,114.41s-.21-.3-.48-.77a8.63,8.63,0,0,1-.95-2.44c-.19-1-.34-2.54-.42-3.54-.05-.61-.08-1-.08-1s3.33-1.8,3.75,1c0,0,.58,3.76,1.66,4.82"/><path class="cls-5" d="M324.33,107.67s-1.83.19-2.91.25c0,0,0,.42,0,1a13.8,13.8,0,0,0,.47,3.52,6,6,0,0,0,1.16,2,6.89,6.89,0,0,0,.76.74"/><path class="cls-5" d="M321.43,108.94s-2.46-.12-3.3.59c-.36.31-.19,1.08.12,1.86a15.47,15.47,0,0,0,1.08,2.09"/><path class="cls-5" d="M347.49,178.5s-6.62-3.42-19.22,1.17"/><path class="cls-5" d="M390.78,571.26s2.6,3,1.1,4.41"/><path class="cls-5" d="M391.12,581.66v1.51a2.64,2.64,0,0,1-.67,1.75l-2.58,2.88a2.12,2.12,0,0,1-1.91.69l-4.34-.62"/><path class="cls-5" d="M367.25,406.84s-6.65-7.64-21.83-8.36S322,399.75,322,399.75"/><path class="cls-5" d="M368.24,490.17s-4.53-8.76-10.79-12.85c-23.75-15.5-41.05,12.11-29.42,38.52"/></svg>