<svg id="Layer_1" data-name="Layer 1" xmlns="http://www.w3.org/2000/svg" viewBox="0 0 700 700"><defs><style>.cls-1{fill:#feae63;}.cls-2{fill:#99abcc;}.cls-3{fill:#c4e7f9;}.cls-4{fill:#392328;}.cls-5{fill:none;stroke:#000;stroke-linecap:round;stroke-linejoin:round;stroke-width:2.3px;}</style></defs><title>Yoga_poses_2020_color</title><path class="cls-1" d="M403.89,441.63a16.19,16.19,0,0,1-2.62.68s-3.44-2.33-3.71-5.26,2.07-7.41,9.6-5.86,8.23,4.43,17.36,5.4,8.62,3.16,8.62,3.16,2.59.75,2.76,1.78c.13.79-.33,1.23-1.53,1.23l1.55.58s-.16,1.82-3,1.82l1.14.92s-.48,1.5-3.14,1.59l0,1.05s-.42.73-2.32.84-4.53,1.55-7.48,3.43-9.06,1.92-13.48,4.43l-.07-.05c1.51-1.83,3-3.69,4.57-5.53C412.07,445.76,408.52,443.15,403.89,441.63Z"/><path class="cls-2" d="M394.4,442.79a28.18,28.18,0,0,1,3.26-.17,20.07,20.07,0,0,0,3.61-.31,16.19,16.19,0,0,0,2.62-.68c4.63,1.52,8.18,4.13,8.32,10.21-1.53,1.84-3.06,3.7-4.57,5.53-6.06,7.35-11.83,14.31-16.06,18.54-5.28,5.28-13.15,6.6-20.14,5.54s-8-1.05-14.07-2.64-7.95-14-8.16-23.49v-.17c-.1-9.48,8.75-21.06,8.75-21.06.24.91.67,3.65.89,5.13a.62.62,0,0,0,1,.4,6.39,6.39,0,0,0,2.39-5.42l1.72-2.32h.45c0,.22,0,.44-.05.67l-1.09,8.33a1.21,1.21,0,0,0,0,.19,1.54,1.54,0,0,0,2.95.6l4.91-11.86-1.23,11.43a.66.66,0,0,0,0,.14,1.24,1.24,0,0,0,2.43.35l3.65-12.26.61,9.72a1.55,1.55,0,0,0,1.55,1.46,1.57,1.57,0,0,0,1.56-1.37l1.16-9.47,2.17,9.26a.93.93,0,0,0,.91.72,1.12,1.12,0,0,0,.31-.05.93.93,0,0,0,.63-1L383.23,426c-.78-4.84-3.82,1.46,7.55-13.8.31-.41.6-.82.89-1.22l1.09.5s4.8,19.58,1.6,30.93Z"/><path class="cls-1" d="M364.39,431.89h-.45l-1.72,2.32a6.39,6.39,0,0,1-2.39,5.42.62.62,0,0,1-1-.4c-.22-1.48-.65-4.22-.89-5.13-.35-1.27,1.49-4.5,1.73-6.57s4.49-4.85,7-7.5c2.18-2.27,9.5-12.36,12.82-17.65.55-.88,1-1.62,1.28-2.18l1-2h0c1.89-3.72,4.09-8.2,5.06-9.66,1.15-1.73-2.51-28.34-1.89-38.85h0c.21-1.38.39-2.76.57-4.09h0c0-6.9-2.61-10.66-5.32-19a98.48,98.48,0,0,1,.18-22.86l.12-.47c2.19.57,4.37,1.05,6.39,1.39,0,0,8.95,0,12,6.65,0,0,2.85,8.91,2.29,31.15s.21,40.91.07,46.64c0,0,.86,7.48-9.58,21.93-.29.4-.58.81-.89,1.22-11.37,15.26-8.33,9-7.55,13.8l1.61,12.7a.93.93,0,0,1-.63,1,1.12,1.12,0,0,1-.31.05.93.93,0,0,1-.91-.72l-2.17-9.26-1.16,9.47a1.57,1.57,0,0,1-1.56,1.37,1.55,1.55,0,0,1-1.55-1.46l-.61-9.72-3.65,12.26a1.24,1.24,0,0,1-2.43-.35.66.66,0,0,1,0-.14l1.23-11.43-4.91,11.86a1.54,1.54,0,0,1-2.95-.6,1.21,1.21,0,0,1,0-.19l1.09-8.33C364.36,432.33,364.38,432.11,364.39,431.89Z"/><path class="cls-3" d="M313.31,349.57c-.33-1.93-.55-3.87-.83-5.67v0c0-5.52,4.49-12.64,5.61-17.93,0,0,20.33,15.32,62.14.65,2.71,8.33,5.32,12.09,5.32,19h0c-.18,1.33-.36,2.71-.57,4.09s-.5,2.87-.86,4.26c-1.14,4.35-3.91,8-4.53,11.54-1.41,8.11-3.7,20.27-1.76,24,.69,1.32,2.61,5.48,4,8.75h0l-1,2c-.29.56-.73,1.3-1.28,2.18l-.14-.09c-25.39,7.84-60.57,0-60.57,0-.58-.91-1-1.69-1.34-2.26-.61-1.18-1.3-2.55-2-3.93.72-1.87,2.73-5.34,3.18-6.2,1.94-3.71,1.57-15.64.16-23.75-.7-4.05-3.48-8.46-4.82-13.37C313.72,351.72,313.5,350.65,313.31,349.57Z"/><path class="cls-1" d="M380.53,303.26l-.12.47a98.48,98.48,0,0,0-.18,22.86c-41.81,14.67-62.14-.65-62.14-.65a151.18,151.18,0,0,0-.6-22.21l-.13-.52c7.21-1.82,14.64-4.57,16.81-5.79,3.74-2.12,3-8.28,2.73-14.62l.58-.19c2.61,2.07,6.7,3.8,13.08,3.68,0,0,6.13,0,10.85-3.19-.24,6.29-1,12.38,2.74,14.48C366.27,298.79,373.45,301.44,380.53,303.26Z"/><path class="cls-2" d="M379.4,402.28l.14.09c-3.32,5.29-10.64,15.38-12.82,17.65-2.54,2.65-6.8,5.42-7,7.5s-2.08,5.3-1.73,6.57c0,0-8.85,11.58-8.75,21.06h-.87c.21-9.51-8-21.23-8-21.23.35-1.27-1.5-4.5-1.73-6.57s-4.5-4.85-7-7.5c-2.17-2.26-9.43-12.26-12.77-17.57C318.83,402.28,354,410.12,379.4,402.28Z"/><path class="cls-1" d="M372.81,258.37s.31,5-2.16,8.12c0,0-1.54,1.41-1-2.25l-.32-.05c0-.32.08-.64.11-.94l.36-5.89.32,0C370.79,256.32,372.15,254.66,372.81,258.37Z"/><path class="cls-4" d="M328.78,255c-.11.72-.13,1.14-.13,1.14s-5.19-15.66,3.84-23.69a21.49,21.49,0,0,1,6.85-4.09c8-3,16.52-1.17,19.41-.39.66.18,1,.3,1,.3,18.37,7.37,10.33,27.25,10.33,27.25a5.28,5.28,0,0,0-.12-.75,42.62,42.62,0,0,0-2.11-6.69c-3.78-9.81-17.33-9.82-17.33-9.82C332.61,238.35,329.35,251,328.78,255Z"/><path class="cls-1" d="M361.41,283.1c-4.72,3.18-10.85,3.19-10.85,3.19-6.38.12-10.47-1.61-13.08-3.68a12.33,12.33,0,0,1-4.4-6.54c-.83-3.06-2.72-8.78-3.26-11.92-.07-.46-.12-.86-.14-1.19l-.69-6.1-.21-1.89c.57-3.93,3.83-16.62,21.77-16.74,0,0,13.55,0,17.33,9.82a42.62,42.62,0,0,1,2.11,6.69l-.16,2.62-.36,5.89c0,.3-.07.62-.11.94-.56,4-2.37,9.08-2.91,11.58A11.48,11.48,0,0,1,361.41,283.1Zm-2.65-22.19a2.32,2.32,0,1,0-2-2.28A2.15,2.15,0,0,0,358.76,260.91Zm-16.15-2.56a2,2,0,1,0-2,2.31A2.17,2.17,0,0,0,342.61,258.35Z"/><path d="M360.72,258.6a2,2,0,1,1-2-2.28A2.15,2.15,0,0,1,360.72,258.6Z"/><path class="cls-4" d="M359.88,227.93h-1.13c-2.89-.78-11.41-2.59-19.41.39l-.15-.4c0-5.36,4.63-9.7,10.35-9.7S359.88,222.57,359.88,227.93Z"/><path class="cls-2" d="M303.65,442.59c-3.45-9.92,3.88-30.51,3.88-30.51,11.38,15.25,8.34,8.95,7.56,13.8l-1.62,12.7a1,1,0,0,0,.64,1,1,1,0,0,0,.29.05,1,1,0,0,0,.93-.73l2.16-9.26,1.17,9.47a1.56,1.56,0,0,0,3.11-.09l.6-9.72L326,441.57a1.24,1.24,0,0,0,2.43-.35.66.66,0,0,0,0-.14l-1.23-11.43,4.91,11.86a1.53,1.53,0,0,0,2.94-.59,1.41,1.41,0,0,0,0-.2L334,432.39a4.89,4.89,0,0,1-.05-.66l.44,0,1.72,2.33a6.4,6.4,0,0,0,2.39,5.41.61.61,0,0,0,1-.4c.22-1.48.64-4.22.89-5.13,0,0,8.19,11.72,8,21.23s-2.12,21.91-8.16,23.5-7.08,1.58-14.07,2.64-14.1-.27-19.38-5.55c-4.19-4.19-10.05-11.17-16.12-18.49-1.58-1.91-3.18-3.85-4.77-5.76,0,0,0-8.56,8.6-10a15.09,15.09,0,0,0,2.61.68,20.07,20.07,0,0,0,3.61.31A28.56,28.56,0,0,1,303.65,442.59Z"/><path d="M340.61,256.07a2.32,2.32,0,1,1-2,2.31A2.17,2.17,0,0,1,340.61,256.07Z"/><path class="cls-1" d="M312.48,343.87v0c.28,1.8.5,3.74.83,5.67.61,10.54-3.05,37.07-1.89,38.8.8,1.21,2.45,4.51,4.07,7.72.7,1.38,1.39,2.75,2,3.93.3.57.76,1.35,1.34,2.26,3.34,5.31,10.6,15.31,12.77,17.57,2.53,2.65,6.8,5.42,7,7.5s2.08,5.3,1.73,6.57c-.25.91-.67,3.65-.89,5.13a.61.61,0,0,1-1,.4,6.4,6.4,0,0,1-2.39-5.41l-1.72-2.33-.44,0a4.89,4.89,0,0,0,.05.66l1.08,8.33a1.41,1.41,0,0,1,0,.2,1.53,1.53,0,0,1-2.94.59l-4.91-11.86,1.23,11.43a.66.66,0,0,1,0,.14,1.24,1.24,0,0,1-2.43.35l-3.66-12.26-.6,9.72a1.56,1.56,0,0,1-3.11.09l-1.17-9.47-2.16,9.26a1,1,0,0,1-.93.73,1,1,0,0,1-.29-.05,1,1,0,0,1-.64-1l1.62-12.7c.78-4.85,3.82,1.45-7.56-13.8s-10.47-23.16-10.47-23.16c-.14-5.73.63-24.4.07-46.64s2.29-31.15,2.29-31.15c3-6.61,12-6.65,12-6.65,1.89-.31,3.91-.75,6-1.27l.13.52a151.18,151.18,0,0,1,.6,22.21C317,331.23,312.5,338.35,312.48,343.87Z"/><path class="cls-1" d="M329.82,264.15l-.23,0c.73,3.63-.87,2.29-.87,2.29-2.6-3-2.5-8-2.5-8,.43-3.23,1.55-2.48,2.29-1.55l.48-.05.69,6.1C329.7,263.29,329.75,263.69,329.82,264.15Z"/><path class="cls-1" d="M294.44,441.46c-8.57,1.47-8.6,10-8.6,10,1.59,1.91,3.19,3.85,4.77,5.76-4.43-2.51-10.54-2.54-13.49-4.43s-5.58-3.32-7.48-3.43-2.32-.84-2.32-.84l0-1.05c-2.66-.09-3.13-1.59-3.13-1.59l.22-1c-1.93-.35-2.05-1.75-2.05-1.75l.37-.83a.9.9,0,0,1-.35-1c.17-1,2.76-1.79,2.76-1.79s-.52-2.18,8.61-3.15,9.83-3.86,17.37-5.41,9.87,2.93,9.6,5.86-3.51,5.12-3.71,5.26A15.09,15.09,0,0,1,294.44,441.46Z"/><path class="cls-5" d="M336.9,282.8c.24,6.34,1,12.5-2.73,14.62-2.17,1.22-9.6,4-16.81,5.79-2.05.52-4.07,1-6,1.27,0,0-8.95,0-12,6.65,0,0-2.84,8.91-2.29,31.15s-.21,40.91-.07,46.64c0,0-.91,7.9,10.47,23.16s8.34,8.95,7.56,13.8l-1.62,12.7a1,1,0,0,0,.64,1,1,1,0,0,0,.29.05,1,1,0,0,0,.93-.73l2.16-9.26,1.17,9.47a1.56,1.56,0,0,0,3.11-.09l.6-9.72L326,441.57a1.24,1.24,0,0,0,2.43-.35.66.66,0,0,0,0-.14l-1.23-11.43,4.91,11.86a1.53,1.53,0,0,0,2.94-.59,1.41,1.41,0,0,0,0-.2L334,432.39a4.89,4.89,0,0,1-.05-.66,6.45,6.45,0,0,1,.31-2.22"/><path class="cls-5" d="M312.48,343.9c.28,1.8.5,3.74.83,5.67.19,1.08.41,2.15.7,3.2,1.34,4.91,4.12,9.32,4.82,13.37,1.41,8.11,1.78,20-.16,23.75-.45.86-2.46,4.33-3.18,6.2"/><path class="cls-5" d="M309.13,331.24a37.17,37.17,0,0,0,2.12,7.58,22.24,22.24,0,0,1,1.23,5.05"/><path class="cls-5" d="M385.55,345.59c-.18,1.33-.36,2.71-.57,4.09s-.5,2.87-.86,4.26c-1.14,4.35-3.91,8-4.53,11.54-1.41,8.11-3.7,20.27-1.76,24,.69,1.32,2.61,5.48,4,8.75"/><path class="cls-5" d="M389.28,330.58a36.73,36.73,0,0,1-2.11,7.58,30.46,30.46,0,0,0-1.62,7.42"/><path class="cls-5" d="M339.19,227.93c0-5.36,4.63-9.7,10.35-9.7s10.34,4.34,10.34,9.7"/><path class="cls-5" d="M328.78,255c.57-3.93,3.83-16.62,21.77-16.74,0,0,13.55,0,17.33,9.82a42.62,42.62,0,0,1,2.11,6.69,5.28,5.28,0,0,1,.12.75s8-19.88-10.33-27.25c0,0-.37-.12-1-.3-2.89-.78-11.41-2.59-19.41.39a21.49,21.49,0,0,0-6.85,4.09c-9,8-3.84,23.69-3.84,23.69S328.67,255.69,328.78,255Z"/><path class="cls-5" d="M370.15,257.38c.64-1.06,2-2.72,2.66,1,0,0,.31,5-2.16,8.12,0,0-1.54,1.41-1-2.25"/><path class="cls-5" d="M328.51,256.91c-.74-.93-1.86-1.68-2.29,1.55,0,0-.1,5,2.5,8,0,0,1.6,1.34.87-2.29"/><path class="cls-5" d="M328.68,254.12l.1.85.21,1.89.69,6.1c0,.33.07.73.14,1.19.54,3.14,2.43,8.86,3.26,11.92a12.33,12.33,0,0,0,4.4,6.54c2.61,2.07,6.7,3.8,13.08,3.68,0,0,6.13,0,10.85-3.19a11.48,11.48,0,0,0,5-7.33c.54-2.5,2.35-7.59,2.91-11.58,0-.32.08-.64.11-.94l.36-5.89.16-2.62.08-1.24"/><path class="cls-5" d="M351.25,266.31a4.32,4.32,0,0,1-4.44-.13"/><polyline class="cls-5" points="344.51 273.73 345.46 274.11 348.41 273.24 349.52 273.93 350.75 273.27 353.41 274.22 354.26 273.99"/><line class="cls-5" x1="348.34" y1="278.67" x2="350.9" y2="278.7"/><path class="cls-5" d="M334.37,431.71l1.72,2.33a6.4,6.4,0,0,0,2.39,5.41.61.61,0,0,0,1-.4c.22-1.48.64-4.22.89-5.13.35-1.27-1.5-4.5-1.73-6.57s-4.5-4.85-7-7.5c-2.17-2.26-9.43-12.26-12.77-17.57-.58-.91-1-1.69-1.34-2.26-.61-1.18-1.3-2.55-2-3.93-1.62-3.21-3.27-6.51-4.07-7.72-1.16-1.73,2.5-28.26,1.89-38.8v-.05"/><path class="cls-5" d="M340.36,433.92s8.19,11.72,8,21.23-2.12,21.91-8.16,23.5-7.08,1.58-14.07,2.64-14.1-.27-19.38-5.55c-4.19-4.19-10.05-11.17-16.12-18.49-1.58-1.91-3.18-3.85-4.77-5.76,0,0,0-8.56,8.6-10"/><path class="cls-5" d="M303.65,442.6c5.28.56,8.64,3,5.48,11.76"/><path class="cls-5" d="M291.16,439.58a8.69,8.69,0,0,0,3.28,1.88,15.09,15.09,0,0,0,2.61.68,20.07,20.07,0,0,0,3.61.31,28.56,28.56,0,0,1,3,.14"/><path class="cls-5" d="M297,442.15h0c.2-.14,3.44-2.42,3.71-5.26s-2.07-7.41-9.6-5.86-8.23,4.43-17.37,5.41-8.61,3.15-8.61,3.15-2.59.75-2.76,1.79a.9.9,0,0,0,.35,1,3.88,3.88,0,0,0,2.58.11"/><path class="cls-5" d="M262.4,443.17s.12,1.4,2.05,1.75a5.9,5.9,0,0,0,1.61.05"/><path class="cls-5" d="M264.23,445.91s.47,1.5,3.13,1.59a7.41,7.41,0,0,0,.81,0"/><path class="cls-5" d="M267.32,448.55s.43.74,2.32.84,4.53,1.55,7.48,3.43,9.06,1.92,13.49,4.43"/><path class="cls-5" d="M361.42,283a.57.57,0,0,1,0,.13c-.24,6.29-1,12.38,2.74,14.48,2.12,1.21,9.3,3.86,16.38,5.68,2.19.57,4.37,1.05,6.39,1.39,0,0,8.95,0,12,6.65,0,0,2.85,8.91,2.29,31.15s.21,40.91.07,46.64c0,0,.86,7.48-9.58,21.93-.29.4-.58.81-.89,1.22-11.37,15.26-8.33,9-7.55,13.8l1.61,12.7a.93.93,0,0,1-.63,1,1.12,1.12,0,0,1-.31.05.93.93,0,0,1-.91-.72l-2.17-9.26-1.16,9.47a1.57,1.57,0,0,1-1.56,1.37,1.55,1.55,0,0,1-1.55-1.46l-.61-9.72-3.65,12.26a1.24,1.24,0,0,1-2.43-.35.66.66,0,0,1,0-.14l1.23-11.43-4.91,11.86a1.54,1.54,0,0,1-2.95-.6,1.21,1.21,0,0,1,0-.19l1.09-8.33c0-.23,0-.45.05-.67a6.65,6.65,0,0,0-.32-2.21"/><path class="cls-5" d="M363.94,431.88l-1.72,2.32a6.39,6.39,0,0,1-2.39,5.42.62.62,0,0,1-1-.4c-.22-1.48-.65-4.22-.89-5.13-.35-1.27,1.49-4.5,1.73-6.57s4.49-4.85,7-7.5c2.18-2.27,9.5-12.36,12.82-17.65.55-.88,1-1.62,1.28-2.18l1-2h0c1.89-3.72,4.09-8.2,5.06-9.66,1.15-1.73-2.51-28.34-1.89-38.85"/><path class="cls-5" d="M407.16,439.75a8.69,8.69,0,0,1-3.27,1.88,16.19,16.19,0,0,1-2.62.68,20.07,20.07,0,0,1-3.61.31,28.18,28.18,0,0,0-3.26.17c-5.13.62-8.32,3.15-5.22,11.73"/><path class="cls-5" d="M433,442.62a7.85,7.85,0,0,0,1.4.14c1.2,0,1.66-.44,1.53-1.23-.17-1-2.76-1.78-2.76-1.78s.52-2.18-8.62-3.16-9.82-3.85-17.36-5.4-9.87,2.93-9.6,5.86,3.71,5.26,3.71,5.26"/><path class="cls-5" d="M435.92,443.34s-.16,1.82-3,1.82l-.69,0"/><path class="cls-5" d="M434.09,446.08s-.48,1.5-3.14,1.59a7.25,7.25,0,0,1-.8,0"/><path class="cls-5" d="M431,448.72s-.42.73-2.32.84-4.53,1.55-7.48,3.43-9.06,1.92-13.48,4.43"/><path class="cls-5" d="M318.83,402.28s35.18,7.84,60.57,0"/><path class="cls-5" d="M307.53,412.08s-7.33,20.59-3.88,30.51h0"/><path class="cls-5" d="M392.76,411.52s4.8,19.58,1.6,30.93"/><path class="cls-5" d="M403.89,441.63c4.63,1.52,8.18,4.13,8.32,10.21-1.53,1.84-3.06,3.7-4.57,5.53-6.06,7.35-11.83,14.31-16.06,18.54-5.28,5.28-13.15,6.6-20.14,5.54s-8-1.05-14.07-2.64-7.95-14-8.16-23.49v-.17c-.1-9.48,8.75-21.06,8.75-21.06"/><path class="cls-5" d="M318.09,325.94c-1.12,5.29-5.59,12.41-5.61,17.93v0"/><path class="cls-5" d="M318.09,325.94s20.33,15.32,62.14.65"/><path class="cls-5" d="M380.41,303.73a98.48,98.48,0,0,0-.18,22.86c2.71,8.33,5.32,12.09,5.32,19h0"/><path class="cls-5" d="M317.49,303.73a151.18,151.18,0,0,1,.6,22.21"/></svg>