<svg id="Layer_1" data-name="Layer 1" xmlns="http://www.w3.org/2000/svg" viewBox="0 0 700 700"><defs><style>.cls-1{fill:#feae63;}.cls-2{fill:#99abcc;}.cls-3{fill:#c4e7f9;}.cls-4{fill:#392328;}.cls-5{fill:none;stroke:#000;stroke-linecap:round;stroke-linejoin:round;stroke-width:2.3px;}</style></defs><title>Yoga_poses_2020_color</title><path class="cls-1" d="M309.49,336.54S304.1,361.67,287,365.15s-23.39-13-23.39-13A68.71,68.71,0,0,1,267,315.35s9.54-9.37,19.94-2.7A55,55,0,0,1,296,310a45.51,45.51,0,0,1,8.94-.91c14.34,0,16.29-1.95,23-4.34s16.07-5.21,20.41-6.3,10.43-7.82,16.73-11.94,22.58-15.21,26.49-18.9,11.95-10,11.95-10a18.14,18.14,0,0,0,3.56-7.91h0a27.52,27.52,0,0,0,.57-7.07l-.22-6.73.87-5.86a4,4,0,0,1,3.66,2.65,5.85,5.85,0,0,1,.25,2.12s.21,7.39,1.52,10.43l.28.43,6.4-4.07,1.85-1.63,1.5-1.32a1.33,1.33,0,0,1,2.21,1,1.4,1.4,0,0,1-.17.65l-.22.39a2,2,0,0,0,2.95,2.51l2.58-2a1.18,1.18,0,0,1,1.42,0l.87.64a1.18,1.18,0,0,1,.39,1.4l-.07.14-1.87,3.17a1.2,1.2,0,0,0,0,1.25,1.18,1.18,0,0,0,1,.52,1.14,1.14,0,0,0,.51-.11l3.57-1.74h0a2.2,2.2,0,0,1,2.86.9,2.14,2.14,0,0,1,.29,1.08,2.26,2.26,0,0,1-.33,1.16,2.2,2.2,0,0,1-.82.78l-4.3,2.34a1.61,1.61,0,0,0,.68,3l4.44.25,1.15-.41a1.32,1.32,0,0,1,.76,0h0a1.28,1.28,0,0,1,1,1.17v.1a1.28,1.28,0,0,1-.35.89l-1.89,2-1,.12-6.69.86s-7.66,3.58-11.08,6-8.47,1.79-13.68,6.19a0,0,0,0,1,0,0c-.62.63-20.32,21.18-38.44,33,0,0-3.91,3.59-5.37,4.89s-5.87,2-6.84,2.44-25.66,15.75-30.14,17.6c-2.45,1-5.51,2-8.77,3C315.58,334.73,312.47,335.62,309.49,336.54Z"/><path class="cls-1" d="M439.85,249.57c3.58,1.92,2,5.79,2,5.79l-.05.15a1.32,1.32,0,0,0-.76,0l-1.15.41-4.44-.25a1.61,1.61,0,0,1-.68-3l4.3-2.34A2.2,2.2,0,0,0,439.85,249.57Z"/><path class="cls-1" d="M439.54,259.82h0c-3,2.14-9.94,14.32-15.76,27.32,0,0-9-8.4-17.75-8.42a49.43,49.43,0,0,0,2.05-5.81,0,0,0,0,0,0,0c5.21-4.4,10.26-3.75,13.68-6.19s11.08-6,11.08-6Z"/><path class="cls-1" d="M438.33,242.33c1.87,2.17-1,3.93-1.3,4.1h0l-3.57,1.74a1.14,1.14,0,0,1-.51.11,1.18,1.18,0,0,1-1-.52,1.2,1.2,0,0,1,0-1.25l1.87-3.17.07-.14C434.84,241.27,436.43,240.1,438.33,242.33Z"/><path class="cls-2" d="M350,453.18a31.77,31.77,0,0,1-4.94,1c-11.55,1.28-15.64-3.58-15.64-3.58-9.51-10.45-12.06-2.94-17.45,2.93s-9.92,6.19-18.72,8.79a14.57,14.57,0,0,0-4.07,1.87L289,464c-6.1-4.5-14.42-22.93-14.65-45.31h.11a160.77,160.77,0,0,0,16.82-1.82c18.2-3.21,32-14.12,32-14.12a46.56,46.56,0,0,0,.92,9.49,15.53,15.53,0,0,0,4.6,8.32c3.54,3.29,9.9,7,20.42,6.63,1.31-.05,2.69-.09,4.13-.11,18.89-.34,47.95,1.42,73.08,14.44,0,0,13,5.87,10.1,23.79,0,0-2.28,10.42-19.87,10.75-12.46.23-44.52-1.34-64-2-.81-10.18-2.6-20.44-2.6-20.44Z"/><path class="cls-1" d="M431,237.77c2.17,1.41.22,3.42.22,3.42l-2.58,2a2,2,0,0,1-2.95-2.51l.22-.39C427.29,237.76,428.77,236.35,431,237.77Z"/><path class="cls-1" d="M416.35,236.82a30.46,30.46,0,0,0,6,3.17l-1.85,1.63-6.4,4.07-.28-.43c-1.31-3-1.52-10.43-1.52-10.43a5.85,5.85,0,0,0-.25-2.12l.4.54A18.21,18.21,0,0,0,416.35,236.82Z"/><path class="cls-1" d="M416.34,232.23c1.69,1,4.51-.44,4.29,1.84s-4,2.72-4.28,2.75a18.21,18.21,0,0,1-3.93-3.57S414.66,231.25,416.34,232.23Z"/><path class="cls-2" d="M406,278.73c8.74,0,17.75,8.42,17.75,8.42-3.61,8-6.76,16.37-8.26,22.85a82.24,82.24,0,0,1-17.15,33.86c-3.7,4.13-21.72,22.81-26.07,37.8s-18.89,45.39-18.89,45.39c-1.44,0-2.82.06-4.13.11-10.52.37-16.88-3.34-20.42-6.63a15.53,15.53,0,0,1-4.6-8.32,46.56,46.56,0,0,1-.92-9.49c0-4.32.54-8.33,1-12.6,0,0,27.15-38.44,31.93-43.43s10.86-9.34,15.86-14.34,13.68-23,23.24-35.18A77.93,77.93,0,0,0,406,278.73Z"/><path class="cls-1" d="M408.36,230.06l-.87,5.86.22,6.73a27.52,27.52,0,0,1-.57,7.07c-.8-8-10.84-18.14-10.84-18.14l-6.3-4.67-2.11-1a1.23,1.23,0,0,1,0-2.23l.34-.15a6.88,6.88,0,0,1,6.64.77l2.44,1.71C406.4,225.28,408.36,230.06,408.36,230.06Z"/><path class="cls-1" d="M350.1,453.55s1.79,10.26,2.6,20.44c-8-.29-13.95-.43-15.47-.24-5.22.65-7.21,1.71-23.89,2.24s-10.78-1.16-21.81-.69c-1.53.06-9.26,2.77-9.94,3a.11.11,0,0,1-.12,0c-.39-.46-2.92-3.65.7-5.15l3-1.49a8.43,8.43,0,0,1,4-7.4,14.57,14.57,0,0,1,4.07-1.87c8.8-2.6,13.33-2.93,18.72-8.79s7.94-13.38,17.45-2.93c0,0,4.09,4.86,15.64,3.58a31.77,31.77,0,0,0,4.94-1Z"/><path class="cls-3" d="M318.66,334.31s9.44,7,8.47,16.78-2,20.68-2.35,32.09c-.07,2.44-.26,4.72-.48,6.94-.42,4.27-.95,8.28-1,12.6,0,0-13.85,10.91-32,14.12a160.77,160.77,0,0,1-16.82,1.82h-.11c0-.31,0-.63,0-1,0-22.8-7.17-52.13-7.17-52.13a77,77,0,0,1-3.62-13.44s6.23,16.48,23.39,13,22.54-28.61,22.54-28.61c3-.92,6.09-1.81,9-2.69Z"/><path class="cls-1" d="M284.46,274a8.15,8.15,0,0,1-.22-1.9c1.3-5.74,5.83-1.77,5.83-1.77,2.34.3,6.23-1,8.63-4.81s2-7.27,5.95-9.57c2-1.16,10.67-7,10.67-7l.29,1.83s3.32,8.3,3,13.72c-.28,4.26-1.64,4.89.18,7.65l2.35,5.51-5.09.82-1.47,10c.33.88,1.52,7.85-9.22,5.53,0,0-6.52-.39-6.71.95,0,0-.05,9-2.6,14.81l0,.25a55,55,0,0,0-9.06,2.63c-10.4-6.67-19.94,2.7-19.94,2.7a42.07,42.07,0,0,1,3.08-6.45c1.51-2.64,7.11-20.22,6.87-27.46,0-.11,0-.22,0-.33.23-4.19,7.32-7.12,7.32-7.12Zm29.79-5.09c.16-1.42-.21-2.64-.83-2.71s-1.25,1-1.42,2.45.21,2.65.82,2.72S314.08,270.3,314.25,268.87Z"/><path class="cls-4" d="M271.8,247.7a24,24,0,0,1,4.4-3.86c.71-.43,1.41-.83,2.1-1.19,13.75-7.29,24.35-2.64,36.79,4.91l.23,1.39s-8.66,5.8-10.67,7c-4,2.3-3.55,5.78-5.95,9.57s-6.29,5.11-8.63,4.81c0,0-4.53-4-5.83,1.77a8.15,8.15,0,0,0,.22,1.9l-.15,0s-7.09,2.93-7.32,7.12c-1.08,5.36-5.4,3.93-9.55-2.63-2.76-5.84-3-10.33-2.72-15.35A26.8,26.8,0,0,1,271.8,247.7Z"/><path d="M313.42,266.16c.62.07,1,1.29.83,2.71s-.81,2.53-1.43,2.46-1-1.29-.82-2.72S312.81,266.09,313.42,266.16Z"/><path class="cls-4" d="M278.27,241.9l0,.75c-.69.36-1.39.76-2.1,1.19a24,24,0,0,0-4.4,3.86c-6.3,4.7-11.25-1.13-11.47-4.54-.33-5,5.1-12.69,12.18-10S278.27,241.9,278.27,241.9Z"/><path class="cls-5" d="M290.07,270.29s-4.53-4-5.83,1.77a8.15,8.15,0,0,0,.22,1.9,8,8,0,0,0,4.69,5.84s3.13.81,1.7-2.87"/><path class="cls-5" d="M291.17,284.4s.4,5.34,5,6.53"/><path class="cls-5" d="M315.32,249s-8.66,5.8-10.67,7c-4,2.3-3.55,5.78-5.95,9.57s-6.29,5.11-8.63,4.81"/><path class="cls-5" d="M277,281.07v0c-1.08,5.36-5.4,3.93-9.55-2.63-2.76-5.84-3-10.33-2.72-15.35a26.8,26.8,0,0,1,7.08-15.43,24,24,0,0,1,4.4-3.86c.71-.43,1.41-.83,2.1-1.19,13.75-7.29,24.35-2.64,36.79,4.91l.23,1.39.29,1.83s3.32,8.3,3,13.72c-.28,4.26-1.64,4.89.18,7.65l2.35,5.51-5.09.82-1.47,10c.33.88,1.52,7.85-9.22,5.53,0,0-6.52-.39-6.71.95,0,0-.05,9-2.6,14.81"/><path class="cls-5" d="M278.27,241.9s1.33-6.14-5.76-8.79-12.51,5.08-12.18,10c.22,3.41,5.17,9.24,11.47,4.54.28-.22.57-.45.86-.71"/><path class="cls-5" d="M284.31,274s-7.09,2.93-7.32,7.12c0,.11,0,.22,0,.33.24,7.24-5.36,24.82-6.87,27.46a42.07,42.07,0,0,0-3.08,6.45,68.71,68.71,0,0,0-3.47,36.79,77,77,0,0,0,3.62,13.44s7.17,29.33,7.17,52.13c0,.32,0,.64,0,1C274.59,441,282.91,459.47,289,464"/><path class="cls-5" d="M407.14,249.72a27.52,27.52,0,0,0,.57-7.07l-.22-6.73.87-5.86a4,4,0,0,1,3.66,2.65,5.85,5.85,0,0,1,.25,2.12s.21,7.39,1.52,10.43"/><path class="cls-5" d="M278.91,316.5a50.52,50.52,0,0,1,8.06-3.85A55,55,0,0,1,296,310a45.51,45.51,0,0,1,8.94-.91c14.34,0,16.29-1.95,23-4.34s16.07-5.21,20.41-6.3,10.43-7.82,16.73-11.94,22.58-15.21,26.49-18.9,11.95-10,11.95-10a18.14,18.14,0,0,0,3.56-7.91"/><path class="cls-5" d="M408.08,272.92c-.62.63-20.32,21.18-38.44,33,0,0-3.91,3.59-5.37,4.89s-5.87,2-6.84,2.44-25.66,15.75-30.14,17.6c-2.45,1-5.51,2-8.77,3-2.94.88-6,1.77-9,2.69-7.52,2.32-14.2,4.84-15.27,8"/><path class="cls-5" d="M437,246.43a2.2,2.2,0,0,1,2.86.9,2.14,2.14,0,0,1,.29,1.08,2.26,2.26,0,0,1-.33,1.16,2.2,2.2,0,0,1-.82.78l-4.3,2.34a1.61,1.61,0,0,0,.68,3l4.44.25,1.15-.41a1.32,1.32,0,0,1,.76,0h0a1.28,1.28,0,0,1,1,1.17v.1a1.28,1.28,0,0,1-.35.89l-1.89,2-1,.12-6.69.86s-7.66,3.58-11.08,6-8.47,1.79-13.68,6.19"/><path class="cls-5" d="M433.78,243.35l-1.87,3.17a1.2,1.2,0,0,0,0,1.25,1.18,1.18,0,0,0,1,.52,1.14,1.14,0,0,0,.51-.11l3.57-1.74"/><path class="cls-5" d="M411.51,247.32l2.56-1.63,6.4-4.07,1.85-1.63,1.5-1.32a1.33,1.33,0,0,1,2.21,1,1.4,1.4,0,0,1-.17.65l-.22.39a2,2,0,0,0,2.95,2.51l2.58-2a1.18,1.18,0,0,1,1.42,0l.87.64a1.18,1.18,0,0,1,.39,1.4"/><path class="cls-5" d="M318.66,334.31s9.44,7,8.47,16.78-2,20.68-2.35,32.09c-.07,2.44-.26,4.72-.48,6.94-.42,4.27-.95,8.28-1,12.6a46.56,46.56,0,0,0,.92,9.49,15.53,15.53,0,0,0,4.6,8.32c3.54,3.29,9.9,7,20.42,6.63,1.31-.05,2.69-.09,4.13-.11,18.89-.34,47.95,1.42,73.08,14.44,0,0,13,5.87,10.1,23.79,0,0-2.28,10.42-19.87,10.75-12.46.23-44.52-1.34-64-2-8-.29-13.95-.43-15.47-.24-5.22.65-7.21,1.71-23.89,2.24s-10.78-1.16-21.81-.69c-1.53.06-9.26,2.77-9.94,3a.11.11,0,0,1-.12,0c-.39-.46-2.92-3.65.7-5.15l3-1.49a8.43,8.43,0,0,1,4-7.4,14.57,14.57,0,0,1,4.07-1.87c8.8-2.6,13.33-2.93,18.72-8.79s7.94-13.38,17.45-2.93c0,0,4.09,4.86,15.64,3.58a31.77,31.77,0,0,0,4.94-1c13.61-3.77,34.27-15.07,62.82-3.54"/><path class="cls-5" d="M350.1,453.55s1.79,10.26,2.6,20.44"/><path class="cls-5" d="M274.47,418.66a160.77,160.77,0,0,0,16.82-1.82c18.2-3.21,32-14.12,32-14.12"/><path class="cls-5" d="M309.49,336.54S304.1,361.67,287,365.15s-23.39-13-23.39-13"/><path class="cls-5" d="M267,315.35s9.54-9.37,19.94-2.7"/><path class="cls-5" d="M353.41,427.05S368,396.64,372.3,381.66s22.37-33.67,26.07-37.8A82.24,82.24,0,0,0,415.52,310c1.5-6.48,4.65-14.82,8.26-22.85,5.82-13,12.81-25.18,15.76-27.32"/><path class="cls-5" d="M441.81,255.36s1.62-3.87-2-5.79"/><path class="cls-5" d="M437,246.44h0c.28-.17,3.17-1.93,1.3-4.1s-3.49-1.06-4.48.88l-.07.14"/><path class="cls-5" d="M431.17,241.19s1.95-2-.22-3.42-3.66,0-5.09,2.55"/><path class="cls-5" d="M422.32,240a30.46,30.46,0,0,1-6-3.17,18.21,18.21,0,0,1-3.93-3.57l-.4-.54"/><path class="cls-5" d="M408.36,230.06s-2-4.78-11.08-4l-2.44-1.71a6.88,6.88,0,0,0-6.64-.77l-.34.15a1.23,1.23,0,0,0,0,2.23l2.11,1,6.3,4.67s10,10.12,10.84,18.14h0"/><path class="cls-5" d="M416.34,236.82h0c.25,0,4.07-.54,4.28-2.75s-2.6-.87-4.29-1.84-3.92,1-3.92,1"/><path class="cls-5" d="M408.09,272.9a0,0,0,0,1,0,0,49.43,49.43,0,0,1-2.05,5.81,77.93,77.93,0,0,1-10.7,18.44c-9.56,12.16-18.25,30.19-23.24,35.18s-11.08,9.34-15.86,14.34-31.93,43.43-31.93,43.43"/><path class="cls-5" d="M423.78,287.15s-9-8.4-17.75-8.42"/></svg>