<svg id="Layer_1" data-name="Layer 1" xmlns="http://www.w3.org/2000/svg" viewBox="0 0 700 700"><defs><style>.cls-1{fill:#feae63;}.cls-2{fill:#99abcc;}.cls-3{fill:#c4e7f9;}.cls-4{fill:#392328;}.cls-5{fill:none;stroke:#000;stroke-linecap:round;stroke-linejoin:round;stroke-width:2.3px;}</style></defs><title>Yoga_poses_2020_color</title><path class="cls-1" d="M525.56,560.13a2.14,2.14,0,0,1,1.66,3.5l-.28.27c-1.83,1.52-4.89.72-6.2.66s-11.17.53-17.89-1.94-13.47-.63-17.65,1.15a16.79,16.79,0,0,1-6.55,1.34,13.6,13.6,0,0,1-4-.55s-2.85-1.25-2.85-5.68a14.16,14.16,0,0,1,.58-3.79s3.42-11.53,3.39-14.83c0-.8,0-1.56-.05-2.29h0c11.4,2.28,16,0,16,0,1.3,6,2.78,7,2.78,7,7.21,5.09,26.17,13.61,26.17,13.73h0a39.87,39.87,0,0,0,4.32,1.42A6,6,0,0,0,525.56,560.13Z"/><path class="cls-2" d="M485.62,436.51c5.93,3,5.92,11.2,5.16,17.13s-.87,23.63-1,57.34c-.07,13.83.87,22.09,1.94,27,0,0-4.58,2.28-16,0h0c-.38-12-3.11-15.83-7.66-32.89-4.84-18.1-.19-41.31-.19-41.31.75-5.64-3.49-5.37-20.78-5.37s-29.8,5.74-49.86.79c-13.28-3.28-14.18-5.55-14.18-5.55s17.09-17.15,20.46-24.1a44.13,44.13,0,0,0,4.28-11.72l1.54.36C431.81,420.69,475.58,431.38,485.62,436.51Z"/><path class="cls-3" d="M413.08,347.27c0,13.9,4.13,22.17,0,37.21s-3,12.78-3.39,19.54c-.05.93-.13,2-.23,3l-1.08-.1c-14.23.34-37.88-8.5-37.88-8.5,2.35-7.12,2.26-17.2-1-26.39-5.64-15.78-11.59-19.1-12-33,0-1.73-.07-3.4-.08-5h0s2.75,9.69,16.67,9.69c18,0,19.56-14.28,18.68-24.42a42.86,42.86,0,0,0,15.74,7.07C411.4,330.48,413.08,336.06,413.08,347.27Z"/><path class="cls-1" d="M406.53,267.89l3.09,5-4.82,1.58v9.92c.48.81,2.66,7.45-8.15,6.74,0,0-4,.13-6,5.44h-.07c-.46-12.06-.46-27.18-.46-32.93,0-2.54,0-5.8.06-9.5h.17a25.94,25.94,0,0,0,9.37-8.35l.56,1.75s4.47,7.6,4.9,12.93C405.59,264.67,404.33,265.5,406.53,267.89Zm-5.89.09c.61,0,1.07-1.18,1-2.6s-.59-2.55-1.2-2.52-1.07,1.18-1,2.6S400,268,400.64,268Z"/><path class="cls-2" d="M408.38,407l1.08.1a78.34,78.34,0,0,1-1.71,10.76,44.13,44.13,0,0,1-4.28,11.72c-3.37,6.95-20.46,24.1-20.46,24.1-36.34,33.84-81.13,43.14-84.72,44.47-4.1,1.52-11.28,6.5-16.36,5.95-6.26-.69-15.19,3.35-15.19,3.35-14.63,7.44-45.15,20.34-56.62,26.14-2,1-3.55,1.84-4.83,2.59-11.1-3.11-9.13-13-9.13-13l3.09-2c10-6.43,36.54-30.12,53.41-35.74s22.88-4,38.14-15.66,47.1-33.07,47.1-33.07c5.26-20.3,14.66-27.44,24.06-29,3.92-.63,6.86-4.21,8.54-9.32C370.5,398.46,394.15,407.3,408.38,407Z"/><path class="cls-1" d="M406.31,323.59a26.27,26.27,0,0,1,2.25,2.78,42.86,42.86,0,0,1-15.74-7.07c-.46-5.3-1.57-9.47-1.34-9.89C391.48,309.41,399.91,317.18,406.31,323.59Z"/><path d="M401.66,265.38c0,1.42-.41,2.58-1,2.6s-1.15-1.1-1.2-2.52.41-2.58,1-2.6S401.61,264,401.66,265.38Z"/><path class="cls-4" d="M399.34,244.49l.43,1.33a25.94,25.94,0,0,1-9.37,8.35h-.17c0-3.93.07-8.35.08-12.91h.39C393.49,242.14,396.36,243.25,399.34,244.49Z"/><path class="cls-1" d="M366.68,150.73c-.13-2.54-.63-13.36.15-15.4.67-1.74,2.05.69,2.83,7.71.19,4.36.53,8.52.53,8.52-.08-3.36-.27-6.19-.53-8.52-.2-5-.21-10.2.7-9.87,1.07.38,2.22,4.91,2.91,10,.14,4.09.63,8.93.63,8.93a65.86,65.86,0,0,0-.63-8.93c-.11-3.09,0-5.75.65-5.55,1.54.47,3.84,10.93,4.31,16.68s1.11,12.89,1.11,17.23,10.52,41.18,10.83,54.65c.11,4.87.14,10,.14,15,0,4.56,0,9-.08,12.91,0,3.7-.06,7-.06,9.5,0,5.75,0,20.87.46,32.93.19,5.15.46,9.74.85,12.81-.23.42.88,4.59,1.34,9.89.88,10.14-.65,24.42-18.68,24.42-13.92,0-16.67-9.69-16.67-9.69h0c0-11.54,1-20.84,3.56-28.61a168.4,168.4,0,0,0,6.69-20.7,38.24,38.24,0,0,0,.93-5.75c.95-14,2.68-25.4,2-38.13,0-.75-.08-1.51-.14-2.27-1-13.66-1.89-8-1.59-52.27,0,0,.16-10.1-4.52-14.85s-6.17-6.54-5.87-13.37,2.17-8.29,3.06-8.29H363v-7.15c0-5,2.08-5.65,2.67-2.38C366.14,143,366.56,148.92,366.68,150.73Z"/><path class="cls-4" d="M370.64,240.84c.65,12.73-1.08,24.18-2,38.13a38.24,38.24,0,0,1-.93,5.75l-1.48-.3a27.57,27.57,0,0,1-7.59-8.28s-5.18-9.1-3.94-18.28c.11-.32.2-.66.29-1a13.25,13.25,0,0,0,.59-2.66,17,17,0,0,1,5.36-7.6,32.86,32.86,0,0,1,9.57-5.73Z"/><path class="cls-4" d="M350.36,245.22c5.08.4,5.62,5.45,5.19,9a18.58,18.58,0,0,0-.88,3.68c-2.43,7.52-9.86,5.58-12,2.92a10.55,10.55,0,0,1-1.28-10.24A8.93,8.93,0,0,1,350.36,245.22Z"/><path class="cls-1" d="M224.92,559.32a1.28,1.28,0,0,1,1.23,1.38c-.12,1.32-.6,3.11-2.39,2.95l-.35.05a5.5,5.5,0,0,0-.74-.93l-4.87-1.24.52-2.81c1.29.2,2.86.39,4.37.48Z"/><path class="cls-1" d="M223.41,563.7c.45.73.68,1.68-.8,2a9,9,0,0,1-4.75-.39h-.07a1.78,1.78,0,0,0-.58-1.62,13.51,13.51,0,0,0-2.17-1.15l2.76-1,4.87,1.24A5.5,5.5,0,0,1,223.41,563.7Z"/><path class="cls-1" d="M215,562.53a13.51,13.51,0,0,1,2.17,1.15,1.78,1.78,0,0,1,.58,1.62,3.81,3.81,0,0,1-.19,1,7.91,7.91,0,0,1-5.33-.59l0,0,.51.56a.73.73,0,0,1-.39,1.21,8,8,0,0,1-4.08-.39s-9.59,1.12-12.48-2.26a53.3,53.3,0,0,0-13.42-10.49c-12.67-7-12-11.86-10-14.52,1.81-2.4,14.06-10.39,23.81-16.64,0,0-2,9.85,9.13,13-6.2,3.65-5.11,5-3.84,9.46,1.53,5.36,9.78,11.64,9.78,11.64l4.23,1s1.2.25,2.86.5l-.52,2.81Z"/><path class="cls-5" d="M207.85,563.55l2.15.21a1.3,1.3,0,0,1,.86.43l1.38,1.52.51.56a.73.73,0,0,1-.39,1.21,8,8,0,0,1-4.08-.39s-9.59,1.12-12.48-2.26a53.3,53.3,0,0,0-13.42-10.49c-12.67-7-12-11.86-10-14.52,1.81-2.4,14.06-10.39,23.81-16.64l3.09-2c10-6.43,36.54-30.12,53.41-35.74s22.88-4,38.14-15.66,47.1-33.07,47.1-33.07c5.26-20.3,14.66-27.44,24.06-29,3.92-.63,6.86-4.21,8.54-9.32,2.35-7.12,2.26-17.2-1-26.39-5.64-15.78-11.59-19.1-12-33,0-1.73-.07-3.4-.08-5,0-11.54,1-20.84,3.56-28.61a168.4,168.4,0,0,0,6.69-20.7,38.24,38.24,0,0,0,.93-5.75c.95-14,2.68-25.4,2-38.13,0-.75-.08-1.51-.14-2.27-1-13.66-1.89-8-1.59-52.27,0,0,.16-10.1-4.52-14.85s-6.17-6.54-5.87-13.37,2.17-8.29,3.06-8.29"/><path class="cls-5" d="M212.27,565.69a7.91,7.91,0,0,0,5.33.59,3.81,3.81,0,0,0,.19-1,1.78,1.78,0,0,0-.58-1.62,13.51,13.51,0,0,0-2.17-1.15c-1.09-.48-2.12-.87-2.12-.87"/><path class="cls-5" d="M217.86,565.3a9,9,0,0,0,4.75.39c1.48-.31,1.25-1.26.8-2a5.5,5.5,0,0,0-.74-.93l-4.87-1.24"/><path class="cls-5" d="M355,256.84c-.09.36-.18.7-.29,1-2.43,7.52-9.86,5.58-12,2.92a10.55,10.55,0,0,1-1.28-10.24,8.93,8.93,0,0,1,9-5.32c5.08.4,5.62,5.45,5.19,9a13.25,13.25,0,0,1-.59,2.66"/><path class="cls-5" d="M383,453.64s.9,2.27,14.18,5.55c20.06,4.95,32.57-.79,49.86-.79s21.53-.27,20.78,5.37c0,0-4.65,23.21.19,41.31,4.55,17.06,7.28,20.94,7.66,32.89,0,.73,0,1.49.05,2.29,0,3.3-3.38,14.82-3.39,14.83a14.16,14.16,0,0,0-.58,3.79c0,4.43,2.85,5.68,2.85,5.68a13.6,13.6,0,0,0,4,.55,16.79,16.79,0,0,0,6.55-1.34c4.18-1.78,10.92-3.62,17.65-1.15s16.57,1.87,17.89,1.94,4.37.86,6.2-.66l.28-.27a2.14,2.14,0,0,0-1.66-3.5,6,6,0,0,1-.62,0,39.87,39.87,0,0,1-4.32-1.42h0c0-.12-19-8.64-26.17-13.73,0,0-1.48-1-2.78-7-1.07-4.9-2-13.16-1.94-27,.18-33.71.28-51.41,1-57.34s.77-14.1-5.16-17.13c-10-5.13-53.81-15.82-76.33-18.33"/><path class="cls-5" d="M357.47,334s2.75,9.69,16.67,9.69c18,0,19.56-14.28,18.68-24.42-.46-5.3-1.57-9.47-1.34-9.89,0,0,8.43,7.77,14.83,14.18a26.27,26.27,0,0,1,2.25,2.78c2.84,4.11,4.52,9.69,4.52,20.9,0,13.9,4.13,22.17,0,37.21s-3,12.78-3.39,19.54c-.05.93-.13,2-.23,3a78.34,78.34,0,0,1-1.71,10.76,44.13,44.13,0,0,1-4.28,11.72c-3.37,6.95-20.46,24.1-20.46,24.1-36.34,33.84-81.13,43.14-84.72,44.47-4.1,1.52-11.28,6.5-16.36,5.95-6.26-.69-15.19,3.35-15.19,3.35-14.63,7.44-45.15,20.34-56.62,26.14-2,1-3.55,1.84-4.83,2.59-6.2,3.65-5.11,5-3.84,9.46,1.53,5.36,9.78,11.64,9.78,11.64l4.23,1s1.2.25,2.86.5c1.29.2,2.86.39,4.37.48l2.23.12a1.28,1.28,0,0,1,1.23,1.38c-.12,1.32-.6,3.11-2.39,2.95"/><path class="cls-5" d="M399.77,245.82a25.94,25.94,0,0,1-9.37,8.35"/><path class="cls-5" d="M370.48,240.85a32.86,32.86,0,0,0-9.57,5.73,17,17,0,0,0-5.36,7.6,18.58,18.58,0,0,0-.88,3.68c-1.24,9.18,3.94,18.28,3.94,18.28a27.57,27.57,0,0,0,7.59,8.28"/><path class="cls-5" d="M390.7,296.6c2-5.31,6-5.44,6-5.44,10.81.71,8.63-5.93,8.15-6.74V274.5l4.82-1.58-3.09-5c-2.2-2.39-.94-3.22-1.3-7.39-.43-5.33-4.9-12.93-4.9-12.93l-.56-1.75-.43-1.33c-3-1.24-5.85-2.35-8.64-3.23"/><path class="cls-5" d="M370.5,398.46s23.65,8.84,37.88,8.5"/><path class="cls-5" d="M196.16,523.18s-2,9.85,9.13,13"/><path class="cls-5" d="M491.67,538s-4.58,2.28-16,0"/><path class="cls-5" d="M373.27,143.2c-.11-3.09,0-5.75.65-5.55,1.54.47,3.84,10.93,4.31,16.68s1.11,12.89,1.11,17.23,10.52,41.18,10.83,54.65c.11,4.87.14,10,.14,15,0,4.56,0,9-.08,12.91,0,3.7-.06,7-.06,9.5,0,5.75,0,20.87.46,32.93.19,5.15.46,9.74.85,12.81"/><path class="cls-5" d="M373.27,143.2a65.86,65.86,0,0,1,.63,8.93S373.41,147.29,373.27,143.2Z"/><path class="cls-5" d="M369.66,143c-.2-5-.21-10.2.7-9.87,1.07.38,2.22,4.91,2.91,10"/><path class="cls-5" d="M369.66,143c.26,2.33.45,5.16.53,8.52C370.19,151.56,369.85,147.4,369.66,143Z"/><path class="cls-5" d="M366.68,150.73c-.13-2.54-.63-13.36.15-15.4.67-1.74,2.05.69,2.83,7.71"/><path class="cls-5" d="M363,159.27V142.64c0-5,2.08-5.65,2.67-2.38.5,2.75.92,8.66,1,10.47l0,.54"/><path class="cls-5" d="M392.82,319.3a42.86,42.86,0,0,0,15.74,7.07"/></svg>