<svg id="Layer_1" data-name="Layer 1" xmlns="http://www.w3.org/2000/svg" viewBox="0 0 700 700"><defs><style>.cls-1{fill:#feae63;}.cls-2{fill:#392328;}.cls-3{fill:#99abcc;}.cls-4{fill:#c4e7f9;}.cls-5{fill:none;stroke:#000;stroke-linecap:round;stroke-linejoin:round;stroke-width:2.3px;}</style></defs><title>Yoga_poses_2020_color</title><path class="cls-1" d="M546.88,497.55a2.23,2.23,0,0,1,.07,3.36c-3.89,3.51-15.37,3.27-15.37,3.27s-41.38-1.95-49.68-1.95-6.36-10.07-4.7-22.81c.12-.94.23-1.88.33-2.83.4.16,9.94,3.62,23.87-3.08,3.09,7.78,9.83,11.44,18.13,14.71a140.94,140.94,0,0,0,20.89,6.29Z"/><path class="cls-2" d="M535.25,218.62a7.75,7.75,0,0,1,4.39,8.34,10.84,10.84,0,0,1-.82,3.14c-2,4.52-7.44,5.56-10.88,5.13q.16-.37.3-.75a31.13,31.13,0,0,0,1.15-17.06A10.7,10.7,0,0,1,535.25,218.62Z"/><path class="cls-2" d="M529.39,217.42a31.13,31.13,0,0,1-1.15,17.06q-.13.38-.3.75a23.89,23.89,0,0,1-1.87,3.56c-.47.72-1,1.44-1.53,2.15-3.38,4.18-8.67,7.9-16.83,10.16a9.47,9.47,0,0,0,2.55-2.35c1.63-3.74-.66-4.71-2.31-4.94h0c-4.72-6.57.2-22,.2-22,1.71-10.39-4.72-17-9.88-18.36a.56.56,0,0,1-.39-.28c-.35-.6.69-2,2.46-3,6-3.12,15.43-5.11,25.81,9.88a34,34,0,0,1,2.83,5.73c.07.22.15.51.23.86S529.33,217.14,529.39,217.42Z"/><path class="cls-1" d="M508,243.81c1.65.23,3.94,1.2,2.31,4.94a9.47,9.47,0,0,1-2.55,2.35h0a8,8,0,0,1-5.3,1.22,7.77,7.77,0,0,1-.9-.16s-1.28-.51-1.27-1.46l-.43.11s-7,5.66-10.92,4.17l-14.74-5.18a12.64,12.64,0,0,1-3.49-2.19,6.81,6.81,0,0,1-1.75-8c3-6.55,6.17-17.22,9.77-20s3.68-5.7,5.42-7.17,2.84-2.34,2.84-2.34c7.93-7.12,11-7,11-7a.56.56,0,0,0,.39.28c5.16,1.33,11.59,8,9.88,18.36,0,0-4.92,15.45-.2,22Zm-14-14.94c.79-1.4,1-2.81.35-3.17s-1.74.51-2.55,1.91-1,2.82-.36,3.16S493.18,230.27,494,228.87Zm-8.76-8.94c.74-1.29.88-2.58.32-2.89s-1.59.46-2.33,1.73-.88,2.58-.32,2.9S484.49,221.21,485.23,219.93Z"/><path class="cls-1" d="M477.2,322s-3.19.63-6.58,1.51l-1.54-17.39,18-22.87h0a10.19,10.19,0,0,0,3.24,4.63c6,4.72,17.43,7.49,13,29.81s-1.47,29.64-7.33,43.33c-2.46,5.74-4.9,8.87-6.89,10.57a5.42,5.42,0,0,1-7,0l-2.88-2.43a210.94,210.94,0,0,1-16.69-18.49,151.89,151.89,0,0,1-9.37-12.95l-1.78-2.79c-6.94-11-11.28-18.71-13.14-22.13a37.09,37.09,0,0,0-2.07-3.34c-1.39-2-3.52-5.72-1.84-7.3,4.76-2.12,15.14-7.31,28.53-17.15l1-.76,5.45-4a2.48,2.48,0,0,1,3.14,3.83l-16.11,14.74-7.61,7c1.73,3.06,8.37,12,15.6,19.74h0c4.33,4.65,8.89,8.89,12.73,11.21a45.32,45.32,0,0,0,0-11.56A13.6,13.6,0,0,1,477.2,322Z"/><path class="cls-1" d="M501.49,252.17a7.77,7.77,0,0,0,.9.16s-11.7,8.32-14.14,14c-1.82,4.26-3.1,11.51-1.12,16.88h0l-18,22.87c-7-1.3-12.64-7.29-12.64-7.29l16.11-14.74a2.48,2.48,0,0,0-3.14-3.83l-5.45,4q2.78-2.06,5.72-4.4a1.88,1.88,0,0,0,.64-2v-.05a2,2,0,0,0-2.79-1.24l-20,10.29c-3.64-3.8-7.44-14.65-7.44-14.65l14.88-18.59a37,37,0,0,0,5.54,1.34,4.14,4.14,0,0,0,3.5-1.08l6.69-6.27a12.64,12.64,0,0,0,3.49,2.19L488.87,255c3.94,1.49,10.92-4.17,10.92-4.17l.43-.11C500.21,251.66,501.49,252.17,501.49,252.17Z"/><path class="cls-3" d="M404.26,344.66c6.79.47,14.28,1.13,21.57,1.85,19.08,1.89,36.76,4.14,36.76,4.14h0a210.94,210.94,0,0,0,16.69,18.49l2.88,2.43a5.42,5.42,0,0,0,7,0c2-1.7,4.43-4.83,6.89-10.57,7.82,1.79,5.54,19.05,5.54,19.05s-2.94,71.68-2,85.36a26.4,26.4,0,0,0,1.75,8.1c-13.93,6.7-23.47,3.24-23.87,3.08,1.64-16.3-.71-33.53-6.71-53.86-6.36-21.5,4.07-35.18,4.07-35.18s-19.87,2.6-41.11,4.56S405.17,393.74,369,395c-11.73,12.71-50.82,28-61.25,31.6s-12.71,7.82-23.46,11.4c-8.28,2.77-17.53,2.88-21.34,2.79a20.37,20.37,0,0,0-3.9.29c-5.62,1-21.07,3.75-30.79,6.37-12.06,3.26-21.18,5.54-32.26,9.13-8.79-7.17-11.43-15.06-11.43-15.06h0c7.5-3.46,14-6.44,14-6.44,35.19-16.94,39.75-17.92,58-19.87s31.28-17.27,45-24.43a107.76,107.76,0,0,0,21.61-14.56s-2.82-8,6.73-21.06c5.77-7.87,17.48-17.34,29.32-27.54,0,0,12.73-1.46,45.08,16.35Z"/><path d="M494.34,225.7c.61.36.44,1.77-.35,3.17s-1.95,2.25-2.56,1.9-.44-1.76.36-3.16S493.73,225.36,494.34,225.7Z"/><path d="M485.55,217c.56.31.42,1.6-.32,2.89s-1.78,2.06-2.33,1.74-.41-1.61.32-2.9S485,216.71,485.55,217Z"/><path class="cls-4" d="M469.08,306.1l1.54,17.39a41.94,41.94,0,0,0-6.18,2h0c-7.23-7.77-13.87-16.68-15.6-19.74l7.61-7S462.08,304.8,469.08,306.1Z"/><path class="cls-1" d="M428.83,273.25c2.08,4.06,3.9,7.54,4.93,9.5a9.55,9.55,0,0,0,2.36,2.89,5.7,5.7,0,0,1,1.82,2.68,2.64,2.64,0,0,0,3.71,1.54l5.82-3,20-10.29a2,2,0,0,1,2.79,1.24v.05a1.88,1.88,0,0,1-.64,2q-2.94,2.34-5.72,4.4l-1,.76c-13.39,9.84-23.77,15-28.53,17.15a4.35,4.35,0,0,1-5.17-1.27c-4.09-5.12-12-17-19-26.72-1-1.35-1.93-2.66-2.86-3.9-.45-.61-.9-1.2-1.34-1.78-9.45-12.38-16.13-23.46-17.92-31.93s7.49-9.77,10.75-10.2,17.27,5.15,26.88,7.6,16.45,10.42,21.66,15.47a20,20,0,0,0,7.55,4.22L440,272.22Z"/><path class="cls-4" d="M451.45,334.91s-2.13,1.81-9.79,3.61-15.83,8-15.83,8c-7.29-.72-14.78-1.38-21.57-1.85l.05-.66c-32.35-17.81-45.08-16.35-45.08-16.35,11-9.46,22.06-19.56,28.61-29.59,9.16-14,14.82-21.77,17.54-25.33l4.81,1.42c7,9.72,14.95,21.6,19,26.72a4.35,4.35,0,0,0,5.17,1.27c-1.68,1.58.45,5.28,1.84,7.3a37.09,37.09,0,0,1,2.07,3.34C440.17,316.2,444.51,323.94,451.45,334.91Z"/><path class="cls-4" d="M447.47,286.87l-5.82,3a2.64,2.64,0,0,1-3.71-1.54,5.7,5.7,0,0,0-1.82-2.68,9.55,9.55,0,0,1-2.36-2.89c-1-2-2.85-5.44-4.93-9.5l11.2-1S443.83,283.07,447.47,286.87Z"/><path class="cls-1" d="M204.81,492.59a2.06,2.06,0,0,1,0,.35,2.47,2.47,0,0,1-2.48,2.14l-6.62,0c-10.43.32-12.71-1.63-16.62-8.15S168,473.23,159.53,467.69s-2.28-13,5.53-16.94c3.88-1.93,12.16-5.8,19.52-9.2h0s2.64,7.89,11.43,15.06c-11.07,3.58-10.1,13.35-10.1,13.35l4.76,14.27a7.42,7.42,0,0,0,5.92,5l6.1.91A2.48,2.48,0,0,1,204.81,492.59Z"/><line class="cls-5" x1="410.19" y1="274.15" x2="405.38" y2="272.73"/><path class="cls-5" d="M359.23,327.65S372,326.19,404.31,344"/><path class="cls-5" d="M184.58,441.56s2.64,7.89,11.43,15.06"/><path class="cls-5" d="M507.71,251.1h0a8,8,0,0,1-5.3,1.22,7.77,7.77,0,0,1-.9-.16s-1.28-.51-1.27-1.46l-.43.11s-7,5.66-10.92,4.17l-14.74-5.18a12.64,12.64,0,0,1-3.49-2.19,6.81,6.81,0,0,1-1.75-8c3-6.55,6.17-17.22,9.77-20s3.68-5.7,5.42-7.17,2.84-2.34,2.84-2.34c7.93-7.12,11-7,11-7"/><path class="cls-5" d="M497.88,203.14c-.35-.6.69-2,2.46-3,6-3.12,15.43-5.11,25.81,9.88a34,34,0,0,1,2.83,5.73c.07.22.15.51.23.86s.12.49.18.77a31.13,31.13,0,0,1-1.15,17.06q-.13.38-.3.75a23.89,23.89,0,0,1-1.87,3.56c-.47.72-1,1.44-1.53,2.15-3.38,4.18-8.67,7.9-16.83,10.16a9.47,9.47,0,0,0,2.55-2.35c1.63-3.74-.66-4.71-2.31-4.94h0c-4.72-6.57.2-22,.2-22,1.71-10.39-4.72-17-9.88-18.36A.56.56,0,0,1,497.88,203.14Z"/><path class="cls-5" d="M527.94,235.23c3.44.43,8.85-.61,10.88-5.13a10.84,10.84,0,0,0,.82-3.14,7.75,7.75,0,0,0-4.39-8.34,10.7,10.7,0,0,0-5.86-1.2"/><path class="cls-5" d="M486.71,223.34a4.08,4.08,0,0,1-2.8,2.6L479,228.81l3.41,3.49"/><path class="cls-5" d="M464,284.23q2.78-2.06,5.72-4.4a1.88,1.88,0,0,0,.64-2v-.05a2,2,0,0,0-2.79-1.24l-20,10.29-5.82,3a2.64,2.64,0,0,1-3.71-1.54,5.7,5.7,0,0,0-1.82-2.68,9.55,9.55,0,0,1-2.36-2.89c-1-2-2.85-5.44-4.93-9.5-3.06-6-6.67-13.16-9.15-18.63-1.19-2.62-2.12-4.85-2.62-6.35-2.6-8-4.56-9.61-4.56-9.61"/><path class="cls-5" d="M470.64,247.62,464,253.89a4.14,4.14,0,0,1-3.5,1.08,37,37,0,0,1-5.54-1.34,20,20,0,0,1-7.55-4.22c-5.21-5-12.05-13-21.66-15.47s-23.62-8-26.88-7.6-12.54,1.73-10.75,10.2,8.47,19.55,17.92,31.93c.44.58.89,1.17,1.34,1.78.93,1.24,1.89,2.55,2.86,3.9,7,9.72,14.95,21.6,19,26.72a4.35,4.35,0,0,0,5.17,1.27c4.76-2.12,15.14-7.31,28.53-17.15"/><line class="cls-5" x1="419.68" y1="254.62" x2="426.84" y2="259.02"/><path class="cls-5" d="M502.39,252.33s-11.7,8.32-14.14,14c-1.82,4.26-3.1,11.51-1.12,16.88a10.19,10.19,0,0,0,3.24,4.63c6,4.72,17.43,7.49,13,29.81s-1.47,29.64-7.33,43.33c-2.46,5.74-4.9,8.87-6.89,10.57a5.42,5.42,0,0,1-7,0l-2.88-2.43a210.94,210.94,0,0,1-16.69-18.49,151.89,151.89,0,0,1-9.37-12.95l-1.78-2.79c-6.94-11-11.28-18.71-13.14-22.13a37.09,37.09,0,0,0-2.07-3.34c-1.39-2-3.52-5.72-1.84-7.3"/><path class="cls-5" d="M464.43,325.51c-7.23-7.77-13.87-16.68-15.6-19.74l7.61-7,16.11-14.74a2.48,2.48,0,0,0-3.14-3.83l-5.45,4-1,.76"/><path class="cls-5" d="M494.28,349.92a94.86,94.86,0,0,0-17.11-13.2c-3.84-2.32-8.4-6.56-12.73-11.21"/><path class="cls-5" d="M477.17,336.72a45.32,45.32,0,0,0,0-11.56,13.6,13.6,0,0,1,0-3.18c.71-6.4,4.7-14.74,4.7-14.74"/><path class="cls-5" d="M477.2,322s-3.19.63-6.58,1.51a41.94,41.94,0,0,0-6.18,2h0"/><path class="cls-5" d="M451.45,334.91s-2.13,1.81-9.79,3.61-15.83,8-15.83,8"/><path class="cls-5" d="M454.91,253.63,440,272.22s3.8,10.85,7.44,14.65"/><line class="cls-5" x1="440.03" y1="272.22" x2="428.83" y2="273.25"/><path class="cls-5" d="M456.44,298.81s5.64,6,12.64,7.29l18-22.87"/><polyline class="cls-5" points="469.08 306.1 470.62 323.49 470.64 323.74"/><path class="cls-5" d="M407.33,270.25s-.63.75-1.95,2.48c-2.72,3.56-8.38,11.3-17.54,25.33-6.55,10-17.64,20.13-28.61,29.59-11.84,10.2-23.55,19.67-29.32,27.54-9.55,13-6.73,21.06-6.73,21.06a107.76,107.76,0,0,1-21.61,14.56c-13.68,7.16-26.71,22.47-45,24.43s-22.8,2.93-58,19.87c0,0-6.54,3-14,6.44s-15.64,7.27-19.52,9.2c-7.81,3.91-14,11.4-5.53,16.94s15.63,12.71,19.54,19.22,6.19,8.47,16.62,8.15l6.62,0a2.47,2.47,0,0,0,2.48-2.14,2.06,2.06,0,0,0,0-.35,2.48,2.48,0,0,0-2.12-2.46l-6.1-.91a7.42,7.42,0,0,1-5.92-5L185.91,470s-1-9.77,10.1-13.35,20.2-5.87,32.26-9.13c9.72-2.62,25.17-5.39,30.79-6.37a20.37,20.37,0,0,1,3.9-.29c3.81.09,13.06,0,21.34-2.79,10.75-3.58,13-7.81,23.46-11.4S357.28,407.75,369,395"/><path class="cls-5" d="M334.48,371.26S332.85,396.34,369,395s43.53-1,64.77-2.93,41.11-4.56,41.11-4.56-10.43,13.68-4.07,35.18c6,20.33,8.35,37.56,6.71,53.86-.1,1-.21,1.89-.33,2.83-1.66,12.74-3.61,22.81,4.7,22.81s49.68,1.95,49.68,1.95,11.48.24,15.37-3.27a2.23,2.23,0,0,0-.07-3.36l-6.46-3a140.94,140.94,0,0,1-20.89-6.29c-8.3-3.27-15-6.93-18.13-14.71a26.4,26.4,0,0,1-1.75-8.1c-1-13.68,2-85.36,2-85.36s2.28-17.26-5.54-19.05"/><path class="cls-5" d="M462.59,350.65s-17.68-2.25-36.76-4.14c-7.29-.72-14.78-1.38-21.57-1.85-7.34-.5-13.86-.77-18.4-.62"/><path class="cls-5" d="M477.52,476.59h0c.4.16,9.94,3.62,23.87-3.08"/></svg>