<svg id="Layer_1" data-name="Layer 1" xmlns="http://www.w3.org/2000/svg" viewBox="0 0 700 700"><defs><style>.cls-1{fill:#feae63;}.cls-2{fill:#99abcc;}.cls-3{fill:#c4e7f9;}.cls-4{fill:#392328;}.cls-5{fill:none;stroke:#000;stroke-linecap:round;stroke-linejoin:round;stroke-width:2.3px;}</style></defs><title>Yoga_poses_2020_color</title><path class="cls-1" d="M206.7,482c.81,0,1.54-.06,2.13-.09,4.13-.2,3.6-3.79,3.6-3.79,1.57,1.6,4.29,3.6,7.4,2.61,4.92-1.58,1.18-5.51-.19-5.51s-2.36,0-3.15-2.35-5.7-5.51-7.86-8.85-.19-6.09,1.18-8.25,5.7-5.5,5.7-5.5c6.6-4.74,12.43-9.13,17.47-13h0c-11.33-4.88-16.82-15.34-16.82-15.34a196.73,196.73,0,0,0-11.25,16.79S200,446.68,197.82,449s-3.14.59-7.07,6.68-6.29,5.5-7.86,9.63.1,7.81,6.44,9.11a14.55,14.55,0,0,1,1.42,1.7C193.94,481.88,201.89,482.12,206.7,482Z"/><path class="cls-2" d="M216.15,421.83s5.49,10.46,16.82,15.34h0c13.14-10.23,21-17.35,23.41-19.72,3.34-3.27,7.07-6.35,14.93-11.25s8.65-5.32,14-7.09,11.39-6.63,11.39-6.63c25.55-21,16.91-12.24,33.81-26.78,8.39-7.23,15-9.79,20.4-10.62s9.54.08,12.81-.25a83.17,83.17,0,0,1,14.61-.11l.08-.85a177.51,177.51,0,0,1-4.08-34.94c.2-4.13,0-8.46,0-8.46-.75-.05-1.52-.11-2.34-.19-8.25-.78-31.83-6.09-47,3.74s-12.38,15.72-23.19,25.54-20.24,27.91-27.31,34.2-12.19,11.47-20.64,15.17C246.92,392,232.63,399.88,216.15,421.83Z"/><path class="cls-2" d="M363.69,354.84c-3.27.33-7.37-.6-12.81.25a59,59,0,0,0,32.26,10.23,254.23,254.23,0,0,0,32.09-1.13,18.39,18.39,0,0,0-3.05-4.08s-1.52-2.06-8.79-1.87-6.49-1.37-14-1.57-7.86-1.49-10.22-1.83l-.91-.11A83.17,83.17,0,0,0,363.69,354.84Z"/><path class="cls-3" d="M374.28,310.48s.22,4.33,0,8.46a177.51,177.51,0,0,0,4.08,34.94l-.08.85.91.11c2.36.34,2.75,1.63,10.22,1.83s6.68,1.77,14,1.57,8.79,1.87,8.79,1.87a18.39,18.39,0,0,1,3.05,4.08c1.83,3.06,3.17,5.66,9.77,6.38.67.07,1.34.15,2,.24a90,90,0,0,1,15.44,3.27,16.13,16.13,0,0,1-1.54-2.22c-4.07-7.1-.92-15.21,1.21-22.85,2.36-8.45,4.72-9.44,6.88-13.17s8.11-3.18,8.11-3.18a50,50,0,0,0-14.6-4.29c-11-1.37-33-13.75-45.79-15.92C385.2,310.5,381,311,374.28,310.48Z"/><path class="cls-2" d="M427,370.81s-3.76,12.19-2.77,19.47c.45,3.32,3.15,13.29,5.92,23.66,0,0,7.83-1.74,16.38-3.46l1.14-.7-4.1-6.67c-.82-.48-6.25-5.1,3.56-10.25V375.78c-1.36-.57-2.93-1.15-4.69-1.7A90,90,0,0,0,427,370.81Z"/><path class="cls-1" d="M446.52,410.48c-8.55,1.72-16.38,3.46-16.38,3.46,3.29,12.33,6.67,25.23,6.46,28.22-.4,5.5-.2,8.06-.79,12.58S434,464.17,437.58,465s11.45,1.38,18.11-2,11.05,2.75,17.69,3.34,4.39.39,7.68,0,10.37,1.57,11-2.75-2.59.39-11.81-4.91-12.46-8.85-17.92-11.4-8-6.29-8.4-8.45-3-20.35-3-20.35l-5.38-2.75,3.41-3.93-1.23-2Z"/><path class="cls-1" d="M494.6,231.57l.19-.8c1-1.69,1-4.79,0-5.3-.78-.42-3.13,0-3.13,0a7,7,0,0,0-1,.8l-.09-.09a1.61,1.61,0,0,1-1.93.39l-2.25-1.47-.08-.07a4.48,4.48,0,0,1-1.13.95s-2.85-.14-2.9-1.91c0,1.86-.26,2.5-1.08,2.5-1.9,0-2.39-.5-2.88-2.79l-.51.11s-2.29,2.68-2.65,2.68-.77-2.66-1.14-4.25a6.77,6.77,0,0,0-.26-1c-.36-.92-2.67-.62-2.86-.59.45,1,.34,2.29-1.37,3.95l.17.18s-.51,1.4,0,8.77,3.91,6.41,3.76,8.11c0,.28,0,.64-.06,1.06-.09,2.12-.07,5.75.06,8.15.15,2.87,0,6.11,0,6.11s-2.43,18.33-5.08,27.27-2.56,13-2.36,18-.3,25.45-2.07,28.6c-.6,1.08-1.38,2.57-2.17,4.21a39,39,0,0,0-4.65-2.48s-5.95-.55-8.11,3.18-4.52,4.72-6.88,13.17c-2.13,7.64-5.28,15.75-1.21,22.85l.12-.07s9.9,2.4,14.79,2.4a109.83,109.83,0,0,0,13.31-.46c3.7-.38,7.85-.77,11.05-6.26a.41.41,0,0,1,0-.09c3-5.52,5.72-7.56,5.22-17.88-.59-12.09-2.21-9.65-1-21.33A111.67,111.67,0,0,0,484,305a59.44,59.44,0,0,1-.34-7.81c.15-3.68,2.81-5.89,1.18-37.58,0,0,.86-14.59.65-15.92s.39-1.33,2.3-2.8,2.95-4.42,5.31-5.6,2.65-2.06,2.06-3.24A.91.91,0,0,0,494.6,231.57Z"/><path class="cls-1" d="M481,406.8l.11,0s1.38-7.84-2.6-12.53c-2.35-2.78-.81-10.49,1.07-12.15,0,0-4.41-3.27-.88-11.53.5-1.17,1-2.18,1.51-3.1-3.2,5.49-7.35,5.88-11.05,6.26a109.83,109.83,0,0,1-13.31.46c-4.89,0-14.79-2.4-14.79-2.4l-.12.07a16.13,16.13,0,0,0,1.54,2.22c1.76.55,3.33,1.13,4.69,1.7,3.22,1.36,5.31,2.71,6,3.8a9.42,9.42,0,0,1,1.77,5.14c1.33,5.61-7.8,8.14-7.8,8.14-9.81,5.15-4.38,9.77-3.56,10.25l4.1,6.67,1.23,2-3.41,3.93,5.38,2.75c3.2.95,2.55,2.32,5.08,5.8,3.23,4.43,11.16,8.71,11.16,8.71s8-4.29,5.17-11.06c-3.36-8,4.48-11.29,4.54-11.46C476.81,410.46,481.89,410.92,481,406.8Zm-24.49,11.29c-.79-1.22-1-2.48-.49-2.82s1.6.36,2.4,1.57,1,2.48.49,2.82S457.26,419.3,456.46,418.09Z"/><path d="M456,415.27c-.52.34-.3,1.6.49,2.82s1.87,1.92,2.4,1.57.3-1.61-.49-2.82S456.5,414.92,456,415.27Z"/><path class="cls-1" d="M470.86,220.75a4.66,4.66,0,0,0-2.23-2,14.27,14.27,0,0,1-2.65,4.57c-1.64,1.9,0,2.65,0,6.49s1.18,4,2.65,7.22,4.13,3.68,4.13,5.75l.6,0c0-.42,0-.78.06-1.06.15-1.7-3.24-.74-3.76-8.11s0-8.77,0-8.77l-.17-.18C471.2,223,471.31,221.72,470.86,220.75Z"/><path class="cls-4" d="M467.1,433a9.27,9.27,0,0,0,.8.61A18.81,18.81,0,0,0,486.82,435c7.5-3.6,13.19-9.52,16-21.82,5.44-23.93-23.28-31.06-23.28-31.06-1.88,1.66-3.42,9.37-1.07,12.15,4,4.69,2.6,12.53,2.6,12.53l-.11,0c.94,4.12-4.14,3.66-4.14,3.66-.06.17-7.9,3.48-4.54,11.46C475.13,428.69,467.1,433,467.1,433Z"/><path class="cls-1" d="M478.28,223.78c.49,2.29,1,2.81,2.88,2.79.82,0,1.08-.64,1.08-2.5,0-.5,0-1.08-.05-1.77a4,4,0,0,0-.9-2.42,3.41,3.41,0,0,0-4-1.12,13.42,13.42,0,0,0-3.2,3.54l-.1,0c.37,1.59.85,4.25,1.14,4.25s2.65-2.68,2.65-2.68Z"/><path class="cls-1" d="M481.3,219.87h0a4,4,0,0,1,.9,2.42c0,.69.05,1.27.05,1.77.05,1.77,2.9,1.91,2.9,1.91a4.48,4.48,0,0,0,1.13-.95,3.92,3.92,0,0,0,.93-2.77,4,4,0,0,0-2.06-3.5C483.08,217.88,481.3,219.87,481.3,219.87Z"/><path class="cls-1" d="M486.27,225l.08.07,2.25,1.47a1.61,1.61,0,0,0,1.93-.39c1.21-1.27,1.52-4.29.58-4.91-1.33-.89-3.9,1-3.9,1h0A3.92,3.92,0,0,1,486.27,225Z"/><path class="cls-4" d="M511.15,400.59c-4-1.61-8.14.91-7.16,10.58a3.5,3.5,0,0,0,.53,1.56c1.31,2,4,3.76,8.16,3.55,4.75-.23,4.93-5.42,4.93-5.42C517.53,405.17,514.78,402,511.15,400.59Z"/><path class="cls-5" d="M504.52,412.73a3.5,3.5,0,0,1-.53-1.56c-1-9.67,3.11-12.19,7.16-10.58,3.63,1.45,6.38,4.58,6.46,10.27,0,0-.18,5.19-4.93,5.42C508.48,416.49,505.83,414.74,504.52,412.73Z"/><path class="cls-5" d="M481.06,406.78s1.38-7.84-2.6-12.53c-2.35-2.78-.81-10.49,1.07-12.15"/><path class="cls-5" d="M476.81,410.46s5.08.46,4.14-3.66a7.26,7.26,0,0,0-.42-1.24s-3.14-4.62-8.61-3.41c0,0-3,1.2.33,3.36"/><path class="cls-5" d="M463.89,396s-3-4.51-7.62-3.31"/><path class="cls-5" d="M467.1,433s8-4.29,5.17-11.06c-3.36-8,4.48-11.29,4.54-11.46"/><path class="cls-5" d="M462.29,379.58s2.36,4.89.59,8"/><path class="cls-5" d="M480.21,367.38c3-5.52,5.72-7.56,5.22-17.88-.59-12.09-2.21-9.65-1-21.33A111.67,111.67,0,0,0,484,305a59.44,59.44,0,0,1-.34-7.81c.15-3.68,2.81-5.89,1.18-37.58,0,0,.86-14.59.65-15.92s.39-1.33,2.3-2.8,2.95-4.42,5.31-5.6,2.65-2.06,2.06-3.24a.91.91,0,0,0-.56-.46,4.22,4.22,0,0,0-2.39.46"/><path class="cls-5" d="M479.53,382.1s-4.41-3.27-.88-11.53c.5-1.17,1-2.18,1.51-3.1"/><path class="cls-5" d="M472.76,242.79c0-2.07-2.66-2.51-4.13-5.75s-2.65-3.39-2.65-7.22-1.64-4.59,0-6.49a14.27,14.27,0,0,0,2.65-4.57,4.66,4.66,0,0,1,2.23,2c.45,1,.34,2.29-1.37,3.95-.18.18-.39.36-.61.55"/><path class="cls-5" d="M474.08,222.3a13.42,13.42,0,0,1,3.2-3.54,3.41,3.41,0,0,1,4,1.12,4,4,0,0,1,.9,2.42c0,.69.05,1.27.05,1.77,0,1.86-.26,2.5-1.08,2.5-1.9,0-2.39-.5-2.88-2.79q-.06-.28-.12-.6"/><path class="cls-5" d="M481.3,219.87s1.78-2,3.84-1.11a4,4,0,0,1,2.06,3.5,3.92,3.92,0,0,1-.93,2.77,4.48,4.48,0,0,1-1.13.95s-2.85-.14-2.9-1.91"/><path class="cls-5" d="M487.21,222.26s2.57-1.88,3.9-1c.94.62.63,3.64-.58,4.91a1.61,1.61,0,0,1-1.93.39l-2.25-1.47"/><path class="cls-5" d="M494.79,230.77c1-1.69,1-4.79,0-5.3-.78-.42-3.13,0-3.13,0a7,7,0,0,0-1,.8c-1,.88-1.88,2.29,1,3"/><path class="cls-5" d="M470.85,220.75h0c.19,0,2.5-.33,2.86.59a6.77,6.77,0,0,1,.26,1c.37,1.59.85,4.25,1.14,4.25s2.65-2.68,2.65-2.68"/><path class="cls-5" d="M469.66,224.88s-.51,1.4,0,8.77,3.91,6.41,3.76,8.11c0,.28,0,.64-.06,1.06-.09,2.12-.07,5.75.06,8.15.15,2.87,0,6.11,0,6.11s-2.43,18.33-5.08,27.27-2.56,13-2.36,18-.3,25.45-2.07,28.6c-.6,1.08-1.38,2.57-2.17,4.21a66.51,66.51,0,0,0-3.82,9.35c-1.08,3.83-2,5.11-4,6.78"/><path class="cls-5" d="M441,371.79s9.9,2.4,14.79,2.4a109.83,109.83,0,0,0,13.31-.46c3.7-.38,7.85-.77,11.05-6.26a.41.41,0,0,1,0-.09"/><path class="cls-5" d="M350.88,355.09a59,59,0,0,0,32.26,10.23,254.23,254.23,0,0,0,32.09-1.13"/><path class="cls-5" d="M427,370.81s-3.76,12.19-2.77,19.47c.45,3.32,3.15,13.29,5.92,23.66,3.29,12.33,6.67,25.23,6.46,28.22-.4,5.5-.2,8.06-.79,12.58S434,464.17,437.58,465s11.45,1.38,18.11-2,11.05,2.75,17.69,3.34,4.39.39,7.68,0,10.37,1.57,11-2.75-2.59.39-11.81-4.91-12.46-8.85-17.92-11.4-8-6.29-8.4-8.45-3-20.35-3-20.35"/><path class="cls-5" d="M212.43,478.07s.53,3.59-3.6,3.79c-.59,0-1.32.07-2.13.09-4.81.17-12.76-.07-15.95-5.79a14.55,14.55,0,0,0-1.42-1.7,9.85,9.85,0,0,0-3.49-2.43"/><path class="cls-5" d="M461.74,335.14a39,39,0,0,0-4.65-2.48,50,50,0,0,0-14.6-4.29c-11-1.37-33-13.75-45.79-15.92-11.5-1.95-15.67-1.5-22.42-2-.75-.05-1.52-.11-2.34-.19-8.25-.78-31.83-6.09-47,3.74s-12.38,15.72-23.19,25.54-20.24,27.91-27.31,34.2-12.19,11.47-20.64,15.17c-6.91,3-21.2,10.94-37.68,32.89a196.73,196.73,0,0,0-11.25,16.79S200,446.68,197.82,449s-3.14.59-7.07,6.68-6.29,5.5-7.86,9.63.1,7.81,6.44,9.11"/><path class="cls-5" d="M197.63,474.46s2.84,2.82,1.51,6.48"/><path class="cls-5" d="M202.54,474.46a8.89,8.89,0,0,1,1,6.48"/><path class="cls-5" d="M206.67,474.46s2.34,5.05,0,7.49l0,0"/><path class="cls-5" d="M479.53,382.1s28.72,7.13,23.28,31.06c-2.8,12.3-8.49,18.22-16,21.82a18.81,18.81,0,0,1-18.92-1.39,9.27,9.27,0,0,1-.8-.61s-7.93-4.28-11.16-8.71c-2.53-3.48-1.88-4.85-5.08-5.8l-5.38-2.75,3.41-3.93-1.23-2-4.1-6.67c-.82-.48-6.25-5.1,3.56-10.25,0,0,9.13-2.53,7.8-8.14a9.42,9.42,0,0,0-1.77-5.14c-.72-1.09-2.81-2.44-6-3.8-1.36-.57-2.93-1.15-4.69-1.7A90,90,0,0,0,427,370.81c-.65-.09-1.32-.17-2-.24-6.6-.72-7.94-3.32-9.77-6.38a18.39,18.39,0,0,0-3.05-4.08s-1.52-2.06-8.79-1.87-6.49-1.37-14-1.57-7.86-1.49-10.22-1.83l-.91-.11a83.17,83.17,0,0,0-14.61.11c-3.27.33-7.37-.6-12.81.25s-12,3.39-20.4,10.62c-16.9,14.54-8.26,5.8-33.81,26.78,0,0-6.09,4.86-11.39,6.63s-6.1,2.2-14,7.09-11.59,8-14.93,11.25C254,419.83,246.12,427,233,437.18c-5,3.91-10.87,8.3-17.47,13,0,0-4.32,3.34-5.7,5.5s-3.34,4.91-1.18,8.25,7.08,6.49,7.86,8.85,1.77,2.35,3.15,2.35,5.11,3.93.19,5.51c-3.11,1-5.83-1-7.4-2.61a13.54,13.54,0,0,1-1.44-1.72"/><path class="cls-5" d="M374.28,310.48s.22,4.33,0,8.46a177.51,177.51,0,0,0,4.08,34.94"/><path class="cls-5" d="M457.09,332.66s-5.95-.55-8.11,3.18-4.52,4.72-6.88,13.17c-2.13,7.64-5.28,15.75-1.21,22.85a16.13,16.13,0,0,0,1.54,2.22"/><path class="cls-5" d="M216.15,421.83s5.49,10.46,16.82,15.34"/><path class="cls-5" d="M430.14,413.94s7.83-1.74,16.38-3.46"/><line class="cls-5" x1="447.12" y1="392.86" x2="447.12" y2="375.78"/></svg>