<svg id="Layer_1" data-name="Layer 1" xmlns="http://www.w3.org/2000/svg" viewBox="0 0 700 700"><defs><style>.cls-1{fill:#feae63;}.cls-2{fill:#120c0c;}.cls-3{fill:#99abcc;}.cls-4{fill:#c4e7f9;}.cls-5{fill:none;stroke:#000;stroke-linecap:round;stroke-linejoin:round;stroke-width:2.3px;}</style></defs><title>Yoga_poses_2020_color</title><path class="cls-1" d="M499,419.1h0l-2.18-.42s-5-7.52,8.82-15.46c11.29,2.17,17.16,5.21,22.59,5.86a56.16,56.16,0,0,0,13.62,0,78.15,78.15,0,0,0,9.07-1.65,2.61,2.61,0,0,1,.69-.08h.91a3,3,0,0,1,1.1,5.74c-.32.13-.64.24-1,.34v0l2-.2h.17A1.86,1.86,0,0,1,555,417l-.92.09.65,0h.13a1.79,1.79,0,0,1,.17,3.57l-1.59.18a1.71,1.71,0,0,1,1.6,1.7v0a1.71,1.71,0,0,1-1.65,1.7l-4.65.22a1.69,1.69,0,0,1,0,3.38h-2.93s-3.1,3.5-9.29,3-15.88-2.11-23.46-1.46-15.31-.57-14.9-7.33A6.75,6.75,0,0,1,499,419.1Z"/><path class="cls-2" d="M556.44,372.41l-1,1s-9.93-3.17-12.09-4c-4.27-1.68-6.73.82-11.19,1.3S524.3,369,523.08,367c0,0,.29-6-5-3.47a8.65,8.65,0,0,0-1.35,1.35l-.11-.09s-3.71-3.46-7-.64c-2.83,1.46-5,.91-5.82-1.24-.61-1.57-.5-4,.58-7.09a25.39,25.39,0,0,1,9.83-12.38,27.8,27.8,0,0,1,16.35-4.46,20.5,20.5,0,0,1,4.67.7c.88.33,1.72.67,2.53,1C551.7,346.93,554.62,358.08,556.44,372.41Z"/><path class="cls-1" d="M516.71,364.83a8.65,8.65,0,0,1,1.35-1.35c5.31-2.54,5,3.47,5,3.47,1.22,2,4.67,4.24,9.13,3.77s6.92-3,11.19-1.3c2.16.86,12.09,4,12.09,4l-1.25,1.37s-4.44,7.76-8.9,10.85c-3.51,2.43-4.85,1.75-5.88,4.9l-2.86,5.26-3.81-3.47-8.74,5.07c-.49.8-5.2,6.06-10.07-3.79a14.77,14.77,0,0,0-4.36-3.5c-2.69-1.4-13.29-4.08-15.35-7.06h0c7.22-8.83,4.7-17-11.67-25.68a16.78,16.78,0,0,0-2-.87s-3.47-7.57,1.52-13.12c2.17,1.86,9.56,7.26,13.47,12.47a22.35,22.35,0,0,0,8.1,7c.83,2.15,3,2.7,5.82,1.24,3.33-2.82,7,.64,7,.64ZM539.22,385c1.22-.76,1.95-1.8,1.62-2.33s-1.59-.34-2.81.41-1.95,1.81-1.62,2.34S538,385.76,539.22,385Z"/><path class="cls-2" d="M541.27,330.08c2.34,7.2-3.3,10-3.3,10l-.27.61c-.81-.37-1.65-.71-2.53-1a20.5,20.5,0,0,0-4.67-.7v-.1c-8.82-1.55-7.31-9.65-4.67-12C529.52,323.43,538.94,322.89,541.27,330.08Z"/><path d="M540.84,382.67c.33.53-.4,1.57-1.62,2.33s-2.48.95-2.81.42.4-1.58,1.62-2.34S540.51,382.14,540.84,382.67Z"/><path class="cls-3" d="M408.51,347.39c7.85,3,13.28,5,20.88,7.39s14.12,7.17,23.24,14.44a47.25,47.25,0,0,1,6.3,5.93c2.66,3,4.32,5.07,12.82,9.43a159.61,159.61,0,0,1,15.84,9.85c6.07,4.05,11.79,7.58,18,8.78-13.78,7.94-8.82,15.46-8.82,15.46-3.2-.62-9.6-1.85-17.19-3.27-10.23-1.91-25.94-5-37.5-18.48-.77-.9-1.52-1.84-2.25-2.83C429,379.33,410.5,380.58,410.5,380.58s-3.7-.39-4.35,2.65c-16.29-.65-23.67-3.48-38.18-15.64s-12.09-21.36-12.09-21.36h0c-1.11-.28-2.18-.59-3.17-.93-6.06-2.05-34.74-17.31-45.88-21a191.66,191.66,0,0,1-30.63-13.64c-6.39-3.68-8.55-3.35-18.83-5.28S232.37,294.86,224,291a150.4,150.4,0,0,0-18.29-6.82q-.81-.31-1.59-.54a38.89,38.89,0,0,1,1.59-14.37c6.44,1.07,17.82,2.21,33.38,3A101.69,101.69,0,0,1,285,286.14c8,4.78,16.07,6.74,22.37,8.26s29.32,3.47,48,5,30,2,41.35,3.26a49.5,49.5,0,0,1,9.47,2.22S420.87,325.67,408.51,347.39Z"/><path class="cls-1" d="M494.28,383.06h0a37.63,37.63,0,0,0-1,5.14c-.22,2.83-3.91,5.65-5.43,5.87l-.23.34a159.61,159.61,0,0,0-15.84-9.85c-8.5-4.36-10.16-6.47-12.82-9.43a47.25,47.25,0,0,0-6.3-5.93s14.05-17.86,28-12.71a16.78,16.78,0,0,1,2,.87C499,366.07,501.5,374.23,494.28,383.06Z"/><path class="cls-4" d="M482.17,343.39c-5,5.55-1.52,13.12-1.52,13.12-14-5.15-28,12.71-28,12.71-9.12-7.27-15.64-12.05-23.24-14.44s-13-4.35-20.88-7.39c12.36-21.72-2.36-42.52-2.36-42.52,9.76,3.17,20.63,8.77,28.21,12.33,10.19,4.78,17,6.52,26.74,10.86S480,341.53,482.17,343.39Z"/><path class="cls-1" d="M444.48,449.38c2.34.15,4.1.24,4.1.24V450a2.06,2.06,0,0,1-2.06,2.05H441.1l0,.25c2.24.35,4.05.57,4.05.57l-.47.71a2.1,2.1,0,0,1-1.74.93h-8.54s-.18,1.64-1.45,1.64-7.66-.36-12-2.37a143.16,143.16,0,0,1-16.08-.41,7,7,0,0,1-5.72-4.49l-.81-2.18a25.25,25.25,0,0,1-1.53-10.65c.53-7.49,1.61-20.56,3.11-26.57,2.18-8.69,5.65-23.24,6.3-26.28s4.35-2.65,4.35-2.65,18.5-1.25,29.37,13.51c.73,1,1.48,1.93,2.25,2.83l-.65.64c-3.13.66-17.4,0-17.4,0-8.79,15.32-18.26,42-14.84,44.52s12.76,3,16.29,3.67,19.59,1.88,19.59,1.88l-.63,1.74Z"/><path class="cls-1" d="M168.44,252.79l.05,0L167.07,250a1.44,1.44,0,0,1-.16-.67,1.42,1.42,0,0,1,.51-1.11,1.46,1.46,0,0,1,2.14.29l.9,1.32A6.21,6.21,0,0,0,173,252a6.22,6.22,0,0,1,2.1,1.6l1.19,1.4a16,16,0,0,0,4.3,3.51l3.19,1.78c2,1.23,5.1,2.9,6.73,3.77a5.56,5.56,0,0,0,2,.62c3.23.31,4.79,2.23,8.17,3.43a33.56,33.56,0,0,0,5.06,1.12,38.89,38.89,0,0,0-1.59,14.37c-4.65-1.44-8.53-1.19-14.86-3-7-2.06-5.09-1.52-10.39-4.33a77.1,77.1,0,0,0-11.1-4.65l-4.21-1.26-5,.49h-.13a2.86,2.86,0,0,1-2.86-2.85,1.48,1.48,0,0,1,0-.21,2.86,2.86,0,0,1,3.07-2.64l5,.38-2.87-.82a1.77,1.77,0,0,1-1.29-1.7,2,2,0,0,1,.07-.47,1.77,1.77,0,0,1,1.86-1.28l5,.44-3-1.92a1.77,1.77,0,0,1-.83-1.5,1.84,1.84,0,0,1,.2-.82,1.78,1.78,0,0,1,2.49-.72l3.21,1.88-2.94-3.74a1.83,1.83,0,0,1-.38-1.1,1.81,1.81,0,0,1,3.2-1.15Z"/><path class="cls-5" d="M523.08,367s.29-6-5-3.47a8.65,8.65,0,0,0-1.35,1.35,8,8,0,0,0-1.65,7.32s1.31,2.94,3.31-.46"/><path class="cls-5" d="M512.71,376.58s-3.93,3.64-2,8"/><path class="cls-5" d="M555.49,373.45s-9.93-3.17-12.09-4c-4.27-1.68-6.73.82-11.19,1.3S524.3,369,523.08,367"/><path class="cls-5" d="M538,340.06s5.64-2.78,3.3-10-11.75-6.65-15.44-3.29c-2.64,2.39-4.15,10.49,4.67,12"/><path class="cls-5" d="M516.6,364.74s-3.71-3.46-7-.64c-2.83,1.46-5,.91-5.82-1.24-.61-1.57-.5-4,.58-7.09a25.39,25.39,0,0,1,9.83-12.38"/><path class="cls-5" d="M514.15,343.39a27.8,27.8,0,0,1,16.35-4.46,20.5,20.5,0,0,1,4.67.7c.88.33,1.72.67,2.53,1,14,6.26,16.92,17.41,18.74,31.74l-1,1-1.25,1.37s-4.44,7.76-8.9,10.85c-3.51,2.43-4.85,1.75-5.88,4.9l-2.86,5.26-3.81-3.47-8.74,5.07c-.49.8-5.2,6.06-10.07-3.79a14.77,14.77,0,0,0-4.36-3.5c-2.69-1.4-13.29-4.08-15.35-7.06"/><path class="cls-5" d="M434.36,454.54h8.54a2.1,2.1,0,0,0,1.74-.93l.47-.71s-1.81-.22-4.05-.57c-1.84-.28-4-.66-5.6-1.07-3.65-.91-5.65-1.64-5.65-1.64"/><path class="cls-5" d="M441.1,452.08h5.42a2.06,2.06,0,0,0,2.06-2.05v-.41s-1.76-.09-4.1-.24c-3.38-.23-8-.6-10.12-1"/><path class="cls-5" d="M444.48,449.37l.63-1.74s-16.07-1.22-19.59-1.88-12.87-1.14-16.29-3.67,6-29.2,14.84-44.52c0,0,14.27.66,17.4,0"/><path class="cls-5" d="M494.27,383.07h0a37.63,37.63,0,0,0-1,5.14c-.22,2.83-3.91,5.65-5.43,5.87"/><path class="cls-5" d="M495.64,378s-.72,2.43-1.36,5"/><path class="cls-5" d="M503.74,362.86a22.35,22.35,0,0,1-8.1-7c-3.91-5.21-11.3-10.61-13.47-12.47s-11.29-11-21.07-15.33S444.55,322,434.36,317.2c-7.58-3.56-18.45-9.16-28.21-12.33a49.5,49.5,0,0,0-9.47-2.22c-11.38-1.3-22.67-1.74-41.35-3.26s-41.7-3.47-48-5S293,290.92,285,286.14a101.69,101.69,0,0,0-45.83-13.9c-15.56-.79-26.94-1.93-33.38-3a33.56,33.56,0,0,1-5.06-1.12c-3.38-1.2-4.94-3.12-8.17-3.43a5.56,5.56,0,0,1-2-.62c-1.63-.87-4.73-2.54-6.73-3.77l-3.19-1.78a16,16,0,0,1-4.3-3.51l-1.19-1.4A6.22,6.22,0,0,0,173,252a6.21,6.21,0,0,1-2.51-2.15l-.9-1.32a1.46,1.46,0,0,0-2.14-.29,1.42,1.42,0,0,0-.51,1.11,1.44,1.44,0,0,0,.16.67l1.42,2.72"/><path class="cls-5" d="M170.53,255.31l-2.09-2.52-.15-.18a1.81,1.81,0,0,0-3.2,1.15,1.83,1.83,0,0,0,.38,1.1l2.94,3.74"/><path class="cls-5" d="M168.9,258.89l-.49-.29-3.21-1.88a1.78,1.78,0,0,0-2.49.72,1.84,1.84,0,0,0-.2.82,1.77,1.77,0,0,0,.83,1.5l3,1.92-5-.44a1.77,1.77,0,0,0-1.86,1.28,2,2,0,0,0-.07.47,1.77,1.77,0,0,0,1.29,1.7l2.87.82-5-.38a2.86,2.86,0,0,0-3.07,2.64,1.48,1.48,0,0,0,0,.21,2.86,2.86,0,0,0,2.86,2.85h.13l5-.49,4.21,1.26a77.1,77.1,0,0,1,11.1,4.65c5.3,2.81,3.35,2.27,10.39,4.33,6.33,1.84,10.21,1.59,14.86,3q.78.22,1.59.54A150.4,150.4,0,0,1,224,291c8.33,3.89,23.05,12.49,33.33,14.41s12.44,1.6,18.83,5.28a191.66,191.66,0,0,0,30.63,13.64c11.14,3.68,39.82,18.94,45.88,21,1,.34,2.06.65,3.17.93A110.87,110.87,0,0,0,368,348.54"/><path class="cls-5" d="M204.16,283.61a38.89,38.89,0,0,1,1.59-14.37"/><path class="cls-5" d="M355.88,346.23s-2.42,9.2,12.09,21.36,21.89,15,38.18,15.64"/><path class="cls-5" d="M368,352.6s5.35.45,13-2.6,19.73-5.65,27.57-2.61,13.28,5,20.88,7.39,14.12,7.17,23.24,14.44a47.25,47.25,0,0,1,6.3,5.93c2.66,3,4.32,5.07,12.82,9.43a159.61,159.61,0,0,1,15.84,9.85c6.07,4.05,11.79,7.58,18,8.78,11.29,2.17,17.16,5.21,22.59,5.86a56.16,56.16,0,0,0,13.62,0,78.15,78.15,0,0,0,9.07-1.65,2.61,2.61,0,0,1,.69-.08h.91a3,3,0,0,1,1.1,5.74c-.32.13-.64.24-1,.34a11.23,11.23,0,0,1-3,.43h-1.91"/><path class="cls-5" d="M549.31,417.55l4.8-.5L555,417a1.86,1.86,0,0,0-.17-3.71h-.17l-2,.2"/><path class="cls-5" d="M549.8,421.18l3.67-.42,1.59-.18a1.79,1.79,0,0,0-.17-3.57h-.13l-.65,0-.8.06"/><path class="cls-5" d="M548.71,424.4h.06a1.69,1.69,0,0,1,0,3.38h-2.93s-3.1,3.5-9.29,3-15.88-2.11-23.46-1.46-15.31-.57-14.9-7.33a6.75,6.75,0,0,1,.81-2.9c2.19-4.09,8.07-4.6,8.07-4.6"/><path class="cls-5" d="M552.51,420.83l.68-.07h.28a1.71,1.71,0,0,1,1.6,1.7v0a1.71,1.71,0,0,1-1.65,1.7l-4.65.22"/><path class="cls-5" d="M499,419.09l-2.18-.42c-3.2-.62-9.6-1.85-17.19-3.27-10.23-1.91-25.94-5-37.5-18.48-.77-.9-1.52-1.84-2.25-2.83C429,379.33,410.5,380.58,410.5,380.58s-3.7-.39-4.35,2.65-4.12,17.59-6.3,26.28c-1.5,6-2.58,19.08-3.11,26.57a25.25,25.25,0,0,0,1.53,10.65l.81,2.18a7,7,0,0,0,5.72,4.49,143.16,143.16,0,0,0,16.08.41c4.37,2,10.75,2.37,12,2.37s1.45-1.64,1.45-1.64a32.45,32.45,0,0,1-6.37-2.18c-1.83-1.1-4.92-2.55-4.92-2.55"/><path class="cls-5" d="M406.15,304.87s14.72,20.8,2.36,42.52"/><path class="cls-5" d="M458.93,375.15a20.46,20.46,0,0,0,8.91-1.82"/><path class="cls-5" d="M452.63,369.22s14.05-17.86,28-12.71a16.78,16.78,0,0,1,2,.87c16.37,8.69,18.89,16.85,11.67,25.68h0"/><path class="cls-5" d="M480.65,356.51s-3.47-7.57,1.52-13.12"/><path class="cls-5" d="M496.81,418.67s-5-7.52,8.82-15.46"/></svg>