<svg id="Layer_1" data-name="Layer 1" xmlns="http://www.w3.org/2000/svg" viewBox="0 0 700 700"><defs><style>.cls-1{fill:#120c0c;}.cls-2{fill:#feae63;}.cls-3{fill:#99abcc;}.cls-4{fill:#c4e7f9;}.cls-5{fill:none;stroke:#000;stroke-linecap:round;stroke-linejoin:round;stroke-width:2.3px;}</style></defs><title>Yoga_poses_2020_color</title><path class="cls-1" d="M588.63,318.72c2.1,4.52-.21,13.67-7.77,13.75s-8.53-6.15-8.53-6.15l-.78-.12c.68-.75,1.36-1.56,2-2.42a20.26,20.26,0,0,0,2.08-4.25l.09,0C579.87,311.61,587.14,315.48,588.63,318.72Z"/><path class="cls-2" d="M547.56,283.56h0l.86,3.58a20,20,0,0,1-.18,7.62c-1.22,5.89-4.57,11.2-6.23,17.9-.39,1.58-.33,5.93-.08,11,.18,3.81.48,8,.76,11.72.46,5.8.9,10.4.9,10.4,1.32,22,1,18.42-1.59,31.13s-6.87,39.07-3.45,41.61,12.76,3,16.29,3.67,19.6,1.88,19.6,1.88l-.64,1.74h0c2.34.15,4.1.24,4.1.24v.41a2.05,2.05,0,0,1-2.06,2.05h-5.41l0,.26c2.24.34,4.05.56,4.05.56L574,430a2.08,2.08,0,0,1-1.74.93h-8.53s-.19,1.64-1.46,1.64-7.65-.36-12-2.37c0,0-18.05.13-20.59-1.64-3.43-2.38-4.16-13.54-4.16-13.54s-3.51-32.31-3.31-38.37S524,361.07,524,359.05s-.8-4.58-.67-8.08a31.85,31.85,0,0,0-.47-6.54c-.19-1.49-.46-3.46-.78-6.25-.44-3.76-1-10.06-1.34-16.52-.45-8.11-.6-16.46.12-20.37.28-1.52.56-3.52.81-5.73.22-1.85.42-3.84.61-5.8h-.1a1.36,1.36,0,0,0-.12.12c.25-6-2.36-8-6.13-13.49s-8.62-4.71-8.89-26.11c-.26-20.85,14.23-18.71,15-18.59h0q2.4,1,4.74,2.32c12.81,7,18.6,15.4,21.66,21.28h0C552.75,265.25,547.73,283,547.56,283.56Z"/><path class="cls-1" d="M576.29,302.6a27.88,27.88,0,0,1-.63,16.93,20.26,20.26,0,0,1-2.08,4.25c-.67.86-1.35,1.67-2,2.42-8.35,9.22-17.6,10.43-28.52,9.14l-.34,0c-.28-3.71-.58-7.91-.76-11.72l0,0,.06-.08.27-.33.41-.5c2.89-3.57,1.24-6.67,2.12-11.07s4-7,6.32-7.58c0,0,5.66,2.07,4.82-3.75a8.69,8.69,0,0,0-.87-1.69l.11-.08s4-4.85,2.3-8.87a10.16,10.16,0,0,1-.75-1.8h0c-.94-5.44,3.61-5.65,9.86-1C573.6,292,576.29,302.6,576.29,302.6Z"/><path class="cls-2" d="M557.49,289.67c1.7,4-2.3,8.87-2.3,8.87l-.11.08a8,8,0,0,0-6.5-3.77l-.34-.08a20,20,0,0,0,.18-7.62l-.86-3.58h0c.17-.58,5.19-18.31.86-28.26,1.27,2.42,2.07,4.42,2.71,5.75,2.22,4.56,3.49,10.75,4.06,18.24a35.51,35.51,0,0,0,1.55,8.58A10.16,10.16,0,0,0,557.49,289.67Z"/><path class="cls-2" d="M556,300.31c.84,5.82-4.82,3.75-4.82,3.75-2.28.56-5.44,3.19-6.32,7.58s.77,7.5-2.12,11.07l-.41.5-.27.33-.06.08,0,0c-.25-5-.31-9.39.08-11,1.66-6.7,5-12,6.23-17.9l.34.08a8,8,0,0,1,6.5,3.77A8.69,8.69,0,0,1,556,300.31Z"/><path class="cls-3" d="M469.45,332.18l-.08-.43c-5.43.86-13.9-1.09-23.46-3.52s-28.54-13.3-28.54-13.3h0a27.43,27.43,0,0,1,8.24-4.68,65,65,0,0,0,16.94-8.79c6.35-4.51,11.19-9,16.22-11.58a20,20,0,0,1,6.59-2.21s14.23,4.51,23.35,10.29,25.35,14.28,32,23.71c.36,6.46.9,12.76,1.34,16.52.32,2.79.59,4.76.78,6.25-7.52,6.18-9.42,6.86-16.58,7.71s-8,1.27-18.08,4-31.44,4.24-38.61,5.54a136.83,136.83,0,0,0-13.31,3.57c-6.39-7.72-4.49-17.91-4.49-17.91,6.81-1.4,11.12-6,28.93-12.81A45.43,45.43,0,0,1,469.45,332.18Z"/><path class="cls-4" d="M515.89,276.38c3.77,5.52,6.38,7.5,6.13,13.49a3.9,3.9,0,0,0-1.19,2h0c-8.12,3.54-11.11,4.28-19.07,2.54-5.89-1.29-17.1-6.81-17.1-6.81s-11.48-1-19.3.1a20,20,0,0,0-6.59,2.21c-9.52-29.5-31.2-42.18-31.2-42.18,10.1-6,27.2-10.91,43.82-16.45,15.17-5.06,33.73-6.86,50.61.44-.76-.12-15.25-2.26-15,18.59C507.27,271.67,512.12,270.86,515.89,276.38Z"/><path class="cls-3" d="M458.76,289.87c-5,2.61-9.87,7.07-16.22,11.58a65,65,0,0,1-16.94,8.79,27.43,27.43,0,0,0-8.24,4.68,16.82,16.82,0,0,0-2.29,2.27c-6.52,7.71-23,17.71-29.43,20.75s-24.33,9.34-29.54,11.4-12.16,6-16.94,8.25-16.83,3.8-26.39,11a307.57,307.57,0,0,1-28.89,18.68c-3.34,1.9-11.19,7.55-18.61,13.09h0c-12.09-4.4-13.18-15.19-13.18-15.19,8.23-6.11,20.35-17.58,29-26.83,12.21-13,21.5-16.62,30-19.88s19.38-4.88,30.13-16.77,18.25-16.94,28-23.11a110.29,110.29,0,0,0,17.27-13.71c.16-6.51,3.58-18.41,18.89-26.06,8.77-4.38,12.06-5,22.16-11.08C427.56,247.69,449.24,260.37,458.76,289.87Z"/><path class="cls-2" d="M436.24,365.29c-4.93,1.54-9,2.94-9,2.94-4.06,1.53-8.55,3.14-11.94,4.33a47,47,0,0,1-10.8,2.44l-14.93,1.31c-2.72.18-3.6.26-5-.22l-.38-.14-.55-.2-.25-.09a12.65,12.65,0,0,0-4.79-.58,2.32,2.32,0,0,1-2.31-2.31c0-.1,0-.2,0-.3a4.45,4.45,0,0,1,4.08-3.85l4.66-.14,1-1.94a4.25,4.25,0,0,1,2.52-2.16l6.81-2.23c10.86-5.64,11.52-11.94,14.12-16.29s7.39-6.08,10.86-1.95,7.39,3.91,7.39,3.91a21.79,21.79,0,0,0,4.08-.44S429.85,357.57,436.24,365.29Z"/><path class="cls-2" d="M389.56,376.31c-2.46.3-3.57.28-5-.22C386,376.57,386.84,376.49,389.56,376.31Z"/><path class="cls-2" d="M383.34,375.66a14,14,0,0,0-2.23-.43,25.27,25.27,0,0,0-2.56-.15A12.65,12.65,0,0,1,383.34,375.66Z"/><path class="cls-2" d="M219.27,429.65h-8.43a1.57,1.57,0,0,1-.81-2.91l.77-.47a2.92,2.92,0,0,0,1.41-2.51,2.92,2.92,0,0,1,.57-1.73c1.5-2.06,5.79-7.79,9.86-12.26,5.05-5.54,2.44-14.17,8.14-20.36s8.31.65,13.68,0c1.56-.19,4.27-1.78,7.63-4.28,0,0,1.09,10.79,13.18,15.19h0c-7,5.23-13.64,10.36-15.7,12.1a184.23,184.23,0,0,1-15.1,11.62c-3.24,2.14-6.43,4.13-7.92,5.06a3.64,3.64,0,0,1-1.9.54Z"/><path class="cls-5" d="M547.7,297.75q.15.19.33.39"/><path class="cls-5" d="M551.13,304.06s5.66,2.07,4.82-3.75a8.69,8.69,0,0,0-.87-1.69,8,8,0,0,0-6.5-3.77"/><path class="cls-5" d="M542.28,323.21l.41-.5c2.89-3.57,1.24-6.67,2.12-11.07s4-7,6.32-7.58"/><path class="cls-5" d="M542.28,323.21l-.27.33-.06.08,0,0s0,0,0,0"/><path class="cls-5" d="M556.78,287.87c-.94-5.44,3.61-5.65,9.86-1,7,5.18,9.65,15.74,9.65,15.74"/><path class="cls-5" d="M572.33,326.32s1,6.22,8.53,6.15,9.87-9.23,7.77-13.75c-1.49-3.24-8.76-7.11-12.88.84"/><path class="cls-5" d="M521.55,295.55a5,5,0,0,1-.72-3.72,3.9,3.9,0,0,1,1.19-2,1.36,1.36,0,0,1,.12-.12"/><line class="cls-5" x1="520.17" y1="308.96" x2="519.53" y2="308.31"/><path class="cls-5" d="M576.29,302.6a27.88,27.88,0,0,1-.63,16.93,20.26,20.26,0,0,1-2.08,4.25c-.67.86-1.35,1.67-2,2.42-8.35,9.22-17.6,10.43-28.52,9.14"/><path class="cls-5" d="M522,231.68c-16.88-7.3-35.44-5.5-50.61-.44-16.62,5.54-33.72,10.42-43.82,16.45s-13.39,6.7-22.16,11.08c-15.31,7.65-18.73,19.55-18.89,26.06a110.29,110.29,0,0,1-17.27,13.71c-9.77,6.17-17.27,11.21-28,23.11s-21.66,13.52-30.13,16.77-17.76,6.85-30,19.88c-8.68,9.25-20.8,20.72-29,26.83-3.36,2.5-6.07,4.09-7.63,4.28-5.37.65-8-6.19-13.68,0s-3.09,14.82-8.14,20.36c-4.07,4.47-8.36,10.2-9.86,12.26a2.92,2.92,0,0,0-.57,1.73,2.92,2.92,0,0,1-1.41,2.51l-.77.47a1.57,1.57,0,0,0,.81,2.91h1.86l4.23-1.47"/><path class="cls-5" d="M548.42,255.29c-3.06-5.88-8.85-14.24-21.66-21.28q-2.34-1.29-4.74-2.32"/><path class="cls-5" d="M555.19,298.54s4-4.85,2.3-8.87a10.16,10.16,0,0,1-.75-1.8,35.51,35.51,0,0,1-1.55-8.58c-.57-7.49-1.84-13.68-4.06-18.24-.64-1.33-1.44-3.33-2.71-5.75"/><polyline class="cls-5" points="212.7 429.65 219.27 429.65 222.09 428.83"/><path class="cls-5" d="M219.27,429.65h5.38a3.64,3.64,0,0,0,1.9-.54c1.49-.93,4.68-2.92,7.92-5.06a184.23,184.23,0,0,0,15.1-11.62c2.06-1.74,8.68-6.87,15.7-12.1,7.42-5.54,15.27-11.19,18.61-13.09a307.57,307.57,0,0,0,28.89-18.68c9.56-7.17,21.61-8.69,26.39-11s11.73-6.19,16.94-8.25,23.13-8.36,29.54-11.4,22.91-13,29.43-20.75a16.82,16.82,0,0,1,2.29-2.27,27.43,27.43,0,0,1,8.24-4.68"/><path class="cls-5" d="M425.6,310.24a65,65,0,0,0,16.94-8.79c6.35-4.51,11.19-9,16.22-11.58a20,20,0,0,1,6.59-2.21c7.82-1.09,19.3-.1,19.3-.1s11.21,5.52,17.1,6.81c8,1.74,11,1,19.07-2.54"/><path class="cls-5" d="M522,231.69h0c-.76-.12-15.25-2.26-15,18.59.27,21.4,5.12,20.59,8.89,26.11s6.38,7.5,6.13,13.49"/><path class="cls-5" d="M523.29,276.92s-.43,6.3-1,12.84c-.19,2-.39,3.95-.61,5.8-.25,2.21-.53,4.21-.81,5.73-.72,3.91-.57,12.26-.12,20.37.36,6.46.9,12.76,1.34,16.52.32,2.79.59,4.76.78,6.25a31.85,31.85,0,0,1,.47,6.54c-.13,3.5.67,6.06.67,8.08s-1.62,11.57-1.82,17.63,3.31,38.37,3.31,38.37.73,11.16,4.16,13.54c2.54,1.77,20.59,1.64,20.59,1.64,4.38,2,10.75,2.37,12,2.37s1.46-1.64,1.46-1.64a32.48,32.48,0,0,1-6.38-2.18c-1.82-1.1-4.92-2.55-4.92-2.55"/><path class="cls-5" d="M563.69,431h8.53A2.08,2.08,0,0,0,574,430l.48-.71s-1.81-.22-4.05-.56c-1.84-.29-4-.67-5.61-1.08-3.65-.91-5.65-1.64-5.65-1.64"/><path class="cls-5" d="M570.43,428.5h5.41a2.05,2.05,0,0,0,2.06-2.05V426s-1.76-.09-4.1-.24c-3.38-.23-8-.6-10.11-1"/><line class="cls-5" x1="547.56" y1="283.56" x2="546.35" y2="278.49"/><path class="cls-5" d="M573.8,425.79l.64-1.74s-16.07-1.22-19.6-1.88S542,421,538.55,418.5s.81-28.89,3.45-41.61,2.91-9.14,1.59-31.13c0,0-.44-4.6-.9-10.4-.28-3.71-.58-7.91-.76-11.72-.25-5-.31-9.39.08-11,1.66-6.7,5-12,6.23-17.9a20,20,0,0,0,.18-7.62l-.86-3.58"/><path class="cls-5" d="M547.56,283.57h0c.17-.58,5.19-18.31.86-28.26h0"/><path class="cls-5" d="M417.37,314.93s19,10.87,28.54,13.3,18,4.38,23.46,3.52"/><path class="cls-5" d="M497.39,337.39a40.49,40.49,0,0,0-27.94-5.21,45.43,45.43,0,0,0-8.77,2.39c-17.81,6.8-22.12,11.41-28.93,12.81a21.79,21.79,0,0,1-4.08.44s-3.91.22-7.39-3.91-8.25-2.39-10.86,1.95-3.26,10.65-14.12,16.29l-6.81,2.23a4.25,4.25,0,0,0-2.52,2.16l-1,1.94"/><path class="cls-5" d="M384.52,376.09c1.47.5,2.58.52,5,.22L404.49,375a47,47,0,0,0,10.8-2.44c3.39-1.19,7.88-2.8,11.94-4.33,0,0,4.08-1.4,9-2.94a136.83,136.83,0,0,1,13.31-3.57c7.17-1.3,28.51-2.77,38.61-5.54s10.91-3.19,18.08-4,9.06-1.53,16.58-7.71"/><path class="cls-5" d="M385,368.48l-4.66.14a4.45,4.45,0,0,0-4.08,3.85c0,.1,0,.2,0,.3a2.32,2.32,0,0,0,2.31,2.31,25.27,25.27,0,0,1,2.56.15,14,14,0,0,1,2.23.43"/><path class="cls-5" d="M465.35,287.66s14.23,4.51,23.35,10.29,25.35,14.28,32,23.71"/><path class="cls-5" d="M427.56,247.69s21.68,12.68,31.2,42.18"/><path class="cls-5" d="M431.75,347.38s-1.9,10.19,4.49,17.91h0"/><path class="cls-5" d="M252.09,385.13s1.09,10.79,13.18,15.19"/><path class="cls-5" d="M378.55,375.08a12.65,12.65,0,0,1,4.79.58l.25.09.55.2.38.14c1.44.48,2.32.4,5,.22"/></svg>