<svg id="Layer_1" data-name="Layer 1" xmlns="http://www.w3.org/2000/svg" viewBox="0 0 700 700"><defs><style>.cls-1{fill:#99abcc;}.cls-2{fill:#feae63;}.cls-3{fill:#c4e7f9;}.cls-4{fill:#392328;}.cls-5{fill:none;stroke:#000;stroke-linecap:round;stroke-linejoin:round;stroke-width:2.3px;}</style></defs><title>Yoga_poses_2020_color</title><path class="cls-1" d="M419,416.3v-.09c.36-12.84,1.49-52.71,2.25-66.75.64-11.83-1-18.21,3.9-32.27,4.22-12.2,7.08-59.23,7.76-78h0a27.51,27.51,0,0,1,19.29.49l.45,0c.32,5.69,1.18,15.43,3.42,30.72,4.09,27.86-.51,39.62-3.32,52.66s-1.28,11.5,0,24.28,17.12,70.3,14.82,96.88-23.33,27.47-44,25.31c-4.18-.51-9.23-.87-14.56-1.13v-.29a84.57,84.57,0,0,1-4.47-14.45,132.28,132.28,0,0,1-2.82-30.54l-.07-.68c7.24-.76,13.4-1.52,17.18-2.19Z"/><path class="cls-2" d="M444.74,207.58c5.92-.25,14.53.21,14.42,7.52-.16,10.32-6.22,11.5-6.66,18,0,0-.1,1.93.16,6.6l-.45,0a27.51,27.51,0,0,0-19.29-.49h0c.11-2.86.16-5.06.16-6.38,0,0,.77-6.14-3.83-8.7-3.9-2.16-10.54-5.84-15.25-8a21.35,21.35,0,0,1-3.73-2.17,24.06,24.06,0,0,0-5.81-3.18,10.67,10.67,0,0,0-4.12-.58l-5.39.23a4.57,4.57,0,0,1,2.43-5.41s8.28-4.54,20.42-2.9C425.77,203.23,433.79,208,444.74,207.58Z"/><path class="cls-2" d="M458.51,485a2.13,2.13,0,0,1,.43,3l-4.78,6.45a3.45,3.45,0,0,1-2.76,1.39H448l5.15-6.19a2,2,0,0,0,.22-2.29h.51l1.75-2a2.14,2.14,0,0,1,1.61-.74A2.11,2.11,0,0,1,458.51,485Z"/><path class="cls-2" d="M445.6,491.15h0l4.53-4.36a2.11,2.11,0,0,1,1.43-.57,2.05,2.05,0,0,1,1.57,3.36L448,495.77l-.23.28a4.54,4.54,0,0,1-2.92,1.59l-7.87.94a4.42,4.42,0,0,1-2.38-.37l-8.74-3.94a18.61,18.61,0,0,1,6.76-1.79H435a2.86,2.86,0,0,0,2.36-4.48Z"/><path class="cls-2" d="M421.3,494.72l-13.58-2.89s-5.25-.32-18.61-1.95-16.94-4.89-20.85-5.7-23.45-3.42-23.45-3.42H328.52c-17.37.43-21.63-10.7-21.63-10.7a14.58,14.58,0,0,1-1.58-4.5c-.85-5.13,2.13-8.65,4.69-11.24,0,0,7.65-5.46,18.83-2.44a34.71,34.71,0,0,1,12.88,6.9,40,40,0,0,0,11.29,5.8,75.73,75.73,0,0,0,17.26,3.33c3.66.37,7.61.7,12.17,1.22,12.22,1.39,41.05,15.55,41.05,15.55l.87.24.1,0,.14,0,4.34,1.19a5.28,5.28,0,0,0,1.89.19,11.21,11.21,0,0,1,5.16.6,2.8,2.8,0,0,1,1.34,1.05,2.86,2.86,0,0,1-2.36,4.48h-2.35a18.61,18.61,0,0,0-6.76,1.79A7.48,7.48,0,0,1,421.3,494.72Z"/><path class="cls-3" d="M409.07,468.12v.29c-16.57-.8-35.7-.56-38.8-.51A75.73,75.73,0,0,1,353,464.57a40,40,0,0,1-11.29-5.8,34.71,34.71,0,0,0-12.88-6.9c5.84-7.08,4.16-24.37,4.16-24.37,1.91-1.73,6.68-6.17,16.81-5.79,4.41.17,12.35,3.87,16.7,3.11,9.71-1.69,20.37-.94,26.21-1.49,3.11-.29,6.14-.58,9-.88l.07.68a132.28,132.28,0,0,0,2.82,30.54A84.57,84.57,0,0,0,409.07,468.12Z"/><path class="cls-2" d="M280.07,454.47a8.35,8.35,0,0,1-1.92.28c-5.77-1.14-1.93-5.78-1.93-5.78.22-2.35-1.21-6.2-5.06-8.49s-7.33-1.76-9.74-5.67c-1.22-2-7.26-10.46-7.26-10.46L256,424s8.2-3.55,13.62-3.35c4.27.16,4.94,1.5,7.64-.4l5.45-2.51,1,5.07,10,1.17c.87-.34,7.8-1.73,5.8,9.07,0,0-.2,6.52,1.14,6.67,0,0,7.2,3.89,14.48,3.53a9.17,9.17,0,0,0,6.45-3.2c3.18-3.67,9.15-10.5,11.43-12.55,0,0,1.68,17.29-4.16,24.37-11.18-3-18.83,2.44-18.83,2.44-2.56,2.59-5.54,6.11-4.69,11.24h0a28.81,28.81,0,0,0-15.69-3.06,10,10,0,0,0-3.12-3.67,35.49,35.49,0,0,0-6.36-4.19ZM276.6,426.2c.06-.63-1.06-1.23-2.5-1.35s-2.63.27-2.69.89,1.07,1.23,2.5,1.35S276.55,426.82,276.6,426.2Z"/><path class="cls-4" d="M280.11,454.64a35.49,35.49,0,0,1,6.36,4.19,10,10,0,0,1,3.12,3.67c1.75,4.26-5.61,5.55-5.61,5.55-4.36.52-10.39,1.1-13.09,1.34a63,63,0,0,1-11.37-.13c-7.17-.67-9.35-5.66-9.35-5.66-.53-.83-1-1.64-1.46-2.45a30.47,30.47,0,0,1-3.28-8.57c-2-9.62,1.8-18.23,7.34-28l1.39-.26s6,8.48,7.26,10.46c2.41,3.91,5.88,3.39,9.74,5.67s5.28,6.14,5.06,8.49c0,0-3.84,4.64,1.93,5.78a8.35,8.35,0,0,0,1.92-.28Z"/><path d="M274.1,424.85c1.44.12,2.56.72,2.5,1.35s-1.26,1-2.69.89-2.55-.72-2.5-1.35S272.67,424.72,274.1,424.85Z"/><path class="cls-4" d="M248.7,461.15c3.17,8.38-5.76,5.43-10.74,4.92s-8-5.52-3-11.2,10.26-2.25,10.26-2.25l.19,0a30.47,30.47,0,0,0,3.28,8.57Z"/><path class="cls-5" d="M276.22,449s-3.84,4.64,1.93,5.78a8.35,8.35,0,0,0,1.92-.28,8,8,0,0,0,5.68-4.86s.71-3.14-2.93-1.61"/><path class="cls-5" d="M290.28,447.47s5.33-.55,6.39-5.21"/><path class="cls-5" d="M254.16,424.35s6,8.48,7.26,10.46c2.41,3.91,5.88,3.39,9.74,5.67s5.28,6.14,5.06,8.49"/><path class="cls-5" d="M245.24,452.62S240,449.19,235,454.87s-2,10.69,3,11.2,13.91,3.46,10.74-4.92"/><path class="cls-5" d="M310,454.31c-2.56,2.59-5.54,6.11-4.69,11.24a14.58,14.58,0,0,0,1.58,4.5"/><path class="cls-5" d="M310,454.31s7.65-5.46,18.83-2.44a34.71,34.71,0,0,1,12.88,6.9"/><path class="cls-5" d="M419,416.21c.36-12.84,1.49-52.71,2.25-66.75.64-11.83-1-18.21,3.9-32.27,4.22-12.2,7.08-59.23,7.76-78,.11-2.86.16-5.06.16-6.38,0,0,.77-6.14-3.83-8.7-3.9-2.16-10.54-5.84-15.25-8a21.35,21.35,0,0,1-3.73-2.17,24.06,24.06,0,0,0-5.81-3.18,10.67,10.67,0,0,0-4.12-.58l-5.39.23a4.57,4.57,0,0,1,2.43-5.41s8.28-4.54,20.42-2.9c8,1.08,16,5.88,26.95,5.43,5.92-.25,14.53.21,14.42,7.52-.16,10.32-6.22,11.5-6.66,18,0,0-.1,1.93.16,6.6.32,5.69,1.18,15.43,3.42,30.72,4.09,27.86-.51,39.62-3.32,52.66s-1.28,11.5,0,24.28,17.12,70.3,14.82,96.88-23.33,27.47-44,25.31c-4.18-.51-9.23-.87-14.56-1.13-16.57-.8-35.7-.56-38.8-.51h-.43"/><path class="cls-5" d="M280.08,454.62l0,0a35.49,35.49,0,0,1,6.36,4.19,10,10,0,0,1,3.12,3.67c1.75,4.26-5.61,5.55-5.61,5.55-4.36.52-10.39,1.1-13.09,1.34a63,63,0,0,1-11.37-.13c-7.17-.67-9.35-5.66-9.35-5.66-.53-.83-1-1.64-1.46-2.45a30.47,30.47,0,0,1-3.28-8.57c-2-9.62,1.8-18.23,7.34-28l1.39-.26L256,424s8.2-3.55,13.62-3.35c4.27.16,4.94,1.5,7.64-.4l5.45-2.51,1,5.07,10,1.17c.87-.34,7.8-1.73,5.8,9.07,0,0-.2,6.52,1.14,6.67,0,0,7.2,3.89,14.48,3.53a9.17,9.17,0,0,0,6.45-3.2c3.18-3.67,9.15-10.5,11.43-12.55,1.91-1.73,6.68-6.17,16.81-5.79,4.41.17,12.35,3.87,16.7,3.11,9.71-1.69,20.37-.94,26.21-1.49,3.11-.29,6.14-.58,9-.88,7.24-.76,13.4-1.52,17.18-2.19l.11-4"/><path class="cls-5" d="M328.83,451.87c5.84-7.08,4.16-24.37,4.16-24.37"/><path class="cls-5" d="M432.92,239.22a27.51,27.51,0,0,1,19.29.49"/><path class="cls-5" d="M409.07,468.12a84.57,84.57,0,0,1-4.47-14.45,132.28,132.28,0,0,1-2.82-30.54"/><path class="cls-5" d="M289.59,462.5a28.81,28.81,0,0,1,15.69,3.06"/><path class="cls-5" d="M424.35,484.91l-.87-.24s-28.83-14.16-41.05-15.55c-4.56-.52-8.51-.85-12.17-1.22A75.73,75.73,0,0,1,353,464.57a40,40,0,0,1-11.29-5.8"/><path class="cls-5" d="M306.89,470.05s4.26,11.13,21.63,10.7h16.29s19.54,2.6,23.45,3.42,7.5,4.07,20.85,5.7,18.61,1.95,18.61,1.95l13.58,2.89a7.48,7.48,0,0,0,4.55-.45,18.61,18.61,0,0,1,6.76-1.79H435a2.86,2.86,0,0,0,2.36-4.48A2.8,2.8,0,0,0,436,487a11.21,11.21,0,0,0-5.16-.6,5.28,5.28,0,0,1-1.89-.19L424.59,485l-.14,0"/><line class="cls-5" x1="445.6" y1="491.15" x2="443.03" y2="493.62"/><path class="cls-5" d="M425.85,494.27l8.74,3.94a4.42,4.42,0,0,0,2.38.37l7.87-.94a4.54,4.54,0,0,0,2.92-1.59l.23-.28,5.15-6.19a2,2,0,0,0,.22-2.29,2,2,0,0,0-1.79-1.07,2.11,2.11,0,0,0-1.43.57l-4.53,4.36"/><path class="cls-5" d="M448,495.77h3.41a3.45,3.45,0,0,0,2.76-1.39l4.78-6.45a2.13,2.13,0,0,0-3.32-2.66l-1.75,2"/><polyline class="cls-5" points="437.32 488 445.6 491.15 445.61 491.15"/><path class="cls-5" d="M418.11,488.33s-1.44,5,3.19,6.39"/><path class="cls-5" d="M424.59,485l-.14,0-.1,0a5.12,5.12,0,0,0-3.6.83"/><polyline class="cls-5" points="419 416.21 419 416.3 419 429.45"/></svg>