<svg id="Layer_1" data-name="Layer 1" xmlns="http://www.w3.org/2000/svg" viewBox="0 0 700 700"><defs><style>.cls-1{fill:#feae63;}.cls-2{fill:#392328;}.cls-3{fill:#231f20;}.cls-4{fill:#99abcc;}.cls-5{fill:#c4e7f9;}.cls-6{fill:none;stroke:#000;stroke-linecap:round;stroke-linejoin:round;stroke-width:2.3px;}</style></defs><title>Yoga_poses_2020_color</title><path class="cls-1" d="M587.49,412.14a1.88,1.88,0,0,1-.3,3.73l-2.59.07v0a1.31,1.31,0,0,0-.91-1.25l-14.23-4.54.34-1.88C574.34,409.3,583,411.31,587.49,412.14Z"/><path class="cls-1" d="M494.31,327.23a29.18,29.18,0,0,1,2.2,9.1c.47,5.88-.6,13.47-5.6,22.32,0,0-1.3,2.17-1.3,11.29s1.08,28.24,1.08,28.24a52.49,52.49,0,0,1,10.68,1.44A50.83,50.83,0,0,0,512.89,401h33.59a9.34,9.34,0,0,1,3,.51l17.36,6,2.91.69-.34,1.88,14.23,4.54a1.31,1.31,0,0,1,.91,1.25v0a1.31,1.31,0,0,1-1.48,1.26L566,414.94l2.46,1.55a1.76,1.76,0,0,1,.82,1.47,1.53,1.53,0,0,1,0,.3,1.75,1.75,0,0,1-2.38,1.31l-10.42-4.32-12.4-.81a4.61,4.61,0,0,1-2.37-.86,4.63,4.63,0,0,0-3.3-.82c-7,1-25.54,2.43-25.54,2.43l-.11.2c-9.12-4.13-21-9.53-22.92-11.08s-7.19-4.54-10.62-15.69c-2-6.44-3.4-15.63-3.35-28.91.11-25.39-2.7-35.42-4.45-43.43,0,0,12.33-.91,18.2,2a8.45,8.45,0,0,1,4.71,8.91Z"/><path class="cls-2" d="M550.71,295.38c13.27,10.65,12.64,22.48,9.76,37.23l-1.23.69a25.58,25.58,0,0,1-9.06-6.37,4.42,4.42,0,0,0-2.49-1.33c-8.14-1.45-10.53-7.18-10.66-7.28l-.1,0c-.2-.9-.91-1.7-2.66-2l-1.93-1.73a7.34,7.34,0,0,0-1.6-1.1c-2.93-1.48-5.43-1.21-8.36-.94a20,20,0,0,1-6-.45,2.61,2.61,0,0,1-1.85-3.45c.07-.18.13-.36.21-.53a27.47,27.47,0,0,1,6.58-9.09s6.62-5.8,14.84-7.25a18.79,18.79,0,0,1,7.5.1h0A17.21,17.21,0,0,1,550.71,295.38Z"/><path class="cls-1" d="M536.93,318.34l.1,0c.13.1,2.52,5.83,10.66,7.28a4.42,4.42,0,0,1,2.49,1.33,25.58,25.58,0,0,0,9.06,6.37l-1.6.91s-6.54,5.9-11.67,7.39c-4,1.19-5.08.12-7,2.76l-4.3,4L532.17,344l-9.72,2c-.7.62-6.77,4.09-8.25-6.64,0,0-1-7.11-16.38-3.12l-1.31.09a29.18,29.18,0,0,0-2.2-9.1h0a8.45,8.45,0,0,0-4.71-8.91c-5.87-2.95-18.2-2-18.2-2a48.71,48.71,0,0,1-1.35-10.1,62.27,62.27,0,0,0-.75-9.16l9.18,3.74A14.42,14.42,0,0,1,481,302.1l12.59,8.28c10.55,5.2,21.07-2.22,21.07-2.22-.08.17-.14.35-.21.53a2.61,2.61,0,0,0,1.85,3.45,20,20,0,0,0,6,.45c2.93-.27,5.43-.54,8.36.94a7.34,7.34,0,0,1,1.6,1.1l1.93,1.73C536,316.64,536.73,317.44,536.93,318.34Zm3.54,20.74c1.37-.33,2.37-1.08,2.23-1.68s-1.38-.81-2.76-.48-2.37,1.09-2.23,1.68S539.09,339.41,540.47,339.08Z"/><path class="cls-2" d="M550.11,280.18c2.24,2.77,2.47,11.54-6.48,11.74h0a18.79,18.79,0,0,0-7.5-.1l0-.37s-5.16-3.6-1.76-10.36S547,276.3,550.11,280.18Z"/><path class="cls-3" d="M542.7,337.4c.14.6-.86,1.35-2.23,1.68s-2.62.12-2.76-.48.86-1.35,2.23-1.68S542.56,336.8,542.7,337.4Z"/><path class="cls-1" d="M523.76,422a2.54,2.54,0,0,1-2.32,2.53c-6.84.55-29.37-1.4-45.3-2.18-4.09-.21-7.74-.21-10.59-.16a6.13,6.13,0,0,1-6.25-6c-.05-2.69-.1-5.38-.1-6.09a14.48,14.48,0,0,1,.5-2.62,41.23,41.23,0,0,0,1-16h0a40.46,40.46,0,0,0,17.74-2.61l.74-.24c3.43,11.15,8.55,14,10.62,15.69s13.8,6.95,22.92,11.08c4.15,1.88,7.73,3.49,9.56,4.36A2.53,2.53,0,0,1,523.76,422Z"/><path class="cls-4" d="M446.12,320.35l-.67-.14a196.31,196.31,0,0,0-30.56,19A90,90,0,0,1,402.78,347c.05.31.9,5.62,0,8.49l0,.76c-7.34.3-10.23,1.59-19.06,4.88q-8.65,3.21-14.27,5.4a86,86,0,0,0-16.39,8.34c-28.86,19-72.18,24.81-80.39,26a62.74,62.74,0,0,1-16.94,0c-17.6-3.26-24.76,0-42.36-2.61a322.35,322.35,0,0,0-33.21-2.64c-1.95-14.05,2.24-19.77,2.24-19.77C197,374.71,214,371.92,221.55,371c10.42-1.3,26.06,2.66,26.06,2.66,28.24-.39,46.13-16.08,56.65-21.27,18.56-9.17,29.84-12.73,29.84-12.73l.38-.07c-1.68-9.38,2.37-19.83,13.95-29.34a42.18,42.18,0,0,1,11.83-6.56c.42.08,11,2.14,17.6,5.72a265.79,265.79,0,0,0,25.34-11.48c15.07-8.1,46.44-17.14,46.44-17.14C463,279,467.72,287.42,469.31,297a62.27,62.27,0,0,1,.75,9.16,48.71,48.71,0,0,0,1.35,10.1c1.75,8,4.56,18,4.45,43.43-.05,13.28,1.37,22.47,3.35,28.91l-.74.24a40.46,40.46,0,0,1-17.74,2.61h0c0-.2,0-.4-.08-.6-1.54-9.9-5.16-19.79-8.45-29.48-2.81-8.28-5.39-16.42-6.23-24.29S445.43,324,446.12,320.35Z"/><path class="cls-5" d="M452.18,361.39c-3.74.75-8.72-1.69-10-2.56a10.41,10.41,0,0,0-5.68-1.92c-18.37-.53-27.6-1-33.73-.71l0-.76c.9-2.87.05-8.18,0-8.49a90,90,0,0,0,12.11-7.71,196.31,196.31,0,0,1,30.56-19l.67.14c-.69,3.64-1,9-.17,16.75S449.37,353.11,452.18,361.39Z"/><path class="cls-5" d="M360.26,303.67c18.54-7,42.94-5.76,42.94-5.76a265.79,265.79,0,0,1-25.34,11.48C371.3,305.81,360.68,303.75,360.26,303.67Z"/><path class="cls-1" d="M182.43,375.83s-4.19,5.72-2.24,19.77c-5.13-.19-8.5-.22-8.5-.22-12.88.73-33.42-1.18-40.91-2.37a28,28,0,0,0-11.1.58,24.89,24.89,0,0,1-6.13.79,3.6,3.6,0,0,1-.88-7.08l3.41-.87a11.88,11.88,0,0,1,3.2-3.21,10.84,10.84,0,0,1,8.43-1.38,30.67,30.67,0,0,0,5.64.8,11.6,11.6,0,0,0,10.93-6.52,23.39,23.39,0,0,1,7.17-8.08,6.66,6.66,0,0,1,8.7.62l6.73,6.73a2.92,2.92,0,0,0,1.94.86A123.93,123.93,0,0,0,182.43,375.83Z"/><path class="cls-6" d="M449.43,313s-2.17,1.41-3.3,7.35h0c-.69,3.64-1,9-.17,16.75s3.42,16,6.23,24.29c3.29,9.69,6.91,19.58,8.45,29.48,0,.2.06.4.08.6a41.23,41.23,0,0,1-1,16,14.48,14.48,0,0,0-.5,2.62c0,.71.05,3.4.1,6.09a6.13,6.13,0,0,0,6.25,6c2.85-.05,6.5-.05,10.59.16,15.93.78,38.46,2.73,45.3,2.18a2.54,2.54,0,0,0,.87-4.82c-1.83-.87-5.41-2.48-9.56-4.36-9.12-4.13-21-9.53-22.92-11.08s-7.19-4.54-10.62-15.69c-2-6.44-3.4-15.63-3.35-28.91.11-25.39-2.7-35.42-4.45-43.43a48.71,48.71,0,0,1-1.35-10.1,62.27,62.27,0,0,0-.75-9.16c-1.59-9.6-6.3-18.07-19.67-16.25,0,0-31.37,9-46.44,17.14a265.79,265.79,0,0,1-25.34,11.48c-6.41,2.63-12,4.94-15.93,7.27"/><path class="cls-6" d="M519.74,327.23s-4.66,2.65-3.76,7.34"/><path class="cls-6" d="M536.14,321.68a5.36,5.36,0,0,0,.79-3.34c-.2-.9-.91-1.7-2.66-2-.24,0-.49-.06-.77-.08,0,0-5.41.7-6.75,6,0,0-.28,3.16,3.07,1.2"/><path class="cls-6" d="M559.25,333.31h0a25.58,25.58,0,0,1-9.06-6.37,4.42,4.42,0,0,0-2.49-1.33c-8.14-1.45-10.53-7.18-10.66-7.28"/><path class="cls-6" d="M514.7,308.16s-10.52,7.42-21.07,2.22L481,302.1a14.42,14.42,0,0,0-2.55-1.34L469.31,297"/><path class="cls-6" d="M543.63,291.92a17.21,17.21,0,0,1,7.08,3.46c13.27,10.65,12.64,22.48,9.76,37.23l-1.23.69-1.6.91s-6.54,5.9-11.67,7.39c-4,1.19-5.08.12-7,2.76l-4.3,4L532.17,344l-9.72,2c-.7.62-6.77,4.09-8.25-6.64,0,0-1-7.11-16.38-3.12"/><path class="cls-6" d="M534.28,316.37h0l-1.93-1.73a7.34,7.34,0,0,0-1.6-1.1c-2.93-1.48-5.43-1.21-8.36-.94a20,20,0,0,1-6-.45,2.61,2.61,0,0,1-1.85-3.45c.07-.18.13-.36.21-.53a27.47,27.47,0,0,1,6.58-9.09s6.62-5.8,14.84-7.25a18.79,18.79,0,0,1,7.5.1"/><path class="cls-6" d="M536.1,291.45s-5.16-3.6-1.76-10.36,12.63-4.79,15.77-.91c2.24,2.77,2.47,11.54-6.48,11.74h0"/><path class="cls-6" d="M584.6,415.94l2.59-.07a1.88,1.88,0,0,0,.3-3.73c-4.46-.83-13.15-2.84-17.69-3.91l-2.91-.69-17.36-6a9.34,9.34,0,0,0-3-.51H512.89a50.83,50.83,0,0,1-11.52-1.38,52.49,52.49,0,0,0-10.68-1.44s-1.08-19.12-1.08-28.24,1.3-11.29,1.3-11.29c5-8.85,6.07-16.44,5.6-22.32a29.18,29.18,0,0,0-2.2-9.1A20,20,0,0,0,492,323"/><path class="cls-6" d="M512.86,415.19s18.57-1.47,25.54-2.43a4.63,4.63,0,0,1,3.3.82,4.61,4.61,0,0,0,2.37.86l12.4.81,10.42,4.32a1.75,1.75,0,0,0,2.38-1.31,1.53,1.53,0,0,0,0-.3,1.76,1.76,0,0,0-.82-1.47L566,414.94l-5.84-3.68"/><path class="cls-6" d="M566,414.94l17.1,2.26a1.31,1.31,0,0,0,1.48-1.26v0a1.31,1.31,0,0,0-.91-1.25l-14.23-4.54"/><path class="cls-6" d="M445.45,320.21a196.31,196.31,0,0,0-30.56,19A90,90,0,0,1,402.78,347a205.73,205.73,0,0,1-27.85,12.13"/><path class="cls-6" d="M403.2,297.91s-24.4-1.28-42.94,5.76a42.18,42.18,0,0,0-11.83,6.56c-11.58,9.51-15.63,20-13.95,29.34a26.42,26.42,0,0,0,6.57,13"/><path class="cls-6" d="M334.1,339.64s-11.28,3.56-29.84,12.73c-10.52,5.19-28.41,20.88-56.65,21.27,0,0-15.64-4-26.06-2.66-7.58.94-24.57,3.73-39.12,4.85a123.93,123.93,0,0,1-13.61.42,2.92,2.92,0,0,1-1.94-.86l-6.73-6.73a6.66,6.66,0,0,0-8.7-.62,23.39,23.39,0,0,0-7.17,8.08,11.6,11.6,0,0,1-10.93,6.52,30.67,30.67,0,0,1-5.64-.8,10.84,10.84,0,0,0-8.43,1.38,11.88,11.88,0,0,0-3.2,3.21l-3.41.87a3.59,3.59,0,0,0,.88,7.08,24.89,24.89,0,0,0,6.13-.79,28,28,0,0,1,11.1-.58c7.49,1.19,28,3.1,40.91,2.37,0,0,3.37,0,8.5.22a322.35,322.35,0,0,1,33.21,2.64c17.6,2.61,24.76-.65,42.36,2.61a62.74,62.74,0,0,0,16.94,0c8.21-1.22,51.53-7.06,80.39-26a86,86,0,0,1,16.39-8.34q5.63-2.18,14.27-5.4c8.83-3.29,11.72-4.58,19.06-4.88,6.13-.26,15.36.18,33.73.71a10.41,10.41,0,0,1,5.68,1.92c1.24.87,6.22,3.31,10,2.56"/><path class="cls-6" d="M360.25,303.67h0c.42.08,11,2.14,17.6,5.72"/><path class="cls-6" d="M494.32,327.23a8.45,8.45,0,0,0-4.71-8.91c-5.87-2.95-18.2-2-18.2-2"/><path class="cls-6" d="M460.73,391.47a40.46,40.46,0,0,0,17.74-2.61"/><path class="cls-6" d="M182.43,375.83s-4.19,5.72-2.24,19.77"/><path class="cls-6" d="M402.78,346.94h0c.05.31.9,5.62,0,8.49"/></svg>