<svg id="Layer_1" data-name="Layer 1" xmlns="http://www.w3.org/2000/svg" viewBox="0 0 700 700"><defs><style>.cls-1{fill:#392328;}.cls-2{fill:#feae63;}.cls-3{fill:#231f20;}.cls-4{fill:#c4e7f9;}.cls-5{fill:#99abcc;}.cls-6{fill:none;stroke:#000;stroke-linecap:round;stroke-linejoin:round;stroke-width:2.3px;}</style></defs><title>Yoga_poses_2020_color</title><path class="cls-1" d="M564.43,310.06l-.65,1.24a25.66,25.66,0,0,1-11.07-.43,4.51,4.51,0,0,0-2.83.22c-7.62,3.21-12.73-.31-12.9-.33l-.07.08c-.65-.65-1.68-.94-3.29-.23l-2.57-.4a7.27,7.27,0,0,0-2,0c-3.21.36-5.16,1.93-7.46,3.73a19.69,19.69,0,0,1-5.32,2.9,2.6,2.6,0,0,1-3.41-1.9c0-.19-.08-.37-.11-.56a27.41,27.41,0,0,1,.59-11.21s2.43-8.49,8.57-14.16a19,19,0,0,1,6.32-4h0a17.35,17.35,0,0,1,7.83-.93C553,285.82,558.84,296.11,564.43,310.06Z"/><path class="cls-2" d="M533.62,310.61c1.61-.71,2.64-.42,3.29.23l.07-.08c.17,0,5.28,3.54,12.9.33a4.51,4.51,0,0,1,2.83-.22,25.66,25.66,0,0,0,11.07.43l-.86,1.63s-2.3,8.51-5.8,12.54c-2.73,3.18-4.2,2.86-4.37,6.11l-1.42,5.72L546.82,335l-7.08,6.95c-.24.91-3.46,7.12-10.52-1.1,0,0-3.37-4.47-10.78,3.88a53,53,0,0,1-10.57,7.22,9.81,9.81,0,0,0-3.1,2.43l-2.22-.38a10.36,10.36,0,0,0,1.66-7.23,8.43,8.43,0,0,0-4.08-5.82s-3.71-11-19.26-10.26v0a60.39,60.39,0,0,1,15.35-3c11.69-1.36,16.5-13.3,16.5-13.3h0c0,.19.07.37.11.56a2.6,2.6,0,0,0,3.41,1.9,19.69,19.69,0,0,0,5.32-2.9c2.3-1.8,4.25-3.37,7.46-3.73a7.27,7.27,0,0,1,2,0Zm17.51,15.73c1-1,1.41-2.2,1-2.62s-1.6.06-2.58,1.09-1.41,2.2-1,2.62S550.15,327.37,551.13,326.34Z"/><path class="cls-3" d="M552.1,323.72c.44.42,0,1.6-1,2.62s-2.13,1.52-2.57,1.09,0-1.59,1-2.62S551.65,323.29,552.1,323.72Z"/><path class="cls-1" d="M527.29,271.62c3.39,1.11,8.33,8.36.92,13.38h0a19,19,0,0,0-6.32,4l-.25-.27s-6.29-.23-7.09-7.75S522.55,270.07,527.29,271.62Z"/><path class="cls-2" d="M357.24,373l-5.31-.36a2.47,2.47,0,0,1-1.37-.54,2.38,2.38,0,0,1-.77-1.07,2.44,2.44,0,0,0-2.17-1.62l-2-.1-20.74-1.06a1.37,1.37,0,0,1,0-2.73l25.85-1.24,19.33-4s33.23-6.62,40.18-7.06,24.19-2.08,24.19-2.08,15.77-2.13,27.72-11.25a71.94,71.94,0,0,1,18.67-9.21v0c15.55-.7,19.26,10.26,19.26,10.26a8.43,8.43,0,0,1,4.08,5.82,10.36,10.36,0,0,1-1.66,7.23l2.22.38a9.06,9.06,0,0,0-1.29,2c-2.24,4.72-3.81,9.15-5.34,13.35l-.3-.11s-14.37,15.95-36.52-4.46l-.38-1.24c-12.07,3.63-29.09,9-34.48,9.49-1,.08-2.24.12-3.59.13-8.94,0-23.95-1.47-31.6-1.76-.94,0-1.9-.09-2.89-.16-5.77-.39-12.08-1.26-15.36-1.76a5.73,5.73,0,0,0-4.17,1l-2.08,1.49a5.72,5.72,0,0,1-3.71,1.05l-1.44-.1-1.85-.12Z"/><path class="cls-4" d="M497.84,369.58l.3.11c-3.05,8.39-5.94,15.87-13.69,23-12.49,11.51-22.92,17.38-30.95,19.55-5.7,1.54-21.43,8.43-39.16,12.3,0,0-5.54-11.5-7.92-19.25-3.53-11.51-2.39-26.45-2.39-26.45l.09-1.13a34.92,34.92,0,0,0,18.75-4.22c1.35,0,2.57-.05,3.59-.13,5.39-.45,22.41-5.86,34.48-9.49l.38,1.24C483.47,385.53,497.84,369.58,497.84,369.58Z"/><path class="cls-5" d="M406.42,405.3c2.38,7.75,7.92,19.25,7.92,19.25A105.31,105.31,0,0,1,392,427.24c-25.41,0-49.95,3-75.36-6.3s-27.37-9.78-35.62-13.69-11.3-4.56-16.73-10.64-7.38-6.95-31.49-16.51C217.37,374,206.37,369.28,197,366.65h0c-.45-12.6,5.65-17.64,5.65-17.64,2,.21,4.05.38,6.31.48,0,0,28.67-1.3,51.26,12.81s25.62,14.56,42.13,16.08,32.8,4.2,45.39,3.4c0,0,10.41-8.74,13.9-8.5h0l1.44.1a5.72,5.72,0,0,0,3.71-1.05l2.08-1.49a5.73,5.73,0,0,1,4.17-1c3.28.5,9.59,1.37,15.36,1.76l0,.56a31.08,31.08,0,0,0,15.78,5.58l-.09,1.13S402.89,393.79,406.42,405.3Z"/><path class="cls-2" d="M349.79,371a2.38,2.38,0,0,0,.77,1.07s-4.25,2.93-7.83,2.93h-3.08a1.16,1.16,0,0,1-1.16-1.16v0a1.17,1.17,0,0,1,1-1.14c1.73-.33,5.32-1.26,6.21-3.4l2,.1A2.44,2.44,0,0,1,349.79,371Z"/><path class="cls-2" d="M197,366.64h0a57.08,57.08,0,0,0-14.76-2.4c-13.25-.22-30.66,4-37,7.3-1.33.65-3,2.48-4.92,4.95a2.39,2.39,0,0,1-4-1.25c-1-5.15-1.56-13.67,4.67-17.38,9.25-5.49,12.81-3.74,19.45-12.34,7.32-9.48,12.38-13,18.46-4.57,0,0,5.39,6.07,23.75,8C202.63,349,196.53,354,197,366.64Z"/><path class="cls-6" d="M527.29,327.63s-2.48,4.75.82,8.2"/><path class="cls-6" d="M538.06,314.06a5.37,5.37,0,0,0-1.15-3.22c-.65-.65-1.68-.94-3.29-.23-.22.1-.46.22-.71.36,0,0-4.16,3.52-2.41,8.7,0,0,1.48,2.82,3.23-.66"/><path class="cls-6" d="M563.78,311.3a25.66,25.66,0,0,1-11.07-.43,4.51,4.51,0,0,0-2.83.22c-7.62,3.21-12.73-.31-12.9-.33"/><path class="cls-6" d="M521.63,288.69s-6.29-.23-7.09-7.75,8-10.87,12.75-9.32c3.39,1.11,8.33,8.36.92,13.38"/><path class="cls-6" d="M484.45,360.67a39.72,39.72,0,0,0-11.73,0c-1.92.3-6.35,1.58-11.78,3.21-12.07,3.63-29.09,9-34.48,9.49-1,.08-2.24.12-3.59.13-8.94,0-23.95-1.47-31.6-1.76-.94,0-1.9-.09-2.89-.16-5.77-.39-12.08-1.26-15.36-1.76a5.73,5.73,0,0,0-4.17,1l-2.08,1.49a5.72,5.72,0,0,1-3.71,1.05l-1.44-.1-1.85-.12-2.53-.17-5.31-.36a2.47,2.47,0,0,1-1.37-.54,2.38,2.38,0,0,1-.77-1.07,2.44,2.44,0,0,0-2.17-1.62l-2-.1-20.74-1.06a1.37,1.37,0,0,1,0-2.73l25.85-1.24,19.33-4s33.23-6.62,40.18-7.06,24.19-2.08,24.19-2.08,15.77-2.13,27.72-11.25a71.94,71.94,0,0,1,18.67-9.21,60.39,60.39,0,0,1,15.35-3c11.69-1.36,16.5-13.3,16.5-13.3"/><path class="cls-6" d="M145.26,371.55c6.3-3.26,23.71-7.52,37-7.3a57.08,57.08,0,0,1,14.76,2.4c9.39,2.63,20.39,7.33,35.85,13.45,24.11,9.56,26.06,10.43,31.49,16.51s8.47,6.73,16.73,10.64,10.2,4.35,35.62,13.69,49.95,6.3,75.36,6.3a105.31,105.31,0,0,0,22.31-2.69c17.73-3.87,33.46-10.76,39.16-12.3,8-2.17,18.46-8,30.95-19.55,7.75-7.14,10.64-14.62,13.69-23,1.53-4.2,3.1-8.63,5.34-13.35a9.06,9.06,0,0,1,1.29-2,9.81,9.81,0,0,1,3.1-2.43,53,53,0,0,0,10.57-7.22c7.41-8.35,10.78-3.88,10.78-3.88,7.06,8.22,10.28,2,10.52,1.1l7.08-6.95,4.51,2.33,1.42-5.72c.17-3.25,1.64-2.93,4.37-6.11,3.5-4,5.8-12.54,5.8-12.54l.86-1.63.65-1.24c-5.59-13.95-11.47-24.24-28.39-26a17.35,17.35,0,0,0-7.83.93h0a19,19,0,0,0-6.32,4c-6.14,5.67-8.57,14.16-8.57,14.16a27.41,27.41,0,0,0-.59,11.21c0,.19.07.37.11.56a2.6,2.6,0,0,0,3.41,1.9,19.69,19.69,0,0,0,5.32-2.9c2.3-1.8,4.25-3.37,7.46-3.73a7.27,7.27,0,0,1,2,0l2.57.4"/><path class="cls-6" d="M145.26,371.55c-1.33.65-3,2.48-4.92,4.95a2.39,2.39,0,0,1-4-1.25c-1-5.15-1.56-13.67,4.67-17.38,9.25-5.49,12.81-3.74,19.45-12.34,7.32-9.48,12.38-13,18.46-4.57,0,0,5.39,6.07,23.75,8,2,.21,4.05.38,6.31.48,0,0,28.67-1.3,51.26,12.81s25.62,14.56,42.13,16.08,32.8,4.2,45.39,3.4c0,0,10.41-8.74,13.9-8.5"/><path class="cls-6" d="M350.56,372.07s-4.25,2.93-7.83,2.93h-3.08a1.16,1.16,0,0,1-1.16-1.16v0a1.17,1.17,0,0,1,1-1.14c1.73-.33,5.32-1.26,6.21-3.4"/><path class="cls-6" d="M364.23,365.12s-4.89.54-7,1.95a5.91,5.91,0,0,1-3.94.4,1.83,1.83,0,0,0-1.84.55,1.88,1.88,0,0,0-.49,1.28,1.83,1.83,0,0,0,.53,1.31c.89.91,2.57,1.95,5.7,2.36.76.09,1.6.15,2.53.17"/><path class="cls-6" d="M202.63,349s-6.1,5-5.65,17.64"/><path class="cls-6" d="M422.87,373.5a34.92,34.92,0,0,1-18.75,4.22,31.08,31.08,0,0,1-15.78-5.58"/><path class="cls-6" d="M414.34,424.55s-5.54-11.5-7.92-19.25c-3.53-11.51-2.39-26.45-2.39-26.45"/><path class="cls-6" d="M497.84,369.58s-14.37,15.95-36.52-4.46"/><path class="cls-6" d="M496.64,360.21a23.17,23.17,0,0,0,5.91-6.24,10.36,10.36,0,0,0,1.66-7.23,8.43,8.43,0,0,0-4.08-5.82,16.25,16.25,0,0,0-6.78-2.18"/><path class="cls-6" d="M500.13,340.92s-3.71-11-19.26-10.26"/></svg>