<svg id="Layer_1" data-name="Layer 1" xmlns="http://www.w3.org/2000/svg" viewBox="0 0 700 700"><defs><style>.cls-1{fill:#99abcc;}.cls-2{fill:#feae63;}.cls-3{fill:#c4e7f9;}.cls-4{fill:#120c0c;}.cls-5{fill:none;stroke:#000;stroke-linecap:round;stroke-linejoin:round;stroke-width:2.3px;}</style></defs><title>Yoga_poses_2020_color</title><path class="cls-1" d="M392.12,440.85l.53-1.05c4.41-1.67,10.38-1.28,10.38-1.28l7,1.3a2.31,2.31,0,0,0,.37,0,1.94,1.94,0,0,0,.8-.17l.09.18s6.3,1.27,17.38,10.17,8.25,16,6.51,20.2c-1.16,2.85-3.9,7.31-6.12,8.47-3.7,1.94-16.68,1.94-24.24-.43-4.81-1.51-6.34-1.3-22.41-7.6-1.45-.57-3-1.22-4.61-1.94-6.49-2.89-14.08-6.85-21.1-10.71-3.1-1.7-6.09-3.39-8.83-4.95-2.53-11.61,7.26-18,7.81-18.32h0l4.63.53c5.15.58,11.12,1.18,17.53,1.72A39.94,39.94,0,0,1,392.12,440.85Z"/><path class="cls-2" d="M404.67,368.73l-.27-1s-6.72-19.54-11.2-29.09-6.79-2.6-6.79-2.6l-.16,0a68.36,68.36,0,0,1-1.51-9.67,183.24,183.24,0,0,1-.44-22.73l.13-.53c2,.52,4.06,1,5.95,1.28,0,0,9.68.72,14.43,11.28s10.28,22.18,14.05,31.16c4.8,11.44,9.3,26,8,33.11s-2.94,4.52-14.32,6.86A226.11,226.11,0,0,1,387.63,390c-10.59.82-21.17,1.15-26.85.61-10.2-1-8.12-15.75-8.63-26.13-.11-2.29-.12-4.94-.07-7.65.12-7.08.62-14.62.66-17.34a1.16,1.16,0,0,1,1.1-1.14h.06a1.15,1.15,0,0,1,1.15,1.07c.32,4.44,3.05,20.56,3.75,23.06.62,2.19,1.39,10.25,1.73,14.07a2.16,2.16,0,0,0,2.24,2A140.68,140.68,0,0,0,377.88,377a66.43,66.43,0,0,0,9.15-2.45C392.77,372.67,399.39,370.25,404.67,368.73Z"/><path class="cls-2" d="M403,438.52s-6-.39-10.38,1.28l-.53,1.05A39.94,39.94,0,0,0,377.84,437c-6.41-.54-12.38-1.14-17.53-1.72l.15-1.32s2.82-8.9,8.91-7.82,10.85,5.65,15.63,4.35c2.74-.75,6.4-2.85,10.09-3.61,2.75-.57,5.53-.39,7.94,1.65l3.26,3.26s5.21,1.3,6.08,6.08a2,2,0,0,1-1.18,1.81,1.94,1.94,0,0,1-.8.17,2.31,2.31,0,0,1-.37,0Z"/><path class="cls-1" d="M355.68,434.75h0a121.9,121.9,0,0,1-13.24-2.09c-2.82-.87-3.69-4.56-3.69-8s-4.34-9.55-13.47-6.51c-7.4,2.46-10.37,6.8-17.38,7.64l-.06-.49a104.9,104.9,0,0,1,3-15.08c.36-1.28.95-3.26,1.62-5.48,25.12,4.51,79.64,1.57,79.64,1.57,2.93,8.14,2.93,20.2,2.93,20.2l.1.41c-3.69.76-7.35,2.86-10.09,3.61-4.78,1.3-9.55-3.26-15.63-4.35s-8.91,7.82-8.91,7.82l-.15,1.32Z"/><path class="cls-2" d="M393.2,338.69s-.87,1.06-2.79,5.74c-1.89-1.38-3.23-4.44-4.16-8.3l.16,0S388.71,329.13,393.2,338.69Z"/><path class="cls-3" d="M387.64,390.09a117.33,117.33,0,0,0,4.42,16.18s-54.52,2.94-79.64-1.57c1.84-6.09,4.3-14.05,4.56-14.87,10.5.57,20.94.66,26.55.47,10.48-.37,6.85-13.76,7.7-26,.16-2.25.23-4.85.26-7.5h.59c-.05,2.71,0,5.36.07,7.65.51,10.38-1.57,25.14,8.63,26.13,5.68.54,16.26.21,26.85-.61Z"/><path class="cls-3" d="M390.41,344.43c-.55,1.36-1.19,3-1.93,5.09C385.22,358.58,387,374,387,374l.07.53a66.43,66.43,0,0,1-9.15,2.45,140.68,140.68,0,0,1-15.11,1.51,2.16,2.16,0,0,1-2.24-2c-.34-3.82-1.11-11.88-1.73-14.07-.7-2.5-3.43-18.62-3.75-23.06a1.15,1.15,0,0,0-1.15-1.07h-.06a1.16,1.16,0,0,0-1.1,1.14c0,2.72-.54,10.26-.66,17.34h-.59c.08-7.07-.19-14.6-.23-17.34a1.16,1.16,0,0,0-1.1-1.14h-.06a1.16,1.16,0,0,0-1.16,1.07c-.32,4.44-3.05,20.56-3.75,23.06-.61,2.19-1.39,10.25-1.73,14.07a2.14,2.14,0,0,1-2.23,2A140.82,140.82,0,0,1,326.11,377a63.35,63.35,0,0,1-8.63-2.28l.16-.51s1.14-15.6-2.12-24.66c-.74-2-1.38-3.73-1.94-5.09,1.9-1.38,3.23-4.44,4.17-8.3a69.61,69.61,0,0,0,1.51-9.64h.09c16.3,8.67,44.18,10.34,64.76,0l.63,0a68.36,68.36,0,0,0,1.51,9.67C387.18,340,388.52,343.05,390.41,344.43Z"/><path class="cls-2" d="M384.74,326.46l-.63,0c-20.58,10.34-48.46,8.67-64.76,0h-.09a181.51,181.51,0,0,0,.44-22.76l-.13-.53c7.22-1.82,14.64-4.56,16.81-5.79,3.74-2.12,3-8.28,2.73-14.62l.59-.19c2.61,2.07,6.7,3.81,13.07,3.69,0,0,7,0,11.84-3.92l.27.42c-.24,6.34-1,12.5,2.73,14.62,2.18,1.23,9.6,4,16.82,5.79l-.13.53A183.24,183.24,0,0,0,384.74,326.46Z"/><path class="cls-2" d="M375,258.36s.31,5-2.16,8.13c0,0-1.54,1.41-1-2.26l-.32-.05c.05-.32.08-.64.11-.94l.36-5.88.32,0C373,256.31,374.36,254.65,375,258.36Z"/><path class="cls-1" d="M377.79,468.73s-2.69.49-11.3,0a45.94,45.94,0,0,1-19.55-6.19c5.42-2.55,9.75-4.54,9.75-4.54C363.71,461.88,371.3,465.84,377.79,468.73Z"/><path class="cls-4" d="M331,255c-.11.72-.13,1.14-.13,1.14s-5.19-15.66,3.84-23.69a21.24,21.24,0,0,1,6.86-4.09c8-3,16.51-1.18,19.4-.4.66.18,1,.3,1,.3,18.37,7.37,10.34,27.25,10.34,27.25a5.68,5.68,0,0,0-.12-.78,45.18,45.18,0,0,0-2.12-6.65c-3.78-9.81-17.33-9.83-17.33-9.83C334.82,238.34,331.56,251.05,331,255Z"/><path class="cls-2" d="M372.21,254.7l-.17,2.66-.36,5.88c0,.3-.06.62-.11.94-.56,4-2.37,9.08-2.91,11.58a11.44,11.44,0,0,1-4.05,6.61c-4.8,3.9-11.84,3.92-11.84,3.92-6.37.12-10.46-1.62-13.07-3.69a12.31,12.31,0,0,1-4.41-6.54c-.83-3.06-2.72-8.78-3.26-11.92a8.46,8.46,0,0,1-.14-1.18l-.69-6.1L331,255c.57-3.92,3.83-16.63,21.77-16.75,0,0,13.55,0,17.33,9.83A45.18,45.18,0,0,1,372.21,254.7ZM361,260.91a2.32,2.32,0,1,0-2-2.28A2.15,2.15,0,0,0,361,260.91Zm-18.12-.25a2.32,2.32,0,1,0-2-2.28A2.16,2.16,0,0,0,342.85,260.66Z"/><path d="M362.93,258.6a2,2,0,1,1-2-2.28A2.15,2.15,0,0,1,362.93,258.6Z"/><path class="cls-4" d="M362.09,227.92H361c-2.89-.78-11.41-2.59-19.4.4l-.16-.41c0-5.36,4.63-9.7,10.35-9.7S362.09,222.56,362.09,227.92Z"/><path class="cls-2" d="M347.86,453.07c2.74,1.56,5.73,3.25,8.83,4.95,0,0-4.33,2-9.75,4.54l-1.68.79,0-.07a20,20,0,0,0-1.47-12.56Z"/><path class="cls-2" d="M281.92,441l-2.26,1.69-.26-.26a5.4,5.4,0,0,1-1.41-5.21,18.19,18.19,0,0,1,1.24-3.52c1.09-2,3.91-2.3,3.91-2.3l1.95-2.18c4.35-5,5.65-4.77,17.16-3.47a24.27,24.27,0,0,0,5.64,0c7-.84,10-5.18,17.38-7.64,9.13-3,13.47,3,13.47,6.51s.87,7.17,3.69,8a121.9,121.9,0,0,0,13.24,2.09c-.55.35-10.34,6.71-7.81,18.32l-4.1-2.35c-4.56-2.64-8-4.68-9.36-5.46-3-1.74-7.34-1.84-12.6-2.61h0a49.72,49.72,0,0,1-8.56-1.95,62.43,62.43,0,0,0-21-2.83C288.35,437.87,281.92,441,281.92,441Z"/><path class="cls-2" d="M299.3,368.72c5.44,1.57,12.31,4.09,18.18,6a63.35,63.35,0,0,0,8.63,2.28,140.82,140.82,0,0,0,15.12,1.51,2.14,2.14,0,0,0,2.23-2c.34-3.82,1.12-11.88,1.73-14.07.7-2.5,3.43-18.62,3.75-23.06a1.16,1.16,0,0,1,1.16-1.07h.06a1.16,1.16,0,0,1,1.1,1.14c0,2.74.31,10.27.23,17.34,0,2.65-.1,5.25-.26,7.5-.85,12.24,2.78,25.63-7.7,26-5.61.19-16,.1-26.55-.47-9.7-.52-19.45-1.45-25.51-2.94-11-2.7-13,.27-14.31-6.86s3.46-22.32,8-33.11c3.77-9,9.3-20.6,14.05-31.16s14.43-11.28,14.43-11.28c1.89-.31,3.92-.76,6-1.28l.13.53a181.51,181.51,0,0,1-.44,22.76,69.61,69.61,0,0,1-1.51,9.64l-.17,0s-2.29-7-6.78,2.6-11.35,29.5-11.35,29.5Z"/><path class="cls-1" d="M321.79,442.65h0c5.26.77,9.56.87,12.6,2.61,1.37.78,4.8,2.82,9.36,5.46a20,20,0,0,1,1.47,12.56l0,.07c-7.34,3.46-16,7.62-18.68,9.27-5,3-18.68,5.65-24.55,6.95s-6.51,2.18-16.28,2.39-15.86.22-19.77-7.17-5.86-12.16,2.61-20,11.73-13,23.67-16.94a62.43,62.43,0,0,1,21,2.83A49.72,49.72,0,0,0,321.79,442.65Z"/><path d="M344.82,258.35a2,2,0,1,1-2-2.28A2.16,2.16,0,0,1,344.82,258.35Z"/><path class="cls-2" d="M332,264.14l-.22,0c.72,3.64-.87,2.3-.87,2.3-2.61-3-2.51-8-2.51-8,.43-3.22,1.56-2.47,2.29-1.54l.48-.05.69,6.1A8.46,8.46,0,0,0,332,264.14Z"/><path class="cls-2" d="M317.58,336.09l.17,0c-.94,3.86-2.27,6.92-4.17,8.3-1.91-4.68-2.78-5.74-2.78-5.74C315.29,329.13,317.58,336.09,317.58,336.09Z"/><path class="cls-5" d="M341.4,227.92c0-5.36,4.63-9.7,10.35-9.7s10.34,4.34,10.34,9.7"/><path class="cls-5" d="M331,255c.57-3.92,3.83-16.63,21.77-16.75,0,0,13.55,0,17.33,9.83a45.18,45.18,0,0,1,2.12,6.65,5.68,5.68,0,0,1,.12.78s8-19.88-10.34-27.25c0,0-.37-.12-1-.3-2.89-.78-11.41-2.59-19.4.4a21.24,21.24,0,0,0-6.86,4.09c-9,8-3.84,23.69-3.84,23.69S330.88,255.69,331,255Z"/><path class="cls-5" d="M372.36,257.38c.64-1.07,2-2.73,2.66,1,0,0,.31,5-2.16,8.13,0,0-1.54,1.41-1-2.26"/><path class="cls-5" d="M330.72,256.91c-.73-.93-1.86-1.68-2.29,1.54,0,0-.1,5,2.51,8,0,0,1.59,1.34.87-2.3"/><path class="cls-5" d="M330.89,254.12l.1.85.21,1.89.69,6.1a8.46,8.46,0,0,0,.14,1.18c.54,3.14,2.43,8.86,3.26,11.92a12.31,12.31,0,0,0,4.41,6.54c2.61,2.07,6.7,3.81,13.07,3.69,0,0,7,0,11.84-3.92a11.44,11.44,0,0,0,4.05-6.61c.54-2.5,2.35-7.58,2.91-11.58.05-.32.08-.64.11-.94l.36-5.88.17-2.66.07-1.2"/><path class="cls-5" d="M353.46,266.3a4.29,4.29,0,0,1-4.44-.12"/><polyline class="cls-5" points="346.73 273.72 347.67 274.1 350.63 273.24 351.74 273.92 352.96 273.27 355.62 274.21 356.48 273.99"/><line class="cls-5" x1="350.55" y1="278.66" x2="353.11" y2="278.7"/><path class="cls-5" d="M339.11,282.79c.24,6.34,1,12.5-2.73,14.62-2.17,1.23-9.59,4-16.81,5.79-2,.52-4.07,1-6,1.28,0,0-9.67.72-14.43,11.28s-10.28,22.17-14.05,31.16c-4.51,10.79-9.29,26-8,33.11s3.33,4.16,14.31,6.86c6.06,1.49,15.81,2.42,25.51,2.94,10.5.57,20.94.66,26.55.47,10.48-.37,6.85-13.76,7.7-26,.16-2.25.23-4.85.26-7.5.08-7.07-.19-14.6-.23-17.34a1.16,1.16,0,0,0-1.1-1.14h-.06a1.16,1.16,0,0,0-1.16,1.07c-.32,4.44-3.05,20.56-3.75,23.06-.61,2.19-1.39,10.25-1.73,14.07a2.14,2.14,0,0,1-2.23,2A140.82,140.82,0,0,1,326.11,377a63.35,63.35,0,0,1-8.63-2.28c-5.87-1.88-12.74-4.4-18.18-6a29.85,29.85,0,0,0-7.51-1.48"/><path class="cls-5" d="M319.7,303.73a181.51,181.51,0,0,1-.44,22.76,69.61,69.61,0,0,1-1.51,9.64c-.94,3.86-2.27,6.92-4.17,8.3"/><path class="cls-5" d="M317.58,336.09s-2.29-7-6.78,2.6-11.35,29.5-11.35,29.5"/><path class="cls-5" d="M310.8,338.69s.87,1.06,2.78,5.74c.56,1.36,1.2,3,1.94,5.09,3.26,9.06,2.12,24.66,2.12,24.66"/><path class="cls-5" d="M364.88,282.79c-.24,6.34-1,12.5,2.73,14.62,2.18,1.23,9.6,4,16.82,5.79,2,.52,4.06,1,5.95,1.28,0,0,9.68.72,14.43,11.28s10.28,22.18,14.05,31.16c4.8,11.44,9.3,26,8,33.11s-2.94,4.52-14.32,6.86A226.11,226.11,0,0,1,387.63,390c-10.59.82-21.17,1.15-26.85.61-10.2-1-8.12-15.75-8.63-26.13-.11-2.29-.12-4.94-.07-7.65.12-7.08.62-14.62.66-17.34a1.16,1.16,0,0,1,1.1-1.14h.06a1.15,1.15,0,0,1,1.15,1.07c.32,4.44,3.05,20.56,3.75,23.06.62,2.19,1.39,10.25,1.73,14.07a2.16,2.16,0,0,0,2.24,2A140.68,140.68,0,0,0,377.88,377a66.43,66.43,0,0,0,9.15-2.45c5.74-1.85,12.36-4.27,17.64-5.79a29.71,29.71,0,0,1,7.53-1.49"/><path class="cls-5" d="M384.3,303.73a183.24,183.24,0,0,0,.44,22.73,68.36,68.36,0,0,0,1.51,9.67c.93,3.86,2.27,6.92,4.16,8.3"/><path class="cls-5" d="M386.41,336.09s2.3-7,6.79,2.6,11.2,29.09,11.2,29.09"/><path class="cls-5" d="M393.2,338.69s-.87,1.06-2.79,5.74c-.55,1.36-1.19,3-1.93,5.09C385.22,358.58,387,374,387,374"/><path class="cls-5" d="M319.35,326.5c16.3,8.67,44.18,10.34,64.76,0"/><path class="cls-5" d="M317,389.76a.31.31,0,0,0,0,.07c-.26.82-2.72,8.78-4.56,14.87-.67,2.22-1.26,4.2-1.62,5.48a104.9,104.9,0,0,0-3,15.08"/><path class="cls-5" d="M387.64,390.09a117.33,117.33,0,0,0,4.42,16.18c2.93,8.14,2.93,20.2,2.93,20.2"/><path class="cls-5" d="M360.46,434s2.82-8.9,8.91-7.82,10.85,5.65,15.63,4.35c2.74-.75,6.4-2.85,10.09-3.61,2.75-.57,5.53-.39,7.94,1.65l3.26,3.26s5.21,1.3,6.08,6.08a2,2,0,0,1-1.18,1.81,1.94,1.94,0,0,1-.8.17,2.31,2.31,0,0,1-.37,0l-7-1.3s-3.26-3-5-3"/><path class="cls-5" d="M355.67,434.75a121.9,121.9,0,0,1-13.24-2.09c-2.82-.87-3.69-4.56-3.69-8s-4.34-9.55-13.47-6.51c-7.4,2.46-10.37,6.8-17.38,7.64a24.27,24.27,0,0,1-5.64,0c-11.51-1.3-12.81-1.52-17.16,3.47l-1.95,2.18s-2.82.26-3.91,2.3a18.19,18.19,0,0,0-1.24,3.52,5.4,5.4,0,0,0,1.41,5.21l.26.26,2.26-1.69,7.3-5.48"/><path class="cls-5" d="M403.68,450a31.19,31.19,0,0,0-11.56-9.18A39.94,39.94,0,0,0,377.84,437c-6.41-.54-12.38-1.14-17.53-1.72l-4.63-.53"/><path class="cls-5" d="M321.8,442.65c5.26.77,9.56.87,12.6,2.61,1.37.78,4.8,2.82,9.36,5.46l4.1,2.35c2.74,1.56,5.73,3.25,8.83,4.95,7,3.86,14.61,7.82,21.1,10.71,1.61.72,3.16,1.37,4.61,1.94,16.07,6.3,17.6,6.09,22.41,7.6,7.56,2.37,20.54,2.37,24.24.43,2.22-1.16,5-5.62,6.12-8.47,1.74-4.24,4.57-11.29-6.51-20.2s-17.38-10.17-17.38-10.17"/><path class="cls-5" d="M281.92,441s6.43-3.09,10.34-3.09a62.43,62.43,0,0,1,21,2.83,49.72,49.72,0,0,0,8.56,1.95"/><path class="cls-5" d="M403,438.52s-6-.39-10.38,1.28l-.59.24"/><path class="cls-5" d="M355.69,434.74h0c-.55.35-10.34,6.71-7.81,18.32"/><path class="cls-5" d="M346.94,462.56a45.94,45.94,0,0,0,19.55,6.19c8.61.47,11.3,0,11.3,0"/><path class="cls-5" d="M356.69,458s-4.33,2-9.75,4.54l-1.68.79c-7.34,3.46-16,7.62-18.68,9.27-5,3-18.68,5.65-24.55,6.95s-6.51,2.18-16.28,2.39-15.86.22-19.77-7.17-5.86-12.16,2.61-20,11.73-13,23.67-16.94"/><path class="cls-5" d="M321.8,442.65h0c-.41.08-9.84,2-13.67,3.48s-7.61,4.66-10.65,10.91"/><path class="cls-5" d="M343.76,450.72a20,20,0,0,1,1.47,12.56"/><path class="cls-5" d="M392.06,406.27s-54.52,2.94-79.64-1.57"/></svg>