<svg id="Layer_1" data-name="Layer 1" xmlns="http://www.w3.org/2000/svg" viewBox="0 0 700 700"><defs><style>.cls-1{fill:#c4e7f9;}.cls-2{fill:#99abcc;}.cls-3{fill:#feae63;}.cls-4{fill:#120c0c;}.cls-5{fill:none;stroke:#000;stroke-linecap:round;stroke-linejoin:round;stroke-width:2.3px;}</style></defs><title>Yoga_poses_2020_color</title><path class="cls-1" d="M416.16,351.77c5.18,20.18.77,40.7-.23,44.43-1.51,5.7-4.56,14.93-6.67,21.85a72.55,72.55,0,0,1-5.39,13.52c3.48-8.56-.87-13.23-8.83-17.91s-17.22.29-17.22.29c-5.82-8.11-13.44-15.81-20.51-22.78,0,0,3.13-5.94,7.26-9s3.91-6.95,4.56-11.73,1.95-15.6,3-20.29c.71-3,1.32-12.64,1.42-20.11h0s15.76.3,27.8-1.9c11.32-2.06,13-4.6,13.08-4.75C413.93,331.52,413.74,342.32,416.16,351.77Z"/><path class="cls-2" d="M400.62,272.18c16.94,9,15.33,31,14.83,40.23-.11,2-.61,6-1,11-.09.15-1.76,2.69-13.08,4.75-12,2.2-27.8,1.9-27.8,1.9h0a55.32,55.32,0,0,0-.33-8.9c-.87-4.13,1.08-13.25-19.77-12l-1.92.11c-7.43.4-15.58.48-22.95.42-3.79,0-7.38-.1-10.56-.19-7.77-.19-13.13-.47-13.13-.47a7.59,7.59,0,0,0-4-4.35l-12.42-5.66a7.55,7.55,0,0,1-2.94-2.4l-7-9.64a2,2,0,0,0-1.61-.82,1.94,1.94,0,0,0-.71.13,2,2,0,0,0-1.08,2.72l3.1,6.42a11.83,11.83,0,0,0,.71,1.25l3.66,5.53-5.26-5.14a10.85,10.85,0,0,1-2.47-3.73l-2.32-5.85a2,2,0,0,0-2.48-1.15,2,2,0,0,0-1.27,2.44l-.42-1.33a2.2,2.2,0,0,0-2.09-1.53,2.35,2.35,0,0,0-.68.11c-1.08-4,13.3-11.51,30.35-12.92,14.83-1.23,20.2-2.61,45.78-6.19S383.68,263.22,400.62,272.18Z"/><path class="cls-3" d="M266.14,295.68l-.76-2.62a1.89,1.89,0,0,0-.2-.46l-.13-.42-.79-3.56a2.19,2.19,0,0,1,1.43-2.54,2.35,2.35,0,0,1,.68-.11,2.2,2.2,0,0,1,2.09,1.53l.42,1.33a2,2,0,0,1,1.9-2.55,2,2,0,0,1,1.85,1.26l2.32,5.85a10.85,10.85,0,0,0,2.47,3.73l5.26,5.14L279,296.73a11.83,11.83,0,0,1-.71-1.25l-3.1-6.42a2,2,0,0,1,1.08-2.72,1.94,1.94,0,0,1,.71-.13,2,2,0,0,1,1.61.82l7,9.64a7.55,7.55,0,0,0,2.94,2.4l12.42,5.66a7.59,7.59,0,0,1,4,4.35l.55,1.54s.6,1.12,1.78,3.07,3,4.8,5.41,8.17c0,0,14.54,23.19,20.62,36.65,0,0,4.15,9.34,7.83,13.25s1.4,4.78,9.93,13.25c2,2,4.1,4,6.26,6.16,7.07,7,14.69,14.67,20.51,22.78,0,0,9.26-5,17.22-.29s12.31,9.35,8.83,17.91a21.54,21.54,0,0,1-2.76,4c-3.26,3.59-5.37,4.89-9.77,10.92a15.94,15.94,0,0,1-11.57,6.19s-9.93,1.42-15.31-5.22a37.28,37.28,0,0,1-4.9-7.66c-2.18-4.61-3.19-9.27-5.53-16a55.71,55.71,0,0,0-11.37-17.27c-5.71-5.71-9.89-13.36-12.87-18.06a20.2,20.2,0,0,0-2.71-3.63c-3-2.73-6.3-6.48-12.38-20.36s-17-43.47-21.28-45.7-5.88-.71-9.53.91-5.06-1.21-9.93-2.83l0,0a5.39,5.39,0,0,1-2.68-2.8l-1-2.44.76-.74-5.06-5.25a7.27,7.27,0,0,1-1.27-1.79l-2.32-4.57a7.21,7.21,0,0,1-.71-2.16l-.51-3.1a2.07,2.07,0,0,1,0-.35,2.22,2.22,0,0,1,1.62-2.12,2.17,2.17,0,0,1,2.48,1.05Z"/><path class="cls-3" d="M330.9,423.56a8.3,8.3,0,0,1-1.91.28c-5.77-1.14-1.93-5.79-1.93-5.79.22-2.34-1.21-6.19-5.06-8.48s-7.33-1.76-9.74-5.67c-1.19-1.93-6.95-10-7.25-10.46l1.81-.35s8.2-3.56,13.62-3.36c4.27.16,4.94,1.51,7.64-.4l1.48-.68.23-.14c3,4.7,7.16,12.35,12.87,18.06A55.71,55.71,0,0,1,354,423.84c2.34,6.68,3.35,11.34,5.53,16l-.15.07c-3.41-6.38-15.09-5.29-15.09-5.29l-.21,0a2.67,2.67,0,0,0,.21-1.06c0-2.41-3.44-4.17-5.5-5a9.15,9.15,0,0,0-2.54-.55c-3.3-.31-5-3.51-5.31-4.1Zm-3.46-28.28c.06-.62-1.06-1.22-2.5-1.35s-2.63.28-2.69.9,1.07,1.23,2.5,1.35S327.39,395.9,327.44,395.28Z"/><path class="cls-3" d="M351.59,309.74c.16,2.54-3.83,6.09-6.84,7.29s-6.6,2.8-9.53,4.34a14.58,14.58,0,0,1-6.22,1.51c1.29-1,2-2.24,1.56-3.36l0-.52h.11a2,2,0,1,0,0-3.95,2,2,0,0,0-1.88,1.38l-.31.18a12.11,12.11,0,0,0-3.27.46V317l.67-3c.82-.54,2.72-4.3,2.72-4.3,7.37.06,15.52,0,22.95-.42Zm-3.89,2a2,2,0,1,0-2,2A2,2,0,0,0,347.7,311.71ZM343,313.39a2,2,0,1,0-2,2A2,2,0,0,0,343,313.39Zm-5.18,2a2,2,0,1,0-2,2A2,2,0,0,0,337.86,315.36Z"/><path class="cls-3" d="M345.73,309.74a2,2,0,1,1-2,2A2,2,0,0,1,345.73,309.74Z"/><path class="cls-4" d="M331,423.81c.29.59,2,3.79,5.31,4.1a9.15,9.15,0,0,1,2.54.55c2.06.85,5.5,2.61,5.5,5a2.67,2.67,0,0,1-.21,1.06c-.94,2.35-5.05,3.68-10.13,3.84-4.39.13-9.55.15-12.25.09-3.81-.08-7.28.26-11.37-.13-7.17-.67-9.35-5.66-9.35-5.66-.49-.76-.95-1.52-1.36-2.27a32.06,32.06,0,0,1-2.95-7c-2.93-10.35,1-19.41,6.92-29.75l1.39-.26c.3.42,6.06,8.53,7.25,10.46,2.41,3.91,5.88,3.38,9.74,5.67s5.28,6.14,5.06,8.48c0,0-3.84,4.65,1.93,5.79a8.3,8.3,0,0,0,1.91-.28Z"/><path class="cls-3" d="M341.06,311.41a2,2,0,1,1-2,2A2,2,0,0,1,341.06,311.41Z"/><circle class="cls-3" cx="335.89" cy="315.36" r="1.97"/><path class="cls-3" d="M330.7,315.06a2,2,0,1,1,0,3.95h-.11a2,2,0,0,1-1.86-2,1.92,1.92,0,0,1,.09-.59A2,2,0,0,1,330.7,315.06Z"/><path class="cls-3" d="M328.51,316.62l.31-.18a1.92,1.92,0,0,0-.09.59,2,2,0,0,0,1.86,2l0,.52c.47,1.12-.27,2.4-1.56,3.36a7.69,7.69,0,0,1-2.58,1.22c-2.64.69-5.53-2.32-4.11-5a4.75,4.75,0,0,1,2.93-2.05A12.11,12.11,0,0,1,328.51,316.62Z"/><path d="M324.94,393.93c1.44.13,2.56.73,2.5,1.35s-1.26,1-2.69.9-2.55-.73-2.5-1.35S323.51,393.81,324.94,393.93Z"/><path class="cls-2" d="M318.06,309.55h0a19.55,19.55,0,0,1-10.8,4.13c-1.18-1.95-1.78-3.07-1.78-3.07l-.55-1.54S310.29,309.36,318.06,309.55Z"/><path class="cls-4" d="M299.6,430.44c3.51,8.23-4.77,7.1-9.77,6.8s-8.2-5.18-3.44-11.07,10.16-2.67,10.16-2.67l.15-.05a32.06,32.06,0,0,0,2.95,7Z"/><path class="cls-5" d="M327.06,418.05s-3.84,4.65,1.93,5.79a8.3,8.3,0,0,0,1.91-.28,8,8,0,0,0,5.69-4.86s.71-3.14-2.93-1.61"/><path class="cls-5" d="M341.12,416.55s4.58-.47,6.1-4.25"/><path class="cls-5" d="M305,393.43h0c.3.42,6.06,8.53,7.25,10.46,2.41,3.91,5.88,3.38,9.74,5.67s5.28,6.14,5.06,8.48"/><path class="cls-5" d="M296.55,423.5s-5.4-3.21-10.16,2.67-1.53,10.77,3.44,11.07,13.28,1.43,9.77-6.8"/><path class="cls-5" d="M330.92,423.71l.05.1c.29.59,2,3.79,5.31,4.1a9.15,9.15,0,0,1,2.54.55c2.06.85,5.5,2.61,5.5,5a2.67,2.67,0,0,1-.21,1.06c-.94,2.35-5.05,3.68-10.13,3.84-4.39.13-9.55.15-12.25.09-3.81-.08-7.28.26-11.37-.13-7.17-.67-9.35-5.66-9.35-5.66-.49-.76-.95-1.52-1.36-2.27a32.06,32.06,0,0,1-2.95-7c-2.93-10.35,1-19.41,6.92-29.75l1.39-.26,1.81-.35s8.2-3.56,13.62-3.36c4.27.16,4.94,1.51,7.64-.4l1.48-.68"/><path class="cls-5" d="M344.32,434.57s11.68-1.09,15.09,5.29"/><path class="cls-5" d="M270.22,311.63l1,2.44a5.39,5.39,0,0,0,2.68,2.8l0,0c4.87,1.62,6.29,4.46,9.93,2.83s5.27-3.14,9.53-.91,15.2,31.82,21.28,45.7,9.42,17.63,12.38,20.36a20.2,20.2,0,0,1,2.71,3.63c3,4.7,7.16,12.35,12.87,18.06A55.71,55.71,0,0,1,354,423.84c2.34,6.68,3.35,11.34,5.53,16a37.28,37.28,0,0,0,4.9,7.66c5.38,6.64,15.31,5.22,15.31,5.22a15.94,15.94,0,0,0,11.57-6.19c4.4-6,6.51-7.33,9.77-10.92a21.54,21.54,0,0,0,2.76-4,72.55,72.55,0,0,0,5.39-13.52c2.11-6.92,5.16-16.15,6.67-21.85,1-3.73,5.41-24.25.23-44.43-2.42-9.45-2.23-20.25-1.67-28.36.35-5,.85-9,1-11,.5-9.2,2.11-31.27-14.83-40.23s-33.23-8.8-58.8-5.21-30.95,5-45.78,6.19c-17.05,1.41-31.43,8.93-30.35,12.92"/><path class="cls-5" d="M266.14,295.68l-.76-2.62a1.89,1.89,0,0,0-.2-.46,2.17,2.17,0,0,0-2.48-1.05,2.22,2.22,0,0,0-1.62,2.12,2.07,2.07,0,0,0,0,.35l.51,3.1a7.21,7.21,0,0,0,.71,2.16l2.32,4.57a7.27,7.27,0,0,0,1.27,1.79l5.06,5.25a14.76,14.76,0,0,0,5.59,3.64l.66.25"/><path class="cls-5" d="M274.27,307.88l-4.79-5.08a10.8,10.8,0,0,1-2.43-4.18l-.91-2.94-1-3.08-.13-.42-.79-3.56a2.19,2.19,0,0,1,1.43-2.54,2.35,2.35,0,0,1,.68-.11,2.2,2.2,0,0,1,2.09,1.53l.42,1.33"/><path class="cls-5" d="M277.11,304l-3.73-4.16a10.7,10.7,0,0,1-2.24-3.91l-1.91-6-.34-1.07a.09.09,0,0,1,0-.05,2,2,0,0,1,1.9-2.55,2,2,0,0,1,1.85,1.26l2.32,5.85a10.85,10.85,0,0,0,2.47,3.73l5.26,5.14L279,296.73a11.83,11.83,0,0,1-.71-1.25l-3.1-6.42a2,2,0,0,1,1.08-2.72,1.94,1.94,0,0,1,.71-.13,2,2,0,0,1,1.61.82l7,9.64a7.55,7.55,0,0,0,2.94,2.4l12.42,5.66a7.59,7.59,0,0,1,4,4.35l.55,1.54s.6,1.12,1.78,3.07,3,4.8,5.41,8.17c0,0,14.54,23.19,20.62,36.65,0,0,4.15,9.34,7.83,13.25s1.4,4.78,9.93,13.25c2,2,4.1,4,6.26,6.16,7.07,7,14.69,14.67,20.51,22.78,7.6,10.59,11.94,14.5,11.94,14.5"/><path class="cls-5" d="M357.31,391.17s3.13-5.94,7.26-9,3.91-6.95,4.56-11.73,1.95-15.6,3-20.29c.71-3,1.32-12.64,1.42-20.11a55.32,55.32,0,0,0-.33-8.9c-.87-4.13,1.08-13.25-19.77-12l-1.92.11c-7.43.4-15.58.48-22.95.42-3.79,0-7.38-.1-10.56-.19-7.77-.19-13.13-.47-13.13-.47"/><path class="cls-5" d="M373.61,330.06s15.76.3,27.8-1.9c11.32-2.06,13-4.6,13.08-4.75h0"/><path class="cls-5" d="M328.62,309.74s-1.9,3.76-2.72,4.3l-.67,3"/><circle class="cls-5" cx="335.89" cy="315.36" r="1.97"/><path class="cls-5" d="M328.82,316.44a2,2,0,0,1,3.86.59,2,2,0,0,1-2,2h-.11a2,2,0,0,1-1.86-2A1.92,1.92,0,0,1,328.82,316.44Z"/><path class="cls-5" d="M343,313.39a2,2,0,1,1-2-2A2,2,0,0,1,343,313.39Z"/><path class="cls-5" d="M347.7,311.71a2,2,0,1,1-2-2A2,2,0,0,1,347.7,311.71Z"/><path class="cls-5" d="M328.62,316.62h-.11a12.11,12.11,0,0,0-3.27.46,4.75,4.75,0,0,0-2.93,2.05c-1.42,2.65,1.47,5.66,4.11,5a7.69,7.69,0,0,0,2.58-1.22c1.29-1,2-2.24,1.56-3.36"/><path class="cls-5" d="M329,322.88a14.58,14.58,0,0,0,6.22-1.51c2.93-1.54,6.52-3.14,9.53-4.34s7-4.75,6.84-7.29"/><path class="cls-5" d="M377.82,414s9.26-5,17.22-.29,12.31,9.35,8.83,17.91"/><path class="cls-5" d="M307.26,313.69a19.55,19.55,0,0,0,10.8-4.13"/></svg>