<svg id="Layer_1" data-name="Layer 1" xmlns="http://www.w3.org/2000/svg" viewBox="0 0 700 700"><defs><style>.cls-1{fill:#feae63;}.cls-2{fill:#99abcc;}.cls-3{fill:#c4e7f9;}.cls-4{fill:#392328;}.cls-5{fill:none;stroke:#000;stroke-linecap:round;stroke-linejoin:round;stroke-width:2.3px;}</style></defs><title>Yoga_poses_2020_color</title><path class="cls-1" d="M508.36,537.56a2.25,2.25,0,0,1,0,.44,2.34,2.34,0,0,1-2.17,2.34l-4.28.31h0a1.82,1.82,0,0,0-.59-2.29l-5.38-3.8,6.85,1.43,3-.3A2.33,2.33,0,0,1,508.36,537.56Z"/><path class="cls-1" d="M491.08,518.07v1.78a2.05,2.05,0,0,0,.52,1.37l1.62,1.82a2.05,2.05,0,0,0,1.54.69h1.31a1.75,1.75,0,0,0,1.75-1.6l.26-2.93a1.94,1.94,0,0,0,0-.54l-.5-2.22Zm-15.11-6a28.13,28.13,0,0,1,11-.38,28.5,28.5,0,0,0,6.46.31l3.31-.23a1.8,1.8,0,0,1,1.92,1.8v.24a1.76,1.76,0,0,1,2,.91l1.43,2.9a2.16,2.16,0,0,1,.23,1v6.17a2.18,2.18,0,0,1-1.46,2.06l-7.07,2.5h0l.34,3.93v.05l-1.63,1.86a1.9,1.9,0,0,1,.91,1.63,1.88,1.88,0,0,1-.28,1l0,0a1.91,1.91,0,0,1-2.5.63l-12.8-6.37a25.92,25.92,0,0,1-8.54-6.83,24.85,24.85,0,0,1-1.81-2.5l-.74-1.17c-6.53-5.68-22.25-22-22.25-22-13.17-11.82-14.85-14.42-19.07-24.8s-1.07-42.43-1.07-42.43c1-2.44,1.69-4.47,2.17-6-3.32-2.43-5.1-10-6-17.91a182.84,182.84,0,0,1-1-22.39l.13-.52c2,.52,4.06,1,5.95,1.27,0,0,9.68.73,14.43,11.29s1,26.64,1.71,45.23c0,0,.14,18.67,2.22,22.82S451,476,457.24,487.23,476,512,476,512Z"/><path class="cls-1" d="M496,534.55l5.38,3.8a1.82,1.82,0,0,1,.59,2.29,1.71,1.71,0,0,1-.13.23,1.81,1.81,0,0,1-1.52.81,1.85,1.85,0,0,1-.91-.24l-6.23-3.59,0,0a1.88,1.88,0,0,0,.28-1,1.9,1.9,0,0,0-.91-1.63l1.63-1.86v-.05Z"/><path class="cls-2" d="M404.45,525.26c13.09-4.67,15-6.69,20.87-8.62,2.49-.81,4.67-1.62,6.4-2.29a13.94,13.94,0,0,1,8.95-.42l9.41,2.71,19.22,8.64a25.92,25.92,0,0,0,8.54,6.83l2.73,4.49a17.19,17.19,0,0,1,1.14,16l-.06.11a23.13,23.13,0,0,1-26,12.84c-7.4-1.63-25.16-6-40.36-13.17-19.76-9.34-35.41-17.22-35.41-17.22,4.09-1.84,8-3.55,11.67-5.08,3.45-1.42,6.72-2.69,9.84-3.76l2.95-1,.05,0Z"/><path class="cls-1" d="M382.94,515.07c1.2-.37,2.29-.74,3.25-1.09a8.71,8.71,0,0,0,5.63-6.74l.17-1a8.7,8.7,0,0,1,13-6.07L409.8,503a22.63,22.63,0,0,0,16.82,2.42l6.57-1.61a7.77,7.77,0,0,1,6.89,1.62l4.35,3.69a18.85,18.85,0,0,1,4.17,2.4,4.4,4.4,0,0,1,1.48,5.13l-9.41-2.71a13.94,13.94,0,0,0-8.95.42c-1.73.67-3.91,1.48-6.4,2.29-5.87,1.93-7.78,4-20.87,8.62h0l-.05,0-2.95,1c-3.12,1.07-6.39,2.34-9.84,3.76-6.87-13.9-11.41-14.1-11.66-14.1h0C381,515.67,382,515.37,382.94,515.07Z"/><path class="cls-2" d="M425.17,486.45c1.54,5.09,1.45,13.65,1.45,19A22.63,22.63,0,0,1,409.8,503L405,500.17a8.71,8.71,0,0,0-13,6.07l-.17,1a8.71,8.71,0,0,1-5.63,6.74c-1,.35-2.05.72-3.25,1.09-.47-6-7.14-8.31-15.61-6s-10.1-2.61-14.66-6a7.54,7.54,0,0,0-5.16-1.47v0c0-5.31,1.41-11.83,2.37-17.05a33.54,33.54,0,0,1,1.87-6.06c.14-.35.27-.7.4-1.05l.92.35s25.75,11.35,70.07,2.05C423.77,481.89,424.49,484.21,425.17,486.45Z"/><path class="cls-3" d="M426.53,426.37c-.48,1.56-1.18,3.59-2.17,6l-.55,1.32c-1.31,3.12-3.19,6.18-3.81,9.25a67.91,67.91,0,0,0,1.29,30.88s.81,2.59,1.85,6c-44.32,9.3-70.07-2.05-70.07-2.05l-.92-.35a57,57,0,0,0,3.61-25.63c-.28-3-.75-6.35-1.45-10-.63-3.26-1.88-5.68-3.22-9l-1-2.6c-1-2.53-1.71-4.44-2.22-5.83,3.26-2.37,5.15-9.31,6.24-16.64,16.31,8.68,45.83,11.08,66.4.74h0C421.43,416.39,423.21,423.94,426.53,426.37Z"/><path class="cls-1" d="M420.49,408.46h0c-20.57,10.34-50.09,7.94-66.4-.74a164.29,164.29,0,0,0,1.51-21.65l-.13-.52c7.22-1.82,14.64-4.57,16.82-5.79,3.74-2.12,3-8.28,2.73-14.62l.58-.19c2.61,2.07,6.7,3.8,13.07,3.68,0,0,6.57,0,11.35-3.54l0,.05c-.24,6.34-1,12.5,2.73,14.62,2.18,1.22,9.6,4,16.82,5.79l-.13.52A182.84,182.84,0,0,0,420.49,408.46Z"/><path class="cls-1" d="M410.92,340.71s.31,5-2.17,8.12c0,0-1.53,1.41-1-2.25l-.33-.05c.05-.32.08-.64.11-.94l.36-5.89.33,0C408.9,338.66,410.26,337,410.92,340.71Z"/><path class="cls-4" d="M366.89,337.32c-.11.71-.13,1.13-.13,1.13s-5.19-15.66,3.83-23.69a21.11,21.11,0,0,1,6.87-4.09c8-3,16.51-1.17,19.4-.39.66.18,1,.3,1,.3,18.37,7.37,10.33,27.24,10.33,27.24a5.94,5.94,0,0,0-.12-.78,43.9,43.9,0,0,0-2.12-6.65c-3.78-9.81-17.32-9.82-17.32-9.82C370.71,320.69,367.46,333.4,366.89,337.32Z"/><path class="cls-1" d="M408.1,337l-.17,2.66-.36,5.89c0,.3-.06.62-.11.94-.55,4-2.36,9.08-2.91,11.58a11.4,11.4,0,0,1-4.54,7c-4.78,3.53-11.35,3.54-11.35,3.54-6.37.12-10.46-1.61-13.07-3.68a12.31,12.31,0,0,1-4.41-6.54c-.82-3.06-2.72-8.79-3.26-11.93a8.46,8.46,0,0,1-.14-1.18l-.68-6.1-.21-1.88c.57-3.92,3.82-16.63,21.77-16.75,0,0,13.54,0,17.32,9.82A43.9,43.9,0,0,1,408.1,337Zm-11.23,6.21a2.32,2.32,0,1,0-2-2.28A2.15,2.15,0,0,0,396.87,343.25ZM378.75,343a2.32,2.32,0,1,0-2-2.28A2.15,2.15,0,0,0,378.75,343Z"/><path d="M398.83,340.94a2,2,0,1,1-2-2.28A2.15,2.15,0,0,1,398.83,340.94Z"/><path class="cls-4" d="M398,310.26l-1.13,0c-2.89-.78-11.4-2.6-19.4.39l-.16-.41c0-5.35,4.63-9.69,10.34-9.69S398,304.91,398,310.26Z"/><path d="M380.71,340.69a2,2,0,1,1-2-2.28A2.15,2.15,0,0,1,380.71,340.69Z"/><path class="cls-1" d="M333.64,508a4.43,4.43,0,0,1,2.09-2.12l5.51-1.83a13.11,13.11,0,0,1,6.27-2.37,7.54,7.54,0,0,1,5.16,1.47c4.56,3.39,6.19,8.34,14.66,6s15.14-.05,15.61,6c-.94.3-1.94.6-3,.89a69,69,0,0,1-18,2.64,74.35,74.35,0,0,0-8.93.55s-4.18-9.57-12.5-8.91l-5.39,1.91a1.26,1.26,0,0,1-1.62-.77,4.53,4.53,0,0,1-.25-1.49A4.57,4.57,0,0,1,333.64,508Z"/><path class="cls-2" d="M353,519.15a74.35,74.35,0,0,1,8.93-.55,69,69,0,0,0,18-2.64h0c.25,0,4.79.2,11.66,14.1-3.69,1.53-7.58,3.24-11.67,5.08-11.49,5.16-24.57,11.3-39.45,17.22a94,94,0,0,1-39.31,6.46,15.42,15.42,0,0,1-6.38-1.78,15.17,15.17,0,0,1-7.9-15.32l.6-4.77h0l9.74-4.84a26.08,26.08,0,0,0,10.35-9.33l.74-1.17c1.79-1.56,4.28-3.92,6.95-6.53h0l13.83-3.73.33-.05.11.74,3.92-.66a1.26,1.26,0,0,0,1.62.77l5.39-1.91C348.79,509.58,353,519.15,353,519.15Z"/><path class="cls-1" d="M367.92,346.48l-.22,0c.73,3.64-.87,2.3-.87,2.3-2.6-3-2.5-8-2.5-8,.43-3.22,1.55-2.47,2.29-1.54l.48-.05.68,6.1A8.46,8.46,0,0,0,367.92,346.48Z"/><path class="cls-1" d="M284,518.07l-6.46-1.63-.5,2.22a1.94,1.94,0,0,0,0,.54l.26,2.93a1.75,1.75,0,0,0,1.75,1.6h1.31a2.05,2.05,0,0,0,1.54-.69l1.62-1.82a2.05,2.05,0,0,0,.52-1.37Zm-2.75,11.28h0l-7.07-2.5a2.18,2.18,0,0,1-1.46-2.06v-6.17a2.16,2.16,0,0,1,.23-1l1.43-2.9a1.76,1.76,0,0,1,2-.91v-.24a1.8,1.8,0,0,1,1.92-1.8l3.31.23a28.5,28.5,0,0,0,6.46-.31,28.13,28.13,0,0,1,11,.38V512s12.47-13.54,18.72-24.81,11.26-16.92,13.33-21.07,2.22-22.82,2.22-22.82c.73-18.59-3-34.67,1.71-45.23s14.43-11.29,14.43-11.29c1.89-.31,3.91-.75,5.95-1.27l.13.52a164.29,164.29,0,0,1-1.51,21.65c-1.09,7.33-3,14.27-6.24,16.64.51,1.39,1.23,3.3,2.22,5.83,0,0,4.37,31.54.15,41.91s-6.48,15.71-19.65,27.53c0,0-8.26,8.56-15.29,15.45h0c-2.67,2.61-5.16,5-6.95,6.53l-.74,1.17a26.08,26.08,0,0,1-10.35,9.33L287.48,537h0l-3.06,1.52a1.91,1.91,0,0,1-2.5-.63l0,0a1.91,1.91,0,0,1,.42-2.47l-1.42-2v-.05Z"/><path class="cls-1" d="M330.93,508.65l2.71-.69a4.57,4.57,0,0,0-.43,1.93,4.53,4.53,0,0,0,.25,1.49l-3.92.66-.11-.74-.05-.33A2.08,2.08,0,0,1,330.93,508.65Z"/><path class="cls-1" d="M279.1,534.55l1.79-1.27v.05l1.42,2a1.91,1.91,0,0,0-.42,2.47l0,0-6.23,3.59a1.85,1.85,0,0,1-.91.24,1.81,1.81,0,0,1-1.52-.81,1.71,1.71,0,0,1-.13-.23,1.82,1.82,0,0,1,.59-2.29Z"/><path class="cls-1" d="M279.1,534.55l-5.38,3.8a1.82,1.82,0,0,0-.59,2.29h0l-4.28-.31a2.34,2.34,0,0,1-2.17-2.34,2.25,2.25,0,0,1,0-.44,2.33,2.33,0,0,1,2.54-1.88l3,.3Z"/><path class="cls-5" d="M377.3,310.26c0-5.35,4.63-9.69,10.34-9.69S398,304.91,398,310.26"/><path class="cls-5" d="M366.89,337.32c.57-3.92,3.82-16.63,21.77-16.75,0,0,13.54,0,17.32,9.82A43.9,43.9,0,0,1,408.1,337a5.94,5.94,0,0,1,.12.78s8-19.87-10.33-27.24c0,0-.37-.12-1-.3-2.89-.78-11.4-2.6-19.4.39a21.11,21.11,0,0,0-6.87,4.09c-9,8-3.83,23.69-3.83,23.69S366.78,338,366.89,337.32Z"/><path class="cls-5" d="M408.26,339.72c.64-1.06,2-2.72,2.66,1,0,0,.31,5-2.17,8.12,0,0-1.53,1.41-1-2.25"/><path class="cls-5" d="M366.62,339.25c-.74-.93-1.86-1.68-2.29,1.54,0,0-.1,5,2.5,8,0,0,1.6,1.34.87-2.3"/><path class="cls-5" d="M366.79,336.46l.1.86.21,1.88.68,6.1a8.46,8.46,0,0,0,.14,1.18c.54,3.14,2.44,8.87,3.26,11.93a12.31,12.31,0,0,0,4.41,6.54c2.61,2.07,6.7,3.8,13.07,3.68,0,0,6.57,0,11.35-3.54a11.4,11.4,0,0,0,4.54-7c.55-2.5,2.36-7.59,2.91-11.58.05-.32.08-.64.11-.94l.36-5.89.17-2.66.07-1.2"/><path class="cls-5" d="M389.35,348.65a4.3,4.3,0,0,1-4.43-.13"/><polyline class="cls-5" points="382.62 356.07 383.56 356.45 386.52 355.58 387.63 356.27 388.86 355.61 391.51 356.56 392.37 356.33"/><line class="cls-5" x1="386.45" y1="361.01" x2="389" y2="361.04"/><path class="cls-5" d="M375,365.14c.24,6.34,1,12.5-2.73,14.62-2.18,1.22-9.6,4-16.82,5.79-2,.52-4.06,1-5.95,1.27,0,0-9.68.73-14.43,11.29s-1,26.64-1.71,45.23c0,0-.14,18.67-2.22,22.82s-7.09,9.79-13.33,21.07S299.1,512,299.1,512"/><path class="cls-5" d="M355.59,386.07a164.29,164.29,0,0,1-1.51,21.65c-1.09,7.33-3,14.27-6.24,16.64"/><path class="cls-5" d="M354.08,407.72c16.31,8.68,45.83,11.08,66.4.74"/><path class="cls-5" d="M346.69,421s.27.91,1.15,3.33c.51,1.39,1.23,3.3,2.22,5.83l1,2.6c1.34,3.34,2.59,5.76,3.22,9,.7,3.66,1.17,7,1.45,10a57,57,0,0,1-3.61,25.63c-.13.35-.26.7-.4,1.05a33.54,33.54,0,0,0-1.87,6.06c-1,5.22-2.37,11.74-2.37,17.05"/><path class="cls-5" d="M427.5,422.78a35.2,35.2,0,0,1-1,3.59c-.48,1.56-1.18,3.59-2.17,6l-.55,1.32c-1.31,3.12-3.19,6.18-3.81,9.25a67.91,67.91,0,0,0,1.29,30.88s.81,2.59,1.85,6c.63,2,1.35,4.36,2,6.6,1.54,5.09,1.45,13.65,1.45,19"/><path class="cls-5" d="M287.48,537l-3.06,1.52a1.91,1.91,0,0,1-2.5-.63l0,0a1.91,1.91,0,0,1,.42-2.47c.07-.06.14-.1.21-.15l10.1-6.17"/><path class="cls-5" d="M315.26,515.08c-2.67,2.61-5.16,5-6.95,6.53l-.74,1.17a26.08,26.08,0,0,1-10.35,9.33L287.48,537"/><path class="cls-5" d="M350.06,430.19s4.37,31.54.15,41.91-6.48,15.71-19.65,27.53c0,0-8.26,8.56-15.29,15.45"/><path class="cls-5" d="M287.48,528.62l-6.59,4.66-1.79,1.27-5.38,3.8a1.82,1.82,0,0,0-.59,2.29,1.71,1.71,0,0,0,.13.23,1.81,1.81,0,0,0,1.52.81,1.85,1.85,0,0,0,.91-.24l6.23-3.59"/><path class="cls-5" d="M279.18,534.53l-.08,0L272.25,536l-3-.3a2.33,2.33,0,0,0-2.54,1.88,2.25,2.25,0,0,0,0,.44,2.34,2.34,0,0,0,2.17,2.34l4.28.31"/><polyline class="cls-5" points="280.89 533.33 280.89 533.28 281.23 529.35 281.38 527.56"/><path class="cls-5" d="M281.22,529.35l-7.07-2.5a2.18,2.18,0,0,1-1.46-2.06v-6.17a2.16,2.16,0,0,1,.23-1l1.43-2.9a1.76,1.76,0,0,1,2-.91l.27.09a1.77,1.77,0,0,1,1,1.61,1.69,1.69,0,0,1,0,.38l-.12.52-.5,2.22a1.94,1.94,0,0,0,0,.54l.26,2.93a1.75,1.75,0,0,0,1.75,1.6h1.31a2.05,2.05,0,0,0,1.54-.69l1.62-1.82a2.05,2.05,0,0,0,.52-1.37v-1.78h0"/><polyline class="cls-5" points="286.1 518.6 283.98 518.07 277.52 516.44"/><path class="cls-5" d="M276.4,513.81v-.21a1.8,1.8,0,0,1,1.92-1.8l3.31.23a28.5,28.5,0,0,0,6.46-.31,28.13,28.13,0,0,1,11,.38q.81.18,1.62.42l.7.21"/><path class="cls-5" d="M400.05,365.14c-.24,6.34-1,12.5,2.73,14.62,2.18,1.22,9.6,4,16.82,5.79,2,.52,4.06,1,5.95,1.27,0,0,9.68.73,14.43,11.29s1,26.64,1.71,45.23c0,0,.14,18.67,2.22,22.82S451,476,457.24,487.23,476,512,476,512"/><path class="cls-5" d="M419.47,386.07a182.84,182.84,0,0,0,1,22.39c.94,7.93,2.72,15.48,6,17.91"/><path class="cls-5" d="M424.36,432.4s-3.15,32.06,1.07,42.43,5.9,13,19.07,24.8c0,0,15.72,16.3,22.25,22l.74,1.17a24.85,24.85,0,0,0,1.81,2.5,25.92,25.92,0,0,0,8.54,6.83l12.8,6.37a1.91,1.91,0,0,0,2.5-.63l0,0a1.88,1.88,0,0,0,.28-1,1.9,1.9,0,0,0-.91-1.63L482.44,529"/><path class="cls-5" d="M487.58,528.62l6.59,4.66,1.79,1.27,5.38,3.8a1.82,1.82,0,0,1,.59,2.29,1.71,1.71,0,0,1-.13.23,1.81,1.81,0,0,1-1.52.81,1.85,1.85,0,0,1-.91-.24l-6.23-3.59"/><path class="cls-5" d="M495.88,534.53l.08,0,6.85,1.43,3-.3a2.33,2.33,0,0,1,2.54,1.88,2.25,2.25,0,0,1,0,.44,2.34,2.34,0,0,1-2.17,2.34l-4.28.31"/><polyline class="cls-5" points="494.17 533.33 494.17 533.28 493.83 529.35 493.68 527.56"/><path class="cls-5" d="M493.84,529.35l7.07-2.5a2.18,2.18,0,0,0,1.46-2.06v-6.17a2.16,2.16,0,0,0-.23-1l-1.43-2.9a1.76,1.76,0,0,0-2-.91l-.27.09a1.77,1.77,0,0,0-1,1.61,1.69,1.69,0,0,0,0,.38l.12.52.5,2.22a1.94,1.94,0,0,1,0,.54l-.26,2.93a1.75,1.75,0,0,1-1.75,1.6h-1.31a2.05,2.05,0,0,1-1.54-.69l-1.62-1.82a2.05,2.05,0,0,1-.52-1.37v-1.78h0"/><polyline class="cls-5" points="488.96 518.6 491.08 518.07 497.54 516.44"/><path class="cls-5" d="M498.66,513.81v-.21a1.8,1.8,0,0,0-1.92-1.8l-3.31.23a28.5,28.5,0,0,1-6.46-.31,28.13,28.13,0,0,0-11,.38q-.81.18-1.62.42l-.7.21"/><polyline class="cls-5" points="329.1 511.35 315.27 515.08 315.26 515.08"/><path class="cls-5" d="M404.45,525.26c13.09-4.67,15-6.69,20.87-8.62,2.49-.81,4.67-1.62,6.4-2.29a13.94,13.94,0,0,1,8.95-.42l9.41,2.71a4.4,4.4,0,0,0-1.48-5.13,18.85,18.85,0,0,0-4.17-2.4l-4.35-3.69a7.77,7.77,0,0,0-6.89-1.62l-6.57,1.61A22.63,22.63,0,0,1,409.8,503L405,500.17a8.71,8.71,0,0,0-13,6.07l-.17,1a8.71,8.71,0,0,1-5.63,6.74c-1,.35-2.05.72-3.25,1.09-.94.3-1.94.6-3,.89a69,69,0,0,1-18,2.64,74.35,74.35,0,0,0-8.93.55,98.35,98.35,0,0,0-28.51,8.19,17.8,17.8,0,0,0-6.09,4.58,35.73,35.73,0,0,1-3.11,3.23"/><path class="cls-5" d="M287.48,537h0l-.6,4.77a15.17,15.17,0,0,0,7.9,15.32,15.42,15.42,0,0,0,6.38,1.78,94,94,0,0,0,39.31-6.46c14.88-5.92,28-12.06,39.45-17.22,4.09-1.84,8-3.55,11.67-5.08,3.45-1.42,6.72-2.69,9.84-3.76l2.95-1,.05,0"/><path class="cls-5" d="M353,519.15s-4.18-9.57-12.5-8.91l-5.39,1.91a1.26,1.26,0,0,1-1.62-.77,4.53,4.53,0,0,1-.25-1.49,4.57,4.57,0,0,1,.43-1.93,4.43,4.43,0,0,1,2.09-2.12l5.51-1.83a13.11,13.11,0,0,1,6.27-2.37,7.54,7.54,0,0,1,5.16,1.47c4.56,3.39,6.19,8.34,14.66,6s15.14-.05,15.61,6h0"/><path class="cls-5" d="M333.65,508h0l-2.71.69a2.08,2.08,0,0,0-1.55,2.32l.05.33.11.74,3.92-.66"/><path class="cls-5" d="M379.92,535.15s15.65,7.88,35.41,17.22c15.2,7.18,33,11.54,40.36,13.17a23.11,23.11,0,0,0,26-12.84l.06-.11a17.19,17.19,0,0,0-1.14-16l-2.73-4.49"/><line class="cls-5" x1="450.08" y1="516.64" x2="469.3" y2="525.28"/><path class="cls-5" d="M404.38,525.28l.05,0h0c1.26-.38,20.16-5.77,39.33,8.07l8.65,5.38"/><path class="cls-5" d="M379.92,516h0c.25,0,4.79.2,11.66,14.1"/><path class="cls-5" d="M353.07,477.8s25.75,11.35,70.07,2.05h0"/></svg>