<svg id="Layer_1" data-name="Layer 1" xmlns="http://www.w3.org/2000/svg" viewBox="0 0 700 700"><defs><style>.cls-1{fill:#392328;}.cls-2{fill:#feae63;}.cls-3{fill:#99abcc;}.cls-4{fill:#c4e7f9;}.cls-5{fill:none;stroke:#000;stroke-linecap:round;stroke-linejoin:round;stroke-width:2.3px;}</style></defs><title>Yoga_poses_2020_color</title><path class="cls-1" d="M539.17,287.94l-.88,1.11s-10.11-2.51-12.32-3.22c-4.38-1.4-6.67,1.26-11.08,2s-8-1.22-9.37-3.15c0,0-.11-6-5.23-3.13A8.36,8.36,0,0,0,499,283l-.13-.08s-6-2-9.1,1.07c-.48.47-1,.91-1.42,1.31h0c-4.71,2.83-6.57-1.33-4.5-8.83,2.3-8.37,11.17-14.7,11.17-14.7a27.76,27.76,0,0,1,16-5.53,19.85,19.85,0,0,1,4.71.39c.9.27,1.77.56,2.6.87C532.75,262.84,536.41,273.76,539.17,287.94Z"/><path class="cls-2" d="M499,283a8.36,8.36,0,0,1,1.25-1.43c5.12-2.89,5.23,3.13,5.23,3.13,1.36,1.93,5,3.92,9.37,3.15s6.7-3.43,11.08-2c2.21.71,12.32,3.22,12.32,3.22l-1.15,1.44s-3.92,8-8.16,11.42c-3.34,2.65-4.73,2.07-5.54,5.28l-2.5,5.44-4-3.22-8.38,5.64c-.44.83-4.79,6.4-10.3-3.1,0,0-4.1-5.09-5.21-4.33,0,0-8.2,7.38-14.2,9.38h-.72c.19-29.12-32.28-9.71-32.28-9.71S438,303,435.36,300.73l-.48-.88c6.18-3.35,11.17-6,14-7.22,10.44-4.7,21.36-2.67,25.29-1.68a7.3,7.3,0,0,0,3.32.05,23.32,23.32,0,0,0,10.92-5.68h0c.46-.4.94-.84,1.42-1.31,3.13-3,9.1-1.07,9.1-1.07Zm23.79,18.64c1.17-.84,1.82-1.93,1.46-2.44s-1.61-.23-2.78.6-1.82,1.93-1.46,2.44S521.66,302.49,522.83,301.65Z"/><path class="cls-2" d="M531.07,451.72a1.58,1.58,0,0,1-.22,3.14h0l-8.48-.1c-2.33-1.36-8.22-2-12.25-3.14a57.27,57.27,0,0,1-9.85-4.42Z"/><path d="M524.29,299.21c.36.51-.29,1.6-1.46,2.44s-2.41,1.11-2.78.6.29-1.6,1.46-2.44S523.92,298.71,524.29,299.21Z"/><path class="cls-2" d="M522.35,454.76c1,.62,1.37,1.38.46,2.39-2.94,3.26-16.62,3.59-23.9,3.26s-12.59-2.28-26.28-1.3-12.7-6.52-10.75-17.27a46.31,46.31,0,0,0,.3-11.16c8.77.9,19-1.46,19-1.46h0c1.56,8,4.55,9.4,7,11,1.16.74,3.24,2,5.73,3.48,1.92,1.13,4.09,2.36,6.25,3.51a57.27,57.27,0,0,0,9.85,4.42C514.13,452.74,520,453.4,522.35,454.76Z"/><path class="cls-1" d="M521.23,246.71c2.81,7-2.63,10.18-2.63,10.18l-.23.63c-.83-.31-1.7-.6-2.6-.87a19.85,19.85,0,0,0-4.71-.39v-.11c-8.9-.95-7.93-9.13-5.46-11.7C509.06,240.86,518.43,239.69,521.23,246.71Z"/><path class="cls-2" d="M492.18,431.42,494,443.69c-2.49-1.45-4.57-2.74-5.73-3.48-2.5-1.59-5.49-3-7-11a75.85,75.85,0,0,1-1.09-14.42c0-18.89,1.55-37.77,1.89-47.88,0,0,2.67,15.63,6.58,25.08S489.57,413.5,492.18,431.42Z"/><path class="cls-3" d="M403.27,343.57c13.28-3.35,32.2-8.11,43.18-10.79l3.05-.75,1.31-.31c15-3.58,21.17-3.58,28,5.87s3.27,17.27,3.27,26.06c0,1,0,2.05-.06,3.27-.34,10.11-1.89,29-1.89,47.88a75.85,75.85,0,0,0,1.09,14.42h0s-10.26,2.36-19,1.46a126.92,126.92,0,0,0-2.9-18.16c-10.76-39.42-4.89-47.24-4.89-47.24s-4.24.65-24.76,11.73-34.86,15-34.86,15c-2.41.44-4.7.79-6.87,1.07-26.27,3.37-35.09-4.59-38.53-13.67a36.5,36.5,0,0,1-1.84-7.28c-2-12.05,15.64-30.95,21.83-34.86,1.41-.89,5.62-3.39,11.44-6.77C398.1,329.9,403.27,343.57,403.27,343.57Z"/><path class="cls-2" d="M478.09,317.21a27.52,27.52,0,0,1,1.38,9c-.32,9.12-.66,11.4-.66,11.4-6.83-9.45-13-9.45-28-5.87l-1.31.31-3.05.75c-5.65-15.88-.64-25.49-.64-25.49s32.47-19.41,32.28,9.71Z"/><path class="cls-4" d="M445.81,307.29s-5,9.61.64,25.49c-11,2.68-29.9,7.44-43.18,10.79,0,0-5.17-13.67-22.47-13.08,14.24-8.3,38.11-22,54.08-30.64l.48.88C438,303,445.81,307.29,445.81,307.29Z"/><path class="cls-3" d="M387.9,393.07s-11,19.78-40,39.65c0,0-15.64,8.14-20.86,11.08s-14,9.77-19.87,10.1-25.41-4.89-63.2-4.24c0,0-7,.17-15.07.64l0-.53a38.1,38.1,0,0,1,.44-16.07l-.09-.51c3.75-.67,8.3-1.63,13.74-3,21.37-5.49,24.77-6.62,46-3.78,0,0,12.1,2.45,23.82-11.73s36.68-35.25,36.68-35.25C352.81,388.48,361.63,396.44,387.9,393.07Z"/><path class="cls-2" d="M229.18,433.19l.09.51a38.1,38.1,0,0,0-.44,16.07l0,.53c-7.63.46-16.15,1.18-20.44,2.29,0,0-5.2.87-10.12,1.32s-6.81,1.58-18.91,1.2c-7.89-.24-13.53-.13-16.5,0a2.34,2.34,0,0,1-.45-4.64l4.85-.81A8.47,8.47,0,0,1,173,444.9c4.16-.94,14.18,0,20.42-9.26s7.76-10,16.07-4.92l4.54,3.79S218.19,435.14,229.18,433.19Z"/><path class="cls-5" d="M505.52,284.71s-.11-6-5.23-3.13A8.36,8.36,0,0,0,499,283a8,8,0,0,0-1.18,7.42s1.51,2.85,3.28-.68"/><path class="cls-5" d="M495.82,295s-3.69,3.88-1.46,8.11"/><path class="cls-5" d="M538.29,289.05s-10.11-2.51-12.32-3.22c-4.38-1.4-6.67,1.26-11.08,2s-8-1.22-9.37-3.15"/><path class="cls-5" d="M488.38,285.32c-4.71,2.83-6.57-1.33-4.5-8.83,2.3-8.37,11.17-14.7,11.17-14.7"/><path class="cls-5" d="M518.6,256.89s5.44-3.15,2.63-10.18-12.17-5.85-15.63-2.26c-2.47,2.57-3.44,10.75,5.46,11.7"/><path class="cls-5" d="M495.05,261.79a27.76,27.76,0,0,1,16-5.53,19.85,19.85,0,0,1,4.71.39c.9.27,1.77.56,2.6.87,14.38,5.32,18,16.24,20.8,30.42l-.88,1.11-1.15,1.44s-3.92,8-8.16,11.42c-3.34,2.65-4.73,2.07-5.54,5.28l-2.5,5.44-4-3.22-8.38,5.64c-.44.83-4.79,6.4-10.3-3.1,0,0-4.1-5.09-5.21-4.33,0,0-8.2,7.38-14.2,9.38"/><path class="cls-5" d="M498.91,282.93s-6-2-9.1,1.07c-.48.47-1,.91-1.42,1.31h0A23.32,23.32,0,0,1,477.46,291a7.3,7.3,0,0,1-3.32-.05c-3.93-1-14.85-3-25.29,1.68-2.8,1.26-7.79,3.87-14,7.22-16,8.67-39.84,22.34-54.08,30.64-5.82,3.38-10,5.88-11.44,6.77-6.19,3.91-23.79,22.81-21.83,34.86a36.5,36.5,0,0,0,1.84,7.28c3.44,9.08,12.26,17,38.53,13.67,2.17-.28,4.46-.63,6.87-1.07,0,0,14.33-3.91,34.86-15s24.76-11.73,24.76-11.73-5.87,7.82,4.89,47.24a126.92,126.92,0,0,1,2.9,18.16,46.31,46.31,0,0,1-.3,11.16c-1.95,10.75-2.93,18.25,10.75,17.27s19,1,26.28,1.3,21,0,23.9-3.26c.91-1,.59-1.77-.46-2.39-2.33-1.36-8.22-2-12.25-3.14a57.27,57.27,0,0,1-9.85-4.42c-2.16-1.15-4.33-2.38-6.25-3.51-2.49-1.45-4.57-2.74-5.73-3.48-2.5-1.59-5.49-3-7-11a75.85,75.85,0,0,1-1.09-14.42c0-18.89,1.55-37.77,1.89-47.88,0-1.22.06-2.32.06-3.27,0-8.79,3.57-16.61-3.27-26.06s-13-9.45-28-5.87l-1.31.31-3.05.75c-11,2.68-29.9,7.44-43.18,10.79l-15,3.79"/><path class="cls-5" d="M403.27,343.57s-5.17-13.67-22.47-13.08"/><polyline class="cls-5" points="447.87 321.3 449.5 332.03 449.5 332.04"/><path class="cls-5" d="M473.61,307.29a46.57,46.57,0,0,1,4.48,9.92,27.52,27.52,0,0,1,1.38,9c-.32,9.12-.66,11.4-.66,11.4"/><path class="cls-5" d="M482,366.92s2.67,15.63,6.58,25.08,1,21.5,3.58,39.42L494,443.69"/><path class="cls-5" d="M500.25,447.2l30.82,4.52a1.58,1.58,0,0,1-.22,3.14h0l-8.48-.1"/><path class="cls-5" d="M387.9,393.07s-11,19.78-40,39.65c0,0-15.64,8.14-20.86,11.08s-14,9.77-19.87,10.1-25.41-4.89-63.2-4.24c0,0-7,.17-15.07.64-7.63.46-16.15,1.18-20.44,2.29,0,0-5.2.87-10.12,1.32s-6.81,1.58-18.91,1.2c-7.89-.24-13.53-.13-16.5,0a2.34,2.34,0,0,1-.45-4.64l4.85-.81A8.47,8.47,0,0,1,173,444.9c4.16-.94,14.18,0,20.42-9.26s7.76-10,16.07-4.92l4.54,3.79s4.2.63,15.19-1.32c3.75-.67,8.3-1.63,13.74-3,21.37-5.49,24.77-6.62,46-3.78,0,0,12.1,2.45,23.82-11.73s36.68-35.25,36.68-35.25"/><path class="cls-5" d="M481.21,429.22s-10.26,2.36-19,1.46h0"/><path class="cls-5" d="M229.27,433.7a38.1,38.1,0,0,0-.44,16.07"/><path class="cls-5" d="M446.45,332.78c-5.65-15.88-.64-25.49-.64-25.49S438,303,435.36,300.73"/><path class="cls-5" d="M445.81,307.29s32.47-19.41,32.28,9.71v.21"/></svg>