<svg id="Layer_1" data-name="Layer 1" xmlns="http://www.w3.org/2000/svg" viewBox="0 0 700 700"><defs><style>.cls-1{fill:#99abcc;}.cls-2{fill:#c4e7f9;}.cls-3{fill:#feae63;}.cls-4{fill:#120c0c;}.cls-5{fill:none;stroke:#000;stroke-linecap:round;stroke-linejoin:round;stroke-width:2.3px;}</style></defs><title>Yoga_poses_2020_color</title><path class="cls-1" d="M256.82,440c.59-.24,19.5-8.13,36.82-12.2,17.59-4.13,17.81-24,40-32.84a79.34,79.34,0,0,1,18.46-3.43c13.6,35.11,40.61,35.49,41.38,35.49h0c1.83-2.32,3.42-4.57,4.81-6.68h0c.78.07,35.64,3.09,51.75,10.17,16.29,7.17,26.06,6.85,27.36,18.57S467,467,458.81,468.65c-7.3,1.46-52.3,3.44-71.63,5.25,5.89-12.67,0-19.67,0-19.67h0c-5.23,1.9-8.22,3.13-12.06-2-4.84-6.45-9.38-4.87-9.38-4.87-4.57,1.24-5.93,3.88-6.83,6.63h0a21.06,21.06,0,0,0-11.4-1.41,168.45,168.45,0,0,0-44.09,12.16c-16.55,7-54.76,13.52-72.49,9a12.53,12.53,0,0,1-9.32-10.8l-.77-7.05a12.65,12.65,0,0,1,1.13-6.75c4.17-8.81,16.2-33.75,27.35-51.82a91.6,91.6,0,0,0,5.19-9.73c.91-2,2-4.32,3.09-6.85,10.86,2.33,15.9,7.78,15.9,7.78-.3,1-.6,2.07-.92,3.24C270.15,400.71,264.65,424.17,256.82,440Z"/><path class="cls-2" d="M422.65,349.74c2.61,9.77,1,18.57-3.91,24.11s-10.4,27.36-12.86,32.58a104.8,104.8,0,0,1-7.61,13.93h0c-1.39,2.11-3,4.36-4.81,6.68h0c-.77,0-27.78-.38-41.38-35.49,0,0,8.26-12.38-3.25-33.23,16.5,5,22-15.42,22-15.42s32.33,3.21,39.72-8.95l9,4.24C420.69,342.56,421.81,346.56,422.65,349.74Z"/><path class="cls-3" d="M419.52,338.19l-9-4.24s-8.73-17.49-16-26.86l1-2.93c9.28.47,9.26-6.73,9.26-6.73.27-7.19,2.25-18.15.28-22.24s-.72-6.75-1.61-8.84-1.48-3.37-1.48-3.37c-.31-.79-.61-1.52-.9-2.2-.17-4.54,1.09-11.06,2.51-17.79-2,.89-6.37,2.68-9.91,4-4.12-5.13-11.7-9.89-26.69-1.74a34.09,34.09,0,0,0-5.11,3.84c-.16.17-.36.39-.59.66l-1.44-.11a14.4,14.4,0,0,0-4.84-.85l3.21-3.11a5.18,5.18,0,0,1,1.48-1c5.71-2.61,39.26-17.92,46.23-21,5.49-2.43,7.65-4.56,11.88,2s.33,44.06-2.93,59.17-1.95,13.36-1,25.48C414.51,318.44,417.11,329.11,419.52,338.19Z"/><path class="cls-3" d="M394.5,307.09c7.26,9.37,16,26.86,16,26.86-7.39,12.16-39.72,8.95-39.72,8.95C363.93,323.13,357,313.13,357,313.13a23.35,23.35,0,0,0,9.52-3.61,5.11,5.11,0,0,0,2.2-4L369,294l.09-.27a9,9,0,0,0,.87.26s1.37.12,1.79-.73l.34.29s3.68,8.2,7.87,8.64l15.49,2Z"/><path class="cls-3" d="M368,283.57h0c7.18-3.74,9.74-19.75,9.74-19.75,3.15-10.05,11.88-13.08,17.09-11.95a.56.56,0,0,0,.47-.07s2.34,1.07,5.74,9c.29.68.59,1.41.9,2.2,0,0,.59,1.28,1.48,3.37s-.36,4.74,1.61,8.84,0,15.05-.28,22.24c0,0,0,7.2-9.26,6.73l-15.49-2c-4.19-.44-7.87-8.64-7.87-8.64l-.34-.29c-.42.85-1.79.73-1.79.73a9,9,0,0,1-.87-.26,8,8,0,0,1-4.19-3.48h0a9.52,9.52,0,0,1-1.22-3.25C363.93,282.87,366.41,283,368,283.57Zm32.34-8.49c.64,0,1.09-1.25,1-2.73s-.66-2.64-1.3-2.6-1.09,1.25-1,2.73S399.69,275.12,400.33,275.08Zm-11.72,4.28c.69,0,1.19-1.37,1.1-3s-.72-2.88-1.42-2.85-1.19,1.38-1.11,3S387.91,279.4,388.61,279.36Z"/><path class="cls-4" d="M401.34,272.35c.08,1.48-.37,2.7-1,2.73s-1.22-1.13-1.3-2.6.37-2.7,1-2.73S401.26,270.88,401.34,272.35Z"/><path class="cls-4" d="M394.43,248c1.16,1.63,1.45,3.37.86,3.75a.56.56,0,0,1-.47.07c-5.21-1.13-13.94,1.9-17.09,11.95,0,0-2.56,16-9.74,19.75h0c-1.58-.54-4.06-.7-4.29,3.37a9.52,9.52,0,0,0,1.22,3.25c-6.27-5.7-9.32-11.4-10.45-16.66-.18-.88-.31-1.75-.4-2.61a23.52,23.52,0,0,1,0-4.82,31.17,31.17,0,0,1,7.17-16.36c.23-.27.43-.49.59-.66a34.09,34.09,0,0,1,5.11-3.84c15-8.15,22.57-3.39,26.69,1.74C393.91,247.33,394.18,247.69,394.43,248Z"/><path class="cls-4" d="M389.71,276.38c.09,1.61-.41,2.95-1.1,3s-1.34-1.23-1.43-2.84.41-2.95,1.11-3S389.62,274.77,389.71,276.38Z"/><path class="cls-3" d="M387.18,454.23s5.89,7,0,19.67c-2.24.21-4.13.42-5.58.62-13.41,1.87-29.16-1.7-34.4.28a2.28,2.28,0,0,0-1,.75,7.5,7.5,0,0,0-1.47,3.08c-.12.8.27,1.27-.76,1.72l-.17,0a3.62,3.62,0,0,1-4.69-4,6.85,6.85,0,0,1,2.83-4.72s.18-7.4,9.92-9.38c5.47-1.12,5.89-4.82,7.06-8.35.9-2.75,2.26-5.39,6.83-6.63,0,0,4.54-1.58,9.38,4.87,3.84,5.12,6.83,3.89,12.06,2Z"/><path class="cls-3" d="M357,313.13s6.89,10,13.73,29.77c0,0-5.46,20.41-22,15.42-11.52-20.85-15.43-19.77-22.81-17.6s-29.27,6.38-39.5,5.36c.23-1.44.59-3.05,1.06-4.92a22.88,22.88,0,0,1,6.79-11.86,3.17,3.17,0,0,0,.32-4.44c14.33-1.31,27.64-9.33,36.43-11.73S357,313.13,357,313.13Z"/><path class="cls-4" d="M359.8,249.63l1.44.11a31.17,31.17,0,0,0-7.17,16.36h-.13c-.36.17-.73.35-1.12.52l-.23-.52a8.62,8.62,0,0,1-6-8.66,11,11,0,0,1,.68-3.18,7.75,7.75,0,0,1,7.68-5.47A14.4,14.4,0,0,1,359.8,249.63Z"/><path class="cls-3" d="M354.07,270.92c.09.86.22,1.73.4,2.61a37.1,37.1,0,0,1-2.41,3.56c-1.41,1.84-2.17,6.2-2.17,6.2l-.1.52a8.4,8.4,0,0,1-1.94,3.91,2.17,2.17,0,0,1-1.64.74,1.77,1.77,0,0,1-.32,0,2.18,2.18,0,0,1-1.86-2.16,12.8,12.8,0,0,1,.34-3l2.53-10.9A24,24,0,0,0,354.07,270.92Z"/><path class="cls-3" d="M353.94,266.09h.13a23.52,23.52,0,0,0,0,4.82,24,24,0,0,1-7.17,1.5,5.69,5.69,0,0,1-2.18-.38l-2.09,2.56a3.62,3.62,0,0,0-.58,1l-1.7,4.34-.73-.29a1.86,1.86,0,0,0,.14-.7v-3.21a3.84,3.84,0,0,1,.36-1.63l1.57-3.36a3.94,3.94,0,0,1,1.56-1.7c3.27.08,6.81-1.18,9.57-2.42C353.21,266.44,353.58,266.26,353.94,266.09Z"/><path class="cls-3" d="M352.59,266.09l.23.52c-2.76,1.24-6.3,2.5-9.57,2.42a3.94,3.94,0,0,0-1.56,1.7l-1.57,3.36a3.84,3.84,0,0,0-.36,1.63v3.21a1.86,1.86,0,0,1-.14.7c-.49.69-.62.79-.76.87a1.81,1.81,0,0,1-2.71-1.31l0-.38h0l-.57-3.94a4,4,0,0,1,0-1,4.22,4.22,0,0,1,.27-1l2-4.85a3.71,3.71,0,0,1,.62-1l8.14-9.54h0A8.62,8.62,0,0,0,352.59,266.09Z"/><path class="cls-3" d="M336.1,278.81l0,.38a1.81,1.81,0,0,0,2.71,1.31c.14-.08.27-.18.76-.87l.73.29,0,.1.94.52a2,2,0,0,1,1,.26,1.93,1.93,0,0,1,.62,2.77l-2.91,4.18-.07.1a12.37,12.37,0,0,1-3.19,3.1c-.18.12-.36.24-.55.35l-.11.06c-.61.37-1.25.73-1.89,1.08s-1.27.69-1.88,1l-.91.47-.54.28-.73.36-1.11.54-.8.39-.34.16-.71.33c3-.28,4.6.58,8.29-1.53,3.41-1.33,5.09.25,5.86,1.56a1,1,0,0,1-.68,1.49,10.94,10.94,0,0,0-4.81,2.23c-.43.44-2.12.76-2.67,1l-6.19,2.05c-6.68.49-13.54.82-15.82,2.45S291.55,323.45,291,324h0c-10.35,4.41-16.32,12.94-20.2,21.51,0,0-4.46-2.42-5.79-6.28a4.24,4.24,0,0,1,.31-3.43c2.38-4.34,11.46-19.13,32.88-36.87l5.37-5s6.4-7.35,10.9-10.78a30.12,30.12,0,0,0,4.57-4.24c1.58-1.82,4.85-5.06,7.2-6a1.65,1.65,0,0,1,2,.55l0,0a1.69,1.69,0,0,1-.28,2.29c-1.48,1.24-4.94,4.33-6.14,5.53,0,0,1.79,2,7.44-1.5,1.82-1.12,2.46-2.57,3.69-4.27l.36-.77a1.8,1.8,0,0,1,2.07-1l.14,0a4,4,0,0,0,0,1l.57,3.94Z"/><path class="cls-3" d="M294.67,324.86a3.17,3.17,0,0,1-.32,4.44,22.88,22.88,0,0,0-6.79,11.86c-.47,1.87-.83,3.48-1.06,4.92-1.08,6.57.37,9.49,5.18,16.8,5.87,8.9-2.17,11.51-8,13-5.33,1.38-7.25,2.76-10.16,12.61,0,0-5-5.45-15.9-7.78,2.69-6.12,5.67-13.29,7.38-18.73a140.19,140.19,0,0,1,5.83-16.52c3.88-8.57,9.85-17.1,20.2-21.51h0A3.2,3.2,0,0,1,294.67,324.86Z"/><path class="cls-5" d="M336.66,291c.68-.41,1.32-.83,1.89-1.24l1.3-1.86"/><path class="cls-5" d="M334.11,292.44c.64-.35,1.28-.71,1.89-1.08"/><path class="cls-5" d="M330.78,294.2l.54-.28.91-.47"/><path class="cls-5" d="M328.94,295.1l1.11-.54"/><path class="cls-5" d="M327.8,295.65l.34-.16"/><line class="cls-5" x1="335.52" y1="273.82" x2="335.38" y2="273.8"/><line class="cls-5" x1="341.25" y1="280.54" x2="340.31" y2="280.02"/><line class="cls-5" x1="339.62" y1="279.63" x2="340.35" y2="279.92"/><line class="cls-5" x1="346.6" y1="257.43" x2="346.59" y2="257.43"/><line class="cls-5" x1="369.12" y1="293.68" x2="369.03" y2="293.95"/><line class="cls-5" x1="372.12" y1="293.5" x2="371.78" y2="293.21"/><line class="cls-5" x1="387.18" y1="454.22" x2="387.18" y2="454.23"/><line class="cls-5" x1="358.9" y1="453.99" x2="358.91" y2="453.99"/><line class="cls-5" x1="353.94" y1="266.09" x2="354.07" y2="266.1"/><line class="cls-5" x1="352.59" y1="266.09" x2="352.82" y2="266.61"/><line class="cls-5" x1="361.24" y1="249.74" x2="359.8" y2="249.63"/><line class="cls-5" x1="367.99" y1="283.57" x2="367.99" y2="283.56"/><path class="cls-5" d="M352.59,266.09a8.62,8.62,0,0,1-6-8.66,11,11,0,0,1,.68-3.18,7.75,7.75,0,0,1,7.68-5.47,14.4,14.4,0,0,1,4.84.85"/><path class="cls-5" d="M396.17,274.86a4.07,4.07,0,0,0,1.33,3.58l3.06,4.76L396,284.78"/><path class="cls-5" d="M395.29,251.79s2.34,1.07,5.74,9c.29.68.59,1.41.9,2.2,0,0,.59,1.28,1.48,3.37s-.36,4.74,1.61,8.84,0,15.05-.28,22.24c0,0,0,7.2-9.26,6.73l-15.49-2c-4.19-.44-7.87-8.64-7.87-8.64"/><path class="cls-5" d="M364.92,290.19c-6.27-5.7-9.32-11.4-10.45-16.66-.18-.88-.31-1.75-.4-2.61a23.52,23.52,0,0,1,0-4.82,31.17,31.17,0,0,1,7.17-16.36c.23-.27.43-.49.59-.66a34.09,34.09,0,0,1,5.11-3.84c15-8.15,22.57-3.39,26.69,1.74.28.35.55.71.8,1.06,1.16,1.63,1.45,3.37.86,3.75a.56.56,0,0,1-.47.07c-5.21-1.13-13.94,1.9-17.09,11.95,0,0-2.56,16-9.74,19.75"/><path class="cls-5" d="M369.3,284.16a6.79,6.79,0,0,0-1.31-.59c-1.58-.54-4.06-.7-4.29,3.37a9.52,9.52,0,0,0,1.22,3.25h0a8,8,0,0,0,4.19,3.48,9,9,0,0,0,.87.26s1.37.12,1.79-.73c.23-.47.18-1.23-.56-2.47"/><path class="cls-5" d="M369,294l-.27,11.55a5.11,5.11,0,0,1-2.2,4,23.35,23.35,0,0,1-9.52,3.61s-17.14-2.39-25.94,0-22.1,10.42-36.43,11.73"/><polyline class="cls-5" points="395.48 304.16 394.5 307.09 391.41 316.36"/><path class="cls-5" d="M398.27,420.36a104.8,104.8,0,0,0,7.61-13.93c2.46-5.22,8-27.05,12.86-32.58s6.52-14.34,3.91-24.11c-.84-3.18-2-7.18-3.13-11.55-2.41-9.08-5-19.75-5.66-27.93-1-12.12-2.29-10.37,1-25.48s7.17-52.65,2.93-59.17-6.39-4.38-11.88-2c-7,3.08-40.52,18.39-46.23,21a5.18,5.18,0,0,0-1.48,1L355,248.78"/><path class="cls-5" d="M393.45,427c1.83-2.32,3.42-4.57,4.81-6.68"/><path class="cls-5" d="M380,441A94.85,94.85,0,0,0,393.44,427"/><path class="cls-5" d="M398.26,420.36h0c.78.07,35.64,3.09,51.75,10.17,16.29,7.17,26.06,6.85,27.36,18.57S467,467,458.81,468.65c-7.3,1.46-52.3,3.44-71.63,5.25-2.24.21-4.13.42-5.58.62-13.41,1.87-29.16-1.7-34.4.28a2.28,2.28,0,0,0-1,.75,7.5,7.5,0,0,0-1.47,3.08c-.12.8.27,1.27-.76,1.72l-.17,0a3.62,3.62,0,0,1-4.69-4,6.85,6.85,0,0,1,2.83-4.72s.18-7.4,9.92-9.38c5.47-1.12,5.89-4.82,7.06-8.35.9-2.75,2.26-5.39,6.83-6.63,0,0,4.54-1.58,9.38,4.87,3.84,5.12,6.83,3.89,12.06,2a51.43,51.43,0,0,1,7.24-2.17s41.22-12.84,59.72-1.58"/><path class="cls-5" d="M291,324a3.2,3.2,0,0,1,3.66.89,3.17,3.17,0,0,1-.32,4.44,22.88,22.88,0,0,0-6.79,11.86c-.47,1.87-.83,3.48-1.06,4.92-1.08,6.57.37,9.49,5.18,16.8,5.87,8.9-2.17,11.51-8,13-5.33,1.38-7.25,2.76-10.16,12.61-.3,1-.6,2.07-.92,3.24-2.42,8.95-7.92,32.41-15.75,48.26"/><path class="cls-5" d="M358.9,454a21.06,21.06,0,0,0-11.4-1.41,168.45,168.45,0,0,0-44.09,12.16c-16.55,7-54.76,13.52-72.49,9a12.53,12.53,0,0,1-9.32-10.8l-.77-7.05a12.65,12.65,0,0,1,1.13-6.75c4.17-8.81,16.2-33.75,27.35-51.82a91.6,91.6,0,0,0,5.19-9.73c.91-2,2-4.32,3.09-6.85,2.69-6.12,5.67-13.29,7.38-18.73a140.19,140.19,0,0,1,5.83-16.52c3.88-8.57,9.85-17.1,20.2-21.51"/><path class="cls-5" d="M256.81,440h0c.59-.24,19.5-8.13,36.82-12.2,17.59-4.13,17.81-24,40-32.84a79.34,79.34,0,0,1,18.46-3.43s8.26-12.38-3.25-33.23-15.43-19.77-22.81-17.6-29.27,6.38-39.5,5.36"/><path class="cls-5" d="M357,313.13s6.89,10,13.73,29.77c0,0,32.33,3.21,39.72-8.95,0,0-8.73-17.49-16-26.86"/><line class="cls-5" x1="410.49" y1="333.95" x2="419.52" y2="338.19"/><path class="cls-5" d="M370.77,342.9s-5.46,20.41-22,15.42"/><path class="cls-5" d="M350.33,347.67s-8.54-13.24-18.28-11.72"/><path class="cls-5" d="M270.8,345.49s-4.46-2.42-5.79-6.28a4.24,4.24,0,0,1,.31-3.43c2.38-4.34,11.46-19.13,32.88-36.87l5.37-5s6.4-7.35,10.9-10.78a30.12,30.12,0,0,0,4.57-4.24c1.58-1.82,4.85-5.06,7.2-6a1.65,1.65,0,0,1,2,.55l0,0a1.69,1.69,0,0,1-.28,2.29c-1.48,1.24-4.94,4.33-6.14,5.53,0,0,1.79,2,7.44-1.5,1.82-1.12,2.46-2.57,3.69-4.27l.36-.77a1.8,1.8,0,0,1,2.07-1"/><path class="cls-5" d="M336.1,278.81a27.3,27.3,0,0,1-8.25,7.29"/><path class="cls-5" d="M291,324h0c.54-.52,17.82-17.1,20.06-18.7s9.14-2,15.82-2.45l6.19-2.05c.55-.28,2.24-.6,2.67-1a10.94,10.94,0,0,1,4.81-2.23,1,1,0,0,0,.68-1.49c-.77-1.31-2.45-2.89-5.86-1.56-3.69,2.11-5.32,1.25-8.29,1.53l.71-.33.34-.16.8-.39c.33-.15.71-.34,1.11-.54l.73-.36.54-.28.91-.47c.61-.32,1.25-.65,1.88-1s1.27-.71,1.89-1.08l.11-.06c.19-.11.37-.23.55-.35a12.37,12.37,0,0,0,3.19-3.1l.07-.1,2.91-4.18a1.93,1.93,0,0,0-.62-2.77,2,2,0,0,0-1-.26,1.92,1.92,0,0,0-1.56.8,29.46,29.46,0,0,1-3.81,4.76,24.34,24.34,0,0,1-6.51,4.1"/><path class="cls-5" d="M346.59,257.43,338.45,267a3.71,3.71,0,0,0-.62,1l-2,4.85a4.22,4.22,0,0,0-.27,1,4,4,0,0,0,0,1l.57,3.94h0l0,.38a1.81,1.81,0,0,0,2.71,1.31c.14-.08.27-.18.76-.87a1.86,1.86,0,0,0,.14-.7v-3.21a3.84,3.84,0,0,1,.36-1.63l1.57-3.36a3.94,3.94,0,0,1,1.56-1.7c3.27.08,6.81-1.18,9.57-2.42.39-.17.76-.35,1.12-.52"/><path class="cls-5" d="M354.47,273.53a37.1,37.1,0,0,1-2.41,3.56c-1.41,1.84-2.17,6.2-2.17,6.2l-.1.52a8.4,8.4,0,0,1-1.94,3.91,2.17,2.17,0,0,1-1.64.74,1.77,1.77,0,0,1-.32,0,2.18,2.18,0,0,1-1.86-2.16,12.8,12.8,0,0,1,.34-3l2.53-10.9"/><path class="cls-5" d="M354.07,270.92a24,24,0,0,1-7.17,1.5,5.69,5.69,0,0,1-2.18-.38l-2.09,2.56a3.62,3.62,0,0,0-.58,1l-1.7,4.34,0,.1"/><path class="cls-5" d="M393.45,427h0c-.77,0-27.78-.38-41.38-35.49"/><path class="cls-5" d="M387.18,454.23s5.89,7,0,19.67"/><path class="cls-5" d="M273.49,388.52s-5-5.45-15.9-7.78"/><path class="cls-5" d="M401,260.78c-.17-4.54,1.09-11.06,2.51-17.79-2,.89-6.37,2.68-9.91,4"/><path class="cls-5" d="M256.81,440c-3.38,6.85-7.2,12.27-11.39,14.5"/></svg>