<svg id="Layer_1" data-name="Layer 1" xmlns="http://www.w3.org/2000/svg" viewBox="0 0 700 700"><defs><style>.cls-1{fill:#feae63;}.cls-2{fill:#99abcc;}.cls-3{fill:#c4e7f9;}.cls-4{fill:#392328;}.cls-5{fill:#231f20;}.cls-6{fill:none;stroke:#000;stroke-linecap:round;stroke-linejoin:round;stroke-width:2.3px;}</style></defs><title>Yoga_poses_2020_color</title><path class="cls-1" d="M595,409c2.18-.65,7.61,3.91,6.3,11.95s-6.08,12.6-3.47,26.28-.44,17.38-8.47,16.51-11.51-3.7-24.76-3.26c-1.59.05-3.34.14-5.22.26a121.69,121.69,0,0,0,0-19.37c6.09,0,13-2.18,19.55-11.3,0,0,9.12-11.51,9.12-13a12.26,12.26,0,0,0-3.86-8.05,2.9,2.9,0,0,1-.71-3.44,2.86,2.86,0,0,1,2.56-1.58,2.93,2.93,0,0,1,.87.14l3.68,1.19a2.87,2.87,0,0,1,1.76,1.65C592.78,408,593.63,409.38,595,409Z"/><path class="cls-2" d="M354.92,460.39a103.2,103.2,0,0,1-35.56,7.23c-14.76.46-72.76,0-72.76,0s-9.55.36-14.55-2-16.94.4-27.15,0c-7.71-.3-25.84-1.5-37.9-1.5-4.89-8.47,0-18.49,0-18.49,3.26-.78,6.05-1.55,7.6-1.81,5.22-.87,34.1-10.53,50.83-5.43a66.83,66.83,0,0,0,14.33,1.09c9.12-.11,18.16-.7,23.35-1.3,4-.47,36.82-4.56,46.26-9.78s7.5-3.91,9.13-10.53,12.59-13.68,20-13.79a18.72,18.72,0,0,0,7.08-5h0c.4.39,9,8.28,25.7,13.79,17.16,5.65,22.09-2.22,22.09-2.22l.08,0c-1.27,6.2-2.75,11.67-4.31,14.9,0,0,45.13,3.16,53.38,3.16h21.72c7.39,0,18.25,7.38,30.41,7.38s58.64,5.22,64.72,5.22a121.69,121.69,0,0,1,0,19.37c-13.78.86-34.27,3.23-45.17,3.12-12.38-.12-21.94.53-37.14-4.68s-35.62,5.21-59.3,6.08c-26.3,1-50-.76-63.08-3.75Z"/><path class="cls-3" d="M391.69,351c4.78,10.86,5.95,16.94,5.65,29.11a202.23,202.23,0,0,1-3.9,30.59l-.08,0s-4.93,7.87-22.09,2.22c-16.74-5.51-25.3-13.4-25.7-13.79a13.72,13.72,0,0,0,3.33-10.32c-.87-11.29-2.82-22.16-8.69-25.85-2.29-1.44-6.46-4.51-10.84-8,22.16,9.83,23.17-34.49,23.17-34.49s33.44,4.57,22.4-5.05c3.32,1.67,6.32,3.58,8.06,5.59C388.65,327.53,386.91,340.12,391.69,351Z"/><path class="cls-1" d="M308.16,289.28h-.1c-.12-.13-7.08-3.37-10.51-9.68a26,26,0,0,0-8.42-9.28l1.74-.59s7.55-4.53,12.88-5c4.16-.4,5,.85,7.38-1.37l5-3.14,1.63,4.81,9.92-.11c.81-.48,7.43-2.72,6.82,8.09a17.35,17.35,0,0,0,.11,6.25,9.38,9.38,0,0,0,2.37,4.4,37.63,37.63,0,0,1,8.47,14.13c2.11,8.23,13,11.27,13,11.27a110.52,110.52,0,0,1,16.53,6.36c11,9.62-22.4,5.05-22.4,5.05l-1.3-.73c-8.57-4.88-19.72-7.66-30-8.74l.08-.79a21,21,0,0,0,6.68-6.66c.11-.16.21-.32.31-.49a2.59,2.59,0,0,0-1.15-3.73,19.41,19.41,0,0,0-5.84-1.61c-2.9-.29-5.39-.51-8-2.47a7.5,7.5,0,0,1-1.43-1.44l-1.57-2.08C308.72,291.12,308.18,290.2,308.16,289.28Zm.6-18.81c1.42-.06,2.54-.6,2.52-1.22s-1.2-1.06-2.62-1-2.54.61-2.51,1.23S307.35,270.54,308.76,270.47Z"/><path class="cls-1" d="M288.24,318c-1.94-3-2.32-4.47-8.84-10.68-9.34-8.91-9.77-12.25-15.42-15.36s-13-6.7-27.58-22.61c0,0-11.73-12.64-16.73-15.25l-3.91-.25a10.12,10.12,0,0,1-5.71-2.22l-.65-.53h0l-3.73-3-4.13-1.61a3.53,3.53,0,0,0-3.11-.64h0l-14-1.5a1.6,1.6,0,0,1,.17-3.19h.07l4.76.21h0l-7-.64a2,2,0,0,1-1.8-2,2.83,2.83,0,0,1,0-.29,2,2,0,0,1,2.13-1.68l4.51.38-2.71-.31a2,2,0,0,1-1.73-2.25v-.06a2,2,0,0,1,2.12-1.69l7.74.6.05-.63v-.11a2.49,2.49,0,0,1,2.7-2.48c4.75.42,14.44,1.35,18.15,2.15,5,1.09,11.29,8,11.29,8s28.24,17.38,36.49,22.59,5.87,6.52,16.94,13.9a63.62,63.62,0,0,1,5.6,4.3c10.42,8.87,22.84,23.21,27.37,26.32,1.13.78,2.75,1.84,4.59,3h0c1.75.09,3.55.23,5.38.43,10.26,1.08,21.41,3.86,30,8.74l1.3.73s-1,44.32-23.17,34.49h0c-6.81-5.35-14.14-11.59-15.78-14-1.87-2.72-8.21-6.37-14.17-11a49.22,49.22,0,0,1-7.18-6.68A47.93,47.93,0,0,1,288.24,318Z"/><path class="cls-4" d="M327.18,299.33a2.59,2.59,0,0,1,1.15,3.73c-.1.17-.2.33-.31.49a21,21,0,0,1-6.68,6.66l-.08.79c-1.83-.2-3.63-.34-5.38-.43h0c-1.84-1.19-3.46-2.25-4.59-3-4.53-3.11-16.95-17.45-27.37-26.32l.34-.4a90.21,90.21,0,0,1,3.55-10.05l1.33-.44a26,26,0,0,1,8.42,9.28c3.43,6.31,10.39,9.55,10.51,9.68h.1c0,.92.56,1.84,2.22,2.45l1.57,2.08a7.5,7.5,0,0,0,1.43,1.44c2.57,2,5.06,2.18,8,2.47A19.41,19.41,0,0,1,327.18,299.33Z"/><path class="cls-5" d="M311.28,269.25c0,.62-1.1,1.16-2.52,1.22s-2.58-.38-2.61-1,1.1-1.16,2.51-1.23S311.25,268.64,311.28,269.25Z"/><path class="cls-4" d="M299.41,330l-.2.25a12.6,12.6,0,0,1-6.67-.66c-9-2.87-8.69-9.45-4.3-11.56a47.93,47.93,0,0,0,4,5.29A49.22,49.22,0,0,0,299.41,330Z"/><path class="cls-1" d="M205.66,248.11l3.73,3a15.47,15.47,0,0,1-2.8,1.73,4,4,0,0,1-5-1.89,3.28,3.28,0,0,0-1-1.17l-3.8-2.56a3.16,3.16,0,0,1,1.62-1.36h0l2,.22,1.08.42Z"/><path class="cls-1" d="M106.64,469.18a6.75,6.75,0,0,1-6.56,0l-2.91-1.63s1.52-2.93,4.13-1.52c0,0,1.63-3.37,4.24-4.67s13-6.19,16.83-10.1,6.3-10.32,11.73-12.71,8.25,0,12.16,6.41c2.75,4.5,13.05,2.57,20.74.72,0,0-4.89,10,0,18.49a68.22,68.22,0,0,0-9.23.45c-8.47,1.3-10.42,1.73-14.55,2.17s-13.25,3.47-17.16,3.69-19.33-1.09-19.33-1.09Z"/><path class="cls-6" d="M325.32,284.54s5.08-1.71,5.09-6.48"/><path class="cls-6" d="M309.57,286.17a5.32,5.32,0,0,0-1.41,3.11c0,.92.56,1.84,2.22,2.45a6.2,6.2,0,0,0,.76.24s5.43.34,7.77-4.61c0,0,.88-3.05-2.79-1.76"/><path class="cls-6" d="M289.12,270.32h0a26,26,0,0,1,8.42,9.28c3.43,6.31,10.39,9.55,10.51,9.68"/><path class="cls-6" d="M321.34,310.21a21,21,0,0,0,6.68-6.66c.11-.16.21-.32.31-.49a2.59,2.59,0,0,0-1.15-3.73,19.41,19.41,0,0,0-5.84-1.61c-2.9-.29-5.39-.51-8-2.47a7.5,7.5,0,0,1-1.43-1.44l-1.57-2.08"/><path class="cls-6" d="M284.25,280.82a90.21,90.21,0,0,1,3.55-10.05l1.33-.44,1.74-.59s7.55-4.53,12.88-5c4.16-.4,5,.85,7.38-1.37l5-3.14,1.63,4.81,9.92-.11c.81-.48,7.43-2.72,6.82,8.09a17.35,17.35,0,0,0,.11,6.25,9.38,9.38,0,0,0,2.37,4.4,37.63,37.63,0,0,1,8.47,14.13c2.11,8.23,13,11.27,13,11.27a110.52,110.52,0,0,1,16.53,6.36c3.32,1.67,6.32,3.58,8.06,5.59,5.65,6.52,3.91,19.11,8.69,30s5.95,16.94,5.65,29.11a202.23,202.23,0,0,1-3.9,30.59c-1.27,6.2-2.75,11.67-4.31,14.9,0,0,45.13,3.16,53.38,3.16h21.72c7.39,0,18.25,7.38,30.41,7.38s58.64,5.22,64.72,5.22,13-2.18,19.55-11.3c0,0,9.12-11.51,9.12-13a12.26,12.26,0,0,0-3.86-8.05,2.9,2.9,0,0,1-.71-3.44,2.86,2.86,0,0,1,2.56-1.58,2.93,2.93,0,0,1,.87.14l3.68,1.19a2.87,2.87,0,0,1,1.76,1.65c.45,1.09,1.3,2.46,2.65,2.05,2.18-.65,7.61,3.91,6.3,11.95s-6.08,12.6-3.47,26.28-.44,17.38-8.47,16.51-11.51-3.7-24.76-3.26c-1.59.05-3.34.14-5.22.26-13.78.86-34.27,3.23-45.17,3.12-12.38-.12-21.94.53-37.14-4.68s-35.62,5.21-59.3,6.08c-26.3,1-50-.76-63.08-3.75l-.33-.08"/><path class="cls-6" d="M299.21,330.23a12.6,12.6,0,0,1-6.67-.66c-9-2.87-8.69-9.45-4.3-11.56h0"/><path class="cls-6" d="M328,303.55a12.58,12.58,0,0,1,6.74-1.41"/><path class="cls-6" d="M363.24,456.32a56.11,56.11,0,0,1-8.32,4.07,103.2,103.2,0,0,1-35.56,7.23c-14.76.46-72.76,0-72.76,0s-9.55.36-14.55-2-16.94.4-27.15,0c-7.71-.3-25.84-1.5-37.9-1.5a68.22,68.22,0,0,0-9.23.45c-8.47,1.3-10.42,1.73-14.55,2.17s-13.25,3.47-17.16,3.69-19.33-1.09-19.33-1.09"/><path class="cls-6" d="M198.41,245.86l-14-1.5a1.6,1.6,0,0,1,.17-3.19h.07l4.76.21"/><polyline class="cls-6" points="209.39 251.11 205.66 248.11 201.53 246.5 200.45 246.08 198.42 245.86"/><path class="cls-6" d="M329.36,355c-6.81-5.35-14.14-11.59-15.78-14-1.87-2.72-8.21-6.37-14.17-11a49.22,49.22,0,0,1-7.18-6.68,47.93,47.93,0,0,1-4-5.29c-1.94-3-2.32-4.47-8.84-10.68-9.34-8.91-9.77-12.25-15.42-15.36s-13-6.7-27.58-22.61c0,0-11.73-12.64-16.73-15.25l-3.91-.25a10.12,10.12,0,0,1-5.71-2.22l-.65-.53"/><path class="cls-6" d="M345.57,399.09a13.72,13.72,0,0,0,3.33-10.32c-.87-11.29-2.82-22.16-8.69-25.85-2.29-1.44-6.46-4.51-10.84-8"/><path class="cls-6" d="M109.12,467.51l-1.83,1.28a6.21,6.21,0,0,1-.65.39,6.75,6.75,0,0,1-6.56,0l-2.91-1.63s1.52-2.93,4.13-1.52c0,0,1.63-3.37,4.24-4.67s13-6.19,16.83-10.1,6.3-10.32,11.73-12.71,8.25,0,12.16,6.41c2.75,4.5,13.05,2.57,20.74.72,3.26-.78,6.05-1.55,7.6-1.81,5.22-.87,34.1-10.53,50.83-5.43a66.83,66.83,0,0,0,14.33,1.09c9.12-.11,18.16-.7,23.35-1.3,4-.47,36.82-4.56,46.26-9.78s7.5-3.91,9.13-10.53,12.59-13.68,20-13.79a18.72,18.72,0,0,0,7.08-5"/><path class="cls-6" d="M315.88,310.57c1.75.09,3.55.23,5.38.43,10.26,1.08,21.41,3.86,30,8.74l1.3.73s33.44,4.57,22.4-5.05"/><path class="cls-6" d="M332.83,321.23s-10.06-6.22-16.95-10.66h0c-1.84-1.19-3.46-2.25-4.59-3-4.53-3.11-16.95-17.45-27.37-26.32a63.62,63.62,0,0,0-5.6-4.3c-11.07-7.38-8.68-8.69-16.94-13.9s-36.49-22.59-36.49-22.59-6.29-7-11.29-8c-3.71-.8-13.4-1.73-18.15-2.15a2.49,2.49,0,0,0-2.7,2.48v.11"/><path class="cls-6" d="M200.12,238.26l-12.85-1.09-4.51-.38a2,2,0,0,0-2.13,1.68,2.83,2.83,0,0,0,0,.29,2,2,0,0,0,1.8,2l7,.64,10.35,1"/><path class="cls-6" d="M203.06,234.27l-10.37-.81-7.74-.6a2,2,0,0,0-2.12,1.69v.06a2,2,0,0,0,1.73,2.25l2.71.31"/><path class="cls-6" d="M209.4,251.11h0a15.47,15.47,0,0,1-2.8,1.73,4,4,0,0,1-5-1.89,3.28,3.28,0,0,0-1-1.17l-3.8-2.56a3.16,3.16,0,0,1,1.62-1.36h0a3.53,3.53,0,0,1,3.11.64"/><path class="cls-6" d="M393.36,410.66s-4.93,7.87-22.09,2.22c-16.74-5.51-25.3-13.4-25.7-13.79h0"/><path class="cls-6" d="M352.54,320.47s-1,44.32-23.17,34.49h0"/><path class="cls-6" d="M167,445.64s-4.89,10,0,18.49"/><path class="cls-6" d="M559.36,441.34a121.69,121.69,0,0,1,0,19.37"/></svg>