<svg id="Layer_1" data-name="Layer 1" xmlns="http://www.w3.org/2000/svg" viewBox="0 0 700 700"><defs><style>.cls-1{fill:#feae63;}.cls-2{fill:#99abcc;}.cls-3{fill:#c4e7f9;}.cls-4{fill:#392328;}.cls-5,.cls-6{fill:none;stroke:#000;stroke-linecap:round;stroke-linejoin:round;}.cls-5{stroke-width:2.68px;}.cls-6{stroke-width:2.3px;}</style></defs><title>Yoga_poses_2020_color</title><path class="cls-1" d="M429.07,377.73c0,.1.05.21.08.32C429.12,377.91,429.09,377.8,429.07,377.73Zm7.13,9.79c-.52-2.69-1.35-6.1-2.59-10.37C433.73,377.7,434.93,383.18,436.2,387.52Zm-12.57-11.21,0-.05Zm.4,1.41c0-.15-.08-.3-.13-.46C423.94,377.4,424,377.56,424,377.72Zm.17.58c2.68,9.62,1.7,10.48.43,10s-6.54-13.81-6.54-13.81c-4.6-9.49-2.3-15.42-3.45-21.55s-11.88-28-16.75-41.38-3.17-21.46-4.32-28.52-4.52-37-4.52-37H389a13.72,13.72,0,0,0-.23,1.73c-1.7-6-5.45-12.38-11.74-19.22V205.45l.16-.66a57.47,57.47,0,0,0,8.53,1.39c10,.75,19.21,9.73,20.2,20.45s.25,46.15,2.5,51.14,7.23,14.22,8.23,23.45,2,27.44,4,34.17,3.49,9.23,4.24,11.72,7.49,6,10.73,9.73,5,9.73,5,9.73a31.57,31.57,0,0,0-2.05,4.58l.16.05c3,19.63,1.67,21.72-.17,21.69-.59,0-1.48-2.42-2.34-5.36,1.25,6.47.66,8.75-.54,8.75-1.54,0-5.73-15.33-6.5-18.21,1.54,6.36,4.07,17.19,1.92,17C429.32,395,425.64,383.14,424.2,378.3Z"/><path class="cls-2" d="M391,329.65c.75,7.49,5.32,32.43,3.07,50.14s-15.63,53.13-13.64,80.57.75,47.9-2.25,60.57-6,23.19-6,23.19c-.22,1.4-.36,2.54-.45,3.56l-.53,0c-9,1.33-14-1.77-14-1.77l-.71-.17c.28-1.14.61-2.48,1-4.14,2.14-9.76-2.68-36.44-1-49.11a81.84,81.84,0,0,0-1.21-28.11s-2.52-11.72-2.83-20.16c-.29-8,.42-64.39-2.09-75.91a.88.88,0,0,0-1.72,0c-2.07,11.51-2.49,67.92-2,75.88.53,8.84-2.82,20.16-2.82,20.16s-3.08,14.9-2,27.64-2.38,39.82-.24,49.58c.3,1.37.56,2.53.78,3.53l-.46.1s-5.33,4-14.29,2.69l-.24,0c-.1-1.08-.25-2.28-.48-3.77,0,0-3-10.51-6-23.19s-4.24-33.13-2.25-60.57-11.38-62.76-13.64-80.57,1.67-42.65,2.41-50.14a34.71,34.71,0,0,1,2.19-7.22l.41.15c45.44,7.67,77.76.21,77.76.21l1.11-.18A33.2,33.2,0,0,1,391,329.65Z"/><path class="cls-3" d="M388.82,322.61l-1.11.18s-32.32,7.46-77.76-.21l-.41-.15c3.67-10,10-27.68,4.13-57.63,0,0-3.49-12.23-3.74-16.72a18.48,18.48,0,0,0-.25-2h0c2.79-6,6.6-10,12.59-17.5,16.31,8.68,34.19,10.35,54.76,0,6.29,6.84,10,13.18,11.74,19.22-.25,4.49-3.47,17-3.47,17C379.47,296.52,385.34,313.16,388.82,322.61Z"/><path class="cls-1" d="M377.19,204.79l-.16.66v23.14c-20.57,10.35-38.45,8.68-54.76,0l-1.17-23.5,0-.19a88.78,88.78,0,0,0,12.88-4.07c3.78-2.13,4.54-8.35,4.3-14.75l.42-.86c2.61,1.65,6.38,2.89,11.8,2.79a23,23,0,0,0,9.18-2.22l.85.29c-.24,6.4.52,12.62,4.3,14.75A89.16,89.16,0,0,0,377.19,204.79Z"/><path class="cls-1" d="M372.1,577.28c0-.19-.06-.32-.07-.38S372.06,577.1,372.1,577.28Zm-4,1c.06.71,0,2.8-2,2.88-2.49.09-2.71-3.12-2.71-3.12-.49,3.1-2.09,3.11-2.11,3.11-2.17,0-2.85-1.53-3-2.9a10.67,10.67,0,0,0,0-2.06,7.27,7.27,0,0,0,0,2.06c-.26,1.85-1.38,2.9-4.89,2.9-2.43,0-3.05-1.62-3.05-3.51a39.08,39.08,0,0,1,.66-4.89c.27-2.44,3.67-3.26,3.67-12.9,0-8,.45-8.59,1.83-14.12l.71.17s5,3.1,14,1.77l.53,0c-.26,2.64-.25,4.54-.73,8.13-.66,5-.53,4.6.26,9.92s4.07,7.68,4.2,9.78,0,4-1.57,4.33c-1,.21-1.53-1.59-1.74-2.48.16.93.26,2.9-1.54,3A2.27,2.27,0,0,1,368.13,578.24Z"/><path class="cls-1" d="M372.71,160.08s.31,5-2.16,8.13c0,0-1.54,1.41-1-2.26l-.32,0c0-.32.08-.64.11-.94l.36-5.88.33,0C370.69,158,372.05,156.37,372.71,160.08Z"/><path class="cls-4" d="M328.68,156.68c-.11.72-.13,1.15-.13,1.15s-5.18-15.66,3.84-23.69a21.35,21.35,0,0,1,6.86-4.09c8-3,16.52-1.18,19.41-.4.66.18,1,.3,1,.3C378.05,137.32,370,157.2,370,157.2a5.68,5.68,0,0,0-.12-.78,45.18,45.18,0,0,0-2.12-6.65c-3.78-9.82-17.33-9.83-17.33-9.83C332.52,140.06,329.26,152.75,328.68,156.68Z"/><path class="cls-1" d="M369.9,156.42l-.17,2.66-.36,5.88c0,.3-.07.62-.11.94-.56,4-2.37,9.08-2.91,11.58a11.94,11.94,0,0,1-6.71,8.31,23,23,0,0,1-9.18,2.22c-5.42.1-9.19-1.14-11.8-2.79a12.62,12.62,0,0,1-5.68-7.44c-.83-3.06-2.72-8.78-3.26-11.92-.07-.45-.12-.85-.14-1.18l-.69-6.1-.21-1.9c.58-3.93,3.84-16.62,21.77-16.74,0,0,13.55,0,17.33,9.83A45.18,45.18,0,0,1,369.9,156.42Zm-11.24,6.21a2.32,2.32,0,1,0-2-2.28A2.17,2.17,0,0,0,358.66,162.63Zm-18.12-.25a2.32,2.32,0,1,0-2-2.28A2.16,2.16,0,0,0,340.54,162.38Z"/><path d="M360.63,160.32a2,2,0,1,1-2-2.28A2.17,2.17,0,0,1,360.63,160.32Z"/><path class="cls-4" d="M359.78,129.64h-1.12c-2.89-.78-11.41-2.59-19.41.4l-.16-.41c0-5.36,4.64-9.7,10.35-9.7S359.78,124.28,359.78,129.64Z"/><path class="cls-1" d="M345.66,576.68l2.91-.26a11.65,11.65,0,0,1,.07,1.17c0,1.9-.62,3.52-3,3.52-3.48,0-4.61-1-4.89-2.85v0a7.6,7.6,0,0,0,0-1.4l2.92-.15A3.5,3.5,0,0,1,345.66,576.68Z"/><path class="cls-1" d="M330.85,578.1a.67.67,0,0,0,0-.1A.45.45,0,0,0,330.85,578.1Zm-4-.74c-.21.89-.74,2.69-1.74,2.48-1.57-.33-1.71-2.23-1.58-4.33s3.42-4.45,4.2-9.78.92-4.93.27-9.92c-.46-3.5-.47-5.38-.71-7.92l.24,0c9,1.32,14.29-2.69,14.29-2.69l.46-.1c1.35,6.11,1.35,6.44,1.35,14.73,0,9.64,4.07,10.46,4.34,12.9.1.9.44,2.31.58,3.71l-2.91.26a3.5,3.5,0,0,0-2,0l-2.92.15a6.88,6.88,0,0,0-.08-.69,10.16,10.16,0,0,0,0,2.09v0a2.88,2.88,0,0,1-3,2.85s-1.61,0-2.11-3.11c0,0-.21,3.21-2.71,3.12-2-.08-2.09-2.08-2-2.84a.57.57,0,0,0,0-.12s0,.07,0,.12a2.25,2.25,0,0,1-2.42,2.09C326.61,580.26,326.71,578.29,326.87,577.36Zm0-.08c0-.18.06-.32.07-.38S326.91,577.09,326.88,577.28Z"/><path d="M342.51,160.07a2,2,0,1,1-2-2.28A2.16,2.16,0,0,1,342.51,160.07Z"/><path class="cls-1" d="M329.72,165.86l-.22,0c.72,3.64-.87,2.3-.87,2.3-2.61-3-2.51-8-2.51-8,.44-3.22,1.56-2.47,2.29-1.54l.48,0,.69,6.1C329.6,165,329.65,165.41,329.72,165.86Z"/><path class="cls-1" d="M274.72,377.64c0-.13.08-.26.11-.38C274.79,377.39,274.76,377.52,274.72,377.64Zm.38-1.33,0-.05Zm-12.57,11.21c1.27-4.34,2.47-9.82,2.59-10.37C263.88,381.42,263.05,384.83,262.53,387.52Zm7.13-9.79c0,.07-.05.18-.08.32C269.61,377.94,269.64,377.83,269.66,377.73Zm4.87.57c-1.44,4.84-5.12,16.65-6.88,16.79-2.15.17.38-10.66,1.92-17-.77,2.88-5,18.21-6.5,18.21-1.2,0-1.79-2.28-.54-8.75-.86,2.94-1.74,5.35-2.34,5.36-1.84,0-3.14-2.06-.17-21.69l.16-.05a31.57,31.57,0,0,0-2.05-4.58s1.75-6,5-9.73,10-7.23,10.73-9.73,2.24-5,4.24-11.72,3-24.94,4-34.17,6-18.46,8.23-23.45,1.5-40.41,2.5-51.14S303,206.93,313,206.18a55.54,55.54,0,0,0,8.05-1.28l0,.19,1.17,23.5c-6,7.5-9.8,11.5-12.59,17.5h0c-.08.71-3.38,30-4.52,36.94s.56,15.11-4.32,28.52-15.6,35.25-16.75,41.38,1.15,12.06-3.45,21.55c0,0-5.18,13.31-6.54,13.81S271.85,387.92,274.53,378.3Z"/><path class="cls-5" d="M353,576.62a3.29,3.29,0,0,1,2,0"/><path class="cls-6" d="M357.2,545.86s5,3.1,14,1.77"/><path class="cls-6" d="M338.24,186.08c.24,6.4-.52,12.62-4.3,14.75a88.78,88.78,0,0,1-12.88,4.07,55.54,55.54,0,0,1-8.05,1.28c-10,.75-19.21,9.73-20.2,20.45s-.25,46.15-2.5,51.14-7.23,14.22-8.23,23.45-2,27.44-4,34.17-3.49,9.23-4.24,11.72-7.49,6-10.73,9.73-5,9.73-5,9.73a31.57,31.57,0,0,1,2.05,4.58c.08.23.15.45.2.66.55,2.15,3.52-.22,2.68-4.89l2.2-3s5.56,1,9.88-2.17"/><path class="cls-6" d="M372.11,577.36c.21.89.74,2.69,1.74,2.48,1.56-.33,1.71-2.23,1.57-4.33s-3.41-4.45-4.2-9.78-.92-4.93-.26-9.92c.48-3.59.47-5.49.73-8.13.09-1,.23-2.16.45-3.56,0,0,3-10.51,6-23.19s4.25-33.13,2.25-60.57,11.4-62.86,13.64-80.57-2.32-42.65-3.07-50.14a33.2,33.2,0,0,0-2.14-7c-3.48-9.45-9.35-26.09-3.52-57.81,0,0,3.22-12.5,3.47-17a13.72,13.72,0,0,1,.23-1.73,38.16,38.16,0,0,1,3.73-9.22"/><path class="cls-6" d="M372,576.9c0,.06,0,.2.07.38"/><path class="cls-6" d="M372.1,577.28c0-.19-.06-.32-.07-.38v0"/><path class="cls-6" d="M372.1,577.28a.13.13,0,0,1,0,.06,0,0,0,0,1,0,0"/><path class="cls-6" d="M368.11,578s0,.08,0,.22v0a2.27,2.27,0,0,0,2.44,2.13c1.8-.11,1.7-2.08,1.54-3"/><path class="cls-6" d="M358.27,578.21c.16,1.37.84,2.91,3,2.9,0,0,1.62,0,2.11-3.11,0,0,.22,3.21,2.71,3.12,2.07-.08,2.09-2.17,2-2.88"/><path class="cls-6" d="M358.27,578.21a10.67,10.67,0,0,0,0-2.06A7.27,7.27,0,0,0,358.27,578.21Z"/><path class="cls-6" d="M340.71,578.26c.28,1.82,1.41,2.85,4.89,2.85,2.42,0,3-1.62,3-3.52a11.65,11.65,0,0,0-.07-1.17c-.14-1.4-.48-2.81-.58-3.71-.27-2.44-4.34-3.26-4.34-12.9,0-8.29,0-8.62-1.35-14.73-.22-1-.48-2.16-.78-3.53-2.14-9.76,1.32-36.85.24-49.58s2-27.64,2-27.64,3.35-11.32,2.82-20.16c-.47-8-.05-64.37,2-75.88a.88.88,0,0,1,1.72,0c2.51,11.52,1.8,67.91,2.09,75.91.31,8.44,2.83,20.16,2.83,20.16a81.84,81.84,0,0,1,1.21,28.11c-1.66,12.67,3.16,39.35,1,49.11-.36,1.66-.69,3-1,4.14-1.38,5.53-1.83,6.11-1.83,14.12,0,9.64-3.4,10.46-3.67,12.9a39.08,39.08,0,0,0-.66,4.89c0,1.89.62,3.51,3.05,3.51,3.51,0,4.63-1.05,4.89-2.9"/><path class="cls-6" d="M340.71,578.24a7.6,7.6,0,0,0,0-1.4,6.88,6.88,0,0,0-.08-.69,10.16,10.16,0,0,0,0,2.09"/><path class="cls-6" d="M340.71,578.24v0"/><path class="cls-6" d="M330.84,578.16s0,.07,0,.12c-.05.76,0,2.76,2,2.84,2.5.09,2.71-3.12,2.71-3.12.5,3.1,2.09,3.11,2.11,3.11a2.88,2.88,0,0,0,3-2.85"/><path class="cls-6" d="M330.85,578.1a.67.67,0,0,0,0-.1A.45.45,0,0,0,330.85,578.1Z"/><path class="cls-6" d="M330.85,578.1a.13.13,0,0,1,0,.06"/><path class="cls-6" d="M326.87,577.36c-.16.93-.26,2.9,1.54,3a2.25,2.25,0,0,0,2.42-2.09.57.57,0,0,0,0-.12"/><path class="cls-6" d="M327,576.87v0c0,.06,0,.19-.07.38"/><path class="cls-6" d="M326.88,577.28c0-.18.06-.32.07-.38"/><path class="cls-6" d="M326.88,577.28s0,0,0,.06,0,0,0,0"/><path class="cls-6" d="M309.68,246.1a18.48,18.48,0,0,1,.25,2c.25,4.49,3.74,16.72,3.74,16.72,5.91,29.95-.46,47.63-4.13,57.63a34.71,34.71,0,0,0-2.19,7.22c-.74,7.49-4.65,32.43-2.41,50.14s15.64,53.08,13.64,80.57-.74,47.9,2.25,60.57,6,23.19,6,23.19c.23,1.49.38,2.69.48,3.77.24,2.54.25,4.42.71,7.92.65,5,.52,4.6-.27,9.92s-4.07,7.68-4.2,9.78,0,4,1.58,4.33c1,.21,1.53-1.59,1.74-2.48"/><path class="cls-6" d="M306.69,237a47.11,47.11,0,0,1,3,9.09"/><path class="cls-6" d="M262.53,387.53c-.86,2.94-1.74,5.35-2.34,5.36-1.84,0-3.14-2.06-.17-21.69"/><path class="cls-6" d="M265.13,377.1a.18.18,0,0,1,0,0c-.12.55-1.32,6-2.59,10.37"/><path class="cls-6" d="M262.53,387.52c.52-2.69,1.35-6.1,2.59-10.37"/><line class="cls-6" x1="262.53" y1="387.52" x2="262.53" y2="387.53"/><path class="cls-6" d="M269.57,378.07c-.77,2.88-5,18.21-6.5,18.21-1.2,0-1.79-2.28-.54-8.75"/><path class="cls-6" d="M269.66,377.73c0,.07-.05.18-.08.32"/><path class="cls-6" d="M269.58,378.05c0-.11.06-.22.08-.32l0-.12"/><path class="cls-6" d="M269.58,378.05v0"/><path class="cls-6" d="M274.53,378.3c-1.44,4.84-5.12,16.65-6.88,16.79-2.15.17.38-10.66,1.92-17"/><path class="cls-6" d="M274.83,377.26c0,.12-.07.25-.11.38"/><path class="cls-6" d="M275.1,376.31l0-.05Z"/><path class="cls-6" d="M275.1,376.31c0,.13-.13.46-.27.95"/><path class="cls-6" d="M274.72,377.64c0-.12.07-.25.11-.38"/><path class="cls-6" d="M274.72,377.64l0,.08c-.05.2-.1.39-.16.58"/><path class="cls-6" d="M309.68,246.09h0c-.08.71-3.38,30-4.52,36.94s.56,15.11-4.32,28.52-15.6,35.25-16.75,41.38,1.15,12.06-3.45,21.55c0,0-5.18,13.31-6.54,13.81s-2.25-.38.43-10"/><path class="cls-6" d="M360.49,186.08c-.24,6.4.52,12.62,4.3,14.75a89.16,89.16,0,0,0,12.4,4,57.47,57.47,0,0,0,8.53,1.39c10,.75,19.21,9.73,20.2,20.45s.25,46.15,2.5,51.14,7.23,14.22,8.23,23.45,2,27.44,4,34.17,3.49,9.23,4.24,11.72,7.49,6,10.73,9.73,5,9.73,5,9.73a31.57,31.57,0,0,0-2.05,4.58c-.08.23-.15.45-.2.66-.55,2.15-3.52-.22-2.68-4.89l-2.2-3s-5.56,1-9.88-2.17"/><path class="cls-6" d="M436.2,387.53c.86,2.94,1.75,5.35,2.34,5.36,1.84,0,3.14-2.06.17-21.69"/><path class="cls-6" d="M433.61,377.15c.12.55,1.32,6,2.59,10.37"/><path class="cls-6" d="M436.2,387.52c-.52-2.69-1.35-6.1-2.59-10.37,0,0,0,0,0,0"/><line class="cls-6" x1="436.2" y1="387.52" x2="436.2" y2="387.53"/><path class="cls-6" d="M429.16,378.07c.77,2.88,5,18.21,6.5,18.21,1.2,0,1.79-2.28.54-8.75"/><path class="cls-6" d="M429,377.61l0,.12c0,.07.05.18.08.32"/><path class="cls-6" d="M429.15,378.05c0-.11-.06-.22-.08-.32"/><path class="cls-6" d="M429.15,378.05v0"/><path class="cls-6" d="M424.2,378.3c1.44,4.84,5.12,16.65,6.88,16.79,2.15.17-.38-10.66-1.92-17"/><path class="cls-6" d="M423.9,377.26c0,.14.08.3.13.46"/><path class="cls-6" d="M423.63,376.31l0-.05Z"/><path class="cls-6" d="M423.63,376.31c.09.33.18.64.27.95"/><path class="cls-6" d="M424,377.72c0-.15-.08-.3-.13-.46"/><path class="cls-6" d="M424,377.72c.06.18.11.37.17.58"/><path class="cls-6" d="M389.05,246.09s3.37,29.9,4.52,37-.56,15.11,4.32,28.52,15.6,35.25,16.75,41.38-1.15,12.06,3.45,21.55c0,0,5.18,13.31,6.54,13.81s2.25-.38-.43-10"/><path class="cls-5" d="M345.67,576.69a0,0,0,0,1,0,0,3.5,3.5,0,0,0-2,0"/><path class="cls-6" d="M341.84,545.18s-5.33,4-14.29,2.69"/><path class="cls-6" d="M387.71,322.79s-32.32,7.46-77.76-.21"/><path class="cls-6" d="M339.09,129.64c0-5.36,4.64-9.7,10.35-9.7s10.34,4.34,10.34,9.7"/><path class="cls-6" d="M328.68,156.68c.58-3.93,3.84-16.62,21.77-16.74,0,0,13.55,0,17.33,9.83a45.18,45.18,0,0,1,2.12,6.65,5.68,5.68,0,0,1,.12.78s8-19.88-10.33-27.25c0,0-.37-.12-1-.3-2.89-.78-11.41-2.59-19.41.4a21.35,21.35,0,0,0-6.86,4.09c-9,8-3.84,23.69-3.84,23.69S328.57,157.4,328.68,156.68Z"/><path class="cls-6" d="M370.06,159.1c.63-1.07,2-2.73,2.65,1,0,0,.31,5-2.16,8.13,0,0-1.54,1.41-1-2.26"/><path class="cls-6" d="M328.41,158.63c-.73-.93-1.85-1.68-2.29,1.54,0,0-.1,5,2.51,8,0,0,1.59,1.34.87-2.3"/><path class="cls-6" d="M328.58,155.83l.1.85.21,1.9.69,6.1c0,.33.07.73.14,1.18.54,3.14,2.43,8.86,3.26,11.92a12.62,12.62,0,0,0,5.68,7.44c2.61,1.65,6.38,2.89,11.8,2.79a23,23,0,0,0,9.18-2.22,11.94,11.94,0,0,0,6.71-8.31c.54-2.5,2.35-7.58,2.91-11.58,0-.32.08-.64.11-.94l.36-5.88.17-2.66.07-1.2"/><path class="cls-6" d="M351.15,168a4.29,4.29,0,0,1-4.44-.12"/><polyline class="cls-6" points="344.42 175.44 345.36 175.82 348.32 174.95 349.43 175.64 350.66 174.99 353.31 175.93 354.17 175.71"/><line class="cls-6" x1="348.24" y1="180.38" x2="350.8" y2="180.42"/><path class="cls-6" d="M309.68,246.09c2.79-6,6.6-10,12.59-17.5,16.31,8.68,34.19,10.35,54.76,0,6.29,6.84,10,13.18,11.74,19.22"/><line class="cls-6" x1="322.27" y1="228.59" x2="321.1" y2="205.09"/><line class="cls-6" x1="377.03" y1="228.59" x2="377.03" y2="205.45"/></svg>