<svg id="Layer_1" data-name="Layer 1" xmlns="http://www.w3.org/2000/svg" viewBox="0 0 700 700"><defs><style>.cls-1{fill:#392328;}.cls-2{fill:#feae63;}.cls-3{fill:#99abcc;}.cls-4{fill:#c4e7f9;}.cls-5{fill:none;stroke:#000;stroke-linecap:round;stroke-linejoin:round;stroke-width:2.3px;}</style></defs><title>Yoga_poses_2020_color</title><path class="cls-1" d="M425.39,243.31c4.19.61,9.16,3.12,8.34,9.22s-5.58,8-9.5,7.49l-1.36-.29a28.89,28.89,0,0,0,1.43-16.25Z"/><path class="cls-1" d="M424.3,243.48a28.89,28.89,0,0,1-1.43,16.25c-2.54,6-8,11.94-19.24,14.88a8.69,8.69,0,0,0,2.42-2.16c1.56-3.46-.54-4.4-2.08-4.64h0c-4.32-6.19.49-20.52.49-20.52,1.73-9.66-4.17-15.93-9-17.25a.54.54,0,0,1-.35-.26c-.32-.58.66-1.89,2.32-2.73,5.6-2.83,14.46-4.55,23.92,9.56a31.37,31.37,0,0,1,2.56,5.38C424,242.33,424.17,242.84,424.3,243.48Z"/><path class="cls-2" d="M419,396.08c.65,5.21-3.26,4.35-7.17,10.64S396,425.84,389.68,429.53s-9.12,8.25-14.12,8l-5.43-.66-2.3-.07c1-2.06,2.09-4.28,3.28-6.62,0,0,4.88-.15,8.47-6s16.61-24.76,20.2-28.35-.33-8.14-.33-8.14c-.27-.66-.53-1.34-.79-2.05-3.66-10-6.08-23.73-7.41-32.88-.84-5.76-1.24-9.7-1.24-9.7l-12.93.35-.26-.21c5.41-7.05,4.82-18.71,4.82-18.71l17.59-25.09c3.91,5.65,13.47,16.72,14.34,32.15s-.44,15.63.65,21.28,4.13,16.72,4.13,32.8A96.22,96.22,0,0,0,419,396.08Z"/><path class="cls-2" d="M404,267.81c1.54.24,3.64,1.18,2.08,4.64a8.69,8.69,0,0,1-2.42,2.16,7.49,7.49,0,0,1-5.8.9s-1.12-.47-1.16-1.31l-.41,0S389.68,279.41,386,278l-13.67-5c-7.86-3.62-4.73-9.55-4.73-9.55,2.87-6.06,6-16,9.37-18.5s3.51-5.26,5.15-6.6,2.67-2.15,2.67-2.15c7.5-6.53,10.32-6.37,10.32-6.37a.54.54,0,0,0,.35.26c4.8,1.32,10.7,7.59,9,17.25,0,0-4.81,14.33-.49,20.52Zm-12.82-14.12c.77-1.29.94-2.61.38-2.94s-1.64.45-2.4,1.74-.94,2.61-.38,2.94S390.39,255,391.15,253.69Zm-8-8.45c.7-1.18.85-2.39.34-2.69s-1.5.41-2.2,1.59-.85,2.39-.34,2.69S382.42,246.42,383.12,245.24Z"/><path class="cls-2" d="M371.6,277.68l.76-4.74L386,278c3.65,1.45,10.23-3.73,10.23-3.73l.41,0c0,.84,1.16,1.31,1.16,1.31a7.52,7.52,0,0,0,2.71.18l0,.2L394.8,288a4.76,4.76,0,0,0,.08,4.27,68.73,68.73,0,0,0,4.35,7.13l-17.59,25.09c-39.18,10.42-38.88-28-38.88-28L363,276l.24-.77c4.2,1.35,7.87,2.42,7.87,2.42Z"/><path class="cls-3" d="M369.07,384.71S322,410.57,306.6,412.81c-11.93,1.73-39.42.47-40.4-26.16-.41-11.25,5.64-23.39,13.69-34.61l.12.09A64.89,64.89,0,0,1,309.39,360a349.24,349.24,0,0,1,47-6.59,298.34,298.34,0,0,1,34.37-.55l.49-.07c1.33,9.15,3.75,22.92,7.41,32.88l-1.16.42c-10.77,14.85-19.93,31.36-26.39,44.13-1.19,2.34-2.28,4.56-3.28,6.62-1.39,2.88-2.6,5.45-3.59,7.62-11.51,4.82-18.78-2.57-18.78-2.57,3-9.35,7.52-24.06,8.38-30.06C354.77,405.29,359.73,393.89,369.07,384.71Z"/><path class="cls-2" d="M391.19,468.57a1.27,1.27,0,0,1,1.21,1.4c-.12,1.32-.6,3.09-2.38,2.93l-.35.05a5.5,5.5,0,0,0-.74-.93l-4.88-1.24.53-2.82c1.29.2,2.86.4,4.37.49Z"/><path d="M391.53,250.75c.56.33.39,1.65-.38,2.94s-1.84,2.07-2.4,1.74-.39-1.65.38-2.94S391,250.42,391.53,250.75Z"/><path class="cls-2" d="M389.67,473c.45.73.68,1.68-.8,2a9,9,0,0,1-4.75-.39h-.07a1.78,1.78,0,0,0-.58-1.62,12.81,12.81,0,0,0-2.17-1.14l2.75-1,4.88,1.24A5.5,5.5,0,0,1,389.67,473Z"/><path class="cls-2" d="M381.3,471.79a12.81,12.81,0,0,1,2.17,1.14,1.78,1.78,0,0,1,.58,1.62,3.81,3.81,0,0,1-.19,1,7.89,7.89,0,0,1-5.33-.59l0,0,.51.56a.73.73,0,0,1-.39,1.21,8,8,0,0,1-4.08-.39c-6.14,1.39-20-1.21-26.34-1.21s-11.3.63-13.91-3.71,6.16-15.76,8.47-21.26c0,0,1.14-3.41,2.7-8.27,0,0,7.27,7.39,18.78,2.57-.94,2.06-1.7,3.75-2.25,5a9,9,0,0,0,.62,8.58c1.95,2.93,6.1,6.18,14.88,8.44l4.22,1s1.2.25,2.87.5l-.53,2.82Z"/><path d="M383.46,242.55c.51.3.36,1.51-.34,2.69s-1.69,1.9-2.2,1.59-.36-1.51.34-2.69S383,242.24,383.46,242.55Z"/><path class="cls-4" d="M381.64,324.52s.59,11.66-4.82,18.71a13,13,0,0,1-4.41,3.77l-16,6.4h0a349.24,349.24,0,0,0-47,6.59A64.89,64.89,0,0,0,280,352.13l-.12-.09c11-15.34,25.75-29,32.9-36.32l4.72-6.33,8.64-11.59,16.61-1.3S342.46,334.94,381.64,324.52Z"/><path class="cls-2" d="M326.15,297.8l-8.64,11.59-.41-.31a127.6,127.6,0,0,1,1.09-13c1-7.17-2.28-16.95,6.85-26.72s23.45.33,29,2.6c2.41,1,6,2.18,9.21,3.22L363,276,342.76,296.5Z"/><path class="cls-5" d="M425.39,243.31c4.19.61,9.16,3.12,8.34,9.22s-5.58,8-9.5,7.49"/><path class="cls-5" d="M384.45,248.45a3.82,3.82,0,0,1-2.65,2.38l-4.58,2.61,3.12,3.29"/><path class="cls-5" d="M395.14,229.77s-2.82-.16-10.32,6.37c0,0-1,.81-2.67,2.15s-1.76,4.07-5.15,6.6-6.5,12.44-9.37,18.5c0,0-3.13,5.93,4.73,9.55L386,278c3.65,1.45,10.23-3.73,10.23-3.73"/><path class="cls-5" d="M403.63,274.61c11.21-2.94,16.7-8.85,19.24-14.88a28.89,28.89,0,0,0,1.43-16.25c-.13-.64-.26-1.15-.36-1.5a31.37,31.37,0,0,0-2.56-5.38c-9.46-14.11-18.32-12.39-23.92-9.56-1.66.84-2.64,2.15-2.32,2.73a.54.54,0,0,0,.35.26c4.8,1.32,10.7,7.59,9,17.25,0,0-4.81,14.33-.49,20.52"/><path class="cls-5" d="M402.62,267.73a6.67,6.67,0,0,1,1.35.08c1.54.24,3.64,1.18,2.08,4.64a8.69,8.69,0,0,1-2.42,2.16,7.49,7.49,0,0,1-5.8.9s-1.12-.47-1.16-1.31c0-.49.33-1.13,1.53-1.87"/><path class="cls-5" d="M400.57,275.89,394.8,288a4.76,4.76,0,0,0,.08,4.27,68.73,68.73,0,0,0,4.35,7.13c3.91,5.65,13.47,16.72,14.34,32.15s-.44,15.63.65,21.28,4.13,16.72,4.13,32.8a96.22,96.22,0,0,0,.65,10.42c.65,5.21-3.26,4.35-7.17,10.64S396,425.84,389.68,429.53s-9.12,8.25-14.12,8l-5.43-.66"/><path class="cls-5" d="M374.11,472.8l2.15.21a1.3,1.3,0,0,1,.86.43L378.5,475l.51.56a.73.73,0,0,1-.39,1.21,8,8,0,0,1-4.08-.39c-6.14,1.39-20-1.21-26.34-1.21s-11.3.63-13.91-3.71,6.16-15.76,8.47-21.26c0,0,1.14-3.41,2.7-8.27,3-9.35,7.52-24.06,8.38-30.06.93-6.54,5.89-17.94,15.23-27.12a50.64,50.64,0,0,1,13.11-9.37"/><path class="cls-5" d="M378.53,474.94a7.89,7.89,0,0,0,5.33.59,3.81,3.81,0,0,0,.19-1,1.78,1.78,0,0,0-.58-1.62,12.81,12.81,0,0,0-2.17-1.14c-1.09-.49-2.12-.88-2.12-.88"/><path class="cls-5" d="M384.12,474.55a9,9,0,0,0,4.75.39c1.48-.31,1.25-1.26.8-2a5.5,5.5,0,0,0-.74-.93l-4.88-1.24"/><path class="cls-5" d="M390,472.9c1.78.16,2.26-1.61,2.38-2.93a1.27,1.27,0,0,0-1.21-1.4l-2.24-.12c-1.51-.09-3.08-.29-4.37-.49-1.67-.25-2.87-.5-2.87-.5l-4.22-1c-8.78-2.26-12.93-5.51-14.88-8.44a9,9,0,0,1-.62-8.58c.55-1.26,1.31-3,2.25-5s2.2-4.74,3.59-7.62c1-2.06,2.09-4.28,3.28-6.62,6.46-12.77,15.62-29.28,26.39-44.13"/><path class="cls-5" d="M377.08,343.44l12.93-.35s.4,3.94,1.24,9.7c1.33,9.15,3.75,22.92,7.41,32.88.26.71.52,1.39.79,2.05,0,0,3.91,4.56.33,8.14s-16.62,22.48-20.2,28.35-8.47,6-8.47,6"/><path class="cls-5" d="M369.07,384.71S322,410.57,306.6,412.81c-11.93,1.73-39.42.47-40.4-26.16-.41-11.25,5.64-23.39,13.69-34.61,11-15.34,25.75-29,32.9-36.32l4.72-6.33,8.64-11.59,16.61-1.3s-.3,38.44,38.88,28c0,0,.59,11.66-4.82,18.71a13,13,0,0,1-4.41,3.77l-16,6.4"/><line class="cls-5" x1="381.64" y1="324.52" x2="399.23" y2="299.43"/><line class="cls-5" x1="342.76" y1="296.5" x2="363" y2="275.95"/><polyline class="cls-5" points="372.36 272.94 371.6 277.68 370.46 284.77"/><path class="cls-5" d="M371.11,277.6s-3.67-1.07-7.87-2.42c-3.24-1-6.8-2.23-9.21-3.22-5.54-2.27-19.87-12.37-29-2.6s-5.87,19.55-6.85,26.72a127.6,127.6,0,0,0-1.09,13"/><path class="cls-5" d="M326.15,297.8a14.06,14.06,0,0,1,4.23-7.49"/><line class="cls-5" x1="393.26" y1="282.21" x2="378.6" y2="300.25"/><path class="cls-5" d="M280,352.13A64.89,64.89,0,0,1,309.39,360"/><path class="cls-5" d="M298.24,362.63s4.07-1.13,11.15-2.63a349.24,349.24,0,0,1,47-6.59,298.34,298.34,0,0,1,34.37-.55"/><path class="cls-5" d="M397.77,312.77l-2,1.36a13.1,13.1,0,0,0-5.61,10.76v4.18"/><path class="cls-5" d="M345.46,441.89s7.27,7.39,18.78,2.57"/></svg>