<svg id="Layer_1" data-name="Layer 1" xmlns="http://www.w3.org/2000/svg" viewBox="0 0 700 700"><defs><style>.cls-1{fill:#99abcc;}.cls-2{fill:#c4e7f9;}.cls-3{fill:#feae63;}.cls-4{fill:#392328;}.cls-5{fill:none;stroke:#000;stroke-linecap:round;stroke-linejoin:round;stroke-width:2.3px;}</style></defs><title>Yoga_poses_2020_color</title><path class="cls-1" d="M357.9,456.19h0s-5.87.68-19.33,2.2-68.42,2.09-85.14,2.09-16.51-24.33-17.16-37.79c-.51-10.61-4.12-40.06-5.63-52.09,0,0,11.07-4.14,20.16-4.15,2.24,9.91,7.73,22.86,12.62,36.65,6.18,17.43,1.37,27.92,1.19,28.32a171,171,0,0,1,23.79-6.13c19.11-3.69,42-12.33,42-12.33,5.21-18.78,30.94-22.13,39-22.73a5.63,5.63,0,0,0,4.13-2.21c.18-.24.35-.49.52-.74,0,0,10.66,1.85,26.71,10.82,8.85,4.95,16.49,13.86,16.49,13.86a92,92,0,0,1-6.35,11.33l.07.48c21.48-3.42,45.68,1.49,61.29,3.48,6.79.86,12.21,1.63,16.2,3.61a16.31,16.31,0,0,1,8.93,14.66v3c0,7.59-5.16,13.26-12.54,15C463,468.7,421.39,466.05,397,465,378,464.23,365.86,461.71,357.9,456.19Z"/><path class="cls-2" d="M430.54,331.45c7.49,7.46,9.77,10.45,7.49,20.22s-8.13,17.57-12.69,37.45A109.91,109.91,0,0,1,417.23,412s-7.64-8.91-16.49-13.86c-16.05-9-26.71-10.82-26.71-10.82,10.59-15.51,3.61-39.77-.2-50.2,2,5.05,57.69,9.05,40.05-17.34l10.47,4.39A70.11,70.11,0,0,0,430.54,331.45Z"/><path class="cls-3" d="M397.52,269a3.93,3.93,0,0,1,.72-1.4,1.53,1.53,0,0,1,.13-.13l0,0c1.38-1.05,3.79-.48,3.79-.48,2.27-.86,5.19-3.94,5.55-8.56s-1.71-7.6.82-11.62c1.28-2,6.39-11.51,6.39-11.51l1.15,1.53s7,6,9.33,11.1c1.8,4,.86,5.27,3.86,6.91l4.81,3.9-4.26,3.21,3.49,9.84c.72.66,5.18,6.45-5.76,9.52l-.54.13a10.29,10.29,0,0,0-7.28,8.1c-.37,2-1,4.91-1.92,8.22a26.85,26.85,0,0,0,3.93,22.87c.83,1.17,1.69,2.36,2.58,3.53l-10.47-4.39c-17.64-26.39-29.14-24.81-29.14-24.81l.37-.17a9.38,9.38,0,0,0,3.29-2.53c2.42-3.17.34-7.37.34-7.37.5.24,1,.46,1.57.67,0,0,8.58,2.63,7.14-6.94C396.66,273.35,397,270.51,397.52,269Zm26-12.07c.6-.24.65-1.55.11-2.94s-1.46-2.32-2.06-2.08-.65,1.54-.11,2.93S422.89,257.17,423.49,256.94Z"/><path d="M423.6,254c.54,1.39.49,2.7-.11,2.94s-1.52-.7-2.06-2.09-.49-2.7.11-2.93S423.06,252.62,423.6,254Z"/><path class="cls-4" d="M414.08,234.12l.88,1.16s-5.11,9.48-6.39,11.51c-2.53,4-.45,7-.82,11.62s-3.28,7.7-5.55,8.56c0,0-2.41-.57-3.79.48l0,0a1.53,1.53,0,0,0-.13.13,2.25,2.25,0,0,0-.72,1.4c-.49,1.5-.86,4.34-.07,9.59,1.44,9.57-7.14,6.94-7.14,6.94-.54-.21-1.07-.43-1.57-.67a22.49,22.49,0,0,1-12.18-13.3,28.67,28.67,0,0,1-1.43-17.46,20.76,20.76,0,0,1,1.61-4.61q.75-1.25,1.53-2.37C387.29,234.09,399.17,233.23,414.08,234.12Z"/><path class="cls-3" d="M371.81,332a52.37,52.37,0,0,0-6.89,1.41c-10.73,3-33.24,9.3-41.86,11.71a37.37,37.37,0,0,1-7.05,1.27l-5.54.45-10.63,1.31s-30.26,1.4-45.55,6.9a5.28,5.28,0,0,0-2.34,1.66,8.72,8.72,0,0,1-2.19,1.92,8.87,8.87,0,0,1-1.61.78l-8.54,3.09L236.55,364a7.6,7.6,0,0,1-3,.76,13.25,13.25,0,0,0-3.59.62,7.63,7.63,0,0,0-2.11,1.07s-1.65-2.8.19-4.82h0a4.89,4.89,0,0,1,1.67-1.14s6.72-2.23,7.84-3.73l.12-.31a26.62,26.62,0,0,0-10.5-1.84h-2a2.37,2.37,0,0,1-2.36-2.37,2.09,2.09,0,0,1,.62-1.56,3.28,3.28,0,0,1,1.74-.8l3.11-.7a.27.27,0,0,0,0-.52l-5.15-1.53a2.53,2.53,0,0,1,.38-5,2.06,2.06,0,0,1,.35,0,11.42,11.42,0,0,0,1.55.1A11.61,11.61,0,0,0,228,342l1.28-.28a.44.44,0,0,0,0-.85l-7.73-2.13a2.18,2.18,0,0,1-1.57-1.82,2.83,2.83,0,0,1,0-.29,2.18,2.18,0,0,1,2.5-2.14l8.33,1.25-10.87-5a2.11,2.11,0,0,1,1.71-3.86l8.78,3.78a27.73,27.73,0,0,0,5.42,1.7L243,333.8a14.36,14.36,0,0,1,5.35,2.28,14.41,14.41,0,0,0,11,2.3c4.86-.95,12.58-2.72,23.12-5.86,11.72-3.49,20.11-4.47,24.91-4.69a35,35,0,0,0,10.82-2.28l3.24-1.23c10.84-3.82,22.41-9.92,29-13.62a52.83,52.83,0,0,0,8.58-6c8.7-7.47,15.67-8.39,18.87-8.32a15.36,15.36,0,0,0,6.81-1.4s11.5-1.58,29.14,24.81-38,22.39-40.05,17.34C372.67,333.93,371.81,332,371.81,332Z"/><path class="cls-4" d="M377.7,246.73l.57.4q-.78,1.13-1.53,2.37a20.76,20.76,0,0,0-1.61,4.61l-.1,0c-3.25,8.67-11.19,5.59-13.12,2.46-2.71-4.39-1.47-14.07,6.28-15.07S377.7,246.73,377.7,246.73Z"/><path class="cls-3" d="M251,325.94c9.77,4.56,2.29,12.33,2.29,12.33a14.54,14.54,0,0,1-4.93-2.19A14.36,14.36,0,0,0,243,333.8l-7.16-1.45a27.73,27.73,0,0,1-5.42-1.7l-8.78-3.78-5-14.06a8.19,8.19,0,0,0-4.16-4.62l-3.41-1.63a8.29,8.29,0,0,0-3.6-.82h-3.32a3.79,3.79,0,0,1,2.28-4.89,8.51,8.51,0,0,1,6.84,0h3.59c6.51.65,6.19-2.28,14.66,8.47S241.26,321.38,251,325.94Z"/><path class="cls-3" d="M249.76,358.67a36.65,36.65,0,0,0,1,7.79c-9.09,0-20.16,4.15-20.16,4.15l-.66-5.22a13.25,13.25,0,0,1,3.59-.62,7.6,7.6,0,0,0,3-.76l3.06-1.47,8.54-3.09A8.87,8.87,0,0,0,249.76,358.67Z"/><path class="cls-3" d="M237.68,356.45l-.12.31c-1.12,1.5-7.84,3.73-7.84,3.73a4.89,4.89,0,0,0-1.67,1.14l-.87-7A26.62,26.62,0,0,1,237.68,356.45Z"/><path class="cls-5" d="M398.24,267.61a2.25,2.25,0,0,0-.72,1.4,5.4,5.4,0,0,0,.2,2.4s2.5,5.14,8.23,4.7c0,0,3.24-.77.16-3.45"/><path class="cls-5" d="M402.2,267s-2.41-.57-3.79.48l0,0"/><path class="cls-5" d="M410,279.34s2.94,4.69,7.74,3.54"/><path class="cls-5" d="M415,235.28s-5.11,9.48-6.39,11.51c-2.53,4-.45,7-.82,11.62s-3.28,7.7-5.55,8.56"/><path class="cls-5" d="M377.7,246.73s-1.75-6.26-9.51-5.25-9,10.68-6.28,15.07c1.93,3.13,9.87,6.21,13.12-2.46"/><path class="cls-5" d="M228.05,361.63a4.89,4.89,0,0,1,1.67-1.14s6.72-2.23,7.84-3.73"/><path class="cls-5" d="M391.39,332.34a65.28,65.28,0,0,0-19.58-.3,52.37,52.37,0,0,0-6.89,1.41c-10.73,3-33.24,9.3-41.86,11.71a37.37,37.37,0,0,1-7.05,1.27l-5.54.45-10.63,1.31s-30.26,1.4-45.55,6.9a5.28,5.28,0,0,0-2.34,1.66,8.72,8.72,0,0,1-2.19,1.92,8.87,8.87,0,0,1-1.61.78l-8.54,3.09L236.55,364a7.6,7.6,0,0,1-3,.76,13.25,13.25,0,0,0-3.59.62,7.63,7.63,0,0,0-2.11,1.07s-1.65-2.8.19-4.82"/><path class="cls-5" d="M240,357.7a9.84,9.84,0,0,0-2.27-1.25,26.62,26.62,0,0,0-10.5-1.84h-2a2.37,2.37,0,0,1-2.36-2.37,2.09,2.09,0,0,1,.62-1.56,3.28,3.28,0,0,1,1.74-.8l3.11-.7a.27.27,0,0,0,0-.52l-5.15-1.53a2.53,2.53,0,0,1,.38-5,2.06,2.06,0,0,1,.35,0,11.42,11.42,0,0,0,1.55.1A11.61,11.61,0,0,0,228,342l1.28-.28a.44.44,0,0,0,0-.85l-7.73-2.13a2.18,2.18,0,0,1-1.57-1.82,2.83,2.83,0,0,1,0-.29,2.18,2.18,0,0,1,2.5-2.14l8.33,1.25-10.87-5a2.11,2.11,0,0,1,1.71-3.86l8.78,3.78a27.73,27.73,0,0,0,5.42,1.7L243,333.8a14.36,14.36,0,0,1,5.35,2.28,14.41,14.41,0,0,0,11,2.3c4.86-.95,12.58-2.72,23.12-5.86,11.72-3.49,20.11-4.47,24.91-4.69a35,35,0,0,0,10.82-2.28l3.24-1.23c10.84-3.82,22.41-9.92,29-13.62a52.83,52.83,0,0,0,8.58-6c8.7-7.47,15.67-8.39,18.87-8.32a15.36,15.36,0,0,0,6.81-1.4l.37-.17a9.38,9.38,0,0,0,3.29-2.53c2.42-3.17.34-7.37.34-7.37"/><path class="cls-5" d="M371.81,332s.86,1.89,2,5c3.81,10.43,10.79,34.69.2,50.2-.17.25-.34.5-.52.74a5.63,5.63,0,0,1-4.13,2.21c-8.07.6-33.8,3.95-39,22.73a27.52,27.52,0,0,0-.82,9.73"/><path class="cls-5" d="M353,411s-12.05,15-5.86,30.95c2.39,6.16,5.75,10.82,10.76,14.27,8,5.52,20.08,8,39.08,8.84,24.41,1,66,3.67,87.85-1.48,7.38-1.75,12.54-7.42,12.54-15v-3a16.31,16.31,0,0,0-8.93-14.66c-4-2-9.41-2.75-16.2-3.61-15.61-2-39.81-6.9-61.29-3.48-2,.31-4,.7-5.89,1.17"/><path class="cls-5" d="M410.88,423.3A92,92,0,0,0,417.23,412a109.91,109.91,0,0,0,8.11-22.85c4.56-19.88,10.41-27.67,12.69-37.45s0-12.76-7.49-20.22a70.11,70.11,0,0,1-6.19-7.31c-.89-1.17-1.75-2.36-2.58-3.53a26.85,26.85,0,0,1-3.93-22.87c.94-3.31,1.55-6.21,1.92-8.22a10.29,10.29,0,0,1,7.28-8.1l.54-.13c10.94-3.07,6.48-8.86,5.76-9.52l-3.49-9.84,4.26-3.21-4.81-3.9c-3-1.64-2.06-2.88-3.86-6.91-2.29-5.12-9.33-11.1-9.33-11.1L415,235.28l-.88-1.16c-14.91-.89-26.79,0-35.81,13q-.78,1.13-1.53,2.37a20.76,20.76,0,0,0-1.61,4.61,28.67,28.67,0,0,0,1.43,17.46,22.49,22.49,0,0,0,12.18,13.3c.5.24,1,.46,1.57.67,0,0,8.58,2.63,7.14-6.94-.79-5.25-.42-8.09.07-9.59a3.93,3.93,0,0,1,.72-1.4,1.53,1.53,0,0,1,.13-.13l0,0"/><path class="cls-5" d="M374,387.29s10.66,1.85,26.71,10.82c8.85,4.95,16.49,13.86,16.49,13.86"/><path class="cls-5" d="M384.74,294.94s11.5-1.58,29.14,24.81-38,22.39-40.05,17.34"/><line class="cls-5" x1="413.88" y1="319.75" x2="424.35" y2="324.14"/><path class="cls-5" d="M253.32,338.27s7.48-7.77-2.29-12.33-13-5.87-21.5-16.62-8.15-7.82-14.66-8.47h-3.59a8.51,8.51,0,0,0-6.84,0,3.79,3.79,0,0,0-2.28,4.89h3.32a8.29,8.29,0,0,1,3.6.82l3.41,1.63a8.19,8.19,0,0,1,4.16,4.62l5,14.06"/><polyline class="cls-5" points="227.18 354.61 228.05 361.63 228.05 361.64"/><path class="cls-5" d="M230,365.39l.66,5.22c1.51,12,5.12,41.48,5.63,52.09.65,13.46.43,37.79,17.16,37.79s71.67-.57,85.14-2.09,19.33-2.2,19.33-2.2"/><path class="cls-5" d="M264.59,431.44c-2.56.89-3.79,1.46-3.79,1.46"/><path class="cls-5" d="M330.37,413s-22.87,8.64-42,12.33a171,171,0,0,0-23.79,6.13"/><path class="cls-5" d="M264.59,431.44h0c.18-.4,5-10.89-1.19-28.32-4.89-13.79-10.38-26.74-12.62-36.65a36.65,36.65,0,0,1-1-7.79"/><path class="cls-5" d="M230.63,370.61s11.07-4.14,20.16-4.15h0"/></svg>