<svg id="Layer_1" data-name="Layer 1" xmlns="http://www.w3.org/2000/svg" viewBox="0 0 700 700"><defs><style>.cls-1{fill:#feae63;}.cls-2{fill:#392328;}.cls-3{fill:#99abcc;}.cls-4{fill:#c4e7f9;}.cls-5{fill:none;stroke:#000;stroke-linecap:round;stroke-linejoin:round;stroke-width:2.3px;}</style></defs><title>Yoga_poses_2020_color</title><path class="cls-1" d="M236.35,304.07l-3.44,4.68.24,3.87,2.28,3.75.65,1.06,4,.25a1.52,1.52,0,0,0,1.31-.62,1.61,1.61,0,0,0,.28-.81v-.07a1.5,1.5,0,0,0-1.06-1.44l-2.76-.83.28-.84-1.64-7.15C236.43,305.37,236.39,304.75,236.35,304.07Z"/><path class="cls-1" d="M234.29,319.72a2.37,2.37,0,0,0,2.28,2.39l2.38.08,4.49.1a2.33,2.33,0,0,0,2-2.22,2.37,2.37,0,0,0-1.79-2.39l-2.15-.54-.1-.08a1.52,1.52,0,0,1-1.31.62l-4-.25-.65-1.06-1.11,1Z"/><path class="cls-1" d="M236.68,322.14a.87.87,0,0,0-.9.93l.13,2.25a.82.82,0,0,0,.83.77l2.64,0,4.55-.06h.16a1.85,1.85,0,0,0,0-3.69l-.68,0a1.58,1.58,0,0,1-.38,0H243l-4-.14Z"/><path class="cls-1" d="M245.72,317.83l3.95,4.63a5.54,5.54,0,0,0,2.94,1.79l1.75.41a2.67,2.67,0,0,0,.55.07,2.39,2.39,0,0,0,2.36-2.1,2.85,2.85,0,0,0-.64-2.6,1.68,1.68,0,0,0-.55-.33l-1-.4a7,7,0,0,1-3.1-2.35l-.35-.46a13,13,0,0,1-2.14-7.27l-.48-1.65-1.18-4.1a33.74,33.74,0,0,1,2-14,46.32,46.32,0,0,1,4.35-8.89,43.66,43.66,0,0,1,4.81-6.4c4.92-5.51,8-14.06,8-14.06.84,1.54,4.44,5.64,8.51,10.07,6.36,6.89,13.86,14.58,13.86,14.58.18,2.51-.47,4,5.09,13a25.44,25.44,0,0,0,1.6,2.28,25.18,25.18,0,0,0,5.55,5.13,27.28,27.28,0,0,0,5,2.64H304.5c.71,4.31,4.15,7.47,5.67,9.35a61.82,61.82,0,0,0,8.68,7.88c2.51,1.79,8.25,3.4,10.59,6.45,11.05-3.33,21.56-14.88,20.39-27.52-1-11.13-20.76-20-20.76-20l0-.16a68.38,68.38,0,0,1-7.73-1.52c-15.07-22.07-40.72-43.62-50.7-47.09-8.53-3-10.6-1.58-12.81,1-2.68,3.08-4.67,8.61-11,21.53s-7.54,18.48-8.43,23.15c0,0-1.58,7.31-2.67,11,0,0,.26,7.33.55,12.14,0,.68.08,1.3.12,1.85l1.64,7.15-.28.84,2.76.83a1.5,1.5,0,0,1,1.06,1.44v.07a1.61,1.61,0,0,1-.28.81l.1.08,2.15.54a2.35,2.35,0,0,1,1.29.84Z"/><path class="cls-1" d="M239.38,326.06v.76l1,5.75.32,1.81a2.86,2.86,0,0,0,2.82,2.37l.54-.05a59,59,0,0,1-.13-9.8V326Z"/><path class="cls-1" d="M257.85,326.83l.33,0a8.35,8.35,0,0,1,3.32-3.17l.29-.57a26.69,26.69,0,0,1-5-3.25l-.19.23a2.85,2.85,0,0,1,.64,2.6,2.39,2.39,0,0,1-2.36,2.1,2.67,2.67,0,0,1-.55-.07l-1.75-.41a5.54,5.54,0,0,1-2.94-1.79l-3.95-4.63-.81.69a2.37,2.37,0,0,1,.5,1.55,2.33,2.33,0,0,1-2,2.22l.68,0a1.85,1.85,0,0,1,0,3.69h-.16v.9a59,59,0,0,0,.13,9.8c.87,10.33,3.53,22,4.52,28.45.38,2.49.74,7.75,1,14.15l.86,0c6.17-3.52,18.81-2.64,18.81-2.64h0c-1.61-5.62-3-10.06-3.47-11.75-1.56-5.31,3.13-7.81,7.51-11.56,4.15-3.56,1.55-10.22-4.08-14.09q-.45-.32-.93-.6C263.66,335.81,259.59,329.7,257.85,326.83Z"/><path class="cls-2" d="M249.83,289.52a33.74,33.74,0,0,0-2,14l1.18,4.1.09,0a24.65,24.65,0,0,0,7.76,12.26,26.69,26.69,0,0,0,5,3.25c.81.41,1.67.81,2.59,1.18a31.84,31.84,0,0,0,21.3-1.47s13.3-7.15,15.24-17.34l.68-.19a25.18,25.18,0,0,1-5.55-5.13l-.41.32c-4.35,4.35-10.1.85-10.1.85l-.11-.1a8.49,8.49,0,0,1-1.48,1.19c-5.55,2-4.61-4-4.61-4-1-2.13-4.2-4.71-8.68-4.72s-7.2,2.22-11.27.08c-1.07-.56-6.45-2.84-9.17-4.07Z"/><path class="cls-1" d="M249,307.57l.48,1.65a13,13,0,0,0,2.14,7.27l.35.46a7,7,0,0,0,3.1,2.35l1,.4a1.68,1.68,0,0,1,.55.33l.19-.23a24.65,24.65,0,0,1-7.76-12.26Z"/><path class="cls-3" d="M327.11,411.75c-11.25,0-51.25,23.12-51.25,23.12s.93-9.37,1.25-20.93c.21-7.88-4.36-25.31-7.79-37.32h0s-12.64-.88-18.81,2.64l-.86,0c.75,15.81,1.18,38.61,1,44.06a144,144,0,0,0,1,24.29c1,6.65,1,14.3,9,17.29s32.93.34,32.93.34c53.55-5,85.82-46.57,85.82-46.57.69-.8,1.35-1.61,2-2.44,9.28-11.95,13.57-26.57,15.05-40.76l-.17,0s-27,6.71-51.35-1.22l-.91-.43a31.48,31.48,0,0,1-2.1,2.57S325.73,392.59,327.11,411.75Z"/><path class="cls-1" d="M285.43,301.17l.11.1s5.75,3.5,10.1-.85l.41-.32a25.44,25.44,0,0,1-1.6-2.28c-5.56-9-4.91-10.49-5.09-13,0,0-7.5-7.69-13.86-14.58l-.61.51-2.48,1.32L269,268.21l-3.41,4.92c-1.36,3-2.62,2.21-6.37,4.24-1,.52-4,2-5,3.3l-.06,0a46.32,46.32,0,0,0-4.35,8.89l.39.14c2.72,1.23,8.1,3.51,9.17,4.07,4.07,2.14,6.79-.09,11.27-.08s7.68,2.59,8.68,4.72c0,0-.94,5.95,4.61,4A8.49,8.49,0,0,0,285.43,301.17Zm-22.06-20.33c-.27-.56.56-1.52,1.86-2.15s2.56-.67,2.83-.11-.56,1.52-1.85,2.15S263.64,281.4,263.37,280.84Z"/><path class="cls-2" d="M258.18,326.79l-.33,0c1.74,2.87,5.81,9,10.5,11.79q.48.28.93.6l.14-.19a9.12,9.12,0,0,0,3.66-1.87c2.67-2.36,5.14-10.28-3.67-11.94h0a29.26,29.26,0,0,1-5-1c-.92-.37-1.78-.77-2.59-1.18l-.29.57A8.35,8.35,0,0,0,258.18,326.79Z"/><path d="M265.23,278.69c-1.3.63-2.13,1.59-1.86,2.15s1.54.51,2.84-.11,2.12-1.59,1.85-2.15S266.52,278.07,265.23,278.69Z"/><path class="cls-4" d="M329.09,283.91l0,.16s19.72,8.83,20.76,20c1.17,12.64-9.34,24.19-20.39,27.52,2.33,3.05,16.5,22.25,18.66,29.07,1.43,4.55-1.84,10.06-4.18,13.22l.91.43c24.39,7.93,51.35,1.22,51.35,1.22l.17,0a123.63,123.63,0,0,0,.57-16.75c-.61-19.09-5.16-34.74-7.29-37.85-4.33-6.32-8-14.3-13.64-22s-17.3-11.64-33.26-13.31C336.83,285,332.36,284.43,329.09,283.91Z"/><path class="cls-3" d="M428.85,382.31c-.85,1-7.78,9.19-10.71,14.64-2.11,3.94-3.94,11.71-6.26,18.57l.54.18c5.87,4.41,17.34,4.68,17.34,4.68l.07,0c4.92-12.47,21.91-40.24,27.35-47.13,6.22-7.89,10.17-21.59,5.6-28s-12.46-9.34-26.37-6.44-39,19.94-39,19.94h-.46a123.63,123.63,0,0,1-.57,16.75c-1.48,14.19-5.77,28.81-15.05,40.76l.51.4s11-3.53,19.31-8.72C407.29,404.09,420.45,390.61,428.85,382.31Z"/><path class="cls-1" d="M398.61,443.36c-1.07,8.38,4.95,8.7,11.23,7.57,3.16-.57,7-1.57,9.94-2a23.39,23.39,0,0,1,8.3.22c11.32,2.4,16,2.38,18.3,2,2.49-.42,8.72,0,8.72,0l4.28-.14a2.34,2.34,0,0,0,.17-4.67l-1.75-.17c-2.08-.21-6.44-1.67-8.93-2.5a56.72,56.72,0,0,1-13.08-5.39c-6.64-3.74-8.3-5.19-7.27-13.5a19.58,19.58,0,0,1,1.31-4.36l-.07,0s-11.47-.27-17.34-4.68l-.54-.18a45.36,45.36,0,0,1-3.7,8.63C403.82,431.41,399.55,436,398.61,443.36Z"/><path class="cls-5" d="M279.34,298.37s-.94,5.95,4.61,4a8.49,8.49,0,0,0,1.48-1.19,8,8,0,0,0,2.44-7.1s-1-3.07-3.34.1"/><path class="cls-5" d="M285.68,322.76s13.3-7.15,15.24-17.34"/><path class="cls-5" d="M285.54,301.27s5.75,3.5,10.1-.85"/><path class="cls-5" d="M243.94,326.9a59,59,0,0,0,.13,9.8c.87,10.33,3.53,22,4.52,28.45.38,2.49.74,7.75,1,14.15.75,15.81,1.18,38.61,1,44.06a144,144,0,0,0,1,24.29c1,6.65,1,14.3,9,17.29s32.93.34,32.93.34c53.55-5,85.82-46.57,85.82-46.57.69-.8,1.35-1.61,2-2.44,9.28-11.95,13.57-26.57,15.05-40.76a123.63,123.63,0,0,0,.57-16.75c-.61-19.09-5.16-34.74-7.29-37.85-4.33-6.32-8-14.3-13.64-22s-17.3-11.64-33.26-13.31c-5.9-.61-10.37-1.22-13.64-1.74a68.38,68.38,0,0,1-7.73-1.52c-15.07-22.07-40.72-43.62-50.7-47.09-8.53-3-10.6-1.58-12.81,1-2.68,3.08-4.67,8.61-11,21.53s-7.54,18.48-8.43,23.15c0,0-1.58,7.31-2.67,11,0,0,.26,7.33.55,12.14,0,.68.08,1.3.12,1.85l1.64,7.15"/><path class="cls-5" d="M309.34,308.77a18.38,18.38,0,0,1-2.77-.9,27.28,27.28,0,0,1-5-2.64,25.18,25.18,0,0,1-5.55-5.13,25.44,25.44,0,0,1-1.6-2.28c-5.56-9-4.91-10.49-5.09-13,0,0-7.5-7.69-13.86-14.58-4.07-4.43-7.67-8.53-8.51-10.07,0,0-3.08,8.55-8,14.06a43.66,43.66,0,0,0-4.81,6.4,46.32,46.32,0,0,0-4.35,8.89,33.74,33.74,0,0,0-2,14l1.18,4.1.48,1.65a13,13,0,0,0,2.14,7.27l.35.46a7,7,0,0,0,3.1,2.35l1,.4a1.68,1.68,0,0,1,.55.33,2.85,2.85,0,0,1,.64,2.6,2.39,2.39,0,0,1-2.36,2.1,2.67,2.67,0,0,1-.55-.07l-1.75-.41a5.54,5.54,0,0,1-2.94-1.79l-3.95-4.63-.08-.09"/><path class="cls-5" d="M254.24,280.67c1-1.31,4-2.78,5-3.3,3.75-2,5-1.22,6.37-4.24l3.41-4.92,3.41,3.86,2.48-1.32"/><path class="cls-5" d="M285.68,322.76a31.84,31.84,0,0,1-21.3,1.47c-.92-.37-1.78-.77-2.59-1.18a26.69,26.69,0,0,1-5-3.25,24.65,24.65,0,0,1-7.76-12.26"/><path class="cls-5" d="M257,325.27s.32.6.9,1.56c1.74,2.87,5.81,9,10.5,11.79q.48.28.93.6c5.63,3.87,8.23,10.53,4.08,14.09-4.38,3.75-9.07,6.25-7.51,11.56.5,1.69,1.86,6.13,3.47,11.75,3.43,12,8,29.44,7.79,37.32-.32,11.56-1.25,20.93-1.25,20.93s40-23.12,51.25-23.12c-1.38-19.16,14.71-35.34,14.71-35.34a31.48,31.48,0,0,0,2.1-2.57c2.34-3.16,5.61-8.67,4.18-13.22-2.16-6.82-16.33-26-18.66-29.07s-8.08-4.66-10.59-6.45a61.82,61.82,0,0,1-8.68-7.88c-1.52-1.88-5-5-5.67-9.35"/><path class="cls-5" d="M275.86,434.87a20.52,20.52,0,0,1-8.1,7.68"/><path class="cls-5" d="M428.92,382.24c2.87-2.83,5.18-5.05,6.45-6.05,5-3.95,18.28-13.08,20.14-14.12"/><path class="cls-5" d="M381.81,416.67s11-3.53,19.31-8.72c6.17-3.86,19.33-17.34,27.73-25.64"/><path class="cls-5" d="M397.38,358.75s25.12-17,39-19.94,21.8,0,26.37,6.44.62,20.14-5.6,28c-5.44,6.89-22.43,34.66-27.35,47.13a19.58,19.58,0,0,0-1.31,4.36c-1,8.31.63,9.76,7.27,13.5a56.72,56.72,0,0,0,13.08,5.39c2.49.83,6.85,2.29,8.93,2.5l1.75.17a2.34,2.34,0,0,1,2.09,2.44,2.33,2.33,0,0,1-2.26,2.23l-4.28.14s-6.23-.42-8.72,0c-2.26.37-7,.39-18.3-2a23.39,23.39,0,0,0-8.3-.22c-3,.45-6.78,1.45-9.94,2-6.28,1.13-12.3.81-11.23-7.57.94-7.35,5.21-11.95,9.57-19.21a45.36,45.36,0,0,0,3.7-8.63c2.32-6.86,4.15-14.63,6.26-18.57,2.93-5.45,9.86-13.64,10.71-14.64a.45.45,0,0,1,.07-.07l0,0"/><path class="cls-5" d="M396.18,375.49s-27,6.71-51.35-1.22"/><path class="cls-5" d="M329.07,284.07s19.72,8.83,20.76,20c1.17,12.64-9.34,24.19-20.39,27.52"/><path class="cls-5" d="M269.31,376.62s-12.64-.88-18.81,2.64"/><path class="cls-5" d="M429.76,420.38s-11.47-.27-17.34-4.68"/><path class="cls-5" d="M327.06,409.55s4.47-4.16,12-.62"/><path class="cls-5" d="M327.11,411.75s2.57.58,6.42,7.05"/><path class="cls-5" d="M236.35,304.07l-3.44,4.68.24,3.87,2.28,3.75.65,1.06,4,.25a1.52,1.52,0,0,0,1.31-.62,1.61,1.61,0,0,0,.28-.81v-.07a1.5,1.5,0,0,0-1.06-1.44l-2.76-.83"/><path class="cls-5" d="M243.44,322.29l.68,0a1.85,1.85,0,0,1,0,3.69h-.16l-4.55.06-2.64,0a.82.82,0,0,1-.83-.77l-.13-2.25a.87.87,0,0,1,.9-.93l2.27.05Z"/><path class="cls-5" d="M241.47,317.14l2.15.54a2.35,2.35,0,0,1-.18,4.61,1.58,1.58,0,0,1-.38,0H243l-4-.14-2.38-.08a2.37,2.37,0,0,1-2.28-2.39l0-2.36,1.11-1"/><path class="cls-5" d="M239.39,326.82l1,5.75.32,1.81a2.86,2.86,0,0,0,2.82,2.37"/><path class="cls-5" d="M269.42,339a9.12,9.12,0,0,0,3.66-1.87c2.67-2.36,5.14-10.28-3.67-11.94"/><path class="cls-5" d="M261.5,323.62a8.35,8.35,0,0,0-3.32,3.17"/><path class="cls-5" d="M250.22,289.66c2.72,1.23,8.1,3.51,9.17,4.07,4.07,2.14,6.79-.09,11.27-.08s7.68,2.59,8.68,4.72"/><line class="cls-5" x1="321.36" y1="282.39" x2="324.77" y2="288.51"/></svg>