<svg id="Layer_1" data-name="Layer 1" xmlns="http://www.w3.org/2000/svg" viewBox="0 0 700 700"><defs><style>.cls-1{fill:#120c0c;}.cls-2{fill:#feae63;}.cls-3{fill:#c4e7f9;}.cls-4{fill:#99abcc;}.cls-5{fill:none;stroke:#000;stroke-linecap:round;stroke-linejoin:round;stroke-width:2.3px;}</style></defs><title>Yoga_poses_2020_color</title><path class="cls-1" d="M494.43,350.68l-.95,1s-9.93-3.17-12.09-4c-4.27-1.68-6.73.82-11.19,1.3s-7.91-1.75-9.13-3.77c0,0,.29-6-5-3.47a8.65,8.65,0,0,0-1.35,1.35l-.11-.09s-3.71-3.46-7-.64c-2,1-3.59,1.06-4.69.27-1.66-1.15-2.09-4.18-.55-8.6a25.39,25.39,0,0,1,9.83-12.38,27.8,27.8,0,0,1,16.35-4.46,20.5,20.5,0,0,1,4.67.7c.88.33,1.72.67,2.53,1C489.69,325.2,492.61,336.35,494.43,350.68Z"/><path class="cls-2" d="M454.7,343.1a8.65,8.65,0,0,1,1.35-1.35c5.31-2.54,5,3.47,5,3.47,1.22,2,4.67,4.24,9.13,3.77s6.92-3,11.19-1.3c2.16.86,12.09,4,12.09,4l-1.25,1.37s-4.44,7.76-8.9,10.85c-3.51,2.43-4.85,1.75-5.88,4.9l-2.86,5.26-3.81-3.47L462,375.7c-.49.8-5.2,6.06-10.07-3.79a14.77,14.77,0,0,0-4.36-3.5c-2.69-1.4-15.5-5.92-17.54-8.9a29.63,29.63,0,0,0,4.7-10.57s3-10.47-20.67-16.05c0,0-2-3.67.95-9.3l.07-.22c6.19,1.9,12.94,5.27,17.8,11.31,6.23,8.51,9.93,8,9.93,8h0c1.1.79,2.73.74,4.69-.27,3.33-2.82,7,.64,7,.64Zm22.51,20.17c1.22-.76,2-1.8,1.62-2.33s-1.59-.34-2.81.41-1.95,1.81-1.62,2.34S476,364,477.21,363.27Z"/><path class="cls-1" d="M479.26,308.35c2.34,7.2-3.3,10-3.3,10l-.27.61c-.81-.37-1.65-.71-2.53-1a20.5,20.5,0,0,0-4.67-.7v-.1c-8.82-1.55-7.31-9.65-4.67-12C467.51,301.7,476.93,301.16,479.26,308.35Z"/><path d="M478.83,360.94c.33.53-.4,1.57-1.62,2.33s-2.48,1-2.81.42.4-1.58,1.62-2.34S478.5,360.41,478.83,360.94Z"/><path class="cls-2" d="M353.11,408.63l-7.48.37a1.06,1.06,0,0,1-1.12-1.06,1.07,1.07,0,0,1,.91-1.06l9.91-1.77,11.21-3.22s7.41-1.79,6.35-4.8-5-9.23-6.86-12.41-9.32-12.12-11.93-18.81c-1.39-3.59-2.77-7.32-3.74-10-.26-.73-.5-1.38-.7-1.93a3.66,3.66,0,0,1,1.68-4.49l.05,0a14.28,14.28,0,0,1,4.34-1.32c6.52-1.06,14.87-3,20.95-4.22s14.07-.93,22-1.5c0,0,3.5-11.93,15.45-9.48,23.67,5.58,20.67,16.05,20.67,16.05a29.63,29.63,0,0,1-4.7,10.57,12.91,12.91,0,0,1-4.05,3.6c-6.07,3.27-12.23,1-19.79.68-.62,0-1.24-.05-1.88-.05a128.91,128.91,0,0,1-23.13-2c-.49-.1-1-.19-1.4-.26a19.79,19.79,0,0,0-7.16-.16h-1.25a48.91,48.91,0,0,1,3.81,10c2.71,9.69,4,15.19,6.71,21.23,2.58,5.75,2.5,6.78,1.41,10.66a4.65,4.65,0,0,0-.18,1.28,3.1,3.1,0,0,1-1.31,2.46,8.06,8.06,0,0,1-2.81,1.31l-2.75.75-5.83,1.63a1.87,1.87,0,0,1-2.37-1.81,1.9,1.9,0,0,1,.09-.58L353,411a1.15,1.15,0,0,1-1.21-.58,1.17,1.17,0,0,1-.14-.54,1.14,1.14,0,0,1,.81-1.09Z"/><path class="cls-3" d="M415.12,323.37l-.07.22c-3,5.63-.95,9.3-.95,9.3-12-2.45-15.45,9.48-15.45,9.48-7.9.57-15.88.24-22,1.5s-14.43,3.16-20.95,4.22a14.28,14.28,0,0,0-4.34,1.32,48.45,48.45,0,0,1,5.92-12.92c4.07-6,6.31-18.86,6.31-18.86,10.38,3.53,33.34,2.8,41.09,3.64A56.94,56.94,0,0,1,415.12,323.37Z"/><path class="cls-3" d="M404.35,363.74c.64,0,1.26,0,1.88.05,0,0-9.45,4.23-14.18,4.23a15.19,15.19,0,0,1-12.23-6.52c.45.07.91.16,1.4.26A128.91,128.91,0,0,0,404.35,363.74Z"/><path class="cls-4" d="M363.62,317.63s-2.24,12.83-6.31,18.86a48.45,48.45,0,0,0-5.92,12.92l-.05,0a3.66,3.66,0,0,0-1.68,4.49c.2.55.44,1.2.7,1.93-5.38-2.16-20.48-5.41-23.58-9.15a12.9,12.9,0,0,0-1.94-1.9,16.23,16.23,0,0,0-10.2-3.47c-26.79.09-65.56-14-71.17-15.75,0,0-22.13-8.39-26.37-10.83s-7.16-9.13-14.66-12.71-20.38-8.11-31.11-13.19c-4-1.89-6.66-3.15-9.09-4.13-1-8.47,6.65-16.53,6.65-16.53,6.19,1.31,23.57,4.95,30.3,5.83,8.25,1.09,16.61,5.6,21.17,9.29s8.24,6.22,13.22,7.07c7.43,1.27,19.69,4.77,27.93,5.14,19.46.88,24.21,3.3,33.3,5.22a74.68,74.68,0,0,0,12.26,1.32c10.75-.32,13.36-7.49,32.58-3.42,8.91,1.89,13.69,10.75,19.88,16.78A10.85,10.85,0,0,0,363.62,317.63Z"/><path class="cls-2" d="M99.25,258c.15-.66.38-1.57,1.34-1.66,1.65-.16,2.49,2.15,2.49,2.15a10.6,10.6,0,0,1,9.17-.32c4.91,2.19,17-3,17-3s6.78-2.39,9.39-3.76,7.91.08,8.12,5.72,8.08,8.38,19.9,10.66l2.23.48s-7.65,8.06-6.65,16.53a59.78,59.78,0,0,0-10.82-3.08c-11.21-3.38-11.71.47-29.62-6.7,0,0-16.65-7.06-18.6-7.91S94.92,261,94.92,261s-.61-2.52,2.34-3a4.43,4.43,0,0,1,1.55.6C99.07,258.78,99.14,258.44,99.25,258Z"/><path class="cls-5" d="M372.66,361.34a19.79,19.79,0,0,1,7.16.16c.45.07.91.16,1.4.26a128.91,128.91,0,0,0,23.13,2c.64,0,1.26,0,1.88.05,7.56.35,13.72,2.59,19.79-.68a12.91,12.91,0,0,0,4.05-3.6,29.63,29.63,0,0,0,4.7-10.57s3-10.47-20.67-16.05"/><path class="cls-5" d="M369.64,358.63a13.35,13.35,0,0,1,1.77,2.72,48.91,48.91,0,0,1,3.81,10c2.71,9.69,4,15.19,6.71,21.23,2.58,5.75,2.5,6.78,1.41,10.66a4.65,4.65,0,0,0-.18,1.28,3.1,3.1,0,0,1-1.31,2.46,8.06,8.06,0,0,1-2.81,1.31l-2.75.75-5.83,1.63a1.87,1.87,0,0,1-2.37-1.81,1.9,1.9,0,0,1,.09-.58,1.82,1.82,0,0,1,.7-.95l2.42-1.69a1.41,1.41,0,0,1,.42-.22l4.77-1.8"/><line class="cls-5" x1="353.12" y1="408.63" x2="363.04" y2="405.64"/><path class="cls-5" d="M368.18,408.27,353,411a1.15,1.15,0,0,1-1.21-.58,1.17,1.17,0,0,1-.14-.54,1.14,1.14,0,0,1,.81-1.09l.63-.19"/><path class="cls-5" d="M353.12,408.63h0l-7.48.37a1.06,1.06,0,0,1-1.12-1.06,1.07,1.07,0,0,1,.91-1.06l9.91-1.77,11.21-3.22s7.41-1.79,6.35-4.8-5-9.23-6.86-12.41-9.32-12.12-11.93-18.81c-1.39-3.59-2.77-7.32-3.74-10-.26-.73-.5-1.38-.7-1.93a3.66,3.66,0,0,1,1.68-4.49l.05,0a14.28,14.28,0,0,1,4.34-1.32c6.52-1.06,14.87-3,20.95-4.22s14.07-.93,22-1.5,6.27.89,12.79-2.12"/><path class="cls-5" d="M350.36,355.86c-5.38-2.16-20.48-5.41-23.58-9.15a12.9,12.9,0,0,0-1.94-1.9,16.23,16.23,0,0,0-10.2-3.47c-26.79.09-65.56-14-71.17-15.75,0,0-22.13-8.39-26.37-10.83s-7.16-9.13-14.66-12.71-20.38-8.11-31.11-13.19c-4-1.89-6.66-3.15-9.09-4.13a59.78,59.78,0,0,0-10.82-3.08"/><path class="cls-5" d="M379.82,361.49h0A15.19,15.19,0,0,0,392.05,368c4.73,0,14.18-4.23,14.18-4.23"/><path class="cls-5" d="M363.62,317.63s-2.24,12.83-6.31,18.86a48.45,48.45,0,0,0-5.92,12.92"/><path class="cls-5" d="M398.65,342.37s3.5-11.93,15.45-9.48c0,0-2-3.67.95-9.3"/><path class="cls-5" d="M99.25,258s-.38,1.78.61,2.66"/><path class="cls-5" d="M168.89,268.2s-7.65,8.06-6.65,16.53"/><path class="cls-5" d="M461.07,345.22s.29-6-5-3.47a8.65,8.65,0,0,0-1.35,1.35,8,8,0,0,0-1.65,7.32s1.31,2.94,3.31-.46"/><path class="cls-5" d="M450.7,354.85s-3.93,3.64-2,8"/><path class="cls-5" d="M493.48,351.72s-9.93-3.17-12.09-4c-4.27-1.68-6.73.82-11.19,1.3s-7.91-1.75-9.13-3.77"/><path class="cls-5" d="M476,318.33s5.64-2.78,3.3-10-11.75-6.65-15.44-3.29c-2.64,2.39-4.15,10.49,4.67,12"/><path class="cls-5" d="M454.59,343s-3.71-3.46-7-.64c-2,1-3.59,1.06-4.69.27-1.66-1.15-2.09-4.18-.55-8.6a25.39,25.39,0,0,1,9.83-12.38"/><path class="cls-5" d="M452.14,321.66a27.8,27.8,0,0,1,16.35-4.46,20.5,20.5,0,0,1,4.67.7c.88.33,1.72.67,2.53,1,14,6.26,16.92,17.41,18.74,31.74l-.95,1-1.25,1.37s-4.44,7.76-8.9,10.85c-3.51,2.43-4.85,1.75-5.88,4.9l-2.86,5.26-3.81-3.47L462,375.7c-.49.8-5.2,6.06-10.07-3.79a14.77,14.77,0,0,0-4.36-3.5c-2.69-1.4-15.5-5.92-17.54-8.9"/><path class="cls-5" d="M151.42,281.65c-11.21-3.38-11.71.47-29.62-6.7,0,0-16.65-7.06-18.6-7.91S94.92,261,94.92,261s-.61-2.52,2.34-3a4.43,4.43,0,0,1,1.55.6c.26.18.33-.16.44-.63.15-.66.38-1.57,1.34-1.66,1.65-.16,2.49,2.15,2.49,2.15a10.6,10.6,0,0,1,9.17-.32c4.91,2.19,17-3,17-3s6.78-2.39,9.39-3.76,7.91.08,8.12,5.72,8.08,8.38,19.9,10.66l2.23.48c6.19,1.31,23.57,4.95,30.3,5.83,8.25,1.09,16.61,5.6,21.17,9.29s8.24,6.22,13.22,7.07c7.43,1.27,19.69,4.77,27.93,5.14,19.46.88,24.21,3.3,33.3,5.22a74.68,74.68,0,0,0,12.26,1.32c10.75-.32,13.36-7.49,32.58-3.42,8.91,1.89,13.69,10.75,19.88,16.78a10.85,10.85,0,0,0,4.09,2.2c10.38,3.53,33.34,2.8,41.09,3.64a56.94,56.94,0,0,1,10.41,2.1c6.19,1.9,12.94,5.27,17.8,11.31,6.23,8.51,9.93,8,9.93,8"/></svg>