<svg id="Layer_1" data-name="Layer 1" xmlns="http://www.w3.org/2000/svg" viewBox="0 0 700 700"><defs><style>.cls-1{fill:#feae63;}.cls-2{fill:#99abcc;}.cls-3{fill:#c4e7f9;}.cls-4{fill:#392328;}.cls-5{fill:none;stroke:#000;stroke-linecap:round;stroke-linejoin:round;stroke-width:2.3px;}</style></defs><title>Yoga_poses_2020_color</title><path class="cls-1" d="M554.59,337.92h0c-2.77,0-6.53-.87-9.77-.87a61.28,61.28,0,0,0-9.42,1.61c5-6.2-.88-14.67-.88-14.67l0-.18c5.83.5,10.09.77,10.93.54,2.93-.82,8.47-1.8,10.26-2.61s7.66-2.77,11.73-4.72,7.82-5.38,11.08-7c1.41-.7,2.84-1.53,4-2.24a3.73,3.73,0,0,1,4.75.75l1,1.17c2,4.31.54,9.28-1.55,13.32a19.14,19.14,0,0,1-12.08,9.62l-1.91.51a19.34,19.34,0,0,0-6.71,3.28l-1.12.86a8.56,8.56,0,0,1-7.4,1.44Z"/><path class="cls-2" d="M418.17,309.11c12.47.6,25.52,1.3,30.94,1.83a58.22,58.22,0,0,1,15.07,3.17,17.3,17.3,0,0,0,4.12,1l5.51,1.57a15.44,15.44,0,0,1,1.78.32l12.34,2.89a16.32,16.32,0,0,0,3.81.44c8,0,29.48,2.29,42.78,3.44l0,.18s5.88,8.47.88,14.67h0c-8.47,1.88-19.08,4.74-19.08,4.74-41.54,5.7-43.07-12.1-72.23-2s-68.74,15.8-79.82,11.51c-3.44-1.33-8.5-2.24-14.19-2.78,0,0,2.14-10.53,4.09-19.05s4.56-13-4.09-22.5-11.65-9.81-11.65-9.81c12.16-3.47,11.51,1.74,28.66-6.27,15.22-7.11,43.4-7.78,49.6-7.84.87,0,1.74-.06,2.6-.15a28.21,28.21,0,0,1,9.73.69l1.89.48a28.34,28.34,0,0,0,11.08.52c5-.76,15.84-2,25.19-3.5,1.76-.29,3.33-.6,4.72-.92v0s7.11,2.54,7.07,12.55l.1.24c-3.91,1.67-8.5,4.4-16.91,7.54-16.29,6.08-24.43,3.58-27.69,3.58S418.59,309,418.17,309.11Z"/><path class="cls-1" d="M498.92,260.86c2.23,6.51-3.32,8.69-.93,20.41s.12,13.15-7.17,12a18.72,18.72,0,0,0-11.77,1.39l-.1-.24c0-10-7.07-12.55-7.07-12.55v0c11.34-2.68,11.43-6.73,13.74-11.38,2.61-5.21,6.08-7.38,6.08-10.42a23.27,23.27,0,0,0-.89-5.55,2.32,2.32,0,0,1-.07-.52,2,2,0,0,1,.93-1.69,3,3,0,0,1,3.64.28c1.92,1.83,2,5.52,2,5.52Z"/><path class="cls-3" d="M350.05,308.59c8.65,9.52,6.05,14,4.09,22.5s-4.09,19.05-4.09,19.05c-12.62-1.21-28.33-.64-36.31,1-7.79,1.64-20,7.22-29.4,11.57A51.38,51.38,0,0,0,280.5,344c-4.07-9.93-21.06-10.17-21.06-10.17s4.7-16.81-12.13-16.42c5.16-4.47,9.85-8,9.85-8,11.95-9,27.59-8.41,27.59-8.41l9.6-1.84a38.11,38.11,0,0,1,12-.37c8.28,1.06,23.49,2.48,32,0C338.4,298.78,341.4,299.07,350.05,308.59Z"/><path class="cls-1" d="M241.33,352.65a29.3,29.3,0,0,1,2.8-4.82,40.09,40.09,0,0,1,15.31-14s17,.24,21.06,10.17a51.38,51.38,0,0,1,3.84,18.77c-4.57,2.1-8.49,3.92-11,4.88a16.08,16.08,0,0,0-9.62,9.29c-7.33,16.45-26.33,31.29-26.33,31.29s-3.17,5.1-17.51,11.62-32.47,9.23-37.52,11.19-16,5.86-16,5.86l-15.1,8.91-9.46,2.63a4,4,0,0,1-3.38-.59l-1.11-.8-2.63-1.89a3.62,3.62,0,0,1-.81-.8l-1.27-1.75-.33-1.17-1.09-3.83a1.86,1.86,0,0,0-.23-.71l4.71-1.46a10.13,10.13,0,0,1,2-.42,8.21,8.21,0,0,0,6.12-3.86l-.18-.12H131.46a2,2,0,0,1-.23-4.08,68.26,68.26,0,0,0,15.56-3.74c9.34-3.48,8.47.21,19.33.87s34-17.82,44.43-20.21,12.38-8.17,12.38-8.17c2.74-6.48,9-16.4,11.77-20.71a8.67,8.67,0,0,0,1.39-4.44,30.36,30.36,0,0,1,1.31-8.34c.81-2.11,1.65-4.33,2.54-6.46.31-.73.62-1.44.94-2.14l.05-.11c0-.08.07-.15.1-.22l.18-.38Z"/><path class="cls-1" d="M234.56,331.09c1.42-2.94,5.42-7.09,9.68-11,1-.94,2-1.86,3.07-2.74,16.83-.39,12.13,16.42,12.13,16.42a40.09,40.09,0,0,0-15.31,14,29.3,29.3,0,0,0-2.8,4.82l-.12.24-.18.38a1.77,1.77,0,0,0-.1.22l-.05.11c-.32.7-.63,1.41-.94,2.14-4.2-1.71-12.48,1.26-12.48,1.26l-.11.11c-1.62-1.72-6.58-1.34-6.58-1.34-4.25,1-6.94-3.25-6.94-3.25l-.06-.14a8.33,8.33,0,0,1-1.82.54c-5.88-.3-2.74-5.45-2.74-5.45-.11-2.35-2.08-6-6.22-7.67s-7.5-.7-10.45-4.23c-1.49-1.78-8.68-9.32-8.68-9.32l1.75-.6s7.61-4.69,13-5.26c4.24-.45,5.1.78,7.5-1.49l1-.68,4-2.58,1.68,4.88,10.1-.27c.49-.28,3-1.23,4.93.36,1.3,1.08,2.28,3.33,2.1,7.78C230,328.39,230.12,330.87,234.56,331.09Zm-30.76-4.94c1.43-.08,2.57-.65,2.53-1.27s-1.22-1.06-2.66-1-2.57.65-2.54,1.28S202.36,326.24,203.8,326.15Z"/><path class="cls-1" d="M244.23,320.12h0c-4.26,3.87-8.26,8-9.68,11-4.44-.22-4.6-2.7-4.6-2.7.18-4.45-.8-6.7-2.1-7.78h0l3.45.41a29.52,29.52,0,0,0,6.51,0Z"/><path class="cls-4" d="M227.35,357.11a1.77,1.77,0,0,1,.51,1.27c0,3.68-1.34,4.37-7.78,6.65-4.14,1.46-8.13,1.85-11.71,2.5a128.43,128.43,0,0,1-13.8,1.41c-7.18.36-10.06-4.27-10.06-4.27-.59-.67-1.13-1.34-1.64-2a30.21,30.21,0,0,1-3.83-6.43c-3.79-8.86-1.28-17.18,2.58-27.17.29-.78.6-1.56.91-2.36l1.33-.46s7.19,7.54,8.68,9.32c3,3.53,6.31,2.52,10.45,4.23s6.11,5.32,6.22,7.67c0,0-3.14,5.15,2.74,5.45a8.33,8.33,0,0,0,1.82-.54l.06.14s2.69,4.25,6.94,3.25C220.77,355.77,225.73,355.39,227.35,357.11Z"/><path class="cls-1" d="M120.35,314.67l-.36-.13a1.84,1.84,0,0,1-1.08-1.82,2,2,0,0,1,.18-.68,1.87,1.87,0,0,1,1.32-1,2,2,0,0,1,.35,0H121l2.86.37,3.25.42a7.13,7.13,0,0,0,2.52-.12l4.66-1.09a7,7,0,0,1,2.84-.08l7.16,1.27a6.2,6.2,0,0,1,1.69.55,6.31,6.31,0,0,0,2.79.65h.35c7.34-.41,34.95.37,42.14,1.9,8.23,1.74,15.92,3.34,15.92,3.34l-1,.68c-2.4,2.27-3.26,1-7.5,1.49-5.4.57-13,5.26-13,5.26l-1.75.6-1.33.46c-.31.8-.62,1.58-.91,2.36l-1-.39a164.34,164.34,0,0,1-16-5s-9.27-3.34-17.91-2.52c-7,.67-13.76,1.23-16,1.41a4,4,0,0,1-1.55-.16l-11.77-3.61a4.16,4.16,0,0,1-2-1.37l-5.25-6.54a1.4,1.4,0,0,1,.27-2,1.35,1.35,0,0,1,.81-.26,1.39,1.39,0,0,1,1,.38l1.85,1.76,2.82,2.68,3.13,1.13A1.4,1.4,0,0,0,120.35,314.67Z"/><path d="M206.33,324.88c0,.62-1.1,1.19-2.53,1.27s-2.63-.35-2.67-1,1.1-1.2,2.54-1.28S206.3,324.26,206.33,324.88Z"/><path class="cls-4" d="M182.77,362.75c3.35,8.31-5.78,7.52-10.77,7.12s-8.09-5.35-3.22-11.14S179,356.26,179,356.26l0,0a30.21,30.21,0,0,0,3.83,6.43Z"/><path class="cls-1" d="M137.29,447l-1.62,1.18a2.29,2.29,0,0,1-2.84-.13l-3.17-2.78a5,5,0,0,1-1.68-3.15l-.51-4.12a1.94,1.94,0,0,1,0-.24A1.87,1.87,0,0,1,129,436a1.88,1.88,0,0,1,1.89.92,1.86,1.86,0,0,1,.23.71l1.09,3.83a.57.57,0,0,0,0,.13,1.75,1.75,0,0,0,.34,1l1.27,1.75a3.62,3.62,0,0,0,.81.8Z"/><path class="cls-1" d="M129.66,445.3l-5.56-5a4.68,4.68,0,0,1-.39-.38,6.68,6.68,0,0,1-1.48-2.45l-.69-2.05a2.25,2.25,0,0,1-.11-.68,2.14,2.14,0,0,1,.77-1.64l.07-.05a2.11,2.11,0,0,1,3,.44l2,2.71.66.36a1.86,1.86,0,0,0-.45,1.2,1.94,1.94,0,0,0,0,.24l.51,4.12A5,5,0,0,0,129.66,445.3Z"/><path class="cls-1" d="M123.1,307.43l.75,4L121,311h-.23a2,2,0,0,0-.35,0v-.84l.41-4,.61-.06A1.56,1.56,0,0,1,123.1,307.43Z"/><path class="cls-1" d="M123.71,440l-4.55-3.68a2.12,2.12,0,0,1-.31-3l0,0a2.12,2.12,0,0,1,2.77-.44l.55.35a2.14,2.14,0,0,0-.77,1.64,2.25,2.25,0,0,0,.11.68l.69,2.05A6.68,6.68,0,0,0,123.71,440Z"/><path class="cls-1" d="M120.93,305.12a1.09,1.09,0,0,1,0,.18l-.1.92-.41,4V311a1.87,1.87,0,0,0-1.32,1l-.68-.33-1.5-5.37.37-1.63a1.84,1.84,0,0,1,2.2-1.4A1.86,1.86,0,0,1,120.93,305.12Z"/><path class="cls-1" d="M116.91,306.34l1.5,5.37.68.33a2,2,0,0,0-.18.68,1.84,1.84,0,0,0,1.08,1.82l-3.13-1.13L114,310.73l-.82-6.42a1.52,1.52,0,0,1,1.38-1.7h.12a1.52,1.52,0,0,1,1.47,1.15Z"/><path class="cls-5" d="M209.21,347.47s-3.14,5.15,2.74,5.45a8.33,8.33,0,0,0,1.82-.54,8,8,0,0,0,5-5.63s.26-3.21-3.12-1.18"/><path class="cls-5" d="M222.91,344s5.2-1.31,5.58-6.06"/><path class="cls-5" d="M183.86,326.25s7.19,7.54,8.68,9.32c3,3.53,6.31,2.52,10.45,4.23s6.11,5.32,6.22,7.67"/><path class="cls-5" d="M179,356.26s-5.34-3.31-10.21,2.47S167,369.47,172,369.87s14.12,1.19,10.77-7.12"/><path class="cls-5" d="M213.83,352.52s2.69,4.25,6.94,3.25c0,0,5-.38,6.58,1.34a1.77,1.77,0,0,1,.51,1.27c0,3.68-1.34,4.37-7.78,6.65-4.14,1.46-8.13,1.85-11.71,2.5a128.43,128.43,0,0,1-13.8,1.41c-7.18.36-10.06-4.27-10.06-4.27-.59-.67-1.13-1.34-1.64-2a30.21,30.21,0,0,1-3.83-6.43c-3.79-8.86-1.28-17.18,2.58-27.17.29-.78.6-1.56.91-2.36l1.33-.46,1.75-.6s7.61-4.69,13-5.26c4.24-.45,5.1.78,7.5-1.49l1-.68,4-2.58,1.68,4.88,10.1-.27c.49-.28,3-1.23,4.93.36,1.3,1.08,2.28,3.33,2.1,7.78,0,0,.16,2.48,4.6,2.7a16,16,0,0,0,2.84-.12"/><path class="cls-5" d="M227.46,357s8.28-3,12.48-1.26"/><path class="cls-5" d="M180.61,328.68a164.34,164.34,0,0,1-16-5s-9.27-3.34-17.91-2.52c-7,.67-13.76,1.23-16,1.41a4,4,0,0,1-1.55-.16l-11.77-3.61a4.16,4.16,0,0,1-2-1.37l-5.25-6.54a1.4,1.4,0,0,1,.27-2,1.35,1.35,0,0,1,.81-.26,1.39,1.39,0,0,1,1,.38l1.85,1.76,2.82,2.68,3.13,1.13.36.13"/><path class="cls-5" d="M133.11,315.93l-1.06.22a12.46,12.46,0,0,1-5.23,0l-6.47-1.44a1.4,1.4,0,0,1-.36-.13,1.84,1.84,0,0,1-1.08-1.82,2,2,0,0,1,.18-.68,1.87,1.87,0,0,1,1.32-1,2,2,0,0,1,.35,0H121l2.86.37,3.25.42a7.13,7.13,0,0,0,2.52-.12l4.66-1.09a7,7,0,0,1,2.84-.08l7.16,1.27a6.2,6.2,0,0,1,1.69.55,6.31,6.31,0,0,0,2.79.65h.35c7.34-.41,34.95.37,42.14,1.9,8.23,1.74,15.92,3.34,15.92,3.34"/><path class="cls-5" d="M114,310.73l-.82-6.42a1.52,1.52,0,0,1,1.38-1.7h.12a1.52,1.52,0,0,1,1.47,1.15l.72,2.59,1.5,5.37"/><path class="cls-5" d="M116.88,306.49l0-.15.37-1.63a1.84,1.84,0,0,1,2.2-1.4,1.86,1.86,0,0,1,1.45,1.81,1.09,1.09,0,0,1,0,.18l-.1.92-.41,4"/><path class="cls-5" d="M120.82,306.22l.61-.06a1.56,1.56,0,0,1,1.67,1.27l.75,4"/><path class="cls-5" d="M241.33,352.65a29.3,29.3,0,0,1,2.8-4.82,40.09,40.09,0,0,1,15.31-14s4.7-16.81-12.13-16.42"/><path class="cls-5" d="M240.93,353.49c0-.08.07-.15.1-.22l.18-.38"/><path class="cls-5" d="M143.53,431H131.46a2,2,0,0,1-.23-4.08,68.26,68.26,0,0,0,15.56-3.74c9.34-3.48,8.47.21,19.33.87s34-17.82,44.43-20.21,12.38-8.17,12.38-8.17c2.74-6.48,9-16.4,11.77-20.71a8.67,8.67,0,0,0,1.39-4.44,30.36,30.36,0,0,1,1.31-8.34c.81-2.11,1.65-4.33,2.54-6.46.31-.73.62-1.44.94-2.14"/><path class="cls-5" d="M145.27,427.87a11.93,11.93,0,0,1-1.56,3.27,8.21,8.21,0,0,1-6.12,3.86,10.13,10.13,0,0,0-2,.42l-4.71,1.46"/><path class="cls-5" d="M554.59,337.92a4.76,4.76,0,0,0,3.24-.87"/><path class="cls-5" d="M535.38,338.66a61.28,61.28,0,0,1,9.42-1.61c3.24,0,7,.87,9.77.87"/><path class="cls-5" d="M145.27,440.57l-2,1.75a3.27,3.27,0,0,1-2.58.77l-2-.28a3.5,3.5,0,0,1-2.16-1.14l-1.18-1.29a1.74,1.74,0,0,0-2.38-.2,1.69,1.69,0,0,0-.66,1.24.57.57,0,0,0,0,.13,1.75,1.75,0,0,0,.34,1l1.27,1.75a3.62,3.62,0,0,0,.81.8l2.63,1.89,1.11.8a4,4,0,0,0,3.38.59l9.46-2.63,15.1-8.91s11-3.91,16-5.86,23.19-4.68,37.52-11.19,17.51-11.62,17.51-11.62,19-14.84,26.33-31.29a16.08,16.08,0,0,1,9.62-9.29c2.5-1,6.42-2.78,11-4.88,9.44-4.35,21.61-9.93,29.4-11.57,8-1.68,23.69-2.25,36.31-1,5.69.54,10.75,1.45,14.19,2.78,11.08,4.29,50.66-1.42,79.82-11.51s30.69,7.7,72.23,2c0,0,10.61-2.86,19.08-4.74"/><path class="cls-5" d="M166.34,428.41s-2.94-2.93-6.41-1.09"/><path class="cls-5" d="M132.58,442.59l-.33-1.17-1.09-3.83a1.86,1.86,0,0,0-.23-.71A1.88,1.88,0,0,0,129,436a1.87,1.87,0,0,0-1.59,1.83,1.94,1.94,0,0,0,0,.24l.51,4.12a5,5,0,0,0,1.68,3.15l3.17,2.78a2.29,2.29,0,0,0,2.84.13l1.62-1.18"/><path class="cls-5" d="M127.24,436.23l-2-2.71a2.11,2.11,0,0,0-3-.44l-.07.05a2.14,2.14,0,0,0-.77,1.64,2.25,2.25,0,0,0,.11.68l.69,2.05a6.68,6.68,0,0,0,1.48,2.45,4.68,4.68,0,0,0,.39.38l5.56,5"/><path class="cls-5" d="M122.2,433.13l-.55-.35a2.12,2.12,0,0,0-2.77.44l0,0a2.12,2.12,0,0,0,.31,3l4.55,3.68"/><path class="cls-5" d="M418.16,309.11c-10.28-.49-20.18-.92-25-1.13a12.49,12.49,0,0,1-5.86-1.74l-.86-.51"/><path class="cls-5" d="M554.57,337.92h0l2.93.8a8.56,8.56,0,0,0,7.4-1.44l1.12-.86a19.34,19.34,0,0,1,6.71-3.28l1.91-.51A19.14,19.14,0,0,0,586.74,323c2.09-4,3.55-9,1.55-13.32l-1-1.17a3.73,3.73,0,0,0-4.75-.75c-1.18.71-2.61,1.54-4,2.24-3.26,1.63-7,5.05-11.08,7s-9.94,3.91-11.73,4.72-7.33,1.79-10.26,2.61c-.84.23-5.1,0-10.93-.54-13.3-1.15-34.78-3.44-42.78-3.44a16.32,16.32,0,0,1-3.81-.44L475.59,317a15.44,15.44,0,0,0-1.78-.32l-5.51-1.57a17.3,17.3,0,0,1-4.12-1,58.22,58.22,0,0,0-15.07-3.17c-5.42-.53-18.47-1.23-30.94-1.83"/><path class="cls-5" d="M418.16,309.11h0c.42-.11,13.07-3.38,16.28-3.38s11.4,2.5,27.69-3.58c8.41-3.14,13-5.87,16.91-7.54a18.72,18.72,0,0,1,11.77-1.39c7.29,1.2,9.56-.22,7.17-12s3.16-13.9.93-20.41L497.34,258s-.12-3.69-2-5.52a3,3,0,0,0-3.64-.28,2,2,0,0,0-.93,1.69,2.32,2.32,0,0,0,.07.52,23.27,23.27,0,0,1,.89,5.55c0,3-3.47,5.21-6.08,10.42-2.31,4.65-2.4,8.7-13.74,11.38-1.39.32-3,.63-4.72.92-9.35,1.52-20.24,2.74-25.19,3.5a28.34,28.34,0,0,1-11.08-.52l-1.89-.48a28.21,28.21,0,0,0-9.73-.69c-.86.09-1.73.14-2.6.15-6.2.06-34.38.73-49.6,7.84-17.15,8-16.5,2.8-28.66,6.27-8.55,2.44-23.76,1-32,0a38.11,38.11,0,0,0-12,.37l-9.6,1.84s-15.64-.57-27.59,8.41c0,0-4.69,3.56-9.85,8-1,.88-2.05,1.8-3.07,2.74-4.26,3.87-8.26,8-9.68,11"/><path class="cls-5" d="M471.88,281.82s7.11,2.54,7.07,12.55"/><path class="cls-5" d="M534.5,324s5.88,8.47.88,14.67h0"/><path class="cls-5" d="M227.86,320.6l3.45.41a29.52,29.52,0,0,0,6.51,0l6.41-.93"/><path class="cls-5" d="M268.29,344.9s-6.64,5.67-7.9,10.25a75.64,75.64,0,0,1-3.59,9.15"/><path class="cls-5" d="M259.44,333.81s17,.24,21.06,10.17a51.38,51.38,0,0,1,3.84,18.77"/><path class="cls-5" d="M338.4,298.78s3,.29,11.65,9.81,6.05,14,4.09,22.5-4.09,19.05-4.09,19.05"/><path class="cls-5" d="M240.88,353.6l.05-.11a1.77,1.77,0,0,1,.1-.22l.18-.38.12-.24c1.07-2.08,4.09-6.92,9.24-7.75"/></svg>