<svg id="Layer_1" data-name="Layer 1" xmlns="http://www.w3.org/2000/svg" viewBox="0 0 700 700"><defs><style>.cls-1{fill:#feae63;}.cls-2{fill:#99abcc;}.cls-3{fill:#c4e7f9;}.cls-4{fill:#392328;}.cls-5{fill:none;stroke:#000;stroke-linecap:round;stroke-linejoin:round;stroke-width:2.3px;}</style></defs><title>Yoga_poses_2020_color</title><path class="cls-1" d="M404.74,311.1c-.16-.63-5.62-20.62-7.33-31.73,0,0,0,6.35-.47,13.18L385.2,281.16l.53-31.41a91.94,91.94,0,0,0,11.87,1.87s12.46.11,18.55,18.79,4,14,9.61,30.95c4.46,13.38,5.15,26.92,4.67,32.3a8.49,8.49,0,0,1-1.41,4,6.38,6.38,0,0,1-5.32,2.84,6.47,6.47,0,0,1-2.8-.64A110.7,110.7,0,0,0,408,334.59a62.51,62.51,0,0,1-10.5-5.18,2.25,2.25,0,0,0-.57-.34h0c-2.58-1.52-5.31-3.23-8-5-9.6-6.27-19.25-13.41-22.73-16.37-6-5.11-8.19-4.4-8.19-14.12v-.67c.07-8.28.46-22.85.62-28.51a2.15,2.15,0,0,1,4.24-.43l5.33,22.35,1.52,6.39a9.29,9.29,0,0,0,4.8,6.13,194.37,194.37,0,0,0,19.39,8.7c2.24.85,4.52,1.63,6.76,2.31C402.09,310.27,403.46,310.69,404.74,311.1Z"/><path class="cls-1" d="M399.31,406.92c1.74,10.42-3.69,14-3.69,14L393.48,425a3.61,3.61,0,0,1-3.2,1.94,3.56,3.56,0,0,1-1.85-.51,2.15,2.15,0,0,1-.82-2.77c1.33-2.85,2.41-7.78.84-10.91-1.34-2.69-3.62-8.29-4.92-11.54a8.54,8.54,0,0,0-1.86-2.84,8.35,8.35,0,0,0-5.76-2.51,26.81,26.81,0,0,0-4.35.34c4.26-14.42,0-16.88,0-16.88A171.51,171.51,0,0,0,392,378.9c1.28-.14,2.43-.24,3.45-.28,6.26-.3,7.95,1.29,7.95,7.45C403.44,393.23,397.58,396.49,399.31,406.92Z"/><path class="cls-2" d="M355.52,378.33c-1.52-9.46,1.08-20,1.2-20.48-11.47,13.9-29,16.47-29.5,16.54,10.21.48,18.77,2.66,25,3.53C353.26,378.07,354.37,378.2,355.52,378.33Zm16,1s4.26,2.46,0,16.88c-4.36.62-10.47,2-19.91,3.36-3.45.5-7.33,1-11.74,1.46-31.27,3.26-38.77-.65-53.1-3.58-8.49-1.74-17.37-2.5-17.37-10.82,0-5.44.38-8.81,6-14.92,10-10.93,34.51-26.7,47.06-34.45a14.13,14.13,0,0,0,6.68-11.14c4,5.69,33.68,13.6,59.76-2.09,2.73,1.78,5.46,3.49,8,5h0l.57.34c1.16.89,3.63,3.85,3.63,13,0,11.94-5.67,36.21-5.67,36.21-1,0-2.17.14-3.45.28A171.51,171.51,0,0,1,371.56,379.35Z"/><path class="cls-3" d="M385.2,281.16l11.74,11.39c-.45,5.91-1.33,12.17-3.06,15a194.37,194.37,0,0,1-19.39-8.7,9.29,9.29,0,0,1-4.8-6.13l-1.52-6.39S379.66,286.21,385.2,281.16Z"/><path class="cls-3" d="M366.17,307.68c3.48,3,13.13,10.1,22.73,16.37-26.08,15.69-55.73,7.78-59.76,2.09a14.21,14.21,0,0,0-.07-2.52l-.19-1.6h0c8.52-5.71,16.54-11.69,19.65-14.33,6-5.11,8.2-4.4,8.2-14.12H358C358,303.28,360.17,302.57,366.17,307.68Z"/><path class="cls-1" d="M385.73,249.75l-.53,31.41c-5.54,5-17,5.14-17,5.14L362.84,264a2.15,2.15,0,0,0-4.24.43c-.16,5.66-.55,20.23-.62,28.51v.67h-1.25v-.67c-.08-8.28-.46-22.85-.62-28.51a2.15,2.15,0,0,0-4.24-.43l-5.63,23.6c-10.42-.3-20.34-6.39-20.34-6.39l-.9-30.61a93.21,93.21,0,0,0,16.87-4.72c3.74-2.12,3-8.28,2.73-14.62l.59-.19c2.61,2.07,6.7,3.8,13.07,3.68,0,0,6.85,0,11.64-3.76l.21.27c-.24,6.34-1,12.5,2.72,14.62A94.29,94.29,0,0,0,385.73,249.75Z"/><path class="cls-2" d="M375.91,395.89a8.35,8.35,0,0,1,5.76,2.51c-4.3,3.43-8.31,15.47-8.31,19.16v12.38c0,16.76-8.84,46.42-12.31,57.42a21.34,21.34,0,0,1-13.64-2.74c.09-2.5.07-5.43-.11-8.85-.87-16.08-1.74-29.54,0-39.1s1.3-14.33,1.3-22.15a42.72,42.72,0,0,1,3-14.92h0c9.44-1.36,15.55-2.74,19.91-3.36A26.81,26.81,0,0,1,375.91,395.89Z"/><path class="cls-1" d="M380.51,206.78s.31,5-2.16,8.12c0,0-1.54,1.41-1-2.26l-.32,0c.05-.32.08-.63.11-.93l.36-5.89.33,0C378.49,204.73,379.85,203.07,380.51,206.78Z"/><path class="cls-4" d="M377.7,203.11a45.18,45.18,0,0,0-2.12-6.65c-3.78-9.81-17.33-9.82-17.33-9.82-17.94.12-21.2,12.82-21.77,16.74-.11.72-.13,1.14-.13,1.14s-5.18-15.66,3.84-23.69a21.24,21.24,0,0,1,6.86-4.09c8-3,16.52-1.17,19.41-.39.66.18,1,.3,1,.3,18.36,7.37,10.33,27.24,10.33,27.24A5.68,5.68,0,0,0,377.7,203.11Z"/><path class="cls-1" d="M377.7,203.11l-.17,2.66-.36,5.89c0,.3-.06.61-.11.93-.56,4-2.37,9.09-2.91,11.59a11.38,11.38,0,0,1-4.25,6.76c-4.79,3.75-11.64,3.76-11.64,3.76-6.37.12-10.46-1.61-13.07-3.68a12.31,12.31,0,0,1-4.41-6.54c-.83-3.06-2.72-8.78-3.26-11.93-.07-.45-.12-.85-.14-1.18l-.69-6.1-.21-1.89c.57-3.92,3.83-16.62,21.77-16.74,0,0,13.55,0,17.33,9.82A45.18,45.18,0,0,1,377.7,203.11Zm-11.24,6.21a2.32,2.32,0,1,0-2-2.28A2.16,2.16,0,0,0,366.46,209.32Zm-18.12-.25a2.32,2.32,0,1,0-2-2.28A2.15,2.15,0,0,0,348.34,209.07Z"/><path d="M368.43,207a2,2,0,1,1-2-2.28A2.16,2.16,0,0,1,368.43,207Z"/><path class="cls-4" d="M367.58,176.33l-1.12,0c-2.89-.78-11.41-2.6-19.41.39l-.16-.41c0-5.35,4.64-9.69,10.35-9.69S367.58,171,367.58,176.33Z"/><path class="cls-1" d="M365.36,518.61c2.82,7.13-3.85,13.44-8.42,14.32a3.19,3.19,0,0,1-3.44-1.68c-1.58-3.08-3.47-6-4.37-8.93a92.19,92.19,0,0,0-3.88-9.88,8.23,8.23,0,0,1-1-5.25c.17-1.12.38-2.05.56-2.77a14,14,0,0,0,.31-3.65,17.25,17.25,0,0,1,.18-3.63s1.78-3.29,2.12-12.52a21.34,21.34,0,0,0,13.64,2.74,26.12,26.12,0,0,0-1.13,7.45,20,20,0,0,1-.73,5,8.85,8.85,0,0,0-.28,3.24C359.46,508.73,362,510.2,365.36,518.61Z"/><path class="cls-1" d="M307.79,311.81q2.82-.93,6.27-2c3.11-.94,6.29-2.09,9.36-3.31,6.78-2.7,13-5.75,16.8-7.7a9.29,9.29,0,0,0,4.8-6.13l1.22-5.14,5.63-23.6a2.15,2.15,0,0,1,4.24.43c.16,5.66.54,20.23.62,28.51v.67c0,9.72-2.19,9-8.2,14.12-3.11,2.64-11.13,8.62-19.65,14.33h0c-8.3,5.56-17.05,10.86-22.2,12.57a110.7,110.7,0,0,0-12.87,5.24,6.47,6.47,0,0,1-2.8.64,6.4,6.4,0,0,1-5.33-2.84,8.58,8.58,0,0,1-1.4-4c-.48-5.38.84-20.06,5.3-33.44,5.64-16.94,3-12,9.12-30.63s18.41-18,18.41-18q4-.37,7.89-1.07l.9,30.61-8.73,10.27-.47.07a40.14,40.14,0,0,1-.32-8.45c.17-1.22.3-2.45.4-3.68a31.42,31.42,0,0,0-.4,3.68C314.39,297.7,308,311.35,307.79,311.81Z"/><path d="M350.31,206.76a2,2,0,1,1-2-2.28A2.15,2.15,0,0,1,350.31,206.76Z"/><path class="cls-3" d="M346.24,287.55,345,292.69a9.29,9.29,0,0,1-4.8,6.13c-3.8,1.95-10,5-16.8,7.7l-.51-1.33c-3.81-4-5.51-9.07-6.21-13.69l.47-.07,8.73-10.27S335.82,287.25,346.24,287.55Z"/><path class="cls-1" d="M337.52,212.55l-.22,0c.72,3.64-.87,2.3-.87,2.3-2.61-3-2.51-8-2.51-8,.44-3.22,1.56-2.47,2.3-1.54l.47,0,.69,6.1C337.4,211.7,337.45,212.1,337.52,212.55Z"/><path class="cls-5" d="M346.89,176.33c0-5.35,4.64-9.69,10.35-9.69s10.34,4.34,10.34,9.69"/><path class="cls-5" d="M336.48,203.38c.57-3.92,3.83-16.62,21.77-16.74,0,0,13.55,0,17.33,9.82a45.18,45.18,0,0,1,2.12,6.65,5.68,5.68,0,0,1,.12.78s8-19.87-10.33-27.24c0,0-.37-.12-1-.3-2.89-.78-11.41-2.6-19.41.39a21.24,21.24,0,0,0-6.86,4.09c-9,8-3.84,23.69-3.84,23.69S336.37,204.1,336.48,203.38Z"/><path class="cls-5" d="M377.86,205.79c.63-1.06,2-2.72,2.65,1,0,0,.31,5-2.16,8.12,0,0-1.54,1.41-1-2.26"/><path class="cls-5" d="M336.22,205.32c-.74-.93-1.86-1.68-2.3,1.54,0,0-.1,5,2.51,8,0,0,1.59,1.34.87-2.3"/><path class="cls-5" d="M336.38,202.53l.1.85.21,1.89.69,6.1c0,.33.07.73.14,1.18.54,3.15,2.43,8.87,3.26,11.93a12.31,12.31,0,0,0,4.41,6.54c2.61,2.07,6.7,3.8,13.07,3.68,0,0,6.85,0,11.64-3.76a11.38,11.38,0,0,0,4.25-6.76c.54-2.5,2.35-7.6,2.91-11.59.05-.32.08-.63.11-.93l.36-5.89.17-2.66.07-1.2"/><path class="cls-5" d="M359,214.72a4.32,4.32,0,0,1-4.44-.13"/><polyline class="cls-5" points="352.22 222.14 353.16 222.52 356.12 221.65 357.23 222.33 358.46 221.68 361.11 222.63 361.97 222.4"/><line class="cls-5" x1="356.04" y1="227.07" x2="358.6" y2="227.11"/><path class="cls-5" d="M307.78,311.82a118.51,118.51,0,0,0-14.13,5.39"/><path class="cls-5" d="M328.88,322c8.52-5.71,16.54-11.69,19.65-14.33,6-5.11,8.2-4.4,8.2-14.12v-.67c-.08-8.28-.46-22.85-.62-28.51a2.15,2.15,0,0,0-4.24-.43l-5.63,23.6L345,292.69a9.29,9.29,0,0,1-4.8,6.13c-3.8,1.95-10,5-16.8,7.7-3.07,1.22-6.25,2.37-9.36,3.31q-3.45,1.05-6.27,2"/><path class="cls-5" d="M344.6,231.21c.24,6.34,1,12.5-2.73,14.62A93.21,93.21,0,0,1,325,250.55q-3.84.69-7.89,1.07s-12.33-.7-18.41,18-3.48,13.69-9.12,30.63c-4.46,13.38-5.78,28.06-5.3,33.44a8.58,8.58,0,0,0,1.4,4,6.4,6.4,0,0,0,5.33,2.84,6.47,6.47,0,0,0,2.8-.64,110.7,110.7,0,0,1,12.87-5.24c5.15-1.71,13.9-7,22.2-12.57"/><path class="cls-5" d="M316.38,283.05a40.14,40.14,0,0,0,.32,8.45c.7,4.62,2.4,9.72,6.21,13.69"/><path class="cls-5" d="M316.38,283.05c.17-1.22.3-2.45.4-3.68A31.42,31.42,0,0,0,316.38,283.05Z"/><path class="cls-5" d="M307.78,311.82h0c.21-.46,6.6-14.11,8.59-28.76"/><path class="cls-5" d="M404.75,311.11c11.4,3.65,16.31,6.1,16.31,6.1"/><path class="cls-5" d="M396.94,329.06c-2.58-1.52-5.31-3.23-8-5-9.6-6.27-19.25-13.41-22.73-16.37-6-5.11-8.19-4.4-8.19-14.12v-.67c.07-8.28.46-22.85.62-28.51a2.15,2.15,0,0,1,4.24-.43l5.33,22.35,1.52,6.39a9.29,9.29,0,0,0,4.8,6.13,194.37,194.37,0,0,0,19.39,8.7c2.24.85,4.52,1.63,6.76,2.31,1.45.44,2.82.86,4.1,1.27"/><path class="cls-5" d="M370.11,231.21c-.24,6.34-1,12.5,2.72,14.62a94.29,94.29,0,0,0,12.9,3.92,91.94,91.94,0,0,0,11.87,1.87s12.46.11,18.55,18.79,4,14,9.61,30.95c4.46,13.38,5.15,26.92,4.67,32.3a8.49,8.49,0,0,1-1.41,4,6.38,6.38,0,0,1-5.32,2.84,6.47,6.47,0,0,1-2.8-.64A110.7,110.7,0,0,0,408,334.59a62.51,62.51,0,0,1-10.5-5.18l-.57-.34"/><path class="cls-5" d="M404.75,311.11h0c-.16-.63-5.62-20.62-7.33-31.73,0,0,0,6.35-.47,13.18-.45,5.91-1.33,12.17-3.06,15"/><path class="cls-5" d="M317.17,291.43l8.73-10.27s9.92,6.09,20.34,6.39"/><path class="cls-5" d="M368.17,286.3s11.49-.09,17-5.14l11.74,11.39"/><line class="cls-5" x1="385.2" y1="281.16" x2="385.73" y2="249.75"/><line class="cls-5" x1="325.9" y1="281.16" x2="325" y2="250.55"/><path class="cls-5" d="M327.21,374.39a73.64,73.64,0,0,0-30,4.51"/><path class="cls-5" d="M328.88,322h0l.19,1.6a14.11,14.11,0,0,1-6.61,13.66c-12.55,7.75-37.08,23.52-47.06,34.45-5.58,6.11-6,9.48-6,14.92,0,8.32,8.88,9.08,17.37,10.82,14.33,2.93,21.83,6.84,53.1,3.58,4.41-.46,8.29-1,11.74-1.46,9.44-1.36,15.55-2.74,19.91-3.36a26.81,26.81,0,0,1,4.35-.34,8.35,8.35,0,0,1,5.76,2.51,8.54,8.54,0,0,1,1.86,2.84c1.3,3.25,3.58,8.85,4.92,11.54,1.57,3.13.49,8.06-.84,10.91a2.15,2.15,0,0,0,.82,2.77,3.56,3.56,0,0,0,1.85.51,3.61,3.61,0,0,0,3.2-1.94l2.14-4.11s5.43-3.58,3.69-14,4.13-13.69,4.13-20.85c0-6.16-1.69-7.75-7.95-7.45-1,0-2.17.14-3.45.28a171.51,171.51,0,0,1-20.48.45c-5.56-.16-11.21-.5-16-1-1.15-.13-2.26-.26-3.3-.41-6.23-.87-14.79-3.05-25-3.53"/><path class="cls-5" d="M327.21,374.39h0c.5-.07,18-2.64,29.5-16.54"/><path class="cls-5" d="M396.94,329.06h0a2.25,2.25,0,0,1,.57.34c1.16.89,3.63,3.85,3.63,13,0,11.94-5.67,36.21-5.67,36.21"/><path class="cls-5" d="M356.73,357.83v0c-.12.51-2.72,11-1.2,20.48"/><path class="cls-5" d="M351.65,399.6a42.72,42.72,0,0,0-3,14.92c0,7.82.43,12.59-1.3,22.15s-.87,23,0,39.1c.18,3.42.2,6.35.11,8.85-.34,9.23-2.12,12.52-2.12,12.52a17.25,17.25,0,0,0-.18,3.63,14,14,0,0,1-.31,3.65c-.18.72-.39,1.65-.56,2.77a8.23,8.23,0,0,0,1,5.25,92.19,92.19,0,0,1,3.88,9.88c.9,3,2.79,5.85,4.37,8.93a3.19,3.19,0,0,0,3.44,1.68c4.57-.88,11.24-7.19,8.42-14.32-3.33-8.41-5.9-9.88-6.45-15.59a8.85,8.85,0,0,1,.28-3.24,20,20,0,0,0,.73-5,26.12,26.12,0,0,1,1.13-7.45c3.47-11,12.31-40.66,12.31-57.42V417.56c0-3.69,4-15.73,8.31-19.16"/><path class="cls-5" d="M329.13,326.13h0c4,5.69,33.68,13.6,59.76-2.09h0"/><path class="cls-5" d="M371.56,379.35s4.26,2.46,0,16.88"/><path class="cls-5" d="M347.4,484.61h0a21.34,21.34,0,0,0,13.64,2.74"/></svg>