<svg id="Layer_1" data-name="Layer 1" xmlns="http://www.w3.org/2000/svg" viewBox="0 0 700 700"><defs><style>.cls-1{fill:#feae63;}.cls-2{fill:#99abcc;}.cls-3{fill:#120c0c;}.cls-4{fill:#c4e7f9;}.cls-5{fill:none;stroke:#000;stroke-linecap:round;stroke-linejoin:round;stroke-width:2.3px;}</style></defs><title>Yoga_poses_2020_color</title><path class="cls-1" d="M502.12,414.63h0a164.06,164.06,0,0,0-12.55-11.44q-1.87-1.56-3.5-3c-12.82-11.46-14.63-17.95-17.66-20.6a46.29,46.29,0,0,1-7.1-7.43,9.74,9.74,0,0,1-1.52-3.05c-.83-3.28-4.73-9.86-8.63-17.25-2.78-5.28-10.59-22.26-14.84-31.56-9.44,2.49-10.9-10.42-10.9-10.42C423.4,287.55,435,285,435,285c13.42-3.44,18.45,6,18.45,6s2.6,2.79,5.21,16.17c.1.49.19,1,.29,1.51,0,0,2.88,12.63,7.5,26.09,1.12,3.26,2.39,6.46,3.72,9.47,4.13,9.42,8.79,17,11,18.77,2.88,2.37,9.35,11.3,17.26,25.17S517.91,415,517.91,415l1,2.56s9.86,8.94,12,11.3,10.06,7.5,10.06,7.5l5.31,4.67a14.29,14.29,0,0,0,3.48,2.27l1.35.62a1.29,1.29,0,0,1,.75,1.18v.34a1.29,1.29,0,0,1-1.29,1.29h-3.54l-.4.13a1.45,1.45,0,0,1,.1.51,1.28,1.28,0,0,1-1.46,1.28l-1.77-.24a6.39,6.39,0,0,1-3.22-1.39l-11-9-2,1.34,1.06,4.62a6.15,6.15,0,0,0,1.54,2.86l.3.31a1.29,1.29,0,0,1,.35.88,1.26,1.26,0,0,1-1.72,1.18l-1.24-.47a4.56,4.56,0,0,1-2.8-3.19L523.66,441a19.27,19.27,0,0,0-3.31-5.21,10.78,10.78,0,0,0-6.14-3.62,5.85,5.85,0,0,1-4.74-4.06,13.21,13.21,0,0,1-.6-5.39S507.49,420.11,502.12,414.63Z"/><path class="cls-1" d="M520.35,435.78s-3.54-1.08-6.55,4.16-4.08,4.85-6.54,4.85h-1a1.45,1.45,0,0,1-1.44-1.45,1.43,1.43,0,0,1,.92-1.34,4.93,4.93,0,0,0,3.24-3.77,50.83,50.83,0,0,0,.53-9.67v-.07a1.6,1.6,0,0,0,0-.4,5.85,5.85,0,0,0,4.74,4.06A10.78,10.78,0,0,1,520.35,435.78Z"/><path class="cls-2" d="M509.48,428.5v.07c-.13,1.62-2,6.86-20.12,7.49-16,.55-39.26,2.94-51.5,4.29,3.15-6.8-2.18-16.45-2.18-16.45,1.38-.34,2.69-.68,3.86-1a66.37,66.37,0,0,0,15.72-6.57c3.59-2,12-6.26,27.63-4.21,0,0,5.75.51,10.58.41a18.62,18.62,0,0,1,8.64,2.09h0c5.37,5.48,6.75,8.08,6.75,8.08a13.21,13.21,0,0,0,.6,5.39S509.48,428.24,509.48,428.5Z"/><path class="cls-2" d="M486.05,400.18h0q1.62,1.45,3.5,3a164.06,164.06,0,0,1,12.55,11.44,18.62,18.62,0,0,0-8.64-2.09c-4.83.1-10.58-.41-10.58-.41-15.62-2.05-24,2.16-27.63,4.21a66.37,66.37,0,0,1-15.72,6.57c-1.17.31-2.48.65-3.86,1-6.4,1.6-14.15,3.37-14.15,3.37-2.2-1.3-3.87-2.1-3.87-2.1a30.67,30.67,0,0,0-2.49-2.15l1.26-.11a76.82,76.82,0,0,0,16.32-12.57,137.66,137.66,0,0,0,10-11l.11.09S479.74,397.28,486.05,400.18Z"/><path class="cls-1" d="M444.6,247.66a9.23,9.23,0,0,1-.41-2c.86-6.22,6.05-2.42,6.05-2.42,2.51.09,6.53-1.67,8.73-5.93s1.42-7.92,5.44-10.73c2-1.43,10.71-8.4,10.71-8.4l.48,1.92s4.3,8.52,4.43,14.32c.09,4.56-1.3,5.36.9,8.12l3,5.65-5.34,1.35L478,260.31c.42.91,2.34,8.21-9.3,6.75h-.14a7.29,7.29,0,0,0-7.63,5.47,48.89,48.89,0,0,1-1.76,5c-.39,1-2.66,5.06-3,6.22-.65,2.12.44,3.31,1.21,5.4l.7,1.92,5.12,12.44c1.22,2.31,2.61,4.58,4,6.86a10.19,10.19,0,0,1-8.46-3.18h0c-2.61-13.38-5.21-16.17-5.21-16.17s-5-9.45-18.45-6c0,0-11.6,2.54-9.59,24.85,0,0-4.59,4.18-7.35,2.8H418c-.05-1.51-.09-2.84-.11-4-.17-12.53,8.38-24.23,8.38-24.23,4.24-5.75,11.6-11.74,10.12-22.65l-.53-.84c2.15,0,3.61-2.22,4.38-6.11,1.35-5.82,4.24-7.16,4.24-7.16Zm31.23-8.18c0-1.54-.46-2.8-1.13-2.82s-1.24,1.22-1.28,2.75.46,2.8,1.13,2.82S475.79,241,475.83,239.48Z"/><path d="M474.7,236.66c.67,0,1.17,1.28,1.13,2.82s-.62,2.77-1.28,2.75-1.17-1.28-1.13-2.82S474,236.65,474.7,236.66Z"/><path class="cls-3" d="M474.75,216.72l.37,1.46s-8.68,7-10.71,8.4c-4,2.81-3.24,6.48-5.44,10.73s-6.22,6-8.73,5.93c0,0-5.19-3.8-6.05,2.42a9.23,9.23,0,0,0,.41,2l-.15.05s-2.89,1.34-4.24,7.16c-.77,3.89-2.23,6.11-4.38,6.11-1.74,0-3.94-1.46-6.58-4.66-5.9-7.15-5.27-19-5.27-19a29.6,29.6,0,0,1,5.65-17.19,21.32,21.32,0,0,1,3.38-3.76c.81-.59,1.62-1.14,2.42-1.65C449.26,205.94,460.9,209.89,474.75,216.72Z"/><path class="cls-4" d="M467.13,310.37c4.3,7.19,8.31,14.51,5.79,23.79-.77,2.83-2.31,6.39-2.75,10.1-1.33-3-2.6-6.21-3.72-9.47-4.62-13.46-7.5-26.09-7.5-26.09-.1-.52-.19-1-.29-1.51h0A10.19,10.19,0,0,0,467.13,310.37Z"/><path class="cls-4" d="M459.78,369.09a9.74,9.74,0,0,0,1.52,3.05,195.84,195.84,0,0,1-18.59,27.24,137.66,137.66,0,0,1-10,11s-12.62-3.12-26-20.09c-9.62-12.23-6.91-17-6.78-17.21h0c9.4-5,16.62-11.17,17.65-19.45,1.61-12.87.66-30.8.31-40.92h.09c2.76,1.38,7.35-2.8,7.35-2.8s1.46,12.91,10.9,10.42c4.25,9.3,12.06,26.28,14.84,31.56C455.05,359.23,459,365.81,459.78,369.09Z"/><path class="cls-1" d="M424.87,429.41c-1.15-.81-2.31-1.53-3.34-2.14,0,0,7.75-1.77,14.15-3.37,0,0,5.33,9.65,2.18,16.45-5.09.56-8.28.95-8.28.95-1.27-4.17-2.7-6.12-4.25-6.12l.65-.93c-1.64-3.67-3.69-3.73-3.69-3.73Z"/><path class="cls-3" d="M435,214.12l.39.6c-.8.51-1.61,1.06-2.42,1.65a21.32,21.32,0,0,0-3.38,3.76l-.09-.07c-6.57,6.95-12.89.83-13.48-2.93-.81-5.26,4.25-14,12-11.83S435,214.12,435,214.12Z"/><path class="cls-1" d="M422.75,443.09l-.33.13a1.54,1.54,0,0,0-2.06-.14,2.18,2.18,0,0,0-.79,2.43h0a1.6,1.6,0,0,0-1.78-1.39,2.18,2.18,0,0,0-2,2.17c-.06-1.11-.65-2-1.78-2s-1.78,1-1.78,2.19c0-1.21-.48-2.19-1.68-2.19a2.19,2.19,0,0,0-2.19,2.19c-2.65-2.11-4.1-4.51-3.85-7.13a20.15,20.15,0,0,0-1.07-7c-.19-.67-.4-1.29-.59-1.86a6.91,6.91,0,0,1,3.58-8.58l.13-.05c3.38-1.45,5.75-1,8.6,1.13a30.67,30.67,0,0,1,2.49,2.15s1.67.8,3.87,2.1c1,.61,2.19,1.33,3.34,2.14l-2.58,1.11s2,.06,3.69,3.73l-.65.93c1.55,0,3,1.95,4.25,6.12,1.44,4.73-2.36,4.21-2.36,4.21A12.46,12.46,0,0,1,422.75,443.09Z"/><path class="cls-2" d="M383.34,434a241.53,241.53,0,0,1-71.06,8.77c-42.11-.92-41.7-3-45.4-4.41s-15.61-.2-27.11-.1-21.16-.72-34.52-1.65a142.3,142.3,0,0,0-16.24-.06,21.92,21.92,0,0,1,.83-17.34c10.1-1.32,25-3.35,33.08-4.88,12.94-2.47,25.27-4.32,44.68,0s46.22-2.87,52.08-3.6,30.5-6.26,34.51-7.8,3.08-12.95,21.57-19.72c8.14-3,16.86-6.2,24.24-10.13-.13.22-2.84,5,6.78,17.21,13.35,17,26,20.09,26,20.09a76.82,76.82,0,0,1-16.32,12.57l-1.26.11c-2.85-2.14-5.22-2.58-8.6-1.13l-.13.05a6.91,6.91,0,0,0-3.58,8.58c.19.57.4,1.19.59,1.86l-20.08,1.87Z"/><path class="cls-1" d="M423,443.86c.71,1,.9,2-.07,2.75a2.19,2.19,0,0,1-3.06-.48,1.9,1.9,0,0,1-.31-.62,2.18,2.18,0,0,1,.79-2.43,1.54,1.54,0,0,1,2.06.14A3.32,3.32,0,0,1,423,443.86Z"/><path class="cls-1" d="M419.66,446.14c.12,1.2-.26,2.22-1.46,2.33a2.18,2.18,0,0,1-2.39-2,1.62,1.62,0,0,1,0-.22,2.18,2.18,0,0,1,2-2.17,1.6,1.6,0,0,1,1.78,1.39A3.8,3.8,0,0,1,419.66,446.14Z"/><path class="cls-1" d="M415.8,446.3a1.62,1.62,0,0,0,0,.22c0,1.2-.58,2.14-1.79,2.14s-1.78-1-1.78-2.18.58-2.19,1.78-2.19S415.74,445.19,415.8,446.3Z"/><path class="cls-1" d="M410.56,444.29c1.2,0,1.68,1,1.68,2.19s-.48,2.18-1.68,2.18a2.19,2.19,0,1,1,0-4.37Z"/><path class="cls-1" d="M189.84,419.17a21.92,21.92,0,0,0-.83,17.34c-7,.32-12.26.94-12.26.94-9.81,1.45-21.66,3.78-28.73,3.46s-15.56,0-15.56,0-2.58,2.09-5.31,1.78-2.25-2.74-1.29-3.06A6.56,6.56,0,0,0,128,438a10.84,10.84,0,0,1,6.11-6.75c5.15-2.42,10.9-3.08,16.37-7.9S160.6,413.09,164.79,411s9.16,7.15,14.58,9.49C179.37,420.49,183.72,420,189.84,419.17Z"/><path class="cls-5" d="M502.12,414.63c5.37,5.48,6.75,8.08,6.75,8.08a13.21,13.21,0,0,0,.6,5.39,5.85,5.85,0,0,0,4.74,4.06,10.78,10.78,0,0,1,6.14,3.62,19.27,19.27,0,0,1,3.31,5.21l1.09,4.55a4.56,4.56,0,0,0,2.8,3.19l1.24.47a1.26,1.26,0,0,0,1.72-1.18,1.29,1.29,0,0,0-.35-.88l-.3-.31a6.15,6.15,0,0,1-1.54-2.86l-1.06-4.62-.34-3.09a7.47,7.47,0,0,1,.22-2.82l.12-.44a3.86,3.86,0,0,0-1-3.17l-.74-.8"/><path class="cls-5" d="M433.47,314s1.13,2.5,2.84,6.24c4.25,9.3,12.06,26.28,14.84,31.56,3.9,7.39,7.8,14,8.63,17.25a9.74,9.74,0,0,0,1.52,3.05,46.29,46.29,0,0,0,7.1,7.43c3,2.65,4.84,9.14,17.66,20.6q1.62,1.45,3.5,3a164.06,164.06,0,0,1,12.55,11.44"/><path class="cls-5" d="M527.26,439.35l2-1.34,11,9a6.39,6.39,0,0,0,3.22,1.39l1.77.24a1.28,1.28,0,0,0,1.46-1.28,1.45,1.45,0,0,0-.1-.51,1.29,1.29,0,0,0-.6-.64l-2.21-1.14a1.24,1.24,0,0,1-.32-.23l-11.89-11.58"/><path class="cls-5" d="M425.41,309.86s-4.59,4.18-7.35,2.8"/><path class="cls-5" d="M461.3,372.14a195.84,195.84,0,0,1-18.59,27.24,137.66,137.66,0,0,1-10,11,76.82,76.82,0,0,1-16.32,12.57"/><path class="cls-5" d="M408.37,446.48c-2.65-2.11-4.1-4.51-3.85-7.13a20.15,20.15,0,0,0-1.07-7c-.19-.67-.4-1.29-.59-1.86a6.91,6.91,0,0,1,3.58-8.58l.13-.05c3.38-1.45,5.75-1,8.6,1.13a30.67,30.67,0,0,1,2.49,2.15s1.67.8,3.87,2.1c1,.61,2.19,1.33,3.34,2.14.51.35,1,.73,1.52,1.11"/><path class="cls-5" d="M409.24,438.22s4.12-1.44,5.19-3.6,3.23-5.23,7.86-4.1c0,0,2,.06,3.69,3.73"/><path class="cls-5" d="M419.51,437.09s1.44,1,1.54,1.64a5,5,0,0,0,1.7,4.36,12.46,12.46,0,0,0,4.47,2.42s3.8.52,2.36-4.21c-1.27-4.17-2.7-6.12-4.25-6.12a1.91,1.91,0,0,0-.62.1"/><path class="cls-5" d="M408.37,446.48a2.19,2.19,0,0,0,2.19,2.18c1.2,0,1.68-1,1.68-2.18s-.48-2.19-1.68-2.19A2.19,2.19,0,0,0,408.37,446.48Z"/><path class="cls-5" d="M415.8,446.3c-.06-1.11-.65-2-1.78-2s-1.78,1-1.78,2.19.58,2.18,1.78,2.18,1.79-.94,1.79-2.14"/><path class="cls-5" d="M419.57,445.51a1.9,1.9,0,0,0,.31.62,2.19,2.19,0,0,0,3.06.48c1-.71.78-1.78.07-2.75a3.32,3.32,0,0,0-.59-.64,1.54,1.54,0,0,0-2.06-.14A2.18,2.18,0,0,0,419.57,445.51Z"/><path class="cls-5" d="M415.81,446.52a2.18,2.18,0,0,0,2.39,2c1.2-.11,1.58-1.13,1.46-2.33a3.8,3.8,0,0,0-.11-.62,1.6,1.6,0,0,0-1.78-1.39,2.18,2.18,0,0,0-2,2.17A1.62,1.62,0,0,0,415.81,446.52Z"/><path class="cls-5" d="M421.53,427.27s7.75-1.77,14.15-3.37c1.38-.34,2.69-.68,3.86-1a66.37,66.37,0,0,0,15.72-6.57c3.59-2,12-6.26,27.63-4.21,0,0,5.75.51,10.58.41a18.62,18.62,0,0,1,8.64,2.09h0l0,0"/><path class="cls-5" d="M442.82,399.47s36.92-2.19,43.23.71h0"/><path class="cls-5" d="M509.48,428.57c-.13,1.62-2,6.86-20.12,7.49-16,.55-39.26,2.94-51.5,4.29-5.09.56-8.28.95-8.28.95"/><path class="cls-5" d="M509.48,428.5c0-.26,0-.4,0-.4a1.6,1.6,0,0,1,0,.4"/><path class="cls-5" d="M509.48,428.5v.07"/><path class="cls-5" d="M520.35,435.78s-3.54-1.08-6.55,4.16-4.08,4.85-6.54,4.85h-1a1.45,1.45,0,0,1-1.44-1.45,1.43,1.43,0,0,1,.92-1.34,4.93,4.93,0,0,0,3.24-3.77,50.83,50.83,0,0,0,.53-9.67"/><polyline class="cls-5" points="403.45 432.38 383.37 434.25 383.36 434.25"/><path class="cls-5" d="M400,373c-7.38,3.93-16.1,7.15-24.24,10.13-18.49,6.77-17.57,18.18-21.57,19.72s-28.66,7.08-34.51,7.8-32.67,7.91-52.08,3.6-31.74-2.47-44.68,0c-8.06,1.53-23,3.56-33.08,4.88-6.12.79-10.47,1.32-10.47,1.32C174,418.15,169,408.91,164.79,411s-8.9,7.54-14.36,12.37-11.22,5.48-16.37,7.9A10.84,10.84,0,0,0,128,438a6.56,6.56,0,0,1-2.09,1.61c-1,.32-1.44,2.76,1.29,3.06s5.31-1.78,5.31-1.78,8.48-.32,15.56,0,18.92-2,28.73-3.46c0,0,5.23-.62,12.26-.94a142.3,142.3,0,0,1,16.24.06c13.36.93,23,1.75,34.52,1.65s23.41-1.34,27.11.1,3.29,3.49,45.4,4.41A241.53,241.53,0,0,0,383.34,434c7.18-2.07,11.11-3.69,11.11-3.69"/><path class="cls-5" d="M436.36,261.82c1.48,10.91-5.88,16.9-10.12,22.65,0,0-8.55,11.7-8.38,24.23,0,1.12.06,2.45.11,4,.35,10.12,1.3,28-.31,40.92-1,8.28-8.25,14.44-17.65,19.45"/><path class="cls-5" d="M547.08,446.74h3.54a1.29,1.29,0,0,0,1.29-1.29v-.34a1.29,1.29,0,0,0-.75-1.18l-1.35-.62a14.29,14.29,0,0,1-3.48-2.27L541,436.37s-7.91-5.14-10.06-7.5-12-11.3-12-11.3l-1-2.56S506.3,402.06,498.4,388.2,484,365.4,481.14,363c-2.18-1.79-6.84-9.35-11-18.77-1.33-3-2.6-6.21-3.72-9.47-4.62-13.46-7.5-26.09-7.5-26.09-.1-.52-.19-1-.29-1.51-2.61-13.38-5.21-16.17-5.21-16.17s-5-9.45-18.45-6c0,0-11.6,2.54-9.59,24.85,0,0,1.46,12.91,10.9,10.42"/><path class="cls-5" d="M432.75,410.34s-12.62-3.12-26-20.09c-9.62-12.23-6.91-17-6.78-17.21h0"/><path class="cls-5" d="M435.68,423.9s5.33,9.65,2.18,16.45"/><path class="cls-5" d="M189.84,419.17a21.92,21.92,0,0,0-.83,17.34"/><path class="cls-5" d="M463.15,303.51c1.22,2.31,2.61,4.58,4,6.86,4.3,7.19,8.31,14.51,5.79,23.79-.77,2.83-2.31,6.39-2.75,10.1"/><path class="cls-5" d="M458.67,307.19a10.19,10.19,0,0,0,8.46,3.18"/><path class="cls-5" d="M450.24,243.24s-5.19-3.8-6.05,2.42a9.23,9.23,0,0,0,.41,2,8.57,8.57,0,0,0,5.54,5.78s3.4.57,1.54-3.22"/><path class="cls-5" d="M452.71,258.14s.93,5.65,6,6.49"/><path class="cls-5" d="M475.12,218.18s-8.68,7-10.71,8.4c-4,2.81-3.24,6.48-5.44,10.73s-6.22,6-8.73,5.93"/><path class="cls-5" d="M435,214.12s.84-6.66-6.94-8.82-12.85,6.57-12,11.83c.59,3.76,6.91,9.88,13.48,2.93"/><path class="cls-5" d="M444.45,247.71s-2.89,1.34-4.24,7.16c-.77,3.89-2.23,6.11-4.38,6.11-1.74,0-3.94-1.46-6.58-4.66-5.9-7.15-5.27-19-5.27-19"/><path class="cls-5" d="M424,237.32a29.6,29.6,0,0,1,5.65-17.19,21.32,21.32,0,0,1,3.38-3.76c.81-.59,1.62-1.14,2.42-1.65,13.83-8.78,25.47-4.83,39.32,2l.37,1.46.48,1.92s4.3,8.52,4.43,14.32c.09,4.56-1.3,5.36.9,8.12l3,5.65-5.34,1.35L478,260.31c.42.91,2.34,8.21-9.3,6.75h-.14a7.29,7.29,0,0,0-7.63,5.47,48.89,48.89,0,0,1-1.76,5c-.39,1-2.66,5.06-3,6.22-.65,2.12.44,3.31,1.21,5.4l.7,1.92,5.12,12.44"/></svg>