<svg id="Layer_1" data-name="Layer 1" xmlns="http://www.w3.org/2000/svg" viewBox="0 0 700 700"><defs><style>.cls-1{fill:#392328;}.cls-2{fill:#feae63;}.cls-3{fill:#c4e7f9;}.cls-4{fill:#99abcc;}.cls-5{fill:none;stroke:#000;stroke-linecap:round;stroke-linejoin:round;stroke-width:2.3px;}</style></defs><title>Yoga_poses_2020_color</title><path class="cls-1" d="M552,291.28l-1,1s-9.84-3.44-12-4.35c-4.23-1.79-6.76.64-11.23,1s-7.86-2-9-4c0,0,.45-6-4.92-3.6a8.68,8.68,0,0,0-1.39,1.32l-.11-.1a8.7,8.7,0,0,0-4.43-.24,6.87,6.87,0,0,0-3.75,2.39,11.13,11.13,0,0,1-4.22,3.24c-1.75.7-3,.81-3.75.46-2.53-1.14-.7-7.06,1.78-13.66,3.05-8.13,12.48-13.6,12.48-13.6a27.81,27.81,0,0,1,16.46-4,20.06,20.06,0,0,1,4.66.84c.87.35,1.7.72,2.5,1.11C547.89,265.69,550.52,276.9,552,291.28Z"/><path class="cls-2" d="M512.44,282.67a8.68,8.68,0,0,1,1.39-1.32c5.37-2.41,4.92,3.6,4.92,3.6,1.17,2,4.56,4.36,9,4s7-2.79,11.23-1c2.13.91,12,4.35,12,4.35l-1.28,1.33s-4.65,7.64-9.19,10.61c-3.57,2.34-4.9,1.63-6,4.74l-3,5.19-3.71-3.57-8.87,4.84c-.52.78-5.37,5.92-10-4.05,0,0-1.83-3.13-5.89-.58s-14.76,4.59-14.76,4.59a16.56,16.56,0,0,0-3.71-10.7,12.62,12.62,0,0,0-6.32-4.11c-12-3.47-20.69,1.27-25.85,7.83,0,0-4-9.4-1.14-16.84a42.37,42.37,0,0,1,28.7-1.67c4,1.18,11.47,1.24,16.09-1.29l.1-.2c.79.35,2,.24,3.75-.46a11.13,11.13,0,0,0,4.22-3.24,6.87,6.87,0,0,1,3.75-2.39,8.7,8.7,0,0,1,4.43.24Zm22,20.75c1.24-.73,2-1.76,1.68-2.29s-1.58-.39-2.82.34-2,1.75-1.68,2.29S533.17,304.14,534.41,303.42Z"/><path class="cls-1" d="M537.91,248.57c2.15,7.25-3.56,9.88-3.56,9.88l-.29.62c-.8-.39-1.63-.76-2.5-1.11a20.06,20.06,0,0,0-4.66-.84V257c-8.78-1.78-7-9.84-4.35-12.16C526.33,241.61,535.77,241.32,537.91,248.57Z"/><path d="M536.09,301.13c.32.53-.44,1.56-1.68,2.29s-2.5.87-2.82.34.44-1.57,1.68-2.29S535.78,300.59,536.09,301.13Z"/><path class="cls-2" d="M509.19,455.78c0,.05,0,.09,0,.14a1.57,1.57,0,0,1-1.59,1.44l-3.81,0-.48,0v-.08a1.35,1.35,0,0,0-1.05-1.33l.67-2.85,5,1.19A1.59,1.59,0,0,1,509.19,455.78Z"/><path class="cls-2" d="M491.63,457.78a1.29,1.29,0,0,1-1.43,1.08l-11.3-1.35s-12.48-.25-14.74-1.65c-1-.63-2.27-4.46-2.09-8.4.43-9.52-3-57.33-2.64-64.76s1-4.72,0-15.08c-.32-3.4-.43-10.21-.43-17.82,0-5.08,0-10.52.11-15.54H459s-6.95.69-11.32-7c-2.12-3.72-.48-12.22,4.75-18.86s13.83-11.3,25.85-7.83a12.62,12.62,0,0,1,6.32,4.11,16.56,16.56,0,0,1,3.71,10.7c0,9.68-1.57,14.41-3.6,20.93s-2.25,20.94-3.6,29-3.83,9-2.48,19.58-1.78,32.69-1.78,32.69c-1.81,7.8-6,29.18-.75,29.9,0,0,10.92,2,12.92,2.19,1.09.1,3.1.32,4.7.5l-.07.63,9.27,2.19-.67,2.85a1.35,1.35,0,0,1,1.05,1.33v.08a1.36,1.36,0,0,1-1.46,1.26Z"/><path class="cls-3" d="M459,334.26h.11c-.07,5-.11,10.46-.11,15.54h-1c-4.7,5.79-10.47,6.33-24.61,9.64-12.37,2.89-29.19,4-44.24,8.25a71.84,71.84,0,0,0-7.45-43.14c14.54-1,17.56-3.32,24.86-8.13,8.5-5.59,27.76-17.4,44.74-24.84-2.85,7.44,1.14,16.84,1.14,16.84-5.23,6.64-6.87,15.14-4.75,18.86C452.05,335,459,334.26,459,334.26Z"/><path class="cls-4" d="M381.69,324.55a71.84,71.84,0,0,1,7.45,43.14,67.34,67.34,0,0,0-18.73,8c-17.74,11.58-53.2,20.27-70.93,18.46s-25,6.51-38.36,5.79-29.68,8.32-44.15,11.22-31.36,9.25-31.36,9.25c-9.06-9.2-5.84-18.4-5.84-18.4,45.8-26.4,53.59-26.81,59.83-27.41,6.43-.63,18,1.86,32.73-6s33.56-14.71,47-18.85,7-2.07,16.36-13.67,16.16-10.57,37.91-11.19C376.66,324.82,379.33,324.7,381.69,324.55Z"/><path class="cls-2" d="M191.43,453.7c.09,2.52-3.68,2.21-4.69,2.08a.78.78,0,0,0-.29-1.23,62.21,62.21,0,0,1-5.13-3.76l1.24-1.5.63.63c1.55,1.65,5.77,1.26,5.77,1.26S191.34,450.79,191.43,453.7Z"/><path class="cls-2" d="M181.48,456.67a.44.44,0,0,1-.16.06c-1.08.27-2.87-1.17-2.87-1.17l-1-.17a1.47,1.47,0,0,1-.78,1,4,4,0,0,1-3.72-1.34l-2.28,0c-3.94.42-7.87-5.8-9.74-14.29s-6.42-9.73-10.14-13.46-4.35-11,5.59-14.5a180.75,180.75,0,0,0,19.26-8.29l4.17-2.41s-3.22,9.2,5.84,18.4c-8.72,4.07-7.07,11-7,18.52.09,6.62,2.33,8.78,3.93,10.33l-1.24,1.5a62.21,62.21,0,0,0,5.13,3.76.78.78,0,0,1,.29,1.23,3.09,3.09,0,0,1-2.85.94Z"/><path class="cls-5" d="M186.49,455.74l.25,0c1,.13,4.78.44,4.69-2.08-.09-2.91-2.47-2.52-2.47-2.52s-4.22.39-5.77-1.26l-.63-.63c-1.6-1.55-3.84-3.71-3.93-10.33-.09-7.56-1.74-14.45,7-18.52,0,0,16.88-6.36,31.36-9.25s30.76-11.95,44.15-11.22,20.62-7.6,38.36-5.79,53.19-6.88,70.93-18.46a67.34,67.34,0,0,1,18.73-8c15.05-4.22,31.87-5.36,44.24-8.25,14.14-3.31,19.91-3.85,24.61-9.64"/><path class="cls-5" d="M181.32,450.79a62.21,62.21,0,0,0,5.13,3.76.78.78,0,0,1,.29,1.23,3.09,3.09,0,0,1-2.85.94"/><path class="cls-5" d="M177.57,451.15s3.18,2.68,3.75,3.18,1,2,.16,2.34a.44.44,0,0,1-.16.06c-1.08.27-2.87-1.17-2.87-1.17"/><path class="cls-5" d="M518.75,285s.45-6-4.92-3.6a8.68,8.68,0,0,0-1.39,1.32,8,8,0,0,0-1.84,7.26s1.23,3,3.32-.37"/><path class="cls-5" d="M508.14,294.3s-4,3.53-2.21,7.94"/><path class="cls-5" d="M551,292.3s-9.84-3.44-12-4.35c-4.23-1.79-6.76.64-11.23,1s-7.86-2-9-4"/><path class="cls-5" d="M534.35,258.45s5.71-2.63,3.56-9.88-11.58-7-15.35-3.7c-2.7,2.32-4.43,10.38,4.35,12.16"/><path class="cls-5" d="M510.44,261.16a27.81,27.81,0,0,1,16.46-4,20.06,20.06,0,0,1,4.66.84c.87.35,1.7.72,2.5,1.11,13.83,6.62,16.46,17.83,17.9,32.21l-1,1-1.28,1.33s-4.65,7.64-9.19,10.61c-3.57,2.34-4.9,1.63-6,4.74l-3,5.19-3.71-3.57-8.87,4.84c-.52.78-5.37,5.92-10-4.05,0,0-1.83-3.13-5.89-.58s-14.76,4.59-14.76,4.59"/><path class="cls-5" d="M512.33,282.57a8.7,8.7,0,0,0-4.43-.24,6.87,6.87,0,0,0-3.75,2.39,11.13,11.13,0,0,1-4.22,3.24c-1.75.7-3,.81-3.75.46-2.53-1.14-.7-7.06,1.78-13.66,3.05-8.13,12.48-13.6,12.48-13.6"/><path class="cls-5" d="M172.3,451.52a4.17,4.17,0,0,1,4.33,1.66,2.8,2.8,0,0,1,.78,2.21,1.47,1.47,0,0,1-.78,1,4,4,0,0,1-3.72-1.34l-2.28,0c-3.94.42-7.87-5.8-9.74-14.29s-6.42-9.73-10.14-13.46-4.35-11,5.59-14.5a180.75,180.75,0,0,0,19.26-8.29l4.17-2.41c45.8-26.4,53.59-26.81,59.83-27.41,6.43-.63,18,1.86,32.73-6s33.56-14.71,47-18.85,7-2.07,16.36-13.67,16.16-10.57,37.91-11.19c3-.09,5.71-.21,8.07-.36,14.54-1,17.56-3.32,24.86-8.13,8.5-5.59,27.76-17.4,44.74-24.84a42.37,42.37,0,0,1,28.7-1.67c4,1.18,11.47,1.24,16.09-1.29"/><path class="cls-5" d="M179.77,402s-3.22,9.2,5.84,18.4"/><path class="cls-5" d="M491.6,457.78h0l10.21.79a1.36,1.36,0,0,0,1.46-1.26v-.08a1.35,1.35,0,0,0-1.05-1.33l-11.54-2.66"/><path class="cls-5" d="M503.78,457.34l3.81,0a1.57,1.57,0,0,0,1.59-1.44c0-.05,0-.09,0-.14a1.59,1.59,0,0,0-1.25-1.54l-5-1.19-9.27-2.19"/><path class="cls-5" d="M459.43,315.4s-.2,8.54-.32,18.86c-.07,5-.11,10.46-.11,15.54,0,7.61.11,14.42.43,17.82,1,10.36.39,7.66,0,15.08s3.07,55.24,2.64,64.76c-.18,3.94,1.08,7.77,2.09,8.4,2.26,1.4,14.74,1.65,14.74,1.65l11.3,1.35a1.29,1.29,0,0,0,1.43-1.08v0a1,1,0,0,0,0-.17,1.28,1.28,0,0,0-.86-1.21l-8.67-3.06"/><path class="cls-5" d="M459,334.26s-6.95.69-11.32-7c-2.12-3.72-.48-12.22,4.75-18.86s13.83-11.3,25.85-7.83a12.62,12.62,0,0,1,6.32,4.11,16.56,16.56,0,0,1,3.71,10.7c0,9.68-1.57,14.41-3.6,20.93s-2.25,20.94-3.6,29-3.83,9-2.48,19.58-1.78,32.69-1.78,32.69c-1.81,7.8-6,29.18-.75,29.9,0,0,10.92,2,12.92,2.19,1.09.1,3.1.32,4.7.5l2.39.28,11.47,2.86"/><path class="cls-5" d="M389.14,367.69a71.84,71.84,0,0,0-7.45-43.14"/><path class="cls-5" d="M452.43,308.42s-4-9.4-1.14-16.84"/></svg>