<svg id="Layer_1" data-name="Layer 1" xmlns="http://www.w3.org/2000/svg" viewBox="0 0 700 700"><defs><style>.cls-1{fill:#feae63;}.cls-2{fill:#c4e7f9;}.cls-3{fill:#99abcc;}.cls-4{fill:#392328;}.cls-5{fill:none;stroke:#000;stroke-linecap:round;stroke-linejoin:round;stroke-width:2.3px;}</style></defs><title>Yoga_poses_2020_color</title><path class="cls-1" d="M537.2,422.12a2.22,2.22,0,0,1-.81,2.39l-1.58,1.18a2.23,2.23,0,0,1-2.7-3.55l1.57-1.2a2.25,2.25,0,0,1,1.36-.46,2,2,0,0,1,.42,0A2.22,2.22,0,0,1,537.2,422.12Z"/><path class="cls-1" d="M406.16,409l2.1.59,2.18.59a62.17,62.17,0,0,0,13.56,2c12.34.46,29.72,2.1,29.72,2.1s16.62,1.36,26.07,3.15c7.22,1.37,20.84,2.4,26.86,2.81a7.91,7.91,0,0,0,5.36-1.61,7,7,0,0,1,1.07-.7l5.82-3.12,6.27-3.36,2.94-1.58a2.48,2.48,0,0,1,3,.49l1.79,2.05h0a2.2,2.2,0,0,0-2,1.34l-.83,1.9a1.89,1.89,0,0,0,1.73,2.63,1.86,1.86,0,0,0,1.38-.61l1.4-1.52a4.17,4.17,0,0,1,1,4l-.09.33a2,2,0,0,0-.42,0,2.25,2.25,0,0,0-1.36.46l-1.57,1.2a2.24,2.24,0,0,0,1,4l-.3,1.36-1.76-.23a2.08,2.08,0,0,0-.67,4.1l.36.07-.28,1.37a1.73,1.73,0,0,0-1-.29h-2.1a1.71,1.71,0,0,0-1.71,1.71,1.87,1.87,0,0,0,0,.34l-.76.12s-9.86,1-14-.69-11.08-.94-11.08-.94c-20.42.65-32.8-1.74-47.57-2.56s-12.38,2.34-37.79,3.21-32.36-.43-37.14-1.09-5.21.22-12.59,0c-1.14,0-2.21-.11-3.19-.21v-.09s-10.79-11.4-7.85-21.77l0-.07a3,3,0,0,0,.11-.39c1.31-4.08,4.81-8,12-10.91C383.2,392.06,404,398.07,406.16,409Z"/><path class="cls-1" d="M532.89,412.49a2.3,2.3,0,0,1,1.26.41,2.22,2.22,0,0,1,.35,3.33l-1.4,1.52a1.87,1.87,0,0,1-2.41.3,1.88,1.88,0,0,1-.7-2.32l.83-1.9a2.2,2.2,0,0,1,2-1.34Z"/><path class="cls-1" d="M534.71,429.6a2.06,2.06,0,0,1-.14.77,2.13,2.13,0,0,1-2.42,1.33l-1.38-.28-.36-.07a2.08,2.08,0,0,1,.67-4.1l1.76.23A2.14,2.14,0,0,1,534.71,429.6Z"/><path class="cls-1" d="M530.49,432.79a1.71,1.71,0,0,1-1,3.13h-2.1a1.73,1.73,0,0,1-1.68-1.37,1.87,1.87,0,0,1,0-.34,1.71,1.71,0,0,1,1.71-1.71h2.1A1.73,1.73,0,0,1,530.49,432.79Z"/><path class="cls-1" d="M525,411.19l.18.34-6.27,3.36-.29-.53,2-7.37a1.79,1.79,0,0,1,3.48.11Z"/><path class="cls-2" d="M408.26,348.33c3.25,27.59,0,61.3,0,61.3l-2.1-.59c-2.12-11-23-17-40.24-9.88-7.17,2.95-10.67,6.83-12,10.91.43-1.64,1.47-7.5-2.52-15.2a28,28,0,0,1-1.45-3.29c-2.53-7.05,0-11.17,2.27-15.36a68.25,68.25,0,0,0,4.56-12.14c3.26-22.32,9.28-24.76,7.82-26.72,0,0,30.95,1.31,41.54-17.59h.07C406.74,328.39,407,338,408.26,348.33Z"/><path class="cls-3" d="M361.65,332.58c-19,10.33-43.69,16.36-56.81,20.59-14.18,4.56-17.76,4.23-27.7,6.35s-8.63,6.19-27.53,11.24c-16.18,4.32-40.13,16.29-50.56,23.12C189,382.53,188,376.22,188,376.22l-.22-.41c12.1-6.47,26.91-15.32,34.63-22.26a72.76,72.76,0,0,1,28.23-15.42l20.85-5.87c17.81-6.51,19.12-16.72,35.31-25.41,22.18-11.9,22.9-12.82,42-27.8s36.49-6.08,48,6.73c7.19,8,8.62,19.65,9.47,34h-.07c-10.59,18.9-41.54,17.59-41.54,17.59a42.59,42.59,0,0,1-3-4.77Z"/><path class="cls-1" d="M329.35,419.35a8.71,8.71,0,0,1-1.91.08c-5.62-1.74-1.32-6-1.32-6,.47-2.31-.56-6.29-4.15-9s-7.1-2.52-9.09-6.66c-1-2.09-6.13-11.17-6.13-11.17l1.84-.15s8.53-2.68,13.9-1.92c4.23.61,4.75,2,7.64.4l5.68-1.92.43,5.14L350,391.58a28,28,0,0,0,1.45,3.29c4,7.7,2.95,13.56,2.52,15.2a3,3,0,0,1-.11.39.14.14,0,0,0,0,.07c-2.94,10.37,7.85,21.77,7.85,21.77v.09a34.53,34.53,0,0,1-7.26-1.44,20.14,20.14,0,0,0-4.6-1,51.91,51.91,0,0,0-8.22-.11,4,4,0,0,0,.11-.5c.8-4.75-6.49-6.16-6.49-6.16a6.39,6.39,0,0,1-5.82-3.67Zm-.48-28.49c.12-.61-.93-1.33-2.34-1.6s-2.65,0-2.77.61.93,1.33,2.34,1.61S328.76,391.47,328.87,390.86Z"/><path class="cls-4" d="M335.19,423.16s7.29,1.41,6.49,6.16a4,4,0,0,1-.11.5c-1,4.22-5.11,3.71-10.69,3.3-4.38-.32-9.48.15-12.19.1a62.37,62.37,0,0,1-11.3-1.31c-7.05-1.42-8.7-6.6-8.7-6.6-.16-.32-.32-.64-.47-1l-.24-.51a37.4,37.4,0,0,1-1.87-5c-3.53-12.12,1.63-21.45,9.23-32.07l1.41-.12s5.12,9.08,6.13,11.17c2,4.14,5.5,4,9.09,6.66s4.62,6.65,4.15,9c0,0-4.3,4.22,1.32,6a8.71,8.71,0,0,0,1.91-.08l0,.14A6.39,6.39,0,0,0,335.19,423.16Z"/><path d="M326.53,389.26c1.41.27,2.46,1,2.34,1.6s-1.36.89-2.77.62-2.46-1-2.34-1.61S325.12,389,326.53,389.26Z"/><path class="cls-4" d="M298.22,424.35c3.71,8.46-4,8.09-8.91,8.11s-8.51-4.66-4.14-10.83,10.94-2.76,10.94-2.76a37.4,37.4,0,0,0,1.87,5Z"/><path class="cls-1" d="M207.75,428.11V429a2.41,2.41,0,0,1-2.41,2.41h-.89a1.27,1.27,0,0,0,0-.34,1.81,1.81,0,0,0-1.32-1.74l-8.91-3.69c3.18,1.07,9,1,11.85.93A1.59,1.59,0,0,1,207.75,428.11Z"/><path class="cls-1" d="M204.49,431a1.27,1.27,0,0,1,0,.34,1.78,1.78,0,0,1-1.76,1.46h-5.26a2.14,2.14,0,0,0,1.54-.64,2.19,2.19,0,0,0,.64-1.54,2.15,2.15,0,0,0-1-1.81l-5-3.47.53.21.06,0,8.91,3.69A1.81,1.81,0,0,1,204.49,431Z"/><path class="cls-1" d="M193.44,432.82H188c-3.33-.09-10-1.23-13.81-13.36-4.34-13.81-8.47-19-11.29-24.2s.65-8.91,7-10.86c2.56-.8,9.6-4.12,17.93-8.58l.22.41s1,6.31,11.1,17.66a34.58,34.58,0,0,0-4,2.94c-6.19,5.54-3.25,23.13-3,26.88.06.71.66,1.25,1.59,1.66l5,3.47a2.15,2.15,0,0,1,1,1.81,2.19,2.19,0,0,1-.64,1.54,2.14,2.14,0,0,1-1.54.64Z"/><path class="cls-5" d="M326.12,413.47s-4.3,4.22,1.32,6a8.71,8.71,0,0,0,1.91-.08,8,8,0,0,0,6.18-4.24s1-3.06-2.74-1.91"/><path class="cls-5" d="M343.71,413.45s5.36,0,6.9-4.52"/><path class="cls-5" d="M306.75,386.68s5.12,9.08,6.13,11.17c2,4.14,5.5,4,9.09,6.66s4.62,6.65,4.15,9"/><path class="cls-5" d="M296.11,418.87s-6.56-3.41-10.94,2.76-.84,10.84,4.14,10.83,12.62.35,8.91-8.11"/><path class="cls-5" d="M329.37,419.49a6.39,6.39,0,0,0,5.82,3.67s7.29,1.41,6.49,6.16a4,4,0,0,1-.11.5c-1,4.22-5.11,3.71-10.69,3.3-4.38-.32-9.48.15-12.19.1a62.37,62.37,0,0,1-11.3-1.31c-7.05-1.42-8.7-6.6-8.7-6.6-.16-.32-.32-.64-.47-1l-.24-.51a37.4,37.4,0,0,1-1.87-5c-3.53-12.12,1.63-21.45,9.23-32.07l1.41-.12,1.84-.15s8.53-2.68,13.9-1.92c4.23.61,4.75,2,7.64.4l5.68-1.92.43,5.14L350,391.58"/><path class="cls-5" d="M341.57,429.82a51.91,51.91,0,0,1,8.22.11,20.14,20.14,0,0,1,4.6,1,34.53,34.53,0,0,0,7.26,1.44c1,.1,2.05.17,3.19.21,7.38.22,7.81-.65,12.59,0s11.73,2,37.14,1.09,23-4,37.79-3.21,27.15,3.21,47.57,2.56c0,0,6.95-.73,11.08.94s14,.69,14,.69"/><path class="cls-5" d="M518.61,414.36l2-7.37a1.79,1.79,0,0,1,3.48.11l.87,4.09"/><path class="cls-5" d="M392.31,406.43A70.36,70.36,0,0,1,406.16,409l2.1.59,2.18.59a62.17,62.17,0,0,0,13.56,2c12.34.46,29.72,2.1,29.72,2.1s16.62,1.36,26.07,3.15c7.22,1.37,20.84,2.4,26.86,2.81a7.91,7.91,0,0,0,5.36-1.61,7,7,0,0,1,1.07-.7l5.82-3.12,6.27-3.36,2.94-1.58a2.48,2.48,0,0,1,3,.49l1.79,2.05h0"/><path class="cls-5" d="M532.84,427.48l-1.76-.23a2.08,2.08,0,0,0-.67,4.1l.36.07,1.38.28a2.13,2.13,0,0,0,2.42-1.33,2.06,2.06,0,0,0,.14-.77A2.14,2.14,0,0,0,532.84,427.48Z"/><path class="cls-5" d="M535.46,420.52a2,2,0,0,0-.42,0,2.25,2.25,0,0,0-1.36.46l-1.57,1.2a2.23,2.23,0,0,0,2.7,3.55l1.58-1.18a2.24,2.24,0,0,0-.93-4Z"/><path class="cls-5" d="M532.89,412.49h0a2.2,2.2,0,0,0-2,1.34l-.83,1.9a1.89,1.89,0,0,0,1.73,2.63,1.86,1.86,0,0,0,1.38-.61l1.4-1.52a2.22,2.22,0,0,0-.35-3.33A2.3,2.3,0,0,0,532.89,412.49Z"/><path class="cls-5" d="M530.49,432.79a1.71,1.71,0,0,1-1,3.13h-2.1a1.73,1.73,0,0,1-1.68-1.37,1.87,1.87,0,0,1,0-.34,1.71,1.71,0,0,1,1.71-1.71h2.1A1.73,1.73,0,0,1,530.49,432.79Z"/><path class="cls-5" d="M534.5,416.23a4.17,4.17,0,0,1,1,4l-.09.33"/><path class="cls-5" d="M353.94,410.07c1.31-4.08,4.81-8,12-10.91,17.28-7.1,38.12-1.09,40.24,9.88"/><path class="cls-5" d="M361.66,432.3s-10.79-11.4-7.85-21.77a.14.14,0,0,1,0-.07"/><path class="cls-5" d="M188,432.81a1.45,1.45,0,0,0,1.4-1.12,1.24,1.24,0,0,0,0-.33,1.44,1.44,0,0,0-.36-.95l-3-3.43"/><path class="cls-5" d="M408.26,409.63s3.25-33.71,0-61.3c-1.22-10.35-1.52-19.94-2-28.56-.85-14.34-2.28-26-9.47-34-11.51-12.81-28.88-21.72-48-6.73s-19.83,15.9-42,27.8c-16.19,8.69-17.5,18.9-35.31,25.41l-20.85,5.87a72.76,72.76,0,0,0-28.23,15.42c-7.72,6.94-22.53,15.79-34.63,22.26-8.33,4.46-15.37,7.78-17.93,8.58-6.3,1.95-9.78,5.64-7,10.86s7,10.39,11.29,24.2c3.81,12.13,10.48,13.27,13.81,13.36"/><path class="cls-5" d="M188,432.81h5.49a1.6,1.6,0,0,0,.91-2.92l-3.54-2.45"/><path class="cls-5" d="M193.61,425.32l.06,0,5,3.47a2.15,2.15,0,0,1,1,1.81,2.19,2.19,0,0,1-.64,1.54,2.14,2.14,0,0,1-1.54.64h-4"/><line class="cls-5" x1="194.2" y1="425.57" x2="193.61" y2="425.32"/><path class="cls-5" d="M197.43,432.82h5.26a1.78,1.78,0,0,0,1.76-1.46,1.27,1.27,0,0,0,0-.34,1.81,1.81,0,0,0-1.32-1.74l-8.91-3.69"/><path class="cls-5" d="M204.49,431.36h.85a2.41,2.41,0,0,0,2.41-2.41v-.84a1.59,1.59,0,0,0-1.64-1.59c-2.83.1-8.67.14-11.85-.93l-.06,0-.53-.21c-.93-.41-1.53-.95-1.59-1.66-.29-3.75-3.23-21.34,3-26.88a34.58,34.58,0,0,1,4-2.94c10.43-6.83,34.38-18.8,50.56-23.12,18.9-5.05,17.6-9.12,27.53-11.24s13.52-1.79,27.7-6.35c13.12-4.23,37.84-10.26,56.81-20.59q2.28-1.23,4.43-2.55s9.78-6.35,13.85-8.95"/><path class="cls-5" d="M361.66,332.59a42.59,42.59,0,0,0,3,4.77c1.46,2-4.56,4.4-7.82,26.72a68.25,68.25,0,0,1-4.56,12.14c-2.28,4.19-4.8,8.31-2.27,15.36a28,28,0,0,0,1.45,3.29c4,7.7,2.95,13.56,2.52,15.2a3,3,0,0,1-.11.39l0,.07"/><path class="cls-5" d="M188,376.22s1,6.31,11.1,17.66"/><path class="cls-5" d="M364.62,337.36s30.95,1.31,41.54-17.59"/></svg>