<svg id="Layer_1" data-name="Layer 1" xmlns="http://www.w3.org/2000/svg" viewBox="0 0 700 700"><defs><style>.cls-1{fill:#feae63;}.cls-2{fill:#c4e7f9;}.cls-3{fill:#99abcc;}.cls-4{fill:#170607;}.cls-5{fill:none;stroke:#000;stroke-linecap:round;stroke-linejoin:round;stroke-width:2.3px;}</style></defs><title>Yoga_poses_2020_color</title><path class="cls-1" d="M435.28,430.69l-4.34,1a25.26,25.26,0,0,1-2.74.46c-19.34,2-38.54-1.42-52.23-1.32-13.26.09-18.46.37-23-6.5-4.09-6.15-.81-15.41-.08-17.27l.12-.29s0,0,0-.05c1.12-2.55,1.84-4.24,1.84-4.24.6-1.1,1.18-2.24,1.75-3.43l0-.06c.54-.69,6.41-7.7,23.29-3.52,17.76,4.4,15.16,7,28.92,10.12l.44.13-.88,2.91C419.26,410,429.58,411,435,411.3a31.89,31.89,0,0,1,5,.63s3.95,1,11.44-.78,21.75-1.46,29.24-2.36c6.69-.8,18.06-4.2,23.14-5.26a10.94,10.94,0,0,0,3.21-1.25l3.38-2a10.75,10.75,0,0,1,4.45-1.4,50.56,50.56,0,0,0,8-1.13c.81-.26,1.61-.56,2.31-.85l.41-.17,3.1-1.25a2.52,2.52,0,0,1,.9-.17h7.12a1.78,1.78,0,0,1,1.78,1.78,1.64,1.64,0,0,1,0,.38,2.54,2.54,0,0,1-2.27,2l-4.58.39-.53.07a7.18,7.18,0,0,0-1.8.54l-1.64.75a2,2,0,0,0-.36,3.39,2.13,2.13,0,0,0,1.33,3.8,2,2,0,0,0,.8-.16l3.57-1.45a2.1,2.1,0,0,0,1.22-1.34s2.07,1.54.57,4.86a2.12,2.12,0,0,0-2.11-1l-2.2.32a2.29,2.29,0,0,0,.19,4.56l2.18.15a1.86,1.86,0,0,0,.85-.13l0,.13a3,3,0,0,1-1.88,4,1.52,1.52,0,0,0-1.35-.82h-2.71a1.52,1.52,0,0,0-1.46,1.07,1.58,1.58,0,0,0-.07.47,1.52,1.52,0,0,0,.91,1.4l2.46,1.08a4.68,4.68,0,0,1-3.88,2.78l-8.28.69a4.62,4.62,0,0,1-2.83-.67l-6.11-3.75a4.67,4.67,0,0,0-3.48-.57c-5,1.16-19.25,4.46-28.69,6.83C464.68,429.86,435.28,430.69,435.28,430.69Z"/><path class="cls-1" d="M534.75,410.35a2.08,2.08,0,0,1,.33,1.13v.79a2.11,2.11,0,0,1-1.42,2,1.86,1.86,0,0,1-.85.13l-2.18-.15a2.29,2.29,0,0,1-.19-4.56l2.2-.32A2.12,2.12,0,0,1,534.75,410.35Z"/><path class="cls-1" d="M534.06,403.91a2.13,2.13,0,0,1,.12,1.58,2.1,2.1,0,0,1-1.22,1.34l-3.57,1.45a2,2,0,0,1-.8.16,2.13,2.13,0,0,1-1.33-3.8l3.06-2.45a2.16,2.16,0,0,1,1-.44,2.14,2.14,0,0,1,2.27,1.16Z"/><path class="cls-1" d="M531.82,418.41a1.48,1.48,0,0,1,.14,1.06l-.24,1.08a1.54,1.54,0,0,1-2.12,1.06l-2.46-1.08a1.52,1.52,0,0,1-.91-1.4,1.58,1.58,0,0,1,.07-.47,1.52,1.52,0,0,1,1.46-1.07h2.71A1.52,1.52,0,0,1,531.82,418.41Z"/><path class="cls-1" d="M528.2,395.51l-.37.17s-.92.51-2.25,1.09l-.41.17c-.7.29-1.5.59-2.31.85a50.56,50.56,0,0,1-8,1.13,10.75,10.75,0,0,0-4.45,1.4l-3.38,2a10.94,10.94,0,0,1-3.21,1.25c-5.08,1.06-16.45,4.46-23.14,5.26-7.49.9-21.74.57-29.24,2.36s-11.44.78-11.44.78a31.89,31.89,0,0,0-5-.63c-5.45-.27-15.77-1.35-26.63-2.71l.88-2.91c.45-1.51,1.06-3.53,1.73-5.85h0c.43.12,11.6,3.09,18,4.81s12.38-2.38,28.67-2.92,25.41-1.08,33.66-1.89,12,.27,16.07-1.25l6.91-2.56a10.12,10.12,0,0,1,3.7-.64Z"/><path class="cls-2" d="M414.46,321.91c7.16,26.5,5,39.53,3.9,48.65-.7,5.89-4.64,20-7.34,29.27h0c-.67,2.32-1.28,4.34-1.73,5.85l-.44-.13c-13.76-3.08-11.16-5.72-28.92-10.12-16.88-4.18-22.75,2.83-23.29,3.52,8.82-18.29,14.71-46.64,17.79-64.59a49.3,49.3,0,0,0,24.93-17.42c8.41-11.48,7.39-17.43,7.39-17.43A147.29,147.29,0,0,1,414.46,321.91Z"/><path class="cls-3" d="M374.42,334.36c-3.08,17.95-9,46.3-17.79,64.59l0,.06c-.57,1.19-1.15,2.33-1.75,3.43,0,0-.72,1.69-1.84,4.24l0,.05-.12.29c-2.13,4.86-5.55,12.53-8.21,17.73-4.15,8.15-18.39,5.54-25.44,5.54a140.3,140.3,0,0,0-19.57-1.3c-11.27,0-31.14-2.61-44.82-4.24-7.1-.85-16.75-.55-26.66.34-3.19-8.13-1.39-19-1.39-19l20-3.83a265,265,0,0,1,42-4.92A124.15,124.15,0,0,1,315.41,399s1-.74,2.21-3.83c1-2.69,2.14-7.14,2.75-14.42a.6.6,0,0,0,.64-.54,1.43,1.43,0,0,0-.5-1.34c.09-1.25.16-2.58.22-4,.07-2,.11-4.16.11-6.5,0-26.71,2.39-41.27,11.08-61.9s10.86-40.18,37.79-37.14c18.88,2.13,29.76,14.08,37,30.16,0,0,1,5.95-7.39,17.43A49.3,49.3,0,0,1,374.42,334.36Z"/><path d="M320.51,378.88a1.43,1.43,0,0,1,.5,1.34.6.6,0,0,1-.64.54C320.42,380.15,320.47,379.53,320.51,378.88Z"/><path class="cls-1" d="M301.46,375.84c.45-.14,8.64-2.74,13.86-2,2.58.34,3.79,1,5,1.08l.42,0c-.06,1.41-.13,2.74-.22,4a2.25,2.25,0,0,0-1.1-.48c-1.42-.26-2.65,0-2.77.64s.95,1.32,2.36,1.58a5.71,5.71,0,0,0,1.37.14c-.61,7.28-1.73,11.73-2.75,14.42l-.29-.1a11,11,0,0,0-1.93-1.69c-3.67-2.57-7.17-2.3-9.29-6.38-1.05-2-6.22-10.56-6.47-11l1.82-.22Z"/><path d="M320.51,378.88c0,.65-.09,1.27-.14,1.88a5.71,5.71,0,0,1-1.37-.14c-1.41-.26-2.47-1-2.36-1.58s1.35-.9,2.77-.64A2.25,2.25,0,0,1,320.51,378.88Z"/><path class="cls-4" d="M317.33,395.08l.29.1c-1.17,3.09-2.21,3.83-2.21,3.83a124.15,124.15,0,0,0-26.58-1.71V397c.89-7.06,4.63-13.61,9.42-20.75l1.4-.16c.25.4,5.42,8.95,6.47,11,2.12,4.08,5.62,3.81,9.29,6.38A11,11,0,0,1,317.33,395.08Z"/><path class="cls-1" d="M218.68,407.6l8.09-1.55s-1.8,10.91,1.39,19c-9.19.82-18.61,2.16-26.45,3.57A60.38,60.38,0,0,1,191.66,430l-22.36.43a4.56,4.56,0,0,1-1.6-.27,4.41,4.41,0,0,1-1.17-.63L165,428.41a1.32,1.32,0,0,1-.26-1.84l.31-.42.12-.15a2.45,2.45,0,0,1,1.81-.83l2,0a2.32,2.32,0,0,0,1-.27l12.62-8.74c3.83-2.6,9-9.9,11.19-14.49a7.89,7.89,0,0,1,4.29-4l0,0a7.92,7.92,0,0,1,8.55,1.87l5.69,5.84A7.6,7.6,0,0,0,218.68,407.6Z"/><path class="cls-1" d="M167.7,430.18l-3.43.48a2.14,2.14,0,0,1-1.42-.27l-1.15-.67a1.23,1.23,0,0,1-.41-1.71l.71-1a2.15,2.15,0,0,1,1.71-.93l1.48,0-.12.15-.31.42a1.32,1.32,0,0,0,.26,1.84l1.51,1.14A4.41,4.41,0,0,0,167.7,430.18Z"/><path class="cls-5" d="M167.7,430.18l-3.43.48a2.14,2.14,0,0,1-1.42-.27l-1.15-.67a1.23,1.23,0,0,1-.41-1.71l.71-1a2.15,2.15,0,0,1,1.71-.93l1.48,0"/><path class="cls-5" d="M301.44,375.85h0c.45-.14,8.64-2.74,13.86-2,2.58.34,3.79,1,5,1.08"/><path class="cls-5" d="M299.64,376h0c.25.4,5.42,8.95,6.47,11,2.12,4.08,5.62,3.81,9.29,6.38a11,11,0,0,1,1.93,1.69"/><path class="cls-5" d="M288.82,397c.89-7.06,4.63-13.61,9.42-20.75l1.4-.16,1.82-.22h0"/><path class="cls-5" d="M352.86,407c-.73,1.86-4,11.12.08,17.27,4.57,6.87,9.77,6.59,23,6.5,13.69-.1,32.89,3.34,52.23,1.32a25.26,25.26,0,0,0,2.74-.46l4.34-1,14.21-3.16"/><path class="cls-5" d="M353,406.68l0,.05"/><path class="cls-5" d="M525.58,396.77c1.33-.58,2.25-1.09,2.25-1.09l.37-.17,4.2-1.87a1.33,1.33,0,0,1,1.77.76l.33,1"/><path class="cls-5" d="M385.92,403.79l3.2,1.31a29,29,0,0,0,6.84,1.84c4.07.57,8.29,1.13,12.44,1.65C419.26,410,429.58,411,435,411.3a31.89,31.89,0,0,1,5,.63s3.95,1,11.44-.78,21.75-1.46,29.24-2.36c6.69-.8,18.06-4.2,23.14-5.26a10.94,10.94,0,0,0,3.21-1.25l3.38-2a10.75,10.75,0,0,1,4.45-1.4,50.56,50.56,0,0,0,8-1.13c.81-.26,1.61-.56,2.31-.85"/><path class="cls-5" d="M411,399.83c-.67,2.32-1.28,4.34-1.73,5.85l-.88,2.91"/><path class="cls-5" d="M356.59,399c-.57,1.19-1.15,2.33-1.75,3.43,0,0-.72,1.69-1.84,4.24,0,0,0,0,0,.05l-.12.29c-2.13,4.86-5.55,12.53-8.21,17.73-4.15,8.15-18.39,5.54-25.44,5.54a140.3,140.3,0,0,0-19.57-1.3c-11.27,0-31.14-2.61-44.82-4.24-7.1-.85-16.75-.55-26.66.34-9.19.82-18.61,2.16-26.45,3.57A60.38,60.38,0,0,1,191.66,430l-22.36.43a4.56,4.56,0,0,1-1.6-.27,4.41,4.41,0,0,1-1.17-.63L165,428.41a1.32,1.32,0,0,1-.26-1.84l.31-.42.12-.15a2.45,2.45,0,0,1,1.81-.83l2,0a2.32,2.32,0,0,0,1-.27l12.62-8.74c3.83-2.6,9-9.9,11.19-14.49a7.89,7.89,0,0,1,4.29-4l0,0a7.92,7.92,0,0,1,8.55,1.87l5.69,5.84a7.6,7.6,0,0,0,6.3,2.26l8.09-1.55,20-3.83a265,265,0,0,1,42-4.92A124.15,124.15,0,0,1,315.41,399s1-.74,2.21-3.83c1-2.69,2.14-7.14,2.75-14.42.05-.61.1-1.23.14-1.88.09-1.25.16-2.58.22-4,.07-2,.11-4.16.11-6.5,0-26.71,2.39-41.27,11.08-61.9s10.86-40.18,37.79-37.14c18.88,2.13,29.76,14.08,37,30.16a147.29,147.29,0,0,1,7.72,22.4c7.16,26.5,5,39.53,3.9,48.65-.7,5.89-4.64,20-7.34,29.27"/><path class="cls-5" d="M377,317.57s-.85,6.78-2.57,16.79c-3.08,17.95-9,46.3-17.79,64.59"/><path class="cls-5" d="M356.59,399l0-.06c.54-.69,6.41-7.7,23.29-3.52,17.76,4.4,15.16,7,28.92,10.12"/><path class="cls-5" d="M226.77,406.05s-1.8,10.91,1.39,19h0"/><path class="cls-5" d="M531.3,401.75a2.16,2.16,0,0,0-1,.44l-3.06,2.45a2.13,2.13,0,0,0,1.33,3.8,2,2,0,0,0,.8-.16l3.57-1.45a2.1,2.1,0,0,0,1.22-1.34,2.13,2.13,0,0,0-.12-1.58l-.49-1A2.14,2.14,0,0,0,531.3,401.75Z"/><path class="cls-5" d="M534.75,410.35a2.12,2.12,0,0,0-2.11-1l-2.2.32a2.29,2.29,0,0,0,.19,4.56l2.18.15a1.86,1.86,0,0,0,.85-.13,2.11,2.11,0,0,0,1.42-2v-.79A2.08,2.08,0,0,0,534.75,410.35Z"/><path class="cls-5" d="M531.82,418.41a1.52,1.52,0,0,0-1.35-.82h-2.71a1.52,1.52,0,0,0-1.46,1.07,1.58,1.58,0,0,0-.07.47,1.52,1.52,0,0,0,.91,1.4l2.46,1.08a1.54,1.54,0,0,0,2.12-1.06l.24-1.08A1.48,1.48,0,0,0,531.82,418.41Z"/><path class="cls-5" d="M527.26,404.64a2,2,0,0,1,.36-3.39l1.64-.75a7.18,7.18,0,0,1,1.8-.54l.53-.07,4.58-.39a2.54,2.54,0,0,0,2.27-2,1.64,1.64,0,0,0,0-.38,1.78,1.78,0,0,0-1.78-1.78h-7.12a2.52,2.52,0,0,0-.9.17l-3.1,1.25-.41.17"/><path class="cls-5" d="M533.7,414.4a3,3,0,0,1-1.88,4"/><path class="cls-5" d="M534.18,405.49s2.07,1.54.57,4.86h0"/><path class="cls-5" d="M529.6,421.61a4.68,4.68,0,0,1-3.88,2.78l-8.28.69a4.62,4.62,0,0,1-2.83-.67l-6.11-3.75a4.67,4.67,0,0,0-3.48-.57c-5,1.16-19.25,4.46-28.69,6.83-11.65,2.94-41.05,3.77-41.05,3.77"/><path class="cls-5" d="M411,399.83h0c.43.12,11.6,3.09,18,4.81s12.38-2.38,28.67-2.92,25.41-1.08,33.66-1.89,12,.27,16.07-1.25l6.91-2.56a10.12,10.12,0,0,1,3.7-.64l10.18.13h.48"/><path class="cls-5" d="M374.42,334.36a49.3,49.3,0,0,0,24.93-17.42c8.41-11.48,7.39-17.43,7.39-17.43"/></svg>