<svg id="Layer_1" data-name="Layer 1" xmlns="http://www.w3.org/2000/svg" viewBox="0 0 700 700"><defs><style>.cls-1{fill:#120c0c;}.cls-2{fill:#feae63;}.cls-3{fill:#c4e7f9;}.cls-4{fill:#99abcc;}.cls-5{fill:none;stroke:#000;stroke-linecap:round;stroke-linejoin:round;stroke-width:2.05px;}</style></defs><title>Yoga_poses_2020_color</title><path class="cls-1" d="M444.89,329.35c4.38,1.88,8.6,9.86,3.27,14.75s-10,1.09-10,1.09h-.65c0-.85,0-1.72-.1-2.62a18.73,18.73,0,0,0-1.25-4.35l.1,0C434.11,329.9,441.76,328,444.89,329.35Z"/><path class="cls-1" d="M437.52,345.2c.11,14.67-8.42,21.64-20.17,28.91l-1.29-.41s-1.18-9.9-1.29-12.12c-.23-4.39-3.39-5.54-5.57-9.23s-1.63-7.57-.36-9.44c0,0,5.35-2.14,1-5.74a8.11,8.11,0,0,0-2-.71l.34-.07s.45-5.07-3.42-6.62c-2-.8-3-.82-4.08-2a4.55,4.55,0,0,1-1.5-3.52,3.65,3.65,0,0,1,1.63-3c1.4-1,3.83-1.72,7.73-1.68,8.35.09,17.25,6.18,17.25,6.18a26.47,26.47,0,0,1,10.37,12.45,18.73,18.73,0,0,1,1.25,4.35C437.48,343.48,437.52,344.35,437.52,345.2Z"/><path class="cls-2" d="M407.85,336.46a8.11,8.11,0,0,1,2,.71c4.32,3.6-1,5.74-1,5.74-1.27,1.87-1.83,5.76.36,9.44s5.34,4.84,5.57,9.23c.11,2.22,1.29,12.12,1.29,12.12l-1.68-.54s-8.52-.78-13-3.44c-3.51-2.09-3.45-3.53-6.6-3.17l-5.72-.39,1.51-4.7-7.88-5.59c-.89-.11-7.35-2.12-.71-10.27,0,0,3.91-4.7,2.1-6.13l-9.6-5.15L374,334a27.35,27.35,0,0,0,3-7.57s6.26-12-11.66-26.46a12.27,12.27,0,0,1,1.89-5.78c9.28,7.49,17.54,17.26,20.86,20.92,4.26,4.69,12.78,6.19,12.78,6.19a3.65,3.65,0,0,0-1.63,3,4.55,4.55,0,0,0,1.5,3.52c1.07,1.14,2.07,1.16,4.08,2,3.87,1.55,3.42,6.62,3.42,6.62Zm-5.63,28.15c.33-.5-.33-1.52-1.48-2.28s-2.34-1-2.67-.48.33,1.52,1.48,2.28S401.89,365.11,402.22,364.61Z"/><path d="M400.74,362.33c1.15.76,1.81,1.78,1.48,2.28s-1.53.28-2.67-.48-1.81-1.78-1.48-2.28S399.6,361.57,400.74,362.33Z"/><path class="cls-2" d="M284,280.61a46.1,46.1,0,0,0,7.06,1.2q.74.07,1.44.18a31,31,0,0,1,14.37,5.91l7.55,3.65,12.92,7.05,3.14,1.71,13.63,5.11s2,.33,4.53,1a30.32,30.32,0,0,0,4.47-5.69c4.65-2.76,10.59-2.1,12.19-.81C383.21,314.42,377,326.41,377,326.41a27.35,27.35,0,0,1-3,7.57c-1.95,3.31-5,6.65-9.72,7.57a12.79,12.79,0,0,1-7.94-1.17,17.38,17.38,0,0,0-4.65-1.51c-2-.33-4.51-2.32-6.35-4a12.1,12.1,0,0,0-6.68-3.12c-3-.4-6.78-1-7.9-1.71-1.94-1.22-14.84-10.33-16.06-12.47s-10.22-3.11-16.79-5.79-17.52-12.89-20.93-15.33c-.8-.57-1.77-1.31-2.78-2.11-2-1.57-4.16-3.36-5.59-4.56h0l-.81-.69a2.82,2.82,0,0,0-1.82-.67h-.39a2.8,2.8,0,0,1-2.09-.92l-1.59-1.75-4.82-5a2.82,2.82,0,0,1,2.63-4.71l2.83.61a2.92,2.92,0,0,0,1.14,0l6.73-1.35,8.6-1.5a1,1,0,0,0,.8-1.31,1,1,0,0,1,1-1.32h1a2.26,2.26,0,0,1,2.11,1.41,10.93,10.93,0,0,1,.41,1.22,10.05,10.05,0,0,1,.19,4.4L284,280.6Z"/><path class="cls-3" d="M367.18,294.17a12.27,12.27,0,0,0-1.89,5.78c-1.6-1.29-7.54-1.95-12.19.81a14.91,14.91,0,0,0,1.52-3.43c1-3.63,2.6-4.38,4.4-8.82l.16.06A64.84,64.84,0,0,1,367.18,294.17Z"/><path class="cls-4" d="M334.73,342.45c4.86.95,12.45.14,16.91-3.58a17.38,17.38,0,0,1,4.65,1.51,12.79,12.79,0,0,0,7.94,1.17s2.75,3.74,1.06,11.59c-1.65,7.67-9.64,7.83-15.73,10.09s-16.29,3.44-16.29,3.44L323,360.48s-8.81-4.1-8.88-8.83a6.11,6.11,0,0,1,.83-2.57h0a59.51,59.51,0,0,1,7.06-9.61l1.43.21a29.9,29.9,0,0,1,8.91,2.08,11.4,11.4,0,0,0,1.84.58Z"/><path class="cls-4" d="M327.33,298.6l-12.92-7.05-7.55-3.65A31,31,0,0,0,292.49,282s1.95-1.59,10.54-8.24l3.41-2.64c11.5-8.89,30.48-14.67,39.06-15.94s12.77,8.57,15,13.14,2.37,7.3,0,15.88a38.69,38.69,0,0,1-1.44,4.32c-1.8,4.44-3.38,5.19-4.4,8.82a14.91,14.91,0,0,1-1.52,3.43,30.32,30.32,0,0,1-4.47,5.69c-2.56-.7-4.53-1-4.53-1l-13.63-5.11Z"/><path class="cls-3" d="M345.29,334.83c1.84,1.72,4.34,3.71,6.35,4-4.46,3.72-12.05,4.53-16.91,3.58l-.52-.11a11.4,11.4,0,0,1-1.84-.58,29.9,29.9,0,0,0-8.91-2.08l-1.43-.21c4.27-5,8.68-9.47,8.68-9.47,1.12.69,4.88,1.31,7.9,1.71A12.1,12.1,0,0,1,345.29,334.83Z"/><path class="cls-2" d="M336.46,373.44l3.89,1.86a1.19,1.19,0,0,1,.68,1.18l0,.36a1.77,1.77,0,0,1-.08.4,1.64,1.64,0,0,1-1.6,1.13l-4.15-.11h0a1.58,1.58,0,0,1-1.53,1.22h-.11l-.89-.07a5.36,5.36,0,0,1-2.33-.74l-.94-.56a1.45,1.45,0,0,0-1.45,0,2.3,2.3,0,0,1-1.17.31h-.24c-10.5,1.09-18.41-2.11-34.28-2.23-4.53,0-6.63-2.52-6.44-6.93.14-3.5,1.73-8.21,4.67-13.89l5.38-10.6s6.27,5.27,19.14,4.34a6.11,6.11,0,0,0-.83,2.57c.07,4.73,8.88,8.83,8.88,8.83l10.26,6.19c6.68,3.41,11.66,4,13.89,4.08a1.26,1.26,0,0,1,1.22,1.33l-.1,1.92a2.47,2.47,0,0,1-2.65,2.28l-.14,0a1.92,1.92,0,0,0,.19-.71l0-.27A1.22,1.22,0,0,0,345,374l-7.34-3Z"/><path class="cls-2" d="M345,374a1.22,1.22,0,0,1,.75,1.21l0,.27a1.92,1.92,0,0,1-.19.71,2,2,0,0,1-2,1.22l-2.48-.19-.05,0a1.77,1.77,0,0,0,.08-.4l0-.36a1.19,1.19,0,0,0-.68-1.18l-3.89-1.86,1.16-2.44Z"/><path class="cls-4" d="M314.65,317.53c1.22,2.14,14.12,11.25,16.06,12.47,0,0-4.41,4.48-8.68,9.47a59.51,59.51,0,0,0-7.06,9.61h0c-12.87.93-19.14-4.34-19.14-4.34l2.57-5.06C308,330.12,314.65,317.53,314.65,317.53Z"/><path class="cls-4" d="M274.15,294.3c1,.8,2,1.54,2.78,2.11,3.41,2.44,14.36,12.66,20.93,15.33s15.57,3.66,16.79,5.79c0,0-6.64,12.59-16.26,22.15l-2.57,5.06-5.38,10.6c-2.94,5.68-4.53,10.39-4.67,13.89h-6.89c-9.18-.65-10.59-1.31-22.63-6a24.51,24.51,0,0,1-14.68-15.9C237.84,343,234.39,336,236.72,326c4.38-18.8,16.24-28.84,21-31.39a104.17,104.17,0,0,1,10.84-4.85h0C270,290.94,272.16,292.73,274.15,294.3Z"/><path class="cls-2" d="M303,273.74h0c-8.59,6.65-10.54,8.24-10.54,8.24q-.71-.11-1.44-.18a46.1,46.1,0,0,1-7.06-1.2h0l.45-2.46a10.05,10.05,0,0,0-.19-4.4Z"/><path class="cls-2" d="M267.41,259.93a2.57,2.57,0,0,0-.62-.36L265,258.5a2,2,0,0,1,1.27-3.58,2.09,2.09,0,0,1,1,.28l.91.53a2.12,2.12,0,0,0,.85.27l1.29.11a5,5,0,0,1,3.45,1.81l3.68,4.49a5,5,0,0,1,1.12,2.93l.4,8.4-8.6,1.5-6.73,1.35a2.92,2.92,0,0,1-1.14,0l-2.83-.61a2.83,2.83,0,0,0-1.89.26l-1.23-4.13a3.64,3.64,0,0,1,0-2l2.57-9.51a2.18,2.18,0,0,1,1.15-1.37l1.14-.54a2.14,2.14,0,0,1,2.75.84l.13,0a3.26,3.26,0,0,1,2.53.09Z"/><path class="cls-5" d="M408.84,342.91s5.35-2.14,1-5.74a8.11,8.11,0,0,0-2-.71,7.62,7.62,0,0,0-6.72,1.53s-2,2.32,1.72,2.7"/><path class="cls-5" d="M396.34,337.72s-4.72-2-7.75,1.44"/><path class="cls-5" d="M416.06,373.7s-1.18-9.9-1.29-12.12c-.23-4.39-3.39-5.54-5.57-9.23s-1.63-7.57-.36-9.44"/><path class="cls-5" d="M425.8,325.78s-8.9-6.09-17.25-6.18c-3.9,0-6.33.65-7.73,1.68a3.65,3.65,0,0,0-1.63,3,4.55,4.55,0,0,0,1.5,3.52c1.07,1.14,2.07,1.16,4.08,2,3.87,1.55,3.42,6.62,3.42,6.62"/><path class="cls-5" d="M438.17,345.19s4.66,3.8,10-1.09,1.11-12.87-3.27-14.75c-3.13-1.35-10.78.55-8.62,8.84"/><path class="cls-5" d="M425.8,325.78a26.47,26.47,0,0,1,10.37,12.45,18.73,18.73,0,0,1,1.25,4.35c.06.9.1,1.77.1,2.62.11,14.67-8.42,21.64-20.17,28.91l-1.29-.41-1.68-.54s-8.52-.78-13-3.44c-3.51-2.09-3.45-3.53-6.6-3.17l-5.72-.39,1.51-4.7-7.88-5.59c-.89-.11-7.35-2.12-.71-10.27,0,0,3.91-4.7,2.1-6.13l-9.6-5.15"/><path class="cls-5" d="M268.56,289.74c1.43,1.2,3.6,3,5.59,4.56,1,.8,2,1.54,2.78,2.11,3.41,2.44,14.36,12.66,20.93,15.33s15.57,3.66,16.79,5.79,14.12,11.25,16.06,12.47c1.12.69,4.88,1.31,7.9,1.71a12.1,12.1,0,0,1,6.68,3.12c1.84,1.72,4.34,3.71,6.35,4a17.38,17.38,0,0,1,4.65,1.51,12.79,12.79,0,0,0,7.94,1.17c4.69-.92,7.77-4.26,9.72-7.57a27.35,27.35,0,0,0,3-7.57s6.26-12-11.66-26.46c-1.6-1.29-7.54-1.95-12.19.81"/><path class="cls-5" d="M284,280.6l.45-2.46a10.05,10.05,0,0,0-.19-4.4,10.93,10.93,0,0,0-.41-1.22,2.26,2.26,0,0,0-2.11-1.41h-1a1,1,0,0,0-1,1.32,1,1,0,0,1-.8,1.31l-8.6,1.5-6.73,1.35a2.92,2.92,0,0,1-1.14,0l-2.83-.61a2.83,2.83,0,0,0-1.89.26,2.82,2.82,0,0,0-.74,4.45l4.82,5,1.59,1.75a2.8,2.8,0,0,0,2.09.92h.39a2.82,2.82,0,0,1,1.82.67l.81.69"/><path class="cls-5" d="M278.88,278.41s1.16,1.16,5.11,2.2a46.1,46.1,0,0,0,7.06,1.2q.74.07,1.44.18a31,31,0,0,1,14.37,5.91l7.55,3.65,12.92,7.05,3.14,1.71,13.63,5.11s2,.33,4.53,1a38.66,38.66,0,0,1,5.93,2.13l4.62,2.19"/><path class="cls-5" d="M300.29,295.68l3.27-2.12a4,4,0,0,1,3.42-.45l3,1"/><path class="cls-5" d="M400.82,321.28s-8.52-1.5-12.78-6.19c-3.32-3.66-11.58-13.43-20.86-20.92a64.84,64.84,0,0,0-8-5.6"/><path class="cls-5" d="M348.63,306.45a30.32,30.32,0,0,0,4.47-5.69,14.91,14.91,0,0,0,1.52-3.43c1-3.63,2.6-4.38,4.4-8.82a38.69,38.69,0,0,0,1.44-4.32c2.37-8.58,2.19-11.32,0-15.88s-6.39-14.42-15-13.14-27.56,7.05-39.06,15.94L303,273.75c-8.59,6.65-10.54,8.24-10.54,8.24"/><path class="cls-5" d="M327.33,298.6s9.47-7.3,15.37-10"/><path class="cls-5" d="M314.65,317.53s-6.64,12.59-16.26,22.15a52.32,52.32,0,0,1-5.9,5.1c-12.7,9.31-33.14,10-33.14,10"/><path class="cls-5" d="M248.4,353a25.09,25.09,0,0,1-6.83-5.66C237.84,343,234.39,336,236.72,326c4.38-18.8,16.24-28.84,21-31.39a104.17,104.17,0,0,1,10.84-4.85h0"/><path class="cls-5" d="M257.77,304.34s7.45-6.86,16.38-10"/><path class="cls-5" d="M315,349.08a59.51,59.51,0,0,1,7.06-9.61c4.27-5,8.68-9.47,8.68-9.47"/><path class="cls-5" d="M345.63,376.28a2.47,2.47,0,0,0,2.65-2.28l.1-1.92a1.26,1.26,0,0,0-1.22-1.33c-2.23-.07-7.21-.67-13.89-4.08L323,360.48s-8.81-4.1-8.88-8.83a6.11,6.11,0,0,1,.83-2.57"/><path class="cls-5" d="M331.87,375.15l2.77,1.78a1.2,1.2,0,0,1,.55,1.1,1.61,1.61,0,0,1-1.57,1.45h-.11l-.89-.07a5.36,5.36,0,0,1-2.33-.74l-.94-.56a1.45,1.45,0,0,0-1.45,0,2.3,2.3,0,0,1-1.17.31h-.24c-10.5,1.09-18.41-2.11-34.28-2.23-4.53,0-6.63-2.52-6.44-6.93.14-3.5,1.73-8.21,4.67-13.89l5.38-10.6,2.57-5.06"/><path class="cls-5" d="M334.92,372.71l1.54.73,3.89,1.86a1.19,1.19,0,0,1,.68,1.18l0,.36a1.77,1.77,0,0,1-.08.4,1.64,1.64,0,0,1-1.6,1.13l-4.15-.11"/><path class="cls-5" d="M337.62,371l7.34,3a1.22,1.22,0,0,1,.75,1.21l0,.27a1.92,1.92,0,0,1-.19.71,2,2,0,0,1-2,1.22l-2.48-.19"/><path class="cls-5" d="M296.71,356.71a9.8,9.8,0,0,0,3.4,8.19"/><path class="cls-5" d="M365.29,300a12.27,12.27,0,0,1,1.89-5.78"/><path class="cls-5" d="M241.57,347.33a24.51,24.51,0,0,0,14.68,15.9c12,4.69,13.45,5.35,22.63,6h6.89"/><path class="cls-5" d="M333.27,366.67s10.21-1.18,16.29-3.44,14.08-2.42,15.73-10.09c1.69-7.85-1.06-11.59-1.06-11.59"/><path class="cls-5" d="M334.73,342.45c4.86.95,12.45.14,16.91-3.58"/><path class="cls-5" d="M323.46,339.68a29.9,29.9,0,0,1,8.91,2.08,11.4,11.4,0,0,0,1.84.58"/><path class="cls-5" d="M268.56,265.52l.67,3.42a1.61,1.61,0,0,0,3.19-.31V265a2.53,2.53,0,0,0-1-2l-4-3a2.57,2.57,0,0,0-.62-.36,3.26,3.26,0,0,0-2.53-.09l-.13,0h0a3.31,3.31,0,0,0-2.05,2.31l-2,8.4"/><path class="cls-5" d="M257.77,276.23l-1.23-4.13a3.64,3.64,0,0,1,0-2l2.57-9.51a2.18,2.18,0,0,1,1.15-1.37l1.14-.54a2.14,2.14,0,0,1,2.75.84"/><path class="cls-5" d="M267.41,259.93l-.62-.36L265,258.5a2,2,0,0,1,1.27-3.58,2.09,2.09,0,0,1,1,.28l.91.53a2.12,2.12,0,0,0,.85.27l1.29.11a5,5,0,0,1,3.45,1.81l3.68,4.49a5,5,0,0,1,1.12,2.93l.4,8.4"/><path class="cls-5" d="M334.21,342.34l.52.11a42,42,0,0,1,9.3,3.21,51.57,51.57,0,0,0,8.53,3.42"/><line class="cls-5" x1="284.25" y1="273.74" x2="303.03" y2="273.74"/><path class="cls-5" d="M295.82,344.74s6.27,5.27,19.14,4.34h0"/></svg>