<svg id="Layer_1" data-name="Layer 1" xmlns="http://www.w3.org/2000/svg" viewBox="0 0 700 700"><defs><style>.cls-1{fill:#feae63;}.cls-2{fill:#99abcc;}.cls-3{fill:#120c0c;}.cls-4{fill:#c4e7f9;}.cls-5{fill:none;stroke:#000;stroke-linecap:round;stroke-linejoin:round;stroke-width:2.05px;}</style></defs><title>Yoga_poses_2020_color</title><path class="cls-1" d="M443.64,351.21s6.74,8.44-2.38,16.47-4.35,16.29-5.65,22.81-8.47,8-16.29,5.65c-4-1.21-10.6-1.39-18.66-1.11l0-.41a79.31,79.31,0,0,0,0-17.41v-.46a53.63,53.63,0,0,0,8-.38c13.68-1.95,12.79-3.27,17.37-8.9,3.77-4.63,9.12-8.26,10-11.51a29,29,0,0,0,1.29-9.35,1.7,1.7,0,0,1,1.55-1.76h.25a3.14,3.14,0,0,1,2.94,2.06Z"/><path class="cls-2" d="M400.64,377.21a79.31,79.31,0,0,1,0,17.41l0,.41c-6,.2-12.79.64-20,1.11-15.57,1-42.13,3.28-53.76.61a22.29,22.29,0,0,0-6.56-.57c-11.53.75-48.57,2.28-57.11,1.56-5.43-2.09-12.52-4.87-13.7-5.54-2.48-1.42-5.95-6.52-4.73-15.15.26-1.81.69-4,1.23-6.23.72-3.08,1.62-6.38,2.47-9.34l.76.21a20.92,20.92,0,0,0,14,.1h0c.62,0,20.46,1.37,33.86,3.72,13.62,2.39,11.67-.43,22.53,3.26s15.85,3.48,28.88,3.48c10.93,0,36.18,4.27,52.13,4.5Z"/><path class="cls-3" d="M320.08,302.9c-.26.2-5.07,3.86-10.48,2.64a7.1,7.1,0,0,1-3.63-2,8.24,8.24,0,0,1-2.05-4.08c0-8.68,6.74-15.86,6.74-15.86a27.81,27.81,0,0,1,13.93-9.65,20.07,20.07,0,0,1,4.64-.89c.94,0,1.86.06,2.74.13,15.29,1.25,21.75,10.78,28.24,23.69l-.55,1.3s-10.42.31-12.74.22c-4.59-.16-6.08,3-10.12,4.95s-8,1-9.87-.5c0,0-1.73-5.77-5.88-1.61a8.2,8.2,0,0,0-.83,1.74Z"/><path class="cls-1" d="M320.22,303a8.2,8.2,0,0,1,.83-1.74c4.15-4.16,5.88,1.61,5.88,1.61,1.83,1.49,5.82,2.43,9.87.5s5.53-5.11,10.12-4.95c2.32.09,12.74-.22,12.74-.22l-.72,1.7s-1.61,8.8-4.78,13.19c-2.5,3.46-4,3.27-3.91,6.58l-.94,5.92-4.75-2L338,331.22c-.19.92-2.88,7.46-10.75-.21,0,0-3.35-2.78-6.19-2.76,0,0-6.13.71-14.17.93,0,0-6.73.11-9.58,2,.14-.78.26-1.56.37-2.32A17.35,17.35,0,0,0,279.83,309a27.42,27.42,0,0,0-5.47.8s-4.34-4.11-.73-11.62l.12-.59c5.52,1.23,14.77,3.66,19,6.85,7.22,5.4,13.18-.9,13.18-.9a7.1,7.1,0,0,0,3.63,2c5.41,1.22,10.22-2.44,10.48-2.64Zm27.95,11.51c.9-1.13,1.23-2.35.74-2.74s-1.61.2-2.51,1.32-1.23,2.35-.74,2.74S347.27,315.58,348.17,314.46Z"/><path d="M348.91,311.72c.49.39.16,1.61-.74,2.74s-2,1.71-2.51,1.32-.16-1.61.74-2.74S348.43,311.33,348.91,311.72Z"/><path class="cls-3" d="M331.81,262c4.6,6,.21,10.5.21,10.5l0,.67c-.88-.07-1.8-.11-2.74-.13a20.07,20.07,0,0,0-4.64.89l0-.1c-8.83,1.48-10.1-6.66-8.41-9.79C318.51,259.64,327.21,256,331.81,262Z"/><path class="cls-1" d="M198.52,333.1l4.34-.28c7.33-.49,12,.65,19.87,1.14a23.44,23.44,0,0,0,8.39-.51c2.55-.55,6.46-1.49,14.74-2.91a91.81,91.81,0,0,0,16-4.2c2.05-.74,3.85-1.49,5.39-2.19l-.1-.22c-1.81-12.05,7.23-14.16,7.23-14.16a27.42,27.42,0,0,1,5.47-.8,17.35,17.35,0,0,1,17.85,19.85c-.11.76-.23,1.54-.37,2.32-.26,1.53-.57,3.06-.95,4.45-.74,2.71-5.07,7.86-11.4,10.64a21.86,21.86,0,0,1-8.47,1.9c-10.76.17-9.29-.32-18.41,2.28a34.87,34.87,0,0,1-6.71,1.15c-7.33.61-14.84-.4-19.68,1-.89.25-1.87.52-2.94.78a40.57,40.57,0,0,1-27.69-2.57c-8.86-4.16-12.21-5.74-14.1-6.48a13,13,0,0,0-2.19-.69c-2.11-.49-2-1.79-3.74-3.09-.39-.28-1.08-.73-1.91-1.24-3-1.85-7.87-4.63-7.87-4.63-2.84-.05-6.78,1.85-11,4.28a1.6,1.6,0,0,1-.82.22,1.62,1.62,0,0,1-1.17-2.74l2.79-2.92.17-.11a1.6,1.6,0,0,0,1.41.82,1.63,1.63,0,0,0,.31,0l13.31-2.67s7.49-1.3,15-3.47c4.53-1.31,4.41-4.23,3.61-6.31l2.9-1a3.29,3.29,0,0,1,1.46-.18l4.62.27.29.17a83.06,83.06,0,0,0-5.66,11.27Z"/><path class="cls-4" d="M285,346.23l.05.11c-8.22,4.27-2.22,1.75-13.61,10.92a26,26,0,0,1-8.16,4.53h0a20.92,20.92,0,0,1-14-.1l-.76-.21c1.52-5.3,2.9-9.52,2.9-9.52l0-.4a34.87,34.87,0,0,0,6.71-1.15c9.12-2.6,7.65-2.11,18.41-2.28A21.86,21.86,0,0,0,285,346.23Z"/><path class="cls-1" d="M265.05,410.93a1.4,1.4,0,0,1-1.13.57h-1.79a37.41,37.41,0,0,1-5.05.49c-3.42.16-10.32-1.32-24.49-1.32-2.9,0-5.34-.13-7.39-.29a6.5,6.5,0,0,1-5.95-6.92.2.2,0,0,1,0-.07,45.47,45.47,0,0,1,1-6c.87-3.1,2.87-5.74,3.78-11.68.41-2.68,1.36-8.84,2.31-15,1.59.25,13.8,2,19.08,0l.6.14c-.54,2.27-1,4.42-1.23,6.23-1.22,8.63,2.25,13.73,4.73,15.15,1.18.67,8.27,3.45,13.7,5.54l6.39,2.44a43.09,43.09,0,0,0,5.46,3.09c1,.31,5.05,1,7,1.3a1.42,1.42,0,0,1,1.19,1.41c0,3.32-2.29,3.32-2.29,3.32h-.23a1.18,1.18,0,0,1-1,.54l-3.95.12-.11,0a2,2,0,0,1-1.64,1.06l-2.75.19-.08-1.08a1.4,1.4,0,0,1-1.41,1l-4.5-.19Z"/><path class="cls-4" d="M273.75,297.56l-.12.59c-3.61,7.51.73,11.62.73,11.62s-9,2.11-7.23,14.16l.1.22c-1.54.7-3.34,1.45-5.39,2.19.14-.55,5.21-21.41,6.17-26.17.25-1.22.53-2.38.7-3.59l.63.08S271.12,297,273.75,297.56Z"/><path class="cls-2" d="M231.12,333.45a23.44,23.44,0,0,1-8.39.51c-7.82-.49-12.54-1.63-19.87-1.14l-4.34.28-.06-.93a83.06,83.06,0,0,1,5.66-11.27,152.59,152.59,0,0,1,14.78-20.39,235,235,0,0,1,21.59-22.26c4.56-4.07,14.49-5.7,22.31,3.75,5.84,7.05,6.41,11,5.91,14.58-.17,1.21-.45,2.37-.7,3.59-1,4.76-6,25.62-6.17,26.17a91.81,91.81,0,0,1-16,4.2C237.58,332,233.67,332.9,231.12,333.45Z"/><path class="cls-2" d="M251.37,351.56l0,.4s-1.38,4.22-2.9,9.52c-.85,3-1.75,6.26-2.47,9.34l-.6-.14c-5.28,2.05-17.49.27-19.08,0,1.28-8.33,2.57-16.7,2.57-16.7l-.17-.69c1.07-.26,2.05-.53,2.94-.78C236.53,351.16,244,352.17,251.37,351.56Z"/><path class="cls-2" d="M226.35,370.7c-.95,6.19-1.9,12.35-2.31,15-.91,5.94-2.91,8.58-3.78,11.68a45.47,45.47,0,0,0-1,6l-.4,0s-15.35.16-23.66-.49-21.83-6-28.34-23.3c-3.61-9.55.52-20.81,4.92-28.95l0,0c.35-.4,6.58-7.3,15.16-6.34,1.89.74,5.24,2.32,14.1,6.48a40.57,40.57,0,0,0,27.69,2.57l.17.69S227.63,362.37,226.35,370.7Z"/><path class="cls-1" d="M218.49,300.17l.41.34a152.59,152.59,0,0,0-14.78,20.39l-.29-.17-4.62-.27a3.29,3.29,0,0,0-1.46.18l-2.9,1c-.09-.24-.19-.46-.29-.67a6.79,6.79,0,0,0-2-2.47l-2.3-1.76.33-.43s5.95-5.36,7.58-7a96,96,0,0,1,14-9.62C214.67,298.52,216.54,299.29,218.49,300.17Z"/><path class="cls-1" d="M194.85,321.68c.8,2.08.92,5-3.61,6.31-7.5,2.17-15,3.47-15,3.47a12.81,12.81,0,0,0-1.44-5.75,21.23,21.23,0,0,0-1.17-2.24,7.07,7.07,0,0,1-.95-4l.4-7a1.59,1.59,0,0,1,.07-.38l.81-2.34a1.4,1.4,0,0,1,1.33-1,1.42,1.42,0,0,1,1.42,1.41,1,1,0,0,1,0,.17l0,.25-.3,2.48a.88.88,0,0,0,0,.28l.43,5.34a2.69,2.69,0,0,0,1.13,2l4.24,3a2,2,0,0,0,2.13.11,2,2,0,0,0,1-1.76,2,2,0,0,0-.18-.82l-2.06-4.51a19.17,19.17,0,0,1-4.44-2.73,3.55,3.55,0,0,1-1.16-3.27,3.51,3.51,0,0,1,.77-1.66l6.89,3.85,5.07,3.89,2.3,1.76a6.79,6.79,0,0,1,2,2.47C194.66,321.22,194.76,321.44,194.85,321.68Z"/><path class="cls-4" d="M187,344.26c-8.58-1-14.81,5.94-15.16,6.34a76.56,76.56,0,0,1,7.27-11.1l.05-.26c.83.51,1.52,1,1.91,1.24,1.79,1.3,1.63,2.6,3.74,3.09A13,13,0,0,1,187,344.26Z"/><path class="cls-1" d="M174.81,325.71a12.81,12.81,0,0,1,1.44,5.75l-13.31,2.67a1.63,1.63,0,0,1-.31,0,1.59,1.59,0,0,1-.62-3.06L174.08,326Z"/><path class="cls-5" d="M326.93,302.82s-1.73-5.77-5.88-1.61a8.2,8.2,0,0,0-.83,1.74,8,8,0,0,0,.88,7.44s2.22,2.33,3-1.54"/><path class="cls-5" d="M320.37,315.35s-2.5,4.73.78,8.2"/><path class="cls-5" d="M359.66,298.15s-10.42.31-12.74.22c-4.59-.16-6.08,3-10.12,4.95s-8,1-9.87-.5"/><path class="cls-5" d="M310.66,283.57s-6.78,7.18-6.74,15.86a8.24,8.24,0,0,0,2.05,4.08,7.1,7.1,0,0,0,3.63,2c5.41,1.22,10.22-2.44,10.48-2.64h0"/><path class="cls-5" d="M332,272.49s4.39-4.5-.21-10.5-13.3-2.35-15.66,2c-1.69,3.13-.42,11.27,8.41,9.79"/><path class="cls-5" d="M310.66,283.57a27.81,27.81,0,0,1,13.93-9.65,20.07,20.07,0,0,1,4.64-.89c.94,0,1.86.06,2.74.13,15.29,1.25,21.75,10.78,28.24,23.69l-.55,1.3-.72,1.7s-1.61,8.8-4.78,13.19c-2.5,3.46-4,3.27-3.91,6.58l-.94,5.92-4.75-2L338,331.22c-.19.92-2.88,7.46-10.75-.21,0,0-3.35-2.78-6.19-2.76,0,0-6.13.71-14.17.93,0,0-6.73.11-9.58,2l-.14.1"/><path class="cls-5" d="M306,303.51s-6,6.3-13.18.9c-4.27-3.19-13.52-5.62-19-6.85-2.63-.58-4.41-.9-4.41-.9"/><path class="cls-5" d="M190.55,316.35s5.95-5.36,7.58-7a96,96,0,0,1,14-9.62c2.53-1.23,4.4-.46,6.35.42"/><path class="cls-5" d="M273.88,320.6a47.14,47.14,0,0,1-6.65,3.55c-1.54.7-3.34,1.45-5.39,2.19a91.81,91.81,0,0,1-16,4.2c-8.28,1.42-12.19,2.36-14.74,2.91a23.44,23.44,0,0,1-8.39.51c-7.82-.49-12.54-1.63-19.87-1.14l-4.34.28c-3.68.21-4.62.21-4.62.21"/><path class="cls-5" d="M221.59,340.64a4.71,4.71,0,0,0,2.69,5.3l3.5,1.54"/><path class="cls-5" d="M261.84,326.35h0c.14-.55,5.21-21.41,6.17-26.17.25-1.22.53-2.38.7-3.59.5-3.56-.07-7.53-5.91-14.58-7.82-9.45-17.75-7.82-22.31-3.75a235,235,0,0,0-21.59,22.26,152.59,152.59,0,0,0-14.78,20.39,83.06,83.06,0,0,0-5.66,11.27"/><path class="cls-5" d="M190,346.34a36.53,36.53,0,0,0-3.91,7.82"/><path class="cls-5" d="M171.78,350.62c-4.4,8.14-8.53,19.4-4.92,28.95,6.51,17.27,20,22.65,28.34,23.3s23.66.49,23.66.49"/><path class="cls-5" d="M179.07,339.5a76.56,76.56,0,0,0-7.27,11.1"/><path class="cls-5" d="M228.92,354s-1.29,8.37-2.57,16.7c-.95,6.19-1.9,12.35-2.31,15-.91,5.94-2.91,8.58-3.78,11.68a45.47,45.47,0,0,0-1,6,.2.2,0,0,0,0,.07,6.5,6.5,0,0,0,5.95,6.92c2.05.16,4.49.29,7.39.29,14.17,0,21.07,1.48,24.49,1.32a37.41,37.41,0,0,0,5.05-.49h1.79a1.4,1.4,0,0,0,1.4-1.3v-.12a1.88,1.88,0,0,0-.78-1.53,5.29,5.29,0,0,0-2.74-1.12"/><path class="cls-5" d="M265.39,410.93l4.5.19a1.4,1.4,0,0,0,1.41-1,1.28,1.28,0,0,0,.05-.27c0-.05,0-.09,0-.14a1.77,1.77,0,0,0-.58-1.32c-.87-.83-2.49-2.19-3.85-2.31"/><path class="cls-5" d="M271.25,411.17h.13l2.75-.19a2,2,0,0,0,1.64-1.06,1.94,1.94,0,0,0,.22-.64,1.5,1.5,0,0,0,0-.2,1.19,1.19,0,0,0-.65-1.06l-3.05-1.56"/><path class="cls-5" d="M275.88,410l3.95-.12a1.18,1.18,0,0,0,1-.54,1.2,1.2,0,0,0,.2-.7,1.78,1.78,0,0,0-1.52-1.7l-2.84-.85"/><path class="cls-5" d="M281,409.3s2.25,0,2.29-3.32a1.42,1.42,0,0,0-1.19-1.41c-2-.32-6.07-1-7-1.3a43.09,43.09,0,0,1-5.46-3.09l-6.39-2.44c-5.43-2.09-12.52-4.87-13.7-5.54-2.48-1.42-5.95-6.52-4.73-15.15.26-1.81.69-4,1.23-6.23.72-3.08,1.62-6.38,2.47-9.34,1.52-5.3,2.9-9.52,2.9-9.52"/><path class="cls-5" d="M229.79,386.31l-.34,3.51a9.5,9.5,0,0,0,4.13,8.77l.77.53"/><path class="cls-5" d="M171.78,350.62l0,0c.35-.4,6.58-7.3,15.16-6.34"/><path class="cls-5" d="M263.24,361.79a26,26,0,0,0,8.16-4.53c11.39-9.17,5.39-6.65,13.61-10.92"/><path class="cls-5" d="M249.26,361.69a20.92,20.92,0,0,0,14,.1"/><path class="cls-5" d="M248.9,302s-16.23,9.19-17.78,31.42"/><path class="cls-5" d="M226.18,370.68l.17,0c1.59.25,13.8,2,19.08,0"/><path class="cls-5" d="M263.23,361.79h0c.62,0,20.46,1.37,33.86,3.72,13.62,2.39,11.67-.43,22.53,3.26s15.85,3.48,28.88,3.48c10.93,0,36.18,4.27,52.13,4.5a53.63,53.63,0,0,0,8-.38c13.68-1.95,12.79-3.27,17.37-8.9,3.77-4.63,9.12-8.26,10-11.51a29,29,0,0,0,1.29-9.35,1.7,1.7,0,0,1,1.55-1.76h.25a3.14,3.14,0,0,1,2.94,2.06l1.57,4.31s6.74,8.44-2.38,16.47-4.35,16.29-5.65,22.81-8.47,8-16.29,5.65c-4-1.21-10.6-1.39-18.66-1.11-6,.2-12.79.64-20,1.11-15.57,1-42.13,3.28-53.76.61a22.29,22.29,0,0,0-6.56-.57c-11.53.75-48.57,2.28-57.11,1.56"/><path class="cls-5" d="M400.64,377.21a79.31,79.31,0,0,1,0,17.41"/><path class="cls-5" d="M174.08,326,162,331.1a1.59,1.59,0,0,0,.62,3.06,1.63,1.63,0,0,0,.31,0l13.31-2.67a12.81,12.81,0,0,0-1.44-5.75,21.23,21.23,0,0,0-1.17-2.24,7.07,7.07,0,0,1-.95-4l.4-7a1.59,1.59,0,0,1,.07-.38l.81-2.34a1.4,1.4,0,0,1,1.33-1,1.42,1.42,0,0,1,1.42,1.41,1,1,0,0,1,0,.17l0,.25-.3,2.48a.88.88,0,0,0,0,.28l.43,5.34a2.69,2.69,0,0,0,1.13,2l4.24,3a2,2,0,0,0,2.13.11,2,2,0,0,0,1-1.76,2,2,0,0,0-.18-.82l-2.06-4.51a19.17,19.17,0,0,1-4.44-2.73,3.55,3.55,0,0,1-1.16-3.27,3.51,3.51,0,0,1,.77-1.66l6.89,3.85,5.07,3.89,2.3,1.76a6.79,6.79,0,0,1,2,2.47c.1.21.2.43.29.67.8,2.08.92,5-3.61,6.31-7.5,2.17-15,3.47-15,3.47"/><path class="cls-5" d="M194.85,321.68l2.9-1a3.29,3.29,0,0,1,1.46-.18l4.62.27"/><path class="cls-5" d="M161.05,333.45l-2.79,2.92a1.62,1.62,0,0,0,1.17,2.74,1.6,1.6,0,0,0,.82-.22c4.22-2.43,8.16-4.33,11-4.28,0,0,4.88,2.78,7.87,4.63.83.51,1.52,1,1.91,1.24,1.79,1.3,1.63,2.6,3.74,3.09a13,13,0,0,1,2.19.69c1.89.74,5.24,2.32,14.1,6.48a40.57,40.57,0,0,0,27.69,2.57c1.07-.26,2.05-.53,2.94-.78,4.84-1.37,12.35-.36,19.68-1a34.87,34.87,0,0,0,6.71-1.15c9.12-2.6,7.65-2.11,18.41-2.28a21.86,21.86,0,0,0,8.47-1.9c6.33-2.78,10.66-7.93,11.4-10.64.38-1.39.69-2.92.95-4.45.14-.78.26-1.56.37-2.32A17.35,17.35,0,0,0,279.83,309a27.42,27.42,0,0,0-5.47.8s-9,2.11-7.23,14.16"/><path class="cls-5" d="M274.36,309.77s-4.34-4.11-.73-11.62"/></svg>