<svg id="Layer_1" data-name="Layer 1" xmlns="http://www.w3.org/2000/svg" viewBox="0 0 700 700"><defs><style>.cls-1{fill:#feae63;}.cls-2{fill:#392328;}.cls-3{fill:#99abcc;}.cls-4{fill:#c4e7f9;}.cls-5{fill:none;stroke:#000;stroke-linecap:round;stroke-linejoin:round;stroke-width:2.3px;}</style></defs><title>Yoga_poses_2020_color</title><path class="cls-1" d="M496.46,457.87a2.83,2.83,0,0,1-.49,5.61H482.05s-24.58-.87-33.36,0a92.65,92.65,0,0,1-11.69.34,6,6,0,0,1-5.77-5.94V446.54c0-.36-1.29-2.13-3.39-4.75A35.14,35.14,0,0,0,445,428.33c4.84,5.48,10,10.52,14.3,13,7.52,4.34,21.79,13,26.6,14.33C489.11,456.53,493.71,457.39,496.46,457.87Z"/><path class="cls-2" d="M497.76,368.06c2.41,4.37.77,13.66-6.77,14.27s-8.94-5.52-8.94-5.52l-.53-.41q.81-1,1.59-2.22a19.7,19.7,0,0,0,1.76-4.39l.1,0C488.52,361.6,496,364.94,497.76,368.06Z"/><path class="cls-2" d="M484.31,352.86a27.7,27.7,0,0,1,.56,16.93,19.7,19.7,0,0,1-1.76,4.39q-.78,1.17-1.59,2.22c-9.34,12.18-20.85,12.44-35.22,10.89l-.79-1.16s5.38-8.92,6.71-10.83c2.63-3.77.76-6.74,1.33-11.19s3.53-7.29,5.77-8c0,0,5.79,1.67,4.54-4.08a8.17,8.17,0,0,0-1-1.62l.11-.09s3.51-3.84,1.43-7.67a46,46,0,0,1-2.93-6.57.08.08,0,0,1,0,0c-1.43-5.22,4.64-2.57,12.11,1.82S484.31,352.86,484.31,352.86Z"/><path class="cls-1" d="M462.86,350.4a8.17,8.17,0,0,1,1,1.62c1.25,5.75-4.54,4.08-4.54,4.08-2.24.72-5.2,3.57-5.77,8s1.3,7.42-1.33,11.19c-1.33,1.91-6.71,10.83-6.71,10.83l-1.05-1.53s-6.52-6.12-8.49-11.17c-1.55-4-.58-5.13-3.41-6.85l-4.46-4,4.26-2.9L429.45,350c-.66-.66-4.7-6.47,6-8.92,0,0,6.07-2.41,5.67-3.71,0,0-6.76-7-13.51-7.94a6.37,6.37,0,0,0-2.42.16l-18.33,4.51a18.83,18.83,0,0,0,5.47-2.38l9.34-5.94c35.75-2.22,37.93-10.76,37.79-13.23a43.39,43.39,0,0,1,.1,13.42A26.81,26.81,0,0,0,461.46,336a.08.08,0,0,0,0,0,46,46,0,0,0,2.93,6.57c2.08,3.83-1.43,7.67-1.43,7.67Zm-22.93,19.34c.59-.2.7-1.46.24-2.83s-1.3-2.31-1.89-2.11-.7,1.46-.25,2.83S439.34,369.94,439.93,369.74Z"/><path class="cls-1" d="M414.87,262.84s-1-.76-3.95-2.75h0a40.2,40.2,0,0,1-2-10.24,11.09,11.09,0,0,1,1-5l.3-.63a11.25,11.25,0,0,1,5.72-5.61l3.22-1.4a4.54,4.54,0,0,1,6.46-.55l5,4.27a18.29,18.29,0,0,1,4,4.81A88.88,88.88,0,0,1,441,261c.53,1.62,1.05,3.27,1.54,4.9.87,2.87,1.66,5.72,2.38,8.41s1.3,5.08,1.83,7.26c1.26,5.3,2,8.91,2,8.91a48.67,48.67,0,0,1,8.82,13.36,73.46,73.46,0,0,1,1.86,8,.11.11,0,0,0,0,.05l.09.58v0c.14,2.47-2,11-37.79,13.23,0,0-16.73-6.08-10.65-23,5.9-16.41,7-18.53,7.08-18.64h0a39.82,39.82,0,0,1-1.28-7.41A109.16,109.16,0,0,0,414.87,262.84Z"/><path class="cls-1" d="M453.47,283a1.77,1.77,0,0,1-1.26,3,1.74,1.74,0,0,1-1.2-.47l-4.31-4c-.53-2.18-1.14-4.64-1.83-7.26l4.39,4.44,1.65,1.68Z"/><path class="cls-1" d="M453.2,277.25a2.44,2.44,0,0,1,.28,3,1.69,1.69,0,0,1-1.36.67,1.73,1.73,0,0,1-1.21-.5l-1.65-1.68-4.39-4.44c-.72-2.69-1.51-5.54-2.38-8.41Z"/><path class="cls-1" d="M447.82,265.91s.37,3.1-5.33,0c-.49-1.63-1-3.28-1.54-4.9l2.9,1.28A13.63,13.63,0,0,0,447.82,265.91Z"/><path class="cls-3" d="M363.05,273.58a109.77,109.77,0,0,1,6.51,12.67c8.07,18.51,14.84,33.62,19.3,41.71a37.93,37.93,0,0,0,3.28,5.19c3.91,4.79,5.21,8,5.65,18.56,0,0,1.3,6,9.55,18.06s21.29,37.68,27.8,46.36c2.79,3.73,6.25,8.09,9.89,12.2a35.14,35.14,0,0,1-17.19,13.46c-8-9.94-27.68-32.23-33.53-37.38-7.38-6.52-15.64-20.41-21.72-37.14,0,0-6.49-15.38-9.54-20.18s-26.95-24.78-36.5-40.86q-1.32-2.21-2.76-4.52c-9.53-15.27-22.44-32.83-22.44-32.83s-11.46-15.15-3.59-28.9a3.24,3.24,0,0,1,.21-.35c.39-.61.79-1.22,1.2-1.81l.19-.26c5.73-8.22,13.56-14.69,25.43-16,0,0,18.92-1.78,44.77,12.1h0C369.94,234.17,382.75,252.54,363.05,273.58Z"/><path d="M440.17,366.91c.46,1.37.35,2.63-.24,2.83s-1.44-.75-1.9-2.11-.34-2.63.25-2.83S439.72,365.55,440.17,366.91Z"/><path class="cls-4" d="M410.92,260.09c2.93,2,3.95,2.75,3.95,2.75a109.16,109.16,0,0,1,2,13.86,39.82,39.82,0,0,0,1.28,7.41h0c-.07.11-1.18,2.23-7.08,18.64-6.08,16.94,10.65,23,10.65,23l-9.34,5.94a18.83,18.83,0,0,1-5.47,2.38l-.12,0a17.62,17.62,0,0,1-11.57-1,15.29,15.29,0,0,1-6.32-5.18c-4.46-8.09-11.23-23.2-19.3-41.71a109.77,109.77,0,0,0-6.51-12.67c19.7-21,6.89-39.41,6.51-39.94q4,2.15,8.24,4.83c18.57,11.84,28.36,18.36,33.12,21.61Z"/><path class="cls-3" d="M301.35,268.88s12.91,17.56,22.44,32.83c0,0-30.26,31.07-45.46,45.38,0,0-9.56,8.23-14.77,14.31s1.74,0-27.8,55.6a56.46,56.46,0,0,0-2.8,11.33h0c-10.83,3.45-20.19-2.65-20.57-2.91,1.14-3,2.29-6.35,3.4-10.15,6.08-20.85,8.25-45.76,20.85-62.41s16.94-24,20.41-31,12.6-31.71,23-45.61c6-8,9.76-23.69,17.69-36.28C289.89,253.73,301.35,268.88,301.35,268.88Z"/><path class="cls-1" d="M267.47,453.06a2.61,2.61,0,1,1,0,5.21H247.92s-11.73-1.74-20.85,0-25.63,4.34-25.19-5.21c.35-7.82,5.36-14.18,10.5-27.64.38.26,9.74,6.36,20.57,2.91h0c-.79,6.06-.28,12.76,5,15.17,9.48,4.34,23.26,8.69,25.69,9.44a2.53,2.53,0,0,0,.77.12Z"/><path class="cls-5" d="M459.32,356.1s5.79,1.67,4.54-4.08a8.17,8.17,0,0,0-1-1.62,8.06,8.06,0,0,0-6.74-3.31s-3.16.6-.31,3.33"/><path class="cls-5" d="M452.35,343.79s-2.62-4.67-7.32-3.79"/><path class="cls-5" d="M445.51,386.13s5.38-8.92,6.71-10.83c2.63-3.77.76-6.74,1.33-11.19s3.53-7.29,5.77-8"/><path class="cls-5" d="M461.46,336c-1.43-5.22,4.64-2.57,12.11,1.82s10.74,15,10.74,15"/><path class="cls-5" d="M482.05,376.81s1.4,6.13,8.94,5.52,9.18-9.9,6.77-14.27c-1.72-3.12-9.24-6.46-12.79,1.76"/><path class="cls-5" d="M484.31,352.86a27.7,27.7,0,0,1,.56,16.93,19.7,19.7,0,0,1-1.76,4.39q-.78,1.17-1.59,2.22c-9.34,12.18-20.85,12.44-35.22,10.89l-.79-1.16-1.05-1.53s-6.52-6.12-8.49-11.17c-1.55-4-.58-5.13-3.41-6.85l-4.46-4,4.26-2.9L429.45,350c-.66-.66-4.7-6.47,6-8.92,0,0,6.07-2.41,5.67-3.71,0,0-6.76-7-13.51-7.94a6.37,6.37,0,0,0-2.42.16l-18.33,4.51"/><path class="cls-5" d="M459.37,311.89a73.46,73.46,0,0,0-1.86-8,48.67,48.67,0,0,0-8.82-13.36s-.73-3.61-2-8.91c-.53-2.18-1.14-4.64-1.83-7.26s-1.51-5.54-2.38-8.41c-.49-1.63-1-3.28-1.54-4.9a88.88,88.88,0,0,0-6.37-15.28,18.29,18.29,0,0,0-4-4.81l-5-4.27a4.54,4.54,0,0,0-6.46.55l-1.28,1.54a4.52,4.52,0,0,0-.61,4.84l.61,1.3"/><path class="cls-5" d="M459.47,312.52l-.09-.58"/><path class="cls-5" d="M463,350.31s3.51-3.84,1.43-7.67a46,46,0,0,1-2.93-6.57.08.08,0,0,1,0,0A26.81,26.81,0,0,1,459.57,326a43.39,43.39,0,0,0-.1-13.42"/><path class="cls-5" d="M298,239.63a17.7,17.7,0,0,1,1.2-1.81"/><path class="cls-5" d="M346.09,253.67s8.31,5.53,17,19.91a109.77,109.77,0,0,1,6.51,12.67c8.07,18.51,14.84,33.62,19.3,41.71a37.93,37.93,0,0,0,3.28,5.19c3.91,4.79,5.21,8,5.65,18.56,0,0,1.3,6,9.55,18.06s21.29,37.68,27.8,46.36c2.79,3.73,6.25,8.09,9.89,12.2,4.84,5.48,10,10.52,14.3,13,7.52,4.34,21.79,13,26.6,14.33,3.18.87,7.78,1.73,10.53,2.21a2.83,2.83,0,0,1-.49,5.61H482.05s-24.58-.87-33.36,0a92.65,92.65,0,0,1-11.69.34,6,6,0,0,1-5.77-5.94V446.54c0-.36-1.29-2.13-3.39-4.75-8-9.94-27.68-32.23-33.53-37.38-7.38-6.52-15.64-20.41-21.72-37.14,0,0-6.49-15.38-9.54-20.18s-26.95-24.78-36.5-40.86q-1.32-2.21-2.76-4.52c-9.53-15.27-22.44-32.83-22.44-32.83s-11.46-15.15-3.59-28.9"/><path class="cls-5" d="M410.92,260.09c2.93,2,3.95,2.75,3.95,2.75"/><path class="cls-5" d="M369.56,233.64q4,2.15,8.24,4.83c18.57,11.84,28.36,18.36,33.12,21.61"/><path class="cls-5" d="M323.79,301.71s-30.26,31.07-45.46,45.38c0,0-9.56,8.23-14.77,14.31s1.74,0-27.8,55.6a56.46,56.46,0,0,0-2.8,11.33c-.79,6.06-.28,12.76,5,15.17,9.48,4.34,23.26,8.69,25.69,9.44a2.53,2.53,0,0,0,.77.12h3.08a2.61,2.61,0,1,1,0,5.21H247.92s-11.73-1.74-20.85,0-25.63,4.34-25.19-5.21c.35-7.82,5.36-14.18,10.5-27.64,1.14-3,2.29-6.35,3.4-10.15,6.08-20.85,8.25-45.76,20.85-62.41s16.94-24,20.41-31,12.6-31.71,23-45.61c6-8,9.76-23.69,17.69-36.28a3.24,3.24,0,0,1,.21-.35c.39-.61.79-1.22,1.2-1.81l.19-.26c5.73-8.22,13.56-14.69,25.43-16,0,0,18.92-1.78,44.77,12.1"/><path class="cls-5" d="M369.56,233.63h0c.38.53,13.19,18.9-6.51,39.94"/><path class="cls-5" d="M445,428.33a35.14,35.14,0,0,1-17.19,13.46"/><path class="cls-5" d="M212.37,425.42h0c.38.26,9.74,6.36,20.57,2.91"/><path class="cls-5" d="M410.93,260.11v0h0a40.2,40.2,0,0,1-2-10.24,11.09,11.09,0,0,1,1-5l.3-.63a11.25,11.25,0,0,1,5.72-5.61l3.22-1.4"/><path class="cls-5" d="M418.11,284.12c1.46,5.5,3.57,9.52,3.57,13.86v6.08"/><path class="cls-5" d="M414,259.1s.37,1.4.85,3.74a109.16,109.16,0,0,1,2,13.86,39.82,39.82,0,0,0,1.28,7.41"/><path class="cls-5" d="M451.43,311.88a11.88,11.88,0,0,1-9.56,7.07l-2.77.32"/><path class="cls-5" d="M459.36,311.88h0a.11.11,0,0,0,0,.05,2.66,2.66,0,0,1,.09.58v0c.14,2.47-2,11-37.79,13.23l-9.34,5.94a18.83,18.83,0,0,1-5.47,2.38l-.12,0a17.62,17.62,0,0,1-11.57-1,15.29,15.29,0,0,1-6.32-5.18"/><path class="cls-5" d="M421.68,325.78S405,319.7,411,302.76c5.9-16.41,7-18.53,7.08-18.64h0"/><path class="cls-5" d="M441,261l2.9,1.28a13.63,13.63,0,0,0,4,3.62s.37,3.1-5.33,0l10.71,11.34a2.44,2.44,0,0,1,.28,3,1.69,1.69,0,0,1-1.36.67,1.73,1.73,0,0,1-1.21-.5"/><path class="cls-5" d="M444.86,274.31h0l4.39,4.44,1.65,1.68,2.56,2.59a1.77,1.77,0,0,1-1.26,3,1.74,1.74,0,0,1-1.2-.47l-4.31-4"/></svg>