<svg id="Layer_1" data-name="Layer 1" xmlns="http://www.w3.org/2000/svg" viewBox="0 0 700 700"><defs><style>.cls-1{fill:#120c0c;}.cls-2{fill:#feae63;}.cls-3{fill:#c4e7f9;}.cls-4{fill:#99abcc;}.cls-5,.cls-6{fill:none;stroke:#000;stroke-linecap:round;stroke-linejoin:round;}.cls-5{stroke-width:2.05px;}.cls-6{stroke-width:2.2px;}</style></defs><title>Yoga_poses_2020_color</title><path class="cls-1" d="M525.76,274.84l-.89,1s-9.55-2.86-11.63-3.63c-4.12-1.54-6.43.9-10.68,1.44s-7.6-1.52-8.81-3.43c0,0,.17-5.76-4.86-3.22a8,8,0,0,0-1.27,1.32l-.11-.09s-4.48-2.43-7.44.51c-1.53,1.52-3.23,3.08-4.27,4a3.11,3.11,0,0,1-2.87.77,2.1,2.1,0,0,1-1-.56c-1.56-1.54-.18-5.67,1.5-11.57,2.27-8,11.33-13.55,11.33-13.55a26.61,26.61,0,0,1,15.56-4.57,19.26,19.26,0,0,1,4.48.59c.85.3,1.66.61,2.44,1C520.76,250.56,523.76,261.16,525.76,274.84Z"/><path class="cls-2" d="M487.62,268.34a8,8,0,0,1,1.27-1.32c5-2.54,4.86,3.22,4.86,3.22,1.21,1.91,4.55,4,8.81,3.43s6.56-3,10.68-1.44c2.08.77,11.63,3.63,11.63,3.63l-1.17,1.33s-4.1,7.5-8.31,10.54c-3.31,2.39-4.61,1.76-5.53,4.79l-2.64,5.09-3.7-3.25-8.27,5c-.45.78-4.87,5.9-9.7-3.43,0,0-3.69-5-4.79-4.37a54.57,54.57,0,0,1-21.2,3.56l-.5.23-.49-1.08a14,14,0,0,0,1-8c-.86-4.09-11.12-9.84-19.74-9a40.17,40.17,0,0,0-4.18.58l-.12-.58c-2.94-8,0-11.81,0-11.81a132.81,132.81,0,0,1,20.13,6.86c7.26,2.83,12.41,3.05,16.24.66l.05-.05a2.1,2.1,0,0,0,1,.56,3.11,3.11,0,0,0,2.87-.77c1-.94,2.74-2.5,4.27-4,3-2.94,7.44-.51,7.44-.51Zm21.91,18.87c1.15-.75,1.82-1.77,1.5-2.27s-1.52-.3-2.68.45-1.83,1.76-1.5,2.26S508.37,288,509.53,287.21Z"/><path class="cls-2" d="M437.39,308.79s-12.79,2.62-16.27-12.43c-1.21-5.18-.35-15.52,14.52-18.45a40.17,40.17,0,0,1,4.18-.58c8.62-.87,18.88,4.88,19.74,9a14,14,0,0,1-1,8l.49,1.08,4.27,9.33a49,49,0,0,1,.77,28.11c-.85,3.78,1.88,17.11,3.39,23.35s.57,8.14,4.54,16.47,4.55,23.08,5.3,30.65,3.41,18.54,4.54,24.41c.69,3.53,1.44,6.59,1.93,8.46a6.44,6.44,0,0,0,2,3.22c2.57,2.25,7.76,6.78,9.31,8.18,2.08,1.89,1.89,2.46,3.4,5.68,1.37,2.9,9.65,10.56,11.27,12a1.39,1.39,0,0,0,.64.32l1.39.28a1.35,1.35,0,0,1-.27,2.67h-1.48c-3.49,0-13.27-9.63-13.88-10.23a54.06,54.06,0,0,0,7.15,9.5,1.1,1.1,0,0,1,.3.77,1.15,1.15,0,0,1-.64,1,1.21,1.21,0,0,1-1,0c-5.87-2.88-8.89-8.22-10.31-11.72h-3.5a63.38,63.38,0,0,0,2,10.51,1.15,1.15,0,0,1-1.11,1.45h-.32a1.15,1.15,0,0,1-1.08-.77l-3.87-11a8.07,8.07,0,0,0-1.84-3l-2.68-2.71a8.35,8.35,0,0,1-1.08-1.37l-3.48-5.57a8,8,0,0,1-1.22-4.24,7.82,7.82,0,0,0-.16-1.6c-1.13-5.21-6.41-18.83-9.62-25.24-3.41-6.81-5.87-23.84-6.06-26.11s-4-11.35-4-11.35a124.84,124.84,0,0,0-3-12.68c-2.46-8.89-11.16-35.38-10.78-45.41a19,19,0,0,0-1-6.9A15,15,0,0,0,437.39,308.79Z"/><path d="M511,284.94c.32.5-.35,1.52-1.5,2.27s-2.36,1-2.68.44.35-1.51,1.5-2.26S510.71,284.44,511,284.94Z"/><path class="cls-1" d="M510.47,234.64c2.37,6.83-3,9.6-3,9.6l-.25.6c-.78-.34-1.59-.65-2.44-1a19.26,19.26,0,0,0-4.48-.59v-.1c-8.47-1.32-7.17-9.09-4.69-11.43C499.1,228.5,508.11,227.8,510.47,234.64Z"/><path class="cls-2" d="M483.79,458.12a7.81,7.81,0,0,1-.8,4.51,2.58,2.58,0,0,1-4.72-2.07c.05-.12.1-.24.14-.37,1.12-2.93.86-7.74.86-7.74l2.68,2.71A8.07,8.07,0,0,1,483.79,458.12Z"/><path class="cls-2" d="M471.41,450a2.51,2.51,0,0,1-.44,5H458.58s-21.88-.77-29.69,0a83,83,0,0,1-10.41.3,5.29,5.29,0,0,1-5.13-5.29V439.88c0-.33-1.14-1.9-3-4.23a31.29,31.29,0,0,0,15.3-12c4.32,4.87,8.9,9.35,12.73,11.56,6.7,3.87,19.4,11.6,23.68,12.76C464.87,448.77,469,449.53,471.41,450Z"/><path class="cls-3" d="M438.91,312l-.37.09a37.91,37.91,0,0,1-14.75,4.16c-8,.38-11.55-4.35-20.44-4.35s-15.7-.38-19.3-2.08-14.19-12.11-17.4-15.33a44.7,44.7,0,0,0-7.15-6.06l.87-.25c8.37-16.79,3.68-40.52,3.68-40.52l5.43,1.42c11.55,3,31,9.46,36.71,10.41s23.46,4.16,29.33,6c0,0-2.94,3.79,0,11.81l.12.58c-14.87,2.93-15.73,13.27-14.52,18.45,3.48,15.05,16.27,12.43,16.27,12.43A15,15,0,0,1,438.91,312Z"/><path class="cls-4" d="M351.72,284.41a94.34,94.34,0,0,1,6.73,12.79c9.27,21.26,16.62,37.48,20.1,41.75s4.64,7.11,5,16.51c0,0,1.16,5.35,8.5,16.08s18.95,33.54,24.75,41.27c2.49,3.32,5.57,7.21,8.8,10.87a31.29,31.29,0,0,1-15.3,12c-7.1-8.85-24.64-28.69-29.85-33.28-6.57-5.8-13.92-18.16-19.33-33.05,0,0-5.78-13.7-8.5-18s-24-22.06-32.49-36.37c-.78-1.31-1.6-2.66-2.45-4-8.49-13.59-20-29.23-20-29.23s-10.46-13.83-2.91-26.2c.33-.51.67-1,1-1.52l.12-.16c5.1-7.32,12.07-13.07,22.64-14.27,0,0,13.61-.55,22.5,1.91,7.43,2,14.2,3.85,22.95,6.15,0,0,4.69,23.73-3.68,40.52l-.87.25a32.52,32.52,0,0,0-7.77-4Z"/><path class="cls-4" d="M297.73,281.73s11.49,15.64,20,29.23c0,0-26.94,27.65-40.47,40.39a155.87,155.87,0,0,0-13.15,12.74c-4.64,5.41,1.55,0-24.74,49.5a50.28,50.28,0,0,0-2.5,10.08c-9.85,3.13-18.33-2.59-18.33-2.59,1-2.67,2-5.66,3-9,5.41-18.56,7.35-40.73,18.56-55.55s15.08-21.4,18.17-27.59,11.22-28.22,20.5-40.6c5.4-7.2,8.78-21.48,16-32.77C287.27,267.9,297.73,281.73,297.73,281.73Z"/><path class="cls-2" d="M267.57,445.68a2.32,2.32,0,0,1,0,4.64h-17.4s-10.44-1.55-18.56,0-22.81,3.87-22.43-4.64c.32-7,4.78-12.62,9.34-24.6,0,0,8.48,5.72,18.33,2.59-.7,5.4-.24,11.36,4.43,13.5a224.17,224.17,0,0,0,22.87,8.41,2.24,2.24,0,0,0,.68.1Z"/><path class="cls-5" d="M337.56,268.2s6.81,4.53,14.16,16.21a94.34,94.34,0,0,1,6.73,12.79c9.27,21.26,16.62,37.48,20.1,41.75s4.64,7.11,5,16.51c0,0,1.16,5.35,8.5,16.08s18.95,33.54,24.75,41.27c2.49,3.32,5.57,7.21,8.8,10.87,4.32,4.87,8.9,9.35,12.73,11.56,6.7,3.87,19.4,11.6,23.68,12.76,2.83.77,6.93,1.53,9.37,2a2.51,2.51,0,0,1-.44,5H458.58s-21.88-.77-29.69,0a83,83,0,0,1-10.41.3,5.29,5.29,0,0,1-5.13-5.29V439.88c0-.33-1.14-1.9-3-4.23-7.1-8.85-24.64-28.69-29.85-33.28-6.57-5.8-13.92-18.16-19.33-33.05,0,0-5.78-13.7-8.5-18s-24-22.06-32.49-36.37c-.78-1.31-1.6-2.66-2.45-4-8.49-13.59-20-29.23-20-29.23s-10.46-13.83-2.91-26.2a17.54,17.54,0,0,1,1-1.52"/><path class="cls-6" d="M317.71,311s-26.94,27.65-40.47,40.39a155.87,155.87,0,0,0-13.15,12.74c-4.64,5.41,1.55,0-24.74,49.5a50.28,50.28,0,0,0-2.5,10.08c-.7,5.4-.24,11.36,4.43,13.5a224.17,224.17,0,0,0,22.87,8.41,2.24,2.24,0,0,0,.68.1h2.74a2.32,2.32,0,0,1,0,4.64h-17.4s-10.44-1.55-18.56,0-22.81,3.87-22.43-4.64c.32-7,4.78-12.62,9.34-24.6,1-2.67,2-5.66,3-9,5.41-18.56,7.35-40.73,18.56-55.55s15.08-21.4,18.17-27.59,11.22-28.22,20.5-40.6c5.4-7.2,8.78-21.48,16-32.77.33-.51.67-1,1-1.52l.12-.16c5.1-7.32,12.07-13.07,22.64-14.27,0,0,13.61-.55,22.5,1.91,7.43,2,14.2,3.85,22.95,6.15l5.43,1.42c11.55,3,31,9.46,36.71,10.41s23.46,4.16,29.33,6a132.81,132.81,0,0,1,20.13,6.86c7.26,2.83,12.41,3.05,16.24.66"/><path class="cls-5" d="M438.54,312.07a37.91,37.91,0,0,1-14.75,4.16c-8,.38-11.55-4.35-20.44-4.35s-15.7-.38-19.3-2.08-14.19-12.11-17.4-15.33a44.7,44.7,0,0,0-7.15-6.06,32.52,32.52,0,0,0-7.77-4"/><path class="cls-5" d="M425.64,423.67h0a31.29,31.29,0,0,1-15.3,12"/><path class="cls-5" d="M218.52,421.08s8.48,5.72,18.33,2.59"/><path class="cls-6" d="M493.75,270.24s.17-5.76-4.86-3.22a8,8,0,0,0-1.27,1.32,7.67,7.67,0,0,0-1.44,7s1.31,2.79,3.15-.5"/><path class="cls-6" d="M484,279.64s-3.7,3.55-1.76,7.69"/><path class="cls-6" d="M524.87,275.86s-9.55-2.86-11.63-3.63c-4.12-1.54-6.43.9-10.68,1.44s-7.6-1.52-8.81-3.43"/><path class="cls-6" d="M484.77,247.87s-9.06,5.56-11.33,13.55c-1.68,5.9-3.06,10-1.5,11.57a2.1,2.1,0,0,0,1,.56,3.11,3.11,0,0,0,2.87-.77c1-.94,2.74-2.5,4.27-4,3-2.94,7.44-.51,7.44-.51"/><path class="cls-6" d="M507.5,244.24s5.34-2.77,3-9.6-11.37-6.14-14.83-2.87c-2.48,2.34-3.78,10.11,4.69,11.43"/><path class="cls-6" d="M484.77,247.87a26.61,26.61,0,0,1,15.56-4.57,19.26,19.26,0,0,1,4.48.59c.85.3,1.66.61,2.44,1,13.51,5.72,16.51,16.32,18.51,30l-.89,1-1.17,1.33s-4.1,7.5-8.31,10.54c-3.31,2.39-4.61,1.76-5.53,4.79l-2.64,5.09-3.7-3.25-8.27,5c-.45.78-4.87,5.9-9.7-3.43,0,0-3.69-5-4.79-4.37"/><path class="cls-5" d="M433.63,304.69a13.37,13.37,0,0,1,3.76,4.1,15,15,0,0,1,1.52,3.19,19,19,0,0,1,1,6.9c-.38,10,8.32,36.52,10.78,45.41a124.84,124.84,0,0,1,3,12.68s3.79,9.08,4,11.35,2.65,19.3,6.06,26.11c3.21,6.41,8.49,20,9.62,25.24a7.82,7.82,0,0,1,.16,1.6,8,8,0,0,0,1.22,4.24l3.48,5.57a8.35,8.35,0,0,0,1.08,1.37l2.68,2.71a8.07,8.07,0,0,1,1.84,3l3.87,11a1.15,1.15,0,0,0,1.08.77h.32a1.15,1.15,0,0,0,1.11-1.45,63.38,63.38,0,0,1-2-10.51c0-.45-.05-.88-.05-1.29"/><path class="cls-5" d="M496.18,458.3a13.16,13.16,0,0,1-1.25-3"/><path class="cls-5" d="M490.58,454.54a22.38,22.38,0,0,0,1.09,3.37c1.42,3.5,4.44,8.84,10.31,11.72a1.21,1.21,0,0,0,1,0,1.15,1.15,0,0,0,.64-1,1.1,1.1,0,0,0-.3-.77,54.06,54.06,0,0,1-7.15-9.5"/><path class="cls-5" d="M496.16,458.28l0,0h0c.61.6,10.39,10.23,13.88,10.23h1.48a1.35,1.35,0,0,0,.27-2.67l-1.39-.28a1.39,1.39,0,0,1-.64-.32c-1.62-1.49-9.9-9.15-11.27-12-1.51-3.22-1.32-3.79-3.4-5.68-1.55-1.4-6.74-5.93-9.31-8.18a6.44,6.44,0,0,1-2-3.22c-.49-1.87-1.24-4.93-1.93-8.46-1.13-5.87-3.78-16.84-4.54-24.41S476,380.94,472,372.62s-3-10.22-4.54-16.47-4.24-19.57-3.39-23.35a49,49,0,0,0-.77-28.11l-4.27-9.33-.49-1.08-.35-.75"/><path class="cls-6" d="M480.76,291.57a54.57,54.57,0,0,1-21.2,3.56"/><path class="cls-5" d="M437.39,308.79s-12.79,2.62-16.27-12.43c-1.21-5.18-.35-15.52,14.52-18.45a40.17,40.17,0,0,1,4.18-.58"/><path class="cls-5" d="M458.57,294.28a14,14,0,0,0,1-8c-.86-4.09-11.12-9.84-19.74-9"/><path class="cls-5" d="M364.05,247.64s4.69,23.73-3.68,40.52"/><line class="cls-5" x1="488.17" y1="457.91" x2="491.67" y2="457.91"/><path class="cls-5" d="M479.27,452.45s.26,4.81-.86,7.74c0,.13-.09.25-.14.37a2.58,2.58,0,0,0,4.72,2.07,7.81,7.81,0,0,0,.8-4.51"/><path class="cls-5" d="M435.52,265.52s-2.94,3.79,0,11.81"/></svg>