<svg id="Layer_1" data-name="Layer 1" xmlns="http://www.w3.org/2000/svg" viewBox="0 0 700 700"><defs><style>.cls-1{fill:#170607;}.cls-2{fill:#feae63;}.cls-3{fill:#c4e7f9;}.cls-4{fill:#99abcc;}.cls-5{fill:none;stroke:#000;stroke-linecap:round;stroke-linejoin:round;stroke-width:2.3px;}</style></defs><title>Yoga_poses_2020_color</title><path class="cls-1" d="M474.2,410.73c3.17,4.28,2.71,11.89-5.27,13.13-12.2,1.9-15.35-3.92-15.35-3.92l-.31-.34a22.18,22.18,0,0,0,3.93-5.15l0,0C462,405.73,471.93,407.68,474.2,410.73Z"/><path class="cls-1" d="M460.44,399.48a30.29,30.29,0,0,1-2,12.37,20,20,0,0,1-1.23,2.6,22.18,22.18,0,0,1-3.93,5.15,23.49,23.49,0,0,1-7.74,5c-10.48,4.13-22.38,3.56-34.57-1.59l-.45-1.43s8.25-7.47,10.2-9c3.84-3.05,2.85-6.67,4.8-11s5.85-6.37,8.37-6.42c0,0,5.4,3.49,5.89-2.78a9.5,9.5,0,0,0-.52-2l.14-.06s2.82-1.5,3.82-7.4c.41-3,1.3-5.09,2.67-5.93,1.84-1.13,4.56-.06,8.18,3.84C460.37,387.61,460.44,399.48,460.44,399.48Z"/><path class="cls-2" d="M457.5,339.39a46.48,46.48,0,0,1-3,20.85c3.39-14.39-.15-23.22-4.58-28.36h0s2.13-5.82,3.58-7c.66,2,1.27,3.84,1.94,5.53A34.76,34.76,0,0,1,457.5,339.39Z"/><path class="cls-2" d="M263.35,403.1a1.92,1.92,0,0,1-.31-3.81l2.52-.41,6-1a13.69,13.69,0,0,0,1.66-.37,15.1,15.1,0,0,0,2.66-1l1.33-.62a16.31,16.31,0,0,1,3.79-1.23L293.42,393a12.62,12.62,0,0,0,3.52-1c6-2.8,26.87-12.45,39.74-18.25,3.05-1.38,5.66-2.54,7.51-3.34a47.68,47.68,0,0,1,18.5-3.8,23.84,23.84,0,0,0,5.88-.71c2.07-.51,4.4-1.07,6.89-1.64,6-1.36,12.83-2.79,19.2-3.91A128.26,128.26,0,0,1,411,358.2s4.45-15.75,11.22-24.53,14.88-9.67,20.09-7.5a21,21,0,0,1,7.63,5.71c4.43,5.14,8,14,4.58,28.36,0,0,0,0,0,0-.29.76-.58,1.52-.89,2.27-1.33,3.22-6,9.17-6,9.17a30.88,30.88,0,0,1-4,3.59c-10.76,8.12-24.55,7.42-31.48,6.46a46.2,46.2,0,0,0-7-.21c-7.14.18-16.9,1.15-23.9,2.09-3.36.45-6.08.9-7.57,1.25-5.87,1.39-9.78,2.52-18.79,6.64a49.72,49.72,0,0,1-7.48,2.61,142.6,142.6,0,0,1-20.21,3.39c-4.78.56-26.07,6.17-29.11,7.69-1.14.56-3.59,2.14-6.21,3.89-3.23,2.16-6.73,4.58-8.32,5.7a4.38,4.38,0,0,1-2,.74l-7.89.89a3.83,3.83,0,0,1-1.17,0l-7.41-1.21a1.56,1.56,0,0,1,.36-3.1l-3.54-.42a1.57,1.57,0,0,1-1.38-1.56v-.32a1.56,1.56,0,0,1,1.71-1.55l-1.65-.16a2.51,2.51,0,0,1-1.36-4.42,2.56,2.56,0,0,1,1.61-.58Z"/><path class="cls-3" d="M390.61,333.79l-.16-.12c-3.26-5.22-10.1-6.74-17.27-7.42a18.89,18.89,0,0,0-5.16.24l0-.24s3.44-29.74-11.27-50.51c16.29-1.5,38.92-.35,60.37,9.63,27.13,12.62,32.64,28.18,36.43,39.54-1.45,1.14-3.58,7-3.58,7h0a21,21,0,0,0-7.63-5.71c-5.21-2.17-13.33-1.26-20.09,7.5S411,358.2,411,358.2a128.26,128.26,0,0,0-16.31,2.1h0a30.24,30.24,0,0,1-6.6-14.14A15.75,15.75,0,0,1,390.61,333.79Z"/><path class="cls-2" d="M439.25,390.36a9.5,9.5,0,0,1,.52,2c-.49,6.27-5.89,2.78-5.89,2.78-2.52.05-6.42,2.05-8.37,6.42s-1,8-4.8,11c-1.95,1.54-10.2,9-10.2,9l-.59-1.89s-4.8-8.26-5.26-14c-.36-4.54,1-5.42-1.38-8L400,392.13l5.25-1.65v-8.92a46.2,46.2,0,0,1,7,.21c6.93,1,20.72,1.66,31.48-6.46l2.23,1.66c-1.37.84-2.26,2.9-2.67,5.93-1,5.9-3.82,7.4-3.82,7.4ZM409.84,403.1c.67,0,1.17-1.28,1.12-2.82s-.62-2.76-1.29-2.74-1.16,1.28-1.12,2.82S409.18,403.12,409.84,403.1Z"/><path d="M411,400.28c.05,1.54-.45,2.8-1.12,2.82s-1.24-1.21-1.29-2.74.46-2.8,1.12-2.82S410.92,398.75,411,400.28Z"/><path class="cls-4" d="M381.3,383.65c.22.68,8,25.83-2.58,35.48-10.75,9.77-15.64,6.51-35.51,7.49s-34.53-2-47.57-1.63c-1.24,0-2.48.08-3.71.15h0a46,46,0,0,1,0-16,101.06,101.06,0,0,0,14.08-3c9.71-3,12.07-6,25.35-6.4s18-.75,18-.75l-1.92-4.81a49.72,49.72,0,0,0,7.48-2.61c9-4.12,12.92-5.25,18.79-6.64C375.22,384.55,377.94,384.1,381.3,383.65Z"/><path class="cls-4" d="M360.39,329.45c5.32,9,11.59,21.49,15.07,34.76-2.49.57-4.82,1.13-6.89,1.64a23.84,23.84,0,0,1-5.88.71,47.68,47.68,0,0,0-18.5,3.8c-1.85.8-4.46,2-7.51,3.34,0,0-5.68-10.77-14.43-23.77-8.56-12.74-13-28.43-13-28.43-4.87-30,16.65-38.57,29-42.43a93.74,93.74,0,0,1,18.41-3.33C371.41,296.51,368,326.25,368,326.25l0,.24a21.15,21.15,0,0,0-7.55,2.91Z"/><path class="cls-2" d="M291.93,425.13h0c-11.77.6-23.23,2.45-31.32,1.68s-17.92-2.39-25.76-.44a19.13,19.13,0,0,1-4.64.62h-4.48a2.37,2.37,0,0,1-2.11-1.27l-.34-.65a2.39,2.39,0,0,1,1.26-3.35,2.45,2.45,0,0,1,.85-.15h3.06a2.4,2.4,0,0,0,1.77-.79l2.11-2.34a8.8,8.8,0,0,1,4.25-2.6l7.85-2.08a11.66,11.66,0,0,0,2.14-.78c2.67-1.26,9.51-4.68,11.88-7.84a2.52,2.52,0,0,0,2.22,3l1.65.16a1.56,1.56,0,0,0-1.71,1.55v.32a1.57,1.57,0,0,0,1.38,1.56l3.54.42a1.56,1.56,0,0,0-.36,3.1l7.41,1.21a3.83,3.83,0,0,0,1.17,0l7.89-.89a4.38,4.38,0,0,0,2-.74c1.59-1.12,5.09-3.54,8.32-5.7A46,46,0,0,0,291.93,425.13Z"/><path class="cls-5" d="M433.88,395.11s5.4,3.49,5.89-2.78a9.5,9.5,0,0,0-.52-2,8.6,8.6,0,0,0-5.87-5.45s-3.43-.36-1.35,3.31"/><path class="cls-5" d="M410.51,421.58s8.25-7.47,10.2-9c3.84-3.05,2.85-6.67,4.8-11s5.85-6.37,8.37-6.42"/><path class="cls-5" d="M453.58,419.94s3.15,5.82,15.35,3.92c8-1.24,8.44-8.85,5.27-13.13-2.27-3.05-12.22-5-17,3.74"/><path class="cls-5" d="M439.39,390.3s2.82-1.5,3.82-7.4c.41-3,1.3-5.09,2.67-5.93,1.84-1.13,4.56-.06,8.18,3.84,6.31,6.8,6.38,18.67,6.38,18.67"/><path class="cls-5" d="M460.44,399.48a30.29,30.29,0,0,1-2,12.37,20,20,0,0,1-1.23,2.6,22.18,22.18,0,0,1-3.93,5.15,23.49,23.49,0,0,1-7.74,5c-10.48,4.13-22.38,3.56-34.57-1.59l-.45-1.43-.59-1.89s-4.8-8.26-5.26-14c-.36-4.54,1-5.42-1.38-8L400,392.13l5.25-1.65v-8.92"/><path class="cls-5" d="M351,315.2a153.26,153.26,0,0,1,9.36,14.25c5.32,9,11.59,21.49,15.07,34.76"/><path class="cls-5" d="M360.47,329.4a21.15,21.15,0,0,1,7.55-2.91,18.89,18.89,0,0,1,5.16-.24c7.17.68,14,2.2,17.27,7.42"/><path class="cls-5" d="M368,326.25s3.44-29.74-11.27-50.51"/><path class="cls-5" d="M265.35,403.1h6.11a10.68,10.68,0,0,0,3.32-.53l4.47-1.47"/><path class="cls-5" d="M420.42,347.45s1,10.43-9.45,10.75a128.26,128.26,0,0,0-16.31,2.1c-6.37,1.12-13.25,2.55-19.2,3.91-2.49.57-4.82,1.13-6.89,1.64a23.84,23.84,0,0,1-5.88.71,47.68,47.68,0,0,0-18.5,3.8c-1.85.8-4.46,2-7.51,3.34C323.81,379.5,303,389.15,296.94,392a12.62,12.62,0,0,1-3.52,1L281,394.72a16.31,16.31,0,0,0-3.79,1.23l-1.33.62a15.1,15.1,0,0,1-2.66,1,13.69,13.69,0,0,1-1.66.37l-6,1-2.52.41a1.92,1.92,0,0,0,.31,3.81"/><path class="cls-5" d="M262.32,408.26l-1.65-.16a2.51,2.51,0,0,1-1.36-4.42,2.56,2.56,0,0,1,1.61-.58h4.43"/><path class="cls-5" d="M279.25,407.83l-2.56.69a17.49,17.49,0,0,1-6.28.52l-7-.68"/><path class="cls-5" d="M265.53,412.11l-3.54-.42a1.57,1.57,0,0,1-1.38-1.56v-.32a1.56,1.56,0,0,1,1.71-1.55l1.09.1"/><path class="cls-5" d="M279.25,411.31l-6.48,1.29a7.21,7.21,0,0,1-2.27.09l-3.86-.45"/><path class="cls-5" d="M454.49,360.24a46.48,46.48,0,0,0,3-20.85,34.76,34.76,0,0,0-2.06-8.95c-.67-1.69-1.28-3.55-1.94-5.53-3.79-11.36-9.3-26.92-36.43-39.54-21.45-10-44.08-11.13-60.37-9.63a93.74,93.74,0,0,0-18.41,3.33c-12.38,3.86-33.9,12.39-29,42.43,0,0,4.43,15.69,13,28.43,8.75,13,14.43,23.77,14.43,23.77"/><path class="cls-5" d="M266.64,412.24l-1-.13h-.08a1.56,1.56,0,0,0-.36,3.1l7.41,1.21a3.83,3.83,0,0,0,1.17,0l7.89-.89a4.38,4.38,0,0,0,2-.74c1.59-1.12,5.09-3.54,8.32-5.7,2.62-1.75,5.07-3.33,6.21-3.89,3-1.52,24.33-7.13,29.11-7.69a142.6,142.6,0,0,0,20.21-3.39,49.72,49.72,0,0,0,7.48-2.61c9-4.12,12.92-5.25,18.79-6.64,1.49-.35,4.21-.8,7.57-1.25,7-.94,16.76-1.91,23.9-2.09a46.2,46.2,0,0,1,7,.21c6.93,1,20.72,1.66,31.48-6.46a30.88,30.88,0,0,0,4-3.59s4.63-6,6-9.17c.31-.75.6-1.51.89-2.27"/><path class="cls-5" d="M411,358.2s4.45-15.75,11.22-24.53,14.88-9.67,20.09-7.5a21,21,0,0,1,7.63,5.71c4.43,5.14,8,14,4.58,28.36,0,0,0,0,0,0s-.07.27-.1.41"/><path class="cls-5" d="M449.92,331.87s2.13-5.82,3.58-7"/><path class="cls-5" d="M395.66,329.21a15.74,15.74,0,0,0-7.6,16.94,30.24,30.24,0,0,0,6.6,14.14"/><path class="cls-5" d="M381.3,383.64h0c.22.68,8,25.83-2.58,35.48-10.75,9.77-15.64,6.51-35.51,7.49s-34.53-2-47.57-1.63c-1.24,0-2.48.08-3.71.15-11.77.6-23.23,2.45-31.32,1.68s-17.92-2.39-25.76-.44a19.13,19.13,0,0,1-4.64.62h-4.48a2.37,2.37,0,0,1-2.11-1.27l-.34-.65a2.39,2.39,0,0,1,1.26-3.35,2.45,2.45,0,0,1,.85-.15h3.06a2.4,2.4,0,0,0,1.77-.79l2.11-2.34a8.8,8.8,0,0,1,4.25-2.6l7.85-2.08a11.66,11.66,0,0,0,2.14-.78c2.67-1.26,9.51-4.68,11.88-7.84"/><path class="cls-5" d="M265.56,398.88a6.16,6.16,0,0,1,7.64-1.36h0"/><path class="cls-5" d="M347.46,394.15l1.92,4.81s-4.74.37-18,.75-15.64,3.39-25.35,6.4a101.06,101.06,0,0,1-14.08,3,46,46,0,0,0,0,16"/></svg>