<svg id="Layer_1" data-name="Layer 1" xmlns="http://www.w3.org/2000/svg" viewBox="0 0 700 700"><defs><style>.cls-1{fill:#392328;}.cls-2{fill:#feae63;}.cls-3{fill:#231f20;}.cls-4{fill:#c4e7f9;}.cls-5{fill:#99abcc;}.cls-6{fill:none;stroke:#000;stroke-linecap:round;stroke-linejoin:round;stroke-width:2.3px;}</style></defs><title>Yoga_poses_2020_color</title><path class="cls-1" d="M452.67,275.55c7.13-2.53,12.43,5.28,12,10.25-.3,3.55-6,9.22-12.64,3.17-.74-.72-1.54-1.43-2.4-2.14a17.84,17.84,0,0,0-3.14-2.09l.26-.5S445.54,278.07,452.67,275.55Z"/><path class="cls-1" d="M452.05,289c10.62,10.24,9.74,21.46,6.87,35.21l-1.23.68c-.34-.05-7.55-1.13-11.94-6.59a38.81,38.81,0,0,0-10.08-8.69l-.1,0c-.21-1-1.08-1.93-3.4-2.1l-.23,0h0c-4.65.32-6.29-.73-8.34-1.94a16.48,16.48,0,0,0-6.27-2c-.72-.1-1.39-.22-2-.36a2.76,2.76,0,0,1-2-1.7,2.79,2.79,0,0,1,0-2.05,27.33,27.33,0,0,1,6.83-9.32s13.94-11.89,26.33-5.38a17.84,17.84,0,0,1,3.14,2.09C450.51,287.54,451.31,288.25,452.05,289Z"/><path class="cls-2" d="M435.57,309.6l.1,0a38.81,38.81,0,0,1,10.08,8.69c4.39,5.46,11.6,6.54,11.94,6.59l-1.61.88s-6.62,5.81-11.77,7.24c-4,1.13-5.08.06-7,2.66l-4.36,4-2.45-4.44-9.75,1.88c-.7.61-6.82,4-8.16-6.75a4.5,4.5,0,0,0-.3-.73,6.16,6.16,0,0,0-4.41-3.32A54.86,54.86,0,0,1,387.79,319s-7.57-1-10.94.87q.69-1,1.38-2.25h0l.25.15c25.79-8.11,4.44-31.71,3.59-32.64a82.44,82.44,0,0,1,6.9,4.92,55.79,55.79,0,0,1,7.33,7.17c2.14,2.47,7.61,7.06,17,4.23a2.76,2.76,0,0,0,2,1.7c.6.14,1.27.26,2,.36a16.48,16.48,0,0,1,6.27,2c2,1.21,3.69,2.26,8.34,1.94h0l.23,0C434.49,307.67,435.36,308.57,435.57,309.6Zm3.27,20.79c1.38-.31,2.39-1.05,2.25-1.65s-1.36-.83-2.75-.52-2.39,1.06-2.25,1.65S437.46,330.7,438.84,330.39Z"/><path class="cls-3" d="M441.09,328.74c.14.6-.87,1.34-2.25,1.65s-2.62.08-2.75-.52.87-1.33,2.25-1.65S441,328.14,441.09,328.74Z"/><path class="cls-2" d="M284.11,434.19c0,2.47-.18,3.43-1.4,3.43-2.67,0-3-16.5-3-16.5s-.27,11.35-1.62,11.38-2.58.17-2.07-13.77c.37-9.9,1.65-15.43,3.93-19.42a25.5,25.5,0,0,1,5.61-6.54c5.89-5.25,16.6-24.54,27.83-35.92s13.07-12.3,24.75-30.53c5.35-8.35,9.79-14.82,13-19.4,0,0-3.52-7.15-1.28-21.81,2.14-14,16-8.65,17.21-8.16l.08,0a130.68,130.68,0,0,1,14.88,8.19c.85.93,22.2,24.53-3.59,32.64l-.25-.15h0q-.69,1.21-1.38,2.25c-6,8.95-11.37,7.78-15.08,11.39-4.76,4.63-20.06,26.65-27.2,34.47s-26.52,20.74-33.32,27-8.9,10.17-8.9,10.17c-.73,2.4-2.51,10.46-3.24,13.29s-1.36,5.75-1.78,13.81,1.06,10.76-1.15,10.77c-.58,0-1.07-1.47-1.43-3S284.15,434.47,284.11,434.19Z"/><path class="cls-4" d="M367.12,277c-1.18-.49-15.07-5.86-17.21,8.16-2.24,14.66,1.28,21.81,1.28,21.81-3.25,4.58-7.69,11.05-13,19.4-7.6,1.58-12.38-7.41-19.38-12.58s-9.82-6.48-13.15-11.14c-3-4.24-12.55-16.36-18.62-22,17.44-27.52,12.94-36.65,12.73-37.06,4.43,2.88,8.14,5.34,11,6.47,7.73,3,35.35,18.23,45.84,22.37C359.6,273.58,363.23,275.11,367.12,277Z"/><path class="cls-2" d="M326.27,466.58a1.29,1.29,0,0,1,1.24,1.4c-.11,1.34-.6,3.18-2.42,3l-.36.05a5.43,5.43,0,0,0-.75-1l-5-1.25.53-2.87c1.32.2,2.92.4,4.45.5C325,466.53,325.73,466.56,326.27,466.58Z"/><path class="cls-2" d="M324.73,471c.45.75.69,1.72-.82,2a9.09,9.09,0,0,1-4.82-.4H319a1.78,1.78,0,0,0-.58-1.65,13.05,13.05,0,0,0-2.22-1.16l2.81-1,5,1.25A5.43,5.43,0,0,1,324.73,471Z"/><path class="cls-2" d="M316.21,469.86a13.05,13.05,0,0,1,2.22,1.16,1.78,1.78,0,0,1,.58,1.65,4.4,4.4,0,0,1-.19,1,8,8,0,0,1-5.42-.59l0,0,.51.56a.74.74,0,0,1-.38,1.23,8,8,0,0,1-4.16-.39c-6.24,1.41-20.3-1.24-26.78-1.24s-11.5.65-14.15-3.77c0,0-.61-1.29,0-11.65.26-4.42-1.24-11.68-3.25-19.37a90.52,90.52,0,0,0,17.54-.84c1.22,0,1.37-1,1.4-3.43,0,.28.27,2,.64,3.62l-.58.11c2.09,11.34,12.3,18.68,12.3,18.68,4.28,2.71,9.11,6.13,15.87,7.87l4.3,1s1.22.25,2.91.51l-.53,2.87Z"/><path class="cls-5" d="M299.73,243.54c.21.41,4.71,9.54-12.73,37.06-.6-.57-1.17-1.06-1.69-1.48-5.83-4.66-7.21-6.74-7.21-6.74,4.64,10.5,3.92,32.31,3.92,41.36s0,24.37-.28,33.76-4.14,19.06-3.59,28.72,1.62,23,1.62,23l.19.11c-2.28,4-3.56,9.52-3.93,19.42-.51,13.94.64,13.8,2.07,13.77s1.62-11.38,1.62-11.38.32,16.5,3,16.5a90.52,90.52,0,0,1-17.54.84c-2.7-10.33-6.31-21.43-7.73-27.44-2.49-10.5-6.08-21.82-2.49-49.16s-20.71-63-20.71-96.38,19.61-40.6,37.28-35.9c11.11,2.95,20.69,9.06,28.2,13.95Z"/><path class="cls-6" d="M446.77,284.24s-1.23-6.17,5.9-8.69,12.43,5.28,12,10.25c-.3,3.55-6,9.22-12.64,3.17"/><path class="cls-6" d="M418.27,318.27s-4.7,2.58-3.86,7.28"/><path class="cls-6" d="M434.74,312.93a5.38,5.38,0,0,0,.83-3.33c-.21-1-1.08-1.93-3.4-2.1l-.23,0a8.26,8.26,0,0,0-6.6,5.88s-.32,3.16,3.06,1.23"/><path class="cls-6" d="M457.7,324.86h0c-.34-.05-7.55-1.13-11.94-6.59a38.81,38.81,0,0,0-10.08-8.69"/><path class="cls-6" d="M376.85,319.91c3.37-1.89,10.94-.87,10.94-.87a54.86,54.86,0,0,0,20.07,7.23,6.16,6.16,0,0,1,4.41,3.32,4.5,4.5,0,0,1,.3.73c1.34,10.76,7.46,7.36,8.16,6.75l9.75-1.88,2.45,4.44,4.36-4c1.94-2.6,3-1.53,7-2.66,5.15-1.43,11.77-7.24,11.77-7.24l1.61-.88,1.23-.68c2.87-13.75,3.75-25-6.87-35.21-.74-.72-1.54-1.43-2.4-2.14a17.84,17.84,0,0,0-3.14-2.09c-12.39-6.51-26.33,5.38-26.33,5.38a27.33,27.33,0,0,0-6.83,9.32,2.79,2.79,0,0,0,0,2.05,2.76,2.76,0,0,0,2,1.7c.6.14,1.27.26,2,.36a16.48,16.48,0,0,1,6.27,2c2,1.21,3.69,2.26,8.34,1.94"/><path class="cls-6" d="M367.2,277a130.68,130.68,0,0,1,14.88,8.19,82.44,82.44,0,0,1,6.9,4.92,55.79,55.79,0,0,1,7.33,7.17c2.14,2.47,7.61,7.06,17,4.23"/><path class="cls-6" d="M299.73,243.54c4.43,2.88,8.14,5.34,11,6.47,7.73,3,35.35,18.23,45.84,22.37,3,1.2,6.65,2.73,10.54,4.57"/><path class="cls-6" d="M308.91,470.88l2.18.22a1.36,1.36,0,0,1,.88.44l1.41,1.55.51.56a.74.74,0,0,1-.38,1.23,8,8,0,0,1-4.16-.39c-6.24,1.41-20.3-1.24-26.78-1.24s-11.5.65-14.15-3.77c0,0-.61-1.29,0-11.65.26-4.42-1.24-11.68-3.25-19.37-2.7-10.33-6.31-21.43-7.73-27.44-2.49-10.5-6.08-21.82-2.49-49.16s-20.71-63-20.71-96.38,19.61-40.6,37.28-35.9c11.11,2.95,20.69,9.06,28.2,13.95"/><path class="cls-6" d="M313.4,473.07a8,8,0,0,0,5.42.59,4.4,4.4,0,0,0,.19-1,1.78,1.78,0,0,0-.58-1.65,13.05,13.05,0,0,0-2.22-1.16c-1.1-.49-2.15-.89-2.15-.89"/><path class="cls-6" d="M319.09,472.67a9.09,9.09,0,0,0,4.82.4c1.51-.31,1.27-1.28.82-2a5.43,5.43,0,0,0-.75-1l-5-1.25"/><path class="cls-6" d="M279.77,399.2s-1.07-13.31-1.62-23,3.32-19.33,3.59-28.72.28-24.71.28-33.76.72-30.86-3.92-41.36c0,0,1.38,2.08,7.21,6.74.52.42,1.09.91,1.69,1.48,6.07,5.64,15.59,17.76,18.62,22,3.33,4.66,6.16,6,13.15,11.14s11.78,14.16,19.38,12.58"/><path class="cls-6" d="M325.09,471c1.82.17,2.31-1.67,2.42-3a1.29,1.29,0,0,0-1.24-1.4c-.54,0-1.29-.05-2.27-.11-1.53-.1-3.13-.3-4.45-.5-1.69-.26-2.91-.51-2.91-.51l-4.3-1c-6.76-1.74-11.59-5.16-15.87-7.87,0,0-10.21-7.34-12.3-18.68l-.06-.3"/><path class="cls-6" d="M382.05,285.14l0,0c.85.93,22.2,24.53-3.59,32.64"/><path class="cls-6" d="M284.11,434.15c0-.82,0-1.8,0-3,.11-6.33.15-11.11.15-11.11"/><path class="cls-6" d="M357.22,298.74s-2.17,2.75-6,8.18c-3.25,4.58-7.69,11.05-13,19.4-11.68,18.23-13.52,19.16-24.75,30.53s-21.94,30.67-27.83,35.92a25.5,25.5,0,0,0-5.61,6.54c-2.28,4-3.56,9.52-3.93,19.42-.51,13.94.64,13.8,2.07,13.77s1.62-11.38,1.62-11.38.32,16.5,3,16.5c1.22,0,1.37-1,1.4-3.43"/><path class="cls-6" d="M284.11,434.15v0c0,.28.27,2,.64,3.62s.85,3,1.43,3c2.21,0,.73-2.71,1.15-10.77s1.05-11,1.78-13.81,2.51-10.89,3.24-13.29c0,0,2.1-3.88,8.9-10.17s26.18-19.21,33.32-27,22.44-29.84,27.2-34.47c3.71-3.61,9.1-2.44,15.08-11.39q.69-1,1.38-2.25h0a62.47,62.47,0,0,0,3.81-8.12"/><path class="cls-6" d="M351.19,306.92s-3.52-7.15-1.28-21.81c2.14-14,16-8.65,17.21-8.16l.08,0"/><path class="cls-6" d="M299.72,243.53h0c.21.41,4.71,9.54-12.73,37.06"/><path class="cls-6" d="M265.17,438.46a90.52,90.52,0,0,0,17.54-.84"/></svg>