<svg id="Layer_1" data-name="Layer 1" xmlns="http://www.w3.org/2000/svg" viewBox="0 0 700 700"><defs><style>.cls-1{fill:#feae63;}.cls-2{fill:#99abcc;}.cls-3{fill:#c4e7f9;}.cls-4{fill:#392328;}.cls-5{fill:none;stroke:#000;stroke-linecap:round;stroke-linejoin:round;stroke-width:2.3px;}</style></defs><title>Yoga_poses_2020_color</title><path class="cls-1" d="M579.38,420.71v0l.77-1.93a1.85,1.85,0,0,1,1.31-1.13,2,2,0,0,1,.42-.05,1.9,1.9,0,0,1,1.77,1.23,4.42,4.42,0,0,1,.18,2.44,6,6,0,0,0,.45,4.3c1.36,2.12,1.87,4.83.36,10.12s-6.17,11.89-7.08,17.62c-.42,2.65-.38,5.84-1,7.65a5.31,5.31,0,0,1-4.91,3.64,19.72,19.72,0,0,1-6-.29c-3-.62-10.22-4.32-20.74-4.27,2.61-7.85-1.64-17.3-1.64-17.3v0c14.58.32,17.45-2.17,17.45-2.17,5.83-4.88,5.62-5.28,11.61-11S579.1,419,579.1,419l.22,1.69Z"/><path class="cls-1" d="M583.16,417.77,583,418a1.86,1.86,0,0,0-1.12-.37,2,2,0,0,0-.42.05,1.85,1.85,0,0,0-1.31,1.13l-.77,1.93v0l-.06,0L579.1,419l-.28-2.25a2.28,2.28,0,0,1,0-.26,2.06,2.06,0,0,1,4-.75A6.11,6.11,0,0,1,583.16,417.77Z"/><path class="cls-1" d="M581.37,412.29a6.46,6.46,0,0,1,1,2.79,2.06,2.06,0,0,0-3.56,1.41,2.28,2.28,0,0,0,0,.26,28.46,28.46,0,0,0-1.52-3.5,1.1,1.1,0,0,1,.14-1.4,2.68,2.68,0,0,1,1.78-.66A2.62,2.62,0,0,1,581.37,412.29Z"/><path class="cls-2" d="M361.32,411.18c43.45.38,83.87,14.66,93.9,17.88a15.71,15.71,0,0,1,3.62,1.69l4.13,2.58a16.25,16.25,0,0,0,7.87,2.45c14.83.66,23.29,1.77,52.69,5.36,8.2,1,14.63,1.44,19.67,1.55v0s4.25,9.45,1.64,17.3a44.07,44.07,0,0,0-5.68.4c-13.58,1.8-33.38,4.08-54.36,3.94s-26.71-6.2-30.79-7a80.77,80.77,0,0,0-10.11-.9c-8.6-.3-28.32,1.81-39,1.81s-27.4.85-29.87,1.25a85.55,85.55,0,0,1-10.37.83h0c-6.31-1.77-13.11-3.65-13.11-3.65l-2.31-.77a16.16,16.16,0,0,0-4.52-.82l-16.9-.57s-6.89-1.2-13.94-2.5c0,0,1.81-16.58,0-25.13a79.4,79.4,0,0,1-1.8-14.77l.08-.8a107.62,107.62,0,0,1-10.87-1.79l.17-.83A325.78,325.78,0,0,1,287.9,377.2c-5.64-15.86-13.68-23.89-15-33s-2.18-18.3-2.18-18.3c-3.56-12.11-10.4-30.19-16.52-48.85a59.23,59.23,0,0,0-7-14.76s11.07-3.3,16.08-7.12l.07,0a158.89,158.89,0,0,0,16.89,26.5c14.34,17.6,14.34,36.71,17.16,43.23s9.34,21.06,28,41.91S361.32,411.18,361.32,411.18Z"/><path class="cls-1" d="M386.52,472.24a1.64,1.64,0,0,1,1.19,1.58.82.82,0,0,1,0,.22,1.63,1.63,0,0,1-1.81,1.41l-9.12-1.07a1.28,1.28,0,0,1-1.56,1.25l-10.9-2.36a19.88,19.88,0,0,0-2.17-.31,30.2,30.2,0,0,1-8.11-2.07c-2.26-.9-4-1.8-4.88-2.17a15.77,15.77,0,0,0-6.4-1.17c-13.52.33-51.69.69-58.79.42-7.82-.29-9.45-2-16.29-2s-35.51,2.28-46.91,2a34.36,34.36,0,0,1-18.85-6.19c-1.78-1-5-2.54-6.22-3.6a10.63,10.63,0,0,1-3.6-7.66c-.22-7.34,4.17-15,8.13-16.95,4.89-2.4,17.16-9.29,17.16-9.29a8.9,8.9,0,0,1,1,.24c6.1,1.87,11.4,10.54,11.4,10.54,3.48,1.31,26,8.15,32.2,9.45s13.68,5.7,18.73,5.38,14-1.63,21.67,0c2.88.61,7.21,1.43,11.47,2.22,7.05,1.3,13.94,2.5,13.94,2.5l16.9.57a16.16,16.16,0,0,1,4.52.82l2.31.77s6.8,1.88,13.11,3.65h0c4.71,1.33,9.14,2.6,10.23,3,2.1.75,14.86,3.71,19,4.67a1.71,1.71,0,0,1,1.32,1.66v.1a1.71,1.71,0,0,1-1.71,1.71l-.45.07a1.4,1.4,0,0,0-.62-.34l-5.19-1.49Z"/><path class="cls-1" d="M393.05,471.58a1.41,1.41,0,0,1,.45,1,1.43,1.43,0,0,1-1.43,1.42h-4.38a.82.82,0,0,0,0-.22,1.64,1.64,0,0,0-1.19-1.58l.72-2.49,5.19,1.49A1.4,1.4,0,0,1,393.05,471.58Z"/><path class="cls-3" d="M313.83,427c1.81,8.55,0,25.13,0,25.13-4.26-.79-8.59-1.61-11.47-2.22-7.66-1.63-16.62-.33-21.67,0s-12.54-4.08-18.73-5.38-28.72-8.14-32.2-9.45c0,0-5.3-8.67-11.4-10.54l.18-.61a11.47,11.47,0,0,0-3-11.7,33.52,33.52,0,0,1,9-7.49,27.57,27.57,0,0,1,13.55-3.37c11.08,0,14.34,2.17,26.28,1.73l6.27-.13a25.9,25.9,0,0,1,7.63,1c5,1.41,14.32,3.94,22.91,5.71a107.62,107.62,0,0,0,10.87,1.79l-.08.8A79.4,79.4,0,0,0,313.83,427Z"/><path class="cls-1" d="M263.41,255.13l-.07,0c-5,3.82-16.08,7.12-16.08,7.12a36.24,36.24,0,0,0-10.84-10.6c-2.7-2-8.08-.44-12.39,0-2.83.29-15.73,5.57-15.73,5.57l-.29-.16a1.92,1.92,0,0,0,.12-1.82l-1.83-4s2.33-8,11.89-12.82,14.55-5.86,20-10.86a30.08,30.08,0,0,1,2.32-2,7.37,7.37,0,0,1,10.45,1.66l2.43,3.92a9.62,9.62,0,0,1,1.88,4.21l.81,3.59a8.15,8.15,0,0,0,.29,1C257,241.68,259.53,247.62,263.41,255.13Z"/><path class="cls-1" d="M203.28,269.68l.21-.11a1.5,1.5,0,0,0,.82.84h0a1.88,1.88,0,0,0,2.55-1.24l-.31,1.6a1.73,1.73,0,0,0,1,1.91,1.79,1.79,0,0,0,.67.14,1.71,1.71,0,0,0,1.63-1.17l2.45-7.15.39.14-1.71,5a2,2,0,0,0-.11.62,1.94,1.94,0,0,0,1.26,1.8,1.91,1.91,0,0,0,2.49-1.22l.95-3,.35,3.36a13.1,13.1,0,0,1-.47,5l-1.36,4.55a12.89,12.89,0,0,0-.54,3.7v1.33a13.23,13.23,0,0,0,.6,3.9c11.36,36,11.36,59.84,11.36,59.84s-.2,36.52-.94,44.34,0,10.76,0,10.76a33.52,33.52,0,0,0-9,7.49,91.33,91.33,0,0,1-10.65,9.7c-.41.21-1.95,1.13-3.52,2,0,0-5.79-13-1-24.53s7.81-16.94,7.81-25.19,1.31-21.94,0-25.85-2.22-11.51-3.28-33.88c0,0-1.28-16.72-2.58-21.07s-1.52-9.34-2.61-11.94c-.85-2.06-2.11-6.13-2.61-7.77a3.93,3.93,0,0,1-.16-1.41,82.42,82.42,0,0,0,.13-10.1,2.41,2.41,0,0,1,1.61-2.42,2.56,2.56,0,0,1,.81-.14,2.38,2.38,0,0,1,2.24,1.52,20.82,20.82,0,0,1,1.09,6.8A4.22,4.22,0,0,0,203.28,269.68Z"/><path class="cls-1" d="M162,443.39a8.22,8.22,0,0,1-1.93.28c-5.78-1.14-1.94-5.78-1.94-5.78.23-2.35-1.2-6.2-5.06-8.48s-7.32-1.77-9.73-5.68c-1.22-2-7.27-10.46-7.27-10.46l1.82-.35s8.21-3.55,13.63-3.35c4.26.16,4.93,1.5,7.64-.4l5.44-2.51,1,5.07,10,1.18c.88-.35,7.81-1.74,5.8,9.06,0,0-.28,3.45,7,3.61h9.44a15.83,15.83,0,0,0,3.61-1.7c1.57-.87,3.11-1.79,3.52-2a91.33,91.33,0,0,0,10.65-9.7,11.47,11.47,0,0,1,3,11.7l-.18.61a8.9,8.9,0,0,0-1-.24s-12.27,6.89-17.16,9.29c-4,2-8.35,9.61-8.13,16.95-3.91-2.29-18.23-.61-18.23-.61h0a11.47,11.47,0,0,0-5.5-2.14c-3.83.33-5.87-3.18-6.31-4Zm-3.48-28.27c.05-.62-1.07-1.23-2.5-1.35s-2.64.28-2.69.9,1.06,1.22,2.49,1.35S158.41,415.74,158.47,415.12Z"/><path class="cls-1" d="M214.83,263.73a2.05,2.05,0,0,1,1.28,2.57l-.51,1.59-.95,3a1.91,1.91,0,0,1-2.49,1.22,1.94,1.94,0,0,1-1.26-1.8,2,2,0,0,1,.11-.62l1.71-5a1.56,1.56,0,0,1,2-1Z"/><path class="cls-1" d="M212.49,259a1.72,1.72,0,0,1,1,2.16l-1.15,3.37-2.45,7.15a1.71,1.71,0,0,1-1.63,1.17,1.79,1.79,0,0,1-.67-.14,1.73,1.73,0,0,1-1-1.91l.31-1.6,1.9-6.81,0-.12.78-2.44a1.72,1.72,0,0,1,2.28-1.07Z"/><path class="cls-1" d="M207.73,258.07a2.28,2.28,0,0,1,1.47,2.77l-.39,1.4,0,.12-1.9,6.81a1.88,1.88,0,0,1-2.55,1.24h0a1.5,1.5,0,0,1-.82-.84,1.94,1.94,0,0,1-.1-1.12l2-9.18a1.56,1.56,0,0,1,1.24-1.19l.28,0Z"/><path class="cls-1" d="M208.13,255.27a1.92,1.92,0,0,1-.12,1.82,1.94,1.94,0,0,1-.82.73l-.08,0a1.46,1.46,0,0,1-.49.15,1.94,1.94,0,0,1-1.91-.77v0l-2.32-4.49,0,0a1.92,1.92,0,0,1,.93-2.17l.31-.18a2,2,0,0,1,2.71.9Z"/><path class="cls-1" d="M205.08,258a2,2,0,0,1,.21.88,1.94,1.94,0,0,1-3.48,1.18l-3.57-4.7a2,2,0,0,1,.54-2.83l.87-.53a1.94,1.94,0,0,1,2.7.72,2.41,2.41,0,0,0,.16.42l2.06,3.91a1.07,1.07,0,0,0,.13.21v0Z"/><path class="cls-4" d="M162,443.72c.44.85,2.48,4.36,6.31,4a11.47,11.47,0,0,1,5.5,2.14,4,4,0,0,1,1.5,3.42c-.3,4.82-4.53,4.72-10.34,4.9-4.39.14-9.55-.13-12.24.1a63.11,63.11,0,0,1-11.38-.13c-7.16-.67-9.35-5.66-9.35-5.66-.49-.76-.95-1.52-1.37-2.27a32.17,32.17,0,0,1-2.93-6.95c-2.94-10.36,1-19.42,6.91-29.77l1.38-.26s6,8.49,7.27,10.46c2.41,3.91,5.88,3.39,9.73,5.68s5.29,6.13,5.06,8.48c0,0-3.84,4.64,1.94,5.78a8.22,8.22,0,0,0,1.93-.28Z"/><path d="M156,413.77c1.43.12,2.55.73,2.5,1.35s-1.26,1-2.7.9-2.55-.73-2.49-1.35S154.54,413.64,156,413.77Z"/><path class="cls-4" d="M130.62,450.27c3.52,8.24-4.76,7.11-9.76,6.81s-8.2-5.19-3.45-11.07,10.17-2.67,10.17-2.67l.15,0a32.17,32.17,0,0,0,2.93,6.95Z"/><path class="cls-5" d="M204.91,421.88a91.33,91.33,0,0,0,10.65-9.7,33.52,33.52,0,0,1,9-7.49,27.57,27.57,0,0,1,13.55-3.37c11.08,0,14.34,2.17,26.28,1.73l6.27-.13a25.9,25.9,0,0,1,7.63,1c5,1.41,14.32,3.94,22.91,5.71a107.62,107.62,0,0,0,10.87,1.79,33.25,33.25,0,0,0,3.38.22,69.29,69.29,0,0,0,21.5-3.34"/><path class="cls-5" d="M215.56,412.18a11.47,11.47,0,0,1,3,11.7"/><path class="cls-5" d="M158.08,437.89s-3.84,4.64,1.94,5.78a8.22,8.22,0,0,0,1.93-.28,8,8,0,0,0,5.66-4.85s.72-3.15-2.92-1.62"/><path class="cls-5" d="M172.15,436.39s5.33-.55,6.39-5.21"/><path class="cls-5" d="M136,413.27s6,8.49,7.27,10.46c2.41,3.91,5.88,3.39,9.73,5.68s5.29,6.13,5.06,8.48"/><path class="cls-5" d="M127.58,443.34s-5.41-3.21-10.17,2.67-1.53,10.77,3.45,11.07,13.28,1.43,9.76-6.81"/><path class="cls-5" d="M161.94,443.54l.09.18c.44.85,2.48,4.36,6.31,4a11.47,11.47,0,0,1,5.5,2.14,4,4,0,0,1,1.5,3.42c-.3,4.82-4.53,4.72-10.34,4.9-4.39.14-9.55-.13-12.24.1a63.11,63.11,0,0,1-11.38-.13c-7.16-.67-9.35-5.66-9.35-5.66-.49-.76-.95-1.52-1.37-2.27a32.17,32.17,0,0,1-2.93-6.95c-2.94-10.36,1-19.42,6.91-29.77l1.38-.26,1.82-.35s8.21-3.55,13.63-3.35c4.26.16,4.93,1.5,7.64-.4l5.44-2.51,1,5.07,10,1.18c.88-.35,7.81-1.74,5.8,9.06,0,0-.28,3.45,7,3.61h9.44a15.83,15.83,0,0,0,3.61-1.7c1.57-.87,3.11-1.79,3.52-2"/><path class="cls-5" d="M173.85,449.88s14.32-1.68,18.23.61"/><path class="cls-5" d="M376.76,474.38l9.12,1.07a1.63,1.63,0,0,0,1.81-1.41.82.82,0,0,0,0-.22,1.64,1.64,0,0,0-1.19-1.58l-17.46-4.88"/><path class="cls-5" d="M387.71,474h4.36a1.43,1.43,0,0,0,1.43-1.42,1.41,1.41,0,0,0-.45-1,1.4,1.4,0,0,0-.62-.34l-5.19-1.49L373,465.66"/><path class="cls-5" d="M364.61,460.39c-6.31-1.77-13.11-3.65-13.11-3.65l-2.31-.77a16.16,16.16,0,0,0-4.52-.82l-16.9-.57s-6.89-1.2-13.94-2.5c-4.26-.79-8.59-1.61-11.47-2.22-7.66-1.63-16.62-.33-21.67,0s-12.54-4.08-18.73-5.38-28.72-8.14-32.2-9.45c0,0-5.3-8.67-11.4-10.54a8.9,8.9,0,0,0-1-.24s-12.27,6.89-17.16,9.29c-4,2-8.35,9.61-8.13,16.95a10.63,10.63,0,0,0,3.6,7.66c1.2,1.06,4.44,2.64,6.22,3.6a34.36,34.36,0,0,0,18.85,6.19c11.4.32,40.07-2,46.91-2s8.47,1.7,16.29,2c7.1.27,45.27-.09,58.79-.42a15.77,15.77,0,0,1,6.4,1.17c.9.37,2.62,1.27,4.88,2.17a30.2,30.2,0,0,0,8.11,2.07,19.88,19.88,0,0,1,2.17.31l10.9,2.36a1.28,1.28,0,0,0,.71-2.46l-12.79-4.58"/><path class="cls-5" d="M393.5,471.51a1.71,1.71,0,0,0,1.71-1.71v-.1a1.71,1.71,0,0,0-1.32-1.66c-4.18-1-16.94-3.92-19-4.67-1.09-.38-5.52-1.65-10.23-3"/><path class="cls-5" d="M364.61,460.39h0a85.55,85.55,0,0,0,10.37-.83c2.47-.4,19.16-1.25,29.87-1.25s30.44-2.11,39-1.81a80.77,80.77,0,0,1,10.11.9c4.08.76,9.81,6.83,30.79,7s40.78-2.14,54.36-3.94a44.07,44.07,0,0,1,5.68-.4c10.52,0,17.77,3.65,20.74,4.27a19.72,19.72,0,0,0,6,.29,5.31,5.31,0,0,0,4.91-3.64c.65-1.81.61-5,1-7.65.91-5.73,5.57-12.34,7.08-17.62s1-8-.36-10.12a6,6,0,0,1-.45-4.3,4.42,4.42,0,0,0-.18-2.44,1.9,1.9,0,0,0-1.77-1.23,2,2,0,0,0-.42.05,1.85,1.85,0,0,0-1.31,1.13l-.77,1.93v0a3.29,3.29,0,0,0-.07,2.19l.61,1.9"/><path class="cls-5" d="M583.16,417.77a6.11,6.11,0,0,0-.38-2,2.06,2.06,0,0,0-4,.75,2.28,2.28,0,0,0,0,.26l.28,2.25.22,1.69"/><path class="cls-5" d="M578.82,416.75a28.46,28.46,0,0,0-1.52-3.5,1.1,1.1,0,0,1,.14-1.4,2.68,2.68,0,0,1,1.78-.66,2.62,2.62,0,0,1,2.15,1.1,6.46,6.46,0,0,1,1,2.79"/><path class="cls-5" d="M579.1,419s-.84,4.75-6.84,10.5-5.78,6.14-11.61,11c0,0-2.87,2.49-17.45,2.17-5-.11-11.47-.55-19.67-1.55-29.4-3.59-37.86-4.7-52.69-5.36a16.25,16.25,0,0,1-7.87-2.45l-4.13-2.58a15.71,15.71,0,0,0-3.62-1.69c-10-3.22-50.45-17.5-93.9-17.88-1.42,0-2.84,0-4.26,0"/><path class="cls-5" d="M201.39,423.88s-5.79-13-1-24.53,7.81-16.94,7.81-25.19,1.31-21.94,0-25.85-2.22-11.51-3.28-33.88c0,0-1.28-16.72-2.58-21.07s-1.52-9.34-2.61-11.94c-.85-2.06-2.11-6.13-2.61-7.77a3.93,3.93,0,0,1-.16-1.41,82.42,82.42,0,0,0,.13-10.1,2.41,2.41,0,0,1,1.61-2.42,2.56,2.56,0,0,1,.81-.14,2.38,2.38,0,0,1,2.24,1.52,20.82,20.82,0,0,1,1.09,6.8,4.22,4.22,0,0,0,.45,1.78,3.72,3.72,0,0,0,.21.39l4.27,6.79"/><path class="cls-5" d="M204.7,257.22l-2.32-4.49,0,0a1.94,1.94,0,0,0-2.7-.72l-.87.53a2,2,0,0,0-.54,2.83l3.57,4.7a1.94,1.94,0,0,0,3.48-1.18,2,2,0,0,0-.21-.88l-.37-.72"/><path class="cls-5" d="M202.35,252.68a2.41,2.41,0,0,0,.16.42l2.06,3.91a1.07,1.07,0,0,0,.13.21v0a1.94,1.94,0,0,0,1.91.77,1.46,1.46,0,0,0,.49-.15l.08,0a1.94,1.94,0,0,0,.82-.73,1.92,1.92,0,0,0,.12-1.82l-1.83-4a2,2,0,0,0-2.71-.9l-.31.18A1.92,1.92,0,0,0,202.35,252.68Z"/><path class="cls-5" d="M208.3,257.25S221.2,252,224,251.68c4.31-.44,9.69-2,12.39,0a36.24,36.24,0,0,1,10.84,10.6,59.23,59.23,0,0,1,7,14.76c6.12,18.66,13,36.74,16.52,48.85,0,0,.88,9.17,2.18,18.3s9.34,17.15,15,33a325.78,325.78,0,0,0,13.51,31.56h0"/><path class="cls-5" d="M206.3,251.23s2.33-8,11.89-12.82,14.55-5.86,20-10.86a30.08,30.08,0,0,1,2.32-2,7.37,7.37,0,0,1,10.45,1.66l2.43,3.92a9.62,9.62,0,0,1,1.88,4.21l.81,3.59a8.15,8.15,0,0,0,.29,1c.67,1.74,3.18,7.68,7.06,15.19a158.89,158.89,0,0,0,16.89,26.5c14.34,17.6,14.34,36.71,17.16,43.23s9.34,21.06,28,41.91,35.84,44.41,35.84,44.41"/><path class="cls-5" d="M208.81,262.24l.39-1.4a2.28,2.28,0,0,0-1.47-2.77h-.82l-.28,0a1.56,1.56,0,0,0-1.24,1.19l-2,9.18a1.94,1.94,0,0,0,.1,1.12,1.5,1.5,0,0,0,.82.84h0a1.88,1.88,0,0,0,2.55-1.24l1.9-6.81"/><path class="cls-5" d="M206.87,269.17l-.31,1.6a1.73,1.73,0,0,0,1,1.91,1.79,1.79,0,0,0,.67.14,1.71,1.71,0,0,0,1.63-1.17l2.45-7.15,1.15-3.37a1.72,1.72,0,0,0-1-2.16l-.62-.24a1.72,1.72,0,0,0-2.28,1.07l-.78,2.44,0,.12"/><path class="cls-5" d="M212.72,264.64a1.56,1.56,0,0,1,2-1l.12.05a2.05,2.05,0,0,1,1.28,2.57l-.51,1.59-.95,3a1.91,1.91,0,0,1-2.49,1.22,1.94,1.94,0,0,1-1.26-1.8,2,2,0,0,1,.11-.62Z"/><path class="cls-5" d="M247.26,262.28s11.07-3.3,16.08-7.12"/><path class="cls-5" d="M543.2,442.72s4.25,9.45,1.64,17.3h0"/><path class="cls-5" d="M224.6,404.69s-.75-2.93,0-10.76.94-44.34.94-44.34,0-23.8-11.36-59.84a13.23,13.23,0,0,1-.6-3.9v-1.33a12.89,12.89,0,0,1,.54-3.7l1.36-4.55a13.1,13.1,0,0,0,.47-5l-.35-3.36"/><path class="cls-5" d="M312,412.18a79.4,79.4,0,0,0,1.8,14.77c1.81,8.55,0,25.13,0,25.13"/></svg>