<svg id="Layer_1" data-name="Layer 1" xmlns="http://www.w3.org/2000/svg" viewBox="0 0 700 700"><defs><style>.cls-1{fill:#feae63;}.cls-2{fill:#99abcc;}.cls-3{fill:#c4e7f9;}.cls-4{fill:#392328;}.cls-5{fill:none;stroke:#000;stroke-linecap:round;stroke-linejoin:round;stroke-width:2.3px;}</style></defs><title>Yoga_poses_2020_color</title><path class="cls-1" d="M619.43,372.73c.41,1.76.34,5.67-3.79,13.27-6.19,11.4-7.79,10.75-10.57,23.46S600.65,428,585,421.19c-7.5-3.28-16.2-4.54-25.81-5h0c-2.5-17.4,1.47-21.75,1.47-21.75,2.18.19,4.21.35,6,.48a30.68,30.68,0,0,0,17.22-3.84c7.39-4.15,17.54-10.63,21.14-16.66a8.24,8.24,0,0,0,1.34-4.16c0-10.63,7-11.22,7-11.22s3.66-.91,5.22,6a14.43,14.43,0,0,1,.32,3.14v.51A17.75,17.75,0,0,0,619.43,372.73Z"/><path class="cls-1" d="M590.34,380.66l14.73-6.24c-3.6,6-13.75,12.51-21.14,16.66a30.68,30.68,0,0,1-17.22,3.84c-2-4.18,2.29-13.39,2.6-14A41.9,41.9,0,0,0,590.34,380.66Z"/><path class="cls-2" d="M560.68,394.44s-4,4.35-1.47,21.75h0c-10.43-.5-21.93-.06-34.14-.23-23.46-.32-41.7-8.79-52.78-12.05s-60.92-2.93-83.07-6.52-45-7.16-54.74-21.17c0,0-2.39-2.21-7.43-2.21l1-1.17s-.26-12.52,3.9-19.26,14.95-26.34,14.95-26.34c16.22,2.77,35.29,2.61,48.42,2,0,0,20.85-1.86,39.53,5.8s34.58,18.6,45.87,22.08,10.27,1.1,21.46,6.51c11.72,4.27,23.45,3.83,40,8.61,11.63,3.36,19.53,6.87,27.19,8.67-.31.65-4.6,9.86-2.6,14C564.89,394.79,562.86,394.63,560.68,394.44Z"/><path class="cls-3" d="M346.88,327.25S336,347,331.93,353.59s-3.9,19.26-3.9,19.26l-1,1.17a25.83,25.83,0,0,0-11.14,2.92c-9.86,4.76-26.41,11.91-39.87,15.32.35-.36,7.2-7.56,3.71-19.94-3.58-12.71-19.22-24.3-19.22-24.3s.55-14.34-3.48-19.29c4.73-4.38,9.71-7.78,14-8.21,13-1.3,13.9,3.47,30,0,0,0,13.47-3.48,31.28,3A84.69,84.69,0,0,0,346.88,327.25Z"/><path class="cls-1" d="M224.39,379.45l.65-1.79s8.64-2.45,9.69-6.53l1.26-4.47h0c.48-.47,15.87-15.62,24.53-18.63,0,0,15.64,11.59,19.22,24.3,3.49,12.38-3.36,19.58-3.71,19.94h0a61.52,61.52,0,0,1-10.62,1.88s-4.23.19-13,3.68-10.25,2.18-27.6,3.81c-14,1.32-32.06,4.77-38.45,6a17.37,17.37,0,0,0-4.48,1.55,17.27,17.27,0,0,1-7.95,1.89c-7.75,0-24-.46-32.29-3.62,0,0-11-2.51-18.76-2.94l-.62,0a11,11,0,0,0-6.19,1.93c-1.55,1.07-3.93,2.83-5.76,2.37l-7-2,2-.8a8.22,8.22,0,0,0,4-3.6l2.32-4.17a16.12,16.12,0,0,0,1.19-2.73,15.66,15.66,0,0,0,.75-5.73l-.14-2.66a3.4,3.4,0,0,0-2.09-3.46l-.33-.14a1.78,1.78,0,0,1-.74-.58,1.8,1.8,0,0,1-.38-1.44,1.85,1.85,0,0,1,1.47-1.52l2.8-.56a2.76,2.76,0,0,1,2.74,1.05l.39.51,7,9.29.75,1a2.25,2.25,0,0,0,1.89.89c5.48-.24,28.48-1.27,34.5-2a109.66,109.66,0,0,1,15-.19c.61,0,1.21,0,1.81,0a26.27,26.27,0,0,0,5.5-.74l4.15-1,4.08-1L215,381.72l5.75-1.41Z"/><path class="cls-1" d="M257.05,328.73c4,4.95,3.48,19.29,3.48,19.29-8.66,3-24,18.16-24.53,18.63l3-10.55a10.88,10.88,0,0,0-.15-5.67S247.44,337.59,257.05,328.73Z"/><path class="cls-1" d="M214.6,380.31c-2.66-7.65-18.13-12.5-18.13-12.5-9.48-4.58-11.22-13.65-9.34-18.64a.61.61,0,0,0,0-.48s1.64-2.55,12-4.95c0,0,1.35-.39,3.55-1s4.64,1,9-.31,14.89,2.19,22,3.5a6.8,6.8,0,0,1,5.17,4.47,10.88,10.88,0,0,1,.15,5.67l-3,10.55h0l-1.26,4.47c-1,4.08-9.69,6.53-9.69,6.53l-.65,1.79-3.69.86L215,381.72Zm-1.16-21c.07-.69-1.19-1.38-2.79-1.52s-3,.29-3,1,1.19,1.38,2.8,1.53S213.37,360,213.44,359.3Zm-2.54-12.22c.06-.64-1.08-1.26-2.55-1.39s-2.71.27-2.76.91,1.07,1.26,2.55,1.39S210.85,347.72,210.9,347.08Z"/><path class="cls-4" d="M214.6,380.31l.35,1.41L192,387.35l-4.08,1a54.85,54.85,0,0,1-7.24-5.69c-.22-.21-.4-.4-.55-.57s-.42-.49-.57-.68a35.11,35.11,0,0,1-3.06-5.61c-.31-.85-.59-1.67-.83-2.46-2.89-9.28-1.57-15.18,1.18-19a17.49,17.49,0,0,1,6.41-5.3c1.78-.91,3.55-.95,3.84-.31a.61.61,0,0,1,0,.48c-1.88,5-.14,14.06,9.34,18.64C196.47,367.81,211.94,372.66,214.6,380.31Z"/><path d="M210.65,357.78c1.6.14,2.86.83,2.79,1.52s-1.42,1.15-3,1-2.86-.83-2.8-1.53S209,357.63,210.65,357.78Z"/><path d="M208.35,345.69c1.47.13,2.61.75,2.55,1.39s-1.29,1-2.76.91-2.62-.76-2.55-1.39S206.88,345.55,208.35,345.69Z"/><path class="cls-4" d="M188,388.34l-4.15,1a26.27,26.27,0,0,1-5.5.74v-1.92a10.77,10.77,0,0,1,2.39-5.49l0,0A54.85,54.85,0,0,0,188,388.34Z"/><path class="cls-1" d="M176.88,354.3c-2.75,3.85-4.07,9.75-1.18,19,0,0-18.12,7-30.18,10.07a167.27,167.27,0,0,0-21.17,6.94l-7-9.29.52-.39C152.85,360.33,176.88,354.3,176.88,354.3Z"/><path class="cls-1" d="M95.68,392.83l9.67-8.37,4.93-1.44h0a1.78,1.78,0,0,0,.74.58l.33.14a3.4,3.4,0,0,1,2.09,3.46l.14,2.66a15.66,15.66,0,0,1-.75,5.73l-2.79-1.06-.26.22a8.26,8.26,0,0,1-4.49,2l-8.58,1H95.66a2.52,2.52,0,0,1-1.16-.29,2.43,2.43,0,0,1-1.23-1.68,2.28,2.28,0,0,1,0-.45,2.45,2.45,0,0,1,.6-1.6,2.4,2.4,0,0,1,1.5-.81Z"/><path class="cls-1" d="M110.05,394.52l2.79,1.06a16.12,16.12,0,0,1-1.19,2.73l-2.32,4.17a8.22,8.22,0,0,1-4,3.6l-2,.8-5.54,2.27a3.36,3.36,0,0,1-.89.13,3.22,3.22,0,0,1-2-.72h0a3.23,3.23,0,0,1-1.19-2.79l.21-2.57.29-3.47.17-2,.15-.29a2.52,2.52,0,0,0,1.16.29h1.06l8.58-1a8.26,8.26,0,0,0,4.49-2Z"/><path class="cls-1" d="M94.87,408.55l-13.26,1.23h-.12a1.29,1.29,0,0,1-.39-2.52l.2-.06,12.59-4-.21,2.57A3.23,3.23,0,0,0,94.87,408.55Z"/><path class="cls-1" d="M94.5,397.42l-.15.29-.17,2L82,404l-.19.08-.16-.41a1.71,1.71,0,0,1,.77-1.08l10.83-6.84h0A2.43,2.43,0,0,0,94.5,397.42Z"/><path class="cls-1" d="M94.18,399.72l-.29,3.47-12.59,4-.18-.56v-1.44a1.29,1.29,0,0,1,.67-1.13L82,404Z"/><path class="cls-5" d="M236,366.65l3-10.55a10.88,10.88,0,0,0-.15-5.67,6.8,6.8,0,0,0-5.17-4.47"/><path class="cls-5" d="M224.39,379.46h0l.65-1.79s8.64-2.45,9.69-6.53l1.26-4.47"/><path class="cls-5" d="M233.65,346c-7.07-1.31-17.63-4.86-22-3.5s-6.78-.27-9,.31-3.55,1-3.55,1c-10.39,2.4-12,4.95-12,4.95"/><path class="cls-5" d="M214.61,380.31h0c-2.66-7.65-18.13-12.5-18.13-12.5-9.48-4.58-11.22-13.65-9.34-18.64a.61.61,0,0,0,0-.48c-.29-.64-2.06-.6-3.84.31a17.49,17.49,0,0,0-6.41,5.3c-2.75,3.85-4.07,9.75-1.18,19,.24.79.52,1.61.83,2.46a35.11,35.11,0,0,0,3.06,5.61c.15.19.34.42.57.68s.33.36.55.57a54.85,54.85,0,0,0,7.24,5.69"/><path class="cls-5" d="M180.69,382.67a10.77,10.77,0,0,0-2.39,5.49v1.92"/><path class="cls-5" d="M210.08,351.17a4.09,4.09,0,0,0,3.73-.8L219,348l.89,4.79"/><path class="cls-5" d="M502.16,363.6c11.72,4.27,23.45,3.83,40,8.61,11.63,3.36,19.53,6.87,27.19,8.67a41.9,41.9,0,0,0,21-.22l14.73-6.24"/><path class="cls-5" d="M238.82,350.43s8.62-12.84,18.23-21.7c4.73-4.38,9.71-7.78,14-8.21,13-1.3,13.9,3.47,30,0,0,0,13.47-3.48,31.28,3a84.69,84.69,0,0,0,14.57,3.69c16.22,2.77,35.29,2.61,48.42,2,0,0,20.85-1.86,39.53,5.8"/><path class="cls-5" d="M276,392.26c13.46-3.41,30-10.56,39.87-15.32A25.83,25.83,0,0,1,327.05,374c5,0,7.43,2.21,7.43,2.21,9.78,14,32.58,17.59,54.74,21.17s72,3.26,83.07,6.52,29.32,11.73,52.78,12.05c12.21.17,23.71-.27,34.14.23,9.61.45,18.31,1.71,25.81,5,15.63,6.84,17.26,1,20.05-11.73s4.38-12.06,10.57-23.46c4.13-7.6,4.2-11.51,3.79-13.27a17.75,17.75,0,0,1-.53-4v-.51a14.43,14.43,0,0,0-.32-3.14c-1.56-6.92-5.22-6-5.22-6s-7,.59-7,11.22a8.24,8.24,0,0,1-1.34,4.16c-3.6,6-13.75,12.51-21.14,16.66a30.68,30.68,0,0,1-17.22,3.84c-1.82-.13-3.85-.29-6-.48-12-1-28.18-3-36.8-6.59-14.77-6.08-28.24-4.44-39.1-10.91s-23-9.36-32.58-13.34S416.15,348.15,396.6,348l-5.9-1.18"/><path class="cls-5" d="M103.33,406.88l7,2c1.83.46,4.21-1.3,5.76-2.37a11,11,0,0,1,6.19-1.93l.62,0c7.78.43,18.76,2.94,18.76,2.94,8.26,3.16,24.54,3.6,32.29,3.62a17.27,17.27,0,0,0,7.95-1.89,17.37,17.37,0,0,1,4.48-1.55c6.39-1.27,24.41-4.72,38.45-6,17.35-1.63,18.81-.33,27.6-3.81s13-3.68,13-3.68A61.52,61.52,0,0,0,276,392.27"/><path class="cls-5" d="M236,366.66h0c.48-.47,15.87-15.62,24.53-18.63,0,0,.55-14.34-3.48-19.29"/><path class="cls-5" d="M260.53,348s15.64,11.59,19.22,24.3c3.49,12.38-3.36,19.58-3.71,19.94h0"/><path class="cls-5" d="M175.7,373.33s-18.12,7-30.18,10.07a167.27,167.27,0,0,0-21.17,6.94"/><path class="cls-5" d="M176.88,354.3s-24,6-59,26.36"/><path class="cls-5" d="M94.35,397.71l-.17,2-.29,3.47-.21,2.57a3.23,3.23,0,0,0,1.19,2.79h0a3.22,3.22,0,0,0,2,.72,3.36,3.36,0,0,0,.89-.13l5.54-2.27,2-.8a8.22,8.22,0,0,0,4-3.6l2.32-4.17a16.12,16.12,0,0,0,1.19-2.73,15.66,15.66,0,0,0,.75-5.73l-.14-2.66a3.4,3.4,0,0,0-2.09-3.46l-.33-.14a1.78,1.78,0,0,1-.74-.58,1.8,1.8,0,0,1-.38-1.44,1.85,1.85,0,0,1,1.47-1.52l2.8-.56a2.76,2.76,0,0,1,2.74,1.05l.39.51,7,9.29.75,1a2.25,2.25,0,0,0,1.89.89c5.48-.24,28.48-1.27,34.5-2a109.66,109.66,0,0,1,15-.19c.61,0,1.21,0,1.81,0a26.27,26.27,0,0,0,5.5-.74l4.15-1,4.08-1L215,381.72l5.75-1.41,3.69-.86c8-1.82,26.85-5.85,31.58-4.85"/><path class="cls-5" d="M110.05,394.52l-.26.22a8.26,8.26,0,0,1-4.49,2l-8.58,1H95.66a2.52,2.52,0,0,1-1.16-.29,2.43,2.43,0,0,1-1.23-1.68,2.28,2.28,0,0,1,0-.45,2.45,2.45,0,0,1,.6-1.6,2.4,2.4,0,0,1,1.5-.81l.35-.05,5.7-.79a4.26,4.26,0,0,0,2-.82l4-3.05"/><polyline class="cls-5" points="110.28 383.02 105.35 384.46 95.68 392.83"/><path class="cls-5" d="M93.23,395.75,82.4,402.59a1.71,1.71,0,0,0-.77,1.08"/><path class="cls-5" d="M94.18,399.72,82,404l-.19.08a1.29,1.29,0,0,0-.67,1.13v1.44"/><path class="cls-5" d="M93.89,403.19l-12.59,4-.2.06a1.29,1.29,0,0,0,.39,2.52h.12l13.26-1.23"/><path class="cls-5" d="M97.9,397.58l1,4.39a3.26,3.26,0,0,1-.33,2.31l0,.05,4.79-3.91"/><path class="cls-5" d="M434.83,335c18.67,7.66,34.58,18.6,45.87,22.08s10.27,1.1,21.46,6.51"/><path class="cls-5" d="M560.68,394.44s-4,4.35-1.47,21.75"/><path class="cls-5" d="M569.33,380.84l0,0c-.31.65-4.6,9.86-2.6,14"/><path class="cls-5" d="M328,372.85s-.26-12.52,3.9-19.26,14.95-26.34,14.95-26.34"/></svg>