<svg id="Layer_1" data-name="Layer 1" xmlns="http://www.w3.org/2000/svg" viewBox="0 0 700 700"><defs><style>.cls-1{fill:#feae63;}.cls-2{fill:#99abcc;}.cls-3{fill:#c4e7f9;}.cls-4{fill:#392328;}.cls-5{fill:none;stroke:#000;stroke-linecap:round;stroke-linejoin:round;stroke-width:2.3px;}</style></defs><title>Yoga_poses_2020_color</title><path class="cls-1" d="M493.59,383.72l0,0c3.26-5.65,6.08-5.22,17.81-1.74s21.94-.22,27.37-1.09,7.38,1.74,13,2.17a10.31,10.31,0,0,1,8,4.78c4,9.06-5.16,12.59-11.84,13.95a18.55,18.55,0,0,1-9.3-.43c-7.53-2.38-17.12-1.44-23.38-.49-7.17,1.09-10.64-.21-15.2-.21-1.18,0-2.69,0-4.65.11C499.29,389.76,494.08,384.21,493.59,383.72Z"/><path class="cls-2" d="M448.38,374.3l.21-.4c20.2-1.74,33.23,3.26,40.18,7.39a36.9,36.9,0,0,0,4.82,2.43c.49.49,5.7,6,1.83,17-5.63.24-15,.94-30.76,2.71a59.56,59.56,0,0,1-8.85.34c-16.6-.6-28.94-7.88-41.75-8.81a80.5,80.5,0,0,1-9.45-1.28,88.69,88.69,0,0,1-17.92-5.45C370.92,381,359.37,386,359,386.18a77.09,77.09,0,0,1,8.41-13.58c6.33-8.55,11.38-15.14,13.92-22.31h0s24.3,11.88,39.07,13.84C430.61,365.48,442.24,371,448.38,374.3Z"/><path class="cls-1" d="M455.81,403.78l-.05,1.18s-3.69,2.17-11.73,2.17-18.9-1.52-32.58-1a33.86,33.86,0,0,0-3.41.32c2.34-8.52-3.43-12.72-3.43-12.72a80.5,80.5,0,0,0,9.45,1.28C426.87,395.9,439.21,403.18,455.81,403.78Z"/><path class="cls-2" d="M359,386.18c.42-.18,12-5.19,27.74,2.06a88.69,88.69,0,0,0,17.92,5.45s5.77,4.2,3.43,12.72c-14.24,2-37.22,12.57-47.63,14-11.29,1.52-15.2,1.74-28.67-2.82s-10.43-26.74-10.43-26.74l-.05-.21a12.06,12.06,0,0,0,1.95-.65c1.84-.79,11.84-2.11,16.85-5.25a2.25,2.25,0,0,0,1-1.92,2.45,2.45,0,0,0-.2-1,2.33,2.33,0,0,0-2.58-1.35l-11.13,2.15,21.56-10.29a1.86,1.86,0,0,0,1.05-1.68,1.91,1.91,0,0,0-.17-.77,1.87,1.87,0,0,0-2.25-1L327,375.53l23.14-8.34a2.33,2.33,0,0,0-1.48-4.42l-21.45,6.7,17.52-7.86a2.23,2.23,0,0,0,1.31-2,2.18,2.18,0,0,0-.46-1.34,2.21,2.21,0,0,0-2.56-.71l-18.74,7.34-5.23.21,1-2.53a12.25,12.25,0,0,0,.39-8.29l0-.11a1.85,1.85,0,0,0-2.36-1.23h0a1.9,1.9,0,0,0-1.3,1.8v3.1a1.92,1.92,0,0,1-.39,1.15L311,366l-.6-.46c-3.26-1.54-8.08-2.43-13.57-2.8l.06-.84s-.61-4.07,0-15.83a197.14,197.14,0,0,0-.61-28.46c-.68-8.4,1.36-12.15,1.36-12.15l-.12-.83c3.37-.58,9.29-2.3,24.71-5.87,21.51-5,48.87.9,57.34,23.92,4.36,11.84,4.46,20.06,1.76,27.65-2.54,7.17-7.59,13.76-13.92,22.31A77.09,77.09,0,0,0,359,386.18Z"/><path class="cls-1" d="M228.81,380.51l20.37,22.83,20.7-10,23.71-16.62a7,7,0,0,1,1.63-.85l3-1.09a22.69,22.69,0,0,0,5.65-3l4.49-3.25a12.28,12.28,0,0,0,2.58-2.51l0,0,5.38-7a1.92,1.92,0,0,0,.39-1.15v-3.1a1.9,1.9,0,0,1,1.3-1.8h0a1.85,1.85,0,0,1,2.36,1.23l0,.11a12.25,12.25,0,0,1-.39,8.29l-1,2.53,5.23-.21L343,357.53a2.21,2.21,0,0,1,2.56.71,2.18,2.18,0,0,1,.46,1.34,2.23,2.23,0,0,1-1.31,2l-17.52,7.86,21.45-6.7a2.33,2.33,0,0,1,1.48,4.42L327,375.53l20.4-6.61a1.87,1.87,0,0,1,2.25,1,1.91,1.91,0,0,1,.17.77,1.86,1.86,0,0,1-1.05,1.68l-21.56,10.29,11.13-2.15a2.33,2.33,0,0,1,2.58,1.35,2.45,2.45,0,0,1,.2,1,2.25,2.25,0,0,1-1,1.92c-5,3.14-15,4.46-16.85,5.25a12.06,12.06,0,0,1-1.95.65c-5.19,1.32-11.23-.26-17.09-.41a10.22,10.22,0,0,0-7.49,3c-7,7-24.09,24.77-32.44,30.67-10.67,7.52-12.55,8.78-15.48,6.48s-8.34-5.35-19.14-15.12c-12.58-11.38-13.27-14.37-17.24-17.92s-15.33-10-20.65-17.36c-4.38-6,2.71-13.11,5.59-19.46,2.72-5.23,24.05-10.95,24.05-10.95s18.22,6,14.39,28c-3.63,1.44-6.27,2.36-6.27,2.36Z"/><path class="cls-3" d="M297.47,304.59l.12.83s-2,3.75-1.36,12.15a197.14,197.14,0,0,1,.61,28.46c-.61,11.76,0,15.83,0,15.83l-.06.84c-16-1.09-37.78,2.16-43.12,6.05-4.35,3.16-12.3,6.58-17.9,8.79,3.83-22-14.39-28-14.39-28,13-17.87,1.67-40.69,1.67-40.69a21.24,21.24,0,0,1,6.58-6.4,24,24,0,0,1,12.64-3.67c3.53-.06,7.43.12,11.37.42,11.06.84,22.48,2.68,27.29,3.32C293,304.11,293,305.37,297.47,304.59Z"/><path class="cls-1" d="M182,271.69a1.41,1.41,0,0,1,.06-2.22l.25-.19a1.43,1.43,0,0,1,1.66,0l10.11,7.13a.88.88,0,0,0,.8.13.91.91,0,0,0,.65-.88.93.93,0,0,0-.22-.6l-4.08-4.72a1.39,1.39,0,0,1,.48-2.17,1.42,1.42,0,0,1,.57-.12,1.37,1.37,0,0,1,1,.43l5.87,5.16a9.31,9.31,0,0,0,2.78,1.68l3.82,1.45a5.66,5.66,0,0,1,2.54,1.93,5.63,5.63,0,0,0,3.58,2.21c7.14,1.24,29.39,5.34,34.74,8.94,6.4,4.31,6.34,6.24,7.08,9l0,.35c-3.94-.3-7.84-.48-11.37-.42a24,24,0,0,0-12.64,3.67s-25.37-15.18-29.5-15.18h-8.44a5,5,0,0,1-2.74-.83,29.67,29.67,0,0,0-9.48-3.75,1.09,1.09,0,0,1,.25-2.15h6.84l-8.21-6.76a1.43,1.43,0,0,0-.22-.15v0l0-.05a1.93,1.93,0,0,1,.2-3,1.91,1.91,0,0,1,2.31.1Z"/><path class="cls-1" d="M177,341.42a8.38,8.38,0,0,1-1.88.33C169.29,340.8,173,336,173,336c.15-2.35-1.41-6.15-5.34-8.32s-7.37-1.52-9.91-5.35c-1.28-1.93-7.6-10.22-7.6-10.22l1.8-.41s8.09-3.82,13.52-3.79c4.26,0,5,1.34,7.62-.65l5.36-2.68,1.13,5,10.07.85c.86-.37,7.74-2,6.09,8.87a4.47,4.47,0,0,0,4.59,4.72,16.24,16.24,0,0,0,6.26-1.2,9.78,9.78,0,0,0,2.74-1.69L223,308.82s11.29,22.82-1.67,40.69c0,0-21.33,5.72-24.05,10.95,5-10.95-5.59-10.17-5.59-10.17l-3.33,0h-.06a3.77,3.77,0,0,0-.53-2.75,7.87,7.87,0,0,0-5.8-3.25,7.42,7.42,0,0,1-4.68-2.34,3.07,3.07,0,0,1-.31-.37Zm-4.36-28.16c0-.63-1.1-1.19-2.54-1.27s-2.63.36-2.66,1,1.1,1.2,2.54,1.27S172.59,313.88,172.62,313.26Z"/><path class="cls-1" d="M223,308.82l-13.73,12.37a9.78,9.78,0,0,1-2.74,1.69h0S209,311.51,223,308.82Z"/><path class="cls-4" d="M187.81,347.51a3.77,3.77,0,0,1,.53,2.75c-.49,2.93-3.63,5.73-3.63,5.73-7,5.1-17.91,4.47-17.91,4.47a27.72,27.72,0,0,1-16-5.71,19.9,19.9,0,0,1-3.43-3.25c-.53-.77-1-1.53-1.48-2.29-7.89-13.16-3.91-24,2.81-36.76l1.38-.31s6.32,8.29,7.6,10.22c2.54,3.83,6,3.19,9.91,5.35s5.49,6,5.34,8.32c0,0-3.69,4.77,2.12,5.72a8.38,8.38,0,0,0,1.88-.33l0,.13a3.07,3.07,0,0,0,.31.37,7.42,7.42,0,0,0,4.68,2.34A7.87,7.87,0,0,1,187.81,347.51Z"/><path d="M170.08,312c1.44.08,2.57.64,2.54,1.27s-1.23,1.06-2.66,1-2.58-.64-2.54-1.27S168.64,311.91,170.08,312Z"/><path class="cls-4" d="M150.78,354.84c6.35,6.32.47,12.09-3.06,12.54-4.95.63-13-4.31-10.78-11.55s8.42-6.28,8.42-6.28l.58-.34c.45.76.95,1.52,1.48,2.29a19.9,19.9,0,0,0,3.43,3.25Z"/><path class="cls-5" d="M173,336s-3.69,4.77,2.12,5.72a8.38,8.38,0,0,0,1.88-.33,8.07,8.07,0,0,0,5.55-5.06s.6-3.16-3-1.51"/><path class="cls-5" d="M187,334.07s5.3-.72,6.21-5.41"/><path class="cls-5" d="M150.13,312.14s6.32,8.29,7.6,10.22c2.54,3.83,6,3.19,9.91,5.35s5.49,6,5.34,8.32"/><path class="cls-5" d="M145.36,349.55s-6.21-.95-8.42,6.28,5.83,12.18,10.78,11.55c3.53-.45,9.41-6.22,3.06-12.54"/><path class="cls-5" d="M166.8,360.46a27.72,27.72,0,0,1-16-5.71,19.9,19.9,0,0,1-3.43-3.25c-.53-.77-1-1.53-1.48-2.29-7.89-13.16-3.91-24,2.81-36.76l1.38-.31,1.8-.41s8.09-3.82,13.52-3.79c4.26,0,5,1.34,7.62-.65l5.36-2.68,1.13,5,10.07.85c.86-.37,7.74-2,6.09,8.87a4.47,4.47,0,0,0,4.59,4.72,16.24,16.24,0,0,0,6.26-1.2,9.78,9.78,0,0,0,2.74-1.69L223,308.82s11.29,22.82-1.67,40.69c0,0-21.33,5.72-24.05,10.95"/><path class="cls-5" d="M177,341.55a3.07,3.07,0,0,0,.31.37,7.42,7.42,0,0,0,4.68,2.34,7.87,7.87,0,0,1,5.8,3.25,3.77,3.77,0,0,1,.53,2.75c-.49,2.93-3.63,5.73-3.63,5.73-7,5.1-17.91,4.47-17.91,4.47"/><path class="cls-5" d="M223.88,370.51a7.94,7.94,0,0,0,1.91,6.61l3,3.39,20.37,22.83,20.7-10,23.71-16.62a7,7,0,0,1,1.63-.85l3-1.09a22.69,22.69,0,0,0,5.65-3l4.49-3.25a12.28,12.28,0,0,0,2.58-2.51l0,0,5.38-7a1.92,1.92,0,0,0,.39-1.15v-3.1a1.9,1.9,0,0,1,1.3-1.8h0a1.85,1.85,0,0,1,2.36,1.23l0,.11a12.25,12.25,0,0,1-.39,8.29l-1,2.53,5.23-.21L343,357.53a2.21,2.21,0,0,1,2.56.71,2.18,2.18,0,0,1,.46,1.34,2.23,2.23,0,0,1-1.31,2l-17.52,7.86,21.45-6.7a2.33,2.33,0,0,1,1.48,4.42L327,375.53l20.4-6.61a1.87,1.87,0,0,1,2.25,1,1.91,1.91,0,0,1,.17.77,1.86,1.86,0,0,1-1.05,1.68l-21.56,10.29,11.13-2.15a2.33,2.33,0,0,1,2.58,1.35,2.45,2.45,0,0,1,.2,1,2.25,2.25,0,0,1-1,1.92c-5,3.14-15,4.46-16.85,5.25a12.06,12.06,0,0,1-1.95.65c-5.19,1.32-11.23-.26-17.09-.41a10.22,10.22,0,0,0-7.49,3c-7,7-24.09,24.77-32.44,30.67-10.67,7.52-12.55,8.78-15.48,6.48s-8.34-5.35-19.14-15.12c-12.58-11.38-13.27-14.37-17.24-17.92s-15.33-10-20.65-17.36c-4.38-6,2.71-13.11,5.59-19.46,5-10.95-5.59-10.17-5.59-10.17l-3.33,0"/><path class="cls-5" d="M229.49,379.9s2.64-.92,6.27-2.36c5.6-2.21,13.55-5.63,17.9-8.79,5.34-3.89,27.09-7.14,43.12-6.05,5.49.37,10.31,1.26,13.57,2.8"/><path class="cls-5" d="M325.22,312.65s-.8,9.15-1.68,19.83c-1.11,13.55-2.35,29.58-2.23,32.5"/><path class="cls-5" d="M321.31,390.82s-3,22.18,10.43,26.74,17.38,4.34,28.67,2.82c10.41-1.4,33.39-12,47.63-14a33.86,33.86,0,0,1,3.41-.32c13.68-.48,24.54,1,32.58,1S455.76,405,455.76,405"/><path class="cls-5" d="M359,386.18c.42-.18,12-5.19,27.74,2.06a88.69,88.69,0,0,0,17.92,5.45,80.5,80.5,0,0,0,9.45,1.28c12.81.93,25.15,8.21,41.75,8.81a59.56,59.56,0,0,0,8.85-.34c15.79-1.77,25.13-2.47,30.76-2.71,2-.08,3.47-.11,4.65-.11,4.56,0,8,1.3,15.2.21,6.26-.95,15.85-1.89,23.38.49a18.55,18.55,0,0,0,9.3.43c6.68-1.36,15.87-4.89,11.84-13.95a10.31,10.31,0,0,0-8-4.78c-5.65-.43-7.6-3-13-2.17s-15.64,4.56-27.37,1.09-14.55-3.91-17.81,1.74"/><path class="cls-5" d="M500.07,385.41a18.94,18.94,0,0,1-6.48-1.69,36.9,36.9,0,0,1-4.82-2.43c-6.95-4.13-20-9.13-40.18-7.39"/><path class="cls-5" d="M452.72,376.73s-1.64-1-4.34-2.43c-6.14-3.26-17.77-8.82-28-10.17-14.77-2-39.07-13.84-39.07-13.84"/><path class="cls-5" d="M221.37,349.51s18.22,6,14.39,28"/><path class="cls-5" d="M229.62,302.42s-25.37-15.18-29.5-15.18h-8.44a5,5,0,0,1-2.74-.83,29.67,29.67,0,0,0-9.48-3.75,1.09,1.09,0,0,1,.25-2.15h8"/><path class="cls-5" d="M181.93,280.51l-5.39-4.61a1.39,1.39,0,0,1-.23-1.85l0,0a1.39,1.39,0,0,1,1.79-.41,1.43,1.43,0,0,1,.22.15l8.21,6.76"/><line class="cls-5" x1="181.98" y1="271.7" x2="189.99" y2="278.2"/><path class="cls-5" d="M178.13,273.57l0-.05a1.93,1.93,0,0,1,.2-3,1.91,1.91,0,0,1,2.31.1l1.38,1.12"/><path class="cls-5" d="M182,271.7h0a1.41,1.41,0,0,1,.06-2.22l.25-.19a1.43,1.43,0,0,1,1.66,0l10.11,7.13a.88.88,0,0,0,.8.13.91.91,0,0,0,.65-.88.93.93,0,0,0-.22-.6l-4.08-4.72a1.39,1.39,0,0,1,.48-2.17,1.42,1.42,0,0,1,.57-.12,1.37,1.37,0,0,1,1,.43l5.87,5.16a9.31,9.31,0,0,0,2.78,1.68l3.82,1.45a5.66,5.66,0,0,1,2.54,1.93,5.63,5.63,0,0,0,3.58,2.21c7.14,1.24,29.39,5.34,34.74,8.94,6.4,4.31,6.34,6.24,7.08,9"/><path class="cls-5" d="M206.57,322.87S209,311.51,223,308.82a21.24,21.24,0,0,1,6.58-6.4,24,24,0,0,1,12.64-3.67c3.53-.06,7.43.12,11.37.42,11.06.84,22.48,2.68,27.29,3.32,12.12,1.62,12,2.88,16.55,2.1,3.37-.58,9.29-2.3,24.71-5.87,21.51-5,48.87.9,57.34,23.92,4.36,11.84,4.46,20.06,1.76,27.65-2.54,7.17-7.59,13.76-13.92,22.31A77.09,77.09,0,0,0,359,386.18h0c-3.05,6.65-1.79,8.78-1.79,8.78"/><path class="cls-5" d="M309.86,309.12s-.25,5.13,5.91,11.94c7.29,8.07,7.74,11,7.77,11.42v.06"/><path class="cls-5" d="M297.59,305.42s-2,3.75-1.36,12.15a197.14,197.14,0,0,1,.61,28.46c-.61,11.76,0,15.83,0,15.83"/><path class="cls-5" d="M404.61,393.69s5.77,4.2,3.43,12.72"/><path class="cls-5" d="M493.55,383.68l0,0c.49.49,5.7,6,1.83,17"/></svg>