<svg id="Layer_1" data-name="Layer 1" xmlns="http://www.w3.org/2000/svg" viewBox="0 0 700 700"><defs><style>.cls-1{fill:#feae63;}.cls-2{fill:#99abcc;}.cls-3{fill:#c4e7f9;}.cls-4{fill:#392328;}.cls-5{fill:none;stroke:#000;stroke-linecap:round;stroke-linejoin:round;stroke-width:2.3px;}</style></defs><title>Yoga_poses_2020_color</title><path class="cls-1" d="M520.84,342.3c3.25,0,4.12,5.43,3.25,8.47s-8.9,12.16-12.38,13.25-10,1.52-14.11,1.52-8,0-11.08,1.74a6.69,6.69,0,0,1-5.83.45c2.58-3.77,6.77-9.6,8.87-15a10.76,10.76,0,0,0,.55-1.93,28.93,28.93,0,0,0,9-3.28c4.56-2.61,7.38-3.91,9.55-3.91S517.58,342.3,520.84,342.3Z"/><path class="cls-1" d="M520.55,342l.29.32c-3.26,0-10,1.3-12.17,1.3s-5,1.3-9.55,3.91a28.93,28.93,0,0,1-9,3.28,14.84,14.84,0,0,0,.16-4.59h.1s8.79-2.82,13.79-5c2.83-1.23,6.9-1.69,9.91-1.87A8.15,8.15,0,0,1,520.55,342Z"/><path class="cls-2" d="M461.27,363.44a10,10,0,0,0-3.85,2.1c-4.78,4.34-19.12,6.73-22.81,7.38s-47.13,1.52-57.56-4.78c-9.65-5.84-10.92-6.82-16.94-6.94h0s-4.34-4.56-4.78-9.12c-1.21-21.71,3.48-30.44,3.48-30.44h0a33.17,33.17,0,0,0,6.52.26c13.24-.87,18.89-2.39,24.54-1.95s9.12,3,14.77,0,25-15,34.75-14.77,15,6.3,20.85,21.5l0,.19c6.77-.56,13.65-.35,18.44,2.42a23.14,23.14,0,0,1,11.57,16.93,14.84,14.84,0,0,1-.16,4.59,10.76,10.76,0,0,1-.55,1.93c-2.1,5.41-6.29,11.24-8.87,15-.63.93-1.16,1.73-1.55,2.37-2,3.26-14.12,6.51-17.6-3.48l-.21-3Z"/><path class="cls-1" d="M405.73,382.85a1.67,1.67,0,0,1,.58,2.18l-1.86,3.53-5.57,6a3.69,3.69,0,0,1-2.72,1.18h-5.69v-.34a4,4,0,0,0,2.64-1l8-7.05a1.86,1.86,0,0,0,.37-2.33l.85-.27,1.18-1.51a1.67,1.67,0,0,1,1.31-.63A1.65,1.65,0,0,1,405.73,382.85Z"/><path class="cls-1" d="M390.47,395.38v.34h-7.68l-12.05-5.21c-35.52-.65-55.71-9.89-58.65-10.54s-25.73-2.28-39.42-2.28c-6.87,0-10.78-2.26-13-4.5h0a45.77,45.77,0,0,1-6.2-3.58,10.63,10.63,0,0,1-3.6-7.66c-.22-7.35,4.17-15,8.13-16.95,4.89-2.41,21.16-9.3,21.16-9.3,6.5,1.16,12.39,18.44,12.39,18.44l-.17.55c4.46,1.37,9.12,3,13.21,3.95a84.84,84.84,0,0,1,12.5,3.89c1.4.56,2.79,1.15,4.28,1.8,7.23,3.12,9.94,5,14.82,6.15s14.66,2.61,21.67,6.19a23,23,0,0,0,13,2.61,11.07,11.07,0,0,1,6.51-2.61,12.86,12.86,0,0,1,6.36,1.8l4.23.81,3.47.72a2.39,2.39,0,0,1,1.92,2.35c0,.06,0,.12,0,.18a2.38,2.38,0,0,1-2.39,2.21h-1.36l-5.05-1.22H379l7.33,4.39,6,.82,6.54-4.32a1.82,1.82,0,0,1,1-.31,1.87,1.87,0,0,1,1.4.63,1.31,1.31,0,0,1,.2.28,1.86,1.86,0,0,1-.37,2.33l-8,7.05A4,4,0,0,1,390.47,395.38Z"/><path class="cls-3" d="M360.11,361.19h-1.52l-41.49,1.33a84.84,84.84,0,0,0-12.5-3.89c-4.09-1-8.75-2.58-13.21-3.95l.17-.55s-5.89-17.28-12.39-18.44l1.17-.37a11.47,11.47,0,0,0-3-11.7c4.56-5.21,11.51-10.86,22.59-10.86s14.34,2.17,26.28,1.74c10-.37,21.37,5.66,32.58,7.12h0s-4.69,8.73-3.48,30.44C355.77,356.63,360.11,361.19,360.11,361.19Z"/><path class="cls-1" d="M223.73,354.84a8.3,8.3,0,0,1-1.91.28c-5.78-1.14-1.94-5.79-1.94-5.79.23-2.34-1.21-6.19-5.06-8.48s-7.32-1.76-9.74-5.67c-1.21-2-7.26-10.47-7.26-10.47l1.82-.35s8.21-3.55,13.63-3.35c4.26.16,4.93,1.51,7.64-.4l5.44-2.5,1,5.06,10,1.18c.88-.35,7.81-1.74,5.8,9.06,0,0-.28,3.45,7,3.61h9.44c.91,0,6.32-3.29,7.13-3.69a91.46,91.46,0,0,0,10.65-9.71,11.47,11.47,0,0,1,3,11.7l-1.17.37S262.9,342.58,258,345c-4,1.95-8.35,9.6-8.13,16.95-3.83-2.25-13.83-.68-14.23-.61h0a11.47,11.47,0,0,0-5.5-2.14c-4,.35-6-3.42-6.35-4.11Zm-3.47-28.28c.06-.62-1.06-1.22-2.49-1.35s-2.64.28-2.7.9,1.07,1.23,2.5,1.35S220.21,327.18,220.26,326.56Z"/><path class="cls-4" d="M223.79,355.08c.34.69,2.39,4.46,6.35,4.11a11.47,11.47,0,0,1,5.5,2.14h0a4,4,0,0,1,1.49,3.42c-.3,4.82-4.54,4.72-10.34,4.9-4.39.14-9.55-.13-12.25.1a61.22,61.22,0,0,1-11.37-.13C196,369,193.83,364,193.83,364c-.49-.76-1-1.52-1.36-2.27a31.79,31.79,0,0,1-2.95-6.95c-2.93-10.36,1-19.42,6.92-29.76l1.38-.27s6.05,8.49,7.26,10.47c2.42,3.91,5.89,3.38,9.74,5.67s5.29,6.14,5.06,8.48c0,0-3.84,4.65,1.94,5.79a8.3,8.3,0,0,0,1.91-.28Z"/><path d="M217.77,325.21c1.43.13,2.55.73,2.49,1.35s-1.25,1-2.69.9-2.55-.73-2.5-1.35S216.33,325.09,217.77,325.21Z"/><path class="cls-4" d="M192.42,361.72c3.52,8.23-4.76,7.1-9.76,6.8s-8.2-5.19-3.45-11.07,10.17-2.67,10.17-2.67l.14,0a31.79,31.79,0,0,0,2.95,6.95Z"/><path class="cls-5" d="M266.71,333.33a91.46,91.46,0,0,0,10.65-9.71c4.56-5.21,11.51-10.86,22.59-10.86s14.34,2.17,26.28,1.74c10-.37,21.37,5.66,32.58,7.12a33.17,33.17,0,0,0,6.52.26c13.24-.87,18.89-2.39,24.54-1.95s9.12,3,14.77,0,25-15,34.75-14.77,15,6.3,20.85,21.5"/><path class="cls-5" d="M384.66,326.22s10.64-1.33,18.46,1.73,30.4,1.53,38.88,1.1c4.32-.22,11.23-1.63,18.26-2.2,6.77-.56,13.65-.35,18.44,2.42a23.14,23.14,0,0,1,11.57,16.93,14.84,14.84,0,0,1-.16,4.59,10.76,10.76,0,0,1-.55,1.93c-2.1,5.41-6.29,11.24-8.87,15-.63.93-1.16,1.73-1.55,2.37-2,3.26-14.12,6.51-17.6-3.48l-.21-3"/><path class="cls-5" d="M471.53,363.15s-5.54-1.16-10.26.29a10,10,0,0,0-3.85,2.1c-4.78,4.34-19.12,6.73-22.81,7.38s-47.13,1.52-57.56-4.78c-9.65-5.84-10.92-6.82-16.94-6.94h-1.52l-41.49,1.33"/><path class="cls-5" d="M480.69,367.73a6.69,6.69,0,0,0,5.83-.45c3-1.74,7-1.74,11.08-1.74s10.64-.44,14.11-1.52,11.52-10.21,12.38-13.25,0-8.47-3.25-8.47-10,1.3-12.17,1.3-5,1.3-9.55,3.91a28.93,28.93,0,0,1-9,3.28"/><path class="cls-5" d="M358.81,321.63s-4.69,8.73-3.48,30.44c.44,4.56,4.78,9.12,4.78,9.12"/><path class="cls-5" d="M277.36,323.62a11.47,11.47,0,0,1,3,11.7"/><path class="cls-5" d="M219.88,349.33s-3.84,4.65,1.94,5.79a8.3,8.3,0,0,0,1.91-.28,8,8,0,0,0,5.68-4.86s.72-3.14-2.92-1.62"/><path class="cls-5" d="M234,347.83s5.33-.55,6.39-5.2"/><path class="cls-5" d="M197.82,324.71s6.05,8.49,7.26,10.47c2.42,3.91,5.89,3.38,9.74,5.67s5.29,6.14,5.06,8.48"/><path class="cls-5" d="M189.38,354.78s-5.41-3.21-10.17,2.67-1.53,10.77,3.45,11.07,13.28,1.43,9.76-6.8"/><path class="cls-5" d="M235.65,361.33a4,4,0,0,1,1.49,3.42c-.3,4.82-4.54,4.72-10.34,4.9-4.39.14-9.55-.13-12.25.1a61.22,61.22,0,0,1-11.37-.13C196,369,193.83,364,193.83,364c-.49-.76-1-1.52-1.36-2.27a31.79,31.79,0,0,1-2.95-6.95c-2.93-10.36,1-19.42,6.92-29.76l1.38-.27,1.82-.35s8.21-3.55,13.63-3.35c4.26.16,4.93,1.51,7.64-.4l5.44-2.5,1,5.06,10,1.18c.88-.35,7.81-1.74,5.8,9.06,0,0-.28,3.45,7,3.61h9.44c.91,0,6.32-3.29,7.13-3.69"/><path class="cls-5" d="M223.74,355l0,.1c.34.69,2.39,4.46,6.35,4.11a11.47,11.47,0,0,1,5.5,2.14"/><path class="cls-5" d="M235.64,361.33h0c.4-.07,10.4-1.64,14.23.61"/><path class="cls-5" d="M291.56,354.13s-5.89-17.28-12.39-18.44c0,0-16.27,6.89-21.16,9.3-4,1.95-8.35,9.6-8.13,16.95a10.63,10.63,0,0,0,3.6,7.66,45.77,45.77,0,0,0,6.2,3.58"/><path class="cls-5" d="M257,368.74a10.22,10.22,0,0,0,2.64,4.44h0c2.19,2.24,6.1,4.5,13,4.5,13.69,0,36.49,1.63,39.42,2.28s23.13,9.89,58.65,10.54l12.05,5.21h13.37a3.69,3.69,0,0,0,2.72-1.18l5.57-6,1.86-3.53a1.67,1.67,0,0,0-.58-2.18,1.65,1.65,0,0,0-.9-.26,1.67,1.67,0,0,0-1.31.63l-1.18,1.51"/><path class="cls-5" d="M382.79,393.77l6.81,1.51a4.3,4.3,0,0,0,.87.1,4,4,0,0,0,2.64-1l8-7.05a1.86,1.86,0,0,0,.37-2.33,1.31,1.31,0,0,0-.2-.28,1.87,1.87,0,0,0-1.4-.63,1.82,1.82,0,0,0-1,.31l-6.54,4.32-6-.82L379,383.51h5.54l5.05,1.22H391a2.38,2.38,0,0,0,2.39-2.21c0-.06,0-.12,0-.18a2.39,2.39,0,0,0-1.92-2.35l-3.47-.72-4.23-.81a12.86,12.86,0,0,0-6.36-1.8,11.07,11.07,0,0,0-6.51,2.61,23,23,0,0,1-13-2.61c-7-3.58-16.78-5.05-21.67-6.19s-7.59-3-14.82-6.15c-1.49-.65-2.88-1.24-4.28-1.8a84.84,84.84,0,0,0-12.5-3.89c-4.09-1-8.75-2.58-13.21-3.95a56.33,56.33,0,0,0-10.25-2.4s-2.28-3.91-3.91-4.72"/><path class="cls-5" d="M490.37,346.19s8.79-2.82,13.79-5c2.83-1.23,6.9-1.69,9.91-1.87a8.15,8.15,0,0,1,6.48,2.65l.29.32"/></svg>