<svg id="Layer_1" data-name="Layer 1" xmlns="http://www.w3.org/2000/svg" viewBox="0 0 700 700"><defs><style>.cls-1{fill:#feae63;}.cls-2{fill:#99abcc;}.cls-3{fill:#c4e7f9;}.cls-4{fill:#120c0c;}.cls-5{fill:none;stroke:#000;stroke-linecap:round;stroke-linejoin:round;stroke-width:2.3px;}</style></defs><title>Yoga_poses_2020_color</title><path class="cls-1" d="M502.28,351.86a3.71,3.71,0,0,1-.43,3l-2.09,2.1s-1.4,5.93-6.75,8-12.34.38-17.93,4.1-12.33,15.37-18.39,9.08c-4.74-4.92-4.77-8.42-10.83-13.17h0s7.44-6.33,8.33-15.07c3.52,1.93,6.57,3.27,8.79,3.58,8.38,1.16,24.91,3,29.33,1.39a27.73,27.73,0,0,0,6.8-3.88A2,2,0,0,1,502.28,351.86Z"/><path class="cls-2" d="M454.19,349.86h0c-.89,8.74-8.33,15.07-8.33,15.07h0a49.64,49.64,0,0,0-6.63-4.29c-13-7.21-29.56-10-39.34-18.39L397.24,340,393,336.32l-3.66-3.18-1.52-1.34c-5.74-5-12.27,5.17-12.27,5.17l-4,5.74a5.49,5.49,0,0,0-1,3.18,5.53,5.53,0,0,1-2.27,4.47l-1.92,1.4c.37-1.21.84-2.56,1.42-4,5.87-15-.65-34.86-.65-34.86l.17-.19c1.12-1.23,7.45-7.85,13.58-7.64,6.75.23,11.4,3.26,19.08,8.61s10.25,7.92,22.35,15.36C431.14,334.48,444.44,344.48,454.19,349.86Z"/><path class="cls-2" d="M361.94,399.15c-2.89-3.14-5.76-6.33-8.42-9.43-2.93-3.42-5.63-6.73-7.85-9.74l-3.87-5.38-3.72-5.19a16.06,16.06,0,0,1-3-9c-.06-3.88.57-9,3.61-12.51A102.36,102.36,0,0,0,352,326.51a36.24,36.24,0,0,0,3.28-13.57,14.55,14.55,0,0,1,11.76-.08s6.52,19.88.65,34.86c-.58,1.48-1,2.83-1.42,4-2.82,9.27.23,11.37,5.95,15.26,1.11.75,2.33,1.57,3.62,2.53C382.43,374.42,405,384,415.17,401v0a33.9,33.9,0,0,1,5,20c-1.53,23.48-26.83,26.56-47.92,26h0s-9.63-18.86-12.67-29.6c-2.72-9.61-2-16.29-1.78-17.59l3.64-.23Z"/><path class="cls-2" d="M407.13,381c6.16,12.62,7.94,19.65,8,20.08-10.19-17-32.74-26.61-39.31-31.48-1.29-1-2.51-1.78-3.62-2.53l6.83-8a4.49,4.49,0,0,1,3.43-1.59h3.33a17.66,17.66,0,0,0,3.9-.43l2-.45h4.89S400.78,367.92,407.13,381Z"/><path class="cls-1" d="M398.31,351.52a1.69,1.69,0,0,1,0,.38,1.78,1.78,0,0,1-1.45,1.74l-.3.05h-3.71a1.46,1.46,0,0,1-1.46-1.39v-.06a1.42,1.42,0,0,1,.87-1.33l2.69-.52h0l1.56-.26A1.77,1.77,0,0,1,398.31,351.52Z"/><path class="cls-1" d="M397.6,342.72a2.7,2.7,0,0,1-.34,1.29,2.66,2.66,0,0,1-1.38,1.18L392,346.65a2.45,2.45,0,0,1-1.66-4.6l3.41-1.44a4,4,0,0,1,.49-.15l.62-.14a2.22,2.22,0,0,1,1.81.4,2.12,2.12,0,0,1,.59.64A2.58,2.58,0,0,1,397.6,342.72Z"/><path class="cls-1" d="M392.3,350.91a1.42,1.42,0,0,0-.87,1.33v.06a1.46,1.46,0,0,0,1.46,1.39h3.71a1.42,1.42,0,0,1,0,2.83h-4.89l-2,.45a17.66,17.66,0,0,1-3.9.43H382.5a4.49,4.49,0,0,0-3.43,1.59l-6.83,8c-5.72-3.89-8.77-6-5.95-15.26l1.92-1.4a5.53,5.53,0,0,0,2.27-4.47,5.49,5.49,0,0,1,1-3.18l4-5.74s6.53-10.18,12.27-5.17l1.52,1.34-2.53,2a1.7,1.7,0,0,0-.66,1.35,1.67,1.67,0,0,0,.14.69,1.72,1.72,0,0,0,2.18.92l4.46-1.68.07-.08,4.26,3.68-.62.72a2.22,2.22,0,0,0-1.81-.4l-.62.14a4,4,0,0,0-.49.15l-3.41,1.44a2.45,2.45,0,0,0,1.66,4.6l2.44-.49a2.13,2.13,0,0,1,.81-.16,2.16,2.16,0,0,1,.37,4.28l-.55.1h0Z"/><path class="cls-1" d="M393,336.32l-.07.08-4.46,1.68a1.72,1.72,0,0,1-2.18-.92,1.67,1.67,0,0,1-.14-.69,1.7,1.7,0,0,1,.66-1.35l2.53-2Z"/><path class="cls-1" d="M358,276.31a1.34,1.34,0,0,1,1.18-1.48h.15A1.35,1.35,0,0,1,360.7,276l.68,4.21-.42-2.78a1.39,1.39,0,0,1,1.22-1.52h.15a1.38,1.38,0,0,1,1.37,1.23l0,.32.18,2.55,2.15,3.16,2.7,13.71a4.93,4.93,0,0,0,.53,1.35l2.64,4.6a4.84,4.84,0,0,1,.63,1.92,5.25,5.25,0,0,1,0,.56,4.94,4.94,0,0,1-2.87,4.48l-2.49,2.88-.17.19a14.55,14.55,0,0,0-11.76.08c0-.27,0-.55,0-.82l.07-3.21a36.66,36.66,0,0,0-1.79-12.12l-2.31-7.1-1.82-4.38-.43-3.53-1.25-5.23a1.82,1.82,0,0,1,1.31-2.12,2,2,0,0,1,.47-.06,1.81,1.81,0,0,1,1.77,1.43l1.41,4.76-.54-5a1.42,1.42,0,0,1,1.24-1.58h.18a1.42,1.42,0,0,1,1.42,1.26l0,.31a1.4,1.4,0,0,1,1.25-1.56h.16a1.42,1.42,0,0,1,1.41,1.26Z"/><path class="cls-3" d="M372.24,447.05h0c-5.84-.16-11.36-.59-15.95-.94-21.21-1.63-22.79-.34-52.76,0a71.22,71.22,0,0,1-12-.8c.43-.09,12.06-2.54,14-9.44s0-8.33,0-8.33l-.1-.11c2.08-1.81,4.64-4,7.59-6.39,6-4.87,18.81-14.37,26.47-20h0l18.33-1.19c-.19,1.3-.94,8,1.78,17.59C362.61,428.19,372.24,447.05,372.24,447.05Z"/><path class="cls-1" d="M305.39,427.43l.1.11s1.95,1.3,0,8.33-13.55,9.35-14,9.44h0c-7.06-1.13-11.79-3.31-14.94-5.59,0,0-9.87-16.47,0-26,7-6.78,12.56-4.29,23.49-9.44,1.39-.65,2.87-1.43,4.46-2.37l16.39-10.13,9.47-5.85a22.54,22.54,0,0,0,5.49-4.77l4.81-5.78,1.13-.81,3.87,5.38c2.22,3,4.92,6.32,7.85,9.74l-8,6.87-6.1,4.46h0c-7.66,5.62-20.51,15.12-26.47,20C310,423.45,307.47,425.62,305.39,427.43Z"/><path class="cls-3" d="M320.47,391.11l.43.7-16.39,10.13c-1.59.94-3.07,1.72-4.46,2.37.43-6.72-4.35-9.36-4.35-9.36,1.75-1.12,3.42-2.25,4.86-3.3C308.71,385.71,320.47,391.11,320.47,391.11Z"/><path class="cls-1" d="M245.21,420.76a8.3,8.3,0,0,1-1.91.28c-5.77-1.15-1.94-5.79-1.94-5.79.23-2.34-1.2-6.19-5.05-8.48s-7.33-1.77-9.74-5.68c-1.22-2-7.26-10.46-7.26-10.46l1.82-.35s8.2-3.55,13.62-3.35c4.27.16,4.94,1.5,7.64-.4l5.45-2.5,1,5.06,10,1.18c.87-.35,7.8-1.74,5.8,9.06,0,0-1.25,3.46.09,3.61a84.7,84.7,0,0,0,12.84,1.2,9.75,9.75,0,0,0,4.84-1.24c2.35-1.32,8.14-4.63,13.29-7.95,0,0,4.78,2.64,4.35,9.36-10.93,5.15-16.45,2.66-23.49,9.44-9.87,9.5,0,26,0,26a18.24,18.24,0,0,1-4.58-4.63,18.85,18.85,0,0,0-10.64-7.91,20.14,20.14,0,0,0-8.15-.63,15.25,15.25,0,0,0-1.57-1.44,36.42,36.42,0,0,0-6.37-4.19Zm-3.46-28.28c.05-.62-1.07-1.23-2.5-1.35s-2.64.28-2.69.9,1.06,1.22,2.5,1.35S241.69,393.1,241.75,392.48Z"/><path class="cls-4" d="M245.25,420.92a36.42,36.42,0,0,1,6.37,4.19,15.25,15.25,0,0,1,1.57,1.44c5.78,6.07-4.07,7.79-4.07,7.79-4.36.51-10.39,1.1-13.08,1.33a63.11,63.11,0,0,1-11.38-.13c-7.16-.67-9.34-5.66-9.34-5.66-.53-.83-1-1.64-1.47-2.45a30.84,30.84,0,0,1-3.28-8.56c-2-9.63,1.81-18.23,7.35-28l1.39-.26s6,8.49,7.26,10.46c2.41,3.91,5.88,3.39,9.74,5.68s5.28,6.14,5.05,8.48c0,0-3.83,4.64,1.94,5.79a8.3,8.3,0,0,0,1.91-.28Z"/><path d="M239.25,391.13c1.43.12,2.55.73,2.5,1.35s-1.26,1-2.69.9-2.55-.73-2.5-1.35S237.82,391,239.25,391.13Z"/><path class="cls-4" d="M213.85,427.43c3.17,8.38-5.76,5.43-10.74,4.92s-8-5.52-3-11.2,10.26-2.24,10.26-2.24l.18,0A30.84,30.84,0,0,0,213.85,427.43Z"/><path class="cls-5" d="M241.36,415.25s-3.83,4.64,1.94,5.79a8.3,8.3,0,0,0,1.91-.28,8.06,8.06,0,0,0,5.69-4.86s.71-3.15-2.93-1.62"/><path class="cls-5" d="M255.43,413.75s5.33-.55,6.39-5.21"/><path class="cls-5" d="M219.31,390.63s6,8.49,7.26,10.46c2.41,3.91,5.88,3.39,9.74,5.68s5.28,6.14,5.05,8.48"/><path class="cls-5" d="M210.39,418.91s-5.27-3.44-10.26,2.24-2,10.7,3,11.2,13.91,3.46,10.74-4.92"/><path class="cls-5" d="M245.22,420.9l0,0a36.42,36.42,0,0,1,6.37,4.19,15.25,15.25,0,0,1,1.57,1.44c5.78,6.07-4.07,7.79-4.07,7.79-4.36.51-10.39,1.1-13.08,1.33a63.11,63.11,0,0,1-11.38-.13c-7.16-.67-9.34-5.66-9.34-5.66-.53-.83-1-1.64-1.47-2.45a30.84,30.84,0,0,1-3.28-8.56c-2-9.63,1.81-18.23,7.35-28l1.39-.26,1.82-.35s8.2-3.55,13.62-3.35c4.27.16,4.94,1.5,7.64-.4l5.45-2.5,1,5.06,10,1.18c.87-.35,7.8-1.74,5.8,9.06,0,0-1.25,3.46.09,3.61a84.7,84.7,0,0,0,12.84,1.2,9.75,9.75,0,0,0,4.84-1.24c2.35-1.32,8.14-4.63,13.29-7.95,1.75-1.12,3.42-2.25,4.86-3.3,8.15-5.94,19.91-.54,19.91-.54"/><path class="cls-5" d="M291.51,445.31c.43-.09,12.06-2.54,14-9.44s0-8.33,0-8.33"/><path class="cls-5" d="M339.46,401.05l6.1-4.46,8-6.87h0"/><path class="cls-5" d="M298.93,433.27s2.32-2.23,6.46-5.84c2.08-1.81,4.64-4,7.59-6.39,6-4.87,18.81-14.37,26.47-20"/><path class="cls-5" d="M276.56,439.72s-9.87-16.47,0-26c7-6.78,12.56-4.29,23.49-9.44,1.39-.65,2.87-1.43,4.46-2.37l16.39-10.13,9.47-5.85a22.54,22.54,0,0,0,5.49-4.77l4.81-5.78"/><path class="cls-5" d="M445.86,364.94s7.44-6.33,8.33-15.07"/><path class="cls-5" d="M372.24,367l6.83-8a4.49,4.49,0,0,1,3.43-1.59h3.33a17.66,17.66,0,0,0,3.9-.43l2-.45h4.89a1.42,1.42,0,0,0,0-2.83h-3.71a1.46,1.46,0,0,1-1.46-1.39v-.06a1.42,1.42,0,0,1,.87-1.33,1.06,1.06,0,0,1,.34-.12l.49-.09"/><path class="cls-5" d="M415.18,401.05a33.9,33.9,0,0,1,5,20c-1.53,23.48-26.83,26.56-47.92,26-5.84-.16-11.36-.59-15.95-.94-21.21-1.63-22.79-.34-52.76,0a71.22,71.22,0,0,1-12-.8h0c-7.06-1.13-11.79-3.31-14.94-5.59a18.24,18.24,0,0,1-4.58-4.63,18.85,18.85,0,0,0-10.64-7.91,20.14,20.14,0,0,0-8.15-.63"/><path class="cls-5" d="M367.06,312.86s6.52,19.88.65,34.86c-.58,1.48-1,2.83-1.42,4-2.82,9.27.23,11.37,5.95,15.26,1.11.75,2.33,1.57,3.62,2.53C382.43,374.42,405,384,415.17,401"/><path class="cls-5" d="M366.29,351.76l1.92-1.4a5.53,5.53,0,0,0,2.27-4.47,5.49,5.49,0,0,1,1-3.18l4-5.74s6.53-10.18,12.27-5.17l1.52,1.34,3.66,3.18,4.26,3.68,2.65,2.27c9.78,8.38,26.31,11.18,39.34,18.39a49.64,49.64,0,0,1,6.63,4.29c6.06,4.75,6.09,8.25,10.83,13.17,6.06,6.29,12.81-5.35,18.39-9.08s12.57-2,17.93-4.1,6.75-8,6.75-8l2.09-2.1a3.71,3.71,0,0,0,.43-3,2,2,0,0,0-3.17-.9,27.73,27.73,0,0,1-6.8,3.88c-4.42,1.63-20.95-.23-29.33-1.39-2.22-.31-5.27-1.65-8.79-3.58h0c-9.75-5.38-23.05-15.38-31.95-20.86-12.1-7.44-14.66-10-22.35-15.36s-12.33-8.38-19.08-8.61c-6.13-.21-12.46,6.41-13.58,7.64"/><path class="cls-5" d="M395,350.38l.55-.1a2.16,2.16,0,0,0-.37-4.28,2.13,2.13,0,0,0-.81.16l-2.44.49"/><polyline class="cls-5" points="392.27 350.91 392.31 350.91 395 350.39"/><path class="cls-5" d="M392,346.65a2.45,2.45,0,0,1-1.66-4.6l3.41-1.44a4,4,0,0,1,.49-.15l.62-.14a2.22,2.22,0,0,1,1.81.4,2.12,2.12,0,0,1,.59.64,2.58,2.58,0,0,1,.39,1.36,2.7,2.7,0,0,1-.34,1.29,2.66,2.66,0,0,1-1.38,1.18Z"/><path class="cls-5" d="M392.91,336.4l-4.46,1.68a1.72,1.72,0,0,1-2.18-.92,1.67,1.67,0,0,1-.14-.69,1.7,1.7,0,0,1,.66-1.35l2.53-2"/><path class="cls-5" d="M395,350.39h0l1.56-.26a1.77,1.77,0,0,1,1.73,1.4,1.69,1.69,0,0,1,0,.38,1.78,1.78,0,0,1-1.45,1.74l-.3.05"/><path class="cls-5" d="M396.6,356.52s4.18,11.4,10.53,24.43c6.16,12.62,7.94,19.65,8,20.08v0"/><path class="cls-5" d="M358.43,279.84l-.39-3.53a1.34,1.34,0,0,1,1.18-1.48h.15A1.35,1.35,0,0,1,360.7,276l.68,4.21-.42-2.78a1.39,1.39,0,0,1,1.22-1.52h.15a1.38,1.38,0,0,1,1.37,1.23l0,.32.18,2.55,2.15,3.16,2.7,13.71a4.93,4.93,0,0,0,.53,1.35l2.64,4.6a4.84,4.84,0,0,1,.63,1.92,5.25,5.25,0,0,1,0,.56,4.94,4.94,0,0,1-2.87,4.48l-2.49,2.88-.17.19a14.55,14.55,0,0,0-11.76.08"/><path class="cls-5" d="M355.66,280.62l-.56-5.07a1.4,1.4,0,0,1,1.25-1.56h.16a1.42,1.42,0,0,1,1.41,1.26l.12,1.07"/><path class="cls-5" d="M387.8,425.57s-13.24-12.73-25.86-26.42c-2.89-3.14-5.76-6.33-8.42-9.43-2.93-3.42-5.63-6.73-7.85-9.74l-3.87-5.38-3.72-5.19a16.06,16.06,0,0,1-3-9c-.06-3.88.57-9,3.61-12.51A102.36,102.36,0,0,0,352,326.51a36.24,36.24,0,0,0,3.28-13.57c0-.27,0-.55,0-.82l.07-3.21a36.66,36.66,0,0,0-1.79-12.12l-2.31-7.1-1.82-4.38-.43-3.53-1.25-5.23a1.82,1.82,0,0,1,1.31-2.12,2,2,0,0,1,.47-.06,1.81,1.81,0,0,1,1.77,1.43l1.41,4.76-.54-5a1.42,1.42,0,0,1,1.24-1.58h.18a1.42,1.42,0,0,1,1.42,1.26l0,.31"/><path class="cls-5" d="M295.7,395s4.78,2.64,4.35,9.36"/><polyline class="cls-5" points="339.45 401.05 339.46 401.05 357.8 399.86 361.44 399.63"/><path class="cls-5" d="M357.83,399.63s0,.08,0,.23c-.19,1.3-.94,8,1.78,17.59,3,10.74,12.67,29.6,12.67,29.6"/></svg>