<svg id="Layer_1" data-name="Layer 1" xmlns="http://www.w3.org/2000/svg" viewBox="0 0 700 700"><defs><style>.cls-1{fill:#feae63;}.cls-2{fill:#99abcc;}.cls-3{fill:#c4e7f9;}.cls-4{fill:#120c0c;}.cls-5{fill:none;stroke:#000;stroke-linecap:round;stroke-linejoin:round;stroke-width:2.3px;}</style></defs><title>Yoga_poses_2020_color</title><path class="cls-1" d="M564.81,404.62v0l.77-1.93a1.88,1.88,0,0,1,1.32-1.13,2.1,2.1,0,0,1,.43-.05,1.85,1.85,0,0,1,1.11.37,1.82,1.82,0,0,1,.65.86,4.5,4.5,0,0,1,.17,2.44,6,6,0,0,0,.46,4.3c1.36,2.11,1.87,4.83.36,10.11s-6.18,11.89-7.08,17.63c-.42,2.65-.39,5.83-1,7.65a5.31,5.31,0,0,1-4.92,3.64,19.74,19.74,0,0,1-6-.29c-3-.62-10.22-4.32-20.74-4.27,2.62-7.85-1.63-17.3-1.63-17.3v0c14.57.32,17.44-2.17,17.44-2.17,5.84-4.88,5.62-5.29,11.62-11s6.84-10.5,6.84-10.5l.22,1.7Z"/><path class="cls-1" d="M568.6,401.67l-.15.19a1.85,1.85,0,0,0-1.11-.37,2.1,2.1,0,0,0-.43.05,1.88,1.88,0,0,0-1.32,1.13l-.77,1.93v0l0,0-.22-1.7-.28-2.24a2.45,2.45,0,0,1,0-.27,2,2,0,0,1,1.6-2,2,2,0,0,1,1.95.59,2.06,2.06,0,0,1,.42.66A5.84,5.84,0,0,1,568.6,401.67Z"/><path class="cls-1" d="M566.8,396.2a6.21,6.21,0,0,1,1,2.79,2,2,0,0,0-1.95-.59,2,2,0,0,0-1.6,2,2.45,2.45,0,0,0,0,.27,28.53,28.53,0,0,0-1.53-3.5,1.1,1.1,0,0,1,.15-1.4,2.65,2.65,0,0,1,1.77-.66A2.62,2.62,0,0,1,566.8,396.2Z"/><path class="cls-2" d="M328.75,403.22l-3.95-6.83c2.58-3,5.13-5.86,7-7.94l11.79-16.12,1.35-2.44h0l3.09-.86,4.57-5s1.93,5.45,8.18,14.25c6.74,9.49,12.89,18.88,12.89,18.88,35.45.09,60.1,10.63,69.94,13.79a15.74,15.74,0,0,1,3.63,1.68l4.12,2.59a16.17,16.17,0,0,0,7.87,2.44c14.83.67,20.3,3.78,49.7,7.37,8.2,1,14.64,1.44,19.67,1.55v0s4.25,9.45,1.63,17.3a45.56,45.56,0,0,0-5.67.39c-13.59,1.81-33.38,4.08-54.36,3.95s-26.72-6.21-30.79-7-18.11-.91-18.11-.91c-8.61-.3-30.32,1.82-41,1.82l-.34.1c-2.39,3.18-9.79,4.88-16.89,5.29-17.15,1-22.59-3.26-28.67-4.35a28,28,0,0,0-4.78-.27h0c-2.61-5.93-1.52-22.52-3.26-26.58s-1.09-13.31-1.09-13.31C326.61,403.09,327.88,403.13,328.75,403.22Z"/><path class="cls-1" d="M262.88,441.86s2.87,3.06-1.23,7.09c-5.35,1.16-9.75,1.92-9.75,1.92-14.11.84-23.09-1.57-28.42-4.55l.15-.26s-8.12-8.82,4.94-24.36c3.76-4.47,11.86-4.93,21.07-5.61,8.18-.62,17.23-1.41,24.88-5.33,0,0,16-6.23,20.84-10,0,0,1.29-1.42,3.42-3.65A215.24,215.24,0,0,1,319,378.3c.82-.64,1.64-1.26,2.45-1.86,12.14-8.92,12.89-13.9,12.89-13.9l-1-3.23a7,7,0,0,1,.17-4.51L335,350a4.69,4.69,0,0,1,.66-1.37l3.55-5.22.06-.07,1.24-1.49a2,2,0,0,1,3.5,1.27v1a1.48,1.48,0,0,1,0,.21l1.16.13a1.36,1.36,0,0,0,.43,1.29l1.28,1.13a1.39,1.39,0,0,0,.9.33,1.35,1.35,0,0,0,.94-.37l2.18,2.21a1.15,1.15,0,0,0-.66,1.25l.35,1.95a.28.28,0,0,0,0,.09l.21,2.1a1.15,1.15,0,0,0,1,1l.32,0h.16l1.06.93-.35.31a1.7,1.7,0,0,0,1.14,3l2.07.12a2.6,2.6,0,0,1-1.47,2.76l-1.32.62-.76.83-4.57,5-3.09.86h0l-1.35,2.44-11.79,16.12c-1.9,2.08-4.45,5-7,7.94-2.05,2.36-4.12,4.77-5.88,6.83-2,2.36-3.6,4.28-4.33,5.2-2.16,2.74-1.16,3.24-4.81,5.22s-9.11,5.47-15.41,9.75S267.35,440.5,262.88,441.86Z"/><path class="cls-1" d="M356.06,357.09a1.7,1.7,0,0,1-.81,2.28l-.4.19a1.75,1.75,0,0,1-.73.16,1.7,1.7,0,0,1-1.14-3l.35-.31A1.7,1.7,0,0,1,356,357Z"/><path class="cls-1" d="M355.41,363.1a1.73,1.73,0,1,1-1.74,1.73A1.73,1.73,0,0,1,355.41,363.1Z"/><path class="cls-1" d="M353.46,350.54a2.09,2.09,0,0,1,.53,2l-.62,2.12a1.13,1.13,0,0,1-1.1.83h-.16l-.32,0a1.15,1.15,0,0,1-1-1l-.21-2.1a.28.28,0,0,1,0-.09l-.35-1.95a1.15,1.15,0,0,1,.66-1.25,1.29,1.29,0,0,1,.48-.1,1.13,1.13,0,0,1,.81.33Z"/><path class="cls-1" d="M348.75,344.93a1.34,1.34,0,0,1-1,2.28,1.39,1.39,0,0,1-.9-.33l-1.28-1.13a1.36,1.36,0,0,1-.43-1.29,1.32,1.32,0,0,1,.41-.72l.11-.11a1.37,1.37,0,0,1,1.91.07Z"/><path class="cls-2" d="M340.51,341.85l-1.24,1.49-.06.07-3.55,5.22A4.69,4.69,0,0,0,335,350l-1.47,4.8a7,7,0,0,0-.17,4.51l1,3.23s-.75,5-12.89,13.9c-.81.6-1.63,1.22-2.45,1.86-3.26-7-7.39-29.52-8.91-35s-1.74-4.49-3.91-12.74,1.74-7.39-.43-15.2a46.62,46.62,0,0,0-5.43-12.6c-7.14-9.15-15.76-30.64-22.66-39.4,0,0,1.38-6.34,11.68-10.64l.08-.07c8.26,10.26,23,25.11,30,33.4A34.83,34.83,0,0,1,327,302.09c2,12.27,1.52,13.68,2.39,18.46S340.51,341.85,340.51,341.85Z"/><path class="cls-3" d="M329.62,443h0c-7.74,0-20.06,1.54-27.37,1.36-9.12-.22-20.63-.87-29.1,1.71-3.5,1.07-7.74,2.08-11.5,2.89,4.1-4,1.23-7.09,1.23-7.09,4.47-1.36,25.19-14.19,31.49-18.47s11.77-7.76,15.41-9.75,2.65-2.48,4.81-5.22c.73-.92,2.33-2.84,4.33-5.2,0,0,3.35-.14,6.35-.13,0,0-.65,9.24,1.09,13.31S327,437.05,329.62,443Z"/><path class="cls-3" d="M298.78,397.07c-2.13,2.23-3.42,3.65-3.42,3.65-4.8,3.81-20.84,10-20.84,10-7.65,3.92-16.7,4.71-24.88,5.33.41-6.72-5.6-15.37-5.6-15.37.85-.54,1.65-1.09,2.39-1.63,8.15-5.93,22.75-.54,22.75-.54a79.26,79.26,0,0,0,17.23-1.15C295.2,395.74,298.78,397.07,298.78,397.07Z"/><path class="cls-1" d="M289.4,252.63l-.08.07c-10.3,4.3-11.68,10.64-11.68,10.64-6.89-8.75-7.19-10-15.18-20-5-6.24-9.55-17.8-9.55-17.8a26.39,26.39,0,0,1-3-8.25l-3.95-6.95a2.28,2.28,0,0,1,1.12-3.25,4,4,0,0,1,5,1.81l2.72,4.16c5.09.15,3.52,4.78,9.06,9.51s5.53,3.54,15.26,6.28,5.94,8.52,4.38,13.5C283,243.91,285.48,247.75,289.4,252.63Z"/><path class="cls-1" d="M191.09,427.2a8.35,8.35,0,0,1-1.92.28c-5.77-1.14-1.94-5.78-1.94-5.78.23-2.35-1.2-6.2-5-8.49s-7.33-1.76-9.74-5.67c-1.22-2-7.26-10.46-7.26-10.46l1.82-.35s8.2-3.55,13.62-3.35c4.27.16,4.94,1.5,7.64-.4l5.45-2.51,1,5.07,10,1.18c.87-.35,7.8-1.74,5.8,9.06,0,0-1.25,3.46.09,3.61a84.7,84.7,0,0,0,12.84,1.2,9.75,9.75,0,0,0,4.84-1.24c2.73-1.54,10.13-5,15.76-8.63,0,0,6,8.65,5.6,15.37-9.21.68-17.31,1.14-21.07,5.61-13.06,15.54-4.94,24.36-4.94,24.36l-.15.26a16,16,0,0,1-5.63-4.79,18.84,18.84,0,0,0-10.64-7.9,20.27,20.27,0,0,0-8.15-.64,19.35,19.35,0,0,0-1.57-1.43,35.87,35.87,0,0,0-6.36-4.19Zm-3.47-28.27c0-.62-1.06-1.23-2.5-1.35s-2.64.27-2.69.9,1.06,1.22,2.5,1.35S187.57,399.55,187.62,398.93Z"/><path class="cls-4" d="M191.13,427.37a35.87,35.87,0,0,1,6.36,4.19,19.35,19.35,0,0,1,1.57,1.43c5.79,6.08-4.06,7.8-4.06,7.8-4.36.51-10.4,1.09-13.09,1.33a63.11,63.11,0,0,1-11.38-.13c-7.16-.67-9.34-5.66-9.34-5.66-.53-.83-1-1.64-1.47-2.45a31,31,0,0,1-3.28-8.57c-2-9.63,1.82-18.23,7.35-28l1.39-.26s6,8.49,7.26,10.46c2.41,3.91,5.88,3.39,9.74,5.67s5.28,6.14,5,8.49c0,0-3.83,4.64,1.94,5.78a8.35,8.35,0,0,0,1.92-.28Z"/><path d="M185.12,397.58c1.44.12,2.55.73,2.5,1.35s-1.26,1-2.69.9-2.55-.73-2.5-1.35S183.69,397.45,185.12,397.58Z"/><path class="cls-4" d="M159.72,433.88c3.17,8.38-5.76,5.43-10.74,4.92s-8-5.52-3-11.2,10.26-2.25,10.26-2.25l.18,0A31,31,0,0,0,159.72,433.88Z"/><path class="cls-5" d="M187.23,421.7s-3.83,4.64,1.94,5.78a8.35,8.35,0,0,0,1.92-.28,8,8,0,0,0,5.68-4.86s.71-3.14-2.93-1.61"/><path class="cls-5" d="M201.3,420.2s5.33-.55,6.39-5.21"/><path class="cls-5" d="M165.18,397.08s6,8.49,7.26,10.46c2.41,3.91,5.88,3.39,9.74,5.67s5.28,6.14,5,8.49"/><path class="cls-5" d="M156.26,425.35S151,421.92,146,427.6s-2,10.69,3,11.2,13.91,3.46,10.74-4.92"/><path class="cls-5" d="M191.1,427.35l0,0a35.87,35.87,0,0,1,6.36,4.19,19.35,19.35,0,0,1,1.57,1.43c5.79,6.08-4.06,7.8-4.06,7.8-4.36.51-10.4,1.09-13.09,1.33a63.11,63.11,0,0,1-11.38-.13c-7.16-.67-9.34-5.66-9.34-5.66-.53-.83-1-1.64-1.47-2.45a31,31,0,0,1-3.28-8.57c-2-9.63,1.82-18.23,7.35-28l1.39-.26,1.82-.35s8.2-3.55,13.62-3.35c4.27.16,4.94,1.5,7.64-.4l5.45-2.51,1,5.07,10,1.18c.87-.35,7.8-1.74,5.8,9.06,0,0-1.25,3.46.09,3.61a84.7,84.7,0,0,0,12.84,1.2,9.75,9.75,0,0,0,4.84-1.24c2.73-1.54,10.13-5,15.76-8.63.85-.54,1.65-1.09,2.39-1.63,8.15-5.93,22.75-.54,22.75-.54a79.26,79.26,0,0,0,17.23-1.15c8.79-1.66,12.37-.33,12.37-.33"/><path class="cls-5" d="M340.71,349.76l.71-1.42.77-1.53a1.92,1.92,0,0,1,.46-.6l.69-.61a2,2,0,0,0,.66-1.27,1.48,1.48,0,0,0,0-.21v-1a2,2,0,0,0-3.5-1.27l-1.24,1.49-.06.07-3.55,5.22A4.69,4.69,0,0,0,335,350l-1.47,4.8a7,7,0,0,0-.17,4.51l1,3.23s-.75,5-12.89,13.9c-.81.6-1.63,1.22-2.45,1.86a215.24,215.24,0,0,0-20.2,18.77c-2.13,2.23-3.42,3.65-3.42,3.65-4.8,3.81-20.84,10-20.84,10-7.65,3.92-16.7,4.71-24.88,5.33-9.21.68-17.31,1.14-21.07,5.61-13.06,15.54-4.94,24.36-4.94,24.36"/><path class="cls-5" d="M199.06,433a20.27,20.27,0,0,1,8.15.64,18.84,18.84,0,0,1,10.64,7.9,16,16,0,0,0,5.63,4.79c5.33,3,14.31,5.39,28.42,4.55,0,0,4.4-.76,9.75-1.92,3.76-.81,8-1.82,11.5-2.89,8.47-2.58,20-1.93,29.1-1.71,7.31.18,19.63-1.32,27.37-1.36a28,28,0,0,1,4.78.27c6.08,1.09,11.52,5.32,28.67,4.35,7.1-.41,14.5-2.11,16.89-5.29"/><path class="cls-5" d="M244,400.72s6,8.65,5.6,15.37v0"/><line class="cls-5" x1="344.98" y1="369.89" x2="346.04" y2="367.97"/><path class="cls-5" d="M253.12,446.06a64.49,64.49,0,0,1,9.76-4.2c4.47-1.36,25.19-14.19,31.49-18.47s11.77-7.76,15.41-9.75,2.65-2.48,4.81-5.22c.73-.92,2.33-2.84,4.33-5.2,1.76-2.06,3.83-4.47,5.88-6.83,2.58-3,5.13-5.86,7-7.94l11.79-16.12,1.35-2.44"/><path class="cls-5" d="M345,369.89h0l3.09-.86,4.57-5,.76-.83,1.32-.62a2.64,2.64,0,0,0,1.38-3.16v0"/><path class="cls-5" d="M345.16,344.46a1.32,1.32,0,0,1,.41-.72l.11-.11a1.37,1.37,0,0,1,1.91.07l1.16,1.23a1.34,1.34,0,0,1-1,2.28,1.39,1.39,0,0,1-.9-.33l-1.28-1.13A1.36,1.36,0,0,1,345.16,344.46Z"/><path class="cls-5" d="M353.33,356.45l-.35.31a1.7,1.7,0,0,0,1.14,3,1.75,1.75,0,0,0,.73-.16l.4-.19a1.7,1.7,0,0,0,.81-2.28L356,357A1.7,1.7,0,0,0,353.33,356.45Z"/><path class="cls-5" d="M350.89,349.05a1.29,1.29,0,0,1,.48-.1,1.13,1.13,0,0,1,.81.33l1.28,1.26a2.09,2.09,0,0,1,.53,2l-.62,2.12a1.13,1.13,0,0,1-1.1.83h-.16l-.32,0a1.15,1.15,0,0,1-1-1l-.21-2.1a.28.28,0,0,1,0-.09l-.35-1.95A1.15,1.15,0,0,1,350.89,349.05Z"/><line class="cls-5" x1="348.71" y1="346.84" x2="350.89" y2="349.05"/><line class="cls-5" x1="341.42" y1="348.34" x2="343.34" y2="348.59"/><path class="cls-5" d="M380.3,442.22c10.72,0,32.43-2.12,41-1.82,0,0,14,.16,18.11.91s9.81,6.83,30.79,7,40.77-2.14,54.36-3.95a45.56,45.56,0,0,1,5.67-.39c10.52-.05,17.78,3.65,20.74,4.27a19.74,19.74,0,0,0,6,.29,5.31,5.31,0,0,0,4.92-3.64c.64-1.82.61-5,1-7.65.9-5.74,5.57-12.34,7.08-17.63s1-8-.36-10.11a6,6,0,0,1-.46-4.3,4.5,4.5,0,0,0-.17-2.44,1.82,1.82,0,0,0-.65-.86,1.85,1.85,0,0,0-1.11-.37,2.1,2.1,0,0,0-.43.05,1.88,1.88,0,0,0-1.32,1.13l-.77,1.93v0a3.23,3.23,0,0,0-.06,2.19l.6,1.9"/><path class="cls-5" d="M568.6,401.67a5.84,5.84,0,0,0-.39-2,2.06,2.06,0,0,0-.42-.66,2,2,0,0,0-1.95-.59,2,2,0,0,0-1.6,2,2.45,2.45,0,0,0,0,.27l.28,2.24.22,1.7"/><path class="cls-5" d="M564.26,400.66a28.53,28.53,0,0,0-1.53-3.5,1.1,1.1,0,0,1,.15-1.4,2.65,2.65,0,0,1,1.77-.66,2.62,2.62,0,0,1,2.15,1.1,6.21,6.21,0,0,1,1,2.79"/><path class="cls-5" d="M564.54,402.9s-.85,4.76-6.84,10.5-5.78,6.15-11.62,11c0,0-2.87,2.49-17.44,2.17-5-.11-11.47-.55-19.67-1.55-29.4-3.59-34.87-6.7-49.7-7.37a16.17,16.17,0,0,1-7.87-2.44l-4.12-2.59a15.74,15.74,0,0,0-3.63-1.68c-9.84-3.16-34.49-13.7-69.94-13.79-1.88,0-3.79,0-5.73.08"/><path class="cls-5" d="M528.64,426.63s4.25,9.45,1.63,17.3"/><path class="cls-5" d="M319,378.3c-3.26-7-7.39-29.52-8.91-35s-1.74-4.49-3.91-12.74,1.74-7.39-.43-15.2a46.62,46.62,0,0,0-5.43-12.6c-7.14-9.15-15.76-30.64-22.66-39.4s-7.19-10-15.18-20c-5-6.24-9.55-17.8-9.55-17.8a26.39,26.39,0,0,1-3-8.25l-3.95-6.95a2.28,2.28,0,0,1,1.12-3.25,4,4,0,0,1,5,1.81l2.72,4.16c5.09.15,3.52,4.78,9.06,9.51s5.53,3.54,15.26,6.28,5.94,8.52,4.38,13.5c-.51,1.6,2,5.44,5.88,10.32,8.26,10.26,23,25.11,30,33.4A34.83,34.83,0,0,1,327,302.09c2,12.27,1.52,13.68,2.39,18.46s11.11,21.3,11.11,21.3"/><path class="cls-5" d="M277.64,263.34S279,257,289.32,252.7"/><path class="cls-5" d="M318.92,403.22s3.35-.14,6.35-.13c1.34,0,2.61,0,3.48.13,2.82.3,17-5.42,23.39-6"/><path class="cls-5" d="M325.27,403.09s-.65,9.24,1.09,13.31.65,20.65,3.26,26.58"/><path class="cls-5" d="M373.71,397.18s-6.15-9.39-12.89-18.88c-6.25-8.8-8.18-14.25-8.18-14.25"/><path class="cls-5" d="M357.14,364.83a1.74,1.74,0,1,1-1.73-1.73A1.73,1.73,0,0,1,357.14,364.83Z"/><line class="cls-5" x1="324.8" y1="396.39" x2="328.75" y2="403.22"/><path class="cls-5" d="M262.88,441.86s2.87,3.06-1.23,7.09"/></svg>