<svg id="Layer_1" data-name="Layer 1" xmlns="http://www.w3.org/2000/svg" viewBox="0 0 700 700"><defs><style>.cls-1{fill:#feae63;}.cls-2{fill:#99abcc;}.cls-3{fill:#c4e7f9;}.cls-4{fill:#392328;}.cls-5{fill:none;stroke:#000;stroke-linecap:round;stroke-linejoin:round;stroke-width:2.3px;}</style></defs><title>Yoga_poses_2020_color</title><path class="cls-1" d="M524.87,352.64c3.25,0,4.12,5.43,3.25,8.47s-8.9,12.16-12.38,13.25-10,1.52-14.11,1.52-8,0-11.08,1.74a6.69,6.69,0,0,1-5.83.45c2.58-3.77,6.77-9.6,8.87-15a10.76,10.76,0,0,0,.55-1.93,29.33,29.33,0,0,0,9-3.28c4.56-2.61,7.38-3.91,9.55-3.91S521.61,352.64,524.87,352.64Z"/><path class="cls-2" d="M465.29,373.78a10,10,0,0,0-3.85,2.1c-4.77,4.34-19.11,6.73-22.8,7.38s-47.13,1.52-57.56-4.78c-9.66-5.84-10.92-6.82-16.94-6.94h0s-4.34-4.56-4.78-9.12c-1.21-21.71,3.48-30.45,3.48-30.45a33.1,33.1,0,0,0,6.51.26c13.25-.87,18.9-2.39,24.55-2s9.12,3.05,14.77,0,25-15,34.75-14.76,15,6.29,20.85,21.5v.18c6.77-.56,13.66-.35,18.45,2.42,8.89,5.14,12.75,14.77,11.41,21.53a10.76,10.76,0,0,1-.55,1.93c-2.1,5.41-6.29,11.24-8.87,15-.64.93-1.17,1.73-1.56,2.37-2,3.25-14.11,6.51-17.59-3.48l-.22-3Z"/><path class="cls-3" d="M364.14,371.53h-1.52c-7.38,0-38.22,7.17-51.26,7.17-4.77,0-9,.14-12.8.35,8.47-6.38,3.9-19.68-5.22-28.15a16.62,16.62,0,0,0-9.15-4.16l.18-1.08a11.47,11.47,0,0,0-3-11.7C286,328.74,292.9,323.1,304,323.1s14.33,2.17,26.28,1.73c10-.36,21.38,5.67,32.58,7.13,0,0-4.69,8.74-3.48,30.45C359.8,367,364.14,371.53,364.14,371.53Z"/><path class="cls-1" d="M293.34,350.9c9.12,8.47,13.69,21.77,5.22,28.15-6.61.36-11.89.9-16.3,1.17-6.95.43-18,4.56-41.92,2.17,0,0-7.9-2.17-10.58-2.17s-27.43-1.52-35.68-2l-2.14-.1a1.93,1.93,0,0,0,.84-1.58,1.91,1.91,0,0,0-.56-1.34,1.87,1.87,0,0,0-1.34-.56h-.57a2.52,2.52,0,0,0,2.24-2.47,2.54,2.54,0,0,0-2.15-2.5h.17a1.87,1.87,0,0,0,1.94-1.69,1.09,1.09,0,0,0,0-.18,1.87,1.87,0,0,0-1.41-1.82l-3-.77,0-.12a1.26,1.26,0,0,0,.86-.79,1.41,1.41,0,0,0,.08-.44,1.29,1.29,0,0,0-.82-1.2l-3-1.17.18-.46s5.87.24,9.77.24c1.38,0,3.62-.19,6.19-.44,4.73-.44,10.57-1.08,14.23-1.08,2.28,0,8,0,14.22,0,9.23-.06,19.64-.3,21.84-1.07,3.69-1.31,12.81-8.56,17.37-9.86,0,0,7.53-3.19,15.18-2.12A16.62,16.62,0,0,1,293.34,350.9Z"/><path class="cls-1" d="M281.39,334a11.47,11.47,0,0,1,3,11.7l-.18,1.08c-7.65-1.07-15.18,2.12-15.18,2.12-4.56,1.3-13.68,8.55-17.37,9.86-2.2.77-12.61,1-21.84,1.07v-.89a5.73,5.73,0,0,1,1.68-2.76c.57-2.28-.27-6.3-3.75-9.14s-7-2.83-8.78-7.05c-.91-2.14-5.63-11.43-5.63-11.43l1.85-.07s8.64-2.3,14-1.3c4.2.79,4.66,2.22,7.62.74l5.75-1.67.21,5.16,9.75,2.65c.91-.21,8-.56,4.38,9.82,0,0,1.89,1.33,7.8,1.73a8.87,8.87,0,0,0,6.09-1.91A93.19,93.19,0,0,0,281.39,334Zm-46.15-.28c.14-.61-.87-1.37-2.27-1.71s-2.65-.11-2.8.49.87,1.37,2.27,1.71S235.09,334.29,235.24,333.68Z"/><path d="M233,332c1.4.34,2.41,1.1,2.27,1.71s-1.4.83-2.8.49-2.41-1.1-2.27-1.71S231.57,331.64,233,332Z"/><path class="cls-4" d="M227.73,347c3.48,2.84,4.32,6.86,3.75,9.14a5.73,5.73,0,0,0-1.68,2.76v.89c-6.24,0-11.94,0-14.22,0-3.66,0-9.5.64-14.23,1.08l0-.48a25.43,25.43,0,0,1,2.2-19.55,80.29,80.29,0,0,1,8.4-12.27l1.41-.06S218,337.81,219,340C220.75,344.17,224.26,344.17,227.73,347Z"/><path class="cls-1" d="M190.4,369.71a2.54,2.54,0,0,1,2.15,2.5,2.52,2.52,0,0,1-2.24,2.47h-7.12a10.88,10.88,0,0,1-4.5-1l-3.29-1.52-2.55,1.24-2.55-5.25s-.44-7.93,1.73-9.27,4.56-2.76,4.56-2.76c11.52-10.61,26.92-15.29,26.92-15.29a25.43,25.43,0,0,0-2.2,19.55l0,.48c-2.57.25-4.81.44-6.19.44-3.9,0-9.77-.24-9.77-.24l-.18.46,3,1.17a1.29,1.29,0,0,1,.82,1.2,1.41,1.41,0,0,1-.08.44,1.26,1.26,0,0,1-.86.79l0,.12,3,.77a1.87,1.87,0,0,1,1.41,1.82,1.09,1.09,0,0,1,0,.18,1.87,1.87,0,0,1-1.94,1.69Z"/><path class="cls-1" d="M190.31,374.68h.57a1.87,1.87,0,0,1,1.34.56,1.91,1.91,0,0,1,.56,1.34,1.89,1.89,0,0,1-1.9,1.9H179.42a8.23,8.23,0,0,1-2.81-.44,4.33,4.33,0,0,1-2.3-1.62l-1.46-3,2.55-1.24,3.29,1.52a10.88,10.88,0,0,0,4.5,1Z"/><path class="cls-5" d="M240.81,358.2s1.17-3-2.65-2"/><path class="cls-5" d="M231.48,356.14a5.73,5.73,0,0,0-1.68,2.76"/><path class="cls-5" d="M245.61,356.75s5.35.24,7.09-4.2"/><path class="cls-5" d="M213.32,328.52S218,337.81,219,340c1.8,4.22,5.31,4.22,8.78,7.05s4.32,6.86,3.75,9.14"/><path class="cls-5" d="M201.31,360.4a25.43,25.43,0,0,1,2.2-19.55,80.29,80.29,0,0,1,8.4-12.27l1.41-.06,1.85-.07s8.64-2.3,14-1.3c4.2.79,4.66,2.22,7.62.74l5.75-1.67.21,5.16,9.75,2.65c.91-.21,8-.56,4.38,9.82,0,0,1.89,1.33,7.8,1.73a8.87,8.87,0,0,0,6.09-1.91A93.19,93.19,0,0,0,281.39,334C286,328.74,292.9,323.1,304,323.1s14.33,2.17,26.28,1.73c10-.36,21.38,5.67,32.58,7.13a33.1,33.1,0,0,0,6.51.26c13.25-.87,18.9-2.39,24.55-2s9.12,3.05,14.77,0,25-15,34.75-14.76,15,6.29,20.85,21.5"/><path class="cls-5" d="M388.68,336.56s10.65-1.33,18.47,1.73,30.4,1.53,38.87,1.1c4.32-.22,11.23-1.63,18.26-2.21,6.77-.56,13.66-.35,18.45,2.42,8.89,5.14,12.75,14.77,11.41,21.53a10.76,10.76,0,0,1-.55,1.93c-2.1,5.41-6.29,11.24-8.87,15-.64.93-1.17,1.73-1.56,2.37-2,3.25-14.11,6.51-17.59-3.48l-.22-3"/><path class="cls-5" d="M194.08,378.26c8.25.44,33,2,35.68,2s10.58,2.17,10.58,2.17c23.89,2.39,35-1.74,41.92-2.17,4.41-.27,9.69-.81,16.3-1.17,3.8-.21,8-.35,12.8-.35,13,0,43.88-7.17,51.26-7.17h1.52c6,.12,7.28,1.1,16.94,6.94,10.43,6.3,53.87,5.43,57.56,4.78s18-3,22.8-7.38a10,10,0,0,1,3.85-2.1,23.81,23.81,0,0,1,10.27-.29"/><path class="cls-5" d="M185.39,361.08s5.87.24,9.77.24c1.38,0,3.62-.19,6.19-.44,4.73-.44,10.57-1.08,14.23-1.08,2.28,0,8,0,14.22,0,9.23-.06,19.64-.3,21.84-1.07,3.69-1.31,12.81-8.56,17.37-9.86,0,0,7.53-3.19,15.18-2.12a16.62,16.62,0,0,1,9.15,4.16c9.12,8.47,13.69,21.77,5.22,28.15"/><path class="cls-5" d="M484.72,378.07a6.69,6.69,0,0,0,5.83-.45c3-1.74,6.95-1.74,11.08-1.74s10.64-.44,14.11-1.52,11.51-10.21,12.38-13.25,0-8.47-3.25-8.47-10,1.3-12.17,1.3-5,1.3-9.55,3.91a29.33,29.33,0,0,1-9,3.28"/><path class="cls-5" d="M362.84,332s-4.69,8.74-3.48,30.45c.44,4.56,4.78,9.12,4.78,9.12"/><path class="cls-5" d="M203.51,340.85s-15.4,4.68-26.92,15.29c0,0-2.38,1.42-4.56,2.76s-1.73,9.27-1.73,9.27l2.55,5.25,1.46,3a4.33,4.33,0,0,0,2.3,1.62,8.23,8.23,0,0,0,2.81.44h11.46a1.9,1.9,0,0,0,1.34-3.24,1.87,1.87,0,0,0-1.34-.56h-7.69a10.88,10.88,0,0,1-4.5-1l-3.29-1.52"/><path class="cls-5" d="M188.11,365.14a1.26,1.26,0,0,0,.86-.79,1.41,1.41,0,0,0,.08-.44,1.29,1.29,0,0,0-.82-1.2l-3-1.17L182,360.3l-3.36-1.72"/><path class="cls-5" d="M190.4,369.71h.17a1.87,1.87,0,0,0,1.94-1.69,1.09,1.09,0,0,0,0-.18,1.87,1.87,0,0,0-1.41-1.82l-3-.77-10.4-2.63"/><path class="cls-5" d="M177,368l4.33,1.12a10.55,10.55,0,0,0,2.24.34l6.79.3"/><path class="cls-5" d="M190.14,369.69l.25,0h0a2.54,2.54,0,0,1,2.15,2.5,2.52,2.52,0,0,1-2.24,2.47h-.26"/><path class="cls-5" d="M176.56,378.17l.26,1a1.91,1.91,0,0,0,1.71,1.41,13.45,13.45,0,0,1,4.25.78c1.57.78,3.25,1.29,4,.22,1.23-1.68-1.06-3-1.06-3"/><path class="cls-5" d="M281.39,334a11.47,11.47,0,0,1,3,11.7"/></svg>