<svg id="Layer_1" data-name="Layer 1" xmlns="http://www.w3.org/2000/svg" viewBox="0 0 700 700"><defs><style>.cls-1{fill:#feae63;}.cls-2{fill:#99abcc;}.cls-3{fill:#c4e7f9;}.cls-4{fill:#120c0c;}.cls-5{fill:none;stroke:#000;stroke-linecap:round;stroke-linejoin:round;stroke-width:2.3px;}</style></defs><title>Yoga_poses_2020_color</title><path class="cls-1" d="M527.83,493.62a2.09,2.09,0,0,1-2,1.28l-2.47-.12-.06,0a1.62,1.62,0,0,1-1.56,1.17l-4.15,0h0a1.56,1.56,0,0,1-1.61,1.25l-.89,0a5.36,5.36,0,0,1-2.35-.67l-1-.54a1.46,1.46,0,0,0-.7-.18,1.44,1.44,0,0,0-.75.21,2.38,2.38,0,0,1-1.4.34c-10.73.06-29.19-.8-37.32-1.18s-7.17-7.19-4.29-19.9A121.26,121.26,0,0,0,469.73,456s11.59,2.26,19.86-.15c0,24.22,16.42,24.11,25.74,28.55a52.42,52.42,0,0,0,13.25,4.45,2.35,2.35,0,0,1,2,2.33v.12a2.47,2.47,0,0,1-2.58,2.36h0Z"/><path class="cls-2" d="M479.74,371.89c-5-2.4-21.56-1.8-21.56-1.8-13.17-.21-19.6.69-36.17-.68-19.8-1.63-18.24,4.19-39.74,5.49S351,362.24,342.14,353.12c0,0,3.71-14,6.71-23.82S359,307.37,359,307.37A141.49,141.49,0,0,1,392.53,317c5.86,2.28,22.32,1.47,36.16,2.28s36.17,9.61,54.74,16.13,26.38,13.68,26.63,21.5-.73,15.64-2.2,19.39-3.75,9.28-4.72,14.17S494,422.86,494,422.86c-2.51,11.85-4.42,33-4.42,33-8.27,2.41-19.86.15-19.86.15a188.33,188.33,0,0,0-1.62-37.71C465.09,398,471.43,382.12,479.74,371.89Z"/><path class="cls-3" d="M359,307.37s-7.13,12.15-10.12,21.93-6.71,23.82-6.71,23.82c-8.86-9.12-36.76-4.54-53.05,1s-42.17,8.78-42.17,8.78c0-1.4.06-2.77.12-4.08l.68,0c23.78-8.31,18.79-30.24,9.82-35.8a36.18,36.18,0,0,0-11.8-4.36h0s8-7.6,3.85-15.21c16.19-12.29,23.86-11,35.1-9.29,12.22,1.79,26.39-.66,36.17,1S341.54,304.6,359,307.37Z"/><path class="cls-1" d="M247,358.82c-.06,1.31-.1,2.68-.12,4.08a124.14,124.14,0,0,0,.47,13.7c1.47,15.15.16,34.7.81,38.44s2.94,10.43.66,25.58c-2,13.11-3.57,35.28-3,43.86a3.93,3.93,0,0,0,3,3.57c3.62.89,12,2.42,13.36,2.54,1.09.1,3.1.33,4.7.5l-.07.63,14.29,3.38a1.58,1.58,0,0,1,1.24,1.56v.12a1.58,1.58,0,0,1-1.59,1.45l-3.81,0-.48,0a1.37,1.37,0,0,1-1.46,1.27l-10.22-.79a1.28,1.28,0,0,1-1.27,1.09h-.15l-11.3-1.36s-15.17.8-17.49-.5c-1.72-1-2.18-4.46-2.09-8.4.25-11.08-3.59-40.49-.25-68.52v-6.53s-1.68-10.38-3-17.41-6.37-27-6.54-30.65-4.89-12.88-6-19.92l-1.14-7S212,327,224.42,321c7.1-3.42,14.81-3.56,21.32-2.3a36.18,36.18,0,0,1,11.8,4.36c9,5.56,14,27.49-9.82,35.8Z"/><path class="cls-1" d="M192,328.81a9,9,0,0,1-2,.49c-6.25-.6-2.67-5.94-2.67-5.94,0-2.52-1.94-6.46-6.28-8.48s-8-1.1-11-5c-1.5-2-8.83-10.35-8.83-10.35l1.89-.56s8.35-4.65,14.13-5c4.55-.29,5.41,1.07,8.08-1.24l5.52-3.24,1.57,5.28,10.79.19c.89-.47,8.11-2.68,7.12,9,0,0-.35,5,1.93,7,3.6,3.13,8.6,2.39,13,2.38,0,0,12.9-.53,19.88-6.33q2.31-1.92,4.41-3.51c4.11,7.61-3.85,15.21-3.85,15.21h0c-6.51-1.26-14.22-1.12-21.32,2.3-12.38,6-8.88,18.41-8.88,18.41a15.28,15.28,0,0,0-9.85-1.51l-.08,0c.53-2.64-1.8-4.29-6.21-5-5.88-1.11-7.33-3.95-7.33-3.95Zm-9.44-28.46c1.54,0,2.78-.57,2.77-1.24s-1.26-1.19-2.8-1.17-2.77.58-2.77,1.24S181.05,300.37,182.58,300.35Z"/><path class="cls-4" d="M199.4,332.9c4.41.68,6.74,2.33,6.21,5-.33,1.6-1.7,3.57-4.31,5.92-6.9,6.19-18.77,6-18.77,6a29.58,29.58,0,0,1-17.41-4.94,21,21,0,0,1-3.89-3.22c-.63-.79-1.21-1.57-1.75-2.35-9.35-13.46-5.88-25.26.38-39.37l1.44-.43s7.33,8.38,8.83,10.35c3,3.9,6.61,3,11,5s6.27,6,6.28,8.48c0,0-3.58,5.34,2.67,5.94a9,9,0,0,0,2-.49l0,.14S193.52,331.79,199.4,332.9Z"/><path d="M185.35,299.11c0,.67-1.23,1.22-2.77,1.24s-2.79-.5-2.8-1.17,1.23-1.22,2.77-1.24S185.34,298.45,185.35,299.11Z"/><path class="cls-4" d="M165.06,345c7.21,6.28,1.36,12.85-2.37,13.59-5.23,1-14.15-3.67-12.32-11.54s8.53-7.3,8.53-7.3l.58-.41c.54.78,1.12,1.56,1.75,2.35a21,21,0,0,0,3.89,3.22Z"/><path class="cls-5" d="M187.36,323.36s-3.58,5.34,2.67,5.94a9,9,0,0,0,2-.49,8.59,8.59,0,0,0,5.54-5.78s.42-3.42-3.28-1.4"/><path class="cls-5" d="M202.15,320.27s5.61-1.16,6.24-6.22"/><path class="cls-5" d="M161.3,299.53s7.33,8.38,8.83,10.35c3,3.9,6.61,3,11,5s6.27,6,6.28,8.48"/><path class="cls-5" d="M158.9,339.74s-6.69-.56-8.53,7.3,7.09,12.57,12.32,11.54c3.73-.74,9.58-7.31,2.37-13.59"/><path class="cls-5" d="M192.07,329s1.45,2.84,7.33,3.95c4.41.68,6.74,2.33,6.21,5-.33,1.6-1.7,3.57-4.31,5.92-6.9,6.19-18.77,6-18.77,6"/><path class="cls-5" d="M205.69,337.89a15.28,15.28,0,0,1,9.85,1.51S212,327,224.42,321c7.1-3.42,14.81-3.56,21.32-2.3a36.18,36.18,0,0,1,11.8,4.36c9,5.56,14,27.49-9.82,35.8"/><path class="cls-5" d="M528,493.67h0a2.47,2.47,0,0,0,2.58-2.36v-.12a2.35,2.35,0,0,0-2-2.33,52.42,52.42,0,0,1-13.25-4.45c-9.32-4.44-25.74-4.33-25.74-28.55,0,0,1.91-21.15,4.42-33,0,0,8.15-27.53,9.13-32.41s3.25-10.43,4.72-14.17,2.45-11.57,2.2-19.39-8.06-15-26.63-21.5-40.89-15.31-54.74-16.13-30.3,0-36.16-2.28A141.49,141.49,0,0,0,359,307.37c-17.43-2.77-28.34-10.59-38.11-12.22s-23.95.82-36.17-1c-11.24-1.66-18.91-3-35.1,9.29q-2.1,1.59-4.41,3.51c-7,5.8-19.88,6.33-19.88,6.33-4.37,0-9.37.75-13-2.38-2.28-2-1.93-7-1.93-7,1-11.69-6.23-9.48-7.12-9l-10.79-.19-1.57-5.28-5.52,3.24c-2.67,2.31-3.53.95-8.08,1.24-5.78.36-14.13,5-14.13,5l-1.89.56-1.44.43c-6.26,14.11-9.73,25.91-.38,39.37.54.78,1.12,1.56,1.75,2.35a21,21,0,0,0,3.89,3.22,29.58,29.58,0,0,0,17.41,4.94"/><path class="cls-5" d="M481.46,369.88c-.58.64-1.15,1.31-1.72,2-8.31,10.23-14.65,26.12-11.63,46.41A188.33,188.33,0,0,1,469.73,456a121.26,121.26,0,0,1-2.46,19.23c-2.88,12.71-3.85,19.52,4.29,19.9s26.59,1.24,37.32,1.18a2.38,2.38,0,0,0,1.4-.34,1.44,1.44,0,0,1,.75-.21,1.46,1.46,0,0,1,.7.18l1,.54a5.36,5.36,0,0,0,2.35.67l.89,0a1.56,1.56,0,0,0,1.61-1.25,1,1,0,0,0,0-.24v0a1.23,1.23,0,0,0-.59-1l-2.81-1.69"/><path class="cls-5" d="M517.15,490.4l5.5,2.43a1.21,1.21,0,0,1,.71,1.16v.37a1.35,1.35,0,0,1-.08.4,1.62,1.62,0,0,1-1.56,1.17l-4.15,0"/><path class="cls-5" d="M519.8,488.62l7.43,2.83a1.22,1.22,0,0,1,.77,1.19v.27a2.09,2.09,0,0,1-2.19,2l-2.47-.12"/><path class="cls-5" d="M469.73,456s11.59,2.26,19.86-.15"/><path class="cls-5" d="M475.66,472.33l-.16,3.24a9.86,9.86,0,0,0,3.63,8.09"/><path class="cls-5" d="M264.78,498.65h0l10.22.79a1.37,1.37,0,0,0,1.46-1.27v-.08a1.35,1.35,0,0,0-1.05-1.32l-11.54-2.67"/><path class="cls-5" d="M277,498.2l3.81,0a1.58,1.58,0,0,0,1.59-1.45v-.12a1.58,1.58,0,0,0-1.24-1.56l-14.29-3.38"/><path class="cls-5" d="M255.28,494.18l8.68,3.07a1.28,1.28,0,0,1,.85,1.37,0,0,0,0,1,0,0,1.28,1.28,0,0,1-1.27,1.09h-.15l-11.3-1.36s-15.17.8-17.49-.5c-1.72-1-2.18-4.46-2.09-8.4.25-11.08-3.59-40.49-.25-68.52v-6.53s-1.68-10.38-3-17.41-6.37-27-6.54-30.65-4.89-12.88-6-19.92l-1.14-7"/><path class="cls-5" d="M248.2,344.19s-.83,6.3-1.16,14.63c-.06,1.31-.1,2.68-.12,4.08a124.14,124.14,0,0,0,.47,13.7c1.47,15.15.16,34.7.81,38.44s2.94,10.43.66,25.58c-2,13.11-3.57,35.28-3,43.86a3.93,3.93,0,0,0,3,3.57c3.62.89,12,2.42,13.36,2.54,1.09.1,3.1.33,4.7.5l2.39.28,11.47,2.86"/><path class="cls-5" d="M246.92,362.9s25.88-3.24,42.17-8.78,44.19-10.12,53.05-1,18.62,23.09,40.13,21.78,19.94-7.12,39.74-5.49c16.57,1.37,23,.47,36.17.68,0,0,16.53-.6,21.56,1.8"/><path class="cls-5" d="M342.14,353.12s3.71-14,6.71-23.82S359,307.37,359,307.37"/><path class="cls-5" d="M245.74,318.68s8-7.6,3.85-15.21"/></svg>