<svg id="Layer_1" data-name="Layer 1" xmlns="http://www.w3.org/2000/svg" viewBox="0 0 700 700"><defs><style>.cls-1{fill:#feae63;}.cls-2{fill:#99abcc;}.cls-3{fill:#c4e7f9;}.cls-4{fill:#392328;}.cls-5{fill:none;stroke:#000;stroke-linecap:round;stroke-linejoin:round;stroke-width:2.3px;}</style></defs><title>Yoga_poses_2020_color</title><path class="cls-1" d="M538.23,533.85a2.41,2.41,0,0,1,1.87,3.94c-.09.1-.2.2-.31.3-2,1.71-5.5.81-7,.74s-12.57.59-20.14-2.19-15.14-.65-19.87,1.3c-4.15,1.71-11.92.89-11.92.89s-4-.63-2.56-10.67c0,0,.62-11.9-.11-15.54a42,42,0,0,0,19.64-4.73l.3-.1c1.51,4.48,3.87,8.49,7.56,10.27,3.23,1.55,22.11,12.51,26.92,14.13a50.19,50.19,0,0,0,4.91,1.62C537.75,533.83,538,533.85,538.23,533.85Z"/><path class="cls-2" d="M467.53,429.63s-10.92-.24-14.56-.24-27.05,4.68-40.67,4.68c-7.76,0-32.9-3.72-39.26-4.5l-.82-.08a37.22,37.22,0,0,0-15.07,1.73,150.26,150.26,0,0,0-18.71,7.63c-10.92,5.34-37.37,22.08-43.68,26.69s-18.69,13.11-26.21,16.26-19.65,16.26-24.26,19.9-47.81,22.57-54.12,28.15c0,0-6.43-4.81-9.12-11.13l-.12-.13c5.22-4.84,17.18-16.18,23.66-22.78,6-6.08,22.1-18.9,32.07-25.64-2.93,3.19-5.48,5.79-6.79,7.11a1.4,1.4,0,0,0,0,1.94,1.38,1.38,0,0,0,1,.45,1.43,1.43,0,0,0,.87-.3l12.76-10.06-1,2.43a1.63,1.63,0,0,0-.14.68,1.69,1.69,0,0,0,3.16.85l1.67-2.86,10.93-10.94a8.15,8.15,0,0,0,1.73-2.56c.51-1.21,1.19-3.18,2-5.62l.38.13c3.38-3,9.91-11,14.3-17.4s34.06-35.58,37.77-38.28,6.92-5.06,7.59-9.78c.2-1.4.43-2.77.65-4a27.57,27.57,0,0,1,3.14-8.65,10.62,10.62,0,0,0,1.12-3l.47.1s32.53,3.45,42.51,3.45,24.66-4.14,24.66-4.14c2,5.3,4.5,11.76,4.17,19.85,0,0,34.94.73,45.37,2.19s33,9,39.32,10.43,9,9.71,9.22,13.59,1,12.37.48,15.77.86,10.44,1,14.08c.25,7.52.51,43.64.51,43.64s-.16,10.08,2.69,18.5l-.3.1a42,42,0,0,1-19.64,4.73c-.73-3.64-6.8-33.73-8.25-38.1s-4.61-9.95-4.85-24.26S467.53,429.63,467.53,429.63Z"/><path class="cls-3" d="M393.28,363.38a50.09,50.09,0,0,0,2.14,6.36s-14.69,4.14-24.66,4.14-42.51-3.45-42.51-3.45l-.47-.1a16.75,16.75,0,0,0-2.81-13s-6.56-6.82-19.53-8.66l.07-.46-6.08-28c41.27-7.6,31.71-38.79,31.71-38.79l.56,0,20.3.89c17.75,18.68,20.09,28.57,24.08,33.55a34.65,34.65,0,0,1,7.16,15.21C384.55,336.51,393.28,363.38,393.28,363.38Z"/><path class="cls-1" d="M222.55,151a1.4,1.4,0,0,1-.56-1.11,1.35,1.35,0,0,1,.25-.79,1.12,1.12,0,0,1,.33-.32,1.34,1.34,0,0,1,1.53,0c4,2.51,17.37,11,18.66,11.89a16.4,16.4,0,0,0,3.52,1.62,5.71,5.71,0,0,1,2.79,2.15l3.25,4.7c23,20,36.92,36.49,36.92,36.49s21.68,22.81,29.28,31.93,5.65,17.38,28.23,39.53c1.89,1.85,3.63,3.63,5.25,5.33l-20.3-.89v-.11L309,271.21s-8-12.16-8.9-18.46a51.7,51.7,0,0,0-2-9.34l-7.12-10c-11.3-10.64-7.86-12.89-16.12-19s-26.71-36.06-28.67-38.66a8,8,0,0,0-5.1-2.94s-11.84-.76-14.39-3.58a12.87,12.87,0,0,0-6.24-3.58h-2.89a1.87,1.87,0,0,1-.4-3.7,9.35,9.35,0,0,1,4.7.22l4.83.87-16.2-14.16a1.6,1.6,0,0,1-.27-2.11l.27-.35-.75-.58a1.49,1.49,0,0,1,.91-2.67,1.51,1.51,0,0,1,.77.21l.89.54h0a1.22,1.22,0,0,0,.43,1.22l8.75,7Z"/><path class="cls-1" d="M259.43,278a8.73,8.73,0,0,1-1.9-.19c-5.33-2.49-.49-6.08-.49-6.08.78-2.22.31-6.3-2.88-9.45s-6.69-3.47-8.09-7.84c-.71-2.21-4.54-11.9-4.54-11.9l1.85.1s8.82-1.49,14,0c4.1,1.18,4.43,2.64,7.51,1.44l5.89-1.12-.28,5.15,9.46,3.55c.93-.13,8,.18,3.46,10.19,0,0-1.76,6.28-.49,6.75,0,0,13.13,7.59,14.31,7.63,11.73,2.39,11.73-5,11.73-5l22.7,10.11v.11l-.56,0s9.56,31.19-31.71,38.79l-.35,0-17.21-9.35a25,25,0,0,0-.56-13.44c-2.59-7.06-9.34-10.78-13.41-12.44a24.86,24.86,0,0,0-3.24-1.11c-4.31-.67-5.23-5.79-5.23-5.79Zm3.44-28.28c.2-.59-.74-1.45-2.1-1.91s-2.63-.37-2.83.22.74,1.45,2.1,1.91S262.67,250.28,262.87,249.69Z"/><path class="cls-1" d="M299.43,320.2l6.08,28-.07.46a47.38,47.38,0,0,0-9.41-.38L294,364.83s-1.91,13.65-3.86,23.76-4.56,18.92-13.69,31.62c-6.05,8.43-10.72,22.62-13.59,31.08-.83,2.44-1.51,4.41-2,5.62a8.15,8.15,0,0,1-1.73,2.56l-10.93,10.94-1.67,2.86a1.69,1.69,0,0,1-3.16-.85,1.63,1.63,0,0,1,.14-.68l1-2.43,3.65-8.5-2.44-1.2c3-3.85,5.56-7.63,6.67-10.54,3.75-9.78,2.86-10.39,6.35-23.86,2.1-8.12,3.52-21.94,9.06-29.43s5-10.59,5.19-18.41.81-13.2,0-20.2c-.45-3.89-1.94-11.74-2.28-19a25.47,25.47,0,0,1,6.17-17.6,23.85,23.85,0,0,0,5-9.65l17.21,9.35Z"/><path class="cls-4" d="M267.9,285c6.94,3.83,3.05,5.79-5,9.08s-18.46-.55-18.46-.55a27.77,27.77,0,0,1-13.8-9.82,20,20,0,0,1-2.42-4.07c-.31-.89-.57-1.76-.8-2.61-4-14.8,2.73-24.12,12.68-34.61l1.41.08s3.83,9.69,4.54,11.9c1.4,4.37,4.9,4.69,8.09,7.84s3.66,7.23,2.88,9.45c0,0-4.84,3.59.49,6.08a8.73,8.73,0,0,0,1.9.19v.14s.92,5.12,5.23,5.79A24.86,24.86,0,0,1,267.9,285Z"/><path d="M260.77,247.78c1.36.46,2.3,1.32,2.1,1.91s-1.47.69-2.83.22-2.3-1.32-2.1-1.91S259.41,247.31,260.77,247.78Z"/><path class="cls-1" d="M248.15,460.81l-3.65,8.5-12.76,10.06a1.43,1.43,0,0,1-.87.3,1.38,1.38,0,0,1-1-.45,1.4,1.4,0,0,1,0-1.94c1.31-1.32,3.86-3.92,6.79-7.11s6.19-6.89,9.05-10.56Z"/><path class="cls-4" d="M230.57,283.78c4.39,7.8-2.83,11.76-6.35,11.24-4.94-.73-11.33-7.68-7.24-14s9.81-3.76,9.81-3.76l.65-.18c.23.85.49,1.72.8,2.61a20,20,0,0,0,2.42,4.07Z"/><path class="cls-1" d="M222.52,148.65l0,.08a1.12,1.12,0,0,0-.33.32,1.35,1.35,0,0,0-.25.79,1.4,1.4,0,0,0,.56,1.11l-1,1.23-8.75-7a1.22,1.22,0,0,1-.43-1.22,1.16,1.16,0,0,1,.46-.72,1.27,1.27,0,0,1,.74-.25,1.19,1.19,0,0,1,.68.21Z"/><path class="cls-1" d="M160.28,555.55h-1a1.05,1.05,0,0,1-1-1.13l0-4.07a24.54,24.54,0,0,1,2.68-7c1.91-3.15,4.65-9,5.89-11.78s9.86-9.18,11.78-10.83c.35-.3,1.18-1.06,2.36-2.15l.12.13c2.69,6.32,9.12,11.13,9.12,11.13-6.31,5.58-5.82,4.12-6.06,7.28a30.84,30.84,0,0,1-1.22,7.76c-.73,2,.45,4.81,0,6.56-.49,1.91-4.61,4.61-6.06,5.82-.77.64-2.59.87-4.16,1a2.5,2.5,0,0,1-.91-.11l0,.13h-3.83a1.6,1.6,0,0,1-1.49-1l-.19-.28h-5.49a.52.52,0,0,1-.52-.57Z"/><path class="cls-5" d="M173.19,549a8.43,8.43,0,0,1-2.64,3.73,2.12,2.12,0,0,0-.71,1.69l.07,1.28a2.65,2.65,0,0,0,1.85,2.39,2.5,2.5,0,0,0,.91.11c1.57-.08,3.39-.31,4.16-1,1.45-1.21,5.57-3.91,6.06-5.82.45-1.75-.73-4.61,0-6.56a30.84,30.84,0,0,0,1.22-7.76c.24-3.16-.25-1.7,6.06-7.28s49.5-24.51,54.12-28.15S261,485,268.55,481.8s19.9-11.65,26.21-16.26,32.76-21.35,43.68-26.69a150.26,150.26,0,0,1,18.71-7.63,37.22,37.22,0,0,1,15.07-1.73l.82.08c6.36.78,31.5,4.5,39.26,4.5,13.62,0,37-4.68,40.67-4.68s14.56.24,14.56.24-2.67,6.31-2.42,20.63,3.39,19.89,4.85,24.26,7.52,34.46,8.25,38.1.11,15.54.11,15.54c-1.45,10,2.56,10.67,2.56,10.67s7.77.82,11.92-.89c4.73-2,12.3-4.08,19.87-1.3s18.66,2.11,20.14,2.19,4.93,1,7-.74c.11-.1.22-.2.31-.3a2.41,2.41,0,0,0-1.87-3.94c-.25,0-.48,0-.69,0a50.19,50.19,0,0,1-4.91-1.62c-4.81-1.62-23.69-12.58-26.92-14.13-3.69-1.78-6-5.79-7.56-10.27-2.85-8.42-2.69-18.5-2.69-18.5s-.26-36.12-.51-43.64c-.11-3.64-1.45-10.68-1-14.08s-.24-11.89-.48-15.77-2.92-12.13-9.22-13.59-28.88-9-39.32-10.43-45.37-2.19-45.37-2.19c.33-8.09-2.14-14.55-4.17-19.85a50.09,50.09,0,0,1-2.14-6.36s-8.73-26.87-10-32.3a34.65,34.65,0,0,0-7.16-15.21c-4-5-6.33-14.87-24.08-33.55-1.62-1.7-3.36-3.48-5.25-5.33-22.58-22.15-20.63-30.4-28.23-39.53s-29.28-31.93-29.28-31.93S275.34,189,252.32,169l-3.25-4.7a5.71,5.71,0,0,0-2.79-2.15,16.4,16.4,0,0,1-3.52-1.62c-1.29-.92-14.67-9.38-18.66-11.89a1.34,1.34,0,0,0-1.53,0,1.12,1.12,0,0,0-.33.32,1.35,1.35,0,0,0-.25.79,1.4,1.4,0,0,0,.56,1.11l10,7.44"/><path class="cls-5" d="M171.71,558.24h-3.83a1.6,1.6,0,0,1-1.49-1,1.53,1.53,0,0,1-.13-.68l.08-2.24a2.89,2.89,0,0,1,.39-1.34,18.82,18.82,0,0,0,1.66-3.27"/><path class="cls-5" d="M166.2,557h-1.72a1.28,1.28,0,0,1-1.27-1.32l.08-1.93a3.68,3.68,0,0,1,.62-1.93,5.7,5.7,0,0,0,.94-1.9"/><path class="cls-5" d="M164.48,557h-3.77a.52.52,0,0,1-.52-.57l.09-.84.28-2.74a3.31,3.31,0,0,1,.42-1.31,6.85,6.85,0,0,0,.77-1.72"/><path class="cls-5" d="M263.21,451.42c3.38-3,9.91-11,14.3-17.4s34.06-35.58,37.77-38.28,6.92-5.06,7.59-9.78c.2-1.4.43-2.77.65-4a27.57,27.57,0,0,1,3.14-8.65,10.62,10.62,0,0,0,1.12-3,16.75,16.75,0,0,0-2.81-13s-6.56-6.82-19.53-8.66a47.38,47.38,0,0,0-9.41-.38L294,364.83s-1.91,13.65-3.86,23.76-4.56,18.92-13.69,31.62c-6.05,8.43-10.72,22.62-13.59,31.08-.83,2.44-1.51,4.41-2,5.62a8.15,8.15,0,0,1-1.73,2.56l-10.93,10.94-1.67,2.86a1.69,1.69,0,0,1-3.16-.85,1.63,1.63,0,0,1,.14-.68l1-2.43,3.65-8.5"/><path class="cls-5" d="M160.21,555.54h-.92a1.05,1.05,0,0,1-1-1.13l0-4.07a24.54,24.54,0,0,1,2.68-7c1.91-3.15,4.65-9,5.89-11.78s9.86-9.18,11.78-10.83c.35-.3,1.18-1.06,2.36-2.15,5.22-4.84,17.18-16.18,23.66-22.78,6-6.08,22.1-18.9,32.07-25.64"/><path class="cls-5" d="M395.42,369.74s-14.69,4.14-24.66,4.14-42.51-3.45-42.51-3.45"/><path class="cls-5" d="M478,424.22s-2.8,4.33-10.51,5.41"/><path class="cls-5" d="M497.85,507.89a42,42,0,0,1-19.64,4.73"/><path class="cls-5" d="M190.17,529.85s-6.43-4.81-9.12-11.13"/><path class="cls-5" d="M224.35,157.15l-13.81-10.7-.75-.58a1.49,1.49,0,0,1,.91-2.67,1.51,1.51,0,0,1,.77.21l.89.54"/><path class="cls-5" d="M227,156.54l-5.45-4.36-8.75-7a1.22,1.22,0,0,1-.43-1.22,1.16,1.16,0,0,1,.46-.72,1.27,1.27,0,0,1,.74-.25,1.19,1.19,0,0,1,.68.21l8.25,5.46"/><line class="cls-5" x1="276.67" y1="280.51" x2="294.2" y2="282.32"/><path class="cls-5" d="M257,271.7s-4.84,3.59.49,6.08a8.73,8.73,0,0,0,1.9.19,8.05,8.05,0,0,0,6.71-3.36s1.44-2.88-2.46-2.26"/><path class="cls-5" d="M271.05,273.62s5.31.74,7.45-3.52"/><path class="cls-5" d="M241.53,242.51s3.83,9.69,4.54,11.9c1.4,4.37,4.9,4.69,8.09,7.84s3.66,7.23,2.88,9.45"/><path class="cls-5" d="M267.9,285c6.94,3.83,3.05,5.79-5,9.08s-18.46-.55-18.46-.55"/><path class="cls-5" d="M226.79,277.22s-5.72-2.6-9.81,3.76,2.3,13.31,7.24,14c3.52.52,10.74-3.44,6.35-11.24"/><path class="cls-5" d="M244.46,293.54a27.77,27.77,0,0,1-13.8-9.82,20,20,0,0,1-2.42-4.07c-.31-.89-.57-1.76-.8-2.61-4-14.8,2.73-24.12,12.68-34.61l1.41.08,1.85.1s8.82-1.49,14,0c4.1,1.18,4.43,2.64,7.51,1.44l5.89-1.12-.28,5.15,9.46,3.55c.93-.13,8,.18,3.46,10.19,0,0-1.76,6.28-.49,6.75,0,0,13.13,7.59,14.31,7.63,11.73,2.39,11.73-5,11.73-5s-8-12.16-8.9-18.46a51.7,51.7,0,0,0-2-9.34l-7.12-10c-11.3-10.64-7.86-12.89-16.12-19s-26.71-36.06-28.67-38.66a8,8,0,0,0-5.1-2.94s-11.84-.76-14.39-3.58a12.87,12.87,0,0,0-6.24-3.58h-2.89a1.87,1.87,0,0,1-.4-3.7,9.35,9.35,0,0,1,4.7.22l4.83.87-16.2-14.16a1.6,1.6,0,0,1-.27-2.11"/><path class="cls-5" d="M259.43,278.11s.92,5.12,5.23,5.79A24.86,24.86,0,0,1,267.9,285c4.07,1.66,10.82,5.38,13.41,12.44a25,25,0,0,1,.56,13.44,23.85,23.85,0,0,1-5,9.65,25.47,25.47,0,0,0-6.17,17.6c.34,7.29,1.83,15.14,2.28,19,.81,7,.16,12.38,0,20.2s.35,10.91-5.19,18.41-7,21.31-9.06,29.43c-3.49,13.47-2.6,14.08-6.35,23.86-1.11,2.91-3.65,6.69-6.67,10.54-2.86,3.67-6.15,7.4-9.05,10.56s-5.48,5.79-6.79,7.11a1.4,1.4,0,0,0,0,1.94,1.38,1.38,0,0,0,1,.45,1.43,1.43,0,0,0,.87-.3l12.76-10.06"/><path class="cls-5" d="M352,282.32l-20.3-.89-.56,0s9.56,31.19-31.71,38.79l6.08,28"/><line class="cls-5" x1="281.87" y1="310.89" x2="299.08" y2="320.24"/><line class="cls-5" x1="309" y1="271.21" x2="331.7" y2="281.32"/></svg>