<svg id="Layer_1" data-name="Layer 1" xmlns="http://www.w3.org/2000/svg" viewBox="0 0 700 700"><defs><style>.cls-1{fill:#392328;}.cls-2{fill:#feae63;}.cls-3{fill:#c4e7f9;}.cls-4{fill:#99abcc;}.cls-5{fill:none;stroke:#000;stroke-linecap:round;stroke-linejoin:round;stroke-width:2.3px;}</style></defs><title>Yoga_poses_2020_color</title><path class="cls-1" d="M561.85,353.52c7.38,13.69-2.94,27.66-2.94,27.66a26.33,26.33,0,0,1-5.07,4.68,28.43,28.43,0,0,1-14.05,4.87,37.3,37.3,0,0,1-12.95-1.21c-5.52-1.55-8.79-4.79-12.32-7.94l.07-.07s5.56-1,9.14.88a3.75,3.75,0,0,1,.44.24,9.33,9.33,0,0,0,2.51.88c5.29,1.12,7.53-3.84,7.53-3.84,3.43-6.28,16-8.66,16-8.66,15.51-1,9.28-20,9.11-20.54C561.57,352.3,561.85,353.52,561.85,353.52Z"/><path class="cls-2" d="M526.68,383.51a9.33,9.33,0,0,1-2.51-.88,3.75,3.75,0,0,0-.44-.24c-3.58-1.87-9.14-.88-9.14-.88l-.07.07c-.53-.48-1.07-.95-1.63-1.42-1.75-1.47-5.79-6.55-14.82-6.89-4.46-.17-7.38,5-8.56,7.72a14.54,14.54,0,0,0-1,4.3l-20.86.58c-8.46-27.32,12-48.27,12-48.27l19.9,1.13c.09,4.91,2.21,8.63,2.54,11l8.06,1.82c-.29-9.23,6.86-9.06,6.86-9.06,7.16-.14,18.09-1.89,22.12.15s6.69.85,8.74,1.78,3.33,1.53,3.33,1.53a32.54,32.54,0,0,1,8.06,4.48h0c.17.54,6.4,19.5-9.11,20.54,0,0-12.56,2.38-16,8.66C534.21,379.67,532,384.63,526.68,383.51Zm16.55-25.94c.13-.7-1.35-1.56-3.31-1.91s-3.65-.07-3.78.63,1.36,1.55,3.32,1.9S543.11,358.27,543.23,357.57Zm-.35-10.13c.1-.55-1.06-1.21-2.58-1.49s-2.85-.06-2.94.49,1.06,1.21,2.58,1.48S542.78,348,542.88,347.44Z"/><path class="cls-1" d="M555.62,385.87c2.81,1.69,4,9.85-4,12-7.61,2.06-11.3-1.08-11.75-6.06l-.09-1.09a28.43,28.43,0,0,0,14.05-4.87Z"/><path d="M539.92,355.66c2,.35,3.44,1.21,3.31,1.91s-1.81,1-3.77.62-3.44-1.2-3.32-1.9S538,355.31,539.92,355.66Z"/><path d="M540.3,346c1.52.28,2.68.94,2.58,1.49s-1.41.76-2.94.48-2.68-.94-2.58-1.48S538.77,345.67,540.3,346Z"/><path class="cls-2" d="M514.53,548.17v.08a1.77,1.77,0,0,1-1.83,1.67l-.69,0a6.43,6.43,0,0,1-3-.92l-14.5-8.89-.85-.52a6,6,0,0,0-4.25-.8l-.42.07a6.59,6.59,0,0,0-4.59,3.95,25.37,25.37,0,0,1-2,4.4,4.51,4.51,0,0,1-3.93,2.33,4.58,4.58,0,0,1-1-.11,1.76,1.76,0,0,1-1.16-2.56c.37-.69.71-1.37.94-1.88a13,13,0,0,1,.82-1.46c.17-.29.34-.62.51-1a9.68,9.68,0,0,0,.59-6.74l-.68-2.46c-1.3-3.48-1.87-11.93-2.16-13a183.61,183.61,0,0,0-6.81-21.84c-3.82-10.09-4.84-21.26-5.08-24.93-.06-.92-.17-1.82-.32-2.73l-.29-1.62a26.44,26.44,0,0,1-.38-4.44c0-.41,0-.81,0-1.22a25.53,25.53,0,0,0-.48-6.29c-1.41-7-4.67-20.24-2.42-39.56,2.08-17.94-3.47-22.09-10.51-28.5l17.57-3.34,20.86-.58c-.34,3.11-.47,7.89-.68,16-.36,13.3-4.43,20.57-4.51,24.72-.09,5.18-1,21.2-1.71,26.54s0,6.53,2.24,11.36.79,14.71,1.1,22.07,1.8,31.39,2.75,35.35c.77,3.15,7.28,9.36,9.9,11.76a6.81,6.81,0,0,1,1.67,2.38,6.57,6.57,0,0,0,2,2.65c3.32,2.67,10.06,7,12.44,8.54A1.74,1.74,0,0,1,514.53,548.17Z"/><path class="cls-2" d="M498.23,157.69a4.53,4.53,0,0,1,1.16-1.9,1.71,1.71,0,0,1,2.9.91l.84,4.64a5,5,0,0,1,0,1.63l-.47,3.52a14.72,14.72,0,0,0-.12,1.76c0,.12,0,.24,0,.36a12.91,12.91,0,0,1-1.95,7.23l-1.81,2.89a13.27,13.27,0,0,1-3.65,3.85,3,3,0,0,0-1.25,2l-1,7c-.13.93-.22,1.86-.27,2.8a157.11,157.11,0,0,0,1.89,33c2.85,16.5-.22,12.73.07,24.13s0,30,5.13,41.51,5.87,20.92,5.73,24.84-4.13,12.73-4.13,12.73a18,18,0,0,0-1.76,8.09l-19.9-1.13L458.6,312.93c7.86.16,11.93-2.63,14-5.25a7.32,7.32,0,0,0,1.29-6.6c-3-10.32-1.46-33.07-.47-42.9a27,27,0,0,0-.28-7.45v0a10,10,0,0,0-.38-1.43,8.24,8.24,0,0,1-.26-3.66l.27-1.68a25.71,25.71,0,0,0,.27-2.77c.69-15.13,5.89-48.27,5.89-48.27l1-8.26a12.15,12.15,0,0,0,0-2.89l-1.36-11.2a19.89,19.89,0,0,1-.14-2.31,18.84,18.84,0,0,1,.67-5,18.73,18.73,0,0,0,.64-3.87l.63-10.39a1.91,1.91,0,0,1,3.82.13l-.08,8.52,1.59-17.53a1.66,1.66,0,0,1,3.32.2l-.46,15.56.56-18a2.15,2.15,0,0,1,4.29,0l.31,17-.21-14.75v0a2.21,2.21,0,0,1,4.41,0Z"/><path class="cls-2" d="M498.66,544.46v.07a1.44,1.44,0,0,1-1.51,1.38l-1,0a6.5,6.5,0,0,1-4.19-1.73,8.23,8.23,0,0,1-2.6-5.38,6,6,0,0,1,4.25.8l.85.52c.53,1.56,2.25,2.58,3.33,3.08A1.45,1.45,0,0,1,498.66,544.46Z"/><path class="cls-3" d="M458.6,312.93l21.09,24.67s-20.47,20.95-12,48.27l-17.57,3.34s-14.66-9.22-21.37-12.14-17.27-7.46-22.3-11.38-15.35-.85-25.28-4.7c.58-2.42,1.13-4.89,1.61-7.41a43.72,43.72,0,0,0,.71-8.92v-.61a15.38,15.38,0,0,1,1.79-6.72l2.67-5.14a13.83,13.83,0,0,0,.92-2.13,26,26,0,0,0-3.17-23.17s-4.86-6.48-8.78-8.58c6.14,1.53,12,3.59,17.43,5.5C404.14,307.28,433.82,310.54,458.6,312.93Z"/><path class="cls-2" d="M385.37,558.61l3.95,1.75a1.22,1.22,0,0,1,.72,1.16l0,.36a1.42,1.42,0,0,1-.08.41,1.63,1.63,0,0,1-1.56,1.17h-4.17a1.56,1.56,0,0,1-1.61,1.26l-.89,0a5.4,5.4,0,0,1-2.35-.67l-1-.54a1.46,1.46,0,0,0-.7-.18,1.44,1.44,0,0,0-.75.21,2.37,2.37,0,0,1-1.4.33c-10.72.06-29.19-.8-37.32-1.18s-7.17-7.18-4.29-19.89c1.27-5.62,1.38-12.43.84-20.14,0,0,7.44,5.54,21.48.76.39,18.72,16.42,24.1,25.74,28.54a52,52,0,0,0,13.25,4.45,2.37,2.37,0,0,1,2,2.34v.12a2.46,2.46,0,0,1-2.58,2.35l-.13-.05a2,2,0,0,0,.16-.7v-.28a1.19,1.19,0,0,0-.77-1.18l-7.43-2.84Z"/><path class="cls-2" d="M393.9,559a1.19,1.19,0,0,1,.77,1.18v.28a2,2,0,0,1-.16.7,2.08,2.08,0,0,1-2,1.29l-2.48-.12-.06,0a1.42,1.42,0,0,0,.08-.41l0-.36a1.22,1.22,0,0,0-.72-1.16l-3.95-1.75,1.1-2.47Z"/><path class="cls-4" d="M328.2,314c4.23-8.22,12.79-13.76,12.79-13.76,11.26-5.95,24-4.95,35.91-2h0c3.92,2.1,8.78,8.58,8.78,8.58a26,26,0,0,1,3.17,23.17,13.83,13.83,0,0,1-.92,2.13l-2.67,5.14a15.38,15.38,0,0,0-1.79,6.72v.61a43.72,43.72,0,0,1-.71,8.92c-.48,2.52-1,5-1.61,7.41-4.47,18.49-11.36,34.1-12.05,45.15-.85,13.66-3.74,24.39-4.23,30.24s-.75,6.71-2.21,9.9a45.34,45.34,0,0,0-2.37,9c-.21,9.12,0,22.83-2.49,34.67s-1.55,33.42-1.55,33.42c-14,4.78-21.48-.76-21.48-.76-.69-9.75-2.44-21-4.24-33.06-3.23-21.67,2.87-33.46,4.36-44.47s.05-8.16.32-20.86-2.06-25.86-2.92-35.36c-.82-9.05-1.59-12.78-1.12-24.86,0-.59.05-1.2.08-1.84.63-13.57-5-25.77-5.37-38.83a19.2,19.2,0,0,1,2.25-9.22S328.18,314.06,328.2,314Z"/><path class="cls-4" d="M325.89,323.35c.37,13.06,6,25.26,5.37,38.83,0,.64-.06,1.25-.08,1.84A205.91,205.91,0,0,1,308,361.65c-9.83-1.81-26.51-10.21-40.8-11.64s-15.24-5.09-23.24-7.31-7.89-4.3-12.82-5.1-14.72-1.49-25.13-5.15c-7.59-2.67-23.27-5-34.61-5.69-2.46-13.41,2.24-20.24,2.24-20.24,14.41,0,30.16-.7,43,.81,15.11,1.77,24.95,11.72,43,11.55s39.55-2.42,52.42-.35c11.48,1.85,15.39-3.27,16.1-4.4A19.2,19.2,0,0,0,325.89,323.35Z"/><path class="cls-2" d="M173.59,306.52s-4.7,6.83-2.24,20.24a65.94,65.94,0,0,0-10.23,0c-8.75,1-9.18,7.77-10.88,10.13-1.44,2-6.87,15.06-8.5,19a5.68,5.68,0,0,0-.42,2.34l.2,6.91a1.5,1.5,0,0,1-1.49,1.55l-.26,0a5.11,5.11,0,0,1-4.28-4.56l-.46-4.77a5.66,5.66,0,0,0-.86-2.51c-1.2-1.88-.76-3.74-.06-9.31a76.44,76.44,0,0,0,.85-14.82c-.18-2.51-1.68-6.39-2.68-8.72a15,15,0,0,1-1.13-4.56,75.14,75.14,0,0,1-.23-8.05c.19-5.25,5.07-6.88,14-5.22a196.48,196.48,0,0,0,21.19,2.3C168.57,306.5,171.06,306.52,173.59,306.52Z"/><path class="cls-5" d="M539.88,391.82c.45,5,4.14,8.12,11.75,6.06,8-2.16,6.8-10.32,4-12"/><path class="cls-5" d="M539.32,350.77a4,4,0,0,1-3.53-1.4l-4.67-3.13-1.66,4.55"/><path class="cls-5" d="M523.73,382.39a8,8,0,0,1-3.89-5.27s-.21-3.28,3.21-1.16"/><path class="cls-5" d="M529.55,378s3.12,5.29-2.87,5.52a9.33,9.33,0,0,1-2.51-.88"/><path class="cls-5" d="M526.68,383.51c5.29,1.12,7.53-3.84,7.53-3.84,3.43-6.28,16-8.66,16-8.66,15.51-1,9.28-20,9.11-20.54"/><path class="cls-5" d="M514.59,381.51s5.56-1,9.14.88a3.75,3.75,0,0,1,.44.24"/><path class="cls-5" d="M519.31,368.57s-5.42-2.77-4.64-8.14"/><path class="cls-5" d="M490.06,366s13.36,5.45,21.59,8.13"/><path class="cls-5" d="M498.23,157.71a4.49,4.49,0,0,0-.21,1.36,4.37,4.37,0,0,0,.06.72l.31,2a4,4,0,0,1-.05,1.5l-1.16,5.14"/><path class="cls-5" d="M450.11,389.21c7,6.41,12.59,10.56,10.51,28.5-2.25,19.32,1,32.6,2.42,39.56a25.53,25.53,0,0,1,.48,6.29c0,.41,0,.81,0,1.22a26.44,26.44,0,0,0,.38,4.44l.29,1.62c.15.91.26,1.81.32,2.73.24,3.67,1.26,14.84,5.08,24.93a183.61,183.61,0,0,1,6.81,21.84c.29,1,.86,9.5,2.16,13l.68,2.46a9.68,9.68,0,0,1-.59,6.74c-.17.35-.34.68-.51,1a13,13,0,0,0-.82,1.46c-.23.51-.57,1.19-.94,1.88a1.76,1.76,0,0,0,1.16,2.56,4.58,4.58,0,0,0,1,.11,4.51,4.51,0,0,0,3.93-2.33,25.37,25.37,0,0,0,2-4.4,6.59,6.59,0,0,1,4.59-3.95l.42-.07a6,6,0,0,1,4.25.8l.85.52L509,549a6.43,6.43,0,0,0,3,.92l.69,0a1.77,1.77,0,0,0,1.83-1.67v-.08a1.74,1.74,0,0,0-.81-1.48c-2.38-1.52-9.12-5.87-12.44-8.54a6.57,6.57,0,0,1-2-2.65,6.81,6.81,0,0,0-1.67-2.38c-2.62-2.4-9.13-8.61-9.9-11.76-1-4-2.44-28-2.75-35.35s1.13-17.24-1.1-22.07-3-6-2.24-11.36,1.62-21.36,1.71-26.54c.08-4.15,4.15-11.42,4.51-24.72.21-8.14.34-12.92.68-16a14.54,14.54,0,0,1,1-4.3c1.18-2.7,4.1-7.89,8.56-7.72,9,.34,13.07,5.42,14.82,6.89.56.47,1.1.94,1.63,1.42,3.53,3.15,6.8,6.39,12.32,7.94a37.3,37.3,0,0,0,12.95,1.21,28.43,28.43,0,0,0,14.05-4.87,26.33,26.33,0,0,0,5.07-4.68s10.32-14,2.94-27.66c0,0-.28-1.22-2.54-3h0a32.54,32.54,0,0,0-8.06-4.48s-1.27-.61-3.33-1.53-4.71.25-8.74-1.78-15-.29-22.12-.15c0,0-7.15-.17-6.86,9.06l-8.06-1.82c-.33-2.4-2.45-6.12-2.54-11a18,18,0,0,1,1.76-8.09s4-8.81,4.13-12.73-.63-13.34-5.73-24.84-4.84-30.11-5.13-41.51,2.78-7.63-.07-24.13a157.11,157.11,0,0,1-1.89-33c0-.94.14-1.87.27-2.8l1-7a3,3,0,0,1,1.25-2,13.27,13.27,0,0,0,3.65-3.85l1.81-2.89a12.91,12.91,0,0,0,1.95-7.23c0-.12,0-.24,0-.36a14.72,14.72,0,0,1,.12-1.76l.47-3.52a5,5,0,0,0,0-1.63l-.84-4.64a1.71,1.71,0,0,0-2.9-.91,4.53,4.53,0,0,0-1.16,1.9"/><path class="cls-5" d="M458.64,390.41a30.27,30.27,0,0,1,9,11.86"/><path class="cls-5" d="M483.11,306.89s-1.6,11.82-12,11.32"/><path class="cls-5" d="M499.59,338.73l-19.9-1.13s-20.47,20.95-12,48.27l20.86-.58"/><line class="cls-5" x1="479.69" y1="337.6" x2="458.6" y2="312.93"/><path class="cls-5" d="M467.68,385.87l-17.57,3.34s-14.66-9.22-21.37-12.14-17.27-7.46-22.3-11.38-15.35-.85-25.28-4.7"/><path class="cls-5" d="M489.39,538.75a8.23,8.23,0,0,0,2.6,5.38,6.5,6.5,0,0,0,4.19,1.73l1,0a1.44,1.44,0,0,0,1.51-1.38v-.07a1.45,1.45,0,0,0-.84-1.31c-1.08-.5-2.8-1.52-3.33-3.08"/><path class="cls-5" d="M394.63,561.19a2.46,2.46,0,0,0,2.58-2.35v-.12a2.37,2.37,0,0,0-2-2.34A52,52,0,0,1,382,551.93c-9.32-4.44-25.35-9.82-25.74-28.54,0,0-1-21.57,1.55-33.42s2.28-25.55,2.49-34.67a45.34,45.34,0,0,1,2.37-9c1.46-3.19,1.72-4,2.21-9.9s3.38-16.58,4.23-30.24c.69-11.05,7.58-26.66,12.05-45.15.58-2.42,1.13-4.89,1.61-7.41a43.72,43.72,0,0,0,.71-8.92v-.61a15.38,15.38,0,0,1,1.79-6.72l2.67-5.14a13.83,13.83,0,0,0,.92-2.13,26,26,0,0,0-3.17-23.17s-4.86-6.48-8.78-8.58"/><path class="cls-5" d="M328.14,314.13a19.2,19.2,0,0,0-2.25,9.22c.37,13.06,6,25.26,5.37,38.83,0,.64-.06,1.25-.08,1.84-.47,12.08.3,15.81,1.12,24.86.86,9.5,3.18,22.65,2.92,35.36s1.17,9.84-.32,20.86-7.59,22.8-4.36,44.47c1.8,12.1,3.55,23.31,4.24,33.06.54,7.71.43,14.52-.84,20.14-2.88,12.71-3.85,19.51,4.29,19.89s26.6,1.24,37.32,1.18a2.37,2.37,0,0,0,1.4-.33,1.44,1.44,0,0,1,.75-.21,1.46,1.46,0,0,1,.7.18l1,.54a5.4,5.4,0,0,0,2.35.67l.89,0a1.56,1.56,0,0,0,1.61-1.26.91.91,0,0,0,0-.23v0a1.23,1.23,0,0,0-.59-1l-2.81-1.7"/><path class="cls-5" d="M498.23,157.71v0L497.88,140a2.21,2.21,0,0,0-4.41,0v0l.21,14.75-.31-17a2.15,2.15,0,0,0-4.29,0l-.56,18,.46-15.56a1.66,1.66,0,0,0-3.32-.2l-1.59,17.53.08-8.52a1.91,1.91,0,0,0-3.82-.13l-.63,10.39a18.73,18.73,0,0,1-.64,3.87,18.84,18.84,0,0,0-.67,5,19.89,19.89,0,0,0,.14,2.31l1.36,11.2a12.15,12.15,0,0,1,0,2.89l-1,8.26S473.73,226,473,241.17a25.71,25.71,0,0,1-.27,2.77l-.27,1.68a8.24,8.24,0,0,0,.26,3.66,10,10,0,0,1,.38,1.43v0a27,27,0,0,1,.28,7.45c-1,9.83-2.49,32.58.47,42.9a7.32,7.32,0,0,1-1.29,6.6c-2.08,2.62-6.15,5.41-14,5.25-24.78-2.39-54.46-5.65-64.26-9.12-5.38-1.91-11.29-4-17.43-5.5h0c-11.91-3-24.65-4-35.91,2,0,0-8.56,5.54-12.79,13.76"/><path class="cls-5" d="M383.82,557.92l1.55.69,3.95,1.75a1.22,1.22,0,0,1,.72,1.16l0,.36a1.42,1.42,0,0,1-.08.41,1.63,1.63,0,0,1-1.56,1.17h-4.15"/><path class="cls-5" d="M386.47,556.14,393.9,559a1.19,1.19,0,0,1,.77,1.18v.28a2,2,0,0,1-.16.7,2.08,2.08,0,0,1-2,1.29l-2.48-.12"/><path class="cls-5" d="M334.78,522.63s7.44,5.54,21.48.76"/><path class="cls-5" d="M342.33,539.85l-.15,3.24a9.85,9.85,0,0,0,3.62,8.1"/><path class="cls-5" d="M328.27,313.91l-.07.12s0,.06-.06.1c-.71,1.13-4.62,6.25-16.1,4.4-12.87-2.07-34.35.18-52.42.35s-27.9-9.78-43-11.55c-12.86-1.51-28.61-.81-43-.81-2.53,0-5,0-7.44-.08a196.48,196.48,0,0,1-21.19-2.3c-9-1.66-13.85,0-14,5.22a75.14,75.14,0,0,0,.23,8.05,15,15,0,0,0,1.13,4.56c1,2.33,2.5,6.21,2.68,8.72a76.44,76.44,0,0,1-.85,14.82c-.7,5.57-1.14,7.43.06,9.31a5.66,5.66,0,0,1,.86,2.51l.46,4.77a5.11,5.11,0,0,0,4.28,4.56l.26,0a1.5,1.5,0,0,0,1.49-1.55l-.2-6.91a5.68,5.68,0,0,1,.42-2.34c1.63-3.93,7.06-17,8.5-19,1.7-2.36,2.13-9.11,10.88-10.13a65.94,65.94,0,0,1,10.23,0c11.34.68,27,3,34.61,5.69,10.41,3.66,20.2,4.36,25.13,5.15s4.81,2.89,12.82,5.1,9,5.89,23.24,7.31,31,9.83,40.8,11.64A205.91,205.91,0,0,0,331.18,364"/><path class="cls-5" d="M173.59,306.52s-4.7,6.83-2.24,20.24h0"/></svg>