<svg id="Layer_1" data-name="Layer 1" xmlns="http://www.w3.org/2000/svg" viewBox="0 0 700 700"><defs><style>.cls-1{fill:#feae63;}.cls-2{fill:#99abcc;}.cls-3{fill:#c4e7f9;}.cls-4{fill:#170607;}.cls-5{fill:none;stroke:#000;stroke-linecap:round;stroke-linejoin:round;stroke-width:2.3px;}</style></defs><title>Yoga_poses_2020_color</title><path class="cls-1" d="M535.2,236.85l-.16-.19a2,2,0,0,1,.1-2.68l1.11-1.1c2.24,1.23,3.86,2.27,3.86,2.27L547,241a2.52,2.52,0,0,0,3.57-.31l1.62,10.3a10.48,10.48,0,0,0,1.45,3.89l9,14.63a7.49,7.49,0,0,1,.7,1.42l.76,2.05a8,8,0,0,1-6.89,10.81,32.57,32.57,0,0,0-10.6,2.52c-1.55.7-5.39,2.85-10.47,5.73A20.2,20.2,0,0,0,529,275.46c6.24-3.33,10.28-6.76,10.48-9.68.24-3.74.49-14.95.6-20L539,244.19a13.27,13.27,0,0,0-3-2.94l-2.5-1.79a13.86,13.86,0,0,0-3.57-1.83l-.16,0a3.18,3.18,0,0,1,.58-6.16l0-.28.72-.12,0,.3-.41,1.68a1.59,1.59,0,0,0,.76,1.76Z"/><path class="cls-1" d="M555.75,251.2a1.72,1.72,0,0,1-3.37.6l-.22-.82-1.62-10.3a2.52,2.52,0,0,0-.18-3.4l-7-6.85,1.07-2.79,6.5,2.5a5.19,5.19,0,0,1,3.31,4.38Z"/><path class="cls-1" d="M532.21,230.84l-1.14.18-.72.12c-4.32.68-15.3,2.41-24.12,3.69-11.24,1.62-25.74,1.3-34.37,1s-32.58,2.93-42.84,0-26.33-6.48-31.06,2.47h0a21.39,21.39,0,0,0-.7,3.71s.7-8.66-4-19.61a76.85,76.85,0,0,1-2.61-15.88c4.06.85,7.91,1.14,10.05,1.46,4.48.68,17.7-1.68,29.27,7.52,0,0,10,4.36,19.43,5s14.34,2.14,25.09,1.89c9.27-.23,44.5,0,54,0a12.8,12.8,0,0,1,4.58.87l11.4,4.38-1.07,2.79,7,6.85A2.51,2.51,0,0,1,547,241l-6.86-5.84s-1.62-1-3.86-2.27C535,232.21,533.63,231.48,532.21,230.84Z"/><path class="cls-1" d="M536.25,232.88l-1.11,1.1a2,2,0,0,0-.1,2.68l.16.19-3.73-2.09a1.59,1.59,0,0,1-.76-1.76l.41-1.68,0-.3,1.14-.18C533.63,231.48,535,232.21,536.25,232.88Z"/><path class="cls-2" d="M365.92,303.27c5.46-.87,9.89-1.36,13.67-1.63h0c8.93-.64,14.28-.06,21.14-.45a281.39,281.39,0,0,0,33.45-3.59c12.16-2.06,16.07-1.3,23-1.08s13.36-3.59,22.91-6.52,19.77-3.26,33.89-8.14a106.22,106.22,0,0,0,15-6.39A20.2,20.2,0,0,1,536.16,292c-15.23,8.65-41.66,23.88-51.43,26.2-13,3.09-32.91,1.79-39.58,3.58a183.29,183.29,0,0,0-51.81,24.44q-2.68,1.86-5.23,3.5c-13.67,8.8-24.62,13.08-33.69,14.9a29.8,29.8,0,0,1-20.23-3,27.37,27.37,0,0,1-7.61-6.16c-.3-.35-.6-.71-.89-1.08-14.91-18.83-9.56-38.44.7-57.5a71.3,71.3,0,0,1,12.85.19A119.9,119.9,0,0,1,365.92,303.27Z"/><path class="cls-1" d="M398,566.45a37,37,0,0,0,4.35,1.43,3.78,3.78,0,0,0,.6,0,2.14,2.14,0,0,1,1.45,3.72l-.05,0c-1.83,1.52-4.89.73-6.2.66s-13,1.35-19.7-1.12-17.3-1.69-21.46.13c-4.39,1.92-10.59.79-10.59.79s-3.83-.9-2.26-9.47c0,0,2.73-15,2.71-18.27,0,0,.07-3.36.08-8,11.4,2.27,18.45-.22,18.45-.22,0,7.41.93,13.59,3.52,16.76C373,557.28,397.26,566.14,398,566.45Z"/><path class="cls-3" d="M393.24,222.38c4.71,11,4,19.61,4,19.61-1.3,13.36-2.28,13.2-6.19,18.9s-12.54,29-11.56,39.58l.09,1.16h0c-3.78.27-8.21.76-13.67,1.63a119.9,119.9,0,0,0-26.68-6.19,71.3,71.3,0,0,0-12.85-.19,45.51,45.51,0,0,0,4.87-24.31c-2.31-14.46-3.92-17.83-5.69-23.47-.34-3.74,3.53-13.72,5.69-22.18C373.91,238.94,393.24,222.38,393.24,222.38Z"/><path class="cls-1" d="M390.63,206.5a76.85,76.85,0,0,0,2.61,15.88s-19.33,16.56-62,4.55a98.53,98.53,0,0,0-1.61-22.8l-.12-.67a25,25,0,0,0,3.26-.86c4.89-1.52,13.23-2.31,15-4v-8l.17,0,13.8-4.65c3.75-1.16,5.63-9.32,5.63-9.32l.27-.31c.55.67,1.75.32,1.75.32a7.42,7.42,0,0,0,2.75-2.16h0s.7,20.52,6.36,26.4C381.46,204,386.17,205.56,390.63,206.5Z"/><path class="cls-2" d="M388.11,349.75s2.69,32.44,0,45.47S378,426.06,377.16,439.53s-4.77,13.47-5.64,19.11a277.14,277.14,0,0,0-2.61,32.15c-.15,10.58-3.58,30.47-3.52,45.36,0,0-7.05,2.49-18.45.22,0-8-.16-19.8-1.16-25.05-1.59-8.31-3.37-30.86-1-41.09s4.16-11.13,4.16-18.25-2.23-41.53-2.23-41.53-1.33-31.3-1.33-34.42c0,0-.45-3.71-3-5s-8.14-7-8.22-9.36a29.8,29.8,0,0,0,20.23,3C363.49,362.83,374.44,358.55,388.11,349.75Z"/><path class="cls-4" d="M382.94,136.23c3.18,5.27.69,9.75-2.7,11.78l-1.31.4a29.07,29.07,0,0,0-10-14.11l1.73,0C374.31,132.12,379.76,131,382.94,136.23Z"/><path class="cls-4" d="M378.93,148.41c1.88,6.32,1.38,14.46-5.6,23.89h0a8.82,8.82,0,0,0,.54-3.21c-.95-3.69-3.19-3.09-4.54-2.31-7.24-2.12-12.48-16.3-12.48-16.3-4.7-8.61-13.23-9.8-17.79-7.82a.57.57,0,0,1-.44,0c-.61-.26-.66-1.89.1-3.59,2.59-5.71,8.4-12.61,24.62-7.55a32.58,32.58,0,0,1,5.38,2.59l.22.16A29.07,29.07,0,0,1,378.93,148.41Z"/><path class="cls-1" d="M369.32,166.78c1.35-.78,3.59-1.38,4.54,2.31a8.82,8.82,0,0,1-.54,3.21,7.59,7.59,0,0,1-1.2,2.17,7.42,7.42,0,0,1-2.75,2.16s-1.2.35-1.75-.32l-.27.31s-1.88,8.16-5.63,9.32l-13.8,4.65-.17,0c-8.25,2-9.51-4.51-9.51-4.51-1.56-6.52-5.35-16.19-4.29-20.29s-.56-6.29-.13-8.36.74-3.35.74-3.35c1.75-9.79,4.05-11.43,4.05-11.43a.57.57,0,0,0,.44,0c4.56-2,13.09-.79,17.79,7.82C356.84,150.48,362.08,164.66,369.32,166.78Zm-19.61-.1c.65-.09,1-1.37.79-2.86s-.91-2.62-1.55-2.53-1,1.38-.79,2.86S349.07,166.77,349.71,166.68Zm-11.49-1.79c.59-.08.91-1.26.72-2.62s-.83-2.4-1.42-2.31-.91,1.26-.72,2.62S337.63,165,338.22,164.89Z"/><path d="M350.5,163.82c.21,1.49-.14,2.77-.79,2.86s-1.33-1-1.55-2.53.14-2.77.79-2.86S350.29,162.33,350.5,163.82Z"/><path d="M338.94,162.27c.19,1.36-.13,2.54-.72,2.62s-1.22-.95-1.42-2.31.13-2.54.72-2.62S338.75,160.91,338.94,162.27Z"/><path class="cls-1" d="M139,196.62a6.17,6.17,0,0,1-2.31-.72c-.32-.45.18-2.11,3.92-2.22s17.11,2.44,19.3,2.16a9.58,9.58,0,0,0,4.27-2.1,20.16,20.16,0,0,0-5.84-1.94c-3-.41-4.94-1.67-4.52-3.58s6.42.13,9,.75,3.89,1.22,6.51,1.67a7.34,7.34,0,0,1,4.17,2.39c5.47,6.17,7.73,7.5,15.95,9.44,0,0,14.17,3.49,21.72,3.81,6.95.29,23.09-1.79,33.31,1.48s20.53-.33,28-.14,17.48-.17,25.84-2.22c7.52-1.85,14.57-2.9,27.15-1.8a14.31,14.31,0,0,0,4.06-.14l.12.67a98.53,98.53,0,0,1,1.61,22.8c-2.16,8.46-6,18.44-5.69,22.18-.4-1.24-.8-2.6-1.22-4.21-1.7-6.51-5.46-14.66-12.13-15.61-4.72-.68-13.62.41-20.85.87-15.39,1-32.27-3.32-36.7-4.56s-4-.62-8.38-1.65l-1.92-.44a44.69,44.69,0,0,0-9.57-1.13c-22.67-.15-48.35-8-48.35-8a70.6,70.6,0,0,0-17.62-.68c-5.86.5-13.92-.31-15.38-.38s-6.56.66-8.25.75-4.44.36-4.28-1.66c.12-1.57,6.25-2.67,9.89-3.24a.29.29,0,0,0,0-.58c-3.58-.41-8.11-1.16-11.21-1.53-3.83-.46-3.54-1.83-3.54-1.83s-.43-1.52,6.57-1.2l7.4,0a.3.3,0,0,0,.1-.58,72.13,72.13,0,0,0-9.47-2c-5-.94-6.22-1.24-6.07-3.19C134.71,196.33,138.44,196.57,139,196.62Z"/><path class="cls-5" d="M370.66,134.27c3.65-2.15,9.1-3.31,12.28,2s.69,9.75-2.7,11.78"/><path class="cls-5" d="M342,163.93a3.84,3.84,0,0,1-.57,3.52l-1.94,4.91,4.5.6"/><path class="cls-5" d="M338.61,142.69s-2.3,1.64-4.05,11.43c0,0-.3,1.28-.74,3.35s1.19,4.27.13,8.36,2.73,13.77,4.29,20.29c0,0,1.26,6.49,9.51,4.51l.17,0,13.8-4.65c3.75-1.16,5.63-9.32,5.63-9.32"/><path class="cls-5" d="M373.33,172.3c7-9.43,7.48-17.57,5.6-23.89a29.07,29.07,0,0,0-10-14.11l-.22-.16a32.58,32.58,0,0,0-5.38-2.59c-16.22-5.06-22,1.84-24.62,7.55-.76,1.7-.71,3.33-.1,3.59a.57.57,0,0,0,.44,0c4.56-2,13.09-.79,17.79,7.82,0,0,5.24,14.18,12.48,16.3"/><path class="cls-5" d="M368.23,167.56a6.42,6.42,0,0,1,1.09-.78c1.35-.78,3.59-1.38,4.54,2.31a8.82,8.82,0,0,1-.54,3.21,7.59,7.59,0,0,1-1.2,2.17,7.42,7.42,0,0,1-2.75,2.16s-1.2.35-1.75-.32c-.31-.38-.41-1.09.05-2.38"/><line class="cls-5" x1="348.21" y1="190.54" x2="354.27" y2="200.88"/><line class="cls-5" x1="370.02" y1="184.72" x2="369.9" y2="207.96"/><path class="cls-5" d="M164.21,193.74a20.16,20.16,0,0,0-5.84-1.94c-3-.41-4.94-1.67-4.52-3.58s6.42.13,9,.75,3.89,1.22,6.51,1.67a7.34,7.34,0,0,1,4.17,2.39c5.47,6.17,7.73,7.5,15.95,9.44,0,0,14.17,3.49,21.72,3.81,6.95.29,23.09-1.79,33.31,1.48s20.53-.33,28-.14,17.48-.17,25.84-2.22c7.52-1.85,14.57-2.9,27.15-1.8a14.31,14.31,0,0,0,4.06-.14,25,25,0,0,0,3.26-.86c4.89-1.52,13.23-2.31,15-4v-8"/><path class="cls-5" d="M139.11,196.63c4.11.82,12.15,1.83,13.4,2.32"/><path class="cls-5" d="M164.21,193.74a9.58,9.58,0,0,1-4.27,2.1c-2.19.28-15.55-2.27-19.3-2.16s-4.24,1.77-3.92,2.22a6.17,6.17,0,0,0,2.31.72"/><path class="cls-5" d="M308.42,216.74s13.64,6.39,15.45,17.31"/><path class="cls-5" d="M329.65,204.13a98.53,98.53,0,0,1,1.61,22.8c-2.16,8.46-6,18.44-5.69,22.18v0"/><path class="cls-5" d="M372.13,174.48s.7,20.52,6.36,26.4c3,3.07,7.68,4.68,12.14,5.62,4.06.85,7.91,1.14,10.05,1.46,4.48.68,17.7-1.68,29.27,7.52,0,0,10,4.36,19.43,5s14.34,2.14,25.09,1.89c9.27-.23,44.5,0,54,0a12.8,12.8,0,0,1,4.58.87l11.4,4.38,6.5,2.5a5.19,5.19,0,0,1,3.31,4.38l1.5,16.68a1.72,1.72,0,0,1-3.37.6l-.22-.82"/><path class="cls-5" d="M543.37,230.43l7,6.85A2.51,2.51,0,0,1,547,241l-6.86-5.84s-1.62-1-3.86-2.27c-1.21-.67-2.62-1.4-4-2a17.81,17.81,0,0,0-6.43-1.88"/><path class="cls-5" d="M532.21,230.84l-1.14.18-.72.12c-4.32.68-15.3,2.41-24.12,3.69-11.24,1.62-25.74,1.3-34.37,1s-32.58,2.93-42.84,0-26.33-6.48-31.06,2.47"/><path class="cls-5" d="M411.75,222.38S401,227.47,398,238.27h0a21.39,21.39,0,0,0-.7,3.71c-1.3,13.36-2.28,13.2-6.19,18.9s-12.54,29-11.56,39.58"/><path class="cls-5" d="M550.54,240.68l1.62,10.3a10.48,10.48,0,0,0,1.45,3.89l9,14.63a7.49,7.49,0,0,1,.7,1.42l.76,2.05a8,8,0,0,1-6.89,10.81,32.57,32.57,0,0,0-10.6,2.52c-1.55.7-5.39,2.85-10.47,5.73-15.23,8.65-41.66,23.88-51.43,26.2-13,3.09-32.91,1.79-39.58,3.58a183.29,183.29,0,0,0-51.81,24.44q-2.68,1.86-5.23,3.5c-13.67,8.8-24.62,13.08-33.69,14.9a29.8,29.8,0,0,1-20.23-3,27.37,27.37,0,0,1-7.61-6.16c-.3-.35-.6-.71-.89-1.08-14.91-18.83-9.56-38.44.7-57.5a45.51,45.51,0,0,0,4.87-24.31c-2.31-14.46-3.92-17.83-5.69-23.47-.4-1.24-.8-2.6-1.22-4.21-1.7-6.51-5.46-14.66-12.13-15.61-4.72-.68-13.62.41-20.85.87-15.39,1-32.27-3.32-36.7-4.56s-4-.62-8.38-1.65l-1.92-.44a44.69,44.69,0,0,0-9.57-1.13c-22.67-.15-48.35-8-48.35-8a70.6,70.6,0,0,0-17.62-.68c-5.86.5-13.92-.31-15.38-.38s-6.56.66-8.25.75-4.44.36-4.28-1.66c.12-1.57,6.25-2.67,9.89-3.24a.29.29,0,0,0,0-.58c-3.58-.41-8.11-1.16-11.21-1.53-3.83-.46-3.54-1.83-3.54-1.83s-.43-1.52,6.57-1.2l7.4,0a.3.3,0,0,0,.1-.58,72.13,72.13,0,0,0-9.47-2c-5-.94-6.22-1.24-6.07-3.19.13-1.8,3.86-1.56,4.45-1.51h.08"/><path class="cls-5" d="M540.17,243.19s0,1,0,2.55c-.11,5.09-.36,16.3-.6,20-.2,2.92-4.24,6.35-10.48,9.68a106.22,106.22,0,0,1-15,6.39c-14.12,4.88-24.33,5.21-33.89,8.14s-16,6.74-22.91,6.52-10.86-1-23,1.08a281.39,281.39,0,0,1-33.45,3.59c-6.86.39-12.21-.19-21.14.45h0c-3.78.27-8.21.76-13.67,1.63-3.27.53-6.92,1.19-11,2l-12.29,3.45"/><path class="cls-5" d="M540.11,235.15l-.67.78a2,2,0,0,0-.1,2.43l1.67,2.32"/><path class="cls-5" d="M536.25,232.88l-1.11,1.1a2,2,0,0,0-.1,2.68l.16.19,2.55,2.94"/><path class="cls-5" d="M531.12,231.32l-.41,1.68a1.59,1.59,0,0,0,.76,1.76l3.73,2.09"/><path class="cls-5" d="M540.12,245.74,539,244.19a13.27,13.27,0,0,0-3-2.94l-2.5-1.79a13.86,13.86,0,0,0-3.57-1.83l-.16,0a3.18,3.18,0,0,1,.58-6.16h0"/><path class="cls-5" d="M529,275.46A20.2,20.2,0,0,1,536.16,292"/><path class="cls-5" d="M365.92,303.27a119.9,119.9,0,0,0-26.68-6.19,71.3,71.3,0,0,0-12.85-.19"/><path class="cls-5" d="M346.94,536.37c0-8-.16-19.8-1.16-25.05-1.59-8.31-3.37-30.86-1-41.09s4.16-11.13,4.16-18.25-2.23-41.53-2.23-41.53-1.33-31.3-1.33-34.42c0,0-.45-3.71-3-5s-8.14-7-8.22-9.36"/><path class="cls-5" d="M398,566.45h0"/><path class="cls-5" d="M388.11,349.75s2.69,32.44,0,45.47S378,426.06,377.16,439.53s-4.77,13.47-5.64,19.11a277.14,277.14,0,0,0-2.61,32.15c-.15,10.58-3.58,30.47-3.52,45.36,0,7.41.93,13.59,3.52,16.76,4.13,4.37,28.35,13.23,29.1,13.54a37,37,0,0,0,4.35,1.43,3.78,3.78,0,0,0,.6,0,2.14,2.14,0,0,1,1.45,3.72l-.05,0c-1.83,1.52-4.89.73-6.2.66s-13,1.35-19.7-1.12-17.3-1.69-21.46.13c-4.39,1.92-10.59.79-10.59.79s-3.83-.9-2.26-9.47c0,0,2.73-15,2.71-18.27,0,0,.07-3.36.08-8"/><path class="cls-5" d="M365.39,536.15s-7.05,2.49-18.45.22"/><path class="cls-5" d="M397.25,242s.7-8.66-4-19.61c0,0-19.33,16.56-62,4.55"/><path class="cls-5" d="M393.24,222.38a76.85,76.85,0,0,1-2.61-15.88h0"/></svg>