<svg id="Layer_1" data-name="Layer 1" xmlns="http://www.w3.org/2000/svg" viewBox="0 0 700 700"><defs><style>.cls-1{fill:#120c0c;}.cls-2{fill:#feae63;}.cls-3{fill:#99abcc;}.cls-4{fill:#c4e7f9;}.cls-5{fill:none;stroke:#000;stroke-linecap:round;stroke-linejoin:round;stroke-width:2.3px;}</style></defs><title>Yoga_poses_2020_color</title><path class="cls-1" d="M442.85,279.59c4.63,6-1.13,13.46-6,14.62-3.47.83-11-2.47-7.33-10.63l-.09-.05a19.73,19.73,0,0,0,2.05-4.27c.22-.91.41-1.8.57-2.66l.66.11S438.21,273.61,442.85,279.59Z"/><path class="cls-1" d="M400.3,280.54l0-.21a8.34,8.34,0,0,0,1.89-.35c5.09-3,0-6.1,0-6.1-1-2.14-.88-6.25,2-9.66s6.35-4.05,7.36-8.53c.51-2.27,3.47-12.26,3.47-12.26l1.4-.2c10.84,9.57,18.39,18.26,15.69,33.37-.16.86-.35,1.75-.57,2.66a19.73,19.73,0,0,1-2.05,4.27,27.66,27.66,0,0,1-12.88,11s-10,4.75-18.34,2.18c-4.27-1.32-7.93-2.2-9.82-3.33h0c-1.77-1.06-2-2.33.37-4.41s6.83-2.27,6.83-2.27C399.58,285.72,400.24,281.11,400.3,280.54Z"/><path class="cls-2" d="M400.28,280.33l0,.21c-.06.57-.72,5.18-4.69,6.16,0,0-4.55.24-6.83,2.27s-2.14,3.35-.37,4.41a84.78,84.78,0,0,0-11.59,6.78c-3.24,2.4-3.95,6.88-3.84,10.78L354.9,322c-37-22.95-16.19-55.12-16.19-55.12,15.59-1.52,22.69-2,22.69-2a32.7,32.7,0,0,0,2.73,7.23c1.81,2.67,2.44,3,5.26,2.35l6.64-1.43c1.22-.57-1.08-6.68-1.08-6.68-5.41-9.57,1.6-10.5,2.54-10.45l9.11-4.38-.73-5.1,6,.6c3.18.92,3.37-.57,7.35-2.1,5.07-1.95,14-1.26,14-1.26l1.83-.26s-3,10-3.47,12.26c-1,4.48-4.46,5.11-7.36,8.53s-3,7.52-2,9.66c0,0,5.13,3.15,0,6.1A8.34,8.34,0,0,1,400.28,280.33Zm-3.07-27.89c1.31-.58,2.17-1.51,1.92-2.08s-1.52-.56-2.84,0-2.17,1.52-1.92,2.09S395.89,253,397.21,252.44Z"/><path d="M399.13,250.36c.25.57-.61,1.5-1.92,2.08s-2.59.6-2.84,0,.61-1.51,1.92-2.09S398.88,249.79,399.13,250.36Z"/><path class="cls-2" d="M339.52,488l1.73.92a9.29,9.29,0,0,0,2.65.93l10.84,2a1.66,1.66,0,0,1-.43,3.29l-14-1.09,6.83,3.16a1.55,1.55,0,0,1-1.16,2.86l-16.13-5.63-10.24-2.05a4.65,4.65,0,0,0-4.22,1.28l-1.83,1.82-1.51,2.8a4.36,4.36,0,0,1-3.83,2.28H306a1.95,1.95,0,0,1-1.94-1.94,2,2,0,0,1,1.25-1.82l.62-.24a4.48,4.48,0,0,0,2.55-5.95l-.31-.74a14.81,14.81,0,0,1-1.15-5.71V475a14.69,14.69,0,0,1,.53-3.91c.83-3,2.57-9.27,4.61-16.53,4.18-14.87,9.66-34,11.35-38.11,2.86-7,3.17-17.45,6.35-22.1s9.19-23.89,9.51-33.41c.2-6,1.65-10.19,2.86-14.08a34.48,34.48,0,0,0,1.58-6.85c.63-6.34-9-7.8-9-7.8a38.68,38.68,0,0,0,13.26-6.06L354.9,322,373,310.94a34.05,34.05,0,0,0,1.09,7.4c2.33,18-3.81,29.4-7,36-.85,1.75-1.79,3.7-2.77,5.8-2.7,5.75-5.74,12.6-8.22,19.58-3.39,9.51-3.6,15.43-3.6,15.43-.42,9.73-2.11,15.86-5.5,22.63s-17.12,34-23.68,44.4a25.18,25.18,0,0,0-1.88,3.53c-3.37,7.9,1,11.49,1,11.49l9.73,7Z"/><path class="cls-2" d="M365.41,84.79a4.64,4.64,0,0,1,1.15-1.89,1.71,1.71,0,0,1,2.9.91l.85,4.64a5.3,5.3,0,0,1,0,1.64l-.48,3.52a12.38,12.38,0,0,0-.1,2.11v.36a13,13,0,0,1-2,6.87L366,105.84a13.11,13.11,0,0,1-3.64,3.85,3,3,0,0,0-1.26,2l-1,7c-.14.93-.23,1.86-.28,2.8a156.61,156.61,0,0,0,1.9,33c2.85,16.5-.22,15.73.06,27.13s-7.25,28.38-2.14,39.88,1.83,24.61,1.15,29.86a32.57,32.57,0,0,0,.6,13.5s-7.1.44-22.69,2c0,0-24.6-.5-33.95-6.33a150.25,150.25,0,0,1,18.35-9.13c13.53-5.19,11.68-14.47,11.68-14.47-3-10.33,4.83-41.82,5.82-51.65a27,27,0,0,0-.29-7.45v0a13.66,13.66,0,0,0-.38-1.43,8.23,8.23,0,0,1-.26-3.66l.26-1.68a23.41,23.41,0,0,0,.28-2.77c.68-15.13,5.88-48.26,5.88-48.26l1-8.27a12.15,12.15,0,0,0,0-2.89L345.7,97.67a19.93,19.93,0,0,1-.14-2.32,18.9,18.9,0,0,1,.67-5,18.75,18.75,0,0,0,.64-3.86l.63-10.4a1.91,1.91,0,0,1,3.82.13l-.08,8.52,1.59-17.53a1.67,1.67,0,0,1,3.33.2L355.69,83l.56-18a2.15,2.15,0,0,1,4.3,0l.3,17-.21-14.74v0a2.21,2.21,0,0,1,4.42-.07Z"/><path class="cls-3" d="M364.32,360.09s2.09,6,0,11.12S352.5,395.1,352.5,395.1s.21-5.92,3.6-15.43C358.58,372.69,361.62,365.84,364.32,360.09Z"/><path class="cls-2" d="M354,484.83a2.07,2.07,0,0,1-2,1.28l-2.48-.11-.06,0a1.64,1.64,0,0,1-1.56,1.17h-4.17a1.57,1.57,0,0,1-1.61,1.26l-.89,0a5,5,0,0,1-1.7-.38l-7.32-3.88-9.73-7s-4.4-3.59-1-11.49c5.71,4.44,15.19,7.64,20.07,10a52,52,0,0,0,13.25,4.45,2.36,2.36,0,0,1,2,2.34v.12a2.47,2.47,0,0,1-2.58,2.35h0Z"/><path class="cls-4" d="M354.9,322l-6.83,4.17a38.68,38.68,0,0,1-13.26,6.06A29.9,29.9,0,0,1,328,333c-11.09,0-13-3.49-20.95-5.39s-22,1.27-22.54,1.39h0a103.78,103.78,0,0,0-10.12-2.34c-1.39-.21-2.65-.35-3.8-.43-8.75-25.76-28.19-26.78-28.72-26.8,11.46-7.56,26.37-16.35,33-20.66,6.38-4.11,18.42-11.82,29.86-18.27,9.35,5.83,33.95,6.33,33.95,6.33S317.88,299,354.9,322Z"/><path class="cls-3" d="M330.71,376c-4.12-.45-14.16-1.05-29.59,1.15-20.72,3-48.21-1.27-61.32-3.81s-26.65-5.07-30.88-25.79,12.27-30.88,19.46-38.07c2.46-2.46,7.49-6.06,13.46-10h0c.53,0,20,1,28.72,26.8,1.15.08,2.41.22,3.8.43A103.78,103.78,0,0,1,284.49,329h0c20.29,5.43,57.75,17.83,57.75,17.83-1.21,3.89-2.66,8.11-2.86,14.08-.32,9.52-6.34,28.75-9.51,33.41s-3.49,15.12-6.35,22.1c-1.69,4.13-7.17,23.24-11.35,38.11a33.93,33.93,0,0,1-13.23-1.5c2.72-6.93,5.68-15,6.82-19.91,2.33-10.15.85-18.82,7.61-31.29S330.71,376,330.71,376Z"/><path class="cls-2" d="M299,453.07a33.93,33.93,0,0,0,13.23,1.5c-2,7.26-3.78,13.51-4.61,16.53A14.69,14.69,0,0,0,307,475v9.21a14.56,14.56,0,0,0,.12,1.87c-2.87-.12-8.37.28-10.31.19-8.14-.38-9.48-6.45-3.4-19.83C293.45,466.45,296.07,460.37,299,453.07Z"/><path class="cls-5" d="M364.36,95.56l1.16-5.14a4.2,4.2,0,0,0,.05-1.5l-.32-2a4.69,4.69,0,0,1,.16-2.11,4.64,4.64,0,0,1,1.15-1.89,1.71,1.71,0,0,1,2.9.91l.85,4.64a5.3,5.3,0,0,1,0,1.64l-.48,3.52a12.38,12.38,0,0,0-.1,2.11v.36a13,13,0,0,1-2,6.87L366,105.84a13.11,13.11,0,0,1-3.64,3.85,3,3,0,0,0-1.26,2l-1,7c-.14.93-.23,1.86-.28,2.8a156.61,156.61,0,0,0,1.9,33c2.85,16.5-.22,15.73.06,27.13s-7.25,28.38-2.14,39.88,1.83,24.61,1.15,29.86a33.72,33.72,0,0,0,3.33,20.73"/><path class="cls-5" d="M241.84,299.47c-6,3.93-11,7.53-13.46,10-7.19,7.19-23.68,17.34-19.46,38.07s17.77,23.26,30.88,25.79,40.6,6.77,61.32,3.81c15.43-2.2,25.47-1.6,29.59-1.15,1.41.16,2.13.3,2.13.3"/><path class="cls-5" d="M365.41,84.82v0l-.35-17.66a2.21,2.21,0,0,0-4.42.07v0L360.85,82l-.3-17a2.15,2.15,0,0,0-4.3,0l-.56,18,.47-15.56a1.67,1.67,0,0,0-3.33-.2l-1.59,17.53.08-8.52a1.91,1.91,0,0,0-3.82-.13l-.63,10.4a18.75,18.75,0,0,1-.64,3.86,18.9,18.9,0,0,0-.67,5,19.93,19.93,0,0,0,.14,2.32l1.37,11.19a12.15,12.15,0,0,1,0,2.89l-1,8.27s-5.2,33.13-5.88,48.26a23.41,23.41,0,0,1-.28,2.77l-.26,1.68a8.23,8.23,0,0,0,.26,3.66,13.66,13.66,0,0,1,.38,1.43v0a27,27,0,0,1,.29,7.45c-1,9.83-8.78,41.32-5.82,51.65,0,0,1.85,9.28-11.68,14.47a150.25,150.25,0,0,0-18.35,9.13c-11.44,6.45-23.48,14.16-29.86,18.27-6.68,4.31-21.59,13.1-33,20.66"/><path class="cls-5" d="M354.13,484.88h0a2.47,2.47,0,0,0,2.58-2.35v-.12a2.36,2.36,0,0,0-2-2.34,52,52,0,0,1-13.25-4.45c-4.88-2.32-14.36-5.52-20.07-10"/><path class="cls-5" d="M337.91,487.17l1,.53a4.22,4.22,0,0,0,.65.3,5,5,0,0,0,1.7.38l.89,0a1.57,1.57,0,0,0,1.61-1.26.91.91,0,0,0,0-.23v-.05a1.22,1.22,0,0,0-.59-1l-2.81-1.7"/><path class="cls-5" d="M307.16,486.09c-2.87-.12-8.37.28-10.31.19-8.14-.38-9.48-6.45-3.4-19.83,0,0,2.62-6.08,5.5-13.38,2.72-6.93,5.68-15,6.82-19.91,2.33-10.15.85-18.82,7.61-31.29S330.71,376,330.71,376"/><path class="cls-5" d="M343.33,481.61l5.5,2.44a1.2,1.2,0,0,1,.71,1.16v.36a1.42,1.42,0,0,1-.08.41,1.64,1.64,0,0,1-1.56,1.17h-4.15"/><path class="cls-5" d="M346,479.83l7.43,2.84a1.19,1.19,0,0,1,.77,1.18v.27a2.1,2.1,0,0,1-.16.71,2.07,2.07,0,0,1-2,1.28l-2.48-.11"/><path class="cls-5" d="M340.34,494.1l14,1.09a1.66,1.66,0,0,0,.43-3.29l-10.84-2a9.29,9.29,0,0,1-2.65-.93l-1.73-.92-7.32-3.88-9.73-7s-4.4-3.59-1-11.49a25.18,25.18,0,0,1,1.88-3.53c6.56-10.36,20.3-37.64,23.68-44.4s5.08-12.9,5.5-22.63c0,0,.21-5.92,3.6-15.43,2.48-7,5.52-13.83,8.22-19.58,1-2.1,1.92-4,2.77-5.8,3.17-6.55,9.31-18,7-36a34.05,34.05,0,0,1-1.09-7.4c-.11-3.9.6-8.38,3.84-10.78a84.78,84.78,0,0,1,11.59-6.78"/><line class="cls-5" x1="383.99" y1="286.91" x2="363.9" y2="290.86"/><path class="cls-5" d="M402.13,273.88s5.13,3.15,0,6.1a8.34,8.34,0,0,1-1.89.35,8,8,0,0,1-7-2.74s-1.7-2.74,2.24-2.48"/><path class="cls-5" d="M388.33,277s-5.22,1.21-7.73-2.85"/><path class="cls-5" d="M415,243.43s-3,10-3.47,12.26c-1,4.48-4.46,5.11-7.36,8.53s-3,7.52-2,9.66"/><path class="cls-5" d="M436.88,294.21c-3.47.83-11-2.47-7.33-10.63"/><path class="cls-5" d="M432.74,276.71s5.47-3.1,10.11,2.88-1.13,13.46-6,14.62"/><path class="cls-5" d="M416.58,294.53a27.66,27.66,0,0,0,12.88-11,19.73,19.73,0,0,0,2.05-4.27c.22-.91.41-1.8.57-2.66,2.7-15.11-4.85-23.8-15.69-33.37l-1.4.2-1.83.26s-8.91-.69-14,1.26c-4,1.53-4.17,3-7.35,2.1l-6-.6.73,5.1-9.11,4.38c-.94-.05-7.95.88-2.54,10.45,0,0,2.3,6.11,1.08,6.68l-6.64,1.43c-2.82.61-3.45.32-5.26-2.35"/><path class="cls-5" d="M400.31,280.48a.28.28,0,0,1,0,.06c-.06.57-.72,5.18-4.69,6.16,0,0-4.55.24-6.83,2.27s-2.14,3.35-.37,4.41h0c1.89,1.13,5.55,2,9.82,3.33,8.3,2.57,18.34-2.18,18.34-2.18"/><path class="cls-5" d="M284.5,329c20.29,5.43,57.75,17.83,57.75,17.83"/><path class="cls-5" d="M259.46,328.6s1.76-3,11.11-2.33c1.15.08,2.41.22,3.8.43A103.78,103.78,0,0,1,284.49,329"/><path class="cls-5" d="M334.81,332.22s9.65,1.46,9,7.8a34.48,34.48,0,0,1-1.58,6.85c-1.21,3.89-2.66,8.11-2.86,14.08-.32,9.52-6.34,28.75-9.51,33.41s-3.49,15.12-6.35,22.1c-1.69,4.13-7.17,23.24-11.35,38.11-2,7.26-3.78,13.51-4.61,16.53A14.69,14.69,0,0,0,307,475v9.21a14.81,14.81,0,0,0,1.15,5.71l.31.74a4.48,4.48,0,0,1-2.55,5.95l-.62.24a2,2,0,0,0-1.25,1.82,1.95,1.95,0,0,0,1.94,1.94h2.23a4.36,4.36,0,0,0,3.83-2.28l1.51-2.8,1.83-1.82a4.65,4.65,0,0,1,4.22-1.28l10.24,2.05L346,500.12a1.54,1.54,0,0,0,1.16-2.86l-6.83-3.16h0L331.57,490"/><path class="cls-5" d="M364.32,360.09s2.09,6,0,11.12S352.5,395.1,352.5,395.1"/><path class="cls-5" d="M241.84,299.47h0c.53,0,20,1,28.72,26.8"/><path class="cls-5" d="M284.49,329h0c.52-.12,14.75-3.26,22.54-1.39S316.9,333,328,333a29.9,29.9,0,0,0,6.82-.82,38.68,38.68,0,0,0,13.26-6.06L354.9,322,373,310.94"/><path class="cls-5" d="M361.4,264.91s-7.1.44-22.69,2c0,0-24.6-.5-33.95-6.33"/><path class="cls-5" d="M338.71,266.87S317.88,299,354.9,322"/><path class="cls-5" d="M299,453.07a33.93,33.93,0,0,0,13.23,1.5"/><path class="cls-5" d="M301,463.94l-.92,3.06a8.61,8.61,0,0,0,.92,7"/></svg>