<svg id="Layer_1" data-name="Layer 1" xmlns="http://www.w3.org/2000/svg" viewBox="0 0 700 700"><defs><style>.cls-1{fill:#392328;}.cls-2{fill:#feae63;}.cls-3{fill:#99abcc;}.cls-4{fill:#c4e7f9;}.cls-5{fill:none;stroke:#000;stroke-linecap:round;stroke-linejoin:round;stroke-width:2.3px;}</style></defs><title>Yoga_poses_2020_color</title><path class="cls-1" d="M486.77,363.6a9.39,9.39,0,0,0,3.11,0c5.34-.82,5.7-6.25,5.7-6.25,1-7.09,11.91-13.74,11.91-13.74,14.35-6.53,1.29-22.43,1.29-22.43,2.76.92,3.46,2,3.46,2,11.73,10.21,7,26.93,7,26.93a26,26,0,0,1-2.33,5,28.56,28.56,0,0,1-14,11.51,37.91,37.91,0,0,1-10.74,2.63c-5.08.43-9.8-1.37-14.3-3.16v0S482.76,363.09,486.77,363.6Z"/><path class="cls-1" d="M517.8,355.62c3.23.6,7.19,7.82.49,12.65-6.39,4.61-10.95,3-13.13-1.54l-2.27-.18a28.56,28.56,0,0,0,14-11.51Z"/><path class="cls-2" d="M489.88,363.61a9.39,9.39,0,0,1-3.11,0c-4-.51-8.91,2.39-8.91,2.39v0a61.52,61.52,0,0,0-7.34-2.58c-3.28-.82-8.44.51-11.65,2.55-2.2,1.4-4.87,5.89-4.68,8.48a33,33,0,0,1,0,3.74h-.14s-7.83,10.05-11.4,12.45c-1.13.76-2.64,2-4.67,3.25,0,0-21.21-19.43-13.6-47.67,10.32-1.26,21.51-10.08,22.2-10.63a17.88,17.88,0,0,0,4.41,3.26,20.1,20.1,0,0,0,11.66-.85c-2.17-7.3,3.77-9.38,3.77-9.38,6.65-2.65,16.27-8.13,20.76-7.65s6.56-1.56,8.81-1.42,3.65.27,3.65.27a32.42,32.42,0,0,1,9.13,1.36s13.06,15.9-1.29,22.43c0,0-10.91,6.65-11.91,13.74C495.58,357.36,495.22,362.79,489.88,363.61Zm3.05-28.2c1.95-.36,3.44-1.22,3.31-1.92s-1.82-1-3.78-.61-3.44,1.21-3.31,1.91S491,335.77,492.93,335.41Zm-3.17-9.78c1.53-.28,2.68-.95,2.58-1.49s-1.42-.76-2.94-.49-2.68,1-2.58,1.5S488.24,325.91,489.76,325.63Z"/><path d="M496.24,333.49c.13.7-1.36,1.56-3.31,1.92s-3.65.08-3.78-.62,1.36-1.55,3.31-1.91S496.11,332.79,496.24,333.49Z"/><path class="cls-2" d="M493,553.8c.35.59.06.93-.91,1.05a10.7,10.7,0,0,1-2.91,0l-1.4-.05a3.29,3.29,0,0,1-.58.14c-2.81.43-3.12-.4-4.06-.61,0,0-4.08,2.22-10.51,1a13.41,13.41,0,0,1-3.12-1.1,50.12,50.12,0,0,1-9.26-6.65c-1.77-1.66-2.49-2.81-3.9-3.43a123.82,123.82,0,0,1-9.9-12,17.12,17.12,0,0,1-1.69-3c3.13-2.2,3.6-6.37,3.63-6.61,3.33,2,8.06,4.77,10.22,6.16,3.53,2.27,7.41,3.78,16.17,11.59s14.66,7.8,16.11,8.31a22.56,22.56,0,0,1,4.11,2.55h0c.58.42,1,.72,1,.72s.4,1.62-2.62,1.82Z"/><path d="M492.34,324.14c.1.54-1,1.21-2.58,1.49s-2.84.06-2.94-.48,1.05-1.22,2.58-1.5S492.24,323.59,492.34,324.14Z"/><path class="cls-2" d="M476.52,555.74c.84,2.65-3.33,2.44-3.33,2.44-6.55-.11-12.59-4.17-14.46-5.78s-4.16-1.4-5.72-2.53a6.69,6.69,0,0,0-4.68-1.28c-1.67.08-2.67,1.16-4,3.14-.88,1.36-2,5.29-3.12,7-1.48,2.22-5.1,1-5.1,1s-1.71-.76,0-3.12c2.18-3,2.71-3.31,2.92-6.75s-3.54-8.13-4.58-13.86c-.1-.53-.2-1.15-.31-1.84h0a239.23,239.23,0,0,1-2.56-26.74c-.1-2.51-.15-5.07-.15-7.61,0-15.09.73-27.47.94-31.95s0-3.12-.94-8.94-1-10.41-1.77-16.34-1.25-22.37.63-33.81c0,0,3.05-9.5-5.8-9.91a33.75,33.75,0,0,0,13.46-5c2-1.28,3.54-2.49,4.67-3.25,3.57-2.4,11.4-12.45,11.4-12.45h.14c-.17,4.87-.91,11.33-.14,21,1,12.38-6,29.94-5.63,39.52s-.54,21.76.65,28.55.8,13.18-.8,22a260.35,260.35,0,0,0-3.48,26.35c-.16,1.84-.3,3.4-.43,4.75-.39,4.42-.48,6.53.43,8.79a17.12,17.12,0,0,0,1.69,3,123.82,123.82,0,0,0,9.9,12c1.41.62,2.13,1.77,3.9,3.43a50.12,50.12,0,0,0,9.26,6.65,13.41,13.41,0,0,0,3.12,1.1A16.47,16.47,0,0,0,476.52,555.74Z"/><path class="cls-2" d="M445,169a20.08,20.08,0,0,0,.94-6.09c-.09-3,.82-5.14,2.77-5s.95,6.35.77,9-.55,4-.55,6.7a7.34,7.34,0,0,1-1.66,4.51c-5.17,6.42-6.17,6.92-6.93,12s-1.7,18.51-1.89,33.24-3,21.53-2.7,31,1.19,15.3.37,24a63.59,63.59,0,0,0,0,14.15c3.71,16.34,4.08,27.1,4.08,32.36,0,3.46,3.21,7.8,6.36,10.78-.69.55-11.88,9.37-22.2,10.63,0,0-27.85-5.69-29.2-14.75a128.92,128.92,0,0,0,18.06-10.37c4.75-4.92,1.31-12,2.13-32.11s7.05-34.74,6.88-41.29.17-13.93.5-21.79,4.91-33.92,5.08-38.34-.19-5-1.66-10.68-2-13.78-2.2-15.23-1.75-6.36-2.12-8-1.1-4.32.92-4.5,3.77,9.92,4.41,11.75,1.56.19,1.2-3.51-.37-6.59-.56-10.44,1.47-3.86,1.47-3.86,1.66-.64,2,6.33.28,9.1,1.57,8.91.64-6.24.73-11.29.18-6.34,2.13-6.52,2.22,3.95,2.24,4.21a6.46,6.46,0,0,1,.31-2.47c.4-.39,2.12-.18,2.85,3.49s.46,17.28,1.1,19.39A11.06,11.06,0,0,0,445,169Z"/><path class="cls-3" d="M448.43,522.53h0c0,.24-.5,4.41-3.63,6.61-.91-2.26-.82-4.37-.43-8.79l.43,0Z"/><path class="cls-3" d="M368,402.84c3.56,7.76,7.75,16.71,11.73,26.56,8.33,20.6,11,16.66,18,38.58,0,0,2.63,7.89,6.58,11.83s27.18,27.62,27.18,27.62h.15a239.23,239.23,0,0,0,2.56,26.74c-6.17-7.46-43.92-25-54.44-46s-17.54-27.62-26.37-36.82c-4.92-5.13-12.63-12.29-20.54-20.59a181.88,181.88,0,0,1-18-21.5c-7.43-10.74-8.9-19.37-9-24.29a17.54,17.54,0,0,1,.4-4.54c.53-15.7,21.82-25.55,30.07-28.48,3.16-1.12,7-2.25,10.73-3.26,0,0,11.46.47,14.89,13.73s7.86,32.9,11.28,37.9A40.41,40.41,0,0,0,368,402.84Z"/><path class="cls-4" d="M438,393.9a33.75,33.75,0,0,1-13.46,5,44.07,44.07,0,0,1-8.58.37c-15.77-.8-28.35-2.59-35.34-1.2a40.48,40.48,0,0,0-7.35,2.26c-3.42-5-7.85-24.64-11.28-37.9s-14.89-13.73-14.89-13.73c8-2.16,15.62-3.82,15.62-3.82,14.64-2.29,22.93-9.11,32.48-13.36,1.35,9.06,29.2,14.75,29.2,14.75C416.78,374.47,438,393.9,438,393.9Z"/><path class="cls-3" d="M314.85,409.23a181.88,181.88,0,0,0,18,21.5S288.11,461,278.47,464.47s-10.08,4.82-16.66,8.33S242.08,489,235.07,496.47,209.2,520.14,207,525.84c-12.78-.61-14.35-7.39-14.35-7.39l-.18-.12c6.09-9.55,12.69-20.44,15.18-24.62,4.34-7.31,20.1-25.82,29.47-32s11.43-9.6,14.86-12.57,16.22-16.68,22.62-24,19.65-18.05,22.85-21.25,4.34-4.34,5-8.68a50.34,50.34,0,0,1,3.4-10.29h0C306,389.86,307.42,398.49,314.85,409.23Z"/><path class="cls-2" d="M234.16,547.32s1.83,3.74-1.6,4.66a11.77,11.77,0,0,1-7.08,0c-1.14-.46-5.55,2.39-10.12,1.71s-9-6.11-23.68-2.68c-13.73,3.21-17.73-1.43-16.24-6.57,1.82-6.33,2.29-5.94,6.17-10.27,2-2.29,6.32-8.7,10.87-15.84l.18.12s1.57,6.78,14.35,7.39c-2.19,5.7-1.31,7.46,2.19,11,0,0,5.44,4.26,7.79,6A29.93,29.93,0,0,0,227.45,547C230,547.21,234.16,547.32,234.16,547.32Z"/><path class="cls-5" d="M451,338.86a17.88,17.88,0,0,1-4.41-3.26c-3.15-3-6.36-7.32-6.36-10.78,0-5.26-.37-16-4.08-32.36a63.59,63.59,0,0,1,0-14.15c.82-8.68,0-14.54-.37-24s2.52-16.24,2.7-31,1.14-28.14,1.89-33.24,1.76-5.6,6.93-12a7.34,7.34,0,0,0,1.66-4.51c0-2.66.37-4,.55-6.7s1.18-8.93-.77-9-2.86,2-2.77,5A20.08,20.08,0,0,1,445,169"/><path class="cls-5" d="M438,144.75c-.13,4.19.22,12.27-.05,13.59"/><path class="cls-5" d="M445.84,169.75s-.34-.28-.81-.74a11.06,11.06,0,0,1-2.78-3.86c-.64-2.11-.36-15.71-1.1-19.39s-2.45-3.88-2.85-3.49a6.46,6.46,0,0,0-.31,2.47"/><path class="cls-5" d="M438,144.75h0c0-.26-.35-4.39-2.24-4.21s-2,1.47-2.13,6.52.55,11.11-.73,11.29-1.2-1.93-1.57-8.91-2-6.33-2-6.33-1.65,0-1.47,3.86.19,6.74.56,10.44-.56,5.35-1.2,3.51-2.39-11.93-4.41-11.75-1.28,2.85-.92,4.5,1.93,6.55,2.12,8,.73,9.53,2.2,15.23,1.82,6.25,1.66,10.68-4.76,30.47-5.08,38.34-.66,15.23-.5,21.79-6.06,21.13-6.88,41.29,2.62,27.19-2.13,32.11a128.92,128.92,0,0,1-18.06,10.37c-9.55,4.25-17.84,11.07-32.48,13.36,0,0-7.63,1.66-15.62,3.82-3.75,1-7.57,2.14-10.73,3.26-8.25,2.93-29.54,12.78-30.07,28.48a17.54,17.54,0,0,0-.4,4.54c.06,4.92,1.53,13.55,9,24.29a181.88,181.88,0,0,0,18,21.5c7.91,8.3,15.62,15.46,20.54,20.59,8.83,9.2,15.85,15.78,26.37,36.82s48.27,38.56,54.44,46"/><path class="cls-5" d="M353,365.52a66.9,66.9,0,0,1,6.58,16.53c1.37,5.26,4.54,12.31,8.44,20.79,3.56,7.76,7.75,16.71,11.73,26.56,8.33,20.6,11,16.66,18,38.58,0,0,2.63,7.89,6.58,11.83s27.18,27.62,27.18,27.62"/><path class="cls-5" d="M332.83,430.73S288.11,461,278.47,464.47s-10.08,4.82-16.66,8.33S242.08,489,235.07,496.47,209.2,520.14,207,525.84s-1.31,7.46,2.19,11c0,0,5.44,4.26,7.79,6A29.93,29.93,0,0,0,227.45,547c2.53.25,6.71.36,6.71.36s1.83,3.74-1.6,4.66a11.77,11.77,0,0,1-7.08,0c-1.14-.46-5.55,2.39-10.12,1.71s-9-6.11-23.68-2.68c-13.73,3.21-17.73-1.43-16.24-6.57,1.82-6.33,2.29-5.94,6.17-10.27,2-2.29,6.32-8.7,10.87-15.84,6.09-9.55,12.69-20.44,15.18-24.62,4.34-7.31,20.1-25.82,29.47-32s11.43-9.6,14.86-12.57,16.22-16.68,22.62-24,19.65-18.05,22.85-21.25,4.34-4.34,5-8.68a50.34,50.34,0,0,1,3.4-10.29"/><path class="cls-5" d="M495.05,551.15c.58.42,1,.72,1,.72s.4,1.62-2.62,1.82"/><path class="cls-5" d="M448.43,522.54c3.33,2,8.06,4.77,10.22,6.16,3.53,2.27,7.41,3.78,16.17,11.59s14.66,7.8,16.11,8.31a22.56,22.56,0,0,1,4.11,2.55"/><path class="cls-5" d="M444.8,520.4l3.63,2.13"/><path class="cls-5" d="M490.93,548.6a27,27,0,0,0,4.11,0c1.15-.2,1.46,2.37,0,2.55h0"/><path class="cls-5" d="M486.72,549.87a8.66,8.66,0,0,1,4.21,2,9,9,0,0,1,2.11,2c.35.59.06.93-.91,1.05a10.7,10.7,0,0,1-2.91,0"/><path class="cls-5" d="M480.79,550.58s3.33-.31,4.06,0a9,9,0,0,1,1.87,1.35c.48.39,2.89,2.24,1.1,2.87a3.29,3.29,0,0,1-.58.14c-2.81.43-3.12-.4-4.06-.61,0,0-4.08,2.22-10.51,1"/><path class="cls-5" d="M505.16,366.73c2.18,4.51,6.74,6.15,13.13,1.54,6.7-4.83,2.74-12-.49-12.65"/><path class="cls-5" d="M490.18,328.51a4.05,4.05,0,0,1-3.79-.06l-5.48-1.29,0,4.84"/><path class="cls-5" d="M490.63,357.43s4.78,3.85-.75,6.18a9.39,9.39,0,0,1-3.11,0,8,8,0,0,1-5.54-3.57s-1.35-3,2.6-2.21"/><path class="cls-5" d="M489.88,363.61c5.34-.82,5.7-6.25,5.7-6.25,1-7.09,11.91-13.74,11.91-13.74,14.35-6.53,1.29-22.43,1.29-22.43"/><path class="cls-5" d="M477.86,366s4.9-2.9,8.91-2.39l.46.07"/><path class="cls-5" d="M477.72,352.21s-6.05-.68-7.21-6"/><path class="cls-5" d="M440.45,360.58s14.43.39,23.08,0"/><path class="cls-5" d="M424.53,398.86c8.85.41,5.8,9.91,5.8,9.91-1.88,11.44-1.36,27.88-.63,33.81s.83,10.51,1.77,16.34,1.15,4.47.94,8.94-.94,16.86-.94,31.95c0,2.54,0,5.1.15,7.61a239.23,239.23,0,0,0,2.56,26.74h0c.11.69.21,1.31.31,1.84,1,5.73,4.78,10.41,4.58,13.86s-.74,3.76-2.92,6.75c-1.71,2.36,0,3.12,0,3.12s3.62,1.18,5.1-1c1.12-1.68,2.24-5.61,3.12-7,1.29-2,2.29-3.06,4-3.14a6.69,6.69,0,0,1,4.68,1.28c1.56,1.13,3.85.92,5.72,2.53s7.91,5.67,14.46,5.78c0,0,4.17.21,3.33-2.44a16.47,16.47,0,0,1-3.85-.43,13.41,13.41,0,0,1-3.12-1.1,50.12,50.12,0,0,1-9.26-6.65c-1.77-1.66-2.49-2.81-3.9-3.43a123.82,123.82,0,0,1-9.9-12,17.12,17.12,0,0,1-1.69-3c-.91-2.26-.82-4.37-.43-8.79.13-1.35.27-2.91.43-4.75a260.35,260.35,0,0,1,3.48-26.35c1.6-8.78,2-15.17.8-22s-.31-19-.65-28.55,6.61-27.14,5.63-39.52c-.77-9.69,0-16.15.14-21a33,33,0,0,0,0-3.74c-.19-2.59,2.48-7.08,4.68-8.48,3.21-2,8.37-3.37,11.65-2.55a61.52,61.52,0,0,1,7.34,2.58c4.5,1.79,9.22,3.59,14.3,3.16a37.91,37.91,0,0,0,10.74-2.63,28.56,28.56,0,0,0,14-11.51,26,26,0,0,0,2.33-5s4.75-16.72-7-26.93c0,0-.7-1-3.46-2a32.42,32.42,0,0,0-9.13-1.36s-1.4-.13-3.65-.27-4.33,1.91-8.81,1.42-14.11,5-20.76,7.65c0,0-5.94,2.08-3.77,9.38a14.78,14.78,0,0,0,.54,1.52"/><path class="cls-5" d="M442,408.87s-1.84-3.74-4-5.31-5.76-5.19-8.05-5.92"/><path class="cls-5" d="M424.93,308.2s.45,10.18-1.47,14.18-3.92,2.79-9.11,4.79"/><path class="cls-5" d="M451,338.86a20.1,20.1,0,0,0,11.66-.85"/><path class="cls-5" d="M454.06,378.2s-7.83,10.05-11.4,12.45c-1.13.76-2.64,2-4.67,3.25a33.75,33.75,0,0,1-13.46,5,44.07,44.07,0,0,1-8.58.37c-15.77-.8-28.35-2.59-35.34-1.2a44,44,0,0,0-12.6,4.81h0"/><path class="cls-5" d="M347.09,348.66s11.46.47,14.89,13.73,7.86,32.9,11.28,37.9"/><path class="cls-5" d="M192.66,518.45s1.57,6.78,14.35,7.39"/><path class="cls-5" d="M448.43,522.53h0c0,.24-.5,4.41-3.63,6.61"/><path class="cls-5" d="M438,393.9s-21.21-19.43-13.6-47.67c0,0-27.85-5.69-29.2-14.75"/><path class="cls-5" d="M446.62,335.57l0,0c-.69.55-11.88,9.37-22.2,10.63"/></svg>