<svg id="Layer_1" data-name="Layer 1" xmlns="http://www.w3.org/2000/svg" viewBox="0 0 700 700"><defs><style>.cls-1{fill:#99abcc;}.cls-2{fill:#feae63;}.cls-3{fill:#c4e7f9;}.cls-4{fill:#392328;}.cls-5{fill:#231f20;}.cls-6{fill:none;stroke:#000;stroke-linecap:round;stroke-linejoin:round;stroke-width:2.3px;}</style></defs><title>Yoga_poses_2020_color</title><path class="cls-1" d="M426.11,363l-3.22.49c-5.86.87-6.08-3-9.77-6.73s-9.34,3.69-13.25,7.82-6.52,3.47-14.56,4.12-8,5-8,5l-3.48.65a4.4,4.4,0,0,0-3.29,3.1s-28.42-.71-37.76-2.88-18.24-3.48-28.88.43c-10.48,3.85-27.05,3.49-27.58,3.48a59.14,59.14,0,0,1,6.73-2.83c5.43-1.73,14.77-8.69,21.93-15s15.64-7.5,21.72-8.64a123.06,123.06,0,0,0,12-3.45c5.79-1.87,11.58-3.83,13.6-4.16a70.49,70.49,0,0,1,23,.58h0s19.15-12.12,37.83-37.75l.33-1.1c8.39,4.59,16.84,10,19.65,12.82,5,5,6.08,5.65,15,5.87,8.45.21,40.33,3.53,55.16,22.57a15.64,15.64,0,0,1,3,6.74,16.36,16.36,0,0,1,.29,3,15.84,15.84,0,0,1-7,13.2,32.32,32.32,0,0,1-4.15,2.32,15.47,15.47,0,0,1-6.63,1.44,18.52,18.52,0,0,0-5.94,1,56.77,56.77,0,0,1-20,2.91c-11.21-.36-26.76.05-36,1.24v-.09a17.16,17.16,0,0,1-.66-15.92Z"/><path class="cls-2" d="M426.81,379.16v.09c-1.68.21-3.16.45-4.36.72-7.82,1.73-24.11,1.95-28.24,1.08s-9.64-2.07-14.32-1.86l-8.07.64a1.44,1.44,0,0,1-1.51-1.77,5.74,5.74,0,0,1,.19-.64,4.4,4.4,0,0,1,3.29-3.1l3.48-.65s0-4.35,8-5,10.65,0,14.56-4.12,9.55-11.52,13.25-7.82,3.91,7.6,9.77,6.73l3.22-.49,0,.27A17.16,17.16,0,0,0,426.81,379.16Z"/><path class="cls-3" d="M413.45,306.11l-.33,1.1C394.44,332.84,375.29,345,375.29,345h0a70.49,70.49,0,0,0-23-.58c-2,.33-7.81,2.29-13.6,4.16,0,0-.53-3.28-6-9.9s-14.55-7.76-21.18-7.53v0c5-4.58,9.95-16.28,11.08-21.44,1.95-9-2.45-14.66-8-14.17l9.11-9h0c.5-.22.89-.41,1.17-.55,3.35-1.74,16.38-6.95,28.11-3.47s35,13.9,43.66,16.07C400.42,299.46,406.92,302.54,413.45,306.11Z"/><path class="cls-2" d="M215.43,341.89a32.69,32.69,0,0,0-6.92-5.66,1.12,1.12,0,0,1-.49-1.35,1.13,1.13,0,0,1,1.08-.77,1.24,1.24,0,0,1,.49.11l8.62,4,1.87.87s.86.16,2.12.46a38.85,38.85,0,0,1,7.9,2.56c3.5,1.79,3.83,4.31,3.83,4.31l16.13,12.14s5.5,3.34,9.18,5.29,5,2.77,5,2.77.87.7,3.38-2a30.93,30.93,0,0,0,2.46-3.07c4.42-6.19,11.43-7.49,15.12-15.74,0,0,.88-4.09,6.32-8.19a35.83,35.83,0,0,1,11.65-5.55,44.61,44.61,0,0,1,8.31-1c6.63-.23,15.69.9,21.18,7.53s6,9.9,6,9.9a123.06,123.06,0,0,1-12,3.45c-6.08,1.14-14.55,2.34-21.72,8.64s-16.5,13.25-21.93,15a59.14,59.14,0,0,0-6.73,2.83h0c-4.19,2-8.74,4.25-12.59,5.21s-10.11-3.5-15.06-7.72a69.19,69.19,0,0,1-6.66-6.4c-1.56-1.84-5.74-7.1-8.47-10.54l-2.5-3.17s-1.71-1.63-5.38-1.3c-1,.08-2.52.2-4.29.32-5,.34-11.56.74-11.56.74l-4.7-3.95L204,350.7l-1.28-1.9a1.48,1.48,0,0,1-.26-.83,1.45,1.45,0,0,1,.55-1.13,1.47,1.47,0,0,1,2.08.22l1.6,2,3,1.79,3.26-.24.17-.24-7.18-4.89L203.58,343a1.5,1.5,0,0,1,1.1-2.53,1.46,1.46,0,0,1,.84.26L204,339.69a1.31,1.31,0,0,1,.77-2.37,1.24,1.24,0,0,1,.56.13l2.82,1.36Z"/><path class="cls-2" d="M323.67,286.47h0l-9.11,9s-16.58,5.94-18.88,17.14c-1.91.63-4.15,1.43-6.26,2.32-5.21,2.19-8.47-5.11-8.47-5.11-4.22-7.92-8-5.6-9.47-4.1l-.12-.12c-9.27-2.12-20.27-8.39-22.2-9.65s-5.6,1.35-8,3.77-10,10.71-12.64,14.67-5,11.84-5,11.84l-.18.32-.23-.13a2.84,2.84,0,0,0-3.25.32l-2.4,2.05s-4.83-1.35-7.65,4.15l-.67,1.16a1.13,1.13,0,0,0-1.08.77,1.12,1.12,0,0,0,.49,1.35,32.69,32.69,0,0,1,6.92,5.66l-7.24-3.08-2.82-1.36a1.24,1.24,0,0,0-.56-.13,1.31,1.31,0,0,0-1.29,1.1l-.4-5.49a1.83,1.83,0,0,1,.59-1.46,39.66,39.66,0,0,0,3.26-3.25,37.09,37.09,0,0,1,4.13-3.72,3.9,3.9,0,0,0,1.4-2.21l.28-1.25a3.87,3.87,0,0,1,.87-1.71l.9-1.05a3.9,3.9,0,0,0,.8-1.45,132.81,132.81,0,0,1,15.81-33.49l3.91-6.84s2.53-2.93,8.72-1.06c0,0,19,7.22,25.33,9s20,13,25.62,12.38C299.93,296.18,318.13,289,323.67,286.47Z"/><path class="cls-2" d="M295.68,312.62c2.3-11.2,18.88-17.14,18.88-17.14,5.54-.49,9.94,5.17,8,14.17-1.13,5.16-6.09,16.86-11.08,21.44v0a44.61,44.61,0,0,0-8.31,1,35.83,35.83,0,0,0-11.65,5.55l-.37-.21c0-1-1.21-1.57-2.77-1.36a19.56,19.56,0,0,0-5.82,1.66c-2.63,1.26-4.88,2.37-8.09,2a7.51,7.51,0,0,1-2-.5l-2.42-.95c-1.73.34-2.67-.17-3.16-.94l-.09.06c-.16-.05-4.38-4.6-12.52-3.14a4.48,4.48,0,0,1-2.81-.39,25.83,25.83,0,0,0-10.7-2.84l1.18-1.4s4.1-7.8,8.4-11c3.36-2.5,4.72-1.87,5.6-5l2.63-5.28,3.89,3.26,8.42-5.24a4,4,0,0,1,.57-.73c1.43-1.5,5.25-3.82,9.47,4.1,0,0,3.26,7.3,8.47,5.11C291.53,314.05,293.77,313.25,295.68,312.62Zm-38,8.41c1.18-.79,1.86-1.85,1.52-2.36s-1.58-.28-2.76.51-1.85,1.84-1.51,2.35S256.46,321.81,257.64,321Z"/><path class="cls-4" d="M291.14,337.47l.37.21c-5.44,4.1-6.32,8.19-6.32,8.19-3.69,8.25-10.7,9.55-15.12,15.74a30.93,30.93,0,0,1-2.46,3.07h0a17.89,17.89,0,0,1-5.68-.95c-16.13-5.39-19.63-16.71-22-31.55l.9-1.07h0a25.83,25.83,0,0,1,10.7,2.84,4.48,4.48,0,0,0,2.81.39c8.14-1.46,12.36,3.09,12.52,3.14l.09-.06c.49.77,1.43,1.28,3.16.94l2.42.95a7.51,7.51,0,0,0,2,.5c3.21.34,5.46-.77,8.09-2a19.56,19.56,0,0,1,5.82-1.66C289.93,335.9,291.14,336.43,291.14,337.47Z"/><path class="cls-5" d="M259.16,318.67c.34.51-.34,1.57-1.52,2.36s-2.41,1-2.75.5.34-1.56,1.51-2.35S258.81,318.16,259.16,318.67Z"/><path class="cls-1" d="M248.63,375.94l-.25.29S237,374.48,231,373.83c-1.63-6.4-.05-13.6.27-14.93l2,.32.27-.22c2.73,3.44,6.91,8.7,8.47,10.54A69.19,69.19,0,0,0,248.63,375.94Z"/><path class="cls-2" d="M231.27,358.9l-2.39-.38c-5-.82-7.49-2.93-7.49-2.93l-.06-.74c1.77-.12,3.33-.24,4.29-.32,3.67-.33,5.38,1.3,5.38,1.3l2.5,3.17-.27.22Z"/><path class="cls-2" d="M231.27,358.9c-.32,1.33-1.9,8.53-.27,14.93-6-.65-15,0-23,0s-7.66-8.14-5.7-13.52a53.27,53.27,0,0,0,2.44-8.31l.3-.36,4.7,3.95s6.61-.4,11.56-.74l.06.74s2.44,2.11,7.49,2.93Z"/><path class="cls-2" d="M224.76,327.38,221.55,332l-.36.67-2.74,5.11-.24.51-8.62-4a1.24,1.24,0,0,0-.49-.11l.67-1.16c2.82-5.5,7.65-4.15,7.65-4.15l2.4-2.05a2.84,2.84,0,0,1,3.25-.32l.23.13Z"/><path class="cls-2" d="M221.55,332.83l.65,6.76c-1.26-.3-2.12-.46-2.12-.46l-1.87-.87.24-.51,2.74-5.11Z"/><path class="cls-6" d="M280,323.12s3.46-4.1,1-8.18"/><path class="cls-6" d="M266.49,334a5.34,5.34,0,0,0,.42,3.4c.49.77,1.43,1.28,3.16.94a6.62,6.62,0,0,0,.77-.19s4.82-2.53,4.25-8c0,0-.83-3.06-3.3-.05"/><path class="cls-6" d="M240.79,331.1a25.83,25.83,0,0,1,10.7,2.84,4.48,4.48,0,0,0,2.81.39c8.14-1.46,12.36,3.09,12.52,3.14"/><path class="cls-6" d="M291.14,337.47c0-1-1.21-1.57-2.77-1.36a19.56,19.56,0,0,0-5.82,1.66c-2.63,1.26-4.88,2.37-8.09,2a7.51,7.51,0,0,1-2-.5l-2.42-.95"/><path class="cls-6" d="M267.6,364.67a17.89,17.89,0,0,1-5.68-.95c-16.13-5.39-19.63-16.71-22-31.55l.9-1.07h0l1.18-1.4s4.1-7.8,8.4-11c3.36-2.5,4.72-1.87,5.6-5l2.63-5.28,3.89,3.26,8.42-5.24a4,4,0,0,1,.57-.73c1.43-1.5,5.25-3.82,9.47,4.1,0,0,3.26,7.3,8.47,5.11,2.11-.89,4.35-1.69,6.26-2.32,2.81-.93,4.93-1.5,4.93-1.5"/><path class="cls-6" d="M209.77,333c2.82-5.5,7.65-4.15,7.65-4.15l2.4-2.05a2.84,2.84,0,0,1,3.25-.32l.23.13,1.46.82L221.55,332l-.36.67-2.74,5.11"/><path class="cls-6" d="M204.77,352a53.27,53.27,0,0,1-2.44,8.31c-2,5.38-2.28,13.52,5.7,13.52s16.94-.65,23,0,17.38,2.4,17.38,2.4"/><path class="cls-6" d="M221.39,355.59s2.44,2.11,7.49,2.93l2.39.38,2,.32"/><path class="cls-6" d="M276.29,378.45a59.14,59.14,0,0,1,6.73-2.83c5.43-1.73,14.77-8.69,21.93-15s15.64-7.5,21.72-8.64a123.06,123.06,0,0,0,12-3.45c5.79-1.87,11.58-3.83,13.6-4.16a70.49,70.49,0,0,1,23,.58c1.38.25,2.77.55,4.16.9,10.43,2.6,13.25,3.25,13.25,3.25"/><path class="cls-6" d="M212.92,350.62l-3.26.24-3-1.79-1.6-2a1.47,1.47,0,0,0-2.08-.22,1.45,1.45,0,0,0-.55,1.13,1.48,1.48,0,0,0,.26.83l1.28,1.9,1.11.94,4.7,3.95s6.61-.4,11.56-.74c1.77-.12,3.33-.24,4.29-.32,3.67-.33,5.38,1.3,5.38,1.3l2.5,3.17c2.73,3.44,6.91,8.7,8.47,10.54a69.19,69.19,0,0,0,6.66,6.4c5,4.22,11.34,8.65,15.06,7.72s8.4-3.23,12.59-5.21"/><path class="cls-6" d="M215.12,351.76l-2-1.38-7.18-4.89L203.58,343a1.5,1.5,0,0,1,1.1-2.53,1.46,1.46,0,0,1,.84.26"/><path class="cls-6" d="M203.52,338.42l-.4-5.49a1.83,1.83,0,0,1,.59-1.46,39.66,39.66,0,0,0,3.26-3.25,37.09,37.09,0,0,1,4.13-3.72,3.9,3.9,0,0,0,1.4-2.21l.28-1.25a3.87,3.87,0,0,1,.87-1.71l.9-1.05a3.9,3.9,0,0,0,.8-1.45,132.81,132.81,0,0,1,15.81-33.49l3.91-6.84s2.53-2.93,8.72-1.06c0,0,19,7.22,25.33,9s20,13,25.62,12.38c5.19-.6,23.39-7.78,28.93-10.31.5-.22.89-.41,1.17-.55,3.35-1.74,16.38-6.95,28.11-3.47s35,13.9,43.66,16.07c3.81.94,10.31,4,16.84,7.59,8.39,4.59,16.84,10,19.65,12.82,5,5,6.08,5.65,15,5.87,8.45.21,40.33,3.53,55.16,22.57a15.64,15.64,0,0,1,3,6.74,16.36,16.36,0,0,1,.29,3,15.84,15.84,0,0,1-7,13.2,32.32,32.32,0,0,1-4.15,2.32,15.47,15.47,0,0,1-6.63,1.44,18.52,18.52,0,0,0-5.94,1,56.77,56.77,0,0,1-20,2.91c-11.21-.36-26.76.05-36,1.24-1.68.21-3.16.45-4.36.72-7.82,1.73-24.11,1.95-28.24,1.08s-9.64-2.07-14.32-1.86l-8.07.64a1.44,1.44,0,0,1-1.51-1.77,5.74,5.74,0,0,1,.19-.64,4.4,4.4,0,0,1,3.29-3.1l3.48-.65s0-4.35,8-5,10.65,0,14.56-4.12,9.55-11.52,13.25-7.82,3.91,7.6,9.77,6.73l3.22-.49c6.06-.93,14.43-2.3,18.06-3.2,4.35-1.09,16.48-6,24.29-3.83s7.82,3.7,12.17,3.91"/><path class="cls-6" d="M426.15,363.24a17.16,17.16,0,0,0,.66,15.92"/><line class="cls-6" x1="306.09" y1="319.26" x2="289.48" y2="330.83"/><path class="cls-6" d="M215.44,341.9h0a32.69,32.69,0,0,0-6.92-5.66,1.12,1.12,0,0,1-.49-1.35,1.13,1.13,0,0,1,1.08-.77,1.24,1.24,0,0,1,.49.11l8.62,4,1.87.87s.86.16,2.12.46a38.85,38.85,0,0,1,7.9,2.56c3.5,1.79,3.83,4.31,3.83,4.31l16.13,12.14s5.5,3.34,9.18,5.29,5,2.77,5,2.77.87.7,3.38-2a30.93,30.93,0,0,0,2.46-3.07c4.42-6.19,11.43-7.49,15.12-15.74,0,0,.88-4.09,6.32-8.19a35.83,35.83,0,0,1,11.65-5.55,44.61,44.61,0,0,1,8.31-1c6.63-.23,15.69.9,21.18,7.53s6,9.9,6,9.9"/><path class="cls-6" d="M215.12,346.71l-4.73-2.44-2.46-1.78-2.41-1.73L204,339.69a1.31,1.31,0,0,1,.77-2.37,1.24,1.24,0,0,1,.56.13l2.82,1.36,7.24,3.08"/><path class="cls-6" d="M323.67,286.48l-9.11,9c5.54-.49,9.94,5.17,8,14.17-1.13,5.16-6.09,16.86-11.08,21.44"/><path class="cls-6" d="M314.56,295.48s-16.58,5.94-18.88,17.14"/><path class="cls-6" d="M375.29,345s19.15-12.12,37.83-37.75"/><path class="cls-6" d="M276.28,378.45h0c.53,0,17.1.37,27.58-3.48,10.64-3.91,19.54-2.61,28.88-.43s37.76,2.88,37.76,2.88"/><line class="cls-6" x1="222.2" y1="339.59" x2="221.55" y2="332.83"/><path class="cls-6" d="M223.48,326.24s2.41-7.88,5-11.84,10.23-12.26,12.64-14.67,6.09-5,8-3.77,12.93,7.53,22.2,9.65"/><path class="cls-6" d="M231.32,358.68l0,.22c-.32,1.33-1.9,8.53-.27,14.93"/></svg>