<svg id="Layer_1" data-name="Layer 1" xmlns="http://www.w3.org/2000/svg" viewBox="0 0 700 700"><defs><style>.cls-1{fill:#392328;}.cls-2{fill:#feae63;}.cls-3{fill:#c4e7f9;}.cls-4{fill:#99abcc;}.cls-5{fill:none;stroke:#000;stroke-linecap:round;stroke-linejoin:round;stroke-width:2.3px;}</style></defs><title>Yoga_poses_2020_color</title><path class="cls-1" d="M438.81,264.34c3.27,2.69,6.24,7.4,2.39,12.2s-8.93,4-12,1.52h-2.42c6.43-4,9.64-10.46,10.91-13.87Z"/><path class="cls-1" d="M438.84,256.53a33.08,33.08,0,0,1-.58,5.93c-.11.4-.29,1-.57,1.73-1.27,3.41-4.48,9.88-10.91,13.87-5.23,3.25-12.59,4.86-22.76,1.87a8.86,8.86,0,0,0,3.19-.6c3.13-2.16,1.8-4.06.61-5.06-.5-7.53,11-17.33,11-17.33,6.47-7.38,4.65-15.8,1.22-19.4a.55.55,0,0,1-.17-.4c0-.66,1.54-1.27,3.4-1.14C429.53,236.46,438,239.55,438.84,256.53Z"/><path class="cls-2" d="M398.4,275.8h-.49s-8.31,1.05-10.69-2.08l-9.12-11.35c-4.87-7.16.87-10.63.87-10.63,5.59-3.71,13.36-10.59,17.57-11s5.72-2.69,7.81-3,3.4-.46,3.4-.46c9.79-1.72,12.13-.13,12.13-.13a.55.55,0,0,0,.17.4c3.43,3.6,5.25,12-1.22,19.4,0,0-11.51,9.8-11,17.33,1.19,1,2.52,2.9-.61,5.06a8.86,8.86,0,0,1-3.19.6,7.51,7.51,0,0,1-5.43-2.22S397.74,276.55,398.4,275.8Zm5.73-20.23c1.32-.71,2.14-1.75,1.83-2.32s-1.63-.47-2.95.25-2.15,1.75-1.84,2.32S402.8,256.28,404.13,255.57Zm-2.53-11.38c1.21-.65,2-1.61,1.69-2.13s-1.5-.42-2.71.23-2,1.6-1.68,2.13S400.39,244.84,401.6,244.19Z"/><path d="M406,253.25c.31.57-.51,1.61-1.83,2.32s-2.65.83-3,.25.52-1.61,1.84-2.32S405.66,252.67,406,253.25Z"/><path d="M403.29,242.06c.28.52-.48,1.48-1.69,2.13s-2.42.75-2.7.23.47-1.48,1.68-2.13S403,241.53,403.29,242.06Z"/><path class="cls-2" d="M381.73,292.55l0,.07a30.59,30.59,0,0,0,.88,3.14l-.22.07s-11.51,19.6-19.33,22.86c0,0-27.06.22-14.84-48.83,11.55-3,23.65-10.11,23.65-10.11l.1-.07,3.79,5.41,2.3-2.72,9.12,11.35c2.38,3.13,10.69,2.08,10.69,2.08h.49c-.66.75.19,1.91.19,1.91a7.7,7.7,0,0,0,2.23,1.55l-.08.18A154.38,154.38,0,0,1,381.73,292.55Z"/><path class="cls-2" d="M367.22,331.93h0s-5.85-3.47-14.1-.86c5.87-2.17,10-12.38,10-12.38,7.82-3.26,19.33-22.86,19.33-22.86l.22-.07a39.62,39.62,0,0,0,5.43,10.77c4.78,6.51,13,16.72-1.74,33.66a64.88,64.88,0,0,0-8.24,12.38c-2.84,6.08-10.44,24.11-28.25,37.14,0,0-5.34.19-11.29.07-5.24-.11-10.95-.45-13.9-1.37-6.3-2-20.63-6.08-25.41-6.52l-6.84-1.08-12.6-1.52-14.57.2a1.5,1.5,0,0,1-.6-.12,1.52,1.52,0,0,1-.95-1.37v-.26a1.53,1.53,0,0,1,1.43-1.59l8.52-1.7a.18.18,0,0,0,0-.36l-14.87-.21a1.55,1.55,0,0,1-1.39-1.42v-.11a1.54,1.54,0,0,1,1.53-1.54l12-1.2a.22.22,0,0,0,.05-.43c-3.79-.74-12-1.08-17-1.28a1.53,1.53,0,0,1-1.47-1.43l0-.25a1.55,1.55,0,0,1,1.6-1.64l16.91-.66a.22.22,0,0,0,.06-.43l-14.44-4.6a1.54,1.54,0,0,1-1-1.88l.09-.31a1.54,1.54,0,0,1,1.81-1.1c2.94.65,9.68,2.18,13.43,3.25a16.24,16.24,0,0,0,4.7.62l7.81-.16s-1.84-3.48-4.34-4.67a7,7,0,0,1-3.72-7.83,1.32,1.32,0,0,1,2.09-.81l6.51,4.94s5.11,4,7.72,6.63c0,0,3.47,3.91,5.64,6.08s4.56,5,15.42,5.86c3.41.27,7,.48,10.43.7,7.59.48,14.85,1,19.76,2.35,0,0,2.39.43,7.39-8.26C354.25,357.41,363.54,339.17,367.22,331.93Z"/><path class="cls-2" d="M348.26,269.86a39.94,39.94,0,0,1-7.31,1.27c-13,.86-19.11-12.82-19.11-12.82,13-8.25,21.28-10.42,18.89-18.68s-9.79-29.86-9.57-49a49.16,49.16,0,0,0-1.72-9.67c-3.13-9-4.46-40.24-5.52-53.12a4.69,4.69,0,0,0-1.11-2.66c-2.21-2.62-7.5-9-8.52-12-1.1-3.16-3.93-12.08-4.8-14.83a1,1,0,0,1,.5-1.22l.08-.05a1,1,0,0,1,1.43.46l4.73,9.74c-.19-.56-3.19-9.71-3.54-14.33v-.07a1,1,0,0,1,.68-1,1,1,0,0,1,1.15.3l-.31-2.09a1.4,1.4,0,0,1,1.15-1.6,1.06,1.06,0,0,1,.25,0,1.37,1.37,0,0,1,1.3.91c1,2.57,3.49,9,5.47,11.31l-3.18-9.84a1,1,0,0,1,.62-1.29l.25-.1a1,1,0,0,1,1.25.41,68.62,68.62,0,0,1,5.84,11s2.9,6.1,4.77,7.25a2.7,2.7,0,0,0,2.52.32v-6.18s.53-5.11,4.11-4.78l.32,8a44.49,44.49,0,0,1-.54,7.82c-.65,3.48-2.71,5.65-2.17,11.51s3.31,21,4.78,24.33a80.63,80.63,0,0,1,7.25,30.77l.33,8.15s5,22.53,6.83,25,10.32,12.57,11.76,22.38a56.4,56.4,0,0,1,.08,17.93l.6.11,4.21,6-.1.07S359.81,266.84,348.26,269.86Z"/><path class="cls-3" d="M348.26,269.86C336,318.91,363.1,318.69,363.1,318.69s-4.12,10.21-10,12.38c-7.65,2.42-15.68,3.71-23.38-1.3a8.09,8.09,0,0,0-4.52-1.26c-5.14.08-16.66.14-26.29-.51a24.31,24.31,0,0,0-12.07,2.39l-.2-.4s-7.82-13.47-13.47-23.68S256,292,256,292c23-9.34,52.77-25.42,65.81-33.67,0,0,6.08,13.68,19.11,12.82A39.94,39.94,0,0,0,348.26,269.86Z"/><path class="cls-2" d="M337,505.93a1.55,1.55,0,0,1-1.6,1.25l-.89,0a5.44,5.44,0,0,1-2.36-.67l-.95-.54a1.46,1.46,0,0,0-.7-.18,1.44,1.44,0,0,0-.75.21,2.38,2.38,0,0,1-1.4.34c-8.17,0-17.66-1-26.82-1.42-2.87-.12-8.57.33-10.51.24-8.13-.38-7.16-7.19-4.29-19.9.86-3.39,1.67-7.57,2.43-12.15h0a76,76,0,0,0,20.18.66c2,14.33,17.53,16.9,25.45,20.66A52.38,52.38,0,0,0,348,498.84a2.36,2.36,0,0,1,2,2.35v.1a2.48,2.48,0,0,1-2.59,2.36l-.13-.06a1.8,1.8,0,0,0,.17-.7v-.27a1.22,1.22,0,0,0-.78-1.19l-7.42-2.83-1.09,2.47,3.93,1.74a1.22,1.22,0,0,1,.72,1.16l0,.37a1.35,1.35,0,0,1-.08.4,1.61,1.61,0,0,1-1.56,1.17l-4.15,0Z"/><path class="cls-4" d="M338.56,389.82s2.61,2.5-.87,9-7.82,14.33-10.21,21.93-16.5,36.71-17.81,44.09a27.71,27.71,0,0,0-.33,8.87,76,76,0,0,1-20.18-.66h0c2.89-17.39,5-40.51,6.4-47.74,1.74-9.12,12.82-25.63,12.82-25.63s-5.87-6.29-21.29-10.2A116.19,116.19,0,0,1,264,380.64l.63-1.27a1.5,1.5,0,0,0,.6.12l14.57-.2,12.6,1.52,6.84,1.08c4.78.44,19.11,4.57,25.41,6.52,2.95.92,8.66,1.26,13.9,1.37Z"/><path class="cls-4" d="M280,333.89c9.8,6.61,30.94,21.67,43.16,36.32-3.47-.22-7-.43-10.43-.7-10.86-.86-13.25-3.69-15.42-5.86s-5.64-6.08-5.64-6.08c-2.61-2.61-7.72-6.63-7.72-6.63L277.42,346a1.32,1.32,0,0,0-2.09.81,7,7,0,0,0,3.72,7.83c2.5,1.19,4.34,4.67,4.34,4.67l-7.81.16a16.24,16.24,0,0,1-4.7-.62c-3.75-1.07-10.49-2.6-13.43-3.25a1.54,1.54,0,0,0-1.81,1.1l-.09.31a1.54,1.54,0,0,0,1,1.88l14.44,4.6a.22.22,0,0,1-.06.43l-16.91.66a1.55,1.55,0,0,0-1.6,1.64l0,.25a1.53,1.53,0,0,0,1.47,1.43c5,.2,13.19.54,17,1.28a.22.22,0,0,1-.05.43l-12,1.2a1.54,1.54,0,0,0-1.53,1.54v.11a1.55,1.55,0,0,0,1.39,1.42l14.87.21a.18.18,0,0,1,0,.36l-8.52,1.7a1.53,1.53,0,0,0-1.43,1.59V378a1.52,1.52,0,0,0,.95,1.37l-.63,1.27c-9-4.59-17.75-10.37-24.27-16.77-12.17-11.95-24.11-17.16-21.51-31.93S233,301.32,256,292c0,0,11.51,4.12,17.15,14.33S286.65,330,286.65,330l.2.4h0a25,25,0,0,0-5.2,3.28Z"/><path class="cls-5" d="M438.81,264.34c3.27,2.69,6.24,7.4,2.39,12.2s-8.93,4-12,1.52"/><path class="cls-5" d="M401.09,247.62a3.81,3.81,0,0,1-3.5.67l-5.27-.13,1,4.44"/><path class="cls-5" d="M419.88,237.14s-2.34-1.59-12.13.13c0,0-1.3.16-3.4.46s-3.6,2.58-7.81,3-12,7.3-17.57,11c0,0-5.74,3.47-.87,10.63l9.12,11.35c2.38,3.13,10.69,2.08,10.69,2.08"/><path class="cls-5" d="M404,279.93c10.17,3,17.53,1.38,22.76-1.87,6.43-4,9.64-10.46,10.91-13.87.28-.74.46-1.33.57-1.73a33.08,33.08,0,0,0,.58-5.93c-.83-17-9.31-20.07-15.56-20.53-1.86-.13-3.37.48-3.4,1.14a.55.55,0,0,0,.17.4c3.43,3.6,5.25,12-1.22,19.4,0,0-11.51,9.8-11,17.33"/><path class="cls-5" d="M406.71,273.51a6.08,6.08,0,0,1,1.11.76c1.19,1,2.52,2.9-.61,5.06a8.86,8.86,0,0,1-3.19.6,7.51,7.51,0,0,1-5.43-2.22s-.85-1.16-.19-1.91a2.81,2.81,0,0,1,2.14-.62"/><path class="cls-5" d="M400.74,279.44a154.38,154.38,0,0,1-19,13.11q-2.66,1.57-5.59,3.28"/><polyline class="cls-5" points="378.1 262.37 375.8 265.09 370.36 271.52"/><line class="cls-5" x1="391.22" y1="281.09" x2="369.35" y2="288.97"/><path class="cls-5" d="M381.77,292.62a30.59,30.59,0,0,0,.88,3.14,39.62,39.62,0,0,0,5.43,10.77c4.78,6.51,13,16.72-1.74,33.66a64.88,64.88,0,0,0-8.24,12.38c-2.84,6.08-10.44,24.11-28.25,37.14,0,0-5.34.19-11.29.07-5.24-.11-10.95-.45-13.9-1.37-6.3-2-20.63-6.08-25.41-6.52l-6.84-1.08-12.6-1.52-14.57.2a1.5,1.5,0,0,1-.6-.12,1.52,1.52,0,0,1-.95-1.37v-.26a1.53,1.53,0,0,1,1.43-1.59l8.52-1.7a.18.18,0,0,0,0-.36l-14.87-.21a1.55,1.55,0,0,1-1.39-1.42v-.11a1.54,1.54,0,0,1,1.53-1.54l12-1.2a.22.22,0,0,0,.05-.43c-3.79-.74-12-1.08-17-1.28a1.53,1.53,0,0,1-1.47-1.43l0-.25a1.55,1.55,0,0,1,1.6-1.64l16.91-.66a.22.22,0,0,0,.06-.43l-14.44-4.6a1.54,1.54,0,0,1-1-1.88l.09-.31a1.54,1.54,0,0,1,1.81-1.1c2.94.65,9.68,2.18,13.43,3.25a16.24,16.24,0,0,0,4.7.62l7.81-.16s-1.84-3.48-4.34-4.67a7,7,0,0,1-3.72-7.83,1.32,1.32,0,0,1,2.09-.81l6.51,4.94s5.11,4,7.72,6.63c0,0,3.47,3.91,5.64,6.08s4.56,5,15.42,5.86c3.41.27,7,.48,10.43.7,7.59.48,14.85,1,19.76,2.35,0,0,2.39.43,7.39-8.26,4-6.89,13.25-25.13,16.93-32.37l1.53-3"/><path class="cls-5" d="M367.21,331.93s-5.85-3.47-14.1-.86c-7.65,2.42-15.68,3.71-23.38-1.3a8.09,8.09,0,0,0-4.52-1.26c-5.14.08-16.66.14-26.29-.51a24.31,24.31,0,0,0-12.07,2.39h0a25,25,0,0,0-5.2,3.28"/><path class="cls-5" d="M274.7,330.42s2,1.26,5.28,3.47c9.8,6.61,30.94,21.67,43.16,36.32"/><path class="cls-5" d="M314.52,92.25l-.31-2.09a1.4,1.4,0,0,1,1.15-1.6,1.06,1.06,0,0,1,.25,0,1.37,1.37,0,0,1,1.3.91c1,2.57,3.49,9,5.47,11.31l-3.18-9.84a1,1,0,0,1,.62-1.29l.25-.1a1,1,0,0,1,1.25.41,68.62,68.62,0,0,1,5.84,11s2.9,6.1,4.77,7.25a2.7,2.7,0,0,0,2.52.32"/><path class="cls-5" d="M334.45,108.55v-6.18s.53-5.11,4.11-4.78l.32,8a44.49,44.49,0,0,1-.54,7.82c-.65,3.48-2.71,5.65-2.17,11.51s3.31,21,4.78,24.33a80.63,80.63,0,0,1,7.25,30.77l.33,8.15s5,22.53,6.83,25,10.32,12.57,11.76,22.38a56.4,56.4,0,0,1,.08,17.93,18.63,18.63,0,0,1-.41,1.84"/><polyline class="cls-5" points="367.8 253.65 372.01 259.68 375.8 265.09"/><path class="cls-5" d="M256,292s11.51,4.12,17.15,14.33S286.65,330,286.65,330"/><path class="cls-5" d="M344,256.57s3.26-9.77,2.61-16.72"/><path class="cls-5" d="M321.84,258.31S327.92,272,341,271.13a39.94,39.94,0,0,0,7.31-1.27c11.55-3,23.65-10.11,23.65-10.11"/><path class="cls-5" d="M382.43,295.83s-11.51,19.6-19.33,22.86c0,0-27.06.22-14.84-48.83v0"/><path class="cls-5" d="M363.1,318.69s-4.12,10.21-10,12.38"/><path class="cls-5" d="M289.16,473.07a76,76,0,0,0,20.18.66"/><path class="cls-5" d="M347.41,503.65a2.48,2.48,0,0,0,2.59-2.36v-.1a2.36,2.36,0,0,0-2-2.35,52.38,52.38,0,0,1-13.24-4.45c-7.92-3.76-23.43-6.33-25.45-20.66a27.71,27.71,0,0,1,.33-8.87c1.31-7.38,15.42-36.49,17.81-44.09s6.74-15.42,10.21-21.93.87-9,.87-9"/><path class="cls-5" d="M316.24,107.36a.08.08,0,0,0,0,0l-4.73-9.74a1,1,0,0,0-1.43-.46l-.08.05a1,1,0,0,0-.5,1.22c.87,2.75,3.7,11.67,4.8,14.83,1,2.94,6.31,9.36,8.52,12a4.69,4.69,0,0,1,1.11,2.66C325,140.75,326.31,172,329.44,181a49.16,49.16,0,0,1,1.72,9.67c-.22,19.11,7.18,40.72,9.57,49s-5.86,10.43-18.89,18.68S279.05,282.64,256,292s-35.19,25.19-37.8,40,9.34,20,21.51,31.93c6.52,6.4,15.22,12.18,24.27,16.77a116.19,116.19,0,0,0,23.07,8.86c15.42,3.91,21.29,10.2,21.29,10.2s-11.08,16.51-12.82,25.63c-1.37,7.23-3.51,30.35-6.4,47.74-.76,4.58-1.57,8.76-2.43,12.15-2.87,12.71-3.84,19.52,4.29,19.9,1.94.09,7.64-.36,10.51-.24,9.16.41,18.65,1.46,26.82,1.42a2.38,2.38,0,0,0,1.4-.34,1.44,1.44,0,0,1,.75-.21,1.46,1.46,0,0,1,.7.18l.95.54a5.44,5.44,0,0,0,2.36.67l.89,0a1.55,1.55,0,0,0,1.6-1.25,1,1,0,0,0,0-.24v-.06a1.22,1.22,0,0,0-.58-1l-2.81-1.69"/><path class="cls-5" d="M318,102.31a90.22,90.22,0,0,1-3.3-9.67,1,1,0,0,0-.21-.39,1,1,0,0,0-1.15-.3,1,1,0,0,0-.68,1V93c.35,4.62,3.35,13.77,3.54,14.33"/><path class="cls-5" d="M336.6,500.38l1.57.69,3.93,1.74a1.22,1.22,0,0,1,.72,1.16l0,.37a1.35,1.35,0,0,1-.08.4,1.61,1.61,0,0,1-1.56,1.17l-4.15,0"/><path class="cls-5" d="M339.26,498.6l7.42,2.83a1.22,1.22,0,0,1,.78,1.19v.27a1.8,1.8,0,0,1-.17.7,2.08,2.08,0,0,1-2,1.29l-2.48-.12"/></svg>