<svg id="Layer_1" data-name="Layer 1" xmlns="http://www.w3.org/2000/svg" viewBox="0 0 700 700"><defs><style>.cls-1{fill:#feae63;}.cls-2{fill:#120c0c;}.cls-3{fill:#99abcc;}.cls-4{fill:#c4e7f9;}.cls-5{fill:none;stroke:#000;stroke-linecap:round;stroke-linejoin:round;stroke-width:2.3px;}</style></defs><title>Yoga_poses_2020_color</title><path class="cls-1" d="M570.51,164.29a2.64,2.64,0,0,1-.48,3.8l-12.55,9.19-2.66,1.95-7.18,6.89h0l-4.17,4a6.3,6.3,0,0,1-4.37,1.75h-4.2c-2.2,0-7.56,3.3-14.43,9.76s-19.24,18.84-26.39,24.2-12.37,12.92-15.67,16.35-15.26,14.57-18.92,19.66-11,17.61-11,17.61c-1.14.63-2.24,1.22-3.27,1.73,0,0-5.48,2.43-3.19,9.15-4.94,9.72-16.15,17.22-16.15,17.22-6.08,5-21.72-11.95-26.28-17.49a19.5,19.5,0,0,0-9.92-6.68,165,165,0,0,1,20-10.82c21.85-10.72,24.19-15.53,29.55-22.68s32.72-27.21,37-33.26,29.41-21.58,34.16-24.47c3.84-2.34,13.39-8.36,16.89-10.58a14.4,14.4,0,0,1,2.79-1.36l19.66-7.15a20.68,20.68,0,0,0,3-1.37l14.51-8a2.65,2.65,0,0,1,1.28-.33A2.61,2.61,0,0,1,570.51,164.29Z"/><path class="cls-2" d="M499.68,304c3.26.33,7.79,7.22,1.5,12.57-6,5.1-10.68,3.84-13.21-.49l-.15-.26a27.65,27.65,0,0,0,11.32-11.88Z"/><path class="cls-2" d="M486.78,270.37C506,276.56,501,298.93,501,298.93a27.23,27.23,0,0,1-1.83,5,27.65,27.65,0,0,1-11.32,11.88A35.79,35.79,0,0,1,476,320c-6.52,1.09-16,.27-21-5.22,3.63-.47,7.31-.87,10.52-1.08h0a9.29,9.29,0,0,0,5.77.43c5.27-1.24,5.19-6.69,5.19-6.69.43-7.14,10.77-14.64,10.77-14.64C501.08,285.19,486.78,270.37,486.78,270.37Z"/><path class="cls-1" d="M489.8,490.72a3.66,3.66,0,0,1-.21,1,7.74,7.74,0,0,1-5.18-.67l0,0,.47.54a.72.72,0,0,1-.4,1.18,7.7,7.7,0,0,1-3.95-.46,39.75,39.75,0,0,1-7.68.6h0l-9-2.05s-8.49-2.91-10.05-6.93c-1.17-3-3.4-10.34-3.78-23.11a16.64,16.64,0,0,0,4.05-2.23c1.31,5.62,4.57,8.83,10.5,13.25,0,0,13.85,7.71,20.21,10.3a37.58,37.58,0,0,0,8.14,2.58c.57.07,1.18.14,1.81.19.94.07,3.54,0,4.06.07a1.24,1.24,0,0,1,1.17,1.36c-.14,1.28-.92,3.8-3.64,3.79l-.66,0c0,.47-.24.88-1.13,1.05a8.72,8.72,0,0,1-4.61-.47Z"/><path class="cls-1" d="M432.31,360.26a7.27,7.27,0,0,0-1.91-3.95,21.91,21.91,0,0,0-7.83-5.32l4.74-5.88,6.12-7.59s10.2-10.47,13.35-15a43.46,43.46,0,0,0,3.86,7.86c4.45,7.07,5.54,8.7,6.08,16.32s2,14.42-2.25,25.57-3.65,9-3.83,23.67-.91,12,.54,20.68c.68,4.08.51,9.06.1,14.91-.46,6.62-1.22,14.36-1.36,23.18,0,2.17,0,4.22,0,6.14.38,12.77,2.61,20.11,3.78,23.11,1.56,4,10.05,6.93,10.05,6.93l9,2.05h0l.48.11,17.49,2.67a1.68,1.68,0,0,1,1.41,1.65c0,.05,0,.09,0,.14a1.67,1.67,0,0,1-1.83,1.53l-16-.54-.07.12h0c2.81,1.43,1,3.85-1,3.79-2.26-.08-6.25-2.26-8.2-2.79-1.41-.38-9.55.5-15.53-1.05a8.83,8.83,0,0,1-6.3-6.44c-.14-.56-.29-1.18-.46-1.85-1.72-6.95-4.73-19.58-6.53-29.46a99.29,99.29,0,0,1-1.4-10s-2.5-20.31-2.93-33.34,0-18.68,0-25.85c0-6.26-1.49-21.12.3-28.7A6.73,6.73,0,0,0,432.31,360.26Z"/><path class="cls-1" d="M465.55,313.74c-3.21.21-6.89.61-10.52,1.08s-7.14,1-10.08,1.45a38.59,38.59,0,0,0,1.83,6.2c-3.15,4.58-13.35,15-13.35,15l-6.12,7.59c-19.48-11.74-1.48-37.56-1.48-37.56S437,300.05,442,290.33c-2.29-6.72,3.19-9.15,3.19-9.15,1-.51,2.13-1.1,3.27-1.73,6-3.28,13-7.66,16.8-7.55,4.51.12,6.42-2.08,8.67-2.12s3.66,0,3.66,0c7.66-.13,9.21.62,9.21.62s14.3,14.82.51,22.47c0,0-10.34,7.5-10.77,14.64,0,0,.08,5.45-5.19,6.69a9.29,9.29,0,0,1-5.77-.43Zm6.57-27.92c1.92-.51,3.33-1.49,3.15-2.17s-1.89-.83-3.82-.32-3.33,1.49-3.14,2.18S470.2,286.33,472.12,285.82Zm-3.94-9.5c1.5-.4,2.6-1.16,2.45-1.69s-1.47-.65-3-.24-2.59,1.15-2.45,1.69S466.68,276.72,468.18,276.32Z"/><path d="M475.27,283.65c.18.68-1.23,1.66-3.15,2.17s-3.63.37-3.81-.31,1.22-1.66,3.14-2.18S475.08,283,475.27,283.65Z"/><path d="M470.63,274.63c.15.53-.95,1.29-2.45,1.69s-2.83.29-3-.24,1-1.29,2.45-1.69S470.49,274.09,470.63,274.63Z"/><path class="cls-3" d="M451.28,431.48,454,458.57A16.64,16.64,0,0,1,450,460.8c-.06-1.92-.08-4,0-6.14C450.06,445.84,450.82,438.1,451.28,431.48Z"/><path class="cls-1" d="M442.77,490.24l-.06,0c-7-1.5-8.28-3.41-6.74-11.46a30.86,30.86,0,0,0,.39-9c-.24-2.42-.64-5.48-1.27-8.81l1.15-.21C438,470.66,441.05,483.29,442.77,490.24Z"/><path class="cls-3" d="M353.2,338.44c4.17.89,12.16,2.48,22.46,4.07,15.42,2.39,26.28,8.26,34.31,10.86a14,14,0,0,0,5.86.68h0s12.05,3.13,16.48,6.2a6.73,6.73,0,0,1-.1,2.64c-1.79,7.58-.3,22.44-.3,28.7,0,7.17-.43,12.81,0,25.85s2.93,33.34,2.93,33.34a99.29,99.29,0,0,0,1.4,10l-1.15.21a68.45,68.45,0,0,0-4.52-15.19c-5.72-12.73-11.73-26.18-13.87-36.34-1.44-6.78-2.42-14.08-2.92-18.17a6.62,6.62,0,0,0-4.06-5.36c-3.6-1.45-10.1-3-20.77-2.07,0,0-27.52,1.71-51-.27a160.83,160.83,0,0,1-21.6-3l0,.17c-4-.76-18.75,11.65-26.57,16.21s-23.46,13.36-35.84,18.9-12.71,7.82-22.15,12-8.48,2-17.6,4S194.3,443.51,184.85,450s-23.13,12.7-30,17.26c-7.24-.87-11.52-8.9-11.52-8.9,7.18-7.25,13.8-15.21,13.8-15.21,22.15-26.06,39.09-28.34,45.94-30.95s11.4-5.53,19.87-11.07,22.15-20.85,36.81-29.32,14.34-14.67,14.34-14.67l1.3-6.18c5.87-22.48,22.16-26.72,28.67-28.52a137.91,137.91,0,0,0,13.63-5h0c.47,0,15.32-.11,22.31,5S353.2,338.44,353.2,338.44Z"/><path class="cls-4" d="M427.31,345.11,422.57,351a11.16,11.16,0,0,1-6.74,3.06,14,14,0,0,1-5.86-.68c-8-2.6-18.89-8.47-34.31-10.86-10.3-1.59-18.29-3.18-22.46-4.07,0,0-6.06-10.82-13.16-16s-21.84-5-22.31-5c4.89-2,10.77-4.41,18-7.26,15.64-6.2,38.77-16.28,49.85-24.12,1.34-.95,2.71-1.87,4.09-2.75a19.5,19.5,0,0,1,9.92,6.68c4.56,5.54,20.2,22.48,26.28,17.49C425.83,307.55,407.83,333.37,427.31,345.11Z"/><path class="cls-1" d="M145.43,477.39a48.42,48.42,0,0,1,7.17,2.28,13.72,13.72,0,0,0,6.19,1l3.86-.55.38,0a2.61,2.61,0,0,1,.82,5.08l-1.82.61a3,3,0,0,0-1.82,1.67,3,3,0,0,1-2.72,1.83,162.87,162.87,0,0,0-16.29,1,31,31,0,0,0-9.08,2.1,17.72,17.72,0,0,1-7.29,1.65h-3.61a5.45,5.45,0,0,1-2.52-.61,5.61,5.61,0,0,1-2-1.69,5.54,5.54,0,0,1,.32-6.88l6.23-7.11,4.89-6.45a9.38,9.38,0,0,1,2.84-2.44c3.42-1.91,8-6.05,12.35-10.44,0,0,4.28,8,11.52,8.9A28.06,28.06,0,0,0,145.43,477.39Z"/><path class="cls-5" d="M488,316.06c2.53,4.33,7.21,5.59,13.21.49,6.29-5.35,1.76-12.24-1.5-12.57"/><path class="cls-5" d="M468.83,279.16a4,4,0,0,1-3.79.24l-5.56-.84.44,4.82"/><path class="cls-5" d="M465.55,313.74a8,8,0,0,1-3.12-2.44s-1.59-2.88,2.41-2.42"/><path class="cls-5" d="M471.59,308s5.08,3.46-.26,6.22a9.29,9.29,0,0,1-5.77-.43"/><path class="cls-5" d="M471.33,314.17c5.27-1.24,5.19-6.69,5.19-6.69.43-7.14,10.77-14.64,10.77-14.64,13.79-7.65-.51-22.47-.51-22.47"/><path class="cls-5" d="M458.3,303.79s-6.08-.2-7.66-5.39"/><path class="cls-5" d="M437.56,317.51s3-.55,7.39-1.24c2.94-.46,6.48-1,10.08-1.45s7.31-.87,10.52-1.08h0"/><path class="cls-5" d="M442.82,292.31a14.42,14.42,0,0,1-.84-2c-2.29-6.72,3.19-9.15,3.19-9.15,1-.51,2.13-1.1,3.27-1.73,6-3.28,13-7.66,16.8-7.55,4.51.12,6.42-2.08,8.67-2.12s3.66,0,3.66,0c7.66-.13,9.21.62,9.21.62C506,276.56,501,298.93,501,298.93a27.23,27.23,0,0,1-1.83,5,27.65,27.65,0,0,1-11.32,11.88A35.79,35.79,0,0,1,476,320c-6.52,1.09-16,.27-21-5.22h0"/><path class="cls-5" d="M472.82,492.89l-9-2.05s-8.49-2.91-10.05-6.93c-1.17-3-3.4-10.34-3.78-23.11-.06-1.92-.08-4,0-6.14.14-8.82.9-16.56,1.36-23.18.41-5.85.58-10.83-.1-14.91-1.45-8.71-.72-6-.54-20.68s-.45-12.51,3.83-23.67,2.79-18,2.25-25.57-1.63-9.25-6.08-16.32a43.46,43.46,0,0,1-3.86-7.86,38.59,38.59,0,0,1-1.83-6.2"/><path class="cls-5" d="M474.37,498.45l16,.54a1.67,1.67,0,0,0,1.83-1.53s0-.09,0-.14a1.68,1.68,0,0,0-1.41-1.65L473.31,493l-.48-.11"/><path class="cls-5" d="M464.32,494.62l3.15.83a4,4,0,0,1,1.24.57,16.71,16.71,0,0,0,4.55,2.13,7,7,0,0,1,1,.42h0c2.81,1.43,1,3.85-1,3.79-2.26-.08-6.25-2.26-8.2-2.79-1.41-.38-9.55.5-15.53-1.05a8.83,8.83,0,0,1-6.3-6.44c-.14-.56-.29-1.18-.46-1.85-1.72-6.95-4.73-19.58-6.53-29.46a99.29,99.29,0,0,1-1.4-10s-2.5-20.31-2.93-33.34,0-18.68,0-25.85c0-6.26-1.49-21.12.3-28.7a6.73,6.73,0,0,0,.1-2.64,7.27,7.27,0,0,0-1.91-3.95,21.91,21.91,0,0,0-7.83-5.32,11.16,11.16,0,0,1-6.74,3.06,14,14,0,0,1-5.86-.68c-8-2.6-18.89-8.47-34.31-10.86-10.3-1.59-18.29-3.18-22.46-4.07-2.07-.44-3.2-.7-3.2-.7s-5.4-1.31-10-2.39"/><path class="cls-5" d="M440,356.2s-3.7-7.39-10-7.6"/><path class="cls-5" d="M422.57,351l4.74-5.88,6.12-7.59s10.2-10.47,13.35-15"/><path class="cls-5" d="M317.72,317.51a137.91,137.91,0,0,1-13.63,5c-6.51,1.8-22.8,6-28.67,28.52l-1.3,6.18s.32,6.2-14.34,14.67S231.44,395.62,223,401.16s-13,8.47-19.87,11.07-23.79,4.89-45.94,30.95c0,0-6.62,8-13.8,15.21-4.36,4.39-8.93,8.53-12.35,10.44a9.38,9.38,0,0,0-2.84,2.44l-4.89,6.45-6.23,7.11a5.54,5.54,0,0,0-.32,6.88,5.61,5.61,0,0,0,2,1.69,5.45,5.45,0,0,0,2.52.61h3.61a17.72,17.72,0,0,0,7.29-1.65,31,31,0,0,1,9.08-2.1,162.87,162.87,0,0,1,16.29-1,3,3,0,0,0,2.72-1.83,3,3,0,0,1,1.82-1.67l1.82-.61a2.61,2.61,0,0,0-.82-5.08l-.38,0-3.86.55a13.72,13.72,0,0,1-6.19-1,48.42,48.42,0,0,0-7.17-2.28,28.06,28.06,0,0,1,9.45-10.1c6.84-4.56,20.52-10.75,30-17.26s20.2-16.29,29.32-18.25,8.15.16,17.6-4,9.77-6.43,22.15-12,28-14.34,35.84-18.9,22.55-17,26.57-16.21"/><path class="cls-5" d="M547.64,186.12l7.18-6.89,2.66-1.95L570,168.09a2.63,2.63,0,0,0-2.83-4.43l-14.51,8a20.68,20.68,0,0,1-3,1.37L530,180.21a14.4,14.4,0,0,0-2.79,1.36c-3.5,2.22-13,8.24-16.89,10.58-4.75,2.89-29.9,18.42-34.16,24.47s-31.62,26.11-37,33.26-7.7,12-29.55,22.68a165,165,0,0,0-20,10.82c-1.38.88-2.75,1.8-4.09,2.75-11.08,7.84-34.21,17.92-49.85,24.12-7.19,2.85-13.07,5.29-18,7.26"/><path class="cls-5" d="M448.44,279.45s7.38-12.52,11-17.61,15.62-16.22,18.92-19.66,8.52-11,15.67-16.35,19.52-17.74,26.39-24.2,12.23-9.76,14.43-9.76h4.2a6.3,6.3,0,0,0,4.37-1.75l4.17-4"/><path class="cls-5" d="M547.63,186.12h0l8.11-4a3.47,3.47,0,0,0,1.9-3.57l-.17-1.26"/><path class="cls-5" d="M480.15,488.84l2.09.24a1.31,1.31,0,0,1,.83.44l1.32,1.51.47.54a.72.72,0,0,1-.4,1.18,7.7,7.7,0,0,1-3.95-.46,39.75,39.75,0,0,1-7.68.6h0l-.34,0"/><path class="cls-5" d="M484.41,491a7.74,7.74,0,0,0,5.18.67,3.66,3.66,0,0,0,.21-1,1.76,1.76,0,0,0-.54-1.58,26.49,26.49,0,0,0-4.14-2"/><path class="cls-5" d="M489.86,490.73a8.72,8.72,0,0,0,4.61.47c.89-.17,1.16-.58,1.13-1.05a3.76,3.76,0,0,0-1-1.8l-4.72-1.29"/><path class="cls-5" d="M496.26,490.11c2.72,0,3.5-2.51,3.64-3.79a1.24,1.24,0,0,0-1.17-1.36c-.52,0-3.12,0-4.06-.07-.63-.05-1.24-.12-1.81-.19a37.58,37.58,0,0,1-8.14-2.58c-6.36-2.59-20.21-10.3-20.21-10.3-5.93-4.42-9.19-7.63-10.5-13.25l-2.73-27.09"/><path class="cls-5" d="M454,458.57A16.64,16.64,0,0,1,450,460.8"/><path class="cls-5" d="M415.83,354.06s12.05,3.13,16.48,6.2h0"/><path class="cls-5" d="M143.36,458.39s4.28,8,11.52,8.9"/><line class="cls-5" x1="145.43" y1="477.39" x2="143.36" y2="480.87"/><path class="cls-5" d="M389.63,283.38a19.5,19.5,0,0,1,9.92,6.68c4.56,5.54,20.2,22.48,26.28,17.49,0,0,11.21-7.5,16.15-17.22"/><path class="cls-5" d="M425.83,307.55s-18,25.82,1.48,37.56"/><path class="cls-5" d="M317.72,317.51h0c.47,0,15.32-.11,22.31,5s13.16,16,13.16,16"/><path class="cls-5" d="M298.44,333.06s-12.12,11.76-5.43,32.26c2.58,7.9,11.11,12.46,23.36,15.22a160.83,160.83,0,0,0,21.6,3c23.46,2,51,.27,51,.27,10.67-.91,17.17.62,20.77,2.07a6.62,6.62,0,0,1,4.06,5.36c.5,4.09,1.48,11.39,2.92,18.17,2.14,10.16,8.15,23.61,13.87,36.34A68.45,68.45,0,0,1,435.09,461c.63,3.33,1,6.39,1.27,8.81a30.86,30.86,0,0,1-.39,9c-1.54,8.05-.25,10,6.74,11.46"/></svg>