<svg id="Layer_1" data-name="Layer 1" xmlns="http://www.w3.org/2000/svg" viewBox="0 0 700 700"><defs><style>.cls-1{fill:#feae63;}.cls-2{fill:#392328;}.cls-3{fill:#c4e7f9;}.cls-4{fill:#99abcc;}.cls-5{fill:none;stroke:#000;stroke-linecap:round;stroke-linejoin:round;stroke-width:2.3px;}</style></defs><title>Yoga_poses_2020_color</title><path class="cls-1" d="M292.52,361.75c-2.65,1.36-11.6,2.75-21.61,3.93-10.5,1.25-22.18,2.28-29,2.84-3.56.3-5.77.46-5.77.46-9.67-1.68-19.66,1.93-26.34,2.91-3.7.54-5.62.14-7.23-.53a10.13,10.13,0,0,0-6.09-.59,38.74,38.74,0,0,0-6.72,2.1l-8.74,2.93-6.29,1.25h-5.84a1.44,1.44,0,0,0-.24,2.87l5.82,1a3.43,3.43,0,0,0,1.56-.1l4.12-.78a8,8,0,0,1,2-.11l10,.73a25.39,25.39,0,0,0,3.7,0l6.7-.51a7.31,7.31,0,0,1,2.55.25c4.63,1.29,21.1,5.72,28.9,5.58,11.11-1.1,17.56-2.81,26.94-2.49s57.27-1.62,57.27-1.62L332,380.72a11.89,11.89,0,0,0,4.7-1.38l7.76-4.14h0c6.54-8.75-1.65-20.15-1.65-20.15-10.94-17-33.2-12.11-33.76-12h0c-1.66,2.26-3.71,4.73-5.78,7.13C298,356.24,292.52,361.75,292.52,361.75Z"/><path class="cls-1" d="M172.7,375.2v.18l8.37.42,8.74-2.93a38.74,38.74,0,0,1,6.72-2.1,10.13,10.13,0,0,1,6.09.59c1.61.67,3.53,1.07,7.23.53,6.68-1,16.67-4.59,26.34-2.91,0,0,2.21-.16,5.77-.46a34.5,34.5,0,0,1-.95-8.27h-.17s-27.62,5.55-31.81,6.58c-5.28,1.31-6.39-2.11-13.19,0A86.74,86.74,0,0,0,183,372.05l-3.26,1.3h-5.52a1.49,1.49,0,0,0-1.48,1.49Z"/><path class="cls-2" d="M241,360.25a34.5,34.5,0,0,0,.95,8.27c6.78-.56,18.46-1.59,29-2.84l-.07-.58a5.3,5.3,0,0,1,1.23-3.35c.22-2.35-1.21-6.2-5.06-8.48s-7.33-1.77-9.74-5.68c-1.22-2-7.26-10.46-7.26-10.46l-1.39.26C244.14,345.29,241.05,352.23,241,360.25Z"/><path class="cls-1" d="M251.83,336.78l-1.82.35s6,8.49,7.26,10.46c2.41,3.91,5.88,3.39,9.74,5.68s5.28,6.13,5.06,8.48a5.3,5.3,0,0,0-1.23,3.35l.07.58c10-1.18,19-2.57,21.61-3.93,0,0,5.44-5.51,10.69-11.56l-.88-.75c-7.27-.16-7-3.61-7-3.61,2-10.8-4.93-9.41-5.8-9.06l-10-1.18-1-5.07L273.09,333c-2.7,1.9-3.37.56-7.64.4C260,333.23,251.83,336.78,251.83,336.78Zm17.93,3.1c-1.43-.13-2.55-.73-2.5-1.35s1.26-1,2.69-.9,2.56.73,2.5,1.35S271.19,340,269.76,339.88Z"/><path d="M267.26,338.53c-.05.62,1.07,1.22,2.5,1.35s2.64-.28,2.69-.9-1.06-1.23-2.5-1.35S267.32,337.91,267.26,338.53Z"/><path class="cls-3" d="M311.16,339.9c-.6,1-1.34,2-2.16,3.16.56-.13,22.82-5,33.76,12,0,0,8.19,11.4,1.65,20.15,8.21-4.38,19.3-10.29,24.41-13,6.25-3.26,10.7-7,17.25-4.58a84.24,84.24,0,0,0,3.06-20.52c.29-11.6,9.77-23,9.77-23a32.84,32.84,0,0,0-3.57-.19c-11.31,0-31.24-.61-36.12,0-5.37.65-21,6.19-29.81,9.93S316,332,311.16,339.9Z"/><path class="cls-1" d="M385.91,379.88c0,.11,0,.21,0,.32l2.11.32c2.94,0,8.47-2.12,15.48-1a260.93,260.93,0,0,0,31.28,2.22c-2.77-8.54,1.77-17,1.77-17-3.45.13-5.68.16-5.68.16a29.38,29.38,0,0,0-4.4-6.54c-5.54-3.75-10.75,2.93-13.36,5.86-1.55,1.74-6.32,3.71-10.85,5.37-3.1,1.13-6.09,2.11-7.88,2.78-4.4,1.63-4.89,5.05-4.89,5.05l-1.45.12A2.34,2.34,0,0,0,385.91,379.88Z"/><path class="cls-4" d="M436.57,364.75s-4.54,8.47-1.77,17c2,0,3.77,0,5.37-.1,10.26-.49,50.59,1.63,57.76,1.63s17.59,1.3,27.2-4.23c5.4-3.12,6.89-8.34,7.16-12.32a12.49,12.49,0,0,0-3.33-9.25c-15.16-16.59-56-27.41-67.78-28.77-8.9-1-22.77-5.26-30.27-7.69a97.08,97.08,0,0,0-11.38-3l-17.82-3.52c-.93-.19-1.87-.33-2.81-.43,0,0-9.48,11.42-9.77,23a84.24,84.24,0,0,1-3.06,20.52,27,27,0,0,1,8.65,5.78,82,82,0,0,0,7.33,5.53l.23.64c4.53-1.66,9.3-3.63,10.85-5.37,2.61-2.93,7.82-9.61,13.36-5.86a29.38,29.38,0,0,1,4.4,6.54S433.12,364.88,436.57,364.75Z"/><path class="cls-5" d="M280.68,364.1a8.56,8.56,0,0,0,.92-1.7s.71-3.15-2.93-1.62"/><path class="cls-5" d="M272.07,361.75a5.3,5.3,0,0,0-1.23,3.35"/><path class="cls-5" d="M286.13,360.25s5.33-.55,6.39-5.21"/><path class="cls-5" d="M250,337.13s6,8.49,7.26,10.46c2.41,3.91,5.88,3.39,9.74,5.68s5.28,6.13,5.06,8.48"/><path class="cls-5" d="M242,368.52a34.5,34.5,0,0,1-.95-8.27c.05-8,3.14-15,7.62-22.86l1.39-.26,1.82-.35s8.2-3.55,13.62-3.35c4.27.16,4.94,1.5,7.64-.4l5.45-2.51,1,5.07,10,1.18c.87-.35,7.8-1.74,5.8,9.06,0,0-.28,3.45,7,3.61"/><path class="cls-5" d="M309,343.06c.82-1.12,1.56-2.18,2.16-3.16,4.88-7.92,9.45-12.32,18.24-16.07s24.44-9.28,29.81-9.93c4.88-.59,24.81,0,36.12,0a32.84,32.84,0,0,1,3.57.19c.94.1,1.88.24,2.81.43l17.82,3.52a97.08,97.08,0,0,1,11.38,3c7.5,2.43,21.37,6.66,30.27,7.69C473,330.08,513.8,340.9,529,357.49a12.49,12.49,0,0,1,3.33,9.25c-.27,4-1.76,9.2-7.16,12.32-9.61,5.53-20,4.23-27.2,4.23s-47.5-2.12-57.76-1.63c-1.6.08-3.41.11-5.37.1a260.93,260.93,0,0,1-31.28-2.22c-7-1.14-12.54,1-15.48,1l-2.11-.32c0-.11,0-.21,0-.32a2.34,2.34,0,0,1,2.15-2.33l1.45-.12s.49-3.42,4.89-5.05c1.79-.67,4.78-1.65,7.88-2.78,4.53-1.66,9.3-3.63,10.85-5.37,2.61-2.93,7.82-9.61,13.36-5.86a29.38,29.38,0,0,1,4.4,6.54s2.23,0,5.68-.16c7.73-.26,21.59-.95,30.48-2.64,12.87-2.44,31.53-2.28,39,7.17"/><path class="cls-5" d="M344.41,375.2l-7.76,4.14a11.89,11.89,0,0,1-4.7,1.38l-13.63,1.11s-47.89,1.95-57.27,1.62-15.83,1.39-26.94,2.49c-7.8.14-24.27-4.29-28.9-5.58a7.31,7.31,0,0,0-2.55-.25l-6.7.51a25.39,25.39,0,0,1-3.7,0l-10-.73a8,8,0,0,0-2,.11l-4.12.78a3.43,3.43,0,0,1-1.56.1l-5.82-1a1.44,1.44,0,0,1,.24-2.87h5.84l6.29-1.25,8.74-2.93a38.74,38.74,0,0,1,6.72-2.1,10.13,10.13,0,0,1,6.09.59c1.61.67,3.53,1.07,7.23.53,6.68-1,16.67-4.59,26.34-2.91,0,0,2.21-.16,5.77-.46,6.78-.56,18.46-1.59,29-2.84,10-1.18,19-2.57,21.61-3.93,0,0,5.44-5.51,10.69-11.56,2.07-2.4,4.12-4.87,5.78-7.13"/><path class="cls-5" d="M402.05,369a82,82,0,0,1-7.33-5.53,27,27,0,0,0-8.65-5.78c-6.55-2.39-11,1.32-17.25,4.58-5.11,2.67-16.2,8.58-24.41,13"/><path class="cls-5" d="M436.57,364.75s-4.54,8.47-1.77,17"/><path class="cls-5" d="M309,343.06h0c.56-.13,22.82-5,33.76,12,0,0,8.19,11.4,1.65,20.15h0"/><path class="cls-5" d="M240.83,360.25s-27.62,5.55-31.81,6.58c-5.28,1.31-6.39-2.11-13.19,0A86.74,86.74,0,0,0,183,372.05l-3.26,1.3h-5.52a1.49,1.49,0,0,0-1.48,1.49v.36"/><path class="cls-5" d="M169.05,377.05v-.16a1.61,1.61,0,0,1,1.69-1.61l1.95.1,8.37.42"/><path class="cls-5" d="M398.9,314.11s-9.48,11.42-9.77,23a84.24,84.24,0,0,1-3.06,20.52"/><line class="cls-5" x1="313.1" y1="357.65" x2="292.52" y2="361.75"/><path class="cls-5" d="M235.22,374.26a4.13,4.13,0,0,0,0,5.23"/></svg>