<svg id="Layer_1" data-name="Layer 1" xmlns="http://www.w3.org/2000/svg" viewBox="0 0 700 700"><defs><style>.cls-1{fill:#feae63;}.cls-2{fill:#99abcc;}.cls-3{fill:#c4e7f9;}.cls-4{fill:#392328;}.cls-5{fill:none;stroke:#000;stroke-linecap:round;stroke-linejoin:round;stroke-width:2.3px;}</style></defs><title>Yoga_poses_2020_color</title><path class="cls-1" d="M578.26,364.11l-1.09,3.35c-1.3,4-5.65,4.93-5.65,4.93l-7.28,1.11a8.21,8.21,0,0,0-4,1.83l-.45.38a4.42,4.42,0,0,1-4.29.8l-4.73-1.61a6.88,6.88,0,0,0-4.37-.07c-1.84.6-2.65.25-5.69-.77-3.91-1.3-10.42-.59-10.42-.59,2.6-6.89,1.08-16.37,1.08-16.37V357c3.62-.09,6.34-.24,7.61-.35,3.84-.34,12.72-2.67,18.48-4.17,1.72-.45,3.15-.82,4.1-1,3.27-.78,8.58-3.46,10.65-4.54a4.5,4.5,0,0,1,1.87-.51,12.07,12.07,0,0,0,5.42-1.64l1.41-.83a3.84,3.84,0,0,1,1.92-.52,2.62,2.62,0,0,1,2.62,2.62v1.25a3.65,3.65,0,0,1-2.77,3.55l-2.5.62h-1.46l-3.26,1.08.64,2.88.76-.17a3.23,3.23,0,0,1,.69-.07h3.65l-1.71,5.23Z"/><path class="cls-1" d="M580.15,351.48a1.62,1.62,0,0,1,1.54,2.12l-.52,1.6h-3.65a3.23,3.23,0,0,0-.69.07l-.76.17-.64-2.88,3.26-1.08Z"/><path class="cls-1" d="M564.25,333.63v.92a2.75,2.75,0,0,1-1.42,2.4,2.78,2.78,0,0,0-1.41,2.42v.16l.17,2.56a2.75,2.75,0,0,1-.43,1.65c-1.11,1.73-3.75,6.14-3.75,8.71l0,.07c-5.76,1.5-14.64,3.83-18.48,4.17-1.27.11-4,.26-7.61.35-3.3.07-7.35.09-11.74,0A14.16,14.16,0,0,0,517,345.56c11.45-.28,13.33-1.78,18.89-3.53,6.19-2,13.36-2.93,15.64-4.24,1.85-1.05,4.54-3,5.51-3.65a3,3,0,0,0,.62-.61l1.19-1.64a2.74,2.74,0,0,1,3-1l.42.13A2.75,2.75,0,0,1,564.25,333.63Z"/><path class="cls-2" d="M519.6,357c4.39.12,8.44.1,11.74,0v.06s1.52,9.48-1.08,16.37c-10.64-.16-66.25,6.24-83.19-1.33a54.52,54.52,0,0,0-40.83-1.33c-6.39,2.24-43.49,2.61-62.66,2.65-6.88,0-11.45,0-11.45,0s0-.12,0-.18a2.41,2.41,0,0,0-1.92-2.35l-3.47-.71-4.24-.82a12.89,12.89,0,0,0-6.35-1.79,9.64,9.64,0,0,0-4.5,1.24c-.21-11.29,3.29-25.53,7.84-40.6v-7.59a55.08,55.08,0,0,1,10.18,0c14.66,1.18,27-1.1,31.93-1.1s31.27,2.61,40.39,4.23,26.39,2.61,31.61,4.57,14,8.47,22.8,9.77,41,7.49,56.36,7.49c1.55,0,3,0,4.24-.05A14.16,14.16,0,0,1,519.6,357Z"/><path class="cls-1" d="M344.47,373.79a1.66,1.66,0,0,1,.58,2.17l-1.85,3.53-5.58,6a3.71,3.71,0,0,1-2.71,1.18h-5.7v-.34a4,4,0,0,0,2.65-1l8-7.05a1.86,1.86,0,0,0,.37-2.33l.85-.27,1.19-1.51a1.67,1.67,0,0,1,1.31-.63A1.64,1.64,0,0,1,344.47,373.79Z"/><path class="cls-1" d="M329.21,386.32v.34h-7.68l-12-5.21c-35.51-.65-55.71-4.89-58.64-5.54s-25.74-2.28-39.42-2.28c-6.88,0-10.79-2.26-13-4.5a46.7,46.7,0,0,1-6.22-3.59,10.66,10.66,0,0,1-3.6-7.66c-.22-7.35,4.17-15,8.14-17,4.88-2.4,21.16-9.29,21.16-9.29,6.49,1.16,12.39,18.44,12.39,18.44l-.17.55c4.45,1.37,9.12,3,13.2,3.95a128.5,128.5,0,0,0,19.23,3.26c5.7.49,7.49,2.44,12.38,3.58,4,.94,11.36,2.1,17.73,4.48a37.84,37.84,0,0,1,3.93,1.71,23,23,0,0,0,13,2.61,11.43,11.43,0,0,1,2-1.36h0a9.64,9.64,0,0,1,4.5-1.24,12.89,12.89,0,0,1,6.35,1.79l4.24.82,3.47.71a2.41,2.41,0,0,1,1.92,2.35c0,.06,0,.12,0,.18a2.41,2.41,0,0,1-2.4,2.22h-1.35l-5.05-1.23h-5.54l7.33,4.4,5.95.82,6.54-4.32a1.88,1.88,0,0,1,1-.31,1.85,1.85,0,0,1,1.39.63,1.31,1.31,0,0,1,.2.28,1.86,1.86,0,0,1-.37,2.33l-8,7.05A4,4,0,0,1,329.21,386.32Z"/><path class="cls-3" d="M319.5,320.65v7.59c-4.55,15.07-8.05,29.31-7.84,40.6h0a55.08,55.08,0,0,0-19-3c-6.37-2.38-13.71-3.54-17.73-4.48-4.89-1.14-6.68-3.09-12.38-3.58a128.5,128.5,0,0,1-19.23-3.26c-4.08-1-8.75-2.58-13.2-3.95l.17-.55s-5.9-17.28-12.39-18.44c2-4.4,3.43-8.41,2.62-11,7.17-5.66,14-7.55,19.55-6.6s16.94,4.52,24.76,3.87,25.73,5.79,36.81,5.5C309.51,323.21,312.94,321.32,319.5,320.65Z"/><path class="cls-1" d="M162.47,350.78a8.3,8.3,0,0,1-1.91.28c-5.77-1.15-1.94-5.79-1.94-5.79.23-2.34-1.2-6.19-5.06-8.48s-7.32-1.76-9.73-5.68c-1.22-2-7.26-10.46-7.26-10.46l1.81-.35s8.21-3.55,13.63-3.35c4.27.16,4.94,1.5,7.64-.4l5.45-2.5,1,5.06,10,1.18c.87-.35,7.8-1.74,5.79,9.06,0,0-.27,3.45,7,3.61h9.44a5.88,5.88,0,0,0,2.6-.61c3.52-1.78,13.75-7.07,19.61-11.7.81,2.57-.59,6.58-2.62,11,0,0-16.28,6.89-21.16,9.29-4,2-8.36,9.61-8.14,17-3.91-2.3-14.23-.62-14.23-.62h0a11.47,11.47,0,0,0-5.5-2.14c-3.95.35-6-3.42-6.35-4.11ZM159,322.5c.05-.62-1.07-1.23-2.5-1.35s-2.64.28-2.69.9,1.06,1.22,2.5,1.35S159,323.12,159,322.5Z"/><path class="cls-4" d="M162.53,351c.34.69,2.4,4.46,6.35,4.11a11.47,11.47,0,0,1,5.5,2.14,4,4,0,0,1,1.5,3.42c-.3,4.82-4.53,4.72-10.34,4.9-4.39.14-9.55-.13-12.24.1a62.2,62.2,0,0,1-11.38-.13c-7.16-.67-9.34-5.66-9.34-5.66-.5-.77-1-1.53-1.37-2.28a31.59,31.59,0,0,1-2.93-6.95h0c-2.94-10.36,1-19.41,6.91-29.76l1.39-.26s6,8.49,7.26,10.46c2.41,3.92,5.88,3.39,9.73,5.68s5.29,6.14,5.06,8.48c0,0-3.83,4.64,1.94,5.79a8.3,8.3,0,0,0,1.91-.28Z"/><path d="M156.51,321.15c1.43.12,2.55.73,2.5,1.35s-1.26,1-2.69.9-2.56-.73-2.5-1.35S155.08,321,156.51,321.15Z"/><path class="cls-4" d="M131.16,357.65c3.52,8.24-4.76,7.11-9.76,6.81s-8.2-5.19-3.44-11.07,10.16-2.67,10.16-2.67l.15-.05h0a31.59,31.59,0,0,0,2.93,6.95Z"/><path class="cls-5" d="M158.62,345.27s-3.83,4.64,1.94,5.79a8.3,8.3,0,0,0,1.91-.28,8.06,8.06,0,0,0,5.69-4.86s.71-3.15-2.93-1.62"/><path class="cls-5" d="M172.69,343.77s5.33-.55,6.39-5.21"/><path class="cls-5" d="M136.57,320.65s6,8.49,7.26,10.46c2.41,3.92,5.88,3.39,9.73,5.68s5.29,6.14,5.06,8.48"/><path class="cls-5" d="M128.12,350.72s-5.41-3.21-10.16,2.67-1.54,10.77,3.44,11.07,13.28,1.43,9.76-6.81"/><path class="cls-5" d="M162.48,350.92l.05.1c.34.69,2.4,4.46,6.35,4.11a11.47,11.47,0,0,1,5.5,2.14,4,4,0,0,1,1.5,3.42c-.3,4.82-4.53,4.72-10.34,4.9-4.39.14-9.55-.13-12.24.1a62.2,62.2,0,0,1-11.38-.13c-7.16-.67-9.34-5.66-9.34-5.66-.5-.77-1-1.53-1.37-2.28a31.59,31.59,0,0,1-2.93-6.95h0c-2.94-10.36,1-19.41,6.91-29.76l1.39-.26,1.81-.35s8.21-3.55,13.63-3.35c4.27.16,4.94,1.5,7.64-.4l5.45-2.5,1,5.06,10,1.18c.87-.35,7.8-1.74,5.79,9.06,0,0-.27,3.45,7,3.61h9.44a5.88,5.88,0,0,0,2.6-.61c3.52-1.78,13.75-7.07,19.61-11.7,7.17-5.66,14-7.55,19.55-6.6s16.94,4.52,24.76,3.87,25.73,5.79,36.81,5.5c7.85-.21,11.28-2.1,17.84-2.77a55.08,55.08,0,0,1,10.18,0c14.66,1.18,27-1.1,31.93-1.1s31.27,2.61,40.39,4.23,26.39,2.61,31.61,4.57,14,8.47,22.8,9.77,41,7.49,56.36,7.49c1.55,0,3,0,4.24-.05,11.45-.28,13.33-1.78,18.89-3.53,6.19-2,13.36-2.93,15.64-4.24,1.85-1.05,4.54-3,5.51-3.65a3,3,0,0,0,.62-.61l1.19-1.64a2.74,2.74,0,0,1,3-1l.42.13a2.75,2.75,0,0,1,1.94,2.62v.92a2.75,2.75,0,0,1-1.42,2.4,2.78,2.78,0,0,0-1.41,2.42v.16l.17,2.56a2.75,2.75,0,0,1-.43,1.65c-1.11,1.73-3.75,6.14-3.75,8.71"/><path class="cls-5" d="M174.39,357.26s10.32-1.68,14.23.62"/><path class="cls-5" d="M230.31,350.07s-5.9-17.28-12.39-18.44c0,0-16.28,6.89-21.16,9.29-4,2-8.36,9.61-8.14,17a10.66,10.66,0,0,0,3.6,7.66,46.7,46.7,0,0,0,6.22,3.59"/><path class="cls-5" d="M195.78,364.68a10.28,10.28,0,0,0,2.66,4.45c2.19,2.24,6.1,4.5,13,4.5,13.68,0,36.49,1.63,39.42,2.28s23.13,4.89,58.64,5.54l12,5.21h13.38a3.71,3.71,0,0,0,2.71-1.18l5.58-6,1.85-3.53a1.66,1.66,0,0,0-.58-2.17,1.64,1.64,0,0,0-.89-.26,1.67,1.67,0,0,0-1.31.63l-1.19,1.51"/><path class="cls-5" d="M311.65,368.85a11.43,11.43,0,0,0-2,1.36,23,23,0,0,1-13-2.61,37.84,37.84,0,0,0-3.93-1.71c-6.37-2.38-13.71-3.54-17.73-4.48-4.89-1.14-6.68-3.09-12.38-3.58a128.5,128.5,0,0,1-19.23-3.26c-4.08-1-8.75-2.58-13.2-3.95a56.33,56.33,0,0,0-10.25-2.4s-2.28-3.91-3.91-4.73"/><path class="cls-5" d="M321.53,384.71l6.81,1.51a4.3,4.3,0,0,0,.87.1,4,4,0,0,0,2.65-1l8-7.05a1.86,1.86,0,0,0,.37-2.33,1.31,1.31,0,0,0-.2-.28,1.85,1.85,0,0,0-1.39-.63,1.88,1.88,0,0,0-1,.31l-6.54,4.32-5.95-.82-7.33-4.4h5.54l5.05,1.23h1.35a2.41,2.41,0,0,0,2.4-2.22c0-.06,0-.12,0-.18a2.41,2.41,0,0,0-1.92-2.35l-3.47-.71-4.24-.82a12.89,12.89,0,0,0-6.35-1.79,9.64,9.64,0,0,0-4.5,1.24"/><path class="cls-5" d="M332.13,373.45s4.57,0,11.45,0c19.17,0,56.27-.41,62.66-2.65a54.52,54.52,0,0,1,40.83,1.33c16.94,7.57,72.55,1.17,83.19,1.33,0,0,6.51-.71,10.42.59,3,1,3.85,1.37,5.69.77a6.88,6.88,0,0,1,4.37.07l4.73,1.61a4.42,4.42,0,0,0,4.29-.8l.45-.38a8.21,8.21,0,0,1,4-1.83l7.28-1.11s4.35-.89,5.65-4.93l1.09-3.35,1.2-3.68,1.71-5.23.52-1.6a1.62,1.62,0,0,0-1.54-2.12h-1.46l-3.26,1.08"/><path class="cls-5" d="M580.15,351.48l2.5-.62a3.65,3.65,0,0,0,2.77-3.55v-1.25a2.62,2.62,0,0,0-2.62-2.62,3.84,3.84,0,0,0-1.92.52l-1.41.83a12.07,12.07,0,0,1-5.42,1.64,4.5,4.5,0,0,0-1.87.51c-2.07,1.08-7.38,3.76-10.65,4.54-.95.22-2.38.59-4.1,1-5.76,1.5-14.64,3.83-18.48,4.17-1.27.11-4,.26-7.61.35-3.3.07-7.35.09-11.74,0-9.81-.26-21.33-1.22-30-3.8-16.72-5-23.67-2.39-41.7-9.77s-17.81-6.52-28.89-7.17-50.38-7.82-65.37-8"/><path class="cls-5" d="M319.5,320.65v7.59c-4.55,15.07-8.05,29.31-7.84,40.6h0a55.08,55.08,0,0,0-19-3"/><path class="cls-5" d="M220.54,320.65c.81,2.57-.59,6.58-2.62,11"/><path class="cls-5" d="M531.34,357.1s1.52,9.48-1.08,16.37"/><path class="cls-5" d="M517,345.56A14.16,14.16,0,0,1,519.6,357"/><path class="cls-5" d="M578.26,364.11l-1.62-.34a3.12,3.12,0,0,0-2.1.27l-2.47,1.24"/><path class="cls-5" d="M579.46,360.43l-2-.83a3.16,3.16,0,0,0-2.08-.11l-3.28.94"/><path class="cls-5" d="M581.17,355.2h-3.65a3.23,3.23,0,0,0-.69.07l-.76.17-2.7.6"/></svg>