<svg id="Layer_1" data-name="Layer 1" xmlns="http://www.w3.org/2000/svg" viewBox="0 0 700 700"><defs><style>.cls-1{fill:#99abcc;}.cls-2{fill:#feae63;}.cls-3{fill:#c4e7f9;}.cls-4{fill:#392328;}.cls-5{fill:none;stroke:#000;stroke-linecap:round;stroke-linejoin:round;stroke-width:2.3px;}</style></defs><title>Yoga_poses_2020_color</title><path class="cls-1" d="M362.09,396.66c6.22-3.05,10.47-5.2,10.47-5.2s10.24-4.55,20.14-4.61a19.43,19.43,0,0,1,9-6.25,31.69,31.69,0,0,1,8.27-1.84A25.79,25.79,0,0,1,424,380.5c9.21,3.89,15,12.41,15.88,17.15,1.3,6.84-1.63,13-7.82,20.07A29,29,0,0,1,425,423.3a56.74,56.74,0,0,1-11.51,5c-.88.25-1.74.48-2.58.7a75.53,75.53,0,0,1-8.34,1.66c-14.45,2-20.11-2.81-28.5-5.95-11.9-4.45-21.39-6.95-28.56-7.27s-17.62-4.84-17.62-4.84C338.39,408.16,352.55,401.35,362.09,396.66Z"/><path class="cls-2" d="M433.93,459.12v.05a1.25,1.25,0,0,1-1.26,1.25,7.49,7.49,0,0,1-2.3-1.35c-.87-.65-1.72-1.34-2.08-1.63a1.2,1.2,0,0,1,.21.69,2.14,2.14,0,0,1-2.15,2.14h-.14l-1.08-.07-.85-.17a2.38,2.38,0,0,1-2.49.74,8.13,8.13,0,0,1-1.89-.81L412,455a1,1,0,0,0-1.57.95l.07,1c0,1.91-2.69,2.23-4.43,2.23a1.19,1.19,0,0,1-1.18-1.41l1.4-3.13-.39-1.15a1.91,1.91,0,0,1-.1-.62,2,2,0,0,1,1.57-1.92,36.33,36.33,0,0,1,4.53-.45L411,429.3l-.08-.32c.84-.22,1.7-.45,2.58-.7a56.74,56.74,0,0,0,11.51-5l.2.35L424.8,450l-.06.75a17.12,17.12,0,0,1,9.2,3.59l3.42,2.67a1.27,1.27,0,0,1,.48,1,1.25,1.25,0,0,1-1.26,1.25h-.09l-1.7-.12Z"/><path class="cls-2" d="M413.18,338.36C419.05,358.56,424,380.5,424,380.5a25.79,25.79,0,0,0-14.09-1.74,31.69,31.69,0,0,0-8.27,1.84l-.2-.54-1.95-8.87-5.87-26.72a2.61,2.61,0,0,0-5.05.21c-.16.84-.35,2-.5,3.66l-8-12.8c1.75-18.87,4.32-30,4.32-37.73.44.31.87.64,1.29,1,0,0,9.58,6.66,12.83,10.25S407.32,318.16,413.18,338.36Z"/><path class="cls-2" d="M401.46,380.06l.2.54a19.43,19.43,0,0,0-9,6.25c-9.9.06-20.14,4.61-20.14,4.61s-4.25,2.15-10.47,5.2c.92-9.88-4.84-13-4.84-13,5.43-.32,9.82-1.14,11.95-2.29,4.24-2.28,9.45-1,16.45-5.21.66-.4,1.31-.76,2-1.1a35.1,35.1,0,0,1,11.57-3.79l.34-.07Z"/><path class="cls-1" d="M273,415.56c-1.83-1.7-3.82-3.8-6.75-6.83-8.47-8.8-7.17-17.92-1-29.32,3-5.49,8.15-7.43,13.07-7.86a34.08,34.08,0,0,1,12,1.34l1,.27a29.39,29.39,0,0,0,8.35.9c.9,0,1.79-.09,2.68-.18a37.24,37.24,0,0,1,12.64.82h0c9.23,2.19,16.13,7.21,24.35,8.28a97.59,97.59,0,0,0,17.91.66s5.76,3.13,4.84,13c-9.54,4.69-23.7,11.5-34.18,15.92,0,0,10.45,4.51,17.62,4.84s16.66,2.82,28.56,7.27c8.39,3.14,14.05,7.92,28.5,5.95,0,0-14.49,10.67-25.57,11.32s-21.5-4.89-27.3-4.89-15.16,6.08-27.87,5.11-23-11.95-34.75-17.81C279.42,420.53,276.49,418.78,273,415.56Z"/><path class="cls-3" d="M388.09,348.34h0c-.19,2-.32,4.64-.32,8.13a138,138,0,0,1-1,17.71l.81.86c-.64.34-1.29.7-2,1.1-7,4.23-12.21,2.93-16.45,5.21-2.13,1.15-6.52,2-11.95,2.29a97.59,97.59,0,0,1-17.91-.66c-8.22-1.07-15.12-6.09-24.35-8.28h0l.13-.51a138,138,0,0,1-1-17.71c0-3.49-.13-6.14-.32-8.13h0l8-12.81c10.22,9.12,38.24,15.63,58.24,0Z"/><path class="cls-2" d="M337,302.9a16.13,16.13,0,0,0,13.34,5.63s9.22.1,14.41-6.83a16.18,16.18,0,0,0,2.42-4.69c.38-1.15.93-2.91,1.47-4.86l2,.22a32.23,32.23,0,0,1,13.81,5.44c0,7.69-2.57,18.86-4.32,37.73-20,15.63-48,9.12-58.24,0-3.23-17-3-30.4-4.33-37.73a32.25,32.25,0,0,1,13.82-5.44l1-.06c.56,1.89,1.11,3.69,1.47,5a16.74,16.74,0,0,0,3.2,5.58Z"/><path class="cls-2" d="M370.28,284.25h-.1l.5-8.18c.05.21.09.44.13.66l0-.1h0c.65-1.06,2-2.71,2.66,1,0,0,.31,5-2.17,8.12C371.34,285.73,370,286.93,370.28,284.25Z"/><path class="cls-4" d="M329.46,276.16v.08a1.94,1.94,0,0,0-.07-.19c-.58-1.75-4.62-14.9,3.79-22.39a21.11,21.11,0,0,1,6.87-4.09c8-3,16.51-1.17,19.4-.39.66.18,1,.3,1,.3,17.57,7,11,25.52,10.37,27.13h0l0,.1c0-.22-.08-.45-.13-.66-2.13-10.52-8.74-14.29-20.82-14.17C329.59,262,329.43,275,329.46,276.16Z"/><path class="cls-2" d="M370.68,276.06l-.5,8.18,0,.25a46.25,46.25,0,0,1-1.55,7.66c-.54,2-1.09,3.71-1.47,4.86a16.18,16.18,0,0,1-2.42,4.69c-5.19,6.93-14.41,6.83-14.41,6.83A16.13,16.13,0,0,1,337,302.9h0a16.74,16.74,0,0,1-3.2-5.58c-.36-1.31-.91-3.11-1.47-5a48.54,48.54,0,0,1-1.93-8.05v-.06l-.91-8c0-1.16.13-14.14,20.4-14.27C361.94,261.77,368.55,265.54,370.68,276.06Zm-11.23,7.4a2.32,2.32,0,1,0-2-2.28A2.15,2.15,0,0,0,359.45,283.46Zm-18.11,0a2.32,2.32,0,1,0-2-2.28A2.15,2.15,0,0,0,341.34,283.46Z"/><path d="M361.42,281.15a2,2,0,1,1-2-2.28A2.15,2.15,0,0,1,361.42,281.15Z"/><path class="cls-4" d="M360.58,249.16l-1.13,0c-2.89-.78-11.4-2.6-19.4.39l-.16-.41c0-5.35,4.63-9.7,10.34-9.7S360.58,243.81,360.58,249.16Z"/><path d="M343.3,281.15a2,2,0,1,1-2-2.28A2.15,2.15,0,0,1,343.3,281.15Z"/><path class="cls-2" d="M330.32,284.26c.3,2.51-1,1.41-1,1.41-2.6-3-2.5-8-2.5-8,.43-3.22,1.55-2.47,2.29-1.54l.3-.05a1.94,1.94,0,0,1,.07.19v-.08l.91,8v.06Z"/><path class="cls-2" d="M321.84,335.54l-8,12.81h0a34.89,34.89,0,0,0-.5-3.67,2.6,2.6,0,0,0-5-.21l-8.63,29.07,0,.52a29.39,29.39,0,0,1-8.35-.9l-1-.27a34.08,34.08,0,0,0-12-1.34l0-.29s4.56-12.7,10.42-32.9,11.4-25.74,14.66-29.32,12.84-10.25,12.84-10.25c.42-.34.85-.67,1.28-1C318.88,305.14,318.61,318.58,321.84,335.54Z"/><path class="cls-2" d="M273.7,450.74l-.06-.75L273,415.56c3.49,3.22,6.42,5,14.1,8.81l-.53,26.13a36.33,36.33,0,0,1,4.53.45,2,2,0,0,1,1.57,1.92,1.91,1.91,0,0,1-.1.62l-.39,1.15,1.4,3.13a1.19,1.19,0,0,1-1.18,1.41c-1.74,0-4.43-.32-4.43-2.23l.07-1a1,1,0,0,0-1.57-.95l-7.93,5a8.13,8.13,0,0,1-1.89.81,2.41,2.41,0,0,1-2.06-.34l-2.36-.16h-.14a2.14,2.14,0,0,1-2.15-2.14,1.2,1.2,0,0,1,.21-.69c-.36.29-1.21,1-2.08,1.63a7.49,7.49,0,0,1-2.3,1.35,1.26,1.26,0,0,1-1.26-1.25v-.05h-.86l-1.7.12h-.09a1.24,1.24,0,0,1-1.25-1.25,1.26,1.26,0,0,1,.47-1l3.42-2.67A17.12,17.12,0,0,1,273.7,450.74Z"/><path class="cls-5" d="M339.89,249.16c0-5.35,4.63-9.7,10.34-9.7s10.35,4.35,10.35,9.7"/><path class="cls-5" d="M370.85,276.61c.61-1.61,7.2-20.08-10.37-27.13,0,0-.37-.12-1-.3-2.89-.78-11.4-2.6-19.4.39a21.11,21.11,0,0,0-6.87,4.09c-8.41,7.49-4.37,20.64-3.79,22.39a1.94,1.94,0,0,1,.07.19v-.08c0-1.16.13-14.14,20.4-14.27,12.08-.12,18.69,3.65,20.82,14.17.05.21.09.44.13.66"/><path class="cls-5" d="M370.81,276.72l0-.1"/><path class="cls-5" d="M370.85,276.62h0c.65-1.06,2-2.71,2.66,1,0,0,.31,5-2.17,8.12,0,0-1.3,1.2-1.06-1.48,0-.23.05-.49.1-.78"/><path class="cls-5" d="M329.09,276.1c-.74-.93-1.86-1.68-2.29,1.54,0,0-.1,5,2.5,8,0,0,1.32,1.1,1-1.41,0-.26-.08-.55-.15-.89"/><path class="cls-5" d="M337,302.9a16.13,16.13,0,0,0,13.34,5.63s9.22.1,14.41-6.83a16.18,16.18,0,0,0,2.42-4.69c.38-1.15.93-2.91,1.47-4.86a46.25,46.25,0,0,0,1.55-7.66l0-.25.5-8.18.08-1.32"/><path class="cls-5" d="M329.37,275.36l.09.8.91,8v.06a48.54,48.54,0,0,0,1.93,8.05c.56,1.89,1.11,3.69,1.47,5a16.74,16.74,0,0,0,3.2,5.58"/><path class="cls-5" d="M351.94,290.88a4.29,4.29,0,0,1-4.44-.12"/><polyline class="cls-5" points="345.21 298.3 346.15 298.68 349.11 297.81 350.22 298.5 351.45 297.85 354.1 298.79 354.96 298.57"/><polyline class="cls-5" points="336.97 302.89 336.97 302.9 338.41 311.15"/><line class="cls-5" x1="364.72" y1="301.7" x2="362.85" y2="311.97"/><path class="cls-5" d="M331.33,292.37a32.25,32.25,0,0,0-13.82,5.44c-.43.31-.86.64-1.28,1,0,0-9.58,6.66-12.84,10.25s-8.79,9.12-14.66,29.32-10.42,32.9-10.42,32.9"/><path class="cls-5" d="M299.65,373.54l8.63-29.07a2.6,2.6,0,0,1,5,.21,34.89,34.89,0,0,1,.5,3.67c.19,2,.32,4.64.32,8.13a138,138,0,0,0,1,17.71"/><path class="cls-5" d="M276.89,412.2a21,21,0,0,1,8.58,2.07c7.82,3.58,20.53,4.23,30.3,2.6,2.32-.38,6.74-2,12.14-4.29,10.48-4.42,24.64-11.23,34.18-15.92,6.22-3.05,10.47-5.2,10.47-5.2s10.24-4.55,20.14-4.61a26.91,26.91,0,0,1,4.85.38c11.07,1.95,22.15-1.31,27.69,4.88"/><path class="cls-5" d="M399.17,371.26a35.1,35.1,0,0,0-11.57,3.79c-.64.34-1.29.7-2,1.1-7,4.23-12.21,2.93-16.45,5.21-2.13,1.15-6.52,2-11.95,2.29a97.59,97.59,0,0,1-17.91-.66c-8.22-1.07-15.12-6.09-24.35-8.28h0a37.24,37.24,0,0,0-12.64-.82c-.89.09-1.78.15-2.68.18a29.39,29.39,0,0,1-8.35-.9l-1-.27a34.08,34.08,0,0,0-12-1.34c-4.92.43-10.09,2.37-13.07,7.86-6.19,11.4-7.49,20.52,1,29.32,2.93,3,4.92,5.13,6.75,6.83,3.49,3.22,6.42,5,14.1,8.81,11.73,5.86,22,16.83,34.75,17.81s22.08-5.11,27.87-5.11,16.21,5.54,27.3,4.89,25.57-11.32,25.57-11.32"/><path class="cls-5" d="M327.91,412.58s10.45,4.51,17.62,4.84,16.66,2.82,28.56,7.27c8.39,3.14,14.05,7.92,28.5,5.95a75.53,75.53,0,0,0,8.34-1.66c.84-.22,1.7-.45,2.58-.7a56.74,56.74,0,0,0,11.51-5,29,29,0,0,0,7.06-5.58c6.19-7,9.12-13.23,7.82-20.07-.91-4.74-6.67-13.26-15.88-17.15a25.79,25.79,0,0,0-14.09-1.74,31.69,31.69,0,0,0-8.27,1.84,19.43,19.43,0,0,0-9,6.25l0,0"/><polyline class="cls-5" points="272.99 415.03 273 415.56 273.64 449.99"/><path class="cls-5" d="M287.1,424.37l-.53,26.13a36.33,36.33,0,0,1,4.53.45,2,2,0,0,1,1.57,1.92,1.91,1.91,0,0,1-.1.62l-.39,1.15,1.4,3.13a1.19,1.19,0,0,1-1.18,1.41c-1.74,0-4.43-.32-4.43-2.23l.07-1a1,1,0,0,0-1.57-.95l-7.93,5a8.13,8.13,0,0,1-1.89.81,2.41,2.41,0,0,1-2.06-.34,2.48,2.48,0,0,1-.61-.64.8.8,0,0,1-.13-.44.8.8,0,0,1,.3-.63l6.44-5.25"/><path class="cls-5" d="M275.59,453.47l-5.26,3.76a.91.91,0,0,0-.18.21,1.2,1.2,0,0,0-.21.69,2.14,2.14,0,0,0,2.15,2.14h.14l1.08-.07"/><path class="cls-5" d="M270.5,453.6,265,458.09a1.24,1.24,0,0,0-.44,1v.13a1.26,1.26,0,0,0,1.26,1.25,7.49,7.49,0,0,0,2.3-1.35c.87-.65,1.72-1.34,2.08-1.63l.09-.07"/><path class="cls-5" d="M278.31,450.43l-4.42.3h-.19a17.12,17.12,0,0,0-9.2,3.59L261.08,457a1.26,1.26,0,0,0-.47,1,1.24,1.24,0,0,0,1.25,1.25H262l1.7-.12"/><line class="cls-5" x1="425.22" y1="423.65" x2="424.8" y2="449.99"/><path class="cls-5" d="M411,429.3l.86,21.2a36.33,36.33,0,0,0-4.53.45,2,2,0,0,0-1.57,1.92,1.91,1.91,0,0,0,.1.62l.39,1.15-1.4,3.13a1.19,1.19,0,0,0,1.18,1.41c1.74,0,4.43-.32,4.43-2.23l-.07-1A1,1,0,0,1,412,455l7.93,5a8.13,8.13,0,0,0,1.89.81,2.38,2.38,0,0,0,2.49-.74,1.08,1.08,0,0,0,.18-.24.8.8,0,0,0,.13-.44.8.8,0,0,0-.3-.63l-6.44-5.25"/><path class="cls-5" d="M422.85,453.47l5.26,3.76a.91.91,0,0,1,.18.21,1.2,1.2,0,0,1,.21.69,2.14,2.14,0,0,1-2.15,2.14h-.14l-1.08-.07"/><path class="cls-5" d="M427.94,453.6l5.55,4.49a1.24,1.24,0,0,1,.44,1v.13a1.25,1.25,0,0,1-1.26,1.25,7.49,7.49,0,0,1-2.3-1.35c-.87-.65-1.72-1.34-2.08-1.63l-.09-.07"/><path class="cls-5" d="M420.13,450.43l4.42.3h.19a17.12,17.12,0,0,1,9.2,3.59l3.42,2.67a1.27,1.27,0,0,1,.48,1,1.25,1.25,0,0,1-1.26,1.25h-.09l-1.7-.12"/><path class="cls-5" d="M357.25,383.65s5.76,3.13,4.84,13h0"/><path class="cls-5" d="M317.51,297.81c1.37,7.33,1.1,20.77,4.33,37.73l-8,12.81"/><path class="cls-5" d="M370.59,292.37a32.23,32.23,0,0,1,13.81,5.44c.44.31.87.64,1.29,1,0,0,9.58,6.66,12.83,10.25s8.8,9.12,14.66,29.32S424,380.5,424,380.5"/><path class="cls-5" d="M388.09,348.35c-.19,2-.32,4.64-.32,8.13a138,138,0,0,1-1,17.71"/><path class="cls-5" d="M401.46,380.06l-1.95-8.87-5.87-26.72a2.61,2.61,0,0,0-5.05.21c-.16.84-.35,2-.5,3.66"/><path class="cls-5" d="M384.4,297.81c0,7.69-2.57,18.86-4.32,37.73l8,12.8h0"/><path class="cls-5" d="M321.84,335.54c10.22,9.12,38.24,15.63,58.24,0"/><path class="cls-5" d="M331.63,372a125.8,125.8,0,0,0,40.4.22"/><path class="cls-5" d="M324,314s4.34,2.61,8,2.61,11.24.65,11.24.65"/><path class="cls-5" d="M378.76,314s-4.35,2.61-8,2.61-11.24.65-11.24.65"/></svg>