<svg id="Layer_1" data-name="Layer 1" xmlns="http://www.w3.org/2000/svg" viewBox="0 0 700 700"><defs><style>.cls-1{fill:#feae63;}.cls-2{fill:#99abcc;}.cls-3{fill:#120c0c;}.cls-4{fill:#c4e7f9;}.cls-5{fill:none;stroke:#000;stroke-linecap:round;stroke-linejoin:round;stroke-width:2.3px;}</style></defs><title>Yoga_poses_2020_color</title><path class="cls-1" d="M490.94,180.81a.41.41,0,0,0,0,.09c.32.66.74,1.61,0,2.35-1.31,1.27-3.61-.15-3.61-.15a11.66,11.66,0,0,1-7.68,6.53c-5.73,1.46-12.58,14.21-12.58,14.21s-4.22,6.68-5.54,9.65-6.87,5.33-10.89.61c-3.22-3.78-9.42-2.6-17.8,1.14.1-.33,2.18-7.88-5.74-18.5l2.74-.66c13.07-3.25,9.78-8.4,30.1-14.43,0,0,19.17-5.27,21.44-5.87s11.27-.41,11.27-.41,2.25,1.75,0,4.15a4.93,4.93,0,0,1-1.75.55C490.6,180.09,490.73,180.38,490.94,180.81Z"/><path class="cls-2" d="M427.11,196.74c7.92,10.62,5.84,18.17,5.74,18.5h0c-2.08.93-4.29,2-6.63,3.23-11.75,6.1-27,16.89-37.18,20.51-11.46,4.06-24.55,5.95-36.11,4.48s-12.71,2.77-15.48,7.66-16,31.44-23.36,42-7.1,23.78-8.89,38.11-13.36,22-21,25.42a12.81,12.81,0,0,0-7.1,8.52,60.52,60.52,0,0,1-45-29.28A58.34,58.34,0,0,1,239.39,323c6-8.47,12.22-19.57,12.22-19.57,11.73-22.48,41.54-56.53,48.54-63s18.08-16.78,23.29-23.13,13.85-4.4,17.76-4.08a110,110,0,0,0,19.06-1c4.56-.82,27.85-6.69,27.85-6.69C410.44,199.84,416,199.36,427.11,196.74Z"/><path class="cls-1" d="M273,512.46s5.94,1.37,12.33,3.11,27.26,2,31.51,1.65,8.46.91,12.67.82,13.08-.09,15-.36a6.11,6.11,0,0,1,3.47,1.46,15.14,15.14,0,0,0,7.14,2.74c2.47.55,14.36,4.21,14.36,4.21.36,2.56-2.56,2.39-2.56,2.39,0,.9-1.47,1.45-1.47,1.45a28.29,28.29,0,0,1-7.86-.55c.64,1.19-.73,2.2-.73,2.2l-8.51-.73c-2-.18-5.86-.28-12.81-.18s-8.69-1.19-10.79-1.47-4.41-.34-4.41-.34-21.2.65-30.77,2.72-31.81,1.29-36.2,1.29c0,0-2.33,1-1.81-12.41s1.29-41.52,6.46-56.44c1.78-5.13.58-7.65-2.07-9.35l.08-.12c-.39-.67-10.89-19.05,4.22-32.31,0,0,15.4-11.68,28.25-3.81,1,1.95,1.94,3.72,2.66,5,3.08,5.64,2.29,14.3,2.29,14.3a67.59,67.59,0,0,1-1.68,8.13c-1.56,5.82-3.37,9.92-3.7,13.42-.46,4.94-.9,10.34-3.2,15.55s-7.41,12.8-8.23,18.93S273.52,508,273,512.46Z"/><path class="cls-3" d="M332.29,437.52c13.09,8,14.57,19.42,14.55,33.87l-1.08.91s-9.44-4.41-11.47-5.53c-4-2.22-6.79,0-11.27-.14s-7.62-2.74-8.58-4.89c0,0,1.05-5.94-4.53-4.09a8.59,8.59,0,0,0-1.51,1.17l-.1-.1s-4.18-3.09-7.78-.61a6.63,6.63,0,0,1-3,1.22c-1.33-.22-1.87-1.37-1.81-3.21a23.47,23.47,0,0,1,1.28-6,23.24,23.24,0,0,1,11.63-12.85,27.79,27.79,0,0,1,16.78-2.36,20.28,20.28,0,0,1,4.54,1.3C330.74,436.61,331.54,437.06,332.29,437.52Z"/><path class="cls-1" d="M308.4,458.82a8.59,8.59,0,0,1,1.51-1.17c5.58-1.85,4.53,4.09,4.53,4.09,1,2.15,4.1,4.79,8.58,4.89s7.25-2.08,11.27.14c2,1.12,11.47,5.53,11.47,5.53l-1.41,1.2s-5.39,7.13-10.2,9.62c-3.79,2-5,1.13-6.46,4.12l-3.5,4.86-3.34-3.94-9.31,3.92c-.59.74-5.93,5.36-9.51-5a7.46,7.46,0,0,0-4.9-4.9c-4.06-1.37-10.86-3.46-12.23-7.28,2.3-5.21,2.74-10.61,3.2-15.55.33-3.5,2.14-7.6,3.7-13.42h0c-.94,10.41,3.86,10.22,3.86,10.22-.06,1.84.48,3,1.81,3.21a6.63,6.63,0,0,0,3-1.22c3.6-2.48,7.78.61,7.78.61Zm19.76,22.87c1.31-.6,2.16-1.54,1.9-2.11s-1.53-.54-2.84.05-2.16,1.54-1.9,2.11S326.85,482.28,328.16,481.69Z"/><path class="cls-3" d="M337.18,427.47c1.4,7.43-4.55,9.48-4.55,9.48l-.34.57c-.75-.46-1.55-.91-2.39-1.35a20.28,20.28,0,0,0-4.54-1.3l0-.09c-8.56-2.66-6-10.5-3.11-12.54C326.36,419.39,335.77,420,337.18,427.47Z"/><path d="M330.06,479.58c.26.57-.59,1.51-1.9,2.11s-2.58.62-2.84.05.6-1.51,1.9-2.11S329.8,479,330.06,479.58Z"/><path class="cls-4" d="M283.86,407a59.16,59.16,0,0,0,4.67,11.41c-12.85-7.87-28.25,3.81-28.25,3.81-15.11,13.26-4.61,31.64-4.22,32.31l-.08.12c-5-3.23-15.39-3.41-20.38-12.85-4.42-8.36-9.4-17.21-9.4-17.21-3.43-5.54-3.59-12.54-3.59-12.54.65-13.52,2.19-37.75,4.63-55.5,1.25-9.1,2.82-15.46,4.88-20.64a60.52,60.52,0,0,0,45,29.28,14.56,14.56,0,0,0-.56,3.53C275.55,377.05,282.72,402.13,283.86,407Z"/><path class="cls-5" d="M490.94,180.81c-.21-.43-.34-.72,0-.74a4.93,4.93,0,0,0,1.75-.55c2.24-2.4,0-4.15,0-4.15s-9-.19-11.27.41S460,181.65,460,181.65c-20.32,6-17,11.18-30.1,14.43l-2.74.66c-11.1,2.62-16.67,3.1-39,8.77,0,0-23.29,5.87-27.85,6.69a110,110,0,0,1-19.06,1c-3.91-.32-12.54-2.28-17.76,4.08s-16.29,16.61-23.29,23.13-36.81,40.56-48.54,63c0,0-6.19,11.1-12.22,19.57a58.34,58.34,0,0,0-7.27,12.94c-2.06,5.18-3.63,11.54-4.88,20.64-2.44,17.75-4,42-4.63,55.5,0,0,.16,7,3.59,12.54,0,0,5,8.85,9.4,17.21,5,9.44,15.33,9.62,20.38,12.85,2.65,1.7,3.85,4.22,2.07,9.35-5.17,14.92-5.94,43-6.46,56.44s1.81,12.41,1.81,12.41c4.39,0,26.63.78,36.2-1.29s30.77-2.72,30.77-2.72,2.31.07,4.41.34,3.84,1.56,10.79,1.47,10.8,0,12.81.18l8.51.73s1.37-1,.73-2.2c0,0-6.41-1.46-8-1.73a50.18,50.18,0,0,1-5.58-1.83"/><path class="cls-5" d="M432.85,215.24c8.38-3.74,14.58-4.92,17.8-1.14,4,4.72,9.58,2.36,10.89-.61s5.54-9.65,5.54-9.65,6.85-12.75,12.58-14.21a11.66,11.66,0,0,0,7.68-6.53s2.3,1.42,3.61.15c.77-.74.35-1.69,0-2.35"/><path class="cls-5" d="M355.15,521.88a15.14,15.14,0,0,1-7.14-2.74,6.11,6.11,0,0,0-3.47-1.46c-1.92.27-10.8.27-15,.36s-8.42-1.19-12.67-.82-25.11.09-31.51-1.65S273,512.46,273,512.46c.49-4.48,2.81-12.53,3.64-18.66s5.93-13.73,8.23-18.93,2.74-10.61,3.2-15.55c.33-3.5,2.14-7.6,3.7-13.42a67.59,67.59,0,0,0,1.68-8.13s.79-8.66-2.29-14.3c-.72-1.32-1.67-3.09-2.66-5A59.16,59.16,0,0,1,283.86,407c-1.14-4.89-8.31-30-7.33-38.28a14.56,14.56,0,0,1,.56-3.53,12.81,12.81,0,0,1,7.1-8.52c7.65-3.43,19.22-11.08,21-25.42s1.49-27.53,8.89-38.11,20.59-37.14,23.36-42,3.91-9.12,15.48-7.66,24.65-.42,36.11-4.48c10.22-3.62,25.43-14.41,37.18-20.51,2.34-1.21,4.55-2.3,6.63-3.23"/><path class="cls-5" d="M357.62,529.38a28.29,28.29,0,0,0,7.86.55s1.43-.55,1.47-1.45a1.33,1.33,0,0,0-.55-1S358,526.09,356,525.54s-5.58-.82-7-1.28"/><path class="cls-5" d="M367,528.48s2.92.17,2.56-2.39c0,0-11.89-3.66-14.36-4.21"/><path class="cls-5" d="M273,512.46a31.35,31.35,0,0,1-2,6.89"/><path class="cls-5" d="M256.07,454.57v0c-.39-.67-10.89-19.05,4.22-32.31,0,0,15.4-11.68,28.25-3.81"/><path class="cls-5" d="M277.09,365.21a60.52,60.52,0,0,1-45-29.28"/><path class="cls-5" d="M314.44,461.74s1.05-5.94-4.53-4.09a8.59,8.59,0,0,0-1.51,1.17,8,8,0,0,0-2.57,7.05s.93,3.08,3.34,0"/><path class="cls-5" d="M302.94,470s-4.37,3.1-3,7.68"/><path class="cls-5" d="M345.76,472.3s-9.44-4.41-11.47-5.53c-4-2.22-6.79,0-11.27-.14s-7.62-2.74-8.58-4.89"/><path class="cls-5" d="M332.63,437s5.95-2.05,4.55-9.48-10.82-8.08-14.91-5.23c-2.92,2-5.45,9.88,3.11,12.54"/><path class="cls-5" d="M308.3,458.72s-4.18-3.09-7.78-.61a6.63,6.63,0,0,1-3,1.22c-1.33-.22-1.87-1.37-1.81-3.21a23.47,23.47,0,0,1,1.28-6,23.24,23.24,0,0,1,11.63-12.85,27.79,27.79,0,0,1,16.78-2.36,20.28,20.28,0,0,1,4.54,1.3c.84.44,1.64.89,2.39,1.35,13.09,8,14.57,19.42,14.55,33.87l-1.08.91-1.41,1.2s-5.39,7.13-10.2,9.62c-3.79,2-5,1.13-6.46,4.12l-3.5,4.86-3.34-3.94-9.31,3.92c-.59.74-5.93,5.36-9.51-5a7.46,7.46,0,0,0-4.9-4.9c-4.06-1.37-10.86-3.46-12.23-7.28"/><path class="cls-5" d="M291.81,445.9c-.94,10.41,3.86,10.22,3.86,10.22"/><path class="cls-5" d="M432.85,215.25h0c.1-.33,2.18-7.88-5.74-18.5"/><path class="cls-5" d="M491,180.9a.41.41,0,0,1,0-.09c-.2-.35-1-1.71-2.3-1.78"/></svg>