<svg id="Layer_1" data-name="Layer 1" xmlns="http://www.w3.org/2000/svg" viewBox="0 0 700 700"><defs><style>.cls-1{fill:#feae63;}.cls-2{fill:#392328;}.cls-3{fill:#c4e7f9;}.cls-4{fill:#99abcc;}.cls-5{fill:none;stroke:#000;stroke-linecap:round;stroke-linejoin:round;stroke-width:2.3px;}</style></defs><title>Yoga_poses_2020_color</title><path class="cls-1" d="M445.64,360.35c-9.19-.2-20.83-12.35-20.83-12.35l-1.37-19.35a20.19,20.19,0,0,1,9.07-14.37s13.39-8.47,21.52,4.89c2.36,3.88,5.27,9.65,8.5,16.1S469.34,349,473,355.62h0c5.18,9.47,10.49,17.85,15.24,21.61,10.79,8.56,39.67,57.75,47.71,66a3.92,3.92,0,0,0,2.34,1.15l21.66,2.67a10.36,10.36,0,0,1,1.84.38l22.11,6.61a2.9,2.9,0,0,1,2.07,2.78V458l0,.09,3.15.91a2.24,2.24,0,0,1,1,3.73,2.26,2.26,0,0,1-1.58.65h-3.69a1.79,1.79,0,0,1-1.74,1.39,1.55,1.55,0,0,1-.37,0L561,460.15l11.74,5.09a1.79,1.79,0,0,1,1,2.33l-.09.21a1.8,1.8,0,0,1-2.42,1l-13.76-6.38-17.24-.9a11.13,11.13,0,0,1-7.68-3.63c-7.77-8.5-27.85-30.42-33.07-35.38-6.52-6.19-16.78-18.24-20.69-24.92-2-3.41-7.69-9.16-13.77-15.28-5.81-5.85-12-12-15.55-16.81Z"/><path class="cls-1" d="M446.11,274.07a8.94,8.94,0,0,1-.54-2c.44-6.27,5.87-2.82,5.87-2.82,2.52-.07,6.41-2.09,8.32-6.48s.9-8,4.73-11.07c1.93-1.56,10.13-9.09,10.13-9.09l.61,1.88s4.85,8.23,5.35,14c.4,4.54-.94,5.43,1.44,8.05L485.4,272l-5.24,1.69.08,10.79c.48.88,2.88,8-8.84,7.35a15.34,15.34,0,0,0-3.23.26c-1.36.27-2.1,4.63-3.23,9.07-2.09,8.16-3.62,9.1-3.68,11.81,0,0,1.22,12.7,3.66,20.52a30.6,30.6,0,0,0,1.31,3.44l-3.7-1.67c-3.23-6.45-6.14-12.22-8.5-16.1-8.13-13.36-21.52-4.89-21.52-4.89a20.19,20.19,0,0,0-9.07,14.37l0-.44c.76-16.89,16.57-19.78,15-40.29h0c2-.28,3.26-2.56,3.75-6.35,1-5.91,3.76-7.43,3.76-7.43Zm29.52-7.4c.67,0,1.16-1.29,1.1-2.82s-.64-2.76-1.31-2.74-1.16,1.29-1.1,2.83S475,266.7,475.63,266.67Z"/><path d="M476.73,263.85c.06,1.53-.43,2.8-1.1,2.82s-1.25-1.2-1.31-2.73.44-2.8,1.1-2.83S476.67,262.31,476.73,263.85Z"/><path class="cls-2" d="M474.15,241.21l.47,1.43s-8.2,7.53-10.13,9.09c-3.83,3.07-2.81,6.68-4.73,11.07s-5.8,6.41-8.32,6.48c0,0-5.43-3.45-5.87,2.82a8.94,8.94,0,0,0,.54,2l-.15.06s-2.8,1.52-3.76,7.43c-.49,3.79-1.74,6.07-3.75,6.35-1.76.25-4.12-1-7.08-4.19-6.36-6.74-6.52-18.61-6.52-18.61a29.73,29.73,0,0,1,4.51-17.55,21.65,21.65,0,0,1,3.12-3.95q1.29-1.08,2.58-2C448.17,232.17,460,235.35,474.15,241.21Z"/><path class="cls-3" d="M465,382.24l-.57.56c-5.36,15.68-20.74,29.15-35.15,38.37L428.12,420c3.74-31.1-22.3-38.77-24.25-39.3,6.87-5.61,11.85-19.2,15.06-31l5.88-1.72s11.64,12.15,20.83,12.35l3.81,5.08C453,370.21,459.19,376.39,465,382.24Z"/><path class="cls-2" d="M434.36,241.24l.7.36q-1.29.93-2.58,2a21.65,21.65,0,0,0-3.12,3.95l-.1,0c-6.1,7.37-12.81,1.68-13.64-2-1.16-5.2,3.32-14.24,11.23-12.6S434.36,241.24,434.36,241.24Z"/><path class="cls-4" d="M428.12,420l1.16,1.13c-9.86,6.32-19.27,10.64-24.71,12.33-15.42,4.78-53.77,16.81-88.08,18.54s-28.24.22-55.17-1.52c-19.64-1.26-49.66.13-70.12,1.73-4.1-12.78,1.32-20.35,1.32-20.35,12.36-3.25,28.11-7.2,40.18-9.57.8-.16,1.61-.3,2.41-.44h0c22.31-3.78,42.75.89,50.09,1.31,7.6.44,38.62-9.77,53-11.51s11.51-2.91,23.68-15.51,18.75-11.29,36.13-12.81a10.74,10.74,0,0,0,5.9-2.63C405.82,381.27,431.86,388.94,428.12,420Z"/><path class="cls-1" d="M423.44,328.65,424.81,348l-5.88,1.72a207.18,207.18,0,0,0,4.45-20.55Z"/><path class="cls-4" d="M336.21,401c11.94-1.8,25.63-4.81,25.63-4.81-12.17,12.6-9.34,13.77-23.68,15.51s-45.35,11.95-53,11.51c-7.34-.42-27.78-5.09-50.09-1.31h0c-.9,0-4.54.35-9.58.94-2.39-8.83,1-14.71,1-14.71l0-1.53c9.11-.12,20.22-1.32,20.22-1.32,31.93-4.89,47.82,2.6,57.6,2.6S318.65,403.63,336.21,401Z"/><path class="cls-1" d="M226.51,406.59l0,1.53s-3.39,5.88-1,14.71c-16.34,1.94-47.39,6.19-47.39,6.19H169a2,2,0,0,1-1.44-.6A2,2,0,0,1,167,427c1.72-3.11,7.09-2.9,7.09-2.9s.22-3.22,7.17-5.21c10.57-3,11.73-9.45,19.22-16.94s9.47,2,16,3.95C218.49,406.49,222.29,406.66,226.51,406.59Z"/><path class="cls-1" d="M192.52,431.9s-5.42,7.57-1.32,20.35c-7.59.6-13.86,1.22-17.8,1.75-14.55,1.95-26.88,6.6-35.36,7s-20.63,3.25-20.63,3.25-9.34,1.52-8.47-2.6S120,451.31,125,448.92s16.25-9.64,22.55-15.94,11.29-9.34,15.42-3.7a26.2,26.2,0,0,0,4,4.37,11.2,11.2,0,0,0,10.3,2.34C180.92,435,186.29,433.54,192.52,431.9Z"/><path class="cls-5" d="M235.11,421.89c-.8.14-1.61.28-2.41.44-12.07,2.37-27.82,6.32-40.18,9.57-6.23,1.64-11.6,3.1-15.2,4.09a11.2,11.2,0,0,1-10.3-2.34,26.2,26.2,0,0,1-4-4.37c-4.13-5.64-9.13-2.6-15.42,3.7S130,446.53,125,448.92s-15.2,8.64-16.07,12.77,8.47,2.6,8.47,2.6S129.57,461.47,138,461s20.81-5.09,35.36-7c3.94-.53,10.21-1.15,17.8-1.75,20.46-1.6,50.48-3,70.12-1.73,26.93,1.74,20.85,3.26,55.17,1.52s72.66-13.76,88.08-18.54c5.44-1.69,14.85-6,24.71-12.33,14.41-9.22,29.79-22.69,35.15-38.37"/><path class="cls-5" d="M438.45,287.92c1.53,20.51-14.28,23.4-15,40.29,0,.32,0,.63,0,1a207.18,207.18,0,0,1-4.45,20.55c-3.21,11.82-8.19,25.41-15.06,31a10.74,10.74,0,0,1-5.9,2.63c-17.38,1.52-24,.22-36.13,12.81S352.5,410,338.16,411.69s-45.35,11.95-53,11.51c-7.34-.42-27.78-5.09-50.09-1.31"/><path class="cls-5" d="M451.44,269.28s-5.43-3.45-5.87,2.82a8.94,8.94,0,0,0,.54,2,8.59,8.59,0,0,0,5.91,5.41s3.43.33,1.32-3.32"/><path class="cls-5" d="M454.9,284s1.29,5.58,6.36,6.09"/><path class="cls-5" d="M474.62,242.64s-8.2,7.53-10.13,9.09c-3.83,3.07-2.81,6.68-4.73,11.07s-5.8,6.41-8.32,6.48"/><path class="cls-5" d="M434.36,241.24s.4-6.71-7.51-8.35-12.39,7.4-11.23,12.6c.83,3.71,7.54,9.4,13.64,2"/><path class="cls-5" d="M446,274.13s-2.8,1.52-3.76,7.43c-.49,3.79-1.74,6.07-3.75,6.35-1.76.25-4.12-1-7.08-4.19-6.36-6.74-6.52-18.61-6.52-18.61"/><path class="cls-5" d="M424.85,265.11a29.73,29.73,0,0,1,4.51-17.55,21.65,21.65,0,0,1,3.12-3.95q1.29-1.08,2.58-2c13.11-9.43,24.92-6.25,39.09-.39l.47,1.43.61,1.88s4.85,8.23,5.35,14c.4,4.54-.94,5.43,1.44,8.05L485.4,272l-5.24,1.69.08,10.79c.48.88,2.88,8-8.84,7.35a15.34,15.34,0,0,0-3.23.26c-1.36.27-2.1,4.63-3.23,9.07-2.09,8.16-3.62,9.1-3.68,11.81,0,0,1.22,12.7,3.66,20.52a30.6,30.6,0,0,0,1.31,3.44c2.68,6.1,6.61,11.1,6.75,18.68"/><path class="cls-5" d="M403.75,380.71l.12,0c1.95.53,28,8.2,24.25,39.3"/><path class="cls-5" d="M586,458v-1.09a2.9,2.9,0,0,0-2.07-2.78l-22.11-6.61a10.36,10.36,0,0,0-1.84-.38l-21.66-2.67a3.92,3.92,0,0,1-2.34-1.15c-8-8.28-36.92-57.47-47.71-66-4.75-3.76-10.06-12.14-15.24-21.61h0c-3.64-6.66-7.2-13.85-10.45-20.35s-6.14-12.22-8.5-16.1c-8.13-13.36-21.52-4.89-21.52-4.89a20.19,20.19,0,0,0-9.07,14.37l-.06.52"/><path class="cls-5" d="M565.92,452.25l20,5.79,3.15.91a2.24,2.24,0,0,1,1,3.73,2.26,2.26,0,0,1-1.58.65h-3.64"/><path class="cls-5" d="M561.68,455.18l21.81,6a1.81,1.81,0,0,1,1.32,1.74,1.84,1.84,0,0,1,0,.41,1.79,1.79,0,0,1-1.74,1.39,1.55,1.55,0,0,1-.37,0L561,460.15l11.74,5.09a1.79,1.79,0,0,1,1,2.33l-.09.21a1.8,1.8,0,0,1-2.42,1l-13.76-6.38-17.24-.9a11.13,11.13,0,0,1-7.68-3.63c-7.77-8.5-27.85-30.42-33.07-35.38-6.52-6.19-16.78-18.24-20.69-24.92-2-3.41-7.69-9.16-13.77-15.28-5.81-5.85-12-12-15.55-16.81l-3.81-5.08-8.41-11.21"/><line class="cls-5" x1="462.53" y1="335.27" x2="466.23" y2="336.94"/><path class="cls-5" d="M418.93,349.72l5.88-1.72s11.64,12.15,20.83,12.35"/><polyline class="cls-5" points="424.81 348 423.44 328.65 423.41 328.21 423.38 327.8"/><line class="cls-5" x1="482.46" y1="394.53" x2="489.63" y2="396.05"/><path class="cls-5" d="M361.84,396.18s-13.69,3-25.63,4.81c-17.56,2.64-22.11,6.88-31.88,6.88s-25.67-7.49-57.6-2.6c0,0-11.11,1.2-20.22,1.32-4.22.07-8-.1-10.08-.72-6.52-1.95-8.49-11.45-16-3.95s-8.65,13.92-19.22,16.94c-6.95,2-7.17,5.21-7.17,5.21s-5.37-.21-7.09,2.9a2,2,0,0,0,.6,1.45,2,2,0,0,0,1.44.6h9.14s31.05-4.25,47.39-6.19c5-.59,8.68-1,9.58-.94h0"/><path class="cls-5" d="M226.53,408.12s-3.39,5.88-1,14.71h0"/><path class="cls-5" d="M192.52,431.9s-5.42,7.57-1.32,20.35v0"/></svg>