<svg id="Layer_1" data-name="Layer 1" xmlns="http://www.w3.org/2000/svg" viewBox="0 0 700 700"><defs><style>.cls-1{fill:#feae63;}.cls-2{fill:#99abcc;}.cls-3{fill:#c4e7f9;}.cls-4{fill:#392328;}.cls-5{fill:none;stroke:#000;stroke-linecap:round;stroke-linejoin:round;stroke-width:2.3px;}</style></defs><title>Yoga_poses_2020_color</title><path class="cls-1" d="M579.3,369s5.21,4.56,3.58,8.47S576.37,384.62,577,395a66.81,66.81,0,0,1-.37,12.4,5.43,5.43,0,0,1-5.89,4.74l-11.7-1.07c-4.15-.26-11.93-.4-21.07-.58l0-.76c-5.57-7.09,0-18.9,0-18.9l0-.25c15.61,1.66,18.79-1.76,21.71-4.54,3.26-3.09,7.82-9.28,10.75-10.91s2.61-6.52,2.61-6.52l-.25-7.07a1.29,1.29,0,0,1,2-1.15,8.39,8.39,0,0,1,3.14,4Z"/><path class="cls-2" d="M538,390.62l0,.25s-5.57,11.81,0,18.9l0,.76c-21.27-.41-49.89-1-57.19-3.76-10.43-3.91-16.07-3-34.75-2.61-8,.19-26.84-.34-45.72-1l-.75,0a46.67,46.67,0,0,0,.79-15,105.19,105.19,0,0,1-.55-20.23l.85.05c5.86.33,32.35,3.65,44.73,5.27s16.94,1.31,24.11,4.89a45.17,45.17,0,0,0,14.33,4.24c13.36-.33,27.37,4.23,48.22,7.49C534.24,390.17,536.22,390.43,538,390.62Z"/><path class="cls-1" d="M382.22,385.05l-1.29-9.54c-3.69,1.42-7.27-1.59-10.83-5,0,0-2.81-12.72,1.43-23.15.4-1,.81-1.87,1.24-2.7,4.14-8,9.45-9.13,9.45-9.13a41.47,41.47,0,0,1,6.09,3.07c6.51,4.2,12.38,7.46,12.05,18.54-.11,4-.36,7.38-.54,10.72a105.19,105.19,0,0,0,.55,20.23,46.67,46.67,0,0,1-.79,15A45.79,45.79,0,0,1,396,413.71a7.17,7.17,0,0,1-3.4,3.28l-1.45.67a7.17,7.17,0,0,1-8.66-2.11l-3.34-4.3s-3.26-3.83-7-9.21a98.44,98.44,0,0,1-6.76-11,48,48,0,0,1-3.18-7.45c-1.31-4.14-2.24-7.73-3-10.84-1.55-6.22-2.48-10.55-4.58-13.59l-.92-1.73a3.54,3.54,0,0,1,.16-3.61l4.07-6.21,4.6-7,1.86-10.94a2.31,2.31,0,0,1,1.25-1.68,1.72,1.72,0,0,1,.47-.19l.26,0a1,1,0,0,1,1,1l1.87-.21.32,2.79,1.28,11.25a3.66,3.66,0,0,1-.32,1.88,4.17,4.17,0,0,1-.26.46c-.64,1-1.79,2.62-3.75,5.31a13.68,13.68,0,0,0-2.28,10.42s2.49,4.55,5.79,9.9c.48.78,1,1.57,1.48,2.37A63.61,63.61,0,0,0,382.22,385.05Z"/><path class="cls-3" d="M380.93,375.51l1.29,9.54a63.61,63.61,0,0,1-10.64-12.14c-.51-.8-1-1.59-1.48-2.37C373.66,373.92,377.24,376.93,380.93,375.51Z"/><path class="cls-1" d="M370.1,331.27a125,125,0,0,1,12.12,4.29s-5.31,1.16-9.45,9.13l-2.17-.24a3.66,3.66,0,0,0,.32-1.88l-1.28-11.25Z"/><path class="cls-1" d="M370.6,344.45l2.17.24c-.43.83-.84,1.72-1.24,2.7-4.24,10.43-1.43,23.15-1.43,23.15-3.3-5.35-5.79-9.9-5.79-9.9a13.68,13.68,0,0,1,2.28-10.42c2-2.69,3.11-4.35,3.75-5.31A4.17,4.17,0,0,0,370.6,344.45Z"/><path class="cls-2" d="M372.18,402l-.92,0c-9.5-.39-16.9-.71-19.83-.84-.93,0-1.84,0-2.76,0-3.29.15-14.14.92-25.35,1.37a99.37,99.37,0,0,0,7.45-12.19h0a38.55,38.55,0,0,0,5.79-.27c8.05-.57,13.75-.8,22.4.27,0,0,5,.8,6.07.8l.38-.2A98.44,98.44,0,0,0,372.18,402Z"/><path class="cls-1" d="M368.56,321.81l.76,6.72-1.87.21a1,1,0,0,0-1-1l-.26,0a1.72,1.72,0,0,0-.47.19l0-.06L366,323a2.64,2.64,0,0,1,.92-1.82,1,1,0,0,1,.65-.24A1,1,0,0,1,368.56,321.81Z"/><path class="cls-4" d="M358.41,292.65c18.36,7.37,10.33,27.24,10.33,27.24s-.13-1.94-2.24-7.43c-3.78-9.81-17.33-9.83-17.33-9.83-21.22.15-21.9,17.89-21.9,17.89s-5.18-15.66,3.84-23.69a21.24,21.24,0,0,1,6.86-4.09c8-3,16.52-1.17,19.41-.39C358,292.53,358.41,292.65,358.41,292.65Z"/><path class="cls-1" d="M368.74,319.89l-1.18,1a1,1,0,0,0-.65.24A2.64,2.64,0,0,0,366,323l-.34,4.88,0,.06a2.31,2.31,0,0,0-1.25,1.68l-1.86,10.94-4.6,7c-3.66,3.15-9.08,3.15-9.08,3.15a17,17,0,0,1-11.3-3.65l-4.27-6.52-1.87-10.94a2.28,2.28,0,0,0-1.24-1.68l0-.06-.35-4.88a2.63,2.63,0,0,0-.91-1.82,1,1,0,0,0-1.31,0l-.4-.65s.68-17.74,21.9-17.89c0,0,13.55,0,17.33,9.83C368.61,318,368.74,319.89,368.74,319.89Zm-11.36,5.43a2.32,2.32,0,1,0-2-2.28A2.17,2.17,0,0,0,357.38,325.32Zm-18.12-.25a2.32,2.32,0,1,0-2-2.28A2.16,2.16,0,0,0,339.26,325.07Z"/><path class="cls-3" d="M365.42,391l-.38.2c-1.06,0-6.07-.8-6.07-.8-8.65-1.07-14.35-.84-22.4-.27a38.55,38.55,0,0,1-5.79.27h0a46.16,46.16,0,0,0,2.87-6.85c1.27-4,2.17-7.49,2.93-10.54,0,0,12.43,4.66,21.44,0l1.23-.3c.76,3.11,1.69,6.7,3,10.84A48,48,0,0,0,365.42,391Z"/><path class="cls-1" d="M359.24,372.71,358,373c-9,4.66-21.44,0-21.44,0,1.59-6.38,2.51-10.8,4.66-13.89l.92-1.73a3.54,3.54,0,0,0-.16-3.61l-4.4-6.71a17,17,0,0,0,11.3,3.65s5.42,0,9.08-3.15l-4.07,6.21a3.54,3.54,0,0,0-.16,3.61l.92,1.73C356.76,362.16,357.69,366.49,359.24,372.71Z"/><path d="M359.35,323a2,2,0,1,1-2-2.28A2.17,2.17,0,0,1,359.35,323Z"/><path class="cls-4" d="M358.5,292.33l-1.12,0c-2.89-.78-11.41-2.6-19.41.39l-.16-.41c0-5.35,4.64-9.7,10.35-9.7S358.5,287,358.5,292.33Z"/><path class="cls-1" d="M328.45,328.53a1,1,0,0,1,1-.82,1.15,1.15,0,0,1,.26,0,1.66,1.66,0,0,1,.48.19,2.28,2.28,0,0,1,1.24,1.68l1.87,10.94,4.27,6.52,4.4,6.71a3.54,3.54,0,0,1,.16,3.61l-.92,1.73c-2.15,3.09-3.07,7.51-4.66,13.89-.76,3.05-1.66,6.54-2.93,10.54a46.16,46.16,0,0,1-2.87,6.85,99.37,99.37,0,0,1-7.45,12.19c-3.58,5.09-6.62,8.66-6.62,8.66l-3.35,4.3a7.16,7.16,0,0,1-8.66,2.11l-1.44-.67a7.17,7.17,0,0,1-3.4-3.28,45.73,45.73,0,0,1-3.47-10.24,46.37,46.37,0,0,1-.87-15.35,104,104,0,0,0,.58-19.77c-.19-3.49-.44-7-.57-11.18-.32-11.08,5.54-14.34,12.06-18.54a41.32,41.32,0,0,1,6.08-3.07s5.68,1.24,9.88,10c.28.58.56,1.2.82,1.85,4.23,10.43,1.43,23.15,1.43,23.15-3.69,2.91-7.31,4.63-10.83,5l-1.3,9.55a64,64,0,0,0,10.64-12.15c.51-.8,1-1.59,1.49-2.37,3.3-5.35,5.79-9.9,5.79-9.9a13.73,13.73,0,0,0-2.28-10.42c-2-2.69-3.12-4.35-3.76-5.31a3.57,3.57,0,0,1-.57-2.34l1.28-11.25.34-3Z"/><path d="M341.23,322.76a2,2,0,1,1-2-2.28A2.16,2.16,0,0,1,341.23,322.76Z"/><path class="cls-1" d="M329.3,350.22a13.73,13.73,0,0,1,2.28,10.42s-2.49,4.55-5.79,9.9c0,0,2.8-12.72-1.43-23.15-.26-.65-.54-1.27-.82-1.85l2-.63C326.18,345.87,327.33,347.53,329.3,350.22Z"/><path class="cls-1" d="M329.89,323l.35,4.88,0,.06a1.66,1.66,0,0,0-.48-.19,1.15,1.15,0,0,0-.26,0,1,1,0,0,0-1,.82l-1.86-.21.74-6.51a1,1,0,0,1,.34-.64,1,1,0,0,1,1.31,0A2.63,2.63,0,0,1,329.89,323Z"/><path class="cls-1" d="M326.25,331.32,325,342.57a3.57,3.57,0,0,0,.57,2.34l-2,.63c-4.2-8.74-9.88-10-9.88-10a127.83,127.83,0,0,1,12.13-4.29Z"/><path class="cls-3" d="M325.79,370.54c-.48.78-1,1.57-1.49,2.37a64,64,0,0,1-10.64,12.15l1.3-9.55C318.48,375.17,322.1,373.45,325.79,370.54Z"/><path class="cls-2" d="M296.09,368.35a104,104,0,0,1-.58,19.77,46.37,46.37,0,0,0,.87,15.35c-17.28.59-35,.87-42.33.69-18.68-.43-24.33-1.3-34.75,2.61-7.3,2.73-35.91,3.35-57.19,3.76l0-.76c5.56-7.09,0-18.9,0-18.9l0-.25c1.82-.19,3.8-.45,6-.79,20.85-3.26,34.86-7.82,48.22-7.49a45.17,45.17,0,0,0,14.33-4.24c7.17-3.58,11.73-3.26,24.11-4.89S290.23,368.67,296.09,368.35Z"/><path class="cls-1" d="M162.09,390.87s5.56,11.81,0,18.9l0,.76c-9.14.18-16.93.32-21.08.58l-11.69,1.07a5.43,5.43,0,0,1-5.89-4.74,66.81,66.81,0,0,1-.37-12.4c.65-10.42-4.23-13.68-5.86-17.59S120.8,369,120.8,369l1.3-4.56a8.45,8.45,0,0,1,3.15-4,1.29,1.29,0,0,1,2,1.15l-.25,7.07s-.32,4.89,2.61,6.52,7.49,7.82,10.75,10.91c2.92,2.78,6.1,6.2,21.71,4.54Z"/><path class="cls-5" d="M337.81,292.33c0-5.35,4.64-9.7,10.35-9.7s10.34,4.35,10.34,9.7"/><path class="cls-5" d="M327.27,320.52s.68-17.74,21.9-17.89c0,0,13.55,0,17.33,9.83,2.11,5.49,2.24,7.43,2.24,7.43s8-19.87-10.33-27.24c0,0-.37-.12-1-.3-2.89-.78-11.41-2.6-19.41.39a21.24,21.24,0,0,0-6.86,4.09C322.09,304.86,327.27,320.52,327.27,320.52Z"/><path class="cls-5" d="M349.87,330.72a4.32,4.32,0,0,1-4.44-.13"/><polyline class="cls-5" points="343.14 338.14 344.08 338.52 347.04 337.65 348.15 338.33 349.38 337.68 352.03 338.63 352.89 338.4"/><line class="cls-5" x1="346.96" y1="343.07" x2="349.52" y2="343.11"/><path class="cls-5" d="M162.09,390.87s5.56,11.81,0,18.9"/><path class="cls-5" d="M296.38,403.47c-17.28.59-35,.87-42.33.69-18.68-.43-24.33-1.3-34.75,2.61-7.3,2.73-35.91,3.35-57.19,3.76-9.14.18-16.93.32-21.08.58l-11.69,1.07a5.43,5.43,0,0,1-5.89-4.74,66.81,66.81,0,0,1-.37-12.4c.65-10.42-4.23-13.68-5.86-17.59S120.8,369,120.8,369l1.3-4.56a8.45,8.45,0,0,1,3.15-4,1.29,1.29,0,0,1,2,1.15l-.25,7.07s-.32,4.89,2.61,6.52,7.49,7.82,10.75,10.91c2.92,2.78,6.1,6.2,21.71,4.54,1.82-.19,3.8-.45,6-.79,20.85-3.26,34.86-7.82,48.22-7.49a45.17,45.17,0,0,0,14.33-4.24c7.17-3.58,11.73-3.26,24.11-4.89s35.53-4.54,41.39-4.86"/><path class="cls-5" d="M371.26,402.06c-9.5-.39-16.9-.71-19.83-.84-.93,0-1.84,0-2.76,0-3.29.15-14.14.92-25.35,1.37"/><path class="cls-5" d="M400.67,367.94c5.86.33,32.35,3.65,44.73,5.27s16.94,1.31,24.11,4.89a45.17,45.17,0,0,0,14.33,4.24c13.36-.33,27.37,4.23,48.22,7.49,2.18.34,4.16.6,6,.79,15.61,1.66,18.79-1.76,21.71-4.54,3.26-3.09,7.82-9.28,10.75-10.91s2.61-6.52,2.61-6.52l-.25-7.07a1.29,1.29,0,0,1,2-1.15,8.39,8.39,0,0,1,3.14,4L579.3,369s5.21,4.56,3.58,8.47S576.37,384.62,577,395a66.81,66.81,0,0,1-.37,12.4,5.43,5.43,0,0,1-5.89,4.74l-11.7-1.07c-4.15-.26-11.93-.4-21.07-.58-21.27-.41-49.89-1-57.19-3.76-10.43-3.91-16.07-3-34.75-2.61-8,.19-26.84-.34-45.72-1"/><path class="cls-5" d="M538,390.87s-5.57,11.81,0,18.9"/><path class="cls-5" d="M325.79,331.27a127.83,127.83,0,0,0-12.13,4.29,41.32,41.32,0,0,0-6.08,3.07c-6.52,4.2-12.38,7.46-12.06,18.54.13,4.17.38,7.69.57,11.18a104,104,0,0,1-.58,19.77,46.37,46.37,0,0,0,.87,15.35,45.73,45.73,0,0,0,3.47,10.24,7.17,7.17,0,0,0,3.4,3.28l1.44.67a7.16,7.16,0,0,0,8.66-2.11l3.35-4.3s3-3.57,6.62-8.66a99.37,99.37,0,0,0,7.45-12.19,46.16,46.16,0,0,0,2.87-6.85c1.27-4,2.17-7.49,2.93-10.54,1.59-6.38,2.51-10.8,4.66-13.89l.92-1.73a3.54,3.54,0,0,0-.16-3.61l-4.4-6.71-4.27-6.52-1.87-10.94a2.28,2.28,0,0,0-1.24-1.68,1.66,1.66,0,0,0-.48-.19,1.15,1.15,0,0,0-.26,0,1,1,0,0,0-1,.82,1.58,1.58,0,0,0,0,.31l1.13,11.55"/><path class="cls-5" d="M330.24,327.87l-.35-4.88a2.63,2.63,0,0,0-.91-1.82,1,1,0,0,0-1.31,0,1,1,0,0,0-.34.64l-.74,6.51-.34,3L325,342.57a3.57,3.57,0,0,0,.57,2.34c.64,1,1.79,2.62,3.76,5.31a13.73,13.73,0,0,1,2.28,10.42s-2.49,4.55-5.79,9.9c-.48.78-1,1.57-1.49,2.37a64,64,0,0,1-10.64,12.15,34.38,34.38,0,0,1-6.3,4.68c-4.89,2.61-6.84,9.13-6.84,9.13"/><path class="cls-5" d="M330.78,390.4a38.55,38.55,0,0,0,5.79-.27c8.05-.57,13.75-.8,22.4.27,0,0,5,.8,6.07.8"/><path class="cls-5" d="M313.66,385.06l1.3-9.55.23-1.73s3.71-8.88,3.7-14.5c-.41-8.14-7.4-11.89-7.4-11.89"/><path class="cls-5" d="M315,375.51c3.52-.34,7.14-2.06,10.83-5,0,0,2.8-12.72-1.43-23.15-.26-.65-.54-1.27-.82-1.85-4.2-8.74-9.88-10-9.88-10"/><path class="cls-5" d="M370.1,331.27a125,125,0,0,1,12.12,4.29,41.47,41.47,0,0,1,6.09,3.07c6.51,4.2,12.38,7.46,12.05,18.54-.11,4-.36,7.38-.54,10.72a105.19,105.19,0,0,0,.55,20.23,46.67,46.67,0,0,1-.79,15A45.79,45.79,0,0,1,396,413.71a7.17,7.17,0,0,1-3.4,3.28l-1.45.67a7.17,7.17,0,0,1-8.66-2.11l-3.34-4.3s-3.26-3.83-7-9.21a98.44,98.44,0,0,1-6.76-11,48,48,0,0,1-3.18-7.45c-1.31-4.14-2.24-7.73-3-10.84-1.55-6.22-2.48-10.55-4.58-13.59l-.92-1.73a3.54,3.54,0,0,1,.16-3.61l4.07-6.21,4.6-7,1.86-10.94a2.31,2.31,0,0,1,1.25-1.68,1.72,1.72,0,0,1,.47-.19l.26,0a1,1,0,0,1,1,1s0,.07,0,.1l-1.12,11.55"/><path class="cls-5" d="M382.22,385.06a35.34,35.34,0,0,0,6.3,4.68c4.89,2.61,6.85,9.13,6.85,9.13"/><path class="cls-5" d="M365.65,327.87,366,323a2.64,2.64,0,0,1,.92-1.82,1,1,0,0,1,.65-.24,1,1,0,0,1,1,.88l.76,6.72.32,2.79,1.28,11.25a3.66,3.66,0,0,1-.32,1.88,4.17,4.17,0,0,1-.26.46c-.64,1-1.79,2.62-3.75,5.31a13.68,13.68,0,0,0-2.28,10.42s2.49,4.55,5.79,9.9c.48.78,1,1.57,1.48,2.37a63.61,63.61,0,0,0,10.64,12.14"/><path class="cls-5" d="M382.22,385.06h0l-1.29-9.54-.23-1.73s-3.71-9.21-3.71-14.5c.42-8.14,7.41-11.89,7.41-11.89"/><path class="cls-5" d="M380.93,375.51c-3.69,1.42-7.27-1.59-10.83-5,0,0-2.81-12.72,1.43-23.15.4-1,.81-1.87,1.24-2.7,4.14-8,9.45-9.13,9.45-9.13"/><path class="cls-5" d="M336.57,373S349,377.67,358,373"/><path class="cls-5" d="M337.59,347.07a17,17,0,0,0,11.3,3.65s5.42,0,9.08-3.15"/></svg>