<svg id="Layer_1" data-name="Layer 1" xmlns="http://www.w3.org/2000/svg" viewBox="0 0 700 700"><defs><style>.cls-1{fill:#feae63;}.cls-2{fill:#99abcc;}.cls-3{fill:#392328;}.cls-4{fill:#c4e7f9;}.cls-5{fill:none;stroke:#000;stroke-linecap:round;stroke-linejoin:round;stroke-width:2.3px;}</style></defs><title>Yoga_poses_2020_color</title><path class="cls-1" d="M481.37,400.15a3.39,3.39,0,0,1-.78,2.89h0a2.32,2.32,0,0,0-1-.28c-1.91-.13-4.05,1.94-5,3l-1.75-1.65,2.4-3.15a1.78,1.78,0,0,1,.91-.63l2.3-.71,1.12-.35A1.43,1.43,0,0,1,481.37,400.15Z"/><path class="cls-1" d="M479.89,407.35s2.86,1.06-.32,4.06a1.61,1.61,0,0,1,1,.45c.22,2.39-1.95,3.69-1.95,6.52S471,431.63,471,431.63l-1.11.79-9.47-4.81s-4.08-3.42-7-3.91l-2.5-1.3a24,24,0,0,0,2.53-2.24h0c5.1-5,14.81-15.81,16.58-17.75a45.15,45.15,0,0,0,5-7.23,1.63,1.63,0,0,1,2.35-.54c1.24.88,2,2.68,1,4.94l-2.3.71a1.78,1.78,0,0,0-.91.63l-2.4,3.15,1.75,1.65c.93-1,3.07-3.08,5-3a2.32,2.32,0,0,1,1,.28C482,403.8,481.53,405.94,479.89,407.35Z"/><path class="cls-1" d="M339.36,337.07c8,3.88,13.33,11.62,15.46,15.61,2.82,5.32,6.19,9.12,13.35,13.9s11.95,13.35,18.46,16.29,20.42,11.16,24.93,15.58c7.82,7.66,26.33,18.95,26.33,18.95s5.76,2.28,7.17,2.28,8.06.46,8.39.48a24,24,0,0,1-2.53,2.24l2.5,1.3c2.93.49,7,3.91,7,3.91l9.47,4.81a1.94,1.94,0,0,1,1.07,1.75,1.94,1.94,0,0,1-2.9,1.7l-9.09-5a.84.84,0,0,0-1.19.43l0,.05a.84.84,0,0,0,.37,1.05l11.29,6.27a1.91,1.91,0,0,1,1,1.69,1.92,1.92,0,0,1-2.73,1.76l-12.54-6.22a1.16,1.16,0,0,0-.48-.11,1.07,1.07,0,0,0-.86,1.71l7.14,9.67a1.16,1.16,0,0,1,.23.71,1.2,1.2,0,0,1-.35.85,1.17,1.17,0,0,1-.85.36,1.21,1.21,0,0,1-.89-.4l-8.86-9.85a.84.84,0,0,0-.63-.28.81.81,0,0,0-.55.2.86.86,0,0,0-.2,1l4.1,7.65a1,1,0,0,1,.13.5,1,1,0,0,1-.51.89,1,1,0,0,1-.53.14,1,1,0,0,1-.81-.39L445,440.68a4.21,4.21,0,0,0-.71-.69c-1.44-1.06-6.29-4.65-7.49-5.28a9.26,9.26,0,0,1-2.23-2.48,19.82,19.82,0,0,0-3.28-3.93c-4.59-3.32-22.13-10.79-30.6-15.35s-14.11-9.67-20.63-13.47S375.67,393,361.66,386c-7.44-3.69-18.74-11.33-27.7-17.68L329.31,365c-7.92,1.57-17.72-2.22-17.72-2.22-24.68-11-17.15-30.63-17.15-30.63a121.68,121.68,0,0,1,13-11c17.94-12.4,27.2,3.8,30.5,11.84v0a38.62,38.62,0,0,1,1.42,4Z"/><path class="cls-1" d="M469.72,441.83c.35,9.92-1.72,10.68-10,9.78l.28-2.55a1.17,1.17,0,0,0,.85-.36,1.2,1.2,0,0,0,.35-.85,1.16,1.16,0,0,0-.23-.71l-7.14-9.67a1.07,1.07,0,0,1,.86-1.71,1.16,1.16,0,0,1,.48.11l12.54,6.22A2,2,0,0,0,469.72,441.83Z"/><path class="cls-1" d="M460,449.06l-.28,2.55c-2.16-.24-4.75-.58-7.84-.91L452,449a1,1,0,0,0,.53-.14,1,1,0,0,0,.51-.89,1,1,0,0,0-.13-.5l-4.1-7.65a.86.86,0,0,1,.2-1,.81.81,0,0,1,.55-.2.84.84,0,0,1,.63.28l8.86,9.85A1.21,1.21,0,0,0,460,449.06Z"/><path class="cls-1" d="M452,449l-.18,1.75-.56-.06c-7.25-.74-17.22-.17-28.13.72l-.05-.62a40.31,40.31,0,0,0-1.63-17.83v0c7,.12,12.38-.17,12.38-.17l.65-.48a9.26,9.26,0,0,0,2.23,2.48c1.2.63,6.05,4.22,7.49,5.28a4.21,4.21,0,0,1,.71.69l6.28,7.88A1,1,0,0,0,452,449Z"/><path class="cls-2" d="M269,412.51a141.65,141.65,0,0,1,27.37,2.39c15.64,2.83,23.46,5,37.14,6.3s25,5.65,30.84,6.52,42.57,4.56,51.91,5c1.79.09,3.55.14,5.21.17v0a40.31,40.31,0,0,1,1.63,17.83l.05.62c-12.22,1-25.62,2.41-37.7,2.83-22.87.79-44.55-5.52-52-5.52s-38.24,4.34-72.53,5.92-39.82-11.44-42.18-26.81c-1.5-9.72,3.15-20.23,9.27-30.33,8.16-3.77,47.88,11.91,47.88,11.91l.43.49A55.83,55.83,0,0,1,269,412.51Z"/><path class="cls-1" d="M337.06,287.87a8.15,8.15,0,0,1-.22-1.9c1.31-5.74,5.84-1.77,5.84-1.77,2.34.3,6.23-1,8.63-4.81s2-7.27,5.95-9.57c2-1.16,10.66-7,10.66-7l.3,1.83s3.32,8.3,3,13.72c-.28,4.26-1.65,4.89.18,7.64l2.35,5.52-5.09.82-1.47,10c.32.88,1.52,7.85-9.22,5.53,0,0-6.52-.39-6.71.95A80.94,80.94,0,0,1,341,322.55a11.39,11.39,0,0,0-3.07,10.27l0,.14c-3.3-8-12.56-24.24-30.5-11.84a121.68,121.68,0,0,0-13,11L289.21,330l-.16-.19c2.22-1.94,4.29-3.72,6.14-5.28,14.88-12.55,27.48-16.89,27.48-16.89a12.72,12.72,0,0,0,8.7-9.41,13.08,13.08,0,0,0,.22-2.85c-.14-4.36,5.33-7.45,5.33-7.45Zm29.79-5.09c.17-1.42-.2-2.64-.82-2.71s-1.25,1-1.42,2.45.2,2.65.82,2.72S366.69,284.21,366.85,282.78Z"/><path class="cls-3" d="M367.7,261.47l.22,1.39s-8.65,5.8-10.66,7c-4,2.3-3.56,5.78-5.95,9.57s-6.29,5.11-8.63,4.81c0,0-4.53-4-5.84,1.77a8.15,8.15,0,0,0,.22,1.9l-.14,0s-5.47,3.09-5.33,7.45a13.08,13.08,0,0,1-.22,2.85c-1.36,4.31-5.41,2.67-9.33-3.5-4.64-7.34-3.37-18.16-3.37-18.16A27.83,27.83,0,0,1,325.34,261a19.79,19.79,0,0,1,3.46-3.21c.71-.43,1.41-.83,2.1-1.19C344.65,249.27,355.26,253.92,367.7,261.47Z"/><path d="M366,280.07c.62.07,1,1.29.82,2.71s-.8,2.53-1.42,2.46-1-1.29-.82-2.72S365.41,280,366,280.07Z"/><path class="cls-4" d="M334,368.34l-.21.3s-.22,9.77-15.86,16.72-8.25,9.34-26.5,17.81c-6.84,3.17-11.69,5.28-15.09,6.68l-.43-.49S236.15,393.68,228,397.45c3.55-5.87,7.61-11.61,11.23-17,8.68-12.85,33.43-36.31,49.83-50.7l.16.19,5.23,2.18s-7.53,19.64,17.15,30.63c0,0,9.8,3.79,17.72,2.22Z"/><path class="cls-3" d="M330.88,255.81l0,.75c-.69.36-1.39.76-2.1,1.19a19.79,19.79,0,0,0-3.46,3.21l-.07-.06c-6.7,6-12.1-.27-12.33-3.83-.34-5,5.1-12.69,12.18-10S330.88,255.81,330.88,255.81Z"/><path class="cls-5" d="M342.68,284.2s-4.53-4-5.84,1.77a8.15,8.15,0,0,0,.22,1.9,8,8,0,0,0,4.7,5.84s3.12.81,1.7-2.88"/><path class="cls-5" d="M343.77,298.31s.4,5.34,5,6.53"/><path class="cls-5" d="M367.92,262.86s-8.65,5.8-10.66,7c-4,2.3-3.56,5.78-5.95,9.57s-6.29,5.11-8.63,4.81"/><path class="cls-5" d="M331.6,297.29a7.1,7.1,0,0,1-.23.91c-1.36,4.31-5.41,2.67-9.33-3.5-4.64-7.34-3.37-18.16-3.37-18.16"/><path class="cls-5" d="M330.88,255.81s1.33-6.14-5.76-8.79-12.52,5.08-12.18,10c.23,3.56,5.63,9.78,12.33,3.83"/><path class="cls-5" d="M318.67,276.54A27.83,27.83,0,0,1,325.34,261a19.79,19.79,0,0,1,3.46-3.21c.71-.43,1.41-.83,2.1-1.19,13.75-7.29,24.36-2.64,36.8,4.91l.22,1.39.3,1.83s3.32,8.3,3,13.72c-.28,4.26-1.65,4.89.18,7.64l2.35,5.52-5.09.82-1.47,10c.32.88,1.52,7.85-9.22,5.53,0,0-6.52-.39-6.71.95A80.94,80.94,0,0,1,341,322.55a11.39,11.39,0,0,0-3.07,10.27l0,.14"/><path class="cls-5" d="M336.92,287.9s-5.47,3.09-5.33,7.45a13.08,13.08,0,0,1-.22,2.85,12.72,12.72,0,0,1-8.7,9.41s-12.6,4.34-27.48,16.89c-1.85,1.56-3.92,3.34-6.14,5.28-16.4,14.39-41.15,37.85-49.83,50.7-3.62,5.36-7.68,11.1-11.23,17-6.12,10.1-10.77,20.61-9.27,30.33,2.36,15.37,7.88,28.38,42.18,26.81s65-5.92,72.53-5.92,29.17,6.31,52,5.52c12.08-.42,25.48-1.82,37.7-2.83,10.91-.89,20.88-1.46,28.13-.72l.56.06c3.09.33,5.68.67,7.84.91,8.3.9,10.37.14,10-9.78"/><path class="cls-5" d="M472.84,404.07l2.4-3.15a1.78,1.78,0,0,1,.91-.63l2.3-.71,1.12-.35a1.43,1.43,0,0,1,1.8.92,3.39,3.39,0,0,1-.78,2.89"/><path class="cls-5" d="M475.25,413.76c1.6-1.36,3.13-2.45,4.32-2.35a1.61,1.61,0,0,1,1,.45c.22,2.39-1.95,3.69-1.95,6.52S471,431.63,471,431.63"/><path class="cls-5" d="M474.52,409.85s2.44-2.58,5.37-2.5c0,0,2.86,1.06-.32,4.06"/><path class="cls-5" d="M474.11,406.27s.17-.22.48-.55c.93-1,3.07-3.08,5-3a2.32,2.32,0,0,1,1,.28c1.38.75.94,2.89-.7,4.3"/><path class="cls-5" d="M453.45,420.16c-.33,0-7-.48-8.39-.48s-7.17-2.28-7.17-2.28-18.51-11.29-26.33-18.95c-4.51-4.42-18.41-12.65-24.93-15.58s-11.29-11.51-18.46-16.29-10.53-8.58-13.35-13.9c-2.13-4-7.43-11.73-15.46-15.61a22.81,22.81,0,0,0-8.87-2.31"/><path class="cls-5" d="M320,358.11s3.82,2.89,9.35,6.89l4.65,3.34c9,6.35,20.26,14,27.7,17.68,14,7,11.83,9.66,18.35,13.46s12.16,8.91,20.63,13.47,26,12,30.6,15.35a19.82,19.82,0,0,1,3.28,3.93,9.26,9.26,0,0,0,2.23,2.48c1.2.63,6.05,4.22,7.49,5.28a4.21,4.21,0,0,1,.71.69l6.28,7.88a1,1,0,0,0,.81.39,1,1,0,0,0,.53-.14,1,1,0,0,0,.51-.89,1,1,0,0,0-.13-.5l-4.1-7.65a.86.86,0,0,1,.2-1,.81.81,0,0,1,.55-.2.84.84,0,0,1,.63.28l8.86,9.85a1.21,1.21,0,0,0,.89.4,1.17,1.17,0,0,0,.85-.36,1.2,1.2,0,0,0,.35-.85,1.16,1.16,0,0,0-.23-.71l-7.14-9.67a1.07,1.07,0,0,1,.86-1.71,1.16,1.16,0,0,1,.48.11l12.54,6.22a2,2,0,0,0,2-.26,1.91,1.91,0,0,0,.7-1.5,1.91,1.91,0,0,0-1-1.69l-11.29-6.27a.84.84,0,0,1-.37-1.05l0-.05a.84.84,0,0,1,1.19-.43l9.09,5a1.94,1.94,0,0,0,2.9-1.7,1.94,1.94,0,0,0-1.07-1.75l-9.47-4.81s-4.08-3.42-7-3.91l-2.5-1.3a24,24,0,0,0,2.53-2.24h0c5.1-5,14.81-15.81,16.58-17.75a45.15,45.15,0,0,0,5-7.23,1.63,1.63,0,0,1,2.35-.54c1.24.88,2,2.68,1,4.94"/><path class="cls-5" d="M339.39,337a38.62,38.62,0,0,0-1.42-4v0c-3.3-8-12.56-24.24-30.5-11.84a121.68,121.68,0,0,0-13,11L289.21,330"/><path class="cls-5" d="M294.44,332.15s-7.53,19.64,17.15,30.63c0,0,9.8,3.79,17.72,2.22"/><path class="cls-5" d="M333.75,368.64s-.22,9.77-15.86,16.72-8.25,9.34-26.5,17.81c-6.84,3.17-11.69,5.28-15.09,6.68a55.83,55.83,0,0,1-7.28,2.66"/><path class="cls-5" d="M433.87,432.71s-5.38.29-12.38.17c-1.66,0-3.42-.08-5.21-.17-9.34-.43-46-4.12-51.91-5s-17.16-5.22-30.84-6.52-21.5-3.47-37.14-6.3A141.65,141.65,0,0,0,269,412.51s-4.77-.43-11.51,5.43"/><path class="cls-5" d="M275.87,409.36S236.15,393.68,228,397.45"/><path class="cls-5" d="M421.49,432.91a40.31,40.31,0,0,1,1.63,17.83"/></svg>