<svg id="Layer_1" data-name="Layer 1" xmlns="http://www.w3.org/2000/svg" viewBox="0 0 700 700"><defs><style>.cls-1{fill:#feae63;}.cls-2{fill:#99abcc;}.cls-3{fill:#c4e7f9;}.cls-4{fill:#392328;}.cls-5{fill:none;stroke:#000;stroke-linecap:round;stroke-linejoin:round;stroke-width:2.3px;}</style></defs><title>Yoga_poses_2020_color</title><path class="cls-1" d="M514.76,447c1,5,3.2,10.8,2.27,17.38a5.27,5.27,0,0,1-5.58,4.46c-6.92-.45-20.43-1.31-25.36-1.47-1.12,0-3.35,0-6.3,0a30.79,30.79,0,0,0,0-17.62c5.64.05,10.09-.56,12.39-2,5.21-3.26,7.6-12.08,10.86-18.38s0-10.64,0-10.64l-2.71-4.35a1.53,1.53,0,0,1,.78-2.25l.13,0a4.13,4.13,0,0,1,5,1.81L508,417s7.39,2.61,7.6,9.67S513.46,440.67,514.76,447Z"/><path class="cls-2" d="M479.79,449.71a30.79,30.79,0,0,1,0,17.62c-14.75.11-47.74.73-53,0-6.3-.86-21.07-7.6-27.15-7.38s-25.41.22-25.41.22A100.34,100.34,0,0,0,353.82,463c-10,2.61-51.88.79-51.88.79,6.65-8.23,17.75-27.6,25.12-43,0,0,17.11,3.68,28.27,5.85,3.56.68,6.51,1.22,8.11,1.43,4.24.56,12-.05,19.25.4,4.1.24,8,.83,11,2.17a69.38,69.38,0,0,0,9.26,3.87c3.26.87,5,2.6,11.08,3.91s24.54,5,40.61,8.25A140,140,0,0,0,479.79,449.71Z"/><path class="cls-2" d="M279.77,409.84h0c4.33-5.2,10.07-11.46,17.65-19,6.47-6.46,14.29-13.89,23.73-22.44l.62-.54A140,140,0,0,0,332,380c2.15,2.28,5.08,2,7.69,2.93s4.88.33,7.49-2.6,4.56-4.56,4.23-12.71c0-1-.16-2.31-.34-3.91h0s3.92,3.91,15,29.65c0,0,11.73,27.73,16.62,34.72l0,.4c-7.21-.45-15,.16-19.25-.4-1.6-.21-4.55-.75-8.11-1.43v-.06c-18.24-15.64-19.83-25.85-19.83-25.85-.94,2.44-2.09,5.38-3.49,8.91-1.29,3.24-3,7.05-5,11.15-7.37,15.36-18.47,34.73-25.12,43a28.18,28.18,0,0,1-2.31,2.58c-7.49,7.16-14.66,10.1-37.39,9.44S241,429.55,239.69,418.48c-.11-1-.26-2.19-.45-3.68l.85-.1S264.36,409.67,279.77,409.84Z"/><path class="cls-1" d="M331.2,269.48c0-.33.17-4.4,2.05-4.3s2.11,1.38,2.43,6.42-.06,11.12,1.24,11.25,1.1-2,1.16-9,1.73-6.42,1.73-6.42,1.65-.08,1.64,3.79.12,6.74-.08,10.45.79,5.32,1.35,3.46,1.85-12,3.88-11.94,1.41,2.79,1.12,4.46-1.64,6.63-1.75,8.09-.31,9.56-1.52,15.31-.55,7.75-.18,12.16a69.32,69.32,0,0,0,.51,10.43c.39,2.55,5,28.37,6.31,40.07.18,1.6.3,2.93.34,3.91.33,8.15-1.62,9.78-4.23,12.71s-4.89,3.58-7.49,2.6-5.54-.65-7.69-2.93a140,140,0,0,1-10.24-12.2c-.61-.87-1.16-1.69-1.62-2.46-2.93-4.89-8.8-23.72-8.8-23.72l-5.94,8.79h0a15.76,15.76,0,0,0-.59-4.67l-4.54-15.89s1.05-17.94,4.44-20.38h0c9.13,2.24,17.61,5.49,21.85,15.37L331.71,336c-.37-8.19-.9-15.82-.9-15.82-.91-8.39-2-10.8-7.41-17a7.33,7.33,0,0,1-1.86-4.43c-.12-2.66-.54-4-.85-6.67s-1.58-8.86.37-9,2.57,1.92,3,4.92a59.45,59.45,0,0,0,1.21,6,10.84,10.84,0,0,0,2.6-4c.55-2.14-.34-15.72.23-19.42s2.28-4,2.69-3.61A6.56,6.56,0,0,1,331.2,269.48Z"/><path class="cls-3" d="M304.82,345.77a15.76,15.76,0,0,1,.59,4.67,15.49,15.49,0,0,1-.79,4.56c-1.92,5.78-5.08,15.5-6,19.49-1.31,5.87-1.63,15.92-1.63,15.92l.4.4c-7.58,7.57-13.32,13.83-17.65,19h0c-15.41-.17-39.68,4.86-39.68,4.86l-.85.1c-.77-6.07-2.12-16.23-3.49-26.85h0c-2.23-17.3-4.53-35.84-4.53-40a12.1,12.1,0,0,1,.92-4.22c2.64-6.89,10.08-14.86,10.08-14.86s42.1,28,58.06,1Z"/><path class="cls-1" d="M273.61,267.79l.15,0s4.84,1.88,4.67,6.24c0,0-1,4.43.29,7.19,1.18,2.48,2.32,2.9,3.6,2l.6,0s-1.42,20.64,11.17,23.78c3.5.87,7.12,1.58,10.63,2.44h0c-3.39,2.44-4.44,20.38-4.44,20.38-16,27-58.06-1-58.06-1L238,307.32c2.09-.12,4.05-.22,5.68-.48,3.76-.61,8.17-2.59,11.32-4.21a8.26,8.26,0,0,0,4.46-6.78l.46-6.77c-.21-1.33-6.72-.81-6.72-.81-10.69,2.55-9.64-4.44-9.34-5.33l-1.68-10-5.11-.71,2.23-5.56c1.77-2.8.39-3.4,0-7.65-.47-5.41,2.67-13.78,2.67-13.78l.25-1.83s8.78,5.61,10.82,6.73c4,2.21,3.67,5.7,6.15,9.44s6.4,5,8.73,4.62c0,0,4.44-4.06,5.87,1.65A8.68,8.68,0,0,1,273.61,267.79Zm-28.42-2c.62-.09,1-1.31.77-2.74s-.86-2.51-1.48-2.42-1,1.31-.76,2.73S244.58,265.84,245.19,265.76Z"/><path class="cls-4" d="M284.68,226.69c7-2.8,12.62,4.81,12.4,9.79-.16,3.55-5.43,9.89-12.25,4.09l-.08.07a19.66,19.66,0,0,0-3.52-3.15c-.82-.47-1.62-.9-2.41-1.29l.29-.6S277.65,229.48,284.68,226.69Z"/><path class="cls-4" d="M291.76,256.07s1.78,11-3,18.22c-2.74,4.17-4.73,7.76-6.45,9-1.28.89-2.42.47-3.6-2-1.32-2.76-.29-7.19-.29-7.19.17-4.36-4.67-6.24-4.67-6.24l-.15,0a8.68,8.68,0,0,0,.18-1.91c-1.43-5.71-5.87-1.65-5.87-1.65-2.33.35-6.25-.89-8.73-4.62s-2.13-7.23-6.15-9.44c-2-1.12-10.82-6.73-10.82-6.73l.2-1.4c12.2-7.76,22.63-12.62,36.4-5.84.79.39,1.59.82,2.41,1.29a19.66,19.66,0,0,1,3.52,3.15A27.7,27.7,0,0,1,291.76,256.07Z"/><path d="M246,263c.19,1.43-.15,2.65-.77,2.74s-1.27-1-1.47-2.43.15-2.65.76-2.73S245.76,261.6,246,263Z"/><path class="cls-1" d="M232.14,343.74a12.1,12.1,0,0,0-.92,4.22c0,4.14,2.3,22.68,4.53,40h0c0,9.36-13.11,58.76-13.11,58.76l-1.85,7.14a15.14,15.14,0,0,1-3.56,6.14,11.3,11.3,0,0,1-4.87,3l-3.06,4.45a2.28,2.28,0,0,1-1.76.82,2.15,2.15,0,0,1-.71-.11,2.28,2.28,0,0,1-1.34-3.14l1-1.77L206,463H183.83a1.63,1.63,0,0,1-.25-3.25l18.86-2.58a6.46,6.46,0,0,0,4.59-3.12l5-8.48a9.45,9.45,0,0,0,1.2-3.37c1.85-12.11,2-46.9,2-53.05,0-6.51,3.48-8.9,3.7-20.85s.43-19.76-.87-26.49-1.52-18.68,2.6-27.15c3.12-6.4,10.83-7,17.3-7.34l4.24,21.56S234.78,336.85,232.14,343.74Z"/><path class="cls-5" d="M325.26,294a59.45,59.45,0,0,1-1.21-6c-.42-3-1.05-5.1-3-4.92s-.67,6.39-.37,9,.73,4,.85,6.67a7.33,7.33,0,0,0,1.86,4.43c5.45,6.19,6.5,8.6,7.41,17,0,0,.53,7.63.9,15.82.25,5.61.43,11.48.31,15.32-.3,9.45,0,15.8,0,15.8"/><path class="cls-5" d="M331.2,269.5c.32,4.17.33,12.27.67,13.58"/><path class="cls-5" d="M324.49,294.82s.32-.3.77-.77h0a10.84,10.84,0,0,0,2.6-4c.55-2.14-.34-15.72.23-19.42s2.28-4,2.69-3.61a6.56,6.56,0,0,1,.42,2.44"/><path class="cls-5" d="M331.2,269.5v0c0-.33.17-4.4,2.05-4.3s2.11,1.38,2.43,6.42-.06,11.12,1.24,11.25,1.1-2,1.16-9,1.73-6.42,1.73-6.42,1.65-.08,1.64,3.79.12,6.74-.08,10.45.79,5.32,1.35,3.46,1.85-12,3.88-11.94,1.41,2.79,1.12,4.46-1.64,6.63-1.75,8.09-.31,9.56-1.52,15.31-.55,7.75-.18,12.16a69.32,69.32,0,0,0,.51,10.43c.39,2.55,5,28.37,6.31,40.07.18,1.6.3,2.93.34,3.91.33,8.15-1.62,9.78-4.23,12.71s-4.89,3.58-7.49,2.6-5.54-.65-7.69-2.93a140,140,0,0,1-10.24-12.2c-.61-.87-1.16-1.69-1.62-2.46-2.93-4.89-8.8-23.72-8.8-23.72l-5.94,8.79"/><line class="cls-5" x1="275.41" y1="285.27" x2="273.64" y2="305.67"/><path class="cls-5" d="M267.92,264.23s4.44-4.06,5.87,1.65a8.68,8.68,0,0,1-.18,1.91,8,8,0,0,1-4.57,5.93s-3.11.87-1.76-2.84"/><path class="cls-5" d="M267.12,278.36s-.28,5.35-4.88,6.64"/><path class="cls-5" d="M242.22,243.44s8.78,5.61,10.82,6.73c4,2.21,3.67,5.7,6.15,9.44s6.4,5,8.73,4.62"/><path class="cls-5" d="M279.11,235.6s-1.46-6.12,5.57-8.91,12.62,4.81,12.4,9.79c-.16,3.55-5.43,9.89-12.25,4.09"/><path class="cls-5" d="M291.76,256.07a27.7,27.7,0,0,0-7-15.43,19.66,19.66,0,0,0-3.52-3.15c-.82-.47-1.62-.9-2.41-1.29-13.77-6.78-24.2-1.92-36.4,5.84l-.2,1.4-.25,1.83s-3.14,8.37-2.67,13.78c.37,4.25,1.75,4.85,0,7.65l-2.23,5.56,5.11.71,1.68,10c-.3.89-1.35,7.88,9.34,5.33,0,0,6.51-.52,6.72.81l-.46,6.77a8.26,8.26,0,0,1-4.46,6.78c-3.15,1.62-7.56,3.6-11.32,4.21-1.63.26-3.59.36-5.68.48-6.47.36-14.18.94-17.3,7.34-4.12,8.47-3.91,20.41-2.6,27.15s1.08,14.55.87,26.49-3.7,14.34-3.7,20.85c0,6.15-.19,40.94-2,53.05a9.45,9.45,0,0,1-1.2,3.37l-5,8.48a6.46,6.46,0,0,1-4.59,3.12l-18.86,2.58a1.63,1.63,0,0,0,.25,3.25H206"/><path class="cls-5" d="M273.76,267.81s4.84,1.88,4.67,6.24c0,0-1,4.43.29,7.19,1.18,2.48,2.32,2.9,3.6,2,1.72-1.2,3.71-4.79,6.45-9,4.77-7.26,3-18.22,3-18.22"/><path class="cls-5" d="M282.92,283.27s-1.42,20.64,11.17,23.78c3.5.87,7.12,1.58,10.63,2.44,9.13,2.24,17.61,5.49,21.85,15.37L331.71,336"/><path class="cls-5" d="M209.3,458.09l-2.84,5.16-1,1.77a2.28,2.28,0,0,0,1.34,3.14,2.15,2.15,0,0,0,.71.11,2.28,2.28,0,0,0,1.76-.82l3.06-4.45a11.3,11.3,0,0,0,4.87-3,15.14,15.14,0,0,0,3.56-6.14l1.85-7.14s13.1-49.4,13.11-58.76"/><path class="cls-5" d="M238,307.32l4.24,21.56s42.1,28,58.06,1c0,0,1.05-17.94,4.44-20.38"/><path class="cls-5" d="M242.22,328.88s-7.44,8-10.08,14.86a12.1,12.1,0,0,0-.92,4.22c0,4.14,2.3,22.68,4.53,40h0c1.37,10.62,2.72,20.78,3.49,26.85.19,1.49.34,2.73.45,3.68,1.3,11.07-.18,56.68,22.55,57.33s29.9-2.28,37.39-9.44a28.18,28.18,0,0,0,2.31-2.58c6.65-8.23,17.75-27.6,25.12-43,2-4.1,3.67-7.91,5-11.15,1.4-3.53,2.55-6.47,3.49-8.91,3.59-9.29,4.2-11.4,4.2-11.4"/><path class="cls-5" d="M335.51,400.77s1.59,10.21,19.83,25.85"/><path class="cls-5" d="M300.28,329.88l4.54,15.89a15.76,15.76,0,0,1,.59,4.67,15.49,15.49,0,0,1-.79,4.56c-1.92,5.78-5.08,15.5-6,19.49-1.31,5.87-1.63,15.92-1.63,15.92"/><path class="cls-5" d="M279.78,409.84c4.33-5.2,10.07-11.46,17.65-19,6.47-6.46,14.29-13.89,23.73-22.44"/><path class="cls-5" d="M266.94,430.2a38.3,38.3,0,0,1,4.88-9.77,114,114,0,0,1,7.95-10.59"/><path class="cls-5" d="M252.39,426.62s9.1-6.41,19.43-6.19"/><path class="cls-5" d="M229.5,337c0,.13,0,4.54,2.64,6.7"/><path class="cls-5" d="M264.68,313.57s-7.07-1-12.29-1.95-7.55,0-7.55,0"/><line class="cls-5" x1="278.99" y1="315.53" x2="297.03" y2="312.38"/><path class="cls-5" d="M351.1,363.74s3.92,3.91,15,29.65c0,0,11.73,27.73,16.62,34.72"/><path class="cls-5" d="M327.06,420.83s17.11,3.68,28.27,5.85c3.56.68,6.51,1.22,8.11,1.43,4.24.56,12-.05,19.25.4,4.1.24,8,.83,11,2.17a69.38,69.38,0,0,0,9.26,3.87c3.26.87,5,2.6,11.08,3.91s24.54,5,40.61,8.25a140,140,0,0,0,25.19,3c5.64.05,10.09-.56,12.39-2,5.21-3.26,7.6-12.08,10.86-18.38s0-10.64,0-10.64l-2.71-4.35a1.53,1.53,0,0,1,.78-2.25l.13,0a4.13,4.13,0,0,1,5,1.81L508,417s7.39,2.61,7.6,9.67-2.17,14.05-.87,20.35c1,5,3.2,10.8,2.27,17.38a5.27,5.27,0,0,1-5.58,4.46c-6.92-.45-20.43-1.31-25.36-1.47-1.12,0-3.35,0-6.3,0-14.75.11-47.74.73-53,0-6.3-.86-21.07-7.6-27.15-7.38s-25.41.22-25.41.22A100.34,100.34,0,0,0,353.82,463c-10,2.61-51.88.79-51.88.79"/><path class="cls-5" d="M479.79,449.71a30.79,30.79,0,0,1,0,17.62"/><path class="cls-5" d="M240.09,414.7s24.27-5,39.68-4.86h0"/></svg>