<svg id="Layer_1" data-name="Layer 1" xmlns="http://www.w3.org/2000/svg" viewBox="0 0 700 700"><defs><style>.cls-1{fill:#feae63;}.cls-2{fill:#99abcc;}.cls-3{fill:#c4e7f9;}.cls-4{fill:#392328;}.cls-5{fill:none;stroke:#000;stroke-linecap:round;stroke-linejoin:round;stroke-width:2.3px;}</style></defs><title>Yoga_poses_2020_color</title><path class="cls-1" d="M476.61,454.79c-3.07-2-5.66-3.81-6.16-4.16C472.43,452.14,474.52,453.49,476.61,454.79Zm.12.07c2.18,1.45,4.59,3,6.65,4.27a1.62,1.62,0,0,1-.84,3,1.68,1.68,0,0,1-.72-.16c-5-2.43-8.06-4-11.16-6.78l-1.75-1.66c.59.6,1.17,1.16,1.75,1.66l2.56,2.44a8,8,0,0,0,2.37,1.55l3.47,1.48a1.21,1.21,0,0,1-.47,2.33,1.1,1.1,0,0,1-.31,0l-5.39-1.44a8,8,0,0,1-2.42-1.1l-9.53-6.49a4.91,4.91,0,0,0-2.92-.86,5,5,0,0,0-4,2.17l-.31.11a2.81,2.81,0,0,0-.65-1.33c-.79-.89-1.65-1.92-2.42-2.69l.41-.09a70.19,70.19,0,0,0,1.15-10.18,5,5,0,0,0-1-3.14l-7.53-10s-13.69-19-17.38-23.29-11.63-12.78-13.74-20.27c-2.21-7.82-11.28-18.51-15.34-29.79A184.65,184.65,0,0,1,390.9,332a37.17,37.17,0,0,1-2.12,7.58,45.77,45.77,0,0,0-1.91,5.44c.41-5.9-2.86-9.56-5.42-17.45a103.48,103.48,0,0,1,0-22.63,61.15,61.15,0,0,0,7.59,1.88s8.49,1.32,10.32,3.6a56.27,56.27,0,0,1,10.93,24.37c2,12.53,8.74,22.77,14.85,32.81,0,0,2.7,3.84,7,9.27s10.75,25.21,15,33.88c4.13,8.45,4.78,9.59,7.87,14.43,0,0,5.34,8.53,10,12.22a97.26,97.26,0,0,1,8.66,7.76l7.89,6.46a1.13,1.13,0,0,1-.72,2,1.12,1.12,0,0,1-.67-.22L472,448l12.55,8.63a1.34,1.34,0,0,1,.37,1.71,1.32,1.32,0,0,1-1.18.71,1.29,1.29,0,0,1-.74-.23C481,457.47,478.88,456.19,476.73,454.86Z"/><path class="cls-1" d="M451,458.59l1,.62v.48a1.87,1.87,0,0,1-2,1.85l-1.91-.1h0v.43a1.58,1.58,0,0,1-1.72,1.57c-3.06-.26-9.48-.72-12.48-.33-4,.51-11.67,4.27-21.42,4.71a54,54,0,0,0-12.75,1.86l0-.09c6.52-5.45-5.58-16.09-5.88-16.35h0c2.12,0,3.1-2.74,3.48-6.32l.17,0s1.43-1.8,5-1.46,4,1.55,6,2.8a19.17,19.17,0,0,0,11.14,2.6s7.59,0,12.07-2.7,6.19-1.92,9.61-.44,4.44,1.28,7.85,2.41a5,5,0,0,1,1.53,1.18c.77.77,1.63,1.8,2.42,2.69a2.73,2.73,0,0,1,.19,3.4A2.77,2.77,0,0,1,451,458.59Z"/><path class="cls-2" d="M361.44,449.56a27.41,27.41,0,0,1,14-2.36A16,16,0,0,1,386.17,453a70.65,70.65,0,0,0,7.68.27c.3.26,12.4,10.9,5.88,16.35l0,.09a75.73,75.73,0,0,0-9.83,3.7c-7.93,3.47-18,9.68-40.11,9.18-17.19-.38-14.16-1.92-21.71-4.89,0,0-13.12-4.21-17.7-15.09l-.35-1.55c3.74-.86,7-2,14.59-8.31,10.56-8.86,18.26-10.08,22.93-14.11,0,0,5.29,2.43,7.73,3.69S359.75,445.85,361.44,449.56Z"/><path class="cls-2" d="M359.72,404.86h0c13.16-.9,26.21-2.84,26.63-2.9h0c3.5,7.95,8.33,17.27,10.4,29.37,0,0,1.26,9.13.56,15.6-.38,3.58-1.36,6.35-3.48,6.32h0a70.65,70.65,0,0,1-7.68-.27,16,16,0,0,0-10.77-5.78,27.41,27.41,0,0,0-14,2.36c-1.69-3.71-3.7-6-6.14-7.25s-7.73-3.69-7.73-3.69c-4.67,4-12.37,5.25-22.93,14.11-7.55,6.34-10.85,7.45-14.59,8.31-1.49.35-3.06.66-5,1.25-4.88,1.47-10,5.49-15.2,8l-.09-.65c-9.86-5.69-6.5-14.66-6.5-14.66l-.06-.12c5.63-2.66,13.68-9.85,18.59-19.83C304.89,428.8,308,424.87,312,422c3.51-2.52,7.66-4.21,13-5.95a41,41,0,0,0,8.42-5.84c1.39-1.36,2.74-3.24,4.55-4.89,2.48-2.28,5.83-4.12,11.35-3.52A34.19,34.19,0,0,1,359.72,404.86Z"/><path class="cls-3" d="M381.45,327.54c2.56,7.89,5.83,11.55,5.42,17.45v0c-1.11,4-1.31,7.34-2.31,13.11-1.28,10.44-2.34,25.69-2.25,29.87s1.8,8.85,4,13.94c-.42.06-13.47,2-26.63,2.9h0a34.19,34.19,0,0,0-10.41-3.05c-5.52-.6-8.87,1.24-11.35,3.52a226.59,226.59,0,0,1-23.43-2.8c.37-2.43.69-4.71,1-6.83a112.28,112.28,0,0,0,.71-29.56c-.82-4.73-1.56-10.78-2.63-16.43,0-.17-.07-.34-.1-.51-1-6.44,4.69-17.14,5.79-22.3C319.32,326.9,339.64,342.22,381.45,327.54Z"/><path class="cls-1" d="M381.45,304.9h0a103.48,103.48,0,0,0,0,22.63c-41.81,14.68-62.13-.64-62.13-.64a150.36,150.36,0,0,0-.61-22.21l-.21-.67a108,108,0,0,0,15.83-6.37c3.74-2.12,4.5-8.28,4.26-14.62l.09-.12c2.62,1.9,6.59,3.41,12.55,3.3a22.78,22.78,0,0,0,9.64-2.46h0c-.24,6.34.52,12.5,4.26,14.62A109.39,109.39,0,0,0,381.45,304.9Z"/><path class="cls-1" d="M373.48,258.29s.31,5-2.16,8.12c0,0-1.53,1.41-1-2.26l-.32,0c.05-.32.08-.63.11-.93l.36-5.89.33,0C371.46,256.24,372.82,254.57,373.48,258.29Z"/><path class="cls-4" d="M329.45,254.93c-.1.69-.12,1.1-.12,1.1s-5.19-15.66,3.83-23.69a21.11,21.11,0,0,1,6.87-4.09c8-3,16.51-1.17,19.4-.39.66.18,1,.3,1,.3,18.37,7.37,10.33,27.24,10.33,27.24a5.94,5.94,0,0,0-.12-.78,43.9,43.9,0,0,0-2.12-6.65c-3.78-9.81-17.33-9.83-17.33-9.83C333.22,238.26,330,251.06,329.45,254.93Z"/><path class="cls-1" d="M370.67,254.62l-.17,2.66-.36,5.89c0,.3-.06.61-.11.93-.56,4-2.37,9.09-2.91,11.59a11.78,11.78,0,0,1-6.25,8.06,22.78,22.78,0,0,1-9.64,2.46c-6,.11-9.93-1.4-12.55-3.3a12.43,12.43,0,0,1-4.93-6.92c-.83-3.06-2.72-8.79-3.26-11.93a8.46,8.46,0,0,1-.14-1.18l-.69-6.1-.21-1.85c.55-3.87,3.77-16.67,21.77-16.79,0,0,13.55,0,17.33,9.83A43.9,43.9,0,0,1,370.67,254.62Zm-11.24,6.21a2.32,2.32,0,1,0-2-2.28A2.16,2.16,0,0,0,359.43,260.83Zm-18.11-.25a2.32,2.32,0,1,0-2-2.28A2.15,2.15,0,0,0,341.32,260.58Z"/><path d="M361.4,258.52a2,2,0,1,1-2-2.28A2.16,2.16,0,0,1,361.4,258.52Z"/><path class="cls-4" d="M360.56,227.84l-1.13,0c-2.89-.78-11.4-2.6-19.4.39l-.16-.41c0-5.35,4.63-9.7,10.34-9.7S360.56,222.49,360.56,227.84Z"/><path d="M343.28,258.27a2,2,0,1,1-2-2.28A2.15,2.15,0,0,1,343.28,258.27Z"/><path class="cls-2" d="M338,405.33c-1.81,1.65-3.16,3.53-4.55,4.89a41,41,0,0,1-8.42,5.84c-5.33,1.74-9.48,3.43-13,5.95l-.79-.49c1.5-7.21,2.5-13.51,3.32-19A226.59,226.59,0,0,0,338,405.33Z"/><path class="cls-1" d="M330.49,264.06l-.22,0c.72,3.64-.87,2.3-.87,2.3-2.61-3-2.51-8-2.51-8,.44-3.22,1.56-2.47,2.3-1.54l.47-.05.69,6.1A8.46,8.46,0,0,0,330.49,264.06Z"/><path class="cls-1" d="M229,449.9c-.49.34-3,2.07-6,4.05-2.25,1.4-4.48,2.74-6.54,4.13a1.34,1.34,0,0,1-1.55-2.19l12.55-8.64-8.25,5.4a1.12,1.12,0,0,1-.67.22,1.13,1.13,0,0,1-.73-2l7.89-6.45a96.46,96.46,0,0,1,8.66-7.77c4.71-3.69,10-12.22,10-12.22,3.09-4.84,3.74-6,7.87-14.43,4.24-8.66,10.64-28.45,15-33.88s7-9.27,7-9.27c6.12-10,12.8-20.28,14.85-32.81a56.19,56.19,0,0,1,10.94-24.37c1.82-2.28,10.31-3.59,10.31-3.59A60.67,60.67,0,0,0,318.5,304l.21.67a150.36,150.36,0,0,1,.61,22.21c-1.1,5.16-6.82,15.86-5.79,22.3a56.08,56.08,0,0,0-2.85-10.38,36.73,36.73,0,0,1-2.11-7.58,185.77,185.77,0,0,1-6.35,22.56c-4.05,11.29-13.13,22-15.34,29.8-2.11,7.48-10.05,16-13.74,20.26s-17.37,23.29-17.37,23.29l-7.54,10.05a5,5,0,0,0-1,3.13,70.43,70.43,0,0,0,1.15,10.19,19.9,19.9,0,0,0,1.55,5.1l.07.14a15.14,15.14,0,0,1-3.29,1.18h0l-.91-1.85a5,5,0,0,0-1.76-2,4.95,4.95,0,0,0-5.46.08L229,459.69a7.92,7.92,0,0,1-2.42,1.1l-5.38,1.44a1.17,1.17,0,0,1-.32,0,1.21,1.21,0,0,1-.47-2.33l3.48-1.48a7.92,7.92,0,0,0,2.36-1.55l2.56-2.44c.58-.5,1.16-1.06,1.75-1.66l-1.75,1.66c-3.1,2.76-6.18,4.35-11.16,6.78a1.65,1.65,0,0,1-.71.17,1.63,1.63,0,0,1-.85-3c2.14-1.31,4.68-2.95,6.93-4.45C225,452.69,227.09,451.37,229,449.9Z"/><path class="cls-1" d="M247,467.17l-1.74.56a1.51,1.51,0,0,1-.41.06,1.32,1.32,0,0,1-.68-2.46,2.76,2.76,0,0,1-3.3-4.27c1.32-1.53,3.47-3.58,5.82-4.11h0a15.14,15.14,0,0,0,3.29-1.18c2.43-1.17,4.44-2.67,5.7-2.86a4.63,4.63,0,0,1,1.61.07,8.22,8.22,0,0,1,3.32,1.51,8.26,8.26,0,0,0,4.85,1.83c4.46-.13,9.52.73,14.89-.39a13.43,13.43,0,0,0,2.84-1l.06.12s-3.36,9,6.5,14.66l.09.65a21.47,21.47,0,0,1-6.14,2.09c-7.29,1.13-18-2.71-20.74-3.26s-9.21-.23-9.21-.23l-4.24.63a2.08,2.08,0,0,1-2.11-1Z"/><path class="cls-5" d="M339.87,227.84c0-5.35,4.63-9.7,10.34-9.7s10.35,4.35,10.35,9.7"/><path class="cls-5" d="M329.45,254.93c.55-3.87,3.77-16.67,21.77-16.79,0,0,13.55,0,17.33,9.83a43.9,43.9,0,0,1,2.12,6.65,5.94,5.94,0,0,1,.12.78s8-19.87-10.33-27.24c0,0-.37-.12-1-.3-2.89-.78-11.4-2.6-19.4.39a21.11,21.11,0,0,0-6.87,4.09c-9,8-3.83,23.69-3.83,23.69S329.35,255.62,329.45,254.93Z"/><path class="cls-5" d="M370.83,257.3c.63-1.06,2-2.73,2.65,1,0,0,.31,5-2.16,8.12,0,0-1.53,1.41-1-2.26"/><path class="cls-5" d="M329.19,256.83c-.74-.93-1.86-1.68-2.3,1.54,0,0-.1,5,2.51,8,0,0,1.59,1.34.87-2.3"/><path class="cls-5" d="M329.35,254l.1.89.21,1.85.69,6.1a8.46,8.46,0,0,0,.14,1.18c.54,3.14,2.43,8.87,3.26,11.93a12.43,12.43,0,0,0,4.93,6.92c2.62,1.9,6.59,3.41,12.55,3.3a22.78,22.78,0,0,0,9.64-2.46,11.78,11.78,0,0,0,6.25-8.06c.54-2.5,2.35-7.59,2.91-11.59.05-.32.08-.63.11-.93l.36-5.89.17-2.66.07-1.2"/><path class="cls-5" d="M351.92,266.23a4.32,4.32,0,0,1-4.44-.13"/><polyline class="cls-5" points="345.19 273.65 346.13 274.03 349.09 273.16 350.2 273.84 351.43 273.19 354.08 274.14 354.94 273.91"/><line class="cls-5" x1="349.01" y1="278.58" x2="351.57" y2="278.62"/><path class="cls-5" d="M359.72,404.85c13.16-.9,26.21-2.84,26.63-2.9"/><path class="cls-5" d="M314.53,402.53a226.59,226.59,0,0,0,23.43,2.8"/><path class="cls-5" d="M319.32,326.9c-1.1,5.16-6.82,15.86-5.79,22.3"/><path class="cls-5" d="M319.32,326.9s20.32,15.32,62.13.64"/><path class="cls-5" d="M386.87,345c0,.32-.06.65-.1,1"/><path class="cls-5" d="M381.45,304.91a103.48,103.48,0,0,0,0,22.63c2.56,7.89,5.83,11.55,5.42,17.45"/><path class="cls-5" d="M318.71,304.69a150.36,150.36,0,0,1,.61,22.21"/><path class="cls-5" d="M249.92,455.62a19.9,19.9,0,0,1-1.55-5.1,70.43,70.43,0,0,1-1.15-10.19,5,5,0,0,1,1-3.13l7.54-10.05s13.68-19,17.37-23.29,11.63-12.78,13.74-20.26c2.21-7.83,11.29-18.51,15.34-29.8a185.77,185.77,0,0,0,6.35-22.56,36.73,36.73,0,0,0,2.11,7.58,56.08,56.08,0,0,1,2.85,10.38c0,.17.06.34.1.51,1.07,5.65,1.81,11.7,2.63,16.43a112.28,112.28,0,0,1-.71,29.56c-.33,2.12-.65,4.4-1,6.83-.82,5.48-1.82,11.78-3.32,19"/><path class="cls-5" d="M228.8,454.47l-2.56,2.44a7.92,7.92,0,0,1-2.36,1.55l-3.48,1.48a1.21,1.21,0,0,0,.47,2.33,1.17,1.17,0,0,0,.32,0l5.38-1.44a7.92,7.92,0,0,0,2.42-1.1l9.53-6.49a4.95,4.95,0,0,1,5.46-.08,5,5,0,0,1,1.76,2l.91,1.85"/><path class="cls-5" d="M228.8,454.47c.58-.5,1.16-1.06,1.75-1.66Z"/><path class="cls-5" d="M229,449.9c-.49.34-3,2.07-6,4.05-2.25,1.5-4.79,3.14-6.93,4.45a1.63,1.63,0,0,0,.85,3,1.65,1.65,0,0,0,.71-.17c5-2.43,8.06-4,11.16-6.78"/><path class="cls-5" d="M338.59,283c.24,6.34-.52,12.5-4.26,14.62A108,108,0,0,1,318.5,304a60.67,60.67,0,0,1-8.08,2.05s-8.49,1.31-10.31,3.59A56.19,56.19,0,0,0,289.17,334c-2.05,12.53-8.73,22.77-14.85,32.81,0,0-2.7,3.84-7,9.27s-10.75,25.22-15,33.88c-4.13,8.45-4.78,9.59-7.87,14.43,0,0-5.34,8.53-10,12.22a96.46,96.46,0,0,0-8.66,7.77l-7.89,6.45a1.13,1.13,0,0,0,.73,2,1.12,1.12,0,0,0,.67-.22l8.25-5.4-12.55,8.64a1.34,1.34,0,0,0,1.55,2.19c2.06-1.39,4.29-2.73,6.54-4.13,2-1.26,4.08-2.58,6-4.05l0,0,0,0"/><path class="cls-5" d="M244.13,465.33a1.32,1.32,0,0,0,.68,2.46,1.51,1.51,0,0,0,.41-.06l1.74-.56,2.93-.95"/><path class="cls-5" d="M390.94,426.51c-13.59-11.36-23.38-18.12-31.22-21.65a34.19,34.19,0,0,0-10.41-3.05c-5.52-.6-8.87,1.24-11.35,3.52-1.81,1.65-3.16,3.53-4.55,4.89a41,41,0,0,1-8.42,5.84c-5.33,1.74-9.48,3.43-13,5.95-4,2.86-7.11,6.79-10.21,13.07-4.91,10-13,17.17-18.59,19.83a13.43,13.43,0,0,1-2.84,1c-5.37,1.12-10.43.26-14.89.39a8.26,8.26,0,0,1-4.85-1.83A8.22,8.22,0,0,0,257.3,453a4.63,4.63,0,0,0-1.61-.07c-1.26.19-3.27,1.69-5.7,2.86a15.14,15.14,0,0,1-3.29,1.18h0c-2.35.53-4.5,2.58-5.82,4.11a2.75,2.75,0,0,0,3.3,4.27l.08,0,.12-.06,4.37-2.31"/><path class="cls-5" d="M247.41,468.55a2.08,2.08,0,0,0,2.11,1l4.24-.63s6.45-.32,9.21.23,13.45,4.39,20.74,3.26a21.47,21.47,0,0,0,6.14-2.09c5.2-2.56,10.32-6.58,15.2-8,1.94-.59,3.51-.9,5-1.25,3.74-.86,7-2,14.59-8.31,10.56-8.86,18.26-10.08,22.93-14.11,0,0,5.29,2.43,7.73,3.69s4.45,3.54,6.14,7.25a27.41,27.41,0,0,1,14-2.36A16,16,0,0,1,386.17,453a70.65,70.65,0,0,0,7.68.27c.8,0,1.63,0,2.48-.09a9.11,9.11,0,0,0,2.57-.57,7.51,7.51,0,0,1,2.85-.57,4.61,4.61,0,0,1,2.65,1"/><path class="cls-5" d="M397.49,446.94s1.43-1.8,5-1.46,4,1.55,6,2.8a19.17,19.17,0,0,0,11.14,2.6s7.59,0,12.07-2.7,6.19-1.92,9.61-.44,4.44,1.28,7.85,2.41a5,5,0,0,1,1.53,1.18c.77.77,1.63,1.8,2.42,2.69a2.73,2.73,0,0,1,.19,3.4,2.77,2.77,0,0,1-2.26,1.17,2.69,2.69,0,0,1-1-.2l-4.95-2"/><path class="cls-5" d="M445.12,461.27l3,.17,1.91.1a1.87,1.87,0,0,0,2-1.85v-.48"/><path class="cls-5" d="M448.13,461.45v.43a1.58,1.58,0,0,1-1.72,1.57c-3.06-.26-9.48-.72-12.48-.33-4,.51-11.67,4.27-21.42,4.71a54,54,0,0,0-12.75,1.86,75.73,75.73,0,0,0-9.83,3.7c-7.93,3.47-18,9.68-40.11,9.18-17.19-.38-14.16-1.92-21.71-4.89,0,0-13.12-4.21-17.7-15.09-.15-.35-.29-.71-.42-1.07"/><path class="cls-5" d="M361.44,449.56a8.7,8.7,0,0,0-1.08,6.65"/><path class="cls-5" d="M393.84,453.24h0c.3.26,12.4,10.9,5.88,16.35"/><path class="cls-5" d="M283.26,455s-3.36,9,6.5,14.66"/><path class="cls-5" d="M451.09,451.24a70.19,70.19,0,0,0,1.15-10.18,5,5,0,0,0-1-3.14l-7.53-10s-13.69-19-17.38-23.29-11.63-12.78-13.74-20.27c-2.21-7.82-11.28-18.51-15.34-29.79A184.65,184.65,0,0,1,390.9,332a37.17,37.17,0,0,1-2.12,7.58,45.77,45.77,0,0,0-1.91,5.44v0c-1.11,4-1.31,7.34-2.31,13.11-1.28,10.44-2.34,25.69-2.25,29.87s1.8,8.85,4,13.94h0c3.5,7.95,8.33,17.27,10.4,29.37,0,0,1.26,9.13.56,15.6-.38,3.58-1.36,6.35-3.48,6.32"/><path class="cls-5" d="M470.66,455.2l2.56,2.44a8,8,0,0,0,2.37,1.55l3.47,1.48a1.21,1.21,0,0,1-.47,2.33,1.1,1.1,0,0,1-.31,0l-5.39-1.44a8,8,0,0,1-2.42-1.1l-9.53-6.49a4.91,4.91,0,0,0-2.92-.86,5,5,0,0,0-4,2.17"/><path class="cls-5" d="M470.66,455.2c-.58-.5-1.16-1.06-1.75-1.66Z"/><path class="cls-5" d="M476.73,454.86c2.18,1.45,4.59,3,6.65,4.27a1.62,1.62,0,0,1-.84,3,1.68,1.68,0,0,1-.72-.16c-5-2.43-8.06-4-11.16-6.78"/><path class="cls-5" d="M470.36,450.57l.09.06c.5.35,3.09,2.13,6.16,4.16"/><path class="cls-5" d="M476.61,454.79c-2.09-1.3-4.18-2.65-6.16-4.16"/><path class="cls-5" d="M476.61,454.79l.12.07"/><path class="cls-5" d="M360.87,283.76c-.24,6.34.52,12.5,4.26,14.62a109.39,109.39,0,0,0,16.32,6.52h0a61.15,61.15,0,0,0,7.59,1.88s8.49,1.32,10.32,3.6a56.27,56.27,0,0,1,10.93,24.37c2,12.53,8.74,22.77,14.85,32.81,0,0,2.7,3.84,7,9.27s10.75,25.21,15,33.88c4.13,8.45,4.78,9.59,7.87,14.43,0,0,5.34,8.53,10,12.22a97.26,97.26,0,0,1,8.66,7.76l7.89,6.46a1.13,1.13,0,0,1-.72,2,1.12,1.12,0,0,1-.67-.22L472,448l12.55,8.63a1.34,1.34,0,0,1,.37,1.71,1.32,1.32,0,0,1-1.18.71,1.29,1.29,0,0,1-.74-.23c-2-1.33-4.11-2.61-6.26-3.94"/></svg>