<svg id="Layer_1" data-name="Layer 1" xmlns="http://www.w3.org/2000/svg" viewBox="0 0 700 700"><defs><style>.cls-1{fill:#feae63;}.cls-2{fill:#99abcc;}.cls-3{fill:#c4e7f9;}.cls-4{fill:#392328;}.cls-5{fill:none;stroke:#000;stroke-linecap:round;stroke-linejoin:round;stroke-width:2.3px;}</style></defs><title>Yoga_poses_2020_color</title><path class="cls-1" d="M385.67,529.26l.35.06c6.51,1.14,14.28,3.26,18,4.07l.75-.07c-.74-4.07-1.79-10.09-2.75-16.36-1.07-7-5-16-8.87-22.34a37.88,37.88,0,0,0-4.58-6.33,30.14,30.14,0,0,1-6.48-8.79,77.85,77.85,0,0,0-4.27-8c-1-1.46-2.21-3.25-3.08-4.6a2.5,2.5,0,0,1,4-3l3,3.64,3.53,4.89,2.74-7.67a10.16,10.16,0,0,0,.58-3l.22-5.3.46-10.91a1.88,1.88,0,0,1,3.75,0l.72,13.53,1.49-15.46a1.65,1.65,0,0,1,1-1.37,1.78,1.78,0,0,1,.61-.11,1.63,1.63,0,0,1,1.63,1.62l.15,14.51.23,6.53a26.41,26.41,0,0,1-.38,5.47l-1.06,6.11a10.32,10.32,0,0,0,.47,5.31,68.84,68.84,0,0,0,5.79,11.6c5.17,8.57,17.17,28,22.4,36.27q1.43,2.25,2.68,4.61l3.28,6.17a6.83,6.83,0,0,1,.8,3.19A6.74,6.74,0,0,1,432,547a6.86,6.86,0,0,1-2.57,2.5l-3.8,2.11a6.72,6.72,0,0,1-2.86.84c-3.72.22-8.47-.17-13.71-.31-6-.16-38.93-.65-46.75-1a111.11,111.11,0,0,1-21.44-2.93,17,17,0,0,1-3.47-1.71l.14-.24s-2.92-4.82-1.13-15.6,13-22.34,29.81-17.14c12.33,3.8,16.81,7.67,19,12.61a20,20,0,0,1,.72,1.92Z"/><path class="cls-2" d="M398.44,391.69c5.32,11.6,3.29,30.07-1.2,41a12.14,12.14,0,0,0-.91,4.12l-.08,5.38.06.11a1.65,1.65,0,0,0-1,1.37l-1.49,15.46-.72-13.53a1.88,1.88,0,0,0-3.75,0l-.46,10.91A74,74,0,0,1,346.77,447h0c.55-12.12,1.18-25.37,1-27.5-1.33-13.36-1.07-21.36-2.69-55.25-.93-19.56,3.11-33.74,2.74-44.58-.27-8.24.54-13.33,1.65-16.6a105.5,105.5,0,0,0,5.32-23.15c.86-8.23,1.81-17.77,2.41-24.84,1.1-12.95,4.07-20.54,5-38.94,0,0,12,4,19.37,1.69,1.28,10.51,3.84,32.29,4.32,42.47.65,13.68-7.47,36.27-6.82,49.31s1.95,20.19,5.86,44.3S393.46,381.27,398.44,391.69Z"/><path class="cls-1" d="M373.55,156.28a1.47,1.47,0,0,1,1.48,1.47,1.32,1.32,0,0,1,0,.34l-.48,2s1.38-.17,2,3.42,1.54,10.34,5.94,16.78,11.89,13.27,8.06,17.75-10,7.25-9.79,13.85c0,0,.29,2.28.73,5.91-7.41,2.31-19.37-1.69-19.37-1.69.16-3.35.25-7.06.25-11.23,0-27-1.95-26.71,2-48.87a19.84,19.84,0,0,0,.66-2.22l1.86.51,1.86,1.78a13,13,0,0,1,4-2.59l.07,0a1.18,1.18,0,0,1,1.54.83l-.16,1.51Z"/><path class="cls-3" d="M388.6,488.29a37.88,37.88,0,0,1,4.58,6.33s-8.9,28.42-8,31.56c-2.15-4.94-6.63-8.81-19-12.61-16.84-5.2-28,6.35-29.81,17.14-.6-3.77-1.12-7.78-1.53-11.24-.63-5.27-1-9.27-1-9.27h0c-.13-2.53-1-3.85-2.14-4.52l-.6-6.61c-.22-10.77,6.3-19.41,10.86-21.58s4.12-10.43,4.12-10.43c-.07-2.83.28-11.15.68-20.07h0a74,74,0,0,0,42.11,9.54l-.22,5.3a10.16,10.16,0,0,1-.58,3l-2.74,7.67-3.53-4.89-3-3.64a2.51,2.51,0,0,0-1.93-.9,2.5,2.5,0,0,0-2.1,3.85c.87,1.35,2,3.14,3.08,4.6a77.85,77.85,0,0,1,4.27,8A30.14,30.14,0,0,0,388.6,488.29Z"/><path class="cls-1" d="M372.82,151.62l-.09,1.79,0,.08-.07,0a13,13,0,0,0-4,2.59l-1.86-1.78a8.55,8.55,0,0,1,2.64-2.73,6.72,6.72,0,0,1,2-.85A1.09,1.09,0,0,1,372.82,151.62Z"/><path class="cls-1" d="M366.8,148.67a4.59,4.59,0,0,1,2.69,2.92,8.55,8.55,0,0,0-2.64,2.73l-1.86-.51a15.8,15.8,0,0,0,.4-3.88A1.24,1.24,0,0,1,366.8,148.67Z"/><path class="cls-1" d="M330.35,519.47h4.5c.41,3.46.93,7.47,1.53,11.24-1.79,10.78,1.13,15.6,1.13,15.6l-.14.24c-4.36-2.54-11.22-6.94-18.57-7.42a7.47,7.47,0,0,0-1.64-.91,6.19,6.19,0,0,1-3-2.15l-.07-.27a8.17,8.17,0,0,1-1.92.28c-5.78-1.14-1.94-5.78-1.94-5.78.23-2.35-1.21-6.2-5.06-8.48s-7.32-1.77-9.73-5.68c-1.22-2-7.27-10.46-7.27-10.46l1.82-.35s8.21-3.55,13.63-3.35c4.26.16,4.93,1.5,7.64-.4l5.44-2.51,1,5.07,10,1.18a5.09,5.09,0,0,1,4,.36c1.09.67,2,2,2.14,4.52a17.38,17.38,0,0,1-.34,4.18A11.37,11.37,0,0,1,330.35,519.47Zm-19.74-11.94c.06-.62-1.06-1.23-2.49-1.35s-2.64.28-2.69.9,1.06,1.22,2.49,1.35S310.56,508.15,310.61,507.53Z"/><path class="cls-4" d="M314.16,536.07a6.19,6.19,0,0,0,3,2.15,7.47,7.47,0,0,1,1.64.91,5.07,5.07,0,0,1-.13,8.3c-2.74,1.89-7.73,2.41-13.77,3.29a63,63,0,0,1-11.37-.13c-7.16-.67-9.35-5.66-9.35-5.66-.49-.76-.95-1.52-1.37-2.27a32.17,32.17,0,0,1-2.93-6.95c-2.94-10.36,1-19.42,6.91-29.77l1.38-.26s6.05,8.49,7.27,10.46c2.41,3.91,5.88,3.39,9.73,5.68s5.29,6.13,5.06,8.48c0,0-3.84,4.64,1.94,5.78a8.17,8.17,0,0,0,1.92-.28Z"/><path d="M308.12,506.18c1.43.12,2.55.73,2.49,1.35s-1.25,1-2.69.9-2.55-.73-2.49-1.35S306.68,506.05,308.12,506.18Z"/><path class="cls-4" d="M282.77,542.68c3.52,8.24-4.76,7.11-9.76,6.81s-8.2-5.19-3.45-11.07,10.17-2.67,10.17-2.67l.15,0a32.17,32.17,0,0,0,2.93,6.95Z"/><path class="cls-5" d="M310.23,530.3s-3.84,4.64,1.94,5.78a8.17,8.17,0,0,0,1.92-.28,8,8,0,0,0,5.67-4.85s.72-3.15-2.92-1.62"/><path class="cls-5" d="M288.17,505.68s6.05,8.49,7.27,10.46c2.41,3.91,5.88,3.39,9.73,5.68s5.29,6.13,5.06,8.48"/><path class="cls-5" d="M279.73,535.75s-5.41-3.21-10.17,2.67S268,549.19,273,549.49s13.28,1.43,9.76-6.81"/><path class="cls-5" d="M327.49,521.6a13.3,13.3,0,0,0,2.86-2.13,11.37,11.37,0,0,0,3.15-5.09,17.38,17.38,0,0,0,.34-4.18c-.13-2.53-1-3.85-2.14-4.52a5.09,5.09,0,0,0-4-.36l-10-1.18-1-5.07-5.44,2.51c-2.71,1.9-3.38.56-7.64.4-5.42-.2-13.63,3.35-13.63,3.35l-1.82.35-1.38.26c-5.88,10.35-9.85,19.41-6.91,29.77a32.17,32.17,0,0,0,2.93,6.95c.42.75.88,1.51,1.37,2.27,0,0,2.19,5,9.35,5.66a63,63,0,0,0,11.37.13c6-.88,11-1.4,13.77-3.29a5.07,5.07,0,0,0,.13-8.3,7.47,7.47,0,0,0-1.64-.91,6.19,6.19,0,0,1-3-2.15l-.07-.12"/><line class="cls-5" x1="335.12" y1="526.91" x2="324.49" y2="532.5"/><path class="cls-5" d="M331.7,505.68l-.6-6.61c-.22-10.77,6.3-19.41,10.86-21.58s4.12-10.43,4.12-10.43c-.07-2.83.28-11.15.68-20.07.55-12.12,1.18-25.37,1-27.5-1.33-13.36-1.07-21.36-2.69-55.25-.93-19.56,3.11-33.74,2.74-44.58-.27-8.24.54-13.33,1.65-16.6a105.5,105.5,0,0,0,5.32-23.15c.86-8.23,1.81-17.77,2.41-24.84,1.1-12.95,4.07-20.54,5-38.94.16-3.35.25-7.06.25-11.23,0-27-1.95-26.71,2-48.87a19.84,19.84,0,0,0,.66-2.22,15.8,15.8,0,0,0,.4-3.88,1.24,1.24,0,0,1,1.41-1.26,4.59,4.59,0,0,1,2.69,2.92"/><path class="cls-5" d="M361.57,524.86s17.31,3.21,24.1,4.4l.35.06c6.51,1.14,14.28,3.26,18,4.07"/><path class="cls-5" d="M337.51,546.31s-2.92-4.82-1.13-15.6,13-22.34,29.81-17.14c12.33,3.8,16.81,7.67,19,12.61a20,20,0,0,1,.72,1.92c.06.19.11.39.17.58"/><path class="cls-5" d="M346.77,447a74,74,0,0,0,42.11,9.54"/><path class="cls-5" d="M366.85,154.32a8.55,8.55,0,0,1,2.64-2.73,6.72,6.72,0,0,1,2-.85,1.09,1.09,0,0,1,1.31.88l-.09,1.79"/><path class="cls-5" d="M368.07,156.79a6.3,6.3,0,0,1,.64-.69,13,13,0,0,1,4-2.59l.07,0a1.18,1.18,0,0,1,1.54.83l-.16,1.51"/><path class="cls-5" d="M369.83,159.72a5.79,5.79,0,0,1,3-3.28,1.51,1.51,0,0,1,.68-.16,1.47,1.47,0,0,1,1.48,1.47,1.32,1.32,0,0,1,0,.34l-.48,2s1.38-.17,2,3.42,1.54,10.34,5.94,16.78,11.89,13.27,8.06,17.75-10,7.25-9.79,13.85c0,0,.29,2.28.73,5.91,1.28,10.51,3.84,32.29,4.32,42.47.65,13.68-7.47,36.27-6.82,49.31s1.95,20.19,5.86,44.3,8.61,27.37,13.59,37.79c5.32,11.6,3.29,30.07-1.2,41a12.14,12.14,0,0,0-.91,4.12l-.08,5.38"/><path class="cls-5" d="M405.75,538.46s-.38-2-.95-5.14c-.74-4.07-1.79-10.09-2.75-16.36-1.07-7-5-16-8.87-22.34a37.88,37.88,0,0,0-4.58-6.33,30.14,30.14,0,0,1-6.48-8.79,77.85,77.85,0,0,0-4.27-8c-1-1.46-2.21-3.25-3.08-4.6a2.5,2.5,0,0,1,4-3l3,3.64,3.53,4.89,2.74-7.67a10.16,10.16,0,0,0,.58-3l.22-5.3.46-10.91a1.88,1.88,0,0,1,3.75,0l.72,13.53,1.49-15.46a1.65,1.65,0,0,1,1-1.37,1.78,1.78,0,0,1,.61-.11,1.63,1.63,0,0,1,1.63,1.62l.15,14.51.23,6.53a26.41,26.41,0,0,1-.38,5.47l-1.06,6.11a10.32,10.32,0,0,0,.47,5.31,68.84,68.84,0,0,0,5.79,11.6c5.17,8.57,17.17,28,22.4,36.27q1.43,2.25,2.68,4.61l3.28,6.17a6.83,6.83,0,0,1,.8,3.19A6.74,6.74,0,0,1,432,547a6.86,6.86,0,0,1-2.57,2.5l-3.8,2.11a6.72,6.72,0,0,1-2.86.84c-3.72.22-8.47-.17-13.71-.31-6-.16-38.93-.65-46.75-1a111.11,111.11,0,0,1-21.44-2.93,17,17,0,0,1-3.47-1.71c-4.36-2.54-11.22-6.94-18.57-7.42"/><path class="cls-5" d="M393.18,494.62s-8.9,28.42-8,31.56"/><path class="cls-5" d="M333.86,510.2s.36,4,1,9.27c.41,3.46.93,7.47,1.53,11.24"/><line class="cls-5" x1="330.35" y1="519.47" x2="334.85" y2="519.47"/><path class="cls-5" d="M362.12,216.13s12,4,19.37,1.69"/></svg>