<svg id="Layer_1" data-name="Layer 1" xmlns="http://www.w3.org/2000/svg" viewBox="0 0 700 700"><defs><style>.cls-1{fill:#99abcc;}.cls-2{fill:#feae63;}.cls-3{fill:#c4e7f9;}.cls-4{fill:#170607;}.cls-5{fill:none;stroke:#000;stroke-linecap:round;stroke-linejoin:round;stroke-width:2.3px;}</style></defs><title>Yoga_poses_2020_color</title><path class="cls-1" d="M398,321.36h12.63a12,12,0,0,1,7.26,2.44l5,3.81a12,12,0,0,1,4.37,12.5c-.73,2.95-3.39,9.81-5.94,12.6-4.49,4.91-8.46,10.39-17,17.16a131.67,131.67,0,0,1-15.54,10.49q-2,1.2-4.31,2.46l-24.06,10.82s-3.49,2-7.18,4.25c-1.58-7.11-8.47-12.36-8.47-12.36a135.78,135.78,0,0,0,18.55-15.66,36.52,36.52,0,0,1,5.46-7c4.06-4.1,8.65-6.9,13.29-9.92a65.17,65.17,0,0,0,11.43-8.9S404,335.55,398,321.36Z"/><path class="cls-2" d="M422.66,437.28a1.25,1.25,0,0,1-.08.42,1.14,1.14,0,0,1-1.16.71l-9.86-.84L409,434.21l.59-1.46c3.59,1.69,9,2.73,12.14,3.42A1.13,1.13,0,0,1,422.66,437.28Z"/><path class="cls-2" d="M399.82,435.51l.7,5a1.21,1.21,0,0,1,0,.19v.08a1.37,1.37,0,0,1-1.38,1.3,2.66,2.66,0,0,1-2.33-1.38l-2-3.62c-.51-.93-2-.9-5.38-.9,0,0-1.42,0-6.51.19l-.09-.05-1.23,2.15a1.8,1.8,0,0,1-3.36-.89,1.75,1.75,0,0,1,.21-.85l.57-1.08a1.54,1.54,0,0,0,.17-.51l.17-1.16a1.53,1.53,0,0,1,1.21-1.29l3.54-1.31a18.4,18.4,0,0,0,3.14-.85,5.76,5.76,0,0,0,2.73-4.36,87.61,87.61,0,0,0,.54-16.38c-1.08-14.93-1.69-29.42-1.69-29.42a131.67,131.67,0,0,0,15.54-10.49c1.14,21.82-2.91,56-2.53,58.09s7.75,4.79,7.75,4.79l-.59,1.46,2.53,3.36,1.85,2.47a1.21,1.21,0,0,1,.34.84,1.19,1.19,0,0,1-1.19,1.19,2.93,2.93,0,0,1-2.13-.91l-6-7.33,3.07,6.56a1.06,1.06,0,0,1,.13.52,1.16,1.16,0,0,1-1.17,1.16,3.09,3.09,0,0,1-2.45-1.2Z"/><path class="cls-2" d="M369.67,297.89l-.11,1.84a10.66,10.66,0,0,0-.69-3.68l1.09,0a28.75,28.75,0,0,0,1.66-7.51c14.48.68,16.85,13.12,22,25.09a54.61,54.61,0,0,0,4.4,7.76c6,14.19-4.45,22.67-4.45,22.67a65.17,65.17,0,0,1-11.43,8.9,77.23,77.23,0,0,1-4.22-20c0-.29-.06-.59-.08-.89,0,0-4.46,8.85-5.23-2a54.68,54.68,0,0,1,.06-11.69c.8-9.32-.51-14.85-.51-14.85h0a16,16,0,0,0,.5-4.59c-.66-3.71-2-2-2.65-1Z"/><path class="cls-1" d="M377.92,332.92a77.23,77.23,0,0,0,4.22,20c-4.64,3-9.23,5.82-13.29,9.92l-.39-.38a55.69,55.69,0,0,1-16.63-2.13,8.23,8.23,0,0,0-4.44,0,65.6,65.6,0,0,1-27.64,3.11h0c-1.92-2.14-4-3.94-7.53-7.42,4-5.64,8.18-19.8,8.18-19.8s5.44,10.55,9.24,12.94c2.63,1.66,8.35,2.39,13.76,1.63a57.67,57.67,0,0,1,12.18-.4c5.5.39,11.36-1.22,14.16-3,3.79-2.39,8.18-14.49,8.18-14.49Z"/><path class="cls-3" d="M377.84,332c0,.3.05.6.08.89h0s-4.39,12.1-8.18,14.49c-2.8,1.76-8.66,3.37-14.16,3a57.67,57.67,0,0,0-12.18.4c-5.41.76-11.13,0-13.76-1.63-3.8-2.39-9.24-12.94-9.24-12.94,1.1-.94,2.94,1.56,4.43-5.73,3.34,9.45,24.41,8.15,24.41,8.15,11.29.06,19.23-2.58,23.38-8.61C373.38,340.88,377.84,332,377.84,332Z"/><path class="cls-2" d="M372.16,303.49s1.31,5.53.51,14.85a54.68,54.68,0,0,0-.06,11.69c-4.15,6-12.09,8.67-23.38,8.61,0,0-21.07,1.3-24.41-8.15.24-1.14.46-2.52.67-4.19l.57-7.55A91.58,91.58,0,0,0,327.29,305a8.47,8.47,0,0,0,1.28,2s1.59,1.34.87-2.29l.22,0c.54,3.15,2.43,8.86,3.26,11.92,2.47,6.17,6.87,11.93,16.48,12.23,0,0,13.43.8,16.89-12.53.65-2.47,2.37-7.57,2.91-11.57l.32,0c-.57,3.66,1,2.25,1,2.25a9.44,9.44,0,0,0,1.66-3.53Z"/><path class="cls-2" d="M369.56,299.73l.11-1.84.33,0c.63-1.06,2-2.72,2.65,1a16,16,0,0,1-.5,4.59,9.44,9.44,0,0,1-1.66,3.53s-1.54,1.41-1-2.25l-.32,0c.05-.33.08-.64.11-1Z"/><path class="cls-4" d="M371.62,288.51A28.75,28.75,0,0,1,370,296l-1.09,0a12.35,12.35,0,0,0-5.33-5.95c-3.86-2.39-9.88-1.48-14.16-1.07s-8.73-1.42-15.07,1.07c-2.88,1.13-4.13,4-4.64,6.76l-1.18-.22a34.11,34.11,0,0,1-1.3-6.54c-.55-5.25-.1-12.48,5.14-17.15a21.38,21.38,0,0,1,6.85-4.09c8-3,16.53-1.17,19.42-.39.66.18,1,.3,1,.3C370.62,273.18,372.16,282.08,371.62,288.51Z"/><path class="cls-2" d="M369.56,299.73l-.25,4c0,.31-.06.62-.11,1-.54,4-2.26,9.1-2.91,11.57-3.46,13.33-16.89,12.53-16.89,12.53-9.61-.3-14-6.06-16.48-12.23-.83-3.06-2.72-8.77-3.26-11.92a8.58,8.58,0,0,1-.14-1.19.18.18,0,0,0,0-.05l0-.27c0-.13,0-.29-.05-.48a23.61,23.61,0,0,1,.24-5.83c.51-2.78,1.76-5.63,4.64-6.76,6.34-2.49,10.78-.66,15.07-1.07s10.3-1.32,14.16,1.07a12.35,12.35,0,0,1,5.33,5.95A10.66,10.66,0,0,1,369.56,299.73Zm-11.13,9.33a2.32,2.32,0,1,0-2-2.28A2.15,2.15,0,0,0,358.43,309.06Zm-18.11-.24a2.32,2.32,0,1,0-2-2.28A2.16,2.16,0,0,0,340.32,308.82Z"/><path d="M360.4,306.76a2,2,0,1,1-2-2.29A2.15,2.15,0,0,1,360.4,306.76Z"/><path class="cls-4" d="M359.72,268.46H358.6c-2.89-.78-11.42-2.6-19.42.39l-.15-.4c0-5.36,4.64-9.7,10.35-9.7S359.72,263.1,359.72,268.46Z"/><path class="cls-2" d="M330.45,411.53c-1.63-.73-3.15-2.4-2.11-4.6,1.44-3,4.86-2.39,7.47,0a8.64,8.64,0,0,0,5,2.46c.71.13,1.51.27,2.49.48a12.64,12.64,0,0,1,5.84,3.49l1.37-.23c1,1.22,2.86,3.06,8.83,8.95,2.09,2.06,1.39,8.84-4.75,8.7-4.08-.09-6.08.32-12.33,0s-8.86-1.12-10-4.08l-.17-.43a3.12,3.12,0,0,0,2.25-2.4c.55-2.59-3.55-3.45-7-5h0l-1.05-.54a1.83,1.83,0,0,1-.75-2.5l.06-.1A1.81,1.81,0,0,1,328,415l-.85-.43a1.78,1.78,0,0,1-1-1.58,1.88,1.88,0,0,1,.09-.57,1.76,1.76,0,0,1,1.9-1.19Z"/><path class="cls-2" d="M350.49,413.13l-1.37.23a12.64,12.64,0,0,0-5.84-3.49c-1-.21-1.78-.35-2.49-.48a20.51,20.51,0,0,1,4-5.44s3.3,5.13,4.77,7.81A10.23,10.23,0,0,0,350.49,413.13Z"/><path class="cls-2" d="M327.33,418.89c3.41,1.53,7.51,2.39,7,5a3.12,3.12,0,0,1-2.25,2.4,12.41,12.41,0,0,1-3.7.43v.11a2.21,2.21,0,0,0-.94,4.2,2.25,2.25,0,0,0,.94.21h.08l1.92,0a2.2,2.2,0,1,1-4.33.82c-4.32-1.66-6.49-3.87-8.38-9.95s-1.37-9.13,1.46-12.27a7.12,7.12,0,0,0,1.9-5.73c-.09-1.63-.45-3.51-.82-5.9-.87-5.64,1.09-5.21,8.69-6.51A51.24,51.24,0,0,0,336,390a31.14,31.14,0,0,0,4.83-1.95c1.34-.76,2.7-1.61,4-2.51,0,0,6.89,5.25,8.47,12.36-2.45,1.51-5,3.16-6.64,4.45a22.82,22.82,0,0,0-1.83,1.61,20.51,20.51,0,0,0-4,5.44,8.64,8.64,0,0,1-5-2.46c-2.61-2.39-6-3-7.47,0-1,2.2.48,3.87,2.11,4.6l-2.27-.29a1.76,1.76,0,0,0-1.9,1.19,1.88,1.88,0,0,0-.09.57,1.78,1.78,0,0,0,1,1.58l.85.43a1.81,1.81,0,0,0-2.41.73l-.06.1a1.83,1.83,0,0,0,.75,2.5l1.05.54Z"/><path d="M342.28,306.51a2,2,0,1,1-2-2.28A2.16,2.16,0,0,1,342.28,306.51Z"/><path class="cls-1" d="M335.81,389.34l.17.65a51.24,51.24,0,0,1-7.12,1.74c-7.6,1.3-9.56.87-8.69,6.51.37,2.39.73,4.27.82,5.9L309.6,391.29c-1.7-1.73-3.33-3.44-4.89-5.11a202.24,202.24,0,0,1-15.18-18.27,118.45,118.45,0,0,1-11.17-18,51.67,51.67,0,0,1-3.47-9.81,12,12,0,0,1,4.37-12.5l5-3.81a12,12,0,0,1,7.26-2.44h12.13a21.64,21.64,0,0,1-1.45,2.26c-2.49,3.44-3,7.09-2.67,13.59,0,0-.09,5.89,10.06,16.2.95,1,1.82,1.83,2.61,2.61,3.54,3.48,5.61,5.28,7.53,7.42h0c2.21,2.45,4.23,5.36,8.09,11.77Z"/><path class="cls-2" d="M329.28,427a2.2,2.2,0,0,1-.86,4.2h-.08a2.25,2.25,0,0,1-.94-.21,2.21,2.21,0,0,1,1.88-4Z"/><path class="cls-2" d="M327.29,305a91.58,91.58,0,0,1-1.23,13.77l-.57,7.55c-.21,1.67-.43,3.05-.67,4.19-1.49,7.29-3.33,4.79-4.43,5.73,0,0-4.17,14.16-8.18,19.8-.79-.78-1.66-1.64-2.61-2.61-10.15-10.31-10.06-16.2-10.06-16.2-.32-6.5.18-10.15,2.67-13.59a21.64,21.64,0,0,0,1.45-2.26,28.32,28.32,0,0,0,2.31-5.19c.42-1.25.72-2.61,1.17-3.77,4.34-11.22,5.07-19.76,20.05-22.3a34.11,34.11,0,0,0,1.3,6.54l1.18.22a23.61,23.61,0,0,0-.24,5.83c0,.19,0,.35.05.48s0,.21,0,.27a.18.18,0,0,1,0,.05,8.58,8.58,0,0,0,.14,1.19l-.22,0c.72,3.63-.87,2.29-.87,2.29A8.47,8.47,0,0,1,327.29,305Z"/><path class="cls-2" d="M294.26,433.86l-4.15,5.37a3.12,3.12,0,0,1-2.45,1.2,1.17,1.17,0,0,1-1.17-1.17,1.06,1.06,0,0,1,.13-.52l3.07-6.56-6,7.33a2.9,2.9,0,0,1-2.13.92,1.19,1.19,0,0,1-1.19-1.2,1.17,1.17,0,0,1,.34-.83l1.86-2.48h0l-9.86.85a1.15,1.15,0,0,1-1.16-.72,1.24,1.24,0,0,1-.08-.41,1.14,1.14,0,0,1,.9-1.12c3.11-.68,8.55-1.73,12.14-3.42,0,0,7.38-2.79,7.75-4.78s-3.83-36.58-2.69-58.41h0a202.24,202.24,0,0,0,15.18,18.27s-.1,7-1.18,22a87.5,87.5,0,0,0,.54,16.37,5.72,5.72,0,0,0,2.73,4.36,17.53,17.53,0,0,0,3.14.85l3.54,1.31a1.53,1.53,0,0,1,1.21,1.3l.17,1.16a1.41,1.41,0,0,0,.17.5l.57,1.09a1.75,1.75,0,0,1,.21.85,1.8,1.8,0,0,1-3.36.89l-1.24-2.16-.08,0-6.51-.18c-3.34,0-4.87,0-5.38.89l-2,3.63a2.66,2.66,0,0,1-2.33,1.38,1.38,1.38,0,0,1-1.38-1.31V439a1.21,1.21,0,0,1,0-.19Z"/><path class="cls-5" d="M282.52,435.92l-9.86.85a1.15,1.15,0,0,1-1.16-.72,1.24,1.24,0,0,1-.08-.41,1.14,1.14,0,0,1,.9-1.12c3.11-.68,8.55-1.73,12.14-3.42,0,0,7.38-2.79,7.75-4.78s-3.83-36.58-2.69-58.41"/><path class="cls-5" d="M311.13,434.71l-6.51-.18c-3.34,0-4.87,0-5.38.89l-2,3.63a2.66,2.66,0,0,1-2.33,1.38,1.38,1.38,0,0,1-1.38-1.31V439a1.21,1.21,0,0,1,0-.19l.7-5-4.15,5.37a3.12,3.12,0,0,1-2.45,1.2,1.17,1.17,0,0,1-1.17-1.17,1.06,1.06,0,0,1,.13-.52l3.07-6.56-6,7.33a2.9,2.9,0,0,1-2.13.92,1.19,1.19,0,0,1-1.19-1.2,1.17,1.17,0,0,1,.34-.83l1.86-2.48,2.52-3.36"/><path class="cls-5" d="M310.49,433.4l.72,1.26,1.24,2.16a1.8,1.8,0,0,0,3.36-.89,1.75,1.75,0,0,0-.21-.85L315,434a1.41,1.41,0,0,1-.17-.5l-.17-1.16a1.53,1.53,0,0,0-1.21-1.3l-3.54-1.31a17.53,17.53,0,0,1-3.14-.85,5.72,5.72,0,0,1-2.73-4.36,87.5,87.5,0,0,1-.54-16.37c1.08-14.93,1.18-22,1.18-22"/><line class="cls-5" x1="294.26" y1="433.86" x2="294.65" y2="432.42"/><path class="cls-5" d="M319.75,363.45c2.21,2.45,4.23,5.36,8.09,11.77l8,14.12"/><path class="cls-5" d="M327.19,290.1c-15,2.54-15.71,11.08-20.05,22.3-.45,1.16-.75,2.52-1.17,3.77a28.32,28.32,0,0,1-2.31,5.19,21.64,21.64,0,0,1-1.45,2.26c-2.49,3.44-3,7.09-2.67,13.59,0,0-.09,5.89,10.06,16.2.95,1,1.82,1.83,2.61,2.61,3.54,3.48,5.61,5.28,7.53,7.42"/><path class="cls-5" d="M339,268.46c0-5.36,4.64-9.7,10.35-9.7s10.34,4.34,10.34,9.7"/><path class="cls-5" d="M328.49,296.64a34.11,34.11,0,0,1-1.3-6.54c-.55-5.25-.1-12.48,5.14-17.15a21.38,21.38,0,0,1,6.85-4.09c8-3,16.53-1.17,19.42-.39.66.18,1,.3,1,.3,11,4.41,12.53,13.31,12,19.74A28.75,28.75,0,0,1,370,296"/><path class="cls-5" d="M370,297.91c.63-1.06,2-2.72,2.65,1a16,16,0,0,1-.5,4.59,9.44,9.44,0,0,1-1.66,3.53s-1.54,1.41-1-2.25"/><path class="cls-5" d="M328.36,297.44c-.74-.93-1.86-1.68-2.3,1.55a15.58,15.58,0,0,0,1.23,6,8.47,8.47,0,0,0,1.28,2s1.59,1.34.87-2.29"/><path class="cls-5" d="M329.52,303.49a8.58,8.58,0,0,0,.14,1.19c.54,3.15,2.43,8.86,3.26,11.92,2.47,6.17,6.87,11.93,16.48,12.23,0,0,13.43.8,16.89-12.53.65-2.47,2.37-7.57,2.91-11.57.05-.33.08-.64.11-1l.25-4,.11-1.84.06-.91"/><line class="cls-5" x1="329.48" y1="303.17" x2="329.51" y2="303.44"/><line class="cls-5" x1="328.86" y1="297.62" x2="329.43" y2="302.69"/><path class="cls-5" d="M351.09,315.85a4.29,4.29,0,0,1-4.44-.12"/><polyline class="cls-5" points="344.36 322.28 345.3 322.66 348.26 321.79 349.37 322.47 350.6 321.82 353.25 322.76 354.11 322.54"/><path class="cls-5" d="M312.21,356c4-5.64,8.18-19.8,8.18-19.8,1.1-.94,2.94,1.56,4.43-5.73.24-1.14.46-2.52.67-4.19l.57-7.55A91.58,91.58,0,0,0,327.29,305v0"/><path class="cls-5" d="M303.67,321.36H291.53a12,12,0,0,0-7.26,2.44l-5,3.81a12,12,0,0,0-4.37,12.5,51.67,51.67,0,0,0,3.47,9.81,118.45,118.45,0,0,0,11.17,18,202.24,202.24,0,0,0,15.18,18.27c1.56,1.67,3.19,3.38,4.89,5.11L321,404.14"/><path class="cls-5" d="M319.74,363.44h0a65.6,65.6,0,0,0,27.64-3.11,8.23,8.23,0,0,1,4.44,0,55.69,55.69,0,0,0,16.63,2.13"/><path class="cls-5" d="M372.61,330c-4.15,6-12.09,8.67-23.38,8.61,0,0-21.07,1.3-24.41-8.15"/><path class="cls-5" d="M372.16,303.49s1.31,5.53.51,14.85a54.68,54.68,0,0,0-.06,11.69"/><path class="cls-5" d="M411.56,437.57l9.86.84a1.14,1.14,0,0,0,1.16-.71,1.25,1.25,0,0,0,.08-.42,1.13,1.13,0,0,0-.9-1.11c-3.11-.69-8.55-1.73-12.14-3.42,0,0-7.38-2.79-7.75-4.79s3.67-36.27,2.53-58.09"/><path class="cls-5" d="M383,436.36c5.09-.16,6.51-.19,6.51-.19,3.34,0,4.87,0,5.38.9l2,3.62a2.66,2.66,0,0,0,2.33,1.38,1.37,1.37,0,0,0,1.38-1.3v-.08a1.21,1.21,0,0,0,0-.19l-.7-5,4.15,5.36a3.09,3.09,0,0,0,2.45,1.2,1.16,1.16,0,0,0,1.17-1.16,1.06,1.06,0,0,0-.13-.52l-3.07-6.56,6,7.33a2.93,2.93,0,0,0,2.13.91,1.19,1.19,0,0,0,1.19-1.19,1.21,1.21,0,0,0-.34-.84l-1.85-2.47L409,434.21"/><path class="cls-5" d="M383.59,435l-.73,1.27-1.23,2.15a1.8,1.8,0,0,1-3.36-.89,1.75,1.75,0,0,1,.21-.85l.57-1.08a1.54,1.54,0,0,0,.17-.51l.17-1.16a1.53,1.53,0,0,1,1.21-1.29l3.54-1.31a18.4,18.4,0,0,0,3.14-.85,5.76,5.76,0,0,0,2.73-4.36,87.61,87.61,0,0,0,.54-16.38c-1.08-14.93-1.69-29.42-1.69-29.42"/><line class="cls-5" x1="399.82" y1="435.51" x2="399.43" y2="434.07"/><path class="cls-5" d="M398.15,321.48l-.13-.12a54.61,54.61,0,0,1-4.4-7.76c-5.15-12-7.52-24.41-22-25.09h0"/><path class="cls-5" d="M377.91,332.92s-4.39,12.1-8.18,14.49c-2.8,1.76-8.66,3.37-14.16,3a57.67,57.67,0,0,0-12.18.4c-5.41.76-11.13,0-13.76-1.63-3.8-2.39-9.24-12.94-9.24-12.94"/><path class="cls-5" d="M329.52,303.49a.18.18,0,0,0,0-.05c0-.06,0-.15,0-.27s0-.29-.05-.48a23.61,23.61,0,0,1,.24-5.83c.51-2.78,1.76-5.63,4.64-6.76,6.34-2.49,10.78-.66,15.07-1.07s10.3-1.32,14.16,1.07a12.35,12.35,0,0,1,5.33,5.95,10.66,10.66,0,0,1,.69,3.68,12.88,12.88,0,0,1-.09,1.93"/><path class="cls-5" d="M382.14,352.93a77.23,77.23,0,0,1-4.22-20c0-.29-.06-.59-.08-.89,0,0-4.46,8.85-5.23-2"/><path class="cls-5" d="M322.35,423.87a5.59,5.59,0,0,0,4.56,2.83h1.43a12.41,12.41,0,0,0,3.7-.43,3.12,3.12,0,0,0,2.25-2.4c.55-2.59-3.55-3.45-7-5a15.63,15.63,0,0,1-1.68-.88,4.3,4.3,0,0,1-1.73-3.26"/><path class="cls-5" d="M349.61,413.88s-.17-.2-.49-.52a12.64,12.64,0,0,0-5.84-3.49c-1-.21-1.78-.35-2.49-.48a8.64,8.64,0,0,1-5-2.46c-2.61-2.39-6-3-7.47,0-1,2.2.48,3.87,2.11,4.6a4.25,4.25,0,0,0,1.76.42l2.13,1.93"/><path class="cls-5" d="M340.79,409.39a20.51,20.51,0,0,1,4-5.44,22.82,22.82,0,0,1,1.83-1.61c1.65-1.29,4.19-2.94,6.64-4.45,3.69-2.28,7.18-4.25,7.18-4.25l24.06-10.82q2.26-1.26,4.31-2.46a131.67,131.67,0,0,0,15.54-10.49c8.49-6.77,12.46-12.25,17-17.16,2.55-2.79,5.21-9.65,5.94-12.6a12,12,0,0,0-4.37-12.5l-5-3.81a12,12,0,0,0-7.26-2.44H398c6,14.19-4.45,22.67-4.45,22.67a65.17,65.17,0,0,1-11.43,8.9c-4.64,3-9.23,5.82-13.29,9.92a36.52,36.52,0,0,0-5.46,7,135.78,135.78,0,0,1-18.55,15.66c-1.33.9-2.69,1.75-4,2.51A31.14,31.14,0,0,1,336,390a51.24,51.24,0,0,1-7.12,1.74c-7.6,1.3-9.56.87-8.69,6.51.37,2.39.73,4.27.82,5.9a7.12,7.12,0,0,1-1.9,5.73c-2.83,3.14-3.35,6.18-1.46,12.27s4.06,8.29,8.38,9.95"/><path class="cls-5" d="M344.84,385.53s6.89,5.25,8.47,12.36"/><path class="cls-5" d="M344.84,404s3.3,5.13,4.77,7.81a10.23,10.23,0,0,0,.88,1.37c1,1.22,2.86,3.06,8.83,8.95,2.09,2.06,1.39,8.84-4.75,8.7-4.08-.09-6.08.32-12.33,0s-8.86-1.12-10-4.08"/><path class="cls-5" d="M330.45,411.53l-2.27-.29a1.76,1.76,0,0,0-1.9,1.19,1.88,1.88,0,0,0-.09.57,1.78,1.78,0,0,0,1,1.58l.85.43.72.36,3.49,1.83"/><path class="cls-5" d="M328,415a1.81,1.81,0,0,0-2.41.73l-.06.1a1.83,1.83,0,0,0,.75,2.5l1.05.54"/><path class="cls-5" d="M328.34,426.81a2.21,2.21,0,0,1,.08,4.41h-.08a2.25,2.25,0,0,1-.94-.21,2.21,2.21,0,0,1,.94-4.2Z"/><path class="cls-5" d="M330.34,431.27a2.2,2.2,0,1,1-4.33.82"/></svg>