<svg id="Layer_1" data-name="Layer 1" xmlns="http://www.w3.org/2000/svg" viewBox="0 0 700 700"><defs><style>.cls-1{fill:#feae63;}.cls-2{fill:#99abcc;}.cls-3{fill:#c4e7f9;}.cls-4{fill:#120c0c;}.cls-5{fill:none;stroke:#000;stroke-linecap:round;stroke-linejoin:round;stroke-width:2.3px;}</style></defs><title>Yoga_poses_2020_color</title><path class="cls-1" d="M501,533l.3.73A7.42,7.42,0,0,0,501,533Zm-5-7.44a5,5,0,0,0-2.4-1.26c-2.26-.57-3.47-2.39-8.8-5.46-2-1.16-4.76-2.63-8.29-4.32a48.17,48.17,0,0,0,8.17-12.67c4.07,2.52,7.37,4.07,10,4.33,4.69.47,5.39,2.11,7.74,3.52s9.61,8.43,9.61,8.43l5.52,5.71a4.57,4.57,0,0,1,1.28,3.17,4.53,4.53,0,0,0,.9,2.72l2,2.64a3.75,3.75,0,0,1,.44,3.67,3.72,3.72,0,0,1-3.42,2.26h-.76a3,3,0,0,1-2.3-1.07,2.16,2.16,0,0,1-.86.17,2.38,2.38,0,0,1-2-1.06l-4.07-6.06,2.86,4.32a1.76,1.76,0,0,1-2.89,2l-3.77-5.13,1.28,3.26a2.08,2.08,0,0,1-3.82,1.62l-1-2.46c.32.94.55,2.34-.56,2.9-1.74.87-3.26-1.85-4.57-4.46a3,3,0,0,1,1.2-4A4.13,4.13,0,0,0,496,525.57Z"/><path class="cls-2" d="M390.29,375.53c-10.82,10.81-13.72,6.06-21.63,11.08s-4.48,14-4.48,14l.55.68a42.49,42.49,0,0,0,8.08,7.77c3.6,2.65,8.44,6.36,10.62,8.69,2.84,3,9.72,10.75,12.76,14.16a10,10,0,0,0,3.54,2.55,10,10,0,0,1,2.93,1.92l1.11,1a3.78,3.78,0,0,0,5.46-.26s11.84,15.62,16.77,21.24,9.14,9.38,21.79,15.47S463.73,487,473.34,494c4.3,3.15,8.09,5.82,11.37,7.86a48.17,48.17,0,0,1-8.17,12.67A279.28,279.28,0,0,0,445,502c-20.86-7-26.49-18.52-32.11-23.44s-8.44-7.5-24.14-16.64-41.26-28.6-50.87-36.33-14.06-15.71-22-19.93S304.34,395.32,295,391.34c0,0,1.56-9.46,5-15.94s8.25-17.13,8.9-24.08.9-18.72.9-18.72a170.6,170.6,0,0,0,17.71.8c10.55-.06,12.13,2.14,18.46,3.81s23.21-1.46,34.55-6.23,51.16-18.3,74.63-10.61c0,0,9.49,5.32,9.49,15.6s-10.28,15.56-16.35,21.63S409.27,385,403.74,390l-1.62,1.48c-9.89-2.09-15.94-10.12-16.24-10.53C387.38,379.25,388.87,377.43,390.29,375.53Z"/><path class="cls-1" d="M409.32,435.16a1.59,1.59,0,0,1-.09,2,3.78,3.78,0,0,1-5.46.26l-1.11-1a10,10,0,0,0-2.93-1.92,10,10,0,0,1-3.54-2.55c-3-3.41-9.92-11.12-12.76-14.16-2.18-2.33-7-6-10.62-8.69a42.49,42.49,0,0,1-8.08-7.77l-.55-.68a129.48,129.48,0,0,0,21.7-19.6c.3.41,6.35,8.44,16.24,10.53-5.07,4.68-10.1,10.18-8.67,18,0,0,4.3,9.49,8.7,14.46a11.25,11.25,0,0,1,1.82,2.72l.91,1.94a11.81,11.81,0,0,0,1,1.75Z"/><path class="cls-3" d="M309.81,332.6s-.24,11.77-.9,18.72-5.43,17.6-8.9,24.08-5,15.94-5,15.94c-9.38-4-13.36-7.5-18.05-7.74s-15.24,2.58-29.49,2.81a21.64,21.64,0,0,0-9.25,2.15c-10.52-2.38-13.63-10.5-13.63-10.5,14.38-30.95,0-57.38,0-57.38,11.43-6.33,20.94-6.58,27.39-6.79.65.16,1.32.31,2,.46,25.84,5.54,32.44,10.9,39.56,14.55C297.18,330.78,303.3,331.93,309.81,332.6Z"/><path class="cls-1" d="M213.58,146.54c0-.68.28-4.3,2-4.21,2,.09,2.1,1.37,2.42,6.41S218,159.87,219.29,160s1.11-2,1.16-9,1.74-6.42,1.74-6.42,1.65-.07,1.64,3.79.12,6.75-.08,10.46.79,5.32,1.35,3.46,1.85-12,3.87-11.94,1.42,2.78,1.12,4.45-1.63,6.63-1.75,8.09-.3,9.56-1.52,15.32a71.42,71.42,0,0,0-1.49,17.57s1.83,15.93,3.13,27.93a141.41,141.41,0,0,1,.26,31.59c-1,12,1.89,21.77-1,40,0,0,.35,12.74,24.2,18.53-6.45.21-16,.46-27.39,6.79-3.29.23-22.89,5.72-22.89,5.72-1.21-9.87,1.48-22.78,4.09-30.87a164.71,164.71,0,0,0,6-30c1.05-9.92-3.39-17-2.35-24.54s3.79-43.6,3.79-43.6c-.91-8.4-2-10.81-7.41-17a7.33,7.33,0,0,1-1.86-4.43c-.12-2.66-.55-4-.85-6.67s-1.58-8.86.36-9,3,1.89,3,4.92a19.79,19.79,0,0,0,1.21,6,11,11,0,0,0,2.6-4c.55-2.14-.34-15.72.23-19.42s2.28-4,2.69-3.62A6,6,0,0,1,213.58,146.54Z"/><path class="cls-1" d="M192.4,534.09l-.07-.12-16,.54A1.67,1.67,0,0,1,174.5,533c0-.05,0-.09,0-.14a1.67,1.67,0,0,1,1.41-1.64l17.49-2.67,10.66-2.35c7-1.52,5.9-1.82,5.55-13.27-.38-12.54-8-42.94-6.51-49.46s1.69-13.75,1.93-29.91-1.45-9.65-3.36-22,1.43-27,1.43-27a15.08,15.08,0,0,0-2.87-11.11l24.33,4.62s3.11,8.12,13.63,10.5a22.92,22.92,0,0,0-10.33,10.35s-1.39,4-.88,13.93S222.38,455,222,461.94s1.19,25.16,1,33.32-3.12,38.07-3.12,38.07c-.6,4.7-16.34,1.24-18.29,1.77s-6,2.71-8.21,2.78c-2.05.07-3.85-2.35-1-3.78Z"/><path class="cls-1" d="M164,367.83c-5.38-.55-6-6-6-6-1.35-7-12.58-13.13-12.58-13.13C130.74,342.93,143,326.4,143,326.4h0a32.42,32.42,0,0,1,9.05-1.8s1.39-.19,3.63-.45,4.41,1.69,8.87,1,14.34,4.3,21.11,6.61c0,0,6.86,2,3.77,10.73l8.23.73c1.56-3.26,5.22-6.93,4-16.79,0,0,19.6-5.49,22.89-5.72,0,0,14.38,26.43,0,57.38l-24.33-4.62a17.77,17.77,0,0,0-5.14-4.77c-3.31-1.87-8.53-2.94-11.77-2a59,59,0,0,0-7.2,2.94l0,0s-5-2.64-9-2l-.51.11A9.16,9.16,0,0,1,164,367.83Zm1.16-38.56c.07-.55-1.12-1.16-2.66-1.37s-2.84.08-2.91.63,1.11,1.16,2.65,1.36S165.05,329.81,165.13,329.27ZM163.27,339c.1-.7-1.43-1.48-3.4-1.74s-3.65.09-3.74.8,1.43,1.49,3.4,1.75S163.18,339.72,163.27,339Z"/><path class="cls-4" d="M176.09,369.62l0,0c-4.41,2-9,4-14.13,3.86a37.61,37.61,0,0,1-12.87-2.88,28,28,0,0,1-12.54-10,25.94,25.94,0,0,1-2.58-4.85s-5.56-16.46,5.65-27.24c0,0,.64-1.08,3.36-2.14h0s-12.26,16.53,2.39,22.34c0,0,11.23,6.1,12.58,13.13,0,0,.62,5.41,6,6a9.16,9.16,0,0,0,2.65-.07l.51-.11C171.11,367,176.09,369.62,176.09,369.62Z"/><path d="M162.47,327.9c1.54.21,2.73.82,2.66,1.37s-1.38.82-2.92.62-2.72-.81-2.65-1.36S160.94,327.7,162.47,327.9Z"/><path d="M159.87,337.27c2,.26,3.5,1,3.4,1.74s-1.76,1.07-3.74.81-3.49-1.05-3.4-1.75S157.9,337,159.87,337.27Z"/><path class="cls-4" d="M149.11,370.63l-.25,1.08c-1.94,4.61-6.42,6.47-13,2.18-6.92-4.49-3.32-11.9-.13-12.65l.88-.62A28,28,0,0,0,149.11,370.63Z"/><path class="cls-5" d="M206.87,172s.32-.3.77-.78a11,11,0,0,0,2.6-4c.55-2.14-.34-15.72.23-19.42s2.28-4,2.69-3.62a6,6,0,0,1,.42,2.36c.32,4.14.33,12.37.67,13.68"/><path class="cls-5" d="M213.58,146.65v-.11c0-.68.28-4.3,2-4.21,2,.09,2.1,1.37,2.42,6.41S218,159.87,219.29,160s1.11-2,1.16-9,1.74-6.42,1.74-6.42,1.65-.07,1.64,3.79.12,6.75-.08,10.46.79,5.32,1.35,3.46,1.85-12,3.87-11.94,1.42,2.78,1.12,4.45-1.63,6.63-1.75,8.09-.3,9.56-1.52,15.32a71.42,71.42,0,0,0-1.49,17.57s1.83,15.93,3.13,27.93a141.41,141.41,0,0,1,.26,31.59c-1,12,1.89,21.77-1,40,0,0,.35,12.74,24.2,18.53.65.16,1.32.31,2,.46,25.84,5.54,32.44,10.9,39.56,14.55,3.67,1.88,9.79,3,16.3,3.7a170.6,170.6,0,0,0,17.71.8c10.55-.06,12.13,2.14,18.46,3.81s23.21-1.46,34.55-6.23,51.16-18.3,74.63-10.61c0,0,9.49,5.32,9.49,15.6s-10.28,15.56-16.35,21.63S409.27,385,403.74,390l-1.62,1.48c-5.07,4.68-10.1,10.18-8.67,18,0,0,4.3,9.49,8.7,14.46a11.25,11.25,0,0,1,1.82,2.72l.91,1.94a11.81,11.81,0,0,0,1,1.75l3.41,4.74a1.59,1.59,0,0,1-.09,2,3.78,3.78,0,0,1-5.46.26l-1.11-1a10,10,0,0,0-2.93-1.92,10,10,0,0,1-3.54-2.55c-3-3.41-9.92-11.12-12.76-14.16-2.18-2.33-7-6-10.62-8.69a42.49,42.49,0,0,1-8.08-7.77l-.55-.68s-3.43-9,4.48-14,10.81-.27,21.63-11.08c0,0,16.87-17.67,25.84-22.94s21.62-8.71,27.43-8.44"/><path class="cls-5" d="M148.86,371.71c-1.94,4.61-6.42,6.47-13,2.18-6.92-4.49-3.32-11.9-.13-12.65"/><path class="cls-5" d="M161.93,332.79a4,4,0,0,0,3.79-.25l5.41-1.56.18,4.84"/><path class="cls-5" d="M167.13,367.65a7.92,7.92,0,0,0,5.3-3.82s1.21-3.06-2.7-2.08"/><path class="cls-5" d="M162.92,361.69s-4.59,4.09,1.05,6.14a9.16,9.16,0,0,0,2.65-.07"/><path class="cls-5" d="M164,367.83c-5.38-.55-6-6-6-6-1.35-7-12.58-13.13-12.58-13.13C130.74,342.93,143,326.4,143,326.4"/><path class="cls-5" d="M176.09,369.62s-5-2.64-9-2l-.51.11"/><path class="cls-5" d="M175.55,355.85s6-1,6.91-6.33"/><path class="cls-5" d="M213.19,362.36s-14.39,1.1-23.05,1.14"/><path class="cls-5" d="M201.66,326.4s19.6-5.49,22.89-5.72"/><path class="cls-5" d="M192.33,534l-16,.54A1.67,1.67,0,0,1,174.5,533c0-.05,0-.09,0-.14a1.67,1.67,0,0,1,1.41-1.64l17.49-2.67,10.66-2.35c7-1.52,5.9-1.82,5.55-13.27-.38-12.54-8-42.94-6.51-49.46s1.69-13.75,1.93-29.91-1.45-9.65-3.36-22,1.43-27,1.43-27a15.08,15.08,0,0,0-2.87-11.11,17.77,17.77,0,0,0-5.14-4.77c-3.31-1.87-8.53-2.94-11.77-2a59,59,0,0,0-7.2,2.94c-4.41,2-9,4-14.13,3.86a37.61,37.61,0,0,1-12.87-2.88,28,28,0,0,1-12.54-10,25.94,25.94,0,0,1-2.58-4.85s-5.56-16.46,5.65-27.24c0,0,.64-1.08,3.36-2.14a32.42,32.42,0,0,1,9.05-1.8s1.39-.19,3.63-.45,4.41,1.69,8.87,1,14.34,4.3,21.11,6.61c0,0,6.86,2,3.77,10.73l8.23.73c1.56-3.26,5.22-6.93,4-16.79s1.48-22.78,4.09-30.87a164.71,164.71,0,0,0,6-30c1.05-9.92-3.39-17-2.35-24.54s3.79-43.6,3.79-43.6c-.91-8.4-2-10.81-7.41-17a7.33,7.33,0,0,1-1.86-4.43c-.12-2.66-.55-4-.85-6.67s-1.58-8.86.36-9,3,1.89,3,4.92a19.79,19.79,0,0,0,1.21,6"/><path class="cls-5" d="M501.37,533.91c.32.94.55,2.34-.56,2.9-1.74.87-3.26-1.85-4.57-4.46a3,3,0,0,1,1.2-4,4.13,4.13,0,0,0-1.41-2.77,5,5,0,0,0-2.4-1.26c-2.26-.57-3.47-2.39-8.8-5.46-2-1.16-4.76-2.63-8.29-4.32A279.28,279.28,0,0,0,445,502c-20.86-7-26.49-18.52-32.11-23.44s-8.44-7.5-24.14-16.64-41.26-28.6-50.87-36.33-14.06-15.71-22-19.93S304.34,395.32,295,391.34s-13.36-7.5-18.05-7.74-15.24,2.58-29.49,2.81a21.64,21.64,0,0,0-9.25,2.15,22.92,22.92,0,0,0-10.33,10.35s-1.39,4-.88,13.93S222.38,455,222,461.94s1.19,25.16,1,33.32-3.12,38.07-3.12,38.07c-.6,4.7-16.34,1.24-18.29,1.77s-6,2.71-8.21,2.78c-2.05.07-3.85-2.35-1-3.78h0a7,7,0,0,1,1-.42,17,17,0,0,0,4.55-2.13,4.11,4.11,0,0,1,1.24-.57l3.15-.83"/><path class="cls-5" d="M501,533h0a7.42,7.42,0,0,1,.3.73"/><line class="cls-5" x1="501.31" y1="533.74" x2="501.01" y2="533.01"/><line class="cls-5" x1="501.31" y1="533.74" x2="501.37" y2="533.91"/><path class="cls-5" d="M512.64,528.34l4,5.23a2.39,2.39,0,0,1-.37,3.29,2.1,2.1,0,0,1-.66.38,2.16,2.16,0,0,1-.86.17,2.38,2.38,0,0,1-2-1.06l-4.07-6.06,2.86,4.32a1.76,1.76,0,0,1-2.89,2l-3.77-5.13,1.28,3.26a2.08,2.08,0,0,1-3.82,1.62l-1-2.46"/><path class="cls-5" d="M515.64,537.24a3,3,0,0,0,2.3,1.07h.76a3.72,3.72,0,0,0,3.42-2.26,3.75,3.75,0,0,0-.44-3.67l-2-2.64a4.53,4.53,0,0,1-.9-2.72,4.57,4.57,0,0,0-1.28-3.17L512,518.14s-7.27-7-9.61-8.43-3.05-3-7.74-3.52c-2.59-.26-5.89-1.81-10-4.33-3.28-2-7.07-4.71-11.37-7.86-9.61-7-12.89-14.06-25.55-20.16S430.92,464,426,458.37s-16.77-21.24-16.77-21.24"/><path class="cls-5" d="M476.54,514.53a48.17,48.17,0,0,0,8.17-12.67"/><line class="cls-5" x1="496.03" y1="525.57" x2="491.68" y2="519.56"/><line class="cls-5" x1="501" y1="533" x2="500.12" y2="531.79"/><path class="cls-5" d="M364.18,400.58a129.48,129.48,0,0,0,21.7-19.6c1.5-1.73,3-3.55,4.41-5.45"/><path class="cls-5" d="M385.87,381h0c.3.41,6.35,8.44,16.24,10.53"/><path class="cls-5" d="M295,391.34s1.56-9.46,5-15.94,8.25-17.13,8.9-24.08.9-18.72.9-18.72"/><path class="cls-5" d="M200.21,373.44h0l24.33,4.62c14.38-30.95,0-57.38,0-57.38"/><path class="cls-5" d="M224.55,378.06s3.11,8.12,13.63,10.5"/><path class="cls-5" d="M224.55,320.68c11.43-6.33,20.94-6.58,27.39-6.79"/></svg>