<svg id="Layer_1" data-name="Layer 1" xmlns="http://www.w3.org/2000/svg" viewBox="0 0 700 700"><defs><style>.cls-1{fill:#feae63;}.cls-2{fill:#392328;}.cls-3{fill:#99abcc;}.cls-4{fill:#c4e7f9;}.cls-5{fill:none;stroke:#000;stroke-linecap:round;stroke-linejoin:round;stroke-width:2.3px;}</style></defs><title>Yoga_poses_2020_color</title><path class="cls-1" d="M218.13,235.47v2.26a1.57,1.57,0,0,1-1.58,1.58,1.56,1.56,0,0,1-1.48-1.07A1.28,1.28,0,0,1,215,238l-.34-2.3a1.3,1.3,0,0,1,1.28-1.49h.89a1.31,1.31,0,0,1,1.27,1A1.09,1.09,0,0,1,218.13,235.47Z"/><path class="cls-1" d="M579.58,478.23l-.52.26a5.31,5.31,0,0,1-1.8.38c-3.16.19-4.41-2.48-3.76-4.89a5.37,5.37,0,0,1,.5-1.19c1.52-2.61,5-1.52,5-1.52s8.91-3,8.69,5.21c-.14,5.47-2.48,11.33-4,14.65a5.18,5.18,0,0,1-4.54,3h-.57a1.58,1.58,0,0,0,1.71-1.59,1.79,1.79,0,0,0-1.79-1.78,1.75,1.75,0,0,0-.4,0l-.14-.47a1.52,1.52,0,0,0,.74-1.29,1.62,1.62,0,0,0-1.67-1.56,1.57,1.57,0,0,0-.49.07l-.07-.24a2,2,0,0,0,1.37-1.87c0-1.08-.92-1.58-2-1.58a1.57,1.57,0,0,0,1.79-1.64,2,2,0,0,0-1.85-1.95v-.14l3.32-1.68A3.6,3.6,0,0,0,579.58,478.23Z"/><path class="cls-1" d="M562.42,487l-.15.33c-3.69,1.3-6.73.44-10.86-.43s-11.29.21-11.29.21c-4,.79-8.28,1.42-12.78,1.91,2-5,0-17.94,0-17.94,8.63,1.7,23.52,2.85,26.94,1.84,3.83-1.13,5.41-.45,8,0s10.73.9,10.73.9l.5.15c-.65,2.41.6,5.08,3.76,4.89a5.31,5.31,0,0,0,1.8-.38l-3.32,1.68v.14h-.1a2,2,0,0,0-2,2c0,1.08,1,1.64,2.12,1.64-1.08,0-1.91.5-1.91,1.58a2,2,0,0,0,2,2,1.85,1.85,0,0,0,.58-.09l.07.24a1.59,1.59,0,0,0-1.18,1.49,1.62,1.62,0,0,0,1.67,1.56,1.72,1.72,0,0,0,.93-.27l.14.47a1.78,1.78,0,0,0-1.38,1.73,1.67,1.67,0,0,0,1.81,1.59c-5.44,0-7.28-2.52-9.26-3.78A69.5,69.5,0,0,0,562.42,487Z"/><path class="cls-2" d="M580.24,492.57a1.58,1.58,0,0,1-1.71,1.59h0a1.67,1.67,0,0,1-1.81-1.59,1.78,1.78,0,0,1,1.38-1.73,1.75,1.75,0,0,1,.4,0A1.79,1.79,0,0,1,580.24,492.57Z"/><path class="cls-2" d="M578.65,489.08a1.52,1.52,0,0,1-.74,1.29,1.72,1.72,0,0,1-.93.27,1.62,1.62,0,0,1-1.67-1.56,1.66,1.66,0,0,1,1.67-1.56A1.62,1.62,0,0,1,578.65,489.08Z"/><path class="cls-2" d="M577.79,485.48a2,2,0,0,1-1.37,1.87,1.85,1.85,0,0,1-.58.09,2,2,0,0,1-2-2c0-1.08.83-1.58,1.91-1.58S577.79,484.4,577.79,485.48Z"/><path class="cls-2" d="M575.73,480.31a2,2,0,0,1,1.85,1.95,1.57,1.57,0,0,1-1.79,1.64c-1.08,0-2.12-.56-2.12-1.64a2,2,0,0,1,2-2Z"/><path class="cls-3" d="M307.77,415.14c-1.58-5.86-4.16-19.37-8.67-36.07s-6.09-25.94-9.25-35.42-2-7-3.61-21-5.87-16.25-11.28-36.55a192.91,192.91,0,0,0-6-18.36s15.86-8,19.93-8l.52-.34c2.5,3.81,5.15,7.76,7.87,11.79,12.19,18,12.86,31.59,13.31,37.46s2,15.57,5.19,22.33,22.34,40.84,22.34,40.84,23.58,44.24,23.46,60c-.08,11.24,6.32,14.21,6.32,14.21s28.66,8.35,43.32,11.06,42.87.22,49.86,2.93,16.7,3.84,16.7,3.84a192,192,0,0,1,46.7,6.54c.83.22,1.8.44,2.85.64,0,0,2,12.89,0,17.94-25.08,2.75-55.84,1.32-63,1.14-8.47-.22-21.07-.22-30.63.86s-88.83,1.09-97.08.87c-3.86-.1-16.33-.48-31.17-.76,0,0,0-13.35.32-31.27s-9.05-34.12-9.05-34.12C299.42,420.33,307.77,415.14,307.77,415.14Z"/><path class="cls-4" d="M296.71,425.75s9.38,16.2,9.05,34.12-.32,31.27-.32,31.27c-16.88-.3-36.84-.46-50.72.11-13.37.56-21.65-.08-27.61-1.2-8.94-8.91-12.24-21.39-12.24-21.39s16.61-14.33,17.59-44.63l24.9-10.92C270.89,426,296.71,425.75,296.71,425.75Z"/><path class="cls-1" d="M289.42,259.43l-.52.34c-4.07,0-19.93,8-19.93,8-5.16-13.64-11-25.17-13.19-27.72-3.16-3.66-9.48-3.79-14.89-4-3.76-.16-9.8-.1-13.15-.05a6.72,6.72,0,0,0-4.25,1.62l-2.17,1.86L219.51,241l-1.84-2.15a1.62,1.62,0,0,0,.46-1.12v-2.26a1.09,1.09,0,0,0,0-.26l.68-.08,1.12-1.58,1.13-5.42c1.81-4.06,7.9-4.06,16.47-5S250.59,213,259.61,209s11.06,8.8,12.86,18.28C273.88,234.59,280.72,246.17,289.42,259.43Z"/><path class="cls-1" d="M221.62,239.81a1.34,1.34,0,0,1,1.71-.08l3.79,2.84,1.81,8.12a46.8,46.8,0,0,1-.23,18.73s1.77,8.25,2.48,12.41c1.66,9.69,6.77,32.49,7,36.1s1.35,9,.9,17.15.45,12.18,3.16,24.81c2.12,9.91,2.87,27.09,2.67,34.38,0,2.06.6,3.09,2.25,5.44l10.2,13.4L232.46,424l-21.48-6a16.26,16.26,0,0,0,2.69-1.62c5.33-3.91,2.57-17.41,2.16-25.12s4.58-18.76,4.58-23.32-.76-20.09-.65-26.28-2.94-11-2.39-24.65a329,329,0,0,0-1.63-40.29c-.76-5.86-.65-6-2.17-7.6-1.29-1.38-5.82-6.86-7.2-8.53a1.91,1.91,0,0,1-.42-1.12l-.3-7.84a2.24,2.24,0,0,1,0-.58,17.66,17.66,0,0,0,.17-5.07,1,1,0,0,1,1.07-1.1,2.37,2.37,0,0,1,2.1,1.71,43.07,43.07,0,0,1,1.19,6.59s.32,2,1,2.61L211,243l.38-.41a1.91,1.91,0,0,0,.68.13h.13a1.85,1.85,0,0,0,1.72-1.67l.16-1.83h0s-.19,3.13,1.28,4.56h0a2.53,2.53,0,0,0,.52.39l3.67-3.15,1.81-1.54Z"/><path class="cls-1" d="M211,418.05l21.48,6c-1,30.3-17.59,44.63-17.59,44.63l-23.36-16.29c1.71-3.94-4.71-11.49-8.72-16.41l0-.52c3.38.17,7.81-.84,13-4.91,0,0,6.42-4.86,7.34-11.53l1,.14A10.52,10.52,0,0,0,211,418.05Z"/><path class="cls-1" d="M219.51,241l-3.67,3.15a2.53,2.53,0,0,1-.52-.39h0c-1.47-1.43-1.28-4.56-1.28-4.56h0l0-.4a1.2,1.2,0,0,0,0-.38l1-.17a1.56,1.56,0,0,0,1.48,1.07,1.62,1.62,0,0,0,1.12-.46Z"/><path class="cls-1" d="M160.14,419.6c0-.07-.27-.4-.57-1l1.3,1.36-.35.33c-1.15-.3-2.5-.22-.9,2.61,0,0,2.57,3.55,6.08,4.7l-6-1.69a3,3,0,0,0-3.5,1.46c-1.7,3-5.14,9.51-10,19.75,0,0-4.78,13.9-6.36,17.92a43.63,43.63,0,0,1-3,6.52,27.67,27.67,0,0,1,8.8-2.25c3.9-.27,9-.93,13-3.29,11-6.62,19.54-9.45,25.41-9.78s7.59-3.91,7.59-3.91l23.36,16.29s3.3,12.48,12.24,21.39a85,85,0,0,1-13-3.79c-7.82-2.61-19.33-3.26-30.19-.66a170.51,170.51,0,0,1-40.18,5.22c-18.68.43-25.85-.22-28.67-1.31s-5.76-3.91-2.83-10.64c2.36-5.42,10.43-22.15,13.9-28.23,2.79-4.88,16.65-25.32,21.25-32,1.14-1.68.93-4.24.2-6.14l-2.67-7.22a2.36,2.36,0,0,1-.11-1.15L145.9,397a2.3,2.3,0,0,1,.69-1.31l2.38-3.18a1.31,1.31,0,0,1,2.11-.14l.07,0a21.1,21.1,0,0,0-2.19,6C146.62,410,159.67,419.28,160.14,419.6Z"/><path class="cls-1" d="M214.05,238.41a1.2,1.2,0,0,1,0,.38l0,.4-.16,1.83a1.85,1.85,0,0,1-1.72,1.67H212a1.91,1.91,0,0,1-.68-.13,1.86,1.86,0,0,1-1.15-1.59l-.13-2.12a1.27,1.27,0,0,1,1.18-1.34l1.48-.11A1.28,1.28,0,0,1,214.05,238.41Z"/><path class="cls-1" d="M202.16,412.57a11.25,11.25,0,0,1,1,6.43c-.92,6.67-7.34,11.53-7.34,11.53-5.19,4.07-9.62,5.08-13,4.91a12.21,12.21,0,0,1-7.12-2.56c-2.5-1.94-7.46-5.38-9.78-7.56a8.88,8.88,0,0,1-.82-.86L160.87,420l-1.3-1.36v0c-1.91-3.49-6.93-15.59,7.32-26.47,0,0,10.83-8.14,19.75-2.58a42.13,42.13,0,0,1,5.7,4.06l1.46,2.2,3.25,4.92c.16.26.32.53.48.82C199.48,405.1,201.1,410.25,202.16,412.57Zm-15.08-7.24a2.32,2.32,0,1,0-3-.62A2.16,2.16,0,0,0,187.08,405.33ZM172.46,416a2.32,2.32,0,1,0-3-.62A2.16,2.16,0,0,0,172.46,416Z"/><path class="cls-2" d="M159.56,418.62v0c.3.56.53.89.57,1-.47-.32-13.52-9.59-11.18-21.22a21.1,21.1,0,0,1,2.19-6c.25-.48.53-.94.82-1.39,5.64-8.85,16.27-12.38,16.27-12.38,19.11-5.16,24.65,15.55,24.65,15.55a5.22,5.22,0,0,0-.56-.53,42.13,42.13,0,0,0-5.7-4.06c-8.92-5.56-19.75,2.58-19.75,2.58C152.63,403,157.65,415.13,159.56,418.62Z"/><path d="M187.26,402.3a2,2,0,1,1-3-.62A2.16,2.16,0,0,1,187.26,402.3Z"/><path d="M172.64,413a2,2,0,1,1-3-.62A2.16,2.16,0,0,1,172.64,413Z"/><path class="cls-2" d="M168.13,378.3l.11.31S157.61,382.14,152,391l-.36-.24c-3.23-4.28-2.14-10.53,2.43-14S164.91,374,168.13,378.3Z"/><path class="cls-5" d="M151.61,390.75c-3.23-4.28-2.14-10.53,2.43-14s10.87-2.76,14.09,1.52"/><path class="cls-5" d="M160.15,419.61h0c0-.07-.27-.4-.57-1"/><path class="cls-5" d="M159.56,418.62c-1.91-3.49-6.93-15.59,7.32-26.47,0,0,10.83-8.14,19.75-2.58a42.13,42.13,0,0,1,5.7,4.06,5.22,5.22,0,0,1,.56.53s-5.54-20.71-24.65-15.55c0,0-10.63,3.53-16.27,12.38-.29.45-.57.91-.82,1.39a21.1,21.1,0,0,0-2.19,6c-2.34,11.63,10.71,20.9,11.18,21.22"/><path class="cls-5" d="M194.06,395.65c-.13-1.23,0-3.38,2.72-.81,0,0,3.25,3.81,3.16,7.79,0,0-.38,2.05-2.13-1.22"/><path class="cls-5" d="M166.44,427.85s2.09.11-.68-2.36"/><path class="cls-5" d="M160.52,420.33c-1.15-.3-2.5-.22-.9,2.61,0,0,2.57,3.55,6.08,4.7"/><path class="cls-5" d="M159,418l.59.62v0l1.3,1.36,4.22,4.46a8.88,8.88,0,0,0,.82.86c2.32,2.18,7.28,5.62,9.78,7.56a12.21,12.21,0,0,0,7.12,2.56c3.38.17,7.81-.84,13-4.91,0,0,6.42-4.86,7.34-11.53a11.25,11.25,0,0,0-1-6.43c-1.06-2.32-2.68-7.47-4.64-11-.16-.29-.32-.56-.48-.82l-3.25-4.92-1.46-2.2-.67-1"/><path class="cls-5" d="M184.33,414.16a4.28,4.28,0,0,1-3.62,2.56"/><polyline class="cls-5" points="183.42 424.13 184.4 423.87 186.24 421.4 187.54 421.28 188.13 420.02 190.81 419.18 191.36 418.48"/><line class="cls-5" x1="189.44" y1="425.78" x2="191.51" y2="424.26"/><line class="cls-5" x1="190.11" y1="439.99" x2="209.98" y2="444.17"/><path class="cls-5" d="M562.27,487.34c-3.69,1.3-6.73.44-10.86-.43s-11.29.21-11.29.21c-4,.79-8.28,1.42-12.78,1.91-25.08,2.75-55.84,1.32-63,1.14-8.47-.22-21.07-.22-30.63.86s-88.83,1.09-97.08.87c-3.86-.1-16.33-.48-31.17-.76-16.88-.3-36.84-.46-50.72.11-13.37.56-21.65-.08-27.61-1.2a85,85,0,0,1-13-3.79c-7.82-2.61-19.33-3.26-30.19-.66a170.51,170.51,0,0,1-40.18,5.22c-18.68.43-25.85-.22-28.67-1.31s-5.76-3.91-2.83-10.64c2.36-5.42,10.43-22.15,13.9-28.23,2.79-4.88,16.65-25.32,21.25-32,1.14-1.68.93-4.24.2-6.14l-2.67-7.22a2.36,2.36,0,0,1-.11-1.15L145.9,397a2.3,2.3,0,0,1,.69-1.31l2.38-3.18a1.31,1.31,0,0,1,2.11-.14"/><path class="cls-5" d="M579.6,478.22a2.74,2.74,0,0,0,1.35-2.17"/><path class="cls-5" d="M578.53,494.16h.57a5.18,5.18,0,0,0,4.54-3c1.56-3.32,3.9-9.18,4-14.65.22-8.25-8.69-5.21-8.69-5.21s-3.47-1.09-5,1.52a5.37,5.37,0,0,0-.5,1.19c-.65,2.41.6,5.08,3.76,4.89a5.31,5.31,0,0,0,1.8-.38,3.6,3.6,0,0,0,.52-.26"/><path class="cls-5" d="M559.23,485.6l3.19,1.4h0a69.5,69.5,0,0,1,6.8,3.37c2,1.26,3.82,3.74,9.26,3.78"/><polyline class="cls-5" points="575.74 480.17 579.06 478.49 579.58 478.23 579.6 478.22"/><line class="cls-5" x1="580.3" y1="483" x2="577.69" y2="483.65"/><line class="cls-5" x1="578.23" y1="486.8" x2="580.73" y2="485.82"/><line class="cls-5" x1="579.54" y1="490.17" x2="581.93" y2="489.08"/><path class="cls-5" d="M578.05,490.84a1.75,1.75,0,0,1,.4,0,1.79,1.79,0,0,1,1.79,1.78,1.58,1.58,0,0,1-1.71,1.59h0a1.67,1.67,0,0,1-1.81-1.59A1.78,1.78,0,0,1,578.05,490.84Z"/><path class="cls-5" d="M575.73,480.31a2,2,0,0,1,1.85,1.95,1.57,1.57,0,0,1-1.79,1.64c-1.08,0-2.12-.56-2.12-1.64a2,2,0,0,1,2-2Z"/><path class="cls-5" d="M575.79,483.9c1.08,0,2,.5,2,1.58a2,2,0,0,1-1.37,1.87,1.85,1.85,0,0,1-.58.09,2,2,0,0,1-2-2C573.88,484.4,574.71,483.9,575.79,483.9Z"/><path class="cls-5" d="M576.49,487.59a1.57,1.57,0,0,1,.49-.07,1.62,1.62,0,0,1,1.67,1.56,1.52,1.52,0,0,1-.74,1.29,1.72,1.72,0,0,1-.93.27,1.62,1.62,0,0,1-1.67-1.56A1.59,1.59,0,0,1,576.49,487.59Z"/><path class="cls-5" d="M573,473.83s-8.15-.45-10.73-.9-4.16-1.13-8,0c-3.42,1-18.31-.14-26.94-1.84-1.05-.2-2-.42-2.85-.64a192,192,0,0,0-46.7-6.54s-9.7-1.13-16.7-3.84-35.19-.22-49.86-2.93-43.32-11.06-43.32-11.06-6.4-3-6.32-14.21c.12-15.78-23.46-60-23.46-60S319,337.78,315.79,331s-4.74-16.47-5.19-22.33-1.12-19.41-13.31-37.46c-2.72-4-5.37-8-7.87-11.79-8.7-13.26-15.54-24.84-16.95-32.2-1.8-9.48-3.83-22.34-12.86-18.28s-13.53,13.31-22.11,14.22-14.66.9-16.47,5l-1.13,5.42-1.12,1.58"/><path class="cls-5" d="M215.32,243.76a2.53,2.53,0,0,0,.52.39l3.67-3.15,1.81-1.54,2.17-1.86a6.72,6.72,0,0,1,4.25-1.62c3.35,0,9.39-.11,13.15.05,5.41.22,11.73.35,14.89,4,2.2,2.55,8,14.08,13.19,27.72a192.91,192.91,0,0,1,6,18.36c5.41,20.3,9.7,22.56,11.28,36.55s.45,11.5,3.61,21,4.73,18.73,9.25,35.42,7.09,30.21,8.67,36.07c0,0-8.35,5.19-11.06,10.61,0,0-25.82.22-39.35-12.64l-10.2-13.4c-1.65-2.35-2.3-3.38-2.25-5.44.2-7.29-.55-24.47-2.67-34.38-2.71-12.63-3.61-16.69-3.16-24.81s-.68-13.54-.9-17.15-5.34-26.41-7-36.1c-.71-4.16-2.48-12.41-2.48-12.41a46.8,46.8,0,0,0,.23-18.73l-1.81-8.12-3.79-2.84a1.34,1.34,0,0,0-2.15,1.07.81.81,0,0,0,0,.16l.09.76a1.34,1.34,0,0,0,.57.94l2.55,1.78v4"/><path class="cls-5" d="M214,239.19s-.19,3.13,1.28,4.56"/><line class="cls-5" x1="220.41" y1="248.02" x2="219.76" y2="241.91"/><path class="cls-5" d="M215.07,238.24A1.28,1.28,0,0,1,215,238l-.34-2.3a1.3,1.3,0,0,1,1.28-1.49h.89a1.31,1.31,0,0,1,1.27,1,1.09,1.09,0,0,1,0,.26v2.26a1.57,1.57,0,0,1-1.58,1.58A1.56,1.56,0,0,1,215.07,238.24Z"/><path class="cls-5" d="M211.34,242.56a1.86,1.86,0,0,1-1.15-1.59l-.13-2.12a1.27,1.27,0,0,1,1.18-1.34l1.48-.11a1.28,1.28,0,0,1,1.33,1,1.2,1.2,0,0,1,0,.38l0,.4-.16,1.83a1.85,1.85,0,0,1-1.72,1.67H212A1.91,1.91,0,0,1,211.34,242.56Z"/><path class="cls-5" d="M204.12,419.14a10.52,10.52,0,0,0,6.86-1.09,16.26,16.26,0,0,0,2.69-1.62c5.33-3.91,2.57-17.41,2.16-25.12s4.58-18.76,4.58-23.32-.76-20.09-.65-26.28-2.94-11-2.39-24.65a329,329,0,0,0-1.63-40.29c-.76-5.86-.65-6-2.17-7.6-1.29-1.38-5.82-6.86-7.2-8.53a1.91,1.91,0,0,1-.42-1.12l-.3-7.84a2.24,2.24,0,0,1,0-.58,17.66,17.66,0,0,0,.17-5.07,1,1,0,0,1,1.07-1.1,2.37,2.37,0,0,1,2.1,1.71,43.07,43.07,0,0,1,1.19,6.59s.32,2,1,2.61L211,243"/><path class="cls-5" d="M191.51,452.37l23.36,16.29s16.61-14.33,17.59-44.63l-21.48-6"/><line class="cls-5" x1="232.46" y1="424.03" x2="257.36" y2="413.11"/><path class="cls-5" d="M214.87,468.66s3.3,12.48,12.24,21.39"/><path class="cls-5" d="M226.27,383.09s3.91,14.12,10,18.46"/><path class="cls-5" d="M181.64,469.64s7.83,2.93,12.38,4.56a72.83,72.83,0,0,1,8.79,3.91"/><path class="cls-5" d="M166.44,427.85l-.74-.21-6-1.69a3,3,0,0,0-3.5,1.46c-1.7,3-5.14,9.51-10,19.75,0,0-4.78,13.9-6.36,17.92a43.63,43.63,0,0,1-3,6.52,27.67,27.67,0,0,1,8.8-2.25c3.9-.27,9-.93,13-3.29,11-6.62,19.54-9.45,25.41-9.78s7.59-3.91,7.59-3.91c1.71-3.94-4.71-11.49-8.72-16.41"/><path class="cls-5" d="M307.77,415.14s2.9,3.81,14.31,8.17"/><path class="cls-5" d="M296.71,425.75s9.38,16.2,9.05,34.12-.32,31.27-.32,31.27"/><path class="cls-5" d="M527.34,471.09s2,12.89,0,17.94h0"/><path class="cls-5" d="M269,267.76s15.86-8,19.93-8"/><polyline class="cls-5" points="215.32 243.75 215.32 243.76 215.79 248.66"/></svg>