<svg id="Layer_1" data-name="Layer 1" xmlns="http://www.w3.org/2000/svg" viewBox="0 0 700 700"><defs><style>.cls-1{fill:#feae63;}.cls-2{fill:#120c0c;}.cls-3{fill:#99abcc;}.cls-4{fill:#c4e7f9;}.cls-5{fill:none;stroke:#000;stroke-linecap:round;stroke-linejoin:round;stroke-width:2.3px;}</style></defs><title>Yoga_poses_2020_color</title><path class="cls-1" d="M451.4,265.48a109.54,109.54,0,0,1-2,17.95,46,46,0,0,1-2.18,7.42c-2,5.08-5.6,10.5-13,17.13-12.41,2.9-33.34-4-33.34-4,2.13-2.94,4.14-5.95,6.32-9.39a236.08,236.08,0,0,0,13.63-23.46c7.27-13.74,32.26-39,40.17-46.93s7.32-8.4,12.84-15.22c4.7-5.79,33.1-33.42,38.64-41.1a17.74,17.74,0,0,1,3.57-5l11.64-11.47,17.9-18.15a2.51,2.51,0,0,1,3.83,3.26l-2.58,3.38a1.47,1.47,0,0,1,.36,0,1.66,1.66,0,0,1,1.31,2.68l-20.83,26.9a16.1,16.1,0,0,1-2.69,2.72,57.89,57.89,0,0,0-9.39,10.23c-8.73,12-24.6,33.46-30.28,39.11-6.31,6.27-6.54,10.34-13.78,20.07l-.31.41-.4.53C466.53,248.12,458.19,257.76,451.4,265.48Z"/><path class="cls-1" d="M535.08,559.46a3.26,3.26,0,0,1-2.74,3.45l-2.23.35a8.17,8.17,0,0,1-1.31.11,7.81,7.81,0,0,1-2-.27,12.63,12.63,0,0,0-5.64-.14,23.63,23.63,0,0,1-5.43.29c-6.13-.25-12.09-5.72-17.32-5.93a12.44,12.44,0,0,0-5,.95c-4.11,1.64-5.82,2.36-10.9,2.13l-4.2-.37a7.39,7.39,0,0,1-6.74-7.9c.25-3.33,1.57-7.75,2-13.31a61.73,61.73,0,0,0-.85-13.05s12,3.86,19.42-2.17h.06a19.15,19.15,0,0,0,.63,2.13c3.07,8.54,4.49,11.55,10.45,16.11a172.09,172.09,0,0,0,16.16,11.37,24,24,0,0,0,12.14,3.31c.39,0,.79,0,1.18,0h.15C534.47,556.48,535,557.75,535.08,559.46Z"/><path class="cls-2" d="M466.21,255.1c-.41.61-.61,1-.61,1a33,33,0,0,1,5.19-13.55l.4-.53.31-.41a15.46,15.46,0,0,1,7.67-5.31,21.34,21.34,0,0,1,7.95-.78c9.41.78,16.9,7.16,18.3,8.41l.23.22c13.47,14.5-2.27,29.05-2.27,29.05a6.06,6.06,0,0,0,.22-.75,43.3,43.3,0,0,0,.92-6.93C505.28,255,493,249.24,493,249.24,476.77,241.71,468.41,251.78,466.21,255.1Z"/><path class="cls-2" d="M500.64,230.72c5.17,2.43,7.51,8.33,5.23,13.18l-.45,0c-1.4-1.25-8.89-7.63-18.3-8.41l0-.43C489.43,230.24,495.48,228.28,500.64,230.72Z"/><path class="cls-1" d="M502.61,274.92c1-.69,3-1.61,2,2,0,0-1.85,4.66-5.42,6.43,0,0-2,.62.09-2.46l-.28-.19c.19-.27.35-.53.5-.79l2.84-5.18Z"/><path class="cls-1" d="M493,249.24s12.24,5.79,11.48,16.27a43.3,43.3,0,0,1-.92,6.93l-1.28,2.32-2.84,5.18c-.15.26-.31.52-.5.79-2.19,3.38-6,7.21-7.56,9.25a11.8,11.8,0,0,1-9,4.63,22.73,22.73,0,0,1-9.85-1.88c-7.38-3.31-10.17-7.75-11.15-11.23h0a11.55,11.55,0,0,1-.31-5.46c.54-3,1.23-8.69,2-11.85a12.7,12.7,0,0,1,.47-1.46l2-5.82.62-1.8C468.41,251.78,476.77,241.71,493,249.24Zm.52,22.77a2,2,0,1,0-2.77,1.25A2.17,2.17,0,0,0,493.56,272Zm-16.29-7.95a2,2,0,1,0-2.76,1.26A2.15,2.15,0,0,0,477.27,264.06Z"/><path class="cls-1" d="M472.74,355.92c-3.14,1.34-6.06,2.48-6.06,2.48a119.42,119.42,0,0,0,9.42-15.06,210.44,210.44,0,0,0,9.18-19.47,44.29,44.29,0,0,0,8.52,6.55,12.67,12.67,0,0,1,4.39,11.25c-.93,7.19-3.71,20-7.42,28.34S485,405.49,485,405.49a8.17,8.17,0,0,1,3.43,4.56c1.56,5.4-.1,13.12,2.46,19.48a2.28,2.28,0,0,0,1,1.12l0,0,1.09.58.14.08,7.13,3.82a2.84,2.84,0,0,1,1.49,2.49v3.43a2.11,2.11,0,0,1-.62,1.49,2.08,2.08,0,0,1-1.27.6h-.21a2.09,2.09,0,0,1-2-1.47l-2.91-.63,3,5.33.22-1.58a1.87,1.87,0,0,1,1.85-1.61h.14a1.88,1.88,0,0,1,1.74,2l-.23,3.3a2.47,2.47,0,0,1-2.45,2.3h-1.73a2,2,0,0,1-1.59-.8l-4-5.38L494.4,455a1.72,1.72,0,0,1,.06.44,1.78,1.78,0,0,1-3.53.3l-.06-.36a1.94,1.94,0,0,1,0,.24,1.84,1.84,0,0,1-3.64.34l-2-10.73,1,6.41a2.46,2.46,0,0,1,0,.26,1.66,1.66,0,0,1-1,1.55,1.69,1.69,0,0,1-2.07-.72l-2.61-5.58a16.68,16.68,0,0,1-1.51-4.88l-2.25-8.91a9,9,0,0,0-1.42-3.52c-1.85-2.72-4.45-4.47-7.19-9.19a14.39,14.39,0,0,1-1.6-4.38c-1.31-6.32.27-14.88,1.6-24.83C469.88,379,472.74,355.92,472.74,355.92Z"/><path d="M492.72,269.09a2.32,2.32,0,1,1-2.76,1.26A2.17,2.17,0,0,1,492.72,269.09Z"/><path class="cls-3" d="M402.44,407.77l.17.13c22.19-2.43,64,8.41,64,8.41a14.39,14.39,0,0,0,1.6,4.38c2.74,4.72,5.34,6.47,7.19,9.19a9,9,0,0,1,1.42,3.52l2.25,8.91a16.68,16.68,0,0,0,1.51,4.88l2.61,5.58a1.69,1.69,0,0,0,2.07.72,1.66,1.66,0,0,0,1-1.55,2.46,2.46,0,0,0,0-.26l-1-6.41,2,10.73a1.84,1.84,0,0,0,3.64-.34,1.94,1.94,0,0,0,0-.24l.06.36a1.78,1.78,0,0,0,2,1.45s-.73,7.81-1.22,25.52c-.44,16.35-1.82,31.84.38,40.84h-.06c-7.39,6-19.42,2.17-19.42,2.17-2.06-13.78-7-31.29-9.4-44.21-1.45-7.89,2.07-20.26,3.54-25.85a5.93,5.93,0,0,0-5.07-7.22,162,162,0,0,0-19.34-1.08c-11.69,0-30.8,1.16-30.8,1.16-44.53-.23-45.78-14.85-68.47-15.53-17.21-.51-61.79,33.17-71.33,40.67S253.58,483,245.17,488s-20.39,17.88-27.49,22.27c-4.29,2.65-25.57,14.75-36.35,25.22C174,532.09,169.57,524,169.57,524a64.85,64.85,0,0,0,9-11.4c17-24.54,40.89-42.71,52.25-48.62s3.86-1.59,18.63-11.81,37.71-45.9,54.07-56.35c12.34-7.88,24.17-20.55,36.55-30,0,0,11.91-.17,27,8.35s42.73,24.08,42.73,24.08l.17.15C407.07,401.64,404.37,405.14,402.44,407.77Z"/><path class="cls-1" d="M485.28,323.86h0a210.44,210.44,0,0,1-9.18,19.47s-8.82,1.68-20.67-1.66l-2.73-.77a21.67,21.67,0,0,1-14.87-13.35c-1.85-4.88-3.95-16.38-3.65-19.58,7.41-6.63,11-12.05,13-17.13l.07,0c4.24,1.31,11-1.38,14.15-9.38,1,3.48,3.77,7.92,11.15,11.23a22.73,22.73,0,0,0,9.85,1.88l0,.65c-2.95,5.68-7.47,16.32-5,19.86A74.1,74.1,0,0,0,485.28,323.86Z"/><path d="M476.44,261.15a2.32,2.32,0,1,1-2.76,1.25A2.15,2.15,0,0,1,476.44,261.15Z"/><path class="cls-4" d="M455.43,341.68c11.85,3.34,20.67,1.66,20.67,1.66a119.42,119.42,0,0,1-9.42,15.06C456.34,372.07,446,373.59,441.14,376s-13.68,9-21.88,13.89c-2.89,1.71-6.21,5-9.28,8.44l-.17-.15s-27.68-15.55-42.73-24.08-27-8.35-27-8.35a80.6,80.6,0,0,1,12.3-7.94c17-8.63,26.35-26.81,35.21-37.26,5.6-6.61,9.57-11.48,13.22-16.55,0,0,20.93,6.85,33.34,4-.3,3.2,1.8,14.7,3.65,19.58a21.67,21.67,0,0,0,14.87,13.35Z"/><path class="cls-1" d="M462.94,264.1c-.87,3.18-1.69,1.4-1.69,1.4-1.07-3.84,1.15-8.33,1.15-8.33,1.77-2.73,2.47-1.57,2.74-.42l.45.15-2,5.82a12.7,12.7,0,0,0-.47,1.46Z"/><path class="cls-1" d="M172.69,568.2a34.7,34.7,0,0,1-9.88-1.44,15.19,15.19,0,0,1-3.51-1.49s-2.28-.46-4.32-6.14-4.77-4.54-4.32-8.86,2.27-4.54,7-9.77.91-7.27,8.41-13.4c1.22-1,2.38-2.06,3.46-3.14,0,0,4.46,8.13,11.76,11.55-2.67,2.59-4.3,7.89-4.85,11.52a6.42,6.42,0,0,0,1.7,5.41l2.2,2.28a6.13,6.13,0,0,1,1.55,2.9,6.13,6.13,0,0,0,2.62,3.78l.83.53a3.43,3.43,0,0,1,1.55,2.87v.14a3.4,3.4,0,0,1-3.41,3.26h-1.17a3.39,3.39,0,0,1-2.72-1.36l-3.75-5,1.27,3.82a1.88,1.88,0,0,1-1.69,2.48C174.49,568.2,173.57,568.21,172.69,568.2Z"/><path class="cls-5" d="M461.41,281.5c-3.12,8-9.91,10.69-14.15,9.38"/><path class="cls-5" d="M485.28,323.87a44.29,44.29,0,0,0,8.52,6.55,12.67,12.67,0,0,1,4.39,11.25c-.93,7.19-3.71,20-7.42,28.34S485,405.49,485,405.49"/><path class="cls-5" d="M482.45,295.26c-2.95,5.68-7.47,16.32-5,19.86a74.1,74.1,0,0,0,7.8,8.74"/><path class="cls-5" d="M487.15,235.08c2.28-4.84,8.33-6.8,13.49-4.36s7.51,8.33,5.23,13.18"/><path class="cls-5" d="M470.79,242.54a33,33,0,0,0-5.19,13.55s.2-.38.61-1c2.2-3.32,10.56-13.39,26.83-5.86,0,0,12.24,5.79,11.48,16.27a43.3,43.3,0,0,1-.92,6.93,6.06,6.06,0,0,1-.22.75s15.74-14.55,2.27-29.05l-.23-.22c-1.4-1.25-8.89-7.63-18.3-8.41a21.34,21.34,0,0,0-7.95.78,15.46,15.46,0,0,0-7.67,5.31"/><path class="cls-5" d="M502.61,274.92c1-.69,3-1.61,2,2,0,0-1.85,4.66-5.42,6.43,0,0-2,.62.09-2.46"/><path class="cls-5" d="M465.14,256.75c-.27-1.15-1-2.31-2.74.42,0,0-2.22,4.49-1.15,8.33,0,0,.82,1.78,1.69-1.4,0-.1.05-.2.08-.31"/><path class="cls-5" d="M466.48,254.3l-.27.8-.62,1.8-2,5.82a12.7,12.7,0,0,0-.47,1.46c-.81,3.16-1.5,8.84-2,11.85a11.55,11.55,0,0,0,.31,5.46h0c1,3.48,3.77,7.92,11.15,11.23a22.73,22.73,0,0,0,9.85,1.88,11.8,11.8,0,0,0,9-4.63c1.55-2,5.37-5.87,7.56-9.25.19-.27.35-.53.5-.79l2.84-5.18,1.28-2.32.58-1.06"/><path class="cls-5" d="M481.7,274.94a4.3,4.3,0,0,1-4-2"/><polyline class="cls-5" points="472.45 278.79 473.14 279.53 476.18 280 476.89 281.1 478.28 281.03 480.28 283.02 481.15 283.18"/><line class="cls-5" x1="473.8" y1="284.88" x2="476.1" y2="286"/><path class="cls-5" d="M472.63,525.77s12,3.86,19.42-2.17"/><line class="cls-5" x1="171.82" y1="561.78" x2="172.69" y2="568.2"/><line class="cls-5" x1="167.26" y1="561.58" x2="167.26" y2="567.76"/><line class="cls-5" x1="162.81" y1="561.04" x2="162.81" y2="566.76"/><path class="cls-5" d="M169.57,524s4.46,8.13,11.76,11.55"/><path class="cls-5" d="M466.6,416.31s-41.8-10.84-64-8.41"/><path class="cls-5" d="M399.46,412s1.15-1.7,3-4.18,4.63-6.13,7.54-9.41c3.07-3.48,6.39-6.73,9.28-8.44,8.2-4.86,17-11.46,21.88-13.89s15.2-4,25.54-17.63a119.42,119.42,0,0,0,9.42-15.06,210.44,210.44,0,0,0,9.18-19.47h0"/><path class="cls-5" d="M451.4,265.48a109.54,109.54,0,0,1-2,17.95,46,46,0,0,1-2.18,7.42c-2,5.08-5.6,10.5-13,17.13"/><path class="cls-5" d="M459.7,290.88s-2.7,11.73-2.86,17.1"/><path class="cls-5" d="M475.47,299.43s-7.35,6.27-12.42,9.21"/><path class="cls-5" d="M400.84,304s20.93,6.85,33.34,4c-.3,3.2,1.8,14.7,3.65,19.58a21.67,21.67,0,0,0,14.87,13.35l2.73.77c11.85,3.34,20.67,1.66,20.67,1.66"/><path class="cls-5" d="M466.68,358.4s2.92-1.14,6.06-2.48c1.13-.48,2.3-1,3.36-1.49"/><path class="cls-5" d="M489.05,445l1.81,10.34v.07l.06.36a1.78,1.78,0,0,0,3.53-.3,1.72,1.72,0,0,0-.06-.44l-2.65-10.41,4,5.38a2,2,0,0,0,1.59.8h1.73a2.47,2.47,0,0,0,2.45-2.3l.23-3.3a1.88,1.88,0,0,0-1.74-2h-.14a1.87,1.87,0,0,0-1.85,1.61l-.22,1.58-.17,1.19"/><path class="cls-5" d="M472.74,355.92s-2.86,23.07-4.54,35.56c-1.33,9.95-2.91,18.51-1.6,24.83a14.39,14.39,0,0,0,1.6,4.38c2.74,4.72,5.34,6.47,7.19,9.19a9,9,0,0,1,1.42,3.52l2.25,8.91a16.68,16.68,0,0,0,1.51,4.88l2.61,5.58a1.69,1.69,0,0,0,2.07.72,1.66,1.66,0,0,0,1-1.55,2.46,2.46,0,0,0,0-.26l-1-6.41,2,10.73a1.84,1.84,0,0,0,3.64-.34,1.94,1.94,0,0,0,0-.24"/><path class="cls-5" d="M491.91,430.65a2.28,2.28,0,0,1-1-1.12c-2.56-6.36-.9-14.08-2.46-19.48a8.17,8.17,0,0,0-3.43-4.56,12.62,12.62,0,0,0-4.92-1.88"/><line class="cls-5" x1="493.04" y1="431.25" x2="491.95" y2="430.67"/><path class="cls-5" d="M496.49,437.86l1.21,3.84a2.09,2.09,0,0,0,2,1.47h.21a2.08,2.08,0,0,0,1.27-.6,2.11,2.11,0,0,0,.62-1.49v-3.43a2.84,2.84,0,0,0-1.49-2.49l-7.13-3.82"/><polyline class="cls-5" points="497.7 441.7 494.79 441.07 497.84 446.4"/><path class="cls-5" d="M493.18,431.33l-.14-.08a11,11,0,0,0-1.09-.58l0,0c-1.37-.67-3.62-1.52-5.48-1.16"/><path class="cls-5" d="M340.11,365.78s11.91-.17,27,8.35,42.73,24.08,42.73,24.08"/><path class="cls-5" d="M440.87,277.32s4.69-5.21,10.53-11.84c6.79-7.72,15.13-17.36,19.39-22.94l.4-.53.31-.41c7.24-9.73,7.47-13.8,13.78-20.07,5.68-5.65,21.55-27.07,30.28-39.11A57.89,57.89,0,0,1,525,172.19a16.1,16.1,0,0,0,2.69-2.72l20.83-26.9a1.66,1.66,0,0,0-1.31-2.68,1.47,1.47,0,0,0-.36,0,1.56,1.56,0,0,0-.82.45l-12.22,12.38"/><path class="cls-5" d="M546.8,139.93l2.58-3.38a2.51,2.51,0,0,0-3.83-3.26l-17.9,18.15L516,162.91a17.74,17.74,0,0,0-3.57,5c-5.54,7.68-33.94,35.31-38.64,41.1-5.52,6.82-4.93,7.27-12.84,15.22s-32.9,33.19-40.17,46.93a236.08,236.08,0,0,1-13.63,23.46c-2.18,3.44-4.19,6.45-6.32,9.39-3.65,5.07-7.62,9.94-13.22,16.55-8.86,10.45-18.17,28.63-35.21,37.26a80.6,80.6,0,0,0-12.3,7.94c-12.38,9.45-24.21,22.12-36.55,30-16.36,10.45-39.3,46.12-54.07,56.35s-7.27,5.9-18.63,11.81S195.65,488,178.61,512.56a64.85,64.85,0,0,1-9,11.4c-1.08,1.08-2.24,2.14-3.46,3.14-7.5,6.13-3.63,8.18-8.41,13.4s-6.58,5.46-7,9.77,2.27,3.18,4.32,8.86,4.32,6.14,4.32,6.14a15.19,15.19,0,0,0,3.51,1.49,34.7,34.7,0,0,0,9.88,1.44c.88,0,1.8,0,2.77,0a1.88,1.88,0,0,0,1.69-2.48l-1.27-3.82,3.75,5a3.39,3.39,0,0,0,2.72,1.36h1.17a3.4,3.4,0,0,0,3.41-3.26v-.14a3.43,3.43,0,0,0-1.55-2.87l-.83-.53a6.13,6.13,0,0,1-2.62-3.78,6.13,6.13,0,0,0-1.55-2.9l-2.2-2.28a6.42,6.42,0,0,1-1.7-5.41c.55-3.63,2.18-8.93,4.85-11.52,10.78-10.47,32.06-22.57,36.35-25.22,7.1-4.39,19.09-17.27,27.49-22.27s17-6.81,26.59-14.31,54.12-41.18,71.33-40.67c22.69.68,23.94,15.3,68.47,15.53,0,0,19.11-1.16,30.8-1.16a162,162,0,0,1,19.34,1.08,5.93,5.93,0,0,1,5.07,7.22c-1.47,5.59-5,18-3.54,25.85,2.37,12.92,7.34,30.43,9.4,44.21a61.73,61.73,0,0,1,.85,13.05c-.41,5.56-1.73,10-2,13.31a7.39,7.39,0,0,0,6.74,7.9l4.2.37c5.08.23,6.79-.49,10.9-2.13a12.44,12.44,0,0,1,5-.95c5.23.21,11.19,5.68,17.32,5.93a23.63,23.63,0,0,0,5.43-.29,12.63,12.63,0,0,1,5.64.14,7.81,7.81,0,0,0,2,.27,8.17,8.17,0,0,0,1.31-.11l2.23-.35a3.26,3.26,0,0,0,2.74-3.45c-.13-1.71-.61-3-2.26-3h-.15c-.39,0-.79,0-1.18,0a24,24,0,0,1-12.14-3.31,172.09,172.09,0,0,1-16.16-11.37c-6-4.56-7.38-7.57-10.45-16.11a19.15,19.15,0,0,1-.63-2.13c-2.2-9-.82-24.49-.38-40.84.49-17.71,1.22-25.52,1.22-25.52"/></svg>