<svg id="Layer_1" data-name="Layer 1" xmlns="http://www.w3.org/2000/svg" viewBox="0 0 700 700"><defs><style>.cls-1{fill:#feae63;}.cls-2{fill:#99abcc;}.cls-3{fill:#c4e7f9;}.cls-4{fill:#120c0c;}.cls-5{fill:none;stroke:#000;stroke-linecap:round;stroke-linejoin:round;stroke-width:2.3px;}</style></defs><title>Yoga_poses_2020_color</title><path class="cls-1" d="M589.93,485.63l.74.1c1.64,1.31,2.21,3.4-.58,5.32s-5.1,5.78-8.28,7.77a5.63,5.63,0,0,1-6-.23,2.94,2.94,0,0,0-.33-.22l-11.16-7.63a23.17,23.17,0,0,1-2.42-.79s-6.89-8.82-12.3-13c8.13-3.22,9.1-10,9.1-10,1.94,2.06,3.48,3.65,4.25,4.34,3.5,3.11,8.37,4.28,9.73,6s.19,3.5,5.84,5.25a22.15,22.15,0,0,0,5.9,1.27l1.19.25a2.32,2.32,0,0,1,4.6.47A2.26,2.26,0,0,1,589.93,485.63Zm-1.34,2.42a2.33,2.33,0,1,0-2.33,2.33A2.32,2.32,0,0,0,588.59,488.05Z"/><path class="cls-1" d="M586.26,485.73a2.33,2.33,0,1,1-2.33,2.32A2.32,2.32,0,0,1,586.26,485.73Z"/><path class="cls-1" d="M572.81,499c3.51-.87,4,2.89,2.84,6s-5.68,1.35-5.68,1.35C565.92,504.15,569.29,499.82,572.81,499Z"/><path class="cls-1" d="M567.51,514.84a2.9,2.9,0,0,1,0,1.2,1.53,1.53,0,0,0,0,.3l-1.88-.3c-2.22-.86,0-1-1.35-4.28s-5.55-6.54-5.55-6.54c-4.58-.24-4.82-1.69-9.41-4.35a73.11,73.11,0,0,0-11.11-4.45c8.83-2,8.37-10.69,8.37-10.69l.12-.74c4.62,1.69,8,1.47,11.07,3.1a35.7,35.7,0,0,0,4.09,1.86,23.17,23.17,0,0,0,2.42.79l11.16,7.63a2.94,2.94,0,0,1,.33.22c.9.71,3.11,3.22-.33,9.22-2.86,5-1.77,5.95-3.08,7.48,1-1.38-.46-2.76-.46-2.76a2.18,2.18,0,0,0-2.92,0,2.28,2.28,0,0,0-.5,2.21Zm8.14-9.92c1.15-3.08.67-6.84-2.84-6s-6.89,5.2-2.84,7.32C570,506.27,574.49,508,575.65,504.92Zm-2.08,4.72a2.33,2.33,0,1,0-2.33,2.33A2.34,2.34,0,0,0,573.57,509.64Z"/><circle class="cls-1" cx="571.24" cy="509.64" r="2.33"/><path class="cls-1" d="M571.92,512.53s1.51,1.38.46,2.76l0,0a1.22,1.22,0,0,1-.15.17l0,0c-.16.15-.35.33-.57.51-1.38,1.13-2.75.06-3.1-1.3a2.28,2.28,0,0,1,.5-2.21A2.18,2.18,0,0,1,571.92,512.53Z"/><path class="cls-2" d="M558.68,467s-1,6.82-9.1,10c-8.12-6.23-41.49-27.5-53.31-35.71s-17.37-7-25.82-14.71-50.18-35.22-50.18-35.22-11.34-7.72-11.58-4.35,5.31,2.66,16.89,12.31,35,28,41.25,32.08,20.27,18.58,27,21S538,480.85,544,483.84a25.52,25.52,0,0,0,2.69,1.15l-.12.74s.46,8.72-8.37,10.69c-3.22-1.07-5.78-1.82-5.78-1.82-51.38-14.23-62.24-28-72.37-35.22A102.38,102.38,0,0,0,438.85,448c-42-13.75-77-41.74-91-55.25a49.6,49.6,0,0,0-6.45-5.16l.05-.08c21.23-20.75,32.65-60.29,32.65-60.29l.15-.76c4.11.82,9.17,1.7,16.27,3,0,0,33.76,7.56,70.39,48.18s57.61,43.29,79.26,68.93C540.22,446.61,551.88,459.7,558.68,467Z"/><path class="cls-3" d="M374.3,326.5l-.15.76s-11.42,39.54-32.65,60.29l-.05.08c-15.06-10.24-37.26-15.83-37.26-15.83a200.67,200.67,0,0,1-22.88,1.81,33.26,33.26,0,0,1-7.9-.69,32.59,32.59,0,0,1-3.59-.94c19.59-46.84.14-73.19.14-73.19,7.94-.56,16.42-1.37,22.87-1.58h0c10.47,3.23,24.22,6.63,39.25,13.32C358.06,322.07,361.72,324,374.3,326.5Z"/><path class="cls-1" d="M259,121.33c0-.33.17-4.4,2.05-4.3s2.1,1.38,2.42,6.42,0,11.13,1.24,11.25,1.11-2,1.16-9,1.74-6.42,1.74-6.42,1.65-.07,1.64,3.79.12,6.74-.08,10.46.79,5.31,1.35,3.45,1.85-12,3.87-11.94,1.42,2.79,1.12,4.46-1.63,6.63-1.75,8.09-.3,9.56-1.52,15.31a71.45,71.45,0,0,0-1.49,17.57s1.83,15.93,3.13,27.94a141.41,141.41,0,0,1,.26,31.59c-1,12,1.57,30.54-1.3,48.82-1.62,10.3,6.46,14.19,20,18.36-6.45.21-14.93,1-22.87,1.58-3.29.23-22.89-.62-22.89-.62h-.24c-.45-9.38,2-20.63,4.33-27.95a164.71,164.71,0,0,0,6-30c1-9.92-3.39-17-2.35-24.54s3.79-43.6,3.79-43.6c-.91-8.39-2-10.8-7.41-17a7.38,7.38,0,0,1-1.86-4.44c-.12-2.66-.55-4-.85-6.67s-1.58-8.86.36-9,3,1.89,3,4.92a19.53,19.53,0,0,0,1.21,6,10.93,10.93,0,0,0,2.6-4c.55-2.14-.34-15.72.23-19.43s2.28-4,2.69-3.61A6.56,6.56,0,0,1,259,121.33Z"/><path class="cls-1" d="M237.74,508.79l-.07-.12-16,.55a1.68,1.68,0,0,1-1.83-1.54c0-.05,0-.09,0-.14a1.66,1.66,0,0,1,1.41-1.64l17.49-2.67,10.66-2.36c7-1.51,5.9-1.81,5.55-13.26-.38-12.55-8-42.95-6.51-49.46h.07c1.45-6.52,1.69-13.75,1.93-29.92s-1.45-9.65-3.36-22c-1.31-8.42-.16-17.95.7-23.14a192.66,192.66,0,0,0,22,8.84,32.59,32.59,0,0,0,3.59.94l-.15.69s-1.39,4.05-.88,13.94-4.59,42.13-4.93,49.1,1.19,25.16,1,33.32h-.07c-.17,8.16-3.12,38.06-3.12,38.06-.6,4.7-16.34,1.25-18.29,1.77s-6,2.71-8.21,2.79c-2.05.06-3.85-2.36-1-3.79Z"/><path class="cls-1" d="M212.54,342.35l-.51.11a9.16,9.16,0,0,1-2.65.07c-5.38-.55-6-6-6-6-1.35-7-12.58-13.13-12.58-13.13-14.65-5.81-2.39-22.34-2.39-22.34a32.35,32.35,0,0,1,9.05-1.81s1.39-.19,3.63-.44,4.41,1.69,8.87,1,14.34,4.29,21.11,6.61c0,0,6.86,2,3.77,10.73l8.23.72c1.56-3.25,5.22-6.93,4-16.79-.12-.94-.2-1.92-.24-2.92h.24s19.6.85,22.89.62c0,0,19.45,26.35-.14,73.19a192.66,192.66,0,0,1-22-8.84c.4-2.41.73-3.88.73-3.88,1.2-9.16-5.75-14.6-8-15.88-3.31-1.88-8.53-2.95-11.77-2a62.4,62.4,0,0,0-7.2,2.94l0,0S216.52,341.68,212.54,342.35Zm-2-38.38c.07-.55-1.12-1.16-2.66-1.36s-2.84.07-2.91.62,1.11,1.16,2.65,1.37S210.46,304.52,210.54,304Zm-1.86,9.75c.1-.7-1.43-1.49-3.4-1.75s-3.65.1-3.74.8,1.43,1.49,3.4,1.75S208.59,314.42,208.68,313.72Z"/><path class="cls-4" d="M221.5,344.32l0,0c-4.41,2-9,4-14.13,3.86a37.29,37.29,0,0,1-12.87-2.87,27.89,27.89,0,0,1-12.54-10,25.54,25.54,0,0,1-2.58-4.84s-5.56-16.46,5.65-27.24c0,0,.64-1.08,3.36-2.14,0,0-12.26,16.53,2.39,22.34,0,0,11.23,6.1,12.58,13.13,0,0,.62,5.41,6,6a9.16,9.16,0,0,0,2.65-.07l.51-.11C216.52,341.68,221.5,344.32,221.5,344.32Z"/><path d="M207.88,302.61c1.54.2,2.73.81,2.66,1.36s-1.38.83-2.92.63-2.72-.82-2.65-1.37S206.35,302.4,207.88,302.61Z"/><path d="M205.28,312c2,.26,3.5,1,3.4,1.75s-1.76,1.06-3.74.8-3.49-1-3.4-1.75S203.31,311.71,205.28,312Z"/><path class="cls-4" d="M194.52,345.34l-.25,1.07c-1.94,4.61-6.42,6.48-13,2.19-6.92-4.49-3.33-11.91-.13-12.66l.88-.62A27.89,27.89,0,0,0,194.52,345.34Z"/><path class="cls-5" d="M259,121.35c.32,4.17.33,12.27.67,13.58"/><path class="cls-5" d="M253.05,145.89a10.93,10.93,0,0,0,2.6-4c.55-2.14-.34-15.72.23-19.43s2.28-4,2.69-3.61a6.56,6.56,0,0,1,.42,2.44"/><path class="cls-5" d="M252.28,146.67s.32-.3.77-.77"/><path class="cls-5" d="M292.84,297.21c10.47,3.23,24.22,6.63,39.25,13.32,26,11.54,29.63,13.46,42.21,16,4.11.82,9.17,1.7,16.27,3,0,0,33.76,7.56,70.39,48.18s57.61,43.29,79.26,68.93c0,0,11.66,13.09,18.46,20.34,1.94,2.06,3.48,3.65,4.25,4.34,3.5,3.11,8.37,4.28,9.73,6s.19,3.5,5.84,5.25a22.15,22.15,0,0,0,5.9,1.27,1.54,1.54,0,0,0,.71-.1"/><path class="cls-5" d="M259,121.35v0c0-.33.17-4.4,2.05-4.3s2.1,1.38,2.42,6.42,0,11.13,1.24,11.25,1.11-2,1.16-9,1.74-6.42,1.74-6.42,1.65-.07,1.64,3.79.12,6.74-.08,10.46.79,5.31,1.35,3.45,1.85-12,3.87-11.94,1.42,2.79,1.12,4.46-1.63,6.63-1.75,8.09-.3,9.56-1.52,15.31a71.45,71.45,0,0,0-1.49,17.57s1.83,15.93,3.13,27.94a141.41,141.41,0,0,1,.26,31.59c-1,12,1.57,30.54-1.3,48.82-1.62,10.3,6.46,14.19,20,18.36"/><path class="cls-5" d="M194.27,346.41c-1.94,4.61-6.42,6.48-13,2.19-6.92-4.49-3.33-11.91-.13-12.66"/><path class="cls-5" d="M207.34,307.5a4.08,4.08,0,0,0,3.79-.25l5.41-1.56.18,4.84"/><path class="cls-5" d="M212.54,342.35a7.92,7.92,0,0,0,5.3-3.82s1.21-3.06-2.7-2.08"/><path class="cls-5" d="M208.33,336.4s-4.59,4.09,1,6.13a9.16,9.16,0,0,0,2.65-.07"/><path class="cls-5" d="M209.38,342.53c-5.38-.55-6-6-6-6-1.35-7-12.58-13.13-12.58-13.13-14.65-5.81-2.39-22.34-2.39-22.34"/><path class="cls-5" d="M221.5,344.32s-5-2.64-9-2l-.51.11"/><path class="cls-5" d="M221,330.55s6-1,6.91-6.33"/><path class="cls-5" d="M258.6,337.06s-14.39,1.11-23.05,1.15"/><path class="cls-5" d="M247.07,298.17s19.6.85,22.89.62c7.94-.56,16.42-1.37,22.87-1.58h0"/><path class="cls-5" d="M269.82,372a88.26,88.26,0,0,0-7.9,4.32"/><path class="cls-5" d="M374.15,327.26s-11.42,39.54-32.65,60.29"/><path class="cls-5" d="M304.19,371.8s22.2,5.59,37.26,15.83a49.6,49.6,0,0,1,6.45,5.16c14,13.51,49,41.5,91,55.25a102.38,102.38,0,0,1,21.23,11.34c10.13,7.24,21,21,72.37,35.22,0,0,2.56.75,5.78,1.82a73.11,73.11,0,0,1,11.11,4.45c4.59,2.66,4.83,4.11,9.41,4.35,0,0,4.2,3.28,5.55,6.54s-.87,3.42,1.35,4.28"/><path class="cls-5" d="M575.79,498.59a5.63,5.63,0,0,0,6,.23c3.18-2,5.49-5.84,8.28-7.77s2.22-4,.58-5.32"/><path class="cls-5" d="M561.88,490s-6.89-8.82-12.3-13c-8.12-6.23-41.49-27.5-53.31-35.71s-17.37-7-25.82-14.71-50.18-35.22-50.18-35.22-11.34-7.72-11.58-4.35,5.31,2.66,16.89,12.31,35,28,41.25,32.08,20.27,18.58,27,21S538,480.85,544,483.84a25.52,25.52,0,0,0,2.69,1.15c4.62,1.69,8,1.47,11.07,3.1a35.7,35.7,0,0,0,4.09,1.86,23.17,23.17,0,0,0,2.42.79l11.16,7.63"/><path class="cls-5" d="M566.6,512.53a9.79,9.79,0,0,1,.91,2.31,2.9,2.9,0,0,1,0,1.2,1.53,1.53,0,0,0,0,.3c0,1.1,1.46,1.61,2.44.81"/><path class="cls-5" d="M570,506.27s4.52,1.73,5.68-1.35.67-6.84-2.84-6S565.92,504.15,570,506.27Z"/><path class="cls-5" d="M579.4,494.33s4.43-.05,4.53-3.59-2-5.56-4.53-4.89-3.59,4.82-3.19,7.13"/><path class="cls-5" d="M572.35,515.32l-.15.17"/><path class="cls-5" d="M575.46,498.37a2.94,2.94,0,0,1,.33.22c.9.71,3.11,3.22-.33,9.22-2.86,5-1.77,5.95-3.08,7.48l0,0a1.22,1.22,0,0,1-.15.17l0,0c-.16.15-.35.33-.57.51-1.38,1.13-2.75.06-3.1-1.3a2.28,2.28,0,0,1,.5-2.21,2.18,2.18,0,0,1,2.92,0s1.51,1.38.46,2.76"/><circle class="cls-5" cx="571.24" cy="509.64" r="2.33"/><path class="cls-5" d="M588.59,488.05a2.33,2.33,0,1,1-2.33-2.32A2.33,2.33,0,0,1,588.59,488.05Z"/><path class="cls-5" d="M585.54,484.56a2.42,2.42,0,0,1,.05-.47,2.32,2.32,0,0,1,4.6.47,2.26,2.26,0,0,1-.26,1.07,2.32,2.32,0,0,1-1.34,1.14"/><path class="cls-5" d="M558.68,467s-1,6.82-9.1,10"/><path class="cls-5" d="M546.6,485.73s.46,8.72-8.37,10.69"/><path class="cls-5" d="M270,298.79s19.45,26.35-.14,73.19"/><path class="cls-5" d="M247.77,363.14a192.66,192.66,0,0,0,22,8.84,32.59,32.59,0,0,0,3.59.94,33.26,33.26,0,0,0,7.9.69,200.67,200.67,0,0,0,22.88-1.81"/><path class="cls-5" d="M237.67,508.67l-16,.55a1.68,1.68,0,0,1-1.83-1.54c0-.05,0-.09,0-.14a1.66,1.66,0,0,1,1.41-1.64l17.49-2.67,10.66-2.36c7-1.51,5.9-1.81,5.55-13.26-.38-12.55-8-42.95-6.51-49.46h.07c1.45-6.52,1.69-13.75,1.93-29.92s-1.45-9.65-3.36-22c-1.31-8.42-.16-17.95.7-23.14.4-2.41.73-3.88.73-3.88,1.2-9.16-5.75-14.6-8-15.88-3.31-1.88-8.53-2.95-11.77-2a62.4,62.4,0,0,0-7.2,2.94c-4.41,2-9,4-14.13,3.86a37.29,37.29,0,0,1-12.87-2.87,27.89,27.89,0,0,1-12.54-10,25.54,25.54,0,0,1-2.58-4.84s-5.56-16.46,5.65-27.24c0,0,.64-1.08,3.36-2.14a32.35,32.35,0,0,1,9.05-1.81s1.39-.19,3.63-.44,4.41,1.69,8.87,1,14.34,4.29,21.11,6.61c0,0,6.86,2,3.77,10.73l8.23.72c1.56-3.25,5.22-6.93,4-16.79-.12-.94-.2-1.92-.24-2.92-.45-9.38,2-20.63,4.33-27.95a164.71,164.71,0,0,0,6-30c1-9.92-3.39-17-2.35-24.54s3.79-43.6,3.79-43.6c-.91-8.39-2-10.8-7.41-17a7.38,7.38,0,0,1-1.86-4.44c-.12-2.66-.55-4-.85-6.67s-1.58-8.86.36-9,3,1.89,3,4.92a19.53,19.53,0,0,0,1.21,6h0"/><path class="cls-5" d="M247.72,504.84l-3.15.83a4.11,4.11,0,0,0-1.24.57,16.71,16.71,0,0,1-4.55,2.13,7,7,0,0,0-1,.42h0c-2.81,1.43-1,3.85,1,3.79,2.26-.08,6.25-2.26,8.21-2.79s17.69,2.93,18.29-1.77c0,0,3-29.9,3.12-38.06h.07c.17-8.16-1.36-26.35-1-33.32s5.44-39.21,4.93-49.1.88-13.94.88-13.94"/></svg>