<svg id="Layer_1" data-name="Layer 1" xmlns="http://www.w3.org/2000/svg" viewBox="0 0 700 700"><defs><style>.cls-1{fill:#feae63;}.cls-2{fill:#c4e7f9;}.cls-3{fill:#120c0c;}.cls-4{fill:#99abcc;}.cls-5{fill:none;stroke:#000;stroke-linecap:round;stroke-linejoin:round;stroke-width:2.3px;}</style></defs><title>Yoga_poses_2020_color</title><path class="cls-1" d="M427.23,455.05l.7,5a1.21,1.21,0,0,1,0,.19v.08a1.38,1.38,0,0,1-1.38,1.31,2.66,2.66,0,0,1-2.33-1.38l-2-3.63c-.51-.92-2-.9-5.38-.89l-6.51.18-.08,0L409,458a1.8,1.8,0,0,1-3.36-.89,1.75,1.75,0,0,1,.21-.85l.57-1.08a1.54,1.54,0,0,0,.17-.51l.17-1.16a1.54,1.54,0,0,1,1.21-1.3l3.54-1.31a16.73,16.73,0,0,0,3.14-.85,5.72,5.72,0,0,0,2.73-4.36,230.75,230.75,0,0,0,1.86-29.63,81.16,81.16,0,0,1,1-14.77c1.24-2.79,3.82-7.89,4.91-11l.21.08c-1,3.08.62,2.07.62,2.07a10,10,0,0,0,2.54-3.63,29.57,29.57,0,0,0,6.51,1.64c2.86.26,4.79.28,6.41-.32a11.46,11.46,0,0,1-1,2.62s1.72,2.43-4.8,21.49c-5.16,15.09-5.61,23.43-5.58,26.24a10.88,10.88,0,0,1-.21,2.35,34.77,34.77,0,0,0-.66,4.64c-.1,2,7.75,4.78,7.75,4.78,3.59,1.69,9,2.74,12.14,3.42a1.14,1.14,0,0,1-.25,2.25h-.09l-9.86-.84,1.85,2.47a1.17,1.17,0,0,1,.34.83,1.19,1.19,0,0,1-1.19,1.2,2.93,2.93,0,0,1-2.13-.91l-6-7.34,3.07,6.56a1.06,1.06,0,0,1,.13.52,1.17,1.17,0,0,1-1.17,1.17,3.09,3.09,0,0,1-2.45-1.2Z"/><path class="cls-1" d="M445.83,362.71c3.26,4.82,7.49,11.8,2.61,19.71-2.9,4.68-4.59,6.87-6.95,7.74h0c-1.62.6-3.55.58-6.41.32a29.57,29.57,0,0,1-6.51-1.64,16.5,16.5,0,0,0,1.14-3.93c14.78-18.72,1.07-38.62,1.07-38.62s2.89-2.34,4.24,0h0c.45.7.9,1.47,1.35,2.33C440.13,355.8,442.57,357.89,445.83,362.71Z"/><path class="cls-2" d="M435,346.3h0c-1.35-2.34-4.24,0-4.24,0-2.84-2.18-11.85-4-11.85-4a10.59,10.59,0,0,0-12.26-1.45c-28-2.86-37.15,7-37.15,7-6.79-7.19-13.45-6.87-13.45-6.87,2.94-6.19,3.1-6.67,2.77-9a66.07,66.07,0,0,1,1.31-8.79c.38-1.65.81-3.68,1.19-5.56a19.3,19.3,0,0,1,6.1-10.65c3.66-3.23,9-6.94,14.7-7.74,10.52-1.45,16.61-1.3,18.65,1.42l0,.05c.72,1,1.38,1.9,2,2.77,3.58,5.05,4.92,6.6,9,10.1,3.21,2.78,10.66,14.49,13.88,20.84C428.5,340,431.74,341.22,435,346.3Z"/><path class="cls-1" d="M430.78,346.3s13.71,19.9-1.07,38.62c.06-3.25-1.17-2.68-2-1.87l-.49,0c.6-1.23,7.62-15.93.23-24.83,0,0-2.93-3.2-5.87-4.33a6.66,6.66,0,0,0,.7-2.23,10.58,10.58,0,0,0-3.32-9.4S427.94,344.12,430.78,346.3Z"/><path class="cls-1" d="M425.41,390.41l-.21-.08a12.61,12.61,0,0,0,.42-1.48l1.53-5.7,0-.08.49,0c.86-.81,2.09-1.38,2,1.87a16.5,16.5,0,0,1-1.14,3.93,10,10,0,0,1-2.54,3.63S424.37,393.49,425.41,390.41Z"/><path class="cls-3" d="M386.75,375.37c-.19-.85-4.55-20.92,14.3-25.36h.15c.09,4.35,4.18,4.66,9.41,5.45,4.88.74,9.19,1.66,10.94-1.55,2.94,1.13,5.87,4.33,5.87,4.33,7.39,8.9.37,23.6-.23,24.83l0,.08-1.53,5.7s.91-7-5-10.44-9.16-.86-13.4-1.56c-5.85-1-11.33-4.61-15.51-2.82a8,8,0,0,0-5.24,6.39l.28-3.12-.33,0c-.26-.64-.72-1.51-1.29-1.51Z"/><path class="cls-1" d="M420.63,378.41c5.9,3.41,5,10.44,5,10.44a12.61,12.61,0,0,1-.42,1.48c-1.09,3.08-3.67,8.18-4.91,11-3.37,5.73-8.58,10.77-18.12,9.62,0,0-13.4-1.21-14.83-14.91-.26-2.54-1.2-7.82-1.15-11.85,0-.34,0-.66,0-1l.25-2.76a8,8,0,0,1,5.24-6.39c4.18-1.79,9.66,1.85,15.51,2.82C411.47,377.55,414.72,375,420.63,378.41Z"/><path class="cls-3" d="M418.93,342.28a10.58,10.58,0,0,1,3.32,9.4,6.66,6.66,0,0,1-.7,2.23c-1.75,3.21-6.06,2.29-10.94,1.55-5.23-.79-9.32-1.1-9.41-5.45a9.14,9.14,0,0,1,.11-1.5,10.6,10.6,0,0,1,17.62-6.23Z"/><path class="cls-1" d="M406.67,340.83a10.58,10.58,0,0,0-5.36,7.68,9.14,9.14,0,0,0-.11,1.5h-.15c-18.85,4.44-14.49,24.51-14.3,25.36l-1.61.39c-.44,0-.95.53-1.48,2.09a15.63,15.63,0,0,0,0,5.9l-.29.07s-7.76-1.31-11-2.62c0,0,11.08-9.28,2.94-25a36.18,36.18,0,0,0-5.78-8.34S378.65,338,406.67,340.83Z"/><path class="cls-4" d="M349.17,326.58c-6.56,8.22-19,22.8-31.05,32-9.21,7-14.58,10.36-19.38,11-4.37.55-8.28-1.2-14.18-4.62a15.18,15.18,0,0,1-6.51-13.22c.16-9.26-.5-8.93,0-14.64s3.29-13.72,3.13-17A9.91,9.91,0,0,1,289,315c3.11-.18,5.38,1.75,8.19,5.9.91,2.3,2.54,4.9,1.2,8.55h0c2.24-2.35,4.28-4.58,5.59-6.26,4.72-6,19.22-25.41,23-30.46s14.33-17.43,25.08-17.6,26.33,2.28,34.18,9.29a104.15,104.15,0,0,1,14.61,16.24c-2-2.72-8.13-2.87-18.65-1.42-5.74.8-11,4.51-14.7,7.74a19.3,19.3,0,0,0-6.1,10.65c-.38,1.88-.81,3.91-1.19,5.56a66.07,66.07,0,0,0-1.31,8.79c-.32-2.28-6.19-3.25-8.79-5.37Z"/><path class="cls-1" d="M386.48,380.42l-.25,2.76c0,.32,0,.64,0,1h-.31c0,3.66-1.3,2-1.3,2a8.6,8.6,0,0,1-.91-2.46,15.63,15.63,0,0,1,0-5.9c.53-1.56,1-2.09,1.48-2.09s1,.87,1.29,1.51l.33,0Z"/><path class="cls-1" d="M337.35,365a22.46,22.46,0,0,1,5.86-8.86c7-6.57,9.93-9,12.86-15.21,0,0,6.66-.32,13.45,6.87a36.18,36.18,0,0,1,5.78,8.34c8.14,15.74-2.94,25-2.94,25-3.25-1.32-11.56-1-11.56-1-.67.35-1.29.67-1.84.92-1.54.71-4.26.85-6.95.77v.49a75.17,75.17,0,0,1-5.42,7.06,25.8,25.8,0,0,1-2.48,2l.08.08c1.14,4.82,1.14,19.78-.16,24.35s-1.79,12.75-1.79,12.75a86.76,86.76,0,0,0,.53,16.37,5.74,5.74,0,0,0,2.73,4.36,17.53,17.53,0,0,0,3.14.85l3.54,1.31a1.55,1.55,0,0,1,1.22,1.3l.16,1.16a1.48,1.48,0,0,0,.17.5l.57,1.09a1.74,1.74,0,0,1,.21.84,1.8,1.8,0,0,1-3.36.9l-1.23-2.16-.09.05-6.51-.18c-3.34,0-4.87,0-5.38.89l-2,3.63a2.66,2.66,0,0,1-2.33,1.38,1.39,1.39,0,0,1-1.38-1.31v-.08a1.21,1.21,0,0,1,0-.19l.7-5-4.15,5.37a3.12,3.12,0,0,1-2.45,1.2,1.16,1.16,0,0,1-1-1.69l3.07-6.56-6,7.33a2.94,2.94,0,0,1-2.14.92,1.19,1.19,0,0,1-1.19-1.2,1.17,1.17,0,0,1,.34-.83l1.86-2.48h0l-9.86.85a1.13,1.13,0,0,1-1.15-.72,1,1,0,0,1-.08-.42A1.13,1.13,0,0,1,311,455c3.11-.68,8.55-1.73,12.14-3.42,0,0,7.38-2.79,7.75-4.78.19-1-.41-10.3-.93-22.06,0,0-1.75-12.46-2.56-16.53a125,125,0,0,1-2.38-18.6A14.38,14.38,0,0,1,326,384a42,42,0,0,0,1.61-4.91,12.88,12.88,0,0,1,1.81-3.33c2.31-3.45,6.15-8.32,7.64-10.84Z"/><path class="cls-4" d="M358.84,332c.33,2.29.17,2.77-2.77,9s-5.86,8.64-12.86,15.21a22.46,22.46,0,0,0-5.86,8.86l-.33-.12c-1.49,2.52-5.33,7.39-7.64,10.84-6.82,5.15-19.35,6.37-25,4.43s-5.64-10.28-5.64-10.65c4.8-.61,10.17-4,19.38-11,12.09-9.19,24.49-23.77,31.05-32l.88.06C352.65,328.76,358.52,329.73,358.84,332Z"/><path class="cls-1" d="M302.65,306.44c4.56,4.4-2.61,7.66-2.61,7.66s-3.42,1.62-3.42,4.56a6.14,6.14,0,0,0,.53,2.26c-2.81-4.15-5.08-6.08-8.19-5.9a9.91,9.91,0,0,0-7.79,5.06c-.17-3.26-1.17-4.73-2.31-7.66s-2.28-6.31-2.28-9.08V300.5a1.23,1.23,0,0,1,2.4-.39l.21.63,2.28.16s4.72,2.28,8.31,4.07S298.08,302,302.65,306.44Z"/><path class="cls-5" d="M401.05,350c-18.85,4.44-14.49,24.51-14.3,25.36v0"/><path class="cls-5" d="M427.15,383.15l0-.08c.6-1.23,7.62-15.93.23-24.83,0,0-2.93-3.2-5.87-4.33"/><path class="cls-5" d="M386.43,377.27c-.26-.64-.72-1.51-1.29-1.51s-.95.53-1.48,2.09a15.63,15.63,0,0,0,0,5.9,8.6,8.6,0,0,0,.91,2.46s1.3,1.61,1.3-2v0"/><path class="cls-5" d="M427.68,383.05c.86-.81,2.09-1.38,2,1.87a16.5,16.5,0,0,1-1.14,3.93,10,10,0,0,1-2.54,3.63s-1.66,1-.62-2.07c0-.11.07-.22.11-.33"/><path class="cls-5" d="M427.15,383.15l-1.53,5.7a12.61,12.61,0,0,1-.42,1.48c-1.09,3.08-3.67,8.18-4.91,11-3.37,5.73-8.58,10.77-18.12,9.62,0,0-13.4-1.21-14.83-14.91-.26-2.54-1.2-7.82-1.15-11.85,0-.34,0-.66,0-1l.25-2.76.28-3.12.08-.91"/><path class="cls-5" d="M400.2,403.28a4.28,4.28,0,0,0,4.38.72"/><path class="cls-5" d="M425.62,388.85s.91-7-5-10.44-9.16-.86-13.4-1.56c-5.85-1-11.33-4.61-15.51-2.82a8,8,0,0,0-5.24,6.39c0,.22-.07.43-.09.64"/><path class="cls-5" d="M406.67,340.83a10.58,10.58,0,0,0-5.36,7.68,9.14,9.14,0,0,0-.11,1.5c.09,4.35,4.18,4.66,9.41,5.45,4.88.74,9.19,1.66,10.94-1.55a6.66,6.66,0,0,0,.7-2.23,10.58,10.58,0,0,0-15.58-10.85Z"/><path class="cls-5" d="M398.57,392.71s-3.79.52-5.93-1.15"/><path class="cls-5" d="M416.68,395.31s-3.78.6-5.95-1"/><path class="cls-5" d="M349.82,455.23l-6.51-.18c-3.34,0-4.87,0-5.38.89l-2,3.63a2.66,2.66,0,0,1-2.33,1.38,1.39,1.39,0,0,1-1.38-1.31v-.08a1.21,1.21,0,0,1,0-.19l.7-5-4.15,5.37a3.12,3.12,0,0,1-2.45,1.2,1.16,1.16,0,0,1-1-1.69l3.07-6.56-6,7.33a2.94,2.94,0,0,1-2.14.92,1.19,1.19,0,0,1-1.19-1.2,1.17,1.17,0,0,1,.34-.83l1.86-2.48,2.52-3.36"/><path class="cls-5" d="M349.19,453.92l.72,1.26,1.23,2.16a1.8,1.8,0,0,0,3.36-.9,1.74,1.74,0,0,0-.21-.84l-.57-1.09a1.48,1.48,0,0,1-.17-.5l-.16-1.16a1.55,1.55,0,0,0-1.22-1.3l-3.54-1.31a17.53,17.53,0,0,1-3.14-.85,5.74,5.74,0,0,1-2.73-4.36,86.76,86.76,0,0,1-.53-16.37s.49-8.19,1.79-12.75,1.3-19.53.16-24.35"/><line class="cls-5" x1="332.95" y1="454.38" x2="333.34" y2="452.94"/><path class="cls-5" d="M321.21,456.44l-9.86.85a1.13,1.13,0,0,1-1.15-.72,1,1,0,0,1-.08-.42A1.13,1.13,0,0,1,311,455c3.11-.68,8.55-1.73,12.14-3.42,0,0,7.38-2.79,7.75-4.78.19-1-.41-10.3-.93-22.06,0,0-1.75-12.46-2.56-16.53a125,125,0,0,1-2.38-18.6A14.38,14.38,0,0,1,326,384a42,42,0,0,0,1.61-4.91,12.88,12.88,0,0,1,1.81-3.33c2.31-3.45,6.15-8.32,7.64-10.84"/><path class="cls-5" d="M340.76,393.78s1.71-1.12,3.34-2.3a25.8,25.8,0,0,0,2.48-2,75.17,75.17,0,0,0,5.42-7.06"/><path class="cls-5" d="M336.2,370.62a18.33,18.33,0,0,1,1.15-5.58,22.46,22.46,0,0,1,5.86-8.86c7-6.57,9.93-9,12.86-15.21s3.1-6.67,2.77-9-6.19-3.25-8.79-5.37"/><path class="cls-5" d="M354.51,323.22a15.94,15.94,0,0,1-.57-2.79,101.34,101.34,0,0,1-.47-11.87s2.44-11.57-2.28-16.94"/><path class="cls-5" d="M353.94,320.43s-1.78,2.42-4.77,6.15c-6.56,8.22-19,22.8-31.05,32-9.21,7-14.58,10.36-19.38,11-4.37.55-8.28-1.2-14.18-4.62a15.18,15.18,0,0,1-6.51-13.22c.16-9.26-.5-8.93,0-14.64s3.29-13.72,3.13-17-1.17-4.73-2.31-7.66-2.28-6.31-2.28-9.08V300.5a1.23,1.23,0,0,1,2.4-.39l.21.63,2.28.16s4.72,2.28,8.31,4.07,8.3-2.93,12.87,1.47S300,314.1,300,314.1s-3.42,1.62-3.42,4.56a6.14,6.14,0,0,0,.53,2.26c.91,2.3,2.54,4.9,1.2,8.55"/><path class="cls-5" d="M441.49,390.17c-1.62.6-3.55.58-6.41.32a29.57,29.57,0,0,1-6.51-1.64"/><path class="cls-5" d="M400.83,300.74c.72,1,1.38,1.9,2,2.77,3.58,5.05,4.92,6.6,9,10.1,3.21,2.78,10.66,14.49,13.88,20.84,2.83,5.59,6.07,6.77,9.36,11.85.45.7.9,1.47,1.35,2.33,3.75,7.17,6.19,9.26,9.45,14.08s7.49,11.8,2.61,19.71c-2.9,4.68-4.59,6.87-6.95,7.74"/><path class="cls-5" d="M285.22,342.44s7.3-6.87,13.14-13c2.24-2.35,4.28-4.58,5.59-6.26,4.72-6,19.22-25.41,23-30.46s14.33-17.43,25.08-17.6,26.33,2.28,34.18,9.29a104.15,104.15,0,0,1,14.61,16.24"/><path class="cls-5" d="M344.18,381.2a71.65,71.65,0,0,0,7.83.73c2.69.08,5.41-.06,6.95-.77.55-.25,1.17-.57,1.84-.92,3.95-2.09,9.76-5.48,14.5-4.84"/><path class="cls-5" d="M360.8,380.24s8.31-.36,11.56,1,11,2.62,11,2.62"/><path class="cls-5" d="M441.49,390.16h0a11.46,11.46,0,0,1-1,2.62c-1,1.91-2.81,4.15-6.1,4.06"/><path class="cls-5" d="M440.53,392.79s1.72,2.43-4.8,21.49c-5.16,15.09-5.61,23.43-5.58,26.24a10.88,10.88,0,0,1-.21,2.35,34.77,34.77,0,0,0-.66,4.64c-.1,2,7.75,4.78,7.75,4.78,3.59,1.69,9,2.74,12.14,3.42a1.14,1.14,0,0,1-.25,2.25h-.09l-9.86-.84"/><path class="cls-5" d="M298.74,369.53h0c0,.37.13,8.76,5.64,10.65s18.18.72,25-4.43"/><path class="cls-5" d="M281.17,320.08A9.91,9.91,0,0,1,289,315c3.11-.18,5.38,1.75,8.19,5.9"/><path class="cls-5" d="M410.36,455.9l6.51-.18c3.34,0,4.87,0,5.38.89l2,3.63a2.66,2.66,0,0,0,2.33,1.38,1.38,1.38,0,0,0,1.38-1.31v-.08a1.21,1.21,0,0,0,0-.19l-.7-5,4.15,5.37a3.09,3.09,0,0,0,2.45,1.2,1.17,1.17,0,0,0,1.17-1.17,1.06,1.06,0,0,0-.13-.52l-3.07-6.56,6,7.34a2.93,2.93,0,0,0,2.13.91,1.19,1.19,0,0,0,1.19-1.2,1.17,1.17,0,0,0-.34-.83L439,457.12l-2.53-3.37"/><path class="cls-5" d="M411,454.59l-.72,1.26L409,458a1.8,1.8,0,0,1-3.36-.89,1.75,1.75,0,0,1,.21-.85l.57-1.08a1.54,1.54,0,0,0,.17-.51l.17-1.16a1.54,1.54,0,0,1,1.21-1.3l3.54-1.31a16.73,16.73,0,0,0,3.14-.85,5.72,5.72,0,0,0,2.73-4.36,230.75,230.75,0,0,0,1.86-29.63,81.16,81.16,0,0,1,1-14.77"/><line class="cls-5" x1="427.23" y1="455.05" x2="426.84" y2="453.61"/><path class="cls-5" d="M372.36,381.2s11.08-9.28,2.94-25a36.18,36.18,0,0,0-5.78-8.34c-6.79-7.19-13.45-6.87-13.45-6.87"/><path class="cls-5" d="M369.52,347.84s9.13-9.87,37.15-7"/><path class="cls-5" d="M418.93,342.28s9,1.84,11.85,4c0,0,2.89-2.34,4.24,0"/><path class="cls-5" d="M430.78,346.3s13.71,19.9-1.07,38.62"/><path class="cls-5" d="M358.84,332a66.07,66.07,0,0,1,1.31-8.79c.38-1.65.81-3.68,1.19-5.56a19.3,19.3,0,0,1,6.1-10.65c3.66-3.23,9-6.94,14.7-7.74,10.52-1.45,16.61-1.3,18.65,1.42l0,.05"/></svg>