<svg id="Layer_1" data-name="Layer 1" xmlns="http://www.w3.org/2000/svg" viewBox="0 0 700 700"><defs><style>.cls-1{fill:#feae63;}.cls-2{fill:#392328;}.cls-3{fill:#99abcc;}.cls-4{fill:#c4e7f9;}.cls-5{fill:none;stroke:#000;stroke-linecap:round;stroke-linejoin:round;stroke-width:2.3px;}</style></defs><title>Yoga_poses_2020_color</title><path class="cls-1" d="M624.62,392.3a1.66,1.66,0,0,1,0,3.31H622a1.9,1.9,0,0,0-1.49-1.5l-12-2.34,13.52.44Z"/><path class="cls-1" d="M447.53,357.18l-.15.17a7.24,7.24,0,0,1-1.61,2.23,18.48,18.48,0,0,0-2,3.4s-11.1.09-19.37-1.77a19.08,19.08,0,0,1-7.06-2.75c-12.57-9.5-12.57-32.67-12.57-32.67s.56-9,4.79-14.66c0,0,26.44,3.32,39.88,18.76a51.89,51.89,0,0,1,6.38,1.52,19.38,19.38,0,0,1,5.84,2.72,29.54,29.54,0,0,1,3.73,4.12c4.56,5.71,11.11,15.08,15,17.89,4.24,3.05,14,9,20.43,13.34,1.49,1,2.8,1.92,3.84,2.7,5.54,4.16,16.29,2.37,25.58,3.83s22.64,3.91,39.09,4.08h4a9.2,9.2,0,0,1,3,.5,133.31,133.31,0,0,0,14.54,4.22l29.11,5a2.42,2.42,0,0,1,2,2.38l-13.52-.44,12,2.34a1.9,1.9,0,0,1,1.49,1.5,2,2,0,0,1,0,.34,1.88,1.88,0,0,1-2,1.87l-11.49-1h-.41a1.53,1.53,0,0,1,.41,1,1.55,1.55,0,0,1-1.85,1.52l-14-2.73c-3.81-.36-9.43-.48-13.84-.88a8.86,8.86,0,0,1-4.45-1.91,4.61,4.61,0,0,0-3.12-1c-7.22.47-33.07,2-45,1.48-8.18-.38-13.24-.29-16.05-.14a9.94,9.94,0,0,1-5.48-1.36,48,48,0,0,0-5.84-3.06c-.76-.29-4.81-2.43-10.47-5.64-1.94-1.11-4.07-2.34-6.33-3.66C470.64,373.84,456.17,364.69,447.53,357.18Z"/><path class="cls-2" d="M513.37,347.17c4.22,2.66,7.26,11.59,1,15.77s-10.5-.52-10.5-.52l-.58,0a35.75,35.75,0,0,0-.24-7.7C502.27,346,510.37,345.28,513.37,347.17Z"/><path class="cls-2" d="M503,354.7a35.75,35.75,0,0,1,.24,7.7,24.24,24.24,0,0,1-1.52,6.78l-.87.3c-6.47-4.35-16.19-10.29-20.43-13.34-3.91-2.81-10.46-12.18-15-17.89l.89-.27c.53-1.81,3.14-3.92,6.12-4.31A34.55,34.55,0,0,1,490.17,336,26.55,26.55,0,0,1,503,354.38C503,354.49,503,354.6,503,354.7Z"/><path class="cls-2" d="M488.37,384.22c-1.37,1-2.36,1.72-3.86,2.79l-1.37-.35c0-.21-.61-3.34-1.1-6.1C484.3,381.88,486.43,383.11,488.37,384.22Z"/><path class="cls-1" d="M483.14,386.66l-1.79-.45s-8.94-.26-13.77-2.74c-3.79-2-3.83-3.45-7.09-2.87l-6,0,1.27-5-8.59-5.32c-.81,0-6-1.28-3.39-7.26a18.48,18.48,0,0,1,2-3.4,7.24,7.24,0,0,0,1.61-2.23l.15-.17c8.64,7.51,23.11,16.66,34.51,23.38C482.53,383.32,483.1,386.45,483.14,386.66Zm-15-8.57c.31-.54-.45-1.56-1.69-2.28s-2.51-.87-2.82-.33.44,1.56,1.69,2.28S467.79,378.63,468.11,378.09Z"/><path d="M466.42,375.81c1.24.72,2,1.74,1.69,2.28s-1.58.39-2.82-.33-2-1.74-1.69-2.28S465.17,375.09,466.42,375.81Z"/><path class="cls-1" d="M455.93,331.11l-.09.3a51.89,51.89,0,0,0-6.38-1.52c-13.44-15.44-39.88-18.76-39.88-18.76a10.25,10.25,0,0,1,9.16-4.52h0A107.29,107.29,0,0,1,437.1,313C446.82,317.1,455.93,331.11,455.93,331.11Z"/><path class="cls-3" d="M424.42,361.21l-.13.57s16.19,14.32-4.05,21.37a35.66,35.66,0,0,1-12,1.9c-9.71-.05-36.72-1.09-45.59-.8-1.62.05-3.06.16-4.38.31,3.31-9-1.39-14.5-1.39-14.5l19.23-9.8h0a96.3,96.3,0,0,1,11.93,2.56c21.83,4.56,29.31-4.35,29.31-4.35A19.08,19.08,0,0,0,424.42,361.21Z"/><path class="cls-4" d="M418.74,306.61a10.25,10.25,0,0,0-9.16,4.52c-4.23,5.68-4.79,14.66-4.79,14.66s0,23.17,12.57,32.67c0,0-7.48,8.91-29.31,4.35a96.3,96.3,0,0,0-11.93-2.56c-6.46-1-14.5-1.5-21.41.05l0-.09c-7.8-11.49-4.5-16-10.09-25.43-11-18.48-14.79-19.1-15.48-19,15.14-4.44,44-10.4,44-10.4C393.25,302.54,408,304,418.74,306.61Z"/><path class="cls-1" d="M313.32,385.91a5.33,5.33,0,0,0-3.13.72,3.63,3.63,0,0,0-1.27-.46V384a12.65,12.65,0,0,1,4.38-8.21A14.1,14.1,0,0,1,322,372a11.92,11.92,0,0,0,10.35-5.55c2.7-4,6.4-5.21,12.15-1.1a30.36,30.36,0,0,1,3,2.45s2.54,2.4,9.44,2.25c0,0,4.7,5.47,1.39,14.5-7.94.92-11.33,3.27-22,2.8-7.42-.32-14.44-4-17.7,1.6l-.95,2.24s-2.32.56-3.73-.81a3.29,3.29,0,0,1-.85-1.46A4.27,4.27,0,0,1,313.32,385.91Z"/><path class="cls-3" d="M354.69,360.21l0,.09a21.39,21.39,0,0,0-10.25,5.06c-5.75-4.11-9.45-2.89-12.15,1.1A11.92,11.92,0,0,1,322,372a14.1,14.1,0,0,0-8.66,3.78c-8.63,2.38-18.94,8.15-18.94,8.15-17.16,9.82-76.24,5.16-83.84,4.36s-10.43-4-27.15-4.36c-14.06-.32-36.82-.1-43.72,0-4.08-7.46-1.57-17.76-1.57-17.76h0c15.12-3.78,36.53-11.81,55.71-7.68,23.14,5,37.14,1.21,47.24-1.72S281.76,346,281.76,346c0-17.6,30-24.11,42-28.51,1.42-.52,3.19-1.08,5.21-1.68l.12,0h0c.69-.09,4.46.53,15.48,19C350.19,344.16,346.89,348.72,354.69,360.21Z"/><path class="cls-1" d="M310.19,386.63a5.33,5.33,0,0,1,3.13-.72,4.27,4.27,0,0,0-.28,3,3.29,3.29,0,0,0,.85,1.46,3.27,3.27,0,0,1-3.88-.92,2.49,2.49,0,0,1-.48-1.47A1.65,1.65,0,0,1,310.19,386.63Z"/><path class="cls-1" d="M310,389.47l-.1.08c-1,.64-3.82-.3-3.05-2.15a1.79,1.79,0,0,1,2.06-1.23,3.63,3.63,0,0,1,1.27.46,1.65,1.65,0,0,0-.66,1.37A2.49,2.49,0,0,0,310,389.47Z"/><path class="cls-1" d="M75.32,383.39c1.89-4.27,8-6.85,8-6.85,8.15-2.67,12.38-3.51,18.9-9.56s11.73-9.59,15.63-4,11.73,4.83,11.73,4.83a64.81,64.81,0,0,0,8.47-1.67h0s-2.51,10.3,1.57,17.76a19.65,19.65,0,0,0-4,.48c-2.09.46-4.2.89-6.3,1.29-12.42,2.35-24.64,3.57-30.32,2.77-6.95-1-13.14-1.74-13.14-1.74-2.85.09-5.6,3.32-7.5,3.32s-5.5-3.32-5.5-4.65S75.32,383.39,75.32,383.39Z"/><path class="cls-5" d="M75.32,383.39s.85-.38,2.56,1.14"/><path class="cls-5" d="M476.23,352c.14-.92-.31-1.84-1.94-3"/><path class="cls-5" d="M483.14,386.67h0c0-.21-.61-3.34-1.1-6.1"/><path class="cls-5" d="M503.83,362.42s4.19,4.69,10.5.52,3.26-13.11-1-15.77c-3-1.89-11.1-1.2-10.36,7.53a1.21,1.21,0,0,0,0,.19"/><path class="cls-5" d="M488.37,384.22c-1.37,1-2.36,1.72-3.86,2.79l-1.37-.35-1.79-.45s-8.94-.26-13.77-2.74c-3.79-2-3.83-3.45-7.09-2.87l-6,0,1.27-5-8.59-5.32c-.81,0-6-1.28-3.39-7.26a18.48,18.48,0,0,1,2-3.4,7.24,7.24,0,0,0,1.61-2.23"/><path class="cls-5" d="M466.3,338c.53-1.81,3.14-3.92,6.12-4.31A34.55,34.55,0,0,1,490.17,336,26.55,26.55,0,0,1,503,354.38c0,.11,0,.22,0,.32a35.75,35.75,0,0,1,.24,7.7,24.24,24.24,0,0,1-1.52,6.78"/><path class="cls-5" d="M437.1,348c2,.81,6,4.86,6,4.86a49.18,49.18,0,0,0,4.46,4.32c8.64,7.51,23.11,16.66,34.51,23.38,2.26,1.32,4.39,2.55,6.33,3.66,5.66,3.21,9.71,5.35,10.47,5.64a48,48,0,0,1,5.84,3.06,9.94,9.94,0,0,0,5.48,1.36c2.81-.15,7.87-.24,16.05.14,12,.56,37.83-1,45-1.48a4.61,4.61,0,0,1,3.12,1,8.86,8.86,0,0,0,4.45,1.91c4.41.4,10,.52,13.84.88l14,2.73a1.55,1.55,0,0,0,1.85-1.52,1.53,1.53,0,0,0-.41-1,1.61,1.61,0,0,0-.57-.39l-12.54-5"/><path class="cls-5" d="M409.58,311.13s26.44,3.32,39.88,18.76a51.89,51.89,0,0,1,6.38,1.52,19.38,19.38,0,0,1,5.84,2.72,29.54,29.54,0,0,1,3.73,4.12c4.56,5.71,11.11,15.08,15,17.89,4.24,3.05,14,9,20.43,13.34,1.49,1,2.8,1.92,3.84,2.7,5.54,4.16,16.29,2.37,25.58,3.83s22.64,3.91,39.09,4.08h4a9.2,9.2,0,0,1,3,.5,133.31,133.31,0,0,0,14.54,4.22l29.11,5a2.42,2.42,0,0,1,2,2.38"/><path class="cls-5" d="M608.47,396.86l11.49,1a1.88,1.88,0,0,0,2-1.87,2,2,0,0,0,0-.34,1.9,1.9,0,0,0-1.49-1.5l-12-2.34-8.15-1.59"/><path class="cls-5" d="M622,395.61h2.58a1.66,1.66,0,0,0,0-3.31l-2.63-.08-13.52-.44"/><path class="cls-5" d="M329.11,315.77l-.12,0c-2,.6-3.79,1.16-5.21,1.68-12,4.4-42,10.91-42,28.51,0,0-30.63,7.82-40.73,10.75s-24.1,6.71-47.24,1.72c-19.18-4.13-40.59,3.9-55.71,7.68a64.81,64.81,0,0,1-8.47,1.67s-7.82.76-11.73-4.83-9.12-2.05-15.63,4-10.75,6.89-18.9,9.56c0,0-6.14,2.58-8,6.85,0,0-2.47.66-2.47,2s3.61,4.65,5.5,4.65,4.65-3.23,7.5-3.32c0,0,6.19.76,13.14,1.74,5.68.8,17.9-.42,30.32-2.77,2.1-.4,4.21-.83,6.3-1.29a19.65,19.65,0,0,1,4-.48c6.9-.07,29.66-.29,43.72,0,16.72.38,19.55,3.55,27.15,4.36s66.68,5.46,83.84-4.36c0,0,10.31-5.77,18.94-8.15h0"/><path class="cls-5" d="M418.74,306.61c-10.75-2.58-25.49-4.07-45.66-1.24,0,0-28.82,6-44,10.4"/><path class="cls-5" d="M455.93,331.11s-9.11-14-18.83-18.14a107.29,107.29,0,0,0-18.34-6.36"/><path class="cls-5" d="M417.36,358.46s-7.48,8.91-29.31,4.35a96.3,96.3,0,0,0-11.93-2.56c-6.46-1-14.5-1.5-21.41.05a21.39,21.39,0,0,0-10.25,5.06"/><path class="cls-5" d="M418.76,306.61h0a10.25,10.25,0,0,0-9.16,4.52c-4.23,5.68-4.79,14.66-4.79,14.66s0,23.17,12.57,32.67a19.08,19.08,0,0,0,7.06,2.75c8.27,1.86,19.37,1.77,19.37,1.77"/><path class="cls-5" d="M424.29,361.78s16.19,14.32-4.05,21.37a35.66,35.66,0,0,1-12,1.9c-9.71-.05-36.72-1.09-45.59-.8-1.62.05-3.06.16-4.38.31-7.94.92-11.33,3.27-22,2.8-7.42-.32-14.44-4-17.7,1.6l-.95,2.24s-2.32.56-3.73-.81a3.29,3.29,0,0,1-.85-1.46,4.27,4.27,0,0,1,.28-3l2.4-5.26"/><path class="cls-5" d="M308.92,386.17V384a12.65,12.65,0,0,1,4.38-8.21A14.1,14.1,0,0,1,322,372a11.92,11.92,0,0,0,10.35-5.55c2.7-4,6.4-5.21,12.15-1.1a30.36,30.36,0,0,1,3,2.45s2.54,2.4,9.44,2.25c0,0,4.7,5.47,1.39,14.5h0"/><path class="cls-5" d="M313.32,385.91a5.33,5.33,0,0,0-3.13.72,1.65,1.65,0,0,0-.66,1.37,2.49,2.49,0,0,0,.48,1.47,3.27,3.27,0,0,0,3.88.92"/><path class="cls-5" d="M310.19,386.63a3.63,3.63,0,0,0-1.27-.46,1.79,1.79,0,0,0-2.06,1.23c-.77,1.85,2.06,2.79,3.05,2.15"/><line class="cls-5" x1="356.89" y1="370.06" x2="376.12" y2="360.26"/><path class="cls-5" d="M329,315.8a.4.4,0,0,1,.12,0h0c.69-.09,4.46.53,15.48,19,5.59,9.38,2.29,13.94,10.09,25.43"/><path class="cls-5" d="M138.08,366.15s-2.51,10.3,1.57,17.76"/></svg>