<svg id="Layer_1" data-name="Layer 1" xmlns="http://www.w3.org/2000/svg" viewBox="0 0 700 700"><defs><style>.cls-1{fill:#feae63;}.cls-2{fill:#c4e7f9;}.cls-3{fill:#99abcc;}.cls-4{fill:#392328;}.cls-5{fill:none;stroke:#000;stroke-linecap:round;stroke-linejoin:round;stroke-width:2.3px;}</style></defs><title>Yoga_poses_2020_color</title><path class="cls-1" d="M320.8,359.89c.66-.15,8.89-1.95,14-.82,4.17.93,4.58,2.38,7.59,1l5.81-1.47,0,5.16,9.65,3c.86-.17,6.89-.27,4.8,7.69l.67.1c0,.06,0,.12,0,.17s7.37,8.07,4.82,16.07a30.73,30.73,0,0,1,9.88-4.66s13.06-4,30.9-.09c0,0,10.64,2.68,5.83,8.1l-5,3.85-.25.7c8.18,2.82,32.56,6.33,40.39,7.41a32.52,32.52,0,0,1,4.89,1.06l49.88,13.1a38.91,38.91,0,0,0,9.33,1.62l12.48.65a8.63,8.63,0,0,1,4.12,1.31l7.45,4.7a19.37,19.37,0,0,0,8.56,2.91l3.86.37a3,3,0,0,1,2.5,1.85l3.74-4.25a3.72,3.72,0,0,0,.87-1.86l.16-1,.42-2.5a1.8,1.8,0,0,1,1.78-1.51h.21a1.82,1.82,0,0,1,1.6,2l-.91,7.66a3.72,3.72,0,0,1-.61,1.64l-4.82,7.18a5,5,0,0,1-4.19,2.24l-11.93,0a5.07,5.07,0,0,1-2.49-.66l-11.18-6.95a15.11,15.11,0,0,0-7-2.25c-10.93-.74-42.45-1.92-52.16-2.76-11.81-1-16.37-4.62-31.49-6.25s-31.49-3.07-44.75-3.25-20.31-1.43-24.25-8.67a11.69,11.69,0,0,1-1.4-4.72l-.57.05c-3.49-2.9-15.21-4.5-15.21-4.5h0a3.62,3.62,0,0,0-1.61-3,7.34,7.34,0,0,0-2.83-1.31c-3.54-.92-4.63-5-4.63-5v-.15a8.34,8.34,0,0,1-1.91,0c-5.51-2.05-1-6-1-6,.6-2.27-.19-6.31-3.62-9.18s-6.95-2.92-8.7-7.17c-.88-2.15-5.48-11.5-5.48-11.5l1.85-.05Zm19.85,5.91c.16-.6-.83-1.4-2.21-1.78s-2.65-.21-2.82.39.83,1.4,2.22,1.78S340.48,366.4,340.65,365.8Z"/><path class="cls-1" d="M557.67,426.56l-.16,1a3.72,3.72,0,0,1-.87,1.86l-3.74,4.25a3,3,0,0,0-2.5-1.85l1.42-1.84a2.89,2.89,0,0,0,.58-1.37l.41-3,.3-2.15V422a2,2,0,0,1,4.09-.2Z"/><path class="cls-1" d="M553,423.52c0,.05,0,.09,0,.14l-.15,1.92-.41,3a2.89,2.89,0,0,1-.58,1.37l-1.42,1.84-3.86-.37,2.23-2.67a2,2,0,0,0,.46-1.14l.3-4.2a1.72,1.72,0,0,1,3.44.12Z"/><path class="cls-2" d="M427.93,309.43c2.61,29.75,6.51,64.89-13.22,84.67,4.81-5.42-5.83-8.1-5.83-8.1-17.84-3.92-30.9.09-30.9.09a30.73,30.73,0,0,0-9.88,4.66c2.55-8-4.82-16.07-4.82-16.07s0-.11,0-.17a23.32,23.32,0,0,1,9.72-13.6c5.39-3.52,11.84-15.9,10.49-24.32-.77-4.76-3.14-11.31-5-16.09l.33-.14s10.27,2,26.55-7.15c0,0,16-8.67,20.78-14.63A72.88,72.88,0,0,1,427.93,309.43Z"/><path class="cls-3" d="M375.77,314.05a48.54,48.54,0,0,0-11.69,6.76c-11.79,9-47.69,17.25-60.5,24.19s-21.29,3.63-36.41,10.57S236.4,368.7,220,375.13a232,232,0,0,0-21.25,9.5l-.39-.76c-5.07-6.21-5.86-16.32-5.86-16.32l-.08-.15c11.41-5.73,26.7-16.56,33.69-22,10.51-8.22,19.74-11.57,34.87-15.44S285.85,322.2,294.3,315s23.57-20.81,48.17-35.21,23.06-23.89,42.81-23.4c17.27.42,35,17.9,40.87,42.18-4.79,6-20.78,14.63-20.78,14.63-16.28,9.18-26.55,7.15-26.55,7.15l-.33.14c-1.46-3.66-2.65-6.28-2.65-6.28Z"/><path class="cls-4" d="M347.11,400.31a3.62,3.62,0,0,1,1.61,3,3.57,3.57,0,0,1-.93,1.9,5.59,5.59,0,0,1-4.17,1.83c-5.71.05-13,.18-15.41,0a62.47,62.47,0,0,1-11.21-2c-7-1.81-8.31-7.09-8.31-7.09-.51-1.17-.95-2.32-1.32-3.44-.08-.22-.15-.44-.22-.67A32.36,32.36,0,0,1,306,389c-1.57-11.05,3.89-19.53,11.52-29l1.41,0s4.6,9.35,5.48,11.5c1.75,4.25,5.26,4.29,8.7,7.17s4.22,6.91,3.62,9.18c0,0-4.53,4,1,6a8.34,8.34,0,0,0,1.91,0V394s1.09,4.1,4.63,5A7.34,7.34,0,0,1,347.11,400.31Z"/><path d="M338.44,364c1.38.38,2.37,1.18,2.21,1.78s-1.43.78-2.81.39-2.38-1.18-2.22-1.78S337.05,363.63,338.44,364Z"/><path class="cls-4" d="M307.37,394.59c2.2,7.46-4.18,8.05-9.05,8s-8.46-4.74-4-10.87S306,389,306,389a32.36,32.36,0,0,0,1.13,4.95C307.22,394.15,307.29,394.37,307.37,394.59Z"/><path class="cls-1" d="M198.36,383.87l.39.76a135,135,0,0,0-13.36,7.74c-6.92,4.62-17.94,9-28.45,12.86-9.6,3.53-13.85,4.27-18.43,3.59a1.35,1.35,0,0,1-1.08-1.76,4.2,4.2,0,0,1,3.86-2.83,12.51,12.51,0,0,1,4.87-3.86c3.33-1.54,11.1-9.68,12.55-12.58,3.33-6.68,0-19.5,8.69-19.77a29.25,29.25,0,0,1,12.32,2.81c2.23,1,7-.56,12.7-3.43l.08.15S193.29,377.66,198.36,383.87Z"/><path class="cls-5" d="M350.24,389.2s5.34.42,7.23-4"/><path class="cls-5" d="M362.08,386.18a38,38,0,0,1,1.2-11.5c0-.05,0-.11,0-.17a23.32,23.32,0,0,1,9.72-13.6c5.39-3.52,11.84-15.9,10.49-24.32-.77-4.76-3.14-11.31-5-16.09-1.46-3.66-2.65-6.28-2.65-6.28"/><path class="cls-5" d="M384.33,312.06a23.93,23.93,0,0,0-8.56,2,48.54,48.54,0,0,0-11.69,6.76c-11.79,9-47.69,17.25-60.5,24.19s-21.29,3.63-36.41,10.57S236.4,368.7,220,375.13a232,232,0,0,0-21.25,9.5,135,135,0,0,0-13.36,7.74c-6.92,4.62-17.94,9-28.45,12.86-9.6,3.53-13.85,4.27-18.43,3.59a1.35,1.35,0,0,1-1.08-1.76,4.2,4.2,0,0,1,3.86-2.83,12.51,12.51,0,0,1,4.87-3.86c3.33-1.54,11.1-9.68,12.55-12.58,3.33-6.68,0-19.5,8.69-19.77a29.25,29.25,0,0,1,12.32,2.81c2.23,1,7-.56,12.7-3.43,11.41-5.73,26.7-16.56,33.69-22,10.51-8.22,19.74-11.57,34.87-15.44S285.85,322.2,294.3,315s23.57-20.81,48.17-35.21,23.06-23.89,42.81-23.4c17.27.42,35,17.9,40.87,42.18a72.88,72.88,0,0,1,1.78,10.85c2.61,29.75,6.51,64.89-13.22,84.67"/><path class="cls-5" d="M368.1,390.75a30.73,30.73,0,0,1,9.88-4.66s13.06-4,30.9-.09c0,0,10.64,2.68,5.83,8.1l-5,3.85"/><path class="cls-5" d="M358.3,394.8c4.91-.2,6.82-1.95,9.8-4"/><path class="cls-5" d="M378.82,320.36s10.27,2,26.55-7.15c0,0,16-8.67,20.78-14.63"/><path class="cls-5" d="M192.5,367.55s.79,10.11,5.86,16.32"/><path class="cls-5" d="M320.76,359.9h0c.66-.15,8.89-1.95,14-.82,4.17.93,4.58,2.38,7.59,1l5.81-1.47,0,5.16,9.65,3c.86-.17,6.89-.27,4.8,7.69a22.89,22.89,0,0,1-.74,2.28"/><path class="cls-5" d="M336.75,387.78s-4.53,4,1,6a8.34,8.34,0,0,0,1.91,0,8,8,0,0,0,6.42-3.87s1.21-3-2.63-2.07"/><path class="cls-5" d="M319,359.93s4.6,9.35,5.48,11.5c1.75,4.25,5.26,4.29,8.7,7.17s4.22,6.91,3.62,9.18"/><path class="cls-5" d="M306,389s-7.29-3.36-11.73,2.76-1,10.84,4,10.87,11.25-.55,9.05-8"/><path class="cls-5" d="M339.65,394s1.09,4.1,4.63,5a7.34,7.34,0,0,1,2.83,1.31,3.62,3.62,0,0,1,1.61,3,3.57,3.57,0,0,1-.93,1.9,5.59,5.59,0,0,1-4.17,1.83c-5.71.05-13,.18-15.41,0a62.47,62.47,0,0,1-11.21-2c-7-1.81-8.31-7.09-8.31-7.09-.51-1.17-.95-2.32-1.32-3.44-.08-.22-.15-.44-.22-.67A32.36,32.36,0,0,1,306,389c-1.57-11.05,3.89-19.53,11.52-29l1.41,0,1.85-.05"/><path class="cls-5" d="M348.73,403.35s11.72,1.6,15.21,4.5"/><path class="cls-5" d="M367.34,397.4s-3.3,4.83-2.83,10.4a11.69,11.69,0,0,0,1.4,4.72c3.94,7.24,11,8.48,24.25,8.67s29.62,1.61,44.75,3.25,19.68,5.23,31.49,6.25c9.71.84,41.23,2,52.16,2.76a15.11,15.11,0,0,1,7,2.25l11.18,6.95a5.07,5.07,0,0,0,2.49.66l11.93,0a5,5,0,0,0,4.19-2.24l4.82-7.18a3.72,3.72,0,0,0,.61-1.64l.91-7.66a1.82,1.82,0,0,0-1.6-2h-.21a1.8,1.8,0,0,0-1.78,1.51l-.42,2.5-.16,1a3.72,3.72,0,0,1-.87,1.86l-3.74,4.25"/><path class="cls-5" d="M530.31,433.69h0a19.79,19.79,0,0,0,10.59,3.67,32.69,32.69,0,0,1,9.06.42,3,3,0,0,0,3.07-2.34,3.23,3.23,0,0,0,.08-.68,2.9,2.9,0,0,0-.23-1.14,3,3,0,0,0-2.5-1.85l-3.86-.37A19.37,19.37,0,0,1,538,428.5l-7.45-4.7a8.63,8.63,0,0,0-4.12-1.31l-12.48-.65a38.91,38.91,0,0,1-9.33-1.62l-49.88-13.1a32.52,32.52,0,0,0-4.89-1.06c-7.83-1.08-32.21-4.59-40.39-7.41-.28-.09-.53-.19-.77-.28l-6.22-3.2"/><path class="cls-5" d="M550.4,431.78l1.42-1.84a2.89,2.89,0,0,0,.58-1.37l.41-3,.3-2.15V422a2,2,0,0,1,4.09-.2l.47,4.78"/><path class="cls-5" d="M546.54,431.41l2.23-2.67a2,2,0,0,0,.46-1.14l.3-4.2a1.72,1.72,0,0,1,3.44.12c0,.05,0,.09,0,.14l-.15,1.92"/><path class="cls-5" d="M363.28,374.68s7.37,8.07,4.82,16.07h0"/></svg>