<svg id="Layer_1" data-name="Layer 1" xmlns="http://www.w3.org/2000/svg" viewBox="0 0 700 700"><defs><style>.cls-1{fill:#feae63;}.cls-2{fill:#392328;}.cls-3{fill:#c4e7f9;}.cls-4{fill:#99abcc;}.cls-5{fill:none;stroke:#000;stroke-linecap:round;stroke-linejoin:round;stroke-width:2.3px;}</style></defs><title>Yoga_poses_2020_color</title><path class="cls-1" d="M465.59,366.69h0c-16.38-9.33-4.32-27.91-4.32-27.91s19.46-19.6,29.33-4.74c5.41,8.15,6.39,11.61,6.53,12.19a.66.66,0,0,0,0,.09,17.27,17.27,0,0,1,.82,2.9,22.94,22.94,0,0,1,.39,4.92,88.23,88.23,0,0,1-.82,10.89c-1.41,9.57-4.06,11.09-4.13,15-.06,3.2-1.67,14.66-2.81,22.44-.64,4.34-1.13,7.54-1.13,7.54s17.69,2.5,25.72,3.8c5.87,1,16.44,1.44,21.71,1.64a20.33,20.33,0,0,1,6.22,1.22l27.57,8.07,24,4.66a1.6,1.6,0,0,1-.18,3.2H582.59a1,1,0,0,1,0,.25V433a1.61,1.61,0,0,1-1.73,1.6L546,431.83a9.08,9.08,0,0,1-3.46-1l-.94-.49a9.13,9.13,0,0,0-5-1c-9.94,1-31.39,1.87-39.62,2.19a57.1,57.1,0,0,1-6.54-.11l-14.36-1.05A4.6,4.6,0,0,1,472,427.1c-.89-3-2.25-8.09-3.46-14.48-.62-3.25-1.2-6.85-1.66-10.69C465.67,392.06,465.52,377,465.59,366.69Z"/><path class="cls-1" d="M493.85,304.4a8.75,8.75,0,0,1-1.19-1.71c-1.57-5.87,4.48-4.43,4.48-4.43,2.28-.86,5.2-3.95,5.56-8.57s-1.71-7.59.82-11.62c1.27-2,6.39-11.51,6.39-11.51l1.15,1.53s7,6,9.33,11.11c1.8,4,.86,5.26,3.86,6.9l4.81,3.9-4.26,3.21,3.49,9.85c.72.65,5.17,6.44-5.76,9.51,0,0-6.61,1.57-8.89,5.91,0,0-6,10.38-12.44,17.54,0,0-4.71,5.9-3.24,13.2a17.27,17.27,0,0,0-.82-2.9.66.66,0,0,1,0-.09c-.14-.58-1.12-4-6.53-12.19-9.87-14.86-29.33,4.74-29.33,4.74l-5.61,1.68c5.54-6.75,10.88-12.41,16.09-14.95,9.9-4.85,9-10.84,9-11.16a25.3,25.3,0,0,0,4.54,2.47s8.3,3.64,7.65-2.68a6.92,6.92,0,0,0-.63-2.27c-1.74-3.69,1.38-7.45,1.38-7.45Zm24.59-16.18c.6-.23.65-1.55.11-2.93s-1.46-2.32-2.06-2.09-.65,1.55-.12,2.93S517.84,288.45,518.44,288.22Z"/><path d="M518.55,285.29c.54,1.38.49,2.7-.11,2.93s-1.53-.7-2.07-2.09-.48-2.7.12-2.93S518,283.9,518.55,285.29Z"/><path class="cls-2" d="M480.72,314.35a25.41,25.41,0,0,1-9.22-11.5,28.82,28.82,0,0,1-1.43-17.46,21.4,21.4,0,0,1,1.61-4.61c.5-.83,1-1.62,1.54-2.37,9-13,20.9-13.9,35.81-13l.88,1.16s-5.12,9.48-6.39,11.51c-2.53,4-.46,7-.82,11.62s-3.28,7.71-5.56,8.57c0,0-6.05-1.44-4.48,4.43a8.75,8.75,0,0,0,1.19,1.71l-.19,0s-3.12,3.76-1.38,7.45a6.92,6.92,0,0,1,.63,2.27c.65,6.32-7.65,2.68-7.65,2.68A25.3,25.3,0,0,1,480.72,314.35Z"/><path class="cls-3" d="M497.79,385.92a19.06,19.06,0,0,1-7.2,16.5c1.14-7.78,2.75-19.24,2.81-22.44.07-3.86,2.72-5.38,4.13-15,0,.71.1,10.45,0,15.94C497.5,382.61,497.66,384.26,497.79,385.92Z"/><path class="cls-2" d="M472.65,278l.57.4c-.53.75-1,1.54-1.54,2.37a21.4,21.4,0,0,0-1.61,4.61l-.09,0c-3.25,8.67-11.19,5.59-13.12,2.46-2.71-4.39-1.47-14.07,6.28-15.07S472.65,278,472.65,278Z"/><path class="cls-3" d="M468.52,412.62,450,424a24.7,24.7,0,0,1-11.74,3l-15.72,0c3.44-7.45,3.8-17.25,2.54-26.94-1.4-10.77-7.83-20.48-8.23-21.07,14.32-4.88,27-24.17,38.82-38.52l5.61-1.68s-12.06,18.58,4.32,27.91h0c-.07,10.33.08,25.37,1.27,35.24C467.32,405.77,467.9,409.37,468.52,412.62Z"/><path class="cls-4" d="M425.06,400.05c1.26,9.69.9,19.49-2.54,26.94-42.31.06-131.57.16-140.26,0-11.4-.25-11.09,1.91-22.5-2.65s-20.52-1.31-40.07-2.94c-12.92-1.07-31.25-1.45-42.19-1.57v-.27c-5-7.06-1.51-20-1.51-20,16.82-1.33,44.66-10,56.08-10.76,14.66-1,26.74,6.88,39.44,7.86s29.3-4.93,45.92-6.89a136.74,136.74,0,0,0,30.62-7.49c18.25-14.66,32.91-12.71,44.64-7.49S412.56,380,412.56,380a21.53,21.53,0,0,0,4.27-1C417.23,379.57,423.66,389.28,425.06,400.05Z"/><path class="cls-1" d="M177.5,419.52v.27c-5.61-.08-9.28-.08-9.28-.08-8.8,1-30,5.89-41,7.52-8.16,1.2-17.9.63-22.47.25a2.86,2.86,0,0,1-.42-5.64c2.89-.68,7.84-2,9.85-3.08,2.94-1.63,10.76-6.84,10.76-6.84,14.66-8.47,12.7-9.78,20.85-17.92s8.47-.65,19.22,4.56c2.37,1.15,6.26,1.36,11,1C176,399.55,172.49,412.46,177.5,419.52Z"/><path class="cls-5" d="M497.14,298.26s-6.05-1.44-4.48,4.43a8.75,8.75,0,0,0,1.19,1.71,8.27,8.27,0,0,0,7,3s3.24-.77.16-3.45"/><path class="cls-5" d="M505,310.62s2.95,4.69,7.75,3.55"/><path class="cls-5" d="M509.91,266.56s-5.12,9.48-6.39,11.51c-2.53,4-.46,7-.82,11.62s-3.28,7.71-5.56,8.57"/><path class="cls-5" d="M472.65,278s-1.76-6.26-9.51-5.25-9,10.68-6.28,15.07c1.93,3.13,9.87,6.21,13.12-2.46"/><path class="cls-5" d="M485.26,316.82a25.37,25.37,0,0,1-13.76-14,28.82,28.82,0,0,1-1.43-17.46,21.4,21.4,0,0,1,1.61-4.61c.5-.83,1-1.62,1.54-2.37,9-13,20.9-13.9,35.81-13l.88,1.16,1.15,1.53s7,6,9.33,11.11c1.8,4,.86,5.26,3.86,6.9l4.81,3.9-4.26,3.21,3.49,9.85c.72.65,5.17,6.44-5.76,9.51,0,0-6.61,1.57-8.89,5.91,0,0-6,10.38-12.44,17.54,0,0-4.71,5.9-3.24,13.2"/><path class="cls-5" d="M493.66,304.42s-3.12,3.76-1.38,7.45a6.92,6.92,0,0,1,.63,2.27c.65,6.32-7.65,2.68-7.65,2.68"/><path class="cls-5" d="M480.72,314.34h0c0,.32.92,6.31-9,11.16-5.21,2.54-10.55,8.2-16.09,14.95-11.79,14.35-24.5,33.64-38.82,38.52a21.53,21.53,0,0,1-4.27,1s-8.15,0-19.87-5.21-26.39-7.17-44.64,7.49a136.74,136.74,0,0,1-30.62,7.49c-16.62,2-33.21,7.87-45.92,6.89s-24.78-8.84-39.44-7.86c-11.42.76-39.26,9.43-56.08,10.76-4.77.37-8.66.16-11-1-10.75-5.21-11.08-12.71-19.22-4.56s-6.19,9.45-20.85,17.92c0,0-7.82,5.21-10.76,6.84-2,1.12-7,2.4-9.85,3.08a2.86,2.86,0,0,0,.42,5.64c4.57.38,14.31.95,22.47-.25,11.07-1.63,32.25-6.54,41.05-7.52,0,0,3.67,0,9.28.08,10.94.12,29.27.5,42.19,1.57,19.55,1.63,28.67-1.62,40.07,2.94s11.1,2.4,22.5,2.65c8.69.2,97.95.1,140.26,0l15.72,0A24.7,24.7,0,0,0,450,424l18.54-11.36"/><path class="cls-5" d="M416.81,379l0,0c.4.59,6.83,10.3,8.23,21.07,1.26,9.69.9,19.49-2.54,26.94"/><path class="cls-5" d="M497.14,346.32a17.27,17.27,0,0,1,.82,2.9,22.94,22.94,0,0,1,.39,4.92,88.23,88.23,0,0,1-.82,10.89c-1.41,9.57-4.06,11.09-4.13,15-.06,3.2-1.67,14.66-2.81,22.44-.64,4.34-1.13,7.54-1.13,7.54s17.69,2.5,25.72,3.8c5.87,1,16.44,1.44,21.71,1.64a20.33,20.33,0,0,1,6.22,1.22l27.57,8.07,24,4.66a1.6,1.6,0,0,1-.18,3.2H582.62"/><path class="cls-5" d="M477.5,334.85s15.11-.33,19.62,11.38"/><path class="cls-5" d="M465.77,355.23s-.13,4.73-.18,11.46c-.07,10.33.08,25.37,1.27,35.24.46,3.84,1,7.44,1.66,10.69,1.21,6.39,2.57,11.47,3.46,14.48a4.6,4.6,0,0,0,4.08,3.29l14.36,1.05a57.1,57.1,0,0,0,6.54.11c8.23-.32,29.68-1.23,39.62-2.19a9.13,9.13,0,0,1,5,1l.94.49a9.08,9.08,0,0,0,3.46,1l34.88,2.76a1.61,1.61,0,0,0,1.73-1.6v-.19a1,1,0,0,0,0-.25,1.59,1.59,0,0,0-1.29-1.33l-17.36-3.15"/><path class="cls-5" d="M497.53,365v0c0,.71.1,10.45,0,15.94,0,1.64.13,3.29.26,4.95a19.06,19.06,0,0,1-7.2,16.5"/><path class="cls-5" d="M455.65,340.46l5.61-1.68s19.46-19.6,29.33-4.74c5.41,8.15,6.39,11.61,6.53,12.19a.66.66,0,0,0,0,.09"/><path class="cls-5" d="M461.26,338.78s-12.06,18.58,4.32,27.91"/><path class="cls-5" d="M176,399.55s-3.5,12.91,1.51,20"/></svg>