<svg id="Layer_1" data-name="Layer 1" xmlns="http://www.w3.org/2000/svg" viewBox="0 0 700 700"><defs><style>.cls-1{fill:#feae63;}.cls-2{fill:#99abcc;}.cls-3{fill:#c4e7f9;}.cls-4{fill:#170607;}.cls-5{fill:none;stroke:#000;stroke-linecap:round;stroke-linejoin:round;stroke-width:2.3px;}</style></defs><title>Yoga_poses_2020_color</title><path class="cls-1" d="M444.3,400.61l.48.06a2.1,2.1,0,0,1,1.85,2.08V403a2.11,2.11,0,0,1-2.1,2.11H444a1.77,1.77,0,0,1,.07,3.54l-4.29.15,1.68,0a1.87,1.87,0,0,1,1.94,1.86v.14a1.86,1.86,0,0,1-1.86,1.74l-12.06-.9v-2.29a2.34,2.34,0,0,0,2.34-2.34l.46-9.28a5.22,5.22,0,0,0-.12-1.36l-1.25-5.4a13.07,13.07,0,0,0-2.16-4.86l1.38-.49a5.74,5.74,0,0,1,2.29-.32l3.7.23a8.63,8.63,0,0,0,2-.12l3.25-.6a5.31,5.31,0,0,1,3.1.34h0a5,5,0,0,1,3,4.61v.65a2.24,2.24,0,0,1-2.24,2.23h-5.06a1.8,1.8,0,0,0-1.84,1.75,1.47,1.47,0,0,0,1.46,1.44l4.89.61a2.1,2.1,0,0,1-.45,4.17Z"/><path class="cls-2" d="M378.72,420.25a67.1,67.1,0,0,1,9.47-1.76,36.1,36.1,0,0,0,5.05-.65c5-1.2,6.84-2.75,10.31-3.71a1.22,1.22,0,0,0,1.22,1.21,3.67,3.67,0,0,0,3.5-2.57s2.3-.84,4.71-1.52l2.27,8.78a2.14,2.14,0,0,0,4.21-.76l0,.17a2.49,2.49,0,0,0,5-.36l-.27-9.14,1.05,7a2.13,2.13,0,0,0,2.1,1.81,2.16,2.16,0,0,0,1.51-.62,2.13,2.13,0,0,0,.62-1.5v-2.51l3.31,3.73a9.9,9.9,0,0,1,2.5,6.58V429a9.92,9.92,0,0,1-3.34,7.42l-3.06,2.7a24.21,24.21,0,0,1-6.47,4.1l-10.58,4.55c-16.08,7.39-37.14,8.26-51,7.17s-40.38-1.62-40.38-1.62H318a56.53,56.53,0,0,1-1.07-18v-.07q1.82-.06,3.63-.27c6.19-.73,20-2.91,39.49-9.26C368.48,423,374.41,421.31,378.72,420.25Z"/><path class="cls-1" d="M387.21,304a69,69,0,0,0-2.88,10.19c0-4.4-4.38-14.38-7.09-22.71a98.48,98.48,0,0,1,.18-22.86l.1-.55c2.28.39,4.83.76,7.68,1.1a24.13,24.13,0,0,1,10.37,4.31c8.31,6.7,10.76,16.44,11.78,26.11,1.2,11.29,3.15,21.5,4.67,31.82a103.35,103.35,0,0,0,5.76,21.82c.27.77.52,1.51.76,2.23a40,40,0,0,1,2,12.43v7.48a5.74,5.74,0,0,0,1,3.24,3.69,3.69,0,0,1,.29.45,8.43,8.43,0,0,0,3.06,3.13l2,1.77a13.26,13.26,0,0,1,4.08,7l1.25,5.4a5.22,5.22,0,0,1,.12,1.36l-.46,9.28a2.34,2.34,0,0,1-2.34,2.34v7.3a2.13,2.13,0,0,1-.62,1.5,2.16,2.16,0,0,1-1.51.62,2.13,2.13,0,0,1-2.1-1.81l-1.05-7,.27,9.14a2.49,2.49,0,0,1-5,.36l0-.17a2.14,2.14,0,0,1-4.21.76L413,411.25l-.36-1.39L409.54,400a4.65,4.65,0,0,0-.45-1v8.84a14.92,14.92,0,0,1-.68,4.45l-.14.47a3.67,3.67,0,0,1-3.5,2.57,1.22,1.22,0,0,1-1.22-1.21v-6.38a8.61,8.61,0,0,0-.11-1.43l-1.16-7.66a8.13,8.13,0,0,1,.09-3.07c.12-.51.27-1,.44-1.56a40.16,40.16,0,0,1,3.4-7.26,8.19,8.19,0,0,0,1.08-4.64l-.28-4.27-.36,0c-4.07-5.38-7.33-11.24-8.09-17.43s-.7-9.75-5.59-23.46C389.21,326.49,387.74,311.48,387.21,304Z"/><path class="cls-1" d="M412.62,409.86l.36,1.39c-2.41.68-4.71,1.52-4.71,1.52l.14-.47a14.92,14.92,0,0,0,.68-4.45V399a4.65,4.65,0,0,1,.45,1Z"/><path class="cls-1" d="M403.55,407.75v6.38c-3.47,1-5.32,2.51-10.31,3.71a36.1,36.1,0,0,1-5.05.65A29.12,29.12,0,0,0,385.58,402h0a33.43,33.43,0,0,0,5.59-1.57,11.11,11.11,0,0,1,3.48-.6,5,5,0,0,0,3.87-1.89l.19-.25c.26-.33.56-.7.89-1.08a8.66,8.66,0,0,1,3.21-2.55c-.17.53-.32,1.05-.44,1.56a8.13,8.13,0,0,0-.09,3.07l1.16,7.66A8.61,8.61,0,0,1,403.55,407.75Z"/><path class="cls-2" d="M399.6,396.58c-.33.38-.63.75-.89,1.08l-.19.25a5,5,0,0,1-3.87,1.89,11.11,11.11,0,0,0-3.48.6,33.43,33.43,0,0,1-5.59,1.57,85,85,0,0,1-13.3,1.32c-3,.11-6.85,0-11.11-.16.54-.17,18.75-5.8,32.44-6.58A44,44,0,0,1,399.6,396.58Z"/><path class="cls-2" d="M393.61,396.51v0c-13.69.78-31.9,6.41-32.44,6.58-6.23-.29-13.25-.81-19.36-1.31-14.68-6.47-32.09-7.73-41.73-7.88h0c1.18-1.7,5.26-7.6,6.39-9.21,2.28-3.26,5.54-16,7.82-20.2,0,0,23.44,4.88,70,.32,2,6.74,2.51,13,4.05,16.62A91.85,91.85,0,0,1,392.1,392Z"/><path class="cls-2" d="M341.81,401.82c6.11.5,13.13,1,19.36,1.31,4.26.19,8.14.27,11.11.16a85,85,0,0,0,13.3-1.32h0a29.12,29.12,0,0,1,2.61,16.51,67.1,67.1,0,0,0-9.47,1.76c-4.31,1.06-10.24,2.75-18.71,5.52-19.46,6.35-33.3,8.53-39.49,9.26q-1.81.21-3.63.27c-.87,0-1.74,0-2.62,0-4.42-.07-13.39-.25-18.67-.59h0c-1.17-.08-2.15-.16-2.86-.25-5.08-.64-18.23-6.27-23.62-9.65a12,12,0,0,1-4.66-5.5,1.64,1.64,0,0,0,2.07-1.57,1.71,1.71,0,0,0-.11-.59l2,4.84a2,2,0,0,0,3.91-.78,2,2,0,0,0-.15-.75l-2.43-6.15a6.74,6.74,0,0,1-.47-2l-.18-2a4.84,4.84,0,0,0,.58,1.89l5,9.27a2.37,2.37,0,0,0,2.09,1.25,2.3,2.3,0,0,0,1.18-.32,2.38,2.38,0,0,0,1-3l0-.09a2.21,2.21,0,0,0,4.23-.89,2.5,2.5,0,0,0-.07-.54L280.78,409a4.36,4.36,0,0,1-.12-1.35l.48-6.67h.14a5.3,5.3,0,0,1,5.14-2.31h0l1,1.44a4.73,4.73,0,0,1,.82,2.68v5.31a3.2,3.2,0,0,0,3.2,3.2,1.85,1.85,0,0,0,1.85-1.85V403.8l.53-6a5,5,0,0,0-.6-2.81l-.51-.91s2.83-.18,7.39-.12C309.72,394.09,327.13,395.35,341.81,401.82Z"/><path class="cls-3" d="M384.33,314.18l-3.42,27.53c-1.14,13.69,2.06,18.52,3.42,23.13-46.6,4.56-70-.32-70-.32,2.28-4.24,1.75-19.88.12-25.74l-6.12-24.6c0-5.52,5.6-16.26,6.73-21.56,0,0,20.41,13.52,62.22-1.15C380,299.8,384.33,309.78,384.33,314.18Z"/><path class="cls-1" d="M377.52,268.06l-.1.55a98.48,98.48,0,0,0-.18,22.86c-41.81,14.67-62.22,1.15-62.22,1.15a152,152,0,0,0-.61-22.21l-.17-.48c.86-.31,1.61-.6,2.33-.87,2.6-1,13.52-3.75,15.15-9.28,1.3-4.44.06-12.51,0-12.87,2.54,2.4,6.82,4.6,14,4.46a22.63,22.63,0,0,0,10-2.66l.19.33c-.14,6,.71,11.75,4.29,13.77C360.18,262.81,364.3,265.78,377.52,268.06Z"/><path class="cls-1" d="M367.94,223.45s.31,5-2.16,8.12c0,0-1.54,1.41-1-2.25l-.32,0c0-.32.08-.64.11-.94l.36-5.89.32,0C365.92,221.4,367.28,219.74,367.94,223.45Z"/><path class="cls-4" d="M323.91,220.06c-.11.71-.13,1.13-.13,1.13s-5.19-15.66,3.83-23.69a21.24,21.24,0,0,1,6.86-4.09c8-3,16.52-1.17,19.41-.39.66.18,1,.3,1,.3,18.37,7.37,10.33,27.25,10.33,27.25a5.68,5.68,0,0,0-.12-.78,44.59,44.59,0,0,0-2.11-6.66c-3.79-9.81-17.33-9.82-17.33-9.82C327.73,203.43,324.48,216.14,323.91,220.06Z"/><path class="cls-1" d="M365.12,219.79l-.16,2.65-.36,5.89c0,.3-.07.62-.11.94-.56,4-2.37,9.08-2.91,11.58a11.7,11.7,0,0,1-5.88,7.86,22.63,22.63,0,0,1-10,2.66c-7.15.14-11.43-2.06-14-4.46h0a11.94,11.94,0,0,1-3.52-5.75c-.82-3.06-2.71-8.78-3.26-11.92-.07-.46-.12-.86-.14-1.19l-.68-6.1-.21-1.88c.57-3.92,3.82-16.63,21.77-16.75,0,0,13.54,0,17.33,9.82A44.59,44.59,0,0,1,365.12,219.79ZM353.89,226a2.32,2.32,0,1,0-2-2.28A2.15,2.15,0,0,0,353.89,226Zm-18.12-.25a2.32,2.32,0,1,0-2-2.28A2.15,2.15,0,0,0,335.77,225.74Z"/><path d="M355.85,223.68a2,2,0,1,1-2-2.28A2.15,2.15,0,0,1,355.85,223.68Z"/><path class="cls-4" d="M355,193h-1.13c-2.89-.78-11.41-2.59-19.41.39l-.15-.4c0-5.36,4.63-9.7,10.34-9.7S355,187.65,355,193Z"/><path d="M337.73,223.43a2,2,0,1,1-2-2.28A2.15,2.15,0,0,1,337.73,223.43Z"/><path class="cls-1" d="M324.94,229.23l-.22,0c.73,3.63-.87,2.29-.87,2.29-2.6-3-2.5-8-2.5-8,.43-3.23,1.55-2.48,2.29-1.55l.48-.05.68,6.1C324.82,228.37,324.87,228.77,324.94,229.23Z"/><path class="cls-1" d="M256.66,456h0a1.92,1.92,0,0,1-1,.28,2,2,0,0,1-1.14-3.56l1.88-1.34a1.92,1.92,0,0,1-3-1,1.9,1.9,0,0,1,.57-2l4.3-3.8-.95.58a6.42,6.42,0,0,1-3.36.95,2.41,2.41,0,0,1-2.4-2.3c0-.11,0-.21,0-.32a7.57,7.57,0,0,1,2.77-5.85l.19-.15a4.21,4.21,0,0,1,2.86-1h.24a6.55,6.55,0,0,0,2.12-.24,7.31,7.31,0,0,0,1.73-.79l.92-.58a7.51,7.51,0,0,1,2.44-1c5-1.15,5.39.57,12.15,1.32,5.15.58,15.3-.27,18.58-.47h0c5.28.34,14.25.52,18.67.59.88,0,1.75,0,2.62,0v.07a56.53,56.53,0,0,0,1.07,18H300.5a10.61,10.61,0,0,0-4.6,1.05l-.19.09a10.7,10.7,0,0,1-4.48,1.05l-16.23.19a8.68,8.68,0,0,0-2.94.57l-3.78,1.47a8.21,8.21,0,0,0-2.43,1.45l-2.49,2.13a1.56,1.56,0,0,1-2.23-2.15l1.31-1.65-3.64,2.15a2.12,2.12,0,0,1-2.14-3.67Z"/><path class="cls-1" d="M264.42,419.34a1.65,1.65,0,0,1-1.08-1l-2.75-7.45a6,6,0,0,1-.3-3l1.7-10.71a3.11,3.11,0,0,1,.94-1.76l6.37-6a14.2,14.2,0,0,0,4.2-7.48l.14-.68a12,12,0,0,0,.13-4.05c-1.45-10.41.12-16,.12-16,.44-1.64,1.23-4.4,2.32-7.46A104.09,104.09,0,0,0,282,332c1.52-10.32,1.81-21.46,3-32.75,0,0,1.42-14.53,7.65-20a30.25,30.25,0,0,1,11.4-6c5.06-1.41,8-2.39,10.22-3.2l.17.48a152,152,0,0,1,.61,22.21c-1.13,5.3-6.73,16-6.73,21.56l-3.7-8.79h0c.24,15.06-3.66,36-5.93,45.12-2.39,9.56-2.17,10.42-2.39,18.24s-9,15.58-9,15.58a4.82,4.82,0,0,0,1.56,4.45l1.23,1.08a4.73,4.73,0,0,1,1.06,1.3l1.61,2.9.51.91a5,5,0,0,1,.6,2.81l-.53,6v5.66a1.85,1.85,0,0,1-1.85,1.85,3.2,3.2,0,0,1-3.2-3.2V402.8a4.73,4.73,0,0,0-.82-2.68l-1-1.44h0a5.3,5.3,0,0,0-5.14,2.31h-.14l-.48,6.67a4.36,4.36,0,0,0,.12,1.35l2.26,8.92a2.5,2.5,0,0,1,.07.54,2.21,2.21,0,0,1-4.23.89l0,.09a2.38,2.38,0,0,1-1,3,2.3,2.3,0,0,1-1.18.32,2.37,2.37,0,0,1-2.09-1.25l-5-9.27a4.84,4.84,0,0,1-.58-1.89l.18,2a6.74,6.74,0,0,0,.47,2l2.43,6.15a2,2,0,0,1-.76,2.44,2,2,0,0,1-3-.91l-2-4.84a1.71,1.71,0,0,1,.11.59,1.64,1.64,0,0,1-2.07,1.57Z"/><line class="cls-5" x1="268.83" y1="407.8" x2="268.11" y2="399.7"/><path class="cls-5" d="M266.38,417.18l2,4.84a2,2,0,0,0,3.91-.78,2,2,0,0,0-.15-.75l-2.43-6.15a6.74,6.74,0,0,1-.47-2l-.18-2"/><path class="cls-5" d="M264.42,401.17l-.17,9.47a6.39,6.39,0,0,0,.48,2.55l.4,1"/><path class="cls-5" d="M278.88,419.35l0,.09a2.38,2.38,0,0,1-1,3,2.3,2.3,0,0,1-1.18.32,2.37,2.37,0,0,1-2.09-1.25l-5-9.27a4.84,4.84,0,0,1-.58-1.89.17.17,0,0,1,0-.07l-.22-2.47"/><path class="cls-5" d="M274.46,398l.07,10.2a5.52,5.52,0,0,0,.45,2.12l2.74,6.35"/><path class="cls-5" d="M277.72,416.68l1.16,2.66h0a2.21,2.21,0,0,0,4.23-.89,2.5,2.5,0,0,0-.07-.54L280.78,409a4.36,4.36,0,0,1-.12-1.35l.48-6.67.29-3.94"/><path class="cls-5" d="M281.28,401a5.3,5.3,0,0,1,5.14-2.31"/><path class="cls-5" d="M284.8,396.28l1.62,2.4h0l1,1.44a4.73,4.73,0,0,1,.82,2.68v5.31a3.2,3.2,0,0,0,3.2,3.2,1.85,1.85,0,0,0,1.85-1.85V403.8l.53-6a5,5,0,0,0-.6-2.81l-.51-.91-1.61-2.9a4.73,4.73,0,0,0-1.06-1.3l-1.23-1.08a4.82,4.82,0,0,1-1.56-4.45l.5-2.87"/><path class="cls-5" d="M393.61,396.51,392.1,392a91.85,91.85,0,0,0-3.72-10.57c-1.54-3.67-2.06-9.88-4.05-16.62-1.36-4.61-4.56-9.44-3.42-23.13l3.42-27.53c0-4.4-4.38-14.38-7.09-22.71a98.48,98.48,0,0,1,.18-22.86"/><path class="cls-5" d="M302,400.58s18.79-.53,26.61.11c2.76.23,7.59.67,13.19,1.13,6.11.5,13.13,1,19.36,1.31,4.26.19,8.14.27,11.11.16a85,85,0,0,0,13.3-1.32,33.43,33.43,0,0,0,5.59-1.57,11.11,11.11,0,0,1,3.48-.6,5,5,0,0,0,3.87-1.89l.19-.25c.26-.33.56-.7.89-1.08a8.66,8.66,0,0,1,3.21-2.55"/><path class="cls-5" d="M439.5,400l4.74.57h.06a2.1,2.1,0,0,0,.45-4.17l-4.89-.61a1.47,1.47,0,0,1-1.46-1.44,1.8,1.8,0,0,1,1.84-1.75h5.06a2.24,2.24,0,0,0,2.24-2.23v-.65a5,5,0,0,0-3-4.61h0a5.31,5.31,0,0,0-3.1-.34l-3.25.6a8.63,8.63,0,0,1-2,.12l-3.7-.23a5.74,5.74,0,0,0-2.29.32l-1.38.49"/><path class="cls-5" d="M444,405.14h.56a2.11,2.11,0,0,0,2.1-2.11v-.28a2.1,2.1,0,0,0-1.85-2.08l-.48-.06"/><path class="cls-5" d="M429.45,411.63l12.06.9a1.86,1.86,0,0,0,1.86-1.74v-.14a1.87,1.87,0,0,0-1.94-1.86l-1.68,0,4.29-.15a1.77,1.77,0,0,0-.07-3.54l-4.26,0"/><path class="cls-5" d="M258.28,444.6l-.95.58a6.42,6.42,0,0,1-3.36.95,2.41,2.41,0,0,1-2.4-2.3c0-.11,0-.21,0-.32a7.57,7.57,0,0,1,2.77-5.85l.19-.15a4.21,4.21,0,0,1,2.86-1h.24a6.55,6.55,0,0,0,2.12-.24,7.31,7.31,0,0,0,1.73-.79l.92-.58a7.51,7.51,0,0,1,2.44-1c5-1.15,5.39.57,12.15,1.32,5.15.58,15.3-.27,18.58-.47"/><path class="cls-5" d="M264.28,441.73c-1,0-3.86,1.6-6,2.86"/><path class="cls-5" d="M262,452.82,256.66,456a2.12,2.12,0,1,0,2.14,3.67l3.64-2.15-1.31,1.65a1.56,1.56,0,0,0,2.23,2.15l2.49-2.13a8.21,8.21,0,0,1,2.43-1.45l3.78-1.47a8.68,8.68,0,0,1,2.94-.57l16.23-.19a10.7,10.7,0,0,0,4.48-1.05l.19-.09a10.61,10.61,0,0,1,4.6-1.05h19.89s26.48.53,40.38,1.62,35,.22,51-7.17l10.58-4.55a24.21,24.21,0,0,0,6.47-4.1l3.06-2.7a9.92,9.92,0,0,0,3.34-7.42v-4.6a9.9,9.9,0,0,0-2.5-6.58l-3.31-3.73"/><path class="cls-5" d="M260.1,448.78l-3.73,2.65-1.88,1.34a2,2,0,0,0,1.14,3.56,1.92,1.92,0,0,0,1-.28h0"/><path class="cls-5" d="M258.3,444.59h0l-4.3,3.8a1.9,1.9,0,0,0-.57,2,1.92,1.92,0,0,0,3,1"/><path class="cls-5" d="M386.94,299.36s.06,1.77.27,4.63c.53,7.49,2,22.5,5.76,33,4.89,13.71,4.83,17.27,5.59,23.46s4,12.05,8.09,17.43"/><path class="cls-5" d="M406.89,376.08l.12,1.78.28,4.27a8.19,8.19,0,0,1-1.08,4.64,40.16,40.16,0,0,0-3.4,7.26c-.17.53-.32,1.05-.44,1.56a8.13,8.13,0,0,0-.09,3.07l1.16,7.66a8.61,8.61,0,0,1,.11,1.43v6.38a1.22,1.22,0,0,0,1.22,1.21,3.67,3.67,0,0,0,3.5-2.57l.14-.47a14.92,14.92,0,0,0,.68-4.45V399"/><path class="cls-5" d="M419.46,419.27a2.14,2.14,0,0,1-4.21.76L413,411.25l-.36-1.39L409.54,400a4.65,4.65,0,0,0-.45-1,5.19,5.19,0,0,0-1.09-1.38l-.09-.08"/><line class="cls-5" x1="416.21" y1="397.04" x2="418.27" y2="408.93"/><path class="cls-5" d="M424.17,409.94l.27,9.14a2.49,2.49,0,0,1-5,.36l0-.17-1.19-10.34"/><polyline class="cls-5" points="423.03 395.09 424.08 406.71 424.17 409.91"/><path class="cls-5" d="M424.17,409.91v0l1.05,7a2.13,2.13,0,0,0,2.1,1.81,2.16,2.16,0,0,0,1.51-.62,2.13,2.13,0,0,0,.62-1.5V405.71a6,6,0,0,0-.07-.94l-1.53-10.93"/><path class="cls-5" d="M264.42,419.33h0a12,12,0,0,0,4.66,5.5c5.39,3.38,18.54,9,23.62,9.65.71.09,1.69.17,2.86.25h0c5.28.34,14.25.52,18.67.59.88,0,1.75,0,2.62,0q1.82-.06,3.63-.27c6.19-.73,20-2.91,39.49-9.26,8.47-2.77,14.4-4.46,18.71-5.52a67.1,67.1,0,0,1,9.47-1.76,36.1,36.1,0,0,0,5.05-.65c5-1.2,6.84-2.75,10.31-3.71"/><path class="cls-5" d="M408.27,412.77s2.3-.84,4.71-1.52"/><path class="cls-5" d="M334.32,193c0-5.36,4.63-9.7,10.34-9.7S355,187.65,355,193"/><path class="cls-5" d="M323.91,220.06c.57-3.92,3.82-16.63,21.77-16.75,0,0,13.54,0,17.33,9.82a44.59,44.59,0,0,1,2.11,6.66,5.68,5.68,0,0,1,.12.78s8-19.88-10.33-27.25c0,0-.37-.12-1-.3-2.89-.78-11.41-2.59-19.41.39a21.24,21.24,0,0,0-6.86,4.09c-9,8-3.83,23.69-3.83,23.69S323.8,220.77,323.91,220.06Z"/><path class="cls-5" d="M365.28,222.46c.64-1.06,2-2.72,2.66,1,0,0,.31,5-2.16,8.12,0,0-1.54,1.41-1-2.25"/><path class="cls-5" d="M323.64,222c-.74-.93-1.86-1.68-2.29,1.55,0,0-.1,5,2.5,8,0,0,1.6,1.34.87-2.29"/><path class="cls-5" d="M331.72,246.91c2.54,2.4,6.82,4.6,14,4.46a22.63,22.63,0,0,0,10-2.66,11.7,11.7,0,0,0,5.88-7.86c.54-2.5,2.35-7.59,2.91-11.58,0-.32.08-.64.11-.94l.36-5.89.16-2.65.07-1.21"/><path class="cls-5" d="M323.81,219.2l.1.86.21,1.88.68,6.1c0,.33.07.73.14,1.19.55,3.14,2.44,8.86,3.26,11.92a11.94,11.94,0,0,0,3.52,5.75"/><path class="cls-5" d="M346.38,231.39a4.32,4.32,0,0,1-4.44-.13"/><polyline class="cls-5" points="339.64 238.81 340.59 239.19 343.54 238.32 344.65 239.01 345.88 238.35 348.53 239.3 349.39 239.07"/><line class="cls-5" x1="343.47" y1="243.75" x2="346.03" y2="243.78"/><path class="cls-5" d="M355.89,249c-.14,6,.71,11.75,4.29,13.77,0,0,4.12,3,17.34,5.25,2.28.39,4.83.76,7.68,1.1a24.13,24.13,0,0,1,10.37,4.31c8.31,6.7,10.76,16.44,11.78,26.11,1.2,11.29,3.15,21.5,4.67,31.82a103.35,103.35,0,0,0,5.76,21.82c.27.77.52,1.51.76,2.23a40,40,0,0,1,2,12.43v7.48a5.74,5.74,0,0,0,1,3.24,3.69,3.69,0,0,1,.29.45,8.43,8.43,0,0,0,3.06,3.13l2,1.77a13.26,13.26,0,0,1,4.08,7l1.25,5.4a5.22,5.22,0,0,1,.12,1.36l-.46,9.28a2.34,2.34,0,0,1-2.34,2.34"/><path class="cls-5" d="M331.72,246.9h0c.06.36,1.3,8.43,0,12.87-1.63,5.53-12.55,8.3-15.15,9.28-.72.27-1.47.56-2.33.87-2.22.81-5.16,1.79-10.22,3.2a30.25,30.25,0,0,0-11.4,6c-6.23,5.51-7.65,20-7.65,20-1.2,11.29-1.49,22.43-3,32.75a104.09,104.09,0,0,1-5.75,21.82c-1.09,3.06-1.88,5.82-2.32,7.46,0,0-1.57,5.57-.12,16a12,12,0,0,1-.13,4.05l-.14.68a14.2,14.2,0,0,1-4.2,7.48l-6.37,6a3.11,3.11,0,0,0-.94,1.76l-1.7,10.71a6,6,0,0,0,.3,3l2.75,7.45a1.65,1.65,0,0,0,1.08,1,1.64,1.64,0,0,0,2.07-1.57,1.71,1.71,0,0,0-.11-.59s0,0,0,0l-1.24-3"/><path class="cls-5" d="M315,292.62c-1.13,5.3-6.73,16-6.73,21.56l6.12,24.6c1.63,5.86,2.16,21.5-.12,25.74s-5.54,16.94-7.82,20.2c-1.13,1.61-5.21,7.51-6.39,9.21"/><path class="cls-5" d="M315,292.62s20.41,13.52,62.22-1.15"/><path class="cls-5" d="M314.41,270.41a152,152,0,0,1,.61,22.21"/><path class="cls-5" d="M314.29,364.52s23.44,4.88,70,.32"/><path class="cls-5" d="M287.23,384.33s8.81-7.76,9-15.58,0-8.68,2.39-18.24c2.27-9.08,6.17-30.06,5.93-45.12,0-.79,0-1.57-.07-2.32"/><line class="cls-5" x1="308.29" y1="314.18" x2="304.59" y2="305.39"/><path class="cls-5" d="M384.33,314.18A69,69,0,0,1,387.21,304l.06-.16"/><path class="cls-5" d="M385.58,402a29.12,29.12,0,0,1,2.61,16.51"/><path class="cls-5" d="M316.89,435.37a56.53,56.53,0,0,0,1.07,18"/><path class="cls-5" d="M378.72,420.25s13.28-1.84,23.46,0"/><path class="cls-5" d="M284.8,352.9s5.16-.91,8.4,4.56"/><path class="cls-5" d="M401.38,352.84a6.93,6.93,0,0,1,6.53-4.29"/><path class="cls-5" d="M292.69,394.06s2.83-.18,7.39-.12c9.64.15,27.05,1.41,41.73,7.88"/><path class="cls-5" d="M361.16,403.13h0c.54-.17,18.75-5.8,32.44-6.58a44,44,0,0,1,6,0"/></svg>