<svg id="Layer_1" data-name="Layer 1" xmlns="http://www.w3.org/2000/svg" viewBox="0 0 700 700"><defs><style>.cls-1{fill:#feae63;}.cls-2{fill:#99abcc;}.cls-3{fill:#c4e7f9;}.cls-4{fill:#392328;}.cls-5{fill:none;stroke:#000;stroke-linecap:round;stroke-linejoin:round;stroke-width:2.3px;}</style></defs><title>Yoga_poses_2020_color</title><path class="cls-1" d="M490.46,398.87a7.72,7.72,0,0,1-.46,4s.91,5.23.56,8c-.84,6.63-2.1,10.57-2.1,24.14s-6.14,13.83-19.46,10.75a79.52,79.52,0,0,0-16.83-1.7h0c3.85-11.45,0-18.1,0-18.1v-.31A35.66,35.66,0,0,0,458,425c5.62-1.32,7.15-2,11.58-7.92,0,0,7.7-12.08,10.29-18.44a37.58,37.58,0,0,0,2.58-8.14c.07-.57.13-1.18.18-1.81.08-.94,0-3.54.07-4.06a1.24,1.24,0,0,1,1.37-1.17c1.28.14,3.8.92,3.79,3.64l0,.66c.47,0,.88.24,1.05,1.13a8.72,8.72,0,0,1-.47,4.61v.06a4.2,4.2,0,0,1,.95.21,7.67,7.67,0,0,1-.67,5.18l0,0,.55-.48A.72.72,0,0,1,490.46,398.87Z"/><path class="cls-2" d="M452.17,444.05a119.23,119.23,0,0,0-13.39.63c-31.63,4.33-51.69,4.87-60.38,3.57s-16.94-6.52-40.4-1.3-46.15,3.47-46.15,3.47l-.64.13a1.78,1.78,0,0,0-.85-.41l-23.6-4.44a55.62,55.62,0,0,0-9.12-1.63,33.3,33.3,0,0,1-11.73-3.26s-1.46-22.15-.16-36.49c.32-3.55.54-6.84.68-9.86,0,0,10.06-3.88,18.76-4.86,0,0,2.06,9.18,7.76,9.67v.15c7.77-.69,17.83-.59,27.69,2.35,20.41,6.08,35.18,9.12,47.78,10s18.24,6.95,24.76,6.95a359,359,0,0,1,67.33,6.52,74.18,74.18,0,0,0,11.64.4v.31s3.85,6.65,0,18.1Z"/><path class="cls-1" d="M274.36,454.71a1.87,1.87,0,0,1-.2.59,1.71,1.71,0,0,1-1.68.85l-11.91-1.49-18.19-.8a7.68,7.68,0,0,1-6.18-3.62,7,7,0,0,1-.64-1.25c-4.35-11-7.95-37-8.22-46.13l0-1.31c-.27-10.68,0-21.73,0-27.36,0-5.87-2-15-6.84-28.67a67.66,67.66,0,0,1-2.07-7.07l-.16,0h-3.82l-.27.05a163.73,163.73,0,0,1-2.58-26.25c-.18-20,6.69-26.5,8.62-27.91h0c.56-.27,11.08-5.13,26,9.18,4.92,4.73,7.33,9.35,8,13.7,1,6.88-2.51,13.05-7.61,17.74h0c-.26,8.72-.12,20.85.31,27.37.65,9.94-2.77,17.1-1.46,22.32,1,3.92,1.4,10.61,1,19.78-.14,3-.36,6.31-.68,9.86-1.3,14.34.16,36.49.16,36.49a33.3,33.3,0,0,0,11.73,3.26,55.62,55.62,0,0,1,9.12,1.63l23.6,4.44a1.78,1.78,0,0,1,.85.41,1.85,1.85,0,0,1,.64,1.39,1.83,1.83,0,0,1-1.9,1.83l-2.17-.09h-.11a1.34,1.34,0,0,1-1.33,1.15H274.91Z"/><path class="cls-1" d="M234.2,249a8,8,0,0,1-.22-1.89c1.3-5.74,5.84-1.77,5.84-1.77,2.33.29,6.22-1,8.62-4.82s2-7.27,5.95-9.57c2-1.16,10.67-6.95,10.67-6.95l.29,1.82s3.32,8.31,3,13.72c-.28,4.26-1.64,4.89.19,7.65l2.34,5.51-5.09.82-1.46,10c.32.88,1.51,7.85-9.23,5.54,0,0-6.77-.47-6.7.95a39.9,39.9,0,0,1-.44,9.76,12.92,12.92,0,0,0,2.57,10.08l1.07,1.38L266,312.32c-3.54-.18-7.49-1.93-11.83-5.07-.63-4.35-3-9-8-13.7-14.92-14.31-25.44-9.45-26-9.18a15.43,15.43,0,0,0,1.89-1.61c6.05-6.25,6.74-17.3,6.64-24.35,0-.69,0-1.34,0-1.94-.15-4.35,5.33-7.45,5.33-7.45ZM264,243.91c.16-1.43-.2-2.65-.82-2.72s-1.26,1-1.42,2.46.2,2.64.82,2.71S263.82,245.34,264,243.91Z"/><path class="cls-3" d="M266,312.32s16.59,16.74,3.79,32c-5.22,6.21-.4,14.5-4.63,45.29-8.7,1-18.76,4.86-18.76,4.86.4-9.17,0-15.86-1-19.78-1.31-5.22,2.11-12.38,1.46-22.32-.43-6.52-.57-18.65-.31-27.37h0c5.1-4.69,8.59-10.86,7.61-17.74C258.54,310.39,262.49,312.14,266,312.32Z"/><path d="M264,243.91c-.17,1.43-.8,2.53-1.42,2.45s-1-1.28-.82-2.71.8-2.53,1.42-2.46S264.15,242.48,264,243.91Z"/><path class="cls-2" d="M235.56,449a7,7,0,0,0,.64,1.25l-.28.18s-25.19-1.74-21.28-26.06c1.44-8.94,2.23-15.24,2.73-20.51l9.94-2.3,0,1.31C227.61,412,231.21,438,235.56,449Z"/><path class="cls-4" d="M228.73,256.47c0,.6,0,1.25,0,1.94h0c-1.07,5.41-5.39,4-9.56-2.59-4.65-7.33-3.37-18.15-3.37-18.15a27.77,27.77,0,0,1,6.67-15.58,20.15,20.15,0,0,1,3.46-3.22c.71-.43,1.41-.82,2.1-1.19,13.75-7.28,24.36-2.64,36.8,4.91l.22,1.4s-8.66,5.79-10.67,6.95c-4,2.3-3.55,5.79-5.95,9.57s-6.29,5.11-8.62,4.82c0,0-4.54-4-5.84,1.77a8,8,0,0,0,.22,1.89l-.14,0S228.58,252.12,228.73,256.47Z"/><path class="cls-4" d="M228,216.94l0,.74c-.69.37-1.39.76-2.1,1.19a20.15,20.15,0,0,0-3.46,3.22l-.08-.07c-6.69,5.95-12.09-.27-12.33-3.83-.33-5,5.1-12.69,12.19-10S228,216.94,228,216.94Z"/><path class="cls-3" d="M227.31,401.55l-9.94,2.3c.85-9.08.82-15.13,1.71-26.4.91-11.53-2.39-24.14-4.9-38.91l.27-.05h3.82l.16,0a67.66,67.66,0,0,0,2.07,7.07c4.89,13.68,6.84,22.8,6.84,28.67C227.34,379.82,227,390.87,227.31,401.55Z"/><path class="cls-5" d="M239.82,245.33s-4.54-4-5.84,1.77a8.62,8.62,0,0,0,4.92,7.74s3.12.8,1.69-2.88"/><path class="cls-5" d="M240.91,259.43s.4,5.34,5,6.54"/><path class="cls-5" d="M265.06,224s-8.66,5.79-10.67,6.95c-4,2.3-3.55,5.79-5.95,9.57s-6.29,5.11-8.62,4.82"/><path class="cls-5" d="M228.74,258.41c-1.07,5.41-5.39,4-9.56-2.59-4.65-7.33-3.37-18.15-3.37-18.15"/><path class="cls-5" d="M228,216.94s1.33-6.15-5.75-8.79-12.52,5.07-12.19,10c.24,3.56,5.64,9.78,12.33,3.83"/><path class="cls-5" d="M215.81,237.67a27.77,27.77,0,0,1,6.67-15.58,20.15,20.15,0,0,1,3.46-3.22c.71-.43,1.41-.82,2.1-1.19,13.75-7.28,24.36-2.64,36.8,4.91l.22,1.4.29,1.82s3.32,8.31,3,13.72c-.28,4.26-1.64,4.89.19,7.65l2.34,5.51-5.09.82-1.46,10c.32.88,1.51,7.85-9.23,5.54,0,0-6.77-.47-6.7.95a39.9,39.9,0,0,1-.44,9.76,12.92,12.92,0,0,0,2.57,10.08l1.07,1.38L266,312.32"/><path class="cls-5" d="M220.22,284.38c-1.93,1.41-8.8,7.88-8.62,27.91a163.73,163.73,0,0,0,2.58,26.25c2.51,14.77,5.81,27.38,4.9,38.91-.89,11.27-.86,17.32-1.71,26.4-.5,5.27-1.29,11.57-2.73,20.51-3.91,24.32,21.28,26.06,21.28,26.06"/><path class="cls-5" d="M234.06,249s-5.48,3.1-5.33,7.45c0,.6,0,1.25,0,1.94.1,7-.59,18.1-6.64,24.35a15.43,15.43,0,0,1-1.89,1.61"/><path class="cls-5" d="M215.81,316.21a102.22,102.22,0,0,0,2.62,22.24,67.66,67.66,0,0,0,2.07,7.07c4.89,13.68,6.84,22.8,6.84,28.67,0,5.63-.3,16.68,0,27.36l0,1.31c.27,9.13,3.87,35.12,8.22,46.13a7,7,0,0,0,.64,1.25,7.68,7.68,0,0,0,6.18,3.62l18.19.8,11.91,1.49a1.71,1.71,0,0,0,1.68-.85,1.87,1.87,0,0,0,.2-.59c0-.08,0-.15,0-.23a1.67,1.67,0,0,0-1.3-1.63l-8.91-2.1"/><path class="cls-5" d="M274.91,454.82h11.43a1.34,1.34,0,0,0,1.33-1.15.88.88,0,0,0,0-.28,1.35,1.35,0,0,0-1.25-1.26l-12-.89"/><path class="cls-5" d="M287.78,453.68l2.17.09a1.83,1.83,0,0,0,1.9-1.83,1.85,1.85,0,0,0-.64-1.39,1.78,1.78,0,0,0-.85-.41l-23.6-4.44a55.62,55.62,0,0,0-9.12-1.63,33.3,33.3,0,0,1-11.73-3.26s-1.46-22.15-.16-36.49c.32-3.55.54-6.84.68-9.86.4-9.17,0-15.86-1-19.78-1.31-5.22,2.11-12.38,1.46-22.32-.43-6.52-.57-18.65-.31-27.37a58.16,58.16,0,0,1,.8-9.61"/><line class="cls-5" x1="214.45" y1="338.49" x2="218.27" y2="338.49"/><path class="cls-5" d="M220.22,284.38h0c.56-.27,11.08-5.13,26,9.18,4.92,4.73,7.33,9.35,8,13.7,1,6.88-2.51,13.05-7.61,17.74"/><path class="cls-5" d="M254.19,307.25h0c4.34,3.14,8.29,4.89,11.83,5.07,0,0,16.59,16.74,3.79,32-5.22,6.21-.4,14.5-4.63,45.29,0,0,2.06,9.18,7.76,9.67"/><polyline class="cls-5" points="217.36 403.85 217.37 403.85 227.31 401.55"/><path class="cls-5" d="M246.43,394.46s10.06-3.88,18.76-4.86"/><path class="cls-5" d="M486.54,403.19l.25-2.09a1.29,1.29,0,0,1,.44-.83l1.5-1.32.55-.48a.72.72,0,0,1,1.18.4,7.72,7.72,0,0,1-.46,4s.91,5.23.56,8c-.84,6.63-2.1,10.57-2.1,24.14s-6.14,13.83-19.46,10.75a79.52,79.52,0,0,0-16.83-1.7,119.23,119.23,0,0,0-13.39.63c-31.63,4.33-51.69,4.87-60.38,3.57s-16.94-6.52-40.4-1.3-46.15,3.47-46.15,3.47"/><path class="cls-5" d="M488.71,398.93a7.67,7.67,0,0,0,.67-5.18,4.2,4.2,0,0,0-.95-.21,1.71,1.71,0,0,0-1.58.54,26.79,26.79,0,0,0-2.05,4.14"/><path class="cls-5" d="M488.44,393.48a8.72,8.72,0,0,0,.47-4.61c-.17-.89-.58-1.16-1.05-1.13a3.76,3.76,0,0,0-1.8,1l-1.29,4.72"/><path class="cls-5" d="M259,401.77a82.86,82.86,0,0,1,14-2.35c7.77-.69,17.83-.59,27.69,2.35,20.41,6.08,35.18,9.12,47.78,10s18.24,6.95,24.76,6.95a359,359,0,0,1,67.33,6.52,74.18,74.18,0,0,0,11.64.4A35.66,35.66,0,0,0,458,425c5.62-1.32,7.15-2,11.58-7.92,0,0,7.7-12.08,10.29-18.44a37.58,37.58,0,0,0,2.58-8.14c.07-.57.13-1.18.18-1.81.08-.94,0-3.54.07-4.06a1.24,1.24,0,0,1,1.37-1.17c1.28.14,3.8.92,3.79,3.64"/><path class="cls-5" d="M452.17,425.94s3.85,6.65,0,18.1"/></svg>