<svg id="Layer_1" data-name="Layer 1" xmlns="http://www.w3.org/2000/svg" viewBox="0 0 700 700"><defs><style>.cls-1{fill:#c4e7f9;}.cls-2{fill:#99abcc;}.cls-3{fill:#feae63;}.cls-4{fill:#392328;}.cls-5{fill:none;stroke:#000;stroke-linecap:round;stroke-linejoin:round;stroke-width:2.3px;}</style></defs><title>Yoga_poses_2020_color</title><path class="cls-1" d="M432.65,292c3.09,5.89,3.7,8.26,3.41,16.5-.27,7.57-.14,33.9-2.29,48.6-.61-.25-25.43-10.2-46.58-11.36.68-3.93,1.24-8.57,2.19-14.76,2.43-15.79-9.75-36.76-21.93-48.67,19.35-4.7,28.33-16.27,28.33-16.27,9.46-13.33-5.51-25.49-6.23-26.07,5.84,3.56,13.74,8.57,17.58,11.19,6,4.12,15.29,10.59,18.82,20.3S429.56,286.12,432.65,292Z"/><path class="cls-2" d="M433.77,357.1c-.18,1.27-.39,2.46-.61,3.54-2.79,13.53-3.82,21.28-5.88,29.52-.38,44.69-15.87,57-24.58,87.48-3,10.44-12.55,20.49-14.86,31.24s-8.53,44.14-10.58,60a41.78,41.78,0,0,0-.29,8h-.13s-6.65,3.86-18.1,0h0a118.94,118.94,0,0,0-.63-13.38c-5.33-59.41,7.37-73.53,8.75-76.66,2.92-6.64,3.52-12.65,4.33-19.75,1.22-10.61.79-21.78,4.12-33.56s3.49-25.61,3.49-25.61c-17.15-15.62-6.14-33.38,1.11-44.13a41.33,41.33,0,0,0,7.29-18.07C408.34,346.9,433.16,356.85,433.77,357.1Z"/><path class="cls-3" d="M418.17,607.4a1.24,1.24,0,0,1,1.17,1.36c-.14,1.29-.92,3.81-3.64,3.8l-.66,0a3.76,3.76,0,0,0-1-1.8l-4.49-1.24.78-2.81a13.62,13.62,0,0,0,2,.4c.57.07,1.18.13,1.82.18C415.05,607.4,417.65,607.37,418.17,607.4Z"/><path class="cls-3" d="M415,612.6c0,.47-.24.88-1.13,1a8.8,8.8,0,0,1-4.61-.46h-.06a1.74,1.74,0,0,0-.54-1.59,13.27,13.27,0,0,0-2.1-1.15l2.71-.93.23.06L414,610.8A3.76,3.76,0,0,1,415,612.6Z"/><path class="cls-3" d="M406.6,610.43a13.27,13.27,0,0,1,2.1,1.15,1.74,1.74,0,0,1,.54,1.59,4.2,4.2,0,0,1-.21,1,7.67,7.67,0,0,1-5.18-.67l0,0,.48.55a.71.71,0,0,1-.4,1.17,7.77,7.77,0,0,1-4-.45s-5.23.91-8,.55c-6.62-.83-10.56-2.09-24.14-2.09S354,607.05,357,593.74a79.61,79.61,0,0,0,1.7-16.84h0c11.45,3.86,18.1,0,18.1,0H377a34.69,34.69,0,0,0,.83,5.8c1.32,5.63,2,7.16,7.92,11.58,0,0,12.08,7.71,18.44,10.29a52.37,52.37,0,0,0,6.16,2.19l-.78,2.81-.23-.06Z"/><path class="cls-3" d="M367.84,220.72l1.19-.41a6,6,0,0,0,3.93-2.82l2.87.22a11.91,11.91,0,0,0,.7,7.16c3.24,7.32,3.83,10.11,6.18,11.14.85.37,3.49,1.92,6.81,3.94l0,0c.72.58,15.69,12.74,6.23,26.07,0,0-9,11.57-28.33,16.27-.66-.65-1.32-1.26-2-1.85-12.8-11.49-10.16-29-10.16-29l0,0A65.91,65.91,0,0,1,349.88,240a87.69,87.69,0,0,1-4.23-16.5c-.24-1.46-.44-2.93-.61-4.38-.14-1.2-.31-2.39-.5-3.58a82,82,0,0,0-2.29-10.42q-.71-2.4-1.57-4.75c-1.05-2.84-2.24-5.95-3.5-9-2.78-6.72-5.9-13.21-8.62-16.22-6.8-7.54-9-13.13-20.42-33,0,0-8.18-11.56-10.28-13.56a6.85,6.85,0,0,0-4.11-.87c-2.76.11-8.77,0-10-.6s-5.45-1.08-7.28-.93a34.46,34.46,0,0,1-6.1-.7s-1.89-.61,1.17-2.64,5.66-1.29,8.25-1.13,4.28-.07,2.09-3.62-2.93-5.2-4.64-6.42-13.47-11.3-13.6-13.6a1.82,1.82,0,0,1,3.09-1.63c1.08,1,11.3,10.36,12.65,11.24s2.4-1,.06-3.9S270.7,91,271.19,88.9s2.22-1.62,3.22-.2,4.82,7,5.72,8.57,3.05,5.18,3.74,5.44.87-1.16-1.11-5.63-5.49-9.67-3.2-11,3.77,2.19,4.9,5.15,4.22,9.69,5.23,10.94,2.1.61,1.93-2.2-.68-7.76.25-9.18,2.67-.55,2.87,2.37.74,7.81,1,9.72,5,5.12,6.9,8.1,2.65,5.78,7.24,11.1c0,0,21.27,22.68,26.29,27.93s10.43,12.39,11.6,18,8.91,18.88,12,26.46C361.68,199.13,364.3,210.55,367.84,220.72Z"/><path class="cls-3" d="M375.27,202.63c.81-.07,6.31.46,4.05,7.25a20.25,20.25,0,0,0-3.49,7.83l-2.87-.22a6,6,0,0,1-3.93,2.82l-1.19.41c-3.54-10.17-6.16-21.59-8-26.17l1.21-.08,5.78-.78-.54,5Z"/><path class="cls-4" d="M345.65,223.45a87.69,87.69,0,0,0,4.23,16.5c-13.37,10.29-28.26-7.35-28.26-7.35a22.49,22.49,0,0,1-5.11-17.69s1.35-15.51,19.82-23.33c.09.16-5,6.64,2.07,10.77,1.76,1,3,1.42,3.76,2.74l.09,0a82,82,0,0,1,2.29,10.42h-1.3s-6.16.4-2.95,5.5a9.37,9.37,0,0,0,4.88,2.54Z"/><path class="cls-3" d="M345.65,223.45l-.48.08a9.37,9.37,0,0,1-4.88-2.54c-3.21-5.1,2.95-5.5,2.95-5.5h1.3c.19,1.19.36,2.38.5,3.58C345.21,220.52,345.41,222,345.65,223.45Z"/><path class="cls-3" d="M342.25,205.07l-.09,0c-.8-1.32-2-1.71-3.76-2.74-7.1-4.13-2-10.61-2.07-10.77l.85-.26c1.26,3.05,2.45,6.16,3.5,9Q341.55,202.68,342.25,205.07Z"/><path class="cls-4" d="M310.14,207.38c6.5-.35,6.5,8,5.94,10.61-.87,8.68-8.84,7.79-11.35,5.4a10.27,10.27,0,0,1-2.56-9.71A8.7,8.7,0,0,1,310.14,207.38Z"/><path class="cls-5" d="M389.55,240c.72.58,15.69,12.74,6.23,26.07,0,0-9,11.57-28.33,16.27"/><path class="cls-5" d="M399.59,611.28l2.09.24a1.33,1.33,0,0,1,.83.44l1.32,1.51.48.55a.71.71,0,0,1-.4,1.17,7.77,7.77,0,0,1-4-.45s-5.23.91-8,.55c-6.62-.83-10.56-2.09-24.14-2.09S354,607.05,357,593.74a79.61,79.61,0,0,0,1.7-16.84,118.94,118.94,0,0,0-.63-13.38c-5.33-59.41,7.37-73.53,8.75-76.66,2.92-6.64,3.52-12.65,4.33-19.75,1.22-10.61.79-21.78,4.12-33.56s3.49-25.61,3.49-25.61c-17.15-15.62-6.14-33.38,1.11-44.13a41.33,41.33,0,0,0,7.29-18.07c.68-3.93,1.24-8.57,2.19-14.76,2.43-15.79-9.75-36.76-21.93-48.67-.66-.65-1.32-1.26-2-1.85-12.8-11.49-10.16-29-10.16-29"/><path class="cls-5" d="M403.85,613.45a7.67,7.67,0,0,0,5.18.67,4.2,4.2,0,0,0,.21-1,1.74,1.74,0,0,0-.54-1.59,13.27,13.27,0,0,0-2.1-1.15c-1.05-.49-2-.89-2-.89"/><path class="cls-5" d="M409.3,613.18a8.8,8.8,0,0,0,4.61.46c.89-.16,1.16-.57,1.13-1a3.76,3.76,0,0,0-1-1.8l-4.49-1.24-.23-.06"/><path class="cls-5" d="M361,194.47l5.78-.78-.54,5,9,3.95c.81-.07,6.31.46,4.05,7.25a20.25,20.25,0,0,0-3.49,7.83,11.91,11.91,0,0,0,.7,7.16c3.24,7.32,3.83,10.11,6.18,11.14.85.37,3.49,1.92,6.81,3.94l0,0c5.84,3.56,13.74,8.57,17.58,11.19,6,4.12,15.29,10.59,18.82,20.3s3.61,14.66,6.7,20.54,3.7,8.26,3.41,16.5c-.27,7.57-.14,33.9-2.29,48.6-.18,1.27-.39,2.46-.61,3.54-2.79,13.53-3.82,21.28-5.88,29.52-.38,44.69-15.87,57-24.58,87.48-3,10.44-12.55,20.49-14.86,31.24s-8.53,44.14-10.58,60a41.78,41.78,0,0,0-.29,8,34.69,34.69,0,0,0,.83,5.8c1.32,5.63,2,7.16,7.92,11.58,0,0,12.08,7.71,18.44,10.29a52.37,52.37,0,0,0,6.16,2.19,13.62,13.62,0,0,0,2,.4c.57.07,1.18.13,1.82.18.93.07,3.53,0,4.05.07a1.24,1.24,0,0,1,1.17,1.36c-.14,1.29-.92,3.81-3.64,3.8"/><path class="cls-5" d="M345.17,223.53a9.37,9.37,0,0,1-4.88-2.54c-3.21-5.1,2.95-5.5,2.95-5.5h1.31"/><path class="cls-5" d="M369,220.31a6,6,0,0,0,3.93-2.82"/><path class="cls-5" d="M316.08,218c-.87,8.68-8.84,7.79-11.35,5.4a10.27,10.27,0,0,1-2.56-9.71,8.7,8.7,0,0,1,8-6.3C316.64,207,316.64,215.39,316.08,218Z"/><path class="cls-5" d="M362.47,260.8a54.83,54.83,0,0,1-7.12-9.38A65.91,65.91,0,0,1,349.88,240a87.69,87.69,0,0,1-4.23-16.5c-.24-1.46-.44-2.93-.61-4.38-.14-1.2-.31-2.39-.5-3.58a82,82,0,0,0-2.29-10.42q-.71-2.4-1.57-4.75c-1.05-2.84-2.24-5.95-3.5-9-2.78-6.72-5.9-13.21-8.62-16.22-6.8-7.54-9-13.13-20.42-33,0,0-8.18-11.56-10.28-13.56a6.85,6.85,0,0,0-4.11-.87c-2.76.11-8.77,0-10-.6s-5.45-1.08-7.28-.93a34.46,34.46,0,0,1-6.1-.7s-1.89-.61,1.17-2.64,5.66-1.29,8.25-1.13,4.28-.07,2.09-3.62-2.93-5.2-4.64-6.42-13.47-11.3-13.6-13.6a1.82,1.82,0,0,1,3.09-1.63c1.08,1,11.3,10.36,12.65,11.24s2.4-1,.06-3.9S270.7,91,271.19,88.9s2.22-1.62,3.22-.2,4.82,7,5.72,8.57,3.05,5.18,3.74,5.44.87-1.16-1.11-5.63-5.49-9.67-3.2-11,3.77,2.19,4.9,5.15,4.22,9.69,5.23,10.94,2.1.61,1.93-2.2-.68-7.76.25-9.18,2.67-.55,2.87,2.37.74,7.81,1,9.72,5,5.12,6.9,8.1,2.65,5.78,7.24,11.1c0,0,21.27,22.68,26.29,27.93s10.43,12.39,11.6,18,8.91,18.88,12,26.46c1.87,4.58,4.49,16,8,26.17,2.32,6.65,5,12.76,8.19,16.06,0,0,7,6.17,10.77,9.15"/><path class="cls-5" d="M433.78,357.1h0c-.61-.25-25.43-10.2-46.58-11.36l-.39,0"/><path class="cls-5" d="M342.16,205.09c-.8-1.32-2-1.71-3.76-2.74-7.1-4.13-2-10.61-2.07-10.77-18.47,7.82-19.82,23.33-19.82,23.33a22.49,22.49,0,0,0,5.11,17.69s14.89,17.64,28.26,7.35"/><path class="cls-5" d="M376.84,576.9s-6.65,3.86-18.1,0"/></svg>