<svg id="Layer_1" data-name="Layer 1" xmlns="http://www.w3.org/2000/svg" viewBox="0 0 700 700"><defs><style>.cls-1{fill:#feae63;}.cls-2{fill:#99abcc;}.cls-3{fill:#c4e7f9;}.cls-4{fill:#392328;}.cls-5{fill:none;stroke:#000;stroke-linecap:round;stroke-linejoin:round;stroke-width:2.3px;}</style></defs><title>Yoga_poses_2020_color</title><path class="cls-1" d="M472.88,244c6.74,9.78-8.69,12.17-16.94,16.08-3.2,1.51-8,4.83-13.41,9,.05-7.31-10.08-15.89-10.08-15.89,1.85-1.15,3.49-2.2,4.81-3.08,7.17-4.77,10-6.73,10-13.46,0-6-.68-19.25-.83-22.21a2.3,2.3,0,0,0-.35-1.11l-1.85-3a2.5,2.5,0,0,1-.31-.78h-2.15a3.67,3.67,0,0,0,2.82-1,1.42,1.42,0,0,0-.92-2.39l-.61,0,.06-.84a3.16,3.16,0,0,1-.18-1,2.28,2.28,0,0,1,.29-1.13,2.57,2.57,0,0,1,.72-.78,2.3,2.3,0,0,1,2.48-.14c1.88,1.14,3,3.85,3.47,5a2.32,2.32,0,0,0,.68,1l.9.77h0l1.65,1.41a13.05,13.05,0,0,1,3.91,6.3c.65,7.38,2.6,13.46,5.86,16.72S472.88,244,472.88,244Z"/><path class="cls-1" d="M451.66,204.25a2,2,0,0,1,.45,1.67l-.64,3-.9-.77a2.32,2.32,0,0,1-.68-1c-.43-1.17-1.59-3.88-3.47-5l2-.28a2,2,0,0,1,1.84.7Z"/><path class="cls-1" d="M437.57,209.47v1.2A1.71,1.71,0,0,0,437,214l2.38.91-.59,1.55-5.56-1.94a1.32,1.32,0,0,0-1,2.43l4.71,2.41-.17.34a20.79,20.79,0,0,1-7.39,1.52h-6.87a3.91,3.91,0,0,1-1.4-.26,3.75,3.75,0,0,0-1.4-.27,4.05,4.05,0,0,0-1.19.19l-46.91,15.22c-8.36,2.71-17.39,3.09-26.71,4.23a234.22,234.22,0,0,1-34,.75h0c-3.32-7.79-7.38-15.23-9.35-17.47s-6.22-5.15-9.23-7.06c9.07-.64,20.63,1.92,26,3.3a29,29,0,0,0,6.69.89c6.61.1,20.2.26,23.62-.07,4.56-.43,13.31-4.53,18.85-5.4,8.66-1.36,24-1.84,24-1.84a128,128,0,0,0,24.27-4.56c2.52-.87,9.29-3.64,12.13-4.81a4.16,4.16,0,0,1,2.63-.17l.47.12,6.24,1.63,5.77.42.61,0a1.42,1.42,0,0,1,.92,2.39,3.67,3.67,0,0,1-2.82,1h-.14C439.93,209.47,438.57,209.46,437.57,209.47Z"/><path class="cls-1" d="M442.75,202.75l.47.33a2.28,2.28,0,0,0-.29,1.13,3.16,3.16,0,0,0,.18,1l-.06.84-5.77-.42L431,204Z"/><path class="cls-1" d="M442.06,212a1.32,1.32,0,0,1,.82,1.78l-.4,1a1.33,1.33,0,0,1-1.69.73l-1.43-.54L437,214a1.71,1.71,0,0,1,.6-3.32,1.81,1.81,0,0,1,.51.08Z"/><path class="cls-2" d="M432.45,253.17s10.13,8.58,10.08,15.89c-8.56,6.52-18.75,15.09-27,21.87-13.46,11.07-36.27,15.42-41.26,18a134.68,134.68,0,0,0-15.42,9.13c-8.26,5.43-51,37.13-51,37.13a106.23,106.23,0,0,1-.22-21.71c.46-4.94.57-13.18.58-22,0-2.92,0-5.91,0-8.86h.51s16.29-5.87,21.94-7.61,22.81-8,28-10.2,18-.87,25.19-5.65a132,132,0,0,1,22.59-11.73C412.09,265.17,424.26,258.24,432.45,253.17Z"/><path class="cls-1" d="M438.77,216.45a1.32,1.32,0,0,1,.64,2l-.46.66a1.32,1.32,0,0,1-1.68.42l-.38-.19-4.71-2.41a1.32,1.32,0,0,1,1-2.43Z"/><path class="cls-1" d="M324.65,563.82a3.39,3.39,0,0,1,1,1.86c-1.3,4.34-11.07,5.43-18,5.43s-16.29-1.09-26.28-1.31a67.51,67.51,0,0,1-11.75-1.24A5.18,5.18,0,0,1,265.4,563l1.19-14.15a150.34,150.34,0,0,0-.42-16.22s11.92,3.91,19.61-1.52h0c.59,10.57,3.38,18.31,7.69,20.63a167.82,167.82,0,0,0,20.63,8.9,40.83,40.83,0,0,0,8.66,2.23A3.31,3.31,0,0,1,324.65,563.82Z"/><path class="cls-3" d="M315.63,255.31c2,10.2-5.21,15-6.73,19.54-.8,2.41-.76,14.69-.73,27.81,0,2.95,0,5.94,0,8.86l-9.59,1.06a1.26,1.26,0,0,0,0-.28v0a1.6,1.6,0,0,0-1.44-1.59c-3.13-.3-10.32-.79-12.78.73a23,23,0,0,1-2.86,1.44h0c-3.5.18-12.85-.47-12.85-.47l-.08.07c-.55-.58-1.13-1.14-1.64-1.61a1.94,1.94,0,0,0-3,.41,1.87,1.87,0,0,0-.28.81s-3.27-1.28-4.85-2c0,0,2.67-32.36,2.24-38.66s-5.38-15.08-5.38-15.08h0c.55-1,1.08-1.89,1.58-2.79,18.13,7.75,37-13.84,36.17-18.62,0,0,13,16.87,18.33,8.44A68.16,68.16,0,0,1,315.63,255.31Z"/><path class="cls-1" d="M291.61,216.11l.67.43h0c3,1.91,7.25,4.81,9.23,7.06s6,9.68,9.35,17.47c.32.75.64,1.51.94,2.26-5.34,8.43-18.33-8.44-18.33-8.44-.87-4.78-12.38-18.9-18.68-24.54s-15.11-4.45-15.11-4.45c3.8-4.69,2.9-17.09,2.54-24.09,0-.71-.06-1.36-.08-1.94-.14-4.36,5.33-7.45,5.33-7.45l.15,0a8,8,0,0,1-.22-1.89c1.3-5.73,5.83-1.77,5.83-1.77,2.34.3,6.23-1,8.63-4.81s2-7.27,5.95-9.57c2-1.16,10.67-7,10.67-7l.29,1.83s3.32,8.3,3,13.72c-.28,4.26-1.64,4.89.18,7.65l2.35,5.51-5.09.82-1.47,10c.32.88,1.52,7.85-9.22,5.53,0,0-3.7-1.42-3.7,2.92,0,3.06.65,10.33,1,14.36a5.78,5.78,0,0,0,2.62,4.32Zm5.81-48.8c.16-1.43-.21-2.65-.83-2.72s-1.25,1-1.42,2.46.2,2.64.82,2.71S297.25,168.73,297.42,167.31Z"/><path class="cls-2" d="M308.25,358.26c5.43,26.28,0,60.81-2.17,69.28s-3,17.81-5,24.54-8.9,16.08-10,27.37-4.13,25.2-5.21,41.05a84.76,84.76,0,0,0-.09,10.65h0c-7.69,5.43-19.61,1.52-19.61,1.52-.8-12.28-2.31-27.55-2.88-40.62-.87-20,7.17-34.1,7.6-43.22s-3.47-48.65-3.38-56.91-1-9.77-8.56-20-8.69-22.59-6.95-31.49c1.69-8.7,2.54-16.33,2.58-16.69q1.75,1.65,3.64,3.35L265.4,333a4,4,0,0,0,2.89.92L278.8,333c.54-.05,1.06-.13,1.58-.23a33.54,33.54,0,0,1,9.08-.33,27.65,27.65,0,0,0,7.8-.32,1.48,1.48,0,0,0-.06-2.9l-11.65-2.07,15.27-.37a1.6,1.6,0,0,0,1.55-1.64v0a1.58,1.58,0,0,0-1.41-1.54L286,321.82a39.66,39.66,0,0,1,14.19-1.07,1.59,1.59,0,0,0,1.77-1.58v-.05a1.59,1.59,0,0,0-1.28-1.56c-2.74-.53-9.36-1.62-14.76-.87,0,0,1.39-3.16,11-2.85a1.59,1.59,0,0,0,1.61-1.26l9.59-1.06c0,8.8-.12,17-.58,22a106.23,106.23,0,0,0,.22,21.71C308.05,357.16,308.25,358.26,308.25,358.26Z"/><path class="cls-1" d="M257.31,253.51c-.5.9-1,1.84-1.58,2.79-4.47,7.81-10.14,16.71-10.14,16.71.87,2.17,4.13,13.57,6.3,20.85,1.44,4.82,4.85,11.94,7,16.18,1.09,2.15,1.84,3.56,1.84,3.56a7.71,7.71,0,0,0,4.92,3.42,11.27,11.27,0,0,0,5.67-.24,7,7,0,0,0,.89-.33c1.9-.86,6.06-2.18,9.35-3.61h0a23,23,0,0,0,2.86-1.44c2.46-1.52,9.65-1,12.78-.73a1.6,1.6,0,0,1,1.44,1.59v0a1.26,1.26,0,0,1,0,.28,1.59,1.59,0,0,1-1.61,1.26c-9.63-.31-11,2.85-11,2.85,5.4-.75,12,.34,14.76.87a1.59,1.59,0,0,1,1.28,1.56v.05a1.59,1.59,0,0,1-1.77,1.58A39.66,39.66,0,0,0,286,321.82L301,323.54a1.58,1.58,0,0,1,1.41,1.54v0a1.6,1.6,0,0,1-1.55,1.64l-15.27.37,11.65,2.07a1.48,1.48,0,0,1,.06,2.9,27.65,27.65,0,0,1-7.8.32,33.54,33.54,0,0,0-9.08.33c-.52.1-1,.18-1.58.23l-10.51.93a4,4,0,0,1-2.89-.92l-7.18-5.87q-1.89-1.69-3.64-3.35h0c-21.32-20.14-26.83-34.59-28.75-39.39a8.26,8.26,0,0,0-1.82-2.74,8.09,8.09,0,0,1-2.39-5.29,15.78,15.78,0,0,1,.4-4.84c1-3.59,3.91-11.08,3.91-11.08,10.75-24.43,16.29-22.48,19.22-34.86a30.43,30.43,0,0,1,12.49-18.1,4.89,4.89,0,0,0,2.05-1.55s8.81-1.2,15.11,4.45,17.81,19.76,18.68,24.54S275.44,261.26,257.31,253.51Z"/><path class="cls-4" d="M298.26,146l.23,1.39s-8.66,5.8-10.67,7c-4,2.3-3.55,5.78-5.95,9.57s-6.29,5.11-8.63,4.81c0,0-4.53-4-5.83,1.77a8,8,0,0,0,.22,1.89l-.15,0s-5.47,3.09-5.33,7.45c0,.58.05,1.23.08,1.94h-.06c-1.07,5.41-5.4,4-9.57-2.59-4.64-7.33-3.37-18.16-3.37-18.16a27.69,27.69,0,0,1,6.68-15.57,19.64,19.64,0,0,1,3.46-3.22c.71-.43,1.41-.83,2.1-1.19C275.22,133.79,285.82,138.44,298.26,146Z"/><path d="M296.59,164.59c.62.07,1,1.29.83,2.72s-.81,2.52-1.43,2.45-1-1.29-.82-2.71S296,164.52,296.59,164.59Z"/><path class="cls-2" d="M268.69,312.37s9.35.65,12.85.47c-3.29,1.43-7.45,2.75-9.35,3.61a7,7,0,0,1-.89.33c0-1.19-1.29-2.87-2.69-4.34Z"/><path class="cls-1" d="M268.61,312.44c1.4,1.47,2.69,3.15,2.69,4.34a11.27,11.27,0,0,1-5.67.24,30.3,30.3,0,0,0-1.65-3.83,2,2,0,0,1-.25-1.14,1.87,1.87,0,0,1,.28-.81,1.94,1.94,0,0,1,3-.41C267.48,311.3,268.06,311.86,268.61,312.44Z"/><path class="cls-2" d="M264,313.19a30.3,30.3,0,0,1,1.65,3.83,7.71,7.71,0,0,1-4.92-3.42s-.75-1.41-1.84-3.56h0c1.58.73,4.85,2,4.85,2A2,2,0,0,0,264,313.19Z"/><path class="cls-4" d="M261.44,140.33l0,.75c-.69.36-1.39.76-2.1,1.19a19.64,19.64,0,0,0-3.46,3.22l-.08-.07c-6.7,6-12.1-.27-12.33-3.83-.33-5,5.1-12.69,12.18-10.05S261.44,140.33,261.44,140.33Z"/><path class="cls-5" d="M273.24,168.72s-4.53-4-5.83,1.77a8.65,8.65,0,0,0,4.91,7.75s3.13.8,1.7-2.88"/><path class="cls-5" d="M274.34,182.83s.4,5.34,5,6.53"/><path class="cls-5" d="M298.49,147.38s-8.66,5.8-10.67,7c-4,2.3-3.55,5.78-5.95,9.57s-6.29,5.11-8.63,4.81"/><path class="cls-5" d="M262.17,181.81c-1.07,5.41-5.4,4-9.57-2.59-4.64-7.33-3.37-18.16-3.37-18.16"/><path class="cls-5" d="M261.44,140.33s1.33-6.14-5.76-8.79-12.51,5.08-12.18,10.05c.23,3.56,5.63,9.78,12.33,3.83"/><path class="cls-5" d="M281.54,312.84c-3.29,1.43-7.45,2.75-9.35,3.61a7,7,0,0,1-.89.33,11.27,11.27,0,0,1-5.67.24,7.71,7.71,0,0,1-4.92-3.42s-.75-1.41-1.84-3.56c-2.13-4.24-5.54-11.36-7-16.18-2.17-7.28-5.43-18.68-6.3-20.85,0,0,5.67-8.9,10.14-16.71.55-1,1.08-1.89,1.58-2.79a55.32,55.32,0,0,0,3.48-7.11c2.07-6,5.52-8.08,9.12-9"/><path class="cls-5" d="M254.58,323.76q1.75,1.65,3.64,3.35L265.4,333a4,4,0,0,0,2.89.92L278.8,333c.54-.05,1.06-.13,1.58-.23a33.54,33.54,0,0,1,9.08-.33,27.65,27.65,0,0,0,7.8-.32,1.48,1.48,0,0,0-.06-2.9l-11.65-2.07,15.27-.37a1.6,1.6,0,0,0,1.55-1.64v0a1.58,1.58,0,0,0-1.41-1.54L286,321.82a39.66,39.66,0,0,1,14.19-1.07,1.59,1.59,0,0,0,1.77-1.58v-.05a1.59,1.59,0,0,0-1.28-1.56c-2.74-.53-9.36-1.62-14.76-.87,0,0,1.39-3.16,11-2.85a1.59,1.59,0,0,0,1.61-1.26,1.26,1.26,0,0,0,0-.28v0a1.6,1.6,0,0,0-1.44-1.59c-3.13-.3-10.32-.79-12.78.73a23,23,0,0,1-2.86,1.44"/><path class="cls-5" d="M267.48,172.42s-5.47,3.09-5.33,7.45c0,.58.05,1.23.08,1.94.36,7,1.26,19.4-2.54,24.09a4.89,4.89,0,0,1-2.05,1.55,30.43,30.43,0,0,0-12.49,18.1c-2.93,12.38-8.47,10.43-19.22,34.86,0,0-2.93,7.49-3.91,11.08a15.78,15.78,0,0,0-.4,4.84,8.09,8.09,0,0,0,2.39,5.29,8.26,8.26,0,0,1,1.82,2.74c1.92,4.8,7.43,19.25,28.75,39.39"/><path class="cls-5" d="M265.63,317a30.3,30.3,0,0,0-1.65-3.83,2,2,0,0,1-.25-1.14,1.87,1.87,0,0,1,.28-.81,1.94,1.94,0,0,1,3-.41c.51.47,1.09,1,1.64,1.61,1.4,1.47,2.69,3.15,2.69,4.34"/><path class="cls-5" d="M255.74,256.3s4.94,8.78,5.38,15.08S258.88,310,258.88,310"/><path class="cls-5" d="M291.61,216.11c-1.58-1-2.69-1.64-2.69-1.64"/><path class="cls-5" d="M254.58,323.75h0c0,.36-.89,8-2.58,16.69-1.74,8.9-.66,21.28,6.95,31.49s8.66,11.73,8.56,20,3.82,47.78,3.38,56.91-8.47,23.24-7.6,43.22c.57,13.07,2.08,28.34,2.88,40.62a150.34,150.34,0,0,1,.42,16.22L265.4,563a5.18,5.18,0,0,0,4.17,5.52,67.51,67.51,0,0,0,11.75,1.24c10,.22,19.33,1.31,26.28,1.31s16.72-1.09,18-5.43a3.39,3.39,0,0,0-1-1.86,3.31,3.31,0,0,0-1.88-.91,40.83,40.83,0,0,1-8.66-2.23,167.82,167.82,0,0,1-20.63-8.9c-4.31-2.32-7.1-10.06-7.69-20.63a84.76,84.76,0,0,1,.09-10.65c1.08-15.85,4.12-29.75,5.21-41.05s8-20.63,10-27.37,2.83-16.07,5-24.54,7.6-43,2.17-69.28c0,0-.2-1.1-.43-3.05a106.23,106.23,0,0,1-.22-21.71c.46-4.94.57-13.18.58-22,0-2.92,0-5.91,0-8.86,0-13.12-.07-25.4.73-27.81,1.52-4.56,8.69-9.34,6.73-19.54a68.16,68.16,0,0,0-3.82-12c-.3-.75-.62-1.51-.94-2.26-3.32-7.79-7.38-15.23-9.35-17.47s-6.22-5.15-9.23-7.06"/><path class="cls-5" d="M259.69,205.9s8.81-1.2,15.11,4.45,17.81,19.76,18.68,24.54-18,26.37-36.17,18.62"/><path class="cls-5" d="M311.81,243.33c-5.34,8.43-18.33-8.44-18.33-8.44"/><path class="cls-5" d="M266.17,532.67s11.92,3.91,19.61-1.52"/><path class="cls-5" d="M443.91,209.5a2.5,2.5,0,0,0,.31.78l1.85,3a2.3,2.3,0,0,1,.35,1.11c.15,3,.83,16.25.83,22.21,0,6.73-2.82,8.69-10,13.46-1.32.88-3,1.93-4.81,3.08-8.19,5.07-20.36,12-26,14.3a132,132,0,0,0-22.59,11.73c-7.16,4.78-20,3.47-25.19,5.65s-22.37,8.47-28,10.2-21.94,7.61-21.94,7.61"/><path class="cls-5" d="M451.47,208.93l-.9-.77a2.32,2.32,0,0,1-.68-1c-.43-1.17-1.59-3.88-3.47-5a2.3,2.3,0,0,0-2.48.14,2.57,2.57,0,0,0-.72.78,2.28,2.28,0,0,0-.29,1.13,3.16,3.16,0,0,0,.18,1"/><path class="cls-5" d="M307.82,355.21s42.78-31.7,51-37.13A134.68,134.68,0,0,1,374.28,309c5-2.6,27.8-6.95,41.26-18,8.24-6.78,18.43-15.35,27-21.87,5.43-4.14,10.21-7.46,13.41-9,8.25-3.91,23.68-6.3,16.94-16.08,0,0-6.73-7.38-10-10.64S457.68,224,457,216.65a13.05,13.05,0,0,0-3.91-6.3l-1.65-1.41"/><path class="cls-5" d="M432.45,253.17s10.13,8.58,10.08,15.89"/><path class="cls-5" d="M427.94,213.42c3,0,7.56-3.92,7.56-3.92s.7,0,2.07,0c1,0,2.36,0,4.05,0h.14a3.67,3.67,0,0,0,2.82-1,1.42,1.42,0,0,0-.92-2.39l-.61,0-5.77-.42L431,204l-.47-.12a4.16,4.16,0,0,0-2.63.17c-2.84,1.17-9.61,3.94-12.13,4.81a128,128,0,0,1-24.27,4.56s-15.38.48-24,1.84c-5.54.87-14.29,5-18.85,5.4-3.42.33-17,.17-23.62.07a29,29,0,0,1-6.69-.89c-5.42-1.38-17-3.94-26-3.3h0l-.67-.43L288.44,214a5.78,5.78,0,0,1-2.62-4.32c-.38-4-1-11.3-1-14.36,0-4.34,3.7-2.92,3.7-2.92,10.74,2.32,9.54-4.65,9.22-5.53l1.47-10,5.09-.82-2.35-5.51c-1.82-2.76-.46-3.39-.18-7.65.36-5.42-3-13.72-3-13.72l-.29-1.83-.23-1.39c-12.44-7.55-23-12.2-36.79-4.91-.69.36-1.39.76-2.1,1.19a19.64,19.64,0,0,0-3.46,3.22,27.69,27.69,0,0,0-6.68,15.57"/><line class="cls-5" x1="431.04" y1="204" x2="442.75" y2="202.75"/><path class="cls-5" d="M446.42,202.16l2-.28a2,2,0,0,1,1.84.7l1.4,1.67a2,2,0,0,1,.45,1.67l-.64,3h0"/><path class="cls-5" d="M437.58,210.67a1.81,1.81,0,0,1,.51.08l4,1.23a1.32,1.32,0,0,1,.82,1.78l-.4,1a1.33,1.33,0,0,1-1.69.73l-1.43-.54L437,214a1.71,1.71,0,0,1,.6-3.32Z"/><path class="cls-5" d="M438.77,216.45l-5.56-1.94a1.32,1.32,0,0,0-1,2.43l4.71,2.41.38.19a1.32,1.32,0,0,0,1.68-.42l.46-.66A1.32,1.32,0,0,0,438.77,216.45Z"/><path class="cls-5" d="M436.72,219.69a20.79,20.79,0,0,1-7.39,1.52h-6.87a3.91,3.91,0,0,1-1.4-.26,3.75,3.75,0,0,0-1.4-.27,4.05,4.05,0,0,0-1.19.19l-46.91,15.22c-8.36,2.71-17.39,3.09-26.71,4.23a234.22,234.22,0,0,1-34,.75"/><line class="cls-5" x1="308.18" y1="311.52" x2="298.59" y2="312.58"/><path class="cls-5" d="M268.69,312.37s9.35.65,12.85.47h0"/><path class="cls-5" d="M263.73,312.05s-3.27-1.28-4.85-2"/></svg>