<svg id="Layer_1" data-name="Layer 1" xmlns="http://www.w3.org/2000/svg" viewBox="0 0 700 700"><defs><style>.cls-1{fill:#c4e7f9;}.cls-2{fill:#feae63;}.cls-3{fill:#99abcc;}.cls-4{fill:none;stroke:#000;stroke-linecap:round;stroke-linejoin:round;stroke-width:2.3px;}</style></defs><title>Yoga_poses_2020_color</title><path d="M446.15,198c0,1.44-.55,2.6-1.17,2.59s-1.11-1.19-1.09-2.63.55-2.59,1.18-2.58S446.17,196.51,446.15,198Z"/><path class="cls-1" d="M436.87,250.27a41.28,41.28,0,0,0-.88-9.38l1.54-.2a65.66,65.66,0,0,0,4.88,15.11c4,8.42,11.48,20.82,6.29,35.36a23.32,23.32,0,0,1-5,8.14,21.14,21.14,0,0,0-5.06,9.3s-8,20.34-9.61,22.3-7.82,5.54-13.68,10.26a110.16,110.16,0,0,1-21.66,14.17c-4.08-10.42,2.76-16.61-1.47-34.2s-14.7-15.41-14.7-15.41a14.3,14.3,0,0,0,3.3-4.79c5.21-11.73,5.05-11.08,9-18.9s3.66-26.39,5.94-32.25c.65-1.67,1.73-3.94,2.95-6.33-.45,2.31-4.83,27.44,16.93,26.2C438.5,268.35,436.22,259.88,436.87,250.27Z"/><path class="cls-2" d="M436.87,236.58s.17,1.58.66,4.11l-1.54.2a70.28,70.28,0,0,0-3.52-12.78c-2-4.56-2.93-12.7-2.93-12.7-.08-7.4.16-13.69.41-19.34l.39,0c2-4,1.26-7.42,5-10.1,1.89-1.35,9.94-8,9.94-8l.47,1.79s4.11,7.94,4.29,13.36c.13,4.27-1.16,5,.93,7.59l2.87,5.26-5,1.32-.48,10.09c.41.85,2.28,7.66-8.63,6.41,0,0-3.82-1.06-3.4,3.27ZM446.15,198c0-1.44-.46-2.61-1.08-2.62s-1.15,1.14-1.18,2.58.46,2.61,1.09,2.63S446.12,199.39,446.15,198Z"/><path d="M430,196.07c.43-9.42.89-17,0-25l.19,0a70.16,70.16,0,0,1,14.8,5.61l.36,1.36s-8,6.62-9.94,8c-3.73,2.68-3,6.1-5,10.1Z"/><path d="M410.81,185.6c1.63,15.63-1.3,22.8-3.08,27.36a25.72,25.72,0,0,0-1,4.94l-.55-.07a21.22,21.22,0,0,1-3.5-3.64c-5.34-6.84-5.13-17.73-5.13-17.73a27.83,27.83,0,0,1,5.12-16.16,20.1,20.1,0,0,1,3.12-3.54c.76-.56,1.51-1.09,2.25-1.57l1.12-.71.22,0C410,177.81,410.39,181.56,410.81,185.6Z"/><path d="M407.71,174.63l.37.56c-.74.48-1.49,1-2.25,1.57a20.1,20.1,0,0,0-3.12,3.54l-.09-.06c-6.08,6.58-12.06.91-12.65-2.6-.81-4.92,3.84-13.13,11.15-11.19S407.71,174.63,407.71,174.63Z"/><path class="cls-2" d="M395.83,598s0,.11,0,.17a2.8,2.8,0,0,1-2.8,2.64h-7l-2.8-.69a3.38,3.38,0,0,0-1.93-.6,3.46,3.46,0,0,0-1.43.32,3.4,3.4,0,0,1-1.44.32H374.6a19.32,19.32,0,0,1-7.9-1.64c-.89-.4-1.93-.82-3.08-1.22a24,24,0,0,0-7.72-1.26,25.49,25.49,0,0,0-6.88,1,25.18,25.18,0,0,1-7.17.94l-10.64-.17a5.2,5.2,0,0,1-5-4.29,11.25,11.25,0,0,1,.43-5.2c1.45-4.84,1.92-14,1-23.21a48.9,48.9,0,0,0,19-2.25,35.22,35.22,0,0,0,4.33,9.33c3.59,5.05,2.77,5.05,7.66,7.49s13.85,9,18.9,10.1c0,0,9.28,4.08,12.7,4.89a31,31,0,0,0,3.26.6A2.81,2.81,0,0,1,395.83,598Z"/><path class="cls-3" d="M315.56,345.78c-8.66-6.71-18.95-14.16-27.9-21.56-16-13.19-39.76-35.45-47.91-42.45S228,269.65,226.57,259.39s5.71-14.34,11.73-20.69,11.73-8,15.48-11.08,9.12-9.61,14.66-13.84,21.66-20.2,24.6-23.95c0,0,10.17,3.46,12.38,13-3.26,5-14.83,20.85-23.3,33.23S260.62,256,260.62,256c2.93,8.14,16.61,14.66,26.06,20.85,7.43,4.87,29.58,17.6,38.69,22.81a12.17,12.17,0,0,0,8.19,1.38,53.08,53.08,0,0,1,17-.54,20.5,20.5,0,0,1,8.84,3.57l4.8,3.4s7.68,3.51,13.32-1.72c0,0,10.46-2.19,14.7,15.41s-2.61,23.78,1.47,34.2c-10.76,5.54-24.58,11.57-30.12,15s-2.6,3.75-3.74,17.92-4.89,32.79-7.5,46-1,23.46-2.44,30c0,0-2.61,5.05-2.61,7s-1.46,5.38-2.6,8.15-2.45,10-1.14,23.25-.52,43,2.09,57c0,0,.29,1.31.88,3.21a48.9,48.9,0,0,1-19,2.25,82,82,0,0,0-1.53-9.53c-2.7-11.9-11-42-10.51-53.92a290.84,290.84,0,0,1,3.42-31.23c.81-4.89-.33-31.12-1.47-44a239,239,0,0,1-1-36.38c.65-15-1-44.16-1-44.16Z"/><path class="cls-2" d="M330,163l-1.55,7-.52,2.33s-4.4,11.4-4.89,18.9-2.93,10.42-7.52,9.12-6.82-2.61-10.07,2.44c-2.21-9.57-12.38-13-12.38-13,2.93-3.75,5.86-10.91,9.44-15.12s7.58-10.16,7.58-10.16Z"/><path class="cls-2" d="M318.21,145.31a1.48,1.48,0,0,1,.28,2.94l-1.6.31a1.44,1.44,0,0,1-1.1-.22,1.5,1.5,0,0,1-.66-1.24v-.31a1.48,1.48,0,0,1,1.48-1.48Z"/><path class="cls-2" d="M317.34,153.94V154a1.83,1.83,0,0,1-1.5,1.81l-3.2.58a1.77,1.77,0,0,1-.69,0,1.84,1.84,0,0,1-1.44-2.07v-.05a1.83,1.83,0,0,1,1.5-1.52l2.83-.47.4-.06A1.82,1.82,0,0,1,317.34,153.94Z"/><path class="cls-2" d="M315.55,152.16l-.3.05-.4.06a1.63,1.63,0,0,1-1.9-1.76v0a1.65,1.65,0,0,1,1.48-1.49l.7-.07h.15a1.65,1.65,0,0,1,.27,3.27Z"/><path class="cls-2" d="M313.32,158.35a1.5,1.5,0,0,0-1.42-1.49l.05-.48a1.77,1.77,0,0,0,.69,0l3.2-.58a1.83,1.83,0,0,0,1.5-1.81v-.06a1.82,1.82,0,0,0-2.09-1.73l.3-.05a1.65,1.65,0,0,0-.27-3.27l.51-.55a1.44,1.44,0,0,0,1.1.22l1.6-.31a1.48,1.48,0,0,0-.28-2.94l.27-.56a2.17,2.17,0,0,1,2.22-1.22l6.82.8,7.49-.81,10.21-.82,3.47-1s19.77-2.06,25.63-2.82,37.14-2.06,43-2.06,10.3,20.2,12.05,30.4c.22,1.29.4,2.56.54,3.83.92,8,.46,15.58,0,25-.25,5.65-.49,11.94-.41,19.34,0,0,1,8.14,2.93,12.7A70.28,70.28,0,0,1,436,240.89a41.28,41.28,0,0,1,.88,9.38c-.65,9.61,1.63,18.08-21.17,19.38-21.76,1.24-17.38-23.89-16.93-26.2v0c3.05-6,6.91-12.65,6.91-12.65.27-4.51.64-9.3,1.09-12.88a25.72,25.72,0,0,1,1-4.94c1.78-4.56,4.71-11.73,3.08-27.36-.42-4-.86-7.79-1.39-11.15-1.51-9.68-3.7-16.14-8.06-16.87-5.72-1-23.83-4.39-44.37-2.74a17,17,0,0,0-3.08.54l-2.75.74a17.28,17.28,0,0,0-7.37,4.12l-7.31,6.88a6.38,6.38,0,0,1-2.13,1.33l-5,1.83-.94-.21,1.55-7-19.91,1.51a2.35,2.35,0,1,1-.18-4.69h1.93a1.49,1.49,0,0,0,1.48-1.24A1.24,1.24,0,0,0,313.32,158.35Z"/><path class="cls-2" d="M309.73,159.74a1.7,1.7,0,0,1,.39-2.89h1.78a1.5,1.5,0,0,1,1.42,1.49,1.24,1.24,0,0,1,0,.27,1.49,1.49,0,0,1-1.48,1.24h-1.93Z"/><path class="cls-4" d="M445.27,178s-8,6.62-9.94,8c-3.73,2.68-3,6.1-5,10.1"/><path class="cls-4" d="M406.22,217.83a21.22,21.22,0,0,1-3.5-3.64c-5.34-6.84-5.13-17.73-5.13-17.73"/><path class="cls-4" d="M407.71,174.63s.72-6.25-6.59-8.18-12,6.27-11.15,11.19c.59,3.51,6.57,9.18,12.65,2.6"/><path class="cls-4" d="M315.49,345.87s1.65,29.17,1,44.16a239,239,0,0,0,1,36.38c1.14,12.86,2.28,39.09,1.47,44a290.84,290.84,0,0,0-3.42,31.23c-.49,11.89,7.81,42,10.51,53.92a82,82,0,0,1,1.53,9.53c.95,9.24.48,18.37-1,23.21a11.25,11.25,0,0,0-.43,5.2,5.2,5.2,0,0,0,5,4.29l10.64.17A25.18,25.18,0,0,0,349,597a25.49,25.49,0,0,1,6.88-1,24,24,0,0,1,7.72,1.26c1.15.4,2.19.82,3.08,1.22a19.32,19.32,0,0,0,7.9,1.64h3.85a3.4,3.4,0,0,0,1.44-.32,3.46,3.46,0,0,1,1.43-.32,3.38,3.38,0,0,1,1.93.6l2.8.69h7a2.8,2.8,0,0,0,2.8-2.64c0-.06,0-.12,0-.17a2.81,2.81,0,0,0-2.45-2.78,31,31,0,0,1-3.26-.6c-3.42-.81-12.7-4.89-12.7-4.89-5.05-1.14-14-7.65-18.9-10.1s-4.07-2.44-7.66-7.49a35.22,35.22,0,0,1-4.33-9.33c-.59-1.9-.88-3.21-.88-3.21-2.61-14-.79-43.82-2.09-57s0-20.48,1.14-23.25,2.6-6.19,2.6-8.15,2.61-7,2.61-7c1.46-6.52-.16-16.78,2.44-30s6.36-31.81,7.5-46-1.8-14.5,3.74-17.92,19.36-9.45,30.12-15a110.16,110.16,0,0,0,21.66-14.17c5.86-4.72,12.05-8.31,13.68-10.26s9.61-22.3,9.61-22.3a21.14,21.14,0,0,1,5.06-9.3,23.32,23.32,0,0,0,5-8.14c5.19-14.54-2.3-26.94-6.29-35.36a65.66,65.66,0,0,1-4.88-15.11c-.49-2.53-.66-4.11-.66-4.11l-.54-9.47c-.42-4.33,3.4-3.27,3.4-3.27,10.91,1.25,9-5.56,8.63-6.41l.48-10.09,5-1.32L451,200.76c-2.09-2.56-.8-3.32-.93-7.59-.18-5.42-4.29-13.36-4.29-13.36l-.47-1.79-.36-1.36a70.16,70.16,0,0,0-14.8-5.61"/><path class="cls-4" d="M397.59,196.46a27.83,27.83,0,0,1,5.12-16.16,20.1,20.1,0,0,1,3.12-3.54c.76-.56,1.51-1.09,2.25-1.57l1.12-.71"/><path class="cls-4" d="M398.77,243.45c-1.22,2.39-2.3,4.66-2.95,6.33-2.28,5.86-1.95,24.43-5.94,32.25s-3.83,7.17-9,18.9a14.3,14.3,0,0,1-3.3,4.79c-5.64,5.23-13.32,1.72-13.32,1.72l-4.8-3.4a20.5,20.5,0,0,0-8.84-3.57,53.08,53.08,0,0,0-17,.54,12.17,12.17,0,0,1-8.19-1.38c-9.11-5.21-31.26-17.94-38.69-22.81-9.45-6.19-23.13-12.71-26.06-20.85,0,0,13-7.5,21.5-19.88s20-28.18,23.3-33.23,5.49-3.74,10.07-2.44,7-1.63,7.52-9.12,4.89-18.9,4.89-18.9l.52-2.33,1.55-7"/><path class="cls-4" d="M405.68,230.78s-3.86,6.69-6.91,12.65"/><path class="cls-4" d="M405,243.91s.22-6.22.64-13.13c.27-4.51.64-9.3,1.09-12.88a25.72,25.72,0,0,1,1-4.94c1.78-4.56,4.71-11.73,3.08-27.36-.42-4-.86-7.79-1.39-11.15-1.51-9.68-3.7-16.14-8.06-16.87-5.72-1-23.83-4.39-44.37-2.74a17,17,0,0,0-3.08.54l-2.75.74a17.28,17.28,0,0,0-7.37,4.12l-7.31,6.88a6.38,6.38,0,0,1-2.13,1.33l-5,1.83"/><path class="cls-4" d="M333.27,162.79,330,163l-19.91,1.51a2.35,2.35,0,1,1-.18-4.69h1.93a1.49,1.49,0,0,0,1.48-1.24,1.24,1.24,0,0,0,0-.27,1.5,1.5,0,0,0-1.42-1.49h-1.78a1.7,1.7,0,0,0-.39,2.89l.15.12"/><path class="cls-4" d="M315.25,152.21a1.82,1.82,0,0,1,2.09,1.73V154a1.83,1.83,0,0,1-1.5,1.81l-3.2.58a1.77,1.77,0,0,1-.69,0,1.84,1.84,0,0,1-1.44-2.07v-.05a1.83,1.83,0,0,1,1.5-1.52l2.83-.47"/><path class="cls-4" d="M315.28,148.89h-.15l-.7.07a1.65,1.65,0,0,0-1.48,1.49v0a1.63,1.63,0,0,0,1.9,1.76l.4-.06.3-.05a1.65,1.65,0,0,0-.27-3.27Z"/><path class="cls-4" d="M315.79,148.34a1.5,1.5,0,0,1-.66-1.24v-.31a1.48,1.48,0,0,1,1.48-1.48h1.6a1.48,1.48,0,0,1,.28,2.94l-1.6.31A1.44,1.44,0,0,1,315.79,148.34Z"/><path class="cls-4" d="M310.06,164.55s-4,6-7.58,10.16S296,186.08,293,189.83s-19.06,19.71-24.6,23.95-10.92,10.75-14.66,13.84-9.45,4.73-15.48,11.08-13.19,10.43-11.73,20.69,5,15.37,13.18,22.38S271.7,311,287.66,324.22c8.95,7.4,19.24,14.85,27.9,21.56,6.77,5.24,12.56,10,15.92,14"/><path class="cls-4" d="M377.54,305.72s10.46-2.19,14.7,15.41-2.61,23.78,1.47,34.2"/><path class="cls-4" d="M398.8,243.28l0,.15v0c-.45,2.31-4.83,27.44,16.93,26.2,22.8-1.3,20.52-9.77,21.17-19.38a41.28,41.28,0,0,0-.88-9.38,70.28,70.28,0,0,0-3.52-12.78c-2-4.56-2.93-12.7-2.93-12.7-.08-7.4.16-13.69.41-19.34.43-9.42.89-17,0-25-.14-1.27-.32-2.54-.54-3.83-1.75-10.2-6.19-30.4-12.05-30.4s-37.15,1.3-43,2.06-25.63,2.82-25.63,2.82l-3.47,1-10.21.82-7.49.81-6.82-.8a2.17,2.17,0,0,0-2.22,1.22l-.27.56"/><path class="cls-4" d="M293,189.83s10.17,3.46,12.38,13"/><path class="cls-4" d="M327.56,565.07a48.9,48.9,0,0,0,19-2.25"/></svg>