<svg id="Layer_1" data-name="Layer 1" xmlns="http://www.w3.org/2000/svg" viewBox="0 0 700 700"><defs><style>.cls-1{fill:#feae63;}.cls-2{fill:#99abcc;}.cls-3{fill:#c4e7f9;}.cls-4{fill:#120c0c;}.cls-5{fill:none;stroke:#000;stroke-linecap:round;stroke-linejoin:round;stroke-width:2.3px;}</style></defs><title>Yoga_poses_2020_color</title><path class="cls-1" d="M349.41,207.05a1.6,1.6,0,0,1,1.54-1.19h.22a1.6,1.6,0,0,1,1.57,1.26l6.7,23.21a3.39,3.39,0,0,1,.07.64V247.3a7.66,7.66,0,0,0,1,3.77,11.5,11.5,0,0,0,2.08,2.45,10.23,10.23,0,0,0,2.63,1.83c4.08,1.68,12.64,5.14,20.56,7.8a74.41,74.41,0,0,0,13.07,3.45l1,.12,0-.12-9.61-24-.17,0a17.2,17.2,0,0,0-1,4.53c-1.7-6-5.45-12.38-11.74-19.22V204.73l.11-.49a49.55,49.55,0,0,0,7.58,1.21c10,.75,15.66,9,20.21,20.45,4,10,16.08,39.25,18.33,44.24l3.6,11a9.17,9.17,0,0,1-8.73,12,9.23,9.23,0,0,1-3.39-.65c-8.05-3.21-20.19-8.29-31.22-13.9-4.91-2.5-9.6-5.11-13.62-7.7a32.73,32.73,0,0,0-3-1.73l-12.48-6.33a7.61,7.61,0,0,1-3.46-3.25l-.89-1.64a7.62,7.62,0,0,1-.93-3.65V216.88a1.6,1.6,0,0,0-1.6-1.6h1.54v-7.82A1.4,1.4,0,0,1,349.41,207.05Z"/><path class="cls-2" d="M391.22,328.93c.75,7.48,5.32,32.42,3.07,50.13s-10.63,53.14-8.64,80.58-1.25,47.89-4.24,60.56a114.42,114.42,0,0,0-2.31,13.59l-.37,0c-8.82,2-14.06-.66-14.06-.66l-.53,0c-.48-12.51-3.73-31.52-2.44-41.4a81.84,81.84,0,0,0-1.21-28.11s-2.52-11.71-2.83-20.16c-.29-8-4.58-64.39-7.08-75.91a.88.88,0,0,0-1.72,0c-2.08,11.51-7.5,67.92-7,75.88.52,8.84-2.83,20.16-2.83,20.16s-3.08,14.9-2,27.64c.82,9.69-2.14,28.27-2.66,40.89h0a39.81,39.81,0,0,1-13.54-.27l-.88.08a80.31,80.31,0,0,0-1.84-11.74c-3-12.67-6.24-33.13-4.25-60.56s-6.38-62.77-8.63-80.58,1.66-42.65,2.41-50.13a39.17,39.17,0,0,1,2-7.26l.55.18c45.44,7.67,77.77.21,77.77.21l1.13-.24A35.1,35.1,0,0,1,391.22,328.93Z"/><path class="cls-3" d="M389.11,321.82l-1.13.24s-32.33,7.46-77.77-.21l-.55-.18c2.86-8.53,7.52-22.55,6-43.39h0c4.67-2.39,9.13-4.88,13-7.35a31.31,31.31,0,0,1,3-1.73l12.5-6.34a7.64,7.64,0,0,0,3.46-3.26l.89-1.64a7.54,7.54,0,0,0,.93-3.63,7.62,7.62,0,0,0,.93,3.65l.89,1.64a7.61,7.61,0,0,0,3.46,3.25l12.48,6.33a32.73,32.73,0,0,1,3,1.73c4,2.59,8.71,5.2,13.62,7.7l-.13.25C381.84,301,386.28,313.89,389.11,321.82Z"/><path class="cls-3" d="M389,247.08c-.25,4.49-3.16,15.77-3.16,15.77l-.1.3c-7.92-2.66-16.48-6.12-20.56-7.8a10.23,10.23,0,0,1-2.63-1.83,11.5,11.5,0,0,1-2.08-2.45,7.66,7.66,0,0,1-1-3.77V233.63a60.88,60.88,0,0,0,17.78-5.77C383.58,234.7,387.33,241,389,247.08Z"/><path class="cls-1" d="M379.36,577.55c0-.19-.06-.32-.07-.38S379.32,577.37,379.36,577.55Zm-4,1c.06.71,0,2.8-2,2.88-2.49.09-2.71-3.12-2.71-3.12-.49,3.1-2.09,3.11-2.11,3.11-2.17,0-2.85-1.53-3-2.9a10.67,10.67,0,0,0,0-2.06,7.27,7.27,0,0,0,0,2.06c-.26,1.85-1.38,2.9-4.89,2.9-4.66,0-2.66-6-2.39-8.4s2.67-3.25,2.67-12.9.66-8.51,2.8-18.26a37.1,37.1,0,0,0,.42-8.71l.53,0s5.24,2.69,14.06.66l.37,0a106.08,106.08,0,0,0-.7,10.61c-.78,5-.52,6.69-1.18,11.68s.48,4.6,1.26,9.93,4.07,7.67,4.21,9.77,0,4-1.58,4.33c-1,.21-1.53-1.59-1.74-2.48.16.93.26,2.91-1.54,3A2.27,2.27,0,0,1,375.39,578.51Z"/><path class="cls-1" d="M377.4,204.24l-.11.49v23.13a60.88,60.88,0,0,1-17.78,5.77V231a3.39,3.39,0,0,0-.07-.64l-6.7-23.21a1.6,1.6,0,0,0-1.57-1.26H351a1.59,1.59,0,0,1-3.08,0h-.22a1.6,1.6,0,0,0-1.57,1.26l-6.69,23.19a2.73,2.73,0,0,0-.07.64v2c-4.5.06-12.62-2.84-16.79-5.06l-1.17-23.5-.06-.21a58.61,58.61,0,0,0,11.95-4.63c3.78-2.13,3.71-10.35,3.46-16.74h0c2.53,2.42,6.81,4.65,14,4.51a23,23,0,0,0,9.18-2.22l1,.29c-.25,6.4.52,12.62,4.3,14.76A70,70,0,0,0,377.4,204.24Z"/><path class="cls-1" d="M373,159.35s.31,5-2.16,8.13c0,0-1.53,1.41-1-2.26l-.32-.05c0-.32.08-.64.11-.94l.36-5.88.33,0C371,157.3,372.31,155.64,373,159.35Z"/><path class="cls-4" d="M328.94,156c-.1.69-.12,1.1-.12,1.1s-5.19-15.66,3.83-23.69a21.11,21.11,0,0,1,6.87-4.09c8-3,16.51-1.17,19.4-.39.66.18,1,.3,1,.3,18.37,7.36,10.33,27.24,10.33,27.24a5.68,5.68,0,0,0-.12-.78A43.9,43.9,0,0,0,368,149c-3.78-9.81-17.33-9.83-17.33-9.83C332.71,139.33,329.49,152.13,328.94,156Z"/><path class="cls-1" d="M370.16,155.69l-.17,2.66-.36,5.88c0,.3-.07.62-.11.94-.56,4-2.37,9.09-2.91,11.58a11.94,11.94,0,0,1-6.71,8.31,23,23,0,0,1-9.18,2.22c-7.19.14-11.47-2.09-14-4.51a12,12,0,0,1-3.48-5.72c-.83-3.05-2.72-8.78-3.26-11.92-.07-.45-.12-.85-.14-1.18l-.69-6.1-.21-1.85c.55-3.87,3.77-16.67,21.77-16.79,0,0,13.55,0,17.33,9.83A43.9,43.9,0,0,1,370.16,155.69Zm-11.24,6.21a2.32,2.32,0,1,0-2-2.28A2.16,2.16,0,0,0,358.92,161.9Zm-18.11-.25a2.32,2.32,0,1,0-2-2.28A2.15,2.15,0,0,0,340.81,161.65Z"/><path d="M360.89,159.59a2,2,0,1,1-2-2.28A2.16,2.16,0,0,1,360.89,159.59Z"/><path class="cls-4" d="M360.05,128.91l-1.13,0c-2.89-.78-11.4-2.6-19.4.39l-.16-.41c0-5.35,4.63-9.7,10.34-9.7S360.05,123.56,360.05,128.91Z"/><path class="cls-1" d="M313.63,263c7.76-2.63,16-6,20-7.6a10,10,0,0,0,2.63-1.84,11.52,11.52,0,0,0,2.08-2.46,7.67,7.67,0,0,0,1-3.77V231a2.73,2.73,0,0,1,.07-.64l6.69-23.19a1.6,1.6,0,0,1,1.57-1.26h.22a1.6,1.6,0,0,1,1.54,1.19,1.4,1.4,0,0,0-.06.41v7.82h-1.54a1.6,1.6,0,0,1,1.6,1.6v37.44a7.54,7.54,0,0,1-.93,3.63l-.89,1.64a7.64,7.64,0,0,1-3.46,3.26l-12.5,6.34a31.31,31.31,0,0,0-3,1.73c-3.83,2.47-8.29,5-13,7.35-11.21,5.76-23.68,11-31.89,14.25a9.18,9.18,0,0,1-12.12-11.38l3.6-11c2.25-5,14.36-34.22,18.34-44.24,4.54-11.45,10.22-19.7,20.2-20.45a41.35,41.35,0,0,0,7.46-1.3l.06.21,1.17,23.5c-6,7.5-9.8,11.5-12.59,17.5h0a31.61,31.61,0,0,0-1.1-4.2L299,266.6l0,.12,1-.12A77.23,77.23,0,0,0,313.63,263Z"/><path d="M342.77,159.34a2,2,0,1,1-2-2.28A2.15,2.15,0,0,1,342.77,159.34Z"/><path class="cls-1" d="M319.14,577.55c0-.18.06-.32.07-.38S319.17,577.36,319.14,577.55Zm4,.82a.67.67,0,0,0,0-.1A.45.45,0,0,0,323.12,578.37Zm0,.15a.34.34,0,0,0,0-.09S323.1,578.49,323.1,578.52Zm9.87,0a7.24,7.24,0,0,0,0-2.09A10.92,10.92,0,0,0,333,578.51Zm-13.84-.88c-.21.89-.74,2.69-1.74,2.48-1.56-.33-1.71-2.23-1.58-4.33s3.42-4.45,4.2-9.77,1.92-4.94,1.27-9.93c-.57-4.3-.45-6.16-.91-9.78a23.15,23.15,0,0,1-.17-3.81,88.6,88.6,0,0,0-.27-10.55l.88-.08a39.81,39.81,0,0,0,13.54.27h0a41.26,41.26,0,0,0,.42,9.69c2.14,9.75,2.14,8.62,2.14,18.26s3.06,10.46,3.33,12.9,2.27,8.4-2.39,8.4c-3.48,0-4.61-1-4.89-2.85a2.88,2.88,0,0,1-3,2.85s-1.61,0-2.1-3.11c0,0-.22,3.21-2.71,3.12-2-.08-2.09-2.12-2-2.85a2.25,2.25,0,0,1-2.43,2.1C318.87,580.54,319,578.56,319.13,577.63Z"/><path class="cls-3" d="M339.32,232.92v14.36a7.67,7.67,0,0,1-1,3.77,11.52,11.52,0,0,1-2.08,2.46,10,10,0,0,1-2.63,1.84c-4,1.64-12.22,5-20,7.6-.12-.43-3.19-11.19-3.44-15.59a13.39,13.39,0,0,0-.26-2h0c2.79-6,6.6-10,12.59-17.5C326.7,230.08,334.82,233,339.32,232.92Z"/><path class="cls-1" d="M330,165.13l-.22,0c.72,3.64-.87,2.3-.87,2.3-2.61-3-2.51-8-2.51-8,.44-3.22,1.56-2.47,2.3-1.54l.47-.05.69,6.1C329.86,164.28,329.91,164.68,330,165.13Z"/><path class="cls-5" d="M364.67,533.09s5.24,2.69,14.06.66"/><path class="cls-5" d="M385.87,262.85s2.91-11.28,3.16-15.77a17.2,17.2,0,0,1,1-4.53,43.77,43.77,0,0,1,2.93-6.42"/><path class="cls-5" d="M379.37,577.63c.21.89.74,2.69,1.74,2.48,1.56-.33,1.71-2.23,1.58-4.33s-3.42-4.45-4.21-9.77-1.92-4.94-1.26-9.93.4-6.69,1.18-11.68a106.08,106.08,0,0,1,.7-10.61,114.42,114.42,0,0,1,2.31-13.59c3-12.67,6.24-33.13,4.24-60.56s6.4-62.87,8.64-80.58-2.32-42.65-3.07-50.13a35.1,35.1,0,0,0-2.11-7.11c-2.83-7.93-7.27-20.87-5.46-42.95"/><path class="cls-5" d="M379.29,577.17c0,.06,0,.2.07.38"/><path class="cls-5" d="M379.36,577.55c0-.19-.06-.32-.07-.38v0"/><path class="cls-5" d="M379.36,577.55a.13.13,0,0,1,0,.06,0,0,0,0,1,0,0"/><path class="cls-5" d="M375.37,578.27s0,.08,0,.22v0a2.27,2.27,0,0,0,2.44,2.13c1.8-.1,1.7-2.08,1.54-3"/><path class="cls-5" d="M365.53,578.48c.16,1.37.84,2.91,3,2.9,0,0,1.62,0,2.11-3.11,0,0,.22,3.21,2.71,3.12,2.07-.08,2.09-2.17,2-2.88"/><path class="cls-5" d="M365.53,578.48a10.67,10.67,0,0,0,0-2.06A7.27,7.27,0,0,0,365.53,578.48Z"/><path class="cls-5" d="M333,578.53c.28,1.82,1.41,2.85,4.89,2.85,4.66,0,2.66-6,2.39-8.4s-3.33-3.25-3.33-12.9,0-8.51-2.14-18.26a41.26,41.26,0,0,1-.42-9.69c.52-12.62,3.48-31.2,2.66-40.89-1.09-12.74,2-27.64,2-27.64s3.35-11.32,2.83-20.16c-.48-8,4.94-64.37,7-75.88a.88.88,0,0,1,1.72,0c2.5,11.52,6.79,67.91,7.08,75.91.31,8.45,2.83,20.16,2.83,20.16a81.84,81.84,0,0,1,1.21,28.11c-1.29,9.88,2,28.89,2.44,41.4a37.1,37.1,0,0,1-.42,8.71c-2.14,9.75-2.8,8.62-2.8,18.26s-2.4,10.46-2.67,12.9-2.27,8.4,2.39,8.4c3.51,0,4.63-1,4.89-2.9"/><path class="cls-5" d="M333,578.51a7.24,7.24,0,0,0,0-2.09A10.92,10.92,0,0,0,333,578.51Z"/><path class="cls-5" d="M333,578.51v0"/><path class="cls-5" d="M323.1,578.54c-.05.73,0,2.77,2,2.85,2.49.09,2.71-3.12,2.71-3.12.49,3.1,2.08,3.11,2.1,3.11a2.88,2.88,0,0,0,3-2.85"/><path class="cls-5" d="M323.11,578.43s0,.06,0,.09"/><path class="cls-5" d="M323.12,578.37a.67.67,0,0,0,0-.1A.45.45,0,0,0,323.12,578.37Z"/><path class="cls-5" d="M323.12,578.37a.13.13,0,0,1,0,.06"/><path class="cls-5" d="M323.1,578.52a.34.34,0,0,0,0-.09"/><path class="cls-5" d="M323.1,578.52v0"/><path class="cls-5" d="M319.13,577.63c-.16.93-.26,2.91,1.54,3a2.25,2.25,0,0,0,2.43-2.1"/><path class="cls-5" d="M319.22,577.14v0c0,.06,0,.19-.07.38"/><path class="cls-5" d="M319.14,577.55c0-.18.06-.32.07-.38"/><path class="cls-5" d="M319.14,577.55s0,0,0,.06,0,0,0,0"/><path class="cls-5" d="M315.71,278.28c1.47,20.84-3.19,34.86-6,43.39a39.17,39.17,0,0,0-2,7.26c-.75,7.48-4.66,32.42-2.41,50.13s10.63,53.08,8.63,80.58,1.26,47.89,4.25,60.56a80.31,80.31,0,0,1,1.84,11.74,88.6,88.6,0,0,1,.27,10.55,23.15,23.15,0,0,0,.17,3.81c.46,3.62.34,5.48.91,9.78.65,5-.48,4.6-1.27,9.93s-4.07,7.67-4.2,9.77,0,4,1.58,4.33c1,.21,1.53-1.59,1.74-2.48"/><path class="cls-5" d="M308.83,241.16a31.61,31.61,0,0,1,1.1,4.2,13.39,13.39,0,0,1,.26,2c.25,4.4,3.32,15.16,3.44,15.59h0"/><path class="cls-5" d="M307,236.27s1,2.18,1.88,4.88"/><path class="cls-5" d="M349.41,216.88a1.6,1.6,0,0,1,1.6-1.58,1.62,1.62,0,0,1,1.6,1.4l2.31,18.43"/><path class="cls-5" d="M360.93,185.35c-.25,6.4.52,12.62,4.3,14.76a70,70,0,0,0,12.17,4.13,49.55,49.55,0,0,0,7.58,1.21c10,.75,15.66,9,20.21,20.45,4,10,16.08,39.25,18.33,44.24l3.6,11a9.17,9.17,0,0,1-8.73,12,9.23,9.23,0,0,1-3.39-.65c-8.05-3.21-20.19-8.29-31.22-13.9-4.91-2.5-9.6-5.11-13.62-7.7a32.73,32.73,0,0,0-3-1.73l-12.48-6.33a7.61,7.61,0,0,1-3.46-3.25l-.89-1.64a7.62,7.62,0,0,1-.93-3.65"/><path class="cls-5" d="M334.35,532.13a39.81,39.81,0,0,1-13.54-.27"/><path class="cls-5" d="M388,322.06s-32.33,7.46-77.77-.21"/><path class="cls-5" d="M339.36,128.91c0-5.35,4.63-9.7,10.34-9.7s10.35,4.35,10.35,9.7"/><path class="cls-5" d="M328.94,156c.55-3.87,3.77-16.67,21.77-16.79,0,0,13.55,0,17.33,9.83a43.9,43.9,0,0,1,2.12,6.65,5.68,5.68,0,0,1,.12.78s8-19.88-10.33-27.24c0,0-.37-.12-1-.3-2.89-.78-11.4-2.6-19.4.39a21.11,21.11,0,0,0-6.87,4.09c-9,8-3.83,23.69-3.83,23.69S328.84,156.69,328.94,156Z"/><path class="cls-5" d="M370.32,158.37c.63-1.07,2-2.73,2.65,1,0,0,.31,5-2.16,8.13,0,0-1.53,1.41-1-2.26"/><path class="cls-5" d="M328.68,157.9c-.74-.93-1.86-1.68-2.3,1.54,0,0-.1,5,2.51,8,0,0,1.59,1.34.87-2.3"/><path class="cls-5" d="M328.84,155.11l.1.89.21,1.85.69,6.1c0,.33.07.73.14,1.18.54,3.14,2.43,8.87,3.26,11.92a12,12,0,0,0,3.48,5.72c2.53,2.42,6.81,4.65,14,4.51a23,23,0,0,0,9.18-2.22,11.94,11.94,0,0,0,6.71-8.31c.54-2.49,2.35-7.58,2.91-11.58,0-.32.08-.64.11-.94l.36-5.88.17-2.66.07-1.2"/><path class="cls-5" d="M351.41,167.3a4.32,4.32,0,0,1-4.44-.13"/><polyline class="cls-5" points="344.68 174.72 345.62 175.1 348.58 174.23 349.69 174.91 350.92 174.26 353.57 175.2 354.43 174.98"/><line class="cls-5" x1="348.5" y1="179.65" x2="351.06" y2="179.69"/><path class="cls-5" d="M359.51,233.63a60.88,60.88,0,0,0,17.78-5.77c6.29,6.84,10,13.18,11.74,19.22"/><path class="cls-5" d="M309.94,245.36c2.79-6,6.6-10,12.59-17.5,4.17,2.22,12.29,5.12,16.79,5.06"/><line class="cls-5" x1="322.53" y1="227.86" x2="321.36" y2="204.36"/><line class="cls-5" x1="377.29" y1="227.86" x2="377.29" y2="204.73"/><path class="cls-5" d="M349.35,215.28v-7.82a1.4,1.4,0,0,1,.06-.41,1.6,1.6,0,0,1,1.54-1.19h.22a1.6,1.6,0,0,1,1.57,1.26l6.7,23.21a3.39,3.39,0,0,1,.07.64V247.3a7.66,7.66,0,0,0,1,3.77,11.5,11.5,0,0,0,2.08,2.45,10.23,10.23,0,0,0,2.63,1.83c4.08,1.68,12.64,5.14,20.56,7.8a74.41,74.41,0,0,0,13.07,3.45l1,.12c9.32,1.17,12.27,2.49,12.27,2.49"/><line class="cls-5" x1="399.84" y1="266.6" x2="390.23" y2="242.6"/><path class="cls-5" d="M336.71,182.78c.25,6.39.32,14.61-3.46,16.74a58.61,58.61,0,0,1-11.95,4.63,41.35,41.35,0,0,1-7.46,1.3c-10,.75-15.66,9-20.2,20.45-4,10-16.09,39.25-18.34,44.24l-3.6,11a9.18,9.18,0,0,0,12.12,11.38c8.21-3.27,20.68-8.49,31.89-14.25,4.67-2.39,9.13-4.88,13-7.35a31.31,31.31,0,0,1,3-1.73l12.5-6.34a7.64,7.64,0,0,0,3.46-3.26l.89-1.64a7.54,7.54,0,0,0,.93-3.63V216.88a1.6,1.6,0,0,0-3.19-.2l-2.32,18.43"/><path class="cls-5" d="M349.47,215.28v-7.82a1.4,1.4,0,0,0-.06-.41,1.6,1.6,0,0,0-1.54-1.19h-.22a1.6,1.6,0,0,0-1.57,1.26l-6.69,23.19a2.73,2.73,0,0,0-.07.64v16.33a7.67,7.67,0,0,1-1,3.77,11.52,11.52,0,0,1-2.08,2.46,10,10,0,0,1-2.63,1.84c-4,1.64-12.22,5-20,7.6A77.23,77.23,0,0,1,300,266.6l-1,.12c-9.32,1.17-12.27,2.49-12.27,2.49"/><polyline class="cls-5" points="298.98 266.6 308.83 241.16 308.83 241.15"/></svg>