<svg id="Layer_1" data-name="Layer 1" xmlns="http://www.w3.org/2000/svg" viewBox="0 0 700 700"><defs><style>.cls-1{fill:#392328;}.cls-2{fill:#feae63;}.cls-3{fill:#c4e7f9;}.cls-4{fill:#99abcc;}.cls-5{fill:none;stroke:#000;stroke-linecap:round;stroke-linejoin:round;stroke-width:2.3px;}</style></defs><title>Yoga_poses_2020_color</title><path class="cls-1" d="M456.2,442.8c5.15-.07,12.83,6,9.71,13.13s-9.39,5.46-9.39,5.46l-.63.29c-.37-.83-.79-1.67-1.25-2.53a20.26,20.26,0,0,0-3.14-3.75l.08-.08C445.8,448.09,452.52,442.85,456.2,442.8Z"/><path class="cls-1" d="M455.89,461.68c6.56,14.44,1.21,25.06-7.21,37.41l-1.45.16s-5.51-9.26-6.6-11.39c-2.16-4.23-5.78-4-9.55-6.67s-4.93-6.76-4.5-9.16c0,0,4.34-4.46-1.51-6.12a8.77,8.77,0,0,0-2,.12l0-.15s-1.78-5.06-6.29-5c-3.75-1-3.91-3-3.06-4.85a12.88,12.88,0,0,1,3-3.69,25.51,25.51,0,0,1,19.05-4.64,28.59,28.59,0,0,1,15.71,7.73,20.26,20.26,0,0,1,3.14,3.75C455.1,460,455.52,460.85,455.89,461.68Z"/><path class="cls-2" d="M423.1,466a8.77,8.77,0,0,1,2-.12c5.85,1.66,1.51,6.12,1.51,6.12-.43,2.4.72,6.48,4.5,9.16s7.39,2.44,9.55,6.67c1.09,2.13,6.6,11.39,6.6,11.39l-1.9.2s-8.75,3-14.32,2.31c-4.38-.52-5-2-7.9-.23l-5.82,2.12-.57-5.3-10.24-2.05c-.93.28-8.19,1.14-5.22-9.82,0,0,.74-5.17-.61-7a15.08,15.08,0,0,1-4.34-3.72c9.44-12.77,13.94-12.64,17.2-19.88l.21.1c-.85,1.81-.69,3.82,3.06,4.85,4.51,0,6.29,5,6.29,5Zm6.48,30.33c.1-.64-1-1.35-2.46-1.6s-2.74.06-2.85.7,1,1.35,2.46,1.6S429.47,497,429.58,496.36Z"/><path d="M427.12,494.76c1.46.25,2.56,1,2.46,1.6s-1.39.95-2.85.7-2.57-1-2.46-1.6S425.65,494.51,427.12,494.76Z"/><path class="cls-2" d="M379.5,462.1s-2.82-2.22-6.63-4.91h0s1.11-28.25,26.33-33.66c0,0,12,3.3,17.31,19.28a41,41,0,0,1-1.64,9.39c-.11.37-.22.71-.32,1s-.26.74-.38,1.08c0,0,0,.07,0,.11l-.15.37c-.12.31-.19.47-.19.47-.09.23-.19.45-.29.66-3.26,7.24-7.76,7.11-17.2,19.88q-1.28,1.73-2.69,3.8c-10.87,16-15.9,26.9-17.82,31.58a5.66,5.66,0,0,0,.32,4.93c4.13,7.3,16.93,29.71,22.71,37.12,6.95,8.91,8.91,10.43,14.77,20.63a18.67,18.67,0,0,0,5.85,6.36,17.88,17.88,0,0,0,5.55,2.44,18.22,18.22,0,0,0,3.49.54,1.5,1.5,0,0,1,.26,3c-8.53,1.55-17.32-7.6-17.32-7.6,0,1.37,3.83,6.23,5.6,8a1.4,1.4,0,0,1,.42,1,1.42,1.42,0,0,1-1.37,1.43,1.36,1.36,0,0,1-.83-.21c-4.64-2.94-9-9.28-9-9.28-1.58,2.44-1.07,6.48-.55,9a1.69,1.69,0,0,1,0,.38,1.75,1.75,0,0,1-1.75,1.75,1.78,1.78,0,0,1-1.56-.93c-1.73-3.29-1.75-7.61-1.59-10a2.61,2.61,0,0,0-1.58-2.57l0,0-1.07-.43a8.94,8.94,0,0,1-5.51-7.17,51.2,51.2,0,0,1-.29-7.73L380.37,550.6c-10.39-8.83-21.89-23.33-26.12-28.84a6.68,6.68,0,0,1-1.33-4.92l.85-6.53C354.74,502.82,372.66,472.52,379.5,462.1Z"/><path class="cls-2" d="M409.15,418.12a37,37,0,0,1,7.37,24.68c-5.35-16-17.31-19.28-17.31-19.28l6.9-9.47Z"/><path class="cls-3" d="M406.11,414.05l-6.9,9.47c-25.22,5.41-26.33,33.66-26.33,33.66h0a100.25,100.25,0,0,0-11.94-7.47c-7.82-3.91-10.74-12.7-12.7-19.88a140.35,140.35,0,0,0-7-20.17,74.71,74.71,0,0,0-11.54-18.6,29.33,29.33,0,0,1-2.53-3.5s8-16.27,18.52-25,12.43-4.7,20.2-11.84c.21.94.4,1.9.57,2.87,2.42,13.68,15,28,15,28S393.7,397.49,406.11,414.05Z"/><path class="cls-2" d="M399.19,577l0,0a13.61,13.61,0,0,1-1.72,5.23,4.91,4.91,0,0,1-4.17,2.24h-2.2a1.64,1.64,0,0,1-.81-3.06,8.85,8.85,0,0,0,4.73-6.1l.53-.32a8.86,8.86,0,0,0,2.53,1.56Z"/><path class="cls-2" d="M370.29,571.68a1.56,1.56,0,0,1,1.28,1.54,3.42,3.42,0,0,1-3.53,3.41l-6-.18a39,39,0,0,1-9.14,0,133.52,133.52,0,0,0-19.1-1.11c-2.33.08-7.6,1.09-11.48,1.07a7.92,7.92,0,0,1-7.86-8.36h0a8.59,8.59,0,0,1,.71-2.86c2.35-5.56,1.75-17.39,1.48-21.27a44.26,44.26,0,0,0,18.78-.74c1.9,10.59,7.21,16.09,14.44,20.9S366.86,571.06,370.29,571.68Z"/><path class="cls-4" d="M327.18,387.57a29.33,29.33,0,0,0,2.53,3.5,74.71,74.71,0,0,1,11.54,18.6c.78,12.65,1.86,43-2.7,56.23s-3.91,50.6-3.91,67.76a53,53,0,0,0,.77,9.51,44.26,44.26,0,0,1-18.78.74c-.06-.8-.1-1.26-.1-1.26-5.21-31.71-7.95-43.3-4.91-67.84s.43-18-8.25-69.73,3.75-64.8,3.75-64.8c-3.35-11.49-8.59-29.43-12.54-42.92-6.3-21.51-11.73-28.89-11.94-36.49S281.12,235,281.12,235c-.87-17.59-2.9-16.13-9.34-34.53-4.45-12.7-6.27-18.94-8.28-24.46,0,0,3-5.76,14.36-5.73,22.8,33.23,24.11,36.7,26.06,61.46s13.95,34.63,21.77,51.57,20,31,20,31c8.07,8.6,16.72,20.79,20.2,36.4-7.77,7.14-9.68,3.12-20.2,11.84S327.18,387.57,327.18,387.57Z"/><path class="cls-2" d="M277.86,170.3c-11.35,0-14.36,5.73-14.36,5.73a139.26,139.26,0,0,0-8.45-18.33c-9.34-17.81-8.47-24.54-13.68-33s-12-15.64,0-14.77,21.94,19.33,29.24,26.06,4.21,6.73.73,14.12S277.86,170.3,277.86,170.3Z"/><path class="cls-5" d="M414.18,454.29c.12-.34.25-.7.38-1.08"/><path class="cls-5" d="M414,454.77l.15-.37"/><path class="cls-5" d="M382.76,445.48s3.59,6.19-3.26,16.62-24.76,40.72-25.73,48.21l-.85,6.53a6.68,6.68,0,0,0,1.33,4.92c4.23,5.51,15.73,20,26.12,28.84l11.95,11.08a51.2,51.2,0,0,0,.29,7.73,8.94,8.94,0,0,0,5.51,7.17l1.07.43,0,0a2.61,2.61,0,0,1,1.58,2.57c-.16,2.43-.14,6.75,1.59,10a1.78,1.78,0,0,0,1.56.93,1.75,1.75,0,0,0,1.75-1.75,1.69,1.69,0,0,0,0-.38c-.52-2.47-1-6.51.55-9,0,0,4.39,6.34,9,9.28a1.36,1.36,0,0,0,.83.21,1.42,1.42,0,0,0,1.37-1.43,1.4,1.4,0,0,0-.42-1c-1.77-1.78-5.6-6.64-5.6-8,0,0,8.79,9.15,17.32,7.6a1.5,1.5,0,0,0-.26-3,18.22,18.22,0,0,1-3.49-.54,17.88,17.88,0,0,1-5.55-2.44,18.67,18.67,0,0,1-5.85-6.36c-5.86-10.2-7.82-11.72-14.77-20.63-5.78-7.41-18.58-29.82-22.71-37.12a5.66,5.66,0,0,1-.32-4.93c1.92-4.68,6.95-15.54,17.82-31.58q1.41-2.07,2.69-3.8c9.44-12.77,13.94-12.64,17.2-19.88.1-.21.2-.43.29-.66"/><path class="cls-5" d="M425,582.64a2.09,2.09,0,0,0,0-2.45,7,7,0,0,1-5.54,0"/><path class="cls-5" d="M395.06,575.34a8.85,8.85,0,0,1-4.73,6.1,1.64,1.64,0,0,0,.81,3.06h2.2a4.91,4.91,0,0,0,4.17-2.24,13.61,13.61,0,0,0,1.72-5.23"/><path class="cls-5" d="M379.5,462.1s-2.82-2.22-6.63-4.91a100.25,100.25,0,0,0-11.94-7.47c-7.82-3.91-10.74-12.7-12.7-19.88a140.35,140.35,0,0,0-7-20.17,74.71,74.71,0,0,0-11.54-18.6,29.33,29.33,0,0,1-2.53-3.5c-5.53-8.85-8.27-21.58-8.27-21.58"/><path class="cls-5" d="M413.8,455.24s.07-.16.19-.47a3.52,3.52,0,0,0,.15-.37s0-.07,0-.11c.11-.29.24-.66.38-1.08s.21-.65.32-1a41,41,0,0,0,1.64-9.39,37,37,0,0,0-7.37-24.68l-3-4.07c-12.41-16.56-24.65-32.42-24.65-32.42s-12.57-14.34-15-28c-.17-1-.36-1.93-.57-2.87-3.48-15.61-12.13-27.8-20.2-36.4,0,0-12.19-14.06-20-31s-19.81-26.81-21.77-51.57-3.26-28.23-26.06-61.46c0,0-10-12.82-6.52-20.2s6.57-7.39-.73-14.12-17.3-25.19-29.24-26.06-5.21,6.3,0,14.77,4.34,15.2,13.68,33A139.26,139.26,0,0,1,263.5,176c2,5.52,3.83,11.76,8.28,24.46,6.44,18.4,8.47,16.94,9.34,34.53,0,0,1.3,18.25,1.52,25.85s5.64,15,11.94,36.49c3.95,13.49,9.19,31.43,12.54,42.92l3.32,11.37"/><path class="cls-5" d="M426.58,472s4.34-4.46-1.51-6.12a8.77,8.77,0,0,0-2,.12,8.29,8.29,0,0,0-6.29,4.53s-1,3.18,2.88,1.91"/><path class="cls-5" d="M412,472.39s-5.54.12-7,4.83"/><path class="cls-5" d="M447.23,499.25s-5.51-9.26-6.6-11.39c-2.16-4.23-5.78-4-9.55-6.67s-4.93-6.76-4.5-9.16"/><path class="cls-5" d="M456.52,461.39s6.27,1.71,9.39-5.46-4.56-13.2-9.71-13.13c-3.68.05-10.4,5.29-4.62,12.52"/><path class="cls-5" d="M396.31,475.78a15.08,15.08,0,0,0,4.34,3.72c1.35,1.81.61,7,.61,7-3,11,4.29,10.1,5.22,9.82l10.24,2.05.57,5.3,5.82-2.12c2.94-1.73,3.52-.29,7.9.23,5.57.66,14.32-2.31,14.32-2.31l1.9-.2,1.45-.16c8.42-12.35,13.77-23,7.21-37.41-.37-.83-.79-1.67-1.25-2.53a20.26,20.26,0,0,0-3.14-3.75,28.59,28.59,0,0,0-15.71-7.73,25.51,25.51,0,0,0-19.05,4.64,12.88,12.88,0,0,0-3,3.69c-.85,1.81-.69,3.82,3.06,4.85"/><path class="cls-5" d="M423.07,465.88s-1.78-5.06-6.29-5"/><path class="cls-5" d="M307.12,340.28s-12.44,13.11-3.75,64.8,11.29,45.19,8.25,69.73-.3,36.13,4.91,67.84c0,0,0,.46.1,1.26.27,3.88.87,15.71-1.48,21.27a8.59,8.59,0,0,0-.71,2.86h0a7.92,7.92,0,0,0,7.86,8.36c3.88,0,9.15-1,11.48-1.07a133.52,133.52,0,0,1,19.1,1.11,39,39,0,0,0,9.14,0l6,.18a3.42,3.42,0,0,0,3.53-3.41,1.56,1.56,0,0,0-1.28-1.54c-3.43-.62-13.07-2.7-20.44-7.61s-12.54-10.31-14.44-20.9a53,53,0,0,1-.77-9.51c0-17.16-.65-54.52,3.91-67.76s3.48-43.58,2.7-56.23"/><path class="cls-5" d="M316.63,543.91a44.26,44.26,0,0,0,18.78-.74"/><path class="cls-5" d="M372.88,457.18s1.11-28.25,26.33-33.66c0,0,12,3.3,17.31,19.28"/><polyline class="cls-5" points="399.21 423.52 406.11 414.05 406.11 414.04"/><path class="cls-5" d="M327.18,387.57s8-16.27,18.52-25,12.43-4.7,20.2-11.84"/><path class="cls-5" d="M263.5,176s3-5.76,14.36-5.73"/></svg>