<svg id="Layer_1" data-name="Layer 1" xmlns="http://www.w3.org/2000/svg" viewBox="0 0 700 700"><defs><style>.cls-1{fill:#99abcc;}.cls-2{fill:#c4e7f9;}.cls-3{fill:#feae63;}.cls-4{fill:#120c0c;}.cls-5{fill:none;stroke:#000;stroke-linecap:round;stroke-linejoin:round;stroke-width:2.3px;}</style></defs><title>Yoga_poses_2020_color</title><path class="cls-1" d="M408.15,402.16a9.72,9.72,0,0,1,1.52,3.26c2.16,8.56.69,19.57-.22,32-1,13.36,2,24.43,2,37.14s0,12.7-2.81,25.08.87,24.09-1.08,38.75-.11,40.7-.11,40.7c-9.58,3.86-15.41,2-15.41,2l-.33,0c-2.4-15-8.71-38.27-10.89-47.93-2.93-13,2.69-39.31,2.69-39.31,2-27.5-11.13-62.46-13.39-80.27s-.15-44.95.6-52.44c.25-2.51,1.74-6.45,3.47-11.88h0c45.44,7.67,78.52.7,78.52.7,1.84,7.05,3.73,11.93,4,14.77.75,7.48-.3,31.14-2.54,48.85s-15.39,52.77-13.39,80.27c0,0,4.62,26.28,1.69,39.31-2.18,9.66-8.49,32.91-10.9,47.93l-.32,0s-5.83,1.87-15.41-2c0,0,1.84-25-.11-39.7s2.72-27.37-.08-39.75-2.81-12.38-2.81-25.08,2.93-23.78,2-37.14c-.91-12.43-2.38-23.44-.23-32a10.12,10.12,0,0,1,1.52-3.26A15,15,0,0,1,408.15,402.16Z"/><path class="cls-2" d="M448.62,272.86c1.29,7.37,1.79,19.93.67,40.32A111.24,111.24,0,0,0,452.68,350s-33.08,7-78.52-.7h0a115.86,115.86,0,0,0,6-36.12s.11-4.77-6-12.92a124.61,124.61,0,0,1-11.44-17.94c1.14-6.52,9.88-17.08,13.71-25.88,0,0,26.72,7.89,46.7-14.7,0,0,12.92,7.17,21.21,13.32l.67-.16C447,263.56,448.62,272.86,448.62,272.86Z"/><path class="cls-3" d="M445,254.9l-.67.16c-8.29-6.15-21.21-13.32-21.21-13.32L407.4,230.13h0a30.54,30.54,0,0,1-3.85-12.28c-.82-7.61-4.34-18.85-6.72-21.35,0,0-1.33-1.89-3.22-4.69,0,0,0,0,0,0-1.84-2.73-4.22-6.31-6.43-9.87a81.6,81.6,0,0,1-5.93-10.83,31.57,31.57,0,0,0-1.56-3.4c-2.43-4.59-4.94-6.26-7.13-9s-21.63-30.21-27.82-39a7.64,7.64,0,0,0-5.14-3.15,7.64,7.64,0,0,1-4-1.89l-2.43-2.18L332.37,102a8.89,8.89,0,0,0-.89-3.24l-3.08-6.23a9.25,9.25,0,0,1-.62-1.69l-2.49-9.58-.56-3a1.28,1.28,0,0,1,.83-1.44,1.23,1.23,0,0,1,.42-.07,1.27,1.27,0,0,1,1.18.78c1.39,3.35,5.71,13.36,8.77,16.59,3.34,3.54,6.77,6.37,10.37,10.09a19.83,19.83,0,0,0,2.48,2.19l.45.33a18.93,18.93,0,0,1,3.88,3.86,121.45,121.45,0,0,0,13.23,15c8.69,8.25,24.11,27.8,25.52,29.53s1.12,3.05,3.6,5.65,25,31.39,34.41,49.85c0,0,5.1,8.14,6.08,15s2.06,10.32,5,15.43C442.14,243.17,443.65,248.88,445,254.9Z"/><path class="cls-3" d="M434.32,616.87a5.15,5.15,0,0,0,.1.51c.14,1,.21,2.86-1.56,3a2.27,2.27,0,0,1-2.43-2.13c.06.72,0,2.8-2,2.88-2.5.09-2.71-3.12-2.71-3.12-.5,3.1-2.09,3.11-2.11,3.11-2.17,0-2.85-1.53-3-2.9a10.67,10.67,0,0,0,0-2.06,7.27,7.27,0,0,0,0,2.06c-.26,1.85-1.38,2.9-4.9,2.9-2.42,0-3-1.62-3-3.51a39.27,39.27,0,0,1,.65-4.89c.28-2.44.4-5.68.4-15.33s0-8.51,2.14-18.26c9.58,3.86,15.41,2,15.41,2l.32,0c-.84,5.25-1.21,9.49-.75,11.8,1,4.94,1.93,7.45,2.72,12.78s4.07,7.67,4.2,9.77,0,4-1.57,4.33c-1,.21-1.52-1.52-1.73-2.43A4.92,4.92,0,0,0,434.32,616.87Z"/><path class="cls-3" d="M407.4,230.13l15.73,11.61c-20,22.59-46.7,14.7-46.7,14.7,2-6.83,2.24-13.33,0-19.35.47-3.83-2-7.18-4.76-13,3.28,1.2,8.1,1.53,14.64-1.47a22.85,22.85,0,0,0,7.7-5.91l.89.07c2.33,6,5.52,11.35,9.83,11.8l.23-.3,2.43,1.79Z"/><path class="cls-3" d="M392.81,618.07a.67.67,0,0,0,0-.1A.45.45,0,0,0,392.81,618.07Zm-3.91-1.2c0,.07-.06.26-.1.51-.21.91-.74,2.64-1.72,2.43-1.56-.33-1.7-2.23-1.57-4.33s3.41-4.45,4.2-9.77,1.74-7.84,2.71-12.78c.46-2.31.09-6.55-.75-11.8l.33,0s5.83,1.87,15.41-2c2.14,9.75,2.14,8.62,2.14,18.26s.12,12.89.39,15.33a39.34,39.34,0,0,1,.66,4.89c0,1.9-.62,3.51-3,3.51-3.52,0-4.64-1.05-4.9-2.9a7.27,7.27,0,0,0,0-2.06,10.67,10.67,0,0,0,0,2.06c-.16,1.37-.84,2.91-3,2.9,0,0-1.62,0-2.11-3.11,0,0-.22,3.21-2.71,3.12-2-.08-2.09-2.12-2-2.85a2.25,2.25,0,0,1-2.42,2.1c-1.77-.1-1.71-2-1.57-3A5.15,5.15,0,0,0,388.9,616.87Zm3.89,1.35a.34.34,0,0,0,0-.09A.28.28,0,0,1,392.79,618.22Z"/><path class="cls-3" d="M396.67,206.67A11.87,11.87,0,0,1,394,216.76a22.85,22.85,0,0,1-7.7,5.91c-6.54,3-11.36,2.67-14.64,1.47a12.09,12.09,0,0,1-5.47-3.86c-2.27-2.83-7.2-8.3-8.35-10.66l-3.76-6.52-.12,0c-.11-.4-.21-.79-.32-1.17a.27.27,0,0,0,0-.12c-1-4.59-1.91-16.41,13.48-23.23,0,0,12.68-4.18,20.06,3.3,2.21,3.56,4.59,7.14,6.43,9.87,0,0,0,0,0,0C394.89,195.72,396.13,204,396.67,206.67Zm-13-10.54a2.32,2.32,0,0,0-1.86-4.2,2.32,2.32,0,0,0,1.86,4.2Zm-16.71,7a2.32,2.32,0,1,0-2.74-1.29A2.15,2.15,0,0,0,367,203.13Z"/><path d="M384.57,193.22a2,2,0,1,1-3.62,1.61,2,2,0,1,1,3.62-1.61Z"/><path class="cls-4" d="M381.23,171.08a81.6,81.6,0,0,0,5.93,10.83c-7.38-7.48-20.06-3.3-20.06-3.3-15.39,6.82-14.5,18.64-13.48,23.23L351,191.78s-2.08-5.79-3.71-11l1-.3a21.25,21.25,0,0,1,4.65-6.48c7.4-7.15,18.26-8.22,18.7-8.26h0c4.35-.15,5.61.76,8.09,1.92A31.57,31.57,0,0,1,381.23,171.08Z"/><path class="cls-3" d="M322.6,81a1.45,1.45,0,0,1,1.06-.79l.22,0a1.44,1.44,0,0,1,1.41,1.09l2.49,9.58a9.25,9.25,0,0,0,.62,1.69l3.08,6.23a8.89,8.89,0,0,1,.89,3.24l.77,10.42a8.8,8.8,0,0,1-.9,4.6s.32,2.22,1.06,5.79,1.87,8.49,3.5,13.86a162,162,0,0,1,5.48,25.61,26.74,26.74,0,0,0,2,7.39,15,15,0,0,1,1.1,4,53.21,53.21,0,0,0,1.87,7.1c1.63,5.19,3.71,11,3.71,11l2.65,10.06a.27.27,0,0,1,0,.12c.11.48.22.87.32,1.17a.83.83,0,0,0,0,.15c2.37,8.93,5.32,19.95,5.73,20.86.7,1.53,5.42,6.38,8.35,8.74s8.34,4.21,8.34,4.21c2.24,6,2,12.52,0,19.35-3.83,8.8-12.57,19.36-13.71,25.88a74.49,74.49,0,0,1-5.07-12.47c-3.58-11.94-12.71-10.73-16.29-28.11s-6.84-29.77-8.47-48-5.21-23.79-6.19-28.67-2.46-29.37-3.11-37.84l-1.45-10.71-3.91-17.59-2-15V74.51a1.34,1.34,0,0,1,1.33-1.33,1.32,1.32,0,0,1,1.32,1.32v.63a.89.89,0,0,0,0,.23v-.23a1.37,1.37,0,0,1,1.38-1.29,1.36,1.36,0,0,1,1,.43,1.37,1.37,0,0,1,.37.74l.92,6Z"/><path class="cls-4" d="M371.54,165.44l0,.32c-.44,0-11.3,1.11-18.7,8.26l-.3-.32c-2.13-4.91.38-10.74,5.61-13S369.4,160.52,371.54,165.44Z"/><path d="M367.86,200.23a2,2,0,1,1-2.74-1.29A2.15,2.15,0,0,1,367.86,200.23Z"/><path class="cls-3" d="M325.07,74.4l.49,2.44a1.28,1.28,0,0,0-.83,1.44l.56,3a1.44,1.44,0,0,0-1.41-1.09l-.22,0a1.45,1.45,0,0,0-1.06.79h0l-.92-6a1.37,1.37,0,0,0-.37-.74l.32-.61a1.9,1.9,0,0,1,1.26-.77h0A1.9,1.9,0,0,1,325.07,74.4Z"/><path class="cls-5" d="M388.91,616.84v0a5.15,5.15,0,0,1-.1.51c-.21.91-.74,2.64-1.72,2.43-1.56-.33-1.7-2.23-1.57-4.33s3.41-4.45,4.2-9.77,1.74-7.84,2.71-12.78c.46-2.31.09-6.55-.75-11.8-2.4-15-8.71-38.27-10.89-47.93-2.93-13,2.69-39.31,2.69-39.31,2-27.5-11.13-62.46-13.39-80.27s-.15-44.95.6-52.44c.25-2.51,1.74-6.45,3.47-11.88a115.86,115.86,0,0,0,6-36.12s.11-4.77-6-12.92a124.61,124.61,0,0,1-11.44-17.94,74.49,74.49,0,0,1-5.07-12.47c-3.58-11.94-12.71-10.73-16.29-28.11s-6.84-29.77-8.47-48-5.21-23.79-6.19-28.67-2.46-29.37-3.11-37.84l-1.45-10.71-3.91-17.59-2-15V74.51a1.34,1.34,0,0,1,1.33-1.33,1.32,1.32,0,0,1,1.32,1.32v.86"/><path class="cls-5" d="M392.79,618.24a2.25,2.25,0,0,1-2.42,2.1c-1.77-.1-1.71-2-1.57-3,0-.25.09-.44.1-.51"/><path class="cls-5" d="M392.8,618.13a.34.34,0,0,1,0,.09"/><path class="cls-5" d="M392.81,618.07a.45.45,0,0,1,0-.1A.67.67,0,0,1,392.81,618.07Z"/><path class="cls-5" d="M392.81,618.07a.13.13,0,0,1,0,.06"/><path class="cls-5" d="M392.79,618.22a.28.28,0,0,0,0-.09"/><path class="cls-5" d="M392.79,618.22v0"/><path class="cls-5" d="M402.66,618.18c-.16,1.37-.84,2.91-3,2.9,0,0-1.62,0-2.11-3.11,0,0-.22,3.21-2.71,3.12-2-.08-2.09-2.12-2-2.85"/><path class="cls-5" d="M402.66,618.18a10.67,10.67,0,0,1,0-2.06A7.27,7.27,0,0,1,402.66,618.18Z"/><path class="cls-5" d="M405.22,398l2.93,4.16a9.72,9.72,0,0,1,1.52,3.26c2.16,8.56.69,19.57-.22,32-1,13.36,2,24.43,2,37.14s0,12.7-2.81,25.08.87,24.09-1.08,38.75-.11,40.7-.11,40.7c2.14,9.75,2.14,8.62,2.14,18.26s.12,12.89.39,15.33a39.34,39.34,0,0,1,.66,4.89c0,1.9-.62,3.51-3,3.51-3.52,0-4.64-1.05-4.9-2.9"/><path class="cls-5" d="M394.9,216.83c2.33,6,5.52,11.35,9.83,11.8"/><path class="cls-5" d="M452.68,350s-33.08,7-78.52-.7"/><path class="cls-5" d="M352.57,173.7c-2.13-4.91.38-10.74,5.61-13s11.22-.16,13.36,4.76"/><path class="cls-5" d="M353.62,201.84c-1-4.59-1.91-16.41,13.48-23.23,0,0,12.68-4.18,20.06,3.3"/><path class="cls-5" d="M354,203.13c-.1-.3-.21-.69-.32-1.17"/><path class="cls-5" d="M354.17,203.75s-.07-.17-.16-.47"/><path class="cls-5" d="M379.67,167.68c-2.48-1.16-3.74-2.07-8.09-1.92h0c-.44,0-11.3,1.11-18.7,8.26a21.25,21.25,0,0,0-4.65,6.48"/><path class="cls-5" d="M356.74,212.17a8.52,8.52,0,0,0,1.64,1.06s2,.59-.12-2.45"/><path class="cls-5" d="M354.09,203.1l3.76,6.52c1.15,2.36,6.08,7.83,8.35,10.66a12.09,12.09,0,0,0,5.47,3.86c3.28,1.2,8.1,1.53,14.64-1.47a22.85,22.85,0,0,0,7.7-5.91,11.87,11.87,0,0,0,2.66-10.09c-.54-2.7-1.78-10.95-3.07-14.87"/><path class="cls-5" d="M379,204.07a4.3,4.3,0,0,1-4.12,1.66"/><polyline class="cls-5" points="375.75 213.56 376.77 213.54 379.13 211.56 380.42 211.74 381.29 210.65 384.1 210.46 384.79 209.91"/><line class="cls-5" x1="381.23" y1="216.56" x2="383.59" y2="215.57"/><path class="cls-5" d="M376.43,256.44c-3.83,8.8-12.57,19.36-13.71,25.88h0"/><path class="cls-5" d="M376.43,237.09c2.24,6,2,12.52,0,19.35,0,0,26.72,7.89,46.7-14.7"/><path class="cls-5" d="M407.4,230.13l15.73,11.61s12.92,7.17,21.21,13.32"/><polyline class="cls-5" points="403.54 227.28 404.96 228.32 404.96 228.33 407.39 230.12"/><path class="cls-5" d="M392,581.08s5.83,1.87,15.41-2"/><path class="cls-5" d="M431.23,581.08s-5.83,1.87-15.41-2"/><path class="cls-5" d="M408.15,402.16a15,15,0,0,0,7.92,0"/><path class="cls-5" d="M320.62,92.62l-1.7-17.26a.89.89,0,0,1,0-.23,1.37,1.37,0,0,1,1.38-1.29,1.36,1.36,0,0,1,1,.43,1.37,1.37,0,0,1,.37.74l.92,6"/><path class="cls-5" d="M324,92.62l-1.54-10.75a1.37,1.37,0,0,1,.15-.85,1.45,1.45,0,0,1,1.06-.79l.22,0a1.44,1.44,0,0,1,1.41,1.09l2.49,9.58a9.25,9.25,0,0,0,.62,1.69l3.08,6.23a8.89,8.89,0,0,1,.89,3.24l.77,10.42a8.8,8.8,0,0,1-.9,4.6s.32,2.22,1.06,5.79,1.87,8.49,3.5,13.86a162,162,0,0,1,5.48,25.61,26.74,26.74,0,0,0,2,7.39,15,15,0,0,1,1.1,4,53.21,53.21,0,0,0,1.87,7.1c1.63,5.19,3.71,11,3.71,11l2.65,10.06a.27.27,0,0,1,0,.12c.11.38.21.77.32,1.17a.83.83,0,0,0,0,.15c2.37,8.93,5.32,19.95,5.73,20.86.7,1.53,5.42,6.38,8.35,8.74s8.34,4.21,8.34,4.21c.47-3.83-2-7.18-4.76-13"/><path class="cls-5" d="M420.57,618.18c-.26,1.85-1.38,2.9-4.9,2.9-2.42,0-3-1.62-3-3.51a39.27,39.27,0,0,1,.65-4.89c.28-2.44.4-5.68.4-15.33s0-8.51,2.14-18.26c0,0,1.84-25-.11-39.7s2.72-27.37-.08-39.75-2.81-12.38-2.81-25.08,2.93-23.78,2-37.14c-.91-12.43-2.38-23.44-.23-32a10.12,10.12,0,0,1,1.52-3.26L419,398"/><path class="cls-5" d="M420.57,618.18a7.27,7.27,0,0,1,0-2.06A10.67,10.67,0,0,1,420.57,618.18Z"/><path class="cls-5" d="M430.41,618s0,.08,0,.22v0c.06.72,0,2.8-2,2.88-2.5.09-2.71-3.12-2.71-3.12-.5,3.1-2.09,3.11-2.11,3.11-2.17,0-2.85-1.53-3-2.9"/><path class="cls-5" d="M434.32,616.87a4.92,4.92,0,0,1,.1.51c.14,1,.21,2.86-1.56,3a2.27,2.27,0,0,1-2.43-2.13"/><path class="cls-5" d="M325.29,81.3l-.56-3a1.28,1.28,0,0,1,.83-1.44,1.23,1.23,0,0,1,.42-.07,1.27,1.27,0,0,1,1.18.78c1.39,3.35,5.71,13.36,8.77,16.59,3.34,3.54,6.77,6.37,10.37,10.09a19.83,19.83,0,0,0,2.48,2.19l.45.33a18.93,18.93,0,0,1,3.88,3.86,121.45,121.45,0,0,0,13.23,15c8.69,8.25,24.11,27.8,25.52,29.53s1.12,3.05,3.6,5.65,25,31.39,34.41,49.85c0,0,5.1,8.14,6.08,15s2.06,10.32,5,15.43c1.2,2.09,2.71,7.8,4.07,13.82,2,8.66,3.61,18,3.61,18,1.29,7.37,1.79,19.93.67,40.32A111.24,111.24,0,0,0,452.68,350c1.84,7.05,3.73,11.93,4,14.77.75,7.48-.3,31.14-2.54,48.85s-15.39,52.77-13.39,80.27c0,0,4.62,26.28,1.69,39.31-2.18,9.66-8.49,32.91-10.9,47.93-.84,5.25-1.21,9.49-.75,11.8,1,4.94,1.93,7.45,2.72,12.78s4.07,7.67,4.2,9.77,0,4-1.57,4.33c-1,.21-1.52-1.52-1.73-2.43a5.15,5.15,0,0,1-.1-.51v0"/><path class="cls-5" d="M357.32,238.69s7,11.89,8.73,16.37"/><path class="cls-5" d="M419.62,220.07c1.24,5.71,5.87,13,10,17"/><path class="cls-5" d="M407.4,230.13h0a30.54,30.54,0,0,1-3.85-12.28c-.82-7.61-4.34-18.85-6.72-21.35,0,0-1.33-1.89-3.22-4.69,0,0,0,0,0,0-1.84-2.73-4.22-6.31-6.43-9.87a81.6,81.6,0,0,1-5.93-10.83,31.57,31.57,0,0,0-1.56-3.4c-2.43-4.59-4.94-6.26-7.13-9s-21.63-30.21-27.82-39a7.64,7.64,0,0,0-5.14-3.15,7.64,7.64,0,0,1-4-1.89l-2.43-2.18"/><path class="cls-5" d="M325.56,76.84l-.49-2.44a1.9,1.9,0,0,0-2.16-1.51h0a1.9,1.9,0,0,0-1.26.77l-.32.61"/></svg>