<svg id="Layer_1" data-name="Layer 1" xmlns="http://www.w3.org/2000/svg" viewBox="0 0 700 700"><defs><style>.cls-1{fill:#feae63;}.cls-2{fill:#99abcc;}.cls-3{fill:#c4e7f9;}.cls-4{fill:#392328;}.cls-5{fill:none;stroke:#000;stroke-linecap:round;stroke-linejoin:round;stroke-width:2.22px;}</style></defs><title>Yoga_poses_2020_color</title><path class="cls-1" d="M536.92,385.06c0,.11,0,.22,0,.33a3.2,3.2,0,0,1-3.69,2.83c-1.88-.3-4-.76-6.39-1.23l.53-2.62a7.11,7.11,0,0,0,4.91-.91l1.23-.73a2.25,2.25,0,0,0,.82-.86l.52.19A3.2,3.2,0,0,1,536.92,385.06Z"/><path class="cls-1" d="M531.64,396.15a5.2,5.2,0,0,1-4.47,1.42l-5.41-.88c-10.43-1.3-24.33,2.17-35.62,2.3s-14.77-2.3-23.46-2.74c-1.38-.07-4.25,0-8.13.14a70.67,70.67,0,0,0,0-17.18l4.09.56a39.87,39.87,0,0,0,6,.39c2.9,0,7.35-.14,11.7-.6,11.95,3.14,24.67,6.28,33.71,5.73,5.94-.36,11.74.67,16.67,1.67h0L534,390.4a3.09,3.09,0,0,1,1.71,2.77,3.06,3.06,0,0,1-.19,1.07A3.11,3.11,0,0,1,531.64,396.15Z"/><path class="cls-1" d="M530.36,379.11a2,2,0,0,0,.48-.18l.72-.26a2.26,2.26,0,0,1,1.93,4.06l-1.23.73a7.11,7.11,0,0,1-4.91.91l-.53,2.62-.1,0h0c-4.93-1-10.73-2-16.67-1.67-9,.55-21.76-2.59-33.71-5.73l-6.69-1.77a38.14,38.14,0,0,0-4.07-.8A51.5,51.5,0,0,0,468,360.42a85.54,85.54,0,0,0,10.73.87c6,.07,5.9-.91,11.5.59a22,22,0,0,0,6.95.72c3.25-.18,8.1-.47,12.54-.8a22.13,22.13,0,0,1,11.82,2.43,7.72,7.72,0,0,0,2.13.75,5,5,0,0,1,3.82,3.48l.11.37.07.71.26,0a2.1,2.1,0,0,1,2.26,1.58,2.4,2.4,0,0,1,.07.52,2.12,2.12,0,0,1-2.11,2.11l2,.34a2.56,2.56,0,0,1,1.54.88,2.61,2.61,0,0,1,.61,1.67,2.58,2.58,0,0,1-1.45,2.32Z"/><path class="cls-2" d="M388.35,340.69c14.87,2.57,39.82,8.28,71.18,18.21,0,0,3.57.84,8.49,1.52A51.5,51.5,0,0,1,465.56,377c-8.72-1.28-22.3-1.21-35.46-1.3-10.75-.07-21.21-.25-28.56-1.37-17.92-2.72-25.41-5-39.75-7.6s-18.89-2-21.5-6.21a25,25,0,0,1-2-6.22c-8.8,4.21-7.69,14.6-7.69,14.6l-4.78-3.65a12.36,12.36,0,0,0-2.64-1.72c2.79-20.13.9-51.86.9-51.86-.65-10.09,5.1-18.9,5.1-18.9,17-7.82,22.81-10.42,38.77-10.1s30.95,20.85,29.32,34.54S390.93,328.14,388.35,340.69Z"/><path class="cls-2" d="M454.55,379.21a70.67,70.67,0,0,1,0,17.18c-20.48.78-69.32,3.86-79.18,2-11.73-2.18-12.6.86-28.24-4.35s-16.5-25.19-16.5-25.19-1.11-10.39,7.69-14.6a25,25,0,0,0,2,6.22c2.61,4.21,7.17,3.6,21.5,6.21s21.83,4.88,39.75,7.6c7.35,1.12,17.81,1.3,28.56,1.37C430.1,375.69,444,377.71,454.55,379.21Z"/><path class="cls-3" d="M324.11,311.66s1.89,31.73-.9,51.86c-8.8-4.39-23.64-.94-23.64-.94-13,2.18-23.05,3.48-30.58,4.24-7.51-18.67-4.78-13.59-9.34-21.29-7.11-12-18.07-11.61-18.07-11.61s22.79-28.76,9.57-20.2c1.41-1.56,2.71-2.92,3.52-3.72,5.13-5.07,8.41-11.05,16.55-11.7,6.53-.52,41,2.28,58-5.54C329.21,292.76,323.46,301.57,324.11,311.66Z"/><path class="cls-1" d="M239,405.18l-7.33,12.75a1.63,1.63,0,0,1-1.43.84,1.74,1.74,0,0,1-.45-.06,1.63,1.63,0,0,1-1-2.29l.93-1.94-3.45,2.91a1.84,1.84,0,0,1-1.17.43,1.78,1.78,0,0,1-.86-.22,1.82,1.82,0,0,1-.66-2.57l2.7-4.22,3.38-5.29-1.86-1.19c3.91-2.4,9.61-6.13,9.47-7.42a11.94,11.94,0,0,0-1.3-3.91c-7.82-15.64-6.08-17.38-6.3-20.64s-6.3-12.16-7.13-16.41c-.36-1.83-1-4.22-1.33-6.59-.45-3.14-.43-6.23,1.33-7.84,3.07-2.82,19.08-7.6,19.08-7.6s11-.37,18.07,11.61c4.56,7.7,1.83,2.62,9.34,21.29-12.31,1.25-17.83,1.09-18.12,1.08.49,1,.95,1.89,1.35,2.73,2,4.12,1.25,13.35.79,17.55a6.51,6.51,0,0,0,.88,4.07l4.05,6.84a6,6,0,0,1,.79,3.71l-1.2,11a.8.8,0,0,1-1,.69c-1.32-.38-3.58-1.38-3.42-3.69a42,42,0,0,0-.4-6.57l-.47.05-3.46-.11a4.07,4.07,0,0,0-4,2.8l-3.44,10.29a2.06,2.06,0,0,1-2,1.41,1.88,1.88,0,0,1-.47-.05,2.07,2.07,0,0,1-1.57-2.32Z"/><path class="cls-1" d="M221.88,322.27c1.84,1.79,4.7,3.83,8.18,3.83,5.42,0,11.67-1.08,16.64-7.23,1.29-1.6,2.93-3.48,4.44-5.14h0c13.22-8.56-9.57,20.2-9.57,20.2s-16,4.78-19.08,7.6c-1.76,1.61-1.78,4.7-1.33,7.84l-.26,0s-3.86-.93-6.79,3.28c.26-.42,3.27-5.32.3-8.28s-4.39-9-6.67-12.71c-2.19-3.59-6.35-3-6.68-2.95a12.67,12.67,0,0,1-5.2,1.61s-5.67.91-6-2.31c0,0-3.08.56-3.13-4.65,0-6.19-8.47-6.19-8.47-6.19l.76-.73a15.24,15.24,0,0,1,8.75-4.09l6.86-.32c2.61-1.73,9.69-2.9,13.76-2.14a81.63,81.63,0,0,0,9.06.86,4.92,4.92,0,0,1,4.59,3.84,27.68,27.68,0,0,1,.34,7.52Z"/><path class="cls-1" d="M229.62,405.52l-3.38,5.29-4.57,3.35a1.62,1.62,0,0,1-.94.3,1.64,1.64,0,0,1-.68-.15,1.6,1.6,0,0,1-.53-2.5l4.68-5.35s1.54-.88,3.56-2.13Z"/><path class="cls-4" d="M214.42,344.4c3,3,0,7.86-.3,8.28l0,0c-2.93,4.23-6.53,10.47-27.71,9.82l-.25-.13a8,8,0,0,0,.8-3.51c0-5-5.55-8-11.17-8-3.86,0-6.75,1.44-8.18,3.95l-.57-.53c-4-5.41-4.62-12.67-4.07-19.18,1.19-14.06,15.31-17.91,15.31-17.91s8.42,0,8.47,6.19c.05,5.21,3.13,4.65,3.13,4.65.34,3.22,6,2.31,6,2.31a12.67,12.67,0,0,0,5.2-1.61c.33-.06,4.49-.64,6.68,2.95C210,335.44,211.33,341.3,214.42,344.4Z"/><path class="cls-4" d="M186.94,358.89a8,8,0,0,1-.8,3.51,10.27,10.27,0,0,1-9.37,5.5c-10.18,0-10.18-4-10.18-9a8.15,8.15,0,0,1,1-4.07c1.43-2.51,4.32-3.95,8.18-3.95C181.39,350.87,186.94,353.91,186.94,358.89Z"/><path class="cls-5" d="M200.54,324.69s3.1,2.25.53,4.05a12.67,12.67,0,0,1-5.2,1.61s-5.67.91-6-2.31a3.21,3.21,0,0,1,2.24-3.35"/><path class="cls-5" d="M178.26,317.2s8.42,0,8.47,6.19c.05,5.21,3.13,4.65,3.13,4.65"/><path class="cls-5" d="M167,354.29c-4-5.41-4.62-12.67-4.07-19.18,1.19-14.06,15.31-17.91,15.31-17.91"/><path class="cls-5" d="M214.12,352.68c2.93-4.21,6.79-3.28,6.79-3.28"/><path class="cls-5" d="M186.39,362.53c21.18.65,24.78-5.59,27.71-9.82"/><path class="cls-5" d="M201.05,328.74h0c.33-.06,4.49-.64,6.68,2.95,2.28,3.75,3.58,9.61,6.67,12.71s0,7.86-.3,8.28l0,0"/><path class="cls-5" d="M251.15,313.72c1.41-1.56,2.71-2.92,3.52-3.72,5.13-5.07,8.41-11.05,16.55-11.7,6.53-.52,41,2.28,58-5.54S352,282.34,368,282.66s30.95,20.85,29.32,34.54-6.37,10.94-8.95,23.49"/><path class="cls-5" d="M219.64,319.64a17.34,17.34,0,0,0,2.24,2.63c1.84,1.79,4.7,3.83,8.18,3.83,5.42,0,11.67-1.08,16.64-7.23,1.29-1.6,2.93-3.48,4.44-5.14"/><path class="cls-5" d="M222.38,322.14a27.68,27.68,0,0,0-.34-7.52,4.92,4.92,0,0,0-4.59-3.84,81.63,81.63,0,0,1-9.06-.86c-4.07-.76-11.15.41-13.76,2.14l-6.86.32a15.24,15.24,0,0,0-8.75,4.09l-.76.73"/><path class="cls-5" d="M167.59,354.82a8.15,8.15,0,0,0-1,4.07c0,5,0,9,10.18,9a10.27,10.27,0,0,0,9.37-5.5,8,8,0,0,0,.8-3.51c0-5-5.55-8-11.17-8C171.91,350.87,169,352.31,167.59,354.82Z"/><path class="cls-5" d="M269,366.82c-7.51-18.67-4.78-13.59-9.34-21.29-7.11-12-18.07-11.61-18.07-11.61s-16,4.78-19.08,7.6c-1.76,1.61-1.78,4.7-1.33,7.84.35,2.37,1,4.76,1.33,6.59.83,4.25,6.91,13.15,7.13,16.41s-1.52,5,6.3,20.64a11.94,11.94,0,0,1,1.3,3.91c.14,1.29-5.56,5-9.47,7.42-2,1.25-3.56,2.13-3.56,2.13l-4.68,5.35a1.6,1.6,0,0,0,.53,2.5,1.64,1.64,0,0,0,.68.15,1.62,1.62,0,0,0,.94-.3l4.57-3.35"/><path class="cls-5" d="M229.85,405.16l-.23.36-3.38,5.29-2.7,4.22a1.82,1.82,0,0,0,.66,2.57,1.78,1.78,0,0,0,.86.22,1.84,1.84,0,0,0,1.17-.43l3.45-2.91"/><path class="cls-5" d="M234.19,405.16l-4.51,9.32-.93,1.94a1.63,1.63,0,0,0,1,2.29,1.74,1.74,0,0,0,.45.06,1.63,1.63,0,0,0,1.43-.84L239,405.18v0"/><path class="cls-5" d="M239.4,402.55l-.4,2.63-1.7,11.13a2.07,2.07,0,0,0,1.57,2.32,1.88,1.88,0,0,0,.47.05,2.06,2.06,0,0,0,2-1.41L244.74,407a4.07,4.07,0,0,1,4-2.8l3.46.11"/><path class="cls-5" d="M250.86,367.9c-2.71-5.33-6.48-12.16-7.76-15.19a8.14,8.14,0,0,0-5.22-4.46"/><path class="cls-5" d="M252.22,400.82s.24,1.49.47,3.42a42,42,0,0,1,.4,6.57c-.16,2.31,2.1,3.31,3.42,3.69a.8.8,0,0,0,1-.69l1.2-11a6,6,0,0,0-.79-3.71l-4.05-6.84a6.51,6.51,0,0,1-.88-4.07c.46-4.2,1.19-13.43-.79-17.55-.4-.84-.86-1.76-1.35-2.73"/><path class="cls-5" d="M250.86,367.9h0c.29,0,5.81.17,18.12-1.08,7.53-.76,17.61-2.06,30.58-4.24,0,0,14.84-3.45,23.64.94a12.36,12.36,0,0,1,2.64,1.72l4.78,3.65s.86,20,16.5,25.19,16.51,2.17,28.24,4.35c9.86,1.82,58.7-1.26,79.18-2,3.88-.14,6.75-.21,8.13-.14,8.69.44,12.16,2.88,23.46,2.74s25.19-3.6,35.62-2.3l5.41.88a5.2,5.2,0,0,0,4.47-1.42"/><path class="cls-5" d="M526.72,387l.1,0c2.36.47,4.51.93,6.39,1.23a3.2,3.2,0,0,0,3.69-2.83c0-.11,0-.22,0-.33a3.2,3.2,0,0,0-2.09-3l-.52-.19"/><path class="cls-5" d="M340.29,296c-7.22,20.62-4.65,46.34-2,58.27a25,25,0,0,0,2,6.22c2.61,4.21,7.17,3.6,21.5,6.21s21.83,4.88,39.75,7.6c7.35,1.12,17.81,1.3,28.56,1.37,13.16.09,26.74,0,35.46,1.3a38.14,38.14,0,0,1,4.07.8l6.69,1.77c11.95,3.14,24.67,6.28,33.71,5.73,5.94-.36,11.74.67,16.67,1.67"/><path class="cls-5" d="M369.61,332.47s-2.28,6.55,5.21,6.55a95,95,0,0,1,13.53,1.67c14.87,2.57,39.82,8.28,71.18,18.21,0,0,3.57.84,8.49,1.52a85.54,85.54,0,0,0,10.73.87c6,.07,5.9-.91,11.5.59a22,22,0,0,0,6.95.72c3.25-.18,8.1-.47,12.54-.8a22.13,22.13,0,0,1,11.82,2.43,7.72,7.72,0,0,0,2.13.75,5,5,0,0,1,3.82,3.48l.11.37"/><path class="cls-5" d="M430.1,375.69s13.85,2,24.45,3.52l4.09.56a39.87,39.87,0,0,0,6,.39c2.9,0,7.35-.14,11.7-.6"/><path class="cls-5" d="M523.87,393.76l7.77,2.39a3.11,3.11,0,0,0,3.83-1.91,3.06,3.06,0,0,0,.19-1.07A3.09,3.09,0,0,0,534,390.4L526.72,387h0"/><path class="cls-5" d="M521.76,370.14l5.93-.6.26,0a2.1,2.1,0,0,1,2.26,1.58,2.4,2.4,0,0,1,.07.52,2.12,2.12,0,0,1-2.11,2.11h-5.6"/><path class="cls-5" d="M523.87,379.2h5.83a2.39,2.39,0,0,0,.66-.09,2,2,0,0,0,.48-.18,2.58,2.58,0,0,0,1.45-2.32,2.61,2.61,0,0,0-.61-1.67,2.56,2.56,0,0,0-1.54-.88l-2-.34"/><path class="cls-5" d="M525,383.82l1.93.46.41.09a7.11,7.11,0,0,0,4.91-.91l1.23-.73a2.26,2.26,0,0,0-1.93-4.06l-.72.26-.48.18-.08,0"/><path class="cls-5" d="M241.58,333.92s22.79-28.76,9.57-20.2h0"/><path class="cls-5" d="M330.63,368.89s-1.11-10.39,7.69-14.6h0"/><path class="cls-5" d="M329.21,292.76s-5.75,8.81-5.1,18.9c0,0,1.89,31.73-.9,51.86"/><path class="cls-5" d="M468,360.41h0A51.5,51.5,0,0,1,465.56,377h0"/><path class="cls-5" d="M454.55,379.2h0a70.67,70.67,0,0,1,0,17.18"/></svg>