<svg id="Layer_1" data-name="Layer 1" xmlns="http://www.w3.org/2000/svg" viewBox="0 0 700 700"><defs><style>.cls-1{fill:#feae63;}.cls-2{fill:#c4e7f9;}.cls-3{fill:#99abcc;}.cls-4{fill:#392328;}.cls-5{fill:none;stroke:#000;stroke-linecap:round;stroke-linejoin:round;stroke-width:2.3px;}</style></defs><title>Yoga_poses_2020_color</title><path class="cls-1" d="M468.18,545.15a1.52,1.52,0,0,1-1.46.94l-18.43-.54a7.41,7.41,0,0,1-3.87-1.23c-3.27-2.18-10.23-6.61-12.45-6.49-2.93.16-27.36,7-42.19,6.19,0,0-9.77-1-13.68-.49s-9.28,0-15.31-.16-38.93-.65-46.75-1a111.18,111.18,0,0,1-21.44-2.94,16.33,16.33,0,0,1-3.47-1.7l.14-.24s-2.92-4.82-1.13-15.61a22.66,22.66,0,0,1,10.75-15.51c5-2.9,11.43-4,19.06-1.63,14.32,4.43,18.06,8.93,19.85,15.11h0c-.52.56-1.06,1.1-1.61,1.62l-.06.28c1.44.31,2.69.57,3.65.74,6.51,1.14,23.45,3.26,27.2,4.07s14.82-1.14,29-.16,32.42-1.14,37.63-.65,13.52,6.68,21.67,10.58c0,0,11.82,4.06,18.13,5.33,4.78,1,7.61,1.62,7.61,1.62a1.08,1.08,0,0,1,0,2.16h0l-12.59-.2Z"/><path class="cls-2" d="M351.45,444c3.39,9.37,7.19,53.7-13.65,75.87-1.79-6.18-5.53-10.68-19.85-15.11-7.63-2.35-14.1-1.27-19.06,1.63-2.29-5-8-7.28-8-7.28l-.33-.05c.4-1.42.83-3.06,1.28-4.89,1.8-7.33,4.89-13.84,10.59-19.54,0,0,2.28-3.1,1.63-10.27-.5-5.52-1.59-16.48-2.13-24.27,0,0,4.74,5.05,9.95,5.56,3.41.32,33.56-.83,38.28-4.25l.32-.09C350.78,442.1,351.08,443,351.45,444Z"/><path class="cls-3" d="M343.2,394.81c5.7,5.54,9.28,13.36,8,27.36-1.16,12.53-2.81,12.42-.66,19.14l-.32.09c-4.72,3.42-34.87,4.57-38.28,4.25-5.21-.51-9.95-5.56-9.95-5.56-.16-2.31-.27-4.33-.31-5.86-.16-6.68-2.61-18.73-4.07-22.15s-10.32-8.31-12.33-60.11-2.17-39.42-.87-48.87,2.28-10.75,1.79-17.92S282.6,261.07,282,249A146.16,146.16,0,0,0,279,227.51h0s6-5.64,18.8-2.66c3.7,16.58,13.52,37.94,14.43,43.23,1.3,7.65-.33,24.27-.17,31.11s1,22.15,3.1,26.55,12.7,27.86,18.89,52.29C334.07,378,337.5,389.27,343.2,394.81Z"/><path class="cls-1" d="M288.46,186.3c6.19,4.4,16.46,9.29,9.45,21-2.17,3.63-1.74,10.1-.09,17.53-12.79-3-18.8,2.66-18.8,2.66h0c-1.15-5.43-2.52-10.1-3.9-12.7-3.1-5.87-6.36-22.16-6.85-30.14-.17-2.84-.65-6.6-1.21-10.25a50.73,50.73,0,0,1,1.1-19,.24.24,0,0,1,0-.08,1.13,1.13,0,0,1,1.07-.93c1.56,0,4.44.3,4.56,3.51C274,162.36,282.27,181.9,288.46,186.3Z"/><path class="cls-1" d="M285.26,505.58l3.28.06s.87-2.33,2.06-6.58l.33.05s5.67,2.28,8,7.28a22.66,22.66,0,0,0-10.75,15.51c-1.79,10.79,1.13,15.61,1.13,15.61l-.14.24c-4.36-2.54-11.22-6.94-18.57-7.42a7.09,7.09,0,0,0-1.64-.92,6.2,6.2,0,0,1-3-2.14l-.07-.27a8.35,8.35,0,0,1-1.92.28c-5.78-1.14-1.94-5.78-1.94-5.78.23-2.35-1.21-6.2-5.06-8.49s-7.32-1.76-9.73-5.67c-1.22-2-7.27-10.46-7.27-10.46l1.82-.35s8.21-3.55,13.63-3.35c4.26.15,4.93,1.5,7.64-.41l5.44-2.5,1,5.07,10,1.17C280.34,496.17,287.27,494.78,285.26,505.58Zm-22.89-6.85c.06-.63-1.06-1.23-2.49-1.35s-2.64.27-2.69.89,1.06,1.23,2.49,1.35S262.32,499.35,262.37,498.73Z"/><path class="cls-4" d="M265.92,527.27a6.2,6.2,0,0,0,3,2.14,7.09,7.09,0,0,1,1.64.92,5.06,5.06,0,0,1-.13,8.29c-2.74,1.89-7.73,2.42-13.77,3.3a63,63,0,0,1-11.37-.13c-7.16-.67-9.35-5.66-9.35-5.66-.49-.76-.95-1.52-1.37-2.27a32.17,32.17,0,0,1-2.93-7c-2.94-10.36,1-19.42,6.91-29.77l1.38-.26s6,8.48,7.27,10.46c2.41,3.91,5.88,3.39,9.73,5.67s5.29,6.14,5.06,8.49c0,0-3.84,4.64,1.94,5.78a8.35,8.35,0,0,0,1.92-.28Z"/><path d="M259.88,497.38c1.43.12,2.55.72,2.49,1.35s-1.25,1-2.69.89-2.55-.72-2.49-1.35S258.44,497.25,259.88,497.38Z"/><path class="cls-4" d="M234.53,533.88c3.52,8.24-4.76,7.1-9.76,6.8s-8.2-5.18-3.45-11.06S231.49,527,231.49,527l.15,0a32.17,32.17,0,0,0,2.93,7Z"/><path class="cls-5" d="M262,521.5s-3.84,4.64,1.94,5.78a8.35,8.35,0,0,0,1.92-.28,8,8,0,0,0,5.67-4.86s.72-3.14-2.92-1.61"/><path class="cls-5" d="M239.93,496.88s6,8.48,7.27,10.46c2.41,3.91,5.88,3.39,9.73,5.67s5.29,6.14,5.06,8.49"/><path class="cls-5" d="M231.49,527s-5.41-3.21-10.17,2.67-1.53,10.76,3.45,11.06,13.28,1.44,9.76-6.8"/><path class="cls-5" d="M279.25,512.8a12.28,12.28,0,0,0,6-7.22c2-10.8-4.92-9.41-5.8-9.07l-10-1.17-1-5.07-5.44,2.5c-2.71,1.91-3.38.56-7.64.41-5.42-.2-13.63,3.35-13.63,3.35l-1.82.35-1.38.26c-5.88,10.35-9.85,19.41-6.91,29.77a32.17,32.17,0,0,0,2.93,7c.42.75.88,1.51,1.37,2.27,0,0,2.19,5,9.35,5.66a63,63,0,0,0,11.37.13c6-.88,11-1.41,13.77-3.3a5.06,5.06,0,0,0,.13-8.29,7.09,7.09,0,0,0-1.64-.92,6.2,6.2,0,0,1-3-2.14l-.07-.12"/><line class="cls-5" x1="285.62" y1="518.77" x2="276.25" y2="523.7"/><path class="cls-5" d="M337.8,519.87c20.84-22.17,17-66.5,13.65-75.87-.37-1-.67-1.9-.93-2.69-2.15-6.72-.5-6.61.66-19.14,1.3-14-2.28-21.82-8-27.36S334.07,378,334.07,378c-6.19-24.43-16.77-47.89-18.89-52.29s-2.93-19.71-3.1-26.55,1.47-23.46.17-31.11c-.91-5.29-10.73-26.65-14.43-43.23-1.65-7.43-2.08-13.9.09-17.53,7-11.73-3.26-16.62-9.45-21S274,162.36,273.8,158c-.12-3.21-3-3.56-4.56-3.51a1.13,1.13,0,0,0-1.07.93.24.24,0,0,0,0,.08,50.73,50.73,0,0,0-1.1,19c.56,3.65,1,7.41,1.21,10.25.49,8,3.75,24.27,6.85,30.14,1.38,2.6,2.75,7.27,3.9,12.7A146.16,146.16,0,0,1,282,249c.65,12,3.74,29,4.23,36.16s-.49,8.47-1.79,17.92-1.14-2.93.87,48.87,10.86,56.68,12.33,60.11,3.91,15.47,4.07,22.15c0,1.53.15,3.55.31,5.86.54,7.79,1.63,18.75,2.13,24.27.65,7.17-1.63,10.27-1.63,10.27-5.7,5.7-8.79,12.21-10.59,19.54-.45,1.83-.88,3.47-1.28,4.89-1.19,4.25-2.06,6.58-2.06,6.58l-3.28-.06a16.92,16.92,0,0,1,1.17,7.16"/><path class="cls-5" d="M336.19,521.5c.55-.52,1.09-1.06,1.61-1.62"/><path class="cls-5" d="M313.33,516.06s14.49,3.87,22.8,5.72c1.44.31,2.69.57,3.65.74,6.51,1.14,23.45,3.26,27.2,4.07s14.82-1.14,29-.16,32.42-1.14,37.63-.65,13.52,6.68,21.67,10.58c0,0,11.82,4.06,18.13,5.33,4.78,1,7.61,1.62,7.61,1.62a1.08,1.08,0,0,1,0,2.16h0l-12.59-.2"/><path class="cls-5" d="M270.56,530.33c7.35.48,14.21,4.88,18.57,7.42a16.33,16.33,0,0,0,3.47,1.7A111.18,111.18,0,0,0,314,542.39c7.82.33,40.72.82,46.75,1s11.4.65,15.31.16,13.68.49,13.68.49c14.83.82,39.26-6,42.19-6.19,2.22-.12,9.18,4.31,12.45,6.49a7.41,7.41,0,0,0,3.87,1.23l18.43.54a1.52,1.52,0,0,0,1.46-.94,1.45,1.45,0,0,0,.12-.59A1.53,1.53,0,0,0,467,543l-12.67-1.57"/><path class="cls-5" d="M289.27,537.51s-2.92-4.82-1.13-15.61a22.66,22.66,0,0,1,10.75-15.51c5-2.9,11.43-4,19.06-1.63,14.32,4.43,18.06,8.93,19.85,15.11h0"/><path class="cls-5" d="M302,440.09s4.74,5.05,9.95,5.56c3.41.32,33.56-.83,38.28-4.25"/><path class="cls-5" d="M279,227.51s6-5.64,18.8-2.66"/><path class="cls-5" d="M290.93,499.11s5.67,2.28,8,7.28"/></svg>