<svg id="Layer_1" data-name="Layer 1" xmlns="http://www.w3.org/2000/svg" viewBox="0 0 700 700"><defs><style>.cls-1{fill:#120c0c;}.cls-2{fill:#feae63;}.cls-3{fill:#c4e7f9;}.cls-4{fill:#99abcc;}.cls-5{fill:none;stroke:#000;stroke-linecap:round;stroke-linejoin:round;stroke-width:2.3px;}</style></defs><title>Yoga_poses_2020_color</title><path class="cls-1" d="M486.79,311.14c4.95-.59,12.95,4.42,10.68,11.64S489,329,489,329l-.63.25q-.64-1.1-1.41-2.22a20.07,20.07,0,0,0-3.4-3.28l.06-.08C477.33,317.29,483.25,311.57,486.79,311.14Z"/><path class="cls-1" d="M488.37,329.24c7.85,13.27,3.78,24.05-3.07,36.82l-1.37.3s-6.25-8.34-7.52-10.28c-2.51-3.86-6-3.25-9.87-5.44s-5.43-6-5.26-8.36c0,0,3.72-4.73-2.08-5.73a8.67,8.67,0,0,0-1.88.32l0-.14s-2.63-5.57-7-4.89a11.46,11.46,0,0,1-2.68.08,5.81,5.81,0,0,1-2.39-.81c-2.43-1.63-.67-5.22,4.47-8.88,7.08-5,17.95-4.33,17.95-4.33a27.77,27.77,0,0,1,15.91,5.84A20.07,20.07,0,0,1,487,327Q487.73,328.15,488.37,329.24Z"/><path class="cls-2" d="M457.32,336.87a8.67,8.67,0,0,1,1.88-.32c5.8,1,2.08,5.73,2.08,5.73-.17,2.35,1.35,6.17,5.26,8.36s7.36,1.58,9.87,5.44c1.27,1.94,7.52,10.28,7.52,10.28l-1.81.39s-8.12,3.75-13.54,3.68c-4.27-.05-5-1.38-7.63.59l-5.38,2.64-1.09-5-10.06-.94c-.87.37-7.76,1.93-6-8.91,0,0-.08-5.62-1.42-7.91a26.8,26.8,0,0,0-5-11.59c-7-9.54-23-3.34-29.6,6.51-8-12.15-9-20.77-9-20.77q1-.18,2-.33a59.75,59.75,0,0,1,24.07,1.15,101.56,101.56,0,0,1,10.45,3.27,47,47,0,0,0,8.49,2.53,29,29,0,0,0,6.88-.35l.05-.17a5.81,5.81,0,0,0,2.39.81,11.46,11.46,0,0,0,2.68-.08c4.35-.68,7,4.89,7,4.89Zm9.32,28.51c0-.62-1.09-1.2-2.52-1.29s-2.64.35-2.67,1,1.09,1.2,2.52,1.29S466.61,366,466.64,365.38Z"/><path class="cls-2" d="M409.39,375.28c-.05-1.49-.12-2.87-.19-4.14-.42-.1-10.35-2.56-11-12.35-.24-3.66.32-7.31,4.14-13,6.6-9.85,22.59-16,29.6-6.51a26.8,26.8,0,0,1,5,11.59,34.37,34.37,0,0,1,.44,3.48c.54,7.28-3.37,17.27-4.78,21.4s-1.2,18.13-1.2,18.13v23.84a34.69,34.69,0,0,0,1,8.23c1.28,5.32,2.22,13.8,3.09,25.27.86,11.3,4,23.76,5.26,28.52a2.71,2.71,0,0,0,2.62,2h15.44a8.49,8.49,0,0,1,2.19.28l20.36,5.43a1.85,1.85,0,0,1-.47,3.63h-.24a1.23,1.23,0,0,0,0-.2,1.29,1.29,0,0,0-1.06-1.26l-4.54-.82-.38,2.08a1.66,1.66,0,0,1-.43,3.26H441.67c-5.94,0-7.55-2.75-8.92-5.72s-8.23-20.59-11.89-30.66-6.18-23.57-7.55-27-1.61-7.32-1.83-10.75-1.84-30.66-1.84-30.66C409.64,383.81,409.55,379.17,409.39,375.28Z"/><path class="cls-2" d="M480.75,490.87a1.23,1.23,0,0,1,0,.2,1.28,1.28,0,0,1-1.26,1.08H476a1.66,1.66,0,0,0-1.19-1.28l.38-2.08,4.54.82A1.29,1.29,0,0,1,480.75,490.87Z"/><path d="M464.12,364.09c1.43.09,2.56.67,2.52,1.29s-1.23,1.06-2.67,1-2.56-.67-2.52-1.29S462.68,364,464.12,364.09Z"/><path class="cls-3" d="M409.2,371.14c.07,1.27.14,2.65.19,4.14-4.44,4.62-7.69,8.42-20.3,7-5.15-.56-14.13.21-19.3.6l-4.81.36c-6.07.41-12.56,1.64-25.54,1.22a60.16,60.16,0,0,0-8.06.29c3.66-25.45-3.33-42.23-3.33-42.23v-.38a57.29,57.29,0,0,0,11.63-1.05c10.6-3.69,32.38-12.44,53.63-16.11,0,0,1,8.62,9,20.77-3.82,5.7-4.38,9.35-4.14,13C398.85,368.58,408.78,371,409.2,371.14Z"/><path class="cls-4" d="M315.73,388.21c-1.05,7.89-2.92,21.34-4.69,31-3.54,19.47-13.38,69.46-28.44,70.41,0,0-10.17.45-19.71-.09-15.2-.86-36.53-2-44.94-2.27-7.46-.22-19.95-.44-31.27-.33-1.93-7.49,0-18.33,0-18.33,2-.15,4.34-.37,7.11-.66,18.35-1.92,48.31-7.46,65.08-4.91a5.8,5.8,0,0,0,5.47-2.21c2.31-3.05,5.15-9.28,5.15-21.47,0-20.54,1.21-34.84,2-44.06,1.47-17-4-35.08,8.05-45.3,0,0,12.67-13.46,38.15-8.76a58.56,58.56,0,0,0,10.35.93v.38s7,16.78,3.33,42.23A66,66,0,0,0,315.73,388.21Z"/><path class="cls-2" d="M186.68,468.61s-1.93,10.84,0,18.33c-9.44.09-18.08.41-22.29,1.14-9.26,1.61-32.21,0-32.21,0l-6.63-.1a2.27,2.27,0,0,1-2.23-2.27,2.22,2.22,0,0,1,.59-1.52,2.26,2.26,0,0,1,1.46-.73l.51,0a2.25,2.25,0,0,0,1.25-.52l2-1.65s3.48-2.82,11.13-5.24,11.28-8.46,16.11-13.29,7.65-4.43,13.69.81C175.2,468,174.76,469.53,186.68,468.61Z"/><path class="cls-5" d="M409.53,375.13l-.14.15c-4.44,4.62-7.69,8.42-20.3,7-5.15-.56-14.13.21-19.3.6l-4.81.36c-6.07.41-12.56,1.64-25.54,1.22a60.16,60.16,0,0,0-8.06.29,66,66,0,0,0-15.65,3.43h0"/><path class="cls-5" d="M316.57,381.71s-.32,2.55-.84,6.5c-1.05,7.89-2.92,21.34-4.69,31-3.54,19.47-13.38,69.46-28.44,70.41,0,0-10.17.45-19.71-.09-15.2-.86-36.53-2-44.94-2.27-7.46-.22-19.95-.44-31.27-.33-9.44.09-18.08.41-22.29,1.14-9.26,1.61-32.21,0-32.21,0l-6.63-.1a2.27,2.27,0,0,1-2.23-2.27,2.22,2.22,0,0,1,.59-1.52,2.26,2.26,0,0,1,1.46-.73l.51,0a2.25,2.25,0,0,0,1.25-.52l2-1.65s3.48-2.82,11.13-5.24,11.28-8.46,16.11-13.29,7.65-4.43,13.69.81c5.17,4.48,4.73,6,16.65,5.09,2-.15,4.34-.37,7.11-.66,18.35-1.92,48.31-7.46,65.08-4.91a5.8,5.8,0,0,0,5.47-2.21c2.31-3.05,5.15-9.28,5.15-21.47,0-20.54,1.21-34.84,2-44.06,1.47-17-4-35.08,8.05-45.3,0,0,12.67-13.46,38.15-8.76a58.56,58.56,0,0,0,10.35.93,57.29,57.29,0,0,0,11.63-1.05c10.6-3.69,32.38-12.44,53.63-16.11q1-.18,2-.33a59.75,59.75,0,0,1,24.07,1.15,101.56,101.56,0,0,1,10.45,3.27,47,47,0,0,0,8.49,2.53,29,29,0,0,0,6.88-.35"/><path class="cls-5" d="M328.05,342.55s7,16.78,3.33,42.23"/><path class="cls-5" d="M186.68,468.61s-1.93,10.84,0,18.33"/><path class="cls-5" d="M406.78,355.25s1.62,1.82,2.42,15.89c.07,1.27.14,2.65.19,4.14.16,3.89.25,8.53.25,14.06,0,0,1.61,27.23,1.84,30.66s.45,7.32,1.83,10.75,3.88,16.93,7.55,27,10.52,27.68,11.89,30.66,3,5.72,8.92,5.72h32.67a1.66,1.66,0,0,0,.43-3.26l-.32-.05-15.39-1"/><path class="cls-5" d="M476,492.15h3.48a1.28,1.28,0,0,0,1.26-1.08,1.23,1.23,0,0,0,0-.2,1.29,1.29,0,0,0-1.06-1.26l-4.54-.82-16.23-2.94"/><path class="cls-5" d="M409.21,371.14h0c-.42-.1-10.35-2.56-11-12.35-.24-3.66.32-7.31,4.14-13,6.6-9.85,22.59-16,29.6-6.51a26.8,26.8,0,0,1,5,11.59,34.37,34.37,0,0,1,.44,3.48c.54,7.28-3.37,17.27-4.78,21.4s-1.2,18.13-1.2,18.13v23.84a34.69,34.69,0,0,0,1,8.23c1.28,5.32,2.22,13.8,3.09,25.27.86,11.3,4,23.76,5.26,28.52a2.71,2.71,0,0,0,2.62,2h15.44a8.49,8.49,0,0,1,2.19.28l20.36,5.43a1.85,1.85,0,0,1-.47,3.63h-.22"/><path class="cls-5" d="M461.28,342.28s3.72-4.73-2.08-5.73a8.67,8.67,0,0,0-1.88.32,8,8,0,0,0-5.59,5s-.64,3.16,3,1.54"/><path class="cls-5" d="M447.25,344.12s-5.31.69-6.26,5.37"/><path class="cls-5" d="M483.93,366.36s-6.25-8.34-7.52-10.28c-2.51-3.86-6-3.25-9.87-5.44s-5.43-6-5.26-8.36"/><path class="cls-5" d="M467.65,317.9s-10.87-.7-17.95,4.33c-5.14,3.66-6.9,7.25-4.47,8.88a5.81,5.81,0,0,0,2.39.81,11.46,11.46,0,0,0,2.68-.08c4.35-.68,7,4.89,7,4.89"/><path class="cls-5" d="M489,329s6.21,1,8.47-6.21-5.73-12.23-10.68-11.64c-3.54.43-9.46,6.15-3.17,12.52"/><path class="cls-5" d="M467.65,317.9a27.77,27.77,0,0,1,15.91,5.84A20.07,20.07,0,0,1,487,327q.77,1.13,1.41,2.22c7.85,13.27,3.78,24.05-3.07,36.82l-1.37.3-1.81.39s-8.12,3.75-13.54,3.68c-4.27-.05-5-1.38-7.63.59l-5.38,2.64-1.09-5-10.06-.94c-.87.37-7.76,1.93-6-8.91,0,0-.08-5.62-1.42-7.91"/><path class="cls-5" d="M393.31,325s1,8.62,9,20.77"/></svg>