<svg id="Layer_1" data-name="Layer 1" xmlns="http://www.w3.org/2000/svg" viewBox="0 0 700 700"><defs><style>.cls-1{fill:#feae63;}.cls-2{fill:#99abcc;}.cls-3{fill:#c4e7f9;}.cls-4{fill:#120c0c;}.cls-5,.cls-6,.cls-7{fill:none;stroke:#000;stroke-linecap:round;stroke-linejoin:round;}.cls-5{stroke-width:2.61px;}.cls-6{stroke-width:2.3px;}.cls-7{stroke-width:3px;}</style></defs><title>Yoga_poses_2020_color</title><path class="cls-1" d="M490.34,492.9a1.7,1.7,0,0,1,0,3.39h-2.72a2.49,2.49,0,0,0-.3-3.16,2,2,0,0,0-.27-.23Z"/><path class="cls-1" d="M466,495.49c-7-1.1-14.28.07-24.84.8-9,0-4.91-10.23-3.18-22.05a43.94,43.94,0,0,0,.24-7.16,24.06,24.06,0,0,0,17.91-.67c-.15,7.27,3.81,9.92,3.81,9.92,2,1.48,18.1,12.56,18.1,12.56l4.35,3.06a2.52,2.52,0,0,0,1.43.45h1.71a2.47,2.47,0,0,1,1.49.5,2,2,0,0,1,.27.23,2.5,2.5,0,0,1-1.76,4.26h-3.44a13.67,13.67,0,0,1-3.43-.44l-1.2-.32a2,2,0,0,0-.54-.07,2.17,2.17,0,0,0-1.27.42,2.13,2.13,0,0,1-1.26.41H472.9A13.41,13.41,0,0,1,466,495.49Z"/><path class="cls-2" d="M373.78,333.19a8.82,8.82,0,0,1,5.6-.15c7.58,1.85,21.25,4.62,32.52,6.65s20,5.73,29.55,8.87,15.71,7.39,17,18.84,3.88,25.68,2.77,37.13-4.93,55-5.06,61.88a24.06,24.06,0,0,1-17.91.67c-.36-12.24-3.38-31.9-4.73-40.2a28.21,28.21,0,0,0-2.11-7,38.16,38.16,0,0,1-2.17-10.95c0-2.29.17-17.07.17-17.07a1.78,1.78,0,0,0,2.55.47L441,385.6l3.42-1.44c6.85-5.54,5.38-9.61,2.29-16.81s-4.73-8-7.68-9.09a16.12,16.12,0,0,0-6.19-.63,8.71,8.71,0,0,1-3.13-.37l-6.26-1.91a5.54,5.54,0,0,0-3.37,0l-2,.66a2.48,2.48,0,0,0,1.07,4.82l1.54-.18a5.46,5.46,0,0,1,2.71.37l2.7,1.1c2.22,1.79,0,5.18,0,5.18a34.4,34.4,0,0,1-5.38.24c-7.39-.37-19.39,0-24,1.84,0,0-14,.56-22,2s-17.18,0-20.5,1.85a43.09,43.09,0,0,1,1.29-8.68c1.11-3.88,7-24.2,7.57-32S362,318,357.83,313c5.66,3.45,11.57,6.78,15.45,19Z"/><path class="cls-1" d="M424.52,383.45c-9.34,3-23.68,8.47-33.67,9.78s-15.2-1.09-21.5,1.08-8.47,2.39-16.29,4.13a51.4,51.4,0,0,1-23,0c-7.39-1.74-12.17-2.82-15.21-8.91-1.55-3.09-1.74-7.72-1.56-11.51a54.45,54.45,0,0,1,.7-6.56s2.85-5.82,10.55-11,23.43-7,26.05-6.38l5,10.58a43.09,43.09,0,0,0-1.29,8.68c3.32-1.85,12.56-.37,20.5-1.85s22-2,22-2c4.62-1.84,16.62-2.21,24-1.84a34.4,34.4,0,0,0,5.38-.24s2.22-3.39,0-5.18l-2.7-1.1a5.46,5.46,0,0,0-2.71-.37l-1.54.18a2.48,2.48,0,0,1-1.07-4.82l2-.66a5.54,5.54,0,0,1,3.37,0l6.26,1.91a8.71,8.71,0,0,0,3.13.37,16.12,16.12,0,0,1,6.19.63c2.95,1.14,4.58,1.89,7.68,9.09s4.56,11.27-2.29,16.81L441,385.6,432,392.32a1.78,1.78,0,0,1-2.55-.47,1.83,1.83,0,0,1-.29-1,1.77,1.77,0,0,1,.49-1.22l.38-.4a2.09,2.09,0,0,1-2.85.17,2.1,2.1,0,0,1-.33-2.89,1.88,1.88,0,0,1-2.74.19,1.86,1.86,0,0,1-.6-1.38,1.93,1.93,0,0,1,.47-1.25Z"/><path class="cls-3" d="M357.83,313c4.13,5.05,5.85,12,5.29,19.71s-6.46,28.08-7.57,32l-5-10.58s6.57-26.94-7.77-48.54A148.41,148.41,0,0,1,357.83,313Z"/><path class="cls-1" d="M309.62,321.46a31,31,0,0,0,8.91-1.43c10.47-3.38,24.27-14.52,24.27-14.52,14.34,21.6,7.77,48.54,7.77,48.54-2.62-.66-18.36,1.17-26.05,6.38s-10.55,11-10.55,11a54.45,54.45,0,0,0-.7,6.56h-.08c-.35-3.25-7.83-9.24-7.83-9.24a25,25,0,0,0,14.32-7.92,18.47,18.47,0,0,0,4.71-10.66c.71-7.33-1.16-20.07-19.42-29A28,28,0,0,0,309.62,321.46Z"/><path class="cls-1" d="M190.14,341.18h0l1.19-1.6a9.42,9.42,0,0,1,4.77-3.38l3.46-1.07a6.55,6.55,0,0,0,2.42-1.37,6.48,6.48,0,0,1,4.34-1.66,6.68,6.68,0,0,1,1.33.14l3.66.76h0l7.44,1.54a2.32,2.32,0,0,0,1.65-.27,36,36,0,0,0,5.09-3.85c1.66-1.44,3.68-3.36,6.09-5.87,8.31-8.68,16.44-20.14,24.2-25.31,0,0,3.69-4.25,7-5.17s10.34-3,13.67-4.07,14-6.46,32-5,21.61,4.81,25.31,8.32,7.94,6.83,9.05,12.19c0,0-13.8,11.14-24.27,14.52a31,31,0,0,1-8.91,1.43,28,28,0,0,1-4.65-.26q-2.33-1.14-5-2.19a26.92,26.92,0,0,0-10.1-2c.21-2.36,3.1-4.92,3.1-4.92a80.57,80.57,0,0,1-8.54,1.36c-6.09.55-12-5.18-15.52-1.11-2.53,2.93-12.08,10.48-19.08,16-2.7,2.13-5,3.95-6.41,5.08-5,4.06-15.89,15.15-15.89,15.15l-4.62,4.25L217.66,360a8,8,0,0,1-2.58,2.29l-7.88,4.4-6.42,3.63a2.12,2.12,0,0,1-3-1,2.09,2.09,0,0,1-.16-.81,2.12,2.12,0,0,1,.62-1.51,85.91,85.91,0,0,1,8.6-7.67c2.53-1.84,1.33-4.47.07-6.19a6.5,6.5,0,0,0-3.18-2.33c-1.69-.57-4.19-1.32-5-1.08-1,.29-11.27,4.24-15.34,5.82l-.31.09a1.76,1.76,0,0,1-2-1.12,1.67,1.67,0,0,1-.12-.62,1.78,1.78,0,0,1,.77-1.45l.23-.16a1.51,1.51,0,0,1-.81.25,1.46,1.46,0,0,1-1.31-.81,1.78,1.78,0,0,1,.28-2L185.3,344a9.37,9.37,0,0,1,4.26-2.67Z"/><path class="cls-4" d="M305,321.2c18.26,8.93,20.13,21.67,19.42,29a18.47,18.47,0,0,1-4.71,10.66,25,25,0,0,1-14.32,7.92,31.82,31.82,0,0,1-12.4-.41,54.37,54.37,0,0,1-12.77-4.65c-6.6-3.29-10.24-7.75-12.14-12.3a23.22,23.22,0,0,1-1.55-5.61,25.52,25.52,0,0,1,11-24.91,24.41,24.41,0,0,1,4.83-2.49,22,22,0,0,1,7.52-1.39,26.92,26.92,0,0,1,10.1,2Q302.65,320.06,305,321.2Zm4.78,28.88a10.85,10.85,0,1,0-14.31,5.53A10.87,10.87,0,0,0,309.75,350.08Z"/><path class="cls-4" d="M304.22,335.76a10.85,10.85,0,1,1-14.31,5.53A10.87,10.87,0,0,1,304.22,335.76Z"/><path class="cls-2" d="M293,368.37a114.14,114.14,0,0,0-26.74,3.09c-14.19,3.44-31.75,1.13-38.26,0s-16,1.94-16,1.94l1.63,19.27c1.37,12.89-1.44,21.95-3.26,26.24a38.76,38.76,0,0,0-2.37,7.84c-1.59,8.44-4.55,25.6-4.52,36.62-12.06,2.24-19.25-1.55-19.25-1.55h0c.36-3.58.55-8.64.64-15.72.18-16.07-2.41-39.9-2.78-48.4s1.87-24.57,2.78-33.44l.92-8.13-2.72-.55.31-.09c4.07-1.58,14.31-5.53,15.34-5.82.83-.24,3.33.51,5,1.08a6.5,6.5,0,0,1,3.18,2.33c1.26,1.72,2.46,4.35-.07,6.19a85.91,85.91,0,0,0-8.6,7.67,2.12,2.12,0,0,0-.62,1.51,2.09,2.09,0,0,0,.16.81,2.12,2.12,0,0,0,3,1l6.42-3.63,7.88-4.4a8,8,0,0,0,2.58-2.29l5.24-7.16,4.62-4.25s10.9-11.09,15.89-15.15c1.39-1.13,3.71-3,6.41-5.08l13.82-1.18a3.2,3.2,0,0,0-2.72,3.17,3.28,3.28,0,0,0,.56,1.83l1.87,2.73a1.43,1.43,0,0,1,.24,1.06l-.86,5.21s-1.66,6.52,5.21,10.32l.11-.05c1.9,4.55,5.54,9,12.14,12.3A54.37,54.37,0,0,0,293,368.37Z"/><path class="cls-3" d="M284.42,313.46A80.57,80.57,0,0,0,293,312.1s-2.89,2.56-3.1,4.92a22,22,0,0,0-7.52,1.39l0,0a11,11,0,0,0-2.45-.36h0Z"/><path class="cls-1" d="M282.32,318.37l0,0a24.41,24.41,0,0,0-4.83,2.49,25.52,25.52,0,0,0-11,24.91,23.22,23.22,0,0,0,1.55,5.61l-.11.05c-6.87-3.8-5.21-10.32-5.21-10.32l.86-5.21a1.43,1.43,0,0,0-.24-1.06l-1.87-2.73a3.28,3.28,0,0,1-.56-1.83,3.2,3.2,0,0,1,2.72-3.17l.44,0,2.61,0a1.49,1.49,0,0,0,1.11-.54l4-5a9.2,9.2,0,0,1,8-3.52A11,11,0,0,1,282.32,318.37Z"/><path class="cls-1" d="M175.1,488.94a13.4,13.4,0,0,1-6.15,1.5h-1.51a2.11,2.11,0,0,1-1.26-.41,2.18,2.18,0,0,0-1.28-.42,1.88,1.88,0,0,0-.53.07l-1.2.32a13.67,13.67,0,0,1-3.43.44H156.3a2.48,2.48,0,0,1-2.06-1.1,2.44,2.44,0,0,1-.43-1.39,2.52,2.52,0,0,1,.73-1.77,1.49,1.49,0,0,1,.28-.23,2.38,2.38,0,0,1,1.48-.5H158a2.52,2.52,0,0,0,1.43-.45l4.34-3.06s16.08-11.08,18.11-12.56c1.14-.83,1.87-3,2.32-7.56h0s7.19,3.79,19.25,1.55a31.27,31.27,0,0,0,.59,6.63c2.35,10,4.27,19-1.48,19-10.76-.61-21.94-1.38-27.47,0Z"/><path class="cls-1" d="M151.52,486h3.3a1.49,1.49,0,0,0-.28.23,2.52,2.52,0,0,0-.73,1.77,2.44,2.44,0,0,0,.43,1.39h-2.72a1.7,1.7,0,0,1,0-3.39Z"/><path class="cls-5" d="M175.11,489c5.53-1.39,16.71-.62,27.47,0,5.75,0,3.83-9,1.48-19a31.27,31.27,0,0,1-.59-6.63c0-11,2.93-28.18,4.52-36.62a38.76,38.76,0,0,1,2.37-7.84c1.82-4.29,4.63-13.35,3.26-26.24L212,373.4s9.45-3.06,16-1.94,24.07,3.44,38.26,0A114.14,114.14,0,0,1,293,368.37"/><path class="cls-5" d="M181,485.45l-5.15,3.09c-.24.14-.48.28-.72.4a13.4,13.4,0,0,1-6.15,1.5h-1.51a2.11,2.11,0,0,1-1.26-.41,2.18,2.18,0,0,0-1.28-.42,1.88,1.88,0,0,0-.53.07l-1.2.32a13.67,13.67,0,0,1-3.43.44H156.3a2.48,2.48,0,0,1-2.06-1.1,2.44,2.44,0,0,1-.43-1.39,2.52,2.52,0,0,1,.73-1.77,1.49,1.49,0,0,1,.28-.23,2.38,2.38,0,0,1,1.48-.5H158a2.52,2.52,0,0,0,1.43-.45l4.34-3.06s16.08-11.08,18.11-12.56c1.14-.83,1.87-3,2.32-7.56.36-3.58.55-8.64.64-15.72.18-16.07-2.41-39.9-2.78-48.4s1.87-24.57,2.78-33.44l.92-8.13"/><path class="cls-5" d="M154.23,489.34h-2.71a1.7,1.7,0,0,1,0-3.39h3.3"/><polyline class="cls-5" points="183.03 351.49 187.8 348.19 198.33 343.57"/><path class="cls-5" d="M298.28,313.82a1,1,0,0,0,.15-.25,1.69,1.69,0,0,0-2-2.24c-.92.21-2.12.49-3.47.77a80.57,80.57,0,0,1-8.54,1.36c-6.09.55-12-5.18-15.52-1.11-2.53,2.93-12.08,10.48-19.08,16-2.7,2.13-5,3.95-6.41,5.08-5,4.06-15.89,15.15-15.89,15.15l-4.62,4.25L217.66,360a8,8,0,0,1-2.58,2.29l-7.88,4.4-6.42,3.63a2.12,2.12,0,0,1-3-1,2.09,2.09,0,0,1-.16-.81,2.12,2.12,0,0,1,.62-1.51,85.91,85.91,0,0,1,8.6-7.67c2.53-1.84,1.33-4.47.07-6.19a6.5,6.5,0,0,0-3.18-2.33c-1.69-.57-4.19-1.32-5-1.08-1,.29-11.27,4.24-15.34,5.82l-.31.09a1.76,1.76,0,0,1-2-1.12,1.67,1.67,0,0,1-.12-.62,1.78,1.78,0,0,1,.77-1.45l.23-.16"/><path class="cls-5" d="M197.59,339l-7.45,2.23-.58.17A9.37,9.37,0,0,0,185.3,344l-5.18,5.67a1.78,1.78,0,0,0-.28,2,1.46,1.46,0,0,0,1.31.81,1.51,1.51,0,0,0,.81-.25h0l1.05-.73"/><path class="cls-5" d="M211.32,333l7.44,1.54a2.32,2.32,0,0,0,1.65-.27,36,36,0,0,0,5.09-3.85c1.66-1.44,3.68-3.36,6.09-5.87,8.31-8.68,16.44-20.14,24.2-25.31,0,0,3.69-4.25,7-5.17s10.34-3,13.67-4.07,14-6.46,32-5,21.61,4.81,25.31,8.32,7.94,6.83,9.05,12.19a148.41,148.41,0,0,1,15,7.45c5.66,3.45,11.57,6.78,15.45,19"/><path class="cls-5" d="M190.14,341.17l1.19-1.6a9.42,9.42,0,0,1,4.77-3.38l3.46-1.07a6.55,6.55,0,0,0,2.42-1.37,6.48,6.48,0,0,1,4.34-1.66,6.68,6.68,0,0,1,1.33.14l3.66.76"/><path class="cls-5" d="M439.05,364.63a83.94,83.94,0,0,1-12.91,2.72,34.4,34.4,0,0,1-5.38.24c-7.39-.37-19.39,0-24,1.84,0,0-14,.56-22,2s-17.18,0-20.5,1.85a43.09,43.09,0,0,1,1.29-8.68c1.11-3.88,7-24.2,7.57-32S362,318,357.83,313"/><path class="cls-6" d="M268.05,351.42a23.22,23.22,0,0,1-1.55-5.61,25.52,25.52,0,0,1,11-24.91,24.41,24.41,0,0,1,4.83-2.49,22,22,0,0,1,7.52-1.39,26.92,26.92,0,0,1,10.1,2q2.69,1,5,2.19c18.26,8.93,20.13,21.67,19.42,29a18.47,18.47,0,0,1-4.71,10.66,25,25,0,0,1-14.32,7.92,31.82,31.82,0,0,1-12.4-.41,54.37,54.37,0,0,1-12.77-4.65C273.59,360.43,270,356,268.05,351.42Z"/><path class="cls-6" d="M304.22,335.76a10.85,10.85,0,1,0,5.53,14.32A10.85,10.85,0,0,0,304.22,335.76Z"/><path class="cls-6" d="M263.64,327.15a3.2,3.2,0,0,0-2.72,3.17,3.28,3.28,0,0,0,.56,1.83l1.87,2.73a1.43,1.43,0,0,1,.24,1.06l-.86,5.21s-1.66,6.52,5.21,10.32"/><path class="cls-6" d="M282.32,318.37a11,11,0,0,0-2.45-.36,9.2,9.2,0,0,0-8,3.52l-4,5a1.49,1.49,0,0,1-1.11.54l-2.61,0"/><path class="cls-7" d="M305.36,319.11s2.1,1.19,4.26,2.35c1.33.71,2.67,1.41,3.57,1.83"/><path class="cls-6" d="M305.36,368.78s7.48,6,7.83,9.24"/><path class="cls-6" d="M442.76,379.76a6.89,6.89,0,0,1-3.71,1.09c-2.19,0-5.19-.44-14.53,2.6s-23.68,8.47-33.67,9.78-15.2-1.09-21.5,1.08-8.47,2.39-16.29,4.13a51.4,51.4,0,0,1-23,0c-7.39-1.74-12.17-2.82-15.21-8.91-1.55-3.09-1.74-7.72-1.56-11.51a54.45,54.45,0,0,1,.7-6.56s2.85-5.82,10.55-11,23.43-7,26.05-6.38"/><path class="cls-6" d="M426.81,386.54a1.88,1.88,0,0,1-2.74.19,1.86,1.86,0,0,1-.6-1.38,1.93,1.93,0,0,1,.47-1.25l.58-.65"/><path class="cls-6" d="M431.9,387.25l-1.91,2a2.09,2.09,0,0,1-2.85.17,2.1,2.1,0,0,1-.33-2.89l0,0,1.32-1.7"/><path class="cls-6" d="M426.14,367.35s2.22-3.39,0-5.18l-2.7-1.1a5.46,5.46,0,0,0-2.71-.37l-1.54.18a2.48,2.48,0,0,1-1.07-4.82l2-.66a5.54,5.54,0,0,1,3.37,0l6.26,1.91a8.71,8.71,0,0,0,3.13.37,16.12,16.12,0,0,1,6.19.63c2.95,1.14,4.58,1.89,7.68,9.09s4.56,11.27-2.29,16.81L441,385.6,432,392.32a1.78,1.78,0,0,1-2.55-.47,1.83,1.83,0,0,1-.29-1,1.77,1.77,0,0,1,.49-1.22l.38-.4"/><polyline class="cls-5" points="249.82 328.33 263.64 327.15 264.08 327.11"/><polyline class="cls-5" points="211.31 332.99 211.32 332.99 225.5 330.41"/><path class="cls-5" d="M184.22,461.82s7.19,3.79,19.25,1.55"/><path class="cls-5" d="M466,495.49c-7-1.1-14.28.07-24.84.8-9,0-4.91-10.23-3.18-22.05a43.94,43.94,0,0,0,.24-7.16c-.36-12.24-3.38-31.9-4.73-40.2a28.21,28.21,0,0,0-2.11-7,38.16,38.16,0,0,1-2.17-10.95c0-2.29.17-17.07.17-17.07"/><path class="cls-5" d="M460.89,492.4l5.14,3.09a13.41,13.41,0,0,0,6.87,1.9h1.52a2.13,2.13,0,0,0,1.26-.41,2.17,2.17,0,0,1,1.27-.42,2,2,0,0,1,.54.07l1.2.32a13.67,13.67,0,0,0,3.43.44h3.44a2.5,2.5,0,0,0,1.76-4.26,2,2,0,0,0-.27-.23,2.47,2.47,0,0,0-1.49-.5h-1.71a2.52,2.52,0,0,1-1.43-.45l-4.35-3.06S462,477.81,460,476.33c0,0-4-2.65-3.81-9.92.13-6.85,3.95-50.42,5.06-61.88s-1.48-25.68-2.77-37.13-7.39-15.7-17-18.84-18.28-6.84-29.55-8.87S387,334.89,379.38,333a8.82,8.82,0,0,0-5.6.15,5.79,5.79,0,0,0-3.27,3.73"/><path class="cls-5" d="M487.62,496.29h2.72a1.7,1.7,0,0,0,0-3.39h-3.29"/><path class="cls-5" d="M438.25,467.08a24.06,24.06,0,0,0,17.91-.67"/><path class="cls-5" d="M388.9,375.5l1.93,3.17a3.57,3.57,0,0,1-.3,4.13"/><line class="cls-5" x1="284.42" y1="313.46" x2="279.87" y2="318"/><path class="cls-5" d="M293,312.1s-2.89,2.56-3.1,4.92"/><path class="cls-6" d="M342.8,305.51c14.34,21.6,7.77,48.54,7.77,48.54l5,10.58"/><path class="cls-6" d="M305,321.2a28,28,0,0,0,4.65.26,31,31,0,0,0,8.91-1.43c10.47-3.38,24.27-14.52,24.27-14.52"/></svg>