<svg id="Layer_1" data-name="Layer 1" xmlns="http://www.w3.org/2000/svg" viewBox="0 0 700 700"><defs><style>.cls-1{fill:#feae63;}.cls-2{fill:#392328;}.cls-3{fill:#c4e7f9;}.cls-4{fill:#99abcc;}.cls-5{fill:none;stroke:#000;stroke-linecap:round;stroke-linejoin:round;stroke-width:2.3px;}</style></defs><title>Yoga_poses_2020_color</title><path class="cls-1" d="M575.2,416.9a1.8,1.8,0,0,1,1,1.62,1.82,1.82,0,0,1-2.11,1.8l-4.83-.75h0l-13-11.36,1.75-2C563.92,411,572.35,415.43,575.2,416.9Z"/><path class="cls-1" d="M433.63,352.19l-14.64.54a27.6,27.6,0,0,0,.22,3.15l-13.69-1.31a47.52,47.52,0,0,1-10.21-22.14c-2.17-13.26-9.75-17.14-9.75-17.14a102.82,102.82,0,0,1,13.87,1.93c8.63,2.11,8.48,1.79,19.56,2.93s23.62,12.54,23.62,12.54l34.95,25.43a27.6,27.6,0,0,0,7.09,3.72c7.22,2.53,22.81,8.21,28.49,12,6.21,4.11,20.14,9.6,24.73,11.36a6.26,6.26,0,0,1,2.54,1.8c2.48,2.94,8.92,10.52,13.94,15.94a34,34,0,0,0,3.62,3.3l-1.75,2,13,11.36h0l.16.14a1.34,1.34,0,0,1-1.63,2.13l-17.33-11.45h-.16L549.85,421a1.5,1.5,0,0,1-1.49,1.44,1.48,1.48,0,0,1-1.4-1,29,29,0,0,1-1.56-8.08,10.82,10.82,0,0,0-.87-3.68,11.55,11.55,0,0,0-2.3-3.39,13.52,13.52,0,0,1-2.74-3.92l-1.83-4.06-2.67.49c-.26-.93-.51-1.81-.72-2.54a4,4,0,0,0-2.59-2.68c-5.43-1.8-20.75-6.8-30.27-9.46a289.81,289.81,0,0,1-35.18-12.36c-.75-.33-1.65-.78-2.68-1.31C456.38,366.71,443.18,358.36,433.63,352.19Z"/><path class="cls-1" d="M544.53,409.71l-.09,0a4.42,4.42,0,0,0-3.1,1.27l-3.59,3.54a4.24,4.24,0,0,1-3,1.21h-3.24a1.63,1.63,0,1,1,0-3.26,4.2,4.2,0,0,0,3.63-2.08,8.27,8.27,0,0,0,1.26-5.41c-.3-1.77-.89-4.13-1.45-6.19l2.67-.49,1.83,4.06a13.52,13.52,0,0,0,2.74,3.92A11.55,11.55,0,0,1,544.53,409.71Z"/><path class="cls-2" d="M471.05,390.38c4.74,2.49,6.43,8.61,3.78,13.67s-8.66,7.14-13.4,4.65l-.23-.23s8.1-7.74,9.42-18.14Z"/><path class="cls-2" d="M452,368.59c-.5-.36-.84-.57-.93-.63a34.5,34.5,0,0,1,10.14,3.67c3.91,2.2,7.74,5.6,9,10.73a21.31,21.31,0,0,1,.44,8c-1.32,10.4-9.42,18.14-9.42,18.14-14.89,12.7-28.62-3.15-28.92-3.5,0,0,.27.1.77.25a43.61,43.61,0,0,0,6.84,1.21c10.45,1.21,16.76-10.78,16.76-10.78C464.87,379.72,455.15,370.93,452,368.59Z"/><path class="cls-1" d="M452,368.59c3.2,2.34,12.92,11.13,4.7,27.06,0,0-6.31,12-16.76,10.78a43.61,43.61,0,0,1-6.84-1.21l-2.3-1.39-5.05-3.06c-.26-.16-.52-.34-.78-.53-3.28-2.35-6.94-6.32-8.9-8a11.36,11.36,0,0,1-4-6.7c-1.2-6.05,2-12.26,2-12.26,2.95-5.88,6.52-8.69,9.64-10a12.21,12.21,0,0,1,7.54-.75c3,.67,8.63,1.6,11.75,2.55a12.32,12.32,0,0,1,1.44.53l5.72,2.23Zm-6.49,10a2.32,2.32,0,1,0-2.94.7A2.15,2.15,0,0,0,445.46,378.56Zm-8.63,15.92a2.32,2.32,0,1,0-2.95.71A2.16,2.16,0,0,0,436.83,394.48Z"/><path class="cls-1" d="M443.08,364.94c-3.12-1-1.31-1.74-1.31-1.74,3.88-.91,8.27,1.51,8.27,1.51,2.65,1.88,1.47,2.52.3,2.75l-.17.44-5.72-2.23a12.32,12.32,0,0,0-1.44-.53Z"/><path d="M444.33,375.74a2,2,0,1,1-2.95.71A2.15,2.15,0,0,1,444.33,375.74Z"/><path d="M435.69,391.67a2,2,0,1,1-2.95.71A2.16,2.16,0,0,1,435.69,391.67Z"/><path class="cls-1" d="M430.75,403.83l-.17.28c.64,1.06,1.48,3-2.11,1.89,0,0-4.57-2.05-6.19-5.69,0,0-.53-2,2.45.19l.19-.26c.26.19.52.37.78.53Z"/><path class="cls-1" d="M423.52,362.85l.2.49c-3.12,1.29-6.69,4.1-9.64,10,0,0-3.24,6.21-2,12.26l-.49.09c-5.51-3.16-7.92-1.1-9.74,3.42l-.1,0a7.81,7.81,0,0,0-3.38-4.43c-7.2-4.1-12.77-.54-12.77-.54s-14.79-16.15,20-29.58l13.69,1.31C419.55,358.25,420.5,360,423.52,362.85Z"/><path class="cls-1" d="M386.51,422.26l-.95-.82a15.26,15.26,0,0,1-7.33-8.05c-7.15-4.63-5.89-9-5.89-15.57,0-6.45-8.81-12.15-9.21-12.42,10.71,1.42,22.43-1.25,22.43-1.25s5.57-3.56,12.77.54a7.81,7.81,0,0,1,3.38,4.43c.63,2,.68,4.73-.79,8.37,0,0,.16,6.31-1.49,8.86l-1.11,0a7.7,7.7,0,0,1,2.54,7l-.25.47c2.75,1.45,4.26,4.62,4.79,6.49.68,2.41,1.24,2.56,3.28,5.17,1.48,1.89,2.33,5.94,2.67,8a1.37,1.37,0,0,1,0,.19,1.09,1.09,0,0,1-1.1,1.08,1.08,1.08,0,0,1-1-.62L406,427.27l-1.14,7.58a1.27,1.27,0,0,1-2.53-.19v-8.58l-2.42,9.19a1.75,1.75,0,0,1-1.68,1.31,1.67,1.67,0,0,1-.44-.06,1.74,1.74,0,0,1-1.31-1.81l.69-10.33a43,43,0,0,0-3.57,10.4,1.41,1.41,0,0,1-1.38,1.11l-.3,0a1.42,1.42,0,0,1-1.06-.95c-1.71-5,.88-12.31,1.26-13.35l0-.09a.36.36,0,0,0,0,.09c-1.61,3.52-3.24,7.23-4.63,9.78a5.39,5.39,0,0,1-1.95,2,5.31,5.31,0,0,1-2.72.74,1.69,1.69,0,0,1-1.69-1.69,1.65,1.65,0,0,1,.66-1.33c2.39-1.75,3.34-5.21,3.66-6.84a3.64,3.64,0,0,1,.8-1.65Z"/><path class="cls-3" d="M395.31,332.43a47.52,47.52,0,0,0,10.21,22.14c-34.75,13.43-20,29.58-20,29.58s-11.72,2.67-22.43,1.25h0a29.83,29.83,0,0,1-8.2-2.18c-11.74-5.24-9.56-12.36-28.46-26.69-13.22-10-18.42-17.82-20.35-21.6,4.34-2.33,10.42-6.86,15-10.46a26.56,26.56,0,0,0,8.2-31.24,28.52,28.52,0,0,0-1.64-3.28c1.58,1.62,3.07,3.18,4.47,4.62A63.64,63.64,0,0,0,365.4,313c5.52,1.13,13.08,1.66,20.16,2.31C385.56,315.29,393.14,319.17,395.31,332.43Z"/><path class="cls-4" d="M305.05,332.43c-.76,8.87-2.07,19.32-3.35,30.4-3.15,27.35-11.07,50.82-16.45,52.29-2.83.77-44.31-1.47-55.55-2.94-7.7-1-24.88-2.69-37.72-3.5-5.43-8.8-.23-19.15,0-19.58,5.59-.5,10.53-1.51,10.53-1.51,31.11-5.87,52.62-1.47,56.85-1s4.07-14-.81-31.29-6-40.39-5.54-50.17-3.75-39.58,23.78-40.4c24.08-.71,39.81,13.79,50.9,25.17v0a28.52,28.52,0,0,1,1.64,3.28,26.56,26.56,0,0,1-8.2,31.24c-4.6,3.6-10.68,8.13-15,10.46A14,14,0,0,1,305.05,332.43Z"/><path class="cls-1" d="M192,389.1c-.22.43-5.42,10.78,0,19.58-5.89-.37-10.87-.56-13.59-.41-8.63.49-18.89,3.59-24.11,3.91s-22.15.17-22.15.17-9.77,1.14-9.77-2,2.28-3.26,4.56-3.42c1.77-.13,8.14-4.27,10.91-6.12a14.59,14.59,0,0,1,2.73-1.45c17.73-7.14,11.19-8.93,20.08-17.19,9.12-8.47,12.21.49,16.61,5.05C179.51,389.6,186.09,389.63,192,389.1Z"/><path class="cls-5" d="M471.05,390.38c4.74,2.49,6.43,8.61,3.78,13.67s-8.66,7.14-13.4,4.65"/><path class="cls-5" d="M451,368h0c.09.06.43.27.93.63,3.2,2.34,12.92,11.13,4.7,27.06,0,0-6.31,12-16.76,10.78a43.61,43.61,0,0,1-6.84-1.21c-.5-.15-.74-.24-.77-.25h0"/><path class="cls-5" d="M432.28,405c.3.35,14,16.2,28.92,3.5,0,0,8.1-7.74,9.42-18.14a21.31,21.31,0,0,0-.44-8c-1.28-5.13-5.11-8.53-9-10.73A34.5,34.5,0,0,0,451,368"/><path class="cls-5" d="M430.58,404.11c.64,1.06,1.48,3-2.11,1.89,0,0-4.57-2.05-6.19-5.69,0,0-.53-2,2.45.19"/><path class="cls-5" d="M450.34,367.46c1.17-.23,2.35-.87-.3-2.75,0,0-4.39-2.42-8.27-1.51,0,0-1.81.73,1.31,1.74l.32.09"/><path class="cls-5" d="M452.74,368.9l-.79-.31-1.78-.69-5.72-2.23a12.32,12.32,0,0,0-1.44-.53c-3.12-.95-8.76-1.88-11.75-2.55a12.21,12.21,0,0,0-7.54.75c-3.12,1.29-6.69,4.1-9.64,10,0,0-3.24,6.21-2,12.26a11.36,11.36,0,0,0,4,6.7c2,1.64,5.62,5.61,8.9,8,.26.19.52.37.78.53l5.05,3.06,2.3,1.39,1,.61"/><path class="cls-5" d="M431.46,383.22a4.29,4.29,0,0,1,2.17-3.87"/><polyline class="cls-5" points="428.02 373.81 427.24 374.47 426.64 377.49 425.51 378.15 425.52 379.55 423.45 381.45 423.25 382.32"/><line class="cls-5" x1="421.87" y1="374.9" x2="420.65" y2="377.15"/><path class="cls-5" d="M423.52,362.85c-3-2.83-4-4.6-4.31-7a27.6,27.6,0,0,1-.22-3.15l14.64-.54"/><path class="cls-5" d="M411.55,385.67c-5.51-3.16-7.92-1.1-9.74,3.42"/><path class="cls-5" d="M363.13,385.4c.4.27,9.21,6,9.21,12.42,0,6.61-1.26,10.94,5.89,15.57"/><path class="cls-5" d="M376.64,404.76a22.06,22.06,0,0,0,1.59,8.63,15.26,15.26,0,0,0,7.33,8.05"/><path class="cls-5" d="M389.69,402.91s5.31.48,8.63,3.48a7.7,7.7,0,0,1,2.54,7"/><path class="cls-5" d="M385.56,393.43s5.78.92,8.42,4.72"/><line class="cls-5" x1="391.13" y1="368.69" x2="404.65" y2="381.28"/><path class="cls-5" d="M537.66,398.34l1.83,4.06a13.52,13.52,0,0,0,2.74,3.92,11.55,11.55,0,0,1,2.3,3.39,10.82,10.82,0,0,1,.87,3.68,29,29,0,0,0,1.56,8.08,1.48,1.48,0,0,0,1.4,1,1.5,1.5,0,0,0,1.49-1.44l.43-10.63.16-4"/><polyline class="cls-5" points="569.23 419.57 556.22 408.21 556.15 408.15"/><path class="cls-5" d="M550.44,410.39l17.33,11.45a1.34,1.34,0,0,0,1.63-2.13l-.16-.14"/><path class="cls-5" d="M327.68,289.93c-11.09-11.38-26.82-25.88-50.9-25.17-27.53.82-23.29,30.63-23.78,40.4s.65,32.91,5.54,50.17,5,31.79.81,31.29-25.74-4.9-56.85,1c0,0-4.94,1-10.53,1.51-5.88.53-12.46.5-14.72-1.84-4.4-4.56-7.49-13.52-16.61-5.05-8.89,8.26-2.35,10.05-20.08,17.19a14.59,14.59,0,0,0-2.73,1.45c-2.77,1.85-9.14,6-10.91,6.12-2.28.16-4.56.33-4.56,3.42s9.77,2,9.77,2,16.94.16,22.15-.17,15.48-3.42,24.11-3.91c2.72-.15,7.7,0,13.59.41,12.84.81,30,2.5,37.72,3.5,11.24,1.47,52.72,3.71,55.55,2.94,5.38-1.47,13.3-24.94,16.45-52.29,1.28-11.08,2.59-21.53,3.35-30.4.8-9.27,1-16.82-.09-21.57"/><path class="cls-5" d="M569.23,419.57h0l4.83.75a1.82,1.82,0,0,0,2.11-1.8,1.8,1.8,0,0,0-1-1.62c-2.85-1.47-11.28-5.95-17.23-10.69a34,34,0,0,1-3.62-3.3c-5-5.42-11.46-13-13.94-15.94a6.26,6.26,0,0,0-2.54-1.8c-4.59-1.76-18.52-7.25-24.73-11.36-5.68-3.76-21.27-9.44-28.49-12a27.6,27.6,0,0,1-7.09-3.72l-34.95-25.43s-12.54-11.4-23.62-12.54-10.93-.82-19.56-2.93a102.82,102.82,0,0,0-13.87-1.93c-7.08-.65-14.64-1.18-20.16-2.31a63.64,63.64,0,0,1-33.24-18.41c-1.4-1.44-2.89-3-4.47-4.62"/><path class="cls-5" d="M305.05,332.43a14,14,0,0,0,1.06,2.5c1.93,3.78,7.13,11.57,20.35,21.6,18.9,14.33,16.72,21.45,28.46,26.69a29.83,29.83,0,0,0,8.2,2.18h0c10.71,1.42,22.43-1.25,22.43-1.25s-14.79-16.15,20-29.58l13.69,1.31"/><path class="cls-5" d="M405.52,354.57a47.52,47.52,0,0,1-10.21-22.14c-2.17-13.26-9.75-17.14-9.75-17.14"/><path class="cls-5" d="M422.24,344.75s4.84,3.21,11.39,7.44c9.55,6.17,22.75,14.52,29.92,18.29,1,.53,1.93,1,2.68,1.31a289.81,289.81,0,0,0,35.18,12.36c9.52,2.66,24.84,7.66,30.27,9.46a4,4,0,0,1,2.59,2.68c.21.73.46,1.61.72,2.54.56,2.06,1.15,4.42,1.45,6.19a8.27,8.27,0,0,1-1.26,5.41,4.2,4.2,0,0,1-3.63,2.08,1.63,1.63,0,1,0,0,3.26h3.24a4.24,4.24,0,0,0,3-1.21l3.59-3.54a4.42,4.42,0,0,1,3.1-1.27"/><path class="cls-5" d="M385.56,384.15s5.57-3.56,12.77.54a7.81,7.81,0,0,1,3.38,4.43c.63,2,.68,4.73-.79,8.37,0,0,.16,6.31-1.49,8.86"/><path class="cls-5" d="M327.68,289.93v0a28.52,28.52,0,0,1,1.64,3.28,26.56,26.56,0,0,1-8.2,31.24c-4.6,3.6-10.68,8.13-15,10.46"/><path class="cls-5" d="M392.13,421.44h0v0l0,.09c-.38,1-3,8.37-1.26,13.35a1.42,1.42,0,0,0,1.06.95l.3,0a1.41,1.41,0,0,0,1.38-1.11,43,43,0,0,1,3.57-10.4l-.69,10.33a1.74,1.74,0,0,0,1.31,1.81,1.67,1.67,0,0,0,.44.06,1.75,1.75,0,0,0,1.68-1.31l2.42-9.19v8.58a1.27,1.27,0,0,0,2.53.19l1.14-7.58,3.33,6.91a1.08,1.08,0,0,0,1,.62,1.09,1.09,0,0,0,1.1-1.08,1.37,1.37,0,0,0,0-.19c-.34-2.07-1.19-6.12-2.67-8-2-2.61-2.6-2.76-3.28-5.17-.53-1.87-2-5-4.79-6.49a6.66,6.66,0,0,0-2.72-.76"/><path class="cls-5" d="M390.57,417.59l-4.06,4.67-.3.35a3.64,3.64,0,0,0-.8,1.65c-.32,1.63-1.27,5.09-3.66,6.84a1.65,1.65,0,0,0-.66,1.33,1.69,1.69,0,0,0,1.69,1.69,5.31,5.31,0,0,0,2.72-.74,5.39,5.39,0,0,0,1.95-2c1.39-2.55,3-6.26,4.63-9.78a.36.36,0,0,1,0-.09"/><line class="cls-5" x1="418.99" y1="352.73" x2="414.3" y2="352.73"/><path class="cls-5" d="M192,389.09h0c-.22.43-5.42,10.78,0,19.58"/></svg>