<svg id="Layer_1" data-name="Layer 1" xmlns="http://www.w3.org/2000/svg" viewBox="0 0 700 700"><defs><style>.cls-1{fill:#feae63;}.cls-2{fill:#392328;}.cls-3{fill:#c4e7f9;}.cls-4{fill:#99abcc;}.cls-5{fill:none;stroke:#000;stroke-linecap:round;stroke-linejoin:round;stroke-width:2.3px;}</style></defs><title>Yoga_poses_2020_color</title><path class="cls-1" d="M414.42,479.09c-.86-2.2-1.54-4.08-1.94-5.47l-13-2.59c-1.72-.34-4.07-.65-6.77-.93h0s-4.26-2.3-8.91-4.32l.25-.57s3.78-47.6,36-27.91h0c1.21,1.83,2.52,4,4,6.62,9.59,17.2,6.72,20.72,8.82,28.11.33,1.15.73,2.32,1.18,3.5,2.48,6.44,6.54,13.29,8.41,18.88,2.2,6.61,1.32,4.85,4.9,12.9a43.5,43.5,0,0,0,2.26,4.32c2.07,3.49,4.62,7,7.27,11a95.72,95.72,0,0,1,6.62,11.49c5.6,11.7,19.84,35.61,23.26,38.14s14.44,3.2,18,3.86,19.6,1.88,19.6,1.88l-.64,1.74h0c2.34.15,4.1.24,4.1.24v.41a2.05,2.05,0,0,1-2.06,2h-5.41l0,.25c2.23.35,4.05.57,4.05.57l-.48.71a2.08,2.08,0,0,1-1.74.93h-8.53s-.19,1.64-1.46,1.64-7.65-.36-12-2.37c0,0-18.4.55-20.59-1.64s-6-9.11-7.83-11.66-24.6-29.33-28.61-35.53c-3-4.64-4.47-6-7-10.25-.85-1.41-1.81-3.14-3-5.42-2.28-4.38-6.52-13.13-10.61-22C419.38,490.93,416.39,484.14,414.42,479.09Z"/><path class="cls-2" d="M463.37,508.62c2.07,4.06.63,12.09-5.37,13.75l-1.09.22c-2.65-4-5.2-7.48-7.27-11l.23-.13c.19-.46.38-1,.56-1.55l.1,0C454.34,501.86,461.75,505.45,463.37,508.62Z"/><path class="cls-2" d="M450.42,493a27.75,27.75,0,0,1,0,16.95c-.18.57-.37,1.09-.56,1.55l-.23.13a43.5,43.5,0,0,1-2.26-4.32c-3.58-8.05-2.7-6.29-4.9-12.9-1.87-5.59-5.93-12.44-8.41-18.88l1.37-.52C446.37,478.79,450.42,493,450.42,493Z"/><path class="cls-2" d="M436.07,525.06l-.79.14c-7,2.76-14.95,2.25-24,1l-.76-1.19s5.68-8.74,7.07-10.6c2.74-3.69,1-6.72,1.69-11.14a10.8,10.8,0,0,1,2.37-5.26l.78-.36c4.09,8.88,8.33,17.63,10.61,22C434.26,521.92,435.22,523.65,436.07,525.06Z"/><path class="cls-1" d="M414.42,479.09c2,5.05,5,11.84,8,18.54l-.78.36a10.8,10.8,0,0,0-2.37,5.26c-.71,4.42,1.05,7.45-1.69,11.14-1.39,1.86-7.07,10.6-7.07,10.6-.24-.39-.56-.9-1-1.57,0,0-6.32-6.32-8.13-11.43-1.42-4-.41-5.15-3.18-7l-4.33-4.14,4.36-2.77-2.6-9.76c-.64-.69-4.49-6.62,6.29-8.72a2.58,2.58,0,0,0,.43-3.46c-1.33-1.85-9.15-5.83-9.64-6.08,2.7.28,5.05.59,6.77.93l13,2.59C412.88,475,413.56,476.89,414.42,479.09Zm-8.91,29.34c.6-.18.75-1.44.34-2.82s-1.23-2.35-1.83-2.17-.75,1.44-.34,2.82S404.91,508.61,405.51,508.43Z"/><path class="cls-3" d="M420.09,437.29h0c-32.22-19.69-36,27.91-36,27.91l-.25.57c-3.64-1.59-7.52-3-9.75-3-4.32,0-5.55,5.16-5.55,5.16a35.46,35.46,0,0,1-7.45-1.35c-4.79-1.94-7.86-8.17-17.4-17.12s-9.34-12.65-15-22.58a59.22,59.22,0,0,0-3.35-5.16c.39-.43,13-14.17,19-28a35.45,35.45,0,0,1,19-18.47c2.54,7,4.57,10.33,9.09,15.21,5.31,5.73,12.43,10.14,25.88,24.58C409.66,427.26,413.39,427.15,420.09,437.29Z"/><path d="M405.85,505.61c.41,1.38.26,2.64-.34,2.82s-1.41-.79-1.83-2.17-.26-2.64.34-2.82S405.44,504.23,405.85,505.61Z"/><path class="cls-1" d="M392.74,470.09h0c-7.35-.79-17.29-1.41-24.22-2.2,0,0,1.23-5.18,5.55-5.16,2.23,0,6.11,1.44,9.75,3C388.48,467.79,392.74,470.09,392.74,470.09Z"/><path class="cls-4" d="M361.89,371.15c.5,1.5,1,2.85,1.41,4.09a35.45,35.45,0,0,0-19,18.47c-6,13.81-18.59,27.55-19,28A144.61,144.61,0,0,0,311,405.25c-2.92.39-13.43,14.21-13.43,14.21-11.68,19.07-26.47,32.69-31.14,37.56s-8,12.26-11.48,14.59-8.57,8.76-19.27,22.38-27,36.79-31.91,44.38c0,0-7.14.82-16.57-5.4,5.58-10.16,12.75-24.66,19.47-39,10.88-23.29,14.62-12.92,28.39-38.25s28.22-51.68,35.53-63.42,16-23.63,17.17-30.6.51-14.79-4.08-30.77S267,280.74,263.61,265.27s.68-23.46-1.36-37.57-5.95-26-8-38.08c-1.23-7.26-4.13-15.71-6.24-21.28,4.56-6.86,13.59-4.16,13.84-4.08h0c3.56,8.6,9.69,21.47,9.69,21.47,18.48,34.65,11.21,63,14.18,69.56s7.26,15.84,17.82,34,28,41.42,28,41.42C345,345.47,358.59,361.23,361.89,371.15Z"/><path class="cls-1" d="M234.22,116.65c-1.62-3.77,3.5-2.14,4.65,0,3.59.6,4.58,2,8.56,9.15s3.78,6.57,9.55,11.14,3.38,10.15,2.39,12.34-1.39,3.05.2,8.82a62.87,62.87,0,0,0,2.29,6.16c-.25-.08-9.28-2.78-13.84,4.08-1.41-3.7-2.47-6.13-2.47-6.13-3.3-7.14-6.59-15.58-10-22.31s-6.35-9.48-6.35-9.48a28.43,28.43,0,0,0-5.77-4.53c-1.17-.75-7-2.19-5.45-4.6a3.32,3.32,0,0,1,4.09-1.3,1.41,1.41,0,0,1,.85-1.37,2.25,2.25,0,0,1,3.09.41l.09,0c-.68-.85-.88-1.71.05-2.34,1.08-.73,2.37-.23,3.54.62-.07-.23-.68-2.22,1.06-2.22A5.61,5.61,0,0,1,234.22,116.65Z"/><path class="cls-1" d="M228.91,565.48a2.37,2.37,0,0,1,.87,4.36,6.25,6.25,0,0,1-2.79.73,38.52,38.52,0,0,1-10.7-.75A24.76,24.76,0,0,1,204,567.36,33.52,33.52,0,0,0,192.58,564c-5.44-.68-12,2.22-18.4-2.36-3.87-2.77.34-10.88,4.94-15.81,1.76-1.88,4.61-6.51,8.07-12.81,9.43,6.22,16.57,5.4,16.57,5.4-4.87,7.59-2.73,12.26-1.17,14s9.7,6.48,12.81,8.43a54.77,54.77,0,0,0,8.95,3.89Z"/><path class="cls-5" d="M414.87,479.26a4.7,4.7,0,0,0-.45-.17,6,6,0,0,0-2.84-.22"/><path class="cls-5" d="M410.55,525s5.68-8.74,7.07-10.6c2.74-3.69,1-6.72,1.69-11.14a10.8,10.8,0,0,1,2.37-5.26"/><path class="cls-5" d="M458,522.37c6-1.66,7.44-9.69,5.37-13.75-1.62-3.17-9-6.76-12.84,1.35"/><path class="cls-5" d="M449.87,511.49c.19-.46.38-1,.56-1.55a27.75,27.75,0,0,0,0-16.95s-4.05-14.2-15-18"/><path class="cls-5" d="M502.31,580.14s3.1,1.45,4.92,2.55a32.48,32.48,0,0,0,6.38,2.18s-.19,1.64-1.46,1.64-7.65-.36-12-2.37c0,0-18.4.55-20.59-1.64s-6-9.11-7.83-11.66-24.6-29.33-28.61-35.53c-3-4.64-4.47-6-7-10.25-.85-1.41-1.81-3.14-3-5.42-2.28-4.38-6.52-13.13-10.61-22-3.08-6.7-6.07-13.49-8-18.54-.86-2.2-1.54-4.08-1.94-5.47-2.55-8.82-7.71-13-7.71-13"/><path class="cls-5" d="M513.61,584.87h8.53a2.08,2.08,0,0,0,1.74-.93l.48-.71s-1.82-.22-4.05-.57c-1.84-.28-4-.66-5.61-1.07-3.65-.91-5.65-1.64-5.65-1.64"/><path class="cls-5" d="M520.35,582.41h5.41a2.05,2.05,0,0,0,2.06-2V580s-1.76-.09-4.1-.24c-3.38-.23-8-.6-10.11-1"/><path class="cls-5" d="M226.05,119a2.25,2.25,0,0,0-3.09-.41,1.41,1.41,0,0,0-.85,1.37,2.63,2.63,0,0,0,.85,1.44c1.79.59,4,1.39,4.57,1.59"/><path class="cls-5" d="M230.65,122.19a14,14,0,0,1-4.51-3.2c-.68-.85-.88-1.71.05-2.34,1.08-.73,2.37-.23,3.54.62a16.61,16.61,0,0,1,3.19,3.33"/><path class="cls-5" d="M261.87,164.26c3.56,8.6,9.69,21.47,9.69,21.47,18.48,34.65,11.21,63,14.18,69.56s7.26,15.84,17.82,34,28,41.42,28,41.42c13.45,14.77,27,30.53,30.31,40.45.5,1.5,1,2.85,1.41,4.09,2.54,7,4.57,10.33,9.09,15.21,5.31,5.73,12.43,10.14,25.88,24.58,11.39,12.23,15.12,12.12,21.82,22.26,1.21,1.83,2.52,4,4,6.62,9.59,17.2,6.72,20.72,8.82,28.11.33,1.15.73,2.32,1.18,3.5,2.48,6.44,6.54,13.29,8.41,18.88,2.2,6.61,1.32,4.85,4.9,12.9a43.5,43.5,0,0,0,2.26,4.32c2.07,3.49,4.62,7,7.27,11a95.72,95.72,0,0,1,6.62,11.49c5.6,11.7,19.84,35.61,23.26,38.14s14.44,3.2,18,3.86,19.6,1.88,19.6,1.88l-.64,1.74"/><path class="cls-5" d="M237.38,119.24a5.29,5.29,0,0,1-3.16-2.59c-1.62-3.77,3.5-2.14,4.65,0,3.59.6,4.58,2,8.56,9.15s3.78,6.57,9.55,11.14,3.38,10.15,2.39,12.34-1.39,3.05.2,8.82a62.87,62.87,0,0,0,2.29,6.16"/><path class="cls-5" d="M234.22,116.65a5.61,5.61,0,0,0-3.43-1.6c-1.74,0-1.13,2-1.06,2.22a0,0,0,0,1,0,0"/><path class="cls-5" d="M392.76,470.1c2.7.28,5.05.59,6.77.93l13,2.59"/><path class="cls-5" d="M222.11,120a3.32,3.32,0,0,0-4.09,1.3c-1.58,2.41,4.28,3.85,5.45,4.6a28.43,28.43,0,0,1,5.77,4.53s3,2.75,6.35,9.48,6.66,15.17,10,22.31c0,0,1.06,2.43,2.47,6.13,2.11,5.57,5,14,6.24,21.28,2,12.07,5.95,24,8,38.08s-2,22.1,1.36,37.57,15.47,49.64,20.06,65.62,5.27,23.8,4.08,30.77-9.86,18.87-17.17,30.6-21.76,38.09-35.53,63.42-17.51,15-28.39,38.25c-6.72,14.38-13.89,28.88-19.47,39-3.46,6.3-6.31,10.93-8.07,12.81-4.6,4.93-8.81,13-4.94,15.81,6.42,4.58,13,1.68,18.4,2.36A33.52,33.52,0,0,1,204,567.36a24.76,24.76,0,0,0,12.34,2.46,38.52,38.52,0,0,0,10.7.75,6.25,6.25,0,0,0,2.79-.73,2.37,2.37,0,0,0-.87-4.36l-4.56-.78a54.77,54.77,0,0,1-8.95-3.89c-3.11-1.95-11.26-6.68-12.81-8.43s-3.7-6.42,1.17-14S225,507.62,235.67,494s15.76-20,19.27-22.38,6.81-9.73,11.48-14.59,19.46-18.49,31.14-37.56c0,0,10.51-13.82,13.43-14.21a144.61,144.61,0,0,1,14.36,16.44,59.22,59.22,0,0,1,3.35,5.16c5.64,9.93,5.44,13.63,15,22.58s12.61,15.18,17.4,17.12a35.46,35.46,0,0,0,7.45,1.35c6.93.79,16.87,1.41,24.22,2.2"/><path class="cls-5" d="M363.31,375.24h0a35.45,35.45,0,0,0-19,18.47c-6,13.81-18.59,27.55-19,28h0"/><path class="cls-5" d="M435.28,525.2c-7,2.76-14.95,2.25-24,1l-.76-1.19c-.24-.39-.56-.9-1-1.57,0,0-6.32-6.32-8.13-11.43-1.42-4-.41-5.15-3.18-7l-4.33-4.14,4.36-2.77-2.6-9.76c-.64-.69-4.49-6.62,6.29-8.72a2.58,2.58,0,0,0,.43-3.46c-1.33-1.85-9.15-5.83-9.64-6.08h0s-4.26-2.3-8.91-4.32c-3.64-1.59-7.52-3-9.75-3-4.32,0-5.55,5.16-5.55,5.16"/><path class="cls-5" d="M203.76,538.37s-7.14.82-16.57-5.4"/><path class="cls-5" d="M261.87,164.26h0c-.25-.08-9.28-2.78-13.84,4.08h0"/><path class="cls-5" d="M384.08,465.2s3.78-47.6,36-27.91"/></svg>