<svg id="Layer_1" data-name="Layer 1" xmlns="http://www.w3.org/2000/svg" viewBox="0 0 700 700"><defs><style>.cls-1{fill:#feae63;}.cls-2{fill:#99abcc;}.cls-3{fill:#392328;}.cls-4{fill:#c4e7f9;}.cls-5{fill:none;stroke:#000;stroke-linecap:round;stroke-linejoin:round;stroke-width:2.3px;}</style></defs><title>Yoga_poses_2020_color</title><path class="cls-1" d="M366.58,358.21c-2.32.37-10.08,0-10.08,0-9.32-1.41-17.32-12-19.71-30.16-2.33-17.72,11.62-20.38,12.27-20.49,10.81,1.91,17.5,5.25,21.73,9.43l.41.41a23,23,0,0,1,5.18,8.59,28.87,28.87,0,0,0,8.24,11.74c5.95,4.91,6.82,11,9.93,19.7a22.56,22.56,0,0,0,2.23,4.7c2.1,3.23,4.69,4.75,9.21,10.44,1.1,1.39,2.33,3,3.69,5l.71.9,1.19,1.5a3.48,3.48,0,0,0,3.65,1.19c1.69-.46,4.17-1.12,6.95-1.82,3-.75,6.25-1.55,9.24-2.18a33.56,33.56,0,0,0,7.16-2.45c4.83-2.22,8.85-5.12,12-6.65l.43-.21a10.9,10.9,0,0,0,2.5-1.64h0a11.49,11.49,0,0,0,2.32-2.68l1.06-1.69a11.46,11.46,0,0,1,3.93-3.84L469,352.1l1-.7,4.28-3.12,1.23-.89a2.48,2.48,0,0,1,1.46-.48,2.45,2.45,0,0,1,1.93.93,2.48,2.48,0,0,1-.22,3.34l-3.29,2.33,3-2.09a1.68,1.68,0,0,0,.29-.24l.1-.07a2.4,2.4,0,0,1,3,3.77c-1.45,1.27-3,2.61-3,2.61l2.84-.37h.24a1.9,1.9,0,0,1,.69,3.68L478,362.5l2.85-.42.28,0a1.87,1.87,0,0,1,.71,3.6L478,367.22l-1.16.48-3.42,3.66a14.67,14.67,0,0,1-7.49,4.28l-.07,0a15.09,15.09,0,0,0-4.64,1.9,121.88,121.88,0,0,0-12.18,8.82c-7.45,6-18,11.48-26.9,14.7-1.89.68-3.71,1.26-5.42,1.73a4.89,4.89,0,0,0-.58.19l-.6.23a6.86,6.86,0,0,1-5.08-.09l-3.76-1.55s-1-.54-2.69-1.62a100.35,100.35,0,0,1-27.8-26.58c-.65-.93-1.28-1.88-1.89-2.86C371.21,365.51,368.65,361.46,366.58,358.21Z"/><path class="cls-1" d="M477.4,381.43c0,5.41,1.1,8.4.91,13.24a6.18,6.18,0,0,1-6.15,5.77,6.29,6.29,0,0,1-1.05-.09l-13-2.19a11.6,11.6,0,0,0-3-.12l-6.07.56a18.48,18.48,0,0,0,0-12.22,121.88,121.88,0,0,1,12.18-8.82,15.09,15.09,0,0,1,4.64-1.9l.07,0a14.67,14.67,0,0,0,7.49-4.28l3.42-3.66,1.16-.48.27.65S477.4,376,477.4,381.43Z"/><path class="cls-1" d="M474.21,348.28l-4.28,3.12v-6.32a2,2,0,0,1,4-.15Z"/><path class="cls-1" d="M469.93,347.33v4.07l-1,.7a2.06,2.06,0,0,0-2.73-1.94l-1.44.5a48.5,48.5,0,0,0-.95-6,1.54,1.54,0,0,1,.9-1.82,3.36,3.36,0,0,1,1.34-.28,3.41,3.41,0,0,1,3.07,2l.24.49A5.53,5.53,0,0,1,469.93,347.33Z"/><path class="cls-1" d="M464.8,350.66l1.44-.5A2.06,2.06,0,0,1,469,352.1L460.85,358a11.46,11.46,0,0,0-3.93,3.84l-1.06,1.69a11.49,11.49,0,0,1-2.32,2.68h0l-5.73,1.2a7.77,7.77,0,0,0-3.81,2l-5.41,5.28a33.56,33.56,0,0,1-7.16,2.45c-3,.63-6.28,1.43-9.24,2.18h0a72.79,72.79,0,0,1-11.79-.86l-.71-.9c-1.36-2-2.59-3.62-3.69-5,0,0,1.5-.2,8.45-1.94,5.47-1.36,13.72-5.57,17-7.29a14.23,14.23,0,0,0,2.52-1.69l.57-.46a15,15,0,0,1,5.95-3,15.59,15.59,0,0,0,3.61-1.42l8.49-4.67,7.41-5.51a9.49,9.49,0,0,1,2.05-1.18l1.84-.78A48.5,48.5,0,0,1,464.8,350.66Z"/><path class="cls-2" d="M449.08,386.38a18.48,18.48,0,0,1,0,12.22l-26.9,2.48C431.1,397.86,441.63,392.41,449.08,386.38Z"/><path class="cls-3" d="M421.91,295c5-1.12,13.77,3.22,12.18,10.87s-8.08,7.26-8.08,7.26l-.82.06c-.46-.62-1-1.24-1.48-1.87a20.49,20.49,0,0,0-3.83-3l.05-.09C412.81,302.3,418.32,295.81,421.91,295Z"/><path class="cls-3" d="M425.19,313.2c9.67,12.95,6.58,24.52.81,38.45l-1.39.45s-7.28-7.94-8.78-9.81c-3-3.71-6.46-2.73-10.71-4.58s-6.2-5.62-6.27-8.06c0,0,3.35-5.25-2.72-5.69a9.42,9.42,0,0,0-7.93-2.3,6.27,6.27,0,0,1-3.16-.17,3.47,3.47,0,0,1-2-1.51c-1.58-2.8,2.15-7.64,2.15-7.64a25.55,25.55,0,0,1,17.71-8.42,28.62,28.62,0,0,1,17,4.38,20.49,20.49,0,0,1,3.83,3C424.23,312,424.73,312.58,425.19,313.2Z"/><path class="cls-1" d="M396.13,324c6.07.44,2.72,5.69,2.72,5.69.07,2.44,2,6.2,6.27,8.06s7.74.87,10.71,4.58c1.5,1.87,8.78,9.81,8.78,9.81l-1.82.58s-8,4.69-13.55,5.18c-4.39.38-5.25-.92-7.78,1.38l-4.67,2.89h0a22.56,22.56,0,0,1-2.23-4.7c-3.11-8.69-4-14.79-9.93-19.7A28.87,28.87,0,0,1,376.38,326a23,23,0,0,0-5.18-8.59c6.44,6.27,11.47,2.74,11.47,2.74l.39-.16a3.47,3.47,0,0,0,2,1.51,6.27,6.27,0,0,0,3.16.17A9.42,9.42,0,0,1,396.13,324Zm8,30.16c1.49-.05,2.67-.62,2.65-1.26s-1.25-1.12-2.73-1.07-2.68.62-2.65,1.27S402.61,354.18,404.09,354.12Z"/><path d="M406.74,352.86c0,.64-1.16,1.21-2.65,1.26s-2.71-.42-2.73-1.06,1.16-1.21,2.65-1.27S406.72,352.22,406.74,352.86Z"/><path class="cls-2" d="M404.05,400s-11.23,1.07-22.38,1.11-17.73-4.24-17.73-4.24a12.94,12.94,0,0,0,4.17-10.5l-.46-6.31a12.94,12.94,0,0,0-7.59-10.85,26,26,0,0,1,4.92.47h0a26.7,26.7,0,0,1,6.14,1.93,20.06,20.06,0,0,0,5.12,1.81A100.35,100.35,0,0,0,404.05,400Z"/><path class="cls-2" d="M349,364.58c4.15,1.59,8,3.23,11,4.6A12.94,12.94,0,0,1,367.65,380l.46,6.31a12.94,12.94,0,0,1-4.17,10.5l-.89.82a19.49,19.49,0,0,1-13,5.1c-16.36.14-54.82-1.11-66.5-1-3.26-6-1.15-18-1.15-18a10.42,10.42,0,0,1-2.23-.16,14.12,14.12,0,0,1-8.57-5.92l-1.17-2a6.53,6.53,0,0,0-10-1.48L250.8,383c-3.89,2.72-12,6.3-18.26,8.83,0,0-9.86-16.42,1.06-37.74,6.17-12,13.47-19,21.31-24,0,0,10.89-.83,16.29,2s10.18,9.43,16.29,16.67c5.54,6.56,9.6,7.27,10.32,7.35h.11c9.14.24,20.32.44,31.77,2.58A115.6,115.6,0,0,1,349,364.58Z"/><path class="cls-1" d="M365,369.65a26,26,0,0,0-4.92-.47c-3.05-1.37-6.88-3-11-4.6a77.63,77.63,0,0,0,7.47-6.37S361.26,367.07,365,369.65Z"/><path class="cls-4" d="M356.5,358.21a77.63,77.63,0,0,1-7.47,6.37,115.6,115.6,0,0,0-19.34-5.83c-11.45-2.14-22.63-2.34-31.77-2.58h-.11c-.72-.08-4.78-.79-10.32-7.35-6.11-7.24-11-13.87-16.29-16.67s-16.29-2-16.29-2c6-3.83,12.41-6.48,18.82-9.33,14.74-6.55,33.85-16.38,62-14.74a112.13,112.13,0,0,1,13.36,1.5c-.65.11-14.6,2.77-12.27,20.49C339.18,346.2,347.18,356.8,356.5,358.21Z"/><path class="cls-1" d="M280.2,383.58a10.42,10.42,0,0,0,2.23.16s-2.11,12,1.15,18c-1.26,0-2.2,0-2.78.07-7.4.55-14.92,1.16-14.92,1.16-7,1.47-30,1.89-30,1.89-2.12-.34-4.2-.61-6.05-.82a26.89,26.89,0,0,0-9.34.42,6,6,0,0,1-2.64.07c-2.53-.58-1.82-2.83-.88-3a6.12,6.12,0,0,0,2.13-1.29,10.25,10.25,0,0,1,6.46-5.7c1.59-.54,4.1-1.47,7-2.62,6.31-2.53,14.37-6.11,18.26-8.83l9.62-8.83a6.53,6.53,0,0,1,10,1.48l1.17,2a14.12,14.12,0,0,0,8.57,5.92Z"/><path class="cls-5" d="M398.85,329.65s3.35-5.25-2.72-5.69c0,0-5.68.69-7.14,6.24,0,0-.33,3.32,3.21,1.28"/><path class="cls-5" d="M384.62,333a9.63,9.63,0,0,0-2.95,1.36"/><path class="cls-5" d="M424.61,352.1s-7.28-7.94-8.78-9.81c-3-3.71-6.46-2.73-10.71-4.58s-6.2-5.62-6.27-8.06"/><path class="cls-5" d="M426,313.14s6.49.4,8.08-7.26-7.15-12-12.18-10.87c-3.59.8-9.1,7.29-2,13.2"/><path class="cls-5" d="M396.79,362.13l4.67-2.89c2.53-2.3,3.39-1,7.78-1.38,5.59-.49,13.55-5.18,13.55-5.18l1.82-.58,1.39-.45c5.77-13.93,8.86-25.5-.81-38.45-.46-.62-1-1.24-1.48-1.87a20.49,20.49,0,0,0-3.83-3,28.62,28.62,0,0,0-17-4.38,25.55,25.55,0,0,0-17.71,8.42s-3.73,4.84-2.15,7.64a3.47,3.47,0,0,0,2,1.51,6.27,6.27,0,0,0,3.16.17,9.42,9.42,0,0,1,7.93,2.3"/><path class="cls-5" d="M297.81,356.16c-3.66-.09-7-.19-9.88-.42"/><path class="cls-5" d="M345.47,380.31l-5-2.5a18.67,18.67,0,0,0-10.39-1.89,162.51,162.51,0,0,0-21.42,3.58,159.51,159.51,0,0,1-26.24,4.24,10.42,10.42,0,0,1-2.23-.16,14.12,14.12,0,0,1-8.57-5.92l-1.17-2a6.53,6.53,0,0,0-10-1.48L250.8,383c-3.89,2.72-12,6.3-18.26,8.83-2.86,1.15-5.37,2.08-7,2.62a10.25,10.25,0,0,0-6.46,5.7,6.12,6.12,0,0,1-2.13,1.29c-.94.2-1.65,2.45.88,3a6,6,0,0,0,2.64-.07,26.89,26.89,0,0,1,9.34-.42c1.85.21,3.93.48,6.05.82,0,0,23-.42,30-1.89,0,0,7.52-.61,14.92-1.16.58,0,1.52-.07,2.78-.07,11.68-.07,50.14,1.18,66.5,1a19.49,19.49,0,0,0,13-5.1l.89-.82a12.94,12.94,0,0,0,4.17-10.5l-.46-6.31a12.94,12.94,0,0,0-7.59-10.85c-3.05-1.37-6.88-3-11-4.6a115.6,115.6,0,0,0-19.34-5.83c-11.45-2.14-22.63-2.34-31.77-2.58"/><path class="cls-5" d="M453.53,366.22a10.9,10.9,0,0,1-2.5,1.64l-.43.21c-3.17,1.53-7.19,4.43-12,6.65a33.56,33.56,0,0,1-7.16,2.45c-3,.63-6.28,1.43-9.24,2.18-2.78.7-5.26,1.36-6.95,1.82a3.48,3.48,0,0,1-3.65-1.19l-1.19-1.5-.71-.9c-1.36-2-2.59-3.62-3.69-5-4.52-5.69-7.11-7.21-9.21-10.44a22.56,22.56,0,0,1-2.23-4.7c-3.11-8.69-4-14.79-9.93-19.7A28.87,28.87,0,0,1,376.38,326a23,23,0,0,0-5.18-8.59l-.41-.41c-4.23-4.18-10.92-7.52-21.73-9.43a112.13,112.13,0,0,0-13.36-1.5c-28.12-1.64-47.23,8.19-62,14.74-6.41,2.85-12.77,5.5-18.82,9.33-7.84,5-15.14,12-21.31,24-10.92,21.32-1.06,37.74-1.06,37.74"/><path class="cls-5" d="M478.61,351.18a2.48,2.48,0,0,0,.22-3.34,2.45,2.45,0,0,0-1.93-.93,2.48,2.48,0,0,0-1.46.48l-1.23.89-4.28,3.12-1,.7L460.85,358a11.46,11.46,0,0,0-3.93,3.84l-1.06,1.69a11.49,11.49,0,0,1-2.32,2.68"/><path class="cls-5" d="M478.61,351.18l-3.29,2.33,3-2.09A1.68,1.68,0,0,0,478.61,351.18Z"/><path class="cls-5" d="M358.51,345.77s1.73,2.47,8.07,12.44c2.07,3.25,4.63,7.3,7.78,12.32.61,1,1.24,1.93,1.89,2.86A100.35,100.35,0,0,0,404.05,400c1.69,1.08,2.69,1.62,2.69,1.62l3.76,1.55a6.86,6.86,0,0,0,5.08.09l.6-.23a4.89,4.89,0,0,1,.58-.19c1.71-.47,3.53-1.05,5.42-1.73,8.92-3.22,19.45-8.67,26.9-14.7a121.88,121.88,0,0,1,12.18-8.82,15.09,15.09,0,0,1,4.64-1.9l.07,0a14.67,14.67,0,0,0,7.49-4.28l3.42-3.66,1.16-.48,3.76-1.56a1.87,1.87,0,0,0-.71-3.6l-.28,0-2.85.42,4.43-1.71a1.9,1.9,0,0,0-.69-3.68h-.24l-2.84.37s1.59-1.34,3-2.61a2.4,2.4,0,0,0-3-3.77l-.1.07"/><path class="cls-5" d="M349,364.62l0,0a77.63,77.63,0,0,0,7.47-6.37"/><path class="cls-5" d="M282.43,383.74s-2.11,12,1.15,18"/><path class="cls-5" d="M254.91,330.13s10.89-.83,16.29,2,10.18,9.43,16.29,16.67c5.54,6.56,9.6,7.27,10.32,7.35h.11"/><path class="cls-5" d="M349.08,307.55h0c-.65.11-14.6,2.77-12.27,20.49,2.39,18.15,10.39,28.75,19.71,30.16,0,0,4.76,8.86,8.48,11.44"/><path class="cls-5" d="M382.67,320.14s-5,3.53-11.47-2.74l-.41-.41"/><path class="cls-5" d="M478.31,367.87s-.91,8.16-.91,13.56,1.1,8.4.91,13.24a6.18,6.18,0,0,1-6.15,5.77,6.29,6.29,0,0,1-1.05-.09l-13-2.19a11.6,11.6,0,0,0-3-.12l-6.07.56-26.9,2.48"/><path class="cls-5" d="M363.94,396.84s6.58,4.27,17.73,4.24S404.05,400,404.05,400"/><path class="cls-5" d="M360.06,369.18a26,26,0,0,1,4.92.47h0a26.7,26.7,0,0,1,6.14,1.93,20.06,20.06,0,0,0,5.12,1.81"/><path class="cls-5" d="M469,352.1a2.06,2.06,0,0,0-2.73-1.94l-1.44.5-5.68,1.13"/><path class="cls-5" d="M469.93,351.4v-6.32a2,2,0,0,1,4-.15l.24,3.35"/><path class="cls-5" d="M464.8,350.66a48.5,48.5,0,0,0-.95-6,1.54,1.54,0,0,1,.9-1.82,3.36,3.36,0,0,1,1.34-.28,3.41,3.41,0,0,1,3.07,2l.24.49a5.53,5.53,0,0,1,.53,2.36"/><path class="cls-5" d="M463.85,344.63l-1.84.78a9.49,9.49,0,0,0-2.05,1.18l-7.41,5.51-8.49,4.67a15.59,15.59,0,0,1-3.61,1.42,15,15,0,0,0-5.95,3l-.57.46a14.23,14.23,0,0,1-2.52,1.69c-3.25,1.72-11.5,5.93-17,7.29-6.95,1.74-8.45,1.94-8.45,1.94"/><path class="cls-5" d="M438.58,374.72l5.41-5.28a7.77,7.77,0,0,1,3.81-2l5.73-1.2h0"/><path class="cls-5" d="M410.39,378.48a72.79,72.79,0,0,0,11.79.86"/><path class="cls-5" d="M356.5,358.21s7.76.37,10.08,0"/><path class="cls-5" d="M449.08,386.38a18.48,18.48,0,0,1,0,12.22"/></svg>