<svg id="Layer_1" data-name="Layer 1" xmlns="http://www.w3.org/2000/svg" viewBox="0 0 700 700"><defs><style>.cls-1{fill:#feae63;}.cls-2{fill:#120c0c;}.cls-3{fill:#c4e7f9;}.cls-4{fill:#99abcc;}.cls-5{fill:none;stroke:#000;stroke-linecap:round;stroke-linejoin:round;stroke-width:2.3px;}</style></defs><title>Yoga_poses_2020_color</title><path class="cls-1" d="M459.17,517.66c0,.05,0,.09,0,.14a1.59,1.59,0,0,1-1.59,1.45l-3.81,0-.48,0v-.08a1.36,1.36,0,0,0-1-1.33l.67-2.85,5,1.19A1.59,1.59,0,0,1,459.17,517.66Z"/><path class="cls-1" d="M423.15,306.06a8.82,8.82,0,0,1-1.11-1.63c-1.58-5.87,4.48-4.44,4.48-4.44,2.27-.86,5.19-3.94,5.55-8.56s-1.71-7.6.82-11.62c1.28-2,6.39-11.51,6.39-11.51l1.15,1.53s7,6,9.33,11.1c1.8,4,.86,5.27,3.86,6.91l4.81,3.9L454.17,295l3.49,9.84c.72.66,5.18,6.45-5.76,9.52,0,0-6.61,1.57-8.89,5.9,0,0-5.43,10.64-13.06,16.53-5.83,4.5-8.62,12.63-8.79,13.14l0,0c-.13-1.08-2.61-19.14-14.62-17.42-12.38,1.76-23.26,16.1-23.26,16.1s-7.07-8.35-6.73-12.32c0,0,19-21.79,33.56-20.13a25.3,25.3,0,0,0,4.54,2.47s8.3,3.65,7.66-2.67a7.23,7.23,0,0,0-.63-2.28c-1.74-3.69,1.38-7.44,1.38-7.44ZM447.81,290c.6-.24.65-1.55.11-2.94s-1.46-2.32-2.06-2.08-.65,1.54-.11,2.93S447.21,290.19,447.81,290Z"/><path class="cls-1" d="M398.65,376.67c-21.54-.85-15.39-28.14-15.39-28.14s10.88-14.34,23.26-16.1c12-1.72,14.49,16.34,14.62,17.42a.18.18,0,0,1,0,0v0a39.19,39.19,0,0,1,5.61,22.1c-.71,15.64-2.41,23.79-.25,37.8s1.37,18.52,2.41,24.06,2.22,12.38,0,28.67l-7.11,39.93a5.54,5.54,0,0,0,2.2,5.5l1,.75a5.63,5.63,0,0,0,2.25,1c2.91.53,10.1,1.81,11.69,2,1.09.1,3.1.32,4.7.5l-.07.63,9.27,2.19-.67,2.85a1.36,1.36,0,0,1,1,1.33v.08a1.35,1.35,0,0,1-1.46,1.26l-10.21-.79a1.28,1.28,0,0,1-1.26,1.09h-.16l-11.31-1.35s-10.18-.25-12.44-1.65c-1-.63-3.58-6.18-4.15-10.09,0,0-1.54-22.62-1.54-29.13S413,450.13,413,446.87a14.77,14.77,0,0,0-1.14-5,23.24,23.24,0,0,1-1.48-6c-.4-3.81-1.1-8-1.94-13.06-1.3-7.82-5.08-23.13-6.45-30.63-.17-.93-.34-1.92-.52-3A87.62,87.62,0,0,0,398.65,376.67Z"/><path d="M447.92,287c.54,1.39.49,2.7-.11,2.94s-1.53-.71-2.06-2.09-.49-2.7.11-2.93S447.38,285.64,447.92,287Z"/><path class="cls-2" d="M438.4,267.14l.88,1.16s-5.11,9.48-6.39,11.51c-2.53,4-.45,7-.82,11.62s-3.28,7.7-5.55,8.56c0,0-6.06-1.43-4.48,4.44a8.82,8.82,0,0,0,1.11,1.63l-.11.1s-3.12,3.75-1.38,7.44a7.23,7.23,0,0,1,.63,2.28c.64,6.32-7.66,2.67-7.66,2.67a25.35,25.35,0,0,1-13.75-14,29.39,29.39,0,0,1-2.17-10.47,28.35,28.35,0,0,1,.74-7,20.76,20.76,0,0,1,1.61-4.61q.75-1.25,1.53-2.37C411.61,267.11,423.49,266.25,438.4,267.14Z"/><path class="cls-1" d="M410.09,316.08c-14.58-1.66-33.56,20.13-33.56,20.13h0a57.86,57.86,0,0,0,4-5.92c6.08-10.42,0-17.93,0-17.93s-10.42-19.42-13.46-27A94.34,94.34,0,0,0,356.24,266c-2.83-3.69-19.81-49.73-21.76-53.64h0a14,14,0,0,0,.47-2.63,91.28,91.28,0,0,1,2.58-16l4,7.57,3.69,8s10.21,17.81,13.25,23,11.51,18.46,12.81,23.67,11.6,23.23,13.95,25.85h0a11.16,11.16,0,0,0,1.06,7.71c1.43,2.31,6.13,4.6,9.8,2.13l2.68,2.42a29.39,29.39,0,0,0,2.17,10.47A25.43,25.43,0,0,0,410.09,316.08Z"/><path class="cls-2" d="M402,279.75l.57.4q-.78,1.13-1.53,2.37a20.76,20.76,0,0,0-1.61,4.61l-.1,0A9.13,9.13,0,0,1,396,291.7c-3.67,2.47-8.37.18-9.8-2.13a11.16,11.16,0,0,1-1.06-7.71h0c.72-3.53,3-6.79,7.34-7.35C400.27,273.49,402,279.75,402,279.75Z"/><path class="cls-3" d="M401.5,389.22h0a13,13,0,0,1-8.84,4.8,16,16,0,0,0-7.57,3.15c-4.27,3.26-11,8.06-14.4,8.7-5,.93-13.05,4-33.41,6.69l0-.19a64,64,0,0,1,.16-24.74s2.74-14.46-.54-22.12l2-.47c16-5.42,30-18.82,37.64-28.84h0c-.34,4,6.73,12.32,6.73,12.32s-6.15,27.29,15.39,28.14A87.62,87.62,0,0,1,401.5,389.22Z"/><path class="cls-1" d="M342.7,176.1a2,2,0,0,1,1.46,1.29,1.87,1.87,0,0,1,.1.62,2,2,0,0,1-1,1.71l-.35.17-.37,1.48a15,15,0,0,1-1.61,4,35.87,35.87,0,0,0-3.41,8.34,91.28,91.28,0,0,0-2.58,16,14,14,0,0,1-.47,2.63c-2,7.06-8.66,4-10.54,3.44-1.41-.44-2.75-.8-6.84,7.08-3.75-10.6-14.8-9.81-14.8-9.81a45.28,45.28,0,0,0,5-7.39c2.77-5.38,7.5-13.52,7.5-13.52l2.28-3.1.91.15a1.8,1.8,0,0,0,1.77-.75,1.83,1.83,0,0,0,.33-1,1.8,1.8,0,0,0-.79-1.49l1,.67a2.48,2.48,0,0,0,3-4l0,0a1.83,1.83,0,0,0,2.55-.24l.69-.82a1.83,1.83,0,0,0-.15-2.52l.17-.15,6.87-7.89,3.77-2.81a2.22,2.22,0,0,1,2.48-.11l.39.23a2.22,2.22,0,0,1,.92,2.7h0l-.08,0-1.35-.27a1.22,1.22,0,0,0-.75.09l-2.89,1.65.76,1.52,3.26-1.18a1.8,1.8,0,0,1,1.05-.05l.9.23a1.08,1.08,0,0,1,.27.1,1.44,1.44,0,0,1,.8,1.48l-.18,1.52Z"/><path class="cls-1" d="M342.1,172.51v.55a1.08,1.08,0,0,0-.27-.1l-.9-.23a1.8,1.8,0,0,0-1.05.05L336.61,174l-.76-1.52,2.89-1.65a1.22,1.22,0,0,1,.75-.09l1.35.27.08,0A1.55,1.55,0,0,1,342.1,172.51Z"/><path class="cls-4" d="M275.71,380.62c-3.09-6.36-8.63-23-10.42-30.3s-8-28.67-8-28.67-8.14-36-9.28-41.21-.16-10.27,0-13.69,2.12-8.3,12.22-13.84,18.89-16.13,28.5-25.41a163.14,163.14,0,0,0,13.55-14.44s11-.79,14.8,9.81c-1.92,3.69-4.43,9.19-7.84,17.33-10.68,25.52-26.32,31.43-28.87,33.5s.16,10.53,3.67,18,12.92,35.58,17.23,42.44,9.89,11.05,18.82,16.32,13.68,15.75,13.68,15.75l3.09-.73c3.28,7.66.54,22.12.54,22.12a64,64,0,0,0-.16,24.74l0,.19-2.43.31a55.87,55.87,0,0,1-17.63-.63l-.12.63s-.33,3.91,1.79,25.41,1.3,36,0,43.82S317.41,492,314,498.88s-22.8.81-34.37.81-22.32-1-37.47-2.6a70.31,70.31,0,0,0-13.94.17h0A35.31,35.31,0,0,1,226.37,479c11.25-1.18,30-4.72,30-4.72,17.1-5.86,32.9.82,32.9.82s-1-4.89-3.26-15.15-7.82-22.48-10.58-42.19A132.46,132.46,0,0,1,275.71,380.62Z"/><path class="cls-1" d="M326.32,179a1.83,1.83,0,0,1,.15,2.52l-.69.82a1.83,1.83,0,0,1-2.55.24,1.83,1.83,0,0,1-.32-2.51l.64-.87a1.84,1.84,0,0,1,2.69-.28l.05,0Z"/><path class="cls-1" d="M323.26,182.62a2.48,2.48,0,0,1-3,4l-1-.67,0,0a1.68,1.68,0,0,1-.25-2.52l1.15-1.24a1.7,1.7,0,0,1,2.29-.16l.77.62Z"/><path class="cls-1" d="M320.1,187.41a1.83,1.83,0,0,1-.33,1,1.8,1.8,0,0,1-1.77.75l-.91-.15-2.28,3.1-.4-2.39a2.22,2.22,0,0,1,.51-1.82l1.46-1.67a2.22,2.22,0,0,1,2.89-.38l0,0A1.8,1.8,0,0,1,320.1,187.41Z"/><path class="cls-1" d="M228.21,497.25h0a172.76,172.76,0,0,0-24.5,4.39L191,502.79H166.3a2.25,2.25,0,0,1-.44,0l-4.6-.73a2.77,2.77,0,0,1-2.34-2.74v-.08a2.34,2.34,0,0,1,.49-1.44,2.79,2.79,0,0,1,2.2-1.07,2.71,2.71,0,0,1,1,.2,2.83,2.83,0,0,0,1,.2h1.06a2.81,2.81,0,0,0,2.17-1,7.58,7.58,0,0,1,3.27-2.35c1.45-.53,3.65-1.3,6.48-2.16,5.38-1.63,9-2.77,16.78-12.22s11.4-5.86,15-2.77,3.91,3.26,13.84,2.77c1.18-.06,2.57-.17,4.09-.33A35.31,35.31,0,0,0,228.21,497.25Z"/><path class="cls-5" d="M426.52,300s-6.06-1.43-4.48,4.44a8.82,8.82,0,0,0,1.11,1.63,8.32,8.32,0,0,0,7.12,3.07s3.24-.77.16-3.45"/><path class="cls-5" d="M434.33,312.35s2.94,4.69,7.74,3.55"/><path class="cls-5" d="M439.28,268.3s-5.11,9.48-6.39,11.51c-2.53,4-.45,7-.82,11.62s-3.28,7.7-5.55,8.56"/><path class="cls-5" d="M385.17,281.86a11.16,11.16,0,0,0,1.06,7.71c1.43,2.31,6.13,4.6,9.8,2.13a9.13,9.13,0,0,0,3.32-4.59"/><path class="cls-5" d="M402,279.75s-1.75-6.26-9.51-5.25c-4.33.56-6.62,3.82-7.34,7.35"/><path class="cls-5" d="M423,306.16s-3.12,3.75-1.38,7.44a7.23,7.23,0,0,1,.63,2.28c.64,6.32-7.66,2.67-7.66,2.67"/><path class="cls-5" d="M441.58,519.66h0l10.21.79a1.35,1.35,0,0,0,1.46-1.26v-.08a1.36,1.36,0,0,0-1-1.33l-11.54-2.66"/><path class="cls-5" d="M453.76,519.22l3.81,0a1.59,1.59,0,0,0,1.59-1.45s0-.09,0-.14a1.59,1.59,0,0,0-1.25-1.54l-5-1.19-9.27-2.19"/><path class="cls-5" d="M432.09,515.2l8.68,3.06a1.28,1.28,0,0,1,.84,1.38v0a1.28,1.28,0,0,1-1.26,1.09h-.16l-11.31-1.35s-10.18-.25-12.44-1.65c-1-.63-3.58-6.18-4.15-10.09,0,0-1.54-22.62-1.54-29.13S413,450.13,413,446.87a14.77,14.77,0,0,0-1.14-5,23.24,23.24,0,0,1-1.48-6c-.4-3.81-1.1-8-1.94-13.06-1.3-7.82-5.08-23.13-6.45-30.63-.17-.93-.34-1.92-.52-3a87.62,87.62,0,0,0-2.85-12.55c-1-2.86-2.23-5-3.86-5.66"/><path class="cls-5" d="M418.83,346.57a25.74,25.74,0,0,1,2.31,3.28l0,0a39.19,39.19,0,0,1,5.61,22.1c-.71,15.64-2.41,23.79-.25,37.8s1.37,18.52,2.41,24.06,2.22,12.38,0,28.67l-7.11,39.93a5.54,5.54,0,0,0,2.2,5.5l1,.75a5.63,5.63,0,0,0,2.25,1c2.91.53,10.1,1.81,11.69,2,1.09.1,3.1.32,4.7.5l2.39.28,11.47,2.86"/><path class="cls-5" d="M338.93,177.65l1.25-1.13a1.74,1.74,0,0,1,1.19-.46h.94a1.72,1.72,0,0,1,.39,0,2,2,0,0,1,1.46,1.29,1.87,1.87,0,0,1,.1.62,2,2,0,0,1-1,1.71l-.35.17-.37,1.48a15,15,0,0,1-1.61,4,35.87,35.87,0,0,0-3.41,8.34,91.28,91.28,0,0,0-2.58,16,14,14,0,0,1-.47,2.63c-2,7.06-8.66,4-10.54,3.44-1.41-.44-2.75-.8-6.84,7.08-1.92,3.69-4.43,9.19-7.84,17.33-10.68,25.52-26.32,31.43-28.87,33.5s.16,10.53,3.67,18,12.92,35.58,17.23,42.44,9.89,11.05,18.82,16.32,13.68,15.75,13.68,15.75l3.09-.73,2-.47c16-5.42,30-18.82,37.64-28.84a57.86,57.86,0,0,0,4-5.92c6.08-10.42,0-17.93,0-17.93s-10.42-19.42-13.46-27A94.34,94.34,0,0,0,356.24,266c-2.83-3.69-19.81-49.73-21.76-53.64"/><path class="cls-5" d="M336.61,174l3.26-1.18a1.8,1.8,0,0,1,1.05-.05l.9.23a1.08,1.08,0,0,1,.27.1,1.44,1.44,0,0,1,.8,1.48l-.18,1.52"/><path class="cls-5" d="M335.85,172.44l2.89-1.65a1.22,1.22,0,0,1,.75-.09l1.35.27.08,0a1.55,1.55,0,0,1,1.18,1.52V173"/><path class="cls-5" d="M340.92,171a2.22,2.22,0,0,0-.92-2.7l-.39-.23a2.22,2.22,0,0,0-2.48.11L333.36,171l-6.87,7.89"/><path class="cls-5" d="M319.27,185.89a2.22,2.22,0,0,0-2.89.38l-1.46,1.67a2.22,2.22,0,0,0-.51,1.82l.4,2.39s-4.73,8.14-7.5,13.52a45.28,45.28,0,0,1-5,7.39,163.14,163.14,0,0,1-13.55,14.44c-9.61,9.28-18.4,19.87-28.5,25.41S248.18,263.33,248,266.75s-1.14,8.47,0,13.69,9.28,41.21,9.28,41.21,6.19,21.34,8,28.67,7.33,23.94,10.42,30.3a132.46,132.46,0,0,0-.32,37.14c2.76,19.71,8.3,31.93,10.58,42.19s3.26,15.15,3.26,15.15l1.47,4.23"/><path class="cls-5" d="M314.81,192.15l2.28-3.1.91.15a1.8,1.8,0,0,0,1.77-.75,1.83,1.83,0,0,0,.33-1,1.8,1.8,0,0,0-.79-1.49"/><path class="cls-5" d="M319.31,185.92l0,0a1.68,1.68,0,0,1-.25-2.52l1.15-1.24a1.7,1.7,0,0,1,2.29-.16l.77.62,0,0a2.48,2.48,0,0,1-3,4Z"/><path class="cls-5" d="M323.23,182.59a1.83,1.83,0,0,1-.32-2.51l.64-.87a1.84,1.84,0,0,1,2.69-.28l.05,0,0,0a1.83,1.83,0,0,1,.15,2.52l-.69.82A1.83,1.83,0,0,1,323.23,182.59Z"/><path class="cls-5" d="M289.23,475.1s-15.8-6.68-32.9-.82c0,0-18.71,3.54-30,4.72-1.52.16-2.91.27-4.09.33-9.93.49-10.26.33-13.84-2.77s-7.17-6.68-15,2.77-11.4,10.59-16.78,12.22c-2.83.86-5,1.63-6.48,2.16a7.58,7.58,0,0,0-3.27,2.35,2.81,2.81,0,0,1-2.17,1h-1.06a2.83,2.83,0,0,1-1-.2,2.71,2.71,0,0,0-1-.2,2.79,2.79,0,0,0-2.2,1.07,2.34,2.34,0,0,0-.49,1.44v.08a2.77,2.77,0,0,0,2.34,2.74l4.6.73a2.25,2.25,0,0,0,.44,0H191l12.7-1.14a172.76,172.76,0,0,1,24.5-4.39,70.31,70.31,0,0,1,13.94-.17c15.15,1.63,25.91,2.6,37.47,2.6s30.95,6,34.37-.81,3.59-9,4.89-16.78,2.12-22.32,0-43.82-1.79-25.41-1.79-25.41"/><path class="cls-5" d="M226.37,479a35.31,35.31,0,0,0,1.84,18.25"/><path class="cls-5" d="M275.71,380.62s4.26,7,8.08,10.91"/><path class="cls-5" d="M296.4,403.91a57.29,57.29,0,0,0,20.81,8.32h0a55.87,55.87,0,0,0,17.63.63l2.43-.31c20.36-2.7,28.39-5.76,33.41-6.69,3.4-.64,10.13-5.44,14.4-8.7a16,16,0,0,1,7.57-3.15,13,13,0,0,0,8.84-4.8"/><path class="cls-5" d="M337.25,412.37a64,64,0,0,1,.16-24.74s2.74-14.46-.54-22.12"/><path class="cls-5" d="M337.52,193.7l4,7.57,3.69,8s10.21,17.81,13.25,23,11.51,18.46,12.81,23.67,11.6,23.23,13.95,25.85h0"/><path class="cls-5" d="M358.84,258.83l1.87,1.28a6.3,6.3,0,0,0,3.56,1.11"/><path class="cls-5" d="M414.63,318.55a25.35,25.35,0,0,1-13.75-14,29.39,29.39,0,0,1-2.17-10.47,28.35,28.35,0,0,1,.74-7,20.76,20.76,0,0,1,1.61-4.61q.75-1.25,1.53-2.37c9-13,20.9-13.9,35.81-13l.88,1.16,1.15,1.53s7,6,9.33,11.1c1.8,4,.86,5.27,3.86,6.91l4.81,3.9L454.17,295l3.49,9.84c.72.66,5.18,6.45-5.76,9.52,0,0-6.61,1.57-8.89,5.9,0,0-5.43,10.64-13.06,16.53-5.83,4.5-8.62,12.63-8.79,13.14v0a.18.18,0,0,0,0,0c-.13-1.08-2.61-19.14-14.62-17.42-12.38,1.76-23.26,16.1-23.26,16.1s-6.15,27.29,15.39,28.14"/><path class="cls-5" d="M383.26,348.53s-7.07-8.35-6.73-12.32"/><path class="cls-5" d="M376.53,336.21s19-21.79,33.56-20.13"/><path class="cls-5" d="M410.09,316.08s1.18,3.48-1.82,4.41"/><line class="cls-5" x1="396.03" y1="291.7" x2="398.71" y2="294.12"/><path class="cls-5" d="M302.29,213.06s11-.79,14.8,9.81"/></svg>