<svg id="Layer_1" data-name="Layer 1" xmlns="http://www.w3.org/2000/svg" viewBox="0 0 700 700"><defs><style>.cls-1{fill:#99abcc;}.cls-2{fill:#feae63;}.cls-3{fill:#c4e7f9;}.cls-4{fill:#392328;}.cls-5{fill:none;stroke:#000;stroke-linecap:round;stroke-linejoin:round;stroke-width:2.3px;}</style></defs><title>Yoga_poses_2020_color</title><path class="cls-1" d="M323.16,466c-16.1-2.39-31.21-8.83-40-18.23h0c-4.83-5.18-7.73-11.26-7.81-18.05-.16-13.69,7.76-30.5,13.06-43.48l.68.28s12.66,8.33,25.74,9.59c4,4.36,10.62,10.59,16.95,16.32L330.2,418,347,425.82a9,9,0,0,1,2.11,2.67,8.88,8.88,0,0,0,2.4,2.91l9.39,7.44a15.91,15.91,0,0,0,3.57,2.13,14.18,14.18,0,0,1,4.63,3.18l9.4,9.65a1.67,1.67,0,0,0,1.18.5,1.59,1.59,0,0,0,.7-.16,1.66,1.66,0,0,0,.68-2.39l-6.79-10.47,15.06,10.19a1.63,1.63,0,0,0,.94.29,1.71,1.71,0,0,0,1.1-.41,1.69,1.69,0,0,0,0-2.54l-11.13-8.58L391.69,447h0c.83.61,27.48,20,29.62,29,1.93,8.07,2.61,21.5-13,21.72s-52.12-8.26-67.11-15.64a111.09,111.09,0,0,0-19.73-7.57C320.89,469,323.16,466,323.16,466Z"/><path class="cls-2" d="M288.49,332.83l-4.17,1.78c-.19-.53-.37-1-.55-1.52-1.55-4.19-1.82-12.51-1.82-17V305.64c0-1.08.59-5,.79-6.07a29.56,29.56,0,0,1,1.47-5.11c4.72-8.83,10.36-10.16,10.36-10.16l.3-.05c2-.3,13.64-1.4,15.3,13.31,1,9.13,2.05,17.13,3,24.79.7,5.88,1.33,11.56,1.84,17.4,1.18,13.47,3.11,21.79,7.09,29.33,2.08,4,8.3,13.42,14.71,22.73,5.14,7.46,10.41,14.81,13.78,19.15a29.39,29.39,0,0,0,2.45,2.77l2.42,2.42a29.49,29.49,0,0,0,3.34,2.88l34.54,25.6a1.42,1.42,0,0,1-1.59,2.35h0l-11.46-6.74,11.13,8.58a1.69,1.69,0,0,1,0,2.54,1.71,1.71,0,0,1-1.1.41,1.63,1.63,0,0,1-.94-.29l-15.06-10.19,6.79,10.47a1.66,1.66,0,0,1-.68,2.39,1.59,1.59,0,0,1-.7.16,1.67,1.67,0,0,1-1.18-.5l-9.4-9.65a14.18,14.18,0,0,0-4.63-3.18,15.91,15.91,0,0,1-3.57-2.13l-9.39-7.44a8.88,8.88,0,0,1-2.4-2.91,9,9,0,0,0-2.11-2.67c-2.6-2.24-8.72-7.55-15.18-13.4s-13-12-16.95-16.32c-.86-1-1.6-1.81-2.18-2.55-4-5.11-7.34-8.84-9.46-11.07a14,14,0,0,1-3.37-6.05c-1.67-6.29-5.17-19.38-7.69-27.67C290.88,344.54,289.59,338.6,288.49,332.83Z"/><path class="cls-2" d="M309.07,247.89a9.27,9.27,0,0,1-.29-2c1.24-6.17,6.19-2,6.19-2,2.5.25,6.62-1.27,9.08-5.37s1.9-7.82,6.09-10.39c2.11-1.29,11.2-7.72,11.2-7.72h0l.36,2s3.76,8.77,3.53,14.57c-.18,4.55-1.62,5.26.4,8.16l2.66,5.82-5.42,1-1.29,10.71c.37.94,1.83,8.34-9.7,6.16,0,0-4.93-.86-7.13,1.2a17.47,17.47,0,0,0-5,10.28,14.18,14.18,0,0,0,3.38,10.84c2.57,3.17,8.63,12.37,13.27,19.55L324,309.32s-9-28.93-29.08-25.07l-.3.05s-5.64,1.33-10.36,10.16c4.49-11.71,14.55-16,15.5-33.8,2,0,3.55-2.13,4.53-5.84,1.7-5.73,4.67-6.89,4.67-6.89Zm31.67-6.23c.14-1.53-.29-2.82-.95-2.88s-1.31,1.13-1.45,2.66.29,2.82,1,2.88S340.6,243.19,340.74,241.66Z"/><path class="cls-3" d="M342.42,319.93s3.38,5.72,1.56,22.36-7,42.87-7,49.37l-.21.15c-6.41-9.31-12.63-18.77-14.71-22.73-4-7.54-5.91-15.86-7.09-29.33-.51-5.84-1.14-11.52-1.84-17.4,0,0,9.8-5.12,10.82-13l12.49,1.29C339.81,315.8,342.42,319.93,342.42,319.93Z"/><path class="cls-4" d="M341.07,218.87l.28,1.48h0s-9.09,6.43-11.2,7.72c-4.19,2.57-3.64,6.28-6.09,10.39s-6.58,5.62-9.08,5.37c0,0-5-4.12-6.19,2a9.27,9.27,0,0,0,.29,2l-.16,0s-3,1.16-4.67,6.89c-1,3.71-2.49,5.82-4.53,5.84-1.78,0-4-1.57-6.5-5.07-5.45-7.5-4.09-19.29-4.09-19.29a29.69,29.69,0,0,1,6.7-16.82,21.78,21.78,0,0,1,3.61-3.53q1.17-.75,2.31-1.38C316.18,206.49,327.6,211.17,341.07,218.87Z"/><path d="M339.79,238.78c.66.06,1.09,1.35.95,2.88s-.79,2.72-1.45,2.66-1.09-1.35-1-2.88S339.13,238.72,339.79,238.78Z"/><path class="cls-2" d="M323.16,466s-2.27,3-1.7,8.5a60.6,60.6,0,0,0-10.68-2,19.87,19.87,0,0,0-14,4.35c-2,1.57-4.21,4.25-6.18,5.44a3.13,3.13,0,0,0-1.51,2.68v.21a3.13,3.13,0,0,0,2.44,3.06l1.39.32a3.13,3.13,0,0,1-.7,6.19h-.12l-8.5-.33s-7.38-1.74-6.51-9.56,4.12-11.08,4.34-21.5-2.4-15.59,1.73-15.62h0C292,457.16,307.06,463.6,323.16,466Z"/><path class="cls-2" d="M324,309.32c-1,7.91-10.82,13-10.82,13-.91-7.66-1.93-15.66-3-24.79-1.66-14.71-13.29-13.61-15.3-13.31C314.91,280.39,324,309.32,324,309.32Z"/><path class="cls-3" d="M312.68,393.55c.58.74,1.32,1.6,2.18,2.55-13.08-1.26-25.74-9.59-25.74-9.59l-.68-.28c2.1-5.15,3.79-9.69,4.4-13.2,1.52-8.66-4.67-27.74-8.52-38.42l4.17-1.78c1.1,5.77,2.39,11.71,3.67,15.93,2.52,8.29,6,21.38,7.69,27.67a14,14,0,0,0,3.37,6.05C305.34,384.71,308.71,388.44,312.68,393.55Z"/><path class="cls-4" d="M301.59,213.83l.15.74q-1.14.63-2.31,1.38a21.78,21.78,0,0,0-3.61,3.53l-.08-.06c-7,6.53-12.93,0-13.27-3.76-.49-5.3,5.1-13.69,12.74-11.06S301.59,213.83,301.59,213.83Z"/><path class="cls-5" d="M283.2,447.76c8.75,9.4,23.86,15.84,40,18.23,25,3.69,60.17,10.42,73,24.76"/><path class="cls-5" d="M299.71,260.66c-.95,17.8-11,22.09-15.5,33.8a29.56,29.56,0,0,0-1.47,5.11c-.2,1.06-.79,5-.79,6.07v10.47c0,4.47.27,12.79,1.82,17,.18.48.36,1,.55,1.52,3.85,10.68,10,29.76,8.52,38.42-.61,3.51-2.3,8.05-4.4,13.2-5.3,13-13.22,29.79-13.06,43.48.08,6.79,3,12.87,7.81,18.05"/><path class="cls-5" d="M315,243.83s-5-4.12-6.19,2a9.27,9.27,0,0,0,.29,2,8.57,8.57,0,0,0,5.17,6.12s3.36.77,1.74-3.12"/><path class="cls-5" d="M316.52,258.86s.57,5.69,5.54,6.84"/><path class="cls-5" d="M341.34,220.35s-9.09,6.43-11.2,7.72c-4.19,2.57-3.64,6.28-6.09,10.39s-6.58,5.62-9.08,5.37"/><path class="cls-5" d="M301.59,213.83s1.25-6.6-6.38-9.23-13.23,5.76-12.74,11.06c.34,3.79,6.28,10.29,13.27,3.76"/><path class="cls-5" d="M308.91,247.93s-3,1.16-4.67,6.89c-1,3.71-2.49,5.82-4.53,5.84-1.78,0-4-1.57-6.5-5.07-5.45-7.5-4.09-19.29-4.09-19.29"/><path class="cls-5" d="M289.12,236.3a29.69,29.69,0,0,1,6.7-16.82,21.78,21.78,0,0,1,3.61-3.53q1.17-.75,2.31-1.38c14.44-8.08,25.86-3.4,39.33,4.3l.28,1.48.36,2s3.76,8.77,3.53,14.57c-.18,4.55-1.62,5.26.4,8.16l2.66,5.82-5.42,1-1.29,10.71c.37.94,1.83,8.34-9.7,6.16,0,0-4.93-.86-7.13,1.2a17.47,17.47,0,0,0-5,10.28,14.18,14.18,0,0,0,3.38,10.84c2.57,3.17,8.63,12.37,13.27,19.55,3.37,5.19,6,9.32,6,9.32s3.38,5.72,1.56,22.36-7,42.87-7,49.37"/><path class="cls-5" d="M391.69,447l-11.46-6.74,11.13,8.58a1.69,1.69,0,0,1,0,2.54,1.71,1.71,0,0,1-1.1.41,1.63,1.63,0,0,1-.94-.29l-15.06-10.19,6.79,10.47a1.66,1.66,0,0,1-.68,2.39,1.59,1.59,0,0,1-.7.16,1.67,1.67,0,0,1-1.18-.5l-9.4-9.65a14.18,14.18,0,0,0-4.63-3.18,15.91,15.91,0,0,1-3.57-2.13l-9.39-7.44a8.88,8.88,0,0,1-2.4-2.91,9,9,0,0,0-2.11-2.67c-2.6-2.24-8.72-7.55-15.18-13.4s-13-12-16.95-16.32c-.86-1-1.6-1.81-2.18-2.55-4-5.11-7.34-8.84-9.46-11.07a14,14,0,0,1-3.37-6.05c-1.67-6.29-5.17-19.38-7.69-27.67-1.28-4.22-2.57-10.16-3.67-15.93-1.83-9.61-3.17-18.77-3.17-18.77"/><path class="cls-5" d="M294.87,284.25c2-.3,13.64-1.4,15.3,13.31,1,9.13,2.05,17.13,3,24.79.7,5.88,1.33,11.56,1.84,17.4,1.18,13.47,3.11,21.79,7.09,29.33,2.08,4,8.3,13.42,14.71,22.73,5.14,7.46,10.41,14.81,13.78,19.15a29.39,29.39,0,0,0,2.45,2.77l2.42,2.42a29.49,29.49,0,0,0,3.34,2.88l34.54,25.6a1.42,1.42,0,0,1-1.59,2.35"/><path class="cls-5" d="M391.69,447h0c.83.61,27.48,20,29.62,29,1.93,8.07,2.61,21.5-13,21.72s-52.12-8.26-67.11-15.64a111.09,111.09,0,0,0-19.73-7.57,60.6,60.6,0,0,0-10.68-2,19.87,19.87,0,0,0-14,4.35c-2,1.57-4.21,4.25-6.18,5.44a3.13,3.13,0,0,0-1.51,2.68v.21a3.13,3.13,0,0,0,2.44,3.06l1.39.32a3.13,3.13,0,0,1-.7,6.19h-.12l-8.5-.33s-7.38-1.74-6.51-9.56,4.12-11.08,4.34-21.5-2.4-15.59,1.73-15.62h0"/><path class="cls-5" d="M289.12,386.51s12.66,8.33,25.74,9.59"/><path class="cls-5" d="M313.13,322.35s9.8-5.12,10.82-13c0,0-9-28.93-29.08-25.07l-.3.05s-5.64,1.33-10.36,10.16"/><line class="cls-5" x1="323.95" y1="309.32" x2="336.44" y2="310.61"/><polyline class="cls-5" points="346.99 425.82 330.2 417.95 331.81 412.42"/><path class="cls-5" d="M323.16,466s-2.27,3-1.7,8.5"/><line class="cls-5" x1="284.32" y1="334.61" x2="288.49" y2="332.83"/></svg>