<svg id="Layer_1" data-name="Layer 1" xmlns="http://www.w3.org/2000/svg" viewBox="0 0 700 700"><defs><style>.cls-1{fill:#99abcc;}.cls-2{fill:#feae63;}.cls-3{fill:#c4e7f9;}.cls-4{fill:#120c0c;}.cls-5{fill:none;stroke:#000;stroke-linecap:round;stroke-linejoin:round;stroke-width:2.3px;}</style></defs><title>Yoga_poses_2020_color</title><path class="cls-1" d="M432.34,396.06c0-5,.34-9,1.44-11.21l-.08-.69c5.56-.63,6.53-.28,7.51-5.54,1.19-6.42-2.75-23.11-7.41-32.35,0,0,6.9-5.65,15.51-2.25S462,352,462,359.43c0,20-6.41,39.34-14.24,69.44-10.5,1.86-16.78-2.48-16.78-2.48h0a27.57,27.57,0,0,0,1.3-7C432.71,411.43,432.27,402.87,432.34,396.06Z"/><path class="cls-2" d="M447.4,481.34h-2.89a2.1,2.1,0,0,1-.46.68,2.13,2.13,0,0,1-1.52.63,14.44,14.44,0,0,1-4.7-.78l-4-1.39c-5.45-1.74-3.89-9.12-3.89-9.12s1.52-10.21,1.52-12-.44-3-4.11-5.21-9.75-6.91-5-13.68c1.36-1.95,2.78-3.83,4.07-5.47a27.72,27.72,0,0,0,4.59-8.65h0s6.28,4.34,16.78,2.48a34.52,34.52,0,0,0-1.48,6.69c-.07,1.41-.12,3.1-.08,4.95a107.84,107.84,0,0,1-.44,15,87.7,87.7,0,0,0-.09,13,7.4,7.4,0,0,0,.48,2.13l1.76,4.54,1,.92,2.23,2.06a1.85,1.85,0,0,1,.6,1.36,1.59,1.59,0,0,1-.12.62,1.82,1.82,0,0,1-1.73,1.23H447.4Z"/><path class="cls-2" d="M417.34,365.9l-.15-.35s-7.13-20.73-11.62-30.28-6.78-2.59-6.78-2.59l-.17,0a68.89,68.89,0,0,1-1.51-9.69,183.07,183.07,0,0,1-.44-22.72l.13-.52c2,.52,4.07,1,6,1.27,0,0,9.67.73,14.43,11.29s9.77,23,15.05,31.15a29.13,29.13,0,0,1,1.56,2.77c4.66,9.24,8.6,25.93,7.41,32.35-1,5.26-1.95,4.91-7.51,5.54a66.74,66.74,0,0,0-7.8,1.32,304.19,304.19,0,0,1-34,5c-7.65.72-14.56,1-18.71.64-10.2-1-8.12-15.74-8.62-26.12-.11-2.31-.12-5-.07-7.72.12-7.06.61-14.55.65-17.27a1.17,1.17,0,0,1,1.1-1.14h.06a1.16,1.16,0,0,1,1.16,1.07c.32,4.44,3.05,20.56,3.75,23.06.61,2.19,1.39,10.25,1.73,14.07a2.15,2.15,0,0,0,2.23,2,140.82,140.82,0,0,0,15.12-1.51,16.3,16.3,0,0,0,1.88-.42C398.74,375.3,409.56,369.15,417.34,365.9Z"/><path class="cls-1" d="M342.79,395.49s23.28,6.33,42,1.39c3.87-4.87,6.27-6.08,7.05-6.36a304.19,304.19,0,0,0,34-5,66.74,66.74,0,0,1,7.8-1.32l.08.69c-1.1,2.2-1.4,6.24-1.44,11.21-2.33,4.62-18.5,35.9-33.55,43.2-14.12,6.85-15.7,5.72-30.2,4.27a36.79,36.79,0,0,0-7.27,0c-14.7,1.46-17.21,2.6-31.36-4.26C313.7,431.37,296,395.49,296,395.49c-.06-4.71-.39-8.53-1.45-10.64v-.74a67.37,67.37,0,0,1,8.26,1.37c7.69,1.76,21.62,3.51,33.79,4.53l0,.43S338.73,390.77,342.79,395.49Z"/><path class="cls-2" d="M405.57,335.27s-.87,1.07-2.78,5.75c-1.89-1.38-3.23-4.44-4.17-8.3l.17,0S401.08,325.72,405.57,335.27Z"/><path class="cls-3" d="M402.79,341c-.56,1.37-1.2,3-1.94,5.09-3.26,9.05-8.71,31-8.71,31a16.3,16.3,0,0,1-1.88.42,140.82,140.82,0,0,1-15.12,1.51,2.15,2.15,0,0,1-2.23-2c-.34-3.82-1.12-11.88-1.73-14.07-.7-2.5-3.43-18.62-3.75-23.06a1.16,1.16,0,0,0-1.16-1.07h-.06a1.17,1.17,0,0,0-1.1,1.14c0,2.72-.53,10.21-.65,17.27h-.59c.07-7.05-.2-14.54-.24-17.27a1.16,1.16,0,0,0-1.1-1.14h-.06a1.15,1.15,0,0,0-1.15,1.07c-.32,4.44-3.05,20.56-3.75,23.06-.62,2.19-1.39,10.25-1.73,14.07a2.16,2.16,0,0,1-2.24,2,140.68,140.68,0,0,1-15.11-1.51,16.44,16.44,0,0,1-1.89-.42h0c-.15-.59-5.49-22.09-8.71-31-.74-2.05-1.38-3.72-1.93-5.09,1.89-1.38,3.23-4.44,4.16-8.3a68.29,68.29,0,0,0,1.51-9.65h.09c16.31,8.68,44.19,10.35,64.76,0l.63-.05a68.89,68.89,0,0,0,1.51,9.69C399.56,336.58,400.9,339.64,402.79,341Z"/><path class="cls-2" d="M397.11,323l-.63.05c-20.57,10.35-48.45,8.68-64.76,0h-.09a181.51,181.51,0,0,0,.44-22.76l-.13-.52c7.22-1.82,14.64-4.56,16.82-5.79,3.74-2.12,3-8.28,2.73-14.62l.58-.19c2.61,2.07,6.7,3.81,13.07,3.69,0,0,7,0,11.85-3.92l.27.42c-.24,6.34-1,12.5,2.73,14.62,2.17,1.23,9.59,4,16.81,5.79l-.13.52A183.07,183.07,0,0,0,397.11,323Z"/><path class="cls-3" d="M391.86,390.52c-.78.28-3.18,1.49-7.05,6.36-18.74,4.94-42-1.39-42-1.39-4.06-4.72-6.19-5.05-6.19-5.05l0-.43a186.17,186.17,0,0,0,19.27.88c10.48-.37,6.85-13.76,7.7-26,.16-2.27.23-4.89.26-7.57h.59c0,2.74,0,5.41.07,7.72.5,10.38-1.58,25.14,8.62,26.12C377.3,391.56,384.21,391.24,391.86,390.52Z"/><path class="cls-2" d="M387.4,255s.31,5-2.17,8.13c0,0-1.53,1.4-1-2.26l-.33-.05c.05-.32.08-.64.11-.94l.36-5.89.33,0C385.38,252.9,386.74,251.24,387.4,255Z"/><path class="cls-4" d="M343.37,251.56c-.11.71-.13,1.13-.13,1.13S338.05,237,347.07,229a21.21,21.21,0,0,1,6.87-4.09c8-3,16.51-1.18,19.4-.4.66.18,1,.3,1,.3,18.37,7.37,10.33,27.25,10.33,27.25a5.68,5.68,0,0,0-.12-.78,43.9,43.9,0,0,0-2.12-6.65c-3.78-9.82-17.32-9.83-17.32-9.83C347.19,234.93,343.94,247.64,343.37,251.56Z"/><path class="cls-2" d="M384.58,251.29l-.17,2.65-.36,5.89c0,.3-.06.62-.11.94-.55,4-2.36,9.08-2.9,11.58A11.44,11.44,0,0,1,377,279c-4.81,3.9-11.85,3.92-11.85,3.92-6.37.12-10.46-1.62-13.07-3.69a12.31,12.31,0,0,1-4.41-6.54c-.82-3.06-2.71-8.78-3.26-11.92-.07-.46-.12-.86-.14-1.19l-.68-6.09-.21-1.89c.57-3.92,3.82-16.63,21.77-16.75,0,0,13.54,0,17.32,9.83A43.9,43.9,0,0,1,384.58,251.29Zm-11.23,6.21a2.33,2.33,0,1,0-2-2.29A2.16,2.16,0,0,0,373.35,257.5Zm-18.12-.25a2.32,2.32,0,1,0-2-2.28A2.15,2.15,0,0,0,355.23,257.25Z"/><path d="M375.31,255.19a2,2,0,1,1-2-2.29A2.16,2.16,0,0,1,375.31,255.19Z"/><path class="cls-4" d="M374.47,224.51h-1.13c-2.89-.78-11.4-2.59-19.4.4l-.16-.41c0-5.36,4.63-9.7,10.34-9.7S374.47,219.15,374.47,224.51Z"/><path class="cls-2" d="M311.41,365.9c7.77,3.25,18.59,9.39,25.19,11.23h0a16.44,16.44,0,0,0,1.89.42,140.68,140.68,0,0,0,15.11,1.51,2.16,2.16,0,0,0,2.24-2c.34-3.82,1.11-11.88,1.73-14.07.7-2.5,3.43-18.62,3.75-23.06a1.15,1.15,0,0,1,1.15-1.07h.06a1.16,1.16,0,0,1,1.1,1.14c0,2.73.31,10.22.24,17.27,0,2.68-.1,5.3-.26,7.57-.85,12.24,2.78,25.63-7.7,26a186.17,186.17,0,0,1-19.27-.88c-12.17-1-26.1-2.77-33.79-4.53a67.37,67.37,0,0,0-8.26-1.37c-5.16-.57-6.11-.37-7.06-5.49-1.17-6.39,2.72-22.93,7.34-32.2a30.77,30.77,0,0,1,1.64-2.92c5.28-8.18,10.3-20.59,15.05-31.15S326,301.06,326,301.06c1.89-.31,3.91-.75,5.95-1.27l.13.52a181.51,181.51,0,0,1-.44,22.76,68.29,68.29,0,0,1-1.51,9.65l-.16,0s-2.3-7-6.79,2.59-11.61,30.28-11.61,30.28Z"/><path d="M357.19,254.94a2,2,0,1,1-2-2.28A2.15,2.15,0,0,1,357.19,254.94Z"/><path class="cls-2" d="M344.4,260.73l-.22,0c.73,3.64-.87,2.29-.87,2.29-2.6-3-2.5-8-2.5-8,.43-3.22,1.55-2.47,2.29-1.54l.48-.05.68,6.09C344.28,259.87,344.33,260.27,344.4,260.73Z"/><path class="cls-2" d="M330,332.68l.16,0c-.93,3.86-2.27,6.92-4.16,8.3-1.92-4.68-2.79-5.75-2.79-5.75C327.66,325.72,330,332.68,330,332.68Z"/><path class="cls-2" d="M281,481.34h-2.48a1.82,1.82,0,0,1-1.73-1.23,1.59,1.59,0,0,1-.12-.62,1.85,1.85,0,0,1,.6-1.36l2.23-2.06,1-.92,1.76-4.54a7.75,7.75,0,0,0,.48-2.13,88.09,88.09,0,0,0-.1-13,107.56,107.56,0,0,1-.43-15c0-1.85,0-3.54-.09-4.95a34.49,34.49,0,0,0-1.47-6.69c10.5,1.86,16.78-2.48,16.78-2.48A27.54,27.54,0,0,0,302,435c1.29,1.64,2.71,3.52,4.07,5.47,4.74,6.77-1.34,11.51-5,13.68s-4.11,3.48-4.11,5.21,1.52,12,1.52,12,1.56,7.38-3.89,9.12l-4,1.39a14.38,14.38,0,0,1-4.69.78,2.15,2.15,0,0,1-1.52-.63,2.18,2.18,0,0,1-.37-.49l-.26-.18Z"/><path class="cls-1" d="M296.09,419.4a27.57,27.57,0,0,0,1.3,7s-6.28,4.34-16.78,2.48c-7.83-30.1-14.25-49.4-14.25-69.44,0-7.48,4.08-12,12.7-15.41s15.51,2.25,15.51,2.25l.3.15c-4.62,9.27-8.51,25.81-7.34,32.2,1,5.12,1.9,4.92,7.06,5.49v.74c1.06,2.11,1.39,5.93,1.45,10.64C296.12,402.39,295.64,411.21,296.09,419.4Z"/><path class="cls-5" d="M353.78,224.51c0-5.36,4.63-9.7,10.34-9.7s10.35,4.34,10.35,9.7"/><path class="cls-5" d="M343.37,251.56c.57-3.92,3.82-16.63,21.77-16.75,0,0,13.54,0,17.32,9.83a43.9,43.9,0,0,1,2.12,6.65,5.68,5.68,0,0,1,.12.78s8-19.88-10.33-27.25c0,0-.37-.12-1-.3-2.89-.78-11.4-2.59-19.4.4a21.21,21.21,0,0,0-6.87,4.09c-9,8-3.83,23.68-3.83,23.68S343.26,252.27,343.37,251.56Z"/><path class="cls-5" d="M384.74,254c.64-1.06,2-2.72,2.66,1,0,0,.31,5-2.17,8.13,0,0-1.53,1.4-1-2.26"/><path class="cls-5" d="M343.1,253.5c-.74-.93-1.86-1.68-2.29,1.54,0,0-.1,5,2.5,8,0,0,1.6,1.35.87-2.29"/><path class="cls-5" d="M343.27,250.7l.1.86.21,1.89.68,6.09c0,.33.07.73.14,1.19.55,3.14,2.44,8.86,3.26,11.92a12.31,12.31,0,0,0,4.41,6.54c2.61,2.07,6.7,3.81,13.07,3.69,0,0,7,0,11.85-3.92a11.44,11.44,0,0,0,4.05-6.61c.54-2.5,2.35-7.58,2.9-11.58.05-.32.08-.64.11-.94l.36-5.89.17-2.65.07-1.2"/><path class="cls-5" d="M365.83,262.89a4.28,4.28,0,0,1-4.43-.13"/><polyline class="cls-5" points="359.1 270.31 360.04 270.69 363 269.82 364.11 270.51 365.34 269.85 367.99 270.8 368.85 270.57"/><line class="cls-5" x1="362.93" y1="275.25" x2="365.48" y2="275.28"/><path class="cls-5" d="M336.6,377.13c-6.6-1.84-17.42-8-25.19-11.23-3-1.27-5.56-2.09-7.24-2.07"/><path class="cls-5" d="M351.49,279.38c.24,6.34,1,12.5-2.73,14.62-2.18,1.23-9.6,4-16.82,5.79-2,.52-4.06,1-5.95,1.27,0,0-9.68.73-14.43,11.29s-9.77,23-15.05,31.15a30.77,30.77,0,0,0-1.64,2.92c-4.62,9.27-8.51,25.81-7.34,32.2,1,5.12,1.9,4.92,7.06,5.49a67.37,67.37,0,0,1,8.26,1.37c7.69,1.76,21.62,3.51,33.79,4.53a186.17,186.17,0,0,0,19.27.88c10.48-.37,6.85-13.76,7.7-26,.16-2.27.23-4.89.26-7.57.07-7.05-.2-14.54-.24-17.27a1.16,1.16,0,0,0-1.1-1.14h-.06a1.15,1.15,0,0,0-1.15,1.07c-.32,4.44-3.05,20.56-3.75,23.06-.62,2.19-1.39,10.25-1.73,14.07a2.16,2.16,0,0,1-2.24,2,140.68,140.68,0,0,1-15.11-1.51,16.44,16.44,0,0,1-1.89-.42"/><path class="cls-5" d="M332.07,300.31a181.51,181.51,0,0,1-.44,22.76,68.29,68.29,0,0,1-1.51,9.65c-.93,3.86-2.27,6.92-4.16,8.3"/><path class="cls-5" d="M330,332.68s-2.3-7-6.79,2.59-11.61,30.28-11.61,30.28"/><path class="cls-5" d="M323.17,335.27S324,336.34,326,341c.55,1.37,1.19,3,1.93,5.09,3.22,8.93,8.56,30.43,8.71,31h0"/><path class="cls-5" d="M336.6,390.44s2.13.33,6.19,5.05c2.78,3.23,6.47,8.53,11,17.21"/><path class="cls-5" d="M377.26,279.38c-.24,6.34-1,12.5,2.73,14.62,2.17,1.23,9.59,4,16.81,5.79,2,.52,4.07,1,6,1.27,0,0,9.67.73,14.43,11.29s9.77,23,15.05,31.15a29.13,29.13,0,0,1,1.56,2.77c4.66,9.24,8.6,25.93,7.41,32.35-1,5.26-1.95,4.91-7.51,5.54a66.74,66.74,0,0,0-7.8,1.32,304.19,304.19,0,0,1-34,5c-7.65.72-14.56,1-18.71.64-10.2-1-8.12-15.74-8.62-26.12-.11-2.31-.12-5-.07-7.72.12-7.06.61-14.55.65-17.27a1.17,1.17,0,0,1,1.1-1.14h.06a1.16,1.16,0,0,1,1.16,1.07c.32,4.44,3.05,20.56,3.75,23.06.61,2.19,1.39,10.25,1.73,14.07a2.15,2.15,0,0,0,2.23,2,140.82,140.82,0,0,0,15.12-1.51,16.3,16.3,0,0,0,1.88-.42c6.6-1.84,17.42-8,25.2-11.24,3-1.27,5.56-2.09,7.24-2.07"/><path class="cls-5" d="M396.67,300.31a183.07,183.07,0,0,0,.44,22.72,68.89,68.89,0,0,0,1.51,9.69c.94,3.86,2.28,6.92,4.17,8.3"/><path class="cls-5" d="M398.79,332.68s2.29-7,6.78,2.59,11.62,30.28,11.62,30.28"/><path class="cls-5" d="M405.57,335.27s-.87,1.07-2.78,5.75c-.56,1.37-1.2,3-1.94,5.09-3.26,9.05-8.71,31-8.71,31"/><path class="cls-5" d="M392.14,390.44l-.28.08c-.78.28-3.18,1.49-7.05,6.36A100.3,100.3,0,0,0,375,412.7"/><path class="cls-5" d="M433.78,384.85c-1.1,2.2-1.4,6.24-1.44,11.21-.07,6.81.37,15.37-.07,23.34A27.92,27.92,0,0,1,426.38,435c-1.29,1.64-2.71,3.52-4.07,5.47-4.74,6.77,1.34,11.51,5,13.68s4.11,3.48,4.11,5.21-1.52,12-1.52,12-1.56,7.38,3.89,9.12l4,1.39a14.44,14.44,0,0,0,4.7.78,2.13,2.13,0,0,0,1.52-.63,2.1,2.1,0,0,0,.46-.68,2.05,2.05,0,0,0,.17-.83,2.16,2.16,0,0,0-1.19-1.93L439,476.34"/><path class="cls-5" d="M432.62,395.49l-.28.57c-2.33,4.62-18.5,35.9-33.55,43.2-14.12,6.85-15.7,5.72-30.2,4.27a36.79,36.79,0,0,0-7.27,0c-14.7,1.46-17.21,2.6-31.36-4.26C313.7,431.37,296,395.49,296,395.49"/><path class="cls-5" d="M342.79,395.49s23.28,6.33,42,1.39"/><path class="cls-5" d="M331.72,323.08c16.31,8.68,44.19,10.35,64.76,0"/><path class="cls-5" d="M444.68,481.34h2.72a1.51,1.51,0,0,0,.88-2.73l-3.6-2.59"/><path class="cls-5" d="M448.91,481.34h1a1.82,1.82,0,0,0,1.73-1.23,1.59,1.59,0,0,0,.12-.62,1.85,1.85,0,0,0-.6-1.36l-2.23-2.06-1-.92-1.76-4.54a7.4,7.4,0,0,1-.48-2.13,87.7,87.7,0,0,1,.09-13,107.84,107.84,0,0,0,.44-15c0-1.85,0-3.54.08-4.95a34.52,34.52,0,0,1,1.48-6.69c7.83-30.1,14.25-49.4,14.24-69.44,0-7.48-4.08-12-12.69-15.41s-15.51,2.25-15.51,2.25"/><path class="cls-5" d="M451.74,480.15h.31a1.64,1.64,0,0,0,.38-3.24l-3.52-.84"/><path class="cls-5" d="M431,426.39s6.28,4.34,16.78,2.48"/><path class="cls-5" d="M294.58,384.85c1.06,2.11,1.39,5.93,1.45,10.64.09,6.9-.39,15.72.06,23.91A27.84,27.84,0,0,0,302,435c1.29,1.64,2.71,3.52,4.07,5.47,4.74,6.77-1.34,11.51-5,13.68s-4.11,3.48-4.11,5.21,1.52,12,1.52,12,1.56,7.38-3.89,9.12l-4,1.39a14.38,14.38,0,0,1-4.69.78,2.15,2.15,0,0,1-1.52-.63,2.18,2.18,0,0,1-.37-.49,2.09,2.09,0,0,1-.26-1,2.16,2.16,0,0,1,1.19-1.93l4.46-2.23"/><path class="cls-5" d="M283.69,481.34H281a1.51,1.51,0,0,1-.88-2.73l3.61-2.59"/><path class="cls-5" d="M279.46,481.34h-1a1.82,1.82,0,0,1-1.73-1.23,1.59,1.59,0,0,1-.12-.62,1.85,1.85,0,0,1,.6-1.36l2.23-2.06,1-.92,1.76-4.54a7.75,7.75,0,0,0,.48-2.13,88.09,88.09,0,0,0-.1-13,107.56,107.56,0,0,1-.43-15c0-1.85,0-3.54-.09-4.95a34.49,34.49,0,0,0-1.47-6.69c-7.83-30.1-14.25-49.4-14.25-69.44,0-7.48,4.08-12,12.7-15.41s15.51,2.25,15.51,2.25"/><path class="cls-5" d="M276.63,480.15h-.31a1.64,1.64,0,0,1-.38-3.24l3.52-.84"/><path class="cls-5" d="M297.39,426.39s-6.28,4.34-16.78,2.48"/></svg>