<svg id="Layer_1" data-name="Layer 1" xmlns="http://www.w3.org/2000/svg" viewBox="0 0 700 700"><defs><style>.cls-1{fill:#feae63;}.cls-2{fill:#99abcc;}.cls-3{fill:#c4e7f9;}.cls-4{fill:#120c0c;}.cls-5{fill:none;stroke:#000;stroke-linecap:round;stroke-linejoin:round;stroke-width:2.3px;}</style></defs><title>Yoga_poses_2020_color</title><path class="cls-1" d="M408.45,341.2l-.5-1.05c-4.49-9.55-6.78-2.59-6.78-2.59l-.27.06a67.49,67.49,0,0,1-1.52-9.71,183.07,183.07,0,0,1-.44-22.72l.14-.55c2.08.53,4.14,1,6.06,1.3,0,0,9.67.73,14.43,11.29s10.28,22.17,14.05,31.15c4.51,10.8,11.78,27.38,10.46,34.51,0,0-.33,1.35-.84,3a5.12,5.12,0,0,1-5.7,3.55,43.93,43.93,0,0,0-8-.41c-9,.2-21.28-3.91-32.38-7.74h0c-8.64-3-16.59-5.8-21.82-6.31-10.44-1-6.85-12.76-7.7-25-.21-3-.27-6-.27-8.86,0-5.08.21-9.56.25-12a1.15,1.15,0,0,1,1.1-1.13h.07A1.14,1.14,0,0,1,370,329c.11,1.55.52,4,1,6.71,1,5,2.27,10.71,2.73,12.34.51,1.83,2.51,8.84,3.36,13.34a3.55,3.55,0,0,0,2.82,2.82l17,3.92,1.3.24a80.06,80.06,0,0,0,23.63.42S413.09,351,408.45,341.2Z"/><path class="cls-1" d="M408,340.15l.5,1.05a14,14,0,0,0-3.42,4.68c-1.88-1.39-3.2-4.43-4.13-8.26l.27-.06S403.46,330.6,408,340.15Z"/><path class="cls-2" d="M354.48,447.37a5.47,5.47,0,0,0-1.39.65c-1.21.43-2.89.7-3.78-.66a9.65,9.65,0,0,1-1.52-7.82,18,18,0,0,1,2.21-5.21c3-5.05,8.25-4.56,12.32-7.82s18.73-7.65,18.73-7.65l7.47-1.81h0l8.33.85a1.37,1.37,0,0,0,1.51-1.19,1.15,1.15,0,0,0,0-.19,1.37,1.37,0,0,0-1.38-1.37v0l1.58,0a1.41,1.41,0,0,0,1.46-1.4,1.64,1.64,0,0,0-.09-.56l1.26-.4,2.11,6.61c1.52,4.67.32,10.53,0,13.79s.1,5.32-4.35,14.12a24.19,24.19,0,0,1-13.24,11.47,5,5,0,0,1-1.09,1.78c-7.66,9-17.11,11.24-22,10.75-3.55-.36-8.12-5.08-10.36-7.65a9.66,9.66,0,0,1-2-3.48l-.34-1.09c-.75-3.68-.35-6.24.45-8a7.07,7.07,0,0,1,2.64-3.07A7.84,7.84,0,0,0,354.48,447.37Z"/><path class="cls-3" d="M405,345.88a25.18,25.18,0,0,0-1.8,5.11c-1.85,7.65-4.2,10.68-5.07,17.42l-1.3-.24-17-3.92a3.55,3.55,0,0,1-2.82-2.82c-.85-4.5-2.85-11.51-3.36-13.34-.46-1.63-1.77-7.33-2.73-12.34h0c10.18-.36,18.8-3.27,27.77-7.79l.63,0a67.49,67.49,0,0,0,1.52,9.71C401.83,341.45,403.15,344.49,405,345.88Z"/><path class="cls-1" d="M397.14,412.09l1.63.26a1.29,1.29,0,0,1,1.18.84,1.64,1.64,0,0,1,.09.56,1.41,1.41,0,0,1-1.46,1.4l-1.58,0h-1.27a3.16,3.16,0,0,0-1.06.15l-4.56,1.4-1.58.38h0l-7.47,1.81s-14.66,4.39-18.73,7.65S353,429.28,350,434.33a18,18,0,0,0-2.21,5.21l-.78-.16s-1.38.33-5.28,1.31c.84-13-6.45-17.88-6.88-18.16a65.21,65.21,0,0,0,7.55-.72A35,35,0,0,0,346,421l1.76-5.92a5.29,5.29,0,0,1,4.21-3.75,13.64,13.64,0,0,1,5.27.32c6.19,1.46,9.94,4.88,15.15,1.79l7-4.48a10.94,10.94,0,0,1,4.7-1.68l3.69-.43a10.86,10.86,0,0,0,1.51-.28,11.11,11.11,0,0,1,6,.1l3.47,1,1.4.42a2.16,2.16,0,0,1-.62,4.23l-.31,0-1.93-.28Z"/><path class="cls-1" d="M399.38,327.91l-.63,0c-9,4.52-17.59,7.43-27.77,7.79h0c-.5-2.68-.91-5.16-1-6.71a1.14,1.14,0,0,0-1.14-1.07h-.07a1.15,1.15,0,0,0-1.1,1.13c0,2.42-.25,6.9-.25,12H366c0-5.07-.21-9.55-.25-12a1.15,1.15,0,0,0-1.1-1.13h-.07a1.16,1.16,0,0,0-1.15,1.07c-.11,1.5-.49,3.89-1,6.48-10-.7-21.34-3.76-28.47-7.56h-.09a182.58,182.58,0,0,0,.45-22.76l-.13-.52c7.22-1.82,14.64-4.56,16.81-5.79,3.74-2.12,3-8.28,2.73-14.62l.58-.19c2.61,2.07,6.7,3.81,13.07,3.69,0,0,7,0,11.85-3.92l.38.42c-.24,6.34-1,12.5,2.73,14.62,2.16,1.23,9.52,3.94,16.71,5.76l-.14.55A183.07,183.07,0,0,0,399.38,327.91Z"/><path class="cls-2" d="M334.85,422.53c.43.28,7.72,5.13,6.88,18.16-3.82,1-10.06,2.54-19.81,5a133.13,133.13,0,0,1-20.19,3.36,273.67,273.67,0,0,1-31.93.88c-8.47-.16-11.9-2.93-17.11-5.87S248,431.56,248,431.56c.81-12.7,24.27-20.2,40.23-21.34,10.63-.76,22.84-1.15,29.81-1.34v-.12l4.56-4.24c2.44-2.19,4.64-6.12,6.4-10.08.78.12,41.07,6.08,67.83,1.06h.11a46,46,0,0,0,1.86,12.12l0,.13-3.47-1a11.11,11.11,0,0,0-6-.1,10.86,10.86,0,0,1-1.51.28l-3.69.43a10.94,10.94,0,0,0-4.7,1.68l-7,4.48c-5.21,3.09-9-.33-15.15-1.79a13.64,13.64,0,0,0-5.27-.32,5.29,5.29,0,0,0-4.21,3.75L346,421a35,35,0,0,1-3.63.77A65.21,65.21,0,0,1,334.85,422.53Z"/><path class="cls-3" d="M397.18,381.25h0a118,118,0,0,0-.27,14.24h-.11c-26.76,5-67.05-.94-67.83-1.06a98.66,98.66,0,0,0,4.37-12.19c9.72-3.33,18.88-6.74,24.69-7.31,10.44-1,6.86-12.76,7.7-25,.21-3,.28-6,.28-8.87h1.38c0,2.85.06,5.89.27,8.86.85,12.24-2.74,24,7.7,25C380.59,375.45,388.54,378.27,397.18,381.25Z"/><path class="cls-1" d="M389.67,259.83s.31,5-2.17,8.13c0,0-1.53,1.4-1-2.26l-.33-.05c.05-.32.08-.64.11-.94l.36-5.89.33,0C387.65,257.78,389,256.12,389.67,259.83Z"/><path class="cls-4" d="M345.64,256.44c-.11.71-.13,1.13-.13,1.13s-5.19-15.65,3.83-23.68a21.21,21.21,0,0,1,6.87-4.09c8-3,16.51-1.18,19.4-.4.66.18,1,.3,1,.3C395,237.07,387,257,387,257a5.68,5.68,0,0,0-.12-.78,43.9,43.9,0,0,0-2.12-6.65c-3.78-9.82-17.32-9.83-17.32-9.83C349.46,239.81,346.21,252.52,345.64,256.44Z"/><path class="cls-1" d="M386.85,256.17l-.17,2.65-.36,5.89c0,.3-.06.62-.11.94-.55,4-2.36,9.08-2.9,11.58a11.44,11.44,0,0,1-4.05,6.61c-4.81,3.9-11.85,3.92-11.85,3.92-6.37.12-10.46-1.62-13.07-3.69a12.31,12.31,0,0,1-4.41-6.54c-.82-3.06-2.71-8.78-3.26-11.92-.07-.46-.12-.86-.14-1.19l-.68-6.09-.21-1.89c.57-3.92,3.82-16.63,21.77-16.75,0,0,13.54,0,17.32,9.83A43.9,43.9,0,0,1,386.85,256.17Zm-11.23,6.21a2.33,2.33,0,1,0-2-2.29A2.16,2.16,0,0,0,375.62,262.38Zm-18.12-.25a2.32,2.32,0,1,0-2-2.28A2.15,2.15,0,0,0,357.5,262.13Z"/><path d="M377.58,260.07a2,2,0,1,1-2-2.29A2.16,2.16,0,0,1,377.58,260.07Z"/><path class="cls-4" d="M376.74,229.39h-1.13c-2.89-.78-11.4-2.59-19.4.4l-.16-.41c0-5.36,4.63-9.7,10.34-9.7S376.74,224,376.74,229.39Z"/><path class="cls-1" d="M360.69,504.45c-.06.79-.91,1.32-2.47,1.47-2.52.23-4-4.21-4-4.21l-.35,1.71c-.28,1.74-.45,2.53-4.43,2.82s-5.3-1.33-5-2.79-.29-1.93,0-3.19.68-1.85,1-3.2a9,9,0,0,1,1.28-2.43c-1.46-2.33-.4-2.71.18-5.91s0-7.27.58-10.75c0,0,.75-3.06-.19-4.74s-3.48-7.55,4-11a9.44,9.44,0,0,0,1.06,1.47c2.24,2.57,6.81,7.29,10.36,7.65.78,1.57.54,8.81.54,8.81.47,3.07,1.23,13.84,2.39,14.42a27.34,27.34,0,0,1,3.59,2.71c4.07,1.75,0,4.75,0,4.75.09,2.62-4.65,2-4.65,2-1.36,1.26-3.81.42-3.81.42Z"/><path class="cls-1" d="M311.61,368.83a82.79,82.79,0,0,0,20.95,0c1.3-.18,2.62-.4,4-.67l17-3.92a3.55,3.55,0,0,0,2.82-2.82c.85-4.5,2.84-11.51,3.36-13.34.46-1.65,1.81-7.51,2.76-12.57.49-2.59.87-5,1-6.48a1.16,1.16,0,0,1,1.15-1.07h.07a1.15,1.15,0,0,1,1.1,1.13c0,2.42.25,6.9.25,12,0,2.86-.07,5.9-.28,8.87-.84,12.24,2.74,24-7.7,25-5.81.57-15,4-24.69,7.31-10.3,3.52-21.24,6.93-29.5,6.75a43.93,43.93,0,0,0-8,.41,5.13,5.13,0,0,1-5.71-3.55c-.5-1.62-.83-3-.83-3-1.32-7.13,5.94-23.71,10.46-34.51,3.76-9,9.3-20.59,14.05-31.15s14.43-11.29,14.43-11.29c1.89-.31,3.92-.76,6-1.27l.13.52A182.58,182.58,0,0,1,333.9,328a70.05,70.05,0,0,1-1.5,9.65l-.17,0s-2.3-7-6.79,2.59S311.61,368.83,311.61,368.83Z"/><path class="cls-3" d="M362.46,335.52c-.95,5.06-2.3,10.92-2.76,12.57-.52,1.83-2.51,8.84-3.36,13.34a3.55,3.55,0,0,1-2.82,2.82l-17,3.92c-1.35.27-2.67.49-4,.67l-.09-.69c-.05-5.25-.52-12.19-2.31-17.16-.73-2.05-1.37-3.72-1.93-5.09,1.89-1.38,3.23-4.44,4.17-8.3a70.05,70.05,0,0,0,1.5-9.65H334C341.12,331.76,352.49,334.82,362.46,335.52Z"/><path d="M359.46,259.82a2,2,0,1,1-2-2.28A2.15,2.15,0,0,1,359.46,259.82Z"/><path class="cls-2" d="M341.73,440.69c3.9-1,5.28-1.31,5.28-1.31l.78.16a9.65,9.65,0,0,0,1.52,7.82c.89,1.36,2.57,1.09,3.78.66a7.07,7.07,0,0,0-2.64,3.07c-28.32,3.91-48.72-2-48.72-2a133.13,133.13,0,0,0,20.19-3.36C331.67,443.23,337.91,441.66,341.73,440.69Z"/><path class="cls-1" d="M346.67,265.61l-.22,0c.73,3.64-.87,2.29-.87,2.29-2.6-3-2.5-8-2.5-8,.43-3.22,1.55-2.47,2.29-1.54l.48-.05.68,6.09C346.55,264.75,346.6,265.15,346.67,265.61Z"/><path class="cls-1" d="M332.23,337.56l.17,0c-.94,3.86-2.28,6.92-4.17,8.3-1.91-4.68-2.79-5.75-2.79-5.75C329.93,330.6,332.23,337.56,332.23,337.56Z"/><path class="cls-5" d="M356.05,229.39c0-5.36,4.63-9.7,10.34-9.7s10.35,4.34,10.35,9.7"/><path class="cls-5" d="M345.64,256.44c.57-3.92,3.82-16.63,21.77-16.75,0,0,13.54,0,17.32,9.83a43.9,43.9,0,0,1,2.12,6.65,5.68,5.68,0,0,1,.12.78s8-19.88-10.33-27.25c0,0-.37-.12-1-.3-2.89-.78-11.4-2.59-19.4.4a21.21,21.21,0,0,0-6.87,4.09c-9,8-3.83,23.68-3.83,23.68S345.53,257.15,345.64,256.44Z"/><path class="cls-5" d="M387,258.84c.64-1.06,2-2.72,2.66,1,0,0,.31,5-2.17,8.13,0,0-1.53,1.4-1-2.26"/><path class="cls-5" d="M345.37,258.38c-.74-.93-1.86-1.68-2.29,1.54,0,0-.1,5,2.5,8,0,0,1.6,1.35.87-2.29"/><path class="cls-5" d="M345.54,255.58l.1.86.21,1.89.68,6.09c0,.33.07.73.14,1.19.55,3.14,2.44,8.86,3.26,11.92a12.31,12.31,0,0,0,4.41,6.54c2.61,2.07,6.7,3.81,13.07,3.69,0,0,7,0,11.85-3.92a11.44,11.44,0,0,0,4.05-6.61c.54-2.5,2.35-7.58,2.9-11.58.05-.32.08-.64.11-.94l.36-5.89.17-2.65.07-1.2"/><path class="cls-5" d="M368.1,267.77a4.28,4.28,0,0,1-4.43-.13"/><polyline class="cls-5" points="361.37 275.19 362.31 275.57 365.27 274.7 366.38 275.39 367.61 274.73 370.26 275.68 371.12 275.45"/><line class="cls-5" x1="365.2" y1="280.13" x2="367.75" y2="280.16"/><path class="cls-5" d="M353.76,284.26c.24,6.34,1,12.5-2.73,14.62-2.17,1.23-9.59,4-16.81,5.79-2,.51-4.07,1-6,1.27,0,0-9.68.73-14.43,11.29s-10.29,22.17-14.05,31.15c-4.52,10.8-11.78,27.38-10.46,34.51,0,0,.33,1.35.83,3a5.13,5.13,0,0,0,5.71,3.55,43.93,43.93,0,0,1,8-.41c8.26.18,19.2-3.23,29.5-6.75,9.72-3.33,18.88-6.74,24.69-7.31,10.44-1,6.86-12.76,7.7-25,.21-3,.28-6,.28-8.87,0-5.07-.21-9.55-.25-12a1.15,1.15,0,0,0-1.1-1.13h-.07a1.16,1.16,0,0,0-1.15,1.07c-.11,1.5-.49,3.89-1,6.48-.95,5.06-2.3,10.92-2.76,12.57-.52,1.83-2.51,8.84-3.36,13.34a3.55,3.55,0,0,1-2.82,2.82l-17,3.92c-1.35.27-2.67.49-4,.67a82.79,82.79,0,0,1-20.95,0,101.84,101.84,0,0,0-10.46-1"/><path class="cls-5" d="M334.35,305.19A182.58,182.58,0,0,1,333.9,328a70.05,70.05,0,0,1-1.5,9.65c-.94,3.86-2.28,6.92-4.17,8.3"/><path class="cls-5" d="M332.23,337.56s-2.3-7-6.79,2.59-13.83,28.68-13.83,28.68"/><path class="cls-5" d="M325.44,340.15s.88,1.07,2.79,5.75c.56,1.37,1.2,3,1.93,5.09,1.79,5,2.26,11.91,2.31,17.16"/><path class="cls-5" d="M397.18,381.25c-8.64-3-16.59-5.8-21.82-6.31-10.44-1-6.85-12.76-7.7-25-.21-3-.27-6-.27-8.86,0-5.08.21-9.56.25-12a1.15,1.15,0,0,1,1.1-1.13h.07A1.14,1.14,0,0,1,370,329c.11,1.55.52,4,1,6.71,1,5,2.27,10.71,2.73,12.34.51,1.83,2.51,8.84,3.36,13.34a3.55,3.55,0,0,0,2.82,2.82l17,3.92,1.3.24a80.06,80.06,0,0,0,23.63.42,102.1,102.1,0,0,1,10.46-1"/><path class="cls-5" d="M379.64,284.26c-.24,6.34-1,12.5,2.73,14.62,2.16,1.23,9.52,3.94,16.71,5.76,2.08.53,4.14,1,6.06,1.3,0,0,9.67.73,14.43,11.29s10.28,22.17,14.05,31.15c4.51,10.8,11.78,27.38,10.46,34.51,0,0-.33,1.35-.84,3a5.12,5.12,0,0,1-5.7,3.55,43.93,43.93,0,0,0-8-.41c-9,.2-21.28-3.91-32.38-7.74"/><path class="cls-5" d="M401.17,337.56s2.29-7,6.78,2.59l.5,1.05c4.64,9.83,13.34,27.63,13.34,27.63"/><path class="cls-5" d="M408.68,341l-.23.18a14,14,0,0,0-3.42,4.68,25.18,25.18,0,0,0-1.8,5.11c-1.85,7.65-4.2,10.68-5.07,17.42h0"/><path class="cls-5" d="M398.94,305.19a183.07,183.07,0,0,0,.44,22.72,67.49,67.49,0,0,0,1.52,9.71c.93,3.83,2.25,6.87,4.13,8.26l0,0"/><path class="cls-5" d="M371,335.75c10.18-.36,18.8-3.27,27.77-7.79"/><path class="cls-5" d="M334,328c7.13,3.8,18.5,6.86,28.47,7.56"/><path class="cls-5" d="M397.18,381.25h0a118,118,0,0,0-.27,14.24,46,46,0,0,0,1.86,12.12"/><path class="cls-5" d="M333.34,382.25A98.66,98.66,0,0,1,329,394.44c-1.76,4-4,7.89-6.4,10.08L318,408.76"/><path class="cls-5" d="M323.71,408.76l-5.7.12c-7,.19-19.18.58-29.81,1.34-16,1.14-39.42,8.64-40.23,21.34,0,0-.49,9.61,4.72,12.54s8.64,5.71,17.11,5.87a273.67,273.67,0,0,0,31.93-.88,133.13,133.13,0,0,0,20.19-3.36c9.75-2.5,16-4.07,19.81-5s5.28-1.31,5.28-1.31"/><path class="cls-5" d="M270.77,429.42s4.4-1.28,6.68-3.4,19.22-6,31.77-4.72a186.43,186.43,0,0,0,25.63,1.23,65.21,65.21,0,0,0,7.55-.72A35,35,0,0,0,346,421l1.76-5.92a5.29,5.29,0,0,1,4.21-3.75,13.64,13.64,0,0,1,5.27.32c6.19,1.46,9.94,4.88,15.15,1.79l7-4.48a10.94,10.94,0,0,1,4.7-1.68l3.69-.43a10.86,10.86,0,0,0,1.51-.28,11.11,11.11,0,0,1,6,.1l3.47,1,1.4.42a2.16,2.16,0,0,1-.62,4.23l-.31,0-1.93-.28h-.13a6.62,6.62,0,0,0-3.21.39l-3.43,1.33"/><path class="cls-5" d="M332.23,410.55s7.83,5.41,10.17,11.26"/><path class="cls-5" d="M301.73,449.09s20.4,5.91,48.72,2"/><path class="cls-5" d="M388.53,417.05l1.58-.38,4.56-1.4a3.16,3.16,0,0,1,1.06-.15H397l1.58,0a1.41,1.41,0,0,0,1.46-1.4,1.64,1.64,0,0,0-.09-.56,1.29,1.29,0,0,0-1.18-.84l-1.63-.26-.1,0"/><path class="cls-5" d="M354.5,447.36h0a7.84,7.84,0,0,1-1.39.65c-1.21.43-2.89.7-3.78-.66a9.65,9.65,0,0,1-1.52-7.82,18,18,0,0,1,2.21-5.21c3-5.05,8.25-4.56,12.32-7.82s18.73-7.65,18.73-7.65l7.47-1.81"/><path class="cls-5" d="M385.45,453.23a7.28,7.28,0,0,1,.28,5.55,5,5,0,0,1-1.09,1.78c-7.66,9-17.11,11.24-22,10.75-3.55-.36-8.12-5.08-10.36-7.65a9.66,9.66,0,0,1-2-3.48l-.34-1.09c-.75-3.68-.35-6.24.45-8a7.07,7.07,0,0,1,2.64-3.07,5.47,5.47,0,0,1,1.39-.65"/><path class="cls-5" d="M385.73,458.78A24.19,24.19,0,0,0,399,447.31c4.45-8.8,4-10.86,4.35-14.12s1.52-9.12,0-13.79l-2.11-6.61,0-.12"/><path class="cls-5" d="M388.52,417.05h0l8.33.85a1.37,1.37,0,0,0,1.51-1.19,1.15,1.15,0,0,0,0-.19,1.37,1.37,0,0,0-1.38-1.37h-.67"/><path class="cls-5" d="M346.7,494.63c-1.46-2.33-.4-2.71.18-5.91s0-7.27.58-10.75c0,0,.75-3.06-.19-4.74s-3.48-7.55,4-11"/><path class="cls-5" d="M348.62,491.92s-1,1.34-1.92,2.71a9,9,0,0,0-1.28,2.43c-.29,1.35-.67,1.94-1,3.2s.3,1.74,0,3.19,1,3.09,5,2.79,4.15-1.08,4.43-2.82l.35-1.71s1.46,4.44,4,4.21c1.56-.15,2.41-.68,2.47-1.47a2.24,2.24,0,0,0-.73-1.68l-1.17-1.39"/><path class="cls-5" d="M347.39,500.11a6.3,6.3,0,0,1,3.81.15"/><path class="cls-5" d="M360.71,504.45s2.45.84,3.81-.42-1.36-2.34-1.36-2.34"/><path class="cls-5" d="M364.52,504s4.74.59,4.65-2a2.75,2.75,0,0,0-2.81-2.62"/><path class="cls-5" d="M369.17,502s4.07-3,0-4.75a27.34,27.34,0,0,0-3.59-2.71c-1.16-.58-1.92-11.35-2.39-14.42,0,0,.24-7.24-.54-8.81"/><path class="cls-5" d="M329,394.44h0c.78.12,41.07,6.08,67.83,1.06"/><path class="cls-5" d="M334.83,422.52h0c.43.28,7.72,5.13,6.88,18.16h0"/></svg>