<svg id="Layer_1" data-name="Layer 1" xmlns="http://www.w3.org/2000/svg" viewBox="0 0 700 700"><defs><style>.cls-1{fill:#feae63;}.cls-2{fill:#99abcc;}.cls-3{fill:#c4e7f9;}.cls-4{fill:#392328;}.cls-5{fill:none;stroke:#000;stroke-linecap:round;stroke-linejoin:round;stroke-width:2.3px;}</style></defs><title>Yoga_poses_2020_color</title><path class="cls-1" d="M383.41,216.14H383c0-.82.1-8.41.26-10.41s2.3-1.17,2.3-1.17v2.76c.4,3.82,2.57,11.67,3.14,15.7.52,3.65,1.81,6.15,2.28,11.19q.08.78.12,1.65c.27,5.43,3,11.73,5.64,14.35,1.84,1.84,11.34,7.82,20.73,12.09a62.9,62.9,0,0,0,11.08,4q1.9.44,3.51.84s-7.08-14.08-10.81-26.72l-.6.18c-1.38-4.19-6.11-9.05-9.72-12.9V204.58l.09-.26a56.57,56.57,0,0,0,8.17,2.13S432,209.07,436,221.55,443.09,243,447,256.87s6.43,25.33,5.36,31-2.15,8.92-8.92,6.07a163.31,163.31,0,0,1-28.28-15.76,135,135,0,0,1-18.45-15.28s-6.41-4.87-9.83-7.29c0,0-4.3-2.58-4.52-6.31h-.23c-.05-1.54-.14-3.58-.14-6.37,0-9.56.18-21.75.62-25.78h0A4.73,4.73,0,0,1,383.41,216.14Z"/><path class="cls-2" d="M343.24,379a34.2,34.2,0,0,1,1.65,18.25c-15.5,2.79-38.57,9.72-47.17,11.13-12.2,2-9.1,1.33-23.3,4.21S246.24,400,255.78,385.12s39.72-31.73,52.59-38.83,30-7.1,34.39-26.18a136.69,136.69,0,0,1,4.35-15.76S366,321.76,417,310h0c2.4,14.55,3.45,40.43,4.39,49.79,1.2,11.9-5.55,41-12.87,54.48s-9.63,24.79-13.45,38.23c-.73,2.55,0,12.89,0,12.89.29,21.59-10.1,49.29-14.87,67.9h0c-9.78,3.24-14.37-1.27-14.37-1.27.41-14.26-1.06-35.15,2.55-51.74s.37-26.2,0-30.51,1.61-14.7,1.61-14.7c0,1.55.22,4.88,4,3.77s2.22-10.65,2.22-10.65,2.66-4.22,2-14.2,3.29-20.86,4.75-28,1.28-12.43-7.95-10.43c0,0-4.35-6.66-9.21-5.33s-17.59,8.67-17.59,8.67C346.55,379,344.86,379,343.24,379Z"/><path class="cls-3" d="M421,241.9c.33,7.16-1.54,12.95-3.49,20.4-9.39-4.27-18.89-10.25-20.73-12.09-2.62-2.62-5.37-8.92-5.64-14.35q0-.87-.12-1.65l.76-.05A66.57,66.57,0,0,0,411,227.72c3.61,3.85,8.34,8.71,9.72,12.9A9.14,9.14,0,0,1,421,241.9Z"/><path class="cls-3" d="M417,310h0c-51,11.78-69.92-5.63-69.92-5.63,1.31-3.54,2.11-4.3,3-6.65,1.55-4.22,1.27-19.49,1.27-19.49a135.72,135.72,0,0,0,18.45-15.28s6.4-4.87,9.83-7.29c2.43-1.72,2.6-2.51,2.5-6.31h.23c.22,3.73,4.52,6.31,4.52,6.31,3.42,2.42,9.83,7.29,9.83,7.29a135,135,0,0,0,18.45,15.28s-4.55,14.94-.43,23A34.55,34.55,0,0,1,417,310Z"/><path class="cls-1" d="M383,216.14h.39a4.73,4.73,0,0,0-.79,1h0a3.64,3.64,0,0,0-.62-1s-.09-8.36-.26-10.48-2.3-1.17-2.3-1.17v2.76c-.41,3.82-2,11.27-2.59,15.3-.52,3.69-2.65,6.7-3,11.36l-.52,0a60.92,60.92,0,0,1-17.14-6.21L355,205.22l-.22-.68a98.44,98.44,0,0,0,14-5.65c3.36-1.91,4-7.44,3.83-13.14l.13-.26a21.82,21.82,0,0,0,10.89,2.25,22.67,22.67,0,0,0,9.88-2.59l.35.6c-.22,5.7.47,11.23,3.83,13.14A97.61,97.61,0,0,0,411,204.32l-.09.26v23.14a66.57,66.57,0,0,1-19.19,6.44l-.76.05c-.47-5-1.76-7.54-2.28-11.19-.57-4-2.74-11.88-3.14-15.7v-2.76s-2.12-.95-2.3,1.17S383,215.32,383,216.14Z"/><path class="cls-1" d="M405.91,159.81s.31,5-2.16,8.13c0,0-1.54,1.41-1-2.26l-.32-.05c0-.32.08-.64.11-.94l.36-5.88.32,0C403.89,157.76,405.25,156.1,405.91,159.81Z"/><path class="cls-4" d="M361.88,156.42c-.11.72-.13,1.14-.13,1.14s-5.19-15.66,3.84-23.69a21.24,21.24,0,0,1,6.86-4.09c8-3,16.51-1.18,19.4-.4.66.18,1,.3,1,.3,18.37,7.37,10.33,27.25,10.33,27.25a5.28,5.28,0,0,0-.12-.75A42.31,42.31,0,0,0,401,149.5c-3.78-9.81-17.33-9.83-17.33-9.83C365.71,139.79,362.45,152.5,361.88,156.42Z"/><path class="cls-1" d="M403.09,156.18l-.16,2.63-.36,5.88c0,.3-.07.62-.11.94-.56,4-2.37,9.09-2.91,11.58a11.78,11.78,0,0,1-6,7.94,22.67,22.67,0,0,1-9.88,2.59,21.82,21.82,0,0,1-10.89-2.25,12.83,12.83,0,0,1-6.59-8c-.83-3.06-2.72-8.78-3.26-11.92-.07-.45-.12-.85-.14-1.18l-.69-6.1-.21-1.89c.57-3.92,3.83-16.63,21.77-16.75,0,0,13.55,0,17.33,9.83A42.31,42.31,0,0,1,403.09,156.18Zm-11.23,6.18a2.32,2.32,0,1,0-2-2.28A2.15,2.15,0,0,0,391.86,162.36Zm-18.12-.25a2.32,2.32,0,1,0-2-2.28A2.16,2.16,0,0,0,373.74,162.11Z"/><path d="M393.82,160.05a2,2,0,1,1-2-2.28A2.15,2.15,0,0,1,393.82,160.05Z"/><path class="cls-4" d="M393,129.37h-1.13c-2.89-.78-11.41-2.59-19.4.4l-.16-.41c0-5.36,4.63-9.7,10.35-9.7S393,124,393,129.37Z"/><path class="cls-1" d="M361.91,569.56c-1.38-2.24-.52-2.56,0-5.72s0-7.27.58-10.76-.39-3.1,1.65-8.82A35.85,35.85,0,0,0,365.86,532s4.59,4.51,14.37,1.27h0c-1.43,5.54-2.35,10.27-2.35,13.8,0,4,.26,5.82-.62,7.37s-.58,4.17,0,5.91,2.23,8.72,3.4,9.3a26.86,26.86,0,0,1,3.58,2.72c4.07,1.74,0,4.75,0,4.75.1,2.61-4.65,2-4.65,2-1.36,1.26-3.81.42-3.81.42a2.32,2.32,0,0,0-.75-1.68,1.75,1.75,0,0,0-2.81,0l-2.43.08a10.18,10.18,0,0,1-.47-1.15l-.68,1.65c.48,1.75,0,2.23-4,2.52s-5.42-1-5.13-2.42-.29-1.94,0-3.2.68-1.84,1-3.2A10.5,10.5,0,0,1,361.91,569.56Z"/><path class="cls-1" d="M375.07,375.58c9.23-2,9.41,3.33,7.95,10.43s-5.42,18-4.75,28-2,14.2-2,14.2,1.55,9.54-2.22,10.65-4-2.22-4-3.77-1.56-3.55-1.11-8.88-2.89-13.09-3.55-17.53-.23-7.1-1.56-8.65-5.1-3.33-5.1-3.33c-2.22-1-7.38-.54-13.85.63A34.2,34.2,0,0,0,343.24,379c1.62,0,3.31,0,5-.12A175.6,175.6,0,0,0,375.07,375.58Z"/><path class="cls-1" d="M345.55,240.93c-3.82,12.31-8.85,25.68-8.85,25.68l1.26-.29A63.86,63.86,0,0,0,349.61,262c9.2-4.25,18.35-10,20.16-11.83,2.62-2.62,4-9.47,4-14.9,0-.46,0-.9.06-1.33.36-4.66,2.49-7.67,3-11.36.57-4,2.18-11.48,2.59-15.3v-2.76s2.12-.95,2.3,1.17.26,10.48.26,10.48a3.64,3.64,0,0,1,.62,1c-.44,4-.62,16.22-.62,25.78,0,2.79.09,4.83.14,6.37.1,3.8-.07,4.59-2.5,6.31-3.43,2.42-9.83,7.29-9.83,7.29a135.72,135.72,0,0,1-18.45,15.28A163.31,163.31,0,0,1,323.08,294c-6.78,2.85-7.85-.36-8.92-6.07s1.43-17.12,5.35-31,7.14-22.83,11.06-35.32,16.75-15.1,16.75-15.1a55.15,55.15,0,0,0,7.47-1.91l.22.68,1.17,22.5c-5.07,4.64-7.56,7.39-10.33,13.35v0Z"/><path class="cls-1" d="M375,577.89a2.32,2.32,0,0,1,.75,1.68c-.07.78-.93,1.32-2.49,1.46s-2.88-1.76-3.5-3.06l2.43-.08A1.75,1.75,0,0,1,375,577.89Z"/><path d="M375.71,159.8a2,2,0,1,1-2-2.28A2.16,2.16,0,0,1,375.71,159.8Z"/><path class="cls-3" d="M373.32,233.93l.52,0c0,.43-.06.87-.06,1.33,0,5.43-1.39,12.28-4,14.9-1.81,1.81-11,7.58-20.16,11.83l-.28-.62c-1.94-7.43-3.8-13.21-3.48-20.35,2.77-6,5.26-8.71,10.33-13.35A60.92,60.92,0,0,0,373.32,233.93Z"/><path class="cls-1" d="M362.92,165.59l-.23,0c.73,3.64-.87,2.3-.87,2.3-2.6-3-2.5-8-2.5-8,.43-3.22,1.55-2.47,2.29-1.54l.48-.05.69,6.1C362.8,164.74,362.85,165.14,362.92,165.59Z"/><path class="cls-5" d="M372.64,185.75c.21,5.7-.47,11.23-3.83,13.14a98.44,98.44,0,0,1-14,5.65,55.15,55.15,0,0,1-7.47,1.91s-12.82,2.62-16.75,15.1-7.13,21.41-11.06,35.32-6.42,25.33-5.35,31,2.14,8.92,8.92,6.07a163.31,163.31,0,0,0,28.28-15.76,135.72,135.72,0,0,0,18.45-15.28s6.4-4.87,9.83-7.29c2.43-1.72,2.6-2.51,2.5-6.31-.05-1.54-.14-3.58-.14-6.37,0-9.56.18-21.75.62-25.78a3.64,3.64,0,0,0-.62-1c-.4-.41-.93-.5-1.37,1-1.44,4.75-1.63,8.79-3.24,13.61"/><path class="cls-5" d="M323.46,270.54s3-1.49,13.24-3.93l1.26-.29A63.86,63.86,0,0,0,349.61,262c9.2-4.25,18.35-10,20.16-11.83,2.62-2.62,4-9.47,4-14.9,0-.46,0-.9.06-1.33.36-4.66,2.49-7.67,3-11.36.57-4,2.18-11.48,2.59-15.3v-2.76s2.12-.95,2.3,1.17.26,10.48.26,10.48"/><path class="cls-5" d="M382.62,217.17a4.73,4.73,0,0,1,.79-1c.52-.47,1.17-.61,1.52,1,1.14,5.45.7,7.65,2,13.61"/><path class="cls-5" d="M393.89,185.75c-.22,5.7.47,11.23,3.83,13.14A97.61,97.61,0,0,0,411,204.32a56.57,56.57,0,0,0,8.17,2.13S432,209.07,436,221.55,443.09,243,447,256.87s6.43,25.33,5.36,31-2.15,8.92-8.92,6.07a163.31,163.31,0,0,1-28.28-15.76,135,135,0,0,1-18.45-15.28s-6.41-4.87-9.83-7.29c0,0-4.3-2.58-4.52-6.31"/><path class="cls-5" d="M443.07,270.54s-2.54-1.27-11-3.38q-1.6-.41-3.51-.84a62.9,62.9,0,0,1-11.08-4c-9.39-4.27-18.89-10.25-20.73-12.09-2.62-2.62-5.37-8.92-5.64-14.35q0-.87-.12-1.65c-.47-5-1.76-7.54-2.28-11.19-.57-4-2.74-11.88-3.14-15.7v-2.76s-2.12-.95-2.3,1.17-.25,9.59-.26,10.41v.07"/><path class="cls-5" d="M421,241.9c.33,7.16-1.54,12.95-3.49,20.4"/><path class="cls-5" d="M345.85,241v0c-.32,7.14,1.54,12.92,3.48,20.35"/><path class="cls-5" d="M336.7,266.61s5-13.37,8.85-25.68c1-3.35,2-6.63,2.72-9.53"/><path class="cls-5" d="M432.08,267.16s-7.08-14.08-10.81-26.72a59.21,59.21,0,0,1-2-9"/><path class="cls-5" d="M351.36,278.21s.28,15.27-1.27,19.49c-.87,2.35-1.67,3.11-3,6.65a136.69,136.69,0,0,0-4.35,15.76c-4.43,19.08-21.52,19.08-34.39,26.18s-43.05,24-52.59,38.83,4.44,30.4,18.64,27.51,11.1-2.21,23.3-4.21c8.6-1.41,31.67-8.34,47.17-11.13,6.47-1.17,11.63-1.61,13.85-.63,0,0,3.77,1.77,5.1,3.33s.91,4.21,1.56,8.65,4,12.2,3.55,17.53,1.11,7.32,1.11,8.88.22,4.88,4,3.77,2.22-10.65,2.22-10.65,2.66-4.22,2-14.2,3.29-20.86,4.75-28,1.28-12.43-7.95-10.43a175.6,175.6,0,0,1-26.8,3.34c-1.72.08-3.41.12-5,.12s-3.21,0-4.69-.13c-11.1-.67-31.51,1.11-55,16.64"/><path class="cls-5" d="M348.27,378.92s12.74-7.33,17.59-8.67,9.21,5.33,9.21,5.33"/><path class="cls-5" d="M343.24,379a34.2,34.2,0,0,1,1.65,18.25"/><path class="cls-5" d="M370.06,435.05s-1.95,10.39-1.61,14.7,3.57,13.93,0,30.51-2.14,37.48-2.55,51.74a35.85,35.85,0,0,1-1.67,12.26c-2,5.72-1.07,5.33-1.65,8.82s0,7.56-.58,10.76-1.43,3.48,0,5.72a.41.41,0,0,0,0,.09"/><path class="cls-5" d="M363.71,567s-.94,1.22-1.8,2.52a10.5,10.5,0,0,0-1.4,2.61c-.29,1.36-.68,1.94-1,3.2s.29,1.75,0,3.2,1.16,2.71,5.13,2.42,4.46-.77,4-2.52l.68-1.65a10.18,10.18,0,0,0,.47,1.15c.62,1.3,1.82,3.22,3.5,3.06s2.42-.68,2.49-1.46a2.32,2.32,0,0,0-.75-1.68,1.75,1.75,0,0,0-2.81,0"/><path class="cls-5" d="M362.35,577.12a6.32,6.32,0,0,1,3.78-.49"/><path class="cls-5" d="M375.79,579.57s2.45.84,3.81-.42-1.36-2.34-1.36-2.34"/><path class="cls-5" d="M379.6,579.15s4.75.58,4.65-2a2.75,2.75,0,0,0-2.81-2.62"/><path class="cls-5" d="M384.25,577.12s4.07-3,0-4.75a26.86,26.86,0,0,0-3.58-2.72c-1.17-.58-2.82-7.56-3.4-9.3s-.87-4.36,0-5.91.62-3.37.62-7.37c0-3.53.92-8.26,2.35-13.8,4.77-18.61,15.16-46.31,14.87-67.9,0,0-.73-10.34,0-12.89,3.82-13.44,6.12-24.73,13.45-38.23s14.07-42.58,12.87-54.48c-.94-9.36-2-35.24-4.39-49.79a34.55,34.55,0,0,0-2.3-8.82c-4.12-8,.43-23,.43-23"/><path class="cls-5" d="M347.11,304.35S366,321.76,417,310"/><path class="cls-5" d="M365.86,532s4.59,4.51,14.37,1.27"/><path class="cls-5" d="M372.29,129.37c0-5.36,4.63-9.7,10.35-9.7S393,124,393,129.37"/><path class="cls-5" d="M361.88,156.42c.57-3.92,3.83-16.63,21.77-16.75,0,0,13.55,0,17.33,9.83a42.31,42.31,0,0,1,2.11,6.68,5.28,5.28,0,0,1,.12.75s8-19.88-10.33-27.25c0,0-.37-.12-1-.3-2.89-.78-11.41-2.59-19.4.4a21.24,21.24,0,0,0-6.86,4.09c-9,8-3.84,23.69-3.84,23.69S361.77,157.14,361.88,156.42Z"/><path class="cls-5" d="M403.25,158.83c.64-1.07,2-2.73,2.66,1,0,0,.31,5-2.16,8.13,0,0-1.54,1.41-1-2.26"/><path class="cls-5" d="M361.61,158.36c-.74-.93-1.86-1.68-2.29,1.54,0,0-.1,5,2.5,8,0,0,1.6,1.34.87-2.3"/><path class="cls-5" d="M361.78,155.57l.1.85.21,1.89.69,6.1c0,.33.07.73.14,1.18.54,3.14,2.43,8.86,3.26,11.92a12.83,12.83,0,0,0,6.59,8,21.82,21.82,0,0,0,10.89,2.25,22.67,22.67,0,0,0,9.88-2.59,11.78,11.78,0,0,0,6-7.94c.54-2.49,2.35-7.58,2.91-11.58,0-.32.08-.64.11-.94l.36-5.88.16-2.63.08-1.23"/><path class="cls-5" d="M384.35,167.75a4.29,4.29,0,0,1-4.44-.12"/><polyline class="cls-5" points="377.61 175.17 378.56 175.55 381.51 174.69 382.62 175.37 383.85 174.72 386.51 175.66 387.36 175.44"/><line class="cls-5" x1="381.44" y1="180.11" x2="384" y2="180.15"/><path class="cls-5" d="M391.76,234.16A66.57,66.57,0,0,0,411,227.72c3.61,3.85,8.34,8.71,9.72,12.9a9.14,9.14,0,0,1,.31,1.28"/><path class="cls-5" d="M345.81,241.15a.59.59,0,0,1,0-.08c2.77-6,5.26-8.71,10.33-13.35a60.92,60.92,0,0,0,17.14,6.21"/><line class="cls-5" x1="356.18" y1="227.72" x2="355.01" y2="205.22"/><line class="cls-5" x1="410.95" y1="227.72" x2="410.95" y2="204.58"/></svg>