<svg id="Layer_1" data-name="Layer 1" xmlns="http://www.w3.org/2000/svg" viewBox="0 0 700 700"><defs><style>.cls-1{fill:#feae63;}.cls-2{fill:#99abcc;}.cls-3{fill:#c4e7f9;}.cls-4{fill:#120c0c;}.cls-5{fill:none;stroke:#000;stroke-linecap:round;stroke-linejoin:round;stroke-width:2.3px;}</style></defs><title>Yoga_poses_2020_color</title><path class="cls-1" d="M446.23,113.19c.76,8.63,2.54,31.42.91,41.11-2,11.94-2.47,10.13-3.11,18.62s-.71,24.19-3.07,35.62-2.2,13.57-4.54,25.41-3.83,14-7.81,25.72c-.36,1.05-.68,2.07-1,3.07-.6-.65-12.25-13.36-16.05-17.58a16.38,16.38,0,0,1-2-2.84,68,68,0,0,1-5.07-12.78,18.67,18.67,0,0,0,4-4.5,20.83,20.83,0,0,1,1.39-1.95,56.44,56.44,0,0,1,7.07-6.94c5.74-4.81,2.18-8.84,9-39.36l2.43-10.54-.43-5.58s1.11-6.57,2.89-17.17,4.87-33.69,5.3-40.59a45.47,45.47,0,0,0-.6-10.59,21.38,21.38,0,0,1-.36-4l.35-28.47a2.1,2.1,0,0,1,1.93-2.08h.17a2.08,2.08,0,0,1,2.07,1.82l1.93,13.15,4,16.8a39.44,39.44,0,0,1,.92,12.11l-.39,5A38.6,38.6,0,0,0,446.23,113.19Z"/><path class="cls-1" d="M439.38,54.33l.41,5.26a2.08,2.08,0,0,0-2.07-1.82h-.17a2.1,2.1,0,0,0-1.93,2.08l-.29-5.25v-.13a2,2,0,0,1,4.05-.15Z"/><path class="cls-2" d="M347.13,413a34.2,34.2,0,0,1,1.65,18.25c-15.49,2.79-38.57,9.72-47.17,11.13-12.2,2-9.1,1.33-23.3,4.21s-28.18-12.64-18.64-27.51,39.72-31.73,52.59-38.83,22-7.1,26.39-26.18A136.69,136.69,0,0,1,343,338.3s25.88,17.41,76.92,5.62l.12,0c2.67,14.55,4.34,40.45,5.28,49.81,1.2,11.91-5.55,41-12.87,54.49S402.82,473,399,486.43c-.73,2.55,0,12.89,0,12.89.29,21.59-10.1,49.29-14.87,67.9h0c-9.78,3.24-14.37-1.27-14.37-1.27.41-14.26-1.06-35.16,2.55-51.74s.37-26.2,0-30.51S374,469,374,469c0,1.56.22,4.89,4,3.78s2.22-10.65,2.22-10.65,2.66-4.22,2-14.21,3.29-20.85,4.75-28,1.28-12.43-8-10.43c0,0-4.35-6.66-9.21-5.33s-17.59,8.67-17.59,8.67C350.44,413,348.75,413,347.13,413Z"/><path class="cls-3" d="M427.63,262.74c-3,10.2-3.05,17.87-4,23.77-1.89,12-7.92,23.65-7.56,36.6,0,4.23.23,8.35,1.54,12A36.44,36.44,0,0,1,420,343.9l-.12,0c-51,11.79-76.92-5.62-76.92-5.62,1.31-3.54,2.11-4.3,3-6.66a28.78,28.78,0,0,0,2.27-12c-.29-19.48-1.85-18.91-4.25-32.41a187.68,187.68,0,0,0-6.49-25.4l.24-.08s12.17-13.27,16.07-17.6a20.16,20.16,0,0,0,2.33-3.36c.19,1.11,2.63,11.56,26.78,11.56,23.53,0,26.68-10,26.68-10a16.38,16.38,0,0,0,2,2.84C415.38,249.38,427,262.09,427.63,262.74Z"/><path class="cls-1" d="M370.74,230.38c.93-3.24,1-6.92.67-12.08,2.62,1.85,6.56,3.31,12.42,3.2a22.22,22.22,0,0,0,10.56-3c-.18,4.71-.25,8.48.6,11.78a5.71,5.71,0,0,0,6.26,1.38,18.65,18.65,0,0,0,3.29-2.12,68,68,0,0,0,5.07,12.78s-3.15,10-26.68,10c-24.15,0-26.59-10.45-26.78-11.56a66.73,66.73,0,0,0,4.71-11.26,18.29,18.29,0,0,0,3.29,2.12,5.71,5.71,0,0,0,6.26-1.38Z"/><path class="cls-1" d="M406.08,193.57s.31,5-2.16,8.13c0,0-1.54,1.4-1-2.26l-.32-.05c.05-.32.08-.64.11-.94l.36-5.89.32,0C404.06,191.52,405.42,189.86,406.08,193.57Z"/><path class="cls-4" d="M362.05,190.18c-.11.71-.13,1.13-.13,1.13s-5.19-15.65,3.83-23.68a21.21,21.21,0,0,1,6.87-4.09c8-3,16.51-1.18,19.4-.4.66.18,1,.3,1,.3,18.37,7.37,10.33,27.25,10.33,27.25a5.68,5.68,0,0,0-.12-.78,44.62,44.62,0,0,0-2.11-6.65c-3.79-9.82-17.33-9.83-17.33-9.83C365.87,173.55,362.62,186.26,362.05,190.18Z"/><path class="cls-1" d="M403.26,189.91l-.16,2.65-.36,5.89c0,.3-.06.62-.11.94-.56,4-2.37,9.08-2.91,11.58a11.64,11.64,0,0,1-5.33,7.53,22.22,22.22,0,0,1-10.56,3c-5.86.11-9.8-1.35-12.42-3.2a12.46,12.46,0,0,1-5.06-7c-.83-3.06-2.73-8.79-3.27-11.93a10.3,10.3,0,0,1-.14-1.18l-.68-6.09-.21-1.89c.57-3.92,3.82-16.63,21.77-16.75,0,0,13.54,0,17.33,9.83A44.62,44.62,0,0,1,403.26,189.91ZM392,196.12a2.33,2.33,0,1,0-2-2.29A2.16,2.16,0,0,0,392,196.12Zm-18.12-.25a2.32,2.32,0,1,0-2-2.28A2.17,2.17,0,0,0,373.91,195.87Z"/><path d="M394,193.81a2,2,0,1,1-2-2.29A2.16,2.16,0,0,1,394,193.81Z"/><path class="cls-4" d="M393.15,163.13H392c-2.89-.78-11.4-2.59-19.4.4l-.16-.41c0-5.36,4.63-9.7,10.34-9.7S393.15,157.77,393.15,163.13Z"/><path class="cls-1" d="M379.68,613.52c-.07.78-.93,1.32-2.49,1.46-2.52.24-4-4.21-4-4.21l-.68,1.65c.48,1.75,0,2.23-4,2.52s-5.43-1-5.14-2.42-.29-1.94,0-3.2.68-1.84,1-3.2a9.71,9.71,0,0,1,1.4-2.61c-1.38-2.24-.52-2.57.05-5.72s0-7.27.58-10.76-.38-3.1,1.65-8.82A35.85,35.85,0,0,0,369.75,566s4.59,4.51,14.37,1.27h0c-1.43,5.54-2.35,10.27-2.35,13.8,0,4,.26,5.82-.62,7.37s-.58,4.16,0,5.91,2.23,8.72,3.4,9.3a26.86,26.86,0,0,1,3.58,2.72c4.07,1.74,0,4.74,0,4.74.1,2.62-4.65,2-4.65,2C382.13,614.36,379.68,613.52,379.68,613.52Z"/><path class="cls-1" d="M379,409.53c9.23-2,9.41,3.33,8,10.43s-5.42,18-4.75,28-2,14.21-2,14.21,1.55,9.54-2.22,10.65-4-2.22-4-3.78-1.56-3.55-1.11-8.87S370,447,369.29,442.59s-.23-7.1-1.56-8.65-5.1-3.33-5.1-3.33c-2.22-1-7.37-.54-13.85.63A34.2,34.2,0,0,0,347.13,413c1.62,0,3.31,0,5-.12A175.6,175.6,0,0,0,379,409.53Z"/><path d="M375.88,193.56a2,2,0,1,1-2-2.28A2.17,2.17,0,0,1,375.88,193.56Z"/><path class="cls-1" d="M363.08,199.34l-.22,0c.73,3.64-.87,2.29-.87,2.29-2.6-3-2.5-8-2.5-8,.43-3.22,1.55-2.48,2.29-1.54l.48-.05.68,6.09A10.3,10.3,0,0,0,363.08,199.34Z"/><path class="cls-1" d="M356.15,240.8a20.16,20.16,0,0,1-2.33,3.36c-3.9,4.33-16.07,17.6-16.07,17.6l-.24.08c-.23-.71-.47-1.44-.72-2.17-4-11.75-5.48-13.87-7.81-25.72s-2.17-14-4.54-25.41-2.44-27.13-3.07-35.62-1.11-6.68-3.11-18.62c-1.63-9.69.15-32.48.9-41.11a38.6,38.6,0,0,0,0-6.54l-.39-5a38.83,38.83,0,0,1,.92-12.11l3.95-16.8,1.93-13.15a2.09,2.09,0,0,1,4.17.27l.36,28.47a22.26,22.26,0,0,1-.36,4,45.47,45.47,0,0,0-.6,10.59c.43,6.9,3.52,30,5.3,40.59s2.89,17.17,2.89,17.17l-.44,5.58,2.44,10.54c6.83,30.52,3.27,34.55,9,39.36a56.73,56.73,0,0,1,7.08,6.94,20.83,20.83,0,0,1,1.39,1.95,18.67,18.67,0,0,0,4,4.5A66.73,66.73,0,0,1,356.15,240.8Z"/><path class="cls-1" d="M330.07,54.5v.11l-.3,5.25a2.09,2.09,0,0,0-4.17-.27l.42-5.26a2,2,0,0,1,4.05.17Z"/><path class="cls-5" d="M360.86,229.54a66.73,66.73,0,0,1-4.71,11.26,20.16,20.16,0,0,1-2.33,3.36c-3.9,4.33-16.07,17.6-16.07,17.6"/><path class="cls-5" d="M356.13,240.7a.42.42,0,0,0,0,.1c.19,1.11,2.63,11.56,26.78,11.56,23.53,0,26.68-10,26.68-10"/><path class="cls-5" d="M394.39,218.5c-.18,4.71-.25,8.48.6,11.78a15.44,15.44,0,0,0,1.29,3.41"/><path class="cls-5" d="M371.41,218.3c.32,5.16.26,8.84-.67,12.08a17.35,17.35,0,0,1-1.33,3.31"/><path class="cls-5" d="M372.46,163.13c0-5.36,4.63-9.7,10.34-9.7s10.35,4.34,10.35,9.7"/><path class="cls-5" d="M362.05,190.18c.57-3.92,3.82-16.63,21.77-16.75,0,0,13.54,0,17.33,9.83a44.62,44.62,0,0,1,2.11,6.65,5.68,5.68,0,0,1,.12.78s8-19.88-10.33-27.25c0,0-.37-.12-1-.3-2.89-.78-11.4-2.59-19.4.4a21.21,21.21,0,0,0-6.87,4.09c-9,8-3.83,23.68-3.83,23.68S361.94,190.89,362.05,190.18Z"/><path class="cls-5" d="M403.42,192.58c.64-1.06,2-2.72,2.66,1,0,0,.31,5-2.16,8.13,0,0-1.54,1.4-1-2.26"/><path class="cls-5" d="M361.78,192.12c-.74-.94-1.86-1.68-2.29,1.54,0,0-.1,5,2.5,8,0,0,1.6,1.35.87-2.29"/><path class="cls-5" d="M362,189.32l.1.86.21,1.89.68,6.09a10.3,10.3,0,0,0,.14,1.18c.54,3.14,2.44,8.87,3.27,11.93a12.46,12.46,0,0,0,5.06,7c2.62,1.85,6.56,3.31,12.42,3.2a22.22,22.22,0,0,0,10.56-3,11.64,11.64,0,0,0,5.33-7.53c.54-2.5,2.35-7.58,2.91-11.58.05-.32.08-.64.11-.94l.36-5.89.16-2.65.07-1.2"/><path class="cls-5" d="M384.52,201.51a4.29,4.29,0,0,1-4.44-.13"/><polyline class="cls-5" points="377.78 208.93 378.73 209.31 381.68 208.44 382.79 209.13 384.02 208.47 386.67 209.42 387.53 209.19"/><line class="cls-5" x1="381.61" y1="213.87" x2="384.17" y2="213.9"/><path class="cls-5" d="M439.79,59.59l-.41-5.26a2,2,0,0,0-4.05.15v.13l.29,5.25"/><path class="cls-5" d="M404.54,229.54a68,68,0,0,0,5.07,12.78,16.38,16.38,0,0,0,2,2.84c3.8,4.22,15.45,16.93,16.05,17.58l0,0"/><path class="cls-5" d="M395,230.28a5.71,5.71,0,0,0,6.26,1.38,18.63,18.63,0,0,0,7.32-6.62,20.83,20.83,0,0,1,1.39-1.95,56.44,56.44,0,0,1,7.07-6.94c5.74-4.81,2.18-8.84,9-39.36l2.43-10.54-.43-5.58s1.11-6.57,2.89-17.17,4.87-33.69,5.3-40.59a45.47,45.47,0,0,0-.6-10.59,21.38,21.38,0,0,1-.36-4l.35-28.47a2.1,2.1,0,0,1,1.93-2.08h.17a2.08,2.08,0,0,1,2.07,1.82l1.93,13.15,4,16.8a39.44,39.44,0,0,1,.92,12.11l-.39,5a38.6,38.6,0,0,0,0,6.54c.76,8.63,2.54,31.42.91,41.11-2,11.94-2.47,10.13-3.11,18.62s-.71,24.19-3.07,35.62-2.2,13.57-4.54,25.41-3.83,14-7.81,25.72c-.36,1.05-.68,2.07-1,3.07-3,10.2-3.05,17.87-4,23.77-1.89,12-7.92,23.65-7.56,36.6,0,4.23.23,8.35,1.54,12A36.44,36.44,0,0,1,420,343.9c2.67,14.55,4.34,40.45,5.28,49.81,1.2,11.91-5.55,41-12.87,54.49S402.82,473,399,486.43c-.73,2.55,0,12.89,0,12.89.29,21.59-10.1,49.29-14.87,67.9-1.43,5.54-2.35,10.27-2.35,13.8,0,4,.26,5.82-.62,7.37s-.58,4.16,0,5.91,2.23,8.72,3.4,9.3a26.86,26.86,0,0,1,3.58,2.72c4.07,1.74,0,4.74,0,4.74"/><path class="cls-5" d="M325.6,59.59l.42-5.26a2,2,0,0,1,4.05.17v.11l-.3,5.25"/><path class="cls-5" d="M287.41,429.5c23.52-15.53,43.93-17.31,55-16.64,1.48.09,3.05.13,4.69.13s3.31,0,5-.12a175.6,175.6,0,0,0,26.8-3.34c9.23-2,9.41,3.33,8,10.43s-5.42,18-4.75,28-2,14.21-2,14.21,1.55,9.54-2.22,10.65-4-2.22-4-3.78-1.56-3.55-1.11-8.87S370,447,369.29,442.59s-.23-7.1-1.56-8.65-5.1-3.33-5.1-3.33c-2.22-1-7.37-.54-13.85.63-15.49,2.79-38.57,9.72-47.17,11.13-12.2,2-9.1,1.33-23.3,4.21s-28.18-12.64-18.64-27.51,39.72-31.73,52.59-38.83,22-7.1,26.39-26.18A136.69,136.69,0,0,1,343,338.3c1.31-3.54,2.11-4.3,3-6.66a28.78,28.78,0,0,0,2.27-12c-.29-19.48-1.85-18.91-4.25-32.41a187.68,187.68,0,0,0-6.49-25.4c-.23-.71-.47-1.44-.72-2.17-4-11.75-5.48-13.87-7.81-25.72s-2.17-14-4.54-25.41-2.44-27.13-3.07-35.62-1.11-6.68-3.11-18.62c-1.63-9.69.15-32.48.9-41.11a38.6,38.6,0,0,0,0-6.54l-.39-5a38.83,38.83,0,0,1,.92-12.11l3.95-16.8,1.93-13.15a2.09,2.09,0,0,1,4.17.27l.36,28.47a22.26,22.26,0,0,1-.36,4,45.47,45.47,0,0,0-.6,10.59c.43,6.9,3.52,30,5.3,40.59s2.89,17.17,2.89,17.17l-.44,5.58,2.44,10.54c6.83,30.52,3.27,34.55,9,39.36a56.73,56.73,0,0,1,7.08,6.94,20.83,20.83,0,0,1,1.39,1.95,18.67,18.67,0,0,0,4,4.5,18.29,18.29,0,0,0,3.29,2.12,5.71,5.71,0,0,0,6.26-1.38"/><path class="cls-5" d="M352.16,412.87s12.74-7.34,17.59-8.67,9.21,5.33,9.21,5.33"/><path class="cls-5" d="M347.13,413a34.2,34.2,0,0,1,1.65,18.25"/><path class="cls-5" d="M374,469s-1.95,10.39-1.61,14.71,3.57,13.93,0,30.51-2.14,37.48-2.55,51.74a35.85,35.85,0,0,1-1.67,12.26c-2,5.72-1.07,5.33-1.65,8.82s0,7.56-.58,10.76-1.43,3.48-.05,5.72a.41.41,0,0,0,.05.09"/><path class="cls-5" d="M367.6,601s-.94,1.22-1.8,2.53a9.71,9.71,0,0,0-1.4,2.61c-.29,1.36-.68,1.94-1,3.2s.29,1.74,0,3.2,1.16,2.71,5.14,2.42,4.45-.77,4-2.52l.68-1.65s1.45,4.45,4,4.21c1.56-.14,2.42-.68,2.49-1.46a2.32,2.32,0,0,0-.75-1.68,1.75,1.75,0,0,0-2.81,0"/><path class="cls-5" d="M366.24,611.06a6.27,6.27,0,0,1,3.78-.48"/><path class="cls-5" d="M379.68,613.52s2.45.84,3.81-.42-1.36-2.35-1.36-2.35"/><path class="cls-5" d="M383.49,613.1s4.75.58,4.65-2a2.75,2.75,0,0,0-2.81-2.61"/><path class="cls-5" d="M343,338.3s25.88,17.41,76.92,5.62"/><path class="cls-5" d="M369.75,566s4.59,4.51,14.37,1.27"/></svg>