<svg id="Layer_1" data-name="Layer 1" xmlns="http://www.w3.org/2000/svg" viewBox="0 0 700 700"><defs><style>.cls-1{fill:#feae63;}.cls-2{fill:#99abcc;}.cls-3{fill:#c4e7f9;}.cls-4{fill:#120c0c;}.cls-5{fill:none;stroke:#000;stroke-linecap:round;stroke-linejoin:round;stroke-width:2.3px;}</style></defs><title>Yoga_poses_2020_color</title><path class="cls-1" d="M356.48,239.41c.08-7.62.26-15.19.59-18.2h0a4.85,4.85,0,0,1,.56-.79l-.16-.17s.06-6.2.19-9.28a1.26,1.26,0,0,1,2.51-.13c.62,4.3,2.47,12.53,3,16.22s1.81,6.15,2.28,11.19q.07.78.12,1.65c.27,5.43,3,11.73,5.64,14.34,1.84,1.85,11.34,7.83,20.73,12.09h0a62,62,0,0,0,11.08,4c1.27.29,2.44.58,3.51.84-.24-.47-7.15-14.28-10.81-26.71l-.6.18c-1.38-4.19-6.11-9.05-9.72-12.9l-2.85-24.41a67.83,67.83,0,0,0,11.11,3.14s12.82,2.62,16.75,15.1,7.13,21.41,11,35.32,6.43,25.32,5.36,31-2.14,8.92-8.92,6.07a163.31,163.31,0,0,1-28.28-15.76A135.72,135.72,0,0,1,371.17,267s-6.41-4.87-9.83-7.29c0,0-4.3-2.59-4.52-6.31l-.37-6.37C356.45,244.57,356.46,242,356.48,239.41Z"/><path class="cls-1" d="M422.85,335.62l3,4.65a2.55,2.55,0,0,1-4.27,2.8l-3.49-5.23,4.26,6.54a3,3,0,0,1-.18,3.59l-2.64,2c-1.7-2.7-6.41-6.08-6.41-6.08a44.57,44.57,0,0,1-3.75,5.19l-1-3.56-.11,0-4.27-2.7a5.49,5.49,0,0,1-1.37-1.66l-5.1-9.4a8.78,8.78,0,0,0-2.76-3.05l-.85.09c-.63-5.41-1.37-10.65-2.21-14.95-.13-.65-.26-1.27-.39-1.87,0,0,5.66,3.49,8.3,4.73s4.19,2.64,6.05,3.72,7.14,2.64,12.73,4.19l2.71.88a3,3,0,0,1,2.1,2.88v6.95Z"/><path class="cls-1" d="M419.53,350c1.24,2-1.83,6.63-1.83,6.63s-11.4,16.61-15,22.15a21.7,21.7,0,0,1-4,4.53c-3.12,2.8-7.27,5.61-13.62,12.41-.65.7-1.29,1.41-1.9,2.12-1.24-9.07-13.52-14.53-13.52-14.53a44.34,44.34,0,0,0,4-3.88c5.22-6.19-1-14.66,4.24-19.22,4.36-3.81,12.13-1.25,18.78-2.4a13.32,13.32,0,0,0,3.75-1.18,29.37,29.37,0,0,0,8.88-7.52,44.57,44.57,0,0,0,3.75-5.19S417.83,347.3,419.53,350Z"/><path class="cls-2" d="M357.5,439.1l-.41-.27c3.52-5.28,7.22-11.77,9.79-15.74,3.33-5.16,8.08-15.67,16.35-25.25.61-.71,1.25-1.42,1.9-2.12,6.35-6.8,10.5-9.61,13.62-12.41,0,3.61-2.74,17.3-2.74,17.3a385.55,385.55,0,0,0-13.45,55.89c-.43,2.63,0,12.9,0,12.9.29,21.59-10.1,49.29-14.87,67.9h0c-9.78,3.24-14.37-1.27-14.37-1.27.41-14.26-1.06-35.16,2.55-51.74s.37-26.2,0-30.51S357.4,439.66,357.5,439.1Z"/><path class="cls-3" d="M395.43,245.93c.33,7.16-1.54,12.94-3.49,20.39-9.39-4.26-18.89-10.24-20.73-12.09-2.62-2.61-5.37-8.91-5.64-14.34q0-.87-.12-1.65l.76-.05a66.57,66.57,0,0,0,19.19-6.44c3.61,3.85,8.34,8.71,9.72,12.9A8.81,8.81,0,0,1,395.43,245.93Z"/><path class="cls-2" d="M369.71,383.31s12.28,5.46,13.52,14.53c-8.27,9.58-13,20.09-16.35,25.25-2.57,4-6.27,10.46-9.79,15.74a62.9,62.9,0,0,1-4,5.44c-4.42,5.19-4.77,6.51-7.38,10.75s-2.93,5.86-11.07,11.4-10.43,5.21-19.55,0-9.45-16.29-9.45-16.29c-5.54-22.48-3.91-39.75,0-54.73s7.17-36.81,7.17-36.81a86.06,86.06,0,0,0,0-12.06c-.33-4.27,1.95-14.33,1.95-14.33,2.49-10.71,4.81-16.52,6.65-20.29l.27.13s27.34,10.93,70,1.87c.84,4.3,1.58,9.54,2.21,14.95,1.3,11,2.2,22.78,2.82,28.95-6.65,1.15-14.42-1.41-18.78,2.4-5.21,4.56,1,13-4.24,19.22A44.34,44.34,0,0,1,369.71,383.31Z"/><path class="cls-3" d="M391.32,312c.13.6.26,1.22.39,1.87-42.7,9.06-70-1.87-70-1.87l-.27-.13c1.43-3,2.56-4.67,3.24-6.52,1.56-4.22,1.28-19.49,1.28-19.49s-.08-1.87-.25-4.53c-.29-4.79-.89-12.16-1.89-15.93-1.95-7.42-3.8-13.21-3.48-20.34,2.77-6,5.26-8.71,10.34-13.35,5.06,4.42,9.13,7.09,25.84,7.66,0,2.58,0,5.16,0,7.58l.37,6.37c.22,3.72,4.52,6.31,4.52,6.31,3.42,2.42,9.83,7.29,9.83,7.29a135.72,135.72,0,0,0,18.45,15.28s-4.55,14.94-.43,22.95A30.08,30.08,0,0,1,391.32,312Z"/><path class="cls-1" d="M382.55,207.34l2.85,24.41a66.57,66.57,0,0,1-19.19,6.44l-.76.05c-.47-5-1.76-7.54-2.28-11.19s-2.38-11.92-3-16.22a1.26,1.26,0,0,0-2.51.13c-.13,3.08-.19,9.28-.19,9.28l.16.17a4.85,4.85,0,0,0-.56.79h0c-.33,3-.51,10.58-.59,18.2-16.71-.57-20.78-3.24-25.84-7.66l.78-20.23a69.57,69.57,0,0,0,11.24-7.79c3.9-4.49,3.3-8.3,3.26-15,2.62,1.77,6.49,3.15,12.19,3a22.67,22.67,0,0,0,9.88-2.59l.35.6c-.22,5.7.47,11.23,3.83,13.13A88.6,88.6,0,0,0,382.55,207.34Z"/><path class="cls-1" d="M380.36,163.84s.31,5-2.16,8.13c0,0-1.54,1.4-1-2.26l-.32-.05c0-.32.08-.64.11-.94l.36-5.89.32,0C378.34,161.79,379.7,160.13,380.36,163.84Z"/><path class="cls-4" d="M336.33,160.44c-.11.72-.13,1.15-.13,1.15S331,145.93,340,137.9a21.24,21.24,0,0,1,6.86-4.09c8-3,16.51-1.18,19.4-.4.66.18,1,.3,1,.3C385.7,141.08,377.67,161,377.67,161a5.68,5.68,0,0,0-.12-.78,45.18,45.18,0,0,0-2.12-6.65c-3.78-9.82-17.33-9.83-17.33-9.83C340.17,143.82,336.91,156.51,336.33,160.44Z"/><path class="cls-1" d="M377.55,160.18l-.17,2.65-.36,5.89c0,.3-.07.62-.11.94-.56,4-2.37,9.08-2.91,11.58a11.78,11.78,0,0,1-6,7.94,22.67,22.67,0,0,1-9.88,2.59c-5.7.11-9.57-1.27-12.19-3a12.54,12.54,0,0,1-5.29-7.19c-.83-3.06-2.72-8.77-3.26-11.92-.07-.45-.12-.86-.14-1.19l-.69-6.09-.21-1.9c.58-3.93,3.84-16.62,21.77-16.74,0,0,13.55,0,17.33,9.83A45.18,45.18,0,0,1,377.55,160.18Zm-11.24,6.21a2.33,2.33,0,1,0-2-2.29A2.16,2.16,0,0,0,366.31,166.39Zm-18.12-.25a2.32,2.32,0,1,0-2-2.28A2.16,2.16,0,0,0,348.19,166.14Z"/><path class="cls-1" d="M349.36,573.59c-1.38-2.24-.52-2.57.05-5.72s0-7.27.58-10.76-.39-3.1,1.65-8.82A35.85,35.85,0,0,0,353.31,536s4.59,4.51,14.37,1.27h0c-1.43,5.54-2.35,10.27-2.35,13.8,0,4,.26,5.82-.62,7.37s-.58,4.16,0,5.91,2.23,8.72,3.4,9.3a27,27,0,0,1,3.58,2.71c4.07,1.75,0,4.75,0,4.75.1,2.62-4.65,2-4.65,2-1.36,1.26-3.81.42-3.81.42-.07.78-.93,1.32-2.49,1.46-2.52.24-4-4.21-4-4.21l-.68,1.65c.48,1.74,0,2.23-4,2.52s-5.42-1-5.13-2.42-.29-1.94,0-3.2.68-1.84,1-3.2A10.33,10.33,0,0,1,349.36,573.59Z"/><path d="M368.27,164.08a2,2,0,1,1-2-2.29A2.16,2.16,0,0,1,368.27,164.08Z"/><path class="cls-4" d="M367.43,133.4H366.3c-2.89-.78-11.41-2.59-19.4.4l-.16-.41c0-5.36,4.63-9.7,10.35-9.7S367.43,128,367.43,133.4Z"/><path d="M350.16,163.83a2,2,0,1,1-2-2.28A2.16,2.16,0,0,1,350.16,163.83Z"/><path class="cls-1" d="M337.37,169.62l-.23,0c.73,3.64-.87,2.29-.87,2.29-2.6-3-2.5-8-2.5-8,.43-3.22,1.55-2.47,2.29-1.54l.48,0,.69,6.09C337.25,168.76,337.3,169.17,337.37,169.62Z"/><path class="cls-1" d="M320.3,245.1c-.32,7.13,1.53,12.92,3.48,20.34,1,3.77,1.6,11.14,1.89,15.93h-.06L322,275.72c-3.59-5.64-6.18-11.51-9.44-16.07s-5.64-13.9-7.16-18.68-1.53-6.08-1.53-10.64c0-3,3.78-7.51,7.06-10a21.43,21.43,0,0,1,7.11-3.41l2.59-.56a14.74,14.74,0,0,0,2.67-.83,80.43,80.43,0,0,0,8.1-4l-.78,20.23C325.56,236.39,323.07,239.14,320.3,245.1Z"/><path class="cls-5" d="M345.92,188.73c0,6.7.64,10.51-3.26,15a69.57,69.57,0,0,1-11.24,7.79,80.43,80.43,0,0,1-8.1,4,14.74,14.74,0,0,1-2.67.83l-2.59.56a21.43,21.43,0,0,0-7.11,3.41c-3.28,2.47-7.06,7-7.06,10,0,4.56,0,5.87,1.53,10.64s3.9,14.12,7.16,18.68,5.85,10.43,9.44,16.07l3.59,5.65"/><path class="cls-5" d="M357.07,221.2a4.85,4.85,0,0,1,.56-.79c.55-.63,1.35-1.1,1.75.8,1.14,5.45.7,7.64,2,13.6"/><path class="cls-5" d="M368.34,189.78c-.22,5.7.47,11.23,3.83,13.13a88.6,88.6,0,0,0,10.38,4.43,67.83,67.83,0,0,0,11.11,3.14s12.82,2.62,16.75,15.1,7.13,21.41,11,35.32,6.43,25.32,5.36,31-2.14,8.92-8.92,6.07a163.31,163.31,0,0,1-28.28-15.76A135.72,135.72,0,0,1,371.17,267s-6.41-4.87-9.83-7.29c0,0-4.3-2.59-4.52-6.31l-.37-6.37c0-2.42,0-5,0-7.58.08-7.62.26-15.19.59-18.2"/><path class="cls-5" d="M391.94,266.32c-9.39-4.26-18.89-10.24-20.73-12.09-2.62-2.61-5.37-8.91-5.64-14.34q0-.87-.12-1.65c-.47-5-1.76-7.54-2.28-11.19s-2.38-11.92-3-16.22a1.26,1.26,0,0,0-2.51.13c-.13,3.08-.19,9.28-.19,9.28"/><path class="cls-5" d="M406.53,271.18c-1.07-.26-2.24-.55-3.51-.84a62,62,0,0,1-11.08-4"/><path class="cls-5" d="M417.52,274.57s-2.54-1.27-11-3.38"/><path class="cls-5" d="M395.43,245.93c.33,7.16-1.54,12.94-3.49,20.39h0"/><path class="cls-5" d="M406.53,271.19h0c-.24-.47-7.15-14.28-10.81-26.71a59.32,59.32,0,0,1-2-9.05"/><path class="cls-5" d="M357.51,439.07v0c-.1.56-1.93,10.48-1.6,14.68s3.57,13.93,0,30.51-2.14,37.48-2.55,51.74a35.85,35.85,0,0,1-1.67,12.26c-2,5.72-1.07,5.33-1.65,8.82s0,7.56-.58,10.76-1.43,3.48-.05,5.72a.41.41,0,0,0,.05.09"/><path class="cls-5" d="M351.16,571.06s-.94,1.22-1.8,2.53a10.33,10.33,0,0,0-1.4,2.61c-.29,1.36-.68,1.94-1,3.2s.29,1.74,0,3.2,1.16,2.71,5.13,2.42,4.46-.78,4-2.52l.68-1.65s1.45,4.45,4,4.21c1.56-.14,2.42-.68,2.49-1.46a2.32,2.32,0,0,0-.75-1.68,1.75,1.75,0,0,0-2.81,0"/><path class="cls-5" d="M349.8,581.14a6.27,6.27,0,0,1,3.78-.48"/><path class="cls-5" d="M363.24,583.6s2.45.84,3.81-.42-1.36-2.35-1.36-2.35"/><path class="cls-5" d="M367.05,583.18s4.75.58,4.65-2a2.75,2.75,0,0,0-2.81-2.61"/><path class="cls-5" d="M396.74,357.81c-.62-6.17-1.52-17.93-2.82-28.95-.63-5.41-1.37-10.65-2.21-14.95-.13-.65-.26-1.27-.39-1.87a30.08,30.08,0,0,0-2.13-6.85c-4.12-8,.43-22.95.43-22.95"/><path class="cls-5" d="M371.7,581.14s4.07-3,0-4.75a27,27,0,0,0-3.58-2.71c-1.17-.58-2.82-7.56-3.4-9.3s-.87-4.36,0-5.91.62-3.37.62-7.37c0-3.53.92-8.26,2.35-13.8,4.77-18.61,15.16-46.31,14.87-67.9,0,0-.43-10.27,0-12.9A385.55,385.55,0,0,1,396,400.61s2.7-13.69,2.74-17.3"/><path class="cls-5" d="M321.67,312s27.34,10.93,70,1.87"/><path class="cls-5" d="M353.31,536s4.59,4.51,14.37,1.27"/><path class="cls-5" d="M346.74,133.4c0-5.36,4.63-9.7,10.35-9.7s10.34,4.34,10.34,9.7"/><path class="cls-5" d="M336.33,160.44c.58-3.93,3.84-16.62,21.77-16.74,0,0,13.55,0,17.33,9.83a45.18,45.18,0,0,1,2.12,6.65,5.68,5.68,0,0,1,.12.78s8-19.88-10.34-27.25c0,0-.37-.12-1-.3-2.89-.78-11.41-2.59-19.4.4A21.24,21.24,0,0,0,340,137.9c-9,8-3.84,23.69-3.84,23.69S336.22,161.16,336.33,160.44Z"/><path class="cls-5" d="M377.7,162.85c.64-1.06,2-2.72,2.66,1,0,0,.31,5-2.16,8.13,0,0-1.54,1.4-1-2.26"/><path class="cls-5" d="M336.06,162.39c-.74-.93-1.86-1.68-2.29,1.54,0,0-.1,5,2.5,8,0,0,1.6,1.35.87-2.29"/><path class="cls-5" d="M336.23,159.59l.1.85.21,1.9.69,6.09c0,.33.07.74.14,1.19.54,3.15,2.43,8.86,3.26,11.92a12.54,12.54,0,0,0,5.29,7.19c2.62,1.77,6.49,3.15,12.19,3a22.67,22.67,0,0,0,9.88-2.59,11.78,11.78,0,0,0,6-7.94c.54-2.5,2.35-7.58,2.91-11.58,0-.32.08-.64.11-.94l.36-5.89.17-2.65.07-1.2"/><path class="cls-5" d="M358.8,171.78a4.29,4.29,0,0,1-4.44-.12"/><polyline class="cls-5" points="352.06 179.2 353.01 179.58 355.96 178.71 357.07 179.4 358.3 178.75 360.96 179.69 361.81 179.46"/><line class="cls-5" x1="355.89" y1="184.14" x2="358.45" y2="184.17"/><path class="cls-5" d="M366.21,238.19a66.57,66.57,0,0,0,19.19-6.44c3.61,3.85,8.34,8.71,9.72,12.9a8.81,8.81,0,0,1,.31,1.28"/><path class="cls-5" d="M320.26,245.18s0-.05,0-.08c2.77-6,5.26-8.71,10.34-13.35,5.06,4.42,9.13,7.09,25.84,7.66h0"/><line class="cls-5" x1="330.64" y1="231.75" x2="331.42" y2="211.52"/><polyline class="cls-5" points="385.4 231.75 382.55 207.34 382.55 207.33"/><path class="cls-5" d="M336.58,442a114.72,114.72,0,0,1,1.31-23.13c1-6.62,8.86-15.08,17.05-22.61,5.42-5,11-9.56,14.77-12.94a44.34,44.34,0,0,0,4-3.88c5.22-6.19-1-14.66,4.24-19.22,4.36-3.81,12.13-1.25,18.78-2.4a13.32,13.32,0,0,0,3.75-1.18,29.37,29.37,0,0,0,8.88-7.52,44.57,44.57,0,0,0,3.75-5.19s4.71,3.38,6.41,6.08c1.24,2-1.83,6.63-1.83,6.63s-11.4,16.61-15,22.15a21.7,21.7,0,0,1-4,4.53c-3.12,2.8-7.27,5.61-13.62,12.41-.65.7-1.29,1.41-1.9,2.12-8.27,9.58-13,20.09-16.35,25.25-2.57,4-6.27,10.46-9.79,15.74a62.9,62.9,0,0,1-4,5.44c-4.42,5.19-4.77,6.51-7.38,10.75s-2.93,5.86-11.07,11.4-10.43,5.21-19.55,0-9.45-16.29-9.45-16.29c-5.54-22.48-3.91-39.75,0-54.73s7.17-36.81,7.17-36.81a86.06,86.06,0,0,0,0-12.06c-.33-4.27,1.95-14.33,1.95-14.33,2.49-10.71,4.81-16.52,6.65-20.29,1.43-3,2.56-4.67,3.24-6.52,1.56-4.22,1.28-19.49,1.28-19.49s-.08-1.87-.25-4.53c-.29-4.79-.89-12.16-1.89-15.93-1.95-7.42-3.8-13.21-3.48-20.34V245"/><path class="cls-5" d="M408.27,345.58l-4.27-2.7a5.49,5.49,0,0,1-1.37-1.66l-5.1-9.4a8.78,8.78,0,0,0-2.76-3.05"/><path class="cls-5" d="M369.71,383.31s12.28,5.46,13.52,14.53"/><path class="cls-5" d="M354.94,396.25s1.17-10,.69-16.27-11.12-7.39-11.12-7.39"/><path class="cls-5" d="M355.63,380a7.37,7.37,0,0,1,4.3-4.56"/><path class="cls-5" d="M315.73,240.16s1.89,6.19,4.53,9"/><path class="cls-5" d="M391.32,312s5.66,3.49,8.3,4.73,4.19,2.64,6.05,3.72,7.14,2.64,12.73,4.19l2.71.88a3,3,0,0,1,2.1,2.88v6.95"/><path class="cls-5" d="M418.71,327.67l1.2,3.38,2.94,4.57,3,4.65a2.55,2.55,0,0,1-4.27,2.8l-3.49-5.23,4.26,6.54a3,3,0,0,1-.18,3.59l-2.64,2"/><polyline class="cls-5" points="407.17 341.19 408.38 345.55 409.37 349.11"/><line class="cls-5" x1="413.12" y1="343.92" x2="412.63" y2="341.19"/></svg>