<svg id="Layer_1" data-name="Layer 1" xmlns="http://www.w3.org/2000/svg" viewBox="0 0 700 700"><defs><style>.cls-1{fill:#feae63;}.cls-2{fill:#392328;}.cls-3{fill:#99abcc;}.cls-4{fill:#c4e7f9;}.cls-5{fill:none;stroke:#000;stroke-linecap:round;stroke-linejoin:round;stroke-width:2.3px;}</style></defs><title>Yoga_poses_2020_color</title><path class="cls-1" d="M528.16,545.78a2.41,2.41,0,0,1,1.92,4,2.56,2.56,0,0,1-.29.27c-2,1.73-5.49.87-7,.81s-6.67,1.05-14.26-1.67-15.83-.74-20.62,1.05c-4.63,1.73-10.37.43-10.37.43s-3.68-.11-2.49-10.34l.36-.51c.95,1.13,1.76,1.76,2.27,1.41,1.27-.87-2.1-7.22-4.43-13l.28-.11c1.74-2.09,5.22-7,5.22-7l.1-.3c6.8,3.51,17.07,8.74,19.31,9.48,3.4,1.14,19.57,12.33,24.39,13.9a49.11,49.11,0,0,0,4.93,1.58C527.71,545.77,527.93,545.78,528.16,545.78Z"/><path class="cls-2" d="M511.12,314.62c5,0,12.34,5.91,9.24,12.81s-9.14,5.18-9.14,5.18l-.61.27c-.35-.8-.75-1.63-1.18-2.46a19.93,19.93,0,0,0-3-3.66l.07-.08C501,319.62,507.56,314.63,511.12,314.62Z"/><path class="cls-2" d="M510.61,332.88c6.17,14,.86,24.26-7.42,36.11l-1.4.13s-5.23-9-6.25-11.09c-2-4.12-5.55-3.92-9.17-6.56s-4.69-6.6-4.24-8.92c0,0,4.25-4.26-1.39-5.94a8.38,8.38,0,0,0-1.94.1v-.15s-1.67-4.92-6-4.94a46.31,46.31,0,0,1-7.17-.59h0c-7.41-2.77-.06-5.3,7.39-9.75s18.33-2.19,18.33-2.19a27.79,27.79,0,0,1,15.12,7.67,19.93,19.93,0,0,1,3,3.66C509.86,331.25,510.26,332.08,510.61,332.88Z"/><path class="cls-1" d="M478.8,336.71a8.38,8.38,0,0,1,1.94-.1c5.64,1.68,1.39,5.94,1.39,5.94-.45,2.32.62,6.28,4.24,8.92s7.13,2.44,9.17,6.56c1,2.08,6.25,11.09,6.25,11.09l-1.84.18s-8.5,2.77-13.88,2.07c-4.24-.56-4.78-2-7.65-.32l-5.65,2-.49-5.14-9.88-2.1c-.9.26-7.93,1-4.93-9.57,0,0,.81-6.48-.51-6.75s-5.74,3.38-6.8,9.17a31.56,31.56,0,0,0,2,10.47,78.37,78.37,0,0,0-19.45,7.69s-26.6-23.42-3.83-61.4h0a72,72,0,0,0,18,1.1c.47,1.36.94,2.55,1.31,3.36,1.52,3.32,5.16,6.31,7.66,8a27.11,27.11,0,0,0,9.76,3.2h0a46.31,46.31,0,0,0,7.17.59c4.36,0,6,4.94,6,4.94Zm5.94,29.41c.12-.61-.94-1.32-2.36-1.57s-2.65,0-2.76.64.94,1.32,2.36,1.58S484.63,366.74,484.74,366.12Z"/><path d="M482.38,364.55c1.42.25,2.48,1,2.36,1.57s-1.35.9-2.76.65-2.47-1-2.36-1.58S481,364.29,482.38,364.55Z"/><path class="cls-1" d="M447.24,495.08c-4.93-15.34-13.22-42.68-13.8-54.73-.32-6.69-3.44-18.68-3.39-30.43,0-2.3-.21-24.16-.21-24.16a8,8,0,0,0-7-1.23v0a42,42,0,0,1,9.95-7.68,78.37,78.37,0,0,1,19.45-7.69,46.56,46.56,0,0,0,2.76,6.33c5.07,9.69-4,22.47-4,46.47s-.89,22.68,1.1,27.53,5.47,16.66,5.47,24.15,5.31,29.93,5.31,29.93a18.54,18.54,0,0,0,6.25,4.68c4.38,2.19,6.72,3.91,9.69,5.47a36,36,0,0,0,6.56,2.5A3.32,3.32,0,0,1,481,519c-3.15-.75-6.31-3-8.31-1.42a4.11,4.11,0,0,0-1.23,1.89c-.65,1.78.39,5.14,1.82,8.7,2.33,5.8,5.7,12.15,4.43,13-.51.35-1.32-.28-2.27-1.41-2.85-3.38-6.91-11.24-7.73-10.78-1.09.63,5.32,17,2.35,18s-6.25-15.78-7.66-15.78.94,16.72-1.87,16.87-2.81-1.56-2.66-17.18c0,0-.15-1.72-1.4-1.72s-3,11.56-5.63,12,0-6.09,2.19-14.06c0,0,.05-1.06,0-2.67,0-1.09-.12-2.44-.31-3.89-.47-3.6-1.88-14.53-1.88-14.53S449.35,501.66,447.24,495.08Z"/><path class="cls-3" d="M478.88,520.79l-.1.3s-3.48,4.87-5.22,7l-.28.11c-1.43-3.56-2.47-6.92-1.82-8.7a4.11,4.11,0,0,1,1.23-1.89l0,0S475.32,519,478.88,520.79Z"/><path class="cls-3" d="M453,524.45h-.16c-5.72-3.49-10.59-6.41-11.73-7-3.13-1.47-16.55-2.57-28.32-21.15,0,0-7.36-8.83-9.94-11.22A246.8,246.8,0,0,0,368.31,457c-21.15-14.53-47.28-40.08-51.51-54,0,0-1.22,3.67-30.51,29.13C274.15,442.73,271,450,257.05,460.68s-19.87,16.37-26.67,26.12-32.69,30.46-36.7,41.1c0,0-7.69-2.95-12.33-8,3.39-5.7,17.26-30.66,19.42-35.6s12.17-18.49,26.5-28.66,36.22-48.7,39.15-55.33,13.56-28.66,40.84-46.07c3.51-2.24,7.82-4.68,12.69-7.23l.24.47c12.44,10.92,15.93,26.87,25.05,35s21.19,12.41,21.19,12.41l.48.68a4.87,4.87,0,0,0-.82.85c-2.45,3.44-2.29,3.76,1,6.54s30.41,36.94,34.33,41,10.14,11.61,13.4,13.89,9.81,15.7,12.43,17.82,19.48,18.89,20,19.42c2.11,6.58,3.6,10.95,3.6,10.95s1.41,10.93,1.88,14.53C452.91,522,453,523.36,453,524.45Z"/><path class="cls-1" d="M442.75,162.66c2.9-2,4.31,1.59,3.6,1.67s-5.27,4.75-6.5,7.3-3.78,6.24-5.1,6.94-2.66,3.66-2.66,3.66-3.09,9.55-2.93,17.57.46,25.89-.46,38.68a22.65,22.65,0,0,0,1.7,9c2,5.44,2,19.52,3.38,24s11.15,23,11,35.59c0,2.36,1.05,6.34,2.12,9.45a72,72,0,0,1-18-1.1c-6.11-1.17-12.72-3.39-18-7.54l-.21-.52c2.89-1.16,4.86-1.95,5.64-2.29,6-2.62-1.54-14.64-1.54-29.43s-1.85-33-2-34.68-.46-2.92.47-8.93,3.23-26.67,4.93-33.75,1.85-18.65,1.85-18.65c-2.47-3.89-3.52-11.5-4.83-12.9-1.16-1.23-3-3.27-4.78-5.18l2.44-1.62a9.24,9.24,0,0,0,1.81,1.52,5.3,5.3,0,0,0,.57.3,1.51,1.51,0,0,0,2-2c-2.5-6.19-6.85-14-4.88-14.78,1.49-.55,2.46,1.94,4.13,5.54,1.27,2.73,2.89,6.06,3.6,7.52a.85.85,0,0,0,.77.49.93.93,0,0,0,.35-.08.87.87,0,0,0,.5-1c-2.29-10.66-3.67-15.21-1.35-15.21,2.08,0,4.35,12.63,4.89,15.81a.81.81,0,0,0,.79.67h.06a.81.81,0,0,0,.76-.72c1-8.35-.53-14.26,2.56-14.18s.61,16.53,2.19,20.4a6.69,6.69,0,0,0,4.84,4.3A42.78,42.78,0,0,1,442.75,162.66Z"/><path class="cls-4" d="M428.91,315.4h0c-22.77,38,3.83,61.4,3.83,61.4a42,42,0,0,0-9.95,7.68v0l-.48.16c-6.9,2.53-16.7,1.42-25.66.74-8.45-.64-25.32,6.34-29.75,10.1l-.48-.68s-12.06-4.3-21.19-12.41-12.61-24.06-25.05-35L320,347c28-14.67,74.34-33.07,90.78-39.65l.21.52C416.19,312,422.8,314.23,428.91,315.4Z"/><path class="cls-1" d="M412.9,159.91l-2.44,1.62-.76-.8c-2-2.11-4.31-4.31-2.38-5.19C408.81,154.86,410.87,157.83,412.9,159.91Z"/><path class="cls-1" d="M193.89,555.75s-.42,1.69-2.81,1.69-2.54-1.69-2.54-1.69a3.84,3.84,0,0,1-2.68,1.69c-1.54,0-2-1.69-2-1.69a4.94,4.94,0,0,1-2.95,1.13c-1.41-.14-1.69-2.25-1.69-2.25s-3.81.7-5.22-.57c-1-.87-3.06-5.51-4.26-8.3a8.89,8.89,0,0,1-.42-5.82,13,13,0,0,1,3.68-6.19,11.33,11.33,0,0,0,1.38-4.93c.16-2.93,3.55-3.23,6.94-8.94,4.64,5.07,12.33,8,12.33,8-4,10.63-4.16,11.25.46,17a20.44,20.44,0,0,1,2.71,3.3,25.72,25.72,0,0,0,3.24,4.79c1,1,.84,4.08-2.54,4.22S193.89,555.75,193.89,555.75Z"/><line class="cls-5" x1="461.35" y1="336.15" x2="443.85" y2="338.16"/><path class="cls-5" d="M482.13,342.55s4.25-4.26-1.39-5.94a8.38,8.38,0,0,0-1.94.1,8.05,8.05,0,0,0-6.11,4.31s-1,3.06,2.77,1.88"/><path class="cls-5" d="M468,342.73s-5.36.06-6.85,4.59"/><path class="cls-5" d="M501.79,369.12s-5.23-9-6.25-11.09c-2-4.12-5.55-3.92-9.17-6.56s-4.69-6.6-4.24-8.92"/><path class="cls-5" d="M465.6,331c-7.41-2.77-.06-5.3,7.39-9.75s18.33-2.19,18.33-2.19"/><path class="cls-5" d="M511.22,332.61s6,1.72,9.14-5.18-4.25-12.81-9.24-12.81c-3.56,0-10.11,5-4.61,12.06"/><path class="cls-5" d="M447.25,495.09h0c-.53-.53-17.44-17.32-20-19.42s-9.16-15.53-12.43-17.82S405.32,448,401.4,444s-31.06-38.25-34.33-41-3.43-3.1-1-6.54a4.87,4.87,0,0,1,.82-.85c4.43-3.76,21.3-10.74,29.75-10.1,9,.68,18.76,1.79,25.66-.74l.48-.16a8,8,0,0,1,7,1.23s.22,21.86.21,24.16c-.05,11.75,3.07,23.74,3.39,30.43.58,12,8.87,39.39,13.8,54.73,2.11,6.58,3.6,10.95,3.6,10.95s1.41,10.93,1.88,14.53c.19,1.45.27,2.8.31,3.89.05,1.61,0,2.67,0,2.67-2.19,8-4.85,14.53-2.19,14.06s4.38-12,5.63-12,1.4,1.72,1.4,1.72c-.15,15.62-.15,17.34,2.66,17.18s.47-16.87,1.87-16.87,4.69,16.72,7.66,15.78-3.44-17.34-2.35-18c.82-.46,4.88,7.4,7.73,10.78.95,1.13,1.76,1.76,2.27,1.41,1.27-.87-2.1-7.22-4.43-13-1.43-3.56-2.47-6.92-1.82-8.7a4.11,4.11,0,0,1,1.23-1.89c2-1.62,5.16.67,8.31,1.42a3.32,3.32,0,0,0,4.37-2.81,36,36,0,0,1-6.56-2.5c-3-1.56-5.31-3.28-9.69-5.47a18.54,18.54,0,0,1-6.25-4.68s-5.31-22.44-5.31-29.93-3.49-19.31-5.47-24.15-1.1-3.52-1.1-27.53,9-36.78,4-46.47a46.56,46.56,0,0,1-2.76-6.33,31.56,31.56,0,0,1-2-10.47c1.06-5.79,5.47-9.44,6.8-9.17s.51,6.75.51,6.75c-3,10.57,4,9.83,4.93,9.57l9.88,2.1.49,5.14,5.65-2c2.87-1.64,3.41-.24,7.65.32,5.38.7,13.88-2.07,13.88-2.07l1.84-.18,1.4-.13c8.28-11.85,13.59-22.07,7.42-36.11-.35-.8-.75-1.63-1.18-2.46a19.93,19.93,0,0,0-3-3.66,27.79,27.79,0,0,0-15.12-7.67"/><path class="cls-5" d="M478.81,336.56s-1.67-4.92-6-4.94a46.31,46.31,0,0,1-7.17-.59h0a27.11,27.11,0,0,1-9.76-3.2c-2.5-1.66-6.14-4.65-7.66-8-.37-.81-.84-2-1.31-3.36-1.07-3.11-2.15-7.09-2.12-9.45.18-12.64-9.58-31.12-11-35.59s-1.37-18.55-3.38-24a22.65,22.65,0,0,1-1.7-9c.92-12.79.61-30.67.46-38.68s2.93-17.57,2.93-17.57,1.34-2.95,2.66-3.66,3.87-4.39,5.1-6.94,5.8-7.21,6.5-7.3-.7-3.69-3.6-1.67a42.78,42.78,0,0,0-6.24,5.89,6.69,6.69,0,0,1-4.84-4.3c-1.58-3.87,1-20.31-2.19-20.4s-1.58,5.83-2.56,14.18a.81.81,0,0,1-.76.72h-.06a.81.81,0,0,1-.79-.67c-.54-3.18-2.81-15.81-4.89-15.81-2.32,0-.94,4.55,1.35,15.21a.87.87,0,0,1-.5,1,.93.93,0,0,1-.35.08.85.85,0,0,1-.77-.49c-.71-1.46-2.33-4.79-3.6-7.52-1.67-3.6-2.64-6.09-4.13-5.54-2,.75,2.38,8.59,4.88,14.78a1.51,1.51,0,0,1-2,2,5.3,5.3,0,0,1-.57-.3,9.24,9.24,0,0,1-1.81-1.52c-2-2.08-4.09-5-5.58-4.37-1.93.88.36,3.08,2.38,5.19l.76.8c1.8,1.91,3.62,3.95,4.78,5.18,1.31,1.4,2.36,9,4.83,12.9,0,0-.16,11.56-1.85,18.65s-4,27.74-4.93,33.75-.62,7.24-.47,8.93,2,19.88,2,34.68,7.55,26.81,1.54,29.43c-.78.34-2.75,1.13-5.64,2.29C394.29,313.92,348,332.32,320,347c-4.87,2.55-9.18,5-12.69,7.23-27.28,17.41-37.91,39.45-40.84,46.07s-24.81,45.16-39.15,55.33-24.34,23.73-26.5,28.66-16,29.9-19.42,35.6-6.78,6-6.94,8.94a11.33,11.33,0,0,1-1.38,4.93,13,13,0,0,0-3.68,6.19,8.89,8.89,0,0,0,.42,5.82c1.2,2.79,3.29,7.43,4.26,8.3,1.41,1.27,5.22.57,5.22.57s.28,2.11,1.69,2.25a4.94,4.94,0,0,0,2.95-1.13s.43,1.69,2,1.69a3.84,3.84,0,0,0,2.68-1.69s.14,1.69,2.54,1.69,2.81-1.69,2.81-1.69.28,1.55,3.66,1.41,3.52-3.24,2.54-4.22a25.72,25.72,0,0,1-3.24-4.79,20.44,20.44,0,0,0-2.71-3.3c-4.62-5.7-4.47-6.32-.46-17s29.9-31.35,36.7-41.1,12.69-15.45,26.67-26.12,17.1-17.95,29.24-28.5c29.29-25.46,30.51-29.13,30.51-29.13,4.23,13.88,30.36,39.43,51.51,54a246.8,246.8,0,0,1,34.57,28.13c2.58,2.39,9.94,11.22,9.94,11.22C424.59,514.94,438,516,441.14,517.51c1.14.54,6,3.46,11.73,7"/><path class="cls-5" d="M472.71,517.59s2.61,1.37,6.17,3.2c6.8,3.51,17.07,8.74,19.31,9.48,3.4,1.14,19.57,12.33,24.39,13.9a49.11,49.11,0,0,0,4.93,1.58c.2,0,.42,0,.65,0a2.41,2.41,0,0,1,1.92,4,2.56,2.56,0,0,1-.29.27c-2,1.73-5.49.87-7,.81s-6.67,1.05-14.26-1.67-15.83-.74-20.62,1.05c-4.63,1.73-10.37.43-10.37.43s-3.68-.11-2.49-10.34"/><path class="cls-5" d="M366.43,394.85s-12.06-4.3-21.19-12.41-12.61-24.06-25.05-35"/><path class="cls-5" d="M446.87,316.5a72,72,0,0,1-18-1.1c-6.11-1.17-12.72-3.39-18-7.54"/><path class="cls-5" d="M452.2,369.12h0a78.37,78.37,0,0,0-19.45,7.69,42,42,0,0,0-9.95,7.68"/><path class="cls-5" d="M193.05,550.54s-1.41,2,.84,5.21"/><line class="cls-5" x1="187.7" y1="551.39" x2="188.54" y2="555.75"/><path class="cls-5" d="M183.61,550.54c0,.57.28,5.21.28,5.21"/><line class="cls-5" x1="179.95" y1="550.12" x2="179.25" y2="554.63"/><path class="cls-5" d="M478.78,521.09s-3.48,4.87-5.22,7"/><path class="cls-5" d="M193.68,527.9s-7.69-2.95-12.33-8"/><path class="cls-5" d="M364.33,399.85s-9,4.17-27-1.53"/><path class="cls-5" d="M432.74,376.81s-26.6-23.42-3.83-61.4"/></svg>