<svg id="Layer_1" data-name="Layer 1" xmlns="http://www.w3.org/2000/svg" viewBox="0 0 700 700"><defs><style>.cls-1{fill:#feae63;}.cls-2{fill:#99abcc;}.cls-3{fill:#c4e7f9;}.cls-4{fill:#392328;}.cls-5{fill:none;stroke:#000;stroke-linecap:round;stroke-linejoin:round;stroke-width:2.3px;}</style></defs><title>Yoga_poses_2020_color</title><path class="cls-1" d="M269.15,258.72c-.47,4.2,3.3,3.11,3.3,3.11s3.32-3.11,6.05-3.11l-1.9-2.26s-4.21.57-5.83,1.42a1.46,1.46,0,0,1-.66.16Z"/><path class="cls-1" d="M273.76,253.24a4.66,4.66,0,0,0-3.68.51c-2.72,2.1-1.42,4.29,0,4.29a1.46,1.46,0,0,0,.66-.16c1.62-.85,5.83-1.42,5.83-1.42v-2.41s-1.29-.46-2.83-.86Z"/><path class="cls-1" d="M272.18,249c-3.3-.19-4,3.57-1.66,3.65a17.45,17.45,0,0,1,3.25.56c1.54.4,2.83.86,2.83.86v2.41l1.9,2.26a3.19,3.19,0,0,1,.54,0c2.83.48,3.77,3.54,7.54,14.6,2.61,7.66,8.58,15.17,12.94,22.28,8.25-8.13,15.14-5.46,15.14-5.46-2.76-4.95-4.15-9.25-2.68-12.5,4.75-10.49,2.41-14.81-5.41-17s-13-7.16-16.15-10.32-8.58-3-8.66-4.25-2.75-4.33-3.41-1.25a4,4,0,0,0-.09.66,4.72,4.72,0,0,0,2.17,4.09l-2.08,1.82a10.38,10.38,0,0,1-3.1-1.32h0a6.37,6.37,0,0,1-.74-.57A4.82,4.82,0,0,0,272.18,249Z"/><path class="cls-1" d="M277.7,245.51s-6.1-1.45-4.77,2a5.13,5.13,0,0,0,1.57,2.1,3.5,3.5,0,0,1,.74.57h0a10.38,10.38,0,0,0,3.1,1.32l2.08-1.82a4.72,4.72,0,0,1-2.17-4.09Z"/><path class="cls-1" d="M414.64,378l.39.2a110.81,110.81,0,0,0,6.88-16,.18.18,0,0,1,0-.05c.15-.94,2.23-14.82-12.1-14.58-14.84.26-32.74,17.54-32.74,17.54l0,.48-7.73.63L348,368a22.78,22.78,0,0,1-6.12,3.8,12.47,12.47,0,0,1-10.15,0c-13.76-1.32-23.26,6.1-24.55,10.83-.56,2.08-1.62,9.15-1.62,9.15l-2.1,9.87c-4.15,16.7-6.16,48.36-5.28,51.25s1.13,4.77,2,7.28S315.05,463,315.05,463l11.3,1.35h.16a1.27,1.27,0,0,0,1.26-1.09L338,464a1.35,1.35,0,0,0,1.45-1.26v-.1a1.35,1.35,0,0,0-1-1.31l.67-2.85-9.27-2.19.07-.63c-1.6-.18-3.61-.4-4.71-.5-2-.18-12.92-2.19-12.92-2.19-5.28-.72-.55-18.2,1.27-23.48,1.34-3.88,10.77-27.19,11.86-30.47s2.36-3.64,2.36-3.64c24.53-3.26,27.36-3.26,27.36-3.26,4.4-.33,16.58.24,28.79-.54a93.92,93.92,0,0,0,17.5-2.5C408.13,387.3,412.19,382.67,414.64,378Z"/><path class="cls-2" d="M381.85,296.8l.15,0c24.72-14.31,29.34-29,29.34-29a49,49,0,0,0-8-9.16c-26.8-23.65-46.9-11.09-50.76-2.68s-15.84,28.5-15,59.68a90.67,90.67,0,0,1-.46,12.46h0c-3.29-12.76-16.27-27-22.43-38,0,0-6.89-2.67-15.14,5.46a39.62,39.62,0,0,1,4.44,9.21c2.82,9.65,6.42,23.86,9.94,32.67,2.75,6.9,5.91,18.87,5.91,18.87s3.84,11.75,11.95,15.41a12.47,12.47,0,0,0,10.15,0A22.78,22.78,0,0,0,348,368c7.2-6.05,13.64-17,19-29C373.84,323.91,379,307.21,381.85,296.8Z"/><path class="cls-1" d="M339.07,458.49l-.67,2.85a1.35,1.35,0,0,1,1,1.31v.1l.48,0,3.81,0a1.59,1.59,0,0,0,1.59-1.45c0-.05,0-.09,0-.14a1.59,1.59,0,0,0-1.24-1.54Z"/><path class="cls-1" d="M398.49,423.37l.12-.07s4.49-2.63,3.63-6.91a46.9,46.9,0,0,1-.86-7.14A27.34,27.34,0,0,1,402.54,399,200.63,200.63,0,0,0,415,378.22l-.39-.2c-2.45,4.65-6.51,9.28-13.26,11.07a93.92,93.92,0,0,1-17.5,2.5v.2c-2.24,4-2.33,12.71-2.33,12.71,0,1.35-6.51,1.86-6.51,1.86-11-.81-8.82,5.92-8.38,6.76l-.07,10.1-4.93,1.51,3.09,5.14c2.19,2.48.92,3.29,1.23,7.55.39,5.41,4.82,13.18,4.82,13.18l.55,1.77s7.77-6.94,9.6-8.36c3.63-2.83,2.73-6.22,4.58-10.3s5.52-5.93,7.88-6c0,0,5,3.31,5.54-2.56A8.24,8.24,0,0,0,398.49,423.37Zm-28.82,9.12c0-1.44.45-2.62,1.07-2.63s1.16,1.14,1.19,2.58-.45,2.61-1.07,2.63S369.71,433.93,369.67,432.49Z"/><path class="cls-3" d="M367.05,339c-3.06,22.7,2.32,27,2.32,27l0,.21,7.73-.63,0-.48s17.9-17.28,32.74-17.54c14.33-.24,12.25,13.64,12.1,14.58a53,53,0,0,0,1.77-6.8c3-16.21,5.73-61.07-12.35-87.52,0,0-4.62,14.65-29.34,29l-.15,0C379,307.21,373.84,323.91,367.05,339Z"/><path d="M370.74,429.86c-.62,0-1.1,1.19-1.07,2.63s.57,2.59,1.19,2.58,1.1-1.19,1.07-2.63S371.36,429.85,370.74,429.86Z"/><path class="cls-4" d="M371.36,452.37l.41,1.35c14,6,25.62,9.21,39-1.68a18.24,18.24,0,0,0,2.31-2.69,26.44,26.44,0,0,0,3.49-6.63A28.19,28.19,0,0,0,418.25,432c0-.15,0-11.15-5.84-17.52s-9.82-13.09-11-5.26a46.9,46.9,0,0,0,.86,7.14c.86,4.28-3.63,6.91-3.63,6.91l-.12.07a8.24,8.24,0,0,1,.47,1.82c-.51,5.87-5.54,2.56-5.54,2.56-2.36,0-6,1.88-7.88,6s-1,7.47-4.58,10.3C379.13,445.43,371.36,452.37,371.36,452.37Z"/><path class="cls-4" d="M413.12,449.35l.34.25s1.17,6.18,8.73,5.85,9.55-9.55,7.3-14c-1.6-3.19-9-6.81-12.85,1.28h0A26.44,26.44,0,0,1,413.12,449.35Z"/><line class="cls-5" x1="394.92" y1="406.28" x2="389.97" y2="395.84"/><path class="cls-5" d="M393.42,427.75s5,3.31,5.54-2.56a8.24,8.24,0,0,0-.47-1.82A8.05,8.05,0,0,0,393,418.2s-3.2-.36-1.29,3.09"/><path class="cls-5" d="M390.39,413.93s-1.13-5.23-5.88-5.78"/><path class="cls-5" d="M371.36,452.37s7.77-6.94,9.6-8.36c3.63-2.83,2.73-6.22,4.58-10.3s5.52-5.93,7.88-6"/><path class="cls-5" d="M401.38,409.25c1.21-7.83,5.17-1.14,11,5.26s5.84,17.37,5.84,17.52"/><path class="cls-5" d="M413.46,449.6s1.17,6.18,8.73,5.85,9.55-9.55,7.3-14c-1.6-3.19-9-6.81-12.85,1.28"/><path class="cls-5" d="M418.25,432a28.19,28.19,0,0,1-1.64,10.69,26.44,26.44,0,0,1-3.49,6.63,18.24,18.24,0,0,1-2.31,2.69c-13.42,10.89-25,7.73-39,1.68l-.41-1.35-.55-1.77s-4.43-7.77-4.82-13.18c-.31-4.26,1-5.07-1.23-7.55l-3.09-5.14,4.93-1.51.07-10.1c-.44-.84-2.58-7.57,8.38-6.76,0,0,6.51-.51,6.51-1.86,0,0,.09-8.66,2.33-12.71"/><path class="cls-5" d="M421.92,362.2a53,53,0,0,0,1.77-6.8c3-16.21,5.73-61.07-12.35-87.52a49,49,0,0,0-8-9.16c-26.8-23.65-46.9-11.09-50.76-2.68s-15.84,28.5-15,59.68a90.67,90.67,0,0,1-.46,12.46,53,53,0,0,1-3,13"/><path class="cls-5" d="M398.61,423.3s4.49-2.63,3.63-6.91a46.9,46.9,0,0,1-.86-7.14A27.34,27.34,0,0,1,402.54,399,200.63,200.63,0,0,0,415,378.22a110.81,110.81,0,0,0,6.88-16"/><path class="cls-5" d="M318.25,458.76l8.68,3.06a1.28,1.28,0,0,1,.84,1.38v0a1.27,1.27,0,0,1-1.26,1.09h-.16L315.05,463s-13.95-.25-14.83-2.77-1.13-4.39-2-7.28,1.13-34.55,5.28-51.25l2.1-9.87s1.06-7.07,1.62-9.15c1.29-4.73,10.79-12.15,24.55-10.83"/><path class="cls-5" d="M327.75,463.22h0L338,464a1.35,1.35,0,0,0,1.45-1.26v-.1a1.35,1.35,0,0,0-1-1.31l-11.55-2.66"/><path class="cls-5" d="M339.92,462.78l3.81,0a1.59,1.59,0,0,0,1.59-1.45c0-.05,0-.09,0-.14a1.59,1.59,0,0,0-1.24-1.54l-5-1.19-9.27-2.19"/><path class="cls-5" d="M348,368l21.36-1.73,7.73-.63,2.82-.23a67,67,0,0,0,9-1.29"/><path class="cls-5" d="M343.73,458.81,332.26,456l-2.39-.28c-1.6-.18-3.61-.4-4.71-.5-2-.18-12.92-2.19-12.92-2.19-5.28-.72-.55-18.2,1.27-23.48,1.34-3.88,10.77-27.19,11.86-30.47s2.36-3.64,2.36-3.64c24.53-3.26,27.36-3.26,27.36-3.26,4.4-.33,16.58.24,28.79-.54a93.92,93.92,0,0,0,17.5-2.5c6.75-1.79,10.81-6.42,13.26-11.07a34.27,34.27,0,0,0,3.61-12"/><path class="cls-5" d="M384.51,286.55s-.93,4-2.66,10.25c-2.89,10.41-8,27.11-14.8,42.22-5.38,12-11.82,22.93-19,29a22.78,22.78,0,0,1-6.12,3.8,12.47,12.47,0,0,1-10.15,0c-8.11-3.66-11.95-15.41-11.95-15.41s-3.16-12-5.91-18.87c-3.52-8.81-7.12-23-9.94-32.67a39.62,39.62,0,0,0-4.44-9.21c-4.36-7.11-10.33-14.62-12.94-22.28-3.77-11.06-4.71-14.12-7.54-14.6a3.19,3.19,0,0,0-.54,0c-2.73,0-6.05,3.11-6.05,3.11s-3.77,1.09-3.3-3.11"/><path class="cls-5" d="M276.6,256.46s-4.21.57-5.83,1.42a1.46,1.46,0,0,1-.66.16c-1.45,0-2.75-2.19,0-4.29a4.66,4.66,0,0,1,3.68-.51c.15,0,.31.08.47.14"/><path class="cls-5" d="M276.6,254.05s-1.29-.46-2.83-.86a17.45,17.45,0,0,0-3.25-.56c-2.33-.08-1.64-3.84,1.66-3.65a4.82,4.82,0,0,1,2.32.59,3.5,3.5,0,0,1,.74.57"/><path class="cls-5" d="M278.35,251.46a10.38,10.38,0,0,1-3.1-1.32h0a6.37,6.37,0,0,1-.74-.57,5.13,5.13,0,0,1-1.57-2.1c-1.33-3.41,4.77-2,4.77-2"/><path class="cls-5" d="M280.43,249.64a4.72,4.72,0,0,1-2.17-4.09,4,4,0,0,1,.09-.66c.66-3.08,3.33,0,3.41,1.25s5.49,1.08,8.66,4.25,8.32,8.15,16.15,10.32,10.16,6.48,5.41,17c-1.47,3.25-.08,7.55,2.68,12.5,6.16,11,19.14,25.24,22.43,38"/><path class="cls-5" d="M411.34,267.88s-4.62,14.65-29.34,29"/><path class="cls-5" d="M421.91,362.25a.18.18,0,0,1,0-.05c.15-.94,2.23-14.82-12.1-14.58-14.84.26-32.74,17.54-32.74,17.54"/><path class="cls-5" d="M369.37,366.06s-5.38-4.34-2.32-27"/><path class="cls-5" d="M314.66,290.18s-6.89-2.67-15.14,5.46"/></svg>