<svg id="Layer_1" data-name="Layer 1" xmlns="http://www.w3.org/2000/svg" viewBox="0 0 700 700"><defs><style>.cls-1{fill:#feae63;}.cls-2{fill:#99abcc;}.cls-3{fill:#c4e7f9;}.cls-4{fill:#392328;}.cls-5{fill:none;stroke:#000;stroke-linecap:round;stroke-linejoin:round;stroke-width:2.3px;}</style></defs><title>Yoga_poses_2020_color</title><path class="cls-1" d="M515.3,426.29h-.13l-1.61-.1-1.18.08a1.47,1.47,0,0,1-.86.11,5.22,5.22,0,0,1-1.87-.68s-2.44.65-12.54.33-14.5-2.12-20.52-1-12.06.65-13.52-8.31c-.91-5.52-8.48-10.78-15.42-14.55,10-4.56,12.38-16.07,12.38-16.07l.24-.27c2.12,1.93,3.93,3.55,5.24,4.67,7.66,6.51,29.16,15.31,35.35,18.89s13.52,7.66,16.29,8.8c.35.14.75.28,1.2.41l-.14,1,2.47,2.86a3.19,3.19,0,0,1,.78,1.87l0,.16a1.82,1.82,0,0,1-1.82,2H517.8Z"/><path class="cls-2" d="M460.27,385.85l-.24.27s-2.38,11.51-12.38,16.07c-4.33-2.35-8.41-4.11-10.48-5-5.38-2.29-27.53-13-37.47-29.81S385,348.16,372.17,345.07s-33.72-13.2-37.95-15.64c0,0-1.8-.81-6.68.65s-29.65,2.28-43.17-18.24a10.28,10.28,0,0,0-3.76-1.59s1.64-4.28,1.32-14.7a56.81,56.81,0,0,1,3.58-20.2l-.11-.85c6.91-.84,13.24-1.64,17.21-1.27,8.8.82,33.4,8,41.05,9.94s27.7,9.61,55.39,36.32a107.89,107.89,0,0,0,8.63,6.68c4.73,3.26,6.68,10.92,8.31,14.34s6.68,11.24,12.05,15.64C432.5,359.79,450,376.51,460.27,385.85Z"/><path class="cls-3" d="M285.4,274.5l.11.85a56.81,56.81,0,0,0-3.58,20.2c.32,10.42-1.32,14.7-1.32,14.7-3.05-.69-7.85-.65-14,3.05-9.31,5.62-26.21,18.83-36.1,33h0c2.88-10.76-3.52-31.82-14.6-35.29s-21.39,8.72-21.39,8.72l-.18,0a37.62,37.62,0,0,1,15.35-24.44c14.26-10.59,20.45-16.45,25.33-18.08s13.4-3.09,25.92-1.47C267.8,276.56,277,275.5,285.4,274.5Z"/><path class="cls-1" d="M282.23,418.56a1.37,1.37,0,0,1-.16,2.74h-1.88a1.58,1.58,0,0,0-1.41-1.57l.19-1.58Z"/><path class="cls-1" d="M278.78,419.74a1.57,1.57,0,0,1-.21,3.14l-6.5-.19H272a1.34,1.34,0,0,0-1.07-1.19l-6.34-1.26.4-2Z"/><path class="cls-1" d="M213.24,360.75a26.56,26.56,0,0,1-2.64,8.93,24.31,24.31,0,0,1-7.95,9.05s-5.25,1.09-5.23,14.77a25.54,25.54,0,0,1-1.65,9.25,22.2,22.2,0,0,1-2.19,4.25l10.58.65,13.48.84c2.39.15,8.88.2,13.7.42a40.05,40.05,0,0,1,5,.45c.5.11,1.33.29,2.4.55,5.39,1.26,16.77,4,21.49,5.31,3.83,1,13.15,2.27,18.76,2.94l-.19,1.58L265,418.26l-.4,2,6.34,1.26A1.34,1.34,0,0,1,272,422.7a1.52,1.52,0,0,1,0,.47,1.35,1.35,0,0,1-1.3,1h-.09l-12.25-.9s-16.62,1-19.23-.16-2.93-1.31-12.86-.49c-8.12.66-35.95,2.41-45.87,3a4.38,4.38,0,0,1-4.57-3.43c-1.62-7.37-3.56-25.91,7.11-55.31,14.17-39.1,10.42-27.7,10.58-37.63a58.92,58.92,0,0,1,.86-9.61l.18,0s10.31-12.2,21.39-8.72,17.48,24.53,14.6,35.29h0c-.08.11-.16.21-.23.32a58.56,58.56,0,0,1-12,12.63,7.1,7.1,0,0,0-1.09,1,18.13,18.13,0,0,0-3,.65Z"/><path class="cls-4" d="M252.88,361.88c4.89,1,10.93,8.23,6.53,14.38s-10,3.27-10,3.27l-.66.06c-.19-.84-.41-1.69-.66-2.57a20.35,20.35,0,0,0-2.22-4.18l.09-.06C242,364.77,249.39,361.18,252.88,361.88Z"/><path class="cls-4" d="M248.76,379.59c2.81,12.74-2,21.14-9.86,29.5l-.18.82c-1.07-.26-1.9-.44-2.4-.55a40.05,40.05,0,0,0-5-.45l0-.25c-1-2.85-2-6.14-2.33-7.31-1.18-4.44-4.66-4.94-7.69-8.24s-3.29-7.4-2.4-9.58c0,0,5-3.34-.19-6.1a8.3,8.3,0,0,0-1.88-.28V377s-1.56-6.09-5.8-7.08l-.47-.24a26.56,26.56,0,0,0,2.64-8.93l.94.12a18.13,18.13,0,0,1,3-.65c7.55-1,15.42,2.12,15.42,2.12a27.74,27.74,0,0,1,13.29,10.5A20.35,20.35,0,0,1,248.1,377C248.35,377.9,248.57,378.75,248.76,379.59Z"/><path class="cls-1" d="M216.87,377.15a8.3,8.3,0,0,1,1.88.28c5.2,2.76.19,6.1.19,6.1-.89,2.18-.63,6.28,2.4,9.58s6.51,3.8,7.69,8.24c.31,1.17,1.38,4.46,2.33,7.31l0,.25c-4.82-.22-11.31-.27-13.7-.42l-13.48-.84v-.18l.11-1L196,402.86l-.27-.11a25.54,25.54,0,0,0,1.65-9.25c0-13.68,5.23-14.77,5.23-14.77a24.31,24.31,0,0,0,7.95-9.05l.47.24c4.24,1,5.8,7.08,5.8,7.08Zm0,30c.23-.58-.67-1.48-2-2s-2.61-.5-2.84.08.67,1.48,2,2S216.62,407.73,216.85,407.15Z"/><path d="M214.85,405.14c1.33.53,2.23,1.43,2,2s-1.5.62-2.84.08-2.23-1.43-2-2S213.51,404.61,214.85,405.14Z"/><path class="cls-5" d="M218.94,383.53s5-3.34-.19-6.1a8.3,8.3,0,0,0-1.88-.28,8,8,0,0,0-6.87,3s-1.59,2.81,2.33,2.39"/><path class="cls-5" d="M205,380.91a9.07,9.07,0,0,0-4.5.45"/><path class="cls-5" d="M231.36,408.66c-1-2.85-2-6.14-2.33-7.31-1.18-4.44-4.66-4.94-7.69-8.24s-3.29-7.4-2.4-9.58"/><path class="cls-5" d="M214.18,360.87a18.13,18.13,0,0,1,3-.65c7.55-1,15.42,2.12,15.42,2.12"/><path class="cls-5" d="M249.42,379.53s5.59,2.88,10-3.27-1.64-13.41-6.53-14.38c-3.49-.7-10.9,2.89-6.91,10.9"/><polyline class="cls-5" points="204.17 407.47 204.28 406.43 196.04 402.86"/><path class="cls-5" d="M232.59,362.34a27.74,27.74,0,0,1,13.29,10.5A20.35,20.35,0,0,1,248.1,377c.25.88.47,1.73.66,2.57,2.81,12.74-2,21.14-9.86,29.5"/><path class="cls-5" d="M216.87,377s-1.56-6.09-5.8-7.08"/><path class="cls-5" d="M509.82,421.47l3,2.31a1.22,1.22,0,0,1,.46.78,1.94,1.94,0,0,1,0,.24,1.6,1.6,0,0,1-1,1.47,1.47,1.47,0,0,1-.86.11,5.22,5.22,0,0,1-1.87-.68s-2.44.65-12.54.33-14.5-2.12-20.52-1-12.06.65-13.52-8.31c-.91-5.52-8.48-10.78-15.42-14.55-4.33-2.35-8.41-4.11-10.48-5-5.38-2.29-27.53-13-37.47-29.81S385,348.16,372.17,345.07s-33.72-13.2-37.95-15.64c0,0-1.8-.81-6.68.65s-29.65,2.28-43.17-18.24a10.28,10.28,0,0,0-3.76-1.59c-3.05-.69-7.85-.65-14,3.05-9.31,5.62-26.21,18.83-36.1,33-.08.11-.16.21-.23.32a58.56,58.56,0,0,1-12,12.63,7.1,7.1,0,0,0-1.09,1"/><path class="cls-5" d="M262.54,419.84l2,.41,6.34,1.26A1.34,1.34,0,0,1,272,422.7a1.52,1.52,0,0,1,0,.47,1.35,1.35,0,0,1-1.3,1h-.09l-12.25-.9s-16.62,1-19.23-.16-2.93-1.31-12.86-.49c-8.12.66-35.95,2.41-45.87,3a4.38,4.38,0,0,1-4.57-3.43c-1.62-7.37-3.56-25.91,7.11-55.31,14.17-39.1,10.42-27.7,10.58-37.63a58.92,58.92,0,0,1,.86-9.61,37.62,37.62,0,0,1,15.35-24.44c14.26-10.59,20.45-16.45,25.33-18.08s13.4-3.09,25.92-1.47c6.87.89,16.09-.17,24.47-1.17,6.91-.84,13.24-1.64,17.21-1.27,8.8.82,33.4,8,41.05,9.94s27.7,9.61,55.39,36.32a107.89,107.89,0,0,0,8.63,6.68c4.73,3.26,6.68,10.92,8.31,14.34s6.68,11.24,12.05,15.64c4.46,3.64,22,20.36,32.23,29.7,2.12,1.93,3.93,3.55,5.24,4.67,7.66,6.51,29.16,15.31,35.35,18.89s13.52,7.66,16.29,8.8c.35.14.75.28,1.2.41.85.26,1.84.5,2.84.71,2.62.55,5.24.91,5.24.91s1,3.83-1.95,4.48"/><path class="cls-5" d="M514.13,420.65l3.34,2.85,0,.33a2.22,2.22,0,0,1-2.21,2.46h-.13l-1.61-.1"/><path class="cls-5" d="M518.21,419.59l2.47,2.86a3.19,3.19,0,0,1,.78,1.87l0,.16a1.82,1.82,0,0,1-1.82,2H517.8"/><path class="cls-5" d="M521.14,419.59l2.14,1.8a2.6,2.6,0,0,1,.94,1.87l.09,1.47v.21a1.23,1.23,0,0,1-1.08,1.31l-1.61.19"/><path class="cls-5" d="M460,386.12s-2.38,11.51-12.38,16.07"/><path class="cls-5" d="M285.51,275.35a56.81,56.81,0,0,0-3.58,20.2c.32,10.42-1.32,14.7-1.32,14.7"/><path class="cls-5" d="M213.29,355a24.66,24.66,0,0,1,0,5.75,26.56,26.56,0,0,1-2.64,8.93,24.31,24.31,0,0,1-7.95,9.05s-5.25,1.09-5.23,14.77a25.54,25.54,0,0,1-1.65,9.25,22.2,22.2,0,0,1-2.19,4.25,21.54,21.54,0,0,1-2.3,2.93"/><path class="cls-5" d="M193.58,407l10.58.65,13.48.84c2.39.15,8.88.2,13.7.42a40.05,40.05,0,0,1,5,.45c.5.11,1.33.29,2.4.55,5.39,1.26,16.77,4,21.49,5.31,3.83,1,13.15,2.27,18.76,2.94l3.26.4a1.37,1.37,0,0,1-.16,2.74H280.3"/><path class="cls-5" d="M272.07,422.69l6.5.19a1.57,1.57,0,0,0,.21-3.14L265,418.26"/><path class="cls-5" d="M194.51,319.69s10.31-12.2,21.39-8.72,17.48,24.53,14.6,35.29"/></svg>