<svg id="Layer_1" data-name="Layer 1" xmlns="http://www.w3.org/2000/svg" viewBox="0 0 700 700"><defs><style>.cls-1{fill:#feae63;}.cls-2{fill:#c4e7f9;}.cls-3{fill:#392328;}.cls-4{fill:#99abcc;}.cls-5{fill:#231f20;}.cls-6{fill:none;stroke:#000;stroke-linecap:round;stroke-linejoin:round;stroke-width:2.3px;}</style></defs><title>Yoga_poses_2020_color</title><path class="cls-1" d="M521.89,453.2c0,.05,0,.09,0,.14a1.58,1.58,0,0,1-1.59,1.45l-3.81,0-.48,0v-.08a1.36,1.36,0,0,0-1-1.33l.67-2.85,5,1.19A1.59,1.59,0,0,1,521.89,453.2Z"/><path class="cls-1" d="M515,453.32a1.36,1.36,0,0,1,1,1.33v.08a1.36,1.36,0,0,1-1.46,1.26l-10.22-.78a1.28,1.28,0,0,1-1.42,1.08l-11.3-1.36s-10.18-.24-12.44-1.65c-1-.63-3.58-6.18-4.15-10.08-1.56-10.72-.81-25.2.1-35.58.55-6.24,1.15-11,1.35-12.57.52-4.18.26-14.11,0-20.14s-3-18.9-3-18.9a95.27,95.27,0,0,1-1.54-11.5h0s-9-1.1-12.64-9.13c-.72-1.57-1.3-6.6-.68-12.42s2.47-12.51,6.64-17.26c4.46-5.08,11.56-8,22.66-5.41,2.5.58,6.09,3.13,7.72,5.12a16.67,16.67,0,0,1,3.71,10.71c0,9.68.14,11.11-1.89,17.64a47.1,47.1,0,0,0-1.28,8c-1,10.18-1.43,25.77-2.07,33.11,0,0,0,6,.34,11.18,0,.67.09,1.33.15,2,.5,5.46-.82,13.84-5,27-2.42,7.64-6,29.18-.75,29.91,0,0,10.92,2,12.92,2.18,1.09.1,3.1.32,4.7.5l-.07.63,9.27,2.19Z"/><path class="cls-2" d="M514.12,337.21c2.07,7.48-1.5,16.49-8.81,23.12,0,0-2.21,1-3.24,9.52S495.59,386,495.59,386l-1.19.08c-.34-5.17-.34-11.18-.34-11.18.64-7.34,1.06-22.93,2.07-33.11a14,14,0,0,0,7.28-9.69c1.46-6.94-3.81-15.5-4.1-16C499.72,316.57,512.08,329.86,514.12,337.21Z"/><path class="cls-1" d="M499.31,316.14c.29.47,5.56,9,4.1,16a14,14,0,0,1-7.28,9.69,47.1,47.1,0,0,1,1.28-8c2-6.53,1.89-8,1.89-17.64Z"/><path class="cls-1" d="M458.61,271.16l-.1,0c-.09-.15-6.25-4.74-8.31-11.62a26,26,0,0,0-6.34-10.81l1.82-.22s8.32-2.89,13.63-2.27c4.16.47,4.73,1.86,7.51.17l5.53-2,.61,5,9.73,1.93c.89-.31,7.83-1.15,5,9.31a47.12,47.12,0,0,0,5.43,18.53s1.95,2.74,2.17,8.37.28,17.89.28,17.89c-1.63-2-5.22-4.54-7.72-5.12-11.1-2.58-18.2.33-22.66,5.41,5.82-7.64,2.17-11.43,2.17-11.43a26.3,26.3,0,0,0,7.75-5.08c.14-.13.27-.27.4-.41a2.61,2.61,0,0,0-.36-3.9,19.73,19.73,0,0,0-5.39-2.76c-2.81-.89-5.22-1.62-7.34-4.11a7.88,7.88,0,0,1-1.05-1.64L460.28,274C458.78,273.08,458.44,272.07,458.61,271.16Zm7.15-19c.1-.61-1-1.28-2.36-1.51s-2.61.07-2.71.68,1,1.28,2.35,1.51S465.66,252.8,465.76,252.19Z"/><path class="cls-2" d="M476.46,374.91c.26,6,.52,16,0,20.14-.2,1.57-.8,6.33-1.35,12.57-1.26,4.35-4,7.08-7.55,9.67,0,0,5.45-24.82-23.71-37.06,8.76-3.91,11.47-15.82,11.47-15.82s1.87-13.43,1.36-19.55,1.63-21.93,1.63-21.93l.26,0c-.62,5.82,0,10.85.68,12.42,3.68,8,12.64,9.13,12.64,9.13h0a95.27,95.27,0,0,0,1.54,11.5S476.19,368.88,476.46,374.91Z"/><path class="cls-3" d="M475.17,284.88a2.61,2.61,0,0,1,.36,3.9c-.13.14-.26.28-.4.41a26.3,26.3,0,0,1-7.75,5.08c-1.12.49-1.85.73-1.85.73s-10.21,3.39-19,.17h0A17.27,17.27,0,0,1,437,287c-8.1-15-2.91-25.63,5.47-38.1l1.4-.16a26,26,0,0,1,6.34,10.81c2.06,6.88,8.22,11.47,8.31,11.62l.1,0c-.17.91.17,1.92,1.67,2.85l1.11,2.36a7.88,7.88,0,0,0,1.05,1.64c2.12,2.49,4.53,3.22,7.34,4.11A19.73,19.73,0,0,1,475.17,284.88Z"/><path class="cls-4" d="M443.85,380.23c29.16,12.24,23.71,37.06,23.71,37.06-2,1.48-4.33,2.92-6.8,4.59-6.8,4.59-16.49,8-35.19,17.68s-44,7.14-64.6,8.5-43-6.29-59-3.4c-12.36,2.23-42.65-.58-60.55-1.25v-.17c-5.45-13.82.94-18.37,1.23-18.56h0c15.42-2,42.05-6.46,52.84-7.89,14.11-1.87,32.47,4.59,48.45-1a328.27,328.27,0,0,1,46.92-12.24c10.37-1.7,13.26-12.92,23.29-19S435.09,384.14,443.85,380.23Z"/><path class="cls-5" d="M463.4,250.68c1.4.23,2.46.9,2.36,1.51s-1.32.91-2.72.68-2.45-.9-2.35-1.51S462,250.45,463.4,250.68Z"/><path class="cls-3" d="M446.48,295.17c1.42,1.14,6.28,3.86,5.4,8.68s-3.5,8.34-11.71,3.59-6-9.37-3.13-10.77a15.46,15.46,0,0,0,4.78-3.76l.12-.17a17.41,17.41,0,0,0,4.53,2.42Z"/><path class="cls-1" d="M241.44,443.24v.17a75.93,75.93,0,0,0-11.78.12c-10.37,1.53-22.9,4-30.39,3.66s-14.45,0-14.45,0-2.72,2.21-5.61,1.88-2.38-2.9-1.36-3.24a6.88,6.88,0,0,0,2.21-1.7,11.45,11.45,0,0,1,6.46-7.14c5.44-2.55,9.52-4.25,15.3-9.35s7.66-7.83,12.08-10,10.71,7.83,18.53,8a89.12,89.12,0,0,0,10.25-.92C242.38,424.87,236,429.42,241.44,443.24Z"/><path class="cls-6" d="M504.3,455.21h0l10.22.78a1.36,1.36,0,0,0,1.46-1.26v-.08a1.36,1.36,0,0,0-1-1.33l-11.54-2.66"/><path class="cls-6" d="M516.48,454.76l3.81,0a1.58,1.58,0,0,0,1.59-1.45s0-.09,0-.14a1.59,1.59,0,0,0-1.25-1.54l-5-1.19-9.27-2.19"/><path class="cls-6" d="M472.13,312.82a212.59,212.59,0,0,0-.23,31.69,95.27,95.27,0,0,0,1.54,11.5s2.75,12.87,3,18.9.52,16,0,20.14c-.2,1.57-.8,6.33-1.35,12.57-.91,10.38-1.66,24.86-.1,35.58.57,3.9,3.14,9.45,4.15,10.08,2.26,1.41,12.44,1.65,12.44,1.65l11.3,1.36a1.28,1.28,0,0,0,1.42-1.08,0,0,0,0,0,0,0,1,1,0,0,0,0-.17,1.27,1.27,0,0,0-.86-1.2l-8.67-3.07"/><path class="cls-6" d="M471.89,344.51s-9-1.1-12.64-9.13c-.72-1.57-1.3-6.6-.68-12.42s2.47-12.51,6.64-17.26c4.46-5.08,11.56-8,22.66-5.41,2.5.58,6.09,3.13,7.72,5.12a16.67,16.67,0,0,1,3.71,10.71c0,9.68.14,11.11-1.89,17.64a47.1,47.1,0,0,0-1.28,8c-1,10.18-1.43,25.77-2.07,33.11,0,0,0,6,.34,11.18,0,.67.09,1.33.15,2,.5,5.46-.82,13.84-5,27-2.42,7.64-6,29.18-.75,29.91,0,0,10.92,2,12.92,2.18,1.09.1,3.1.32,4.7.5l2.39.28,11.47,2.86"/><path class="cls-6" d="M477.9,269.65s5.32-.63,6.31-5.3"/><path class="cls-6" d="M460.62,268.4a5.37,5.37,0,0,0-2,2.76c-.17.91.17,1.92,1.67,2.85a7.38,7.38,0,0,0,.69.39s5.25,1.45,8.55-2.92c0,0,1.49-2.81-2.36-2.29"/><path class="cls-6" d="M443.85,248.7h0a26,26,0,0,1,6.34,10.81c2.06,6.88,8.22,11.47,8.31,11.62"/><path class="cls-6" d="M446.48,295.17c8.84,3.22,19-.17,19-.17s.73-.24,1.85-.73a26.3,26.3,0,0,0,7.75-5.08c.14-.13.27-.27.4-.41a2.61,2.61,0,0,0-.36-3.9,19.73,19.73,0,0,0-5.39-2.76c-2.81-.89-5.22-1.62-7.34-4.11a7.88,7.88,0,0,1-1.05-1.64L460.28,274"/><path class="cls-6" d="M495.59,305.41s-.06-12.25-.28-17.89-2.17-8.37-2.17-8.37a47.12,47.12,0,0,1-5.43-18.53c2.81-10.46-4.13-9.62-5-9.31L473,249.38l-.61-5-5.53,2c-2.78,1.69-3.35.3-7.51-.17-5.31-.62-13.63,2.27-13.63,2.27l-1.82.22-1.4.16C434.08,261.34,428.89,272,437,287a17.27,17.27,0,0,0,9.48,8.19"/><path class="cls-6" d="M446.47,295.16h0c1.42,1.14,6.28,3.86,5.4,8.68s-3.5,8.34-11.71,3.59-6-9.37-3.13-10.77a15.46,15.46,0,0,0,4.78-3.76"/><path class="cls-6" d="M475.13,289.19a12.53,12.53,0,0,1,6.88,0"/><path class="cls-6" d="M467.38,294.27s3.65,3.79-2.17,11.43"/><path class="cls-6" d="M499.3,316.12v0c.29.47,5.56,9,4.1,16a14,14,0,0,1-7.28,9.69"/><path class="cls-6" d="M495.59,386s5.46-7.65,6.48-16.16,3.24-9.52,3.24-9.52c7.31-6.63,10.88-15.64,8.81-23.12s-14.4-20.64-14.81-21.07"/><path class="cls-6" d="M455.32,364.41s1.87-13.43,1.36-19.55,1.63-21.93,1.63-21.93"/><path class="cls-6" d="M242.67,424.68a89.12,89.12,0,0,1-10.25.92c-7.82-.17-14.11-10.21-18.53-8s-6.29,4.93-12.08,10-9.86,6.8-15.3,9.35a11.45,11.45,0,0,0-6.46,7.14,6.88,6.88,0,0,1-2.21,1.7c-1,.34-1.53,2.91,1.36,3.24s5.61-1.88,5.61-1.88,7-.34,14.45,0,20-2.13,30.39-3.66a75.93,75.93,0,0,1,11.78-.12c17.9.67,48.19,3.48,60.55,1.25,16-2.89,38.42,4.76,59,3.4s45.9,1.19,64.6-8.5,28.39-13.09,35.19-17.68c2.47-1.67,4.77-3.11,6.8-4.59,3.57-2.59,6.29-5.32,7.55-9.67"/><path class="cls-6" d="M455.32,364.41s-2.71,11.91-11.47,15.82-19.64-1.71-29.67,4.33-12.92,17.26-23.29,19A328.27,328.27,0,0,0,344,415.76c-16,5.61-34.34-.85-48.45,1-10.79,1.43-37.42,5.93-52.84,7.89"/><path class="cls-6" d="M467.56,417.29s5.45-24.82-23.71-37.06"/><path class="cls-6" d="M242.68,424.67h0c-.29.19-6.68,4.74-1.23,18.56"/></svg>