<svg id="Layer_1" data-name="Layer 1" xmlns="http://www.w3.org/2000/svg" viewBox="0 0 700 700"><defs><style>.cls-1{fill:#feae63;}.cls-2{fill:#99abcc;}.cls-3{fill:#c4e7f9;}.cls-4{fill:#392328;}.cls-5{fill:none;stroke:#000;stroke-linecap:round;stroke-linejoin:round;stroke-width:2.3px;}</style></defs><title>Yoga_poses_2020_color</title><path class="cls-1" d="M566.75,433.27a2.9,2.9,0,0,1,.59,1.75,2.87,2.87,0,0,1-2.52,2.86,46.68,46.68,0,0,1-12.4.15c-6.55-1-18.6-1-25.67-.53s-13.62,3-16-6.28c-2-8-9.72-11.59-17.94-13.84l0-.16c7.32-5.14,7.1-17.38,7.1-17.38a47.6,47.6,0,0,0,7.75,2.9c5.62,1.42,22.7,7.26,35.53,16.69,0,0,12.31,8.64,14.14,9.95,1.46,1,4.89,2.08,7.81,2.86A2.83,2.83,0,0,1,566.75,433.27Z"/><path class="cls-2" d="M500,399.84s.22,12.24-7.1,17.38l0,.16c-6.49-1.79-13.31-2.77-17.94-4.5-10.47-3.92-34.83-8.64-45.3-19.9s-23.31-22.26-43.48-27.5S356,347.67,347.88,346.36,324.31,347.41,313,335.1c-8.24-9-7.92-15.63-15.69-19.26,0,0,1.65-11.54,3.18-15.67s3.26-14.6,8.25-19.16l1.12.14c14.93,1.57,18.86,3.41,41.12,16.76s13.62,2.62,55.26,32.74c0,0,19.64,15.71,24.09,18.07s8.64,7.86,18.07,18.86,10.48,8.9,18.6,13.35C473.57,384.51,488.38,394.52,500,399.84Z"/><path class="cls-3" d="M308.78,281c-5,4.56-6.73,15-8.25,19.16s-3.18,15.67-3.18,15.67c-2.84-1.32-6.77-2.25-12.59-2.74-20.2-1.7-17.79,1.57-59.81-1.64l.05-.65,2.93-17.92c2.44-23-13.2-28.5-13.2-28.5a42.57,42.57,0,0,0-6.22,1.5l-.33-1c2.37-.81,5.1-1.94,8.75-3.37,12-4.71,19.12-3.67,27.24-1.31s9.69,4.19,23,5C280.24,265.94,294.25,278.91,308.78,281Z"/><path class="cls-1" d="M246,440.53v.14a1.11,1.11,0,0,1-1.11,1.11h-4.14l-.1,0a1.11,1.11,0,0,1-1.1.65l-11.63-.95-.32,0a1.15,1.15,0,0,1,.32.79,1.13,1.13,0,0,1-1.27,1.12c-3.85-.51-15.65-2-23.87-2.19-10-.26-8.65-3.14-9.69-8.12s-1-30.38.52-42.95,3.93-25.14,2.88-29.86-2.09-12.31-2.09-12.31a260.88,260.88,0,0,0-2.74-29.18c-1.06-7.5-2.16-14.13-2.76-19.33a53.31,53.31,0,0,1-.32-8.59c.32-6.86,2.12-12.86,5.55-16.56.13-.14.26-.28.4-.41,4-4.18,9.67-6.62,14-8a42.57,42.57,0,0,1,6.22-1.5s15.64,5.54,13.2,28.5L225,310.81l-.05.65c-3.19-.24-6.64-.53-10.38-.85h-.46c-.13,15.59.3,42,.3,50.39,0,11.56-2.12,29.64-4.07,35.18s-4.57,26.39-4.89,30.14,4.76,4.82,5,4.88h0l15.38,1.25a8.72,8.72,0,0,1,1.43.24l18.93,5.25a1.37,1.37,0,0,1,1,1.33,1.39,1.39,0,0,1-.84,1.27Z"/><path class="cls-1" d="M158,295.54l0,.1c-.16,0-6.11-1.72-12.36,3.69a4.47,4.47,0,0,1-2.61,1.1,25.91,25.91,0,0,0-10.66,3l.31-1.81s-.46-8.8,1.61-13.72c1.61-3.87,3.1-4,2.26-7.17l-.43-5.88,5,.82,4.56-8.81c0-.94,1.08-7.84,10.35-2.23,0,0,6.89,2.42,12.45.08a45.83,45.83,0,0,1,22.53-.08c8.22,2.2,11.73,2.09,17.18.23l.33,1c-4.3,1.35-9.95,3.79-14,8-.14.13-.27.27-.4.41-3.43,3.7-5.23,9.7-5.55,16.56h0c-2.77-7.49-8-4.81-8-4.81l-1.32.19a6.9,6.9,0,0,0-1.2-.83c-1.81-1-3.7-1.59-6.42,2.49-1.61,2.43-3,4.52-5.92,5.87a7.62,7.62,0,0,1-1.94.58l-2.57.41C159.91,295.92,158.84,296,158,295.54Zm-16.32-9.36c.61-1.28.65-2.53.1-2.79s-1.5.56-2.11,1.84-.65,2.53-.1,2.79S141.09,287.46,141.7,286.18Z"/><path class="cls-4" d="M179.47,311.83c.47-.12,6.14-1.43,9.12,5.17a8.27,8.27,0,0,1,.64,2.1c1,6-5.4,10.73-9.87,10.72-3.56,0-10.51-5.35-5-12.42h0a19,19,0,0,0,4.8-5.75Z"/><path class="cls-4" d="M182.85,295.54s.33,8.8-3.72,16.1a19,19,0,0,1-4.8,5.75h0a17.42,17.42,0,0,1-7.14,3.31c-16.63,3.6-25.42-4.35-35.06-15.88l.23-1.38a25.91,25.91,0,0,1,10.66-3,4.47,4.47,0,0,0,2.61-1.1c6.25-5.41,12.2-3.66,12.36-3.69l0-.1c.82.42,1.89.38,3.21-.81l2.57-.41a7.62,7.62,0,0,0,1.94-.58c2.94-1.35,4.31-3.44,5.92-5.87,2.72-4.08,4.61-3.49,6.42-2.49a6.9,6.9,0,0,1,1.2.83C182.93,289.35,182.85,295.54,182.85,295.54Z"/><path d="M141.8,283.39c.55.26.51,1.51-.1,2.79s-1.55,2.11-2.11,1.84-.51-1.51.1-2.79S141.25,283.12,141.8,283.39Z"/><path class="cls-5" d="M162,276.59s.88-5.28-3.33-7.54"/><path class="cls-5" d="M155.93,292.83a5.34,5.34,0,0,0,2.09,2.71c.82.42,1.89.38,3.21-.81a5.73,5.73,0,0,0,.56-.55s2.86-4.64-.42-9c0,0-2.28-2.21-2.86,1.63"/><path class="cls-5" d="M132.34,303.46h0a25.91,25.91,0,0,1,10.66-3,4.47,4.47,0,0,0,2.61-1.1c6.25-5.41,12.2-3.66,12.36-3.69"/><path class="cls-5" d="M179.44,311.84h0c.47-.12,6.14-1.43,9.12,5.17a8.27,8.27,0,0,1,.64,2.1c1,6-5.4,10.73-9.87,10.72-3.56,0-10.51-5.35-5-12.42"/><path class="cls-5" d="M214.57,310.61c3.74.32,7.19.61,10.38.85,42,3.21,39.61-.06,59.81,1.64,5.82.49,9.75,1.42,12.59,2.74,7.77,3.63,7.45,10.25,15.69,19.26,11.27,12.31,26.72,9.95,34.84,11.26s18.07,13.88,38.23,19.12,33,16.24,43.48,27.5,34.83,16,45.3,19.9c4.63,1.73,11.45,2.71,17.94,4.5,8.22,2.25,15.91,5.81,17.94,13.84,2.36,9.31,8.91,6.81,16,6.28s19.12-.52,25.67.53a46.68,46.68,0,0,0,12.4-.15,2.87,2.87,0,0,0,2.52-2.86,2.9,2.9,0,0,0-.59-1.75,2.83,2.83,0,0,0-1.55-1c-2.92-.78-6.35-1.82-7.81-2.86-1.83-1.31-14.14-9.95-14.14-9.95-12.83-9.43-29.91-15.27-35.53-16.69a47.6,47.6,0,0,1-7.75-2.9c-11.59-5.32-26.4-15.33-32.93-18.91-8.12-4.45-9.17-2.35-18.6-13.35s-13.62-16.5-18.07-18.86-24.09-18.07-24.09-18.07c-41.64-30.12-33-19.38-55.26-32.74s-26.19-15.19-41.12-16.76l-1.12-.14c-14.53-2.1-28.54-15.07-41.57-15.83-13.35-.79-14.93-2.62-23-5s-15.19-3.4-27.24,1.31c-3.65,1.43-6.38,2.56-8.75,3.37-5.45,1.86-9,2-17.18-.23a45.83,45.83,0,0,0-22.53.08c-5.56,2.34-12.45-.08-12.45-.08-9.27-5.61-10.4,1.29-10.35,2.23l-4.56,8.81-5-.82.43,5.88c.84,3.14-.65,3.3-2.26,7.17-2.07,4.92-1.61,13.72-1.61,13.72l-.31,1.81-.23,1.38c9.64,11.53,18.43,19.48,35.06,15.88a17.42,17.42,0,0,0,7.14-3.31h0a19,19,0,0,0,4.8-5.75c4.05-7.3,3.72-16.1,3.72-16.1s.08-6.19-3.57-9.33a6.9,6.9,0,0,0-1.2-.83c-1.81-1-3.7-1.59-6.42,2.49-1.61,2.43-3,4.52-5.92,5.87a7.62,7.62,0,0,1-1.94.58l-2.57.41"/><path class="cls-5" d="M194.14,274.27c-3.43,3.7-5.23,9.7-5.55,16.56a53.31,53.31,0,0,0,.32,8.59c.6,5.2,1.7,11.83,2.76,19.33a260.88,260.88,0,0,1,2.74,29.18s1,7.6,2.09,12.31-1.31,17.29-2.88,29.86-1.57,38-.52,42.95-.27,7.86,9.69,8.12c8.22.22,20,1.68,23.87,2.19a1.13,1.13,0,0,0,1.27-1.12,1.15,1.15,0,0,0-.32-.79,1.31,1.31,0,0,0-.45-.28l-13.11-4.45"/><path class="cls-5" d="M208.55,272.25s-6.81-4.09-12.84.57a11.45,11.45,0,0,0-1.17,1"/><path class="cls-5" d="M227.93,441.43l11.63.95a1.11,1.11,0,0,0,1.1-.65,1.19,1.19,0,0,0,.1-.46,1.1,1.1,0,0,0-.87-1.08l-16.41-3.73"/><path class="cls-5" d="M240.76,441.78h4.14a1.11,1.11,0,0,0,1.11-1.11v-.31a1.1,1.1,0,0,0-.88-1.08l-16.88-3.69"/><path class="cls-5" d="M246.45,440.53a1.39,1.39,0,0,0,.84-1.27,1.37,1.37,0,0,0-1-1.33l-18.93-5.25a8.72,8.72,0,0,0-1.43-.24l-15.38-1.25h0c-.28-.06-5.36-1.24-5-4.88s2.93-24.6,4.89-30.14,4.07-23.62,4.07-35.18c0-8.38-.43-34.8-.3-50.39a100.7,100.7,0,0,1,.46-11.51,18.8,18.8,0,0,1,4.24-7.82"/><path class="cls-5" d="M180.6,286s5.21-2.68,8,4.81"/><path class="cls-5" d="M194.14,274.27c.13-.14.26-.28.4-.41,4-4.18,9.67-6.62,14-8a42.57,42.57,0,0,1,6.22-1.5s15.64,5.54,13.2,28.5L225,310.81"/><path class="cls-5" d="M297.35,315.84s1.65-11.54,3.18-15.67,3.26-14.6,8.25-19.16"/><path class="cls-5" d="M500,399.84s.22,12.24-7.1,17.38"/></svg>