<svg id="Layer_1" data-name="Layer 1" xmlns="http://www.w3.org/2000/svg" viewBox="0 0 700 700"><defs><style>.cls-1{fill:#170607;}.cls-2{fill:#feae63;}.cls-3{fill:#c4e7f9;}.cls-4{fill:#99abcc;}.cls-5{fill:none;stroke:#000;stroke-linecap:round;stroke-linejoin:round;stroke-width:2.3px;}</style></defs><title>Yoga_poses_2020_color</title><path class="cls-1" d="M556.19,211c4.76-1.48,13.53,2,12.61,9.52s-7.21,7.64-7.21,7.64l-.59.34c-.55-.64-1.14-1.27-1.77-1.91a20.11,20.11,0,0,0-3.91-2.6l0-.1C548,218.76,552.79,212.06,556.19,211Z"/><path class="cls-1" d="M561,228.5c10.13,11.63,8.08,23,3.65,36.79l-1.3.54s-7.65-7.07-9.25-8.76c-3.16-3.33-6.45-2.11-10.69-3.56s-6.43-4.93-6.69-7.27c0,0,2.81-5.33-3.08-5.26a8.82,8.82,0,0,0-1.77.64l-.08-.12s-4.28-4.61-8.49-3.45c-.37.1-.73.19-1.1.27h0c-5.51.22-5.91-4.12-.48-9.7,6-6.22,16.87-7.5,16.87-7.5A27.74,27.74,0,0,1,555.32,224a20.11,20.11,0,0,1,3.91,2.6C559.86,227.23,560.45,227.86,561,228.5Z"/><path class="cls-2" d="M531.87,241.62a8.82,8.82,0,0,1,1.77-.64c5.89-.07,3.08,5.26,3.08,5.26.26,2.34,2.45,5.82,6.69,7.27s7.53.23,10.69,3.56c1.6,1.69,9.25,8.76,9.25,8.76l-1.71.71s-7.3,5.16-12.65,6.07c-4.21.72-5.14-.46-7.4,2l-4.82,3.56-2-4.76-10.06.9c-.79.52-7.29,3.3-7.53-7.68,0,0-.58-7.08-3.87-7.94-1.85-.48-5.07.54-5.07.54-4.05,1.33-5.76,3.61-9,5.57s-7.12,9.61-7.12,9.61c-1.82-5.36-1.24-7.58-1.19-7.76h0a21.5,21.5,0,0,0,5.05-3.8s7.55-6.62,7.55-13.77c0,0-1.89-11.15-11.72-12.52-2.64-.36-9.18-1.21-14.45,1.85a25,25,0,0,1-2.52,1.3c0-5.3.67-7,.67-7a62.61,62.61,0,0,1,17.81-.95l2.1.35c4.31.7,9.59,3.17,13.56,5a21,21,0,0,0,13.22,1.31c.37-.08.73-.17,1.1-.27,4.21-1.16,8.49,3.45,8.49,3.45Zm11.85,27.8c1.43-.17,2.53-.81,2.45-1.43s-1.29-1-2.72-.81-2.52.81-2.45,1.43S542.29,269.59,543.72,269.42Z"/><path d="M546.17,268c.08.62-1,1.26-2.45,1.43s-2.64-.19-2.72-.81,1-1.26,2.45-1.43S546.1,267.37,546.17,268Z"/><path class="cls-2" d="M339.15,248.67a1.18,1.18,0,0,1,1-2.14L347,249l5.34,1.91a8.66,8.66,0,0,0,1.6.21l9.62.33a10.67,10.67,0,0,1,4.4,1.1l.4.18a10.79,10.79,0,0,0,5.29.88c5-.43,15-1.33,20.25-2.08a132.17,132.17,0,0,1,14.71-.91c4.27-.09,8.59-.11,12.33-.18,8.47-.16,26.38-4.4,34.2-6.35,4.24-1.06,9.39-1.9,13.23-2.45a24,24,0,0,0,6.52-2,25,25,0,0,0,2.52-1.3c5.27-3.06,11.81-2.21,14.45-1.85,9.83,1.37,11.72,12.52,11.72,12.52,0,7.15-7.55,13.77-7.55,13.77a21.5,21.5,0,0,1-5.05,3.8h0c-10.59,5.71-21.24-1.3-21.24-1.3-6.74.15-15.87.47-23.45,1.18-13.9,1.31-25.19,1.31-25.19,1.31s-4.13.22-10.18,0a136.06,136.06,0,0,1-15.42-1.33,176.06,176.06,0,0,0-27.08-1.35,10.89,10.89,0,0,1-3.26-.41L358.79,263a9.22,9.22,0,0,0-1-.24l-10.94-2a10.87,10.87,0,0,1-3.36-1.19l-15.79-8.66a1.75,1.75,0,0,1,.84-3.28,1.76,1.76,0,0,1,.7.15l3.35,1.45a1.58,1.58,0,0,1-.66-2.33,1.6,1.6,0,0,1,1.33-.7,1.63,1.63,0,0,1,.64.13Z"/><path class="cls-3" d="M490.93,266.61c-.05.18-.63,2.4,1.19,7.76-9.55,14.25-16.23,12.65-27.05,14.56s-19.74,3.19-36.29,1.6a168,168,0,0,0-21-.18C406,284,410,276.62,410.86,268.14v-.32c6.05.2,10.18,0,10.18,0s11.29,0,25.19-1.31c7.58-.71,16.71-1,23.45-1.18C469.69,265.31,480.34,272.32,490.93,266.61Z"/><path class="cls-3" d="M475.51,232.64s-.71,1.72-.67,7a24,24,0,0,1-6.52,2c-3.84.55-9,1.39-13.23,2.45-7.82,2-25.73,6.19-34.2,6.35-3.74.07-8.06.09-12.33.18v-.35c-.45-1.86.54-5.28.54-5.28,23.37,0,40.65-4,55.93-9.51A66.79,66.79,0,0,1,475.51,232.64Z"/><path class="cls-2" d="M416.15,483.39a40.73,40.73,0,0,0,4.22,1.71,5.32,5.32,0,0,0,.62.07,2.14,2.14,0,0,1,1.38,3.63,2,2,0,0,1-.27.22c-1.92,1.4-4.92.4-6.23.24s-11.18-.23-17.72-3.15-13.33-1.35-17.68-.05a21.85,21.85,0,0,1-12.17.3s-4.59-1.67-1.62-9.61a41.43,41.43,0,0,0,2.72-15.12h0c14.6,2.68,18.74-1.53,18.74-1.53,1.44,6.17,2.83,7.81,2.83,7.81C397.88,473.5,416.39,483.39,416.15,483.39Z"/><path class="cls-4" d="M410.87,267.82v.32c-.86,8.48-4.87,15.86-3.09,22.21-4,.13-8,.26-11.93.27-7,0-13.77-.39-19.59-2a175.07,175.07,0,0,0-19.76-4.41c-5.09-.84-10.69-1.62-18.76-2.92-17.83-2.86-44.25-8.59-55.39-11.77s-16.55-8.6-27.38-10.19-18.14-1.35-36.6-6.41c-10.71-2.93-21.31-3.45-30.63-3.42-1.15-12.9,3.88-16.74,3.88-16.74,31.84-1.43,53.17-2.72,63.67,0s29.29,10,49.34,10.65c10.95.35,20.76,1,28.62,1.07l0,1.69a1.6,1.6,0,0,0-1.33.7,1.58,1.58,0,0,0,.66,2.33l-3.35-1.45a1.76,1.76,0,0,0-.7-.15,1.75,1.75,0,0,0-.84,3.28l15.79,8.66a10.87,10.87,0,0,0,3.36,1.19l10.94,2a9.22,9.22,0,0,1,1,.24l6.32,1.78a10.89,10.89,0,0,0,3.26.41,176.06,176.06,0,0,1,27.08,1.35A136.06,136.06,0,0,0,410.87,267.82Z"/><path class="cls-4" d="M408.55,250.25v.35a132.17,132.17,0,0,0-14.71.91c-5.25.75-15.25,1.65-20.25,2.08a10.79,10.79,0,0,1-5.29-.88l-3.21-3.19a8.13,8.13,0,0,0-5.7-2.35H348.46a1.34,1.34,0,0,0-1.34,1.34L347,249l-6.84-2.45a1.18,1.18,0,0,0-1,2.14l-5.29-2.37a1.63,1.63,0,0,0-.64-.13l0-1.69c6.53.07,11.71-.23,15.07-1.39,7.4-2.54,20-5.41,20-5.41,21-5.16,30.61,7.29,40.8,7.29C409.09,245,408.1,248.39,408.55,250.25Z"/><path class="cls-4" d="M395.84,291A433.65,433.65,0,0,1,392,350.7c-4.18,30.89-5.85,22.69-5.57,42s-1.65,44.26.12,58.19a92.51,92.51,0,0,0,1.59,9.25s-4.14,4.21-18.74,1.53h0a47,47,0,0,0-1.61-11.15s-3-22.33-3.89-26.08c-1.68-6.89-5.74-5.37-4.62-25.22s6-28.14,5.71-34-6.79-37.35-7.47-55.29-1-25.65-1-25.65a175.07,175.07,0,0,1,19.76,4.41c5.82,1.61,12.55,2,19.59,2Z"/><path class="cls-2" d="M368.31,252.71l-.4-.18a10.67,10.67,0,0,0-4.4-1.1l-9.62-.33a8.66,8.66,0,0,1-1.6-.21L347,249l.17-.47a1.34,1.34,0,0,1,1.34-1.34H359.4a8.13,8.13,0,0,1,5.7,2.35Z"/><path class="cls-2" d="M139.65,241.61c-.92.82-3.13.73-4.32,0a1.79,1.79,0,0,1-.37-.31,1.82,1.82,0,0,1,1.19-3.1l2.21-.28s-.32-5.43,6.91-6c9.47-.72,14.17-2.76,22.37-6.54s9.29-.46,12.7,3.78,11.27,3.58,11.27,3.58-5,3.84-3.88,16.74c-6.74,0-12.81.33-17.76.22-11.78-.26-23.56-4.08-27.38-1.85s-9.23,7.32-9.23,7.32-4.14-.32-1.91-4.14l.22-.25a2.74,2.74,0,0,0,1.93.66c3.05,0,3.06-2.49,3.06-2.49l-1.35-.45c2.81,0,1.76-2.86,1.76-2.86C140.39,245.75,139.65,241.61,139.65,241.61Z"/><path class="cls-2" d="M139.65,241.61s.74,4.14-2.58,4c-1.82-.06-3-.5-3.34-1.31s-.08-1.59.72-2.74l.51-.31a1.79,1.79,0,0,0,.37.31C136.52,242.34,138.73,242.43,139.65,241.61Z"/><path class="cls-2" d="M137.07,245.66s1.05,2.86-1.76,2.86h-.26a3.51,3.51,0,0,1-2.8-1.25,1.63,1.63,0,0,1,.5-2.34l1-.57C134.1,245.16,135.25,245.6,137.07,245.66Z"/><path class="cls-2" d="M135.31,248.52l1.35.45s0,2.49-3.06,2.49a2.74,2.74,0,0,1-1.93-.66c-1.06-1-.88-2.72-.3-3.12l.88-.42a3.51,3.51,0,0,0,2.8,1.25Z"/><path class="cls-5" d="M492.12,274.37c-9.55,14.25-16.23,12.65-27.05,14.56s-19.74,3.19-36.29,1.6a168,168,0,0,0-21-.18c-4,.13-8,.26-11.93.27-7,0-13.77-.39-19.59-2a175.07,175.07,0,0,0-19.76-4.41c-5.09-.84-10.69-1.62-18.76-2.92-17.83-2.86-44.25-8.59-55.39-11.77s-16.55-8.6-27.38-10.19-18.14-1.35-36.6-6.41c-10.71-2.93-21.31-3.45-30.63-3.42-6.74,0-12.81.33-17.76.22-11.78-.26-23.56-4.08-27.38-1.85s-9.23,7.32-9.23,7.32-4.14-.32-1.91-4.14"/><path class="cls-5" d="M138.36,237.92s-.32-5.43,6.91-6c9.47-.72,14.17-2.76,22.37-6.54s9.29-.46,12.7,3.78,11.27,3.58,11.27,3.58c31.84-1.43,53.17-2.72,63.67,0s29.29,10,49.34,10.65c10.95.35,20.76,1,28.62,1.07,6.53.07,11.71-.23,15.07-1.39,7.4-2.54,20-5.41,20-5.41,21-5.16,30.61,7.29,40.8,7.29,23.37,0,40.65-4,55.93-9.51a66.79,66.79,0,0,1,10.49-2.82,62.61,62.61,0,0,1,17.81-.95l2.1.35c4.31.7,9.59,3.17,13.56,5a21,21,0,0,0,13.22,1.31c.37-.08.73-.17,1.1-.27,4.21-1.16,8.49,3.45,8.49,3.45"/><path class="cls-5" d="M416.11,483.37l0,0a40.73,40.73,0,0,0,4.22,1.71,5.32,5.32,0,0,0,.62.07,2.14,2.14,0,0,1,1.38,3.63,2,2,0,0,1-.27.22c-1.92,1.4-4.92.4-6.23.24s-11.18-.23-17.72-3.15-13.33-1.35-17.68-.05a21.85,21.85,0,0,1-12.17.3s-4.59-1.67-1.62-9.61a41.43,41.43,0,0,0,2.72-15.12,47,47,0,0,0-1.61-11.15s-3-22.33-3.89-26.08c-1.68-6.89-5.74-5.37-4.62-25.22s6-28.14,5.71-34-6.79-37.35-7.47-55.29-1-25.65-1-25.65"/><path class="cls-5" d="M395.84,291A433.65,433.65,0,0,1,392,350.7c-4.18,30.89-5.85,22.69-5.57,42s-1.65,44.26.12,58.19a92.51,92.51,0,0,0,1.59,9.25c1.44,6.17,2.83,7.81,2.83,7.81,6.9,5.59,25.41,15.48,25.17,15.48"/><path class="cls-5" d="M388.15,460.1s-4.14,4.21-18.74,1.53"/><path class="cls-5" d="M142.69,239.3s-2.12,1.48-3,2.31-3.13.73-4.32,0a1.79,1.79,0,0,1-.37-.31,1.82,1.82,0,0,1,1.19-3.1l2.21-.28"/><path class="cls-5" d="M139.65,241.61s.74,4.14-2.58,4c-1.82-.06-3-.5-3.34-1.31s-.08-1.59.72-2.74"/><path class="cls-5" d="M137.07,245.66s1.05,2.86-1.76,2.86h-.26a3.51,3.51,0,0,1-2.8-1.25,1.63,1.63,0,0,1,.5-2.34"/><path class="cls-5" d="M136.66,249s0,2.49-3.06,2.49a2.74,2.74,0,0,1-1.93-.66c-1.06-1-.88-2.72-.3-3.12"/><path class="cls-5" d="M191.61,232.76s-5,3.84-3.88,16.74"/><path class="cls-5" d="M410.86,268.14c-.86,8.48-4.87,15.86-3.09,22.21"/><path class="cls-5" d="M409.09,245s-1,3.42-.54,5.28"/><path class="cls-5" d="M536.72,246.24s2.81-5.33-3.08-5.26a8.82,8.82,0,0,0-1.77.64,8,8,0,0,0-4.61,5.94s-.06,3.22,3.19,1"/><path class="cls-5" d="M523.26,250.59s-5.1,1.63-5.19,6.4"/><path class="cls-5" d="M563.35,265.83s-7.65-7.07-9.25-8.76c-3.16-3.33-6.45-2.11-10.69-3.56s-6.43-4.93-6.69-7.27"/><path class="cls-5" d="M522.2,238.31c-5.51.22-5.91-4.12-.48-9.7,6-6.22,16.87-7.5,16.87-7.5"/><path class="cls-5" d="M561.59,228.16s6.29-.14,7.21-7.64-7.85-11-12.61-9.52c-3.4,1.06-8.19,7.76-.85,12.89"/><path class="cls-5" d="M335,250.26l8.54,3.7a4.82,4.82,0,0,0,1.79.41l6.31.19"/><path class="cls-5" d="M479.26,265.19s-3.95,0-9.57.12c-6.74.15-15.87.47-23.45,1.18-13.9,1.31-25.19,1.31-25.19,1.31s-4.13.22-10.18,0a136.06,136.06,0,0,1-15.42-1.33,176.06,176.06,0,0,0-27.08-1.35,10.89,10.89,0,0,1-3.26-.41L358.79,263a9.22,9.22,0,0,0-1-.24l-10.94-2a10.87,10.87,0,0,1-3.36-1.19l-15.79-8.66a1.75,1.75,0,0,1,.84-3.28,1.76,1.76,0,0,1,.7.15l3.35,1.45"/><path class="cls-5" d="M368.34,252.74l0,0-3.21-3.19a8.13,8.13,0,0,0-5.7-2.35H348.46a1.34,1.34,0,0,0-1.34,1.34"/><line class="cls-5" x1="339.23" y1="248.71" x2="346.36" y2="251.9"/><path class="cls-5" d="M335,250.26l-2.39-1,0,0a1.58,1.58,0,0,1-.66-2.33,1.6,1.6,0,0,1,1.33-.7,1.63,1.63,0,0,1,.64.13l5.29,2.37"/><path class="cls-5" d="M490.93,266.6a21.5,21.5,0,0,0,5.05-3.8s7.55-6.62,7.55-13.77c0,0-1.89-11.15-11.72-12.52-2.64-.36-9.18-1.21-14.45,1.85a25,25,0,0,1-2.52,1.3,24,24,0,0,1-6.52,2c-3.84.55-9,1.39-13.23,2.45-7.82,2-25.73,6.19-34.2,6.35-3.74.07-8.06.09-12.33.18a132.17,132.17,0,0,0-14.71.91c-5.25.75-15.25,1.65-20.25,2.08a10.79,10.79,0,0,1-5.29-.88l-.4-.18a10.67,10.67,0,0,0-4.4-1.1l-9.62-.33a8.66,8.66,0,0,1-1.6-.21L347,249l-6.84-2.45a1.18,1.18,0,0,0-1,2.14l.08,0,1.06.48"/><path class="cls-5" d="M469.69,265.31s10.65,7,21.24,1.3"/><path class="cls-5" d="M490.93,266.6h0c-.05.18-.63,2.4,1.19,7.76,0,0,3.86-7.66,7.12-9.61s5-4.24,9-5.57c0,0,3.22-1,5.07-.54,3.29.86,3.87,7.94,3.87,7.94.24,11,6.74,8.2,7.53,7.68l10.06-.9,2,4.76,4.82-3.56c2.26-2.42,3.19-1.24,7.4-2,5.35-.91,12.65-6.07,12.65-6.07l1.71-.71,1.3-.54c4.43-13.81,6.48-25.16-3.65-36.79-.55-.64-1.14-1.27-1.77-1.91a20.11,20.11,0,0,0-3.91-2.6,27.74,27.74,0,0,0-16.73-2.88"/><path class="cls-5" d="M475.51,232.64s-.71,1.72-.67,7"/></svg>