<svg id="Layer_1" data-name="Layer 1" xmlns="http://www.w3.org/2000/svg" viewBox="0 0 700 700"><defs><style>.cls-1{fill:#feae63;}.cls-2{fill:#99abcc;}.cls-3{fill:#c4e7f9;}.cls-4{fill:#120c0c;}.cls-5{fill:none;stroke:#000;stroke-linecap:round;stroke-linejoin:round;stroke-width:2.3px;}</style></defs><title>Yoga_poses_2020_color</title><path class="cls-1" d="M504.12,546.2a2.15,2.15,0,0,1,1.46,3.71l-.06.06c-1.82,1.52-4.89.72-6.2.66s-12.17.53-18.89-1.94-13.49-.67-17.65,1.15a13.92,13.92,0,0,1-6.82,1.08,5.71,5.71,0,0,1-5.4-5.5,20,20,0,0,1,.36-4.26s1.28-4.32,2.27-8.42a25,25,0,0,0,.11-11c-.06-.29-.13-.59-.19-.88,0,0,11.8,2.51,15.74,0h0a21.41,21.41,0,0,0,1.75,8.62,5.53,5.53,0,0,0,2.86,2.85c6.32,2.75,22,12,25.15,12.73a41.36,41.36,0,0,0,4.89,1.16A5.6,5.6,0,0,0,504.12,546.2Z"/><path class="cls-2" d="M392.38,409.36l.33.05c22.21,2.47,66.82,17,75.71,23.67s6.3,13.71,5.19,21.49-3,6.67-2.22,16.68-2.19,38.54-2.49,45.21c-.07,1.64-.08,3.08,0,4.35h0c-3.94,2.51-15.74,0-15.74,0-10.77-50.49-4.31-57.53-3.59-62.9.74-5.56,0-6.3-17-6.3s-37.8,0-50.4-4.82c-11.12-4.25-12.65-4.18-12.86-4.1l0,0c-1.14.9-1.93,1.49-1.93,1.49-52.22,43.23-60.82,38.95-67.49,42.28s-13.85,6.45-17.56,6.45-8.28.59-18.3,7.67c-11.05,7.8-16.81,10-27.39,17,0,0-4.41,2.87-8.59,5.91-9.51-2.5-10.89-9.19-10.89-9.19l-.13-.09c25.14-33.19,49.67-38.52,54.78-40s12.23-3,17.41-10,25-25.84,30-29.75c6.13-4.78,6.67-10,6.67-10,2.75-15.83,8.47-19.11,14.84-23,0,0,6.43-4,8.77-7.68.4-.64.79-1.29,1.17-2l.05,0s23.54,8,42.64,6.51A96.43,96.43,0,0,1,392.38,409.36Z"/><path class="cls-3" d="M394.9,321.3c3.06,3.89,5.54,9.23,3.76,21.13a101.72,101.72,0,0,0-1.12,16.38,115.93,115.93,0,0,1-3.08,26.31c-1.34,5.67-.8,5.77-1.08,10.74-.05.86-.08,1.72-.12,2.58-19.1,1.47-42.64-6.51-42.64-6.51l-.05,0c3.94-7,6.41-16,2.89-26.89-5.1-15.84-5.75-23.77-9.22-42.62a28.12,28.12,0,0,0,2.93,8.79,13.59,13.59,0,0,0,.94,1.22,16.75,16.75,0,0,0,20.38,4c4.58-2.34,10-6.57,11.7-13.88a17.88,17.88,0,0,0,0-7.74h0S383.7,319.24,394.9,321.3Z"/><path class="cls-1" d="M393.75,262l2.94,5.11-4.87,1.43-.3,9.92c.45.82,2.42,7.54-8.36,6.49,0,0-4,0-6.13,5.24a25.86,25.86,0,0,0-1.78,8,11.69,11.69,0,0,0,1.14,5.82l-.46.21c-.91-1.95-1.91-4.08-2.9-6.08.14-.75.3-1.52.46-2.32,3.17-15.59,3.5-36.1,3-47l.31,0a34.57,34.57,0,0,0,10.89-9.11l.51,1.78s4.22,7.73,4.48,13.06C392.91,258.78,391.63,259.57,393.75,262Zm-5.89-.09c.61,0,1.11-1.16,1.1-2.57s-.5-2.57-1.12-2.57-1.11,1.16-1.1,2.57S387.25,262,387.86,262Z"/><path class="cls-1" d="M388.87,315.48a32.59,32.59,0,0,1,6,5.82c-11.2-2.06-14.71-6.56-14.71-6.56h0a19.8,19.8,0,0,0-1.31-4c-.59-1.32-1.67-3.72-2.94-6.45l.46-.21a13.81,13.81,0,0,0,3.83,4.85Z"/><path d="M389,259.38c0,1.41-.49,2.56-1.1,2.57s-1.12-1.15-1.12-2.57.49-2.56,1.1-2.57S389,258,389,259.38Z"/><path class="cls-4" d="M387.3,238.42l.39,1.34a34.57,34.57,0,0,1-10.89,9.11l-.31,0c0-.27,0-.53,0-.78-.44-8.36,1-8.85.19-14.13l.16,0A91.42,91.42,0,0,1,387.3,238.42Z"/><path class="cls-1" d="M373,298.2c1,2,2,4.13,2.9,6.08,1.27,2.73,2.35,5.13,2.94,6.45a19.8,19.8,0,0,1,1.31,4,17.88,17.88,0,0,1,0,7.74c-1.67,7.31-7.12,11.54-11.7,13.88a16.75,16.75,0,0,1-20.38-4,13.59,13.59,0,0,1-.94-1.22,28.12,28.12,0,0,1-2.93-8.79,46.87,46.87,0,0,1-.48-12c.43-7.32,6.51-23.62,9.77-34.69.57-1.93,1.06-3.7,1.41-5.24,2.37-10.35,2.9-26.11,1.41-31.53-.28-1-.52-2.1-.74-3.24a125.24,125.24,0,0,1-1.46-17.36c-.29-8.53-1.32-23.58-2-29.43a6.49,6.49,0,0,0-2.57-4.41L344,180.37l-10.07-10.65a1.87,1.87,0,0,1,1.68-3.11l2,.35a5.89,5.89,0,0,1,3.05,1.54l4.5,4.27a1,1,0,0,0,1.6-.51l1.43-7.23a17.74,17.74,0,0,0,.33-4L348,147.33v-.06a1.87,1.87,0,0,1,3.73-.14l.92,12.46a1.11,1.11,0,0,0,1.1,1,1.26,1.26,0,0,0,.33-.05,1.09,1.09,0,0,0,.77-1l.48-15.14a2,2,0,0,1,2-1.93h.06a2,2,0,0,1,1.92,2.1l-.86,14.74v.06a1.18,1.18,0,0,0,2.32.28l3-12.71a1.61,1.61,0,0,1,1.56-1.23,1.51,1.51,0,0,1,.71.17,1.58,1.58,0,0,1,.86,1.71l-2.53,14.08a1.5,1.5,0,0,0,0,.22,1.18,1.18,0,0,0,.43.91,1.2,1.2,0,0,0,1.7-.15l5.41-6.52a1.75,1.75,0,0,1,1.33-.62,1.71,1.71,0,0,1,1.34.64,1.73,1.73,0,0,1,0,2.13l-5.78,7.64a12.29,12.29,0,0,0-2.43,8.54l.34,3.59c0,.27,0,.54,0,.81a8.53,8.53,0,0,1-.66,3.3,8.74,8.74,0,0,0-.64,3,15.41,15.41,0,0,0,.54,4.58l9.35,38.48a51.86,51.86,0,0,1,1.25,5.72c.81,5.28-.63,5.77-.19,14.13,0,.25,0,.51,0,.78.5,10.89.17,31.4-3,47C373.33,296.68,373.17,297.45,373,298.2Z"/><path class="cls-4" d="M356.35,238.94c1.49,5.42,1,21.18-1.41,31.53-.35,1.54-.84,3.31-1.41,5.24l-.15-.08a21.5,21.5,0,0,1-10-14.85c-1.12-6.5-1.11-15.53,5.41-21.47a19,19,0,0,1,5.49-3.58l1.3,0C355.83,236.84,356.07,237.93,356.35,238.94Z"/><path class="cls-4" d="M338.32,237.62c6.64.74,5.23,9.21,4.23,11.75-2.34,8.65-10.27,6.4-12.41,3.56a10.53,10.53,0,0,1-1-10.27A8.92,8.92,0,0,1,338.32,237.62Z"/><path class="cls-1" d="M232,555.45a.85.85,0,0,1-.84.84h0l-3.18,0a.56.56,0,0,1-.56.56h-.05l-3.82-.33a.91.91,0,0,1-.9.91h-.12l-2.81-.33a1,1,0,0,1-1,1h0a4.05,4.05,0,0,1-1.75-.38l-1.11-.68a8.34,8.34,0,0,0-3.87-1.24,8.28,8.28,0,0,1-2.25-.47c-2.43-.86-8.38-2.94-11.95-4-4.56-1.3-6.08-5.21-2.82-9.55s4.54-6.06,6.09-10.25c1.79-3.84,2.43-4.27,5.94-6.44,4.8-3,8.91-9.36,8.91-9.36l1.14-1.52.13.09s1.38,6.69,10.89,9.19a57.37,57.37,0,0,0-6.22,5s-7.17,8.7-1.74,13.48,7.86,4.13,9.17,5,3,2.6,5.16,3.25a19.52,19.52,0,0,0,3.15.61,1.92,1.92,0,0,1,1.69,1.84v.07a4.28,4.28,0,0,1-1.35,2.54,2.79,2.79,0,0,1-2.41.68Z"/><path class="cls-5" d="M217,514.36s1.38,6.69,10.89,9.19"/><path class="cls-5" d="M453.11,520.81s11.8,2.51,15.74,0"/><path class="cls-5" d="M350.62,391.93s23.54,8,42.64,6.51"/><path class="cls-5" d="M369.22,442.69c.21-.08,1.74-.15,12.86,4.1,12.6,4.82,33.35,4.82,50.4,4.82s17.78.74,17,6.3c-.72,5.37-7.18,12.41,3.59,62.9.06.29.13.59.19.88a25,25,0,0,1-.11,11c-1,4.1-2.27,8.42-2.27,8.42a20,20,0,0,0-.36,4.26,5.71,5.71,0,0,0,5.4,5.5,13.92,13.92,0,0,0,6.82-1.08c4.16-1.82,10.92-3.62,17.65-1.15s17.57,1.87,18.89,1.94,4.38.86,6.2-.66l.06-.06a2.15,2.15,0,0,0-1.46-3.71,5.6,5.6,0,0,1-.6,0,41.36,41.36,0,0,1-4.89-1.16c-3.13-.69-18.83-10-25.15-12.73a5.53,5.53,0,0,1-2.86-2.85,21.41,21.41,0,0,1-1.75-8.62c-.05-1.27,0-2.71,0-4.35.3-6.67,3.23-35.21,2.49-45.21s1.11-8.9,2.22-16.68,3.71-14.82-5.19-21.49-53.5-21.2-75.71-23.67"/><path class="cls-5" d="M342.55,249.37c-2.34,8.65-10.27,6.4-12.41,3.56a10.53,10.53,0,0,1-1-10.27,8.92,8.92,0,0,1,9.14-5C345,238.36,343.55,246.83,342.55,249.37Z"/><path class="cls-5" d="M376.8,234a91.42,91.42,0,0,1,10.5,4.46l.39,1.34.51,1.78s4.22,7.73,4.48,13.06c.23,4.18-1.05,5,1.07,7.44l2.94,5.11-4.87,1.43-.3,9.92c.45.82,2.42,7.54-8.36,6.49,0,0-4,0-6.13,5.24a25.86,25.86,0,0,0-1.78,8,11.69,11.69,0,0,0,1.14,5.82,13.81,13.81,0,0,0,3.83,4.85l8.65,6.56a32.59,32.59,0,0,1,6,5.82c3.06,3.89,5.54,9.23,3.76,21.13a101.72,101.72,0,0,0-1.12,16.38,115.93,115.93,0,0,1-3.08,26.31c-1.34,5.67-.8,5.77-1.08,10.74-.05.86-.08,1.72-.12,2.58a96.43,96.43,0,0,1-.88,10.92,53,53,0,0,1-2,8.53"/><path class="cls-5" d="M370.66,313.63A137.3,137.3,0,0,1,373,298.2c.14-.75.3-1.52.46-2.32,3.17-15.59,3.5-36.1,3-47,0-.27,0-.53,0-.78-.44-8.36,1-8.85.19-14.13a51.86,51.86,0,0,0-1.25-5.72L366,189.78a15.41,15.41,0,0,1-.54-4.58,8.74,8.74,0,0,1,.64-3,8.53,8.53,0,0,0,.66-3.3c0-.27,0-.54,0-.81l-.34-3.59a12.29,12.29,0,0,1,2.43-8.54l5.78-7.64a1.73,1.73,0,0,0,0-2.13,1.71,1.71,0,0,0-1.34-.64,1.75,1.75,0,0,0-1.33.62l-5.41,6.52a1.2,1.2,0,0,1-1.7.15,1.18,1.18,0,0,1-.43-.91,1.5,1.5,0,0,1,0-.22l2.53-14.08a1.58,1.58,0,0,0-.86-1.71,1.51,1.51,0,0,0-.71-.17A1.61,1.61,0,0,0,363.8,147l-3,12.71a1.18,1.18,0,0,1-2.32-.28v-.06l.86-14.74a2,2,0,0,0-1.92-2.1h-.06a2,2,0,0,0-2,1.93l-.48,15.14a1.09,1.09,0,0,1-.77,1,1.26,1.26,0,0,1-.33.05,1.11,1.11,0,0,1-1.1-1l-.92-12.46a1.87,1.87,0,0,0-3.73.14v.06l.44,13.72a17.74,17.74,0,0,1-.33,4l-1.43,7.23a1,1,0,0,1-1.6.51l-4.5-4.27a5.89,5.89,0,0,0-3.05-1.54l-2-.35a1.87,1.87,0,0,0-1.68,3.11L344,180.37l5.58,4.13a6.49,6.49,0,0,1,2.57,4.41c.72,5.85,1.75,20.9,2,29.43a125.24,125.24,0,0,0,1.46,17.36c.22,1.14.46,2.23.74,3.24,1.49,5.42,1,21.18-1.41,31.53-.35,1.54-.84,3.31-1.41,5.24-3.26,11.07-9.34,27.37-9.77,34.69a46.87,46.87,0,0,0,.48,12,28.12,28.12,0,0,0,2.93,8.79,13.59,13.59,0,0,0,.94,1.22,16.75,16.75,0,0,0,20.38,4c4.58-2.34,10-6.57,11.7-13.88a17.88,17.88,0,0,0,0-7.74,19.8,19.8,0,0,0-1.31-4c-.59-1.32-1.67-3.72-2.94-6.45-.91-1.95-1.91-4.08-2.9-6.08"/><path class="cls-5" d="M387.69,239.76a34.57,34.57,0,0,1-10.89,9.11"/><path class="cls-5" d="M354.31,235.73a19,19,0,0,0-5.49,3.58c-6.52,5.94-6.53,15-5.41,21.47a21.5,21.5,0,0,0,10,14.85l.15.08"/><path class="cls-5" d="M380.19,314.74s3.51,4.5,14.71,6.56"/><path class="cls-5" d="M376.15,436.78a84.4,84.4,0,0,1-6.93,5.91l0,0c-1.14.9-1.93,1.49-1.93,1.49-52.22,43.23-60.82,38.95-67.49,42.28s-13.85,6.45-17.56,6.45-8.28.59-18.3,7.67c-11.05,7.8-16.81,10-27.39,17,0,0-4.41,2.87-8.59,5.91a57.37,57.37,0,0,0-6.22,5s-7.17,8.7-1.74,13.48,7.86,4.13,9.17,5,3,2.6,5.16,3.25a19.52,19.52,0,0,0,3.15.61,1.92,1.92,0,0,1,1.69,1.84v.07a4.28,4.28,0,0,1-1.35,2.54,2.79,2.79,0,0,1-2.41.68l-3.41-.59"/><path class="cls-5" d="M229.48,551.85l1.12.84a3.47,3.47,0,0,1,1.37,2.76.85.85,0,0,1-.84.84h0l-3.18,0"/><path class="cls-5" d="M224.88,552.75l2.06,1.54a2.49,2.49,0,0,1,1,2,.56.56,0,0,1-.56.56h-.05l-3.82-.33"/><path class="cls-5" d="M221.46,553.16l1.53,1.89a2.31,2.31,0,0,1,.51,1.45.91.91,0,0,1-.9.91h-.12l-2.81-.33"/><path class="cls-5" d="M217.39,553.16l1.35,1.5a3.58,3.58,0,0,1,.93,2.41,1,1,0,0,1-1,1h0a4.05,4.05,0,0,1-1.75-.38l-1.11-.68a8.34,8.34,0,0,0-3.87-1.24,8.28,8.28,0,0,1-2.25-.47c-2.43-.86-8.38-2.94-11.95-4-4.56-1.3-6.08-5.21-2.82-9.55s4.54-6.06,6.09-10.25c1.79-3.84,2.43-4.27,5.94-6.44,4.8-3,8.91-9.36,8.91-9.36l1.14-1.52c25.14-33.19,49.67-38.52,54.78-40s12.23-3,17.41-10,25-25.84,30-29.75c6.13-4.78,6.67-10,6.67-10,2.75-15.83,8.47-19.11,14.84-23,0,0,6.43-4,8.77-7.68.4-.64.79-1.29,1.17-2,3.94-7,6.41-16,2.89-26.89-5.1-15.84-5.75-23.77-9.22-42.62,0-.14-.05-.29-.08-.44"/></svg>