<svg id="Layer_1" data-name="Layer 1" xmlns="http://www.w3.org/2000/svg" viewBox="0 0 700 700"><defs><style>.cls-1{fill:#feae63;}.cls-2{fill:#99abcc;}.cls-3{fill:#c4e7f9;}.cls-4{fill:#392328;}.cls-5{fill:none;stroke:#000;stroke-linecap:round;stroke-linejoin:round;stroke-width:2.3px;}</style></defs><title>Yoga_poses_2020_color</title><path class="cls-1" d="M548.21,246.15l.18.1a1.52,1.52,0,0,1,.8,1.35,1.5,1.5,0,0,1-.34,1,1.53,1.53,0,0,1-1.6.52l-4.31-1.17-7.05,1.76s-7.84,3-11.52,3-5-2.08-5-2.08l-4.16.16S487.86,262,467.05,262.31a83.56,83.56,0,0,0-10.89,1.44c-3.84,1-26.25,6.4-35.38,6.08-5.79-.2-12.48-.4-16.6-.53a7.57,7.57,0,0,0-6.24,3L391.32,281c-1.4-5.91-3.47-12.91-5.43-19.12-2.83-9-5.43-16.29-5.43-16.29,7-2.33,10.94-3.49,16.76-3s22.12,5.36,29.8,4.89,24-.46,27.7-1.4,4.66-2.56,24.21-2.56a293,293,0,0,0,31.66-1.39,131.86,131.86,0,0,1,14.43-.7c4,.23,19.79.23,22.81,0,2.42-.19,9.47-1.27,12.19-1.69a1.25,1.25,0,0,1,1.4.89,1.12,1.12,0,0,1,.05.36,1.27,1.27,0,0,1-1,1.23l-11.75,2.93Z"/><path class="cls-1" d="M536.06,508.94a2.42,2.42,0,0,1,1.89,4l-.29.27c-2.06,1.71-5.5.82-7,.74s-12.57.6-20.14-2.18-15.14-.65-19.87,1.29c-4.15,1.71-11.91.89-11.91.89s-4-.62-2.56-10.66c0,0,.61-11.9-.11-15.54A42.14,42.14,0,0,0,495.72,483l.3-.1c1.51,4.48,3.87,8.48,7.56,10.26,3.23,1.56,22.1,12.52,26.91,14.14a47.51,47.51,0,0,0,4.92,1.61A4.45,4.45,0,0,0,536.06,508.94Z"/><path class="cls-2" d="M465.4,404.73s-10.92-.25-14.56-.25-27,4.69-40.67,4.69c-7.76,0-32.9-3.72-39.26-4.5l-.82-.09a37.14,37.14,0,0,0-14.91,1.68A151,151,0,0,0,336.3,414c-10.92,5.34-37.37,22.08-43.67,26.69s-18.69,13.1-26.21,16.26-19.66,16.26-24.27,19.9S194.35,499.36,188,505c0,0-6.44-4.81-9.12-11.14l-.12-.13c5.23-4.84,17.17-16.18,23.66-22.77,7.94-8.08,31-26.85,38.35-29.45a106.31,106.31,0,0,0,11.46-8.06c4-3.54,6.58-4.89,10-7.92s8.77-10,13.15-16.36,34.07-35.59,37.78-38.29,6.91-5.05,7.59-9.78c.2-1.4.43-2.77.65-4a27.23,27.23,0,0,1,3.14-8.65c.5-.87,1.05-1.85,1.59-2.87,0,0,32.52,3.44,42.5,3.44s24.67-4.13,24.67-4.13c2,5.31,4.5,11.76,4.16,19.85,0,0,34.95.73,45.38,2.18s33,9,39.31,10.44,9,9.7,9.22,13.59,1,12.37.49,15.77.85,10.43,1,14.07c.24,7.52.51,43.65.51,43.65s-.16,10.08,2.69,18.5l-.3.1a42.14,42.14,0,0,1-19.64,4.73c-.73-3.64-6.8-33.73-8.25-38.1s-4.61-9.95-4.86-24.27S465.4,404.73,465.4,404.73Z"/><path class="cls-3" d="M391.32,281s2.49,8.67,1.28,14.73-2.18,9.22-2.18,9.22-.73,27.18.73,33.49a50.09,50.09,0,0,0,2.14,6.36S378.6,349,368.62,349s-42.5-3.44-42.5-3.44c1.63-3.08,3.23-6.51,3.39-8.42.34-4.05-.68-23.78-1.69-29.69,0,0-1.94-12.65-6.79-22l.33-.17c4.32-6.6,6.05-14.38,6.57-21.3h.19c34.72,9.88,57.77-2,57.77-2C387.85,268.13,389.92,275.13,391.32,281Z"/><path class="cls-1" d="M349.55,209.27a8.33,8.33,0,0,1-.26-1.89c1.18-5.77,5.79-1.9,5.79-1.9,2.35.24,6.21-1.16,8.52-5s1.81-7.31,5.74-9.7c2-1.2,10.51-7.19,10.51-7.19l.34,1.82s3.5,8.23,3.26,13.65c-.19,4.26-1.54,4.92.35,7.64l2.46,5.46-5.07.94-1.24,10c.34.88,1.68,7.82-9.1,5.74,0,0-6.53-.25-6.69,1.1,0,0-.47,7.52-.23,8.69.5,2.37,9.55,9.31,16.53,7,0,0,2.6,7.32,5.43,16.29,0,0-23.05,11.91-57.77,2h-.19a70.62,70.62,0,0,0-1.09-18.64l-2.84-.44a33.32,33.32,0,0,0,11.41-3.6c3.18-1.8,5.84-5.68,7.28-8.31a27.45,27.45,0,0,0,2.34-10,45.66,45.66,0,0,0,0-7.2c-.35-4.35,4.4-6.44,4.4-6.44Zm29.67-5.74c.13-1.43-.26-2.64-.88-2.7s-1.23,1.06-1.37,2.49.26,2.64.88,2.7S379.08,205,379.22,203.53Z"/><path class="cls-4" d="M379.6,182.2l.25,1.39s-8.53,6-10.51,7.19c-3.93,2.39-3.43,5.86-5.74,9.7s-6.17,5.24-8.52,5c0,0-4.61-3.87-5.79,1.9a8.33,8.33,0,0,0,.26,1.89l-.15,0s-4.75,2.09-4.4,6.44a45.66,45.66,0,0,1,0,7.2c-2.11,7.63-5.27.53-10.35-6.52s-3.77-18.07-3.77-18.07a27.7,27.7,0,0,1,6.33-15.72,19.77,19.77,0,0,1,3.39-3.3c.73-.46,1.44-.89,2.15-1.28C356.33,170.53,367,174.94,379.6,182.2Z"/><path d="M378.34,200.83c.62.06,1,1.27.88,2.7s-.75,2.55-1.37,2.49-1-1.27-.88-2.7S377.72,200.77,378.34,200.83Z"/><path class="cls-4" d="M342.66,177.36l.12.69c-.71.39-1.42.82-2.15,1.28a19.77,19.77,0,0,0-3.39,3.3l-.08-.06c-6.56,6.09-12.1,0-12.41-3.56-.44-5,4.82-12.8,12-10.32S342.66,177.36,342.66,177.36Z"/><path class="cls-1" d="M150.41,251.36l-.18-.37-11.75-2.08a1.26,1.26,0,0,1-1-1.22,1.19,1.19,0,0,1,.06-.37,1.38,1.38,0,0,1,1.4-.89c2.66,0,10.15-.18,12.58-.18,2.91,0,15.47-1.56,19.43-1.56s11.64.47,14.43.7c7.42.17,16.83,3.17,31.33,3.68s19.16-.34,25.4.84,9.27.34,13,.17,18.56-.17,23.62-.17a27.17,27.17,0,0,0,8.93-1.51c9.45-3.38,14.51-5.57,20.41-5.4,2.7.08,13.49,1.86,13.49,1.86a11.5,11.5,0,0,0,2.42,0l2.84.44a70.62,70.62,0,0,1,1.09,18.64c-.52,6.92-2.25,14.7-6.57,21.3l-.33.17a27.52,27.52,0,0,0-4.17-6.15s-6.58-6.58-8.26-7.59-8.1-1.35-11.13-1.18-10.8,4.22-27.33,2-19.73-2.86-22.26-3.54a27.94,27.94,0,0,0-8.26-.67c-2.36.17-17.54.67-29.18-2.7s-19.73-9.28-25.12-9.45l-5.4-.16a6.86,6.86,0,0,1-5.43,2.41c-3.68,0-11.53-3-11.53-3l-7-1.76-4.31,1.18a1.57,1.57,0,0,1-1.61-.52,2.37,2.37,0,0,1-.52-1.42,1.6,1.6,0,0,1,.78-1.4Z"/><path class="cls-1" d="M169.65,533.21l-.07.13h-3.83a1.61,1.61,0,0,1-1.49-1l-.19-.29h-5.5a.53.53,0,0,1-.52-.58l.09-.84h-1a1,1,0,0,1-1-1.13l0-4.06a24.9,24.9,0,0,1,2.68-7c1.92-3.15,4.66-9,5.89-11.78s9.87-9.18,11.78-10.82c.35-.3,1.19-1.06,2.37-2.16l.12.13C181.6,500.14,188,505,188,505c-6.31,5.58-5.82,4.12-6.07,7.27a30.45,30.45,0,0,1-1.21,7.77c-.73,1.94.44,4.81,0,6.55-.49,1.92-4.61,4.61-6.07,5.83-.76.63-2.58.87-4.15,1A2.62,2.62,0,0,1,169.65,533.21Z"/><line class="cls-5" x1="351.1" y1="226.63" x2="353.43" y2="244.1"/><path class="cls-5" d="M355.08,205.48s-4.61-3.87-5.79,1.9a8.33,8.33,0,0,0,.26,1.89,8,8,0,0,0,4.82,5.74s3.14.73,1.64-2.92"/><path class="cls-5" d="M356.49,219.56s.51,5.33,5.16,6.42"/><path class="cls-5" d="M379.85,183.59s-8.53,6-10.51,7.19c-3.93,2.39-3.43,5.86-5.74,9.7s-6.17,5.24-8.52,5"/><path class="cls-5" d="M345,222.94c-2.11,7.63-5.27.53-10.35-6.52s-3.77-18.07-3.77-18.07"/><path class="cls-5" d="M342.66,177.36s1.19-6.18-6-8.67-12.4,5.35-12,10.32c.31,3.55,5.85,9.65,12.41,3.56"/><path class="cls-5" d="M330.91,198.35a27.7,27.7,0,0,1,6.33-15.72,19.77,19.77,0,0,1,3.39-3.3c.73-.46,1.44-.89,2.15-1.28,13.55-7.52,24.24-3.11,36.82,4.15l.25,1.39.34,1.82s3.5,8.23,3.26,13.65c-.19,4.26-1.54,4.92.35,7.64l2.46,5.46-5.07.94-1.24,10c.34.88,1.68,7.82-9.1,5.74,0,0-6.53-.25-6.69,1.1,0,0-.47,7.52-.23,8.69.5,2.37,9.55,9.31,16.53,7s10.94-3.49,16.76-3,22.12,5.36,29.8,4.89,24-.46,27.7-1.4,4.66-2.56,24.21-2.56a293,293,0,0,0,31.66-1.39,131.86,131.86,0,0,1,14.43-.7c4,.23,19.79.23,22.81,0,2.42-.19,9.47-1.27,12.19-1.69a1.25,1.25,0,0,1,1.4.89,1.12,1.12,0,0,1,.05.36,1.27,1.27,0,0,1-1,1.23l-11.75,2.93"/><path class="cls-5" d="M171.05,524.12a8.38,8.38,0,0,1-2.64,3.74,2.09,2.09,0,0,0-.7,1.67l.06,1.28a2.66,2.66,0,0,0,1.88,2.4,2.62,2.62,0,0,0,.89.11c1.57-.08,3.39-.32,4.15-1,1.46-1.22,5.58-3.91,6.07-5.83.44-1.74-.73-4.61,0-6.55a30.45,30.45,0,0,0,1.21-7.77c.25-3.15-.24-1.69,6.07-7.27s49.5-24.51,54.11-28.15,16.75-16.75,24.27-19.9,19.9-11.65,26.21-16.26S325.38,419.29,336.3,414a151,151,0,0,1,18.88-7.69,37.14,37.14,0,0,1,14.91-1.68l.82.09c6.36.78,31.5,4.5,39.26,4.5,13.62,0,37-4.69,40.67-4.69s14.56.25,14.56.25S462.73,411,463,425.35s3.4,19.9,4.86,24.27,7.52,34.46,8.25,38.1.11,15.54.11,15.54c-1.45,10,2.56,10.66,2.56,10.66s7.76.82,11.91-.89c4.73-1.94,12.31-4.07,19.87-1.29s18.66,2.11,20.14,2.18,4.93,1,7-.74l.29-.27a2.42,2.42,0,0,0-1.89-4,4.45,4.45,0,0,1-.65,0,47.51,47.51,0,0,1-4.92-1.61c-4.81-1.62-23.68-12.58-26.91-14.14-3.69-1.78-6.05-5.78-7.56-10.26-2.85-8.42-2.69-18.5-2.69-18.5s-.27-36.13-.51-43.65c-.12-3.64-1.46-10.67-1-14.07s-.24-11.89-.49-15.77-2.91-12.14-9.22-13.59-28.87-9-39.31-10.44-45.38-2.18-45.38-2.18c.34-8.09-2.13-14.54-4.16-19.85a50.09,50.09,0,0,1-2.14-6.36c-1.46-6.31-.73-33.49-.73-33.49s1-3.15,2.18-9.22S391.32,281,391.32,281l6.62-8.75a7.57,7.57,0,0,1,6.24-3c4.12.13,10.81.33,16.6.53,9.13.32,31.54-5.12,35.38-6.08a83.56,83.56,0,0,1,10.89-1.44c20.81-.32,48.19-11.53,48.19-11.53l4.16-.16s1.28,2.08,5,2.08,11.52-3,11.52-3l7.05-1.76,4.31,1.17a1.53,1.53,0,0,0,1.6-.52,1.5,1.5,0,0,0,.34-1,1.52,1.52,0,0,0-.8-1.35l-.18-.1-3.51-1.93-8.65,1.12"/><path class="cls-5" d="M349.4,209.3s-4.75,2.09-4.4,6.44a45.66,45.66,0,0,1,0,7.2,27.45,27.45,0,0,1-2.34,10c-1.44,2.63-4.1,6.51-7.28,8.31a33.32,33.32,0,0,1-11.41,3.6,11.5,11.5,0,0,1-2.42,0s-10.79-1.78-13.49-1.86c-5.9-.17-11,2-20.41,5.4a27.17,27.17,0,0,1-8.93,1.51c-5.06,0-19.9,0-23.62.17s-6.74,1-13-.17-10.9-.33-25.4-.84-23.91-3.51-31.33-3.68c-2.79-.23-10.41-.7-14.43-.7s-16.52,1.56-19.43,1.56c-2.43,0-9.92.17-12.58.18a1.38,1.38,0,0,0-1.4.89,1.19,1.19,0,0,0-.06.37,1.26,1.26,0,0,0,1,1.22L150.23,251"/><path class="cls-5" d="M321.36,285.24c4.32-6.6,6.05-14.38,6.57-21.3a70.62,70.62,0,0,0-1.09-18.64"/><path class="cls-5" d="M169.58,533.34h-3.83a1.61,1.61,0,0,1-1.49-1,1.57,1.57,0,0,1-.13-.69l.08-2.24a2.9,2.9,0,0,1,.39-1.35,18.81,18.81,0,0,0,1.66-3.26"/><path class="cls-5" d="M164.07,532.06h-1.72a1.27,1.27,0,0,1-1.27-1.32l.08-1.94a3.65,3.65,0,0,1,.62-1.93,5.85,5.85,0,0,0,.94-1.89"/><path class="cls-5" d="M162.35,532.06h-3.78a.53.53,0,0,1-.52-.58l.09-.84.28-2.74a3.43,3.43,0,0,1,.43-1.31,6.7,6.7,0,0,0,.77-1.72"/><path class="cls-5" d="M158.08,530.63h-.92a1,1,0,0,1-1-1.13l0-4.06a24.9,24.9,0,0,1,2.68-7c1.92-3.15,4.66-9,5.89-11.78s9.87-9.18,11.78-10.82c.35-.3,1.19-1.06,2.37-2.16,5.23-4.84,17.17-16.18,23.66-22.77,7.94-8.08,31-26.85,38.35-29.45a106.31,106.31,0,0,0,11.46-8.06c4-3.54,6.58-4.89,10-7.92s8.77-10,13.15-16.36,34.07-35.59,37.78-38.29,6.91-5.05,7.59-9.78c.2-1.4.43-2.77.65-4a27.23,27.23,0,0,1,3.14-8.65c.5-.87,1.05-1.85,1.59-2.87,1.63-3.08,3.23-6.51,3.39-8.42.34-4.05-.68-23.78-1.69-29.69,0,0-1.94-12.65-6.79-22a27.52,27.52,0,0,0-4.17-6.15s-6.58-6.58-8.26-7.59-8.1-1.35-11.13-1.18-10.8,4.22-27.33,2-19.73-2.86-22.26-3.54a27.94,27.94,0,0,0-8.26-.67c-2.36.17-17.54.67-29.18-2.7s-19.73-9.28-25.12-9.45l-5.4-.16a6.86,6.86,0,0,1-5.43,2.41c-3.68,0-11.53-3-11.53-3l-7-1.76-4.31,1.18a1.57,1.57,0,0,1-1.61-.52,2.37,2.37,0,0,1-.52-1.42,1.6,1.6,0,0,1,.78-1.4l.15-.07,4.21-2,8.11.7"/><path class="cls-5" d="M380.46,245.63s2.6,7.32,5.43,16.29c2,6.21,4,13.21,5.43,19.12"/><path class="cls-5" d="M312.85,266.58s-5.28-4.71-9.42-5.27"/><path class="cls-5" d="M407.25,255.28a63.6,63.6,0,0,1-6.22,5.46,12.76,12.76,0,0,0-3.77,4.15"/><path class="cls-5" d="M393.29,344.84S378.6,349,368.62,349s-42.5-3.44-42.5-3.44"/><path class="cls-5" d="M475.9,399.32s-2.79,4.33-10.5,5.41"/><path class="cls-5" d="M495.72,483a42.14,42.14,0,0,1-19.64,4.73"/><path class="cls-5" d="M188,505s-6.44-4.81-9.12-11.14"/><path class="cls-5" d="M385.89,261.92s-23.05,11.91-57.77,2"/></svg>