<svg id="Layer_1" data-name="Layer 1" xmlns="http://www.w3.org/2000/svg" viewBox="0 0 700 700"><defs><style>.cls-1{fill:#feae63;}.cls-2{fill:#392328;}.cls-3{fill:#c4e7f9;}.cls-4{fill:#99abcc;}.cls-5{fill:none;stroke:#000;stroke-linecap:round;stroke-linejoin:round;stroke-width:2.3px;}</style></defs><title>Yoga_poses_2020_color</title><path class="cls-1" d="M83.45,273s1,2.86-1.75,2.86h-.27a3.51,3.51,0,0,1-2.8-1.25,1.63,1.63,0,0,1,.5-2.34l1-.57C80.47,272.5,81.63,272.94,83.45,273Z"/><path class="cls-1" d="M613.14,274c-4.09.12-8.94.59-8.94.59A64,64,0,0,0,613.14,274ZM507.26,288.71l-.08.56s-7,5.39-12.2,6.49c-4.09.89-5.07-.25-7.17,2.23l-4.59,3.71L481,297.12l-9.84,1.27c-.74.58-7.06,3.58-7.73-7.23,0,0-.62-3.9-6.14-5.22,0,0-3.7.61-8.82,4.63,0,0-20.73,4.39-22.27-10.32S440.32,260,440.32,260s13.17-.18,23.26.36c1.07.06,2.05.16,3,.3,7.85,1.15,11.4,4.88,23.17,7.46A132.3,132.3,0,0,0,513,270.72c3,.08,4.83,0,4.83,0,13.67-.94,8-1.85,52.29-1.34,0,0,10.09.2,14.87-4.46s6.56-6.13,13.39-5.8,8.28,2.21,8.28,3.1v1.39l7.14,0c5,0,5.64,2.1,2.37,2.68-2.94.52-9.48.93-10.79,1,1.79-.09,13.57-.63,15.71.2,1.74.68-.7,2.06-7.73,2.81-4.36.16-8.51.48-8.51.48,3.35-.06,6.18-.24,8.51-.48,5-.19,10.22-.18,9.88.73-.39,1.07-4.9,2.19-10,2.86,3.07-.1,5.7,0,5.49.68-.47,1.54-10.94,3.79-16.7,4.23s-12.89,1-17.23,1-41.23,10.33-54.7,10.57C530.05,290.49,516.49,290,507.26,288.71Zm-17.58,4.13c1.4-.22,2.46-.9,2.36-1.51s-1.32-.91-2.72-.68-2.45.9-2.35,1.51S488.28,293.07,489.68,292.84Z"/><path class="cls-2" d="M513,270.32v.4a132.3,132.3,0,0,1-23.22-2.57c-11.77-2.58-15.32-6.31-23.17-7.46l.22-1.52a28.21,28.21,0,0,1,6.76-7.66s14.91-9.77,29.62-1.48C506.35,251.83,513,259.14,513,270.32Z"/><path class="cls-2" d="M503.16,240.41c.33,6.68-8.26,6.63-10.93,6-8.91-.95-8-9.13-5.48-11.7a10.54,10.54,0,0,1,10-2.57A8.93,8.93,0,0,1,503.16,240.41Z"/><path d="M492,291.33c.1.61-1,1.29-2.36,1.51s-2.61-.07-2.71-.68,1-1.28,2.35-1.51S491.94,290.73,492,291.33Z"/><path class="cls-3" d="M426.24,280.25c1.54,14.71,22.27,10.32,22.27,10.32a47.87,47.87,0,0,0-10,11.13C429,316,422.27,314.35,411.44,316.26s-19.73,3.19-36.29,1.6a168,168,0,0,0-21-.18c-2.18-7.81,4.4-17.19,3.07-28.25a123.75,123.75,0,0,0-3.07-14.93c23.38,0,46.8-4.08,62.08-9.55s24.1-4.92,24.1-4.92S424.69,265.55,426.24,280.25Z"/><path class="cls-1" d="M374.92,508.68a39.74,39.74,0,0,0,4.32,1.43,4.17,4.17,0,0,0,.63,0,2.13,2.13,0,0,1,1.63,3.52l-.26.24c-1.82,1.52-4.88.73-6.2.66s-11.17.53-17.89-1.94-13.49-.67-17.65,1.15c-4.39,1.92-10.58.79-10.58.79s-3.83-.9-2.27-9.47c0,2.29.42-4.89-.58-14.83,14.74,1.68,19.34-2.92,19.34-2.92,1.85,6.07,3.35,7.61,3.35,7.61C355.86,500,374.34,508.3,374.92,508.68Z"/><path class="cls-4" d="M357.21,289.43c1.33,11.06-5.25,20.44-3.07,28.25-3.67.11-7.34.24-10.95.26-7.39.05-14.47-.31-20.56-2a177.78,177.78,0,0,0-20.94-4.6c-4.78-.78-10.13-1.53-17.58-2.73-17.83-2.86-44.25-8.59-55.39-11.77s-16.55-8.6-27.38-10.19-18.14-1.35-36.61-6.41c-10.71-2.93-21.31-3.45-30.62-3.42C133,263.93,138,260.09,138,260.09c31.84-1.43,53.17-2.72,63.67,0s29.29,10,49.34,10.65,36.29,2.23,43.69-.32,20-5.41,20-5.41c28-2.54,29.29,9.49,39.47,9.49A123.75,123.75,0,0,1,357.21,289.43Z"/><path class="cls-4" d="M343.19,478.23a91.75,91.75,0,0,0,2.22,9.12s-4.6,4.6-19.34,2.92c-.35-3.47-.87-7.27-1.63-11.13,0,0-4.29-22.14-5.65-25.75s-6.1-5-6.32-24.85,4.06-28.48,3.39-34.34-9.31-36.81-11.21-54.65-3-27.83-3-27.83l.06-.37a177.78,177.78,0,0,1,20.94,4.6c6.09,1.68,13.17,2,20.56,2v.65s-.91,28.19-1.36,59.36-4.29,23-2.71,42.24S340.48,464.46,343.19,478.23Z"/><path class="cls-1" d="M86,268.94c-.92.83-3.13.73-4.33,0a1.34,1.34,0,0,1-.36-.31,1.82,1.82,0,0,1,1.19-3.1l2.21-.28s-.32-5.43,6.91-6c9.47-.72,14.17-2.76,22.36-6.53s9.3-.46,12.71,3.77S138,260.09,138,260.09s-5,3.84-3.88,16.74c-6.75,0-12.82.33-17.76.22C104.57,276.79,92.79,273,89,275.2s-9.23,7.32-9.23,7.32-4.14-.32-1.91-4.14l.22-.25a2.73,2.73,0,0,0,1.92.66c3.06,0,3.07-2.49,3.07-2.49l-1.34-.45c2.79,0,1.75-2.86,1.75-2.86C86.77,273.08,86,268.94,86,268.94Z"/><path class="cls-1" d="M86,268.94s.74,4.14-2.58,4.05c-1.82-.05-3-.49-3.35-1.31s-.08-1.59.73-2.74l.51-.31a1.34,1.34,0,0,0,.36.31C82.9,269.67,85.11,269.77,86,268.94Z"/><path class="cls-1" d="M81.7,275.85l1.34.45s0,2.49-3.07,2.49a2.73,2.73,0,0,1-1.92-.66c-1.06-1-.88-2.72-.3-3.12l.88-.42a3.51,3.51,0,0,0,2.8,1.25Z"/><path class="cls-5" d="M492.23,246.45c-8.91-.95-8-9.13-5.48-11.7a10.54,10.54,0,0,1,10-2.57,8.93,8.93,0,0,1,6.42,8.23C503.49,247.09,494.9,247,492.23,246.45Z"/><path class="cls-5" d="M466.29,260.09c.15-.31.32-.62.49-.92a28.21,28.21,0,0,1,6.76-7.66s14.91-9.77,29.62-1.48c3.19,1.8,9.8,9.11,9.8,20.29"/><path class="cls-5" d="M507.18,289.27s-7,5.39-12.2,6.49c-4.09.89-5.07-.25-7.17,2.23l-4.59,3.71L481,297.12l-9.84,1.27c-.74.58-7.06,3.58-7.73-7.23,0,0-.62-3.9-6.14-5.22,0,0-3.7.61-8.82,4.63a47.87,47.87,0,0,0-10,11.13C429,316,422.27,314.35,411.44,316.26s-19.73,3.19-36.29,1.6a168,168,0,0,0-21-.18c-3.67.11-7.34.24-10.95.26-7.39.05-14.47-.31-20.56-2a177.78,177.78,0,0,0-20.94-4.6c-4.78-.78-10.13-1.53-17.58-2.73-17.83-2.86-44.25-8.59-55.39-11.77s-16.55-8.6-27.38-10.19-18.14-1.35-36.61-6.41c-10.71-2.93-21.31-3.45-30.62-3.42-6.75,0-12.82.33-17.76.22C104.57,276.79,92.79,273,89,275.2s-9.23,7.32-9.23,7.32-4.14-.32-1.91-4.14"/><path class="cls-5" d="M606.61,262.27c0-.89-1.45-2.77-8.28-3.1s-8.62,1.14-13.39,5.8-14.87,4.46-14.87,4.46c-44.26-.51-38.62.4-52.29,1.34,0,0-1.85,0-4.83,0a132.3,132.3,0,0,1-23.22-2.57c-11.77-2.58-15.32-6.31-23.17-7.46-.93-.14-1.91-.24-3-.3-10.09-.54-23.26-.36-23.26-.36s-8.82-.56-24.1,4.92-38.7,9.55-62.08,9.55c-10.18,0-11.46-12-39.47-9.49,0,0-12.58,2.87-20,5.41s-23.63,1-43.69.32-38.83-7.94-49.34-10.65-31.83-1.43-63.67,0c0,0-7.87.65-11.27-3.58S122.21,249,114,252.74s-12.89,5.81-22.36,6.53c-7.23.55-6.91,6-6.91,6"/><path class="cls-5" d="M613.19,274c3.07-.1,5.7,0,5.49.68-.47,1.54-10.94,3.79-16.7,4.23s-12.89,1-17.23,1-41.23,10.33-54.7,10.57c0,0-13.56-.47-22.79-1.78l-1.3-.19c-9.2-1.44-17.49-1.08-32.28-2.7a128.21,128.21,0,0,1-27.05-6.13"/><path class="cls-5" d="M613.14,274a64,64,0,0,1-8.94.59S609.05,274.11,613.14,274Z"/><path class="cls-5" d="M613.14,274h.05"/><path class="cls-5" d="M613.31,270.4c5-.19,10.22-.18,9.88.73-.39,1.07-4.9,2.19-10,2.86"/><path class="cls-5" d="M613.31,270.4c-2.33.24-5.16.42-8.51.48C604.8,270.88,609,270.56,613.31,270.4Z"/><path class="cls-5" d="M605.1,267.4h.23c1.79-.09,13.57-.63,15.71.2,1.74.68-.7,2.06-7.73,2.81"/><path class="cls-5" d="M597.12,263.62l9.49,0,7.14,0c5,0,5.64,2.1,2.37,2.68-2.94.52-9.48.93-10.79,1"/><path class="cls-5" d="M326.07,490.27c-.35-3.47-.87-7.27-1.63-11.13,0,0-4.29-22.14-5.65-25.75s-6.1-5-6.32-24.85,4.06-28.48,3.39-34.34-9.31-36.81-11.21-54.65-3-27.83-3-27.83"/><path class="cls-5" d="M374.88,508.67h0"/><path class="cls-5" d="M343.19,318.59s-.91,28.19-1.36,59.36-4.29,23-2.71,42.24,1.36,44.27,4.07,58a91.75,91.75,0,0,0,2.22,9.12c1.85,6.07,3.35,7.61,3.35,7.61,7.1,5,25.58,13.34,26.16,13.72a39.74,39.74,0,0,0,4.32,1.43,4.17,4.17,0,0,0,.63,0,2.13,2.13,0,0,1,1.63,3.52l-.26.24c-1.82,1.52-4.88.73-6.2.66s-11.17.53-17.89-1.94-13.49-.67-17.65,1.15c-4.39,1.92-10.58.79-10.58.79s-3.83-.9-2.27-9.47c0,2.29.42-4.89-.58-14.83"/><path class="cls-5" d="M345.41,487.35s-4.6,4.6-19.34,2.92"/><path class="cls-5" d="M89.07,266.64s-2.12,1.47-3,2.3-3.13.73-4.33,0a1.34,1.34,0,0,1-.36-.31,1.82,1.82,0,0,1,1.19-3.1l2.21-.28"/><path class="cls-5" d="M86,268.94s.74,4.14-2.58,4.05c-1.82-.05-3-.49-3.35-1.31s-.08-1.59.73-2.74"/><path class="cls-5" d="M83.45,273s1,2.86-1.75,2.86h-.27a3.51,3.51,0,0,1-2.8-1.25,1.63,1.63,0,0,1,.5-2.34"/><path class="cls-5" d="M83,276.3s0,2.49-3.07,2.49a2.73,2.73,0,0,1-1.92-.66c-1.06-1-.88-2.72-.3-3.12"/><path class="cls-5" d="M138,260.09s-5,3.84-3.88,16.74h0"/><path class="cls-5" d="M440.32,260s-15.63,5.52-14.08,20.22,22.27,10.32,22.27,10.32"/><path class="cls-5" d="M354.14,274.5a123.75,123.75,0,0,1,3.07,14.93c1.33,11.06-5.25,20.44-3.07,28.25"/></svg>