<svg id="Layer_1" data-name="Layer 1" xmlns="http://www.w3.org/2000/svg" viewBox="0 0 700 700"><defs><style>.cls-1{fill:#feae63;}.cls-2{fill:#99abcc;}.cls-3{fill:#c4e7f9;}.cls-4{fill:#120c0c;}.cls-5{fill:none;stroke:#000;stroke-linecap:round;stroke-linejoin:round;stroke-width:2.3px;}</style></defs><title>Yoga_poses_2020_color</title><path class="cls-1" d="M533.37,475.25a2,2,0,0,1-.56,1.35,1.91,1.91,0,0,1-1.36.56h-.87l-.19-.06a2.13,2.13,0,0,1-.58,1.06,2.19,2.19,0,0,1-1.53.63h-1.76a2.14,2.14,0,0,1-.45.63,2.28,2.28,0,0,1-1.61.67h-4.25a2,2,0,0,1-1.26.44h-2.41l-2.33-1.1a3.82,3.82,0,0,0-2.8-.17,7.31,7.31,0,0,1-3.5.3c-3.32-.49-10.48-1.54-14.4-1.95-5.21-.56-22.69.42-24.65-2.62s-1.3-6.3-2.71-10.32c-1.24-3.52-2.81-7.53-10.08-16.26a51,51,0,0,0,17.53-12.36,120.54,120.54,0,0,0,14.64,12.12s6.63,5.85,13.07,8.78,8.58,4.68,12.29,6.24c2.16.91,3.91,1.55,5,1.93a13.21,13.21,0,0,1,2.47,1.15l1.34.8a13.08,13.08,0,0,0,2.8,1.27l8.75,2.77a2.12,2.12,0,0,1-.48,4.13Z"/><path class="cls-2" d="M457.23,412.67c5.14,7.93,7.42,14.47,16.37,23.38a51,51,0,0,1-17.53,12.36h0c-1-1.25-2.2-2.59-3.49-4.05-10.31-11.62-19.55-20.85-24.11-24.65s-11.73-9.77-17.81-24.54-7.82-20.74-10.31-27.58-3.8-10.43-12.6-19.66-17.59-21.72-22.48-29.43-7.38-11.73-10.43-12.38-19.65-5.65-27.47-24.54c0,0-2.19-7.7-9.29-5.17,0,0-9.22-23.94,7.42-39.9,7.12.53,13.18.88,16.26.79,6.83-.19,12.48.59,19.31,5.66s13.66,8.19,20.68,17.56a247.51,247.51,0,0,1,42.72,83.14,31.05,31.05,0,0,1,5.07,14.19c1,8.78,1,9.95,3.31,14.44s3.32,8,8,14.63S450,401.55,457.23,412.67Z"/><path class="cls-3" d="M325.49,236.51c-16.64,16-7.42,39.9-7.42,39.9a15.18,15.18,0,0,0-3.74,2c-10.1,7.16-15.31,10.21-17.7,14.11a70.5,70.5,0,0,1-7.06,9.67c-2.53,3.05-3.77,9.24-5.13,13.31h0c-5.29-6.49-11.5-1.1-11.5-1.1.33-.71.67-1.45,1-2.22,6.52-15-13.25-32.14-24.76-34.53-10.5-2.18-11.65,12.27-11.78,14.82A58.94,58.94,0,0,1,239,279.44c3.51-14.24,7.8-14.24,12.87-20.48s15.81-17.17,19.32-20.68,11.9-5.46,27.11-4.1C306.6,234.93,316.83,235.85,325.49,236.51Z"/><path class="cls-4" d="M297.66,340.74c7.54-.63,10.68,8.27,9,13-1.19,3.36-8.55,8.14-13.4.6l-.11,0a19.7,19.7,0,0,0-4-6.53l.53-.16S290.12,341.38,297.66,340.74Z"/><path class="cls-4" d="M293.17,354.35a17,17,0,0,1,.86,7.82c-2,16.89-12.55,22.52-26.63,27.78l-1.22-.67a25.65,25.65,0,0,1,.68-11.06,4.43,4.43,0,0,0-.16-2.83c-3-7.7.61-12.73.63-12.89l-.07-.07c.66-.63,1-1.66.29-3.31h0l.47-2.53a7.69,7.69,0,0,0,.1-2c-.29-3.22-1.41-4.79-2.62-7.44-2.88-6.3,3.87-7.41,5.93-7.54a20,20,0,0,1,7.08.62,32.33,32.33,0,0,1,10.7,7.63A19.7,19.7,0,0,1,293.17,354.35Z"/><path class="cls-1" d="M267.55,359.12c.69,1.65.37,2.68-.29,3.31l.07.07c0,.16-3.66,5.19-.63,12.89a4.43,4.43,0,0,1,.16,2.83,25.65,25.65,0,0,0-.68,11.06l-1.62-.9s-8.44-2.49-12.4-6.09c-3.08-2.78-2.77-4.23-5.92-4.5.88-4.49,1.95-9.68,2.71-14.29,1.09-6.56,6.08-11.12,9.56-20,2.53-6.51,3.29-9.54,3.74-12.64.27-.2,4.82-3.68,10.68-16.42,0,0,6.21-5.39,11.5,1.1h0a15.11,15.11,0,0,1-1.06,2.55c-5.27,9.37-9.4,11.07-4.87,22.12a20,20,0,0,0-7.08-.62c-2.06.13-8.81,1.24-5.93,7.54,1.21,2.65,2.33,4.22,2.62,7.44a7.69,7.69,0,0,1-.1,2l-.47,2.53ZM254,377.31c.43-.43,0-1.6-1-2.6s-2.17-1.46-2.6-1,0,1.6,1,2.6S253.6,377.75,254,377.31Z"/><path class="cls-1" d="M253.25,475.69a1.15,1.15,0,0,1,.32.79,1.13,1.13,0,0,1-1.13,1.13h-.14c-3.85-.51-15.65-2-23.87-2.19-10-.26-8.64-3.14-9.69-8.12s-1.05-30.38.52-43,4.51-22.86,4.09-27.67c0,0,2.34-9.75,2.34-12.68s3.37-37.84,6.85-49.74,5.24-13.26,5.83-19.31c.4-4.14-1.12-12.59-1-22.07,0,0,0-.14,0-.38.13-2.55,1.28-17,11.78-14.82,11.51,2.39,31.28,19.54,24.76,34.53-.33.77-.67,1.51-1,2.22-5.86,12.74-10.41,16.22-10.68,16.42-.45,3.1-1.21,6.13-3.74,12.64-3.48,8.9-8.47,13.46-9.56,20-.76,4.61-1.83,9.8-2.71,14.29-.38,1.9-.71,3.67-1,5.22-.9,5.22-1.52,12.21-1.52,12.21,0,11.57-3.29,28.53-5.25,34.07s-7.07,27.51-7.4,31.26,4.76,4.82,5,4.88h0l15.39,1.25a8.6,8.6,0,0,1,1.42.24l18.94,5.25a1.38,1.38,0,0,1,.18,2.6h-.44v.14a1.11,1.11,0,0,1-1.11,1.11h-4.13l-.1,0a1.12,1.12,0,0,1-1.11.65l-11.63-.95Z"/><path d="M253,374.71c1,1,1.46,2.17,1,2.6s-1.6,0-2.6-1-1.47-2.17-1-2.6S252,373.71,253,374.71Z"/><path class="cls-5" d="M267.55,359.11a7.1,7.1,0,0,0-.33-.69s-3.43-4.24-8.65-2.61c0,0-2.85,1.42.59,3.24"/><path class="cls-5" d="M264,363.5a5.37,5.37,0,0,0,3.25-1.07c.66-.63,1-1.66.29-3.31"/><path class="cls-5" d="M266.18,389.28a25.65,25.65,0,0,1,.68-11.06,4.43,4.43,0,0,0-.16-2.83c-3-7.7.61-12.73.63-12.89"/><path class="cls-5" d="M289.74,347.66s.38-6.28,7.92-6.92,10.68,8.27,9,13c-1.19,3.36-8.55,8.14-13.4.6"/><path class="cls-5" d="M246.16,377.78h.08c3.15.27,2.84,1.72,5.92,4.5,4,3.6,12.4,6.09,12.4,6.09l1.62.9,1.22.67c14.08-5.26,24.65-10.89,26.63-27.78a17,17,0,0,0-.86-7.82,19.7,19.7,0,0,0-4-6.53,32.33,32.33,0,0,0-10.7-7.63,20,20,0,0,0-7.08-.62c-2.06.13-8.81,1.24-5.93,7.54,1.21,2.65,2.33,4.22,2.62,7.44a7.69,7.69,0,0,1-.1,2l-.47,2.53h0v0"/><path class="cls-5" d="M237.39,292.49A58.94,58.94,0,0,1,239,279.44c3.51-14.24,7.8-14.24,12.87-20.48s15.81-17.17,19.32-20.68,11.9-5.46,27.11-4.1c8.35.75,18.58,1.67,27.24,2.33,7.12.53,13.18.88,16.26.79,6.83-.19,12.48.59,19.31,5.66s13.66,8.19,20.68,17.56a247.51,247.51,0,0,1,42.72,83.14,31.05,31.05,0,0,1,5.07,14.19c1,8.78,1,9.95,3.31,14.44s3.32,8,8,14.63,9.17,14.63,16.39,25.75c5.14,7.93,7.42,14.47,16.37,23.38a120.54,120.54,0,0,0,14.64,12.12s6.63,5.85,13.07,8.78,8.58,4.68,12.29,6.24c2.16.91,3.91,1.55,5,1.93a13.21,13.21,0,0,1,2.47,1.15l1.34.8a13.08,13.08,0,0,0,2.8,1.27l8.75,2.77a2.12,2.12,0,0,1-.48,4.13h-.12"/><path class="cls-5" d="M239.69,471l13.12,4.45a1.18,1.18,0,0,1,.44.28,1.15,1.15,0,0,1,.32.79,1.13,1.13,0,0,1-1.13,1.13h-.14c-3.85-.51-15.65-2-23.87-2.19-10-.26-8.64-3.14-9.69-8.12s-1.05-30.38.52-43,4.51-22.86,4.09-27.67c0,0,2.34-9.75,2.34-12.68s3.37-37.84,6.85-49.74,5.24-13.26,5.83-19.31c.4-4.14-1.12-12.59-1-22.07"/><path class="cls-5" d="M253.57,475.67l11.63.95a1.12,1.12,0,0,0,1.11-.65,1.19,1.19,0,0,0,.1-.46,1.1,1.1,0,0,0-.87-1.08l-16.42-3.74"/><path class="cls-5" d="M266.41,476h4.13a1.11,1.11,0,0,0,1.11-1.11v-.31a1.1,1.1,0,0,0-.87-1.08l-16.88-3.69"/><path class="cls-5" d="M272.09,474.77a1.38,1.38,0,0,0-.18-2.6L253,466.92a8.6,8.6,0,0,0-1.42-.24l-15.39-1.25h0c-.28-.06-5.35-1.24-5-4.88s5.45-25.72,7.4-31.26,5.25-22.5,5.25-34.07c0,0,.62-7,1.52-12.21.27-1.55.6-3.32,1-5.22.88-4.49,1.95-9.68,2.71-14.29,1.09-6.56,6.08-11.12,9.56-20,2.53-6.51,3.29-9.54,3.74-12.64.17-1.15.29-2.3.45-3.65a24.07,24.07,0,0,1,1.67-7.17"/><path class="cls-5" d="M524,470.54l8.07,2.91a1.91,1.91,0,0,1,1.27,1.8,2,2,0,0,1-.56,1.35,1.91,1.91,0,0,1-1.36.56h-.87"/><path class="cls-5" d="M521,471.19l8.13,3.46a2.16,2.16,0,0,1,1.32,2,2.42,2.42,0,0,1-.05.47,2.13,2.13,0,0,1-.58,1.06,2.19,2.19,0,0,1-1.53.63h-1.76"/><path class="cls-5" d="M519.25,473.14l6.09,2.56a2.29,2.29,0,0,1,1.18,3.09,2.14,2.14,0,0,1-.45.63,2.28,2.28,0,0,1-1.61.67h-4.27"/><path class="cls-5" d="M456.06,448.41c-1-1.25-2.2-2.59-3.49-4.05-10.31-11.62-19.55-20.85-24.11-24.65s-11.73-9.77-17.81-24.54-7.82-20.74-10.31-27.58-3.8-10.43-12.6-19.66-17.59-21.72-22.48-29.43-7.38-11.73-10.43-12.38-19.65-5.65-27.47-24.54c0,0-2.19-7.7-9.29-5.17a15.18,15.18,0,0,0-3.74,2c-10.1,7.16-15.31,10.21-17.7,14.11a70.5,70.5,0,0,1-7.06,9.67c-2.53,3.05-3.77,9.24-5.13,13.31a15.11,15.11,0,0,1-1.06,2.55c-5.27,9.37-9.4,11.07-4.87,22.12"/><path class="cls-5" d="M513.34,474l3.47.31a2.08,2.08,0,0,1,1.22.55l2.32,2.18a2.06,2.06,0,0,1,.64,1.49,2,2,0,0,1-.6,1.44l-.18.16a2,2,0,0,1-1.26.44h-2.41l-2.33-1.1a3.82,3.82,0,0,0-2.8-.17,7.31,7.31,0,0,1-3.5.3c-3.32-.49-10.48-1.54-14.4-1.95-5.21-.56-22.69.42-24.65-2.62s-1.3-6.3-2.71-10.32c-1.24-3.52-2.81-7.53-10.08-16.26"/><path class="cls-5" d="M237.38,292.87s0-.14,0-.38c.13-2.55,1.28-17,11.78-14.82,11.51,2.39,31.28,19.54,24.76,34.53-.33.77-.67,1.51-1,2.22-5.86,12.74-10.41,16.22-10.68,16.42h0"/><path class="cls-5" d="M318.07,276.41s-9.22-23.94,7.42-39.9"/><path class="cls-5" d="M456.06,448.41h0a51,51,0,0,0,17.53-12.36h0"/><path class="cls-5" d="M272.93,314.42s6.21-5.39,11.5,1.1"/></svg>