<svg id="Layer_1" data-name="Layer 1" xmlns="http://www.w3.org/2000/svg" viewBox="0 0 700 700"><defs><style>.cls-1{fill:#99abcc;}.cls-2{fill:#c4e7f9;}.cls-3{fill:#392328;}.cls-4{fill:#feae63;}.cls-5{fill:none;stroke:#000;stroke-linecap:round;stroke-linejoin:round;stroke-width:2.3px;}</style></defs><title>Yoga_poses_2020_color</title><path class="cls-1" d="M471.89,333.17c3,6,0,11.85-2.35,19.48-1.92,6.32-2.15,6.31-3,11.8s-2.3,21.55-3.06,26.14-5.48,23.2-6.89,37.74a32.72,32.72,0,0,1-19.31,0h0c-.17-13.74-1.88-35.6-1.88-35.6-2.83-32.07,15.41-44.77,5.69-51.48-9.22-6.36-35.48-16.82-52.53-33.29a7.55,7.55,0,0,0-6.16-2.06c-6.39.8-20.63.16-34-17.18a83.79,83.79,0,0,0-6.57-7.78h0c0-40.34,9.73-41,10.18-41h0c8,.63,16.87,1.53,20.18,2.63,8.85,2.93,33.18,18.13,33.18,18.13C445.8,286.27,468.87,327.17,471.89,333.17Z"/><path class="cls-2" d="M250.25,310.49a181,181,0,0,1-1.76-21.77c-.38-16,6.86-24.79,24-41s30.5-15.47,38.12-14.11,26.31,5.3,26.31,5.3,7.09.35,15,1c-.45,0-10.18.68-10.18,41-3.24-3.35-7.06-6.54-9.94-6.63-13.25-.41-20.19,9.45-40.86,39,1.67-2.62,3.41-5.5,5.15-8.6,8-14.19-13-25.92-29.74-27.74s-16.14,33.53-16.14,33.53h0Z"/><path class="cls-3" d="M240.48,369.53c-.27,4.77-.62,8.44-1,11.36-2.2-.81-4.46-1.75-6.78-2.76l-.4-1.35S238.64,370.94,240.48,369.53Z"/><path class="cls-3" d="M275.06,381.84l-1.29-.14a38.34,38.34,0,0,0,3.28-2,19.94,19.94,0,0,0,3.28-3.41l.09.07c6.37-6.29,12.09-.37,12.51,3.17.6,4.95-4.41,12.94-11.63,10.68C274.67,388.11,275,382.7,275.06,381.84Z"/><path class="cls-3" d="M281.83,342.42c5.3,6.88,4.34,17.95,4.34,17.95a27.69,27.69,0,0,1-5.84,15.9,19.94,19.94,0,0,1-3.28,3.41,38.34,38.34,0,0,1-3.28,2,27.36,27.36,0,0,1-13.31,3.68h-.35a33.07,33.07,0,0,1,.19-5.18,191.49,191.49,0,0,1,5.07-21.58c.18.14,5.17,4,6.15-1.7a9.29,9.29,0,0,0-2.59-6.13,102,102,0,0,0,5.27-9.09,43.45,43.45,0,0,0,2.1-4.84l.51.2A29.78,29.78,0,0,1,281.83,342.42Z"/><path class="cls-4" d="M268.93,350.79a9.29,9.29,0,0,1,2.59,6.13c-1,5.69-6,1.84-6.15,1.7.09-.31.18-.62.27-.91A25.07,25.07,0,0,1,268.93,350.79Z"/><path class="cls-4" d="M251.92,321.87c1.14,8.77-9.91,20.59-11.44,47.66-1.84,1.41-8.19,7.25-8.19,7.25-.13-.44-.31-1-.54-1.78,0,0-4.38-7.79-4.74-13.2-.28-4.26,1-5.07-1.19-7.56l-3-5.16,4.94-1.48.14-10.11c-.44-.83-2.54-7.58,8.41-6.7,0,0,4.82.56,5-3.73s5.25-14.35,8.95-16.57v0C250.83,314.62,251.44,318.21,251.92,321.87Zm-20,37.6c.62,0,1.11-1.18,1.08-2.62s-.55-2.6-1.17-2.59-1.11,1.19-1.09,2.63S231.27,359.48,231.9,359.47Z"/><path class="cls-4" d="M289.05,463.38c-1.62,0-12.27-.61-12.27-.61l-.18.58a15.57,15.57,0,0,1,2.25.84.81.81,0,0,1,.52.69.77.77,0,0,1-.12.4A1.56,1.56,0,0,1,278,466c-2.33.08-12.7-2.12-16.8-2-5.08.19-15-.1-15.85-3.37,0,0-6.73-29-8.64-50.76-1.57-17.9,1-15.36,2.8-29,.39-2.92.74-6.59,1-11.36,1.53-27.07,12.58-38.89,11.44-47.66-.48-3.66-1.09-7.25-1.67-11.36h0s-.63-35.34,16.14-33.53,37.72,13.55,29.74,27.74c-1.74,3.1-3.48,6-5.15,8.6l-.05.07a151.4,151.4,0,0,1-12.7,17.4c-.57,2-1.22,4.12-1.94,6.07a43.45,43.45,0,0,1-2.1,4.84,102,102,0,0,1-5.27,9.09,25.07,25.07,0,0,0-3.29,6.92c-.09.29-.18.6-.27.91a191.49,191.49,0,0,0-5.07,21.58,33.07,33.07,0,0,0-.19,5.18c.12,5.39.81,12.4.19,18.83-.24,2.56-5,39.06-4.73,44.26a13.23,13.23,0,0,0,.57,3.34,5.56,5.56,0,0,0,4.18,3.73,28.3,28.3,0,0,0,5.44.72c4.65.11,8.23,2.13,13.08,2.84s9,1.58,10.54,1.79C291.55,461.18,291.93,463.39,289.05,463.38Z"/><path class="cls-4" d="M493.89,463.66c-.31,2.2-4,1.18-4,1.18h-.06a1,1,0,0,1-.95.66,7.06,7.06,0,0,1-4.29-1.07c-.8,3-3,.6-8.14,1s-11.83-.43-19.15-2.15-11.83.43-19.58,0-1.51-16.79-.65-27.12c.16-1.94.2-4.68.16-7.86h0a32.72,32.72,0,0,0,19.31,0c-1.4,14.53,7.31,18,7.31,18,7.06,3.31,19.56,9.86,19.56,9.86,1.43,1.07,8.22,3,9,3.21a33.37,33.37,0,0,0,3.93.27,1.34,1.34,0,0,1,1.09,2.08,1.08,1.08,0,0,1-.19.21h-.08a2,2,0,0,1,.06.92C497,464.51,493.89,463.66,493.89,463.66Z"/><path d="M230.72,356.89c0-1.44.47-2.62,1.09-2.63s1.15,1.15,1.17,2.59-.46,2.61-1.08,2.62S230.75,358.33,230.72,356.89Z"/><path class="cls-5" d="M341.79,280.93c-3.24-3.35-7.06-6.54-9.94-6.63-13.25-.41-20.19,9.45-40.86,39"/><path class="cls-5" d="M479.47,460.72s5.63,1.77,5.12,3.71c-.8,3-3,.6-8.14,1s-11.83-.43-19.15-2.15-11.83.43-19.58,0-1.51-16.79-.65-27.12c.16-1.94.2-4.68.16-7.86-.17-13.74-1.88-35.6-1.88-35.6-2.83-32.07,15.41-44.77,5.69-51.48-9.22-6.36-35.48-16.82-52.53-33.29a7.55,7.55,0,0,0-6.16-2.06c-6.39.8-20.63.16-34-17.18a83.79,83.79,0,0,0-6.57-7.78"/><path class="cls-5" d="M232.29,376.78s6.35-5.84,8.19-7.25"/><path class="cls-5" d="M239.47,380.89c-2.2-.81-4.46-1.75-6.78-2.76l-.4-1.35c-.13-.44-.31-1-.54-1.78,0,0-4.38-7.79-4.74-13.2-.28-4.26,1-5.07-1.19-7.56l-3-5.16,4.94-1.48.14-10.11c-.44-.83-2.54-7.58,8.41-6.7,0,0,4.82.56,5-3.73s5.25-14.35,8.95-16.57"/><path class="cls-5" d="M484.59,464.43a7.06,7.06,0,0,0,4.29,1.07,1,1,0,0,0,.95-.66c.35-1-.95-2.84-1.87-3.22-1.22-.51-2.91-1.12-2.91-1.12"/><path class="cls-5" d="M489.89,464.84s3.69,1,4-1.18-4.45-2.91-4.45-2.91"/><path class="cls-5" d="M493.89,463.66s3.11.85,3.32-.75a2,2,0,0,0-.06-.92,1,1,0,0,0-.88-.66H492.4"/><path class="cls-5" d="M456.55,428.33a32.72,32.72,0,0,1-19.31,0"/><path class="cls-5" d="M265.36,358.61h0c.18.14,5.17,4,6.15-1.7a9.29,9.29,0,0,0-2.59-6.13"/><path class="cls-5" d="M275.08,381.72a1.13,1.13,0,0,0,0,.12c-.09.86-.39,6.27,6.24,8.35,7.22,2.26,12.23-5.73,11.63-10.68-.42-3.54-6.14-9.46-12.51-3.17"/><path class="cls-5" d="M286.17,360.37a27.69,27.69,0,0,1-5.84,15.9,19.94,19.94,0,0,1-3.28,3.41,38.34,38.34,0,0,1-3.28,2,27.36,27.36,0,0,1-13.31,3.68"/><path class="cls-5" d="M286.17,360.37s1-11.07-4.34-17.95a29.78,29.78,0,0,0-5-5.36"/><path class="cls-5" d="M352,239.91c-8-.61-15-1-15-1s-18.68-3.94-26.31-5.3-21-2.07-38.12,14.11-24.39,25-24,41a181,181,0,0,0,1.76,21.77v0c.58,4.11,1.19,7.7,1.67,11.36,1.14,8.77-9.91,20.59-11.44,47.66-.27,4.77-.62,8.44-1,11.36-1.8,13.68-4.37,11.14-2.8,29,1.91,21.73,8.64,50.76,8.64,50.76.84,3.27,10.77,3.56,15.85,3.37,4.1-.15,14.47,2.05,16.8,2a1.56,1.56,0,0,0,1.29-.75.77.77,0,0,0,.12-.4.81.81,0,0,0-.52-.69,15.57,15.57,0,0,0-2.25-.84c-1.72-.56-4.08-1.25-6.6-2.2l-5.87-.41"/><path class="cls-5" d="M497.23,462a1.08,1.08,0,0,0,.19-.21,1.34,1.34,0,0,0-1.09-2.08,33.37,33.37,0,0,1-3.93-.27c-.76-.2-7.55-2.14-9-3.21,0,0-12.5-6.55-19.56-9.86,0,0-8.71-3.49-7.31-18s6.12-33.15,6.89-37.74,2.17-20.66,3.06-26.14,1.12-5.48,3-11.8c2.31-7.63,5.36-13.48,2.35-19.48s-26.09-46.9-66.54-72.5c0,0-24.33-15.2-33.18-18.13-3.31-1.1-12.18-2-20.18-2.63"/><path class="cls-5" d="M276.78,462.77s10.65.6,12.27.61c2.88,0,2.5-2.2.33-2.49-1.5-.21-5.69-1.08-10.54-1.79s-8.43-2.73-13.08-2.84a28.3,28.3,0,0,1-5.44-.72,5.56,5.56,0,0,1-4.18-3.73,13.23,13.23,0,0,1-.57-3.34c-.29-5.2,4.49-41.7,4.73-44.26.62-6.43-.07-13.44-.19-18.83a33.07,33.07,0,0,1,.19-5.18,191.49,191.49,0,0,1,5.07-21.58c.09-.31.18-.62.27-.91a25.07,25.07,0,0,1,3.29-6.92,102,102,0,0,0,5.27-9.09,43.45,43.45,0,0,0,2.1-4.84c.72-1.95,1.37-4,1.94-6.07a136.13,136.13,0,0,0,3.41-16.54"/><path class="cls-5" d="M250.26,310.51s-.63-35.34,16.14-33.53,37.72,13.55,29.74,27.74c-1.74,3.1-3.48,6-5.15,8.6l-.05.07a151.4,151.4,0,0,1-12.7,17.4"/><path class="cls-5" d="M352,239.91h0c-.45,0-10.18.68-10.18,41h0"/></svg>