<svg id="Layer_1" data-name="Layer 1" xmlns="http://www.w3.org/2000/svg" viewBox="0 0 700 700"><defs><style>.cls-1{fill:#feae63;}.cls-2{fill:#99abcc;}.cls-3{fill:#c4e7f9;}.cls-4{fill:#170607;}.cls-5{fill:none;stroke:#000;stroke-linecap:round;stroke-linejoin:round;stroke-width:2.3px;}</style></defs><title>Yoga_poses_2020_color</title><path class="cls-1" d="M458,247.87c2,9.43-9.12,9.14-15.31,17.8a90.4,90.4,0,0,0-8,14.73c-13.48-1.45-18.09-9.92-18.09-9.92,7.6-12,7.34-18.33,7.34-18.33a9.09,9.09,0,0,0,1.92-.52l9.27-3.62a20.24,20.24,0,0,0,5.22-3l7-5.55C456.76,241.88,458,247.87,458,247.87Z"/><path class="cls-1" d="M307.77,314.31v.06s-6.77,20.25-27.23,22.55c-14.87,1.67-15.79-10.08-15.85-11.35.39-11.81,3.52-22.7,6.77-31.62l0-.1c4.55-11.93,18.11-7.87,18.11-7.87a30,30,0,0,1,9.67-3.21,12.72,12.72,0,0,1,4.1.15c7.45,1.63,10.06,4.31,20.17,4.37s25.23-.18,25.23-.18,11-9.68,19.16-14.34,18.1-14,24.85-20.77c6.17-6.22,8.07-9.67,12.44-12.71a5.58,5.58,0,0,0,2-2.39l2.37-5.51,2.61-6A6.68,6.68,0,0,1,415,222.2l1.27-.59,4.93-2.29a6.69,6.69,0,0,1,3.4-.93h5.91a2.25,2.25,0,0,1,2,1.61,2.77,2.77,0,0,1,.14.82c0,1.78-2,3-3,3.22l.88,0,4.63-2.23a3.07,3.07,0,0,1,2.68,0h0a3.08,3.08,0,0,1,1.24,1.11l.12.19a3.07,3.07,0,0,1-1,4.24l-3.35,2,3.28-1.94.07,0,.27-.16a3.06,3.06,0,0,1,1.56-.43,3.07,3.07,0,0,1,2,5.42l.13-.11a2.2,2.2,0,0,1,3.35.64l.13.23a2.19,2.19,0,0,1-.68,2.83l-.27.19a2.21,2.21,0,0,1,1.26-.4,2.18,2.18,0,0,1,1.84,1,2.2,2.2,0,0,1-.47,2.92l-7,5.55a20.24,20.24,0,0,1-5.22,3l-9.27,3.62a9.09,9.09,0,0,1-1.92.52l-7.39,1.17a9.36,9.36,0,0,0-3.61,1.39h0a36.83,36.83,0,0,0-5.93,4.92c-4.65,4.65-17.93,24-27,31.19s-8.61,7.92-16.29,14.21-6.52,1.86-17.32,4.65a165.51,165.51,0,0,1-22.82,3.93,112.37,112.37,0,0,1-13.82.73Z"/><path class="cls-1" d="M419.42,202.57a8.49,8.49,0,0,1,8.29,1.34c5.22,3.8,5.36,14.25,10.11,17.88a3.07,3.07,0,0,0-2.68,0L430.51,224l-.88,0c1-.25,3-1.44,3-3.22a2.77,2.77,0,0,0-.14-.82,2.25,2.25,0,0,0-2-1.61h-5.91a6.69,6.69,0,0,0-3.4.93l-4.34-7a4.74,4.74,0,0,0-.66-.82l-.87-.85a4.5,4.5,0,0,1-1.29-2.61l-.22-1.77a1.72,1.72,0,0,1,.34-1.23l-2.21-1.51-2.29-1.85a1.83,1.83,0,0,0-2.65.39,1.47,1.47,0,0,1-.5-2.16l.29-.4a1.46,1.46,0,0,1,1.81-.47l1.66.77.08.08a4.5,4.5,0,0,1,3.25-1.39,4.66,4.66,0,0,1,1.74.35,7.69,7.69,0,0,1,3.13,2.4Z"/><path class="cls-2" d="M312.79,402.74a4.22,4.22,0,0,0,.18-.45c1.46-3.55,3.11-7.34,4.83-10.88,2.08-4.27,4.3-8.31,6.6-12.14a204.29,204.29,0,0,1,12.22-17.86c6.53-8.61,12.91-16,17.9-22.73,10.64-10.86,17.16-7.61,23.89-19,6.22-10.56,27.09-33.44,36.2-46.26.74-1,1.41-2,2-2.92,0,0,4.61,8.47,18.09,9.92-3.86,8.55-7.86,19.22-11.85,31-6.84,20.2-25.41,34.86-32.91,40.68s-9.77,15-9.77,15c-7.17,25.25-17,43.14-21.83,56.36-4.48,12.18-12.05,35.84-33.63,39.15-23,3.53-34.82-11.64-39.53-28-.63-2.2-1.34-5-2.09-8.24a62,62,0,0,0,11.07-7.66C298.39,415,310.64,407.43,312.79,402.74Z"/><path class="cls-1" d="M423.93,252.15s.26,6.38-7.34,18.33c-.57.9-1.24,1.88-2,2.92-4.63-5.11-9.69-5.48-9.69-5.48,4.45-7.07,7.82-12.88,8-13.2h0a9.36,9.36,0,0,1,3.61-1.39Z"/><path class="cls-1" d="M416.23,221.6h0l-1.27.59a6.68,6.68,0,0,0-2.79,3.15l-2.61,6-.28-.12L407,222.83a4.43,4.43,0,0,0-1.87-3l-.78-.54-.09-.05-4-2.15c-.43-.23-.17-1.31.07-1.73h0a4.82,4.82,0,0,1,4.23-1.72l.16,0a7.69,7.69,0,0,1,3.92,1.58,11.63,11.63,0,0,0,1,1.19,3.08,3.08,0,0,0,1.57.91A7.51,7.51,0,0,1,416.23,221.6Z"/><path class="cls-1" d="M414.33,209.28,410,206.92l-.42-.39a1.84,1.84,0,0,1-.56-1,1.89,1.89,0,0,1,1.85-2.3,2,2,0,0,1,1.08.33l2.21,1.51a1.72,1.72,0,0,0-.34,1.23l.22,1.77A4.45,4.45,0,0,0,414.33,209.28Z"/><path class="cls-1" d="M409.62,201.72l2.29,1.85a2,2,0,0,0-1.08-.33,1.89,1.89,0,0,0-1.85,2.3l-1.42-.81a1.83,1.83,0,1,1,2.06-3Z"/><path class="cls-2" d="M404.92,267.92s5.06.37,9.69,5.48c-9.11,12.82-30,35.7-36.2,46.26-6.73,11.41-13.25,8.16-23.89,19-5,6.71-11.37,14.12-17.9,22.73a204.29,204.29,0,0,0-12.22,17.86s-.16-4.11-.09-9.87c0,0,14.46-19.86,19.68-24.75s10.75-15,16.61-21.83,11.4-6.84,16-13.36,7.81-12.46,16.61-24.15C397.05,280.17,401.34,273.63,404.92,267.92Z"/><path class="cls-1" d="M407,222.83l-5.63-2.24a2.32,2.32,0,0,1-1.34-2.88l.18-.57,4,2.15.09.05.78.54A4.43,4.43,0,0,1,407,222.83Z"/><path class="cls-3" d="M327.49,322.23s6.53,12.07,0,22.72a14,14,0,0,0-1.95,5.54,167.25,167.25,0,0,0-1.2,18.91c-.07,5.76.09,9.87.09,9.87-2.3,3.83-4.52,7.87-6.6,12.14-1.72,3.54-3.37,7.33-4.83,10.88a4.22,4.22,0,0,1-.18.45c-2.15,4.69-14.4,12.26-18.65,16a62,62,0,0,1-11.07,7.66c-3.2-13.74-7.34-35.32-11.13-52.44-3.7-16.7-6.34-34.43-6.34-34.43a69.34,69.34,0,0,1-.91-14c.06,1.27,1,13,15.85,11.35,20.46-2.3,27.23-22.55,27.23-22.55v-.06l2,0a112.37,112.37,0,0,0,13.82-.73Z"/><path class="cls-1" d="M284.24,252.61a9.34,9.34,0,0,1-.52-2c.49-6.27,5.89-2.78,5.89-2.78,2.52-.05,6.42-2.05,8.37-6.42s1-8,4.8-11c2-1.54,10.2-9,10.2-9l.6,1.89s4.79,8.26,5.25,14c.37,4.55-1,5.43,1.38,8.06l3.34,5.46-5.26,1.66v10.79c.47.89,2.81,8.06-8.89,7.28,0,0-5-.26-6.94,2.05-2.11,2.51-3.19,4.45-3.19,10.15a30,30,0,0,0-9.67,3.21s-13.56-4.06-18.11,7.87c1-2.85,2.09-5.49,3.07-7.9,2.26-5.58,1.23-12.73.76-19.59,2.7.55,4.34-1.81,4.95-6.28,1-5.9,3.82-7.41,3.82-7.41Zm29.58-7.17c.66,0,1.17-1.28,1.12-2.82s-.62-2.76-1.29-2.74-1.17,1.28-1.12,2.82S313.15,245.46,313.82,245.44Z"/><path d="M314.94,242.62c.05,1.54-.46,2.8-1.12,2.82s-1.24-1.21-1.29-2.74.45-2.8,1.12-2.82S314.89,241.09,314.94,242.62Z"/><path class="cls-4" d="M275.33,266.36c-1.59-.33-3.56-1.67-5.9-4.2-6.31-6.79-6.38-18.66-6.38-18.66A29.69,29.69,0,0,1,267.66,226a21.32,21.32,0,0,1,3.18-4c.86-.71,1.72-1.36,2.56-2,13.2-9.35,25-6.1,39.13-.13l.45,1.44s-8.25,7.47-10.2,9c-3.84,3.05-2.85,6.66-4.8,11s-5.85,6.37-8.37,6.42c0,0-5.4-3.49-5.89,2.78a9.34,9.34,0,0,0,.52,2l-.14.06s-2.82,1.51-3.82,7.41C279.67,264.55,278,266.91,275.33,266.36Z"/><path class="cls-4" d="M267.58,226c-6.15,7.29-12.81,1.56-13.61-2.16-1.13-5.2,3.42-14.2,11.32-12.51s7.44,8.4,7.44,8.4l.67.39c-.84.61-1.7,1.26-2.56,2a21.32,21.32,0,0,0-3.18,4Z"/><path class="cls-5" d="M265.6,339.54s2.64,17.73,6.34,34.43c3.79,17.12,7.93,38.7,11.13,52.44.75,3.24,1.46,6,2.09,8.24,4.71,16.35,16.57,31.52,39.53,28,21.58-3.31,29.15-27,33.63-39.15,4.87-13.22,14.66-31.11,21.83-56.36,0,0,2.28-9.21,9.77-15s26.07-20.48,32.91-40.68c4-11.8,8-22.47,11.85-31a90.4,90.4,0,0,1,8-14.73C448.89,257,460,257.3,458,247.87c0,0-1.25-6-10.67-8.41"/><path class="cls-5" d="M324.4,379.27s-.16-4.11-.09-9.87a167.25,167.25,0,0,1,1.2-18.91,14,14,0,0,1,1.95-5.54c6.56-10.65,0-22.72,0-22.72l-3.94-8.61"/><path class="cls-5" d="M307.77,314.37s-6.77,20.25-27.23,22.55c-14.87,1.67-15.79-10.08-15.85-11.35v-.11"/><path class="cls-5" d="M271.46,294c-3.25,8.92-6.38,19.81-6.77,31.62a69.34,69.34,0,0,0,.91,14"/><path class="cls-5" d="M275.33,266.31v.05c.47,6.86,1.5,14-.76,19.59-1,2.41-2,5.05-3.07,7.9"/><path class="cls-5" d="M289.61,247.87s-5.4-3.49-5.89,2.78a9.34,9.34,0,0,0,.52,2,8.6,8.6,0,0,0,5.88,5.46s3.42.36,1.34-3.31"/><path class="cls-5" d="M293,262.61s1.25,5.58,6.32,6.13"/><path class="cls-5" d="M313,221.4s-8.25,7.47-10.2,9c-3.84,3.05-2.85,6.66-4.8,11s-5.85,6.37-8.37,6.42"/><path class="cls-5" d="M272.73,219.7s.45-6.7-7.44-8.4-12.45,7.31-11.32,12.51c.8,3.72,7.46,9.45,13.61,2.16v0"/><path class="cls-5" d="M284.1,252.67s-2.82,1.51-3.82,7.41c-.61,4.47-2.25,6.83-4.95,6.28-1.59-.33-3.56-1.67-5.9-4.2-6.31-6.79-6.38-18.66-6.38-18.66"/><path class="cls-5" d="M263.05,243.5A29.69,29.69,0,0,1,267.66,226a21.32,21.32,0,0,1,3.18-4c.86-.71,1.72-1.36,2.56-2,13.2-9.35,25-6.1,39.13-.13l.45,1.44.6,1.89s4.79,8.26,5.25,14c.37,4.55-1,5.43,1.38,8.06l3.34,5.46-5.26,1.66v10.79c.47.89,2.81,8.06-8.89,7.28,0,0-5-.26-6.94,2.05-2.11,2.51-3.19,4.45-3.19,10.15"/><path class="cls-5" d="M423.6,224.26l-1.21.71a16.5,16.5,0,0,1-5,1.91l-.82.16"/><path class="cls-5" d="M285.61,288.28a39,39,0,0,1,4-2.3,30,30,0,0,1,9.67-3.21,12.72,12.72,0,0,1,4.1.15c7.45,1.63,10.06,4.31,20.17,4.37s25.23-.18,25.23-.18,11-9.68,19.16-14.34,18.1-14,24.85-20.77c6.17-6.22,8.07-9.67,12.44-12.71a5.58,5.58,0,0,0,2-2.39l2.37-5.51,2.61-6A6.68,6.68,0,0,1,415,222.2l1.27-.59,4.93-2.29a6.69,6.69,0,0,1,3.4-.93h5.91a2.25,2.25,0,0,1,2,1.61,2.77,2.77,0,0,1,.14.82c0,1.78-2,3-3,3.22"/><path class="cls-5" d="M437.82,221.79a3.07,3.07,0,0,0-2.68,0L430.51,224l-.88,0-6,.22"/><path class="cls-5" d="M438.23,227.33a3.07,3.07,0,0,0,1-4.24l-.12-.19a3.08,3.08,0,0,0-1.24-1.11"/><path class="cls-5" d="M438.23,227.33l-3.35,2,3.28-1.94Z"/><path class="cls-5" d="M442.05,232.16a3.07,3.07,0,0,0-3.55-5l-.27.16"/><path class="cls-5" d="M441.21,238.41l3.5-2.47.27-.19a2.19,2.19,0,0,0,.68-2.83l-.13-.23a2.2,2.2,0,0,0-3.35-.64l-.13.11-2.93,2.48"/><path class="cls-5" d="M412.93,254.71a9.36,9.36,0,0,1,3.61-1.39l7.39-1.17a9.09,9.09,0,0,0,1.92-.52l9.27-3.62a20.24,20.24,0,0,0,5.22-3l7-5.55a2.2,2.2,0,0,0,.47-2.92,2.18,2.18,0,0,0-1.84-1,2.21,2.21,0,0,0-1.26.4"/><path class="cls-5" d="M294.21,314.35s5.22-.2,13.56,0l2,0a112.37,112.37,0,0,0,13.82-.73,165.51,165.51,0,0,0,22.82-3.93c10.8-2.79,9.63,1.63,17.32-4.65s7.21-7,16.29-14.21,22.36-26.54,27-31.19a36.83,36.83,0,0,1,5.93-4.92"/><path class="cls-5" d="M418.05,203.26a6.48,6.48,0,0,1,1.37-.69,8.49,8.49,0,0,1,8.29,1.34c5.22,3.8,5.36,14.25,10.11,17.88h0"/><path class="cls-5" d="M419.42,202.57l-1-1.28a7.69,7.69,0,0,0-3.13-2.4,4.66,4.66,0,0,0-1.74-.35,4.5,4.5,0,0,0-3.25,1.39,3.1,3.1,0,0,0-.44.51l-.07.09"/><path class="cls-5" d="M420.07,207.49a3.24,3.24,0,0,1-2.91-1.81l-.15-.33a1.73,1.73,0,0,0-1.54-.95,1.67,1.67,0,0,0-1.35.68,1.72,1.72,0,0,0-.34,1.23l.22,1.77a4.5,4.5,0,0,0,1.29,2.61l.87.85a4.74,4.74,0,0,1,.66.82l4.34,7"/><path class="cls-5" d="M414.33,209.28,410,206.92l-.42-.39a1.84,1.84,0,0,1-.56-1,1.89,1.89,0,0,1,1.85-2.3,2,2,0,0,1,1.08.33l2.21,1.51"/><path class="cls-5" d="M409,205.54l-1.42-.81a1.83,1.83,0,1,1,2.06-3l2.29,1.85"/><path class="cls-5" d="M407,202.11a1.47,1.47,0,0,1-.5-2.16l.29-.4a1.46,1.46,0,0,1,1.81-.47l1.66.77"/><path class="cls-5" d="M312.79,402.74c-3.2,7.81-5.45,14.34-5.45,14.34"/><path class="cls-5" d="M423.93,252.15s.26,6.38-7.34,18.33c-.57.9-1.24,1.88-2,2.92-9.11,12.82-30,35.7-36.2,46.26-6.73,11.41-13.25,8.16-23.89,19-5,6.71-11.37,14.12-17.9,22.73a204.29,204.29,0,0,0-12.22,17.86c-2.3,3.83-4.52,7.87-6.6,12.14-1.72,3.54-3.37,7.33-4.83,10.88"/><path class="cls-5" d="M283.07,426.41a62,62,0,0,0,11.07-7.66c4.25-3.75,16.5-11.32,18.65-16a4.22,4.22,0,0,0,.18-.45"/><path class="cls-5" d="M289.61,286s-13.56-4.06-18.11,7.87l0,.1"/><path class="cls-5" d="M416.59,270.48s4.61,8.47,18.09,9.92"/><path class="cls-5" d="M324.31,369.4s14.46-19.86,19.68-24.75,10.75-15,16.61-21.83,11.4-6.84,16-13.36,7.81-12.46,16.61-24.15c3.87-5.14,8.16-11.68,11.74-17.39,4.45-7.07,7.82-12.88,8-13.2h0"/><path class="cls-5" d="M404.92,267.92s5.06.37,9.69,5.48"/><path class="cls-5" d="M400.2,215.45l-.36.51A4.67,4.67,0,0,1,400.2,215.45Z"/><line class="cls-5" x1="400.2" y1="215.45" x2="400.23" y2="215.41"/><path class="cls-5" d="M409.28,231.27,407,222.83a4.43,4.43,0,0,0-1.87-3l-.78-.54-.09-.05-4-2.15c-.43-.23-.17-1.31.07-1.73h0a4.82,4.82,0,0,1,4.23-1.72l.16,0a7.69,7.69,0,0,1,3.92,1.58,11.63,11.63,0,0,0,1,1.19,3.08,3.08,0,0,0,1.57.91,7.51,7.51,0,0,1,5.09,4.22"/><path class="cls-5" d="M400.16,217.14l-.18.57a2.32,2.32,0,0,0,1.34,2.88l5.63,2.24"/></svg>