<svg id="Layer_1" data-name="Layer 1" xmlns="http://www.w3.org/2000/svg" viewBox="0 0 700 700"><defs><style>.cls-1{fill:#feae63;}.cls-2{fill:#99abcc;}.cls-3{fill:#c4e7f9;}.cls-4{fill:#392328;}.cls-5{fill:none;stroke:#000;stroke-linecap:round;stroke-linejoin:round;stroke-width:2.3px;}</style></defs><title>Yoga_poses_2020_color</title><path class="cls-1" d="M559.49,451.19c-.52.39-1.54.55-3.48-.21-.59.47-1.58.72-3.21.13a1.92,1.92,0,0,1-2,.72,3.14,3.14,0,0,1-1.77-.92c-2.39-2.4-3.94-2.82-5.38-3,2.75.51,3.65,2,3.94,3.11a.9.9,0,0,1-.88,1.13,16.93,16.93,0,0,1-3.48-.37l-1.37-.29a43,43,0,0,1-12.38-.81c-3.75-1-6.19,0-11.24-.16s-6-3.1-7.66-8.31-4.07-7-6.35-8.31c-1.11-.64-7-3.14-12.76-5.53,7.34-2.06,11.37-14.05,11.37-14.05l.16-.26c7.31,4.6,13.09,7.69,15.89,9.09,7.82,3.91,19.83,10.91,19.83,10.91,2.37,1.59,6.89,4.64,10.51,5.66s3.56,2.26,5,3.56a32,32,0,0,0,5.51,3.24.85.85,0,0,0,.42.08l2.54-.13a.84.84,0,0,1,.69.26c1.46,1.66.39,3.33-.57,4.18S559.49,451.19,559.49,451.19Z"/><path class="cls-2" d="M448.55,358.32a41.59,41.59,0,0,1,7.83,13.33,24.57,24.57,0,0,0,5.13,8.61c13.65,14.75,29.61,26.28,41.52,33.8l-.16.26s-4,12-11.37,14.05c-6-2.51-11.84-4.89-11.84-4.89-33.39-14.34-38-27.7-43-33.56l-2.17-2.52a68.57,68.57,0,0,0-10.21-10.17c-1.4-1.12-3.82-2.8-6.7-4.72-7.17-4.79-17.19-11.08-21.49-13.87-6-3.91-30.13-17.1-35-19.06s-22.15-7.81-28.51-19.38a82,82,0,0,0-4.73-7.74s8.64-13.44,11.47-17.35,11.07-16.29,13.46-20.85,3-15.72,3-15.72l.07-.68A35.17,35.17,0,0,1,371,262.53c8,4.35,15.2,7.17,20.41,8.26s15.86,5,36.28,16.94,40.83,32.58,38,40.4-7.6,14.33-9.77,18S448.55,358.32,448.55,358.32Zm-13.47-22.16c-3.69-1.73-8.09-3.75-8.09-3.75h0c2,2.26,3.85,4.47,5.63,6.6l.3-.25Z"/><path class="cls-2" d="M435.08,336.16l-2.17,2.61-.3.25c-1.78-2.13-3.66-4.34-5.63-6.6h0S431.39,334.43,435.08,336.16Z"/><path class="cls-2" d="M434.49,387.4s-1.33,3.7-3,8.45c-8.37.61-17.09-6.27-17.09-6.27,1.44-7.6,2.87-16.6,2.87-16.6l.31-.47c2.88,1.92,5.3,3.6,6.7,4.72A68.57,68.57,0,0,1,434.49,387.4Z"/><path class="cls-1" d="M414.4,389.58s8.72,6.88,17.09,6.27c-2.19,6.24-5,14.3-6.07,18.18-2,6.84-3.26,10.42-8.48,18.89s-1.62,9.45-1.62,9.45l6.77.41a.81.81,0,0,1,.7.8l0,.58a3.27,3.27,0,0,1-3.37,3l-6-.22a21.71,21.71,0,0,1-6.56-.15,8,8,0,0,1-4.51-2.34c-4.17-4.39-2.94-10.54-2.94-10.54,2.28-12.71,0-11.4-1-19.22s3.67-8.94,5.87-9.77c3.43-1.32,6.51-1,8.14-6.19C412.93,397,413.67,393.45,414.4,389.58Z"/><path class="cls-3" d="M355.87,257.86l-.07.68s-.65,11.16-3,15.72-10.64,16.94-13.46,20.85-11.47,17.35-11.47,17.35A25.56,25.56,0,0,0,315,302.28c-7.33-2.93-28.67,5.21-32.58,8-1.53,1.08-4.4,3.23-7.65,5.65-.11-.44-2.95-12.15-12.33-15.43-9.56-3.34-16.51-12.95-16.51-12.95a118.28,118.28,0,0,1,1.17-14.29c.67-4.32-1.34-8.27-5.55-9.41l-.54-.2a8.59,8.59,0,0,1,.56-1.14c10.35-17.59,34-14.05,37.38-14.05s21.07-3.48,29.75-1.52S336.47,256,348,257.1C351.13,257.39,353.67,257.61,355.87,257.86Z"/><path class="cls-1" d="M232.93,309.34l-.59-.32a5.43,5.43,0,0,0,.69-1.84c1.22-7.13,8.75-17.06,12.87-19.67,0,0,6.95,9.61,16.51,12.95,9.38,3.28,12.22,15,12.33,15.43h0c-5,3.74-10.91,8.15-14.17,10.33-5.38,3.58-5.87,9.12-6.36,14.55S243,382.1,242.16,385.36a53.6,53.6,0,0,0-1.14,5.86l-1.79,8.31c-2.94,16.78-13,36.49-15.81,42.68a54.79,54.79,0,0,1-4.39,8.47,3.76,3.76,0,0,1-3.75,2.12,37.24,37.24,0,0,1-8.08-.81,1.62,1.62,0,0,0-.31.33l-.84,1.18a1.94,1.94,0,0,1-1.49.81l-1.72.08a2,2,0,0,1-1.34-.45,2,2,0,0,1-.69-1.49,1.93,1.93,0,0,1,.35-1.12l.53-.75-.09-.06-7.49.1c-2.72.2-10.64.25-15,.39a2,2,0,0,1-2-2V449a2,2,0,0,1,1.67-1.87l3.58-.57a100.57,100.57,0,0,1,15.3-1.95l5-.62c7.5-.82,9.52-3.49,10.29-4.78a15.26,15.26,0,0,0,.9-4.13s3.75-25.74,4.73-33.07,4.23-14.33,5.05-16.61c.62-1.76,3.47-20.33,4.82-31.08.41-3.21.68-5.72.72-6.88,0-.92,0-1.87,0-2.83,0-4.28-.44-8.78-.84-12.64S228.57,317.57,232.93,309.34Z"/><path class="cls-1" d="M226.17,313.41a8.85,8.85,0,0,1-.17,1.9c-2.44,5.36-6.08.56-6.08.56-2.23-.76-6.31-.25-9.42,3s-3.39,6.73-7.75,8.18c-2.21.73-11.86,4.67-11.86,4.67l.08-1.85s-1.57-8.81-.13-14c1.13-4.11,2.6-4.45,1.36-7.52l-.15-.73-1-5.15,5.16.22,3.45-9.49c-.14-.93.09-8,10.15-3.57l2.3.72a14.77,14.77,0,0,0,10.05-.36,40.22,40.22,0,0,0,9.23-5.63c2.47-2,4.67-6.41,6.33-10.68,1.39-3.58,2.41-7,2.89-8.79a10.13,10.13,0,0,1,.41-1.21l.54.2c4.21,1.14,6.22,5.09,5.55,9.41a118.28,118.28,0,0,0-1.17,14.29c-4.12,2.61-11.65,12.54-12.87,19.67a5.43,5.43,0,0,1-.69,1.84c-1.77,3-6,4.39-6,4.39Zm-28.07-.32c.45-1.36.34-2.63-.25-2.82s-1.44.75-1.89,2.12-.34,2.63.26,2.82S197.65,314.46,198.1,313.09Z"/><path class="cls-1" d="M143.6,360.63,139,373.72a1.21,1.21,0,0,1-1.25.81h-.06a1.23,1.23,0,0,1-1.13-1.32c.37-5.17,4.92-15.22,5.21-15.84l-5.41,10.82a.81.81,0,0,1-1.22.27l-.24-.19a.78.78,0,0,1-.27-.88l4.87-15.26c1.8-4.73,10.27-16.46,10.27-16.46,8.79-14.17,26.39-42.51,29.81-44.47s7-3.69,7-3.69c10.43-5.81,30.62-11.13,39.1-12.11s11.56-1.95,11.56-1.95l.41.16c-1.66,4.27-3.86,8.73-6.33,10.68a40.22,40.22,0,0,1-9.23,5.63,14.77,14.77,0,0,1-10.05.36l-2.3-.72c-10.06-4.43-10.29,2.64-10.15,3.57l-3.45,9.49L191,302.4l1,5.15-.55.11s-14.34,15.15-17.43,17.75-9.61,12.06-11.73,14.66-1.63,3.42-1.63,7.17a46.06,46.06,0,0,0,1.47,9.29l-.33,3.74c-.49,3.42,1.47,10.75,1.47,10.75-4.24.82-5-5.7-5.38-7.49s-.65-4.4-2.12-4.89-5,4.89-5,4.89A55.78,55.78,0,0,1,144.66,376a.8.8,0,0,1-1,.28.79.79,0,0,1-.44-.74,72.53,72.53,0,0,0,4-12.3l-4,12.07a.62.62,0,0,0,0,.23c-.23.57-.44,1.08-.62,1.5a1.21,1.21,0,0,1-1.13.74,1.19,1.19,0,0,1-.67-.2,1.24,1.24,0,0,1-.51-1.32C141.15,372.68,143.46,361.34,143.6,360.63Z"/><path class="cls-4" d="M232.34,309l.59.32c-4.36,8.23-5,18.59-4.62,22.59s.8,8.36.84,12.64h-1c-.89.32-1.76.59-2.61.83-14.75,4.18-24.14-2.49-34.74-12.32l.06-1.4s9.65-3.94,11.86-4.67c4.36-1.45,4.64-4.95,7.75-8.18s7.19-3.73,9.42-3c0,0,3.64,4.8,6.08-.56a8.85,8.85,0,0,0,.17-1.9h.14S230.57,312,232.34,309Z"/><path class="cls-4" d="M229.15,344.57c0,1,0,1.91,0,2.83,0,1.16-.31,3.67-.72,6.88l-.85-.1a7.58,7.58,0,0,1-1.8-8.13l-.19-.64c.85-.24,1.72-.51,2.61-.83Z"/><path d="M197.85,310.27c.59.19.7,1.46.25,2.82s-1.29,2.32-1.88,2.12-.71-1.46-.26-2.82S197.25,310.07,197.85,310.27Z"/><path class="cls-5" d="M219.92,315.87s3.64,4.8,6.08-.56a8.85,8.85,0,0,0,.17-1.9,8.06,8.06,0,0,0-3.43-6.67s-2.9-1.42-2.24,2.48"/><path class="cls-5" d="M221.69,301.83s.69-5.31-3.6-7.41"/><path class="cls-5" d="M190.89,331.69s9.65-3.94,11.86-4.67c4.36-1.45,4.64-4.95,7.75-8.18s7.19-3.73,9.42-3"/><path class="cls-5" d="M226.31,313.41s4.26-1.37,6-4.39a5.43,5.43,0,0,0,.69-1.84c1.22-7.13,8.75-17.06,12.87-19.67,0,0,6.95,9.61,16.51,12.95,9.38,3.28,12.22,15,12.33,15.43"/><path class="cls-5" d="M240.37,301.2a28,28,0,0,0-4.67,3.9,26.65,26.65,0,0,0-2.77,4.24c-4.36,8.23-5,18.59-4.62,22.59s.8,8.36.84,12.64c0,1,0,1.91,0,2.83,0,1.16-.31,3.67-.72,6.88-1.35,10.75-4.2,29.32-4.82,31.08-.82,2.28-4.07,9.28-5.05,16.61S213.81,435,213.81,435a15.26,15.26,0,0,1-.9,4.13c-.77,1.29-2.79,4-10.29,4.78l-5,.62a100.57,100.57,0,0,0-15.3,1.95l-3.58.57A2,2,0,0,0,177.1,449V449a2,2,0,0,0,2,2c4.33-.14,12.25-.19,15-.39l7.49-.1"/><path class="cls-5" d="M210.23,450.19l-2.73,1.58a1.29,1.29,0,0,0-.3.22,1.62,1.62,0,0,0-.31.33l-.84,1.18a1.94,1.94,0,0,1-1.49.81l-1.72.08a2,2,0,0,1-1.34-.45,2,2,0,0,1-.69-1.49,1.93,1.93,0,0,1,.35-1.12l.53-.75.48-.69a2.08,2.08,0,0,1,.61-.57l1.11-.65a10.37,10.37,0,0,0,1.31-1.24,3.17,3.17,0,0,1,2-1l2.37-.27"/><path class="cls-5" d="M547.16,446s1.54.1,4.17,2.06l1.54,1.16a.88.88,0,0,1,.35.89,2.78,2.78,0,0,1-.42,1,1.92,1.92,0,0,1-2,.72,3.14,3.14,0,0,1-1.77-.92c-2.39-2.4-3.94-2.82-5.38-3,2.75.51,3.65,2,3.94,3.11a.9.9,0,0,1-.88,1.13,16.93,16.93,0,0,1-3.48-.37l-1.37-.29a43,43,0,0,1-12.38-.81c-3.75-1-6.19,0-11.24-.16s-6-3.1-7.66-8.31-4.07-7-6.35-8.31c-1.11-.64-7-3.14-12.76-5.53-6-2.51-11.84-4.89-11.84-4.89-33.39-14.34-38-27.7-43-33.56l-2.17-2.52a68.57,68.57,0,0,0-10.21-10.17c-1.4-1.12-3.82-2.8-6.7-4.72-7.17-4.79-17.19-11.08-21.49-13.87-6-3.91-30.13-17.1-35-19.06s-22.15-7.81-28.51-19.38a82,82,0,0,0-4.73-7.74A25.56,25.56,0,0,0,315,302.28c-7.33-2.93-28.67,5.21-32.58,8-1.53,1.08-4.4,3.23-7.65,5.65h0c-5,3.74-10.91,8.15-14.17,10.33-5.38,3.58-5.87,9.12-6.36,14.55S243,382.1,242.16,385.36a53.6,53.6,0,0,0-1.14,5.86l-1.79,8.31c-2.94,16.78-13,36.49-15.81,42.68a54.79,54.79,0,0,1-4.39,8.47,3.76,3.76,0,0,1-3.75,2.12,37.24,37.24,0,0,1-8.08-.81h-.06"/><path class="cls-5" d="M552.17,445.59a4.51,4.51,0,0,1,1.39.74c1.27,1.05,2.36,2.18,2.94,2.73a.9.9,0,0,1,.2,1,2.42,2.42,0,0,1-.69.9c-.59.47-1.58.72-3.21.13"/><path class="cls-5" d="M553.93,445.1s2,.16,4.66,3.21l1.19,1.33a.86.86,0,0,1,.2.85,1.48,1.48,0,0,1-.49.7c-.52.39-1.54.55-3.48-.21"/><path class="cls-5" d="M559.49,451.19s2.32.62,3.34-.28,2-2.52.57-4.18a.84.84,0,0,0-.69-.26l-2.54.13a.85.85,0,0,1-.42-.08,32,32,0,0,1-5.51-3.24c-1.42-1.3-1.36-2.55-5-3.56s-8.14-4.07-10.51-5.66c0,0-12-7-19.83-10.91-2.8-1.4-8.58-4.49-15.89-9.09-11.91-7.52-27.87-19.05-41.52-33.8a24.57,24.57,0,0,1-5.13-8.61,41.59,41.59,0,0,0-7.83-13.33c-3.24-3.78-8.88-10.9-15.94-19.3-1.78-2.13-3.66-4.34-5.63-6.6-8.92-10.33-19.42-21.67-29.91-30.77l-6.19-6.21"/><path class="cls-5" d="M417.27,373s-1.43,9-2.87,16.6c-.73,3.87-1.47,7.38-2,9.14-1.63,5.21-4.71,4.87-8.14,6.19-2.2.83-6.84,1.95-5.87,9.77s3.26,6.51,1,19.22c0,0-1.23,6.15,2.94,10.54a8,8,0,0,0,4.51,2.34,21.71,21.71,0,0,0,6.56.15l6,.22a3.27,3.27,0,0,0,3.37-3l0-.58a.81.81,0,0,0-.7-.8l-6.77-.41s-3.59-1,1.62-9.45,6.52-12.05,8.48-18.89c1.11-3.88,3.88-11.94,6.07-18.18,1.67-4.75,3-8.45,3-8.45"/><path class="cls-5" d="M427,332.41s4.4,2,8.09,3.75,9.77,1.52,9.77,1.52"/><line class="cls-5" x1="435.08" y1="336.16" x2="432.91" y2="338.77"/><path class="cls-5" d="M448.55,358.32s5.21-8.47,7.38-12.17,6.95-10.2,9.77-18-17.59-28.46-38-40.4-31.06-15.86-36.28-16.94S379,266.88,371,262.53a35.17,35.17,0,0,0-15.14-4.67c-2.2-.25-4.74-.47-7.88-.76-11.52-1.08-30.63-8.25-39.32-10.2s-26.28,1.52-29.75,1.52-27-3.54-37.38,14.05a8.59,8.59,0,0,0-.56,1.14,10.13,10.13,0,0,0-.41,1.21c-.48,1.76-1.5,5.21-2.89,8.79-1.66,4.27-3.86,8.73-6.33,10.68a40.22,40.22,0,0,1-9.23,5.63,14.77,14.77,0,0,1-10.05.36l-2.3-.72c-10.06-4.43-10.29,2.64-10.15,3.57l-3.45,9.49L191,302.4l1,5.15.15.73c1.24,3.07-.23,3.41-1.36,7.52-1.44,5.23.13,14,.13,14l-.08,1.85-.06,1.4c10.6,9.83,20,16.5,34.74,12.32.85-.24,1.72-.51,2.61-.83"/><path class="cls-5" d="M245.9,287.51a118.28,118.28,0,0,1,1.17-14.29c.67-4.32-1.34-8.27-5.55-9.41"/><path class="cls-5" d="M327.83,312.46s8.64-13.44,11.47-17.35,11.07-16.29,13.46-20.85,3-15.72,3-15.72"/><path class="cls-5" d="M225.76,346.05a7.58,7.58,0,0,0,1.8,8.13"/><path class="cls-5" d="M143.18,375.5a.79.79,0,0,0,.44.74.8.8,0,0,0,1-.28,55.78,55.78,0,0,0,6.11-12.43s3.59-5.38,5-4.89,1.8,3.1,2.12,4.89,1.14,8.31,5.38,7.49c0,0-2-7.33-1.47-10.75l.33-3.74a46.06,46.06,0,0,1-1.47-9.29c0-3.75-.49-4.56,1.63-7.17S171,328,174.07,325.41s17.43-17.75,17.43-17.75"/><path class="cls-5" d="M143.18,375.5a72.53,72.53,0,0,0,4-12.3l-4,12.07A.62.62,0,0,0,143.18,375.5Z"/><path class="cls-5" d="M143.61,360.6v0c-.14.71-2.45,12.05-3.35,15.59a1.24,1.24,0,0,0,.51,1.32,1.19,1.19,0,0,0,.67.2,1.21,1.21,0,0,0,1.13-.74c.18-.42.39-.93.62-1.5"/><path class="cls-5" d="M141.81,357.34a.08.08,0,0,1,0,0c-.29.62-4.84,10.67-5.21,15.84a1.23,1.23,0,0,0,1.13,1.32h.06a1.21,1.21,0,0,0,1.25-.81l4.57-13.09"/><path class="cls-5" d="M237.27,273.45s-3.09,1-11.56,1.95-28.67,6.3-39.1,12.11c0,0-3.58,1.74-7,3.69s-21,30.3-29.81,44.47c0,0-8.47,11.73-10.27,16.46l-4.87,15.26a.78.78,0,0,0,.27.88l.24.19a.81.81,0,0,0,1.22-.27l5.41-10.82"/><path class="cls-5" d="M502.87,414.32s-4,12-11.37,14.05"/><path class="cls-5" d="M414.4,389.58s8.72,6.88,17.09,6.27"/></svg>