<svg id="Layer_1" data-name="Layer 1" xmlns="http://www.w3.org/2000/svg" viewBox="0 0 700 700"><defs><style>.cls-1{fill:#feae63;}.cls-2{fill:#99abcc;}.cls-3{fill:#c4e7f9;}.cls-4{fill:#392328;}.cls-5{fill:none;stroke:#000;stroke-linecap:round;stroke-linejoin:round;stroke-width:2.3px;}</style></defs><title>Yoga_poses_2020_color</title><path class="cls-1" d="M490.07,292.3s4.56,2.39,0,7.61l-3.7,4.12s.22,3.48-8.25,8.26-18.68,17.94-20,20.37c-1.2,2.23-5.7,8.47-13.67,1.21a20.66,20.66,0,0,0-9-4.75,29.88,29.88,0,0,0-6-.8,31,31,0,0,0,0-18.64c9.77-.87,10.21-1.52,19.11-2.82s25.83-5.65,30-7.61A81,81,0,0,0,490.07,292.3Z"/><path class="cls-2" d="M401.9,377.42c-14.41-5.83-41.06-22.13-41.06-22.13l0,0c5.2-6.13,9.8-11.61,11.77-13.86,3.13-3.56,8.38-8.55,12.43-13.53l.39.32c4,.75,10.87,2.14,17.95,3.58,11.93,2.45,24.4,5.07,24.4,5.07C471,351.38,463.79,382,463.79,382c-8.21,26-31.89,28.62-49.45,27.66C404.47,398.79,401.9,377.42,401.9,377.42Z"/><path class="cls-2" d="M429.47,309.68a31,31,0,0,1,0,18.64c-6.13-.24-14.38.83-26.14,3.44-7.08-1.44-14-2.83-17.95-3.58l-.39-.32a36,36,0,0,0,4.52-6.78A116.53,116.53,0,0,0,394,310l4.1-2.15a2.26,2.26,0,0,0,1-1.12l.3.16s1.46.27,3.8.64c3.37.54,8.57,1.3,13.76,1.8l2.5.22A64.58,64.58,0,0,0,429.47,309.68Z"/><path class="cls-1" d="M414,304.56l5.49,5-2.5-.22-5-1.87a6.23,6.23,0,0,0-2.6-.37l-6.13.44c-2.34-.37-3.8-.64-3.8-.64l-.3-.16a2.44,2.44,0,0,0,.15-1.29l-.12-.68.27-.05,1.48-1.38a3.24,3.24,0,0,0,.85-3.43L406.8,301a5,5,0,0,1,1.2.42l4.7,2.27A5.79,5.79,0,0,1,414,304.56Z"/><path class="cls-3" d="M401.9,377.42s2.57,21.37,12.44,32.25c-7.06-.39-13.13-1.35-16.8-1.6-11.17-.76-55,.63-66,1,.22-.17,2.89-2.27,0-7.5,0,0,8.61-13.86,7.37-22,.84-.88,1.74-1.79,2.68-2.72,4.41-4.34,12.34-13.52,19.21-21.58l0,0S387.49,371.59,401.9,377.42Z"/><path class="cls-1" d="M401.33,298.68l.41,1.19a3.24,3.24,0,0,1-.85,3.43l-1.48,1.38-.27.05.12.68a2.44,2.44,0,0,1-.15,1.29,2.26,2.26,0,0,1-1,1.12L394,310c.45-1.28.83-2.4,1.1-3.23a3.92,3.92,0,0,0-.29-3.09l-1.28-2.33a4.57,4.57,0,0,0-1.07-1.32l-2.73-2.28a4.6,4.6,0,0,0-2.94-1.07h-2c-3.84,1.51-7.85,5.78-11.85,11.18l.46-3.66-1.12-.14h-14L372,287.12a5.64,5.64,0,0,1,2.23-1.66l5-2.07a5.58,5.58,0,0,1,3.23-.31l15.07,3a3.4,3.4,0,0,1,2.59,2.33l2.22,7.13A2.87,2.87,0,0,1,401.33,298.68Z"/><path class="cls-1" d="M297.38,384v0c-.81-3.55-.26-7.84,3.59-12.47a27.62,27.62,0,0,1,2.74-2.84h0c11.6-10.48,20.21-13.63,28.44-18.56a58.29,58.29,0,0,0,7.17-5c1.07-.87,2.12-1.73,3.16-2.6,7.25-6,13.9-12,19.14-18.47a61.74,61.74,0,0,0,4.25-5.86c2.3-3.61,4.65-7.16,7-10.32,4-5.4,8-9.67,11.85-11.18h2a4.6,4.6,0,0,1,2.94,1.07l2.73,2.28a4.57,4.57,0,0,1,1.07,1.32l1.28,2.33a3.92,3.92,0,0,1,.29,3.09c-.27.83-.65,1.95-1.1,3.23a116.53,116.53,0,0,1-4.46,11.11,36,36,0,0,1-4.52,6.78c-4.05,5-9.3,10-12.43,13.53-2,2.25-6.57,7.73-11.77,13.86-6.87,8.06-14.8,17.24-19.21,21.58-.94.93-1.84,1.84-2.68,2.72,1.24,8.15-7.37,22-7.37,22h-9.76C297.69,400,297.38,384.75,297.38,384Z"/><path class="cls-2" d="M361.63,324c-5.24,6.46-11.89,12.45-19.14,18.47l-.91-1.09a29.53,29.53,0,0,1-5.67-5.7c-2.89-3.81-5.61-9.35-4.61-16,1.95-13,12.6-15.64,25.19-15.64h15.73l1.12.14-.46,3.66c-2.35,3.16-4.7,6.71-7,10.32A61.74,61.74,0,0,1,361.63,324Z"/><path class="cls-1" d="M341.58,341.39l.91,1.09c-1,.87-2.09,1.73-3.16,2.6a58.29,58.29,0,0,1-7.17,5,23.44,23.44,0,0,0-11.5,2.62l15.25-17A29.53,29.53,0,0,0,341.58,341.39Z"/><path class="cls-3" d="M320.66,352.67a23.44,23.44,0,0,1,11.5-2.62c-8.23,4.93-16.84,8.08-28.44,18.56.26-.43,6.84-10.9,16.93-15.93Z"/><path class="cls-1" d="M255.36,386.44a8.3,8.3,0,0,1-1.91.28c-5.77-1.14-1.93-5.79-1.93-5.79.22-2.34-1.21-6.19-5.06-8.48s-7.33-1.76-9.74-5.67c-1.19-1.93-6.95-10-7.25-10.46l1.81-.35s8.2-3.56,13.63-3.36c4.26.16,4.93,1.51,7.64-.4l5.44-2.5,1,5.07L269,356c.83-.33,7.05-1.59,6.05,7.37a9.8,9.8,0,0,0,.41,4.27c.37,1.05.87,2,1.48,2.1,0,0,14.9,2.64,24,1.77-3.85,4.63-4.4,8.92-3.59,12.47v0c0,.79.31,16,24.39,17.6h9.76c2.91,5.23.24,7.33,0,7.5h0l-2.52.09c-25.52-.65-38.34-11.72-45.5-14.11s-16,1.08-16,1.08h0c-.21-1.62-1.76-3.48-5.73-5.32a25.61,25.61,0,0,1-6.37-4.18Zm-3.46-28.28c.06-.62-1.06-1.22-2.49-1.35s-2.64.28-2.7.9,1.07,1.23,2.5,1.35S251.85,358.78,251.9,358.16Z"/><path class="cls-4" d="M255.41,386.62a25.61,25.61,0,0,0,6.37,4.18c4,1.84,5.52,3.7,5.73,5.32.24,1.8-1.13,3.32-2.67,4.21a14.11,14.11,0,0,1-6.35,1.77c-4.38.22-10.08.06-12.3.25a62.06,62.06,0,0,1-11.37-.12,11.09,11.09,0,0,1-9.35-6.66,38.54,38.54,0,0,1-2.78-5.08v0a29.1,29.1,0,0,1-2-5.92c-2-9.62,1.82-18.23,7.36-28l1.39-.26c.3.42,6.06,8.53,7.25,10.46,2.41,3.91,5.89,3.38,9.74,5.67s5.28,6.14,5.06,8.48c0,0-3.84,4.65,1.93,5.79a8.3,8.3,0,0,0,1.91-.28Z"/><path d="M249.41,356.81c1.43.13,2.55.73,2.49,1.35s-1.26,1-2.69.9-2.55-.73-2.5-1.35S248,356.69,249.41,356.81Z"/><path class="cls-4" d="M222.69,390.49c3.28,9.18-4.22,10.58-9.22,10.36-9.29-.41-8.19-8.34-3.19-14s10.27-2.25,10.27-2.25l.17,0a29.1,29.1,0,0,0,2,5.92Z"/><path class="cls-5" d="M251.52,380.93s-3.84,4.65,1.93,5.79a8.3,8.3,0,0,0,1.91-.28,8,8,0,0,0,5.69-4.86s.71-3.14-2.93-1.61"/><path class="cls-5" d="M265.58,379.44s5.33-.56,6.39-5.21"/><path class="cls-5" d="M229.46,356.31h0c.3.42,6.06,8.53,7.25,10.46,2.41,3.91,5.89,3.38,9.74,5.67s5.28,6.14,5.06,8.48"/><path class="cls-5" d="M220.55,384.59s-5.27-3.43-10.27,2.25-6.1,13.6,3.19,14c5,.22,12.5-1.18,9.22-10.36"/><path class="cls-5" d="M301,371.46h0c-9.14.87-24-1.77-24-1.77-.61-.07-1.11-1.05-1.48-2.1a9.8,9.8,0,0,1-.41-4.27c1-9-5.22-7.7-6.05-7.37l-10-1.17-1-5.07-5.44,2.5c-2.71,1.91-3.38.56-7.64.4-5.43-.2-13.63,3.36-13.63,3.36l-1.81.35-1.39.26c-5.54,9.74-9.38,18.35-7.36,28a29.1,29.1,0,0,0,2,5.92v0a38.54,38.54,0,0,0,2.78,5.08,11.09,11.09,0,0,0,9.35,6.66,62.06,62.06,0,0,0,11.37.12c2.22-.19,7.92,0,12.3-.25a14.11,14.11,0,0,0,6.35-1.77c1.54-.89,2.91-2.41,2.67-4.21-.21-1.62-1.76-3.48-5.73-5.32a25.61,25.61,0,0,1-6.37-4.18l0,0"/><path class="cls-5" d="M331.55,409.06c11-.36,54.82-1.75,66-1,3.67.25,9.74,1.21,16.8,1.6,17.56,1,41.24-1.64,49.45-27.66,0,0,7.16-30.63-36.06-45.18,0,0-12.47-2.62-24.4-5.07-7.08-1.44-14-2.83-17.95-3.58"/><path class="cls-5" d="M267.54,396.12s8.81-3.47,16-1.08,20,13.46,45.5,14.11l2.52-.09"/><path class="cls-5" d="M350.41,318.15s7.31,5.21,11.22,5.86"/><path class="cls-5" d="M422.3,379.44a113.86,113.86,0,0,1-13.68,0,27.27,27.27,0,0,1-6.72-2c-14.41-5.83-41.06-22.13-41.06-22.13"/><path class="cls-5" d="M341.58,341.39a29.53,29.53,0,0,1-5.67-5.7c-2.89-3.81-5.61-9.35-4.61-16,1.95-13,12.6-15.64,25.19-15.64h15.73"/><path class="cls-5" d="M399.41,306.86s1.46.27,3.8.64c3.37.54,8.57,1.3,13.76,1.8l2.5.22a64.58,64.58,0,0,0,10,.16c9.77-.87,10.21-1.52,19.11-2.82s25.83-5.65,30-7.61a81,81,0,0,0,11.51-6.95s4.56,2.39,0,7.61l-3.7,4.12s.22,3.48-8.25,8.26-18.68,17.94-20,20.37c-1.2,2.23-5.7,8.47-13.67,1.21a20.66,20.66,0,0,0-9-4.75,29.88,29.88,0,0,0-6-.8c-6.13-.24-14.38.83-26.14,3.44"/><path class="cls-5" d="M401.9,377.42s2.57,21.37,12.44,32.25a1.07,1.07,0,0,0,.14.16"/><path class="cls-5" d="M331.53,401.56s8.61-13.86,7.37-22"/><path class="cls-5" d="M297.38,384a14.39,14.39,0,0,0,1.09,3.08c1.95,4.06,6.49,7.41,11.25,7.41"/><path class="cls-5" d="M303.71,368.62a27.62,27.62,0,0,0-2.74,2.84c-3.85,4.63-4.4,8.92-3.59,12.47"/><path class="cls-5" d="M329.13,391a118.6,118.6,0,0,1,9.77-11.46c.84-.88,1.74-1.79,2.68-2.72,4.41-4.34,12.34-13.52,19.21-21.58,5.2-6.13,9.8-11.61,11.77-13.86,3.13-3.56,8.38-8.55,12.43-13.53a36,36,0,0,0,4.52-6.78A116.53,116.53,0,0,0,394,310c.45-1.28.83-2.4,1.1-3.23a3.92,3.92,0,0,0-.29-3.09l-1.28-2.33a4.57,4.57,0,0,0-1.07-1.32l-2.73-2.28a4.6,4.6,0,0,0-2.94-1.07h-2c-3.84,1.51-7.85,5.78-11.85,11.18-2.35,3.16-4.7,6.71-7,10.32a61.74,61.74,0,0,1-4.25,5.86c-5.24,6.46-11.89,12.45-19.14,18.47-1,.87-2.09,1.73-3.16,2.6a58.29,58.29,0,0,1-7.17,5c-8.23,4.93-16.84,8.08-28.44,18.56"/><path class="cls-5" d="M372.88,307.83l.46-3.66.42-3.4s1.95-7.38,1.19-8.47"/><path class="cls-5" d="M394,310l4.1-2.15a2.26,2.26,0,0,0,1-1.12,2.44,2.44,0,0,0,.15-1.29l-.12-.68-.93-5.36a3.54,3.54,0,0,0-.7-1.57l-4.42-5.5"/><path class="cls-5" d="M399.41,304.68l1.48-1.38a3.24,3.24,0,0,0,.85-3.43l-.41-1.19-2.92-8.44"/><path class="cls-5" d="M401.33,298.68a2.87,2.87,0,0,0,1-3.17l-2.22-7.13a3.4,3.4,0,0,0-2.59-2.33l-15.07-3a5.58,5.58,0,0,0-3.23.31l-5,2.07a5.64,5.64,0,0,0-2.23,1.66L358.23,304"/><path class="cls-5" d="M403.21,307.5l6.13-.44a6.23,6.23,0,0,1,2.6.37l5,1.87"/><path class="cls-5" d="M419.47,309.52l-5.49-5a5.79,5.79,0,0,0-1.28-.87l-4.7-2.27a5,5,0,0,0-1.2-.42l-5.06-1.13"/><path class="cls-5" d="M320.66,352.67a23.44,23.44,0,0,1,11.5-2.62h0"/><path class="cls-5" d="M303.71,368.62h0c.26-.43,6.84-10.9,16.93-15.93"/><polyline class="cls-5" points="320.65 352.68 320.66 352.67 335.91 335.69"/><path class="cls-5" d="M331.53,409.07h0c.22-.17,2.89-2.27,0-7.5"/><path class="cls-5" d="M297.38,383.93v0c0,.79.31,16,24.39,17.6h9.76"/><path class="cls-5" d="M429.47,309.68a31,31,0,0,1,0,18.64"/></svg>